G75*
%MOMM*%
%FSLAX34Y34*%
%LPD*%
%AMOC8*
5,1,8,0,0,1.08239X$1,22.5*%
G01*
%ADD10C,3.003200*%
%ADD11C,2.743200*%
%ADD12C,2.184400*%
%ADD13P,2.144431X8X292.500000*%
%ADD14P,2.144431X8X112.500000*%
%ADD15P,2.144431X8X22.500000*%
%ADD16C,1.524000*%
%ADD17P,2.969212X8X292.500000*%
%ADD18P,2.969212X8X22.500000*%
%ADD19P,2.969212X8X202.500000*%
%ADD20C,1.711200*%
%ADD21C,1.879600*%
%ADD22C,3.505200*%
%ADD23P,1.951982X8X112.500000*%
%ADD24P,1.951982X8X22.500000*%
%ADD25P,4.008307X8X22.500000*%
%ADD26P,2.925917X8X22.500000*%
%ADD27P,2.969212X8X112.500000*%
%ADD28C,2.387600*%
%ADD29C,0.254000*%


D10*
X806800Y72000D03*
X99800Y959400D03*
X115800Y41000D03*
X378800Y412000D03*
X590800Y911000D03*
D11*
X303000Y502200D03*
X303000Y603800D03*
X785600Y832400D03*
X684000Y832400D03*
D12*
X252200Y670856D02*
X252200Y651044D01*
X311890Y671364D02*
X311890Y691176D01*
X192510Y691176D02*
X192510Y671364D01*
X192510Y793284D02*
X192510Y813096D01*
X311890Y813096D02*
X311890Y793284D01*
D13*
X798300Y959400D03*
X798300Y934000D03*
D14*
X820500Y561600D03*
X820500Y587000D03*
D15*
X137900Y921300D03*
X163300Y921300D03*
D16*
X347196Y502200D02*
X360404Y502200D01*
X360404Y553000D02*
X347196Y553000D01*
X347196Y527600D02*
X360404Y527600D01*
D17*
X829200Y731100D03*
X829200Y629500D03*
D18*
X163300Y591100D03*
X264900Y591100D03*
D19*
X785600Y883200D03*
X684000Y883200D03*
D17*
X417300Y578400D03*
X417300Y476800D03*
D20*
X747500Y939160D02*
X747500Y954240D01*
X722100Y954240D02*
X722100Y939160D01*
X303000Y928840D02*
X303000Y913760D01*
X277600Y913760D02*
X277600Y928840D01*
X252200Y928840D02*
X252200Y913760D01*
X226800Y913760D02*
X226800Y928840D01*
D21*
X722100Y574082D02*
X722100Y557318D01*
X747500Y557318D02*
X747500Y574082D01*
X772900Y574082D02*
X772900Y557318D01*
D22*
X747500Y740960D03*
D23*
X633200Y641900D03*
X633200Y692700D03*
D24*
X734800Y460900D03*
X760200Y460900D03*
D16*
X569700Y463592D02*
X569700Y476800D01*
X595100Y476800D02*
X595100Y463592D01*
X595100Y553000D02*
X595100Y566208D01*
X569700Y566208D02*
X569700Y553000D01*
X620500Y476800D02*
X620500Y463592D01*
X645900Y463592D02*
X645900Y476800D01*
X620500Y553000D02*
X620500Y566208D01*
X645900Y566208D02*
X645900Y553000D01*
D17*
X462900Y564700D03*
X462900Y463100D03*
X650000Y428300D03*
X650000Y326700D03*
D25*
X401973Y822100D03*
D26*
X424373Y726200D03*
D25*
X541873Y681500D03*
X425373Y659700D03*
X541873Y795600D03*
D26*
X423873Y768600D03*
D16*
X252200Y267504D02*
X252200Y254296D01*
X277600Y254296D02*
X277600Y267504D01*
X303000Y267504D02*
X303000Y254296D01*
X328400Y254296D02*
X328400Y267504D01*
X353800Y267504D02*
X353800Y254296D01*
X379200Y254296D02*
X379200Y267504D01*
X404600Y267504D02*
X404600Y254296D01*
X430000Y254296D02*
X430000Y267504D01*
X455400Y267504D02*
X455400Y254296D01*
X480800Y254296D02*
X480800Y267504D01*
X506200Y267504D02*
X506200Y254296D01*
X531600Y254296D02*
X531600Y267504D01*
X557000Y267504D02*
X557000Y254296D01*
X582400Y254296D02*
X582400Y267504D01*
X582400Y330496D02*
X582400Y343704D01*
X557000Y343704D02*
X557000Y330496D01*
X531600Y330496D02*
X531600Y343704D01*
X506200Y343704D02*
X506200Y330496D01*
X480800Y330496D02*
X480800Y343704D01*
X455400Y343704D02*
X455400Y330496D01*
X430000Y330496D02*
X430000Y343704D01*
X404600Y343704D02*
X404600Y330496D01*
X379200Y330496D02*
X379200Y343704D01*
X353800Y343704D02*
X353800Y330496D01*
X328400Y330496D02*
X328400Y343704D01*
X303000Y343704D02*
X303000Y330496D01*
X277600Y330496D02*
X277600Y343704D01*
X252200Y343704D02*
X252200Y330496D01*
D27*
X154700Y232200D03*
X154700Y333800D03*
D28*
X87100Y437900D03*
X87100Y387900D03*
X87100Y337900D03*
X87100Y247400D03*
X87100Y197400D03*
X87100Y147400D03*
D20*
X275600Y452460D02*
X275600Y467540D01*
X250200Y467540D02*
X250200Y452460D01*
X224800Y452460D02*
X224800Y467540D01*
X199400Y467540D02*
X199400Y452460D01*
X174000Y452460D02*
X174000Y467540D01*
D19*
X791400Y170300D03*
X689800Y170300D03*
X790400Y209600D03*
X688800Y209600D03*
D18*
X689800Y251900D03*
X791400Y251900D03*
X687600Y292600D03*
X789200Y292600D03*
D15*
X550700Y406900D03*
X576100Y406900D03*
D27*
X509100Y372700D03*
X509100Y474300D03*
D24*
X219300Y210000D03*
X244700Y210000D03*
D20*
X365200Y173540D02*
X365200Y158460D01*
X390600Y158460D02*
X390600Y173540D01*
X416000Y173540D02*
X416000Y158460D01*
X441400Y158460D02*
X441400Y173540D01*
X466800Y173540D02*
X466800Y158460D01*
X503200Y190460D02*
X503200Y205540D01*
X528600Y205540D02*
X528600Y190460D01*
X554000Y190460D02*
X554000Y205540D01*
X579400Y205540D02*
X579400Y190460D01*
X604800Y190460D02*
X604800Y205540D01*
D19*
X318800Y161000D03*
X217200Y161000D03*
X318800Y123000D03*
X217200Y123000D03*
D18*
X216200Y84000D03*
X317800Y84000D03*
X72200Y83000D03*
X173800Y83000D03*
D29*
X3900Y-6600D02*
X881500Y-3600D01*
X883500Y1006900D01*
X3900Y1006900D01*
X3900Y-6600D01*
M02*
