G75*
%MOMM*%
%FSLAX34Y34*%
%LPD*%
%AMOC8*
5,1,8,0,0,1.08239X$1,22.5*%
G01*
%ADD10C,0.000000*%
%ADD11C,0.152400*%
%ADD12C,0.127000*%
%ADD13R,2.540000X0.508000*%
%ADD14R,0.762000X1.905000*%
%ADD15R,0.508000X2.540000*%
%ADD16R,1.905000X0.762000*%
%ADD17C,0.254000*%
%ADD18C,0.177800*%
%ADD19R,0.609600X0.863600*%
%ADD20R,0.863600X0.609600*%
%ADD21C,0.101600*%
%ADD22C,0.050800*%
%ADD23R,0.762000X0.635000*%
%ADD24R,1.270000X2.794000*%
%ADD25C,0.304800*%
%ADD26C,0.203200*%
%ADD27C,0.254000*%


D10*
X3900Y-6600D02*
X881500Y-3600D01*
X883500Y1006900D01*
X3900Y1006900D01*
X3900Y-6600D01*
X792800Y72000D02*
X792804Y72344D01*
X792817Y72687D01*
X792838Y73030D01*
X792867Y73372D01*
X792905Y73714D01*
X792952Y74054D01*
X793006Y74393D01*
X793069Y74731D01*
X793140Y75067D01*
X793220Y75402D01*
X793307Y75734D01*
X793403Y76064D01*
X793507Y76392D01*
X793618Y76716D01*
X793738Y77039D01*
X793866Y77358D01*
X794001Y77673D01*
X794144Y77986D01*
X794295Y78295D01*
X794453Y78600D01*
X794619Y78901D01*
X794792Y79197D01*
X794972Y79490D01*
X795159Y79778D01*
X795354Y80061D01*
X795555Y80340D01*
X795763Y80613D01*
X795978Y80882D01*
X796199Y81144D01*
X796427Y81402D01*
X796661Y81654D01*
X796901Y81899D01*
X797146Y82139D01*
X797398Y82373D01*
X797656Y82601D01*
X797918Y82822D01*
X798187Y83037D01*
X798460Y83245D01*
X798739Y83446D01*
X799022Y83641D01*
X799310Y83828D01*
X799603Y84008D01*
X799899Y84181D01*
X800200Y84347D01*
X800505Y84505D01*
X800814Y84656D01*
X801127Y84799D01*
X801442Y84934D01*
X801761Y85062D01*
X802084Y85182D01*
X802408Y85293D01*
X802736Y85397D01*
X803066Y85493D01*
X803398Y85580D01*
X803733Y85660D01*
X804069Y85731D01*
X804407Y85794D01*
X804746Y85848D01*
X805086Y85895D01*
X805428Y85933D01*
X805770Y85962D01*
X806113Y85983D01*
X806456Y85996D01*
X806800Y86000D01*
X807144Y85996D01*
X807487Y85983D01*
X807830Y85962D01*
X808172Y85933D01*
X808514Y85895D01*
X808854Y85848D01*
X809193Y85794D01*
X809531Y85731D01*
X809867Y85660D01*
X810202Y85580D01*
X810534Y85493D01*
X810864Y85397D01*
X811192Y85293D01*
X811516Y85182D01*
X811839Y85062D01*
X812158Y84934D01*
X812473Y84799D01*
X812786Y84656D01*
X813095Y84505D01*
X813400Y84347D01*
X813701Y84181D01*
X813997Y84008D01*
X814290Y83828D01*
X814578Y83641D01*
X814861Y83446D01*
X815140Y83245D01*
X815413Y83037D01*
X815682Y82822D01*
X815944Y82601D01*
X816202Y82373D01*
X816454Y82139D01*
X816699Y81899D01*
X816939Y81654D01*
X817173Y81402D01*
X817401Y81144D01*
X817622Y80882D01*
X817837Y80613D01*
X818045Y80340D01*
X818246Y80061D01*
X818441Y79778D01*
X818628Y79490D01*
X818808Y79197D01*
X818981Y78901D01*
X819147Y78600D01*
X819305Y78295D01*
X819456Y77986D01*
X819599Y77673D01*
X819734Y77358D01*
X819862Y77039D01*
X819982Y76716D01*
X820093Y76392D01*
X820197Y76064D01*
X820293Y75734D01*
X820380Y75402D01*
X820460Y75067D01*
X820531Y74731D01*
X820594Y74393D01*
X820648Y74054D01*
X820695Y73714D01*
X820733Y73372D01*
X820762Y73030D01*
X820783Y72687D01*
X820796Y72344D01*
X820800Y72000D01*
X820796Y71656D01*
X820783Y71313D01*
X820762Y70970D01*
X820733Y70628D01*
X820695Y70286D01*
X820648Y69946D01*
X820594Y69607D01*
X820531Y69269D01*
X820460Y68933D01*
X820380Y68598D01*
X820293Y68266D01*
X820197Y67936D01*
X820093Y67608D01*
X819982Y67284D01*
X819862Y66961D01*
X819734Y66642D01*
X819599Y66327D01*
X819456Y66014D01*
X819305Y65705D01*
X819147Y65400D01*
X818981Y65099D01*
X818808Y64803D01*
X818628Y64510D01*
X818441Y64222D01*
X818246Y63939D01*
X818045Y63660D01*
X817837Y63387D01*
X817622Y63118D01*
X817401Y62856D01*
X817173Y62598D01*
X816939Y62346D01*
X816699Y62101D01*
X816454Y61861D01*
X816202Y61627D01*
X815944Y61399D01*
X815682Y61178D01*
X815413Y60963D01*
X815140Y60755D01*
X814861Y60554D01*
X814578Y60359D01*
X814290Y60172D01*
X813997Y59992D01*
X813701Y59819D01*
X813400Y59653D01*
X813095Y59495D01*
X812786Y59344D01*
X812473Y59201D01*
X812158Y59066D01*
X811839Y58938D01*
X811516Y58818D01*
X811192Y58707D01*
X810864Y58603D01*
X810534Y58507D01*
X810202Y58420D01*
X809867Y58340D01*
X809531Y58269D01*
X809193Y58206D01*
X808854Y58152D01*
X808514Y58105D01*
X808172Y58067D01*
X807830Y58038D01*
X807487Y58017D01*
X807144Y58004D01*
X806800Y58000D01*
X806456Y58004D01*
X806113Y58017D01*
X805770Y58038D01*
X805428Y58067D01*
X805086Y58105D01*
X804746Y58152D01*
X804407Y58206D01*
X804069Y58269D01*
X803733Y58340D01*
X803398Y58420D01*
X803066Y58507D01*
X802736Y58603D01*
X802408Y58707D01*
X802084Y58818D01*
X801761Y58938D01*
X801442Y59066D01*
X801127Y59201D01*
X800814Y59344D01*
X800505Y59495D01*
X800200Y59653D01*
X799899Y59819D01*
X799603Y59992D01*
X799310Y60172D01*
X799022Y60359D01*
X798739Y60554D01*
X798460Y60755D01*
X798187Y60963D01*
X797918Y61178D01*
X797656Y61399D01*
X797398Y61627D01*
X797146Y61861D01*
X796901Y62101D01*
X796661Y62346D01*
X796427Y62598D01*
X796199Y62856D01*
X795978Y63118D01*
X795763Y63387D01*
X795555Y63660D01*
X795354Y63939D01*
X795159Y64222D01*
X794972Y64510D01*
X794792Y64803D01*
X794619Y65099D01*
X794453Y65400D01*
X794295Y65705D01*
X794144Y66014D01*
X794001Y66327D01*
X793866Y66642D01*
X793738Y66961D01*
X793618Y67284D01*
X793507Y67608D01*
X793403Y67936D01*
X793307Y68266D01*
X793220Y68598D01*
X793140Y68933D01*
X793069Y69269D01*
X793006Y69607D01*
X792952Y69946D01*
X792905Y70286D01*
X792867Y70628D01*
X792838Y70970D01*
X792817Y71313D01*
X792804Y71656D01*
X792800Y72000D01*
X85800Y959400D02*
X85804Y959744D01*
X85817Y960087D01*
X85838Y960430D01*
X85867Y960772D01*
X85905Y961114D01*
X85952Y961454D01*
X86006Y961793D01*
X86069Y962131D01*
X86140Y962467D01*
X86220Y962802D01*
X86307Y963134D01*
X86403Y963464D01*
X86507Y963792D01*
X86618Y964116D01*
X86738Y964439D01*
X86866Y964758D01*
X87001Y965073D01*
X87144Y965386D01*
X87295Y965695D01*
X87453Y966000D01*
X87619Y966301D01*
X87792Y966597D01*
X87972Y966890D01*
X88159Y967178D01*
X88354Y967461D01*
X88555Y967740D01*
X88763Y968013D01*
X88978Y968282D01*
X89199Y968544D01*
X89427Y968802D01*
X89661Y969054D01*
X89901Y969299D01*
X90146Y969539D01*
X90398Y969773D01*
X90656Y970001D01*
X90918Y970222D01*
X91187Y970437D01*
X91460Y970645D01*
X91739Y970846D01*
X92022Y971041D01*
X92310Y971228D01*
X92603Y971408D01*
X92899Y971581D01*
X93200Y971747D01*
X93505Y971905D01*
X93814Y972056D01*
X94127Y972199D01*
X94442Y972334D01*
X94761Y972462D01*
X95084Y972582D01*
X95408Y972693D01*
X95736Y972797D01*
X96066Y972893D01*
X96398Y972980D01*
X96733Y973060D01*
X97069Y973131D01*
X97407Y973194D01*
X97746Y973248D01*
X98086Y973295D01*
X98428Y973333D01*
X98770Y973362D01*
X99113Y973383D01*
X99456Y973396D01*
X99800Y973400D01*
X100144Y973396D01*
X100487Y973383D01*
X100830Y973362D01*
X101172Y973333D01*
X101514Y973295D01*
X101854Y973248D01*
X102193Y973194D01*
X102531Y973131D01*
X102867Y973060D01*
X103202Y972980D01*
X103534Y972893D01*
X103864Y972797D01*
X104192Y972693D01*
X104516Y972582D01*
X104839Y972462D01*
X105158Y972334D01*
X105473Y972199D01*
X105786Y972056D01*
X106095Y971905D01*
X106400Y971747D01*
X106701Y971581D01*
X106997Y971408D01*
X107290Y971228D01*
X107578Y971041D01*
X107861Y970846D01*
X108140Y970645D01*
X108413Y970437D01*
X108682Y970222D01*
X108944Y970001D01*
X109202Y969773D01*
X109454Y969539D01*
X109699Y969299D01*
X109939Y969054D01*
X110173Y968802D01*
X110401Y968544D01*
X110622Y968282D01*
X110837Y968013D01*
X111045Y967740D01*
X111246Y967461D01*
X111441Y967178D01*
X111628Y966890D01*
X111808Y966597D01*
X111981Y966301D01*
X112147Y966000D01*
X112305Y965695D01*
X112456Y965386D01*
X112599Y965073D01*
X112734Y964758D01*
X112862Y964439D01*
X112982Y964116D01*
X113093Y963792D01*
X113197Y963464D01*
X113293Y963134D01*
X113380Y962802D01*
X113460Y962467D01*
X113531Y962131D01*
X113594Y961793D01*
X113648Y961454D01*
X113695Y961114D01*
X113733Y960772D01*
X113762Y960430D01*
X113783Y960087D01*
X113796Y959744D01*
X113800Y959400D01*
X113796Y959056D01*
X113783Y958713D01*
X113762Y958370D01*
X113733Y958028D01*
X113695Y957686D01*
X113648Y957346D01*
X113594Y957007D01*
X113531Y956669D01*
X113460Y956333D01*
X113380Y955998D01*
X113293Y955666D01*
X113197Y955336D01*
X113093Y955008D01*
X112982Y954684D01*
X112862Y954361D01*
X112734Y954042D01*
X112599Y953727D01*
X112456Y953414D01*
X112305Y953105D01*
X112147Y952800D01*
X111981Y952499D01*
X111808Y952203D01*
X111628Y951910D01*
X111441Y951622D01*
X111246Y951339D01*
X111045Y951060D01*
X110837Y950787D01*
X110622Y950518D01*
X110401Y950256D01*
X110173Y949998D01*
X109939Y949746D01*
X109699Y949501D01*
X109454Y949261D01*
X109202Y949027D01*
X108944Y948799D01*
X108682Y948578D01*
X108413Y948363D01*
X108140Y948155D01*
X107861Y947954D01*
X107578Y947759D01*
X107290Y947572D01*
X106997Y947392D01*
X106701Y947219D01*
X106400Y947053D01*
X106095Y946895D01*
X105786Y946744D01*
X105473Y946601D01*
X105158Y946466D01*
X104839Y946338D01*
X104516Y946218D01*
X104192Y946107D01*
X103864Y946003D01*
X103534Y945907D01*
X103202Y945820D01*
X102867Y945740D01*
X102531Y945669D01*
X102193Y945606D01*
X101854Y945552D01*
X101514Y945505D01*
X101172Y945467D01*
X100830Y945438D01*
X100487Y945417D01*
X100144Y945404D01*
X99800Y945400D01*
X99456Y945404D01*
X99113Y945417D01*
X98770Y945438D01*
X98428Y945467D01*
X98086Y945505D01*
X97746Y945552D01*
X97407Y945606D01*
X97069Y945669D01*
X96733Y945740D01*
X96398Y945820D01*
X96066Y945907D01*
X95736Y946003D01*
X95408Y946107D01*
X95084Y946218D01*
X94761Y946338D01*
X94442Y946466D01*
X94127Y946601D01*
X93814Y946744D01*
X93505Y946895D01*
X93200Y947053D01*
X92899Y947219D01*
X92603Y947392D01*
X92310Y947572D01*
X92022Y947759D01*
X91739Y947954D01*
X91460Y948155D01*
X91187Y948363D01*
X90918Y948578D01*
X90656Y948799D01*
X90398Y949027D01*
X90146Y949261D01*
X89901Y949501D01*
X89661Y949746D01*
X89427Y949998D01*
X89199Y950256D01*
X88978Y950518D01*
X88763Y950787D01*
X88555Y951060D01*
X88354Y951339D01*
X88159Y951622D01*
X87972Y951910D01*
X87792Y952203D01*
X87619Y952499D01*
X87453Y952800D01*
X87295Y953105D01*
X87144Y953414D01*
X87001Y953727D01*
X86866Y954042D01*
X86738Y954361D01*
X86618Y954684D01*
X86507Y955008D01*
X86403Y955336D01*
X86307Y955666D01*
X86220Y955998D01*
X86140Y956333D01*
X86069Y956669D01*
X86006Y957007D01*
X85952Y957346D01*
X85905Y957686D01*
X85867Y958028D01*
X85838Y958370D01*
X85817Y958713D01*
X85804Y959056D01*
X85800Y959400D01*
X101800Y41000D02*
X101804Y41344D01*
X101817Y41687D01*
X101838Y42030D01*
X101867Y42372D01*
X101905Y42714D01*
X101952Y43054D01*
X102006Y43393D01*
X102069Y43731D01*
X102140Y44067D01*
X102220Y44402D01*
X102307Y44734D01*
X102403Y45064D01*
X102507Y45392D01*
X102618Y45716D01*
X102738Y46039D01*
X102866Y46358D01*
X103001Y46673D01*
X103144Y46986D01*
X103295Y47295D01*
X103453Y47600D01*
X103619Y47901D01*
X103792Y48197D01*
X103972Y48490D01*
X104159Y48778D01*
X104354Y49061D01*
X104555Y49340D01*
X104763Y49613D01*
X104978Y49882D01*
X105199Y50144D01*
X105427Y50402D01*
X105661Y50654D01*
X105901Y50899D01*
X106146Y51139D01*
X106398Y51373D01*
X106656Y51601D01*
X106918Y51822D01*
X107187Y52037D01*
X107460Y52245D01*
X107739Y52446D01*
X108022Y52641D01*
X108310Y52828D01*
X108603Y53008D01*
X108899Y53181D01*
X109200Y53347D01*
X109505Y53505D01*
X109814Y53656D01*
X110127Y53799D01*
X110442Y53934D01*
X110761Y54062D01*
X111084Y54182D01*
X111408Y54293D01*
X111736Y54397D01*
X112066Y54493D01*
X112398Y54580D01*
X112733Y54660D01*
X113069Y54731D01*
X113407Y54794D01*
X113746Y54848D01*
X114086Y54895D01*
X114428Y54933D01*
X114770Y54962D01*
X115113Y54983D01*
X115456Y54996D01*
X115800Y55000D01*
X116144Y54996D01*
X116487Y54983D01*
X116830Y54962D01*
X117172Y54933D01*
X117514Y54895D01*
X117854Y54848D01*
X118193Y54794D01*
X118531Y54731D01*
X118867Y54660D01*
X119202Y54580D01*
X119534Y54493D01*
X119864Y54397D01*
X120192Y54293D01*
X120516Y54182D01*
X120839Y54062D01*
X121158Y53934D01*
X121473Y53799D01*
X121786Y53656D01*
X122095Y53505D01*
X122400Y53347D01*
X122701Y53181D01*
X122997Y53008D01*
X123290Y52828D01*
X123578Y52641D01*
X123861Y52446D01*
X124140Y52245D01*
X124413Y52037D01*
X124682Y51822D01*
X124944Y51601D01*
X125202Y51373D01*
X125454Y51139D01*
X125699Y50899D01*
X125939Y50654D01*
X126173Y50402D01*
X126401Y50144D01*
X126622Y49882D01*
X126837Y49613D01*
X127045Y49340D01*
X127246Y49061D01*
X127441Y48778D01*
X127628Y48490D01*
X127808Y48197D01*
X127981Y47901D01*
X128147Y47600D01*
X128305Y47295D01*
X128456Y46986D01*
X128599Y46673D01*
X128734Y46358D01*
X128862Y46039D01*
X128982Y45716D01*
X129093Y45392D01*
X129197Y45064D01*
X129293Y44734D01*
X129380Y44402D01*
X129460Y44067D01*
X129531Y43731D01*
X129594Y43393D01*
X129648Y43054D01*
X129695Y42714D01*
X129733Y42372D01*
X129762Y42030D01*
X129783Y41687D01*
X129796Y41344D01*
X129800Y41000D01*
X129796Y40656D01*
X129783Y40313D01*
X129762Y39970D01*
X129733Y39628D01*
X129695Y39286D01*
X129648Y38946D01*
X129594Y38607D01*
X129531Y38269D01*
X129460Y37933D01*
X129380Y37598D01*
X129293Y37266D01*
X129197Y36936D01*
X129093Y36608D01*
X128982Y36284D01*
X128862Y35961D01*
X128734Y35642D01*
X128599Y35327D01*
X128456Y35014D01*
X128305Y34705D01*
X128147Y34400D01*
X127981Y34099D01*
X127808Y33803D01*
X127628Y33510D01*
X127441Y33222D01*
X127246Y32939D01*
X127045Y32660D01*
X126837Y32387D01*
X126622Y32118D01*
X126401Y31856D01*
X126173Y31598D01*
X125939Y31346D01*
X125699Y31101D01*
X125454Y30861D01*
X125202Y30627D01*
X124944Y30399D01*
X124682Y30178D01*
X124413Y29963D01*
X124140Y29755D01*
X123861Y29554D01*
X123578Y29359D01*
X123290Y29172D01*
X122997Y28992D01*
X122701Y28819D01*
X122400Y28653D01*
X122095Y28495D01*
X121786Y28344D01*
X121473Y28201D01*
X121158Y28066D01*
X120839Y27938D01*
X120516Y27818D01*
X120192Y27707D01*
X119864Y27603D01*
X119534Y27507D01*
X119202Y27420D01*
X118867Y27340D01*
X118531Y27269D01*
X118193Y27206D01*
X117854Y27152D01*
X117514Y27105D01*
X117172Y27067D01*
X116830Y27038D01*
X116487Y27017D01*
X116144Y27004D01*
X115800Y27000D01*
X115456Y27004D01*
X115113Y27017D01*
X114770Y27038D01*
X114428Y27067D01*
X114086Y27105D01*
X113746Y27152D01*
X113407Y27206D01*
X113069Y27269D01*
X112733Y27340D01*
X112398Y27420D01*
X112066Y27507D01*
X111736Y27603D01*
X111408Y27707D01*
X111084Y27818D01*
X110761Y27938D01*
X110442Y28066D01*
X110127Y28201D01*
X109814Y28344D01*
X109505Y28495D01*
X109200Y28653D01*
X108899Y28819D01*
X108603Y28992D01*
X108310Y29172D01*
X108022Y29359D01*
X107739Y29554D01*
X107460Y29755D01*
X107187Y29963D01*
X106918Y30178D01*
X106656Y30399D01*
X106398Y30627D01*
X106146Y30861D01*
X105901Y31101D01*
X105661Y31346D01*
X105427Y31598D01*
X105199Y31856D01*
X104978Y32118D01*
X104763Y32387D01*
X104555Y32660D01*
X104354Y32939D01*
X104159Y33222D01*
X103972Y33510D01*
X103792Y33803D01*
X103619Y34099D01*
X103453Y34400D01*
X103295Y34705D01*
X103144Y35014D01*
X103001Y35327D01*
X102866Y35642D01*
X102738Y35961D01*
X102618Y36284D01*
X102507Y36608D01*
X102403Y36936D01*
X102307Y37266D01*
X102220Y37598D01*
X102140Y37933D01*
X102069Y38269D01*
X102006Y38607D01*
X101952Y38946D01*
X101905Y39286D01*
X101867Y39628D01*
X101838Y39970D01*
X101817Y40313D01*
X101804Y40656D01*
X101800Y41000D01*
X364800Y412000D02*
X364804Y412344D01*
X364817Y412687D01*
X364838Y413030D01*
X364867Y413372D01*
X364905Y413714D01*
X364952Y414054D01*
X365006Y414393D01*
X365069Y414731D01*
X365140Y415067D01*
X365220Y415402D01*
X365307Y415734D01*
X365403Y416064D01*
X365507Y416392D01*
X365618Y416716D01*
X365738Y417039D01*
X365866Y417358D01*
X366001Y417673D01*
X366144Y417986D01*
X366295Y418295D01*
X366453Y418600D01*
X366619Y418901D01*
X366792Y419197D01*
X366972Y419490D01*
X367159Y419778D01*
X367354Y420061D01*
X367555Y420340D01*
X367763Y420613D01*
X367978Y420882D01*
X368199Y421144D01*
X368427Y421402D01*
X368661Y421654D01*
X368901Y421899D01*
X369146Y422139D01*
X369398Y422373D01*
X369656Y422601D01*
X369918Y422822D01*
X370187Y423037D01*
X370460Y423245D01*
X370739Y423446D01*
X371022Y423641D01*
X371310Y423828D01*
X371603Y424008D01*
X371899Y424181D01*
X372200Y424347D01*
X372505Y424505D01*
X372814Y424656D01*
X373127Y424799D01*
X373442Y424934D01*
X373761Y425062D01*
X374084Y425182D01*
X374408Y425293D01*
X374736Y425397D01*
X375066Y425493D01*
X375398Y425580D01*
X375733Y425660D01*
X376069Y425731D01*
X376407Y425794D01*
X376746Y425848D01*
X377086Y425895D01*
X377428Y425933D01*
X377770Y425962D01*
X378113Y425983D01*
X378456Y425996D01*
X378800Y426000D01*
X379144Y425996D01*
X379487Y425983D01*
X379830Y425962D01*
X380172Y425933D01*
X380514Y425895D01*
X380854Y425848D01*
X381193Y425794D01*
X381531Y425731D01*
X381867Y425660D01*
X382202Y425580D01*
X382534Y425493D01*
X382864Y425397D01*
X383192Y425293D01*
X383516Y425182D01*
X383839Y425062D01*
X384158Y424934D01*
X384473Y424799D01*
X384786Y424656D01*
X385095Y424505D01*
X385400Y424347D01*
X385701Y424181D01*
X385997Y424008D01*
X386290Y423828D01*
X386578Y423641D01*
X386861Y423446D01*
X387140Y423245D01*
X387413Y423037D01*
X387682Y422822D01*
X387944Y422601D01*
X388202Y422373D01*
X388454Y422139D01*
X388699Y421899D01*
X388939Y421654D01*
X389173Y421402D01*
X389401Y421144D01*
X389622Y420882D01*
X389837Y420613D01*
X390045Y420340D01*
X390246Y420061D01*
X390441Y419778D01*
X390628Y419490D01*
X390808Y419197D01*
X390981Y418901D01*
X391147Y418600D01*
X391305Y418295D01*
X391456Y417986D01*
X391599Y417673D01*
X391734Y417358D01*
X391862Y417039D01*
X391982Y416716D01*
X392093Y416392D01*
X392197Y416064D01*
X392293Y415734D01*
X392380Y415402D01*
X392460Y415067D01*
X392531Y414731D01*
X392594Y414393D01*
X392648Y414054D01*
X392695Y413714D01*
X392733Y413372D01*
X392762Y413030D01*
X392783Y412687D01*
X392796Y412344D01*
X392800Y412000D01*
X392796Y411656D01*
X392783Y411313D01*
X392762Y410970D01*
X392733Y410628D01*
X392695Y410286D01*
X392648Y409946D01*
X392594Y409607D01*
X392531Y409269D01*
X392460Y408933D01*
X392380Y408598D01*
X392293Y408266D01*
X392197Y407936D01*
X392093Y407608D01*
X391982Y407284D01*
X391862Y406961D01*
X391734Y406642D01*
X391599Y406327D01*
X391456Y406014D01*
X391305Y405705D01*
X391147Y405400D01*
X390981Y405099D01*
X390808Y404803D01*
X390628Y404510D01*
X390441Y404222D01*
X390246Y403939D01*
X390045Y403660D01*
X389837Y403387D01*
X389622Y403118D01*
X389401Y402856D01*
X389173Y402598D01*
X388939Y402346D01*
X388699Y402101D01*
X388454Y401861D01*
X388202Y401627D01*
X387944Y401399D01*
X387682Y401178D01*
X387413Y400963D01*
X387140Y400755D01*
X386861Y400554D01*
X386578Y400359D01*
X386290Y400172D01*
X385997Y399992D01*
X385701Y399819D01*
X385400Y399653D01*
X385095Y399495D01*
X384786Y399344D01*
X384473Y399201D01*
X384158Y399066D01*
X383839Y398938D01*
X383516Y398818D01*
X383192Y398707D01*
X382864Y398603D01*
X382534Y398507D01*
X382202Y398420D01*
X381867Y398340D01*
X381531Y398269D01*
X381193Y398206D01*
X380854Y398152D01*
X380514Y398105D01*
X380172Y398067D01*
X379830Y398038D01*
X379487Y398017D01*
X379144Y398004D01*
X378800Y398000D01*
X378456Y398004D01*
X378113Y398017D01*
X377770Y398038D01*
X377428Y398067D01*
X377086Y398105D01*
X376746Y398152D01*
X376407Y398206D01*
X376069Y398269D01*
X375733Y398340D01*
X375398Y398420D01*
X375066Y398507D01*
X374736Y398603D01*
X374408Y398707D01*
X374084Y398818D01*
X373761Y398938D01*
X373442Y399066D01*
X373127Y399201D01*
X372814Y399344D01*
X372505Y399495D01*
X372200Y399653D01*
X371899Y399819D01*
X371603Y399992D01*
X371310Y400172D01*
X371022Y400359D01*
X370739Y400554D01*
X370460Y400755D01*
X370187Y400963D01*
X369918Y401178D01*
X369656Y401399D01*
X369398Y401627D01*
X369146Y401861D01*
X368901Y402101D01*
X368661Y402346D01*
X368427Y402598D01*
X368199Y402856D01*
X367978Y403118D01*
X367763Y403387D01*
X367555Y403660D01*
X367354Y403939D01*
X367159Y404222D01*
X366972Y404510D01*
X366792Y404803D01*
X366619Y405099D01*
X366453Y405400D01*
X366295Y405705D01*
X366144Y406014D01*
X366001Y406327D01*
X365866Y406642D01*
X365738Y406961D01*
X365618Y407284D01*
X365507Y407608D01*
X365403Y407936D01*
X365307Y408266D01*
X365220Y408598D01*
X365140Y408933D01*
X365069Y409269D01*
X365006Y409607D01*
X364952Y409946D01*
X364905Y410286D01*
X364867Y410628D01*
X364838Y410970D01*
X364817Y411313D01*
X364804Y411656D01*
X364800Y412000D01*
X576800Y911000D02*
X576804Y911344D01*
X576817Y911687D01*
X576838Y912030D01*
X576867Y912372D01*
X576905Y912714D01*
X576952Y913054D01*
X577006Y913393D01*
X577069Y913731D01*
X577140Y914067D01*
X577220Y914402D01*
X577307Y914734D01*
X577403Y915064D01*
X577507Y915392D01*
X577618Y915716D01*
X577738Y916039D01*
X577866Y916358D01*
X578001Y916673D01*
X578144Y916986D01*
X578295Y917295D01*
X578453Y917600D01*
X578619Y917901D01*
X578792Y918197D01*
X578972Y918490D01*
X579159Y918778D01*
X579354Y919061D01*
X579555Y919340D01*
X579763Y919613D01*
X579978Y919882D01*
X580199Y920144D01*
X580427Y920402D01*
X580661Y920654D01*
X580901Y920899D01*
X581146Y921139D01*
X581398Y921373D01*
X581656Y921601D01*
X581918Y921822D01*
X582187Y922037D01*
X582460Y922245D01*
X582739Y922446D01*
X583022Y922641D01*
X583310Y922828D01*
X583603Y923008D01*
X583899Y923181D01*
X584200Y923347D01*
X584505Y923505D01*
X584814Y923656D01*
X585127Y923799D01*
X585442Y923934D01*
X585761Y924062D01*
X586084Y924182D01*
X586408Y924293D01*
X586736Y924397D01*
X587066Y924493D01*
X587398Y924580D01*
X587733Y924660D01*
X588069Y924731D01*
X588407Y924794D01*
X588746Y924848D01*
X589086Y924895D01*
X589428Y924933D01*
X589770Y924962D01*
X590113Y924983D01*
X590456Y924996D01*
X590800Y925000D01*
X591144Y924996D01*
X591487Y924983D01*
X591830Y924962D01*
X592172Y924933D01*
X592514Y924895D01*
X592854Y924848D01*
X593193Y924794D01*
X593531Y924731D01*
X593867Y924660D01*
X594202Y924580D01*
X594534Y924493D01*
X594864Y924397D01*
X595192Y924293D01*
X595516Y924182D01*
X595839Y924062D01*
X596158Y923934D01*
X596473Y923799D01*
X596786Y923656D01*
X597095Y923505D01*
X597400Y923347D01*
X597701Y923181D01*
X597997Y923008D01*
X598290Y922828D01*
X598578Y922641D01*
X598861Y922446D01*
X599140Y922245D01*
X599413Y922037D01*
X599682Y921822D01*
X599944Y921601D01*
X600202Y921373D01*
X600454Y921139D01*
X600699Y920899D01*
X600939Y920654D01*
X601173Y920402D01*
X601401Y920144D01*
X601622Y919882D01*
X601837Y919613D01*
X602045Y919340D01*
X602246Y919061D01*
X602441Y918778D01*
X602628Y918490D01*
X602808Y918197D01*
X602981Y917901D01*
X603147Y917600D01*
X603305Y917295D01*
X603456Y916986D01*
X603599Y916673D01*
X603734Y916358D01*
X603862Y916039D01*
X603982Y915716D01*
X604093Y915392D01*
X604197Y915064D01*
X604293Y914734D01*
X604380Y914402D01*
X604460Y914067D01*
X604531Y913731D01*
X604594Y913393D01*
X604648Y913054D01*
X604695Y912714D01*
X604733Y912372D01*
X604762Y912030D01*
X604783Y911687D01*
X604796Y911344D01*
X604800Y911000D01*
X604796Y910656D01*
X604783Y910313D01*
X604762Y909970D01*
X604733Y909628D01*
X604695Y909286D01*
X604648Y908946D01*
X604594Y908607D01*
X604531Y908269D01*
X604460Y907933D01*
X604380Y907598D01*
X604293Y907266D01*
X604197Y906936D01*
X604093Y906608D01*
X603982Y906284D01*
X603862Y905961D01*
X603734Y905642D01*
X603599Y905327D01*
X603456Y905014D01*
X603305Y904705D01*
X603147Y904400D01*
X602981Y904099D01*
X602808Y903803D01*
X602628Y903510D01*
X602441Y903222D01*
X602246Y902939D01*
X602045Y902660D01*
X601837Y902387D01*
X601622Y902118D01*
X601401Y901856D01*
X601173Y901598D01*
X600939Y901346D01*
X600699Y901101D01*
X600454Y900861D01*
X600202Y900627D01*
X599944Y900399D01*
X599682Y900178D01*
X599413Y899963D01*
X599140Y899755D01*
X598861Y899554D01*
X598578Y899359D01*
X598290Y899172D01*
X597997Y898992D01*
X597701Y898819D01*
X597400Y898653D01*
X597095Y898495D01*
X596786Y898344D01*
X596473Y898201D01*
X596158Y898066D01*
X595839Y897938D01*
X595516Y897818D01*
X595192Y897707D01*
X594864Y897603D01*
X594534Y897507D01*
X594202Y897420D01*
X593867Y897340D01*
X593531Y897269D01*
X593193Y897206D01*
X592854Y897152D01*
X592514Y897105D01*
X592172Y897067D01*
X591830Y897038D01*
X591487Y897017D01*
X591144Y897004D01*
X590800Y897000D01*
X590456Y897004D01*
X590113Y897017D01*
X589770Y897038D01*
X589428Y897067D01*
X589086Y897105D01*
X588746Y897152D01*
X588407Y897206D01*
X588069Y897269D01*
X587733Y897340D01*
X587398Y897420D01*
X587066Y897507D01*
X586736Y897603D01*
X586408Y897707D01*
X586084Y897818D01*
X585761Y897938D01*
X585442Y898066D01*
X585127Y898201D01*
X584814Y898344D01*
X584505Y898495D01*
X584200Y898653D01*
X583899Y898819D01*
X583603Y898992D01*
X583310Y899172D01*
X583022Y899359D01*
X582739Y899554D01*
X582460Y899755D01*
X582187Y899963D01*
X581918Y900178D01*
X581656Y900399D01*
X581398Y900627D01*
X581146Y900861D01*
X580901Y901101D01*
X580661Y901346D01*
X580427Y901598D01*
X580199Y901856D01*
X579978Y902118D01*
X579763Y902387D01*
X579555Y902660D01*
X579354Y902939D01*
X579159Y903222D01*
X578972Y903510D01*
X578792Y903803D01*
X578619Y904099D01*
X578453Y904400D01*
X578295Y904705D01*
X578144Y905014D01*
X578001Y905327D01*
X577866Y905642D01*
X577738Y905961D01*
X577618Y906284D01*
X577507Y906608D01*
X577403Y906936D01*
X577307Y907266D01*
X577220Y907598D01*
X577140Y907933D01*
X577069Y908269D01*
X577006Y908607D01*
X576952Y908946D01*
X576905Y909286D01*
X576867Y909628D01*
X576838Y909970D01*
X576817Y910313D01*
X576804Y910656D01*
X576800Y911000D01*
D11*
X290300Y573320D02*
X290300Y532680D01*
X315700Y532680D01*
X315700Y573320D01*
X290300Y573320D01*
X303000Y559350D02*
X303000Y553000D01*
X309350Y542840D02*
X296650Y542840D01*
X303000Y553000D01*
X303000Y537760D01*
X309350Y542840D02*
X303000Y553000D01*
X309350Y553000D01*
X303000Y553000D02*
X296650Y553000D01*
D12*
X320135Y550567D02*
X331575Y550567D01*
X331575Y556287D01*
X329668Y558194D01*
X322042Y558194D01*
X320135Y556287D01*
X320135Y550567D01*
X331575Y562261D02*
X331575Y569888D01*
X323949Y569888D02*
X331575Y562261D01*
X323949Y569888D02*
X322042Y569888D01*
X320135Y567981D01*
X320135Y564168D01*
X322042Y562261D01*
D13*
X303000Y566970D03*
D14*
X303000Y523155D03*
X303000Y582845D03*
D11*
X714480Y819700D02*
X755120Y819700D01*
X755120Y845100D01*
X714480Y845100D01*
X714480Y819700D01*
X728450Y832400D02*
X734800Y832400D01*
X744960Y838750D02*
X744960Y826050D01*
X734800Y832400D01*
X750040Y832400D01*
X744960Y838750D02*
X734800Y832400D01*
X734800Y838750D01*
X734800Y832400D02*
X734800Y826050D01*
D12*
X715115Y849545D02*
X715115Y860985D01*
X715115Y849545D02*
X720835Y849545D01*
X722742Y851452D01*
X722742Y859078D01*
X720835Y860985D01*
X715115Y860985D01*
X732529Y860985D02*
X732529Y849545D01*
X726809Y855265D02*
X732529Y860985D01*
X734435Y855265D02*
X726809Y855265D01*
D15*
X720830Y832400D03*
D16*
X764645Y832400D03*
X704955Y832400D03*
D11*
X169650Y861610D02*
X169650Y635550D01*
X169650Y861610D02*
X334750Y861610D01*
X334750Y635550D01*
X169650Y635550D01*
X192510Y705400D02*
X192510Y711750D01*
X245850Y711750D01*
D17*
X245850Y699050D01*
D11*
X258550Y699050D01*
D17*
X258550Y724450D02*
X245850Y724450D01*
X245850Y711750D01*
X258550Y711750D02*
X258550Y699050D01*
D11*
X258550Y711750D02*
X311890Y711750D01*
D17*
X258550Y711750D02*
X258550Y724450D01*
D11*
X311890Y711750D02*
X311890Y705400D01*
X258550Y699050D02*
X245850Y724450D01*
X252200Y730800D02*
X252200Y796840D01*
D17*
X245850Y803190D01*
D11*
X214862Y803190D01*
X258550Y803190D02*
X289792Y803190D01*
D17*
X245850Y803190D02*
X242802Y806492D01*
D11*
X252200Y692700D02*
X252200Y682540D01*
D18*
X302896Y867579D02*
X302896Y883595D01*
X302896Y872918D02*
X313573Y883595D01*
X305565Y875587D02*
X313573Y867579D01*
X319267Y878256D02*
X324606Y883595D01*
X324606Y867579D01*
X319267Y867579D02*
X329945Y867579D01*
D11*
X807158Y934299D02*
X807458Y934518D01*
X807752Y934745D01*
X808040Y934979D01*
X808323Y935220D01*
X808600Y935467D01*
X808871Y935722D01*
X809135Y935983D01*
X809393Y936250D01*
X809644Y936523D01*
X809889Y936803D01*
X810127Y937088D01*
X810357Y937379D01*
X810581Y937676D01*
X810797Y937978D01*
X811006Y938285D01*
X811207Y938597D01*
X811401Y938914D01*
X811587Y939236D01*
X811765Y939562D01*
X811935Y939892D01*
X812097Y940226D01*
X812250Y940564D01*
X812396Y940906D01*
X812533Y941251D01*
X812661Y941600D01*
X812781Y941951D01*
X812893Y942306D01*
X812995Y942663D01*
X813090Y943022D01*
X813175Y943383D01*
X813251Y943747D01*
X813319Y944112D01*
X813377Y944479D01*
X813427Y944847D01*
X813468Y945216D01*
X813499Y945586D01*
X813522Y945957D01*
X813535Y946328D01*
X813540Y946700D01*
X813535Y947072D01*
X813522Y947443D01*
X813499Y947815D01*
X813467Y948185D01*
X813427Y948555D01*
X813377Y948923D01*
X813318Y949291D01*
X813251Y949656D01*
X813174Y950020D01*
X813088Y950382D01*
X812994Y950742D01*
X812891Y951099D01*
X812780Y951454D01*
X812659Y951806D01*
X812530Y952155D01*
X812393Y952500D01*
X812247Y952842D01*
X812093Y953181D01*
X811931Y953516D01*
X811761Y953846D01*
X811582Y954172D01*
X811396Y954494D01*
X811202Y954812D01*
X811000Y955124D01*
X810791Y955431D01*
X810574Y955733D01*
X810350Y956030D01*
X810119Y956322D01*
X809881Y956607D01*
X809635Y956887D01*
X809383Y957160D01*
X809125Y957428D01*
X808860Y957688D01*
X808589Y957943D01*
X808311Y958191D01*
X808028Y958431D01*
X807739Y958665D01*
X807444Y958892D01*
X783060Y946700D02*
X783064Y946335D01*
X783077Y945970D01*
X783099Y945606D01*
X783130Y945243D01*
X783169Y944880D01*
X783217Y944518D01*
X783274Y944158D01*
X783339Y943799D01*
X783412Y943441D01*
X783495Y943086D01*
X783585Y942733D01*
X783685Y942381D01*
X783792Y942033D01*
X783908Y941687D01*
X784032Y941344D01*
X784165Y941004D01*
X784305Y940667D01*
X784453Y940334D01*
X784610Y940004D01*
X784774Y939678D01*
X784946Y939356D01*
X785126Y939039D01*
X785313Y938726D01*
X785507Y938417D01*
X785709Y938113D01*
X785919Y937814D01*
X786135Y937520D01*
X786358Y937232D01*
X786588Y936949D01*
X786825Y936671D01*
X787068Y936399D01*
X787318Y936133D01*
X787574Y935873D01*
X787837Y935620D01*
X788105Y935372D01*
X788379Y935132D01*
X788659Y934897D01*
X788944Y934670D01*
X783060Y946700D02*
X783064Y947065D01*
X783077Y947430D01*
X783099Y947794D01*
X783130Y948157D01*
X783169Y948520D01*
X783217Y948882D01*
X783274Y949242D01*
X783339Y949601D01*
X783412Y949959D01*
X783495Y950314D01*
X783585Y950667D01*
X783685Y951019D01*
X783792Y951367D01*
X783908Y951713D01*
X784032Y952056D01*
X784165Y952396D01*
X784305Y952733D01*
X784453Y953066D01*
X784610Y953396D01*
X784774Y953722D01*
X784946Y954044D01*
X785126Y954361D01*
X785313Y954674D01*
X785507Y954983D01*
X785709Y955287D01*
X785919Y955586D01*
X786135Y955880D01*
X786358Y956168D01*
X786588Y956451D01*
X786825Y956729D01*
X787068Y957001D01*
X787318Y957267D01*
X787574Y957527D01*
X787837Y957780D01*
X788105Y958028D01*
X788379Y958268D01*
X788659Y958503D01*
X788944Y958730D01*
D17*
X818620Y946700D02*
X818614Y946206D01*
X818596Y945712D01*
X818566Y945218D01*
X818524Y944725D01*
X818470Y944234D01*
X818404Y943744D01*
X818326Y943256D01*
X818236Y942769D01*
X818135Y942285D01*
X818021Y941804D01*
X817896Y941326D01*
X817760Y940850D01*
X817612Y940379D01*
X817452Y939911D01*
X817281Y939447D01*
X817099Y938987D01*
X816906Y938532D01*
X816702Y938081D01*
X816487Y937636D01*
X816261Y937196D01*
X816024Y936762D01*
X815777Y936334D01*
X815520Y935912D01*
X815252Y935496D01*
X814974Y935087D01*
X814687Y934685D01*
X814390Y934289D01*
X814083Y933902D01*
X813767Y933521D01*
X813442Y933149D01*
X813107Y932784D01*
X812764Y932428D01*
X812413Y932081D01*
X812053Y931741D01*
X811685Y931411D01*
X811309Y931090D01*
X818620Y946700D02*
X818614Y947188D01*
X818597Y947675D01*
X818567Y948162D01*
X818526Y948649D01*
X818474Y949134D01*
X818409Y949618D01*
X818333Y950100D01*
X818246Y950580D01*
X818147Y951058D01*
X818037Y951533D01*
X817915Y952006D01*
X817782Y952475D01*
X817637Y952942D01*
X817482Y953404D01*
X817315Y953863D01*
X817138Y954318D01*
X816949Y954768D01*
X816750Y955213D01*
X816540Y955654D01*
X816320Y956090D01*
X816089Y956520D01*
X815848Y956944D01*
X815597Y957362D01*
X815336Y957775D01*
X815065Y958181D01*
X814785Y958580D01*
X814495Y958973D01*
X814195Y959358D01*
X813886Y959736D01*
X813569Y960107D01*
X813242Y960469D01*
X812907Y960824D01*
X812564Y961171D01*
X812212Y961509D01*
X811853Y961839D01*
X811485Y962160D01*
X811110Y962473D01*
X810727Y962776D01*
X810338Y963070D01*
X809941Y963354D01*
X809538Y963629D01*
X809128Y963894D01*
X808712Y964149D01*
X808290Y964394D01*
X807862Y964629D01*
X777980Y946700D02*
X777986Y946210D01*
X778004Y945720D01*
X778033Y945231D01*
X778075Y944742D01*
X778128Y944255D01*
X778192Y943769D01*
X778269Y943285D01*
X778357Y942803D01*
X778457Y942323D01*
X778568Y941845D01*
X778691Y941371D01*
X778826Y940899D01*
X778971Y940431D01*
X779128Y939967D01*
X779296Y939506D01*
X779475Y939050D01*
X779665Y938598D01*
X779866Y938151D01*
X780078Y937709D01*
X780300Y937272D01*
X780532Y936840D01*
X780775Y936414D01*
X781029Y935995D01*
X781292Y935581D01*
X781565Y935174D01*
X781848Y934774D01*
X782141Y934380D01*
X782442Y933994D01*
X782754Y933615D01*
X783074Y933244D01*
X783403Y932881D01*
X783740Y932525D01*
X784087Y932178D01*
X784441Y931840D01*
X784804Y931510D01*
X785174Y931188D01*
X777980Y946700D02*
X777986Y947197D01*
X778004Y947694D01*
X778035Y948190D01*
X778077Y948685D01*
X778132Y949179D01*
X778198Y949672D01*
X778277Y950162D01*
X778368Y950651D01*
X778470Y951137D01*
X778585Y951621D01*
X778711Y952101D01*
X778849Y952579D01*
X778998Y953053D01*
X779159Y953523D01*
X779332Y953989D01*
X779516Y954451D01*
X779711Y954908D01*
X779917Y955360D01*
X780134Y955807D01*
X780363Y956248D01*
X780601Y956684D01*
X780851Y957114D01*
X781111Y957537D01*
X781381Y957955D01*
X781661Y958365D01*
X781951Y958768D01*
X782251Y959165D01*
X782561Y959553D01*
X782880Y959934D01*
X783208Y960307D01*
X783545Y960672D01*
X783891Y961029D01*
X784246Y961377D01*
X784609Y961716D01*
X784980Y962047D01*
X785360Y962368D01*
X785747Y962680D01*
X786141Y962982D01*
X786543Y963274D01*
X786952Y963557D01*
X787367Y963829D01*
X787790Y964092D01*
X788218Y964343D01*
D12*
X802735Y846427D02*
X814175Y846427D01*
X814175Y854054D01*
X802735Y858121D02*
X802735Y865748D01*
X802735Y858121D02*
X814175Y858121D01*
X814175Y865748D01*
X808455Y861934D02*
X808455Y858121D01*
X802735Y869815D02*
X814175Y869815D01*
X814175Y875535D01*
X812268Y877442D01*
X804642Y877442D01*
X802735Y875535D01*
X802735Y869815D01*
X816082Y881509D02*
X816082Y889135D01*
X806549Y893203D02*
X802735Y897016D01*
X814175Y897016D01*
X814175Y893203D02*
X814175Y900829D01*
X814175Y904897D02*
X814175Y912523D01*
X814175Y904897D02*
X806549Y912523D01*
X804642Y912523D01*
X802735Y910617D01*
X802735Y906804D01*
X804642Y904897D01*
X802735Y916591D02*
X810362Y916591D01*
X814175Y920404D01*
X810362Y924217D01*
X802735Y924217D01*
D11*
X811642Y586701D02*
X811342Y586482D01*
X811048Y586255D01*
X810760Y586021D01*
X810477Y585780D01*
X810200Y585533D01*
X809929Y585278D01*
X809665Y585017D01*
X809407Y584750D01*
X809156Y584477D01*
X808911Y584197D01*
X808673Y583912D01*
X808443Y583621D01*
X808219Y583324D01*
X808003Y583022D01*
X807794Y582715D01*
X807593Y582403D01*
X807399Y582086D01*
X807213Y581764D01*
X807035Y581438D01*
X806865Y581108D01*
X806703Y580774D01*
X806550Y580436D01*
X806404Y580094D01*
X806267Y579749D01*
X806139Y579400D01*
X806019Y579049D01*
X805907Y578694D01*
X805805Y578337D01*
X805710Y577978D01*
X805625Y577617D01*
X805549Y577253D01*
X805481Y576888D01*
X805423Y576521D01*
X805373Y576153D01*
X805332Y575784D01*
X805301Y575414D01*
X805278Y575043D01*
X805265Y574672D01*
X805260Y574300D01*
X805265Y573928D01*
X805278Y573557D01*
X805301Y573185D01*
X805333Y572815D01*
X805373Y572445D01*
X805423Y572077D01*
X805482Y571709D01*
X805549Y571344D01*
X805626Y570980D01*
X805712Y570618D01*
X805806Y570258D01*
X805909Y569901D01*
X806020Y569546D01*
X806141Y569194D01*
X806270Y568845D01*
X806407Y568500D01*
X806553Y568158D01*
X806707Y567819D01*
X806869Y567484D01*
X807039Y567154D01*
X807218Y566828D01*
X807404Y566506D01*
X807598Y566188D01*
X807800Y565876D01*
X808009Y565569D01*
X808226Y565267D01*
X808450Y564970D01*
X808681Y564678D01*
X808919Y564393D01*
X809165Y564113D01*
X809417Y563840D01*
X809675Y563572D01*
X809940Y563312D01*
X810211Y563057D01*
X810489Y562809D01*
X810772Y562569D01*
X811061Y562335D01*
X811356Y562108D01*
X835740Y574300D02*
X835736Y574665D01*
X835723Y575030D01*
X835701Y575394D01*
X835670Y575757D01*
X835631Y576120D01*
X835583Y576482D01*
X835526Y576842D01*
X835461Y577201D01*
X835388Y577559D01*
X835305Y577914D01*
X835215Y578267D01*
X835115Y578619D01*
X835008Y578967D01*
X834892Y579313D01*
X834768Y579656D01*
X834635Y579996D01*
X834495Y580333D01*
X834347Y580666D01*
X834190Y580996D01*
X834026Y581322D01*
X833854Y581644D01*
X833674Y581961D01*
X833487Y582274D01*
X833293Y582583D01*
X833091Y582887D01*
X832881Y583186D01*
X832665Y583480D01*
X832442Y583768D01*
X832212Y584051D01*
X831975Y584329D01*
X831732Y584601D01*
X831482Y584867D01*
X831226Y585127D01*
X830963Y585380D01*
X830695Y585628D01*
X830421Y585868D01*
X830141Y586103D01*
X829856Y586330D01*
X835740Y574300D02*
X835736Y573935D01*
X835723Y573570D01*
X835701Y573206D01*
X835670Y572843D01*
X835631Y572480D01*
X835583Y572118D01*
X835526Y571758D01*
X835461Y571399D01*
X835388Y571041D01*
X835305Y570686D01*
X835215Y570333D01*
X835115Y569981D01*
X835008Y569633D01*
X834892Y569287D01*
X834768Y568944D01*
X834635Y568604D01*
X834495Y568267D01*
X834347Y567934D01*
X834190Y567604D01*
X834026Y567278D01*
X833854Y566956D01*
X833674Y566639D01*
X833487Y566326D01*
X833293Y566017D01*
X833091Y565713D01*
X832881Y565414D01*
X832665Y565120D01*
X832442Y564832D01*
X832212Y564549D01*
X831975Y564271D01*
X831732Y563999D01*
X831482Y563733D01*
X831226Y563473D01*
X830963Y563220D01*
X830695Y562972D01*
X830421Y562732D01*
X830141Y562497D01*
X829856Y562270D01*
D17*
X800180Y574300D02*
X800186Y574794D01*
X800204Y575288D01*
X800234Y575782D01*
X800276Y576275D01*
X800330Y576766D01*
X800396Y577256D01*
X800474Y577744D01*
X800564Y578231D01*
X800665Y578715D01*
X800779Y579196D01*
X800904Y579674D01*
X801040Y580150D01*
X801188Y580621D01*
X801348Y581089D01*
X801519Y581553D01*
X801701Y582013D01*
X801894Y582468D01*
X802098Y582919D01*
X802313Y583364D01*
X802539Y583804D01*
X802776Y584238D01*
X803023Y584666D01*
X803280Y585088D01*
X803548Y585504D01*
X803826Y585913D01*
X804113Y586315D01*
X804410Y586711D01*
X804717Y587098D01*
X805033Y587479D01*
X805358Y587851D01*
X805693Y588216D01*
X806036Y588572D01*
X806387Y588919D01*
X806747Y589259D01*
X807115Y589589D01*
X807491Y589910D01*
X800180Y574300D02*
X800186Y573812D01*
X800203Y573325D01*
X800233Y572838D01*
X800274Y572351D01*
X800326Y571866D01*
X800391Y571382D01*
X800467Y570900D01*
X800554Y570420D01*
X800653Y569942D01*
X800763Y569467D01*
X800885Y568994D01*
X801018Y568525D01*
X801163Y568058D01*
X801318Y567596D01*
X801485Y567137D01*
X801662Y566682D01*
X801851Y566232D01*
X802050Y565787D01*
X802260Y565346D01*
X802480Y564910D01*
X802711Y564480D01*
X802952Y564056D01*
X803203Y563638D01*
X803464Y563225D01*
X803735Y562819D01*
X804015Y562420D01*
X804305Y562027D01*
X804605Y561642D01*
X804914Y561264D01*
X805231Y560893D01*
X805558Y560531D01*
X805893Y560176D01*
X806236Y559829D01*
X806588Y559491D01*
X806947Y559161D01*
X807315Y558840D01*
X807690Y558527D01*
X808073Y558224D01*
X808462Y557930D01*
X808859Y557646D01*
X809262Y557371D01*
X809672Y557106D01*
X810088Y556851D01*
X810510Y556606D01*
X810938Y556371D01*
X840820Y574300D02*
X840814Y574790D01*
X840796Y575280D01*
X840767Y575769D01*
X840725Y576258D01*
X840672Y576745D01*
X840608Y577231D01*
X840531Y577715D01*
X840443Y578197D01*
X840343Y578677D01*
X840232Y579155D01*
X840109Y579629D01*
X839974Y580101D01*
X839829Y580569D01*
X839672Y581033D01*
X839504Y581494D01*
X839325Y581950D01*
X839135Y582402D01*
X838934Y582849D01*
X838722Y583291D01*
X838500Y583728D01*
X838268Y584160D01*
X838025Y584586D01*
X837771Y585005D01*
X837508Y585419D01*
X837235Y585826D01*
X836952Y586226D01*
X836659Y586620D01*
X836358Y587006D01*
X836046Y587385D01*
X835726Y587756D01*
X835397Y588119D01*
X835060Y588475D01*
X834713Y588822D01*
X834359Y589160D01*
X833996Y589490D01*
X833626Y589812D01*
X840820Y574300D02*
X840814Y573803D01*
X840796Y573306D01*
X840765Y572810D01*
X840723Y572315D01*
X840668Y571821D01*
X840602Y571328D01*
X840523Y570838D01*
X840432Y570349D01*
X840330Y569863D01*
X840215Y569379D01*
X840089Y568899D01*
X839951Y568421D01*
X839802Y567947D01*
X839641Y567477D01*
X839468Y567011D01*
X839284Y566549D01*
X839089Y566092D01*
X838883Y565640D01*
X838666Y565193D01*
X838437Y564752D01*
X838199Y564316D01*
X837949Y563886D01*
X837689Y563463D01*
X837419Y563045D01*
X837139Y562635D01*
X836849Y562232D01*
X836549Y561835D01*
X836239Y561447D01*
X835920Y561066D01*
X835592Y560693D01*
X835255Y560328D01*
X834909Y559971D01*
X834554Y559623D01*
X834191Y559284D01*
X833820Y558953D01*
X833440Y558632D01*
X833053Y558320D01*
X832659Y558018D01*
X832257Y557726D01*
X831848Y557443D01*
X831433Y557171D01*
X831010Y556908D01*
X830582Y556657D01*
D12*
X816055Y593985D02*
X804615Y593985D01*
X816055Y593985D02*
X816055Y601612D01*
X804615Y605679D02*
X804615Y613305D01*
X804615Y605679D02*
X816055Y605679D01*
X816055Y613305D01*
X810335Y609492D02*
X810335Y605679D01*
X804615Y617373D02*
X816055Y617373D01*
X816055Y623093D01*
X814148Y624999D01*
X806522Y624999D01*
X804615Y623093D01*
X804615Y617373D01*
X817962Y629067D02*
X817962Y636693D01*
X804615Y640761D02*
X804615Y648387D01*
X804615Y640761D02*
X810335Y640761D01*
X808429Y644574D01*
X808429Y646481D01*
X810335Y648387D01*
X814148Y648387D01*
X816055Y646481D01*
X816055Y642668D01*
X814148Y640761D01*
X812242Y652455D02*
X804615Y652455D01*
X812242Y652455D02*
X816055Y656268D01*
X812242Y660081D01*
X804615Y660081D01*
D11*
X163001Y930158D02*
X162782Y930458D01*
X162555Y930752D01*
X162321Y931040D01*
X162080Y931323D01*
X161833Y931600D01*
X161578Y931871D01*
X161317Y932135D01*
X161050Y932393D01*
X160777Y932644D01*
X160497Y932889D01*
X160212Y933127D01*
X159921Y933357D01*
X159624Y933581D01*
X159322Y933797D01*
X159015Y934006D01*
X158703Y934207D01*
X158386Y934401D01*
X158064Y934587D01*
X157738Y934765D01*
X157408Y934935D01*
X157074Y935097D01*
X156736Y935250D01*
X156394Y935396D01*
X156049Y935533D01*
X155700Y935661D01*
X155349Y935781D01*
X154994Y935893D01*
X154637Y935995D01*
X154278Y936090D01*
X153917Y936175D01*
X153553Y936251D01*
X153188Y936319D01*
X152821Y936377D01*
X152453Y936427D01*
X152084Y936468D01*
X151714Y936499D01*
X151343Y936522D01*
X150972Y936535D01*
X150600Y936540D01*
X150228Y936535D01*
X149857Y936522D01*
X149485Y936499D01*
X149115Y936467D01*
X148745Y936427D01*
X148377Y936377D01*
X148009Y936318D01*
X147644Y936251D01*
X147280Y936174D01*
X146918Y936088D01*
X146558Y935994D01*
X146201Y935891D01*
X145846Y935780D01*
X145494Y935659D01*
X145145Y935530D01*
X144800Y935393D01*
X144458Y935247D01*
X144119Y935093D01*
X143784Y934931D01*
X143454Y934761D01*
X143128Y934582D01*
X142806Y934396D01*
X142488Y934202D01*
X142176Y934000D01*
X141869Y933791D01*
X141567Y933574D01*
X141270Y933350D01*
X140978Y933119D01*
X140693Y932881D01*
X140413Y932635D01*
X140140Y932383D01*
X139872Y932125D01*
X139612Y931860D01*
X139357Y931589D01*
X139109Y931311D01*
X138869Y931028D01*
X138635Y930739D01*
X138408Y930444D01*
X150600Y906060D02*
X150965Y906064D01*
X151330Y906077D01*
X151694Y906099D01*
X152057Y906130D01*
X152420Y906169D01*
X152782Y906217D01*
X153142Y906274D01*
X153501Y906339D01*
X153859Y906412D01*
X154214Y906495D01*
X154567Y906585D01*
X154919Y906685D01*
X155267Y906792D01*
X155613Y906908D01*
X155956Y907032D01*
X156296Y907165D01*
X156633Y907305D01*
X156966Y907453D01*
X157296Y907610D01*
X157622Y907774D01*
X157944Y907946D01*
X158261Y908126D01*
X158574Y908313D01*
X158883Y908507D01*
X159187Y908709D01*
X159486Y908919D01*
X159780Y909135D01*
X160068Y909358D01*
X160351Y909588D01*
X160629Y909825D01*
X160901Y910068D01*
X161167Y910318D01*
X161427Y910574D01*
X161680Y910837D01*
X161928Y911105D01*
X162168Y911379D01*
X162403Y911659D01*
X162630Y911944D01*
X150600Y906060D02*
X150235Y906064D01*
X149870Y906077D01*
X149506Y906099D01*
X149143Y906130D01*
X148780Y906169D01*
X148418Y906217D01*
X148058Y906274D01*
X147699Y906339D01*
X147341Y906412D01*
X146986Y906495D01*
X146633Y906585D01*
X146281Y906685D01*
X145933Y906792D01*
X145587Y906908D01*
X145244Y907032D01*
X144904Y907165D01*
X144567Y907305D01*
X144234Y907453D01*
X143904Y907610D01*
X143578Y907774D01*
X143256Y907946D01*
X142939Y908126D01*
X142626Y908313D01*
X142317Y908507D01*
X142013Y908709D01*
X141714Y908919D01*
X141420Y909135D01*
X141132Y909358D01*
X140849Y909588D01*
X140571Y909825D01*
X140299Y910068D01*
X140033Y910318D01*
X139773Y910574D01*
X139520Y910837D01*
X139272Y911105D01*
X139032Y911379D01*
X138797Y911659D01*
X138570Y911944D01*
D17*
X150600Y941620D02*
X151094Y941614D01*
X151588Y941596D01*
X152082Y941566D01*
X152575Y941524D01*
X153066Y941470D01*
X153556Y941404D01*
X154044Y941326D01*
X154531Y941236D01*
X155015Y941135D01*
X155496Y941021D01*
X155974Y940896D01*
X156450Y940760D01*
X156921Y940612D01*
X157389Y940452D01*
X157853Y940281D01*
X158313Y940099D01*
X158768Y939906D01*
X159219Y939702D01*
X159664Y939487D01*
X160104Y939261D01*
X160538Y939024D01*
X160966Y938777D01*
X161388Y938520D01*
X161804Y938252D01*
X162213Y937974D01*
X162615Y937687D01*
X163011Y937390D01*
X163398Y937083D01*
X163779Y936767D01*
X164151Y936442D01*
X164516Y936107D01*
X164872Y935764D01*
X165219Y935413D01*
X165559Y935053D01*
X165889Y934685D01*
X166210Y934309D01*
X150600Y941620D02*
X150112Y941614D01*
X149625Y941597D01*
X149138Y941567D01*
X148651Y941526D01*
X148166Y941474D01*
X147682Y941409D01*
X147200Y941333D01*
X146720Y941246D01*
X146242Y941147D01*
X145767Y941037D01*
X145294Y940915D01*
X144825Y940782D01*
X144358Y940637D01*
X143896Y940482D01*
X143437Y940315D01*
X142982Y940138D01*
X142532Y939949D01*
X142087Y939750D01*
X141646Y939540D01*
X141210Y939320D01*
X140780Y939089D01*
X140356Y938848D01*
X139938Y938597D01*
X139525Y938336D01*
X139119Y938065D01*
X138720Y937785D01*
X138327Y937495D01*
X137942Y937195D01*
X137564Y936886D01*
X137193Y936569D01*
X136831Y936242D01*
X136476Y935907D01*
X136129Y935564D01*
X135791Y935212D01*
X135461Y934853D01*
X135140Y934485D01*
X134827Y934110D01*
X134524Y933727D01*
X134230Y933338D01*
X133946Y932941D01*
X133671Y932538D01*
X133406Y932128D01*
X133151Y931712D01*
X132906Y931290D01*
X132671Y930862D01*
X150600Y900980D02*
X151090Y900986D01*
X151580Y901004D01*
X152069Y901033D01*
X152558Y901075D01*
X153045Y901128D01*
X153531Y901192D01*
X154015Y901269D01*
X154497Y901357D01*
X154977Y901457D01*
X155455Y901568D01*
X155929Y901691D01*
X156401Y901826D01*
X156869Y901971D01*
X157333Y902128D01*
X157794Y902296D01*
X158250Y902475D01*
X158702Y902665D01*
X159149Y902866D01*
X159591Y903078D01*
X160028Y903300D01*
X160460Y903532D01*
X160886Y903775D01*
X161305Y904029D01*
X161719Y904292D01*
X162126Y904565D01*
X162526Y904848D01*
X162920Y905141D01*
X163306Y905442D01*
X163685Y905754D01*
X164056Y906074D01*
X164419Y906403D01*
X164775Y906740D01*
X165122Y907087D01*
X165460Y907441D01*
X165790Y907804D01*
X166112Y908174D01*
X150600Y900980D02*
X150103Y900986D01*
X149606Y901004D01*
X149110Y901035D01*
X148615Y901077D01*
X148121Y901132D01*
X147628Y901198D01*
X147138Y901277D01*
X146649Y901368D01*
X146163Y901470D01*
X145679Y901585D01*
X145199Y901711D01*
X144721Y901849D01*
X144247Y901998D01*
X143777Y902159D01*
X143311Y902332D01*
X142849Y902516D01*
X142392Y902711D01*
X141940Y902917D01*
X141493Y903134D01*
X141052Y903363D01*
X140616Y903601D01*
X140186Y903851D01*
X139763Y904111D01*
X139345Y904381D01*
X138935Y904661D01*
X138532Y904951D01*
X138135Y905251D01*
X137747Y905561D01*
X137366Y905880D01*
X136993Y906208D01*
X136628Y906545D01*
X136271Y906891D01*
X135923Y907246D01*
X135584Y907609D01*
X135253Y907980D01*
X134932Y908360D01*
X134620Y908747D01*
X134318Y909141D01*
X134026Y909543D01*
X133743Y909952D01*
X133471Y910367D01*
X133208Y910790D01*
X132957Y911218D01*
D12*
X170285Y925745D02*
X170285Y937185D01*
X170285Y925745D02*
X177912Y925745D01*
X181979Y937185D02*
X189605Y937185D01*
X181979Y937185D02*
X181979Y925745D01*
X189605Y925745D01*
X185792Y931465D02*
X181979Y931465D01*
X193673Y937185D02*
X193673Y925745D01*
X199393Y925745D01*
X201299Y927652D01*
X201299Y935278D01*
X199393Y937185D01*
X193673Y937185D01*
X205367Y923838D02*
X212993Y923838D01*
X217061Y925745D02*
X217061Y937185D01*
X222781Y937185D01*
X224687Y935278D01*
X224687Y931465D01*
X222781Y929558D01*
X217061Y929558D01*
X220874Y929558D02*
X224687Y925745D01*
X228755Y933372D02*
X232568Y937185D01*
X232568Y925745D01*
X228755Y925745D02*
X236381Y925745D01*
X370310Y548550D02*
X370310Y506650D01*
X342441Y503470D02*
X341857Y503753D01*
X341281Y504051D01*
X340712Y504362D01*
X340151Y504687D01*
X339598Y505026D01*
X339053Y505378D01*
X338517Y505743D01*
X337990Y506121D01*
X337473Y506512D01*
X336965Y506915D01*
X336467Y507331D01*
X335979Y507758D01*
X335502Y508197D01*
X335035Y508648D01*
X334580Y509110D01*
X334136Y509583D01*
X333704Y510066D01*
X333283Y510560D01*
X332875Y511064D01*
X332479Y511578D01*
X332096Y512101D01*
X331725Y512633D01*
X331368Y513175D01*
X331024Y513724D01*
X330693Y514282D01*
X330376Y514848D01*
X330073Y515421D01*
X329784Y516002D01*
X329509Y516589D01*
X329248Y517183D01*
X329002Y517783D01*
X328771Y518389D01*
X328554Y519001D01*
X328353Y519617D01*
X328166Y520238D01*
X327995Y520864D01*
X327839Y521493D01*
X327698Y522126D01*
X327572Y522763D01*
X327463Y523402D01*
X327368Y524043D01*
X327290Y524687D01*
X327227Y525333D01*
X327179Y525980D01*
X327148Y526627D01*
X327132Y527276D01*
X327132Y527924D01*
X327148Y528573D01*
X327179Y529220D01*
X327227Y529867D01*
X327290Y530513D01*
X327368Y531157D01*
X327463Y531798D01*
X327572Y532437D01*
X327698Y533074D01*
X327839Y533707D01*
X327995Y534336D01*
X328166Y534962D01*
X328353Y535583D01*
X328554Y536199D01*
X328771Y536811D01*
X329002Y537417D01*
X329248Y538017D01*
X329509Y538611D01*
X329784Y539198D01*
X330073Y539779D01*
X330376Y540352D01*
X330693Y540918D01*
X331024Y541476D01*
X331368Y542025D01*
X331725Y542567D01*
X332096Y543099D01*
X332479Y543622D01*
X332875Y544136D01*
X333283Y544640D01*
X333704Y545134D01*
X334136Y545617D01*
X334580Y546090D01*
X335035Y546552D01*
X335502Y547003D01*
X335979Y547442D01*
X336467Y547869D01*
X336965Y548285D01*
X337473Y548688D01*
X337990Y549079D01*
X338517Y549457D01*
X339053Y549822D01*
X339598Y550174D01*
X340151Y550513D01*
X340712Y550838D01*
X341281Y551149D01*
X341857Y551447D01*
X342441Y551730D01*
X370310Y506650D02*
X369829Y506280D01*
X369340Y505921D01*
X368843Y505573D01*
X368338Y505236D01*
X367825Y504911D01*
X367305Y504598D01*
X366778Y504296D01*
X366245Y504007D01*
X365705Y503730D01*
X365159Y503465D01*
X355070Y513560D02*
X355070Y516240D01*
X355070Y538960D02*
X355070Y541640D01*
X364918Y551847D02*
X365491Y551576D01*
X366057Y551291D01*
X366616Y550994D01*
X367168Y550683D01*
X367712Y550358D01*
X368248Y550022D01*
X368777Y549672D01*
X369297Y549310D01*
X369808Y548936D01*
X370310Y548550D01*
X320778Y502835D02*
X313152Y502835D01*
X311245Y504742D01*
X311245Y508555D01*
X313152Y510462D01*
X320778Y510462D01*
X322685Y508555D01*
X322685Y504742D01*
X320778Y502835D01*
X318872Y506648D02*
X322685Y510462D01*
X315059Y514529D02*
X311245Y518342D01*
X322685Y518342D01*
X322685Y514529D02*
X322685Y522155D01*
D11*
X838090Y712050D02*
X838190Y712048D01*
X838289Y712042D01*
X838389Y712032D01*
X838487Y712019D01*
X838586Y712001D01*
X838683Y711980D01*
X838779Y711955D01*
X838875Y711926D01*
X838969Y711893D01*
X839062Y711857D01*
X839153Y711817D01*
X839243Y711773D01*
X839331Y711726D01*
X839417Y711676D01*
X839501Y711622D01*
X839583Y711565D01*
X839662Y711505D01*
X839740Y711441D01*
X839814Y711375D01*
X839886Y711306D01*
X839955Y711234D01*
X840021Y711160D01*
X840085Y711082D01*
X840145Y711003D01*
X840202Y710921D01*
X840256Y710837D01*
X840306Y710751D01*
X840353Y710663D01*
X840397Y710573D01*
X840437Y710482D01*
X840473Y710389D01*
X840506Y710295D01*
X840535Y710199D01*
X840560Y710103D01*
X840581Y710006D01*
X840599Y709907D01*
X840612Y709809D01*
X840622Y709709D01*
X840628Y709610D01*
X840630Y709510D01*
X820310Y712050D02*
X820210Y712048D01*
X820111Y712042D01*
X820011Y712032D01*
X819913Y712019D01*
X819814Y712001D01*
X819717Y711980D01*
X819621Y711955D01*
X819525Y711926D01*
X819431Y711893D01*
X819338Y711857D01*
X819247Y711817D01*
X819157Y711773D01*
X819069Y711726D01*
X818983Y711676D01*
X818899Y711622D01*
X818817Y711565D01*
X818738Y711505D01*
X818660Y711441D01*
X818586Y711375D01*
X818514Y711306D01*
X818445Y711234D01*
X818379Y711160D01*
X818315Y711082D01*
X818255Y711003D01*
X818198Y710921D01*
X818144Y710837D01*
X818094Y710751D01*
X818047Y710663D01*
X818003Y710573D01*
X817963Y710482D01*
X817927Y710389D01*
X817894Y710295D01*
X817865Y710199D01*
X817840Y710103D01*
X817819Y710006D01*
X817801Y709907D01*
X817788Y709809D01*
X817778Y709709D01*
X817772Y709610D01*
X817770Y709510D01*
X817770Y651090D02*
X817772Y650990D01*
X817778Y650891D01*
X817788Y650791D01*
X817801Y650693D01*
X817819Y650594D01*
X817840Y650497D01*
X817865Y650401D01*
X817894Y650305D01*
X817927Y650211D01*
X817963Y650118D01*
X818003Y650027D01*
X818047Y649937D01*
X818094Y649849D01*
X818144Y649763D01*
X818198Y649679D01*
X818255Y649597D01*
X818315Y649518D01*
X818379Y649440D01*
X818445Y649366D01*
X818514Y649294D01*
X818586Y649225D01*
X818660Y649159D01*
X818738Y649095D01*
X818817Y649035D01*
X818899Y648978D01*
X818983Y648924D01*
X819069Y648874D01*
X819157Y648827D01*
X819247Y648783D01*
X819338Y648743D01*
X819431Y648707D01*
X819525Y648674D01*
X819621Y648645D01*
X819717Y648620D01*
X819814Y648599D01*
X819913Y648581D01*
X820011Y648568D01*
X820111Y648558D01*
X820210Y648552D01*
X820310Y648550D01*
X838090Y648550D02*
X838190Y648552D01*
X838289Y648558D01*
X838389Y648568D01*
X838487Y648581D01*
X838586Y648599D01*
X838683Y648620D01*
X838779Y648645D01*
X838875Y648674D01*
X838969Y648707D01*
X839062Y648743D01*
X839153Y648783D01*
X839243Y648827D01*
X839331Y648874D01*
X839417Y648924D01*
X839501Y648978D01*
X839583Y649035D01*
X839662Y649095D01*
X839740Y649159D01*
X839814Y649225D01*
X839886Y649294D01*
X839955Y649366D01*
X840021Y649440D01*
X840085Y649518D01*
X840145Y649597D01*
X840202Y649679D01*
X840256Y649763D01*
X840306Y649849D01*
X840353Y649937D01*
X840397Y650027D01*
X840437Y650118D01*
X840473Y650211D01*
X840506Y650305D01*
X840535Y650401D01*
X840560Y650497D01*
X840581Y650594D01*
X840599Y650693D01*
X840612Y650791D01*
X840622Y650891D01*
X840628Y650990D01*
X840630Y651090D01*
X838090Y712050D02*
X820310Y712050D01*
X840630Y709510D02*
X840630Y705700D01*
X839360Y704430D01*
X817770Y705700D02*
X817770Y709510D01*
X817770Y705700D02*
X819040Y704430D01*
X839360Y656170D02*
X840630Y654900D01*
X839360Y656170D02*
X839360Y704430D01*
X819040Y656170D02*
X817770Y654900D01*
X819040Y656170D02*
X819040Y704430D01*
X840630Y654900D02*
X840630Y651090D01*
X817770Y651090D02*
X817770Y654900D01*
X820310Y648550D02*
X838090Y648550D01*
D12*
X845065Y688027D02*
X856505Y688027D01*
X845065Y688027D02*
X845065Y693747D01*
X846972Y695654D01*
X850785Y695654D01*
X852692Y693747D01*
X852692Y688027D01*
X852692Y691840D02*
X856505Y695654D01*
X846972Y699721D02*
X845065Y701628D01*
X845065Y705441D01*
X846972Y707348D01*
X848879Y707348D01*
X850785Y705441D01*
X850785Y703534D01*
X850785Y705441D02*
X852692Y707348D01*
X854598Y707348D01*
X856505Y705441D01*
X856505Y701628D01*
X854598Y699721D01*
D19*
X829200Y644232D03*
X829200Y716368D03*
D11*
X184890Y602530D02*
X184790Y602528D01*
X184691Y602522D01*
X184591Y602512D01*
X184493Y602499D01*
X184394Y602481D01*
X184297Y602460D01*
X184201Y602435D01*
X184105Y602406D01*
X184011Y602373D01*
X183918Y602337D01*
X183827Y602297D01*
X183737Y602253D01*
X183649Y602206D01*
X183563Y602156D01*
X183479Y602102D01*
X183397Y602045D01*
X183318Y601985D01*
X183240Y601921D01*
X183166Y601855D01*
X183094Y601786D01*
X183025Y601714D01*
X182959Y601640D01*
X182895Y601562D01*
X182835Y601483D01*
X182778Y601401D01*
X182724Y601317D01*
X182674Y601231D01*
X182627Y601143D01*
X182583Y601053D01*
X182543Y600962D01*
X182507Y600869D01*
X182474Y600775D01*
X182445Y600679D01*
X182420Y600583D01*
X182399Y600486D01*
X182381Y600387D01*
X182368Y600289D01*
X182358Y600189D01*
X182352Y600090D01*
X182350Y599990D01*
X182350Y582210D02*
X182352Y582110D01*
X182358Y582011D01*
X182368Y581911D01*
X182381Y581813D01*
X182399Y581714D01*
X182420Y581617D01*
X182445Y581521D01*
X182474Y581425D01*
X182507Y581331D01*
X182543Y581238D01*
X182583Y581147D01*
X182627Y581057D01*
X182674Y580969D01*
X182724Y580883D01*
X182778Y580799D01*
X182835Y580717D01*
X182895Y580638D01*
X182959Y580560D01*
X183025Y580486D01*
X183094Y580414D01*
X183166Y580345D01*
X183240Y580279D01*
X183318Y580215D01*
X183397Y580155D01*
X183479Y580098D01*
X183563Y580044D01*
X183649Y579994D01*
X183737Y579947D01*
X183827Y579903D01*
X183918Y579863D01*
X184011Y579827D01*
X184105Y579794D01*
X184201Y579765D01*
X184297Y579740D01*
X184394Y579719D01*
X184493Y579701D01*
X184591Y579688D01*
X184691Y579678D01*
X184790Y579672D01*
X184890Y579670D01*
X243310Y579670D02*
X243410Y579672D01*
X243509Y579678D01*
X243609Y579688D01*
X243707Y579701D01*
X243806Y579719D01*
X243903Y579740D01*
X243999Y579765D01*
X244095Y579794D01*
X244189Y579827D01*
X244282Y579863D01*
X244373Y579903D01*
X244463Y579947D01*
X244551Y579994D01*
X244637Y580044D01*
X244721Y580098D01*
X244803Y580155D01*
X244882Y580215D01*
X244960Y580279D01*
X245034Y580345D01*
X245106Y580414D01*
X245175Y580486D01*
X245241Y580560D01*
X245305Y580638D01*
X245365Y580717D01*
X245422Y580799D01*
X245476Y580883D01*
X245526Y580969D01*
X245573Y581057D01*
X245617Y581147D01*
X245657Y581238D01*
X245693Y581331D01*
X245726Y581425D01*
X245755Y581521D01*
X245780Y581617D01*
X245801Y581714D01*
X245819Y581813D01*
X245832Y581911D01*
X245842Y582011D01*
X245848Y582110D01*
X245850Y582210D01*
X245850Y599990D02*
X245848Y600090D01*
X245842Y600189D01*
X245832Y600289D01*
X245819Y600387D01*
X245801Y600486D01*
X245780Y600583D01*
X245755Y600679D01*
X245726Y600775D01*
X245693Y600869D01*
X245657Y600962D01*
X245617Y601053D01*
X245573Y601143D01*
X245526Y601231D01*
X245476Y601317D01*
X245422Y601401D01*
X245365Y601483D01*
X245305Y601562D01*
X245241Y601640D01*
X245175Y601714D01*
X245106Y601786D01*
X245034Y601855D01*
X244960Y601921D01*
X244882Y601985D01*
X244803Y602045D01*
X244721Y602102D01*
X244637Y602156D01*
X244551Y602206D01*
X244463Y602253D01*
X244373Y602297D01*
X244282Y602337D01*
X244189Y602373D01*
X244095Y602406D01*
X243999Y602435D01*
X243903Y602460D01*
X243806Y602481D01*
X243707Y602499D01*
X243609Y602512D01*
X243509Y602522D01*
X243410Y602528D01*
X243310Y602530D01*
X182350Y599990D02*
X182350Y582210D01*
X184890Y602530D02*
X188700Y602530D01*
X189970Y601260D01*
X188700Y579670D02*
X184890Y579670D01*
X188700Y579670D02*
X189970Y580940D01*
X238230Y601260D02*
X239500Y602530D01*
X238230Y601260D02*
X189970Y601260D01*
X238230Y580940D02*
X239500Y579670D01*
X238230Y580940D02*
X189970Y580940D01*
X239500Y602530D02*
X243310Y602530D01*
X243310Y579670D02*
X239500Y579670D01*
X245850Y582210D02*
X245850Y599990D01*
D12*
X184255Y606975D02*
X184255Y618415D01*
X189975Y618415D01*
X191882Y616508D01*
X191882Y612695D01*
X189975Y610788D01*
X184255Y610788D01*
X188068Y610788D02*
X191882Y606975D01*
X201669Y606975D02*
X201669Y618415D01*
X195949Y612695D01*
X203575Y612695D01*
D20*
X250168Y591100D03*
X178032Y591100D03*
D11*
X764010Y871770D02*
X764110Y871772D01*
X764209Y871778D01*
X764309Y871788D01*
X764407Y871801D01*
X764506Y871819D01*
X764603Y871840D01*
X764699Y871865D01*
X764795Y871894D01*
X764889Y871927D01*
X764982Y871963D01*
X765073Y872003D01*
X765163Y872047D01*
X765251Y872094D01*
X765337Y872144D01*
X765421Y872198D01*
X765503Y872255D01*
X765582Y872315D01*
X765660Y872379D01*
X765734Y872445D01*
X765806Y872514D01*
X765875Y872586D01*
X765941Y872660D01*
X766005Y872738D01*
X766065Y872817D01*
X766122Y872899D01*
X766176Y872983D01*
X766226Y873069D01*
X766273Y873157D01*
X766317Y873247D01*
X766357Y873338D01*
X766393Y873431D01*
X766426Y873525D01*
X766455Y873621D01*
X766480Y873717D01*
X766501Y873814D01*
X766519Y873913D01*
X766532Y874011D01*
X766542Y874111D01*
X766548Y874210D01*
X766550Y874310D01*
X766550Y892090D02*
X766548Y892190D01*
X766542Y892289D01*
X766532Y892389D01*
X766519Y892487D01*
X766501Y892586D01*
X766480Y892683D01*
X766455Y892779D01*
X766426Y892875D01*
X766393Y892969D01*
X766357Y893062D01*
X766317Y893153D01*
X766273Y893243D01*
X766226Y893331D01*
X766176Y893417D01*
X766122Y893501D01*
X766065Y893583D01*
X766005Y893662D01*
X765941Y893740D01*
X765875Y893814D01*
X765806Y893886D01*
X765734Y893955D01*
X765660Y894021D01*
X765582Y894085D01*
X765503Y894145D01*
X765421Y894202D01*
X765337Y894256D01*
X765251Y894306D01*
X765163Y894353D01*
X765073Y894397D01*
X764982Y894437D01*
X764889Y894473D01*
X764795Y894506D01*
X764699Y894535D01*
X764603Y894560D01*
X764506Y894581D01*
X764407Y894599D01*
X764309Y894612D01*
X764209Y894622D01*
X764110Y894628D01*
X764010Y894630D01*
X705590Y894630D02*
X705490Y894628D01*
X705391Y894622D01*
X705291Y894612D01*
X705193Y894599D01*
X705094Y894581D01*
X704997Y894560D01*
X704901Y894535D01*
X704805Y894506D01*
X704711Y894473D01*
X704618Y894437D01*
X704527Y894397D01*
X704437Y894353D01*
X704349Y894306D01*
X704263Y894256D01*
X704179Y894202D01*
X704097Y894145D01*
X704018Y894085D01*
X703940Y894021D01*
X703866Y893955D01*
X703794Y893886D01*
X703725Y893814D01*
X703659Y893740D01*
X703595Y893662D01*
X703535Y893583D01*
X703478Y893501D01*
X703424Y893417D01*
X703374Y893331D01*
X703327Y893243D01*
X703283Y893153D01*
X703243Y893062D01*
X703207Y892969D01*
X703174Y892875D01*
X703145Y892779D01*
X703120Y892683D01*
X703099Y892586D01*
X703081Y892487D01*
X703068Y892389D01*
X703058Y892289D01*
X703052Y892190D01*
X703050Y892090D01*
X703050Y874310D02*
X703052Y874210D01*
X703058Y874111D01*
X703068Y874011D01*
X703081Y873913D01*
X703099Y873814D01*
X703120Y873717D01*
X703145Y873621D01*
X703174Y873525D01*
X703207Y873431D01*
X703243Y873338D01*
X703283Y873247D01*
X703327Y873157D01*
X703374Y873069D01*
X703424Y872983D01*
X703478Y872899D01*
X703535Y872817D01*
X703595Y872738D01*
X703659Y872660D01*
X703725Y872586D01*
X703794Y872514D01*
X703866Y872445D01*
X703940Y872379D01*
X704018Y872315D01*
X704097Y872255D01*
X704179Y872198D01*
X704263Y872144D01*
X704349Y872094D01*
X704437Y872047D01*
X704527Y872003D01*
X704618Y871963D01*
X704711Y871927D01*
X704805Y871894D01*
X704901Y871865D01*
X704997Y871840D01*
X705094Y871819D01*
X705193Y871801D01*
X705291Y871788D01*
X705391Y871778D01*
X705490Y871772D01*
X705590Y871770D01*
X766550Y874310D02*
X766550Y892090D01*
X764010Y871770D02*
X760200Y871770D01*
X758930Y873040D01*
X760200Y894630D02*
X764010Y894630D01*
X760200Y894630D02*
X758930Y893360D01*
X710670Y873040D02*
X709400Y871770D01*
X710670Y873040D02*
X758930Y873040D01*
X710670Y893360D02*
X709400Y894630D01*
X710670Y893360D02*
X758930Y893360D01*
X709400Y871770D02*
X705590Y871770D01*
X705590Y894630D02*
X709400Y894630D01*
X703050Y892090D02*
X703050Y874310D01*
D12*
X742527Y867335D02*
X742527Y855895D01*
X742527Y867335D02*
X748247Y867335D01*
X750154Y865428D01*
X750154Y861615D01*
X748247Y859708D01*
X742527Y859708D01*
X746340Y859708D02*
X750154Y855895D01*
X758034Y865428D02*
X761848Y867335D01*
X758034Y865428D02*
X754221Y861615D01*
X754221Y857802D01*
X756128Y855895D01*
X759941Y855895D01*
X761848Y857802D01*
X761848Y859708D01*
X759941Y861615D01*
X754221Y861615D01*
D20*
X698732Y883200D03*
X770868Y883200D03*
D11*
X428730Y556810D02*
X428728Y556910D01*
X428722Y557009D01*
X428712Y557109D01*
X428699Y557207D01*
X428681Y557306D01*
X428660Y557403D01*
X428635Y557499D01*
X428606Y557595D01*
X428573Y557689D01*
X428537Y557782D01*
X428497Y557873D01*
X428453Y557963D01*
X428406Y558051D01*
X428356Y558137D01*
X428302Y558221D01*
X428245Y558303D01*
X428185Y558382D01*
X428121Y558460D01*
X428055Y558534D01*
X427986Y558606D01*
X427914Y558675D01*
X427840Y558741D01*
X427762Y558805D01*
X427683Y558865D01*
X427601Y558922D01*
X427517Y558976D01*
X427431Y559026D01*
X427343Y559073D01*
X427253Y559117D01*
X427162Y559157D01*
X427069Y559193D01*
X426975Y559226D01*
X426879Y559255D01*
X426783Y559280D01*
X426686Y559301D01*
X426587Y559319D01*
X426489Y559332D01*
X426389Y559342D01*
X426290Y559348D01*
X426190Y559350D01*
X408410Y559350D02*
X408310Y559348D01*
X408211Y559342D01*
X408111Y559332D01*
X408013Y559319D01*
X407914Y559301D01*
X407817Y559280D01*
X407721Y559255D01*
X407625Y559226D01*
X407531Y559193D01*
X407438Y559157D01*
X407347Y559117D01*
X407257Y559073D01*
X407169Y559026D01*
X407083Y558976D01*
X406999Y558922D01*
X406917Y558865D01*
X406838Y558805D01*
X406760Y558741D01*
X406686Y558675D01*
X406614Y558606D01*
X406545Y558534D01*
X406479Y558460D01*
X406415Y558382D01*
X406355Y558303D01*
X406298Y558221D01*
X406244Y558137D01*
X406194Y558051D01*
X406147Y557963D01*
X406103Y557873D01*
X406063Y557782D01*
X406027Y557689D01*
X405994Y557595D01*
X405965Y557499D01*
X405940Y557403D01*
X405919Y557306D01*
X405901Y557207D01*
X405888Y557109D01*
X405878Y557009D01*
X405872Y556910D01*
X405870Y556810D01*
X405870Y498390D02*
X405872Y498290D01*
X405878Y498191D01*
X405888Y498091D01*
X405901Y497993D01*
X405919Y497894D01*
X405940Y497797D01*
X405965Y497701D01*
X405994Y497605D01*
X406027Y497511D01*
X406063Y497418D01*
X406103Y497327D01*
X406147Y497237D01*
X406194Y497149D01*
X406244Y497063D01*
X406298Y496979D01*
X406355Y496897D01*
X406415Y496818D01*
X406479Y496740D01*
X406545Y496666D01*
X406614Y496594D01*
X406686Y496525D01*
X406760Y496459D01*
X406838Y496395D01*
X406917Y496335D01*
X406999Y496278D01*
X407083Y496224D01*
X407169Y496174D01*
X407257Y496127D01*
X407347Y496083D01*
X407438Y496043D01*
X407531Y496007D01*
X407625Y495974D01*
X407721Y495945D01*
X407817Y495920D01*
X407914Y495899D01*
X408013Y495881D01*
X408111Y495868D01*
X408211Y495858D01*
X408310Y495852D01*
X408410Y495850D01*
X426190Y495850D02*
X426290Y495852D01*
X426389Y495858D01*
X426489Y495868D01*
X426587Y495881D01*
X426686Y495899D01*
X426783Y495920D01*
X426879Y495945D01*
X426975Y495974D01*
X427069Y496007D01*
X427162Y496043D01*
X427253Y496083D01*
X427343Y496127D01*
X427431Y496174D01*
X427517Y496224D01*
X427601Y496278D01*
X427683Y496335D01*
X427762Y496395D01*
X427840Y496459D01*
X427914Y496525D01*
X427986Y496594D01*
X428055Y496666D01*
X428121Y496740D01*
X428185Y496818D01*
X428245Y496897D01*
X428302Y496979D01*
X428356Y497063D01*
X428406Y497149D01*
X428453Y497237D01*
X428497Y497327D01*
X428537Y497418D01*
X428573Y497511D01*
X428606Y497605D01*
X428635Y497701D01*
X428660Y497797D01*
X428681Y497894D01*
X428699Y497993D01*
X428712Y498091D01*
X428722Y498191D01*
X428728Y498290D01*
X428730Y498390D01*
X426190Y559350D02*
X408410Y559350D01*
X428730Y556810D02*
X428730Y553000D01*
X427460Y551730D01*
X405870Y553000D02*
X405870Y556810D01*
X405870Y553000D02*
X407140Y551730D01*
X427460Y503470D02*
X428730Y502200D01*
X427460Y503470D02*
X427460Y551730D01*
X407140Y503470D02*
X405870Y502200D01*
X407140Y503470D02*
X407140Y551730D01*
X428730Y502200D02*
X428730Y498390D01*
X405870Y498390D02*
X405870Y502200D01*
X408410Y495850D02*
X426190Y495850D01*
D12*
X433165Y535327D02*
X444605Y535327D01*
X433165Y535327D02*
X433165Y541047D01*
X435072Y542954D01*
X438885Y542954D01*
X440792Y541047D01*
X440792Y535327D01*
X440792Y539140D02*
X444605Y542954D01*
X433165Y547021D02*
X433165Y554648D01*
X435072Y554648D01*
X442698Y547021D01*
X444605Y547021D01*
D19*
X417300Y491532D03*
X417300Y563668D03*
D17*
X709400Y914950D02*
X760200Y914950D01*
X709400Y914950D02*
X709400Y934000D01*
X709400Y978450D01*
X760200Y978450D01*
X760200Y934000D01*
X760200Y914950D01*
X760200Y934000D02*
X709400Y934000D01*
D21*
X741998Y908100D02*
X748099Y898948D01*
X741998Y898948D02*
X748099Y908100D01*
X751353Y898948D02*
X757454Y898948D01*
X751353Y898948D02*
X757454Y905049D01*
X757454Y906575D01*
X755929Y908100D01*
X752878Y908100D01*
X751353Y906575D01*
D17*
X315700Y889550D02*
X214100Y889550D01*
X214100Y908600D01*
X214100Y953050D01*
X315700Y953050D01*
X315700Y908600D01*
X315700Y889550D01*
X315700Y908600D02*
X214100Y908600D01*
D21*
X297498Y882700D02*
X303599Y873548D01*
X297498Y873548D02*
X303599Y882700D01*
X311429Y882700D02*
X311429Y873548D01*
X306853Y878124D02*
X311429Y882700D01*
X312954Y878124D02*
X306853Y878124D01*
D11*
X695430Y616500D02*
X799570Y616500D01*
X799570Y775250D02*
X695430Y775250D01*
X799570Y740960D02*
X799570Y616500D01*
X799570Y740960D02*
X790680Y740960D01*
X790680Y756200D01*
X799570Y756200D01*
X799570Y775250D01*
X695430Y740960D02*
X695430Y616500D01*
X695430Y740960D02*
X704320Y740960D01*
X704320Y756200D01*
X695430Y756200D01*
X695430Y775250D01*
D22*
X701780Y622850D02*
X793220Y622850D01*
X793220Y705400D01*
X701780Y705400D01*
X701780Y622850D01*
D11*
X729466Y740960D02*
X729471Y741403D01*
X729488Y741845D01*
X729515Y742287D01*
X729553Y742728D01*
X729602Y743168D01*
X729661Y743606D01*
X729732Y744043D01*
X729813Y744478D01*
X729904Y744911D01*
X730006Y745342D01*
X730119Y745770D01*
X730243Y746195D01*
X730376Y746617D01*
X730520Y747035D01*
X730674Y747450D01*
X730839Y747861D01*
X731013Y748268D01*
X731197Y748671D01*
X731392Y749068D01*
X731595Y749461D01*
X731809Y749849D01*
X732032Y750231D01*
X732264Y750608D01*
X732505Y750979D01*
X732756Y751344D01*
X733015Y751703D01*
X733283Y752055D01*
X733560Y752401D01*
X733844Y752739D01*
X734138Y753071D01*
X734439Y753395D01*
X734748Y753712D01*
X735065Y754021D01*
X735389Y754322D01*
X735721Y754616D01*
X736059Y754900D01*
X736405Y755177D01*
X736757Y755445D01*
X737116Y755704D01*
X737481Y755955D01*
X737852Y756196D01*
X738229Y756428D01*
X738611Y756651D01*
X738999Y756865D01*
X739392Y757068D01*
X739789Y757263D01*
X740192Y757447D01*
X740599Y757621D01*
X741010Y757786D01*
X741425Y757940D01*
X741843Y758084D01*
X742265Y758217D01*
X742690Y758341D01*
X743118Y758454D01*
X743549Y758556D01*
X743982Y758647D01*
X744417Y758728D01*
X744854Y758799D01*
X745292Y758858D01*
X745732Y758907D01*
X746173Y758945D01*
X746615Y758972D01*
X747057Y758989D01*
X747500Y758994D01*
X747943Y758989D01*
X748385Y758972D01*
X748827Y758945D01*
X749268Y758907D01*
X749708Y758858D01*
X750146Y758799D01*
X750583Y758728D01*
X751018Y758647D01*
X751451Y758556D01*
X751882Y758454D01*
X752310Y758341D01*
X752735Y758217D01*
X753157Y758084D01*
X753575Y757940D01*
X753990Y757786D01*
X754401Y757621D01*
X754808Y757447D01*
X755211Y757263D01*
X755608Y757068D01*
X756001Y756865D01*
X756389Y756651D01*
X756771Y756428D01*
X757148Y756196D01*
X757519Y755955D01*
X757884Y755704D01*
X758243Y755445D01*
X758595Y755177D01*
X758941Y754900D01*
X759279Y754616D01*
X759611Y754322D01*
X759935Y754021D01*
X760252Y753712D01*
X760561Y753395D01*
X760862Y753071D01*
X761156Y752739D01*
X761440Y752401D01*
X761717Y752055D01*
X761985Y751703D01*
X762244Y751344D01*
X762495Y750979D01*
X762736Y750608D01*
X762968Y750231D01*
X763191Y749849D01*
X763405Y749461D01*
X763608Y749068D01*
X763803Y748671D01*
X763987Y748268D01*
X764161Y747861D01*
X764326Y747450D01*
X764480Y747035D01*
X764624Y746617D01*
X764757Y746195D01*
X764881Y745770D01*
X764994Y745342D01*
X765096Y744911D01*
X765187Y744478D01*
X765268Y744043D01*
X765339Y743606D01*
X765398Y743168D01*
X765447Y742728D01*
X765485Y742287D01*
X765512Y741845D01*
X765529Y741403D01*
X765534Y740960D01*
X765529Y740517D01*
X765512Y740075D01*
X765485Y739633D01*
X765447Y739192D01*
X765398Y738752D01*
X765339Y738314D01*
X765268Y737877D01*
X765187Y737442D01*
X765096Y737009D01*
X764994Y736578D01*
X764881Y736150D01*
X764757Y735725D01*
X764624Y735303D01*
X764480Y734885D01*
X764326Y734470D01*
X764161Y734059D01*
X763987Y733652D01*
X763803Y733249D01*
X763608Y732852D01*
X763405Y732459D01*
X763191Y732071D01*
X762968Y731689D01*
X762736Y731312D01*
X762495Y730941D01*
X762244Y730576D01*
X761985Y730217D01*
X761717Y729865D01*
X761440Y729519D01*
X761156Y729181D01*
X760862Y728849D01*
X760561Y728525D01*
X760252Y728208D01*
X759935Y727899D01*
X759611Y727598D01*
X759279Y727304D01*
X758941Y727020D01*
X758595Y726743D01*
X758243Y726475D01*
X757884Y726216D01*
X757519Y725965D01*
X757148Y725724D01*
X756771Y725492D01*
X756389Y725269D01*
X756001Y725055D01*
X755608Y724852D01*
X755211Y724657D01*
X754808Y724473D01*
X754401Y724299D01*
X753990Y724134D01*
X753575Y723980D01*
X753157Y723836D01*
X752735Y723703D01*
X752310Y723579D01*
X751882Y723466D01*
X751451Y723364D01*
X751018Y723273D01*
X750583Y723192D01*
X750146Y723121D01*
X749708Y723062D01*
X749268Y723013D01*
X748827Y722975D01*
X748385Y722948D01*
X747943Y722931D01*
X747500Y722926D01*
X747057Y722931D01*
X746615Y722948D01*
X746173Y722975D01*
X745732Y723013D01*
X745292Y723062D01*
X744854Y723121D01*
X744417Y723192D01*
X743982Y723273D01*
X743549Y723364D01*
X743118Y723466D01*
X742690Y723579D01*
X742265Y723703D01*
X741843Y723836D01*
X741425Y723980D01*
X741010Y724134D01*
X740599Y724299D01*
X740192Y724473D01*
X739789Y724657D01*
X739392Y724852D01*
X738999Y725055D01*
X738611Y725269D01*
X738229Y725492D01*
X737852Y725724D01*
X737481Y725965D01*
X737116Y726216D01*
X736757Y726475D01*
X736405Y726743D01*
X736059Y727020D01*
X735721Y727304D01*
X735389Y727598D01*
X735065Y727899D01*
X734748Y728208D01*
X734439Y728525D01*
X734138Y728849D01*
X733844Y729181D01*
X733560Y729519D01*
X733283Y729865D01*
X733015Y730217D01*
X732756Y730576D01*
X732505Y730941D01*
X732264Y731312D01*
X732032Y731689D01*
X731809Y732071D01*
X731595Y732459D01*
X731392Y732852D01*
X731197Y733249D01*
X731013Y733652D01*
X730839Y734059D01*
X730674Y734470D01*
X730520Y734885D01*
X730376Y735303D01*
X730243Y735725D01*
X730119Y736150D01*
X730006Y736578D01*
X729904Y737009D01*
X729813Y737442D01*
X729732Y737877D01*
X729661Y738314D01*
X729602Y738752D01*
X729553Y739192D01*
X729515Y739633D01*
X729488Y740075D01*
X729471Y740517D01*
X729466Y740960D01*
D18*
X692001Y564308D02*
X692001Y558969D01*
X692001Y561638D02*
X675985Y561638D01*
X675985Y558969D02*
X675985Y564308D01*
X675985Y577891D02*
X678655Y580561D01*
X675985Y577891D02*
X675985Y572553D01*
X678655Y569883D01*
X689332Y569883D01*
X692001Y572553D01*
X692001Y577891D01*
X689332Y580561D01*
X678655Y586255D02*
X675985Y588924D01*
X675985Y594263D01*
X678655Y596932D01*
X681324Y596932D01*
X683993Y594263D01*
X683993Y591594D01*
X683993Y594263D02*
X686662Y596932D01*
X689332Y596932D01*
X692001Y594263D01*
X692001Y588924D01*
X689332Y586255D01*
D23*
X772900Y559985D03*
X747500Y559985D03*
X722100Y559985D03*
D24*
X722100Y602530D03*
X747500Y602530D03*
X772900Y602530D03*
D10*
X730990Y740960D02*
X730995Y741365D01*
X731010Y741770D01*
X731035Y742175D01*
X731070Y742578D01*
X731114Y742981D01*
X731169Y743383D01*
X731233Y743783D01*
X731307Y744181D01*
X731391Y744577D01*
X731485Y744972D01*
X731588Y745363D01*
X731701Y745753D01*
X731823Y746139D01*
X731955Y746522D01*
X732096Y746902D01*
X732247Y747278D01*
X732406Y747651D01*
X732575Y748019D01*
X732753Y748383D01*
X732939Y748743D01*
X733135Y749098D01*
X733339Y749448D01*
X733551Y749793D01*
X733772Y750132D01*
X734002Y750467D01*
X734239Y750795D01*
X734484Y751117D01*
X734738Y751434D01*
X734998Y751744D01*
X735267Y752047D01*
X735543Y752344D01*
X735826Y752634D01*
X736116Y752917D01*
X736413Y753193D01*
X736716Y753462D01*
X737026Y753722D01*
X737343Y753976D01*
X737665Y754221D01*
X737993Y754458D01*
X738328Y754688D01*
X738667Y754909D01*
X739012Y755121D01*
X739362Y755325D01*
X739717Y755521D01*
X740077Y755707D01*
X740441Y755885D01*
X740809Y756054D01*
X741182Y756213D01*
X741558Y756364D01*
X741938Y756505D01*
X742321Y756637D01*
X742707Y756759D01*
X743097Y756872D01*
X743488Y756975D01*
X743883Y757069D01*
X744279Y757153D01*
X744677Y757227D01*
X745077Y757291D01*
X745479Y757346D01*
X745882Y757390D01*
X746285Y757425D01*
X746690Y757450D01*
X747095Y757465D01*
X747500Y757470D01*
X747905Y757465D01*
X748310Y757450D01*
X748715Y757425D01*
X749118Y757390D01*
X749521Y757346D01*
X749923Y757291D01*
X750323Y757227D01*
X750721Y757153D01*
X751117Y757069D01*
X751512Y756975D01*
X751903Y756872D01*
X752293Y756759D01*
X752679Y756637D01*
X753062Y756505D01*
X753442Y756364D01*
X753818Y756213D01*
X754191Y756054D01*
X754559Y755885D01*
X754923Y755707D01*
X755283Y755521D01*
X755638Y755325D01*
X755988Y755121D01*
X756333Y754909D01*
X756672Y754688D01*
X757007Y754458D01*
X757335Y754221D01*
X757657Y753976D01*
X757974Y753722D01*
X758284Y753462D01*
X758587Y753193D01*
X758884Y752917D01*
X759174Y752634D01*
X759457Y752344D01*
X759733Y752047D01*
X760002Y751744D01*
X760262Y751434D01*
X760516Y751117D01*
X760761Y750795D01*
X760998Y750467D01*
X761228Y750132D01*
X761449Y749793D01*
X761661Y749448D01*
X761865Y749098D01*
X762061Y748743D01*
X762247Y748383D01*
X762425Y748019D01*
X762594Y747651D01*
X762753Y747278D01*
X762904Y746902D01*
X763045Y746522D01*
X763177Y746139D01*
X763299Y745753D01*
X763412Y745363D01*
X763515Y744972D01*
X763609Y744577D01*
X763693Y744181D01*
X763767Y743783D01*
X763831Y743383D01*
X763886Y742981D01*
X763930Y742578D01*
X763965Y742175D01*
X763990Y741770D01*
X764005Y741365D01*
X764010Y740960D01*
X764005Y740555D01*
X763990Y740150D01*
X763965Y739745D01*
X763930Y739342D01*
X763886Y738939D01*
X763831Y738537D01*
X763767Y738137D01*
X763693Y737739D01*
X763609Y737343D01*
X763515Y736948D01*
X763412Y736557D01*
X763299Y736167D01*
X763177Y735781D01*
X763045Y735398D01*
X762904Y735018D01*
X762753Y734642D01*
X762594Y734269D01*
X762425Y733901D01*
X762247Y733537D01*
X762061Y733177D01*
X761865Y732822D01*
X761661Y732472D01*
X761449Y732127D01*
X761228Y731788D01*
X760998Y731453D01*
X760761Y731125D01*
X760516Y730803D01*
X760262Y730486D01*
X760002Y730176D01*
X759733Y729873D01*
X759457Y729576D01*
X759174Y729286D01*
X758884Y729003D01*
X758587Y728727D01*
X758284Y728458D01*
X757974Y728198D01*
X757657Y727944D01*
X757335Y727699D01*
X757007Y727462D01*
X756672Y727232D01*
X756333Y727011D01*
X755988Y726799D01*
X755638Y726595D01*
X755283Y726399D01*
X754923Y726213D01*
X754559Y726035D01*
X754191Y725866D01*
X753818Y725707D01*
X753442Y725556D01*
X753062Y725415D01*
X752679Y725283D01*
X752293Y725161D01*
X751903Y725048D01*
X751512Y724945D01*
X751117Y724851D01*
X750721Y724767D01*
X750323Y724693D01*
X749923Y724629D01*
X749521Y724574D01*
X749118Y724530D01*
X748715Y724495D01*
X748310Y724470D01*
X747905Y724455D01*
X747500Y724450D01*
X747095Y724455D01*
X746690Y724470D01*
X746285Y724495D01*
X745882Y724530D01*
X745479Y724574D01*
X745077Y724629D01*
X744677Y724693D01*
X744279Y724767D01*
X743883Y724851D01*
X743488Y724945D01*
X743097Y725048D01*
X742707Y725161D01*
X742321Y725283D01*
X741938Y725415D01*
X741558Y725556D01*
X741182Y725707D01*
X740809Y725866D01*
X740441Y726035D01*
X740077Y726213D01*
X739717Y726399D01*
X739362Y726595D01*
X739012Y726799D01*
X738667Y727011D01*
X738328Y727232D01*
X737993Y727462D01*
X737665Y727699D01*
X737343Y727944D01*
X737026Y728198D01*
X736716Y728458D01*
X736413Y728727D01*
X736116Y729003D01*
X735826Y729286D01*
X735543Y729576D01*
X735267Y729873D01*
X734998Y730176D01*
X734738Y730486D01*
X734484Y730803D01*
X734239Y731125D01*
X734002Y731453D01*
X733772Y731788D01*
X733551Y732127D01*
X733339Y732472D01*
X733135Y732822D01*
X732939Y733177D01*
X732753Y733537D01*
X732575Y733901D01*
X732406Y734269D01*
X732247Y734642D01*
X732096Y735018D01*
X731955Y735398D01*
X731823Y735781D01*
X731701Y736167D01*
X731588Y736557D01*
X731485Y736948D01*
X731391Y737343D01*
X731307Y737739D01*
X731233Y738137D01*
X731169Y738537D01*
X731114Y738939D01*
X731070Y739342D01*
X731035Y739745D01*
X731010Y740150D01*
X730995Y740555D01*
X730990Y740960D01*
D24*
X722100Y577130D03*
X747500Y577130D03*
X772900Y577130D03*
D25*
X633200Y664252D02*
X626850Y664252D01*
X633200Y664252D02*
X639550Y664252D01*
D11*
X633200Y664252D02*
X633200Y652060D01*
D25*
X633200Y670602D02*
X626850Y670602D01*
X633200Y670602D02*
X639550Y670602D01*
D11*
X633200Y670602D02*
X633200Y682540D01*
X623040Y630470D02*
X643360Y630470D01*
X645900Y633010D02*
X645900Y701590D01*
X643360Y704130D02*
X623040Y704130D01*
X620500Y701590D02*
X620500Y633010D01*
X620500Y701590D02*
X620502Y701690D01*
X620508Y701789D01*
X620518Y701889D01*
X620531Y701987D01*
X620549Y702086D01*
X620570Y702183D01*
X620595Y702279D01*
X620624Y702375D01*
X620657Y702469D01*
X620693Y702562D01*
X620733Y702653D01*
X620777Y702743D01*
X620824Y702831D01*
X620874Y702917D01*
X620928Y703001D01*
X620985Y703083D01*
X621045Y703162D01*
X621109Y703240D01*
X621175Y703314D01*
X621244Y703386D01*
X621316Y703455D01*
X621390Y703521D01*
X621468Y703585D01*
X621547Y703645D01*
X621629Y703702D01*
X621713Y703756D01*
X621799Y703806D01*
X621887Y703853D01*
X621977Y703897D01*
X622068Y703937D01*
X622161Y703973D01*
X622255Y704006D01*
X622351Y704035D01*
X622447Y704060D01*
X622544Y704081D01*
X622643Y704099D01*
X622741Y704112D01*
X622841Y704122D01*
X622940Y704128D01*
X623040Y704130D01*
X643360Y704130D02*
X643460Y704128D01*
X643559Y704122D01*
X643659Y704112D01*
X643757Y704099D01*
X643856Y704081D01*
X643953Y704060D01*
X644049Y704035D01*
X644145Y704006D01*
X644239Y703973D01*
X644332Y703937D01*
X644423Y703897D01*
X644513Y703853D01*
X644601Y703806D01*
X644687Y703756D01*
X644771Y703702D01*
X644853Y703645D01*
X644932Y703585D01*
X645010Y703521D01*
X645084Y703455D01*
X645156Y703386D01*
X645225Y703314D01*
X645291Y703240D01*
X645355Y703162D01*
X645415Y703083D01*
X645472Y703001D01*
X645526Y702917D01*
X645576Y702831D01*
X645623Y702743D01*
X645667Y702653D01*
X645707Y702562D01*
X645743Y702469D01*
X645776Y702375D01*
X645805Y702279D01*
X645830Y702183D01*
X645851Y702086D01*
X645869Y701987D01*
X645882Y701889D01*
X645892Y701789D01*
X645898Y701690D01*
X645900Y701590D01*
X645900Y633010D02*
X645898Y632910D01*
X645892Y632811D01*
X645882Y632711D01*
X645869Y632613D01*
X645851Y632514D01*
X645830Y632417D01*
X645805Y632321D01*
X645776Y632225D01*
X645743Y632131D01*
X645707Y632038D01*
X645667Y631947D01*
X645623Y631857D01*
X645576Y631769D01*
X645526Y631683D01*
X645472Y631599D01*
X645415Y631517D01*
X645355Y631438D01*
X645291Y631360D01*
X645225Y631286D01*
X645156Y631214D01*
X645084Y631145D01*
X645010Y631079D01*
X644932Y631015D01*
X644853Y630955D01*
X644771Y630898D01*
X644687Y630844D01*
X644601Y630794D01*
X644513Y630747D01*
X644423Y630703D01*
X644332Y630663D01*
X644239Y630627D01*
X644145Y630594D01*
X644049Y630565D01*
X643953Y630540D01*
X643856Y630519D01*
X643757Y630501D01*
X643659Y630488D01*
X643559Y630478D01*
X643460Y630472D01*
X643360Y630470D01*
X623040Y630470D02*
X622940Y630472D01*
X622841Y630478D01*
X622741Y630488D01*
X622643Y630501D01*
X622544Y630519D01*
X622447Y630540D01*
X622351Y630565D01*
X622255Y630594D01*
X622161Y630627D01*
X622068Y630663D01*
X621977Y630703D01*
X621887Y630747D01*
X621799Y630794D01*
X621713Y630844D01*
X621629Y630898D01*
X621547Y630955D01*
X621468Y631015D01*
X621390Y631079D01*
X621316Y631145D01*
X621244Y631214D01*
X621175Y631286D01*
X621109Y631360D01*
X621045Y631438D01*
X620985Y631517D01*
X620928Y631599D01*
X620874Y631683D01*
X620824Y631769D01*
X620777Y631857D01*
X620733Y631947D01*
X620693Y632038D01*
X620657Y632131D01*
X620624Y632225D01*
X620595Y632321D01*
X620570Y632417D01*
X620549Y632514D01*
X620531Y632613D01*
X620518Y632711D01*
X620508Y632811D01*
X620502Y632910D01*
X620500Y633010D01*
D12*
X605885Y653335D02*
X607792Y655242D01*
X605885Y653335D02*
X605885Y649522D01*
X607792Y647615D01*
X615418Y647615D01*
X617325Y649522D01*
X617325Y653335D01*
X615418Y655242D01*
X609699Y659309D02*
X605885Y663122D01*
X617325Y663122D01*
X617325Y659309D02*
X617325Y666935D01*
D11*
X725910Y488840D02*
X769090Y488840D01*
X769090Y432960D02*
X725910Y432960D01*
X771630Y435500D02*
X771630Y486300D01*
X723370Y486300D02*
X723370Y435500D01*
X771630Y486300D02*
X771628Y486400D01*
X771622Y486499D01*
X771612Y486599D01*
X771599Y486697D01*
X771581Y486796D01*
X771560Y486893D01*
X771535Y486989D01*
X771506Y487085D01*
X771473Y487179D01*
X771437Y487272D01*
X771397Y487363D01*
X771353Y487453D01*
X771306Y487541D01*
X771256Y487627D01*
X771202Y487711D01*
X771145Y487793D01*
X771085Y487872D01*
X771021Y487950D01*
X770955Y488024D01*
X770886Y488096D01*
X770814Y488165D01*
X770740Y488231D01*
X770662Y488295D01*
X770583Y488355D01*
X770501Y488412D01*
X770417Y488466D01*
X770331Y488516D01*
X770243Y488563D01*
X770153Y488607D01*
X770062Y488647D01*
X769969Y488683D01*
X769875Y488716D01*
X769779Y488745D01*
X769683Y488770D01*
X769586Y488791D01*
X769487Y488809D01*
X769389Y488822D01*
X769289Y488832D01*
X769190Y488838D01*
X769090Y488840D01*
X725910Y488840D02*
X725810Y488838D01*
X725711Y488832D01*
X725611Y488822D01*
X725513Y488809D01*
X725414Y488791D01*
X725317Y488770D01*
X725221Y488745D01*
X725125Y488716D01*
X725031Y488683D01*
X724938Y488647D01*
X724847Y488607D01*
X724757Y488563D01*
X724669Y488516D01*
X724583Y488466D01*
X724499Y488412D01*
X724417Y488355D01*
X724338Y488295D01*
X724260Y488231D01*
X724186Y488165D01*
X724114Y488096D01*
X724045Y488024D01*
X723979Y487950D01*
X723915Y487872D01*
X723855Y487793D01*
X723798Y487711D01*
X723744Y487627D01*
X723694Y487541D01*
X723647Y487453D01*
X723603Y487363D01*
X723563Y487272D01*
X723527Y487179D01*
X723494Y487085D01*
X723465Y486989D01*
X723440Y486893D01*
X723419Y486796D01*
X723401Y486697D01*
X723388Y486599D01*
X723378Y486499D01*
X723372Y486400D01*
X723370Y486300D01*
X771630Y435500D02*
X771628Y435400D01*
X771622Y435301D01*
X771612Y435201D01*
X771599Y435103D01*
X771581Y435004D01*
X771560Y434907D01*
X771535Y434811D01*
X771506Y434715D01*
X771473Y434621D01*
X771437Y434528D01*
X771397Y434437D01*
X771353Y434347D01*
X771306Y434259D01*
X771256Y434173D01*
X771202Y434089D01*
X771145Y434007D01*
X771085Y433928D01*
X771021Y433850D01*
X770955Y433776D01*
X770886Y433704D01*
X770814Y433635D01*
X770740Y433569D01*
X770662Y433505D01*
X770583Y433445D01*
X770501Y433388D01*
X770417Y433334D01*
X770331Y433284D01*
X770243Y433237D01*
X770153Y433193D01*
X770062Y433153D01*
X769969Y433117D01*
X769875Y433084D01*
X769779Y433055D01*
X769683Y433030D01*
X769586Y433009D01*
X769487Y432991D01*
X769389Y432978D01*
X769289Y432968D01*
X769190Y432962D01*
X769090Y432960D01*
X725910Y432960D02*
X725810Y432962D01*
X725711Y432968D01*
X725611Y432978D01*
X725513Y432991D01*
X725414Y433009D01*
X725317Y433030D01*
X725221Y433055D01*
X725125Y433084D01*
X725031Y433117D01*
X724938Y433153D01*
X724847Y433193D01*
X724757Y433237D01*
X724669Y433284D01*
X724583Y433334D01*
X724499Y433388D01*
X724417Y433445D01*
X724338Y433505D01*
X724260Y433569D01*
X724186Y433635D01*
X724114Y433704D01*
X724045Y433776D01*
X723979Y433850D01*
X723915Y433928D01*
X723855Y434007D01*
X723798Y434089D01*
X723744Y434173D01*
X723694Y434259D01*
X723647Y434347D01*
X723603Y434437D01*
X723563Y434528D01*
X723527Y434621D01*
X723494Y434715D01*
X723465Y434811D01*
X723440Y434907D01*
X723419Y435004D01*
X723401Y435103D01*
X723388Y435201D01*
X723378Y435301D01*
X723372Y435400D01*
X723370Y435500D01*
X750040Y460900D02*
X751310Y460900D01*
D17*
X750040Y460900D02*
X750040Y468520D01*
X750040Y460900D02*
X750040Y453280D01*
X744960Y460900D02*
X744960Y468520D01*
X744960Y460900D02*
X744960Y453280D01*
D11*
X744960Y460900D02*
X743690Y460900D01*
D12*
X780525Y480595D02*
X782432Y478688D01*
X780525Y480595D02*
X776712Y480595D01*
X774805Y478688D01*
X774805Y471062D01*
X776712Y469155D01*
X780525Y469155D01*
X782432Y471062D01*
X786499Y469155D02*
X794125Y469155D01*
X786499Y469155D02*
X794125Y476782D01*
X794125Y478688D01*
X792219Y480595D01*
X788406Y480595D01*
X786499Y478688D01*
D11*
X658600Y544110D02*
X557000Y544110D01*
X557000Y485690D02*
X658600Y485690D01*
X658600Y544110D01*
X557000Y544110D02*
X557000Y525060D01*
X557000Y504740D02*
X557000Y485690D01*
X557000Y504740D02*
X557247Y504743D01*
X557495Y504752D01*
X557742Y504767D01*
X557988Y504788D01*
X558234Y504815D01*
X558479Y504848D01*
X558724Y504887D01*
X558967Y504932D01*
X559209Y504983D01*
X559450Y505040D01*
X559689Y505102D01*
X559927Y505171D01*
X560163Y505245D01*
X560397Y505325D01*
X560629Y505410D01*
X560859Y505502D01*
X561087Y505598D01*
X561312Y505701D01*
X561535Y505808D01*
X561755Y505922D01*
X561972Y506040D01*
X562187Y506164D01*
X562398Y506293D01*
X562606Y506427D01*
X562811Y506566D01*
X563012Y506710D01*
X563210Y506858D01*
X563404Y507012D01*
X563594Y507170D01*
X563780Y507333D01*
X563962Y507500D01*
X564140Y507672D01*
X564314Y507848D01*
X564484Y508028D01*
X564649Y508213D01*
X564809Y508401D01*
X564965Y508593D01*
X565117Y508789D01*
X565263Y508988D01*
X565405Y509191D01*
X565541Y509398D01*
X565673Y509607D01*
X565799Y509820D01*
X565920Y510036D01*
X566036Y510254D01*
X566146Y510476D01*
X566251Y510700D01*
X566351Y510926D01*
X566445Y511155D01*
X566533Y511386D01*
X566616Y511620D01*
X566693Y511855D01*
X566764Y512092D01*
X566830Y512330D01*
X566889Y512570D01*
X566943Y512812D01*
X566991Y513055D01*
X567033Y513298D01*
X567069Y513543D01*
X567099Y513789D01*
X567123Y514035D01*
X567141Y514282D01*
X567153Y514529D01*
X567159Y514776D01*
X567159Y515024D01*
X567153Y515271D01*
X567141Y515518D01*
X567123Y515765D01*
X567099Y516011D01*
X567069Y516257D01*
X567033Y516502D01*
X566991Y516745D01*
X566943Y516988D01*
X566889Y517230D01*
X566830Y517470D01*
X566764Y517708D01*
X566693Y517945D01*
X566616Y518180D01*
X566533Y518414D01*
X566445Y518645D01*
X566351Y518874D01*
X566251Y519100D01*
X566146Y519324D01*
X566036Y519546D01*
X565920Y519764D01*
X565799Y519980D01*
X565673Y520193D01*
X565541Y520402D01*
X565405Y520609D01*
X565263Y520812D01*
X565117Y521011D01*
X564965Y521207D01*
X564809Y521399D01*
X564649Y521587D01*
X564484Y521772D01*
X564314Y521952D01*
X564140Y522128D01*
X563962Y522300D01*
X563780Y522467D01*
X563594Y522630D01*
X563404Y522788D01*
X563210Y522942D01*
X563012Y523090D01*
X562811Y523234D01*
X562606Y523373D01*
X562398Y523507D01*
X562187Y523636D01*
X561972Y523760D01*
X561755Y523878D01*
X561535Y523992D01*
X561312Y524099D01*
X561087Y524202D01*
X560859Y524298D01*
X560629Y524390D01*
X560397Y524475D01*
X560163Y524555D01*
X559927Y524629D01*
X559689Y524698D01*
X559450Y524760D01*
X559209Y524817D01*
X558967Y524868D01*
X558724Y524913D01*
X558479Y524952D01*
X558234Y524985D01*
X557988Y525012D01*
X557742Y525033D01*
X557495Y525048D01*
X557247Y525057D01*
X557000Y525060D01*
D12*
X542385Y492045D02*
X542385Y488232D01*
X544292Y486325D01*
X551918Y486325D01*
X553825Y488232D01*
X553825Y492045D01*
X551918Y493952D01*
X544292Y493952D01*
X542385Y492045D01*
X542385Y498019D02*
X553825Y498019D01*
X550012Y498019D02*
X542385Y505645D01*
X548105Y499926D02*
X553825Y505645D01*
X546199Y509713D02*
X542385Y513526D01*
X553825Y513526D01*
X553825Y509713D02*
X553825Y517339D01*
D11*
X474330Y543110D02*
X474328Y543210D01*
X474322Y543309D01*
X474312Y543409D01*
X474299Y543507D01*
X474281Y543606D01*
X474260Y543703D01*
X474235Y543799D01*
X474206Y543895D01*
X474173Y543989D01*
X474137Y544082D01*
X474097Y544173D01*
X474053Y544263D01*
X474006Y544351D01*
X473956Y544437D01*
X473902Y544521D01*
X473845Y544603D01*
X473785Y544682D01*
X473721Y544760D01*
X473655Y544834D01*
X473586Y544906D01*
X473514Y544975D01*
X473440Y545041D01*
X473362Y545105D01*
X473283Y545165D01*
X473201Y545222D01*
X473117Y545276D01*
X473031Y545326D01*
X472943Y545373D01*
X472853Y545417D01*
X472762Y545457D01*
X472669Y545493D01*
X472575Y545526D01*
X472479Y545555D01*
X472383Y545580D01*
X472286Y545601D01*
X472187Y545619D01*
X472089Y545632D01*
X471989Y545642D01*
X471890Y545648D01*
X471790Y545650D01*
X454010Y545650D02*
X453910Y545648D01*
X453811Y545642D01*
X453711Y545632D01*
X453613Y545619D01*
X453514Y545601D01*
X453417Y545580D01*
X453321Y545555D01*
X453225Y545526D01*
X453131Y545493D01*
X453038Y545457D01*
X452947Y545417D01*
X452857Y545373D01*
X452769Y545326D01*
X452683Y545276D01*
X452599Y545222D01*
X452517Y545165D01*
X452438Y545105D01*
X452360Y545041D01*
X452286Y544975D01*
X452214Y544906D01*
X452145Y544834D01*
X452079Y544760D01*
X452015Y544682D01*
X451955Y544603D01*
X451898Y544521D01*
X451844Y544437D01*
X451794Y544351D01*
X451747Y544263D01*
X451703Y544173D01*
X451663Y544082D01*
X451627Y543989D01*
X451594Y543895D01*
X451565Y543799D01*
X451540Y543703D01*
X451519Y543606D01*
X451501Y543507D01*
X451488Y543409D01*
X451478Y543309D01*
X451472Y543210D01*
X451470Y543110D01*
X451470Y484690D02*
X451472Y484590D01*
X451478Y484491D01*
X451488Y484391D01*
X451501Y484293D01*
X451519Y484194D01*
X451540Y484097D01*
X451565Y484001D01*
X451594Y483905D01*
X451627Y483811D01*
X451663Y483718D01*
X451703Y483627D01*
X451747Y483537D01*
X451794Y483449D01*
X451844Y483363D01*
X451898Y483279D01*
X451955Y483197D01*
X452015Y483118D01*
X452079Y483040D01*
X452145Y482966D01*
X452214Y482894D01*
X452286Y482825D01*
X452360Y482759D01*
X452438Y482695D01*
X452517Y482635D01*
X452599Y482578D01*
X452683Y482524D01*
X452769Y482474D01*
X452857Y482427D01*
X452947Y482383D01*
X453038Y482343D01*
X453131Y482307D01*
X453225Y482274D01*
X453321Y482245D01*
X453417Y482220D01*
X453514Y482199D01*
X453613Y482181D01*
X453711Y482168D01*
X453811Y482158D01*
X453910Y482152D01*
X454010Y482150D01*
X471790Y482150D02*
X471890Y482152D01*
X471989Y482158D01*
X472089Y482168D01*
X472187Y482181D01*
X472286Y482199D01*
X472383Y482220D01*
X472479Y482245D01*
X472575Y482274D01*
X472669Y482307D01*
X472762Y482343D01*
X472853Y482383D01*
X472943Y482427D01*
X473031Y482474D01*
X473117Y482524D01*
X473201Y482578D01*
X473283Y482635D01*
X473362Y482695D01*
X473440Y482759D01*
X473514Y482825D01*
X473586Y482894D01*
X473655Y482966D01*
X473721Y483040D01*
X473785Y483118D01*
X473845Y483197D01*
X473902Y483279D01*
X473956Y483363D01*
X474006Y483449D01*
X474053Y483537D01*
X474097Y483627D01*
X474137Y483718D01*
X474173Y483811D01*
X474206Y483905D01*
X474235Y484001D01*
X474260Y484097D01*
X474281Y484194D01*
X474299Y484293D01*
X474312Y484391D01*
X474322Y484491D01*
X474328Y484590D01*
X474330Y484690D01*
X471790Y545650D02*
X454010Y545650D01*
X474330Y543110D02*
X474330Y539300D01*
X473060Y538030D01*
X451470Y539300D02*
X451470Y543110D01*
X451470Y539300D02*
X452740Y538030D01*
X473060Y489770D02*
X474330Y488500D01*
X473060Y489770D02*
X473060Y538030D01*
X452740Y489770D02*
X451470Y488500D01*
X452740Y489770D02*
X452740Y538030D01*
X474330Y488500D02*
X474330Y484690D01*
X451470Y484690D02*
X451470Y488500D01*
X454010Y482150D02*
X471790Y482150D01*
D12*
X478765Y509933D02*
X490205Y509933D01*
X478765Y509933D02*
X478765Y515653D01*
X480672Y517560D01*
X484485Y517560D01*
X486392Y515653D01*
X486392Y509933D01*
X486392Y513746D02*
X490205Y517560D01*
X482579Y521627D02*
X478765Y525440D01*
X490205Y525440D01*
X490205Y521627D02*
X490205Y529254D01*
X480672Y533321D02*
X478765Y535228D01*
X478765Y539041D01*
X480672Y540947D01*
X482579Y540947D01*
X484485Y539041D01*
X486392Y540947D01*
X488298Y540947D01*
X490205Y539041D01*
X490205Y535228D01*
X488298Y533321D01*
X486392Y533321D01*
X484485Y535228D01*
X482579Y533321D01*
X480672Y533321D01*
X484485Y535228D02*
X484485Y539041D01*
D19*
X462900Y477832D03*
X462900Y549968D03*
D11*
X658890Y409250D02*
X658990Y409248D01*
X659089Y409242D01*
X659189Y409232D01*
X659287Y409219D01*
X659386Y409201D01*
X659483Y409180D01*
X659579Y409155D01*
X659675Y409126D01*
X659769Y409093D01*
X659862Y409057D01*
X659953Y409017D01*
X660043Y408973D01*
X660131Y408926D01*
X660217Y408876D01*
X660301Y408822D01*
X660383Y408765D01*
X660462Y408705D01*
X660540Y408641D01*
X660614Y408575D01*
X660686Y408506D01*
X660755Y408434D01*
X660821Y408360D01*
X660885Y408282D01*
X660945Y408203D01*
X661002Y408121D01*
X661056Y408037D01*
X661106Y407951D01*
X661153Y407863D01*
X661197Y407773D01*
X661237Y407682D01*
X661273Y407589D01*
X661306Y407495D01*
X661335Y407399D01*
X661360Y407303D01*
X661381Y407206D01*
X661399Y407107D01*
X661412Y407009D01*
X661422Y406909D01*
X661428Y406810D01*
X661430Y406710D01*
X641110Y409250D02*
X641010Y409248D01*
X640911Y409242D01*
X640811Y409232D01*
X640713Y409219D01*
X640614Y409201D01*
X640517Y409180D01*
X640421Y409155D01*
X640325Y409126D01*
X640231Y409093D01*
X640138Y409057D01*
X640047Y409017D01*
X639957Y408973D01*
X639869Y408926D01*
X639783Y408876D01*
X639699Y408822D01*
X639617Y408765D01*
X639538Y408705D01*
X639460Y408641D01*
X639386Y408575D01*
X639314Y408506D01*
X639245Y408434D01*
X639179Y408360D01*
X639115Y408282D01*
X639055Y408203D01*
X638998Y408121D01*
X638944Y408037D01*
X638894Y407951D01*
X638847Y407863D01*
X638803Y407773D01*
X638763Y407682D01*
X638727Y407589D01*
X638694Y407495D01*
X638665Y407399D01*
X638640Y407303D01*
X638619Y407206D01*
X638601Y407107D01*
X638588Y407009D01*
X638578Y406909D01*
X638572Y406810D01*
X638570Y406710D01*
X638570Y348290D02*
X638572Y348190D01*
X638578Y348091D01*
X638588Y347991D01*
X638601Y347893D01*
X638619Y347794D01*
X638640Y347697D01*
X638665Y347601D01*
X638694Y347505D01*
X638727Y347411D01*
X638763Y347318D01*
X638803Y347227D01*
X638847Y347137D01*
X638894Y347049D01*
X638944Y346963D01*
X638998Y346879D01*
X639055Y346797D01*
X639115Y346718D01*
X639179Y346640D01*
X639245Y346566D01*
X639314Y346494D01*
X639386Y346425D01*
X639460Y346359D01*
X639538Y346295D01*
X639617Y346235D01*
X639699Y346178D01*
X639783Y346124D01*
X639869Y346074D01*
X639957Y346027D01*
X640047Y345983D01*
X640138Y345943D01*
X640231Y345907D01*
X640325Y345874D01*
X640421Y345845D01*
X640517Y345820D01*
X640614Y345799D01*
X640713Y345781D01*
X640811Y345768D01*
X640911Y345758D01*
X641010Y345752D01*
X641110Y345750D01*
X658890Y345750D02*
X658990Y345752D01*
X659089Y345758D01*
X659189Y345768D01*
X659287Y345781D01*
X659386Y345799D01*
X659483Y345820D01*
X659579Y345845D01*
X659675Y345874D01*
X659769Y345907D01*
X659862Y345943D01*
X659953Y345983D01*
X660043Y346027D01*
X660131Y346074D01*
X660217Y346124D01*
X660301Y346178D01*
X660383Y346235D01*
X660462Y346295D01*
X660540Y346359D01*
X660614Y346425D01*
X660686Y346494D01*
X660755Y346566D01*
X660821Y346640D01*
X660885Y346718D01*
X660945Y346797D01*
X661002Y346879D01*
X661056Y346963D01*
X661106Y347049D01*
X661153Y347137D01*
X661197Y347227D01*
X661237Y347318D01*
X661273Y347411D01*
X661306Y347505D01*
X661335Y347601D01*
X661360Y347697D01*
X661381Y347794D01*
X661399Y347893D01*
X661412Y347991D01*
X661422Y348091D01*
X661428Y348190D01*
X661430Y348290D01*
X658890Y409250D02*
X641110Y409250D01*
X661430Y406710D02*
X661430Y402900D01*
X660160Y401630D01*
X638570Y402900D02*
X638570Y406710D01*
X638570Y402900D02*
X639840Y401630D01*
X660160Y353370D02*
X661430Y352100D01*
X660160Y353370D02*
X660160Y401630D01*
X639840Y353370D02*
X638570Y352100D01*
X639840Y353370D02*
X639840Y401630D01*
X661430Y352100D02*
X661430Y348290D01*
X638570Y348290D02*
X638570Y352100D01*
X641110Y345750D02*
X658890Y345750D01*
D12*
X665865Y373533D02*
X677305Y373533D01*
X665865Y373533D02*
X665865Y379253D01*
X667772Y381160D01*
X671585Y381160D01*
X673492Y379253D01*
X673492Y373533D01*
X673492Y377346D02*
X677305Y381160D01*
X669679Y385227D02*
X665865Y389040D01*
X677305Y389040D01*
X677305Y385227D02*
X677305Y392854D01*
X675398Y396921D02*
X677305Y398828D01*
X677305Y402641D01*
X675398Y404547D01*
X667772Y404547D01*
X665865Y402641D01*
X665865Y398828D01*
X667772Y396921D01*
X669679Y396921D01*
X671585Y398828D01*
X671585Y404547D01*
D19*
X650000Y341432D03*
X650000Y413568D03*
D11*
X239500Y286300D02*
X239500Y273600D01*
X239500Y286300D02*
X239809Y286304D01*
X240118Y286315D01*
X240427Y286334D01*
X240735Y286360D01*
X241043Y286394D01*
X241349Y286435D01*
X241655Y286484D01*
X241959Y286540D01*
X242261Y286604D01*
X242562Y286675D01*
X242862Y286753D01*
X243159Y286838D01*
X243454Y286931D01*
X243747Y287031D01*
X244037Y287138D01*
X244324Y287252D01*
X244609Y287373D01*
X244891Y287501D01*
X245169Y287635D01*
X245444Y287777D01*
X245716Y287925D01*
X245983Y288080D01*
X246247Y288241D01*
X246507Y288408D01*
X246763Y288582D01*
X247015Y288762D01*
X247262Y288948D01*
X247504Y289140D01*
X247742Y289338D01*
X247975Y289541D01*
X248203Y289751D01*
X248425Y289965D01*
X248643Y290185D01*
X248855Y290411D01*
X249061Y290641D01*
X249262Y290876D01*
X249457Y291116D01*
X249646Y291361D01*
X249829Y291610D01*
X250006Y291864D01*
X250176Y292122D01*
X250341Y292384D01*
X250499Y292650D01*
X250650Y292920D01*
X250795Y293193D01*
X250933Y293470D01*
X251064Y293750D01*
X251188Y294033D01*
X251306Y294319D01*
X251416Y294608D01*
X251520Y294899D01*
X251616Y295193D01*
X251705Y295489D01*
X251787Y295788D01*
X251862Y296088D01*
X251929Y296390D01*
X251989Y296693D01*
X252041Y296998D01*
X252086Y297304D01*
X252124Y297611D01*
X252154Y297919D01*
X252176Y298227D01*
X252192Y298536D01*
X252199Y298845D01*
X252199Y299155D01*
X252192Y299464D01*
X252176Y299773D01*
X252154Y300081D01*
X252124Y300389D01*
X252086Y300696D01*
X252041Y301002D01*
X251989Y301307D01*
X251929Y301610D01*
X251862Y301912D01*
X251787Y302212D01*
X251705Y302511D01*
X251616Y302807D01*
X251520Y303101D01*
X251416Y303392D01*
X251306Y303681D01*
X251188Y303967D01*
X251064Y304250D01*
X250933Y304530D01*
X250795Y304807D01*
X250650Y305080D01*
X250499Y305350D01*
X250341Y305616D01*
X250176Y305878D01*
X250006Y306136D01*
X249829Y306390D01*
X249646Y306639D01*
X249457Y306884D01*
X249262Y307124D01*
X249061Y307359D01*
X248855Y307589D01*
X248643Y307815D01*
X248425Y308035D01*
X248203Y308249D01*
X247975Y308459D01*
X247742Y308662D01*
X247504Y308860D01*
X247262Y309052D01*
X247015Y309238D01*
X246763Y309418D01*
X246507Y309592D01*
X246247Y309759D01*
X245983Y309920D01*
X245716Y310075D01*
X245444Y310223D01*
X245169Y310365D01*
X244891Y310499D01*
X244609Y310627D01*
X244324Y310748D01*
X244037Y310862D01*
X243747Y310969D01*
X243454Y311069D01*
X243159Y311162D01*
X242862Y311247D01*
X242562Y311325D01*
X242261Y311396D01*
X241959Y311460D01*
X241655Y311516D01*
X241349Y311565D01*
X241043Y311606D01*
X240735Y311640D01*
X240427Y311666D01*
X240118Y311685D01*
X239809Y311696D01*
X239500Y311700D01*
X595100Y324400D02*
X595100Y273600D01*
X239500Y311700D02*
X239500Y324400D01*
X595100Y324400D01*
X595100Y273600D02*
X240770Y273600D01*
D18*
X237341Y274489D02*
X237341Y279828D01*
X237341Y277158D02*
X221325Y277158D01*
X221325Y274489D02*
X221325Y279828D01*
X221325Y293411D02*
X223995Y296081D01*
X221325Y293411D02*
X221325Y288073D01*
X223995Y285403D01*
X234672Y285403D01*
X237341Y288073D01*
X237341Y293411D01*
X234672Y296081D01*
X226664Y301775D02*
X221325Y307114D01*
X237341Y307114D01*
X237341Y312452D02*
X237341Y301775D01*
D11*
X145810Y251250D02*
X145710Y251252D01*
X145611Y251258D01*
X145511Y251268D01*
X145413Y251281D01*
X145314Y251299D01*
X145217Y251320D01*
X145121Y251345D01*
X145025Y251374D01*
X144931Y251407D01*
X144838Y251443D01*
X144747Y251483D01*
X144657Y251527D01*
X144569Y251574D01*
X144483Y251624D01*
X144399Y251678D01*
X144317Y251735D01*
X144238Y251795D01*
X144160Y251859D01*
X144086Y251925D01*
X144014Y251994D01*
X143945Y252066D01*
X143879Y252140D01*
X143815Y252218D01*
X143755Y252297D01*
X143698Y252379D01*
X143644Y252463D01*
X143594Y252549D01*
X143547Y252637D01*
X143503Y252727D01*
X143463Y252818D01*
X143427Y252911D01*
X143394Y253005D01*
X143365Y253101D01*
X143340Y253197D01*
X143319Y253294D01*
X143301Y253393D01*
X143288Y253491D01*
X143278Y253591D01*
X143272Y253690D01*
X143270Y253790D01*
X163590Y251250D02*
X163690Y251252D01*
X163789Y251258D01*
X163889Y251268D01*
X163987Y251281D01*
X164086Y251299D01*
X164183Y251320D01*
X164279Y251345D01*
X164375Y251374D01*
X164469Y251407D01*
X164562Y251443D01*
X164653Y251483D01*
X164743Y251527D01*
X164831Y251574D01*
X164917Y251624D01*
X165001Y251678D01*
X165083Y251735D01*
X165162Y251795D01*
X165240Y251859D01*
X165314Y251925D01*
X165386Y251994D01*
X165455Y252066D01*
X165521Y252140D01*
X165585Y252218D01*
X165645Y252297D01*
X165702Y252379D01*
X165756Y252463D01*
X165806Y252549D01*
X165853Y252637D01*
X165897Y252727D01*
X165937Y252818D01*
X165973Y252911D01*
X166006Y253005D01*
X166035Y253101D01*
X166060Y253197D01*
X166081Y253294D01*
X166099Y253393D01*
X166112Y253491D01*
X166122Y253591D01*
X166128Y253690D01*
X166130Y253790D01*
X166130Y312210D02*
X166128Y312310D01*
X166122Y312409D01*
X166112Y312509D01*
X166099Y312607D01*
X166081Y312706D01*
X166060Y312803D01*
X166035Y312899D01*
X166006Y312995D01*
X165973Y313089D01*
X165937Y313182D01*
X165897Y313273D01*
X165853Y313363D01*
X165806Y313451D01*
X165756Y313537D01*
X165702Y313621D01*
X165645Y313703D01*
X165585Y313782D01*
X165521Y313860D01*
X165455Y313934D01*
X165386Y314006D01*
X165314Y314075D01*
X165240Y314141D01*
X165162Y314205D01*
X165083Y314265D01*
X165001Y314322D01*
X164917Y314376D01*
X164831Y314426D01*
X164743Y314473D01*
X164653Y314517D01*
X164562Y314557D01*
X164469Y314593D01*
X164375Y314626D01*
X164279Y314655D01*
X164183Y314680D01*
X164086Y314701D01*
X163987Y314719D01*
X163889Y314732D01*
X163789Y314742D01*
X163690Y314748D01*
X163590Y314750D01*
X145810Y314750D02*
X145710Y314748D01*
X145611Y314742D01*
X145511Y314732D01*
X145413Y314719D01*
X145314Y314701D01*
X145217Y314680D01*
X145121Y314655D01*
X145025Y314626D01*
X144931Y314593D01*
X144838Y314557D01*
X144747Y314517D01*
X144657Y314473D01*
X144569Y314426D01*
X144483Y314376D01*
X144399Y314322D01*
X144317Y314265D01*
X144238Y314205D01*
X144160Y314141D01*
X144086Y314075D01*
X144014Y314006D01*
X143945Y313934D01*
X143879Y313860D01*
X143815Y313782D01*
X143755Y313703D01*
X143698Y313621D01*
X143644Y313537D01*
X143594Y313451D01*
X143547Y313363D01*
X143503Y313273D01*
X143463Y313182D01*
X143427Y313089D01*
X143394Y312995D01*
X143365Y312899D01*
X143340Y312803D01*
X143319Y312706D01*
X143301Y312607D01*
X143288Y312509D01*
X143278Y312409D01*
X143272Y312310D01*
X143270Y312210D01*
X145810Y251250D02*
X163590Y251250D01*
X143270Y253790D02*
X143270Y257600D01*
X144540Y258870D01*
X166130Y257600D02*
X166130Y253790D01*
X166130Y257600D02*
X164860Y258870D01*
X144540Y307130D02*
X143270Y308400D01*
X144540Y307130D02*
X144540Y258870D01*
X164860Y307130D02*
X166130Y308400D01*
X164860Y307130D02*
X164860Y258870D01*
X143270Y308400D02*
X143270Y312210D01*
X166130Y312210D02*
X166130Y308400D01*
X163590Y314750D02*
X145810Y314750D01*
D12*
X138825Y253155D02*
X127385Y253155D01*
X127385Y258875D01*
X129292Y260782D01*
X133105Y260782D01*
X135012Y258875D01*
X135012Y253155D01*
X135012Y256968D02*
X138825Y260782D01*
X131199Y264849D02*
X127385Y268662D01*
X138825Y268662D01*
X138825Y264849D02*
X138825Y272475D01*
D19*
X154700Y319068D03*
X154700Y246932D03*
D26*
X50100Y304400D02*
X50100Y471400D01*
X30100Y471400D02*
X30100Y460400D01*
X30100Y471400D02*
X50100Y471400D01*
X49100Y460400D02*
X30100Y460400D01*
X70100Y471400D02*
X70100Y304400D01*
X141100Y304400D02*
X141100Y471400D01*
X-14900Y416900D02*
X-49900Y416900D01*
X-49900Y358900D02*
X-14900Y358900D01*
X-11900Y421900D02*
X49100Y421900D01*
X-11900Y421900D02*
X-14900Y416900D01*
X-14900Y358900D02*
X-11900Y353900D01*
X49100Y353900D01*
X-14900Y358900D02*
X-14900Y416900D01*
X-49900Y416900D02*
X-49900Y358900D01*
X50100Y471400D02*
X141100Y471400D01*
X141100Y304400D02*
X50100Y304400D01*
X-2900Y354900D02*
X-8150Y420900D01*
X-3150Y420900D02*
X2100Y354900D01*
X7100Y354900D02*
X1850Y420900D01*
X6850Y420900D02*
X12100Y354900D01*
X17100Y354900D02*
X11850Y420900D01*
X16850Y420900D02*
X22100Y354900D01*
X27100Y354900D02*
X21850Y420900D01*
X26850Y420900D02*
X32100Y354900D01*
X37100Y354900D02*
X31850Y420900D01*
X36850Y420900D02*
X42100Y354900D01*
X47100Y354900D02*
X41850Y420900D01*
X-13150Y418650D02*
X-7900Y354900D01*
D21*
X144748Y435876D02*
X156442Y435876D01*
X144748Y435876D02*
X144748Y441723D01*
X146697Y443672D01*
X150595Y443672D01*
X152544Y441723D01*
X152544Y435876D01*
X152544Y439774D02*
X156442Y443672D01*
X148646Y447570D02*
X144748Y451468D01*
X156442Y451468D01*
X156442Y447570D02*
X156442Y455366D01*
X146697Y459264D02*
X144748Y461213D01*
X144748Y465111D01*
X146697Y467060D01*
X148646Y467060D01*
X150595Y465111D01*
X150595Y463162D01*
X150595Y465111D02*
X152544Y467060D01*
X154493Y467060D01*
X156442Y465111D01*
X156442Y461213D01*
X154493Y459264D01*
D26*
X50100Y280900D02*
X50100Y113900D01*
X30100Y269900D02*
X30100Y280900D01*
X50100Y280900D01*
X49100Y269900D02*
X30100Y269900D01*
X70100Y280900D02*
X70100Y113900D01*
X141100Y113900D02*
X141100Y280900D01*
X-14900Y226400D02*
X-49900Y226400D01*
X-49900Y168400D02*
X-14900Y168400D01*
X-11900Y231400D02*
X49100Y231400D01*
X-11900Y231400D02*
X-14900Y226400D01*
X-14900Y168400D02*
X-11900Y163400D01*
X49100Y163400D01*
X-14900Y168400D02*
X-14900Y226400D01*
X-49900Y226400D02*
X-49900Y168400D01*
X50100Y280900D02*
X141100Y280900D01*
X141100Y113900D02*
X50100Y113900D01*
X-2900Y164400D02*
X-8150Y230400D01*
X-3150Y230400D02*
X2100Y164400D01*
X7100Y164400D02*
X1850Y230400D01*
X6850Y230400D02*
X12100Y164400D01*
X17100Y164400D02*
X11850Y230400D01*
X16850Y230400D02*
X22100Y164400D01*
X27100Y164400D02*
X21850Y230400D01*
X26850Y230400D02*
X32100Y164400D01*
X37100Y164400D02*
X31850Y230400D01*
X36850Y230400D02*
X42100Y164400D01*
X47100Y164400D02*
X41850Y230400D01*
X-13150Y228150D02*
X-7900Y164400D01*
D21*
X144748Y245376D02*
X156442Y245376D01*
X144748Y245376D02*
X144748Y251223D01*
X146697Y253172D01*
X150595Y253172D01*
X152544Y251223D01*
X152544Y245376D01*
X152544Y249274D02*
X156442Y253172D01*
X148646Y257070D02*
X144748Y260968D01*
X156442Y260968D01*
X156442Y257070D02*
X156442Y264866D01*
X146697Y272662D02*
X144748Y276560D01*
X146697Y272662D02*
X150595Y268764D01*
X154493Y268764D01*
X156442Y270713D01*
X156442Y274611D01*
X154493Y276560D01*
X152544Y276560D01*
X150595Y274611D01*
X150595Y268764D01*
D17*
X161300Y428250D02*
X288300Y428250D01*
X161300Y428250D02*
X161300Y447300D01*
X161300Y491750D01*
X288300Y491750D01*
X288300Y447300D01*
X288300Y428250D01*
X288300Y447300D02*
X161300Y447300D01*
D21*
X270098Y421400D02*
X276199Y412248D01*
X270098Y412248D02*
X276199Y421400D01*
X279453Y418349D02*
X282503Y421400D01*
X282503Y412248D01*
X279453Y412248D02*
X285554Y412248D01*
D11*
X769810Y158870D02*
X769910Y158872D01*
X770009Y158878D01*
X770109Y158888D01*
X770207Y158901D01*
X770306Y158919D01*
X770403Y158940D01*
X770499Y158965D01*
X770595Y158994D01*
X770689Y159027D01*
X770782Y159063D01*
X770873Y159103D01*
X770963Y159147D01*
X771051Y159194D01*
X771137Y159244D01*
X771221Y159298D01*
X771303Y159355D01*
X771382Y159415D01*
X771460Y159479D01*
X771534Y159545D01*
X771606Y159614D01*
X771675Y159686D01*
X771741Y159760D01*
X771805Y159838D01*
X771865Y159917D01*
X771922Y159999D01*
X771976Y160083D01*
X772026Y160169D01*
X772073Y160257D01*
X772117Y160347D01*
X772157Y160438D01*
X772193Y160531D01*
X772226Y160625D01*
X772255Y160721D01*
X772280Y160817D01*
X772301Y160914D01*
X772319Y161013D01*
X772332Y161111D01*
X772342Y161211D01*
X772348Y161310D01*
X772350Y161410D01*
X772350Y179190D02*
X772348Y179290D01*
X772342Y179389D01*
X772332Y179489D01*
X772319Y179587D01*
X772301Y179686D01*
X772280Y179783D01*
X772255Y179879D01*
X772226Y179975D01*
X772193Y180069D01*
X772157Y180162D01*
X772117Y180253D01*
X772073Y180343D01*
X772026Y180431D01*
X771976Y180517D01*
X771922Y180601D01*
X771865Y180683D01*
X771805Y180762D01*
X771741Y180840D01*
X771675Y180914D01*
X771606Y180986D01*
X771534Y181055D01*
X771460Y181121D01*
X771382Y181185D01*
X771303Y181245D01*
X771221Y181302D01*
X771137Y181356D01*
X771051Y181406D01*
X770963Y181453D01*
X770873Y181497D01*
X770782Y181537D01*
X770689Y181573D01*
X770595Y181606D01*
X770499Y181635D01*
X770403Y181660D01*
X770306Y181681D01*
X770207Y181699D01*
X770109Y181712D01*
X770009Y181722D01*
X769910Y181728D01*
X769810Y181730D01*
X711390Y181730D02*
X711290Y181728D01*
X711191Y181722D01*
X711091Y181712D01*
X710993Y181699D01*
X710894Y181681D01*
X710797Y181660D01*
X710701Y181635D01*
X710605Y181606D01*
X710511Y181573D01*
X710418Y181537D01*
X710327Y181497D01*
X710237Y181453D01*
X710149Y181406D01*
X710063Y181356D01*
X709979Y181302D01*
X709897Y181245D01*
X709818Y181185D01*
X709740Y181121D01*
X709666Y181055D01*
X709594Y180986D01*
X709525Y180914D01*
X709459Y180840D01*
X709395Y180762D01*
X709335Y180683D01*
X709278Y180601D01*
X709224Y180517D01*
X709174Y180431D01*
X709127Y180343D01*
X709083Y180253D01*
X709043Y180162D01*
X709007Y180069D01*
X708974Y179975D01*
X708945Y179879D01*
X708920Y179783D01*
X708899Y179686D01*
X708881Y179587D01*
X708868Y179489D01*
X708858Y179389D01*
X708852Y179290D01*
X708850Y179190D01*
X708850Y161410D02*
X708852Y161310D01*
X708858Y161211D01*
X708868Y161111D01*
X708881Y161013D01*
X708899Y160914D01*
X708920Y160817D01*
X708945Y160721D01*
X708974Y160625D01*
X709007Y160531D01*
X709043Y160438D01*
X709083Y160347D01*
X709127Y160257D01*
X709174Y160169D01*
X709224Y160083D01*
X709278Y159999D01*
X709335Y159917D01*
X709395Y159838D01*
X709459Y159760D01*
X709525Y159686D01*
X709594Y159614D01*
X709666Y159545D01*
X709740Y159479D01*
X709818Y159415D01*
X709897Y159355D01*
X709979Y159298D01*
X710063Y159244D01*
X710149Y159194D01*
X710237Y159147D01*
X710327Y159103D01*
X710418Y159063D01*
X710511Y159027D01*
X710605Y158994D01*
X710701Y158965D01*
X710797Y158940D01*
X710894Y158919D01*
X710993Y158901D01*
X711091Y158888D01*
X711191Y158878D01*
X711290Y158872D01*
X711390Y158870D01*
X772350Y161410D02*
X772350Y179190D01*
X769810Y158870D02*
X766000Y158870D01*
X764730Y160140D01*
X766000Y181730D02*
X769810Y181730D01*
X766000Y181730D02*
X764730Y180460D01*
X716470Y160140D02*
X715200Y158870D01*
X716470Y160140D02*
X764730Y160140D01*
X716470Y180460D02*
X715200Y181730D01*
X716470Y180460D02*
X764730Y180460D01*
X715200Y158870D02*
X711390Y158870D01*
X711390Y181730D02*
X715200Y181730D01*
X708850Y179190D02*
X708850Y161410D01*
D12*
X736633Y154435D02*
X736633Y142995D01*
X736633Y154435D02*
X742353Y154435D01*
X744260Y152528D01*
X744260Y148715D01*
X742353Y146808D01*
X736633Y146808D01*
X740446Y146808D02*
X744260Y142995D01*
X748327Y150622D02*
X752140Y154435D01*
X752140Y142995D01*
X748327Y142995D02*
X755954Y142995D01*
X760021Y154435D02*
X767647Y154435D01*
X767647Y152528D01*
X760021Y144902D01*
X760021Y142995D01*
D20*
X704532Y170300D03*
X776668Y170300D03*
D11*
X768810Y198170D02*
X768910Y198172D01*
X769009Y198178D01*
X769109Y198188D01*
X769207Y198201D01*
X769306Y198219D01*
X769403Y198240D01*
X769499Y198265D01*
X769595Y198294D01*
X769689Y198327D01*
X769782Y198363D01*
X769873Y198403D01*
X769963Y198447D01*
X770051Y198494D01*
X770137Y198544D01*
X770221Y198598D01*
X770303Y198655D01*
X770382Y198715D01*
X770460Y198779D01*
X770534Y198845D01*
X770606Y198914D01*
X770675Y198986D01*
X770741Y199060D01*
X770805Y199138D01*
X770865Y199217D01*
X770922Y199299D01*
X770976Y199383D01*
X771026Y199469D01*
X771073Y199557D01*
X771117Y199647D01*
X771157Y199738D01*
X771193Y199831D01*
X771226Y199925D01*
X771255Y200021D01*
X771280Y200117D01*
X771301Y200214D01*
X771319Y200313D01*
X771332Y200411D01*
X771342Y200511D01*
X771348Y200610D01*
X771350Y200710D01*
X771350Y218490D02*
X771348Y218590D01*
X771342Y218689D01*
X771332Y218789D01*
X771319Y218887D01*
X771301Y218986D01*
X771280Y219083D01*
X771255Y219179D01*
X771226Y219275D01*
X771193Y219369D01*
X771157Y219462D01*
X771117Y219553D01*
X771073Y219643D01*
X771026Y219731D01*
X770976Y219817D01*
X770922Y219901D01*
X770865Y219983D01*
X770805Y220062D01*
X770741Y220140D01*
X770675Y220214D01*
X770606Y220286D01*
X770534Y220355D01*
X770460Y220421D01*
X770382Y220485D01*
X770303Y220545D01*
X770221Y220602D01*
X770137Y220656D01*
X770051Y220706D01*
X769963Y220753D01*
X769873Y220797D01*
X769782Y220837D01*
X769689Y220873D01*
X769595Y220906D01*
X769499Y220935D01*
X769403Y220960D01*
X769306Y220981D01*
X769207Y220999D01*
X769109Y221012D01*
X769009Y221022D01*
X768910Y221028D01*
X768810Y221030D01*
X710390Y221030D02*
X710290Y221028D01*
X710191Y221022D01*
X710091Y221012D01*
X709993Y220999D01*
X709894Y220981D01*
X709797Y220960D01*
X709701Y220935D01*
X709605Y220906D01*
X709511Y220873D01*
X709418Y220837D01*
X709327Y220797D01*
X709237Y220753D01*
X709149Y220706D01*
X709063Y220656D01*
X708979Y220602D01*
X708897Y220545D01*
X708818Y220485D01*
X708740Y220421D01*
X708666Y220355D01*
X708594Y220286D01*
X708525Y220214D01*
X708459Y220140D01*
X708395Y220062D01*
X708335Y219983D01*
X708278Y219901D01*
X708224Y219817D01*
X708174Y219731D01*
X708127Y219643D01*
X708083Y219553D01*
X708043Y219462D01*
X708007Y219369D01*
X707974Y219275D01*
X707945Y219179D01*
X707920Y219083D01*
X707899Y218986D01*
X707881Y218887D01*
X707868Y218789D01*
X707858Y218689D01*
X707852Y218590D01*
X707850Y218490D01*
X707850Y200710D02*
X707852Y200610D01*
X707858Y200511D01*
X707868Y200411D01*
X707881Y200313D01*
X707899Y200214D01*
X707920Y200117D01*
X707945Y200021D01*
X707974Y199925D01*
X708007Y199831D01*
X708043Y199738D01*
X708083Y199647D01*
X708127Y199557D01*
X708174Y199469D01*
X708224Y199383D01*
X708278Y199299D01*
X708335Y199217D01*
X708395Y199138D01*
X708459Y199060D01*
X708525Y198986D01*
X708594Y198914D01*
X708666Y198845D01*
X708740Y198779D01*
X708818Y198715D01*
X708897Y198655D01*
X708979Y198598D01*
X709063Y198544D01*
X709149Y198494D01*
X709237Y198447D01*
X709327Y198403D01*
X709418Y198363D01*
X709511Y198327D01*
X709605Y198294D01*
X709701Y198265D01*
X709797Y198240D01*
X709894Y198219D01*
X709993Y198201D01*
X710091Y198188D01*
X710191Y198178D01*
X710290Y198172D01*
X710390Y198170D01*
X771350Y200710D02*
X771350Y218490D01*
X768810Y198170D02*
X765000Y198170D01*
X763730Y199440D01*
X765000Y221030D02*
X768810Y221030D01*
X765000Y221030D02*
X763730Y219760D01*
X715470Y199440D02*
X714200Y198170D01*
X715470Y199440D02*
X763730Y199440D01*
X715470Y219760D02*
X714200Y221030D01*
X715470Y219760D02*
X763730Y219760D01*
X714200Y198170D02*
X710390Y198170D01*
X710390Y221030D02*
X714200Y221030D01*
X707850Y218490D02*
X707850Y200710D01*
D12*
X735633Y193735D02*
X735633Y182295D01*
X735633Y193735D02*
X741353Y193735D01*
X743260Y191828D01*
X743260Y188015D01*
X741353Y186108D01*
X735633Y186108D01*
X739446Y186108D02*
X743260Y182295D01*
X747327Y182295D02*
X754954Y182295D01*
X747327Y182295D02*
X754954Y189922D01*
X754954Y191828D01*
X753047Y193735D01*
X749234Y193735D01*
X747327Y191828D01*
X759021Y191828D02*
X759021Y184202D01*
X759021Y191828D02*
X760928Y193735D01*
X764741Y193735D01*
X766647Y191828D01*
X766647Y184202D01*
X764741Y182295D01*
X760928Y182295D01*
X759021Y184202D01*
X766647Y191828D01*
D20*
X703532Y209600D03*
X775668Y209600D03*
D11*
X711390Y263330D02*
X711290Y263328D01*
X711191Y263322D01*
X711091Y263312D01*
X710993Y263299D01*
X710894Y263281D01*
X710797Y263260D01*
X710701Y263235D01*
X710605Y263206D01*
X710511Y263173D01*
X710418Y263137D01*
X710327Y263097D01*
X710237Y263053D01*
X710149Y263006D01*
X710063Y262956D01*
X709979Y262902D01*
X709897Y262845D01*
X709818Y262785D01*
X709740Y262721D01*
X709666Y262655D01*
X709594Y262586D01*
X709525Y262514D01*
X709459Y262440D01*
X709395Y262362D01*
X709335Y262283D01*
X709278Y262201D01*
X709224Y262117D01*
X709174Y262031D01*
X709127Y261943D01*
X709083Y261853D01*
X709043Y261762D01*
X709007Y261669D01*
X708974Y261575D01*
X708945Y261479D01*
X708920Y261383D01*
X708899Y261286D01*
X708881Y261187D01*
X708868Y261089D01*
X708858Y260989D01*
X708852Y260890D01*
X708850Y260790D01*
X708850Y243010D02*
X708852Y242910D01*
X708858Y242811D01*
X708868Y242711D01*
X708881Y242613D01*
X708899Y242514D01*
X708920Y242417D01*
X708945Y242321D01*
X708974Y242225D01*
X709007Y242131D01*
X709043Y242038D01*
X709083Y241947D01*
X709127Y241857D01*
X709174Y241769D01*
X709224Y241683D01*
X709278Y241599D01*
X709335Y241517D01*
X709395Y241438D01*
X709459Y241360D01*
X709525Y241286D01*
X709594Y241214D01*
X709666Y241145D01*
X709740Y241079D01*
X709818Y241015D01*
X709897Y240955D01*
X709979Y240898D01*
X710063Y240844D01*
X710149Y240794D01*
X710237Y240747D01*
X710327Y240703D01*
X710418Y240663D01*
X710511Y240627D01*
X710605Y240594D01*
X710701Y240565D01*
X710797Y240540D01*
X710894Y240519D01*
X710993Y240501D01*
X711091Y240488D01*
X711191Y240478D01*
X711290Y240472D01*
X711390Y240470D01*
X769810Y240470D02*
X769910Y240472D01*
X770009Y240478D01*
X770109Y240488D01*
X770207Y240501D01*
X770306Y240519D01*
X770403Y240540D01*
X770499Y240565D01*
X770595Y240594D01*
X770689Y240627D01*
X770782Y240663D01*
X770873Y240703D01*
X770963Y240747D01*
X771051Y240794D01*
X771137Y240844D01*
X771221Y240898D01*
X771303Y240955D01*
X771382Y241015D01*
X771460Y241079D01*
X771534Y241145D01*
X771606Y241214D01*
X771675Y241286D01*
X771741Y241360D01*
X771805Y241438D01*
X771865Y241517D01*
X771922Y241599D01*
X771976Y241683D01*
X772026Y241769D01*
X772073Y241857D01*
X772117Y241947D01*
X772157Y242038D01*
X772193Y242131D01*
X772226Y242225D01*
X772255Y242321D01*
X772280Y242417D01*
X772301Y242514D01*
X772319Y242613D01*
X772332Y242711D01*
X772342Y242811D01*
X772348Y242910D01*
X772350Y243010D01*
X772350Y260790D02*
X772348Y260890D01*
X772342Y260989D01*
X772332Y261089D01*
X772319Y261187D01*
X772301Y261286D01*
X772280Y261383D01*
X772255Y261479D01*
X772226Y261575D01*
X772193Y261669D01*
X772157Y261762D01*
X772117Y261853D01*
X772073Y261943D01*
X772026Y262031D01*
X771976Y262117D01*
X771922Y262201D01*
X771865Y262283D01*
X771805Y262362D01*
X771741Y262440D01*
X771675Y262514D01*
X771606Y262586D01*
X771534Y262655D01*
X771460Y262721D01*
X771382Y262785D01*
X771303Y262845D01*
X771221Y262902D01*
X771137Y262956D01*
X771051Y263006D01*
X770963Y263053D01*
X770873Y263097D01*
X770782Y263137D01*
X770689Y263173D01*
X770595Y263206D01*
X770499Y263235D01*
X770403Y263260D01*
X770306Y263281D01*
X770207Y263299D01*
X770109Y263312D01*
X770009Y263322D01*
X769910Y263328D01*
X769810Y263330D01*
X708850Y260790D02*
X708850Y243010D01*
X711390Y263330D02*
X715200Y263330D01*
X716470Y262060D01*
X715200Y240470D02*
X711390Y240470D01*
X715200Y240470D02*
X716470Y241740D01*
X764730Y262060D02*
X766000Y263330D01*
X764730Y262060D02*
X716470Y262060D01*
X764730Y241740D02*
X766000Y240470D01*
X764730Y241740D02*
X716470Y241740D01*
X766000Y263330D02*
X769810Y263330D01*
X769810Y240470D02*
X766000Y240470D01*
X772350Y243010D02*
X772350Y260790D01*
D12*
X710755Y267775D02*
X710755Y279215D01*
X716475Y279215D01*
X718382Y277308D01*
X718382Y273495D01*
X716475Y271588D01*
X710755Y271588D01*
X714568Y271588D02*
X718382Y267775D01*
X722449Y267775D02*
X730075Y267775D01*
X722449Y267775D02*
X730075Y275402D01*
X730075Y277308D01*
X728169Y279215D01*
X724356Y279215D01*
X722449Y277308D01*
X734143Y275402D02*
X737956Y279215D01*
X737956Y267775D01*
X734143Y267775D02*
X741769Y267775D01*
D20*
X776668Y251900D03*
X704532Y251900D03*
D11*
X706650Y301490D02*
X706652Y301590D01*
X706658Y301689D01*
X706668Y301789D01*
X706681Y301887D01*
X706699Y301986D01*
X706720Y302083D01*
X706745Y302179D01*
X706774Y302275D01*
X706807Y302369D01*
X706843Y302462D01*
X706883Y302553D01*
X706927Y302643D01*
X706974Y302731D01*
X707024Y302817D01*
X707078Y302901D01*
X707135Y302983D01*
X707195Y303062D01*
X707259Y303140D01*
X707325Y303214D01*
X707394Y303286D01*
X707466Y303355D01*
X707540Y303421D01*
X707618Y303485D01*
X707697Y303545D01*
X707779Y303602D01*
X707863Y303656D01*
X707949Y303706D01*
X708037Y303753D01*
X708127Y303797D01*
X708218Y303837D01*
X708311Y303873D01*
X708405Y303906D01*
X708501Y303935D01*
X708597Y303960D01*
X708694Y303981D01*
X708793Y303999D01*
X708891Y304012D01*
X708991Y304022D01*
X709090Y304028D01*
X709190Y304030D01*
X706650Y283710D02*
X706652Y283610D01*
X706658Y283511D01*
X706668Y283411D01*
X706681Y283313D01*
X706699Y283214D01*
X706720Y283117D01*
X706745Y283021D01*
X706774Y282925D01*
X706807Y282831D01*
X706843Y282738D01*
X706883Y282647D01*
X706927Y282557D01*
X706974Y282469D01*
X707024Y282383D01*
X707078Y282299D01*
X707135Y282217D01*
X707195Y282138D01*
X707259Y282060D01*
X707325Y281986D01*
X707394Y281914D01*
X707466Y281845D01*
X707540Y281779D01*
X707618Y281715D01*
X707697Y281655D01*
X707779Y281598D01*
X707863Y281544D01*
X707949Y281494D01*
X708037Y281447D01*
X708127Y281403D01*
X708218Y281363D01*
X708311Y281327D01*
X708405Y281294D01*
X708501Y281265D01*
X708597Y281240D01*
X708694Y281219D01*
X708793Y281201D01*
X708891Y281188D01*
X708991Y281178D01*
X709090Y281172D01*
X709190Y281170D01*
X767610Y281170D02*
X767710Y281172D01*
X767809Y281178D01*
X767909Y281188D01*
X768007Y281201D01*
X768106Y281219D01*
X768203Y281240D01*
X768299Y281265D01*
X768395Y281294D01*
X768489Y281327D01*
X768582Y281363D01*
X768673Y281403D01*
X768763Y281447D01*
X768851Y281494D01*
X768937Y281544D01*
X769021Y281598D01*
X769103Y281655D01*
X769182Y281715D01*
X769260Y281779D01*
X769334Y281845D01*
X769406Y281914D01*
X769475Y281986D01*
X769541Y282060D01*
X769605Y282138D01*
X769665Y282217D01*
X769722Y282299D01*
X769776Y282383D01*
X769826Y282469D01*
X769873Y282557D01*
X769917Y282647D01*
X769957Y282738D01*
X769993Y282831D01*
X770026Y282925D01*
X770055Y283021D01*
X770080Y283117D01*
X770101Y283214D01*
X770119Y283313D01*
X770132Y283411D01*
X770142Y283511D01*
X770148Y283610D01*
X770150Y283710D01*
X770150Y301490D02*
X770148Y301590D01*
X770142Y301689D01*
X770132Y301789D01*
X770119Y301887D01*
X770101Y301986D01*
X770080Y302083D01*
X770055Y302179D01*
X770026Y302275D01*
X769993Y302369D01*
X769957Y302462D01*
X769917Y302553D01*
X769873Y302643D01*
X769826Y302731D01*
X769776Y302817D01*
X769722Y302901D01*
X769665Y302983D01*
X769605Y303062D01*
X769541Y303140D01*
X769475Y303214D01*
X769406Y303286D01*
X769334Y303355D01*
X769260Y303421D01*
X769182Y303485D01*
X769103Y303545D01*
X769021Y303602D01*
X768937Y303656D01*
X768851Y303706D01*
X768763Y303753D01*
X768673Y303797D01*
X768582Y303837D01*
X768489Y303873D01*
X768395Y303906D01*
X768299Y303935D01*
X768203Y303960D01*
X768106Y303981D01*
X768007Y303999D01*
X767909Y304012D01*
X767809Y304022D01*
X767710Y304028D01*
X767610Y304030D01*
X706650Y301490D02*
X706650Y283710D01*
X709190Y304030D02*
X713000Y304030D01*
X714270Y302760D01*
X713000Y281170D02*
X709190Y281170D01*
X713000Y281170D02*
X714270Y282440D01*
X762530Y302760D02*
X763800Y304030D01*
X762530Y302760D02*
X714270Y302760D01*
X762530Y282440D02*
X763800Y281170D01*
X762530Y282440D02*
X714270Y282440D01*
X763800Y304030D02*
X767610Y304030D01*
X767610Y281170D02*
X763800Y281170D01*
X770150Y283710D02*
X770150Y301490D01*
D12*
X708555Y308475D02*
X708555Y319915D01*
X714275Y319915D01*
X716182Y318008D01*
X716182Y314195D01*
X714275Y312288D01*
X708555Y312288D01*
X712368Y312288D02*
X716182Y308475D01*
X720249Y308475D02*
X727875Y308475D01*
X720249Y308475D02*
X727875Y316102D01*
X727875Y318008D01*
X725969Y319915D01*
X722156Y319915D01*
X720249Y318008D01*
X731943Y308475D02*
X739569Y308475D01*
X731943Y308475D02*
X739569Y316102D01*
X739569Y318008D01*
X737663Y319915D01*
X733850Y319915D01*
X731943Y318008D01*
D20*
X774468Y292600D03*
X702332Y292600D03*
D11*
X575801Y415758D02*
X575582Y416058D01*
X575355Y416352D01*
X575121Y416640D01*
X574880Y416923D01*
X574633Y417200D01*
X574378Y417471D01*
X574117Y417735D01*
X573850Y417993D01*
X573577Y418244D01*
X573297Y418489D01*
X573012Y418727D01*
X572721Y418957D01*
X572424Y419181D01*
X572122Y419397D01*
X571815Y419606D01*
X571503Y419807D01*
X571186Y420001D01*
X570864Y420187D01*
X570538Y420365D01*
X570208Y420535D01*
X569874Y420697D01*
X569536Y420850D01*
X569194Y420996D01*
X568849Y421133D01*
X568500Y421261D01*
X568149Y421381D01*
X567794Y421493D01*
X567437Y421595D01*
X567078Y421690D01*
X566717Y421775D01*
X566353Y421851D01*
X565988Y421919D01*
X565621Y421977D01*
X565253Y422027D01*
X564884Y422068D01*
X564514Y422099D01*
X564143Y422122D01*
X563772Y422135D01*
X563400Y422140D01*
X563028Y422135D01*
X562657Y422122D01*
X562285Y422099D01*
X561915Y422067D01*
X561545Y422027D01*
X561177Y421977D01*
X560809Y421918D01*
X560444Y421851D01*
X560080Y421774D01*
X559718Y421688D01*
X559358Y421594D01*
X559001Y421491D01*
X558646Y421380D01*
X558294Y421259D01*
X557945Y421130D01*
X557600Y420993D01*
X557258Y420847D01*
X556919Y420693D01*
X556584Y420531D01*
X556254Y420361D01*
X555928Y420182D01*
X555606Y419996D01*
X555288Y419802D01*
X554976Y419600D01*
X554669Y419391D01*
X554367Y419174D01*
X554070Y418950D01*
X553778Y418719D01*
X553493Y418481D01*
X553213Y418235D01*
X552940Y417983D01*
X552672Y417725D01*
X552412Y417460D01*
X552157Y417189D01*
X551909Y416911D01*
X551669Y416628D01*
X551435Y416339D01*
X551208Y416044D01*
X563400Y391660D02*
X563765Y391664D01*
X564130Y391677D01*
X564494Y391699D01*
X564857Y391730D01*
X565220Y391769D01*
X565582Y391817D01*
X565942Y391874D01*
X566301Y391939D01*
X566659Y392012D01*
X567014Y392095D01*
X567367Y392185D01*
X567719Y392285D01*
X568067Y392392D01*
X568413Y392508D01*
X568756Y392632D01*
X569096Y392765D01*
X569433Y392905D01*
X569766Y393053D01*
X570096Y393210D01*
X570422Y393374D01*
X570744Y393546D01*
X571061Y393726D01*
X571374Y393913D01*
X571683Y394107D01*
X571987Y394309D01*
X572286Y394519D01*
X572580Y394735D01*
X572868Y394958D01*
X573151Y395188D01*
X573429Y395425D01*
X573701Y395668D01*
X573967Y395918D01*
X574227Y396174D01*
X574480Y396437D01*
X574728Y396705D01*
X574968Y396979D01*
X575203Y397259D01*
X575430Y397544D01*
X563400Y391660D02*
X563035Y391664D01*
X562670Y391677D01*
X562306Y391699D01*
X561943Y391730D01*
X561580Y391769D01*
X561218Y391817D01*
X560858Y391874D01*
X560499Y391939D01*
X560141Y392012D01*
X559786Y392095D01*
X559433Y392185D01*
X559081Y392285D01*
X558733Y392392D01*
X558387Y392508D01*
X558044Y392632D01*
X557704Y392765D01*
X557367Y392905D01*
X557034Y393053D01*
X556704Y393210D01*
X556378Y393374D01*
X556056Y393546D01*
X555739Y393726D01*
X555426Y393913D01*
X555117Y394107D01*
X554813Y394309D01*
X554514Y394519D01*
X554220Y394735D01*
X553932Y394958D01*
X553649Y395188D01*
X553371Y395425D01*
X553099Y395668D01*
X552833Y395918D01*
X552573Y396174D01*
X552320Y396437D01*
X552072Y396705D01*
X551832Y396979D01*
X551597Y397259D01*
X551370Y397544D01*
D17*
X563400Y427220D02*
X563894Y427214D01*
X564388Y427196D01*
X564882Y427166D01*
X565375Y427124D01*
X565866Y427070D01*
X566356Y427004D01*
X566844Y426926D01*
X567331Y426836D01*
X567815Y426735D01*
X568296Y426621D01*
X568774Y426496D01*
X569250Y426360D01*
X569721Y426212D01*
X570189Y426052D01*
X570653Y425881D01*
X571113Y425699D01*
X571568Y425506D01*
X572019Y425302D01*
X572464Y425087D01*
X572904Y424861D01*
X573338Y424624D01*
X573766Y424377D01*
X574188Y424120D01*
X574604Y423852D01*
X575013Y423574D01*
X575415Y423287D01*
X575811Y422990D01*
X576198Y422683D01*
X576579Y422367D01*
X576951Y422042D01*
X577316Y421707D01*
X577672Y421364D01*
X578019Y421013D01*
X578359Y420653D01*
X578689Y420285D01*
X579010Y419909D01*
X563400Y427220D02*
X562912Y427214D01*
X562425Y427197D01*
X561938Y427167D01*
X561451Y427126D01*
X560966Y427074D01*
X560482Y427009D01*
X560000Y426933D01*
X559520Y426846D01*
X559042Y426747D01*
X558567Y426637D01*
X558094Y426515D01*
X557625Y426382D01*
X557158Y426237D01*
X556696Y426082D01*
X556237Y425915D01*
X555782Y425738D01*
X555332Y425549D01*
X554887Y425350D01*
X554446Y425140D01*
X554010Y424920D01*
X553580Y424689D01*
X553156Y424448D01*
X552738Y424197D01*
X552325Y423936D01*
X551919Y423665D01*
X551520Y423385D01*
X551127Y423095D01*
X550742Y422795D01*
X550364Y422486D01*
X549993Y422169D01*
X549631Y421842D01*
X549276Y421507D01*
X548929Y421164D01*
X548591Y420812D01*
X548261Y420453D01*
X547940Y420085D01*
X547627Y419710D01*
X547324Y419327D01*
X547030Y418938D01*
X546746Y418541D01*
X546471Y418138D01*
X546206Y417728D01*
X545951Y417312D01*
X545706Y416890D01*
X545471Y416462D01*
X563400Y386580D02*
X563890Y386586D01*
X564380Y386604D01*
X564869Y386633D01*
X565358Y386675D01*
X565845Y386728D01*
X566331Y386792D01*
X566815Y386869D01*
X567297Y386957D01*
X567777Y387057D01*
X568255Y387168D01*
X568729Y387291D01*
X569201Y387426D01*
X569669Y387571D01*
X570133Y387728D01*
X570594Y387896D01*
X571050Y388075D01*
X571502Y388265D01*
X571949Y388466D01*
X572391Y388678D01*
X572828Y388900D01*
X573260Y389132D01*
X573686Y389375D01*
X574105Y389629D01*
X574519Y389892D01*
X574926Y390165D01*
X575326Y390448D01*
X575720Y390741D01*
X576106Y391042D01*
X576485Y391354D01*
X576856Y391674D01*
X577219Y392003D01*
X577575Y392340D01*
X577922Y392687D01*
X578260Y393041D01*
X578590Y393404D01*
X578912Y393774D01*
X563400Y386580D02*
X562903Y386586D01*
X562406Y386604D01*
X561910Y386635D01*
X561415Y386677D01*
X560921Y386732D01*
X560428Y386798D01*
X559938Y386877D01*
X559449Y386968D01*
X558963Y387070D01*
X558479Y387185D01*
X557999Y387311D01*
X557521Y387449D01*
X557047Y387598D01*
X556577Y387759D01*
X556111Y387932D01*
X555649Y388116D01*
X555192Y388311D01*
X554740Y388517D01*
X554293Y388734D01*
X553852Y388963D01*
X553416Y389201D01*
X552986Y389451D01*
X552563Y389711D01*
X552145Y389981D01*
X551735Y390261D01*
X551332Y390551D01*
X550935Y390851D01*
X550547Y391161D01*
X550166Y391480D01*
X549793Y391808D01*
X549428Y392145D01*
X549071Y392491D01*
X548723Y392846D01*
X548384Y393209D01*
X548053Y393580D01*
X547732Y393960D01*
X547420Y394347D01*
X547118Y394741D01*
X546826Y395143D01*
X546543Y395552D01*
X546271Y395967D01*
X546008Y396390D01*
X545757Y396818D01*
D12*
X583085Y411345D02*
X583085Y422785D01*
X583085Y411345D02*
X590712Y411345D01*
X594779Y422785D02*
X602405Y422785D01*
X594779Y422785D02*
X594779Y411345D01*
X602405Y411345D01*
X598592Y417065D02*
X594779Y417065D01*
X606473Y422785D02*
X606473Y411345D01*
X612193Y411345D01*
X614099Y413252D01*
X614099Y420878D01*
X612193Y422785D01*
X606473Y422785D01*
X618167Y409438D02*
X625793Y409438D01*
X629861Y420878D02*
X631768Y422785D01*
X635581Y422785D01*
X637487Y420878D01*
X637487Y418972D01*
X635581Y417065D01*
X633674Y417065D01*
X635581Y417065D02*
X637487Y415158D01*
X637487Y413252D01*
X635581Y411345D01*
X631768Y411345D01*
X629861Y413252D01*
D11*
X500210Y391750D02*
X500110Y391752D01*
X500011Y391758D01*
X499911Y391768D01*
X499813Y391781D01*
X499714Y391799D01*
X499617Y391820D01*
X499521Y391845D01*
X499425Y391874D01*
X499331Y391907D01*
X499238Y391943D01*
X499147Y391983D01*
X499057Y392027D01*
X498969Y392074D01*
X498883Y392124D01*
X498799Y392178D01*
X498717Y392235D01*
X498638Y392295D01*
X498560Y392359D01*
X498486Y392425D01*
X498414Y392494D01*
X498345Y392566D01*
X498279Y392640D01*
X498215Y392718D01*
X498155Y392797D01*
X498098Y392879D01*
X498044Y392963D01*
X497994Y393049D01*
X497947Y393137D01*
X497903Y393227D01*
X497863Y393318D01*
X497827Y393411D01*
X497794Y393505D01*
X497765Y393601D01*
X497740Y393697D01*
X497719Y393794D01*
X497701Y393893D01*
X497688Y393991D01*
X497678Y394091D01*
X497672Y394190D01*
X497670Y394290D01*
X517990Y391750D02*
X518090Y391752D01*
X518189Y391758D01*
X518289Y391768D01*
X518387Y391781D01*
X518486Y391799D01*
X518583Y391820D01*
X518679Y391845D01*
X518775Y391874D01*
X518869Y391907D01*
X518962Y391943D01*
X519053Y391983D01*
X519143Y392027D01*
X519231Y392074D01*
X519317Y392124D01*
X519401Y392178D01*
X519483Y392235D01*
X519562Y392295D01*
X519640Y392359D01*
X519714Y392425D01*
X519786Y392494D01*
X519855Y392566D01*
X519921Y392640D01*
X519985Y392718D01*
X520045Y392797D01*
X520102Y392879D01*
X520156Y392963D01*
X520206Y393049D01*
X520253Y393137D01*
X520297Y393227D01*
X520337Y393318D01*
X520373Y393411D01*
X520406Y393505D01*
X520435Y393601D01*
X520460Y393697D01*
X520481Y393794D01*
X520499Y393893D01*
X520512Y393991D01*
X520522Y394091D01*
X520528Y394190D01*
X520530Y394290D01*
X520530Y452710D02*
X520528Y452810D01*
X520522Y452909D01*
X520512Y453009D01*
X520499Y453107D01*
X520481Y453206D01*
X520460Y453303D01*
X520435Y453399D01*
X520406Y453495D01*
X520373Y453589D01*
X520337Y453682D01*
X520297Y453773D01*
X520253Y453863D01*
X520206Y453951D01*
X520156Y454037D01*
X520102Y454121D01*
X520045Y454203D01*
X519985Y454282D01*
X519921Y454360D01*
X519855Y454434D01*
X519786Y454506D01*
X519714Y454575D01*
X519640Y454641D01*
X519562Y454705D01*
X519483Y454765D01*
X519401Y454822D01*
X519317Y454876D01*
X519231Y454926D01*
X519143Y454973D01*
X519053Y455017D01*
X518962Y455057D01*
X518869Y455093D01*
X518775Y455126D01*
X518679Y455155D01*
X518583Y455180D01*
X518486Y455201D01*
X518387Y455219D01*
X518289Y455232D01*
X518189Y455242D01*
X518090Y455248D01*
X517990Y455250D01*
X500210Y455250D02*
X500110Y455248D01*
X500011Y455242D01*
X499911Y455232D01*
X499813Y455219D01*
X499714Y455201D01*
X499617Y455180D01*
X499521Y455155D01*
X499425Y455126D01*
X499331Y455093D01*
X499238Y455057D01*
X499147Y455017D01*
X499057Y454973D01*
X498969Y454926D01*
X498883Y454876D01*
X498799Y454822D01*
X498717Y454765D01*
X498638Y454705D01*
X498560Y454641D01*
X498486Y454575D01*
X498414Y454506D01*
X498345Y454434D01*
X498279Y454360D01*
X498215Y454282D01*
X498155Y454203D01*
X498098Y454121D01*
X498044Y454037D01*
X497994Y453951D01*
X497947Y453863D01*
X497903Y453773D01*
X497863Y453682D01*
X497827Y453589D01*
X497794Y453495D01*
X497765Y453399D01*
X497740Y453303D01*
X497719Y453206D01*
X497701Y453107D01*
X497688Y453009D01*
X497678Y452909D01*
X497672Y452810D01*
X497670Y452710D01*
X500210Y391750D02*
X517990Y391750D01*
X497670Y394290D02*
X497670Y398100D01*
X498940Y399370D01*
X520530Y398100D02*
X520530Y394290D01*
X520530Y398100D02*
X519260Y399370D01*
X498940Y447630D02*
X497670Y448900D01*
X498940Y447630D02*
X498940Y399370D01*
X519260Y447630D02*
X520530Y448900D01*
X519260Y447630D02*
X519260Y399370D01*
X497670Y448900D02*
X497670Y452710D01*
X520530Y452710D02*
X520530Y448900D01*
X517990Y455250D02*
X500210Y455250D01*
D12*
X493225Y393655D02*
X481785Y393655D01*
X481785Y399375D01*
X483692Y401282D01*
X487505Y401282D01*
X489412Y399375D01*
X489412Y393655D01*
X489412Y397468D02*
X493225Y401282D01*
X493225Y405349D02*
X493225Y412975D01*
X493225Y405349D02*
X485599Y412975D01*
X483692Y412975D01*
X481785Y411069D01*
X481785Y407256D01*
X483692Y405349D01*
X481785Y417043D02*
X481785Y424669D01*
X481785Y417043D02*
X487505Y417043D01*
X485599Y420856D01*
X485599Y422763D01*
X487505Y424669D01*
X491318Y424669D01*
X493225Y422763D01*
X493225Y418950D01*
X491318Y417043D01*
D19*
X509100Y459568D03*
X509100Y387432D03*
D11*
X253590Y237940D02*
X210410Y237940D01*
X210410Y182060D02*
X253590Y182060D01*
X256130Y184600D02*
X256130Y235400D01*
X207870Y235400D02*
X207870Y184600D01*
X256130Y235400D02*
X256128Y235500D01*
X256122Y235599D01*
X256112Y235699D01*
X256099Y235797D01*
X256081Y235896D01*
X256060Y235993D01*
X256035Y236089D01*
X256006Y236185D01*
X255973Y236279D01*
X255937Y236372D01*
X255897Y236463D01*
X255853Y236553D01*
X255806Y236641D01*
X255756Y236727D01*
X255702Y236811D01*
X255645Y236893D01*
X255585Y236972D01*
X255521Y237050D01*
X255455Y237124D01*
X255386Y237196D01*
X255314Y237265D01*
X255240Y237331D01*
X255162Y237395D01*
X255083Y237455D01*
X255001Y237512D01*
X254917Y237566D01*
X254831Y237616D01*
X254743Y237663D01*
X254653Y237707D01*
X254562Y237747D01*
X254469Y237783D01*
X254375Y237816D01*
X254279Y237845D01*
X254183Y237870D01*
X254086Y237891D01*
X253987Y237909D01*
X253889Y237922D01*
X253789Y237932D01*
X253690Y237938D01*
X253590Y237940D01*
X210410Y237940D02*
X210310Y237938D01*
X210211Y237932D01*
X210111Y237922D01*
X210013Y237909D01*
X209914Y237891D01*
X209817Y237870D01*
X209721Y237845D01*
X209625Y237816D01*
X209531Y237783D01*
X209438Y237747D01*
X209347Y237707D01*
X209257Y237663D01*
X209169Y237616D01*
X209083Y237566D01*
X208999Y237512D01*
X208917Y237455D01*
X208838Y237395D01*
X208760Y237331D01*
X208686Y237265D01*
X208614Y237196D01*
X208545Y237124D01*
X208479Y237050D01*
X208415Y236972D01*
X208355Y236893D01*
X208298Y236811D01*
X208244Y236727D01*
X208194Y236641D01*
X208147Y236553D01*
X208103Y236463D01*
X208063Y236372D01*
X208027Y236279D01*
X207994Y236185D01*
X207965Y236089D01*
X207940Y235993D01*
X207919Y235896D01*
X207901Y235797D01*
X207888Y235699D01*
X207878Y235599D01*
X207872Y235500D01*
X207870Y235400D01*
X256130Y184600D02*
X256128Y184500D01*
X256122Y184401D01*
X256112Y184301D01*
X256099Y184203D01*
X256081Y184104D01*
X256060Y184007D01*
X256035Y183911D01*
X256006Y183815D01*
X255973Y183721D01*
X255937Y183628D01*
X255897Y183537D01*
X255853Y183447D01*
X255806Y183359D01*
X255756Y183273D01*
X255702Y183189D01*
X255645Y183107D01*
X255585Y183028D01*
X255521Y182950D01*
X255455Y182876D01*
X255386Y182804D01*
X255314Y182735D01*
X255240Y182669D01*
X255162Y182605D01*
X255083Y182545D01*
X255001Y182488D01*
X254917Y182434D01*
X254831Y182384D01*
X254743Y182337D01*
X254653Y182293D01*
X254562Y182253D01*
X254469Y182217D01*
X254375Y182184D01*
X254279Y182155D01*
X254183Y182130D01*
X254086Y182109D01*
X253987Y182091D01*
X253889Y182078D01*
X253789Y182068D01*
X253690Y182062D01*
X253590Y182060D01*
X210410Y182060D02*
X210310Y182062D01*
X210211Y182068D01*
X210111Y182078D01*
X210013Y182091D01*
X209914Y182109D01*
X209817Y182130D01*
X209721Y182155D01*
X209625Y182184D01*
X209531Y182217D01*
X209438Y182253D01*
X209347Y182293D01*
X209257Y182337D01*
X209169Y182384D01*
X209083Y182434D01*
X208999Y182488D01*
X208917Y182545D01*
X208838Y182605D01*
X208760Y182669D01*
X208686Y182735D01*
X208614Y182804D01*
X208545Y182876D01*
X208479Y182950D01*
X208415Y183028D01*
X208355Y183107D01*
X208298Y183189D01*
X208244Y183273D01*
X208194Y183359D01*
X208147Y183447D01*
X208103Y183537D01*
X208063Y183628D01*
X208027Y183721D01*
X207994Y183815D01*
X207965Y183911D01*
X207940Y184007D01*
X207919Y184104D01*
X207901Y184203D01*
X207888Y184301D01*
X207878Y184401D01*
X207872Y184500D01*
X207870Y184600D01*
X234540Y210000D02*
X235810Y210000D01*
D17*
X234540Y210000D02*
X234540Y217620D01*
X234540Y210000D02*
X234540Y202380D01*
X229460Y210000D02*
X229460Y217620D01*
X229460Y210000D02*
X229460Y202380D01*
D11*
X229460Y210000D02*
X228190Y210000D01*
D12*
X265025Y229695D02*
X266932Y227788D01*
X265025Y229695D02*
X261212Y229695D01*
X259305Y227788D01*
X259305Y220162D01*
X261212Y218255D01*
X265025Y218255D01*
X266932Y220162D01*
X270999Y227788D02*
X272906Y229695D01*
X276719Y229695D01*
X278625Y227788D01*
X278625Y225882D01*
X276719Y223975D01*
X274812Y223975D01*
X276719Y223975D02*
X278625Y222068D01*
X278625Y220162D01*
X276719Y218255D01*
X272906Y218255D01*
X270999Y220162D01*
D17*
X352500Y197750D02*
X479500Y197750D01*
X479500Y178700D01*
X479500Y134250D01*
X352500Y134250D01*
X352500Y178700D01*
X352500Y197750D01*
X352500Y178700D02*
X479500Y178700D01*
D21*
X359109Y204608D02*
X353008Y213760D01*
X359109Y213760D02*
X353008Y204608D01*
X362363Y212235D02*
X363888Y213760D01*
X366939Y213760D01*
X368464Y212235D01*
X368464Y210709D01*
X366939Y209184D01*
X365414Y209184D01*
X366939Y209184D02*
X368464Y207659D01*
X368464Y206133D01*
X366939Y204608D01*
X363888Y204608D01*
X362363Y206133D01*
D17*
X490500Y229750D02*
X617500Y229750D01*
X617500Y210700D01*
X617500Y166250D01*
X490500Y166250D01*
X490500Y210700D01*
X490500Y229750D01*
X490500Y210700D02*
X617500Y210700D01*
D21*
X497109Y236608D02*
X491008Y245760D01*
X497109Y245760D02*
X491008Y236608D01*
X503414Y244235D02*
X506464Y245760D01*
X503414Y244235D02*
X500363Y241184D01*
X500363Y238133D01*
X501888Y236608D01*
X504939Y236608D01*
X506464Y238133D01*
X506464Y239659D01*
X504939Y241184D01*
X500363Y241184D01*
D11*
X299750Y152110D02*
X299748Y152010D01*
X299742Y151911D01*
X299732Y151811D01*
X299719Y151713D01*
X299701Y151614D01*
X299680Y151517D01*
X299655Y151421D01*
X299626Y151325D01*
X299593Y151231D01*
X299557Y151138D01*
X299517Y151047D01*
X299473Y150957D01*
X299426Y150869D01*
X299376Y150783D01*
X299322Y150699D01*
X299265Y150617D01*
X299205Y150538D01*
X299141Y150460D01*
X299075Y150386D01*
X299006Y150314D01*
X298934Y150245D01*
X298860Y150179D01*
X298782Y150115D01*
X298703Y150055D01*
X298621Y149998D01*
X298537Y149944D01*
X298451Y149894D01*
X298363Y149847D01*
X298273Y149803D01*
X298182Y149763D01*
X298089Y149727D01*
X297995Y149694D01*
X297899Y149665D01*
X297803Y149640D01*
X297706Y149619D01*
X297607Y149601D01*
X297509Y149588D01*
X297409Y149578D01*
X297310Y149572D01*
X297210Y149570D01*
X299750Y169890D02*
X299748Y169990D01*
X299742Y170089D01*
X299732Y170189D01*
X299719Y170287D01*
X299701Y170386D01*
X299680Y170483D01*
X299655Y170579D01*
X299626Y170675D01*
X299593Y170769D01*
X299557Y170862D01*
X299517Y170953D01*
X299473Y171043D01*
X299426Y171131D01*
X299376Y171217D01*
X299322Y171301D01*
X299265Y171383D01*
X299205Y171462D01*
X299141Y171540D01*
X299075Y171614D01*
X299006Y171686D01*
X298934Y171755D01*
X298860Y171821D01*
X298782Y171885D01*
X298703Y171945D01*
X298621Y172002D01*
X298537Y172056D01*
X298451Y172106D01*
X298363Y172153D01*
X298273Y172197D01*
X298182Y172237D01*
X298089Y172273D01*
X297995Y172306D01*
X297899Y172335D01*
X297803Y172360D01*
X297706Y172381D01*
X297607Y172399D01*
X297509Y172412D01*
X297409Y172422D01*
X297310Y172428D01*
X297210Y172430D01*
X238790Y172430D02*
X238690Y172428D01*
X238591Y172422D01*
X238491Y172412D01*
X238393Y172399D01*
X238294Y172381D01*
X238197Y172360D01*
X238101Y172335D01*
X238005Y172306D01*
X237911Y172273D01*
X237818Y172237D01*
X237727Y172197D01*
X237637Y172153D01*
X237549Y172106D01*
X237463Y172056D01*
X237379Y172002D01*
X237297Y171945D01*
X237218Y171885D01*
X237140Y171821D01*
X237066Y171755D01*
X236994Y171686D01*
X236925Y171614D01*
X236859Y171540D01*
X236795Y171462D01*
X236735Y171383D01*
X236678Y171301D01*
X236624Y171217D01*
X236574Y171131D01*
X236527Y171043D01*
X236483Y170953D01*
X236443Y170862D01*
X236407Y170769D01*
X236374Y170675D01*
X236345Y170579D01*
X236320Y170483D01*
X236299Y170386D01*
X236281Y170287D01*
X236268Y170189D01*
X236258Y170089D01*
X236252Y169990D01*
X236250Y169890D01*
X236250Y152110D02*
X236252Y152010D01*
X236258Y151911D01*
X236268Y151811D01*
X236281Y151713D01*
X236299Y151614D01*
X236320Y151517D01*
X236345Y151421D01*
X236374Y151325D01*
X236407Y151231D01*
X236443Y151138D01*
X236483Y151047D01*
X236527Y150957D01*
X236574Y150869D01*
X236624Y150783D01*
X236678Y150699D01*
X236735Y150617D01*
X236795Y150538D01*
X236859Y150460D01*
X236925Y150386D01*
X236994Y150314D01*
X237066Y150245D01*
X237140Y150179D01*
X237218Y150115D01*
X237297Y150055D01*
X237379Y149998D01*
X237463Y149944D01*
X237549Y149894D01*
X237637Y149847D01*
X237727Y149803D01*
X237818Y149763D01*
X237911Y149727D01*
X238005Y149694D01*
X238101Y149665D01*
X238197Y149640D01*
X238294Y149619D01*
X238393Y149601D01*
X238491Y149588D01*
X238591Y149578D01*
X238690Y149572D01*
X238790Y149570D01*
X299750Y152110D02*
X299750Y169890D01*
X297210Y149570D02*
X293400Y149570D01*
X292130Y150840D01*
X293400Y172430D02*
X297210Y172430D01*
X293400Y172430D02*
X292130Y171160D01*
X243870Y150840D02*
X242600Y149570D01*
X243870Y150840D02*
X292130Y150840D01*
X243870Y171160D02*
X242600Y172430D01*
X243870Y171160D02*
X292130Y171160D01*
X242600Y149570D02*
X238790Y149570D01*
X238790Y172430D02*
X242600Y172430D01*
X236250Y169890D02*
X236250Y152110D01*
D12*
X275727Y145135D02*
X275727Y133695D01*
X275727Y145135D02*
X281447Y145135D01*
X283354Y143228D01*
X283354Y139415D01*
X281447Y137508D01*
X275727Y137508D01*
X279540Y137508D02*
X283354Y133695D01*
X287421Y133695D02*
X295048Y133695D01*
X287421Y133695D02*
X295048Y141322D01*
X295048Y143228D01*
X293141Y145135D01*
X289328Y145135D01*
X287421Y143228D01*
D20*
X231932Y161000D03*
X304068Y161000D03*
D11*
X299750Y114110D02*
X299748Y114010D01*
X299742Y113911D01*
X299732Y113811D01*
X299719Y113713D01*
X299701Y113614D01*
X299680Y113517D01*
X299655Y113421D01*
X299626Y113325D01*
X299593Y113231D01*
X299557Y113138D01*
X299517Y113047D01*
X299473Y112957D01*
X299426Y112869D01*
X299376Y112783D01*
X299322Y112699D01*
X299265Y112617D01*
X299205Y112538D01*
X299141Y112460D01*
X299075Y112386D01*
X299006Y112314D01*
X298934Y112245D01*
X298860Y112179D01*
X298782Y112115D01*
X298703Y112055D01*
X298621Y111998D01*
X298537Y111944D01*
X298451Y111894D01*
X298363Y111847D01*
X298273Y111803D01*
X298182Y111763D01*
X298089Y111727D01*
X297995Y111694D01*
X297899Y111665D01*
X297803Y111640D01*
X297706Y111619D01*
X297607Y111601D01*
X297509Y111588D01*
X297409Y111578D01*
X297310Y111572D01*
X297210Y111570D01*
X299750Y131890D02*
X299748Y131990D01*
X299742Y132089D01*
X299732Y132189D01*
X299719Y132287D01*
X299701Y132386D01*
X299680Y132483D01*
X299655Y132579D01*
X299626Y132675D01*
X299593Y132769D01*
X299557Y132862D01*
X299517Y132953D01*
X299473Y133043D01*
X299426Y133131D01*
X299376Y133217D01*
X299322Y133301D01*
X299265Y133383D01*
X299205Y133462D01*
X299141Y133540D01*
X299075Y133614D01*
X299006Y133686D01*
X298934Y133755D01*
X298860Y133821D01*
X298782Y133885D01*
X298703Y133945D01*
X298621Y134002D01*
X298537Y134056D01*
X298451Y134106D01*
X298363Y134153D01*
X298273Y134197D01*
X298182Y134237D01*
X298089Y134273D01*
X297995Y134306D01*
X297899Y134335D01*
X297803Y134360D01*
X297706Y134381D01*
X297607Y134399D01*
X297509Y134412D01*
X297409Y134422D01*
X297310Y134428D01*
X297210Y134430D01*
X238790Y134430D02*
X238690Y134428D01*
X238591Y134422D01*
X238491Y134412D01*
X238393Y134399D01*
X238294Y134381D01*
X238197Y134360D01*
X238101Y134335D01*
X238005Y134306D01*
X237911Y134273D01*
X237818Y134237D01*
X237727Y134197D01*
X237637Y134153D01*
X237549Y134106D01*
X237463Y134056D01*
X237379Y134002D01*
X237297Y133945D01*
X237218Y133885D01*
X237140Y133821D01*
X237066Y133755D01*
X236994Y133686D01*
X236925Y133614D01*
X236859Y133540D01*
X236795Y133462D01*
X236735Y133383D01*
X236678Y133301D01*
X236624Y133217D01*
X236574Y133131D01*
X236527Y133043D01*
X236483Y132953D01*
X236443Y132862D01*
X236407Y132769D01*
X236374Y132675D01*
X236345Y132579D01*
X236320Y132483D01*
X236299Y132386D01*
X236281Y132287D01*
X236268Y132189D01*
X236258Y132089D01*
X236252Y131990D01*
X236250Y131890D01*
X236250Y114110D02*
X236252Y114010D01*
X236258Y113911D01*
X236268Y113811D01*
X236281Y113713D01*
X236299Y113614D01*
X236320Y113517D01*
X236345Y113421D01*
X236374Y113325D01*
X236407Y113231D01*
X236443Y113138D01*
X236483Y113047D01*
X236527Y112957D01*
X236574Y112869D01*
X236624Y112783D01*
X236678Y112699D01*
X236735Y112617D01*
X236795Y112538D01*
X236859Y112460D01*
X236925Y112386D01*
X236994Y112314D01*
X237066Y112245D01*
X237140Y112179D01*
X237218Y112115D01*
X237297Y112055D01*
X237379Y111998D01*
X237463Y111944D01*
X237549Y111894D01*
X237637Y111847D01*
X237727Y111803D01*
X237818Y111763D01*
X237911Y111727D01*
X238005Y111694D01*
X238101Y111665D01*
X238197Y111640D01*
X238294Y111619D01*
X238393Y111601D01*
X238491Y111588D01*
X238591Y111578D01*
X238690Y111572D01*
X238790Y111570D01*
X299750Y114110D02*
X299750Y131890D01*
X297210Y111570D02*
X293400Y111570D01*
X292130Y112840D01*
X293400Y134430D02*
X297210Y134430D01*
X293400Y134430D02*
X292130Y133160D01*
X243870Y112840D02*
X242600Y111570D01*
X243870Y112840D02*
X292130Y112840D01*
X243870Y133160D02*
X242600Y134430D01*
X243870Y133160D02*
X292130Y133160D01*
X242600Y111570D02*
X238790Y111570D01*
X238790Y134430D02*
X242600Y134430D01*
X236250Y131890D02*
X236250Y114110D01*
D12*
X275727Y107135D02*
X275727Y95695D01*
X275727Y107135D02*
X281447Y107135D01*
X283354Y105228D01*
X283354Y101415D01*
X281447Y99508D01*
X275727Y99508D01*
X279540Y99508D02*
X283354Y95695D01*
X287421Y107135D02*
X295048Y107135D01*
X287421Y107135D02*
X287421Y101415D01*
X291234Y103322D01*
X293141Y103322D01*
X295048Y101415D01*
X295048Y97602D01*
X293141Y95695D01*
X289328Y95695D01*
X287421Y97602D01*
D20*
X231932Y123000D03*
X304068Y123000D03*
D11*
X237790Y95430D02*
X237690Y95428D01*
X237591Y95422D01*
X237491Y95412D01*
X237393Y95399D01*
X237294Y95381D01*
X237197Y95360D01*
X237101Y95335D01*
X237005Y95306D01*
X236911Y95273D01*
X236818Y95237D01*
X236727Y95197D01*
X236637Y95153D01*
X236549Y95106D01*
X236463Y95056D01*
X236379Y95002D01*
X236297Y94945D01*
X236218Y94885D01*
X236140Y94821D01*
X236066Y94755D01*
X235994Y94686D01*
X235925Y94614D01*
X235859Y94540D01*
X235795Y94462D01*
X235735Y94383D01*
X235678Y94301D01*
X235624Y94217D01*
X235574Y94131D01*
X235527Y94043D01*
X235483Y93953D01*
X235443Y93862D01*
X235407Y93769D01*
X235374Y93675D01*
X235345Y93579D01*
X235320Y93483D01*
X235299Y93386D01*
X235281Y93287D01*
X235268Y93189D01*
X235258Y93089D01*
X235252Y92990D01*
X235250Y92890D01*
X235250Y75110D02*
X235252Y75010D01*
X235258Y74911D01*
X235268Y74811D01*
X235281Y74713D01*
X235299Y74614D01*
X235320Y74517D01*
X235345Y74421D01*
X235374Y74325D01*
X235407Y74231D01*
X235443Y74138D01*
X235483Y74047D01*
X235527Y73957D01*
X235574Y73869D01*
X235624Y73783D01*
X235678Y73699D01*
X235735Y73617D01*
X235795Y73538D01*
X235859Y73460D01*
X235925Y73386D01*
X235994Y73314D01*
X236066Y73245D01*
X236140Y73179D01*
X236218Y73115D01*
X236297Y73055D01*
X236379Y72998D01*
X236463Y72944D01*
X236549Y72894D01*
X236637Y72847D01*
X236727Y72803D01*
X236818Y72763D01*
X236911Y72727D01*
X237005Y72694D01*
X237101Y72665D01*
X237197Y72640D01*
X237294Y72619D01*
X237393Y72601D01*
X237491Y72588D01*
X237591Y72578D01*
X237690Y72572D01*
X237790Y72570D01*
X296210Y72570D02*
X296310Y72572D01*
X296409Y72578D01*
X296509Y72588D01*
X296607Y72601D01*
X296706Y72619D01*
X296803Y72640D01*
X296899Y72665D01*
X296995Y72694D01*
X297089Y72727D01*
X297182Y72763D01*
X297273Y72803D01*
X297363Y72847D01*
X297451Y72894D01*
X297537Y72944D01*
X297621Y72998D01*
X297703Y73055D01*
X297782Y73115D01*
X297860Y73179D01*
X297934Y73245D01*
X298006Y73314D01*
X298075Y73386D01*
X298141Y73460D01*
X298205Y73538D01*
X298265Y73617D01*
X298322Y73699D01*
X298376Y73783D01*
X298426Y73869D01*
X298473Y73957D01*
X298517Y74047D01*
X298557Y74138D01*
X298593Y74231D01*
X298626Y74325D01*
X298655Y74421D01*
X298680Y74517D01*
X298701Y74614D01*
X298719Y74713D01*
X298732Y74811D01*
X298742Y74911D01*
X298748Y75010D01*
X298750Y75110D01*
X298750Y92890D02*
X298748Y92990D01*
X298742Y93089D01*
X298732Y93189D01*
X298719Y93287D01*
X298701Y93386D01*
X298680Y93483D01*
X298655Y93579D01*
X298626Y93675D01*
X298593Y93769D01*
X298557Y93862D01*
X298517Y93953D01*
X298473Y94043D01*
X298426Y94131D01*
X298376Y94217D01*
X298322Y94301D01*
X298265Y94383D01*
X298205Y94462D01*
X298141Y94540D01*
X298075Y94614D01*
X298006Y94686D01*
X297934Y94755D01*
X297860Y94821D01*
X297782Y94885D01*
X297703Y94945D01*
X297621Y95002D01*
X297537Y95056D01*
X297451Y95106D01*
X297363Y95153D01*
X297273Y95197D01*
X297182Y95237D01*
X297089Y95273D01*
X296995Y95306D01*
X296899Y95335D01*
X296803Y95360D01*
X296706Y95381D01*
X296607Y95399D01*
X296509Y95412D01*
X296409Y95422D01*
X296310Y95428D01*
X296210Y95430D01*
X235250Y92890D02*
X235250Y75110D01*
X237790Y95430D02*
X241600Y95430D01*
X242870Y94160D01*
X241600Y72570D02*
X237790Y72570D01*
X241600Y72570D02*
X242870Y73840D01*
X291130Y94160D02*
X292400Y95430D01*
X291130Y94160D02*
X242870Y94160D01*
X291130Y73840D02*
X292400Y72570D01*
X291130Y73840D02*
X242870Y73840D01*
X292400Y95430D02*
X296210Y95430D01*
X296210Y72570D02*
X292400Y72570D01*
X298750Y75110D02*
X298750Y92890D01*
D12*
X237155Y99875D02*
X237155Y111315D01*
X242875Y111315D01*
X244782Y109408D01*
X244782Y105595D01*
X242875Y103688D01*
X237155Y103688D01*
X240968Y103688D02*
X244782Y99875D01*
X248849Y109408D02*
X250756Y111315D01*
X254569Y111315D01*
X256475Y109408D01*
X256475Y107502D01*
X254569Y105595D01*
X256475Y103688D01*
X256475Y101782D01*
X254569Y99875D01*
X250756Y99875D01*
X248849Y101782D01*
X248849Y103688D01*
X250756Y105595D01*
X248849Y107502D01*
X248849Y109408D01*
X250756Y105595D02*
X254569Y105595D01*
D20*
X303068Y84000D03*
X230932Y84000D03*
D11*
X93790Y94430D02*
X93690Y94428D01*
X93591Y94422D01*
X93491Y94412D01*
X93393Y94399D01*
X93294Y94381D01*
X93197Y94360D01*
X93101Y94335D01*
X93005Y94306D01*
X92911Y94273D01*
X92818Y94237D01*
X92727Y94197D01*
X92637Y94153D01*
X92549Y94106D01*
X92463Y94056D01*
X92379Y94002D01*
X92297Y93945D01*
X92218Y93885D01*
X92140Y93821D01*
X92066Y93755D01*
X91994Y93686D01*
X91925Y93614D01*
X91859Y93540D01*
X91795Y93462D01*
X91735Y93383D01*
X91678Y93301D01*
X91624Y93217D01*
X91574Y93131D01*
X91527Y93043D01*
X91483Y92953D01*
X91443Y92862D01*
X91407Y92769D01*
X91374Y92675D01*
X91345Y92579D01*
X91320Y92483D01*
X91299Y92386D01*
X91281Y92287D01*
X91268Y92189D01*
X91258Y92089D01*
X91252Y91990D01*
X91250Y91890D01*
X91250Y74110D02*
X91252Y74010D01*
X91258Y73911D01*
X91268Y73811D01*
X91281Y73713D01*
X91299Y73614D01*
X91320Y73517D01*
X91345Y73421D01*
X91374Y73325D01*
X91407Y73231D01*
X91443Y73138D01*
X91483Y73047D01*
X91527Y72957D01*
X91574Y72869D01*
X91624Y72783D01*
X91678Y72699D01*
X91735Y72617D01*
X91795Y72538D01*
X91859Y72460D01*
X91925Y72386D01*
X91994Y72314D01*
X92066Y72245D01*
X92140Y72179D01*
X92218Y72115D01*
X92297Y72055D01*
X92379Y71998D01*
X92463Y71944D01*
X92549Y71894D01*
X92637Y71847D01*
X92727Y71803D01*
X92818Y71763D01*
X92911Y71727D01*
X93005Y71694D01*
X93101Y71665D01*
X93197Y71640D01*
X93294Y71619D01*
X93393Y71601D01*
X93491Y71588D01*
X93591Y71578D01*
X93690Y71572D01*
X93790Y71570D01*
X152210Y71570D02*
X152310Y71572D01*
X152409Y71578D01*
X152509Y71588D01*
X152607Y71601D01*
X152706Y71619D01*
X152803Y71640D01*
X152899Y71665D01*
X152995Y71694D01*
X153089Y71727D01*
X153182Y71763D01*
X153273Y71803D01*
X153363Y71847D01*
X153451Y71894D01*
X153537Y71944D01*
X153621Y71998D01*
X153703Y72055D01*
X153782Y72115D01*
X153860Y72179D01*
X153934Y72245D01*
X154006Y72314D01*
X154075Y72386D01*
X154141Y72460D01*
X154205Y72538D01*
X154265Y72617D01*
X154322Y72699D01*
X154376Y72783D01*
X154426Y72869D01*
X154473Y72957D01*
X154517Y73047D01*
X154557Y73138D01*
X154593Y73231D01*
X154626Y73325D01*
X154655Y73421D01*
X154680Y73517D01*
X154701Y73614D01*
X154719Y73713D01*
X154732Y73811D01*
X154742Y73911D01*
X154748Y74010D01*
X154750Y74110D01*
X154750Y91890D02*
X154748Y91990D01*
X154742Y92089D01*
X154732Y92189D01*
X154719Y92287D01*
X154701Y92386D01*
X154680Y92483D01*
X154655Y92579D01*
X154626Y92675D01*
X154593Y92769D01*
X154557Y92862D01*
X154517Y92953D01*
X154473Y93043D01*
X154426Y93131D01*
X154376Y93217D01*
X154322Y93301D01*
X154265Y93383D01*
X154205Y93462D01*
X154141Y93540D01*
X154075Y93614D01*
X154006Y93686D01*
X153934Y93755D01*
X153860Y93821D01*
X153782Y93885D01*
X153703Y93945D01*
X153621Y94002D01*
X153537Y94056D01*
X153451Y94106D01*
X153363Y94153D01*
X153273Y94197D01*
X153182Y94237D01*
X153089Y94273D01*
X152995Y94306D01*
X152899Y94335D01*
X152803Y94360D01*
X152706Y94381D01*
X152607Y94399D01*
X152509Y94412D01*
X152409Y94422D01*
X152310Y94428D01*
X152210Y94430D01*
X91250Y91890D02*
X91250Y74110D01*
X93790Y94430D02*
X97600Y94430D01*
X98870Y93160D01*
X97600Y71570D02*
X93790Y71570D01*
X97600Y71570D02*
X98870Y72840D01*
X147130Y93160D02*
X148400Y94430D01*
X147130Y93160D02*
X98870Y93160D01*
X147130Y72840D02*
X148400Y71570D01*
X147130Y72840D02*
X98870Y72840D01*
X148400Y94430D02*
X152210Y94430D01*
X152210Y71570D02*
X148400Y71570D01*
X154750Y74110D02*
X154750Y91890D01*
D12*
X93155Y98875D02*
X93155Y110315D01*
X98875Y110315D01*
X100782Y108408D01*
X100782Y104595D01*
X98875Y102688D01*
X93155Y102688D01*
X96968Y102688D02*
X100782Y98875D01*
X104849Y100782D02*
X106756Y98875D01*
X110569Y98875D01*
X112475Y100782D01*
X112475Y108408D01*
X110569Y110315D01*
X106756Y110315D01*
X104849Y108408D01*
X104849Y106502D01*
X106756Y104595D01*
X112475Y104595D01*
D20*
X159068Y83000D03*
X86932Y83000D03*
D27*
X3900Y-6600D02*
X881500Y-3600D01*
X883500Y1006900D01*
X3900Y1006900D01*
X3900Y-6600D01*
M02*
