M48
;GenerationSoftware,Autodesk,EAGLE,9.0.1*%
;CreationDate,2018-09-19T16:07:54Z*%
FMAT,2
ICI,OFF
METRIC,TZ,000.000
T10C0.813
T9C1.000
T8C1.118
T7C1.200
T6C1.270
T5C1.321
T4C1.500
T3C2.000
T2C2.800
T1C3.302
%
G90
M71
T1
X74750Y74096
T2
X80680Y7200
X9980Y95940
X11580Y4100
X37880Y41200
X59080Y91100
T3
X54187Y79560
X40197Y82210
X54187Y68150
X42537Y65970
T4
X42387Y76860
X42437Y72620
T5
X19251Y68127
X31189Y80319
X19251Y80319
X25220Y66095
X31189Y68127
T6
X31780Y8400
X21620Y8400
X21720Y12300
X31880Y12300
X21720Y16100
X31880Y16100
X50910Y47430
X82920Y73110
X82920Y62950
X16330Y59110
X26490Y59110
X78560Y88320
X68400Y88320
X41730Y57840
X41730Y47680
X50910Y37270
X15470Y33380
X15470Y23220
X78920Y29260
X68760Y29260
X79140Y25190
X68980Y25190
X68880Y20960
X79040Y20960
X30300Y50220
X79140Y17030
X17380Y8300
X46290Y56470
X68980Y17030
X65000Y42830
X65000Y32670
X78560Y83240
X68400Y83240
X30300Y60380
X7220Y8300
X46290Y46310
T7
X8710Y43790
X8710Y38790
X8710Y33790
X8710Y14740
X8710Y19740
X8710Y24740
T8
X72210Y56570
X74750Y56570
X77290Y56570
T9
X30300Y92130
X74750Y94670
X72210Y94670
X27760Y92130
X25220Y92130
X22680Y92130
X22480Y46000
X27560Y46000
X25020Y46000
X19940Y46000
X17400Y46000
X39060Y16600
X41600Y16600
X44140Y16600
X46680Y16600
X50320Y19800
X52860Y19800
X55400Y19800
X57940Y19800
X60480Y19800
X36520Y16600
T10
X43000Y33710
X40460Y33710
X37920Y33710
X35380Y33710
X32840Y33710
X30300Y33710
X27760Y33710
X25220Y33710
X35380Y26090
X32840Y26090
X30300Y26090
X27760Y26090
X25220Y26090
X64590Y55300
X62050Y55300
X64590Y47680
X40460Y26090
X43000Y26090
X62050Y47680
X45540Y26090
X48080Y26090
X56970Y55300
X59510Y55300
X59510Y47680
X56970Y47680
X76020Y46090
X73480Y46090
X63320Y69270
X63320Y64190
X55070Y40690
X57610Y40690
X82050Y56160
X35380Y52760
X21930Y21000
X24470Y21000
X37920Y26090
X50620Y26090
X53160Y26090
X55700Y26090
X58240Y26090
X58240Y33710
X55700Y33710
X53160Y33710
X50620Y33710
X48080Y33710
X35380Y55300
X35380Y50220
X16330Y92130
X13790Y92130
X82050Y58700
X79830Y93400
X79830Y95940
X45540Y33710
M30