G75*
%MOMM*%
%FSLAX34Y34*%
%LPD*%
%AMOC8*
5,1,8,0,0,1.08239X$1,22.5*%
G01*
%ADD10C,0.406400*%
%ADD11C,2.540000*%
%ADD12C,1.981200*%
%ADD13P,1.924489X8X292.500000*%
%ADD14P,1.924489X8X112.500000*%
%ADD15P,1.924489X8X22.500000*%
%ADD16C,1.320800*%
%ADD17P,2.749271X8X292.500000*%
%ADD18P,2.749271X8X22.500000*%
%ADD19P,2.749271X8X202.500000*%
%ADD20C,1.508000*%
%ADD21C,1.676400*%
%ADD22P,1.732040X8X112.500000*%
%ADD23P,1.732040X8X22.500000*%
%ADD24P,3.788365X8X22.500000*%
%ADD25P,2.705975X8X22.500000*%
%ADD26P,2.749271X8X112.500000*%
%ADD27C,2.184400*%
%ADD28C,1.016000*%
%ADD29C,1.800000*%
%ADD30C,0.609600*%
%ADD31C,0.254000*%

G36*
X861734Y14113D02*
X861734Y14113D01*
X861746Y14115D01*
X861759Y14113D01*
X861945Y14135D01*
X862135Y14155D01*
X862146Y14158D01*
X862159Y14160D01*
X862338Y14218D01*
X862519Y14274D01*
X862530Y14280D01*
X862542Y14284D01*
X862707Y14376D01*
X862872Y14467D01*
X862882Y14475D01*
X862893Y14481D01*
X863037Y14605D01*
X863181Y14726D01*
X863188Y14735D01*
X863198Y14743D01*
X863315Y14894D01*
X863432Y15040D01*
X863438Y15051D01*
X863445Y15061D01*
X863530Y15231D01*
X863616Y15398D01*
X863620Y15410D01*
X863625Y15421D01*
X863675Y15605D01*
X863726Y15786D01*
X863727Y15798D01*
X863731Y15810D01*
X863758Y16140D01*
X865680Y987084D01*
X865678Y987104D01*
X865680Y987124D01*
X865659Y987304D01*
X865641Y987485D01*
X865635Y987504D01*
X865633Y987523D01*
X865576Y987697D01*
X865524Y987870D01*
X865514Y987887D01*
X865508Y987906D01*
X865418Y988065D01*
X865333Y988224D01*
X865320Y988239D01*
X865310Y988257D01*
X865191Y988394D01*
X865075Y988534D01*
X865060Y988547D01*
X865047Y988562D01*
X864904Y988673D01*
X864762Y988787D01*
X864744Y988796D01*
X864729Y988808D01*
X864567Y988889D01*
X864405Y988973D01*
X864386Y988979D01*
X864368Y988988D01*
X864192Y989035D01*
X864018Y989085D01*
X863999Y989087D01*
X863980Y989092D01*
X863649Y989119D01*
X811203Y989119D01*
X811194Y989118D01*
X811185Y989119D01*
X810993Y989098D01*
X810802Y989079D01*
X810793Y989077D01*
X810785Y989076D01*
X810602Y989018D01*
X810417Y988961D01*
X810409Y988957D01*
X810401Y988954D01*
X810232Y988861D01*
X810063Y988769D01*
X810056Y988764D01*
X810048Y988759D01*
X809901Y988635D01*
X809754Y988512D01*
X809748Y988505D01*
X809741Y988499D01*
X809622Y988348D01*
X809502Y988198D01*
X809497Y988190D01*
X809492Y988183D01*
X809404Y988010D01*
X809316Y987841D01*
X809314Y987832D01*
X809309Y987824D01*
X809258Y987638D01*
X809205Y987454D01*
X809204Y987445D01*
X809201Y987436D01*
X809187Y987243D01*
X809172Y987052D01*
X809173Y987044D01*
X809172Y987035D01*
X809196Y986842D01*
X809219Y986653D01*
X809221Y986644D01*
X809223Y986635D01*
X809284Y986452D01*
X809343Y986270D01*
X809348Y986262D01*
X809351Y986254D01*
X809446Y986088D01*
X809541Y985919D01*
X809547Y985912D01*
X809552Y985905D01*
X809766Y985652D01*
X812562Y982856D01*
X812583Y982839D01*
X812601Y982818D01*
X812738Y982712D01*
X812874Y982601D01*
X812898Y982588D01*
X812919Y982572D01*
X813075Y982494D01*
X813230Y982412D01*
X813255Y982404D01*
X813279Y982392D01*
X813448Y982347D01*
X813616Y982297D01*
X813642Y982295D01*
X813668Y982288D01*
X813999Y982261D01*
X815547Y982261D01*
X823950Y978780D01*
X843080Y959650D01*
X846561Y951247D01*
X846561Y891353D01*
X843080Y882950D01*
X834456Y874326D01*
X834439Y874305D01*
X834418Y874288D01*
X834311Y874150D01*
X834201Y874014D01*
X834188Y873991D01*
X834172Y873969D01*
X834094Y873812D01*
X834012Y873658D01*
X834004Y873633D01*
X833992Y873609D01*
X833947Y873439D01*
X833897Y873273D01*
X833895Y873246D01*
X833888Y873220D01*
X833861Y872889D01*
X833861Y802453D01*
X830380Y794050D01*
X811250Y774920D01*
X804733Y772221D01*
X804733Y772220D01*
X802847Y771439D01*
X782991Y771439D01*
X782982Y771438D01*
X782974Y771439D01*
X782783Y771419D01*
X782591Y771399D01*
X782582Y771397D01*
X782573Y771396D01*
X782390Y771338D01*
X782206Y771281D01*
X782198Y771277D01*
X782189Y771274D01*
X782021Y771181D01*
X781852Y771089D01*
X781845Y771084D01*
X781837Y771079D01*
X781690Y770954D01*
X781543Y770832D01*
X781537Y770825D01*
X781530Y770819D01*
X781410Y770667D01*
X781290Y770518D01*
X781286Y770510D01*
X781281Y770503D01*
X781193Y770330D01*
X781105Y770161D01*
X781102Y770152D01*
X781098Y770144D01*
X781047Y769959D01*
X780993Y769774D01*
X780993Y769765D01*
X780990Y769756D01*
X780976Y769564D01*
X780960Y769372D01*
X780961Y769364D01*
X780961Y769355D01*
X780985Y769163D01*
X781007Y768973D01*
X781010Y768964D01*
X781011Y768955D01*
X781072Y768773D01*
X781132Y768590D01*
X781137Y768582D01*
X781139Y768574D01*
X781236Y768406D01*
X781330Y768239D01*
X781336Y768232D01*
X781340Y768225D01*
X781555Y767972D01*
X782053Y767474D01*
X787738Y757627D01*
X790681Y746645D01*
X790681Y735275D01*
X787738Y724293D01*
X782053Y714446D01*
X774014Y706407D01*
X764167Y700722D01*
X753185Y697779D01*
X741815Y697779D01*
X730833Y700722D01*
X722608Y705471D01*
X722474Y705531D01*
X722345Y705598D01*
X722291Y705614D01*
X722241Y705637D01*
X722098Y705669D01*
X721958Y705710D01*
X721902Y705714D01*
X721848Y705727D01*
X721702Y705731D01*
X721556Y705743D01*
X721501Y705736D01*
X721446Y705738D01*
X721301Y705713D01*
X721157Y705696D01*
X721104Y705679D01*
X721049Y705669D01*
X720913Y705616D01*
X720774Y705571D01*
X720725Y705544D01*
X720674Y705524D01*
X720550Y705445D01*
X720423Y705373D01*
X720381Y705337D01*
X720334Y705307D01*
X720229Y705205D01*
X720118Y705110D01*
X720084Y705066D01*
X720044Y705027D01*
X719961Y704907D01*
X719872Y704792D01*
X719847Y704742D01*
X719815Y704696D01*
X719757Y704562D01*
X719692Y704431D01*
X719678Y704378D01*
X719656Y704327D01*
X719626Y704184D01*
X719588Y704042D01*
X719583Y703979D01*
X719573Y703933D01*
X719572Y703849D01*
X719561Y703712D01*
X719561Y700853D01*
X716746Y694057D01*
X716740Y694036D01*
X716729Y694016D01*
X716681Y693843D01*
X716630Y693672D01*
X716627Y693650D01*
X716621Y693628D01*
X716608Y693449D01*
X716591Y693271D01*
X716594Y693249D01*
X716592Y693227D01*
X716615Y693048D01*
X716633Y692871D01*
X716640Y692849D01*
X716642Y692827D01*
X716700Y692657D01*
X716753Y692486D01*
X716764Y692467D01*
X716771Y692446D01*
X716860Y692290D01*
X716946Y692133D01*
X716960Y692116D01*
X716972Y692097D01*
X717186Y691844D01*
X741480Y667550D01*
X744961Y659147D01*
X744961Y587356D01*
X744977Y587193D01*
X744987Y587029D01*
X744997Y586993D01*
X745001Y586955D01*
X745049Y586798D01*
X745091Y586640D01*
X745109Y586602D01*
X745119Y586570D01*
X745160Y586493D01*
X745233Y586340D01*
X745741Y585460D01*
X745826Y585341D01*
X745905Y585218D01*
X745943Y585178D01*
X745976Y585133D01*
X746083Y585034D01*
X746184Y584928D01*
X746230Y584897D01*
X746270Y584859D01*
X746395Y584782D01*
X746515Y584699D01*
X746566Y584677D01*
X746614Y584648D01*
X746751Y584598D01*
X746885Y584540D01*
X746939Y584528D01*
X746991Y584509D01*
X747136Y584487D01*
X747279Y584457D01*
X747334Y584456D01*
X747389Y584448D01*
X747535Y584454D01*
X747682Y584453D01*
X747736Y584463D01*
X747791Y584466D01*
X747933Y584501D01*
X748077Y584528D01*
X748128Y584549D01*
X748182Y584563D01*
X748314Y584625D01*
X748450Y584680D01*
X748496Y584711D01*
X748546Y584735D01*
X748664Y584822D01*
X748785Y584903D01*
X748824Y584942D01*
X748869Y584975D01*
X748967Y585084D01*
X749070Y585187D01*
X749106Y585239D01*
X749138Y585275D01*
X749181Y585347D01*
X749259Y585460D01*
X751965Y590146D01*
X756836Y595017D01*
X762802Y598462D01*
X769456Y600245D01*
X776344Y600245D01*
X782998Y598462D01*
X788964Y595017D01*
X790362Y593620D01*
X790369Y593614D01*
X790374Y593607D01*
X790525Y593486D01*
X790673Y593365D01*
X790681Y593361D01*
X790688Y593355D01*
X790858Y593267D01*
X791029Y593176D01*
X791038Y593174D01*
X791045Y593170D01*
X791230Y593117D01*
X791415Y593061D01*
X791424Y593061D01*
X791432Y593058D01*
X791623Y593043D01*
X791816Y593025D01*
X791825Y593026D01*
X791834Y593025D01*
X792023Y593048D01*
X792216Y593068D01*
X792225Y593071D01*
X792233Y593072D01*
X792415Y593132D01*
X792600Y593190D01*
X792608Y593194D01*
X792616Y593197D01*
X792783Y593291D01*
X792952Y593385D01*
X792959Y593391D01*
X792967Y593395D01*
X793112Y593520D01*
X793259Y593645D01*
X793265Y593652D01*
X793272Y593658D01*
X793388Y593809D01*
X793509Y593961D01*
X793513Y593969D01*
X793518Y593976D01*
X793603Y594147D01*
X793691Y594320D01*
X793694Y594329D01*
X793698Y594337D01*
X793747Y594522D01*
X793799Y594708D01*
X793800Y594717D01*
X793802Y594726D01*
X793829Y595056D01*
X793829Y598047D01*
X797044Y601262D01*
X797061Y601283D01*
X797082Y601301D01*
X797189Y601439D01*
X797299Y601574D01*
X797312Y601598D01*
X797328Y601619D01*
X797406Y601776D01*
X797488Y601930D01*
X797496Y601955D01*
X797508Y601979D01*
X797553Y602149D01*
X797603Y602316D01*
X797605Y602342D01*
X797612Y602368D01*
X797639Y602699D01*
X797639Y625347D01*
X798565Y627581D01*
X798574Y627611D01*
X798588Y627639D01*
X798632Y627804D01*
X798681Y627967D01*
X798684Y627998D01*
X798692Y628028D01*
X798719Y628359D01*
X798719Y642126D01*
X816574Y659981D01*
X841826Y659981D01*
X859681Y642126D01*
X859681Y616874D01*
X845448Y602642D01*
X845437Y602628D01*
X845424Y602617D01*
X845310Y602473D01*
X845193Y602331D01*
X845185Y602315D01*
X845174Y602301D01*
X845091Y602137D01*
X845005Y601975D01*
X845000Y601958D01*
X844992Y601942D01*
X844942Y601765D01*
X844890Y601589D01*
X844888Y601571D01*
X844884Y601554D01*
X844870Y601371D01*
X844854Y601188D01*
X844856Y601170D01*
X844854Y601153D01*
X844877Y600970D01*
X844897Y600788D01*
X844902Y600771D01*
X844905Y600753D01*
X844963Y600579D01*
X845018Y600404D01*
X845027Y600388D01*
X845033Y600371D01*
X845124Y600213D01*
X845213Y600052D01*
X845225Y600038D01*
X845234Y600023D01*
X845448Y599770D01*
X847171Y598047D01*
X847171Y575953D01*
X846954Y575736D01*
X846943Y575722D01*
X846929Y575711D01*
X846815Y575567D01*
X846699Y575425D01*
X846691Y575409D01*
X846680Y575395D01*
X846596Y575231D01*
X846511Y575069D01*
X846506Y575052D01*
X846498Y575036D01*
X846448Y574859D01*
X846396Y574683D01*
X846394Y574665D01*
X846390Y574648D01*
X846376Y574465D01*
X846360Y574282D01*
X846361Y574264D01*
X846360Y574247D01*
X846383Y574065D01*
X846403Y573882D01*
X846408Y573865D01*
X846411Y573847D01*
X846469Y573674D01*
X846524Y573498D01*
X846533Y573482D01*
X846539Y573466D01*
X846631Y573306D01*
X846719Y573146D01*
X846731Y573132D01*
X846740Y573117D01*
X846954Y572864D01*
X847171Y572647D01*
X847171Y550553D01*
X831547Y534929D01*
X809453Y534929D01*
X802138Y542244D01*
X802117Y542261D01*
X802099Y542282D01*
X801961Y542389D01*
X801826Y542499D01*
X801802Y542512D01*
X801781Y542528D01*
X801624Y542606D01*
X801470Y542688D01*
X801445Y542696D01*
X801421Y542708D01*
X801251Y542753D01*
X801084Y542803D01*
X801058Y542805D01*
X801032Y542812D01*
X800701Y542839D01*
X797792Y542839D01*
X797774Y542837D01*
X797756Y542839D01*
X797574Y542818D01*
X797391Y542799D01*
X797374Y542794D01*
X797357Y542792D01*
X797182Y542735D01*
X797006Y542681D01*
X796991Y542673D01*
X796974Y542667D01*
X796813Y542577D01*
X796652Y542489D01*
X796639Y542478D01*
X796623Y542469D01*
X796484Y542349D01*
X796343Y542232D01*
X796332Y542218D01*
X796318Y542206D01*
X796206Y542061D01*
X796091Y541918D01*
X796083Y541902D01*
X796072Y541888D01*
X795990Y541723D01*
X795905Y541561D01*
X795900Y541544D01*
X795892Y541528D01*
X795845Y541349D01*
X795794Y541174D01*
X795792Y541156D01*
X795788Y541139D01*
X795761Y540808D01*
X795761Y469053D01*
X793115Y462666D01*
X793106Y462636D01*
X793092Y462608D01*
X793048Y462444D01*
X792999Y462281D01*
X792996Y462250D01*
X792988Y462220D01*
X792961Y461889D01*
X792961Y461311D01*
X792963Y461284D01*
X792961Y461257D01*
X792983Y461083D01*
X793001Y460910D01*
X793008Y460884D01*
X793012Y460858D01*
X793068Y460692D01*
X793119Y460525D01*
X793132Y460501D01*
X793140Y460476D01*
X793227Y460324D01*
X793311Y460171D01*
X793328Y460151D01*
X793341Y460127D01*
X793556Y459874D01*
X801864Y451566D01*
X808580Y444850D01*
X812061Y436447D01*
X812061Y313687D01*
X812063Y313660D01*
X812061Y313634D01*
X812083Y313460D01*
X812101Y313286D01*
X812108Y313261D01*
X812112Y313234D01*
X812167Y313068D01*
X812219Y312901D01*
X812232Y312878D01*
X812240Y312852D01*
X812327Y312701D01*
X812411Y312547D01*
X812428Y312527D01*
X812441Y312504D01*
X812656Y312251D01*
X819681Y305226D01*
X819681Y279974D01*
X814493Y274786D01*
X814481Y274772D01*
X814468Y274761D01*
X814354Y274617D01*
X814237Y274475D01*
X814229Y274459D01*
X814218Y274445D01*
X814134Y274281D01*
X814049Y274119D01*
X814044Y274102D01*
X814036Y274086D01*
X813986Y273909D01*
X813934Y273733D01*
X813932Y273715D01*
X813928Y273698D01*
X813914Y273515D01*
X813898Y273332D01*
X813900Y273314D01*
X813898Y273297D01*
X813921Y273115D01*
X813941Y272932D01*
X813946Y272915D01*
X813949Y272897D01*
X814007Y272723D01*
X814063Y272548D01*
X814071Y272532D01*
X814077Y272516D01*
X814169Y272356D01*
X814257Y272196D01*
X814269Y272182D01*
X814278Y272167D01*
X814493Y271914D01*
X821881Y264526D01*
X821881Y239274D01*
X814293Y231686D01*
X814281Y231672D01*
X814268Y231661D01*
X814154Y231517D01*
X814037Y231375D01*
X814029Y231359D01*
X814018Y231345D01*
X813934Y231181D01*
X813849Y231019D01*
X813844Y231002D01*
X813836Y230986D01*
X813786Y230809D01*
X813734Y230633D01*
X813732Y230615D01*
X813728Y230598D01*
X813714Y230415D01*
X813698Y230232D01*
X813700Y230214D01*
X813698Y230197D01*
X813721Y230015D01*
X813741Y229832D01*
X813746Y229815D01*
X813749Y229797D01*
X813807Y229623D01*
X813863Y229448D01*
X813871Y229432D01*
X813877Y229416D01*
X813969Y229256D01*
X814057Y229096D01*
X814069Y229082D01*
X814078Y229067D01*
X814293Y228814D01*
X820881Y222226D01*
X820881Y196974D01*
X815793Y191886D01*
X815781Y191872D01*
X815768Y191861D01*
X815654Y191717D01*
X815537Y191575D01*
X815529Y191559D01*
X815518Y191545D01*
X815434Y191381D01*
X815349Y191219D01*
X815344Y191202D01*
X815336Y191186D01*
X815286Y191009D01*
X815234Y190833D01*
X815232Y190815D01*
X815228Y190798D01*
X815214Y190615D01*
X815198Y190432D01*
X815200Y190414D01*
X815198Y190397D01*
X815221Y190215D01*
X815241Y190032D01*
X815246Y190015D01*
X815249Y189997D01*
X815307Y189823D01*
X815363Y189648D01*
X815371Y189632D01*
X815377Y189616D01*
X815469Y189456D01*
X815557Y189296D01*
X815569Y189282D01*
X815578Y189267D01*
X815793Y189014D01*
X821881Y182926D01*
X821881Y157674D01*
X804026Y139819D01*
X794091Y139819D01*
X794064Y139817D01*
X794037Y139819D01*
X793863Y139797D01*
X793690Y139779D01*
X793664Y139772D01*
X793638Y139768D01*
X793472Y139713D01*
X793305Y139661D01*
X793281Y139648D01*
X793256Y139640D01*
X793104Y139553D01*
X792951Y139469D01*
X792931Y139452D01*
X792907Y139439D01*
X792654Y139224D01*
X705766Y52336D01*
X699050Y45620D01*
X692730Y43002D01*
X692729Y43002D01*
X690647Y42139D01*
X471311Y42139D01*
X471284Y42137D01*
X471257Y42139D01*
X471083Y42117D01*
X470910Y42099D01*
X470884Y42092D01*
X470858Y42088D01*
X470692Y42033D01*
X470525Y41981D01*
X470501Y41968D01*
X470476Y41960D01*
X470325Y41873D01*
X470171Y41789D01*
X470151Y41772D01*
X470127Y41759D01*
X469874Y41544D01*
X444950Y16620D01*
X444900Y16599D01*
X444892Y16595D01*
X444885Y16593D01*
X444717Y16501D01*
X444545Y16409D01*
X444539Y16404D01*
X444532Y16400D01*
X444384Y16276D01*
X444234Y16152D01*
X444229Y16146D01*
X444223Y16141D01*
X444103Y15991D01*
X443981Y15840D01*
X443977Y15833D01*
X443972Y15826D01*
X443884Y15656D01*
X443794Y15483D01*
X443791Y15476D01*
X443788Y15468D01*
X443735Y15283D01*
X443680Y15097D01*
X443680Y15089D01*
X443678Y15081D01*
X443662Y14887D01*
X443646Y14696D01*
X443647Y14688D01*
X443646Y14680D01*
X443669Y14486D01*
X443691Y14296D01*
X443693Y14288D01*
X443694Y14280D01*
X443755Y14096D01*
X443814Y13912D01*
X443818Y13905D01*
X443820Y13898D01*
X443916Y13729D01*
X444010Y13561D01*
X444016Y13555D01*
X444020Y13548D01*
X444146Y13402D01*
X444272Y13255D01*
X444279Y13250D01*
X444284Y13244D01*
X444436Y13127D01*
X444589Y13007D01*
X444596Y13003D01*
X444603Y12998D01*
X444775Y12913D01*
X444949Y12826D01*
X444957Y12824D01*
X444964Y12820D01*
X445152Y12770D01*
X445337Y12720D01*
X445345Y12719D01*
X445353Y12717D01*
X445684Y12691D01*
X861734Y14113D01*
G37*
G36*
X711874Y123898D02*
X711874Y123898D01*
X711879Y123897D01*
X712076Y123922D01*
X712269Y123946D01*
X712274Y123947D01*
X712278Y123948D01*
X712462Y124009D01*
X712652Y124072D01*
X712656Y124075D01*
X712660Y124076D01*
X712830Y124174D01*
X713001Y124272D01*
X713005Y124275D01*
X713009Y124277D01*
X713262Y124492D01*
X760324Y171554D01*
X760341Y171575D01*
X760362Y171592D01*
X760469Y171730D01*
X760579Y171866D01*
X760592Y171889D01*
X760608Y171911D01*
X760686Y172067D01*
X760768Y172221D01*
X760776Y172247D01*
X760788Y172271D01*
X760833Y172440D01*
X760883Y172607D01*
X760885Y172634D01*
X760892Y172660D01*
X760919Y172991D01*
X760919Y182926D01*
X766007Y188014D01*
X766019Y188027D01*
X766032Y188039D01*
X766146Y188183D01*
X766263Y188325D01*
X766271Y188341D01*
X766282Y188355D01*
X766365Y188519D01*
X766451Y188681D01*
X766456Y188698D01*
X766464Y188714D01*
X766514Y188891D01*
X766566Y189067D01*
X766568Y189085D01*
X766572Y189102D01*
X766586Y189285D01*
X766602Y189468D01*
X766600Y189486D01*
X766602Y189503D01*
X766579Y189685D01*
X766559Y189868D01*
X766554Y189885D01*
X766551Y189903D01*
X766493Y190076D01*
X766437Y190252D01*
X766429Y190268D01*
X766423Y190284D01*
X766331Y190444D01*
X766243Y190604D01*
X766231Y190618D01*
X766222Y190633D01*
X766007Y190886D01*
X759919Y196974D01*
X759919Y222226D01*
X766944Y229251D01*
X766961Y229271D01*
X766982Y229289D01*
X767089Y229427D01*
X767199Y229562D01*
X767212Y229586D01*
X767228Y229607D01*
X767306Y229764D01*
X767388Y229918D01*
X767396Y229943D01*
X767408Y229967D01*
X767453Y230137D01*
X767503Y230304D01*
X767505Y230330D01*
X767512Y230356D01*
X767539Y230687D01*
X767539Y231813D01*
X767537Y231840D01*
X767539Y231866D01*
X767517Y232040D01*
X767499Y232214D01*
X767492Y232239D01*
X767488Y232266D01*
X767433Y232432D01*
X767381Y232599D01*
X767368Y232622D01*
X767360Y232648D01*
X767273Y232799D01*
X767189Y232953D01*
X767172Y232973D01*
X767159Y232996D01*
X766944Y233249D01*
X760919Y239274D01*
X760919Y264526D01*
X765744Y269351D01*
X765761Y269371D01*
X765782Y269389D01*
X765889Y269527D01*
X765999Y269662D01*
X766012Y269686D01*
X766028Y269707D01*
X766106Y269864D01*
X766188Y270018D01*
X766196Y270043D01*
X766208Y270067D01*
X766253Y270237D01*
X766303Y270404D01*
X766305Y270430D01*
X766312Y270456D01*
X766339Y270787D01*
X766339Y271513D01*
X766337Y271540D01*
X766339Y271566D01*
X766317Y271740D01*
X766299Y271914D01*
X766292Y271939D01*
X766288Y271966D01*
X766233Y272132D01*
X766181Y272299D01*
X766168Y272322D01*
X766160Y272348D01*
X766073Y272499D01*
X765989Y272653D01*
X765972Y272673D01*
X765959Y272696D01*
X765744Y272949D01*
X758719Y279974D01*
X758719Y305226D01*
X765744Y312251D01*
X765761Y312271D01*
X765782Y312289D01*
X765889Y312427D01*
X765999Y312562D01*
X766012Y312586D01*
X766028Y312607D01*
X766106Y312764D01*
X766188Y312918D01*
X766196Y312943D01*
X766208Y312967D01*
X766253Y313137D01*
X766303Y313304D01*
X766305Y313330D01*
X766312Y313356D01*
X766339Y313687D01*
X766339Y421589D01*
X766337Y421616D01*
X766339Y421643D01*
X766317Y421817D01*
X766299Y421990D01*
X766292Y422016D01*
X766288Y422042D01*
X766233Y422208D01*
X766181Y422375D01*
X766168Y422399D01*
X766160Y422424D01*
X766073Y422575D01*
X765989Y422729D01*
X765972Y422749D01*
X765959Y422773D01*
X765744Y423026D01*
X754247Y434523D01*
X754226Y434540D01*
X754209Y434561D01*
X754071Y434668D01*
X753935Y434778D01*
X753912Y434791D01*
X753890Y434807D01*
X753734Y434885D01*
X753580Y434967D01*
X753554Y434975D01*
X753530Y434987D01*
X753361Y435032D01*
X753194Y435082D01*
X753167Y435084D01*
X753141Y435091D01*
X752810Y435118D01*
X749521Y435118D01*
X734876Y449763D01*
X734855Y449780D01*
X734838Y449801D01*
X734700Y449908D01*
X734564Y450018D01*
X734541Y450031D01*
X734520Y450047D01*
X734363Y450125D01*
X734209Y450207D01*
X734183Y450215D01*
X734159Y450227D01*
X733990Y450272D01*
X733823Y450322D01*
X733796Y450324D01*
X733770Y450331D01*
X733439Y450358D01*
X730433Y450358D01*
X724258Y456533D01*
X724258Y458869D01*
X732387Y458869D01*
X732405Y458870D01*
X732423Y458869D01*
X732605Y458890D01*
X732788Y458908D01*
X732805Y458914D01*
X732822Y458916D01*
X732997Y458973D01*
X733173Y459027D01*
X733188Y459035D01*
X733205Y459041D01*
X733365Y459131D01*
X733527Y459218D01*
X733540Y459230D01*
X733556Y459239D01*
X733695Y459359D01*
X733836Y459476D01*
X733847Y459490D01*
X733861Y459502D01*
X733973Y459647D01*
X734088Y459790D01*
X734096Y459806D01*
X734107Y459820D01*
X734189Y459985D01*
X734274Y460147D01*
X734279Y460164D01*
X734287Y460180D01*
X734334Y460358D01*
X734385Y460534D01*
X734387Y460552D01*
X734391Y460569D01*
X734418Y460900D01*
X734417Y460918D01*
X734418Y460935D01*
X734418Y460936D01*
X734397Y461118D01*
X734378Y461301D01*
X734373Y461318D01*
X734371Y461336D01*
X734314Y461510D01*
X734260Y461686D01*
X734252Y461701D01*
X734246Y461718D01*
X734156Y461879D01*
X734068Y462040D01*
X734057Y462053D01*
X734048Y462069D01*
X733928Y462208D01*
X733811Y462349D01*
X733797Y462360D01*
X733785Y462374D01*
X733640Y462486D01*
X733497Y462601D01*
X733481Y462610D01*
X733467Y462620D01*
X733302Y462702D01*
X733140Y462787D01*
X733123Y462792D01*
X733107Y462800D01*
X732928Y462848D01*
X732753Y462898D01*
X732735Y462900D01*
X732718Y462904D01*
X732387Y462931D01*
X724258Y462931D01*
X724258Y465267D01*
X730433Y471442D01*
X733439Y471442D01*
X733466Y471444D01*
X733493Y471442D01*
X733667Y471464D01*
X733840Y471482D01*
X733866Y471489D01*
X733892Y471493D01*
X734058Y471548D01*
X734225Y471600D01*
X734249Y471613D01*
X734274Y471621D01*
X734426Y471708D01*
X734579Y471792D01*
X734600Y471809D01*
X734623Y471822D01*
X734876Y472037D01*
X749444Y486605D01*
X749461Y486626D01*
X749482Y486643D01*
X749589Y486781D01*
X749699Y486917D01*
X749712Y486940D01*
X749728Y486961D01*
X749806Y487118D01*
X749888Y487272D01*
X749896Y487298D01*
X749908Y487322D01*
X749953Y487491D01*
X750003Y487658D01*
X750005Y487685D01*
X750012Y487711D01*
X750039Y488041D01*
X750039Y544044D01*
X750023Y544207D01*
X750013Y544371D01*
X750003Y544407D01*
X749999Y544445D01*
X749951Y544601D01*
X749909Y544760D01*
X749891Y544798D01*
X749881Y544830D01*
X749840Y544906D01*
X749767Y545060D01*
X749259Y545940D01*
X749209Y546010D01*
X749188Y546047D01*
X749162Y546077D01*
X749095Y546182D01*
X749057Y546222D01*
X749024Y546267D01*
X748917Y546367D01*
X748816Y546472D01*
X748770Y546503D01*
X748729Y546541D01*
X748605Y546618D01*
X748485Y546701D01*
X748434Y546723D01*
X748386Y546752D01*
X748249Y546802D01*
X748115Y546860D01*
X748061Y546872D01*
X748009Y546891D01*
X747864Y546913D01*
X747721Y546943D01*
X747665Y546944D01*
X747611Y546952D01*
X747465Y546946D01*
X747318Y546947D01*
X747264Y546937D01*
X747208Y546934D01*
X747067Y546899D01*
X746923Y546872D01*
X746871Y546851D01*
X746818Y546837D01*
X746686Y546775D01*
X746550Y546720D01*
X746504Y546689D01*
X746454Y546665D01*
X746337Y546578D01*
X746215Y546497D01*
X746175Y546458D01*
X746131Y546425D01*
X746033Y546316D01*
X745930Y546213D01*
X745894Y546161D01*
X745862Y546125D01*
X745819Y546053D01*
X745787Y546007D01*
X745772Y545988D01*
X745766Y545976D01*
X745741Y545940D01*
X743035Y541254D01*
X738164Y536383D01*
X732198Y532938D01*
X725544Y531155D01*
X718656Y531155D01*
X712002Y532938D01*
X706036Y536383D01*
X701165Y541254D01*
X697720Y547220D01*
X695937Y553874D01*
X695937Y577526D01*
X697720Y584180D01*
X698967Y586340D01*
X699035Y586490D01*
X699108Y586636D01*
X699117Y586673D01*
X699133Y586707D01*
X699169Y586866D01*
X699212Y587025D01*
X699216Y587067D01*
X699223Y587099D01*
X699225Y587186D01*
X699239Y587356D01*
X699239Y644289D01*
X699237Y644316D01*
X699239Y644343D01*
X699217Y644517D01*
X699199Y644690D01*
X699192Y644716D01*
X699188Y644742D01*
X699133Y644908D01*
X699081Y645075D01*
X699068Y645099D01*
X699060Y645124D01*
X698973Y645275D01*
X698889Y645429D01*
X698872Y645449D01*
X698859Y645473D01*
X698644Y645726D01*
X675126Y669244D01*
X675105Y669261D01*
X675088Y669282D01*
X674950Y669389D01*
X674814Y669499D01*
X674791Y669512D01*
X674769Y669528D01*
X674612Y669606D01*
X674458Y669688D01*
X674433Y669696D01*
X674409Y669708D01*
X674239Y669753D01*
X674073Y669803D01*
X674046Y669805D01*
X674020Y669812D01*
X673689Y669839D01*
X647641Y669839D01*
X647615Y669837D01*
X647588Y669839D01*
X647414Y669817D01*
X647241Y669799D01*
X647215Y669792D01*
X647189Y669788D01*
X647023Y669732D01*
X646856Y669681D01*
X646832Y669668D01*
X646807Y669660D01*
X646656Y669573D01*
X646502Y669489D01*
X646481Y669472D01*
X646458Y669459D01*
X646205Y669244D01*
X643879Y666918D01*
X622521Y666918D01*
X620195Y669244D01*
X620174Y669261D01*
X620157Y669282D01*
X620019Y669389D01*
X619883Y669499D01*
X619860Y669512D01*
X619839Y669528D01*
X619682Y669606D01*
X619528Y669688D01*
X619502Y669696D01*
X619478Y669708D01*
X619309Y669753D01*
X619142Y669803D01*
X619115Y669805D01*
X619089Y669812D01*
X618759Y669839D01*
X615953Y669839D01*
X607550Y673320D01*
X560826Y720044D01*
X560805Y720061D01*
X560788Y720082D01*
X560650Y720189D01*
X560514Y720299D01*
X560491Y720312D01*
X560469Y720328D01*
X560312Y720406D01*
X560158Y720488D01*
X560133Y720496D01*
X560109Y720508D01*
X559939Y720553D01*
X559773Y720603D01*
X559746Y720605D01*
X559720Y720612D01*
X559389Y720639D01*
X557532Y720639D01*
X557524Y720638D01*
X557515Y720639D01*
X557321Y720618D01*
X557132Y720599D01*
X557123Y720597D01*
X557114Y720596D01*
X556929Y720537D01*
X556747Y720481D01*
X556739Y720477D01*
X556730Y720474D01*
X556561Y720381D01*
X556393Y720289D01*
X556386Y720284D01*
X556378Y720279D01*
X556231Y720155D01*
X556084Y720032D01*
X556078Y720025D01*
X556071Y720019D01*
X555951Y719867D01*
X555831Y719718D01*
X555827Y719710D01*
X555822Y719703D01*
X555734Y719530D01*
X555646Y719361D01*
X555643Y719352D01*
X555639Y719344D01*
X555587Y719158D01*
X555534Y718974D01*
X555534Y718965D01*
X555531Y718956D01*
X555517Y718761D01*
X555501Y718572D01*
X555502Y718564D01*
X555502Y718555D01*
X555526Y718362D01*
X555548Y718173D01*
X555551Y718164D01*
X555552Y718155D01*
X555614Y717972D01*
X555673Y717790D01*
X555678Y717782D01*
X555680Y717774D01*
X555777Y717607D01*
X555871Y717439D01*
X555877Y717432D01*
X555881Y717425D01*
X556096Y717172D01*
X577154Y696114D01*
X577154Y666886D01*
X556487Y646219D01*
X527259Y646219D01*
X506592Y666886D01*
X506592Y696114D01*
X527650Y717172D01*
X527656Y717179D01*
X527663Y717184D01*
X527783Y717334D01*
X527905Y717483D01*
X527910Y717491D01*
X527915Y717498D01*
X528004Y717669D01*
X528094Y717839D01*
X528097Y717847D01*
X528101Y717855D01*
X528154Y718041D01*
X528209Y718225D01*
X528210Y718234D01*
X528212Y718242D01*
X528228Y718434D01*
X528245Y718626D01*
X528244Y718635D01*
X528245Y718644D01*
X528223Y718832D01*
X528202Y719026D01*
X528199Y719035D01*
X528198Y719043D01*
X528139Y719225D01*
X528080Y719410D01*
X528076Y719418D01*
X528073Y719426D01*
X527979Y719593D01*
X527885Y719762D01*
X527880Y719769D01*
X527875Y719777D01*
X527749Y719923D01*
X527625Y720069D01*
X527618Y720075D01*
X527612Y720082D01*
X527461Y720199D01*
X527309Y720319D01*
X527301Y720323D01*
X527294Y720328D01*
X527122Y720414D01*
X526950Y720501D01*
X526942Y720504D01*
X526934Y720508D01*
X526747Y720558D01*
X526562Y720609D01*
X526553Y720610D01*
X526545Y720612D01*
X526214Y720639D01*
X516511Y720639D01*
X516484Y720637D01*
X516457Y720639D01*
X516283Y720617D01*
X516110Y720599D01*
X516084Y720592D01*
X516058Y720588D01*
X515892Y720533D01*
X515725Y720481D01*
X515701Y720468D01*
X515676Y720460D01*
X515525Y720373D01*
X515371Y720289D01*
X515351Y720272D01*
X515327Y720259D01*
X515074Y720044D01*
X468350Y673320D01*
X461924Y670658D01*
X461908Y670651D01*
X461888Y670641D01*
X461867Y670634D01*
X461710Y670545D01*
X461553Y670461D01*
X461536Y670447D01*
X461516Y670436D01*
X461381Y670319D01*
X461243Y670205D01*
X461229Y670187D01*
X461212Y670173D01*
X461102Y670032D01*
X460989Y669892D01*
X460979Y669872D01*
X460965Y669855D01*
X460885Y669694D01*
X460802Y669536D01*
X460796Y669514D01*
X460786Y669494D01*
X460739Y669320D01*
X460689Y669149D01*
X460687Y669127D01*
X460681Y669105D01*
X460654Y668775D01*
X460654Y645086D01*
X439987Y624419D01*
X416134Y624419D01*
X416108Y624417D01*
X416081Y624419D01*
X415907Y624397D01*
X415734Y624379D01*
X415708Y624372D01*
X415682Y624368D01*
X415516Y624313D01*
X415349Y624261D01*
X415325Y624249D01*
X415300Y624240D01*
X415148Y624153D01*
X414995Y624070D01*
X414974Y624053D01*
X414951Y624039D01*
X414698Y623824D01*
X403222Y612348D01*
X403216Y612341D01*
X403209Y612336D01*
X403089Y612186D01*
X402967Y612037D01*
X402963Y612029D01*
X402957Y612022D01*
X402869Y611852D01*
X402778Y611681D01*
X402776Y611672D01*
X402772Y611665D01*
X402718Y611480D01*
X402663Y611295D01*
X402663Y611286D01*
X402660Y611278D01*
X402645Y611086D01*
X402627Y610894D01*
X402628Y610885D01*
X402627Y610876D01*
X402650Y610687D01*
X402670Y610494D01*
X402673Y610485D01*
X402674Y610477D01*
X402734Y610295D01*
X402792Y610110D01*
X402796Y610102D01*
X402799Y610094D01*
X402894Y609925D01*
X402987Y609758D01*
X402993Y609751D01*
X402997Y609743D01*
X403123Y609597D01*
X403247Y609451D01*
X403254Y609445D01*
X403260Y609438D01*
X403412Y609321D01*
X403563Y609201D01*
X403571Y609197D01*
X403578Y609192D01*
X403750Y609106D01*
X403922Y609019D01*
X403931Y609016D01*
X403939Y609012D01*
X404125Y608962D01*
X404310Y608911D01*
X404319Y608910D01*
X404328Y608908D01*
X404658Y608881D01*
X429926Y608881D01*
X436951Y601856D01*
X436971Y601839D01*
X436989Y601818D01*
X437127Y601711D01*
X437262Y601601D01*
X437286Y601588D01*
X437307Y601572D01*
X437463Y601494D01*
X437618Y601412D01*
X437643Y601404D01*
X437667Y601392D01*
X437837Y601347D01*
X438004Y601297D01*
X438030Y601295D01*
X438056Y601288D01*
X438387Y601261D01*
X453747Y601261D01*
X462150Y597780D01*
X464154Y595776D01*
X464175Y595759D01*
X464192Y595738D01*
X464330Y595631D01*
X464466Y595521D01*
X464489Y595508D01*
X464511Y595492D01*
X464668Y595414D01*
X464822Y595332D01*
X464847Y595324D01*
X464871Y595312D01*
X465041Y595267D01*
X465207Y595217D01*
X465234Y595215D01*
X465260Y595208D01*
X465591Y595181D01*
X475526Y595181D01*
X493512Y577195D01*
X493539Y577106D01*
X493547Y577091D01*
X493553Y577074D01*
X493643Y576914D01*
X493731Y576752D01*
X493742Y576739D01*
X493751Y576723D01*
X493871Y576584D01*
X493988Y576443D01*
X494002Y576432D01*
X494014Y576418D01*
X494160Y576305D01*
X494302Y576191D01*
X494318Y576183D01*
X494332Y576172D01*
X494497Y576090D01*
X494659Y576005D01*
X494676Y576000D01*
X494692Y575992D01*
X494871Y575944D01*
X495046Y575894D01*
X495064Y575892D01*
X495081Y575888D01*
X495412Y575861D01*
X545943Y575861D01*
X546034Y575870D01*
X546125Y575869D01*
X546234Y575890D01*
X546344Y575901D01*
X546431Y575927D01*
X546520Y575944D01*
X546623Y575986D01*
X546729Y576019D01*
X546809Y576062D01*
X546893Y576096D01*
X546985Y576158D01*
X547083Y576211D01*
X547153Y576269D01*
X547229Y576319D01*
X547307Y576397D01*
X547392Y576468D01*
X547449Y576539D01*
X547513Y576604D01*
X547592Y576717D01*
X547644Y576782D01*
X547666Y576824D01*
X547702Y576876D01*
X550187Y581181D01*
X554727Y585721D01*
X560288Y588931D01*
X566490Y590593D01*
X572910Y590593D01*
X579112Y588931D01*
X584673Y585721D01*
X589213Y581181D01*
X592030Y576300D01*
X592059Y576260D01*
X592081Y576217D01*
X592176Y576097D01*
X592265Y575973D01*
X592301Y575940D01*
X592331Y575901D01*
X592448Y575803D01*
X592560Y575699D01*
X592602Y575673D01*
X592639Y575642D01*
X592773Y575568D01*
X592903Y575488D01*
X592949Y575471D01*
X592992Y575448D01*
X593069Y575424D01*
X593069Y573478D01*
X593076Y573407D01*
X593074Y573336D01*
X593084Y573270D01*
X593085Y573222D01*
X593101Y573151D01*
X593108Y573077D01*
X593118Y573047D01*
X593124Y573008D01*
X593124Y573007D01*
X593154Y572920D01*
X593175Y572829D01*
X593205Y572762D01*
X593227Y572693D01*
X593244Y572661D01*
X593256Y572626D01*
X593302Y572547D01*
X593340Y572462D01*
X593384Y572401D01*
X593418Y572338D01*
X593441Y572312D01*
X593460Y572279D01*
X593521Y572211D01*
X593575Y572135D01*
X593631Y572083D01*
X593676Y572029D01*
X593703Y572008D01*
X593728Y571979D01*
X593802Y571924D01*
X593870Y571861D01*
X593935Y571821D01*
X593990Y571777D01*
X594019Y571762D01*
X594051Y571738D01*
X594134Y571699D01*
X594213Y571650D01*
X594286Y571623D01*
X594347Y571591D01*
X594348Y571591D01*
X594378Y571582D01*
X594414Y571565D01*
X594504Y571543D01*
X594591Y571511D01*
X594668Y571499D01*
X594734Y571480D01*
X594767Y571477D01*
X594805Y571468D01*
X594897Y571463D01*
X594989Y571449D01*
X595067Y571453D01*
X595136Y571447D01*
X595168Y571451D01*
X595207Y571449D01*
X595298Y571463D01*
X595391Y571467D01*
X595466Y571486D01*
X595536Y571494D01*
X595567Y571504D01*
X595605Y571510D01*
X595692Y571542D01*
X595782Y571564D01*
X595852Y571597D01*
X595918Y571619D01*
X595947Y571635D01*
X595983Y571648D01*
X596062Y571696D01*
X596146Y571736D01*
X596207Y571782D01*
X596269Y571817D01*
X596294Y571838D01*
X596327Y571858D01*
X596394Y571921D01*
X596468Y571976D01*
X596519Y572033D01*
X596574Y572080D01*
X596594Y572107D01*
X596622Y572132D01*
X596676Y572207D01*
X596738Y572276D01*
X596776Y572341D01*
X596820Y572398D01*
X596836Y572429D01*
X596857Y572459D01*
X596895Y572543D01*
X596943Y572622D01*
X596972Y572704D01*
X597000Y572758D01*
X597009Y572793D01*
X597024Y572825D01*
X597035Y572873D01*
X597057Y572934D01*
X597076Y573042D01*
X597104Y573147D01*
X597108Y573187D01*
X597115Y573217D01*
X597116Y573274D01*
X597126Y573331D01*
X597124Y573393D01*
X597131Y573478D01*
X597131Y575427D01*
X597273Y575477D01*
X597315Y575502D01*
X597360Y575520D01*
X597488Y575605D01*
X597619Y575683D01*
X597655Y575716D01*
X597696Y575743D01*
X597804Y575851D01*
X597917Y575953D01*
X597946Y575993D01*
X597981Y576027D01*
X598117Y576225D01*
X598156Y576277D01*
X598161Y576288D01*
X598170Y576300D01*
X600987Y581181D01*
X605527Y585721D01*
X611088Y588931D01*
X617290Y590593D01*
X623710Y590593D01*
X629912Y588931D01*
X632184Y587619D01*
X632267Y587582D01*
X632346Y587535D01*
X632450Y587499D01*
X632551Y587453D01*
X632640Y587433D01*
X632726Y587403D01*
X632836Y587388D01*
X632944Y587363D01*
X633035Y587361D01*
X633125Y587348D01*
X633235Y587355D01*
X633346Y587352D01*
X633436Y587368D01*
X633527Y587373D01*
X633634Y587402D01*
X633743Y587421D01*
X633828Y587454D01*
X633916Y587477D01*
X634040Y587536D01*
X634118Y587566D01*
X634159Y587592D01*
X634216Y587619D01*
X636488Y588931D01*
X642690Y590593D01*
X649110Y590593D01*
X655312Y588931D01*
X660873Y585721D01*
X665413Y581181D01*
X668623Y575620D01*
X670285Y569418D01*
X670285Y549790D01*
X668623Y543588D01*
X665413Y538027D01*
X660873Y533487D01*
X655312Y530277D01*
X649110Y528615D01*
X642690Y528615D01*
X636488Y530277D01*
X634216Y531589D01*
X634133Y531626D01*
X634054Y531673D01*
X633950Y531709D01*
X633849Y531755D01*
X633760Y531775D01*
X633674Y531805D01*
X633564Y531820D01*
X633456Y531845D01*
X633365Y531847D01*
X633275Y531860D01*
X633165Y531853D01*
X633054Y531856D01*
X632964Y531840D01*
X632873Y531835D01*
X632766Y531806D01*
X632657Y531787D01*
X632572Y531754D01*
X632484Y531731D01*
X632360Y531672D01*
X632282Y531642D01*
X632241Y531616D01*
X632184Y531589D01*
X629912Y530277D01*
X623710Y528615D01*
X617290Y528615D01*
X611088Y530277D01*
X605527Y533487D01*
X600987Y538027D01*
X598170Y542908D01*
X598141Y542948D01*
X598119Y542991D01*
X598024Y543111D01*
X597935Y543235D01*
X597899Y543268D01*
X597869Y543307D01*
X597752Y543405D01*
X597640Y543509D01*
X597598Y543535D01*
X597561Y543566D01*
X597427Y543640D01*
X597297Y543720D01*
X597251Y543737D01*
X597208Y543760D01*
X597131Y543784D01*
X597131Y545730D01*
X597121Y545839D01*
X597120Y545948D01*
X597107Y546012D01*
X597104Y546061D01*
X597095Y546095D01*
X597091Y546131D01*
X597073Y546190D01*
X597057Y546274D01*
X597024Y546361D01*
X597000Y546450D01*
X596984Y546482D01*
X596973Y546516D01*
X596938Y546580D01*
X596911Y546650D01*
X596862Y546727D01*
X596821Y546810D01*
X596798Y546839D01*
X596782Y546870D01*
X596735Y546925D01*
X596695Y546989D01*
X596631Y547055D01*
X596574Y547128D01*
X596545Y547153D01*
X596524Y547179D01*
X596468Y547224D01*
X596415Y547279D01*
X596339Y547331D01*
X596269Y547392D01*
X596236Y547410D01*
X596210Y547431D01*
X596147Y547464D01*
X596084Y547508D01*
X595999Y547544D01*
X595919Y547590D01*
X595882Y547602D01*
X595853Y547617D01*
X595786Y547636D01*
X595714Y547667D01*
X595624Y547686D01*
X595536Y547715D01*
X595497Y547719D01*
X595466Y547728D01*
X595397Y547734D01*
X595320Y547750D01*
X595228Y547751D01*
X595136Y547762D01*
X595097Y547758D01*
X595065Y547761D01*
X594996Y547753D01*
X594918Y547754D01*
X594827Y547736D01*
X594735Y547729D01*
X594697Y547718D01*
X594665Y547714D01*
X594664Y547714D01*
X594599Y547693D01*
X594522Y547678D01*
X594436Y547643D01*
X594348Y547617D01*
X594313Y547599D01*
X594282Y547589D01*
X594221Y547555D01*
X594149Y547526D01*
X594072Y547475D01*
X593990Y547432D01*
X593960Y547408D01*
X593931Y547391D01*
X593878Y547346D01*
X593814Y547303D01*
X593749Y547238D01*
X593677Y547180D01*
X593652Y547150D01*
X593626Y547128D01*
X593583Y547072D01*
X593529Y547018D01*
X593478Y546941D01*
X593419Y546871D01*
X593401Y546837D01*
X593380Y546810D01*
X593348Y546746D01*
X593306Y546683D01*
X593271Y546598D01*
X593227Y546517D01*
X593214Y546477D01*
X593200Y546449D01*
X593181Y546379D01*
X593153Y546311D01*
X593144Y546263D01*
X593124Y546201D01*
X593124Y546200D01*
X593114Y546130D01*
X593096Y546061D01*
X593089Y545975D01*
X593077Y545915D01*
X593078Y545859D01*
X593070Y545801D01*
X593072Y545770D01*
X593069Y545730D01*
X593069Y543781D01*
X592927Y543731D01*
X592885Y543706D01*
X592840Y543688D01*
X592712Y543603D01*
X592581Y543525D01*
X592545Y543492D01*
X592504Y543465D01*
X592396Y543357D01*
X592283Y543255D01*
X592254Y543215D01*
X592219Y543181D01*
X592083Y542983D01*
X592044Y542931D01*
X592039Y542920D01*
X592030Y542908D01*
X589213Y538027D01*
X584673Y533487D01*
X579112Y530277D01*
X572910Y528615D01*
X566490Y528615D01*
X561060Y530070D01*
X560962Y530086D01*
X560865Y530112D01*
X560742Y530122D01*
X560663Y530135D01*
X560608Y530133D01*
X560535Y530139D01*
X470053Y530139D01*
X461650Y533620D01*
X461646Y533624D01*
X461625Y533641D01*
X461608Y533662D01*
X461470Y533769D01*
X461334Y533879D01*
X461311Y533892D01*
X461289Y533908D01*
X461132Y533986D01*
X460978Y534068D01*
X460953Y534076D01*
X460929Y534088D01*
X460759Y534133D01*
X460593Y534183D01*
X460566Y534185D01*
X460540Y534192D01*
X460209Y534219D01*
X450274Y534219D01*
X434686Y549807D01*
X434672Y549819D01*
X434661Y549832D01*
X434517Y549946D01*
X434375Y550063D01*
X434359Y550071D01*
X434345Y550082D01*
X434181Y550166D01*
X434019Y550251D01*
X434002Y550256D01*
X433986Y550264D01*
X433809Y550314D01*
X433633Y550366D01*
X433615Y550368D01*
X433598Y550372D01*
X433415Y550386D01*
X433232Y550402D01*
X433214Y550400D01*
X433197Y550402D01*
X433015Y550379D01*
X432832Y550359D01*
X432815Y550354D01*
X432797Y550351D01*
X432623Y550293D01*
X432448Y550237D01*
X432432Y550229D01*
X432416Y550223D01*
X432257Y550132D01*
X432096Y550043D01*
X432082Y550031D01*
X432067Y550022D01*
X431814Y549807D01*
X429926Y547919D01*
X404674Y547919D01*
X386819Y565774D01*
X386819Y591042D01*
X386818Y591051D01*
X386819Y591060D01*
X386798Y591253D01*
X386779Y591442D01*
X386777Y591451D01*
X386776Y591460D01*
X386717Y591644D01*
X386661Y591827D01*
X386657Y591835D01*
X386654Y591844D01*
X386561Y592012D01*
X386469Y592181D01*
X386464Y592188D01*
X386459Y592196D01*
X386335Y592343D01*
X386212Y592491D01*
X386205Y592496D01*
X386199Y592503D01*
X386047Y592623D01*
X385898Y592743D01*
X385890Y592747D01*
X385883Y592753D01*
X385710Y592840D01*
X385541Y592928D01*
X385532Y592931D01*
X385524Y592935D01*
X385338Y592987D01*
X385154Y593040D01*
X385145Y593041D01*
X385136Y593043D01*
X384943Y593057D01*
X384752Y593073D01*
X384744Y593072D01*
X384735Y593072D01*
X384542Y593048D01*
X384353Y593026D01*
X384344Y593023D01*
X384335Y593022D01*
X384153Y592961D01*
X383970Y592901D01*
X383962Y592896D01*
X383954Y592894D01*
X383787Y592798D01*
X383619Y592703D01*
X383612Y592697D01*
X383605Y592693D01*
X383352Y592478D01*
X356486Y565612D01*
X356480Y565605D01*
X356473Y565600D01*
X356353Y565450D01*
X356231Y565301D01*
X356227Y565293D01*
X356221Y565286D01*
X356132Y565115D01*
X356042Y564945D01*
X356040Y564937D01*
X356036Y564929D01*
X355982Y564743D01*
X355927Y564559D01*
X355927Y564550D01*
X355924Y564542D01*
X355909Y564350D01*
X355891Y564158D01*
X355892Y564149D01*
X355891Y564140D01*
X355914Y563951D01*
X355934Y563758D01*
X355937Y563749D01*
X355938Y563741D01*
X355998Y563559D01*
X356056Y563374D01*
X356060Y563366D01*
X356063Y563358D01*
X356160Y563187D01*
X356251Y563022D01*
X356257Y563015D01*
X356261Y563007D01*
X356387Y562861D01*
X356511Y562715D01*
X356518Y562709D01*
X356524Y562702D01*
X356676Y562585D01*
X356827Y562465D01*
X356835Y562461D01*
X356842Y562456D01*
X357014Y562370D01*
X357186Y562283D01*
X357195Y562280D01*
X357203Y562276D01*
X357389Y562226D01*
X357574Y562175D01*
X357583Y562174D01*
X357592Y562172D01*
X357922Y562145D01*
X361124Y562145D01*
X362545Y561920D01*
X363914Y561475D01*
X365197Y560821D01*
X366361Y559975D01*
X367379Y558957D01*
X368225Y557793D01*
X368879Y556510D01*
X369324Y555141D01*
X369341Y555031D01*
X367673Y555031D01*
X367525Y555017D01*
X367377Y555010D01*
X367325Y554997D01*
X367272Y554991D01*
X367131Y554948D01*
X366987Y554912D01*
X366938Y554889D01*
X366887Y554873D01*
X366757Y554803D01*
X366623Y554739D01*
X366580Y554707D01*
X366533Y554682D01*
X366420Y554587D01*
X366301Y554498D01*
X366265Y554458D01*
X366224Y554424D01*
X366131Y554308D01*
X366032Y554198D01*
X366005Y554152D01*
X365972Y554110D01*
X365903Y553979D01*
X365828Y553851D01*
X365811Y553800D01*
X365786Y553753D01*
X365745Y553610D01*
X365697Y553470D01*
X365690Y553417D01*
X365675Y553366D01*
X365663Y553218D01*
X365643Y553071D01*
X365646Y553018D01*
X365642Y552965D01*
X365659Y552817D01*
X365669Y552669D01*
X365683Y552618D01*
X365689Y552565D01*
X365735Y552424D01*
X365773Y552281D01*
X365797Y552233D01*
X365814Y552182D01*
X365887Y552053D01*
X365953Y551920D01*
X365985Y551878D01*
X366012Y551831D01*
X366108Y551719D01*
X366199Y551602D01*
X366240Y551567D01*
X366275Y551527D01*
X366392Y551436D01*
X366504Y551339D01*
X366551Y551313D01*
X366593Y551280D01*
X366725Y551214D01*
X366855Y551141D01*
X366912Y551121D01*
X366953Y551101D01*
X367035Y551079D01*
X367168Y551033D01*
X367170Y551032D01*
X367257Y551019D01*
X367342Y550996D01*
X367343Y550996D01*
X367484Y550984D01*
X367567Y550971D01*
X367614Y550974D01*
X367674Y550969D01*
X370180Y550969D01*
X370188Y550959D01*
X370330Y550850D01*
X370470Y550738D01*
X370490Y550727D01*
X370508Y550714D01*
X370803Y550562D01*
X379450Y546980D01*
X411280Y515150D01*
X414020Y508535D01*
X414031Y508515D01*
X414038Y508494D01*
X414126Y508337D01*
X414211Y508180D01*
X414225Y508163D01*
X414236Y508143D01*
X414353Y508007D01*
X414467Y507869D01*
X414484Y507855D01*
X414499Y507838D01*
X414640Y507729D01*
X414780Y507616D01*
X414799Y507605D01*
X414817Y507592D01*
X414978Y507512D01*
X415136Y507429D01*
X415157Y507422D01*
X415178Y507412D01*
X415351Y507366D01*
X415523Y507316D01*
X415545Y507314D01*
X415566Y507308D01*
X415897Y507281D01*
X429926Y507281D01*
X445514Y491693D01*
X445527Y491681D01*
X445539Y491668D01*
X445683Y491554D01*
X445825Y491437D01*
X445841Y491429D01*
X445855Y491418D01*
X446019Y491335D01*
X446181Y491249D01*
X446198Y491244D01*
X446214Y491236D01*
X446391Y491186D01*
X446567Y491134D01*
X446585Y491132D01*
X446602Y491128D01*
X446785Y491114D01*
X446968Y491098D01*
X446986Y491100D01*
X447003Y491098D01*
X447185Y491121D01*
X447368Y491141D01*
X447385Y491146D01*
X447403Y491149D01*
X447576Y491207D01*
X447752Y491263D01*
X447768Y491271D01*
X447784Y491277D01*
X447944Y491369D01*
X448104Y491457D01*
X448118Y491469D01*
X448133Y491478D01*
X448386Y491693D01*
X450274Y493581D01*
X475526Y493581D01*
X478964Y490143D01*
X478978Y490131D01*
X478989Y490118D01*
X479133Y490004D01*
X479275Y489887D01*
X479291Y489879D01*
X479305Y489868D01*
X479469Y489784D01*
X479631Y489699D01*
X479648Y489694D01*
X479664Y489686D01*
X479841Y489636D01*
X480017Y489584D01*
X480035Y489582D01*
X480052Y489578D01*
X480235Y489564D01*
X480418Y489548D01*
X480436Y489550D01*
X480453Y489548D01*
X480635Y489571D01*
X480818Y489591D01*
X480835Y489596D01*
X480853Y489599D01*
X481027Y489657D01*
X481202Y489713D01*
X481218Y489721D01*
X481234Y489727D01*
X481394Y489819D01*
X481554Y489907D01*
X481568Y489919D01*
X481583Y489928D01*
X481836Y490143D01*
X496474Y504781D01*
X521726Y504781D01*
X539581Y486926D01*
X539581Y461674D01*
X521726Y443819D01*
X511494Y443819D01*
X511463Y443816D01*
X511432Y443818D01*
X511263Y443796D01*
X511094Y443779D01*
X511064Y443770D01*
X511033Y443766D01*
X510717Y443665D01*
X502447Y440239D01*
X483987Y440239D01*
X483960Y440237D01*
X483934Y440239D01*
X483760Y440217D01*
X483586Y440199D01*
X483561Y440192D01*
X483534Y440188D01*
X483368Y440133D01*
X483201Y440081D01*
X483178Y440068D01*
X483152Y440060D01*
X483001Y439973D01*
X482847Y439889D01*
X482827Y439872D01*
X482804Y439859D01*
X482551Y439644D01*
X478856Y435949D01*
X478839Y435929D01*
X478818Y435911D01*
X478711Y435773D01*
X478601Y435638D01*
X478588Y435614D01*
X478572Y435593D01*
X478494Y435436D01*
X478412Y435282D01*
X478404Y435257D01*
X478392Y435233D01*
X478347Y435063D01*
X478297Y434896D01*
X478295Y434870D01*
X478288Y434844D01*
X478261Y434513D01*
X478261Y389871D01*
X478262Y389862D01*
X478261Y389853D01*
X478282Y389660D01*
X478301Y389470D01*
X478303Y389462D01*
X478304Y389453D01*
X478362Y389269D01*
X478419Y389085D01*
X478423Y389077D01*
X478426Y389069D01*
X478518Y388901D01*
X478611Y388731D01*
X478616Y388724D01*
X478621Y388717D01*
X478745Y388570D01*
X478868Y388422D01*
X478875Y388416D01*
X478881Y388410D01*
X479033Y388290D01*
X479182Y388170D01*
X479190Y388166D01*
X479197Y388160D01*
X479370Y388072D01*
X479539Y387984D01*
X479548Y387982D01*
X479556Y387978D01*
X479742Y387926D01*
X479926Y387873D01*
X479935Y387872D01*
X479944Y387870D01*
X480137Y387856D01*
X480328Y387840D01*
X480336Y387841D01*
X480345Y387840D01*
X480538Y387865D01*
X480727Y387887D01*
X480736Y387890D01*
X480745Y387891D01*
X480928Y387952D01*
X481110Y388012D01*
X481118Y388016D01*
X481126Y388019D01*
X481293Y388115D01*
X481461Y388210D01*
X481468Y388215D01*
X481475Y388220D01*
X481728Y388435D01*
X496474Y403181D01*
X499009Y403181D01*
X499036Y403183D01*
X499063Y403181D01*
X499237Y403203D01*
X499410Y403221D01*
X499436Y403228D01*
X499462Y403232D01*
X499628Y403287D01*
X499795Y403339D01*
X499819Y403352D01*
X499844Y403360D01*
X499995Y403447D01*
X500149Y403531D01*
X500169Y403548D01*
X500193Y403561D01*
X500446Y403776D01*
X520050Y423380D01*
X528453Y426861D01*
X532101Y426861D01*
X532128Y426863D01*
X532155Y426861D01*
X532329Y426883D01*
X532502Y426901D01*
X532527Y426908D01*
X532554Y426912D01*
X532720Y426968D01*
X532887Y427019D01*
X532910Y427032D01*
X532936Y427040D01*
X533087Y427127D01*
X533241Y427211D01*
X533261Y427228D01*
X533285Y427241D01*
X533538Y427456D01*
X539653Y433571D01*
X546774Y433571D01*
X546788Y433572D01*
X546801Y433571D01*
X546987Y433592D01*
X547175Y433611D01*
X547188Y433615D01*
X547201Y433616D01*
X547380Y433674D01*
X547560Y433729D01*
X547571Y433735D01*
X547584Y433739D01*
X547749Y433831D01*
X547914Y433921D01*
X547924Y433929D01*
X547936Y433936D01*
X548078Y434058D01*
X548223Y434178D01*
X548231Y434189D01*
X548242Y434197D01*
X548357Y434345D01*
X548475Y434492D01*
X548481Y434504D01*
X548490Y434514D01*
X548574Y434683D01*
X548661Y434849D01*
X548665Y434862D01*
X548671Y434874D01*
X548720Y435055D01*
X548772Y435236D01*
X548773Y435250D01*
X548777Y435263D01*
X548790Y435451D01*
X548805Y435638D01*
X548804Y435651D01*
X548804Y435664D01*
X548780Y435852D01*
X548758Y436037D01*
X548754Y436050D01*
X548752Y436063D01*
X548651Y436379D01*
X546839Y440753D01*
X546839Y454427D01*
X546829Y454526D01*
X546829Y454626D01*
X546807Y454748D01*
X546799Y454827D01*
X546783Y454880D01*
X546770Y454952D01*
X545315Y460382D01*
X545315Y480010D01*
X546977Y486212D01*
X550187Y491773D01*
X554727Y496313D01*
X560288Y499523D01*
X566490Y501185D01*
X572910Y501185D01*
X579112Y499523D01*
X584673Y496313D01*
X589213Y491773D01*
X592030Y486892D01*
X592059Y486852D01*
X592081Y486809D01*
X592176Y486689D01*
X592265Y486565D01*
X592301Y486532D01*
X592332Y486493D01*
X592448Y486395D01*
X592560Y486291D01*
X592602Y486265D01*
X592639Y486234D01*
X592773Y486160D01*
X592903Y486080D01*
X592949Y486063D01*
X592992Y486040D01*
X593069Y486016D01*
X593069Y484070D01*
X593075Y484009D01*
X593072Y483948D01*
X593086Y483853D01*
X593089Y483786D01*
X593103Y483729D01*
X593108Y483669D01*
X593115Y483648D01*
X593119Y483620D01*
X593119Y483619D01*
X593156Y483508D01*
X593184Y483395D01*
X593209Y483341D01*
X593227Y483285D01*
X593239Y483262D01*
X593247Y483237D01*
X593305Y483136D01*
X593354Y483031D01*
X593391Y482981D01*
X593418Y482930D01*
X593434Y482912D01*
X593447Y482888D01*
X593524Y482801D01*
X593594Y482707D01*
X593640Y482665D01*
X593676Y482621D01*
X593694Y482607D01*
X593713Y482585D01*
X593806Y482515D01*
X593892Y482436D01*
X593946Y482404D01*
X593990Y482369D01*
X594010Y482358D01*
X594033Y482341D01*
X594138Y482290D01*
X594238Y482230D01*
X594298Y482209D01*
X594347Y482183D01*
X594369Y482177D01*
X594395Y482165D01*
X594507Y482135D01*
X594617Y482096D01*
X594681Y482087D01*
X594734Y482072D01*
X594756Y482070D01*
X594784Y482063D01*
X594901Y482056D01*
X595016Y482040D01*
X595080Y482044D01*
X595136Y482039D01*
X595158Y482042D01*
X595186Y482040D01*
X595301Y482056D01*
X595418Y482063D01*
X595480Y482079D01*
X595536Y482086D01*
X595557Y482093D01*
X595585Y482097D01*
X595695Y482136D01*
X595808Y482165D01*
X595865Y482193D01*
X595918Y482211D01*
X595938Y482222D01*
X595964Y482231D01*
X596064Y482291D01*
X596169Y482342D01*
X596219Y482381D01*
X596269Y482409D01*
X596286Y482424D01*
X596310Y482438D01*
X596396Y482516D01*
X596489Y482587D01*
X596530Y482634D01*
X596574Y482672D01*
X596588Y482690D01*
X596608Y482708D01*
X596677Y482802D01*
X596754Y482890D01*
X596784Y482944D01*
X596820Y482990D01*
X596831Y483012D01*
X596847Y483033D01*
X596896Y483138D01*
X596954Y483240D01*
X596977Y483305D01*
X597000Y483350D01*
X597006Y483374D01*
X597017Y483397D01*
X597033Y483463D01*
X597064Y483552D01*
X597065Y483553D01*
X597080Y483647D01*
X597104Y483739D01*
X597107Y483767D01*
X597112Y483789D01*
X597115Y483869D01*
X597115Y483870D01*
X597128Y483951D01*
X597126Y484002D01*
X597131Y484070D01*
X597131Y486019D01*
X597273Y486069D01*
X597315Y486094D01*
X597360Y486112D01*
X597488Y486197D01*
X597619Y486275D01*
X597655Y486308D01*
X597696Y486335D01*
X597804Y486443D01*
X597917Y486545D01*
X597946Y486585D01*
X597981Y486619D01*
X598117Y486817D01*
X598156Y486869D01*
X598161Y486880D01*
X598170Y486892D01*
X600987Y491773D01*
X605527Y496313D01*
X611088Y499523D01*
X617290Y501185D01*
X623710Y501185D01*
X629912Y499523D01*
X632184Y498211D01*
X632267Y498174D01*
X632346Y498127D01*
X632450Y498091D01*
X632551Y498045D01*
X632640Y498025D01*
X632726Y497995D01*
X632836Y497980D01*
X632944Y497955D01*
X633035Y497953D01*
X633125Y497940D01*
X633235Y497947D01*
X633346Y497944D01*
X633436Y497960D01*
X633527Y497965D01*
X633634Y497994D01*
X633743Y498013D01*
X633828Y498046D01*
X633916Y498069D01*
X634040Y498128D01*
X634118Y498158D01*
X634159Y498184D01*
X634216Y498211D01*
X636488Y499523D01*
X642690Y501185D01*
X649110Y501185D01*
X655312Y499523D01*
X660873Y496313D01*
X665413Y491773D01*
X668623Y486212D01*
X670285Y480010D01*
X670285Y460382D01*
X668631Y454211D01*
X668617Y454121D01*
X668592Y454034D01*
X668584Y453923D01*
X668566Y453814D01*
X668569Y453723D01*
X668563Y453632D01*
X668577Y453522D01*
X668581Y453412D01*
X668602Y453323D01*
X668613Y453233D01*
X668649Y453128D01*
X668674Y453020D01*
X668712Y452937D01*
X668741Y452851D01*
X668797Y452755D01*
X668843Y452655D01*
X668897Y452581D01*
X668942Y452502D01*
X669032Y452397D01*
X669081Y452330D01*
X669116Y452297D01*
X669157Y452249D01*
X680481Y440926D01*
X680481Y415674D01*
X662626Y397819D01*
X637374Y397819D01*
X630349Y404844D01*
X630329Y404861D01*
X630311Y404882D01*
X630173Y404989D01*
X630038Y405099D01*
X630014Y405112D01*
X629993Y405128D01*
X629836Y405206D01*
X629682Y405288D01*
X629657Y405296D01*
X629633Y405308D01*
X629463Y405353D01*
X629296Y405403D01*
X629270Y405405D01*
X629244Y405412D01*
X628913Y405439D01*
X604802Y405439D01*
X604784Y405437D01*
X604766Y405439D01*
X604584Y405418D01*
X604401Y405399D01*
X604384Y405394D01*
X604367Y405392D01*
X604192Y405335D01*
X604016Y405281D01*
X604001Y405273D01*
X603984Y405267D01*
X603824Y405177D01*
X603662Y405089D01*
X603649Y405078D01*
X603633Y405069D01*
X603494Y404949D01*
X603353Y404832D01*
X603342Y404818D01*
X603328Y404806D01*
X603216Y404661D01*
X603101Y404518D01*
X603093Y404502D01*
X603082Y404488D01*
X603000Y404323D01*
X602915Y404161D01*
X602910Y404144D01*
X602902Y404128D01*
X602855Y403949D01*
X602804Y403774D01*
X602802Y403756D01*
X602798Y403739D01*
X602771Y403408D01*
X602771Y395853D01*
X597472Y390553D01*
X597452Y390529D01*
X597428Y390509D01*
X597324Y390374D01*
X597216Y390242D01*
X597202Y390214D01*
X597183Y390190D01*
X597031Y389894D01*
X595480Y386150D01*
X580886Y371556D01*
X580881Y371549D01*
X580874Y371544D01*
X580753Y371394D01*
X580631Y371245D01*
X580627Y371237D01*
X580621Y371230D01*
X580533Y371060D01*
X580443Y370889D01*
X580440Y370880D01*
X580436Y370873D01*
X580383Y370688D01*
X580328Y370503D01*
X580327Y370494D01*
X580324Y370486D01*
X580309Y370294D01*
X580291Y370102D01*
X580292Y370093D01*
X580292Y370084D01*
X580314Y369895D01*
X580335Y369702D01*
X580337Y369693D01*
X580339Y369685D01*
X580398Y369503D01*
X580456Y369318D01*
X580461Y369310D01*
X580463Y369302D01*
X580558Y369133D01*
X580651Y368966D01*
X580657Y368959D01*
X580661Y368951D01*
X580787Y368805D01*
X580912Y368659D01*
X580919Y368653D01*
X580924Y368646D01*
X581076Y368529D01*
X581228Y368409D01*
X581236Y368405D01*
X581243Y368400D01*
X581415Y368314D01*
X581586Y368227D01*
X581595Y368224D01*
X581603Y368220D01*
X581790Y368170D01*
X581974Y368119D01*
X581983Y368118D01*
X581992Y368116D01*
X582323Y368089D01*
X585610Y368089D01*
X591812Y366427D01*
X597373Y363217D01*
X600034Y360556D01*
X600054Y360539D01*
X600072Y360518D01*
X600210Y360411D01*
X600345Y360301D01*
X600369Y360288D01*
X600390Y360272D01*
X600547Y360194D01*
X600701Y360112D01*
X600726Y360104D01*
X600750Y360092D01*
X600920Y360047D01*
X601087Y359997D01*
X601113Y359995D01*
X601139Y359988D01*
X601470Y359961D01*
X644147Y359961D01*
X650486Y357335D01*
X650515Y357326D01*
X650543Y357312D01*
X650708Y357268D01*
X650871Y357219D01*
X650902Y357216D01*
X650932Y357208D01*
X651263Y357181D01*
X662626Y357181D01*
X680481Y339326D01*
X680481Y325112D01*
X680483Y325094D01*
X680481Y325076D01*
X680502Y324894D01*
X680521Y324711D01*
X680526Y324694D01*
X680528Y324677D01*
X680585Y324502D01*
X680639Y324326D01*
X680647Y324311D01*
X680653Y324294D01*
X680743Y324134D01*
X680831Y323972D01*
X680842Y323959D01*
X680851Y323943D01*
X680971Y323804D01*
X681088Y323663D01*
X681102Y323652D01*
X681114Y323638D01*
X681259Y323526D01*
X681402Y323411D01*
X681418Y323403D01*
X681432Y323392D01*
X681597Y323310D01*
X681759Y323225D01*
X681776Y323220D01*
X681792Y323212D01*
X681971Y323165D01*
X682146Y323114D01*
X682164Y323112D01*
X682181Y323108D01*
X682512Y323081D01*
X700226Y323081D01*
X718081Y305226D01*
X718081Y279974D01*
X712893Y274786D01*
X712881Y274772D01*
X712868Y274761D01*
X712754Y274617D01*
X712637Y274475D01*
X712629Y274459D01*
X712618Y274445D01*
X712534Y274281D01*
X712449Y274119D01*
X712444Y274102D01*
X712436Y274086D01*
X712386Y273909D01*
X712334Y273733D01*
X712332Y273715D01*
X712328Y273698D01*
X712314Y273515D01*
X712298Y273332D01*
X712300Y273314D01*
X712298Y273297D01*
X712321Y273115D01*
X712341Y272932D01*
X712346Y272915D01*
X712349Y272897D01*
X712407Y272723D01*
X712463Y272548D01*
X712471Y272532D01*
X712477Y272516D01*
X712569Y272356D01*
X712657Y272196D01*
X712669Y272182D01*
X712678Y272167D01*
X712893Y271914D01*
X720281Y264526D01*
X720281Y239274D01*
X712693Y231686D01*
X712681Y231672D01*
X712668Y231661D01*
X712554Y231517D01*
X712437Y231375D01*
X712429Y231359D01*
X712418Y231345D01*
X712334Y231181D01*
X712249Y231019D01*
X712244Y231002D01*
X712236Y230986D01*
X712186Y230809D01*
X712134Y230633D01*
X712132Y230615D01*
X712128Y230598D01*
X712114Y230415D01*
X712098Y230232D01*
X712100Y230214D01*
X712098Y230197D01*
X712121Y230015D01*
X712141Y229832D01*
X712146Y229815D01*
X712149Y229797D01*
X712207Y229623D01*
X712263Y229448D01*
X712271Y229432D01*
X712277Y229416D01*
X712369Y229256D01*
X712457Y229096D01*
X712469Y229082D01*
X712478Y229067D01*
X712693Y228814D01*
X719281Y222226D01*
X719281Y196974D01*
X714193Y191886D01*
X714181Y191872D01*
X714168Y191861D01*
X714054Y191717D01*
X713937Y191575D01*
X713929Y191559D01*
X713918Y191545D01*
X713834Y191381D01*
X713749Y191219D01*
X713744Y191202D01*
X713736Y191186D01*
X713686Y191009D01*
X713634Y190833D01*
X713632Y190815D01*
X713628Y190798D01*
X713614Y190615D01*
X713598Y190432D01*
X713600Y190414D01*
X713598Y190397D01*
X713621Y190215D01*
X713641Y190032D01*
X713646Y190015D01*
X713649Y189997D01*
X713707Y189823D01*
X713763Y189648D01*
X713771Y189632D01*
X713777Y189616D01*
X713869Y189456D01*
X713957Y189296D01*
X713969Y189282D01*
X713978Y189267D01*
X714193Y189014D01*
X720281Y182926D01*
X720281Y157674D01*
X713256Y150649D01*
X713239Y150629D01*
X713218Y150611D01*
X713111Y150473D01*
X713001Y150338D01*
X712988Y150314D01*
X712972Y150293D01*
X712894Y150136D01*
X712812Y149982D01*
X712804Y149957D01*
X712792Y149933D01*
X712747Y149763D01*
X712697Y149596D01*
X712695Y149570D01*
X712688Y149544D01*
X712661Y149213D01*
X712661Y133253D01*
X709949Y126705D01*
X709947Y126701D01*
X709945Y126697D01*
X709890Y126512D01*
X709832Y126320D01*
X709832Y126315D01*
X709830Y126311D01*
X709813Y126113D01*
X709794Y125919D01*
X709794Y125915D01*
X709794Y125910D01*
X709816Y125708D01*
X709836Y125519D01*
X709837Y125514D01*
X709837Y125510D01*
X709898Y125318D01*
X709956Y125134D01*
X709958Y125130D01*
X709959Y125126D01*
X710055Y124953D01*
X710149Y124781D01*
X710152Y124778D01*
X710154Y124774D01*
X710281Y124624D01*
X710408Y124473D01*
X710411Y124470D01*
X710414Y124467D01*
X710570Y124344D01*
X710723Y124222D01*
X710727Y124220D01*
X710730Y124217D01*
X710907Y124127D01*
X711081Y124038D01*
X711085Y124037D01*
X711089Y124035D01*
X711281Y123981D01*
X711468Y123928D01*
X711473Y123928D01*
X711477Y123927D01*
X711679Y123912D01*
X711870Y123897D01*
X711874Y123898D01*
G37*
G36*
X671826Y715563D02*
X671826Y715563D01*
X671844Y715561D01*
X672026Y715582D01*
X672209Y715601D01*
X672226Y715606D01*
X672243Y715608D01*
X672418Y715665D01*
X672594Y715719D01*
X672609Y715727D01*
X672626Y715733D01*
X672786Y715823D01*
X672948Y715911D01*
X672961Y715922D01*
X672977Y715931D01*
X673116Y716051D01*
X673257Y716168D01*
X673268Y716182D01*
X673282Y716194D01*
X673394Y716339D01*
X673509Y716482D01*
X673517Y716498D01*
X673528Y716512D01*
X673610Y716677D01*
X673695Y716839D01*
X673700Y716856D01*
X673708Y716872D01*
X673755Y717051D01*
X673806Y717226D01*
X673808Y717244D01*
X673812Y717261D01*
X673839Y717592D01*
X673839Y783989D01*
X673837Y784016D01*
X673839Y784043D01*
X673817Y784216D01*
X673799Y784390D01*
X673792Y784416D01*
X673788Y784442D01*
X673732Y784608D01*
X673681Y784775D01*
X673668Y784799D01*
X673660Y784824D01*
X673573Y784976D01*
X673489Y785129D01*
X673472Y785149D01*
X673459Y785173D01*
X673244Y785426D01*
X664620Y794050D01*
X661139Y802453D01*
X661139Y811313D01*
X661137Y811340D01*
X661139Y811366D01*
X661117Y811540D01*
X661099Y811714D01*
X661092Y811739D01*
X661088Y811766D01*
X661033Y811931D01*
X660981Y812099D01*
X660968Y812122D01*
X660960Y812148D01*
X660873Y812299D01*
X660789Y812453D01*
X660772Y812473D01*
X660759Y812496D01*
X660544Y812749D01*
X659609Y813684D01*
X655596Y820635D01*
X653519Y828387D01*
X653519Y836413D01*
X655596Y844165D01*
X659609Y851116D01*
X665284Y856791D01*
X672235Y860804D01*
X679987Y862881D01*
X688013Y862881D01*
X695765Y860804D01*
X702716Y856791D01*
X708391Y851116D01*
X712404Y844165D01*
X714481Y836413D01*
X714481Y828387D01*
X712404Y820635D01*
X712157Y820208D01*
X712097Y820074D01*
X712029Y819945D01*
X712014Y819891D01*
X711991Y819841D01*
X711958Y819698D01*
X711918Y819558D01*
X711913Y819502D01*
X711901Y819448D01*
X711897Y819302D01*
X711885Y819156D01*
X711891Y819101D01*
X711890Y819046D01*
X711915Y818902D01*
X711932Y818757D01*
X711949Y818704D01*
X711959Y818649D01*
X712011Y818513D01*
X712057Y818374D01*
X712084Y818325D01*
X712104Y818274D01*
X712183Y818150D01*
X712255Y818023D01*
X712291Y817981D01*
X712321Y817934D01*
X712422Y817829D01*
X712518Y817718D01*
X712562Y817684D01*
X712600Y817645D01*
X712720Y817561D01*
X712836Y817472D01*
X712886Y817447D01*
X712931Y817415D01*
X713065Y817358D01*
X713196Y817292D01*
X713250Y817278D01*
X713301Y817256D01*
X713444Y817226D01*
X713585Y817188D01*
X713648Y817183D01*
X713695Y817173D01*
X713779Y817172D01*
X713916Y817161D01*
X738205Y817161D01*
X738214Y817162D01*
X738223Y817161D01*
X738417Y817182D01*
X738606Y817201D01*
X738615Y817203D01*
X738623Y817204D01*
X738807Y817262D01*
X738991Y817319D01*
X738999Y817323D01*
X739007Y817326D01*
X739175Y817418D01*
X739345Y817511D01*
X739352Y817516D01*
X739360Y817521D01*
X739507Y817645D01*
X739654Y817768D01*
X739660Y817775D01*
X739667Y817781D01*
X739786Y817933D01*
X739907Y818082D01*
X739911Y818090D01*
X739916Y818097D01*
X740004Y818270D01*
X740092Y818439D01*
X740095Y818448D01*
X740099Y818456D01*
X740151Y818642D01*
X740204Y818826D01*
X740204Y818835D01*
X740207Y818844D01*
X740221Y819037D01*
X740236Y819228D01*
X740235Y819236D01*
X740236Y819245D01*
X740212Y819438D01*
X740189Y819627D01*
X740187Y819636D01*
X740186Y819645D01*
X740124Y819828D01*
X740065Y820010D01*
X740060Y820018D01*
X740057Y820026D01*
X739961Y820193D01*
X739867Y820361D01*
X739861Y820368D01*
X739856Y820375D01*
X739642Y820628D01*
X728120Y832150D01*
X724639Y840553D01*
X724639Y927048D01*
X724637Y927066D01*
X724639Y927084D01*
X724618Y927266D01*
X724599Y927449D01*
X724599Y927640D01*
X724583Y927802D01*
X724573Y927966D01*
X724563Y928003D01*
X724559Y928040D01*
X724511Y928197D01*
X724469Y928355D01*
X724451Y928393D01*
X724441Y928425D01*
X724400Y928502D01*
X724327Y928655D01*
X723905Y929387D01*
X723594Y930547D01*
X723546Y930675D01*
X723505Y930807D01*
X723474Y930863D01*
X723452Y930923D01*
X723379Y931040D01*
X723313Y931161D01*
X723272Y931210D01*
X723238Y931265D01*
X723143Y931364D01*
X723056Y931470D01*
X723006Y931510D01*
X722961Y931557D01*
X722849Y931636D01*
X722742Y931722D01*
X722685Y931752D01*
X722632Y931789D01*
X722506Y931844D01*
X722385Y931908D01*
X722323Y931925D01*
X722264Y931951D01*
X722130Y931981D01*
X721998Y932019D01*
X721934Y932024D01*
X721871Y932038D01*
X721733Y932041D01*
X721596Y932052D01*
X721532Y932044D01*
X721468Y932046D01*
X721333Y932021D01*
X721197Y932005D01*
X721135Y931985D01*
X721072Y931974D01*
X720945Y931923D01*
X720814Y931880D01*
X720758Y931849D01*
X720698Y931825D01*
X720583Y931750D01*
X720463Y931682D01*
X720414Y931640D01*
X720360Y931605D01*
X720262Y931509D01*
X720158Y931419D01*
X720119Y931368D01*
X720073Y931323D01*
X719996Y931209D01*
X719912Y931101D01*
X719883Y931043D01*
X719847Y930990D01*
X719794Y930864D01*
X719732Y930741D01*
X719716Y930678D01*
X719691Y930619D01*
X719664Y930485D01*
X719628Y930352D01*
X719622Y930278D01*
X719611Y930224D01*
X719611Y930145D01*
X719601Y930021D01*
X719601Y929373D01*
X718230Y929818D01*
X716816Y930538D01*
X715533Y931471D01*
X714411Y932593D01*
X713478Y933876D01*
X712758Y935290D01*
X712268Y936799D01*
X712019Y938367D01*
X712019Y944201D01*
X720148Y944201D01*
X720166Y944202D01*
X720184Y944201D01*
X720366Y944222D01*
X720549Y944241D01*
X720566Y944246D01*
X720583Y944248D01*
X720758Y944305D01*
X720934Y944359D01*
X720949Y944367D01*
X720966Y944373D01*
X721126Y944463D01*
X721288Y944550D01*
X721301Y944562D01*
X721317Y944571D01*
X721456Y944691D01*
X721597Y944808D01*
X721608Y944822D01*
X721622Y944834D01*
X721734Y944979D01*
X721849Y945122D01*
X721857Y945138D01*
X721868Y945152D01*
X721950Y945317D01*
X722035Y945479D01*
X722040Y945496D01*
X722048Y945512D01*
X722095Y945691D01*
X722146Y945866D01*
X722148Y945884D01*
X722152Y945901D01*
X722179Y946232D01*
X722179Y947168D01*
X722177Y947186D01*
X722179Y947204D01*
X722158Y947386D01*
X722139Y947569D01*
X722134Y947586D01*
X722132Y947603D01*
X722075Y947778D01*
X722021Y947954D01*
X722013Y947969D01*
X722007Y947986D01*
X721917Y948146D01*
X721829Y948308D01*
X721818Y948321D01*
X721809Y948337D01*
X721689Y948476D01*
X721572Y948617D01*
X721558Y948628D01*
X721546Y948642D01*
X721401Y948754D01*
X721258Y948869D01*
X721242Y948877D01*
X721228Y948888D01*
X721063Y948970D01*
X720901Y949055D01*
X720884Y949060D01*
X720868Y949068D01*
X720689Y949115D01*
X720514Y949166D01*
X720496Y949168D01*
X720479Y949172D01*
X720148Y949199D01*
X712019Y949199D01*
X712019Y955033D01*
X712268Y956601D01*
X712758Y958110D01*
X713478Y959524D01*
X714411Y960807D01*
X715533Y961929D01*
X716816Y962862D01*
X718230Y963582D01*
X719601Y964027D01*
X719601Y963379D01*
X719614Y963242D01*
X719619Y963105D01*
X719634Y963042D01*
X719641Y962978D01*
X719681Y962847D01*
X719713Y962713D01*
X719740Y962655D01*
X719759Y962593D01*
X719824Y962473D01*
X719882Y962348D01*
X719920Y962296D01*
X719950Y962239D01*
X720038Y962134D01*
X720120Y962023D01*
X720167Y961980D01*
X720208Y961930D01*
X720315Y961844D01*
X720417Y961751D01*
X720472Y961718D01*
X720522Y961678D01*
X720644Y961615D01*
X720762Y961544D01*
X720822Y961522D01*
X720879Y961492D01*
X721011Y961454D01*
X721141Y961408D01*
X721204Y961399D01*
X721266Y961381D01*
X721403Y961370D01*
X721539Y961350D01*
X721603Y961353D01*
X721667Y961348D01*
X721804Y961364D01*
X721941Y961371D01*
X722004Y961387D01*
X722067Y961395D01*
X722198Y961438D01*
X722331Y961472D01*
X722389Y961500D01*
X722450Y961520D01*
X722570Y961587D01*
X722693Y961647D01*
X722745Y961686D01*
X722801Y961718D01*
X722905Y961807D01*
X723014Y961891D01*
X723057Y961939D01*
X723105Y961981D01*
X723190Y962089D01*
X723281Y962192D01*
X723313Y962248D01*
X723352Y962299D01*
X723413Y962422D01*
X723482Y962541D01*
X723507Y962610D01*
X723532Y962659D01*
X723552Y962737D01*
X723594Y962853D01*
X723905Y964013D01*
X724327Y964745D01*
X724395Y964894D01*
X724468Y965041D01*
X724471Y965055D01*
X724480Y965064D01*
X724558Y965177D01*
X724611Y965242D01*
X724633Y965284D01*
X724669Y965336D01*
X727238Y969787D01*
X731953Y974502D01*
X737727Y977835D01*
X744166Y979561D01*
X750834Y979561D01*
X757273Y977835D01*
X763047Y974502D01*
X767762Y969787D01*
X767839Y969654D01*
X767882Y969594D01*
X767917Y969530D01*
X767999Y969431D01*
X768074Y969326D01*
X768127Y969277D01*
X768174Y969220D01*
X768274Y969140D01*
X768368Y969052D01*
X768431Y969014D01*
X768488Y968968D01*
X768602Y968909D01*
X768712Y968841D01*
X768780Y968816D01*
X768845Y968782D01*
X768969Y968747D01*
X769089Y968703D01*
X769162Y968691D01*
X769232Y968671D01*
X769361Y968661D01*
X769487Y968641D01*
X769560Y968644D01*
X769634Y968638D01*
X769761Y968653D01*
X769889Y968659D01*
X769961Y968677D01*
X770033Y968685D01*
X770156Y968725D01*
X770280Y968756D01*
X770346Y968787D01*
X770416Y968810D01*
X770528Y968873D01*
X770644Y968928D01*
X770703Y968972D01*
X770767Y969008D01*
X770864Y969092D01*
X770967Y969169D01*
X771016Y969223D01*
X771072Y969271D01*
X771150Y969372D01*
X771236Y969468D01*
X771273Y969531D01*
X771318Y969589D01*
X771375Y969704D01*
X771441Y969815D01*
X771465Y969884D01*
X771498Y969950D01*
X771531Y970074D01*
X771573Y970195D01*
X771583Y970268D01*
X771602Y970338D01*
X771609Y970428D01*
X786834Y985652D01*
X786839Y985659D01*
X786846Y985664D01*
X786966Y985814D01*
X787089Y985963D01*
X787093Y985971D01*
X787098Y985978D01*
X787187Y986148D01*
X787277Y986319D01*
X787280Y986328D01*
X787284Y986335D01*
X787337Y986520D01*
X787392Y986705D01*
X787393Y986714D01*
X787395Y986722D01*
X787411Y986914D01*
X787429Y987106D01*
X787428Y987115D01*
X787428Y987124D01*
X787406Y987313D01*
X787385Y987506D01*
X787382Y987515D01*
X787381Y987523D01*
X787322Y987705D01*
X787264Y987890D01*
X787259Y987898D01*
X787257Y987906D01*
X787161Y988075D01*
X787069Y988242D01*
X787063Y988249D01*
X787059Y988257D01*
X786933Y988403D01*
X786808Y988549D01*
X786801Y988555D01*
X786795Y988562D01*
X786644Y988679D01*
X786492Y988799D01*
X786484Y988803D01*
X786477Y988808D01*
X786305Y988894D01*
X786133Y988981D01*
X786125Y988984D01*
X786117Y988988D01*
X785930Y989038D01*
X785746Y989089D01*
X785737Y989090D01*
X785728Y989092D01*
X785397Y989119D01*
X361315Y989119D01*
X361306Y989118D01*
X361297Y989119D01*
X361103Y989098D01*
X360914Y989079D01*
X360905Y989077D01*
X360897Y989076D01*
X360712Y989017D01*
X360529Y988961D01*
X360521Y988957D01*
X360513Y988954D01*
X360344Y988861D01*
X360175Y988769D01*
X360168Y988764D01*
X360160Y988759D01*
X360013Y988635D01*
X359866Y988512D01*
X359860Y988505D01*
X359853Y988499D01*
X359734Y988347D01*
X359613Y988198D01*
X359609Y988190D01*
X359604Y988183D01*
X359516Y988010D01*
X359428Y987841D01*
X359425Y987832D01*
X359421Y987824D01*
X359369Y987638D01*
X359316Y987454D01*
X359316Y987445D01*
X359313Y987436D01*
X359299Y987243D01*
X359284Y987052D01*
X359285Y987044D01*
X359284Y987035D01*
X359308Y986842D01*
X359331Y986653D01*
X359333Y986644D01*
X359334Y986635D01*
X359396Y986453D01*
X359455Y986270D01*
X359460Y986262D01*
X359463Y986254D01*
X359559Y986087D01*
X359653Y985919D01*
X359659Y985912D01*
X359664Y985905D01*
X359878Y985652D01*
X468064Y877466D01*
X474780Y870750D01*
X478261Y862347D01*
X478261Y752795D01*
X478262Y752786D01*
X478261Y752777D01*
X478282Y752583D01*
X478301Y752394D01*
X478303Y752385D01*
X478304Y752377D01*
X478363Y752192D01*
X478419Y752009D01*
X478423Y752001D01*
X478426Y751993D01*
X478519Y751824D01*
X478611Y751655D01*
X478616Y751648D01*
X478621Y751640D01*
X478745Y751493D01*
X478868Y751346D01*
X478875Y751340D01*
X478881Y751333D01*
X479033Y751214D01*
X479182Y751093D01*
X479190Y751089D01*
X479197Y751084D01*
X479370Y750996D01*
X479539Y750908D01*
X479548Y750905D01*
X479556Y750901D01*
X479742Y750849D01*
X479926Y750796D01*
X479935Y750796D01*
X479944Y750793D01*
X480137Y750779D01*
X480328Y750764D01*
X480336Y750765D01*
X480345Y750764D01*
X480538Y750788D01*
X480727Y750811D01*
X480736Y750813D01*
X480745Y750814D01*
X480927Y750876D01*
X481110Y750935D01*
X481118Y750940D01*
X481126Y750943D01*
X481293Y751039D01*
X481461Y751133D01*
X481468Y751139D01*
X481475Y751144D01*
X481728Y751358D01*
X486534Y756164D01*
X493250Y762880D01*
X501653Y766361D01*
X516314Y766361D01*
X516323Y766362D01*
X516332Y766361D01*
X516525Y766382D01*
X516715Y766401D01*
X516723Y766403D01*
X516732Y766404D01*
X516916Y766462D01*
X517100Y766519D01*
X517108Y766523D01*
X517116Y766526D01*
X517284Y766618D01*
X517454Y766711D01*
X517461Y766716D01*
X517469Y766721D01*
X517616Y766845D01*
X517763Y766968D01*
X517769Y766975D01*
X517776Y766981D01*
X517895Y767133D01*
X518015Y767282D01*
X518020Y767290D01*
X518025Y767297D01*
X518113Y767470D01*
X518201Y767639D01*
X518203Y767648D01*
X518207Y767656D01*
X518259Y767842D01*
X518312Y768026D01*
X518313Y768035D01*
X518315Y768044D01*
X518330Y768237D01*
X518345Y768428D01*
X518344Y768436D01*
X518345Y768445D01*
X518321Y768638D01*
X518298Y768827D01*
X518296Y768836D01*
X518294Y768845D01*
X518233Y769028D01*
X518173Y769210D01*
X518169Y769218D01*
X518166Y769226D01*
X518070Y769393D01*
X517976Y769561D01*
X517970Y769568D01*
X517965Y769575D01*
X517751Y769828D01*
X506592Y780986D01*
X506592Y810214D01*
X527259Y830881D01*
X556487Y830881D01*
X577154Y810214D01*
X577154Y780986D01*
X565996Y769828D01*
X565990Y769821D01*
X565983Y769816D01*
X565863Y769666D01*
X565741Y769517D01*
X565737Y769509D01*
X565731Y769502D01*
X565643Y769332D01*
X565552Y769161D01*
X565550Y769152D01*
X565545Y769145D01*
X565492Y768960D01*
X565437Y768775D01*
X565437Y768766D01*
X565434Y768758D01*
X565418Y768566D01*
X565401Y768374D01*
X565402Y768365D01*
X565401Y768356D01*
X565423Y768167D01*
X565444Y767974D01*
X565447Y767965D01*
X565448Y767957D01*
X565507Y767775D01*
X565566Y767590D01*
X565570Y767582D01*
X565573Y767574D01*
X565669Y767404D01*
X565761Y767238D01*
X565766Y767231D01*
X565771Y767223D01*
X565897Y767077D01*
X566021Y766931D01*
X566028Y766925D01*
X566034Y766918D01*
X566185Y766801D01*
X566337Y766681D01*
X566345Y766677D01*
X566352Y766672D01*
X566524Y766586D01*
X566696Y766499D01*
X566705Y766496D01*
X566713Y766492D01*
X566899Y766442D01*
X567084Y766391D01*
X567093Y766390D01*
X567101Y766388D01*
X567432Y766361D01*
X574247Y766361D01*
X582650Y762880D01*
X626453Y719077D01*
X626474Y719060D01*
X626491Y719039D01*
X626629Y718932D01*
X626765Y718822D01*
X626788Y718809D01*
X626810Y718793D01*
X626967Y718715D01*
X627121Y718633D01*
X627146Y718625D01*
X627170Y718613D01*
X627340Y718568D01*
X627506Y718518D01*
X627533Y718516D01*
X627559Y718509D01*
X627890Y718482D01*
X643879Y718482D01*
X646205Y716156D01*
X646226Y716139D01*
X646243Y716118D01*
X646381Y716011D01*
X646517Y715901D01*
X646540Y715888D01*
X646561Y715872D01*
X646718Y715794D01*
X646872Y715712D01*
X646898Y715704D01*
X646922Y715692D01*
X647091Y715647D01*
X647258Y715597D01*
X647285Y715595D01*
X647311Y715588D01*
X647641Y715561D01*
X671808Y715561D01*
X671826Y715563D01*
G37*
G36*
X68909Y170277D02*
X68909Y170277D01*
X69073Y170287D01*
X69109Y170297D01*
X69147Y170301D01*
X69304Y170349D01*
X69462Y170391D01*
X69500Y170409D01*
X69532Y170419D01*
X69609Y170460D01*
X69762Y170533D01*
X69949Y170641D01*
X70068Y170726D01*
X70191Y170805D01*
X70231Y170843D01*
X70276Y170876D01*
X70376Y170983D01*
X70481Y171084D01*
X70512Y171130D01*
X70550Y171170D01*
X70627Y171295D01*
X70710Y171415D01*
X70732Y171466D01*
X70761Y171514D01*
X70812Y171651D01*
X70869Y171785D01*
X70881Y171839D01*
X70900Y171891D01*
X70922Y172036D01*
X70953Y172179D01*
X70953Y172235D01*
X70962Y172289D01*
X70955Y172435D01*
X70956Y172582D01*
X70946Y172636D01*
X70944Y172692D01*
X70908Y172833D01*
X70881Y172977D01*
X70860Y173028D01*
X70847Y173082D01*
X70784Y173215D01*
X70729Y173350D01*
X70698Y173396D01*
X70674Y173446D01*
X70587Y173564D01*
X70506Y173685D01*
X70467Y173725D01*
X70434Y173769D01*
X70325Y173867D01*
X70222Y173970D01*
X70170Y174006D01*
X70134Y174038D01*
X70062Y174081D01*
X69949Y174159D01*
X69476Y174432D01*
X64132Y179776D01*
X60353Y186321D01*
X58397Y193621D01*
X58397Y201179D01*
X60353Y208479D01*
X64132Y215024D01*
X69476Y220368D01*
X76021Y224147D01*
X83321Y226103D01*
X90879Y226103D01*
X98179Y224147D01*
X104724Y220368D01*
X110068Y215024D01*
X111885Y211876D01*
X111938Y211802D01*
X111983Y211723D01*
X112055Y211639D01*
X112120Y211549D01*
X112187Y211487D01*
X112246Y211418D01*
X112333Y211351D01*
X112415Y211275D01*
X112492Y211227D01*
X112564Y211172D01*
X112663Y211122D01*
X112758Y211064D01*
X112843Y211033D01*
X112925Y210992D01*
X113032Y210964D01*
X113136Y210925D01*
X113226Y210912D01*
X113314Y210888D01*
X113451Y210877D01*
X113534Y210864D01*
X113581Y210866D01*
X113644Y210861D01*
X128029Y210861D01*
X128038Y210862D01*
X128047Y210861D01*
X128239Y210882D01*
X128430Y210901D01*
X128438Y210903D01*
X128447Y210904D01*
X128630Y210962D01*
X128815Y211019D01*
X128823Y211023D01*
X128831Y211026D01*
X128999Y211119D01*
X129169Y211211D01*
X129176Y211216D01*
X129183Y211221D01*
X129330Y211345D01*
X129478Y211468D01*
X129484Y211475D01*
X129490Y211481D01*
X129609Y211632D01*
X129730Y211782D01*
X129734Y211790D01*
X129740Y211797D01*
X129828Y211970D01*
X129916Y212139D01*
X129918Y212148D01*
X129922Y212156D01*
X129974Y212342D01*
X130027Y212526D01*
X130028Y212535D01*
X130030Y212544D01*
X130044Y212737D01*
X130060Y212928D01*
X130059Y212936D01*
X130060Y212945D01*
X130035Y213138D01*
X130013Y213327D01*
X130010Y213336D01*
X130009Y213345D01*
X129948Y213528D01*
X129888Y213710D01*
X129884Y213718D01*
X129881Y213726D01*
X129785Y213893D01*
X129690Y214061D01*
X129685Y214068D01*
X129680Y214075D01*
X129465Y214328D01*
X124219Y219574D01*
X124219Y244826D01*
X142074Y262681D01*
X167326Y262681D01*
X174351Y255656D01*
X174371Y255639D01*
X174389Y255618D01*
X174527Y255511D01*
X174662Y255401D01*
X174686Y255388D01*
X174707Y255372D01*
X174863Y255294D01*
X175018Y255212D01*
X175043Y255204D01*
X175067Y255192D01*
X175237Y255147D01*
X175404Y255097D01*
X175430Y255095D01*
X175456Y255088D01*
X175787Y255061D01*
X212989Y255061D01*
X213016Y255063D01*
X213043Y255061D01*
X213217Y255083D01*
X213390Y255101D01*
X213416Y255108D01*
X213442Y255112D01*
X213608Y255167D01*
X213775Y255219D01*
X213799Y255232D01*
X213824Y255240D01*
X213975Y255327D01*
X214129Y255411D01*
X214149Y255428D01*
X214173Y255441D01*
X214426Y255656D01*
X221888Y263118D01*
X221897Y263129D01*
X221907Y263137D01*
X222024Y263284D01*
X222143Y263430D01*
X222150Y263442D01*
X222158Y263452D01*
X222244Y263619D01*
X222332Y263785D01*
X222336Y263798D01*
X222342Y263810D01*
X222393Y263991D01*
X222447Y264171D01*
X222448Y264185D01*
X222452Y264198D01*
X222466Y264383D01*
X222483Y264572D01*
X222482Y264586D01*
X222483Y264599D01*
X222460Y264784D01*
X222440Y264973D01*
X222436Y264986D01*
X222434Y264999D01*
X222375Y265176D01*
X222318Y265356D01*
X222312Y265368D01*
X222308Y265381D01*
X222214Y265545D01*
X222123Y265709D01*
X222115Y265719D01*
X222108Y265731D01*
X221984Y265873D01*
X221863Y266016D01*
X221852Y266024D01*
X221844Y266034D01*
X221694Y266149D01*
X221547Y266265D01*
X221535Y266271D01*
X221525Y266280D01*
X221229Y266431D01*
X214201Y269342D01*
X194342Y289201D01*
X191171Y296857D01*
X191171Y333531D01*
X191169Y333558D01*
X191171Y333584D01*
X191149Y333758D01*
X191131Y333932D01*
X191124Y333957D01*
X191120Y333984D01*
X191064Y334150D01*
X191013Y334317D01*
X191001Y334340D01*
X190992Y334365D01*
X190905Y334517D01*
X190821Y334671D01*
X190804Y334691D01*
X190791Y334714D01*
X190576Y334967D01*
X188648Y336895D01*
X188641Y336901D01*
X188636Y336908D01*
X188486Y337028D01*
X188337Y337151D01*
X188329Y337155D01*
X188322Y337160D01*
X188152Y337249D01*
X187981Y337339D01*
X187972Y337342D01*
X187965Y337346D01*
X187780Y337399D01*
X187595Y337454D01*
X187586Y337455D01*
X187578Y337457D01*
X187387Y337473D01*
X187194Y337490D01*
X187185Y337489D01*
X187176Y337490D01*
X186987Y337468D01*
X186794Y337447D01*
X186785Y337444D01*
X186777Y337443D01*
X186595Y337384D01*
X186410Y337325D01*
X186402Y337321D01*
X186394Y337318D01*
X186227Y337224D01*
X186058Y337131D01*
X186051Y337125D01*
X186043Y337120D01*
X185898Y336995D01*
X185751Y336870D01*
X185745Y336863D01*
X185738Y336857D01*
X185622Y336707D01*
X185501Y336554D01*
X185497Y336546D01*
X185492Y336539D01*
X185406Y336368D01*
X185319Y336195D01*
X185316Y336187D01*
X185312Y336179D01*
X185262Y335993D01*
X185211Y335807D01*
X185210Y335798D01*
X185208Y335790D01*
X185181Y335459D01*
X185181Y321174D01*
X167326Y303319D01*
X142074Y303319D01*
X135049Y310344D01*
X135029Y310361D01*
X135011Y310382D01*
X134873Y310489D01*
X134738Y310599D01*
X134714Y310612D01*
X134693Y310628D01*
X134537Y310706D01*
X134382Y310788D01*
X134357Y310796D01*
X134333Y310808D01*
X134163Y310853D01*
X133996Y310903D01*
X133970Y310905D01*
X133944Y310912D01*
X133613Y310939D01*
X97647Y310939D01*
X97548Y310929D01*
X97448Y310929D01*
X97326Y310907D01*
X97247Y310899D01*
X97194Y310883D01*
X97122Y310870D01*
X90879Y309197D01*
X83321Y309197D01*
X76021Y311153D01*
X71147Y313967D01*
X70998Y314035D01*
X70851Y314108D01*
X70815Y314117D01*
X70781Y314133D01*
X70621Y314169D01*
X70463Y314212D01*
X70420Y314216D01*
X70388Y314223D01*
X70301Y314225D01*
X70132Y314239D01*
X51032Y314239D01*
X51014Y314237D01*
X50996Y314239D01*
X50814Y314218D01*
X50631Y314199D01*
X50614Y314194D01*
X50597Y314192D01*
X50422Y314135D01*
X50246Y314081D01*
X50231Y314073D01*
X50214Y314067D01*
X50054Y313977D01*
X49892Y313889D01*
X49879Y313878D01*
X49863Y313869D01*
X49724Y313749D01*
X49583Y313632D01*
X49572Y313618D01*
X49558Y313606D01*
X49446Y313461D01*
X49331Y313318D01*
X49323Y313302D01*
X49312Y313288D01*
X49230Y313123D01*
X49145Y312961D01*
X49140Y312944D01*
X49132Y312928D01*
X49085Y312749D01*
X49034Y312574D01*
X49032Y312556D01*
X49028Y312539D01*
X49001Y312208D01*
X49001Y172292D01*
X49003Y172274D01*
X49001Y172256D01*
X49022Y172074D01*
X49041Y171891D01*
X49046Y171874D01*
X49048Y171857D01*
X49105Y171682D01*
X49159Y171506D01*
X49167Y171491D01*
X49173Y171474D01*
X49263Y171314D01*
X49351Y171152D01*
X49362Y171139D01*
X49371Y171123D01*
X49491Y170984D01*
X49608Y170843D01*
X49622Y170832D01*
X49634Y170818D01*
X49779Y170706D01*
X49922Y170591D01*
X49938Y170583D01*
X49952Y170572D01*
X50117Y170490D01*
X50279Y170405D01*
X50296Y170400D01*
X50312Y170392D01*
X50491Y170345D01*
X50666Y170294D01*
X50684Y170292D01*
X50701Y170288D01*
X51032Y170261D01*
X68746Y170261D01*
X68909Y170277D01*
G37*
G36*
X229823Y355583D02*
X229823Y355583D01*
X229905Y355582D01*
X230022Y355605D01*
X230141Y355618D01*
X230220Y355642D01*
X230301Y355658D01*
X230411Y355703D01*
X230525Y355739D01*
X230597Y355779D01*
X230673Y355810D01*
X230773Y355876D01*
X230878Y355934D01*
X230940Y355987D01*
X231009Y356033D01*
X231093Y356117D01*
X231185Y356194D01*
X231236Y356259D01*
X231294Y356317D01*
X231381Y356443D01*
X231434Y356510D01*
X231453Y356546D01*
X231483Y356590D01*
X232687Y358677D01*
X237227Y363217D01*
X242788Y366427D01*
X248990Y368089D01*
X255410Y368089D01*
X261612Y366427D01*
X263884Y365115D01*
X263967Y365078D01*
X264046Y365031D01*
X264150Y364995D01*
X264251Y364949D01*
X264340Y364929D01*
X264426Y364899D01*
X264536Y364884D01*
X264644Y364859D01*
X264735Y364857D01*
X264825Y364844D01*
X264935Y364851D01*
X265046Y364848D01*
X265136Y364864D01*
X265227Y364869D01*
X265334Y364898D01*
X265443Y364917D01*
X265528Y364950D01*
X265616Y364973D01*
X265740Y365032D01*
X265818Y365062D01*
X265859Y365088D01*
X265916Y365115D01*
X268188Y366427D01*
X274198Y368037D01*
X274334Y368089D01*
X274474Y368133D01*
X274522Y368160D01*
X274574Y368179D01*
X274698Y368257D01*
X274826Y368328D01*
X274868Y368364D01*
X274915Y368393D01*
X275022Y368494D01*
X275133Y368588D01*
X275167Y368632D01*
X275208Y368670D01*
X275292Y368790D01*
X275383Y368904D01*
X275408Y368954D01*
X275440Y368999D01*
X275499Y369133D01*
X275565Y369263D01*
X275580Y369317D01*
X275602Y369367D01*
X275634Y369510D01*
X275673Y369651D01*
X275677Y369706D01*
X275689Y369761D01*
X275692Y369907D01*
X275702Y370053D01*
X275695Y370108D01*
X275696Y370163D01*
X275670Y370307D01*
X275652Y370452D01*
X275634Y370505D01*
X275624Y370559D01*
X275570Y370695D01*
X275524Y370834D01*
X275496Y370882D01*
X275476Y370933D01*
X275396Y371056D01*
X275323Y371183D01*
X275282Y371231D01*
X275256Y371271D01*
X275197Y371331D01*
X275108Y371436D01*
X262967Y383576D01*
X262947Y383593D01*
X262929Y383614D01*
X262791Y383721D01*
X262656Y383831D01*
X262632Y383844D01*
X262611Y383860D01*
X262454Y383938D01*
X262300Y384020D01*
X262275Y384028D01*
X262251Y384040D01*
X262081Y384085D01*
X261914Y384135D01*
X261888Y384137D01*
X261862Y384144D01*
X261531Y384171D01*
X230857Y384171D01*
X223201Y387342D01*
X181742Y428801D01*
X178571Y436457D01*
X178571Y437351D01*
X178555Y437514D01*
X178545Y437677D01*
X178535Y437714D01*
X178531Y437751D01*
X178483Y437908D01*
X178441Y438066D01*
X178423Y438104D01*
X178413Y438136D01*
X178372Y438213D01*
X178299Y438366D01*
X176569Y441364D01*
X176516Y441438D01*
X176471Y441517D01*
X176398Y441601D01*
X176375Y441634D01*
X176369Y441655D01*
X176351Y441693D01*
X176341Y441725D01*
X176300Y441802D01*
X176227Y441955D01*
X175805Y442687D01*
X175494Y443847D01*
X175445Y443975D01*
X175405Y444107D01*
X175396Y444124D01*
X175392Y444134D01*
X175371Y444172D01*
X175352Y444223D01*
X175279Y444340D01*
X175213Y444461D01*
X175197Y444480D01*
X175195Y444485D01*
X175171Y444512D01*
X175138Y444565D01*
X175044Y444664D01*
X174956Y444770D01*
X174932Y444789D01*
X174931Y444790D01*
X174924Y444795D01*
X174905Y444810D01*
X174861Y444857D01*
X174749Y444936D01*
X174642Y445022D01*
X174585Y445052D01*
X174532Y445089D01*
X174406Y445145D01*
X174285Y445208D01*
X174223Y445225D01*
X174164Y445251D01*
X174030Y445281D01*
X173898Y445319D01*
X173834Y445324D01*
X173771Y445338D01*
X173633Y445341D01*
X173496Y445352D01*
X173432Y445344D01*
X173368Y445346D01*
X173233Y445321D01*
X173097Y445305D01*
X173035Y445285D01*
X172972Y445274D01*
X172844Y445223D01*
X172714Y445180D01*
X172658Y445149D01*
X172598Y445125D01*
X172483Y445050D01*
X172363Y444982D01*
X172315Y444940D01*
X172260Y444905D01*
X172162Y444809D01*
X172058Y444719D01*
X172019Y444668D01*
X171973Y444623D01*
X171896Y444509D01*
X171837Y444434D01*
X171831Y444426D01*
X171830Y444425D01*
X171812Y444401D01*
X171783Y444343D01*
X171747Y444290D01*
X171694Y444164D01*
X171671Y444118D01*
X171645Y444069D01*
X171644Y444063D01*
X171632Y444040D01*
X171616Y443978D01*
X171591Y443919D01*
X171564Y443785D01*
X171534Y443682D01*
X171533Y443671D01*
X171528Y443652D01*
X171522Y443578D01*
X171511Y443524D01*
X171511Y443444D01*
X171501Y443321D01*
X171501Y442673D01*
X170130Y443118D01*
X168716Y443838D01*
X167433Y444771D01*
X166311Y445893D01*
X165378Y447176D01*
X164658Y448590D01*
X164168Y450099D01*
X163919Y451667D01*
X163919Y457501D01*
X172048Y457501D01*
X172066Y457502D01*
X172084Y457501D01*
X172266Y457522D01*
X172449Y457541D01*
X172466Y457546D01*
X172483Y457548D01*
X172658Y457605D01*
X172834Y457659D01*
X172849Y457667D01*
X172866Y457673D01*
X173026Y457763D01*
X173188Y457850D01*
X173201Y457862D01*
X173217Y457871D01*
X173356Y457991D01*
X173497Y458108D01*
X173508Y458122D01*
X173522Y458134D01*
X173634Y458279D01*
X173749Y458422D01*
X173757Y458438D01*
X173768Y458452D01*
X173850Y458617D01*
X173935Y458779D01*
X173940Y458796D01*
X173948Y458812D01*
X173995Y458991D01*
X174046Y459166D01*
X174048Y459184D01*
X174052Y459201D01*
X174079Y459532D01*
X174079Y460468D01*
X174077Y460486D01*
X174079Y460504D01*
X174058Y460686D01*
X174039Y460869D01*
X174034Y460886D01*
X174032Y460903D01*
X173975Y461078D01*
X173921Y461254D01*
X173913Y461269D01*
X173907Y461286D01*
X173817Y461446D01*
X173729Y461608D01*
X173718Y461621D01*
X173709Y461637D01*
X173589Y461776D01*
X173472Y461917D01*
X173458Y461928D01*
X173446Y461942D01*
X173301Y462054D01*
X173158Y462169D01*
X173142Y462177D01*
X173128Y462188D01*
X172963Y462270D01*
X172801Y462355D01*
X172784Y462360D01*
X172768Y462368D01*
X172590Y462415D01*
X172414Y462466D01*
X172396Y462468D01*
X172379Y462472D01*
X172048Y462499D01*
X163919Y462499D01*
X163919Y463108D01*
X163917Y463126D01*
X163919Y463144D01*
X163898Y463326D01*
X163879Y463509D01*
X163874Y463526D01*
X163872Y463543D01*
X163815Y463718D01*
X163761Y463894D01*
X163753Y463909D01*
X163747Y463926D01*
X163657Y464086D01*
X163569Y464248D01*
X163558Y464261D01*
X163549Y464277D01*
X163429Y464416D01*
X163312Y464557D01*
X163298Y464568D01*
X163286Y464582D01*
X163141Y464694D01*
X162998Y464809D01*
X162982Y464817D01*
X162968Y464828D01*
X162803Y464910D01*
X162641Y464995D01*
X162624Y465000D01*
X162608Y465008D01*
X162429Y465055D01*
X162254Y465106D01*
X162236Y465108D01*
X162219Y465112D01*
X161888Y465139D01*
X57811Y465139D01*
X57784Y465137D01*
X57757Y465139D01*
X57583Y465117D01*
X57410Y465099D01*
X57384Y465092D01*
X57358Y465088D01*
X57192Y465033D01*
X57025Y464981D01*
X57001Y464968D01*
X56976Y464960D01*
X56825Y464873D01*
X56671Y464789D01*
X56651Y464772D01*
X56627Y464759D01*
X56374Y464544D01*
X49596Y457766D01*
X49579Y457745D01*
X49558Y457728D01*
X49451Y457590D01*
X49341Y457454D01*
X49328Y457431D01*
X49312Y457409D01*
X49234Y457252D01*
X49152Y457098D01*
X49144Y457073D01*
X49132Y457049D01*
X49087Y456879D01*
X49037Y456713D01*
X49035Y456686D01*
X49028Y456660D01*
X49001Y456329D01*
X49001Y361992D01*
X49003Y361974D01*
X49001Y361956D01*
X49022Y361774D01*
X49041Y361591D01*
X49046Y361574D01*
X49048Y361557D01*
X49105Y361382D01*
X49159Y361206D01*
X49167Y361191D01*
X49173Y361174D01*
X49263Y361014D01*
X49351Y360852D01*
X49362Y360839D01*
X49371Y360823D01*
X49491Y360684D01*
X49608Y360543D01*
X49622Y360532D01*
X49634Y360518D01*
X49779Y360406D01*
X49922Y360291D01*
X49938Y360283D01*
X49952Y360272D01*
X50117Y360190D01*
X50279Y360105D01*
X50296Y360100D01*
X50312Y360092D01*
X50491Y360045D01*
X50666Y359994D01*
X50684Y359992D01*
X50701Y359988D01*
X51032Y359961D01*
X67728Y359961D01*
X67754Y359963D01*
X67781Y359961D01*
X67955Y359983D01*
X68128Y360001D01*
X68154Y360008D01*
X68180Y360012D01*
X68346Y360067D01*
X68513Y360119D01*
X68537Y360132D01*
X68562Y360140D01*
X68714Y360227D01*
X68867Y360311D01*
X68888Y360328D01*
X68911Y360341D01*
X69164Y360556D01*
X69476Y360868D01*
X69949Y361141D01*
X70068Y361226D01*
X70191Y361305D01*
X70231Y361343D01*
X70276Y361376D01*
X70376Y361483D01*
X70481Y361584D01*
X70512Y361630D01*
X70550Y361671D01*
X70627Y361795D01*
X70710Y361915D01*
X70732Y361966D01*
X70761Y362014D01*
X70811Y362151D01*
X70869Y362285D01*
X70881Y362339D01*
X70900Y362391D01*
X70922Y362536D01*
X70953Y362679D01*
X70953Y362735D01*
X70962Y362789D01*
X70955Y362935D01*
X70956Y363082D01*
X70946Y363136D01*
X70944Y363192D01*
X70908Y363333D01*
X70881Y363477D01*
X70860Y363529D01*
X70847Y363582D01*
X70784Y363715D01*
X70729Y363850D01*
X70698Y363896D01*
X70674Y363946D01*
X70587Y364064D01*
X70506Y364185D01*
X70467Y364225D01*
X70434Y364269D01*
X70325Y364367D01*
X70222Y364470D01*
X70170Y364506D01*
X70134Y364538D01*
X70062Y364581D01*
X69949Y364659D01*
X69476Y364932D01*
X64132Y370276D01*
X60353Y376821D01*
X58397Y384121D01*
X58397Y391679D01*
X60353Y398979D01*
X64132Y405524D01*
X69476Y410868D01*
X76021Y414647D01*
X83321Y416603D01*
X90879Y416603D01*
X98179Y414647D01*
X104724Y410868D01*
X106268Y409324D01*
X106289Y409307D01*
X106306Y409286D01*
X106444Y409179D01*
X106580Y409069D01*
X106603Y409056D01*
X106624Y409040D01*
X106781Y408962D01*
X106935Y408880D01*
X106961Y408872D01*
X106985Y408860D01*
X107154Y408815D01*
X107321Y408765D01*
X107348Y408763D01*
X107374Y408756D01*
X107704Y408729D01*
X171243Y408729D01*
X178899Y405558D01*
X228287Y356169D01*
X228351Y356117D01*
X228408Y356058D01*
X228506Y355990D01*
X228599Y355914D01*
X228671Y355876D01*
X228739Y355829D01*
X228849Y355781D01*
X228954Y355725D01*
X229033Y355702D01*
X229109Y355669D01*
X229226Y355645D01*
X229340Y355611D01*
X229422Y355603D01*
X229502Y355586D01*
X229622Y355585D01*
X229741Y355574D01*
X229823Y355583D01*
G37*
G36*
X430058Y272746D02*
X430058Y272746D01*
X430086Y272744D01*
X430188Y272758D01*
X430291Y272763D01*
X430366Y272782D01*
X430436Y272790D01*
X430457Y272797D01*
X430485Y272801D01*
X430582Y272835D01*
X430682Y272860D01*
X430752Y272893D01*
X430818Y272915D01*
X430838Y272926D01*
X430864Y272935D01*
X430952Y272988D01*
X431046Y273032D01*
X431107Y273078D01*
X431169Y273113D01*
X431186Y273128D01*
X431210Y273142D01*
X431286Y273211D01*
X431368Y273272D01*
X431419Y273329D01*
X431474Y273376D01*
X431488Y273394D01*
X431508Y273412D01*
X431569Y273495D01*
X431638Y273572D01*
X431676Y273637D01*
X431720Y273694D01*
X431731Y273716D01*
X431747Y273737D01*
X431790Y273830D01*
X431843Y273918D01*
X431872Y274000D01*
X431900Y274054D01*
X431906Y274078D01*
X431917Y274101D01*
X431930Y274157D01*
X431957Y274230D01*
X431976Y274338D01*
X432004Y274443D01*
X432007Y274471D01*
X432012Y274493D01*
X432014Y274560D01*
X432026Y274627D01*
X432024Y274689D01*
X432031Y274774D01*
X432031Y276723D01*
X432173Y276773D01*
X432215Y276798D01*
X432260Y276816D01*
X432388Y276901D01*
X432519Y276979D01*
X432555Y277012D01*
X432596Y277039D01*
X432704Y277147D01*
X432817Y277249D01*
X432846Y277289D01*
X432881Y277323D01*
X433017Y277520D01*
X433056Y277573D01*
X433061Y277584D01*
X433070Y277596D01*
X435887Y282477D01*
X440427Y287017D01*
X445988Y290227D01*
X452190Y291889D01*
X458610Y291889D01*
X464812Y290227D01*
X467084Y288915D01*
X467167Y288878D01*
X467246Y288831D01*
X467350Y288795D01*
X467451Y288749D01*
X467540Y288729D01*
X467626Y288699D01*
X467736Y288684D01*
X467844Y288659D01*
X467935Y288657D01*
X468025Y288644D01*
X468135Y288651D01*
X468246Y288648D01*
X468336Y288664D01*
X468427Y288669D01*
X468534Y288698D01*
X468643Y288717D01*
X468728Y288750D01*
X468816Y288773D01*
X468940Y288832D01*
X469018Y288862D01*
X469059Y288888D01*
X469116Y288915D01*
X471388Y290227D01*
X477590Y291889D01*
X484010Y291889D01*
X490212Y290227D01*
X492484Y288915D01*
X492567Y288878D01*
X492646Y288831D01*
X492750Y288795D01*
X492851Y288749D01*
X492940Y288729D01*
X493026Y288699D01*
X493136Y288684D01*
X493244Y288659D01*
X493335Y288657D01*
X493425Y288644D01*
X493535Y288651D01*
X493646Y288648D01*
X493736Y288664D01*
X493827Y288669D01*
X493934Y288698D01*
X494043Y288717D01*
X494128Y288750D01*
X494216Y288773D01*
X494340Y288832D01*
X494418Y288862D01*
X494459Y288888D01*
X494516Y288915D01*
X496788Y290227D01*
X502990Y291889D01*
X509410Y291889D01*
X515612Y290227D01*
X517884Y288915D01*
X517967Y288878D01*
X518046Y288831D01*
X518150Y288795D01*
X518251Y288749D01*
X518340Y288729D01*
X518426Y288699D01*
X518536Y288684D01*
X518644Y288659D01*
X518735Y288657D01*
X518825Y288644D01*
X518935Y288651D01*
X519046Y288648D01*
X519136Y288664D01*
X519227Y288669D01*
X519334Y288698D01*
X519443Y288717D01*
X519528Y288750D01*
X519616Y288773D01*
X519740Y288832D01*
X519818Y288862D01*
X519859Y288888D01*
X519916Y288915D01*
X522188Y290227D01*
X528390Y291889D01*
X534810Y291889D01*
X541012Y290227D01*
X543284Y288915D01*
X543367Y288878D01*
X543446Y288831D01*
X543550Y288795D01*
X543651Y288749D01*
X543740Y288729D01*
X543826Y288699D01*
X543936Y288684D01*
X544044Y288659D01*
X544135Y288657D01*
X544225Y288644D01*
X544335Y288651D01*
X544446Y288648D01*
X544536Y288664D01*
X544627Y288669D01*
X544734Y288698D01*
X544843Y288717D01*
X544928Y288750D01*
X545016Y288773D01*
X545140Y288832D01*
X545218Y288862D01*
X545259Y288888D01*
X545316Y288915D01*
X547588Y290227D01*
X548019Y290342D01*
X548156Y290394D01*
X548295Y290438D01*
X548343Y290465D01*
X548395Y290485D01*
X548519Y290562D01*
X548647Y290633D01*
X548690Y290669D01*
X548737Y290698D01*
X548843Y290799D01*
X548954Y290893D01*
X548989Y290937D01*
X549029Y290975D01*
X549113Y291095D01*
X549204Y291209D01*
X549229Y291259D01*
X549261Y291304D01*
X549320Y291438D01*
X549386Y291568D01*
X549401Y291622D01*
X549423Y291673D01*
X549455Y291815D01*
X549494Y291956D01*
X549498Y292012D01*
X549510Y292066D01*
X549513Y292212D01*
X549524Y292358D01*
X549517Y292413D01*
X549518Y292468D01*
X549492Y292612D01*
X549473Y292757D01*
X549456Y292810D01*
X549446Y292864D01*
X549392Y293000D01*
X549345Y293139D01*
X549317Y293187D01*
X549297Y293238D01*
X549217Y293361D01*
X549144Y293488D01*
X549103Y293536D01*
X549077Y293576D01*
X549018Y293636D01*
X548929Y293741D01*
X537616Y305054D01*
X537584Y305113D01*
X537552Y305194D01*
X537489Y305290D01*
X537435Y305392D01*
X537380Y305459D01*
X537333Y305531D01*
X537252Y305613D01*
X537179Y305702D01*
X537111Y305757D01*
X537051Y305819D01*
X536955Y305883D01*
X536866Y305956D01*
X536789Y305996D01*
X536718Y306045D01*
X536611Y306090D01*
X536510Y306143D01*
X536426Y306167D01*
X536346Y306201D01*
X536234Y306224D01*
X536123Y306256D01*
X536037Y306264D01*
X535952Y306281D01*
X535836Y306281D01*
X535722Y306291D01*
X535636Y306281D01*
X535549Y306281D01*
X535407Y306255D01*
X535322Y306246D01*
X535280Y306232D01*
X535223Y306222D01*
X534810Y306111D01*
X528390Y306111D01*
X522188Y307773D01*
X519916Y309085D01*
X519833Y309122D01*
X519754Y309169D01*
X519650Y309205D01*
X519549Y309251D01*
X519460Y309271D01*
X519374Y309301D01*
X519264Y309316D01*
X519156Y309341D01*
X519065Y309343D01*
X518975Y309356D01*
X518865Y309349D01*
X518754Y309352D01*
X518664Y309336D01*
X518573Y309331D01*
X518466Y309302D01*
X518357Y309283D01*
X518272Y309250D01*
X518184Y309227D01*
X518060Y309168D01*
X517982Y309138D01*
X517941Y309112D01*
X517884Y309085D01*
X515612Y307773D01*
X509410Y306111D01*
X502990Y306111D01*
X496788Y307773D01*
X491227Y310983D01*
X486687Y315523D01*
X483870Y320404D01*
X483841Y320444D01*
X483819Y320487D01*
X483724Y320607D01*
X483635Y320731D01*
X483599Y320764D01*
X483569Y320803D01*
X483452Y320901D01*
X483340Y321005D01*
X483298Y321031D01*
X483261Y321062D01*
X483127Y321136D01*
X482997Y321216D01*
X482951Y321233D01*
X482908Y321256D01*
X482831Y321280D01*
X482831Y323226D01*
X482825Y323294D01*
X482827Y323363D01*
X482818Y323423D01*
X482817Y323467D01*
X482800Y323546D01*
X482791Y323627D01*
X482783Y323655D01*
X482777Y323691D01*
X482777Y323692D01*
X482749Y323775D01*
X482730Y323860D01*
X482697Y323935D01*
X482673Y324012D01*
X482658Y324040D01*
X482647Y324073D01*
X482602Y324148D01*
X482567Y324229D01*
X482519Y324296D01*
X482482Y324366D01*
X482461Y324390D01*
X482444Y324420D01*
X482385Y324486D01*
X482335Y324557D01*
X482274Y324615D01*
X482224Y324675D01*
X482199Y324695D01*
X482176Y324721D01*
X482106Y324774D01*
X482042Y324834D01*
X481971Y324878D01*
X481910Y324927D01*
X481882Y324942D01*
X481854Y324963D01*
X481775Y325001D01*
X481701Y325047D01*
X481621Y325077D01*
X481553Y325113D01*
X481523Y325121D01*
X481491Y325137D01*
X481406Y325158D01*
X481324Y325189D01*
X481240Y325203D01*
X481166Y325224D01*
X481136Y325227D01*
X481101Y325236D01*
X481013Y325240D01*
X480926Y325254D01*
X480841Y325251D01*
X480765Y325257D01*
X480735Y325254D01*
X480698Y325255D01*
X480612Y325242D01*
X480524Y325239D01*
X480441Y325219D01*
X480365Y325210D01*
X480336Y325201D01*
X480300Y325195D01*
X480218Y325166D01*
X480133Y325145D01*
X480055Y325109D01*
X479982Y325085D01*
X479956Y325070D01*
X479922Y325058D01*
X479847Y325013D01*
X479767Y324976D01*
X479699Y324925D01*
X479631Y324887D01*
X479608Y324867D01*
X479578Y324849D01*
X479513Y324790D01*
X479443Y324738D01*
X479386Y324675D01*
X479326Y324624D01*
X479307Y324600D01*
X479282Y324576D01*
X479230Y324505D01*
X479171Y324440D01*
X479128Y324369D01*
X479080Y324306D01*
X479065Y324278D01*
X479045Y324250D01*
X479009Y324170D01*
X478964Y324095D01*
X478930Y324005D01*
X478900Y323945D01*
X478892Y323914D01*
X478878Y323884D01*
X478868Y323840D01*
X478847Y323785D01*
X478847Y323784D01*
X478826Y323669D01*
X478796Y323557D01*
X478793Y323519D01*
X478786Y323492D01*
X478785Y323440D01*
X478775Y323388D01*
X478776Y323321D01*
X478769Y323226D01*
X478769Y321277D01*
X478627Y321227D01*
X478585Y321202D01*
X478540Y321184D01*
X478412Y321099D01*
X478281Y321021D01*
X478245Y320988D01*
X478204Y320961D01*
X478096Y320853D01*
X477983Y320751D01*
X477954Y320711D01*
X477919Y320677D01*
X477783Y320479D01*
X477744Y320427D01*
X477739Y320416D01*
X477730Y320404D01*
X474913Y315523D01*
X470373Y310983D01*
X464812Y307773D01*
X458610Y306111D01*
X452190Y306111D01*
X445988Y307773D01*
X443716Y309085D01*
X443633Y309122D01*
X443554Y309169D01*
X443450Y309205D01*
X443349Y309251D01*
X443260Y309271D01*
X443174Y309301D01*
X443064Y309316D01*
X442956Y309341D01*
X442865Y309343D01*
X442775Y309356D01*
X442665Y309349D01*
X442554Y309352D01*
X442464Y309336D01*
X442373Y309331D01*
X442266Y309302D01*
X442157Y309283D01*
X442072Y309250D01*
X441984Y309227D01*
X441860Y309168D01*
X441782Y309138D01*
X441741Y309112D01*
X441684Y309085D01*
X439412Y307773D01*
X433210Y306111D01*
X426790Y306111D01*
X420588Y307773D01*
X418316Y309085D01*
X418233Y309122D01*
X418154Y309169D01*
X418050Y309205D01*
X417949Y309251D01*
X417860Y309271D01*
X417774Y309301D01*
X417664Y309316D01*
X417556Y309341D01*
X417465Y309343D01*
X417375Y309356D01*
X417265Y309349D01*
X417154Y309352D01*
X417064Y309336D01*
X416973Y309331D01*
X416866Y309302D01*
X416757Y309283D01*
X416672Y309250D01*
X416584Y309227D01*
X416460Y309168D01*
X416382Y309138D01*
X416341Y309112D01*
X416284Y309085D01*
X414012Y307773D01*
X407810Y306111D01*
X401390Y306111D01*
X395188Y307773D01*
X392916Y309085D01*
X392833Y309122D01*
X392754Y309169D01*
X392650Y309205D01*
X392549Y309251D01*
X392460Y309271D01*
X392374Y309301D01*
X392264Y309316D01*
X392156Y309341D01*
X392065Y309343D01*
X391975Y309356D01*
X391865Y309349D01*
X391754Y309352D01*
X391664Y309336D01*
X391573Y309331D01*
X391466Y309302D01*
X391357Y309283D01*
X391272Y309250D01*
X391184Y309227D01*
X391060Y309168D01*
X390982Y309138D01*
X390941Y309112D01*
X390884Y309085D01*
X388612Y307773D01*
X382410Y306111D01*
X375990Y306111D01*
X369788Y307773D01*
X367516Y309085D01*
X367433Y309122D01*
X367354Y309169D01*
X367250Y309205D01*
X367149Y309251D01*
X367060Y309271D01*
X366974Y309301D01*
X366864Y309316D01*
X366756Y309341D01*
X366665Y309343D01*
X366575Y309356D01*
X366465Y309349D01*
X366354Y309352D01*
X366264Y309336D01*
X366173Y309331D01*
X366066Y309302D01*
X365957Y309283D01*
X365872Y309250D01*
X365784Y309227D01*
X365660Y309168D01*
X365582Y309138D01*
X365541Y309112D01*
X365484Y309085D01*
X363212Y307773D01*
X357010Y306111D01*
X350590Y306111D01*
X344388Y307773D01*
X342116Y309085D01*
X342033Y309122D01*
X341954Y309169D01*
X341850Y309205D01*
X341749Y309251D01*
X341660Y309271D01*
X341574Y309301D01*
X341464Y309316D01*
X341356Y309341D01*
X341265Y309343D01*
X341175Y309356D01*
X341065Y309349D01*
X340954Y309352D01*
X340864Y309336D01*
X340773Y309331D01*
X340666Y309302D01*
X340557Y309283D01*
X340472Y309250D01*
X340384Y309227D01*
X340260Y309168D01*
X340182Y309138D01*
X340141Y309112D01*
X340084Y309085D01*
X337812Y307773D01*
X331610Y306111D01*
X331249Y306111D01*
X331240Y306110D01*
X331231Y306111D01*
X331038Y306090D01*
X330848Y306071D01*
X330840Y306069D01*
X330831Y306068D01*
X330646Y306009D01*
X330463Y305953D01*
X330455Y305949D01*
X330447Y305946D01*
X330279Y305853D01*
X330109Y305761D01*
X330102Y305756D01*
X330095Y305751D01*
X329947Y305626D01*
X329800Y305504D01*
X329794Y305497D01*
X329788Y305491D01*
X329668Y305339D01*
X329548Y305190D01*
X329544Y305182D01*
X329538Y305175D01*
X329450Y305002D01*
X329362Y304833D01*
X329360Y304824D01*
X329356Y304816D01*
X329304Y304630D01*
X329251Y304446D01*
X329250Y304437D01*
X329248Y304428D01*
X329234Y304235D01*
X329218Y304044D01*
X329219Y304036D01*
X329218Y304027D01*
X329243Y303834D01*
X329265Y303645D01*
X329268Y303636D01*
X329269Y303627D01*
X329330Y303445D01*
X329390Y303262D01*
X329394Y303254D01*
X329397Y303246D01*
X329493Y303079D01*
X329588Y302911D01*
X329593Y302904D01*
X329598Y302897D01*
X329813Y302644D01*
X341917Y290539D01*
X342037Y290441D01*
X342153Y290337D01*
X342193Y290313D01*
X342229Y290284D01*
X342366Y290211D01*
X342499Y290132D01*
X342543Y290117D01*
X342584Y290095D01*
X342733Y290051D01*
X342880Y290000D01*
X342926Y289994D01*
X342970Y289981D01*
X343125Y289966D01*
X343278Y289945D01*
X343325Y289948D01*
X343371Y289944D01*
X343526Y289961D01*
X343680Y289970D01*
X343725Y289982D01*
X343772Y289988D01*
X343919Y290034D01*
X344069Y290074D01*
X344117Y290097D01*
X344155Y290109D01*
X344231Y290151D01*
X344369Y290216D01*
X344388Y290227D01*
X350590Y291889D01*
X357010Y291889D01*
X363212Y290227D01*
X365484Y288915D01*
X365567Y288878D01*
X365646Y288831D01*
X365750Y288795D01*
X365851Y288749D01*
X365940Y288729D01*
X366026Y288699D01*
X366136Y288684D01*
X366244Y288659D01*
X366335Y288657D01*
X366425Y288644D01*
X366535Y288651D01*
X366646Y288648D01*
X366736Y288664D01*
X366827Y288669D01*
X366934Y288698D01*
X367043Y288717D01*
X367128Y288750D01*
X367216Y288773D01*
X367340Y288832D01*
X367418Y288862D01*
X367459Y288888D01*
X367516Y288915D01*
X369788Y290227D01*
X375990Y291889D01*
X382410Y291889D01*
X388612Y290227D01*
X390884Y288915D01*
X390967Y288878D01*
X391046Y288831D01*
X391150Y288795D01*
X391251Y288749D01*
X391340Y288729D01*
X391426Y288699D01*
X391536Y288684D01*
X391644Y288659D01*
X391735Y288657D01*
X391825Y288644D01*
X391935Y288651D01*
X392046Y288648D01*
X392136Y288664D01*
X392227Y288669D01*
X392334Y288698D01*
X392443Y288717D01*
X392528Y288750D01*
X392616Y288773D01*
X392740Y288832D01*
X392818Y288862D01*
X392859Y288888D01*
X392916Y288915D01*
X395188Y290227D01*
X401390Y291889D01*
X407810Y291889D01*
X414012Y290227D01*
X419573Y287017D01*
X424113Y282477D01*
X426930Y277596D01*
X426959Y277556D01*
X426981Y277513D01*
X427076Y277393D01*
X427165Y277269D01*
X427201Y277236D01*
X427232Y277197D01*
X427348Y277099D01*
X427460Y276995D01*
X427502Y276969D01*
X427539Y276938D01*
X427673Y276864D01*
X427803Y276784D01*
X427849Y276767D01*
X427892Y276744D01*
X427969Y276720D01*
X427969Y274774D01*
X427975Y274713D01*
X427972Y274652D01*
X427983Y274575D01*
X427985Y274518D01*
X428001Y274447D01*
X428008Y274373D01*
X428015Y274352D01*
X428019Y274324D01*
X428019Y274323D01*
X428052Y274226D01*
X428075Y274125D01*
X428105Y274058D01*
X428127Y273989D01*
X428139Y273966D01*
X428147Y273941D01*
X428198Y273852D01*
X428240Y273758D01*
X428284Y273697D01*
X428318Y273634D01*
X428334Y273616D01*
X428347Y273592D01*
X428415Y273515D01*
X428475Y273431D01*
X428531Y273379D01*
X428576Y273325D01*
X428594Y273311D01*
X428613Y273289D01*
X428695Y273227D01*
X428770Y273157D01*
X428836Y273117D01*
X428890Y273073D01*
X428910Y273062D01*
X428933Y273045D01*
X429025Y273000D01*
X429113Y272946D01*
X429186Y272919D01*
X429247Y272887D01*
X429248Y272887D01*
X429269Y272881D01*
X429295Y272869D01*
X429394Y272843D01*
X429491Y272807D01*
X429568Y272795D01*
X429634Y272776D01*
X429656Y272774D01*
X429684Y272767D01*
X429787Y272761D01*
X429889Y272745D01*
X429967Y272749D01*
X430036Y272743D01*
X430058Y272746D01*
G37*
%LPC*%
G36*
X586616Y879219D02*
X586616Y879219D01*
X578533Y881385D01*
X571286Y885569D01*
X565369Y891486D01*
X561185Y898733D01*
X559019Y906816D01*
X559019Y915184D01*
X561185Y923267D01*
X565369Y930514D01*
X571286Y936431D01*
X578533Y940615D01*
X586616Y942781D01*
X594984Y942781D01*
X603067Y940615D01*
X610314Y936431D01*
X616231Y930514D01*
X620415Y923267D01*
X622581Y915184D01*
X622581Y906816D01*
X620415Y898733D01*
X616231Y891486D01*
X610314Y885569D01*
X603067Y881385D01*
X594984Y879219D01*
X586616Y879219D01*
G37*
%LPD*%
%LPC*%
G36*
X802616Y40219D02*
X802616Y40219D01*
X794533Y42385D01*
X787286Y46569D01*
X781369Y52486D01*
X777185Y59733D01*
X775019Y67816D01*
X775019Y76184D01*
X777185Y84267D01*
X781369Y91514D01*
X787286Y97431D01*
X794533Y101615D01*
X802616Y103781D01*
X810984Y103781D01*
X819067Y101615D01*
X826314Y97431D01*
X832231Y91514D01*
X836415Y84267D01*
X838581Y76184D01*
X838581Y67816D01*
X836415Y59733D01*
X832231Y52486D01*
X826314Y46569D01*
X819067Y42385D01*
X810984Y40219D01*
X802616Y40219D01*
G37*
%LPD*%
G36*
X511161Y87861D02*
X511161Y87861D01*
X511165Y87861D01*
X511359Y87881D01*
X511557Y87901D01*
X511561Y87902D01*
X511565Y87902D01*
X511751Y87960D01*
X511942Y88019D01*
X511946Y88021D01*
X511950Y88022D01*
X512121Y88116D01*
X512296Y88211D01*
X512299Y88213D01*
X512303Y88216D01*
X512452Y88341D01*
X512605Y88468D01*
X512608Y88472D01*
X512611Y88475D01*
X512733Y88627D01*
X512857Y88782D01*
X512859Y88786D01*
X512862Y88789D01*
X512952Y88964D01*
X513043Y89139D01*
X513044Y89144D01*
X513046Y89148D01*
X513099Y89335D01*
X513154Y89526D01*
X513155Y89531D01*
X513156Y89535D01*
X513171Y89728D01*
X513187Y89928D01*
X513186Y89932D01*
X513187Y89936D01*
X513163Y90129D01*
X513140Y90327D01*
X513139Y90332D01*
X513138Y90336D01*
X513078Y90519D01*
X513015Y90710D01*
X513013Y90714D01*
X513012Y90718D01*
X512916Y90887D01*
X512817Y91061D01*
X512814Y91064D01*
X512812Y91068D01*
X512682Y91217D01*
X512554Y91365D01*
X512551Y91368D01*
X512548Y91372D01*
X512391Y91492D01*
X512236Y91612D01*
X512232Y91614D01*
X512229Y91617D01*
X511933Y91769D01*
X505050Y94620D01*
X483820Y115850D01*
X480339Y124253D01*
X480339Y154683D01*
X480331Y154767D01*
X480332Y154851D01*
X480311Y154967D01*
X480299Y155084D01*
X480275Y155164D01*
X480259Y155247D01*
X480216Y155356D01*
X480181Y155468D01*
X480141Y155543D01*
X480110Y155621D01*
X480045Y155719D01*
X479989Y155822D01*
X479935Y155887D01*
X479889Y155958D01*
X479807Y156041D01*
X479732Y156132D01*
X479666Y156185D01*
X479607Y156245D01*
X479510Y156310D01*
X479418Y156384D01*
X479343Y156423D01*
X479273Y156470D01*
X479165Y156516D01*
X479061Y156570D01*
X478980Y156593D01*
X478902Y156625D01*
X478787Y156648D01*
X478674Y156681D01*
X478590Y156688D01*
X478507Y156704D01*
X478389Y156704D01*
X478272Y156714D01*
X478189Y156704D01*
X478104Y156704D01*
X477989Y156681D01*
X477873Y156667D01*
X477792Y156641D01*
X477710Y156624D01*
X477602Y156579D01*
X477490Y156542D01*
X477416Y156501D01*
X477339Y156468D01*
X477241Y156402D01*
X477139Y156344D01*
X477075Y156289D01*
X477006Y156242D01*
X476923Y156158D01*
X476835Y156081D01*
X476783Y156015D01*
X476724Y155954D01*
X476660Y155856D01*
X476588Y155763D01*
X476550Y155687D01*
X476504Y155617D01*
X476447Y155480D01*
X476408Y155402D01*
X476397Y155361D01*
X476376Y155311D01*
X476142Y154590D01*
X475422Y153176D01*
X474489Y151893D01*
X473367Y150771D01*
X472084Y149838D01*
X470670Y149118D01*
X469299Y148673D01*
X469299Y149321D01*
X469286Y149458D01*
X469281Y149595D01*
X469266Y149658D01*
X469259Y149722D01*
X469219Y149853D01*
X469187Y149986D01*
X469160Y150045D01*
X469141Y150106D01*
X469076Y150227D01*
X469018Y150352D01*
X468980Y150404D01*
X468949Y150460D01*
X468862Y150566D01*
X468780Y150677D01*
X468733Y150720D01*
X468692Y150770D01*
X468585Y150856D01*
X468483Y150948D01*
X468428Y150982D01*
X468378Y151022D01*
X468256Y151085D01*
X468138Y151156D01*
X468078Y151178D01*
X468021Y151208D01*
X467889Y151246D01*
X467759Y151292D01*
X467696Y151301D01*
X467634Y151319D01*
X467497Y151330D01*
X467361Y151350D01*
X467297Y151347D01*
X467232Y151352D01*
X467096Y151336D01*
X466959Y151328D01*
X466896Y151312D01*
X466833Y151305D01*
X466702Y151262D01*
X466569Y151228D01*
X466511Y151200D01*
X466450Y151180D01*
X466330Y151113D01*
X466207Y151053D01*
X466155Y151014D01*
X466099Y150982D01*
X465995Y150892D01*
X465886Y150809D01*
X465843Y150761D01*
X465795Y150719D01*
X465710Y150611D01*
X465619Y150507D01*
X465587Y150452D01*
X465548Y150401D01*
X465487Y150278D01*
X465418Y150159D01*
X465393Y150090D01*
X465368Y150040D01*
X465348Y149963D01*
X465306Y149847D01*
X464995Y148687D01*
X464573Y147955D01*
X464506Y147806D01*
X464432Y147659D01*
X464429Y147645D01*
X464420Y147636D01*
X464342Y147523D01*
X464289Y147458D01*
X464267Y147415D01*
X464231Y147364D01*
X464133Y147193D01*
X464065Y147044D01*
X463992Y146897D01*
X463983Y146860D01*
X463967Y146826D01*
X463930Y146667D01*
X463888Y146508D01*
X463884Y146466D01*
X463877Y146434D01*
X463875Y146346D01*
X463861Y146177D01*
X463861Y89892D01*
X463863Y89874D01*
X463861Y89856D01*
X463882Y89674D01*
X463901Y89491D01*
X463906Y89474D01*
X463908Y89457D01*
X463965Y89282D01*
X464019Y89106D01*
X464027Y89091D01*
X464033Y89074D01*
X464123Y88914D01*
X464211Y88752D01*
X464222Y88739D01*
X464231Y88723D01*
X464351Y88584D01*
X464468Y88443D01*
X464482Y88432D01*
X464494Y88418D01*
X464639Y88306D01*
X464782Y88191D01*
X464798Y88183D01*
X464812Y88172D01*
X464977Y88090D01*
X465139Y88005D01*
X465156Y88000D01*
X465172Y87992D01*
X465351Y87945D01*
X465526Y87894D01*
X465544Y87892D01*
X465561Y87888D01*
X465892Y87861D01*
X511156Y87861D01*
X511161Y87861D01*
G37*
%LPC*%
G36*
X687174Y886374D02*
X687174Y886374D01*
X687174Y898441D01*
X690313Y898441D01*
X699241Y889513D01*
X699241Y886374D01*
X687174Y886374D01*
G37*
%LPD*%
%LPC*%
G36*
X832374Y734274D02*
X832374Y734274D01*
X832374Y746341D01*
X835513Y746341D01*
X844441Y737413D01*
X844441Y734274D01*
X832374Y734274D01*
G37*
%LPD*%
%LPC*%
G36*
X813959Y734274D02*
X813959Y734274D01*
X813959Y737413D01*
X822887Y746341D01*
X826026Y746341D01*
X826026Y734274D01*
X813959Y734274D01*
G37*
%LPD*%
%LPC*%
G36*
X668759Y886374D02*
X668759Y886374D01*
X668759Y889513D01*
X677687Y898441D01*
X680826Y898441D01*
X680826Y886374D01*
X668759Y886374D01*
G37*
%LPD*%
%LPC*%
G36*
X687174Y867959D02*
X687174Y867959D01*
X687174Y880026D01*
X699241Y880026D01*
X699241Y876887D01*
X690313Y867959D01*
X687174Y867959D01*
G37*
%LPD*%
%LPC*%
G36*
X832374Y715859D02*
X832374Y715859D01*
X832374Y727926D01*
X844441Y727926D01*
X844441Y724787D01*
X835513Y715859D01*
X832374Y715859D01*
G37*
%LPD*%
%LPC*%
G36*
X677687Y867959D02*
X677687Y867959D01*
X668759Y876887D01*
X668759Y880026D01*
X680826Y880026D01*
X680826Y867959D01*
X677687Y867959D01*
G37*
%LPD*%
%LPC*%
G36*
X822887Y715859D02*
X822887Y715859D01*
X813959Y724787D01*
X813959Y727926D01*
X826026Y727926D01*
X826026Y715859D01*
X822887Y715859D01*
G37*
%LPD*%
%LPC*%
G36*
X90099Y440899D02*
X90099Y440899D01*
X90099Y451056D01*
X90253Y451031D01*
X92268Y450376D01*
X94156Y449414D01*
X95870Y448169D01*
X97369Y446670D01*
X98614Y444956D01*
X99576Y443068D01*
X100231Y441053D01*
X100256Y440899D01*
X90099Y440899D01*
G37*
%LPD*%
%LPC*%
G36*
X90099Y250399D02*
X90099Y250399D01*
X90099Y260556D01*
X90253Y260531D01*
X92268Y259876D01*
X94156Y258914D01*
X95870Y257669D01*
X97369Y256170D01*
X98614Y254456D01*
X99576Y252568D01*
X100231Y250553D01*
X100256Y250399D01*
X90099Y250399D01*
G37*
%LPD*%
%LPC*%
G36*
X73944Y440899D02*
X73944Y440899D01*
X73969Y441053D01*
X74624Y443068D01*
X75586Y444956D01*
X76831Y446670D01*
X78330Y448169D01*
X80044Y449414D01*
X81932Y450376D01*
X83947Y451031D01*
X84101Y451056D01*
X84101Y440899D01*
X73944Y440899D01*
G37*
%LPD*%
%LPC*%
G36*
X90099Y434901D02*
X90099Y434901D01*
X100256Y434901D01*
X100231Y434747D01*
X99576Y432732D01*
X98614Y430844D01*
X97369Y429130D01*
X95870Y427631D01*
X94156Y426386D01*
X92268Y425424D01*
X90253Y424769D01*
X90099Y424744D01*
X90099Y434901D01*
G37*
%LPD*%
%LPC*%
G36*
X73944Y250399D02*
X73944Y250399D01*
X73969Y250553D01*
X74624Y252568D01*
X75586Y254456D01*
X76831Y256170D01*
X78330Y257669D01*
X80044Y258914D01*
X81932Y259876D01*
X83947Y260531D01*
X84101Y260556D01*
X84101Y250399D01*
X73944Y250399D01*
G37*
%LPD*%
%LPC*%
G36*
X90099Y244401D02*
X90099Y244401D01*
X100256Y244401D01*
X100231Y244247D01*
X99576Y242232D01*
X98614Y240344D01*
X97369Y238630D01*
X95870Y237131D01*
X94156Y235886D01*
X92268Y234924D01*
X90253Y234269D01*
X90099Y234244D01*
X90099Y244401D01*
G37*
%LPD*%
%LPC*%
G36*
X83947Y424769D02*
X83947Y424769D01*
X81932Y425424D01*
X80044Y426386D01*
X78330Y427631D01*
X76831Y429130D01*
X75586Y430844D01*
X74624Y432732D01*
X73969Y434747D01*
X73944Y434901D01*
X84101Y434901D01*
X84101Y424744D01*
X83947Y424769D01*
G37*
%LPD*%
%LPC*%
G36*
X83947Y234269D02*
X83947Y234269D01*
X81932Y234924D01*
X80044Y235886D01*
X78330Y237131D01*
X76831Y238630D01*
X75586Y240344D01*
X74624Y242232D01*
X73969Y244247D01*
X73944Y244401D01*
X84101Y244401D01*
X84101Y234244D01*
X83947Y234269D01*
G37*
%LPD*%
%LPC*%
G36*
X635231Y643931D02*
X635231Y643931D01*
X635231Y652442D01*
X637567Y652442D01*
X643742Y646267D01*
X643742Y643931D01*
X635231Y643931D01*
G37*
%LPD*%
%LPC*%
G36*
X622658Y643931D02*
X622658Y643931D01*
X622658Y646267D01*
X628833Y652442D01*
X631169Y652442D01*
X631169Y643931D01*
X622658Y643931D01*
G37*
%LPD*%
%LPC*%
G36*
X635231Y631358D02*
X635231Y631358D01*
X635231Y639869D01*
X643742Y639869D01*
X643742Y637533D01*
X637567Y631358D01*
X635231Y631358D01*
G37*
%LPD*%
%LPC*%
G36*
X628833Y631358D02*
X628833Y631358D01*
X622658Y637533D01*
X622658Y639869D01*
X631169Y639869D01*
X631169Y631358D01*
X628833Y631358D01*
G37*
%LPD*%
D10*
X97808Y555032D02*
X66624Y555032D01*
X51032Y570624D01*
X66624Y586216D01*
X97808Y586216D01*
X97808Y625196D02*
X90012Y632992D01*
X97808Y625196D02*
X97808Y609604D01*
X90012Y601808D01*
X82216Y601808D01*
X74420Y609604D01*
X74420Y625196D01*
X66624Y632992D01*
X58828Y632992D01*
X51032Y625196D01*
X51032Y609604D01*
X58828Y601808D01*
X74420Y648584D02*
X74420Y679768D01*
X97808Y718748D02*
X90012Y726544D01*
X97808Y718748D02*
X97808Y703156D01*
X90012Y695360D01*
X58828Y695360D01*
X51032Y703156D01*
X51032Y718748D01*
X58828Y726544D01*
X97808Y749932D02*
X97808Y765524D01*
X97808Y749932D02*
X90012Y742136D01*
X58828Y742136D01*
X51032Y749932D01*
X51032Y765524D01*
X58828Y773320D01*
X90012Y773320D01*
X97808Y765524D01*
X97808Y788912D02*
X51032Y788912D01*
X97808Y788912D02*
X97808Y812300D01*
X90012Y820096D01*
X74420Y820096D01*
X66624Y812300D01*
X66624Y788912D01*
X66624Y804504D02*
X51032Y820096D01*
X51032Y835688D02*
X97808Y835688D01*
X97808Y859076D01*
X90012Y866872D01*
X74420Y866872D01*
X66624Y859076D01*
X66624Y835688D01*
D11*
X303000Y502200D03*
X303000Y603800D03*
X785600Y832400D03*
X684000Y832400D03*
D12*
X252200Y670856D02*
X252200Y651044D01*
X311890Y671364D02*
X311890Y691176D01*
X192510Y691176D02*
X192510Y671364D01*
X192510Y793284D02*
X192510Y813096D01*
X311890Y813096D02*
X311890Y793284D01*
D13*
X798300Y959400D03*
X798300Y934000D03*
D14*
X820500Y561600D03*
X820500Y587000D03*
D15*
X137900Y921300D03*
X163300Y921300D03*
D16*
X347196Y502200D02*
X360404Y502200D01*
X360404Y553000D02*
X347196Y553000D01*
X347196Y527600D02*
X360404Y527600D01*
D17*
X829200Y731100D03*
X829200Y629500D03*
D18*
X163300Y591100D03*
X264900Y591100D03*
D19*
X785600Y883200D03*
X684000Y883200D03*
D17*
X417300Y578400D03*
X417300Y476800D03*
D20*
X747500Y939160D02*
X747500Y954240D01*
X722100Y954240D02*
X722100Y939160D01*
X303000Y928840D02*
X303000Y913760D01*
X277600Y913760D02*
X277600Y928840D01*
X252200Y928840D02*
X252200Y913760D01*
X226800Y913760D02*
X226800Y928840D01*
D21*
X722100Y574082D02*
X722100Y557318D01*
X747500Y557318D02*
X747500Y574082D01*
X772900Y574082D02*
X772900Y557318D01*
D22*
X633200Y641900D03*
X633200Y692700D03*
D23*
X734800Y460900D03*
X760200Y460900D03*
D16*
X569700Y463592D02*
X569700Y476800D01*
X595100Y476800D02*
X595100Y463592D01*
X595100Y553000D02*
X595100Y566208D01*
X569700Y566208D02*
X569700Y553000D01*
X620500Y476800D02*
X620500Y463592D01*
X645900Y463592D02*
X645900Y476800D01*
X620500Y553000D02*
X620500Y566208D01*
X645900Y566208D02*
X645900Y553000D01*
D17*
X462900Y564700D03*
X462900Y463100D03*
X650000Y428300D03*
X650000Y326700D03*
D24*
X401973Y822100D03*
D25*
X424373Y726200D03*
D24*
X541873Y681500D03*
X425373Y659700D03*
X541873Y795600D03*
D25*
X423873Y768600D03*
D16*
X252200Y267504D02*
X252200Y254296D01*
X277600Y254296D02*
X277600Y267504D01*
X303000Y267504D02*
X303000Y254296D01*
X328400Y254296D02*
X328400Y267504D01*
X353800Y267504D02*
X353800Y254296D01*
X379200Y254296D02*
X379200Y267504D01*
X404600Y267504D02*
X404600Y254296D01*
X430000Y254296D02*
X430000Y267504D01*
X455400Y267504D02*
X455400Y254296D01*
X480800Y254296D02*
X480800Y267504D01*
X506200Y267504D02*
X506200Y254296D01*
X531600Y254296D02*
X531600Y267504D01*
X557000Y267504D02*
X557000Y254296D01*
X582400Y254296D02*
X582400Y267504D01*
X582400Y330496D02*
X582400Y343704D01*
X557000Y343704D02*
X557000Y330496D01*
X531600Y330496D02*
X531600Y343704D01*
X506200Y343704D02*
X506200Y330496D01*
X480800Y330496D02*
X480800Y343704D01*
X455400Y343704D02*
X455400Y330496D01*
X430000Y330496D02*
X430000Y343704D01*
X404600Y343704D02*
X404600Y330496D01*
X379200Y330496D02*
X379200Y343704D01*
X353800Y343704D02*
X353800Y330496D01*
X328400Y330496D02*
X328400Y343704D01*
X303000Y343704D02*
X303000Y330496D01*
X277600Y330496D02*
X277600Y343704D01*
X252200Y343704D02*
X252200Y330496D01*
D26*
X154700Y232200D03*
X154700Y333800D03*
D27*
X87100Y437900D03*
X87100Y387900D03*
X87100Y337900D03*
X87100Y247400D03*
X87100Y197400D03*
X87100Y147400D03*
D20*
X275600Y452460D02*
X275600Y467540D01*
X250200Y467540D02*
X250200Y452460D01*
X224800Y452460D02*
X224800Y467540D01*
X199400Y467540D02*
X199400Y452460D01*
X174000Y452460D02*
X174000Y467540D01*
D19*
X791400Y170300D03*
X689800Y170300D03*
X790400Y209600D03*
X688800Y209600D03*
D18*
X689800Y251900D03*
X791400Y251900D03*
X687600Y292600D03*
X789200Y292600D03*
D15*
X550700Y406900D03*
X576100Y406900D03*
D26*
X509100Y372700D03*
X509100Y474300D03*
D23*
X219300Y210000D03*
X244700Y210000D03*
D20*
X365200Y173540D02*
X365200Y158460D01*
X390600Y158460D02*
X390600Y173540D01*
X416000Y173540D02*
X416000Y158460D01*
X441400Y158460D02*
X441400Y173540D01*
X466800Y173540D02*
X466800Y158460D01*
X503200Y190460D02*
X503200Y205540D01*
X528600Y205540D02*
X528600Y190460D01*
X554000Y190460D02*
X554000Y205540D01*
X579400Y205540D02*
X579400Y190460D01*
X604800Y190460D02*
X604800Y205540D01*
D19*
X318800Y161000D03*
X217200Y161000D03*
X318800Y123000D03*
X217200Y123000D03*
D18*
X216200Y84000D03*
X317800Y84000D03*
X72200Y83000D03*
X173800Y83000D03*
D28*
X684000Y883200D02*
X684000Y934000D01*
X696700Y946700D01*
X722100Y946700D01*
X722100Y959400D01*
X747500Y984800D01*
X595100Y553000D02*
X595100Y514900D01*
X595100Y476800D01*
X563000Y514900D02*
X518900Y514900D01*
X563000Y514900D02*
X595100Y514900D01*
X379200Y553000D02*
X353800Y553000D01*
X379200Y553000D02*
X417300Y514900D01*
X455400Y514900D01*
X468100Y527600D01*
X506200Y527600D01*
X518900Y514900D01*
X747500Y527600D02*
X747500Y565700D01*
X747500Y984800D02*
X823700Y984800D01*
X849100Y959400D01*
X849100Y870500D01*
X836400Y857800D01*
X747500Y667300D02*
X747500Y565700D01*
X633200Y641900D02*
X595100Y603800D01*
X595100Y553000D01*
X595100Y514900D02*
X734800Y514900D01*
X747500Y527600D01*
X480800Y397800D02*
X480800Y337100D01*
X480800Y397800D02*
X506000Y423000D01*
X522000Y423000D01*
X545000Y446000D01*
X231000Y341000D02*
X231000Y314000D01*
X241000Y304000D01*
X430000Y304000D01*
X467000Y304000D01*
X480800Y317800D02*
X480800Y337100D01*
X480800Y317800D02*
X467000Y304000D01*
X109200Y460000D02*
X87100Y437900D01*
X109200Y460000D02*
X174000Y460000D01*
X545000Y446000D02*
X545000Y496900D01*
X563000Y514900D01*
X747500Y667300D02*
X811300Y731100D01*
X829200Y731100D01*
X836400Y738300D01*
X836400Y857800D01*
X734800Y514900D02*
X734800Y460900D01*
X219300Y210000D02*
X214300Y205000D01*
X213300Y204000D02*
X219300Y210000D01*
X89700Y250000D02*
X87100Y247400D01*
X430000Y260900D02*
X430000Y293000D01*
X425000Y298000D01*
X430000Y303000D01*
X430000Y304000D01*
X604800Y274200D02*
X604800Y198000D01*
X604800Y274200D02*
X591000Y288000D01*
X483000Y288000D01*
X467000Y304000D01*
X466800Y166000D02*
X466800Y133200D01*
X506000Y94000D01*
X677000Y94000D01*
X735000Y152000D01*
X735000Y460700D01*
X734800Y460900D01*
X135700Y204000D02*
X89700Y250000D01*
X135700Y204000D02*
X213300Y204000D01*
X125700Y286000D02*
X87100Y247400D01*
X125700Y286000D02*
X192000Y286000D01*
X174000Y436000D02*
X174000Y460000D01*
X174000Y436000D02*
X232000Y378000D01*
X232000Y342000D01*
X231000Y341000D01*
X192000Y336000D02*
X192000Y286000D01*
X192000Y336000D02*
X165000Y363000D01*
X65000Y363000D01*
X59000Y369000D01*
X59000Y409800D01*
X87100Y437900D01*
X26140Y466640D02*
X26140Y347260D01*
X36300Y337100D01*
X86300Y337100D01*
X87100Y337900D01*
X455400Y455600D02*
X462900Y463100D01*
X455400Y455600D02*
X455400Y337100D01*
X497900Y463100D02*
X509100Y474300D01*
X497900Y463100D02*
X462900Y463100D01*
X87100Y147400D02*
X37600Y147400D01*
X26140Y158860D01*
X26140Y347260D01*
X47000Y487500D02*
X47000Y488000D01*
X261000Y488000D01*
X275600Y473400D02*
X275600Y460000D01*
X47000Y487500D02*
X26140Y466640D01*
X261000Y488000D02*
X275600Y473400D01*
X446100Y463100D02*
X462900Y463100D01*
X446100Y463100D02*
X433000Y450000D01*
X400000Y450000D01*
X374000Y476000D01*
X278200Y476000D01*
X275600Y473400D01*
X772900Y565700D02*
X816400Y565700D01*
X820500Y561600D01*
X772900Y473600D02*
X760200Y460900D01*
X772900Y473600D02*
X772900Y565700D01*
X770100Y460900D02*
X760200Y460900D01*
X217200Y161000D02*
X217200Y123000D01*
X217200Y85000D01*
X216200Y84000D01*
X791700Y170300D02*
X795000Y167000D01*
X791700Y170300D02*
X791400Y170300D01*
X791400Y208600D01*
X790400Y209600D01*
X790400Y250900D01*
X791400Y251900D01*
X789200Y252100D02*
X789200Y292600D01*
X789200Y252100D02*
X790400Y250900D01*
X203600Y147400D02*
X87100Y147400D01*
X203600Y147400D02*
X217200Y161000D01*
X760200Y460900D02*
X789200Y431900D01*
X789200Y292600D01*
X216200Y78200D02*
X214000Y76000D01*
X216200Y78200D02*
X216200Y84000D01*
X87100Y97900D02*
X72200Y83000D01*
X87100Y97900D02*
X87100Y147400D01*
X686100Y65000D02*
X791400Y170300D01*
X125000Y83000D02*
X72200Y83000D01*
X461000Y65000D02*
X686100Y65000D01*
X461000Y65000D02*
X432000Y36000D01*
X172000Y36000D01*
X125000Y83000D01*
X154700Y333800D02*
X89600Y333800D01*
X86300Y337100D01*
X353800Y527600D02*
X366500Y527600D01*
X391900Y502200D01*
X391900Y489500D01*
X404600Y476800D01*
X417300Y476800D01*
X163300Y692700D02*
X163300Y921300D01*
X163300Y692700D02*
X176000Y680000D01*
X191240Y680000D01*
X192510Y681270D01*
X424373Y726200D02*
X438100Y726200D01*
X455400Y743500D01*
X455400Y857800D01*
X328400Y984800D02*
X201400Y984800D01*
X163300Y946700D01*
X163300Y921300D01*
X192510Y681270D02*
X192510Y536490D01*
X226800Y502200D01*
X303000Y502200D01*
X353800Y502200D01*
X455400Y857800D02*
X328400Y984800D01*
D29*
X277600Y921300D02*
X277600Y829400D01*
X304000Y803000D01*
X304190Y803190D01*
X311890Y803190D01*
X401973Y822100D02*
X401973Y873027D01*
X319000Y956000D01*
X288000Y956000D01*
X277600Y945600D02*
X277600Y921300D01*
X277600Y945600D02*
X288000Y956000D01*
X252200Y707200D02*
X252200Y660950D01*
X252200Y707200D02*
X286000Y741000D01*
X337000Y741000D01*
X359000Y763000D01*
X359000Y865300D01*
X303000Y921300D01*
X252200Y660950D02*
X252200Y639200D01*
X223000Y610000D01*
X223000Y557000D01*
X231000Y549000D01*
X302000Y549000D01*
X412700Y659700D02*
X425373Y659700D01*
X412700Y659700D02*
X302000Y549000D01*
X252000Y921100D02*
X252200Y921300D01*
X252000Y921100D02*
X252000Y828000D01*
X227190Y803190D01*
X192510Y803190D01*
D28*
X639600Y337100D02*
X650000Y326700D01*
X639600Y337100D02*
X582400Y337100D01*
X137900Y616500D02*
X137900Y921300D01*
X137900Y616500D02*
X163300Y591100D01*
X785600Y921300D02*
X798300Y934000D01*
X785600Y921300D02*
X785600Y883200D01*
X747500Y845100D02*
X747500Y946700D01*
X747500Y845100D02*
X760200Y832400D01*
X785600Y832400D01*
X315700Y677460D02*
X311890Y681270D01*
X684000Y807000D02*
X684000Y832400D01*
X684000Y807000D02*
X696700Y794300D01*
X798300Y794300D01*
X811000Y807000D01*
X811000Y883200D01*
X823700Y895900D01*
X823700Y946700D01*
X811000Y959400D01*
X798300Y959400D01*
X722100Y654600D02*
X722100Y565700D01*
X722100Y654600D02*
X684000Y692700D01*
X633200Y692700D01*
X696700Y705400D02*
X696700Y794300D01*
X696700Y705400D02*
X684000Y692700D01*
X325860Y677460D02*
X315700Y677460D01*
X325860Y677460D02*
X372850Y724450D01*
X417300Y768900D01*
X423573Y768900D01*
X423873Y768600D01*
X455400Y692700D02*
X506200Y743500D01*
X455400Y692700D02*
X404600Y692700D01*
X372850Y724450D01*
X290300Y591100D02*
X264900Y591100D01*
X290300Y591100D02*
X303000Y603800D01*
X303000Y672380D01*
X311890Y681270D01*
X506200Y743500D02*
X569700Y743500D01*
X620500Y692700D01*
X633200Y692700D01*
X820500Y620800D02*
X820500Y587000D01*
X820500Y620800D02*
X829200Y629500D01*
X474600Y553000D02*
X462900Y564700D01*
X474600Y553000D02*
X569700Y553000D01*
X449200Y578400D02*
X417300Y578400D01*
X449200Y578400D02*
X462900Y564700D01*
X569700Y476800D02*
X569700Y445300D01*
X586700Y428300D02*
X650000Y428300D01*
X586700Y428300D02*
X569700Y445300D01*
X252200Y260900D02*
X252100Y261000D01*
X252100Y217400D02*
X244700Y210000D01*
X252100Y217400D02*
X252100Y261000D01*
X223300Y232200D02*
X154700Y232200D01*
X223300Y232200D02*
X252100Y261000D01*
D30*
X328400Y260900D02*
X328400Y274600D01*
X316000Y287000D02*
X226000Y287000D01*
X212000Y301000D01*
X87100Y383900D02*
X87100Y387900D01*
X316000Y287000D02*
X328400Y274600D01*
X212000Y301000D02*
X212000Y343000D01*
X167100Y387900D02*
X87100Y387900D01*
X167100Y387900D02*
X212000Y343000D01*
D28*
X353800Y260900D02*
X353800Y225800D01*
X325400Y197400D01*
X96500Y188000D02*
X87100Y197400D01*
X96500Y188000D02*
X317000Y188000D01*
X325400Y196400D01*
X325400Y197400D01*
D30*
X328400Y337100D02*
X328400Y366400D01*
X329000Y367000D01*
X276000Y420000D01*
X224800Y437200D02*
X224800Y460000D01*
X242000Y420000D02*
X276000Y420000D01*
X242000Y420000D02*
X224800Y437200D01*
X353800Y359200D02*
X353800Y337100D01*
X280000Y433000D02*
X262000Y433000D01*
X250200Y444800D01*
X250200Y460000D01*
X280000Y433000D02*
X353800Y359200D01*
X303000Y373000D02*
X303000Y337100D01*
X303000Y373000D02*
X271000Y405000D01*
X235000Y405000D01*
X199400Y440600D02*
X199400Y460000D01*
X199400Y440600D02*
X235000Y405000D01*
D28*
X579400Y198000D02*
X579400Y170600D01*
X586000Y164000D01*
X625000Y164000D01*
X631000Y170000D01*
X631000Y236000D01*
X650500Y255500D01*
X687600Y292600D01*
X557000Y318000D02*
X557000Y337100D01*
X557000Y318000D02*
X569000Y306000D01*
X600000Y306000D01*
X650500Y255500D01*
X547800Y404000D02*
X550700Y406900D01*
X547800Y404000D02*
X533000Y404000D01*
X509100Y380100D01*
X509100Y372700D01*
X576100Y399100D02*
X576100Y406900D01*
X553000Y376000D02*
X540000Y376000D01*
X531600Y367600D01*
X531600Y337100D01*
X553000Y376000D02*
X576100Y399100D01*
X404600Y260900D02*
X404600Y212600D01*
X389000Y197000D02*
X389000Y167600D01*
X390600Y166000D01*
X389000Y197000D02*
X404600Y212600D01*
X380000Y123000D02*
X318800Y123000D01*
X389000Y132000D02*
X389000Y167600D01*
X389000Y132000D02*
X380000Y123000D01*
X365200Y166000D02*
X365200Y202200D01*
X379200Y216200D02*
X379200Y260900D01*
X379200Y216200D02*
X365200Y202200D01*
X360200Y161000D02*
X318800Y161000D01*
X360200Y161000D02*
X365200Y166000D01*
X582400Y236400D02*
X582400Y260900D01*
X554000Y208000D02*
X554000Y198000D01*
X554000Y208000D02*
X582400Y236400D01*
X554000Y198000D02*
X554000Y154000D01*
X559000Y149000D01*
X641000Y149000D01*
X647000Y155000D01*
X647000Y225000D01*
X673900Y251900D02*
X689800Y251900D01*
X673900Y251900D02*
X647000Y225000D01*
X506200Y260900D02*
X503200Y257900D01*
X503200Y198000D01*
X503200Y128800D01*
X518000Y114000D01*
X666000Y114000D01*
X689800Y137800D02*
X689800Y170300D01*
X689800Y137800D02*
X666000Y114000D01*
X528600Y140400D02*
X528600Y198000D01*
X528600Y140400D02*
X537000Y132000D01*
X652000Y132000D01*
X662000Y142000D01*
X662000Y197000D01*
X675000Y210000D01*
X675400Y209600D01*
X688800Y209600D01*
X528600Y198000D02*
X528600Y257900D01*
X531600Y260900D01*
X455400Y260900D02*
X455400Y241400D01*
X416000Y202000D02*
X416000Y166000D01*
X416000Y202000D02*
X455400Y241400D01*
X393000Y84000D02*
X317800Y84000D01*
X416000Y107000D02*
X416000Y166000D01*
X416000Y107000D02*
X393000Y84000D01*
X480800Y235800D02*
X480800Y260900D01*
X480800Y235800D02*
X442000Y197000D01*
X442000Y166600D01*
X441400Y166000D01*
X442000Y166600D02*
X443200Y165400D01*
X199800Y57000D02*
X173800Y83000D01*
X199800Y57000D02*
X415000Y57000D01*
X441000Y83000D01*
X441000Y163200D02*
X443200Y165400D01*
X441000Y163200D02*
X441000Y83000D01*
D31*
X3900Y-6600D02*
X881500Y-3600D01*
X883500Y1006900D01*
X3900Y1006900D01*
X3900Y-6600D01*
M02*
