G75*
%MOIN*%
%OFA0B0*%
%FSLAX25Y25*%
%IPPOS*%
%LPD*%
%AMOC8*
5,1,8,0,0,1.08239X$1,22.5*
%
%ADD10C,0.00000*%
%ADD11R,0.03937X0.04331*%
%ADD12OC8,0.05200*%
%ADD13R,0.06693X0.07087*%
%ADD14R,0.08800X0.04800*%
%ADD15R,0.08661X0.14173*%
%ADD16R,0.03543X0.03150*%
%ADD17R,0.04331X0.03937*%
%ADD18OC8,0.10000*%
%ADD19R,0.05984X0.07008*%
%ADD20OC8,0.07874*%
%ADD21C,0.02400*%
%ADD22C,0.03200*%
%ADD23C,0.03962*%
%ADD24C,0.07600*%
D10*
X0046060Y0028618D02*
X0306285Y0028364D01*
X0305902Y0028618D02*
X0306285Y0139782D01*
X0046060Y0140035D01*
X0046060Y0028618D01*
D11*
X0143246Y0050257D03*
X0153088Y0049391D03*
X0159781Y0049391D03*
X0159860Y0057265D03*
X0153167Y0057265D03*
X0143246Y0056950D03*
X0216239Y0083092D03*
X0216239Y0089785D03*
X0173139Y0109532D03*
X0179507Y0110966D03*
X0186200Y0110966D03*
X0195885Y0110966D03*
X0202578Y0110966D03*
X0173139Y0116225D03*
X0165265Y0116217D03*
X0157569Y0116228D03*
X0157569Y0109535D03*
X0165265Y0109524D03*
X0239866Y0051521D03*
X0246558Y0051521D03*
D12*
X0216926Y0058657D03*
X0209426Y0063657D03*
X0216926Y0068657D03*
X0250469Y0068815D03*
X0260469Y0068815D03*
X0260075Y0090862D03*
X0250075Y0090862D03*
X0249879Y0115665D03*
X0259879Y0115665D03*
D13*
X0228723Y0108106D03*
X0202539Y0100612D03*
X0202539Y0084470D03*
X0130921Y0088654D03*
X0130921Y0072512D03*
X0228723Y0124248D03*
D14*
X0185447Y0100342D03*
X0185447Y0091242D03*
X0185447Y0082142D03*
D15*
X0161046Y0091242D03*
D16*
X0135647Y0057186D03*
X0127773Y0053446D03*
X0135647Y0049706D03*
D17*
X0168915Y0050612D03*
X0168915Y0057305D03*
D18*
X0276790Y0062880D03*
X0295064Y0054022D03*
X0276908Y0041740D03*
X0295196Y0084369D03*
X0276746Y0093318D03*
X0295459Y0102560D03*
X0276635Y0111957D03*
X0295360Y0124349D03*
D19*
X0231276Y0072476D03*
X0231276Y0062476D03*
X0231276Y0052476D03*
X0194701Y0052476D03*
X0194701Y0062476D03*
X0194701Y0072476D03*
D20*
X0105755Y0081847D03*
X0105952Y0098539D03*
X0114220Y0120902D03*
X0058117Y0110154D03*
X0058117Y0066807D03*
X0105755Y0056059D03*
D21*
X0113292Y0055827D02*
X0113292Y0059181D01*
X0108877Y0063596D01*
X0107230Y0063596D01*
X0106991Y0063695D01*
X0066290Y0063695D01*
X0065654Y0064331D01*
X0065654Y0069929D01*
X0065517Y0070066D01*
X0065517Y0106895D01*
X0065654Y0107032D01*
X0065654Y0113276D01*
X0061239Y0117691D01*
X0054996Y0117691D01*
X0051260Y0113955D01*
X0051260Y0134830D01*
X0116822Y0134766D01*
X0107946Y0125891D01*
X0107519Y0124860D01*
X0106683Y0124024D01*
X0106683Y0117780D01*
X0111098Y0113365D01*
X0117342Y0113365D01*
X0121757Y0117780D01*
X0121757Y0118771D01*
X0126566Y0123580D01*
X0221323Y0123580D01*
X0221323Y0122776D01*
X0221777Y0121681D01*
X0221777Y0119989D01*
X0222325Y0118665D01*
X0223338Y0117653D01*
X0224661Y0117105D01*
X0226632Y0117105D01*
X0227251Y0116848D01*
X0230111Y0116848D01*
X0228513Y0115250D01*
X0224661Y0115250D01*
X0223338Y0114702D01*
X0222325Y0113689D01*
X0221777Y0112366D01*
X0221777Y0103847D01*
X0222325Y0102524D01*
X0223338Y0101511D01*
X0223523Y0101434D01*
X0223523Y0091295D01*
X0221808Y0089883D01*
X0221808Y0092667D01*
X0221439Y0093556D01*
X0221439Y0094118D01*
X0220648Y0096030D01*
X0219185Y0097492D01*
X0212673Y0104005D01*
X0211210Y0105467D01*
X0209299Y0106259D01*
X0208873Y0106259D01*
X0207924Y0107207D01*
X0207804Y0107257D01*
X0208146Y0108085D01*
X0208146Y0113848D01*
X0207598Y0115171D01*
X0206586Y0116184D01*
X0205263Y0116732D01*
X0199893Y0116732D01*
X0199232Y0116458D01*
X0198570Y0116732D01*
X0193200Y0116732D01*
X0191877Y0116184D01*
X0191460Y0115766D01*
X0190625Y0115766D01*
X0190208Y0116184D01*
X0188885Y0116732D01*
X0183515Y0116732D01*
X0182854Y0116458D01*
X0182192Y0116732D01*
X0178708Y0116732D01*
X0178708Y0119106D01*
X0178160Y0120430D01*
X0177147Y0121442D01*
X0175824Y0121990D01*
X0170455Y0121990D01*
X0169192Y0121467D01*
X0167950Y0121982D01*
X0162581Y0121982D01*
X0161431Y0121506D01*
X0160254Y0121993D01*
X0157642Y0121993D01*
X0157499Y0122052D01*
X0154567Y0122052D01*
X0152682Y0122834D01*
X0150461Y0122834D01*
X0148410Y0121984D01*
X0146840Y0120414D01*
X0145990Y0118363D01*
X0145990Y0116142D01*
X0146840Y0114091D01*
X0148410Y0112521D01*
X0150461Y0111671D01*
X0152001Y0111671D01*
X0152001Y0106654D01*
X0152388Y0105719D01*
X0151896Y0104531D01*
X0151896Y0102311D01*
X0152746Y0100260D01*
X0153363Y0099642D01*
X0153116Y0099045D01*
X0153116Y0097591D01*
X0147261Y0097591D01*
X0144879Y0099973D01*
X0144098Y0101858D01*
X0142528Y0103428D01*
X0140477Y0104278D01*
X0138257Y0104278D01*
X0136205Y0103428D01*
X0134635Y0101858D01*
X0133786Y0099807D01*
X0133786Y0097587D01*
X0134527Y0095797D01*
X0131132Y0095797D01*
X0123981Y0102948D01*
X0122070Y0103739D01*
X0111411Y0103739D01*
X0109074Y0106076D01*
X0102830Y0106076D01*
X0098415Y0101661D01*
X0098415Y0095417D01*
X0102830Y0091002D01*
X0109074Y0091002D01*
X0111411Y0093339D01*
X0118882Y0093339D01*
X0123975Y0088246D01*
X0123975Y0084394D01*
X0124225Y0083791D01*
X0121761Y0086255D01*
X0119850Y0087046D01*
X0111214Y0087046D01*
X0108877Y0089384D01*
X0102633Y0089384D01*
X0098218Y0084968D01*
X0098218Y0078725D01*
X0102633Y0074309D01*
X0108877Y0074309D01*
X0111214Y0076647D01*
X0116662Y0076647D01*
X0123458Y0069850D01*
X0122756Y0068156D01*
X0122756Y0056592D01*
X0122402Y0055737D01*
X0122402Y0053011D01*
X0120856Y0051465D01*
X0120006Y0049413D01*
X0120006Y0049113D01*
X0113292Y0055827D01*
X0113292Y0056770D02*
X0122756Y0056770D01*
X0122756Y0059169D02*
X0113292Y0059169D01*
X0110906Y0061567D02*
X0122756Y0061567D01*
X0122756Y0063966D02*
X0066020Y0063966D01*
X0065654Y0066364D02*
X0122756Y0066364D01*
X0123007Y0068763D02*
X0065654Y0068763D01*
X0065517Y0071161D02*
X0122147Y0071161D01*
X0119748Y0073560D02*
X0065517Y0073560D01*
X0065517Y0075958D02*
X0100984Y0075958D01*
X0098586Y0078357D02*
X0065517Y0078357D01*
X0065517Y0080755D02*
X0098218Y0080755D01*
X0098218Y0083154D02*
X0065517Y0083154D01*
X0065517Y0085552D02*
X0098802Y0085552D01*
X0101201Y0087951D02*
X0065517Y0087951D01*
X0065517Y0090349D02*
X0121872Y0090349D01*
X0123975Y0087951D02*
X0110310Y0087951D01*
X0110820Y0092748D02*
X0119473Y0092748D01*
X0129384Y0097545D02*
X0133803Y0097545D01*
X0133842Y0099944D02*
X0126985Y0099944D01*
X0124587Y0102342D02*
X0135119Y0102342D01*
X0139367Y0098697D02*
X0145272Y0092791D01*
X0159497Y0092791D01*
X0161046Y0091242D02*
X0161046Y0099852D01*
X0157477Y0103421D01*
X0173619Y0103421D01*
X0176375Y0100272D01*
X0171017Y0098621D02*
X0171643Y0097110D01*
X0173213Y0095540D01*
X0175265Y0094691D01*
X0177485Y0094691D01*
X0177606Y0094741D01*
X0177447Y0094358D01*
X0177447Y0088126D01*
X0177995Y0086803D01*
X0178106Y0086692D01*
X0177995Y0086581D01*
X0177447Y0085258D01*
X0177447Y0079881D01*
X0156835Y0079881D01*
X0156142Y0080555D01*
X0166093Y0080555D01*
X0167416Y0081104D01*
X0168429Y0082116D01*
X0168977Y0083439D01*
X0168977Y0098621D01*
X0171017Y0098621D01*
X0171463Y0097545D02*
X0168977Y0097545D01*
X0168977Y0095147D02*
X0174164Y0095147D01*
X0177447Y0092748D02*
X0168977Y0092748D01*
X0168977Y0090349D02*
X0177447Y0090349D01*
X0177520Y0087951D02*
X0168977Y0087951D01*
X0168977Y0085552D02*
X0177569Y0085552D01*
X0177447Y0083154D02*
X0168859Y0083154D01*
X0166576Y0080755D02*
X0177447Y0080755D01*
X0185901Y0071736D02*
X0188109Y0073944D01*
X0188109Y0068256D01*
X0188432Y0067476D01*
X0188109Y0066696D01*
X0188109Y0063359D01*
X0186623Y0064846D01*
X0184571Y0065695D01*
X0182351Y0065695D01*
X0180300Y0064846D01*
X0178730Y0063276D01*
X0177880Y0061224D01*
X0177880Y0059004D01*
X0178730Y0056953D01*
X0180300Y0055383D01*
X0182186Y0054602D01*
X0187652Y0049135D01*
X0188109Y0048946D01*
X0188109Y0048256D01*
X0188657Y0046933D01*
X0189336Y0046254D01*
X0179463Y0046254D01*
X0180501Y0047292D01*
X0181350Y0049344D01*
X0181350Y0051564D01*
X0180501Y0053615D01*
X0178931Y0055185D01*
X0176879Y0056035D01*
X0174681Y0056035D01*
X0174681Y0059989D01*
X0174132Y0061312D01*
X0173715Y0061730D01*
X0173715Y0062948D01*
X0174807Y0064039D01*
X0175657Y0066091D01*
X0175657Y0068311D01*
X0175172Y0069481D01*
X0182527Y0069481D01*
X0184438Y0070273D01*
X0185901Y0071736D01*
X0185327Y0071161D02*
X0188109Y0071161D01*
X0188109Y0073560D02*
X0187725Y0073560D01*
X0188109Y0068763D02*
X0175469Y0068763D01*
X0170075Y0067201D02*
X0168915Y0066041D01*
X0168915Y0057305D01*
X0168876Y0057265D01*
X0159860Y0057265D01*
X0159781Y0057186D01*
X0159781Y0049391D01*
X0153088Y0049391D02*
X0144112Y0049391D01*
X0143246Y0050257D01*
X0142695Y0049706D01*
X0135647Y0049706D01*
X0135647Y0049702D01*
X0134249Y0048303D01*
X0125587Y0048303D01*
X0121365Y0051973D02*
X0117146Y0051973D01*
X0119545Y0049575D02*
X0120073Y0049575D01*
X0127556Y0053664D02*
X0127773Y0053446D01*
X0127556Y0053664D02*
X0127556Y0067201D01*
X0130921Y0070566D01*
X0130921Y0072512D01*
X0129536Y0071126D01*
X0136307Y0065917D02*
X0137092Y0066701D01*
X0138174Y0065619D01*
X0140225Y0064769D01*
X0142445Y0064769D01*
X0144497Y0065619D01*
X0146067Y0067189D01*
X0146916Y0069240D01*
X0146916Y0071461D01*
X0146067Y0073512D01*
X0144560Y0075018D01*
X0144560Y0077317D01*
X0151069Y0070980D01*
X0151776Y0070273D01*
X0151809Y0070259D01*
X0151835Y0070234D01*
X0152763Y0069864D01*
X0153687Y0069481D01*
X0153723Y0069481D01*
X0153756Y0069468D01*
X0154756Y0069481D01*
X0164979Y0069481D01*
X0164494Y0068311D01*
X0164494Y0067911D01*
X0164115Y0066995D01*
X0164115Y0062235D01*
X0163868Y0062482D01*
X0162545Y0063031D01*
X0157175Y0063031D01*
X0156514Y0062756D01*
X0155852Y0063031D01*
X0150483Y0063031D01*
X0149159Y0062482D01*
X0148427Y0061750D01*
X0147671Y0061750D01*
X0147254Y0062168D01*
X0145930Y0062716D01*
X0140561Y0062716D01*
X0139238Y0062168D01*
X0139052Y0061981D01*
X0138135Y0062361D01*
X0133160Y0062361D01*
X0132356Y0062028D01*
X0132356Y0065213D01*
X0132512Y0065369D01*
X0134984Y0065369D01*
X0136307Y0065917D01*
X0136755Y0066364D02*
X0137428Y0066364D01*
X0132356Y0063966D02*
X0164115Y0063966D01*
X0164115Y0066364D02*
X0145242Y0066364D01*
X0146719Y0068763D02*
X0164682Y0068763D01*
X0174733Y0063966D02*
X0179420Y0063966D01*
X0175657Y0066364D02*
X0188109Y0066364D01*
X0188109Y0063966D02*
X0187502Y0063966D01*
X0183461Y0060114D02*
X0190371Y0053205D01*
X0194701Y0053205D01*
X0194701Y0052476D01*
X0194859Y0052634D01*
X0200784Y0052634D01*
X0209426Y0061276D01*
X0209426Y0063657D01*
X0216926Y0058657D02*
X0217044Y0058539D01*
X0222438Y0058539D01*
X0226375Y0062476D01*
X0231276Y0062476D01*
X0237005Y0062476D01*
X0240548Y0058933D01*
X0240548Y0052203D01*
X0239866Y0051521D01*
X0231276Y0052476D02*
X0231040Y0052240D01*
X0231040Y0051394D01*
X0227949Y0048303D01*
X0218894Y0048303D01*
X0218501Y0048697D01*
X0213471Y0046254D02*
X0212920Y0047587D01*
X0212920Y0049807D01*
X0213769Y0051858D01*
X0214368Y0052457D01*
X0214358Y0052457D01*
X0210877Y0055938D01*
X0203503Y0048565D01*
X0201739Y0047834D01*
X0201119Y0047834D01*
X0200745Y0046933D01*
X0200067Y0046254D01*
X0213471Y0046254D01*
X0213090Y0047176D02*
X0200846Y0047176D01*
X0204513Y0049575D02*
X0212920Y0049575D01*
X0213884Y0051973D02*
X0206912Y0051973D01*
X0209310Y0054372D02*
X0212443Y0054372D01*
X0220911Y0053739D02*
X0223392Y0053739D01*
X0224684Y0054274D01*
X0224684Y0053103D01*
X0221987Y0053103D01*
X0221662Y0053428D01*
X0220911Y0053739D01*
X0220731Y0063621D02*
X0220694Y0063657D01*
X0223126Y0066089D01*
X0223126Y0067913D01*
X0224827Y0067913D01*
X0225007Y0067476D01*
X0224822Y0067029D01*
X0223656Y0066546D01*
X0220731Y0063621D01*
X0221002Y0063966D02*
X0221076Y0063966D01*
X0223126Y0066364D02*
X0223474Y0066364D01*
X0216926Y0068657D02*
X0216926Y0072319D01*
X0216532Y0072713D01*
X0231040Y0072713D01*
X0231276Y0072476D01*
X0235272Y0072476D01*
X0246060Y0061689D01*
X0257083Y0061689D01*
X0260233Y0064839D01*
X0260233Y0068579D01*
X0260469Y0068815D01*
X0259839Y0068185D01*
X0272520Y0070771D02*
X0272520Y0081738D01*
X0275500Y0084718D01*
X0280308Y0084718D01*
X0285346Y0089756D01*
X0285346Y0096880D01*
X0280308Y0101918D01*
X0273184Y0101918D01*
X0268146Y0096880D01*
X0268146Y0092072D01*
X0266275Y0090201D01*
X0266275Y0093430D01*
X0265275Y0094430D01*
X0265275Y0111442D01*
X0265327Y0111592D01*
X0265285Y0112304D01*
X0266079Y0113097D01*
X0266079Y0118233D01*
X0262447Y0121865D01*
X0257310Y0121865D01*
X0254879Y0119433D01*
X0252447Y0121865D01*
X0251899Y0121865D01*
X0251761Y0122003D01*
X0249850Y0122794D01*
X0237177Y0122794D01*
X0235914Y0122271D01*
X0236123Y0122776D01*
X0236123Y0123580D01*
X0285514Y0123580D01*
X0286760Y0122334D01*
X0286760Y0120787D01*
X0291798Y0115749D01*
X0298922Y0115749D01*
X0301010Y0117836D01*
X0300980Y0109201D01*
X0299022Y0111160D01*
X0291897Y0111160D01*
X0286859Y0106122D01*
X0286859Y0098997D01*
X0291897Y0093960D01*
X0299022Y0093960D01*
X0300934Y0095872D01*
X0300916Y0090811D01*
X0298759Y0092969D01*
X0291634Y0092969D01*
X0286596Y0087931D01*
X0286596Y0080806D01*
X0291634Y0075769D01*
X0298759Y0075769D01*
X0300872Y0077882D01*
X0300812Y0060437D01*
X0298627Y0062622D01*
X0291502Y0062622D01*
X0286464Y0057584D01*
X0286464Y0050460D01*
X0291502Y0045422D01*
X0298627Y0045422D01*
X0300767Y0047563D01*
X0300719Y0033570D01*
X0280919Y0033589D01*
X0285508Y0038178D01*
X0285508Y0045303D01*
X0280470Y0050340D01*
X0280157Y0050340D01*
X0280702Y0050862D01*
X0281036Y0051032D01*
X0281757Y0051874D01*
X0282557Y0052640D01*
X0282708Y0052983D01*
X0282952Y0053268D01*
X0283296Y0054321D01*
X0283742Y0055336D01*
X0283750Y0055710D01*
X0283866Y0056066D01*
X0283781Y0057171D01*
X0283792Y0057720D01*
X0285390Y0059317D01*
X0285390Y0066442D01*
X0280352Y0071480D01*
X0273228Y0071480D01*
X0272520Y0070771D01*
X0272520Y0071161D02*
X0272910Y0071161D01*
X0272520Y0073560D02*
X0300857Y0073560D01*
X0300849Y0071161D02*
X0280670Y0071161D01*
X0283069Y0068763D02*
X0300840Y0068763D01*
X0300832Y0066364D02*
X0285390Y0066364D01*
X0285390Y0063966D02*
X0300824Y0063966D01*
X0300816Y0061567D02*
X0299681Y0061567D01*
X0290447Y0061567D02*
X0285390Y0061567D01*
X0285242Y0059169D02*
X0288049Y0059169D01*
X0286464Y0056770D02*
X0283812Y0056770D01*
X0283318Y0054372D02*
X0286464Y0054372D01*
X0286464Y0051973D02*
X0281861Y0051973D01*
X0281236Y0049575D02*
X0287349Y0049575D01*
X0289748Y0047176D02*
X0283634Y0047176D01*
X0285508Y0044778D02*
X0300758Y0044778D01*
X0300766Y0047176D02*
X0300381Y0047176D01*
X0300750Y0042379D02*
X0285508Y0042379D01*
X0285508Y0039981D02*
X0300741Y0039981D01*
X0300733Y0037582D02*
X0284912Y0037582D01*
X0282514Y0035184D02*
X0300725Y0035184D01*
X0272889Y0033597D02*
X0262696Y0033607D01*
X0268308Y0038984D01*
X0268308Y0038178D01*
X0272889Y0033597D01*
X0271302Y0035184D02*
X0264342Y0035184D01*
X0266845Y0037582D02*
X0268904Y0037582D01*
X0254573Y0046321D02*
X0250584Y0046321D01*
X0250566Y0046303D01*
X0250448Y0046254D01*
X0254504Y0046254D01*
X0254573Y0046321D01*
X0252635Y0056721D02*
X0250584Y0056721D01*
X0250566Y0056738D01*
X0250202Y0056889D01*
X0252803Y0056889D01*
X0252635Y0056721D01*
X0252685Y0056770D02*
X0250488Y0056770D01*
X0242123Y0073106D02*
X0242123Y0108933D01*
X0241335Y0109720D01*
X0237323Y0105840D02*
X0236604Y0106559D01*
X0235996Y0108025D01*
X0235670Y0107699D01*
X0235670Y0103847D01*
X0235122Y0102524D01*
X0234109Y0101511D01*
X0233923Y0101434D01*
X0233923Y0089616D01*
X0233999Y0089368D01*
X0233923Y0088589D01*
X0233923Y0087806D01*
X0233824Y0087567D01*
X0233799Y0087309D01*
X0233431Y0086618D01*
X0233132Y0085895D01*
X0232949Y0085712D01*
X0232827Y0085483D01*
X0232222Y0084986D01*
X0231669Y0084432D01*
X0231430Y0084333D01*
X0225543Y0079488D01*
X0224990Y0078934D01*
X0224750Y0078835D01*
X0224550Y0078670D01*
X0223802Y0078442D01*
X0223078Y0078143D01*
X0222819Y0078143D01*
X0222571Y0078067D01*
X0221792Y0078143D01*
X0220514Y0078143D01*
X0220247Y0077875D01*
X0219372Y0077513D01*
X0225022Y0077513D01*
X0225232Y0078020D01*
X0226245Y0079032D01*
X0227568Y0079580D01*
X0234984Y0079580D01*
X0236308Y0079032D01*
X0237320Y0078020D01*
X0237323Y0078014D01*
X0237323Y0105840D01*
X0237323Y0104741D02*
X0235670Y0104741D01*
X0234940Y0102342D02*
X0237323Y0102342D01*
X0237323Y0099944D02*
X0233923Y0099944D01*
X0233923Y0097545D02*
X0237323Y0097545D01*
X0237323Y0095147D02*
X0233923Y0095147D01*
X0233923Y0092748D02*
X0237323Y0092748D01*
X0237323Y0090349D02*
X0233923Y0090349D01*
X0233923Y0087951D02*
X0237323Y0087951D01*
X0237323Y0085552D02*
X0232864Y0085552D01*
X0229997Y0083154D02*
X0237323Y0083154D01*
X0237323Y0080755D02*
X0227083Y0080755D01*
X0225570Y0078357D02*
X0223596Y0078357D01*
X0216239Y0083092D02*
X0215649Y0083683D01*
X0211624Y0078483D02*
X0208532Y0078483D01*
X0208343Y0078294D01*
X0208981Y0078294D01*
X0210867Y0077513D01*
X0213107Y0077513D01*
X0212232Y0077875D01*
X0211624Y0078483D01*
X0211750Y0078357D02*
X0208406Y0078357D01*
X0204592Y0077327D02*
X0203139Y0075874D01*
X0202358Y0073988D01*
X0201294Y0072924D01*
X0201294Y0076696D01*
X0201192Y0076942D01*
X0202426Y0076942D01*
X0203355Y0077327D01*
X0204592Y0077327D01*
X0203224Y0075958D02*
X0201294Y0075958D01*
X0201294Y0073560D02*
X0201930Y0073560D01*
X0207871Y0072713D02*
X0216532Y0072713D01*
X0207871Y0072713D02*
X0197635Y0062476D01*
X0194701Y0062476D01*
X0183855Y0059720D02*
X0183461Y0060114D01*
X0178022Y0061567D02*
X0173877Y0061567D01*
X0174681Y0059169D02*
X0177880Y0059169D01*
X0178912Y0056770D02*
X0174681Y0056770D01*
X0179744Y0054372D02*
X0182415Y0054372D01*
X0181181Y0051973D02*
X0184814Y0051973D01*
X0187212Y0049575D02*
X0181350Y0049575D01*
X0180385Y0047176D02*
X0188557Y0047176D01*
X0175769Y0050454D02*
X0169073Y0050454D01*
X0168915Y0050612D01*
X0153167Y0057265D02*
X0152852Y0056950D01*
X0143246Y0056950D01*
X0135884Y0056950D01*
X0135647Y0057186D01*
X0122402Y0054372D02*
X0114748Y0054372D01*
X0101277Y0046912D02*
X0099294Y0048895D01*
X0061753Y0048895D01*
X0059033Y0050022D01*
X0056952Y0052104D01*
X0051844Y0057211D01*
X0051260Y0058622D01*
X0051260Y0033813D01*
X0114438Y0033751D01*
X0101277Y0046912D01*
X0101013Y0047176D02*
X0051260Y0047176D01*
X0051260Y0049575D02*
X0060113Y0049575D01*
X0057082Y0051973D02*
X0051260Y0051973D01*
X0051260Y0054372D02*
X0054683Y0054372D01*
X0052285Y0056770D02*
X0051260Y0056770D01*
X0051260Y0044778D02*
X0103411Y0044778D01*
X0105810Y0042379D02*
X0051260Y0042379D01*
X0051260Y0039981D02*
X0108208Y0039981D01*
X0110607Y0037582D02*
X0051260Y0037582D01*
X0051260Y0035184D02*
X0113005Y0035184D01*
X0141335Y0070350D02*
X0139760Y0071925D01*
X0139760Y0081768D01*
X0138186Y0083343D01*
X0132904Y0081510D02*
X0133454Y0080181D01*
X0133980Y0079655D01*
X0128361Y0079655D01*
X0126256Y0081760D01*
X0126859Y0081510D01*
X0132904Y0081510D01*
X0133216Y0080755D02*
X0127261Y0080755D01*
X0117350Y0075958D02*
X0110526Y0075958D01*
X0122464Y0085552D02*
X0123975Y0085552D01*
X0130011Y0088654D02*
X0130921Y0088654D01*
X0144908Y0099944D02*
X0153062Y0099944D01*
X0151896Y0102342D02*
X0143614Y0102342D01*
X0151983Y0104741D02*
X0110410Y0104741D01*
X0101494Y0104741D02*
X0065517Y0104741D01*
X0065517Y0102342D02*
X0099096Y0102342D01*
X0098415Y0099944D02*
X0065517Y0099944D01*
X0065517Y0097545D02*
X0098415Y0097545D01*
X0098686Y0095147D02*
X0065517Y0095147D01*
X0065517Y0092748D02*
X0101085Y0092748D01*
X0065654Y0107139D02*
X0152001Y0107139D01*
X0152001Y0109538D02*
X0065654Y0109538D01*
X0065654Y0111936D02*
X0149822Y0111936D01*
X0146739Y0114335D02*
X0118312Y0114335D01*
X0120710Y0116733D02*
X0145990Y0116733D01*
X0146309Y0119132D02*
X0122117Y0119132D01*
X0124516Y0121530D02*
X0147956Y0121530D01*
X0151572Y0117252D02*
X0156545Y0117252D01*
X0157569Y0116228D01*
X0157580Y0116217D01*
X0165265Y0116217D01*
X0165273Y0116225D01*
X0173139Y0116225D01*
X0178708Y0116733D02*
X0229996Y0116733D01*
X0222971Y0114335D02*
X0207945Y0114335D01*
X0208146Y0111936D02*
X0221777Y0111936D01*
X0221777Y0109538D02*
X0208146Y0109538D01*
X0207993Y0107139D02*
X0221777Y0107139D01*
X0221777Y0104741D02*
X0211937Y0104741D01*
X0212673Y0104005D02*
X0212673Y0104005D01*
X0214335Y0102342D02*
X0222507Y0102342D01*
X0223523Y0099944D02*
X0216734Y0099944D01*
X0219132Y0097545D02*
X0223523Y0097545D01*
X0223523Y0095147D02*
X0221014Y0095147D01*
X0219185Y0097492D02*
X0219185Y0097492D01*
X0216239Y0093084D02*
X0213584Y0090429D01*
X0209839Y0090429D01*
X0204759Y0092748D02*
X0193447Y0092748D01*
X0193447Y0094358D02*
X0192899Y0095681D01*
X0192788Y0095792D01*
X0192899Y0095903D01*
X0193447Y0097226D01*
X0193447Y0103458D01*
X0192899Y0104781D01*
X0191969Y0105711D01*
X0193200Y0105201D01*
X0195729Y0105201D01*
X0195592Y0104872D01*
X0195592Y0096353D01*
X0196140Y0095030D01*
X0197153Y0094017D01*
X0198476Y0093469D01*
X0205057Y0093469D01*
X0204289Y0091614D01*
X0198476Y0091614D01*
X0197153Y0091066D01*
X0196140Y0090053D01*
X0195592Y0088730D01*
X0195592Y0087342D01*
X0193123Y0087342D01*
X0193447Y0088126D01*
X0193447Y0094358D01*
X0193121Y0095147D02*
X0196092Y0095147D01*
X0195592Y0097545D02*
X0193447Y0097545D01*
X0193447Y0099944D02*
X0195592Y0099944D01*
X0195592Y0102342D02*
X0193447Y0102342D01*
X0192916Y0104741D02*
X0195592Y0104741D01*
X0191794Y0105832D02*
X0191460Y0106166D01*
X0191000Y0106166D01*
X0191000Y0106161D01*
X0191794Y0105832D01*
X0186200Y0101095D02*
X0185447Y0100342D01*
X0186200Y0101095D02*
X0186200Y0110966D01*
X0195885Y0110966D01*
X0179507Y0110966D02*
X0178065Y0109524D01*
X0173131Y0109524D01*
X0173139Y0109532D01*
X0165273Y0109532D01*
X0165265Y0109524D01*
X0165254Y0109535D01*
X0157569Y0109535D01*
X0157477Y0109443D01*
X0157477Y0103421D01*
X0178697Y0119132D02*
X0222132Y0119132D01*
X0221777Y0121530D02*
X0176935Y0121530D01*
X0169344Y0121530D02*
X0169041Y0121530D01*
X0161489Y0121530D02*
X0161372Y0121530D01*
X0115578Y0133523D02*
X0051260Y0133523D01*
X0051260Y0131124D02*
X0113179Y0131124D01*
X0110781Y0128726D02*
X0051260Y0128726D01*
X0051260Y0126327D02*
X0108382Y0126327D01*
X0106683Y0123929D02*
X0051260Y0123929D01*
X0051260Y0121530D02*
X0106683Y0121530D01*
X0106683Y0119132D02*
X0051260Y0119132D01*
X0051260Y0116733D02*
X0054038Y0116733D01*
X0051640Y0114335D02*
X0051260Y0114335D01*
X0062197Y0116733D02*
X0107729Y0116733D01*
X0110128Y0114335D02*
X0064595Y0114335D01*
X0144560Y0075958D02*
X0145955Y0075958D01*
X0146019Y0073560D02*
X0148419Y0073560D01*
X0146916Y0071161D02*
X0150882Y0071161D01*
X0193375Y0087951D02*
X0195592Y0087951D01*
X0196437Y0090349D02*
X0193447Y0090349D01*
X0202539Y0084470D02*
X0201391Y0082142D01*
X0221808Y0090349D02*
X0222374Y0090349D01*
X0221774Y0092748D02*
X0223523Y0092748D01*
X0235670Y0107139D02*
X0236364Y0107139D01*
X0252782Y0121530D02*
X0256975Y0121530D01*
X0262782Y0121530D02*
X0286760Y0121530D01*
X0288415Y0119132D02*
X0281623Y0119132D01*
X0280197Y0120557D02*
X0273073Y0120557D01*
X0268035Y0115519D01*
X0268035Y0108395D01*
X0273073Y0103357D01*
X0280197Y0103357D01*
X0285235Y0108395D01*
X0285235Y0115519D01*
X0280197Y0120557D01*
X0284021Y0116733D02*
X0290814Y0116733D01*
X0285235Y0114335D02*
X0300997Y0114335D01*
X0301006Y0116733D02*
X0299907Y0116733D01*
X0300989Y0111936D02*
X0285235Y0111936D01*
X0285235Y0109538D02*
X0290275Y0109538D01*
X0287876Y0107139D02*
X0283979Y0107139D01*
X0281581Y0104741D02*
X0286859Y0104741D01*
X0286859Y0102342D02*
X0265275Y0102342D01*
X0265275Y0104741D02*
X0271689Y0104741D01*
X0269291Y0107139D02*
X0265275Y0107139D01*
X0265275Y0109538D02*
X0268035Y0109538D01*
X0268035Y0111936D02*
X0265307Y0111936D01*
X0266079Y0114335D02*
X0268035Y0114335D01*
X0269249Y0116733D02*
X0266079Y0116733D01*
X0265180Y0119132D02*
X0271647Y0119132D01*
X0300644Y0109538D02*
X0300981Y0109538D01*
X0286859Y0099944D02*
X0282283Y0099944D01*
X0284682Y0097545D02*
X0288312Y0097545D01*
X0290710Y0095147D02*
X0285346Y0095147D01*
X0285346Y0092748D02*
X0291413Y0092748D01*
X0289015Y0090349D02*
X0285346Y0090349D01*
X0286616Y0087951D02*
X0283541Y0087951D01*
X0281143Y0085552D02*
X0286596Y0085552D01*
X0286596Y0083154D02*
X0273936Y0083154D01*
X0272520Y0080755D02*
X0286647Y0080755D01*
X0289046Y0078357D02*
X0272520Y0078357D01*
X0272520Y0075958D02*
X0291444Y0075958D01*
X0298948Y0075958D02*
X0300865Y0075958D01*
X0266424Y0090349D02*
X0266275Y0090349D01*
X0266275Y0092748D02*
X0268146Y0092748D01*
X0268146Y0095147D02*
X0265275Y0095147D01*
X0265275Y0097545D02*
X0268811Y0097545D01*
X0271209Y0099944D02*
X0265275Y0099944D01*
X0298979Y0092748D02*
X0300923Y0092748D01*
X0300931Y0095147D02*
X0300208Y0095147D01*
X0237323Y0078357D02*
X0236983Y0078357D01*
X0298922Y0132949D02*
X0301054Y0130817D01*
X0301067Y0134587D01*
X0295433Y0134592D01*
X0297076Y0132949D01*
X0298922Y0132949D01*
X0301064Y0133523D02*
X0296502Y0133523D01*
X0300747Y0131124D02*
X0301055Y0131124D01*
D22*
X0259879Y0115665D02*
X0260075Y0112319D01*
X0260075Y0090862D01*
X0260469Y0090469D01*
X0260469Y0068815D01*
X0267320Y0064051D02*
X0267320Y0083891D01*
X0276746Y0093318D01*
X0250075Y0090862D02*
X0250075Y0069209D01*
X0250469Y0068815D01*
X0267320Y0064051D02*
X0254789Y0051521D01*
X0246558Y0051521D01*
X0185447Y0078636D02*
X0181493Y0074681D01*
X0154721Y0074681D01*
X0139760Y0089248D01*
X0131516Y0089248D01*
X0130921Y0088654D01*
X0121036Y0098539D01*
X0105952Y0098539D01*
X0105755Y0081847D02*
X0118816Y0081847D01*
X0129536Y0071126D01*
X0185447Y0078636D02*
X0185447Y0082142D01*
X0201391Y0082142D01*
X0203326Y0083683D02*
X0202539Y0084470D01*
X0203326Y0083683D02*
X0215649Y0083683D01*
X0216239Y0083092D02*
X0216489Y0083343D01*
X0222044Y0083343D01*
X0228723Y0088841D01*
X0228723Y0108106D01*
X0238212Y0117594D01*
X0248816Y0117594D01*
X0249879Y0116531D01*
X0249879Y0115665D01*
X0249879Y0091059D01*
X0250075Y0090862D01*
X0229078Y0107752D02*
X0228723Y0108106D01*
X0216239Y0093084D02*
X0208264Y0101059D01*
X0202986Y0101059D01*
X0202539Y0100612D01*
X0202578Y0100179D01*
X0202578Y0110966D01*
X0202539Y0100612D02*
X0203273Y0099484D01*
X0216239Y0093084D02*
X0216239Y0089785D01*
D23*
X0209839Y0090429D03*
X0176375Y0100272D03*
X0157477Y0103421D03*
X0139367Y0098697D03*
X0148422Y0088067D03*
X0153540Y0088067D03*
X0138186Y0083343D03*
X0141335Y0070350D03*
X0170075Y0067201D03*
X0183461Y0060114D03*
X0175769Y0050454D03*
X0218501Y0048697D03*
X0207871Y0072713D03*
X0242123Y0073106D03*
X0241335Y0109720D03*
X0151572Y0117252D03*
X0125587Y0048303D03*
D24*
X0119800Y0038854D02*
X0105469Y0053185D01*
X0105469Y0055773D01*
X0105755Y0056059D01*
X0105519Y0056295D01*
X0063225Y0056295D01*
X0058117Y0061403D01*
X0058117Y0066807D01*
X0058117Y0110154D01*
X0114220Y0120902D02*
X0114220Y0121700D01*
X0123501Y0130980D01*
X0228343Y0130980D01*
X0228723Y0130600D01*
X0228723Y0124248D01*
X0228343Y0130980D02*
X0288579Y0130980D01*
X0295211Y0124349D01*
X0295360Y0124349D01*
X0276790Y0062880D02*
X0275981Y0062070D01*
X0276375Y0056965D01*
X0257477Y0038854D01*
X0119800Y0038854D01*
M02*
