G75*
%MOIN*%
%OFA0B0*%
%FSLAX25Y25*%
%IPPOS*%
%LPD*%
%AMOC8*
5,1,8,0,0,1.08239X$1,22.5*
%
%ADD10C,0.00000*%
%ADD11R,0.04737X0.05131*%
%ADD12OC8,0.06000*%
%ADD13R,0.07493X0.07887*%
%ADD14R,0.09600X0.05600*%
%ADD15R,0.09461X0.14973*%
%ADD16R,0.04343X0.03950*%
%ADD17R,0.05131X0.04737*%
%ADD18OC8,0.10800*%
%ADD19R,0.06784X0.07808*%
%ADD20OC8,0.08674*%
%ADD21C,0.04762*%
D10*
X0046060Y0028618D02*
X0306285Y0028364D01*
X0305902Y0028618D02*
X0306285Y0139782D01*
X0046060Y0140035D01*
X0046060Y0028618D01*
D11*
X0143246Y0050257D03*
X0153088Y0049391D03*
X0159781Y0049391D03*
X0159860Y0057265D03*
X0153167Y0057265D03*
X0143246Y0056950D03*
X0216239Y0083092D03*
X0216239Y0089785D03*
X0173139Y0109532D03*
X0179507Y0110966D03*
X0186200Y0110966D03*
X0195885Y0110966D03*
X0202578Y0110966D03*
X0173139Y0116225D03*
X0165265Y0116217D03*
X0157569Y0116228D03*
X0157569Y0109535D03*
X0165265Y0109524D03*
X0239866Y0051521D03*
X0246558Y0051521D03*
D12*
X0216926Y0058657D03*
X0209426Y0063657D03*
X0216926Y0068657D03*
X0250469Y0068815D03*
X0260469Y0068815D03*
X0260075Y0090862D03*
X0250075Y0090862D03*
X0249879Y0115665D03*
X0259879Y0115665D03*
D13*
X0228723Y0108106D03*
X0202539Y0100612D03*
X0202539Y0084470D03*
X0130921Y0088654D03*
X0130921Y0072512D03*
X0228723Y0124248D03*
D14*
X0185447Y0100342D03*
X0185447Y0091242D03*
X0185447Y0082142D03*
D15*
X0161046Y0091242D03*
D16*
X0135647Y0057186D03*
X0127773Y0053446D03*
X0135647Y0049706D03*
D17*
X0168915Y0050612D03*
X0168915Y0057305D03*
D18*
X0276790Y0062880D03*
X0295064Y0054022D03*
X0276908Y0041740D03*
X0295196Y0084369D03*
X0276746Y0093318D03*
X0295459Y0102560D03*
X0276635Y0111957D03*
X0295360Y0124349D03*
D19*
X0231276Y0072476D03*
X0231276Y0062476D03*
X0231276Y0052476D03*
X0194701Y0052476D03*
X0194701Y0062476D03*
X0194701Y0072476D03*
D20*
X0105755Y0081847D03*
X0105952Y0098539D03*
X0114220Y0120902D03*
X0058117Y0110154D03*
X0058117Y0066807D03*
X0105755Y0056059D03*
D21*
X0125587Y0048303D03*
X0141335Y0070350D03*
X0138186Y0083343D03*
X0148422Y0088067D03*
X0153540Y0088067D03*
X0139367Y0098697D03*
X0157477Y0103421D03*
X0176375Y0100272D03*
X0209839Y0090429D03*
X0207871Y0072713D03*
X0183461Y0060114D03*
X0170075Y0067201D03*
X0175769Y0050454D03*
X0218501Y0048697D03*
X0242123Y0073106D03*
X0241335Y0109720D03*
X0151572Y0117252D03*
M02*
