  0
SECTION
  2
HEADER
  9
$ACADVER
  1
AC1018
  9
$INSBASE
 10
0.0
 20
0.0
 30
0.0
  9
$EXTMIN
 10
0.01817
 20
0.28364
 30
0.0
  9
$EXTMAX
 10
29.5813349606
 20
12.3561349606
 30
0.0
  9
$LIMMIN
 10
0.01817
 20
0.28364
  9
$LIMMAX
 10
29.5813349606
 20
12.3561349606
  9
$INSUNITS
 70
     4
  9
$HANDSEED
  5
   634
  0
ENDSEC
  0
SECTION
  2
CLASSES
  0
ENDSEC
  0
SECTION
  2
TABLES
  0
TABLE
  2
VPORT
  5
1
330
0
100
AcDbSymbolTable
 70
     0
  0
ENDTAB
  0
TABLE
  2
LTYPE
  5
2
330
0
100
AcDbSymbolTable
 70
     3
  0
LTYPE
  5
3
330
2
100
AcDbSymbolTableRecord
100
AcDbLinetypeTableRecord
  2
BYLAYER
 70
     0
  3
Continuous
 72
    65
 73
     0
 40
0.0
  0
LTYPE
  5
4
330
2
100
AcDbSymbolTableRecord
100
AcDbLinetypeTableRecord
  2
BYBLOCK
 70
     0
  3
Continuous
 72
    65
 73
     0
 40
0.0
  0
LTYPE
  5
5
330
2
100
AcDbSymbolTableRecord
100
AcDbLinetypeTableRecord
  2
CONTINUOUS
 70
     0
  3
Continuous
 72
    65
 73
     0
 40
0.0
  0
ENDTAB
  0
TABLE
  2
LAYER
  5
6
330
0
100
AcDbSymbolTable
 70
     2
  0
LAYER
  5
7
330
6
100
AcDbSymbolTableRecord
100
AcDbLayerTableRecord
  2
0
 70
     0
 62
     7
  6
CONTINUOUS
370
     0
390
     0
  0
LAYER
  5
8
330
6
100
AcDbSymbolTableRecord
100
AcDbLayerTableRecord
  2
TRACTOR_PLC
 70
     0
 62
    41
  6
CONTINUOUS
370
     0
390
     0
  0
ENDTAB
  0
TABLE
  2
STYLE
  5
9
330
0
100
AcDbSymbolTable
 70
     0
  0
ENDTAB
  0
TABLE
  2
VIEW
  5
A
330
0
100
AcDbSymbolTable
 70
     0
  0
ENDTAB
  0
TABLE
  2
UCS
  5
B
330
0
100
AcDbSymbolTable
 70
     0
  0
ENDTAB
  0
TABLE
  2
APPID
  5
C
330
0
100
AcDbSymbolTable
 70
     1
  0
APPID
  5
D
330
C
100
AcDbSymbolTableRecord
100
AcDbRegAppTableRecord
  2
ACAD
 70
     0
  0
ENDTAB
  0
TABLE
  2
DIMSTYLE
  5
E
330
0
100
AcDbSymbolTable
 70
     0
100
AcDbDimStyleTable
 71
     0
  0
ENDTAB
  0
TABLE
  2
BLOCK_RECORD
  5
F
330
0
100
AcDbSymbolTable
 70
    63
  0
BLOCK_RECORD
  5
10
330
F
100
AcDbSymbolTableRecord
100
AcDbBlockTableRecord
  2
*Model_Space
340
52
  0
BLOCK_RECORD
  5
11
330
F
100
AcDbSymbolTableRecord
100
AcDbBlockTableRecord
  2
*Paper_Space
340
53
  0
BLOCK_RECORD
  5
12
330
F
100
AcDbSymbolTableRecord
100
AcDbBlockTableRecord
  2
ROUND_1
340
0
  0
BLOCK_RECORD
  5
13
330
F
100
AcDbSymbolTableRecord
100
AcDbBlockTableRecord
  2
RECTANGLE_2
340
0
  0
BLOCK_RECORD
  5
14
330
F
100
AcDbSymbolTableRecord
100
AcDbBlockTableRecord
  2
ROUND_3
340
0
  0
BLOCK_RECORD
  5
15
330
F
100
AcDbSymbolTableRecord
100
AcDbBlockTableRecord
  2
RECTANGLE_4
340
0
  0
BLOCK_RECORD
  5
16
330
F
100
AcDbSymbolTableRecord
100
AcDbBlockTableRecord
  2
RECTANGLE_5
340
0
  0
BLOCK_RECORD
  5
17
330
F
100
AcDbSymbolTableRecord
100
AcDbBlockTableRecord
  2
RECTANGLE_6
340
0
  0
BLOCK_RECORD
  5
18
330
F
100
AcDbSymbolTableRecord
100
AcDbBlockTableRecord
  2
RECTANGLE_7
340
0
  0
BLOCK_RECORD
  5
19
330
F
100
AcDbSymbolTableRecord
100
AcDbBlockTableRecord
  2
RECTANGLE_8
340
0
  0
BLOCK_RECORD
  5
1A
330
F
100
AcDbSymbolTableRecord
100
AcDbBlockTableRecord
  2
SQUARE_9
340
0
  0
BLOCK_RECORD
  5
1B
330
F
100
AcDbSymbolTableRecord
100
AcDbBlockTableRecord
  2
CUSTOM_10
340
0
  0
BLOCK_RECORD
  5
1C
330
F
100
AcDbSymbolTableRecord
100
AcDbBlockTableRecord
  2
ROUND_11
340
0
  0
BLOCK_RECORD
  5
1D
330
F
100
AcDbSymbolTableRecord
100
AcDbBlockTableRecord
  2
ROUND_12
340
0
  0
BLOCK_RECORD
  5
1E
330
F
100
AcDbSymbolTableRecord
100
AcDbBlockTableRecord
  2
CUSTOM_13
340
0
  0
BLOCK_RECORD
  5
1F
330
F
100
AcDbSymbolTableRecord
100
AcDbBlockTableRecord
  2
CUSTOM_14
340
0
  0
BLOCK_RECORD
  5
20
330
F
100
AcDbSymbolTableRecord
100
AcDbBlockTableRecord
  2
RECTANGLE_15
340
0
  0
BLOCK_RECORD
  5
21
330
F
100
AcDbSymbolTableRecord
100
AcDbBlockTableRecord
  2
RECTANGLE_16
340
0
  0
BLOCK_RECORD
  5
22
330
F
100
AcDbSymbolTableRecord
100
AcDbBlockTableRecord
  2
SQUARE_17
340
0
  0
BLOCK_RECORD
  5
23
330
F
100
AcDbSymbolTableRecord
100
AcDbBlockTableRecord
  2
ROUND_18
340
0
  0
BLOCK_RECORD
  5
24
330
F
100
AcDbSymbolTableRecord
100
AcDbBlockTableRecord
  2
ROUND_19
340
0
  0
BLOCK_RECORD
  5
25
330
F
100
AcDbSymbolTableRecord
100
AcDbBlockTableRecord
  2
ROUND_20
340
0
  0
BLOCK_RECORD
  5
26
330
F
100
AcDbSymbolTableRecord
100
AcDbBlockTableRecord
  2
CUSTOM_21
340
0
  0
BLOCK_RECORD
  5
27
330
F
100
AcDbSymbolTableRecord
100
AcDbBlockTableRecord
  2
ROUND_22
340
0
  0
BLOCK_RECORD
  5
28
330
F
100
AcDbSymbolTableRecord
100
AcDbBlockTableRecord
  2
ROUND_23
340
0
  0
BLOCK_RECORD
  5
29
330
F
100
AcDbSymbolTableRecord
100
AcDbBlockTableRecord
  2
ROUND_24
340
0
  0
BLOCK_RECORD
  5
2A
330
F
100
AcDbSymbolTableRecord
100
AcDbBlockTableRecord
  2
ROUND_25
340
0
  0
BLOCK_RECORD
  5
2B
330
F
100
AcDbSymbolTableRecord
100
AcDbBlockTableRecord
  2
ROUND_26
340
0
  0
BLOCK_RECORD
  5
2C
330
F
100
AcDbSymbolTableRecord
100
AcDbBlockTableRecord
  2
ROUND_27
340
0
  0
BLOCK_RECORD
  5
2D
330
F
100
AcDbSymbolTableRecord
100
AcDbBlockTableRecord
  2
RECTANGLE_28
340
0
  0
BLOCK_RECORD
  5
2E
330
F
100
AcDbSymbolTableRecord
100
AcDbBlockTableRecord
  2
RECTANGLE_29
340
0
  0
BLOCK_RECORD
  5
2F
330
F
100
AcDbSymbolTableRecord
100
AcDbBlockTableRecord
  2
CUSTOM_30
340
0
  0
BLOCK_RECORD
  5
30
330
F
100
AcDbSymbolTableRecord
100
AcDbBlockTableRecord
  2
CUSTOM_31
340
0
  0
BLOCK_RECORD
  5
31
330
F
100
AcDbSymbolTableRecord
100
AcDbBlockTableRecord
  2
CUSTOM_32
340
0
  0
BLOCK_RECORD
  5
32
330
F
100
AcDbSymbolTableRecord
100
AcDbBlockTableRecord
  2
CUSTOM_33
340
0
  0
BLOCK_RECORD
  5
33
330
F
100
AcDbSymbolTableRecord
100
AcDbBlockTableRecord
  2
ROUND_34
340
0
  0
BLOCK_RECORD
  5
34
330
F
100
AcDbSymbolTableRecord
100
AcDbBlockTableRecord
  2
ROUND_35
340
0
  0
BLOCK_RECORD
  5
35
330
F
100
AcDbSymbolTableRecord
100
AcDbBlockTableRecord
  2
CUSTOM_36
340
0
  0
BLOCK_RECORD
  5
36
330
F
100
AcDbSymbolTableRecord
100
AcDbBlockTableRecord
  2
CUSTOM_37
340
0
  0
BLOCK_RECORD
  5
37
330
F
100
AcDbSymbolTableRecord
100
AcDbBlockTableRecord
  2
CUSTOM_38
340
0
  0
BLOCK_RECORD
  5
38
330
F
100
AcDbSymbolTableRecord
100
AcDbBlockTableRecord
  2
CUSTOM_39
340
0
  0
BLOCK_RECORD
  5
39
330
F
100
AcDbSymbolTableRecord
100
AcDbBlockTableRecord
  2
RECTANGLE_40
340
0
  0
BLOCK_RECORD
  5
3A
330
F
100
AcDbSymbolTableRecord
100
AcDbBlockTableRecord
  2
ROUND_41
340
0
  0
BLOCK_RECORD
  5
3B
330
F
100
AcDbSymbolTableRecord
100
AcDbBlockTableRecord
  2
RECTANGLE_42
340
0
  0
BLOCK_RECORD
  5
3C
330
F
100
AcDbSymbolTableRecord
100
AcDbBlockTableRecord
  2
RECTANGLE_43
340
0
  0
BLOCK_RECORD
  5
3D
330
F
100
AcDbSymbolTableRecord
100
AcDbBlockTableRecord
  2
RECTANGLE_44
340
0
  0
BLOCK_RECORD
  5
3E
330
F
100
AcDbSymbolTableRecord
100
AcDbBlockTableRecord
  2
RECTANGLE_45
340
0
  0
BLOCK_RECORD
  5
3F
330
F
100
AcDbSymbolTableRecord
100
AcDbBlockTableRecord
  2
SQUARE_46
340
0
  0
BLOCK_RECORD
  5
40
330
F
100
AcDbSymbolTableRecord
100
AcDbBlockTableRecord
  2
CUSTOM_47
340
0
  0
BLOCK_RECORD
  5
41
330
F
100
AcDbSymbolTableRecord
100
AcDbBlockTableRecord
  2
CUSTOM_48
340
0
  0
BLOCK_RECORD
  5
42
330
F
100
AcDbSymbolTableRecord
100
AcDbBlockTableRecord
  2
CUSTOM_49
340
0
  0
BLOCK_RECORD
  5
43
330
F
100
AcDbSymbolTableRecord
100
AcDbBlockTableRecord
  2
SQUARE_50
340
0
  0
BLOCK_RECORD
  5
44
330
F
100
AcDbSymbolTableRecord
100
AcDbBlockTableRecord
  2
ROUND_51
340
0
  0
BLOCK_RECORD
  5
45
330
F
100
AcDbSymbolTableRecord
100
AcDbBlockTableRecord
  2
CUSTOM_52
340
0
  0
BLOCK_RECORD
  5
46
330
F
100
AcDbSymbolTableRecord
100
AcDbBlockTableRecord
  2
RECTANGLE_53
340
0
  0
BLOCK_RECORD
  5
47
330
F
100
AcDbSymbolTableRecord
100
AcDbBlockTableRecord
  2
RECTANGLE_54
340
0
  0
BLOCK_RECORD
  5
48
330
F
100
AcDbSymbolTableRecord
100
AcDbBlockTableRecord
  2
RECTANGLE_55
340
0
  0
BLOCK_RECORD
  5
49
330
F
100
AcDbSymbolTableRecord
100
AcDbBlockTableRecord
  2
RECTANGLE_56
340
0
  0
BLOCK_RECORD
  5
4A
330
F
100
AcDbSymbolTableRecord
100
AcDbBlockTableRecord
  2
CUSTOM_57
340
0
  0
BLOCK_RECORD
  5
4B
330
F
100
AcDbSymbolTableRecord
100
AcDbBlockTableRecord
  2
CUSTOM_58
340
0
  0
BLOCK_RECORD
  5
4C
330
F
100
AcDbSymbolTableRecord
100
AcDbBlockTableRecord
  2
CUSTOM_59
340
0
  0
BLOCK_RECORD
  5
4D
330
F
100
AcDbSymbolTableRecord
100
AcDbBlockTableRecord
  2
RECTANGLE_60
340
0
  0
BLOCK_RECORD
  5
4E
330
F
100
AcDbSymbolTableRecord
100
AcDbBlockTableRecord
  2
CUSTOM_61
340
0
  0
ENDTAB
  0
ENDSEC
  0
SECTION
  2
BLOCKS
  0
BLOCK
  5
55
330
10
100
AcDbEntity
  8
0
100
AcDbBlockBegin
  2
*Model_Space
 70
     0
 10
0.0
 20
0.0
 30
0.0
  3
*Model_Space
  1

  0
ENDBLK
  5
56
330
10
100
AcDbEntity
  8
0
100
AcDbBlockEnd
  0
BLOCK
  5
57
330
11
100
AcDbEntity
  8
0
100
AcDbBlockBegin
  2
*Paper_Space
 70
     0
 10
0.0
 20
0.0
 30
0.0
  3
*Paper_Space
  1

  0
ENDBLK
  5
58
330
11
100
AcDbEntity
  8
0
100
AcDbBlockEnd
  0
BLOCK
  5
59
330
12
100
AcDbEntity
  8
0
100
AcDbBlockBegin
  2
ROUND_1
 70
     0
 10
0.0
 20
0.0
 30
0.0
  3
ROUND_1
  1

  0
HATCH
  5
5B
330
12
100
AcDbEntity
  8
0
100
AcDbHatch
 10
0.0
 20
0.0
 30
0.0
210
0.0
220
0.0
230
1.0
  2
SOLID
 70
     1
 71
     0
 91
     1
 92
     0
 93
     1
 72
     2
 10
0.0
 20
0.0
 40
0.0
 50
0.0
 51
360.0
 73
     1
 97
     0
 75
     0
 76
     1
 98
     1
 10
0.0
 20
0.0
  0
ENDBLK
  5
5A
330
12
100
AcDbEntity
  8
0
100
AcDbBlockEnd
  0
BLOCK
  5
5C
330
13
100
AcDbEntity
  8
0
100
AcDbBlockBegin
  2
RECTANGLE_2
 70
     0
 10
0.0
 20
0.0
 30
0.0
  3
RECTANGLE_2
  1

  0
SOLID
  5
5E
330
13
100
AcDbEntity
  8
0
  6
BYLAYER
 62
   256
100
AcDbTrace
 10
0.0196849606286
 20
0.0216549608625
 30
0.0
 11
0.0196849606286
 21
-0.0216549603589
 31
0.0
 12
-0.0196849081029
 22
0.0216549608625
 32
0.0
 13
-0.0196849081029
 23
-0.0216549603589
 33
0.0
  0
ENDBLK
  5
5D
330
13
100
AcDbEntity
  8
0
100
AcDbBlockEnd
  0
BLOCK
  5
5F
330
14
100
AcDbEntity
  8
0
100
AcDbBlockBegin
  2
ROUND_3
 70
     0
 10
0.0
 20
0.0
 30
0.0
  3
ROUND_3
  1

  0
HATCH
  5
61
330
14
100
AcDbEntity
  8
0
100
AcDbHatch
 10
0.0
 20
0.0
 30
0.0
210
0.0
220
0.0
230
1.0
  2
SOLID
 70
     1
 71
     0
 91
     1
 92
     0
 93
     1
 72
     2
 10
0.0
 20
0.0
 40
0.0218099737339
 50
0.0
 51
360.0
 73
     1
 97
     0
 75
     0
 76
     1
 98
     1
 10
0.0
 20
0.0
  0
ENDBLK
  5
60
330
14
100
AcDbEntity
  8
0
100
AcDbBlockEnd
  0
BLOCK
  5
62
330
15
100
AcDbEntity
  8
0
100
AcDbBlockBegin
  2
RECTANGLE_4
 70
     0
 10
0.0
 20
0.0
 30
0.0
  3
RECTANGLE_4
  1

  0
SOLID
  5
64
330
15
100
AcDbEntity
  8
0
  6
BYLAYER
 62
   256
100
AcDbTrace
 10
0.0334649606163
 20
0.0354349608503
 30
0.0
 11
0.0334649606163
 21
-0.0354349603466
 31
0.0
 12
-0.0334649080906
 22
0.0354349608503
 32
0.0
 13
-0.0334649080906
 23
-0.0354349603466
 33
0.0
  0
ENDBLK
  5
63
330
15
100
AcDbEntity
  8
0
100
AcDbBlockEnd
  0
BLOCK
  5
65
330
16
100
AcDbEntity
  8
0
100
AcDbBlockBegin
  2
RECTANGLE_5
 70
     0
 10
0.0
 20
0.0
 30
0.0
  3
RECTANGLE_5
  1

  0
SOLID
  5
67
330
16
100
AcDbEntity
  8
0
  6
BYLAYER
 62
   256
100
AcDbTrace
 10
0.0440000262238
 20
0.0240000002305
 30
0.0
 11
0.0440000262238
 21
-0.0239999997269
 31
0.0
 12
-0.0439999736981
 22
0.0240000002305
 32
0.0
 13
-0.0439999736981
 23
-0.0239999997269
 33
0.0
  0
ENDBLK
  5
66
330
16
100
AcDbEntity
  8
0
100
AcDbBlockEnd
  0
BLOCK
  5
68
330
17
100
AcDbEntity
  8
0
100
AcDbBlockBegin
  2
RECTANGLE_6
 70
     0
 10
0.0
 20
0.0
 30
0.0
  3
RECTANGLE_6
  1

  0
SOLID
  5
6A
330
17
100
AcDbEntity
  8
0
  6
BYLAYER
 62
   256
100
AcDbTrace
 10
0.0433049606076
 20
0.0708649345721
 30
0.0
 11
0.0433049606076
 21
-0.0708649340685
 31
0.0
 12
-0.0433049080819
 22
0.0708649345721
 32
0.0
 13
-0.0433049080819
 23
-0.0708649340685
 33
0.0
  0
ENDBLK
  5
69
330
17
100
AcDbEntity
  8
0
100
AcDbBlockEnd
  0
BLOCK
  5
6B
330
18
100
AcDbEntity
  8
0
100
AcDbBlockBegin
  2
RECTANGLE_7
 70
     0
 10
0.0
 20
0.0
 30
0.0
  3
RECTANGLE_7
  1

  0
SOLID
  5
6D
330
18
100
AcDbEntity
  8
0
  6
BYLAYER
 62
   256
100
AcDbTrace
 10
0.017714986877
 20
0.0157499739911
 30
0.0
 11
0.017714986877
 21
-0.0157499734875
 31
0.0
 12
-0.0177149343513
 22
0.0157499739911
 32
0.0
 13
-0.0177149343513
 23
-0.0157499734875
 33
0.0
  0
ENDBLK
  5
6C
330
18
100
AcDbEntity
  8
0
100
AcDbBlockEnd
  0
BLOCK
  5
6E
330
19
100
AcDbEntity
  8
0
100
AcDbBlockBegin
  2
RECTANGLE_8
 70
     0
 10
0.0
 20
0.0
 30
0.0
  3
RECTANGLE_8
  1

  0
SOLID
  5
70
330
19
100
AcDbEntity
  8
0
  6
BYLAYER
 62
   256
100
AcDbTrace
 10
0.0216549868735
 20
0.0196849346175
 30
0.0
 11
0.0216549868735
 21
-0.0196849341139
 31
0.0
 12
-0.0216549343478
 22
0.0196849346175
 32
0.0
 13
-0.0216549343478
 23
-0.0196849341139
 33
0.0
  0
ENDBLK
  5
6F
330
19
100
AcDbEntity
  8
0
100
AcDbBlockEnd
  0
BLOCK
  5
71
330
1A
100
AcDbEntity
  8
0
100
AcDbBlockBegin
  2
SQUARE_9
 70
     0
 10
0.0
 20
0.0
 30
0.0
  3
SQUARE_9
  1

  0
SOLID
  5
73
330
1A
100
AcDbEntity
  8
0
  6
BYLAYER
 62
   256
100
AcDbTrace
 10
0.0590549868403
 20
0.0590549608293
 30
0.0
 11
0.0590549868403
 21
-0.0590549603257
 31
0.0
 12
-0.0590549343146
 22
0.0590549608293
 32
0.0
 13
-0.0590549343146
 23
-0.0590549603257
 33
0.0
  0
ENDBLK
  5
72
330
1A
100
AcDbEntity
  8
0
100
AcDbBlockEnd
  0
BLOCK
  5
74
330
1B
100
AcDbEntity
  8
0
100
AcDbBlockBegin
  2
CUSTOM_10
 70
     0
 10
0.0
 20
0.0
 30
0.0
  3
CUSTOM_10
  1

  0
SOLID
  5
76
330
1B
100
AcDbEntity
  8
0
  6
BYLAYER
 62
   256
100
AcDbTrace
 10
-0.0107694750399
 20
-0.0259998947382
 30
0.0
 11
-0.0259998687272
 21
-0.010769501051
 31
0.0
 12
0.0107695275656
 22
-0.0259998947382
 32
0.0
 13
0.0259999212529
 23
-0.010769501051
 33
0.0
  0
SOLID
  5
77
330
1B
100
AcDbEntity
  8
0
  6
BYLAYER
 62
   256
100
AcDbTrace
 10
-0.0259998687272
 20
-0.010769501051
 30
0.0
 11
-0.0259998687272
 21
0.0107695015546
 31
0.0
 12
0.0259999212529
 22
-0.010769501051
 32
0.0
 13
0.0259999212529
 23
0.0107695015546
 33
0.0
  0
SOLID
  5
78
330
1B
100
AcDbEntity
  8
0
  6
BYLAYER
 62
   256
100
AcDbTrace
 10
-0.0259998687272
 20
0.0107695015546
 30
0.0
 11
-0.0107694750399
 21
0.0259998952419
 31
0.0
 12
0.0259999212529
 22
0.0107695015546
 32
0.0
 13
0.0107695275656
 23
0.0259998952419
 33
0.0
  0
ENDBLK
  5
75
330
1B
100
AcDbEntity
  8
0
100
AcDbBlockEnd
  0
BLOCK
  5
79
330
1C
100
AcDbEntity
  8
0
100
AcDbBlockBegin
  2
ROUND_11
 70
     0
 10
0.0
 20
0.0
 30
0.0
  3
ROUND_11
  1

  0
HATCH
  5
7B
330
1C
100
AcDbEntity
  8
0
100
AcDbHatch
 10
0.0
 20
0.0
 30
0.0
210
0.0
220
0.0
230
1.0
  2
SOLID
 70
     1
 71
     0
 91
     1
 92
     0
 93
     1
 72
     2
 10
0.0
 20
0.0
 40
0.000999999999112
 50
0.0
 51
360.0
 73
     1
 97
     0
 75
     0
 76
     1
 98
     1
 10
0.0
 20
0.0
  0
ENDBLK
  5
7A
330
1C
100
AcDbEntity
  8
0
100
AcDbBlockEnd
  0
BLOCK
  5
7C
330
1D
100
AcDbEntity
  8
0
100
AcDbBlockBegin
  2
ROUND_12
 70
     0
 10
0.0
 20
0.0
 30
0.0
  3
ROUND_12
  1

  0
HATCH
  5
7E
330
1D
100
AcDbEntity
  8
0
100
AcDbHatch
 10
0.0
 20
0.0
 30
0.0
210
0.0
220
0.0
230
1.0
  2
SOLID
 70
     1
 71
     0
 91
     1
 92
     0
 93
     1
 72
     2
 10
0.0
 20
0.0
 40
0.00249999999778
 50
0.0
 51
360.0
 73
     1
 97
     0
 75
     0
 76
     1
 98
     1
 10
0.0
 20
0.0
  0
ENDBLK
  5
7D
330
1D
100
AcDbEntity
  8
0
100
AcDbBlockEnd
  0
BLOCK
  5
7F
330
1E
100
AcDbEntity
  8
0
100
AcDbBlockBegin
  2
CUSTOM_13
 70
     0
 10
0.0
 20
0.0
 30
0.0
  3
CUSTOM_13
  1

  0
SOLID
  5
81
330
1E
100
AcDbEntity
  8
0
  6
BYLAYER
 62
   256
100
AcDbTrace
 10
-0.0285392388037
 20
-0.0688998422067
 30
0.0
 11
-0.0688997112088
 21
-0.0285392648147
 31
0.0
 12
0.0285392388359
 22
-0.0688998422067
 32
0.0
 13
0.0688998687214
 23
-0.0285392648147
 33
0.0
  0
SOLID
  5
82
330
1E
100
AcDbEntity
  8
0
  6
BYLAYER
 62
   256
100
AcDbTrace
 10
-0.0688997112088
 20
-0.0285392648147
 30
0.0
 11
-0.0688998161957
 21
-0.0285392123213
 31
0.0
 12
0.0688998687214
 22
-0.0285392648147
 32
0.0
 13
0.0688998687214
 23
-0.0285392123213
 33
0.0
  0
SOLID
  5
83
330
1E
100
AcDbEntity
  8
0
  6
BYLAYER
 62
   256
100
AcDbTrace
 10
-0.0688998161957
 20
-0.0285392123213
 30
0.0
 11
-0.0688998161957
 21
0.0285392128249
 31
0.0
 12
0.0688998687214
 22
-0.0285392123213
 32
0.0
 13
0.0688998687214
 23
0.0285392128249
 33
0.0
  0
SOLID
  5
84
330
1E
100
AcDbEntity
  8
0
  6
BYLAYER
 62
   256
100
AcDbTrace
 10
-0.0688998161957
 20
0.0285392128249
 30
0.0
 11
-0.0688998161957
 21
0.0285392653183
 31
0.0
 12
0.0688998687214
 22
0.0285392128249
 32
0.0
 13
0.0688998687214
 23
0.0285392653183
 33
0.0
  0
SOLID
  5
85
330
1E
100
AcDbEntity
  8
0
  6
BYLAYER
 62
   256
100
AcDbTrace
 10
-0.0688998161957
 20
0.0285392653183
 30
0.0
 11
-0.0285391863102
 21
0.0688998427103
 31
0.0
 12
0.0688998687214
 22
0.0285392653183
 32
0.0
 13
0.0285392913294
 23
0.0688998427103
 33
0.0
  0
ENDBLK
  5
80
330
1E
100
AcDbEntity
  8
0
100
AcDbBlockEnd
  0
BLOCK
  5
86
330
1F
100
AcDbEntity
  8
0
100
AcDbBlockBegin
  2
CUSTOM_14
 70
     0
 10
0.0
 20
0.0
 30
0.0
  3
CUSTOM_14
  1

  0
SOLID
  5
88
330
1F
100
AcDbEntity
  8
0
  6
BYLAYER
 62
   256
100
AcDbTrace
 10
-0.0203853805432
 20
-0.0492148553475
 30
0.0
 11
-0.0492148293365
 21
-0.0203855115411
 31
0.0
 12
0.0203855380558
 22
-0.0492148553475
 32
0.0
 13
0.0492148293688
 23
-0.0203855115411
 33
0.0
  0
SOLID
  5
89
330
1F
100
AcDbEntity
  8
0
  6
BYLAYER
 62
   256
100
AcDbTrace
 10
-0.0492148293365
 20
-0.0203855115411
 30
0.0
 11
-0.0492148293365
 21
-0.0203854065542
 31
0.0
 12
0.0492148293688
 22
-0.0203855115411
 32
0.0
 13
0.0492148818622
 23
-0.0203854065542
 33
0.0
  0
SOLID
  5
8A
330
1F
100
AcDbEntity
  8
0
  6
BYLAYER
 62
   256
100
AcDbTrace
 10
-0.0492148293365
 20
-0.0203854065542
 30
0.0
 11
-0.0492148293365
 21
0.0203854070579
 31
0.0
 12
0.0492148818622
 22
-0.0203854065542
 32
0.0
 13
0.0492148818622
 23
0.0203854070579
 33
0.0
  0
SOLID
  5
8B
330
1F
100
AcDbEntity
  8
0
  6
BYLAYER
 62
   256
100
AcDbTrace
 10
-0.0492148293365
 20
0.0203854070579
 30
0.0
 11
-0.0492148293365
 21
0.0203855120447
 31
0.0
 12
0.0492148818622
 22
0.0203854070579
 32
0.0
 13
0.0492148818622
 23
0.0203855120447
 33
0.0
  0
SOLID
  5
8C
330
1F
100
AcDbEntity
  8
0
  6
BYLAYER
 62
   256
100
AcDbTrace
 10
-0.0492148293365
 20
0.0203855120447
 30
0.0
 11
-0.0203854855301
 21
0.0492148558512
 31
0.0
 12
0.0492148818622
 22
0.0203855120447
 32
0.0
 13
0.0203854330689
 23
0.0492148558512
 33
0.0
  0
ENDBLK
  5
87
330
1F
100
AcDbEntity
  8
0
100
AcDbBlockEnd
  0
BLOCK
  5
8D
330
20
100
AcDbEntity
  8
0
100
AcDbBlockBegin
  2
RECTANGLE_15
 70
     0
 10
0.0
 20
0.0
 30
0.0
  3
RECTANGLE_15
  1

  0
SOLID
  5
8F
330
20
100
AcDbEntity
  8
0
  6
BYLAYER
 62
   256
100
AcDbTrace
 10
0.0299200262363
 20
0.0350400002207
 30
0.0
 11
0.0299200262363
 21
-0.0350399997171
 31
0.0
 12
-0.0299199737106
 22
0.0350400002207
 32
0.0
 13
-0.0299199737106
 23
-0.0350399997171
 33
0.0
  0
ENDBLK
  5
8E
330
20
100
AcDbEntity
  8
0
100
AcDbBlockEnd
  0
BLOCK
  5
90
330
21
100
AcDbEntity
  8
0
100
AcDbBlockBegin
  2
RECTANGLE_16
 70
     0
 10
0.0
 20
0.0
 30
0.0
  3
RECTANGLE_16
  1

  0
SOLID
  5
92
330
21
100
AcDbEntity
  8
0
  6
BYLAYER
 62
   256
100
AcDbTrace
 10
0.0354349868613
 20
0.0334649346053
 30
0.0
 11
0.0354349868613
 21
-0.0334649341017
 31
0.0
 12
-0.0354349343356
 22
0.0334649346053
 32
0.0
 13
-0.0354349343356
 23
-0.0334649341017
 33
0.0
  0
ENDBLK
  5
91
330
21
100
AcDbEntity
  8
0
100
AcDbBlockEnd
  0
BLOCK
  5
93
330
22
100
AcDbEntity
  8
0
100
AcDbBlockBegin
  2
SQUARE_17
 70
     0
 10
0.0
 20
0.0
 30
0.0
  3
SQUARE_17
  1

  0
SOLID
  5
95
330
22
100
AcDbEntity
  8
0
  6
BYLAYER
 62
   256
100
AcDbTrace
 10
0.0315000262349
 20
0.0315000002239
 30
0.0
 11
0.0315000262349
 21
-0.0314999997202
 31
0.0
 12
-0.0314999737092
 22
0.0315000002239
 32
0.0
 13
-0.0314999737092
 23
-0.0314999997202
 33
0.0
  0
ENDBLK
  5
94
330
22
100
AcDbEntity
  8
0
100
AcDbBlockEnd
  0
BLOCK
  5
96
330
23
100
AcDbEntity
  8
0
100
AcDbBlockBegin
  2
ROUND_18
 70
     0
 10
0.0
 20
0.0
 30
0.0
  3
ROUND_18
  1

  0
HATCH
  5
98
330
23
100
AcDbEntity
  8
0
100
AcDbHatch
 10
0.0
 20
0.0
 30
0.0
210
0.0
220
0.0
230
1.0
  2
SOLID
 70
     1
 71
     0
 91
     1
 92
     0
 93
     1
 72
     2
 10
0.0
 20
0.0
 40
0.0119999999893
 50
0.0
 51
360.0
 73
     1
 97
     0
 75
     0
 76
     1
 98
     1
 10
0.0
 20
0.0
  0
ENDBLK
  5
97
330
23
100
AcDbEntity
  8
0
100
AcDbBlockEnd
  0
BLOCK
  5
99
330
24
100
AcDbEntity
  8
0
100
AcDbBlockBegin
  2
ROUND_19
 70
     0
 10
0.0
 20
0.0
 30
0.0
  3
ROUND_19
  1

  0
HATCH
  5
9B
330
24
100
AcDbEntity
  8
0
100
AcDbHatch
 10
0.0
 20
0.0
 30
0.0
210
0.0
220
0.0
230
1.0
  2
SOLID
 70
     1
 71
     0
 91
     1
 92
     0
 93
     1
 72
     2
 10
0.0
 20
0.0
 40
0.0159999999858
 50
0.0
 51
360.0
 73
     1
 97
     0
 75
     0
 76
     1
 98
     1
 10
0.0
 20
0.0
  0
ENDBLK
  5
9A
330
24
100
AcDbEntity
  8
0
100
AcDbBlockEnd
  0
BLOCK
  5
9C
330
25
100
AcDbEntity
  8
0
100
AcDbBlockBegin
  2
ROUND_20
 70
     0
 10
0.0
 20
0.0
 30
0.0
  3
ROUND_20
  1

  0
HATCH
  5
9E
330
25
100
AcDbEntity
  8
0
100
AcDbHatch
 10
0.0
 20
0.0
 30
0.0
210
0.0
220
0.0
230
1.0
  2
SOLID
 70
     1
 71
     0
 91
     1
 92
     0
 93
     1
 72
     2
 10
0.0
 20
0.0
 40
0.0198099737357
 50
0.0
 51
360.0
 73
     1
 97
     0
 75
     0
 76
     1
 98
     1
 10
0.0
 20
0.0
  0
ENDBLK
  5
9D
330
25
100
AcDbEntity
  8
0
100
AcDbBlockEnd
  0
BLOCK
  5
9F
330
26
100
AcDbEntity
  8
0
100
AcDbBlockBegin
  2
CUSTOM_21
 70
     0
 10
0.0
 20
0.0
 30
0.0
  3
CUSTOM_21
  1

  0
SOLID
  5
A1
330
26
100
AcDbEntity
  8
0
  6
BYLAYER
 62
   256
100
AcDbTrace
 10
-0.00820553803433
 20
-0.0198099209904
 30
0.0
 11
-0.0198097899925
 21
-0.00820556404536
 31
0.0
 12
0.00820553806659
 22
-0.0198099209904
 32
0.0
 13
0.0198099475051
 23
-0.00820556404536
 33
0.0
  0
SOLID
  5
A2
330
26
100
AcDbEntity
  8
0
  6
BYLAYER
 62
   256
100
AcDbTrace
 10
-0.0198097899925
 20
-0.00820556404536
 30
0.0
 11
-0.0198098949794
 21
-0.00820551155192
 31
0.0
 12
0.0198099475051
 22
-0.00820556404536
 32
0.0
 13
0.0198099475051
 23
-0.00820551155192
 33
0.0
  0
SOLID
  5
A3
330
26
100
AcDbEntity
  8
0
  6
BYLAYER
 62
   256
100
AcDbTrace
 10
-0.0198098949794
 20
-0.00820551155192
 30
0.0
 11
-0.0198098949794
 21
0.00820551205556
 31
0.0
 12
0.0198099475051
 22
-0.00820551155192
 32
0.0
 13
0.0198099475051
 23
0.00820551205556
 33
0.0
  0
SOLID
  5
A4
330
26
100
AcDbEntity
  8
0
  6
BYLAYER
 62
   256
100
AcDbTrace
 10
-0.0198098949794
 20
0.00820551205556
 30
0.0
 11
-0.0198098949794
 21
0.008205564549
 31
0.0
 12
0.0198099475051
 22
0.00820551205556
 32
0.0
 13
0.0198099475051
 23
0.008205564549
 33
0.0
  0
SOLID
  5
A5
330
26
100
AcDbEntity
  8
0
  6
BYLAYER
 62
   256
100
AcDbTrace
 10
-0.0198098949794
 20
0.008205564549
 30
0.0
 11
-0.00820548554089
 21
0.0198099214941
 31
0.0
 12
0.0198099475051
 22
0.008205564549
 32
0.0
 13
0.00820559056003
 23
0.0198099214941
 33
0.0
  0
ENDBLK
  5
A0
330
26
100
AcDbEntity
  8
0
100
AcDbBlockEnd
  0
BLOCK
  5
A6
330
27
100
AcDbEntity
  8
0
100
AcDbBlockBegin
  2
ROUND_22
 70
     0
 10
0.0
 20
0.0
 30
0.0
  3
ROUND_22
  1

  0
HATCH
  5
A8
330
27
100
AcDbEntity
  8
0
100
AcDbHatch
 10
0.0
 20
0.0
 30
0.0
210
0.0
220
0.0
230
1.0
  2
SOLID
 70
     1
 71
     0
 91
     1
 92
     0
 93
     1
 72
     2
 10
0.0
 20
0.0
 40
0.0199999999822
 50
0.0
 51
360.0
 73
     1
 97
     0
 75
     0
 76
     1
 98
     1
 10
0.0
 20
0.0
  0
ENDBLK
  5
A7
330
27
100
AcDbEntity
  8
0
100
AcDbBlockEnd
  0
BLOCK
  5
A9
330
28
100
AcDbEntity
  8
0
100
AcDbBlockBegin
  2
ROUND_23
 70
     0
 10
0.0
 20
0.0
 30
0.0
  3
ROUND_23
  1

  0
HATCH
  5
AB
330
28
100
AcDbEntity
  8
0
100
AcDbHatch
 10
0.0
 20
0.0
 30
0.0
210
0.0
220
0.0
230
1.0
  2
SOLID
 70
     1
 71
     0
 91
     1
 92
     0
 93
     1
 72
     2
 10
0.0
 20
0.0
 40
0.00399999999645
 50
0.0
 51
360.0
 73
     1
 97
     0
 75
     0
 76
     1
 98
     1
 10
0.0
 20
0.0
  0
ENDBLK
  5
AA
330
28
100
AcDbEntity
  8
0
100
AcDbBlockEnd
  0
BLOCK
  5
AC
330
29
100
AcDbEntity
  8
0
100
AcDbBlockBegin
  2
ROUND_24
 70
     0
 10
0.0
 20
0.0
 30
0.0
  3
ROUND_24
  1

  0
HATCH
  5
AE
330
29
100
AcDbEntity
  8
0
100
AcDbHatch
 10
0.0
 20
0.0
 30
0.0
210
0.0
220
0.0
230
1.0
  2
SOLID
 70
     1
 71
     0
 91
     1
 92
     0
 93
     1
 72
     2
 10
0.0
 20
0.0
 40
0.00199999999822
 50
0.0
 51
360.0
 73
     1
 97
     0
 75
     0
 76
     1
 98
     1
 10
0.0
 20
0.0
  0
ENDBLK
  5
AD
330
29
100
AcDbEntity
  8
0
100
AcDbBlockEnd
  0
BLOCK
  5
AF
330
2A
100
AcDbEntity
  8
0
100
AcDbBlockBegin
  2
ROUND_25
 70
     0
 10
0.0
 20
0.0
 30
0.0
  3
ROUND_25
  1

  0
HATCH
  5
B1
330
2A
100
AcDbEntity
  8
0
100
AcDbHatch
 10
0.0
 20
0.0
 30
0.0
210
0.0
220
0.0
230
1.0
  2
SOLID
 70
     1
 71
     0
 91
     1
 92
     0
 93
     1
 72
     2
 10
0.0
 20
0.0
 40
0.0379999999663
 50
0.0
 51
360.0
 73
     1
 97
     0
 75
     0
 76
     1
 98
     1
 10
0.0
 20
0.0
  0
ENDBLK
  5
B0
330
2A
100
AcDbEntity
  8
0
100
AcDbBlockEnd
  0
BLOCK
  5
B2
330
2B
100
AcDbEntity
  8
0
100
AcDbBlockBegin
  2
ROUND_26
 70
     0
 10
0.0
 20
0.0
 30
0.0
  3
ROUND_26
  1

  0
HATCH
  5
B4
330
2B
100
AcDbEntity
  8
0
100
AcDbHatch
 10
0.0
 20
0.0
 30
0.0
210
0.0
220
0.0
230
1.0
  2
SOLID
 70
     1
 71
     0
 91
     1
 92
     0
 93
     1
 72
     2
 10
0.0
 20
0.0
 40
0.00299999999734
 50
0.0
 51
360.0
 73
     1
 97
     0
 75
     0
 76
     1
 98
     1
 10
0.0
 20
0.0
  0
ENDBLK
  5
B3
330
2B
100
AcDbEntity
  8
0
100
AcDbBlockEnd
  0
BLOCK
  5
B5
330
2C
100
AcDbEntity
  8
0
100
AcDbBlockBegin
  2
ROUND_27
 70
     0
 10
0.0
 20
0.0
 30
0.0
  3
ROUND_27
  1

  0
HATCH
  5
B7
330
2C
100
AcDbEntity
  8
0
100
AcDbHatch
 10
0.0
 20
0.0
 30
0.0
210
0.0
220
0.0
230
1.0
  2
SOLID
 70
     1
 71
     0
 91
     1
 92
     0
 93
     1
 72
     2
 10
0.0
 20
0.0
 40
0.0108699737436
 50
0.0
 51
360.0
 73
     1
 97
     0
 75
     0
 76
     1
 98
     1
 10
0.0
 20
0.0
  0
ENDBLK
  5
B6
330
2C
100
AcDbEntity
  8
0
100
AcDbBlockEnd
  0
BLOCK
  5
B8
330
2D
100
AcDbEntity
  8
0
100
AcDbBlockBegin
  2
RECTANGLE_28
 70
     0
 10
0.0
 20
0.0
 30
0.0
  3
RECTANGLE_28
  1

  0
SOLID
  5
BA
330
2D
100
AcDbEntity
  8
0
  6
BYLAYER
 62
   256
100
AcDbTrace
 10
0.0118100000056
 20
0.0433049345966
 30
0.0
 11
0.0118100000056
 21
-0.0433049340929
 31
0.0
 12
-0.0118099474799
 22
0.0433049345966
 32
0.0
 13
-0.0118099474799
 23
-0.0433049340929
 33
0.0
  0
ENDBLK
  5
B9
330
2D
100
AcDbEntity
  8
0
100
AcDbBlockEnd
  0
BLOCK
  5
BB
330
2E
100
AcDbEntity
  8
0
100
AcDbBlockBegin
  2
RECTANGLE_29
 70
     0
 10
0.0
 20
0.0
 30
0.0
  3
RECTANGLE_29
  1

  0
SOLID
  5
BD
330
2E
100
AcDbEntity
  8
0
  6
BYLAYER
 62
   256
100
AcDbTrace
 10
0.0196849606286
 20
0.00984493462628
 30
0.0
 11
0.0196849606286
 21
-0.00984493412264
 31
0.0
 12
-0.0196849081029
 22
0.00984493462628
 32
0.0
 13
-0.0196849081029
 23
-0.00984493412264
 33
0.0
  0
ENDBLK
  5
BC
330
2E
100
AcDbEntity
  8
0
100
AcDbBlockEnd
  0
BLOCK
  5
BE
330
2F
100
AcDbEntity
  8
0
100
AcDbBlockBegin
  2
CUSTOM_30
 70
     0
 10
0.0
 20
0.0
 30
0.0
  3
CUSTOM_30
  1

  0
SOLID
  5
C0
330
2F
100
AcDbEntity
  8
0
  6
BYLAYER
 62
   256
100
AcDbTrace
 10
-0.0107694750399
 20
-0.0259998947382
 30
0.0
 11
-0.0259998687272
 21
-0.010769501051
 31
0.0
 12
0.0107695275656
 22
-0.0259998947382
 32
0.0
 13
0.0259999212529
 23
-0.010769501051
 33
0.0
  0
SOLID
  5
C1
330
2F
100
AcDbEntity
  8
0
  6
BYLAYER
 62
   256
100
AcDbTrace
 10
-0.0259998687272
 20
-0.010769501051
 30
0.0
 11
-0.0259998687272
 21
0.0107695015546
 31
0.0
 12
0.0259999212529
 22
-0.010769501051
 32
0.0
 13
0.0259999212529
 23
0.0107695015546
 33
0.0
  0
SOLID
  5
C2
330
2F
100
AcDbEntity
  8
0
  6
BYLAYER
 62
   256
100
AcDbTrace
 10
-0.0259998687272
 20
0.0107695015546
 30
0.0
 11
-0.0107694750399
 21
0.0259998952419
 31
0.0
 12
0.0259999212529
 22
0.0107695015546
 32
0.0
 13
0.0107695275656
 23
0.0259998952419
 33
0.0
  0
ENDBLK
  5
BF
330
2F
100
AcDbEntity
  8
0
100
AcDbBlockEnd
  0
BLOCK
  5
C3
330
30
100
AcDbEntity
  8
0
100
AcDbBlockBegin
  2
CUSTOM_31
 70
     0
 10
0.0
 20
0.0
 30
0.0
  3
CUSTOM_31
  1

  0
SOLID
  5
C5
330
30
100
AcDbEntity
  8
0
  6
BYLAYER
 62
   256
100
AcDbTrace
 10
-0.0285392388037
 20
-0.0688998422067
 30
0.0
 11
-0.0688997112088
 21
-0.0285392648147
 31
0.0
 12
0.0285392388359
 22
-0.0688998422067
 32
0.0
 13
0.0688998687214
 23
-0.0285392648147
 33
0.0
  0
SOLID
  5
C6
330
30
100
AcDbEntity
  8
0
  6
BYLAYER
 62
   256
100
AcDbTrace
 10
-0.0688997112088
 20
-0.0285392648147
 30
0.0
 11
-0.0688998161957
 21
-0.0285392123213
 31
0.0
 12
0.0688998687214
 22
-0.0285392648147
 32
0.0
 13
0.0688998687214
 23
-0.0285392123213
 33
0.0
  0
SOLID
  5
C7
330
30
100
AcDbEntity
  8
0
  6
BYLAYER
 62
   256
100
AcDbTrace
 10
-0.0688998161957
 20
-0.0285392123213
 30
0.0
 11
-0.0688998161957
 21
0.0285392128249
 31
0.0
 12
0.0688998687214
 22
-0.0285392123213
 32
0.0
 13
0.0688998687214
 23
0.0285392128249
 33
0.0
  0
SOLID
  5
C8
330
30
100
AcDbEntity
  8
0
  6
BYLAYER
 62
   256
100
AcDbTrace
 10
-0.0688998161957
 20
0.0285392128249
 30
0.0
 11
-0.0688998161957
 21
0.0285392653183
 31
0.0
 12
0.0688998687214
 22
0.0285392128249
 32
0.0
 13
0.0688998687214
 23
0.0285392653183
 33
0.0
  0
SOLID
  5
C9
330
30
100
AcDbEntity
  8
0
  6
BYLAYER
 62
   256
100
AcDbTrace
 10
-0.0688998161957
 20
0.0285392653183
 30
0.0
 11
-0.0285391863102
 21
0.0688998427103
 31
0.0
 12
0.0688998687214
 22
0.0285392653183
 32
0.0
 13
0.0285392913294
 23
0.0688998427103
 33
0.0
  0
ENDBLK
  5
C4
330
30
100
AcDbEntity
  8
0
100
AcDbBlockEnd
  0
BLOCK
  5
CA
330
31
100
AcDbEntity
  8
0
100
AcDbBlockBegin
  2
CUSTOM_32
 70
     0
 10
0.0
 20
0.0
 30
0.0
  3
CUSTOM_32
  1

  0
SOLID
  5
CC
330
31
100
AcDbEntity
  8
0
  6
BYLAYER
 62
   256
100
AcDbTrace
 10
-0.0203853805432
 20
-0.0492148553475
 30
0.0
 11
-0.0492148293365
 21
-0.0203855115411
 31
0.0
 12
0.0203855380558
 22
-0.0492148553475
 32
0.0
 13
0.0492148293688
 23
-0.0203855115411
 33
0.0
  0
SOLID
  5
CD
330
31
100
AcDbEntity
  8
0
  6
BYLAYER
 62
   256
100
AcDbTrace
 10
-0.0492148293365
 20
-0.0203855115411
 30
0.0
 11
-0.0492148293365
 21
-0.0203854065542
 31
0.0
 12
0.0492148293688
 22
-0.0203855115411
 32
0.0
 13
0.0492148818622
 23
-0.0203854065542
 33
0.0
  0
SOLID
  5
CE
330
31
100
AcDbEntity
  8
0
  6
BYLAYER
 62
   256
100
AcDbTrace
 10
-0.0492148293365
 20
-0.0203854065542
 30
0.0
 11
-0.0492148293365
 21
0.0203854070579
 31
0.0
 12
0.0492148818622
 22
-0.0203854065542
 32
0.0
 13
0.0492148818622
 23
0.0203854070579
 33
0.0
  0
SOLID
  5
CF
330
31
100
AcDbEntity
  8
0
  6
BYLAYER
 62
   256
100
AcDbTrace
 10
-0.0492148293365
 20
0.0203854070579
 30
0.0
 11
-0.0492148293365
 21
0.0203855120447
 31
0.0
 12
0.0492148818622
 22
0.0203854070579
 32
0.0
 13
0.0492148818622
 23
0.0203855120447
 33
0.0
  0
SOLID
  5
D0
330
31
100
AcDbEntity
  8
0
  6
BYLAYER
 62
   256
100
AcDbTrace
 10
-0.0492148293365
 20
0.0203855120447
 30
0.0
 11
-0.0203854855301
 21
0.0492148558512
 31
0.0
 12
0.0492148818622
 22
0.0203855120447
 32
0.0
 13
0.0203854330689
 23
0.0492148558512
 33
0.0
  0
ENDBLK
  5
CB
330
31
100
AcDbEntity
  8
0
100
AcDbBlockEnd
  0
BLOCK
  5
D1
330
32
100
AcDbEntity
  8
0
100
AcDbBlockBegin
  2
CUSTOM_33
 70
     0
 10
0.0
 20
0.0
 30
0.0
  3
CUSTOM_33
  1

  0
SOLID
  5
D3
330
32
100
AcDbEntity
  8
0
  6
BYLAYER
 62
   256
100
AcDbTrace
 10
-0.00820553803433
 20
-0.0198099209904
 30
0.0
 11
-0.0198097899925
 21
-0.00820556404536
 31
0.0
 12
0.00820553806659
 22
-0.0198099209904
 32
0.0
 13
0.0198099475051
 23
-0.00820556404536
 33
0.0
  0
SOLID
  5
D4
330
32
100
AcDbEntity
  8
0
  6
BYLAYER
 62
   256
100
AcDbTrace
 10
-0.0198097899925
 20
-0.00820556404536
 30
0.0
 11
-0.0198098949794
 21
-0.00820551155192
 31
0.0
 12
0.0198099475051
 22
-0.00820556404536
 32
0.0
 13
0.0198099475051
 23
-0.00820551155192
 33
0.0
  0
SOLID
  5
D5
330
32
100
AcDbEntity
  8
0
  6
BYLAYER
 62
   256
100
AcDbTrace
 10
-0.0198098949794
 20
-0.00820551155192
 30
0.0
 11
-0.0198098949794
 21
0.00820551205556
 31
0.0
 12
0.0198099475051
 22
-0.00820551155192
 32
0.0
 13
0.0198099475051
 23
0.00820551205556
 33
0.0
  0
SOLID
  5
D6
330
32
100
AcDbEntity
  8
0
  6
BYLAYER
 62
   256
100
AcDbTrace
 10
-0.0198098949794
 20
0.00820551205556
 30
0.0
 11
-0.0198098949794
 21
0.008205564549
 31
0.0
 12
0.0198099475051
 22
0.00820551205556
 32
0.0
 13
0.0198099475051
 23
0.008205564549
 33
0.0
  0
SOLID
  5
D7
330
32
100
AcDbEntity
  8
0
  6
BYLAYER
 62
   256
100
AcDbTrace
 10
-0.0198098949794
 20
0.008205564549
 30
0.0
 11
-0.00820548554089
 21
0.0198099214941
 31
0.0
 12
0.0198099475051
 22
0.008205564549
 32
0.0
 13
0.00820559056003
 23
0.0198099214941
 33
0.0
  0
ENDBLK
  5
D2
330
32
100
AcDbEntity
  8
0
100
AcDbBlockEnd
  0
BLOCK
  5
D8
330
33
100
AcDbEntity
  8
0
100
AcDbBlockBegin
  2
ROUND_34
 70
     0
 10
0.0
 20
0.0
 30
0.0
  3
ROUND_34
  1

  0
HATCH
  5
DA
330
33
100
AcDbEntity
  8
0
100
AcDbHatch
 10
0.0
 20
0.0
 30
0.0
210
0.0
220
0.0
230
1.0
  2
SOLID
 70
     1
 71
     0
 91
     1
 92
     0
 93
     1
 72
     2
 10
0.0
 20
0.0
 40
0.000499999999556
 50
0.0
 51
360.0
 73
     1
 97
     0
 75
     0
 76
     1
 98
     1
 10
0.0
 20
0.0
  0
ENDBLK
  5
D9
330
33
100
AcDbEntity
  8
0
100
AcDbBlockEnd
  0
BLOCK
  5
DB
330
34
100
AcDbEntity
  8
0
100
AcDbBlockBegin
  2
ROUND_35
 70
     0
 10
0.0
 20
0.0
 30
0.0
  3
ROUND_35
  1

  0
HATCH
  5
DD
330
34
100
AcDbEntity
  8
0
100
AcDbHatch
 10
0.0
 20
0.0
 30
0.0
210
0.0
220
0.0
230
1.0
  2
SOLID
 70
     1
 71
     0
 91
     1
 92
     0
 93
     1
 72
     2
 10
0.0
 20
0.0
 40
0.00499999999556
 50
0.0
 51
360.0
 73
     1
 97
     0
 75
     0
 76
     1
 98
     1
 10
0.0
 20
0.0
  0
ENDBLK
  5
DC
330
34
100
AcDbEntity
  8
0
100
AcDbBlockEnd
  0
BLOCK
  5
DE
330
35
100
AcDbEntity
  8
0
100
AcDbBlockBegin
  2
CUSTOM_36
 70
     0
 10
0.0
 20
0.0
 30
0.0
  3
CUSTOM_36
  1

  0
SOLID
  5
E0
330
35
100
AcDbEntity
  8
0
  6
BYLAYER
 62
   256
100
AcDbTrace
 10
-0.0107694750399
 20
-0.0259998947382
 30
0.0
 11
-0.0259998687272
 21
-0.010769501051
 31
0.0
 12
0.0107695275656
 22
-0.0259998947382
 32
0.0
 13
0.0259999212529
 23
-0.010769501051
 33
0.0
  0
SOLID
  5
E1
330
35
100
AcDbEntity
  8
0
  6
BYLAYER
 62
   256
100
AcDbTrace
 10
-0.0259998687272
 20
-0.010769501051
 30
0.0
 11
-0.0259998687272
 21
0.0107695015546
 31
0.0
 12
0.0259999212529
 22
-0.010769501051
 32
0.0
 13
0.0259999212529
 23
0.0107695015546
 33
0.0
  0
SOLID
  5
E2
330
35
100
AcDbEntity
  8
0
  6
BYLAYER
 62
   256
100
AcDbTrace
 10
-0.0259998687272
 20
0.0107695015546
 30
0.0
 11
-0.0107694750399
 21
0.0259998952419
 31
0.0
 12
0.0259999212529
 22
0.0107695015546
 32
0.0
 13
0.0107695275656
 23
0.0259998952419
 33
0.0
  0
ENDBLK
  5
DF
330
35
100
AcDbEntity
  8
0
100
AcDbBlockEnd
  0
BLOCK
  5
E3
330
36
100
AcDbEntity
  8
0
100
AcDbBlockBegin
  2
CUSTOM_37
 70
     0
 10
0.0
 20
0.0
 30
0.0
  3
CUSTOM_37
  1

  0
SOLID
  5
E5
330
36
100
AcDbEntity
  8
0
  6
BYLAYER
 62
   256
100
AcDbTrace
 10
-0.0285392388037
 20
-0.0688998422067
 30
0.0
 11
-0.0688997112088
 21
-0.0285392648147
 31
0.0
 12
0.0285392388359
 22
-0.0688998422067
 32
0.0
 13
0.0688998687214
 23
-0.0285392648147
 33
0.0
  0
SOLID
  5
E6
330
36
100
AcDbEntity
  8
0
  6
BYLAYER
 62
   256
100
AcDbTrace
 10
-0.0688997112088
 20
-0.0285392648147
 30
0.0
 11
-0.0688998161957
 21
-0.0285392123213
 31
0.0
 12
0.0688998687214
 22
-0.0285392648147
 32
0.0
 13
0.0688998687214
 23
-0.0285392123213
 33
0.0
  0
SOLID
  5
E7
330
36
100
AcDbEntity
  8
0
  6
BYLAYER
 62
   256
100
AcDbTrace
 10
-0.0688998161957
 20
-0.0285392123213
 30
0.0
 11
-0.0688998161957
 21
0.0285392128249
 31
0.0
 12
0.0688998687214
 22
-0.0285392123213
 32
0.0
 13
0.0688998687214
 23
0.0285392128249
 33
0.0
  0
SOLID
  5
E8
330
36
100
AcDbEntity
  8
0
  6
BYLAYER
 62
   256
100
AcDbTrace
 10
-0.0688998161957
 20
0.0285392128249
 30
0.0
 11
-0.0688998161957
 21
0.0285392653183
 31
0.0
 12
0.0688998687214
 22
0.0285392128249
 32
0.0
 13
0.0688998687214
 23
0.0285392653183
 33
0.0
  0
SOLID
  5
E9
330
36
100
AcDbEntity
  8
0
  6
BYLAYER
 62
   256
100
AcDbTrace
 10
-0.0688998161957
 20
0.0285392653183
 30
0.0
 11
-0.0285391863102
 21
0.0688998427103
 31
0.0
 12
0.0688998687214
 22
0.0285392653183
 32
0.0
 13
0.0285392913294
 23
0.0688998427103
 33
0.0
  0
ENDBLK
  5
E4
330
36
100
AcDbEntity
  8
0
100
AcDbBlockEnd
  0
BLOCK
  5
EA
330
37
100
AcDbEntity
  8
0
100
AcDbBlockBegin
  2
CUSTOM_38
 70
     0
 10
0.0
 20
0.0
 30
0.0
  3
CUSTOM_38
  1

  0
SOLID
  5
EC
330
37
100
AcDbEntity
  8
0
  6
BYLAYER
 62
   256
100
AcDbTrace
 10
-0.0203853805432
 20
-0.0492148553475
 30
0.0
 11
-0.0492148293365
 21
-0.0203855115411
 31
0.0
 12
0.0203855380558
 22
-0.0492148553475
 32
0.0
 13
0.0492148293688
 23
-0.0203855115411
 33
0.0
  0
SOLID
  5
ED
330
37
100
AcDbEntity
  8
0
  6
BYLAYER
 62
   256
100
AcDbTrace
 10
-0.0492148293365
 20
-0.0203855115411
 30
0.0
 11
-0.0492148293365
 21
-0.0203854065542
 31
0.0
 12
0.0492148293688
 22
-0.0203855115411
 32
0.0
 13
0.0492148818622
 23
-0.0203854065542
 33
0.0
  0
SOLID
  5
EE
330
37
100
AcDbEntity
  8
0
  6
BYLAYER
 62
   256
100
AcDbTrace
 10
-0.0492148293365
 20
-0.0203854065542
 30
0.0
 11
-0.0492148293365
 21
0.0203854070579
 31
0.0
 12
0.0492148818622
 22
-0.0203854065542
 32
0.0
 13
0.0492148818622
 23
0.0203854070579
 33
0.0
  0
SOLID
  5
EF
330
37
100
AcDbEntity
  8
0
  6
BYLAYER
 62
   256
100
AcDbTrace
 10
-0.0492148293365
 20
0.0203854070579
 30
0.0
 11
-0.0492148293365
 21
0.0203855120447
 31
0.0
 12
0.0492148818622
 22
0.0203854070579
 32
0.0
 13
0.0492148818622
 23
0.0203855120447
 33
0.0
  0
SOLID
  5
F0
330
37
100
AcDbEntity
  8
0
  6
BYLAYER
 62
   256
100
AcDbTrace
 10
-0.0492148293365
 20
0.0203855120447
 30
0.0
 11
-0.0203854855301
 21
0.0492148558512
 31
0.0
 12
0.0492148818622
 22
0.0203855120447
 32
0.0
 13
0.0203854330689
 23
0.0492148558512
 33
0.0
  0
ENDBLK
  5
EB
330
37
100
AcDbEntity
  8
0
100
AcDbBlockEnd
  0
BLOCK
  5
F1
330
38
100
AcDbEntity
  8
0
100
AcDbBlockBegin
  2
CUSTOM_39
 70
     0
 10
0.0
 20
0.0
 30
0.0
  3
CUSTOM_39
  1

  0
SOLID
  5
F3
330
38
100
AcDbEntity
  8
0
  6
BYLAYER
 62
   256
100
AcDbTrace
 10
-0.00820553803433
 20
-0.0198099209904
 30
0.0
 11
-0.0198097899925
 21
-0.00820556404536
 31
0.0
 12
0.00820553806659
 22
-0.0198099209904
 32
0.0
 13
0.0198099475051
 23
-0.00820556404536
 33
0.0
  0
SOLID
  5
F4
330
38
100
AcDbEntity
  8
0
  6
BYLAYER
 62
   256
100
AcDbTrace
 10
-0.0198097899925
 20
-0.00820556404536
 30
0.0
 11
-0.0198098949794
 21
-0.00820551155192
 31
0.0
 12
0.0198099475051
 22
-0.00820556404536
 32
0.0
 13
0.0198099475051
 23
-0.00820551155192
 33
0.0
  0
SOLID
  5
F5
330
38
100
AcDbEntity
  8
0
  6
BYLAYER
 62
   256
100
AcDbTrace
 10
-0.0198098949794
 20
-0.00820551155192
 30
0.0
 11
-0.0198098949794
 21
0.00820551205556
 31
0.0
 12
0.0198099475051
 22
-0.00820551155192
 32
0.0
 13
0.0198099475051
 23
0.00820551205556
 33
0.0
  0
SOLID
  5
F6
330
38
100
AcDbEntity
  8
0
  6
BYLAYER
 62
   256
100
AcDbTrace
 10
-0.0198098949794
 20
0.00820551205556
 30
0.0
 11
-0.0198098949794
 21
0.008205564549
 31
0.0
 12
0.0198099475051
 22
0.00820551205556
 32
0.0
 13
0.0198099475051
 23
0.008205564549
 33
0.0
  0
SOLID
  5
F7
330
38
100
AcDbEntity
  8
0
  6
BYLAYER
 62
   256
100
AcDbTrace
 10
-0.0198098949794
 20
0.008205564549
 30
0.0
 11
-0.00820548554089
 21
0.0198099214941
 31
0.0
 12
0.0198099475051
 22
0.008205564549
 32
0.0
 13
0.00820559056003
 23
0.0198099214941
 33
0.0
  0
ENDBLK
  5
F2
330
38
100
AcDbEntity
  8
0
100
AcDbBlockEnd
  0
BLOCK
  5
F8
330
39
100
AcDbEntity
  8
0
100
AcDbBlockBegin
  2
RECTANGLE_40
 70
     0
 10
0.0
 20
0.0
 30
0.0
  3
RECTANGLE_40
  1

  0
SOLID
  5
FA
330
39
100
AcDbEntity
  8
0
  6
BYLAYER
 62
   256
100
AcDbTrace
 10
0.023684960625
 20
0.025654960859
 30
0.0
 11
0.023684960625
 21
-0.0256549603553
 31
0.0
 12
-0.0236849080993
 22
0.025654960859
 32
0.0
 13
-0.0236849080993
 23
-0.0256549603553
 33
0.0
  0
ENDBLK
  5
F9
330
39
100
AcDbEntity
  8
0
100
AcDbBlockEnd
  0
BLOCK
  5
FB
330
3A
100
AcDbEntity
  8
0
100
AcDbBlockBegin
  2
ROUND_41
 70
     0
 10
0.0
 20
0.0
 30
0.0
  3
ROUND_41
  1

  0
HATCH
  5
FD
330
3A
100
AcDbEntity
  8
0
100
AcDbHatch
 10
0.0
 20
0.0
 30
0.0
210
0.0
220
0.0
230
1.0
  2
SOLID
 70
     1
 71
     0
 91
     1
 92
     0
 93
     1
 72
     2
 10
0.0
 20
0.0
 40
0.0258099737304
 50
0.0
 51
360.0
 73
     1
 97
     0
 75
     0
 76
     1
 98
     1
 10
0.0
 20
0.0
  0
ENDBLK
  5
FC
330
3A
100
AcDbEntity
  8
0
100
AcDbBlockEnd
  0
BLOCK
  5
FE
330
3B
100
AcDbEntity
  8
0
100
AcDbBlockBegin
  2
RECTANGLE_42
 70
     0
 10
0.0
 20
0.0
 30
0.0
  3
RECTANGLE_42
  1

  0
SOLID
  5
100
330
3B
100
AcDbEntity
  8
0
  6
BYLAYER
 62
   256
100
AcDbTrace
 10
0.0394349868578
 20
0.0374649346018
 30
0.0
 11
0.0394349868578
 21
-0.0374649340981
 31
0.0
 12
-0.0394349343321
 22
0.0374649346018
 32
0.0
 13
-0.0394349343321
 23
-0.0374649340981
 33
0.0
  0
ENDBLK
  5
FF
330
3B
100
AcDbEntity
  8
0
100
AcDbBlockEnd
  0
BLOCK
  5
101
330
3C
100
AcDbEntity
  8
0
100
AcDbBlockBegin
  2
RECTANGLE_43
 70
     0
 10
0.0
 20
0.0
 30
0.0
  3
RECTANGLE_43
  1

  0
SOLID
  5
103
330
3C
100
AcDbEntity
  8
0
  6
BYLAYER
 62
   256
100
AcDbTrace
 10
0.0158100000021
 20
0.047304934593
 30
0.0
 11
0.0158100000021
 21
-0.0473049340894
 31
0.0
 12
-0.0158099474764
 22
0.047304934593
 32
0.0
 13
-0.0158099474764
 23
-0.0473049340894
 33
0.0
  0
ENDBLK
  5
102
330
3C
100
AcDbEntity
  8
0
100
AcDbBlockEnd
  0
BLOCK
  5
104
330
3D
100
AcDbEntity
  8
0
100
AcDbBlockBegin
  2
RECTANGLE_44
 70
     0
 10
0.0
 20
0.0
 30
0.0
  3
RECTANGLE_44
  1

  0
SOLID
  5
106
330
3D
100
AcDbEntity
  8
0
  6
BYLAYER
 62
   256
100
AcDbTrace
 10
0.023684960625
 20
0.0138449346227
 30
0.0
 11
0.023684960625
 21
-0.0138449341191
 31
0.0
 12
-0.0236849080993
 22
0.0138449346227
 32
0.0
 13
-0.0236849080993
 23
-0.0138449341191
 33
0.0
  0
ENDBLK
  5
105
330
3D
100
AcDbEntity
  8
0
100
AcDbBlockEnd
  0
BLOCK
  5
107
330
3E
100
AcDbEntity
  8
0
100
AcDbBlockBegin
  2
RECTANGLE_45
 70
     0
 10
0.0
 20
0.0
 30
0.0
  3
RECTANGLE_45
  1

  0
SOLID
  5
109
330
3E
100
AcDbEntity
  8
0
  6
BYLAYER
 62
   256
100
AcDbTrace
 10
0.02565498687
 20
0.023684934614
 30
0.0
 11
0.02565498687
 21
-0.0236849341104
 31
0.0
 12
-0.0256549343443
 22
0.023684934614
 32
0.0
 13
-0.0256549343443
 23
-0.0236849341104
 33
0.0
  0
ENDBLK
  5
108
330
3E
100
AcDbEntity
  8
0
100
AcDbBlockEnd
  0
BLOCK
  5
10A
330
3F
100
AcDbEntity
  8
0
100
AcDbBlockBegin
  2
SQUARE_46
 70
     0
 10
0.0
 20
0.0
 30
0.0
  3
SQUARE_46
  1

  0
SOLID
  5
10C
330
3F
100
AcDbEntity
  8
0
  6
BYLAYER
 62
   256
100
AcDbTrace
 10
0.0630549868368
 20
0.0630549608258
 30
0.0
 11
0.0630549868368
 21
-0.0630549603221
 31
0.0
 12
-0.0630549343111
 22
0.0630549608258
 32
0.0
 13
-0.0630549343111
 23
-0.0630549603221
 33
0.0
  0
ENDBLK
  5
10B
330
3F
100
AcDbEntity
  8
0
100
AcDbBlockEnd
  0
BLOCK
  5
10D
330
40
100
AcDbEntity
  8
0
100
AcDbBlockBegin
  2
CUSTOM_47
 70
     0
 10
0.0
 20
0.0
 30
0.0
  3
CUSTOM_47
  1

  0
SOLID
  5
10F
330
40
100
AcDbEntity
  8
0
  6
BYLAYER
 62
   256
100
AcDbTrace
 10
-0.0124263254322
 20
-0.0299998947347
 30
0.0
 11
-0.0299998687236
 21
-0.0124263514432
 31
0.0
 12
0.0124263779579
 22
-0.0299998947347
 32
0.0
 13
0.0299999212493
 23
-0.0124263514432
 33
0.0
  0
SOLID
  5
110
330
40
100
AcDbEntity
  8
0
  6
BYLAYER
 62
   256
100
AcDbTrace
 10
-0.0299998687236
 20
-0.0124263514432
 30
0.0
 11
-0.0299998687236
 21
0.0124263519468
 31
0.0
 12
0.0299999212493
 22
-0.0124263514432
 32
0.0
 13
0.0299999212493
 23
0.0124263519468
 33
0.0
  0
SOLID
  5
111
330
40
100
AcDbEntity
  8
0
  6
BYLAYER
 62
   256
100
AcDbTrace
 10
-0.0299998687236
 20
0.0124263519468
 30
0.0
 11
-0.0124263254322
 21
0.0299998952383
 31
0.0
 12
0.0299999212493
 22
0.0124263519468
 32
0.0
 13
0.0124263779579
 23
0.0299998952383
 33
0.0
  0
ENDBLK
  5
10E
330
40
100
AcDbEntity
  8
0
100
AcDbBlockEnd
  0
BLOCK
  5
112
330
41
100
AcDbEntity
  8
0
100
AcDbBlockBegin
  2
CUSTOM_48
 70
     0
 10
0.0
 20
0.0
 30
0.0
  3
CUSTOM_48
  1

  0
SOLID
  5
114
330
41
100
AcDbEntity
  8
0
  6
BYLAYER
 62
   256
100
AcDbTrace
 10
-0.0301960367025
 20
-0.0728998422031
 30
0.0
 11
-0.0728998161921
 21
-0.0301961152069
 31
0.0
 12
0.0301961417216
 22
-0.0728998422031
 32
0.0
 13
0.0728997637309
 23
-0.0301961152069
 33
0.0
  0
SOLID
  5
115
330
41
100
AcDbEntity
  8
0
  6
BYLAYER
 62
   256
100
AcDbTrace
 10
-0.0728998161921
 20
-0.0301961152069
 30
0.0
 11
-0.0728998161921
 21
-0.0301960627135
 31
0.0
 12
0.0728997637309
 22
-0.0301961152069
 32
0.0
 13
0.0728998687178
 23
-0.0301960627135
 33
0.0
  0
SOLID
  5
116
330
41
100
AcDbEntity
  8
0
  6
BYLAYER
 62
   256
100
AcDbTrace
 10
-0.0728998161921
 20
-0.0301960627135
 30
0.0
 11
-0.0728998161921
 21
0.0301960632171
 31
0.0
 12
0.0728998687178
 22
-0.0301960627135
 32
0.0
 13
0.0728998687178
 23
0.0301960632171
 33
0.0
  0
SOLID
  5
117
330
41
100
AcDbEntity
  8
0
  6
BYLAYER
 62
   256
100
AcDbTrace
 10
-0.0728998161921
 20
0.0301960632171
 30
0.0
 11
-0.0728998161921
 21
0.0301961157106
 31
0.0
 12
0.0728998687178
 22
0.0301960632171
 32
0.0
 13
0.0728998687178
 23
0.0301961157106
 33
0.0
  0
SOLID
  5
118
330
41
100
AcDbEntity
  8
0
  6
BYLAYER
 62
   256
100
AcDbTrace
 10
-0.0728998161921
 20
0.0301961157106
 30
0.0
 11
-0.0301960891959
 21
0.0728998427068
 31
0.0
 12
0.0728998687178
 22
0.0301961157106
 32
0.0
 13
0.0301960892282
 23
0.0728998427068
 33
0.0
  0
ENDBLK
  5
113
330
41
100
AcDbEntity
  8
0
100
AcDbBlockEnd
  0
BLOCK
  5
119
330
42
100
AcDbEntity
  8
0
100
AcDbBlockBegin
  2
CUSTOM_49
 70
     0
 10
0.0
 20
0.0
 30
0.0
  3
CUSTOM_49
  1

  0
SOLID
  5
11B
330
42
100
AcDbEntity
  8
0
  6
BYLAYER
 62
   256
100
AcDbTrace
 10
-0.0220422309354
 20
-0.053214855344
 30
0.0
 11
-0.0532148293329
 21
-0.0220423619333
 31
0.0
 12
0.022042388448
 22
-0.053214855344
 32
0.0
 13
0.0532148293652
 23
-0.0220423619333
 33
0.0
  0
SOLID
  5
11C
330
42
100
AcDbEntity
  8
0
  6
BYLAYER
 62
   256
100
AcDbTrace
 10
-0.0532148293329
 20
-0.0220423619333
 30
0.0
 11
-0.0532148293329
 21
-0.0220422569465
 31
0.0
 12
0.0532148293652
 22
-0.0220423619333
 32
0.0
 13
0.0532148818587
 23
-0.0220422569465
 33
0.0
  0
SOLID
  5
11D
330
42
100
AcDbEntity
  8
0
  6
BYLAYER
 62
   256
100
AcDbTrace
 10
-0.0532148293329
 20
-0.0220422569465
 30
0.0
 11
-0.0532148293329
 21
0.0220422574501
 31
0.0
 12
0.0532148818587
 22
-0.0220422569465
 32
0.0
 13
0.0532148818587
 23
0.0220422574501
 33
0.0
  0
SOLID
  5
11E
330
42
100
AcDbEntity
  8
0
  6
BYLAYER
 62
   256
100
AcDbTrace
 10
-0.0532148293329
 20
0.0220422574501
 30
0.0
 11
-0.0532148293329
 21
0.022042362437
 31
0.0
 12
0.0532148818587
 22
0.0220422574501
 32
0.0
 13
0.0532148818587
 23
0.022042362437
 33
0.0
  0
SOLID
  5
11F
330
42
100
AcDbEntity
  8
0
  6
BYLAYER
 62
   256
100
AcDbTrace
 10
-0.0532148293329
 20
0.022042362437
 30
0.0
 11
-0.0220423359223
 21
0.0532148558476
 31
0.0
 12
0.0532148818587
 22
0.022042362437
 32
0.0
 13
0.0220422834611
 23
0.0532148558476
 33
0.0
  0
ENDBLK
  5
11A
330
42
100
AcDbEntity
  8
0
100
AcDbBlockEnd
  0
BLOCK
  5
120
330
43
100
AcDbEntity
  8
0
100
AcDbBlockBegin
  2
SQUARE_50
 70
     0
 10
0.0
 20
0.0
 30
0.0
  3
SQUARE_50
  1

  0
SOLID
  5
122
330
43
100
AcDbEntity
  8
0
  6
BYLAYER
 62
   256
100
AcDbTrace
 10
0.0355000262313
 20
0.0355000002203
 30
0.0
 11
0.0355000262313
 21
-0.0354999997167
 31
0.0
 12
-0.0354999737056
 22
0.0355000002203
 32
0.0
 13
-0.0354999737056
 23
-0.0354999997167
 33
0.0
  0
ENDBLK
  5
121
330
43
100
AcDbEntity
  8
0
100
AcDbBlockEnd
  0
BLOCK
  5
123
330
44
100
AcDbEntity
  8
0
100
AcDbBlockBegin
  2
ROUND_51
 70
     0
 10
0.0
 20
0.0
 30
0.0
  3
ROUND_51
  1

  0
HATCH
  5
125
330
44
100
AcDbEntity
  8
0
100
AcDbHatch
 10
0.0
 20
0.0
 30
0.0
210
0.0
220
0.0
230
1.0
  2
SOLID
 70
     1
 71
     0
 91
     1
 92
     0
 93
     1
 72
     2
 10
0.0
 20
0.0
 40
0.0238099737321
 50
0.0
 51
360.0
 73
     1
 97
     0
 75
     0
 76
     1
 98
     1
 10
0.0
 20
0.0
  0
ENDBLK
  5
124
330
44
100
AcDbEntity
  8
0
100
AcDbBlockEnd
  0
BLOCK
  5
126
330
45
100
AcDbEntity
  8
0
100
AcDbBlockBegin
  2
CUSTOM_52
 70
     0
 10
0.0
 20
0.0
 30
0.0
  3
CUSTOM_52
  1

  0
SOLID
  5
128
330
45
100
AcDbEntity
  8
0
  6
BYLAYER
 62
   256
100
AcDbTrace
 10
-0.00986238842656
 20
-0.0238099209869
 30
0.0
 11
-0.023809789989
 21
-0.00986241443759
 31
0.0
 12
0.00986238845882
 22
-0.0238099209869
 32
0.0
 13
0.0238099475016
 23
-0.00986241443759
 33
0.0
  0
SOLID
  5
129
330
45
100
AcDbEntity
  8
0
  6
BYLAYER
 62
   256
100
AcDbTrace
 10
-0.023809789989
 20
-0.00986241443759
 30
0.0
 11
-0.0238098949759
 21
-0.00986236194415
 31
0.0
 12
0.0238099475016
 22
-0.00986241443759
 32
0.0
 13
0.0238099475016
 23
-0.00986236194415
 33
0.0
  0
SOLID
  5
12A
330
45
100
AcDbEntity
  8
0
  6
BYLAYER
 62
   256
100
AcDbTrace
 10
-0.0238098949759
 20
-0.00986236194415
 30
0.0
 11
-0.0238098949759
 21
0.00986236244779
 31
0.0
 12
0.0238099475016
 22
-0.00986236194415
 32
0.0
 13
0.0238099475016
 23
0.00986236244779
 33
0.0
  0
SOLID
  5
12B
330
45
100
AcDbEntity
  8
0
  6
BYLAYER
 62
   256
100
AcDbTrace
 10
-0.0238098949759
 20
0.00986236244779
 30
0.0
 11
-0.0238098949759
 21
0.00986241494123
 31
0.0
 12
0.0238099475016
 22
0.00986236244779
 32
0.0
 13
0.0238099475016
 23
0.00986241494123
 33
0.0
  0
SOLID
  5
12C
330
45
100
AcDbEntity
  8
0
  6
BYLAYER
 62
   256
100
AcDbTrace
 10
-0.0238098949759
 20
0.00986241494123
 30
0.0
 11
-0.00986233593312
 21
0.0238099214905
 31
0.0
 12
0.0238099475016
 22
0.00986241494123
 32
0.0
 13
0.00986244095226
 23
0.0238099214905
 33
0.0
  0
ENDBLK
  5
127
330
45
100
AcDbEntity
  8
0
100
AcDbBlockEnd
  0
BLOCK
  5
12D
330
46
100
AcDbEntity
  8
0
100
AcDbBlockBegin
  2
RECTANGLE_53
 70
     0
 10
0.0
 20
0.0
 30
0.0
  3
RECTANGLE_53
  1

  0
SOLID
  5
12F
330
46
100
AcDbEntity
  8
0
  6
BYLAYER
 62
   256
100
AcDbTrace
 10
0.0374649606128
 20
0.0394349608467
 30
0.0
 11
0.0374649606128
 21
-0.0394349603431
 31
0.0
 12
-0.0374649080871
 22
0.0394349608467
 32
0.0
 13
-0.0374649080871
 23
-0.0394349603431
 33
0.0
  0
ENDBLK
  5
12E
330
46
100
AcDbEntity
  8
0
100
AcDbBlockEnd
  0
BLOCK
  5
130
330
47
100
AcDbEntity
  8
0
100
AcDbBlockBegin
  2
RECTANGLE_54
 70
     0
 10
0.0
 20
0.0
 30
0.0
  3
RECTANGLE_54
  1

  0
SOLID
  5
132
330
47
100
AcDbEntity
  8
0
  6
BYLAYER
 62
   256
100
AcDbTrace
 10
0.0480000262202
 20
0.028000000227
 30
0.0
 11
0.0480000262202
 21
-0.0279999997233
 31
0.0
 12
-0.0479999736945
 22
0.028000000227
 32
0.0
 13
-0.0479999736945
 23
-0.0279999997233
 33
0.0
  0
ENDBLK
  5
131
330
47
100
AcDbEntity
  8
0
100
AcDbBlockEnd
  0
BLOCK
  5
133
330
48
100
AcDbEntity
  8
0
100
AcDbBlockBegin
  2
RECTANGLE_55
 70
     0
 10
0.0
 20
0.0
 30
0.0
  3
RECTANGLE_55
  1

  0
SOLID
  5
135
330
48
100
AcDbEntity
  8
0
  6
BYLAYER
 62
   256
100
AcDbTrace
 10
0.0473049606041
 20
0.0748649345686
 30
0.0
 11
0.0473049606041
 21
-0.0748649340649
 31
0.0
 12
-0.0473049080784
 22
0.0748649345686
 32
0.0
 13
-0.0473049080784
 23
-0.0748649340649
 33
0.0
  0
ENDBLK
  5
134
330
48
100
AcDbEntity
  8
0
100
AcDbBlockEnd
  0
BLOCK
  5
136
330
49
100
AcDbEntity
  8
0
100
AcDbBlockBegin
  2
RECTANGLE_56
 70
     0
 10
0.0
 20
0.0
 30
0.0
  3
RECTANGLE_56
  1

  0
SOLID
  5
138
330
49
100
AcDbEntity
  8
0
  6
BYLAYER
 62
   256
100
AcDbTrace
 10
0.0217149868735
 20
0.0197499739876
 30
0.0
 11
0.0217149868735
 21
-0.0197499734839
 31
0.0
 12
-0.0217149343478
 22
0.0197499739876
 32
0.0
 13
-0.0217149343478
 23
-0.0197499734839
 33
0.0
  0
ENDBLK
  5
137
330
49
100
AcDbEntity
  8
0
100
AcDbBlockEnd
  0
BLOCK
  5
139
330
4A
100
AcDbEntity
  8
0
100
AcDbBlockBegin
  2
CUSTOM_57
 70
     0
 10
0.0
 20
0.0
 30
0.0
  3
CUSTOM_57
  1

  0
SOLID
  5
13B
330
4A
100
AcDbEntity
  8
0
  6
BYLAYER
 62
   256
100
AcDbTrace
 10
-0.0124263254322
 20
-0.0299998947347
 30
0.0
 11
-0.0299998687236
 21
-0.0124263514432
 31
0.0
 12
0.0124263779579
 22
-0.0299998947347
 32
0.0
 13
0.0299999212493
 23
-0.0124263514432
 33
0.0
  0
SOLID
  5
13C
330
4A
100
AcDbEntity
  8
0
  6
BYLAYER
 62
   256
100
AcDbTrace
 10
-0.0299998687236
 20
-0.0124263514432
 30
0.0
 11
-0.0299998687236
 21
0.0124263519468
 31
0.0
 12
0.0299999212493
 22
-0.0124263514432
 32
0.0
 13
0.0299999212493
 23
0.0124263519468
 33
0.0
  0
SOLID
  5
13D
330
4A
100
AcDbEntity
  8
0
  6
BYLAYER
 62
   256
100
AcDbTrace
 10
-0.0299998687236
 20
0.0124263519468
 30
0.0
 11
-0.0124263254322
 21
0.0299998952383
 31
0.0
 12
0.0299999212493
 22
0.0124263519468
 32
0.0
 13
0.0124263779579
 23
0.0299998952383
 33
0.0
  0
ENDBLK
  5
13A
330
4A
100
AcDbEntity
  8
0
100
AcDbBlockEnd
  0
BLOCK
  5
13E
330
4B
100
AcDbEntity
  8
0
100
AcDbBlockBegin
  2
CUSTOM_58
 70
     0
 10
0.0
 20
0.0
 30
0.0
  3
CUSTOM_58
  1

  0
SOLID
  5
140
330
4B
100
AcDbEntity
  8
0
  6
BYLAYER
 62
   256
100
AcDbTrace
 10
-0.0301960367025
 20
-0.0728998422031
 30
0.0
 11
-0.0728998161921
 21
-0.0301961152069
 31
0.0
 12
0.0301961417216
 22
-0.0728998422031
 32
0.0
 13
0.0728997637309
 23
-0.0301961152069
 33
0.0
  0
SOLID
  5
141
330
4B
100
AcDbEntity
  8
0
  6
BYLAYER
 62
   256
100
AcDbTrace
 10
-0.0728998161921
 20
-0.0301961152069
 30
0.0
 11
-0.0728998161921
 21
-0.0301960627135
 31
0.0
 12
0.0728997637309
 22
-0.0301961152069
 32
0.0
 13
0.0728998687178
 23
-0.0301960627135
 33
0.0
  0
SOLID
  5
142
330
4B
100
AcDbEntity
  8
0
  6
BYLAYER
 62
   256
100
AcDbTrace
 10
-0.0728998161921
 20
-0.0301960627135
 30
0.0
 11
-0.0728998161921
 21
0.0301960632171
 31
0.0
 12
0.0728998687178
 22
-0.0301960627135
 32
0.0
 13
0.0728998687178
 23
0.0301960632171
 33
0.0
  0
SOLID
  5
143
330
4B
100
AcDbEntity
  8
0
  6
BYLAYER
 62
   256
100
AcDbTrace
 10
-0.0728998161921
 20
0.0301960632171
 30
0.0
 11
-0.0728998161921
 21
0.0301961157106
 31
0.0
 12
0.0728998687178
 22
0.0301960632171
 32
0.0
 13
0.0728998687178
 23
0.0301961157106
 33
0.0
  0
SOLID
  5
144
330
4B
100
AcDbEntity
  8
0
  6
BYLAYER
 62
   256
100
AcDbTrace
 10
-0.0728998161921
 20
0.0301961157106
 30
0.0
 11
-0.0301960891959
 21
0.0728998427068
 31
0.0
 12
0.0728998687178
 22
0.0301961157106
 32
0.0
 13
0.0301960892282
 23
0.0728998427068
 33
0.0
  0
ENDBLK
  5
13F
330
4B
100
AcDbEntity
  8
0
100
AcDbBlockEnd
  0
BLOCK
  5
145
330
4C
100
AcDbEntity
  8
0
100
AcDbBlockBegin
  2
CUSTOM_59
 70
     0
 10
0.0
 20
0.0
 30
0.0
  3
CUSTOM_59
  1

  0
SOLID
  5
147
330
4C
100
AcDbEntity
  8
0
  6
BYLAYER
 62
   256
100
AcDbTrace
 10
-0.0220422309354
 20
-0.053214855344
 30
0.0
 11
-0.0532148293329
 21
-0.0220423619333
 31
0.0
 12
0.022042388448
 22
-0.053214855344
 32
0.0
 13
0.0532148293652
 23
-0.0220423619333
 33
0.0
  0
SOLID
  5
148
330
4C
100
AcDbEntity
  8
0
  6
BYLAYER
 62
   256
100
AcDbTrace
 10
-0.0532148293329
 20
-0.0220423619333
 30
0.0
 11
-0.0532148293329
 21
-0.0220422569465
 31
0.0
 12
0.0532148293652
 22
-0.0220423619333
 32
0.0
 13
0.0532148818587
 23
-0.0220422569465
 33
0.0
  0
SOLID
  5
149
330
4C
100
AcDbEntity
  8
0
  6
BYLAYER
 62
   256
100
AcDbTrace
 10
-0.0532148293329
 20
-0.0220422569465
 30
0.0
 11
-0.0532148293329
 21
0.0220422574501
 31
0.0
 12
0.0532148818587
 22
-0.0220422569465
 32
0.0
 13
0.0532148818587
 23
0.0220422574501
 33
0.0
  0
SOLID
  5
14A
330
4C
100
AcDbEntity
  8
0
  6
BYLAYER
 62
   256
100
AcDbTrace
 10
-0.0532148293329
 20
0.0220422574501
 30
0.0
 11
-0.0532148293329
 21
0.022042362437
 31
0.0
 12
0.0532148818587
 22
0.0220422574501
 32
0.0
 13
0.0532148818587
 23
0.022042362437
 33
0.0
  0
SOLID
  5
14B
330
4C
100
AcDbEntity
  8
0
  6
BYLAYER
 62
   256
100
AcDbTrace
 10
-0.0532148293329
 20
0.022042362437
 30
0.0
 11
-0.0220423359223
 21
0.0532148558476
 31
0.0
 12
0.0532148818587
 22
0.022042362437
 32
0.0
 13
0.0220422834611
 23
0.0532148558476
 33
0.0
  0
ENDBLK
  5
146
330
4C
100
AcDbEntity
  8
0
100
AcDbBlockEnd
  0
BLOCK
  5
14C
330
4D
100
AcDbEntity
  8
0
100
AcDbBlockBegin
  2
RECTANGLE_60
 70
     0
 10
0.0
 20
0.0
 30
0.0
  3
RECTANGLE_60
  1

  0
SOLID
  5
14E
330
4D
100
AcDbEntity
  8
0
  6
BYLAYER
 62
   256
100
AcDbTrace
 10
0.0339200262327
 20
0.0390400002172
 30
0.0
 11
0.0339200262327
 21
-0.0390399997135
 31
0.0
 12
-0.033919973707
 22
0.0390400002172
 32
0.0
 13
-0.033919973707
 23
-0.0390399997135
 33
0.0
  0
ENDBLK
  5
14D
330
4D
100
AcDbEntity
  8
0
100
AcDbBlockEnd
  0
BLOCK
  5
14F
330
4E
100
AcDbEntity
  8
0
100
AcDbBlockBegin
  2
CUSTOM_61
 70
     0
 10
0.0
 20
0.0
 30
0.0
  3
CUSTOM_61
  1

  0
SOLID
  5
151
330
4E
100
AcDbEntity
  8
0
  6
BYLAYER
 62
   256
100
AcDbTrace
 10
-0.00986238842656
 20
-0.0238099209869
 30
0.0
 11
-0.023809789989
 21
-0.00986241443759
 31
0.0
 12
0.00986238845882
 22
-0.0238099209869
 32
0.0
 13
0.0238099475016
 23
-0.00986241443759
 33
0.0
  0
SOLID
  5
152
330
4E
100
AcDbEntity
  8
0
  6
BYLAYER
 62
   256
100
AcDbTrace
 10
-0.023809789989
 20
-0.00986241443759
 30
0.0
 11
-0.0238098949759
 21
-0.00986236194415
 31
0.0
 12
0.0238099475016
 22
-0.00986241443759
 32
0.0
 13
0.0238099475016
 23
-0.00986236194415
 33
0.0
  0
SOLID
  5
153
330
4E
100
AcDbEntity
  8
0
  6
BYLAYER
 62
   256
100
AcDbTrace
 10
-0.0238098949759
 20
-0.00986236194415
 30
0.0
 11
-0.0238098949759
 21
0.00986236244779
 31
0.0
 12
0.0238099475016
 22
-0.00986236194415
 32
0.0
 13
0.0238099475016
 23
0.00986236244779
 33
0.0
  0
SOLID
  5
154
330
4E
100
AcDbEntity
  8
0
  6
BYLAYER
 62
   256
100
AcDbTrace
 10
-0.0238098949759
 20
0.00986236244779
 30
0.0
 11
-0.0238098949759
 21
0.00986241494123
 31
0.0
 12
0.0238099475016
 22
0.00986236244779
 32
0.0
 13
0.0238099475016
 23
0.00986241494123
 33
0.0
  0
SOLID
  5
155
330
4E
100
AcDbEntity
  8
0
  6
BYLAYER
 62
   256
100
AcDbTrace
 10
-0.0238098949759
 20
0.00986241494123
 30
0.0
 11
-0.00986233593312
 21
0.0238099214905
 31
0.0
 12
0.0238099475016
 22
0.00986241494123
 32
0.0
 13
0.00986244095226
 23
0.0238099214905
 33
0.0
  0
ENDBLK
  5
150
330
4E
100
AcDbEntity
  8
0
100
AcDbBlockEnd
  0
ENDSEC
  0
SECTION
  2
ENTITIES
  0
LWPOLYLINE
  5
156
330
10
100
AcDbEntity
  8
TRACTOR_PLC
  6
BYLAYER
 62
   256
100
AcDbPolyline
 90
     2
 70
     0
 10
0.460600025854
 20
0.286179999998
 10
3.0628499973
 20
0.28364
  0
LWPOLYLINE
  5
157
330
10
100
AcDbEntity
  8
TRACTOR_PLC
  6
BYLAYER
 62
   256
100
AcDbPolyline
 90
     4
 70
     0
 10
3.05902002355
 20
0.286179999998
 10
3.0628499973
 20
1.38639999902
 10
0.460600025854
 20
1.38893999902
 10
0.460600025854
 20
0.286179999998
  0
LWPOLYLINE
  5
158
330
10
100
AcDbEntity
  8
TRACTOR_PLC
  6
BYLAYER
370
   211
 62
   256
100
AcDbPolyline
 90
     2
 70
     0
 43
0.00199999999822
 10
1.10136002529
 20
0.373019999921
 10
1.10136002529
 20
0.395039999901
  0
LWPOLYLINE
  5
159
330
10
100
AcDbEntity
  8
TRACTOR_PLC
  6
BYLAYER
370
   211
 62
   256
100
AcDbPolyline
 90
     2
 70
     0
 43
0.00199999999822
 10
1.10502999904
 20
0.384029973664
 10
1.11604002527
 20
0.373019999921
  0
LWPOLYLINE
  5
15A
330
10
100
AcDbEntity
  8
TRACTOR_PLC
  6
BYLAYER
370
   211
 62
   256
100
AcDbPolyline
 90
     6
 70
     0
 43
0.00199999999822
 10
1.12346002527
 20
0.373019999921
 10
1.13814002525
 20
0.387699999908
 10
1.13814002525
 20
0.391369973658
 10
1.13446999901
 20
0.395039999901
 10
1.12712999902
 20
0.395039999901
 10
1.12346002527
 20
0.391369973658
  0
LWPOLYLINE
  5
15B
330
10
100
AcDbEntity
  8
TRACTOR_PLC
  6
BYLAYER
370
   211
 62
   256
100
AcDbPolyline
 90
     2
 70
     0
 43
0.00199999999822
 10
1.11604002527
 20
0.395039999901
 10
1.10136002529
 20
0.380359999914
  0
LWPOLYLINE
  5
15C
330
10
100
AcDbEntity
  8
TRACTOR_PLC
  6
BYLAYER
370
   211
 62
   256
100
AcDbPolyline
 90
     2
 70
     0
 43
0.00199999999822
 10
1.12346002527
 20
0.373019999921
 10
1.13814002525
 20
0.373019999921
  0
LWPOLYLINE
  5
15D
330
10
100
AcDbEntity
  8
TRACTOR_PLC
  6
BYLAYER
370
   211
 62
   256
100
AcDbPolyline
 90
     7
 70
     0
 43
0.00199999999822
 10
1.49458999869
 20
0.528629973536
 10
1.49458999869
 20
0.550639999763
 10
1.50560002493
 20
0.550639999763
 10
1.50926999868
 20
0.546969973519
 10
1.50926999868
 20
0.539639999773
 10
1.50560002493
 20
0.535969973529
 10
1.49458999869
 20
0.535969973529
  0
LWPOLYLINE
  5
15E
330
10
100
AcDbEntity
  8
TRACTOR_PLC
  6
BYLAYER
370
   211
 62
   256
100
AcDbPolyline
 90
     2
 70
     0
 43
0.00199999999822
 10
1.50192999868
 20
0.535969973529
 10
1.50926999868
 20
0.528629973536
  0
LWPOLYLINE
  5
15F
330
10
100
AcDbEntity
  8
TRACTOR_PLC
  6
BYLAYER
370
   211
 62
   256
100
AcDbPolyline
 90
    11
 70
     0
 43
0.00199999999822
 10
1.51668999867
 20
0.532299999779
 10
1.52036002491
 20
0.528629973536
 10
1.52770002491
 20
0.528629973536
 10
1.53136999866
 20
0.532299999779
 10
1.53136999866
 20
0.546969973519
 10
1.52770002491
 20
0.550639999763
 10
1.52036002491
 20
0.550639999763
 10
1.51668999867
 20
0.546969973519
 10
1.51668999867
 20
0.543299999769
 10
1.52036002491
 20
0.539639999773
 10
1.53136999866
 20
0.539639999773
  0
LWPOLYLINE
  5
160
330
10
100
AcDbEntity
  8
TRACTOR_PLC
  6
BYLAYER
370
   211
 62
   256
100
AcDbPolyline
 90
     5
 70
     0
 43
0.00199999999822
 10
1.67962002477
 20
0.495469973565
 10
1.67962002477
 20
0.480789973578
 10
1.68328999852
 20
0.477119999828
 10
1.69062999852
 20
0.477119999828
 10
1.69430002476
 20
0.480789973578
  0
LWPOLYLINE
  5
161
330
10
100
AcDbEntity
  8
TRACTOR_PLC
  6
BYLAYER
370
   211
 62
   256
100
AcDbPolyline
 90
     2
 70
     0
 43
0.00199999999822
 10
1.70172002475
 20
0.477119999828
 10
1.71638999849
 20
0.477119999828
  0
LWPOLYLINE
  5
162
330
10
100
AcDbEntity
  8
TRACTOR_PLC
  6
BYLAYER
370
   211
 62
   256
100
AcDbPolyline
 90
     3
 70
     0
 43
0.00199999999822
 10
1.7090499985
 20
0.477119999828
 10
1.7090499985
 20
0.499139999809
 10
1.70172002475
 20
0.491799999815
  0
LWPOLYLINE
  5
163
330
10
100
AcDbEntity
  8
TRACTOR_PLC
  6
BYLAYER
370
   211
 62
   256
100
AcDbPolyline
 90
     4
 70
     0
 43
0.00199999999822
 10
1.69430002476
 20
0.495469973565
 10
1.69062999852
 20
0.499139999809
 10
1.68328999852
 20
0.499139999809
 10
1.67962002477
 20
0.495469973565
  0
LWPOLYLINE
  5
164
330
10
100
AcDbEntity
  8
TRACTOR_PLC
  6
BYLAYER
370
   211
 62
   256
100
AcDbPolyline
 90
     7
 70
     0
 43
0.00199999999822
 10
1.72380999849
 20
0.495469973565
 10
1.72380999849
 20
0.480789973578
 10
1.73848999847
 20
0.495469973565
 10
1.73848999847
 20
0.480789973578
 10
1.73482002472
 20
0.477119999828
 10
1.72748002473
 20
0.477119999828
 10
1.72380999849
 20
0.480789973578
  0
LWPOLYLINE
  5
165
330
10
100
AcDbEntity
  8
TRACTOR_PLC
  6
BYLAYER
370
   211
 62
   256
100
AcDbPolyline
 90
     4
 70
     0
 43
0.00199999999822
 10
1.72380999849
 20
0.495469973565
 10
1.72748002473
 20
0.499139999809
 10
1.73482002472
 20
0.499139999809
 10
1.73848999847
 20
0.495469973565
  0
LWPOLYLINE
  5
166
330
10
100
AcDbEntity
  8
TRACTOR_PLC
  6
BYLAYER
370
   211
 62
   256
100
AcDbPolyline
 90
     7
 70
     0
 43
0.00199999999822
 10
1.83176999839
 20
0.536379999776
 10
1.83176999839
 20
0.558399999756
 10
1.84278002463
 20
0.558399999756
 10
1.84644999838
 20
0.554729973513
 10
1.84644999838
 20
0.547389973519
 10
1.84278002463
 20
0.543719999769
 10
1.83176999839
 20
0.543719999769
  0
LWPOLYLINE
  5
167
330
10
100
AcDbEntity
  8
TRACTOR_PLC
  6
BYLAYER
370
   211
 62
   256
100
AcDbPolyline
 90
     2
 70
     0
 43
0.00199999999822
 10
1.83910999838
 20
0.543719999769
 10
1.84644999838
 20
0.536379999776
  0
LWPOLYLINE
  5
168
330
10
100
AcDbEntity
  8
TRACTOR_PLC
  6
BYLAYER
370
   211
 62
   256
100
AcDbPolyline
 90
     2
 70
     0
 43
0.00199999999822
 10
1.85386999837
 20
0.536379999776
 10
1.86854999836
 20
0.536379999776
  0
LWPOLYLINE
  5
169
330
10
100
AcDbEntity
  8
TRACTOR_PLC
  6
BYLAYER
370
   211
 62
   256
100
AcDbPolyline
 90
     3
 70
     0
 43
0.00199999999822
 10
1.86120999836
 20
0.536379999776
 10
1.86120999836
 20
0.558399999756
 10
1.85386999837
 20
0.551059999763
  0
LWPOLYLINE
  5
16A
330
10
100
AcDbEntity
  8
TRACTOR_PLC
  6
BYLAYER
370
   211
 62
   256
100
AcDbPolyline
 90
     2
 70
     0
 43
0.00199999999822
 10
1.87596999835
 20
0.547389973519
 10
1.89064999834
 20
0.547389973519
  0
LWPOLYLINE
  5
16B
330
10
100
AcDbEntity
  8
TRACTOR_PLC
  6
BYLAYER
370
   211
 62
   256
100
AcDbPolyline
 90
     3
 70
     0
 43
0.00199999999822
 10
1.88698002459
 20
0.536379999776
 10
1.88698002459
 20
0.558399999756
 10
1.87596999835
 20
0.547389973519
  0
LWPOLYLINE
  5
16C
330
10
100
AcDbEntity
  8
TRACTOR_PLC
  6
BYLAYER
370
   211
 62
   256
100
AcDbPolyline
 90
     7
 70
     0
 43
0.00199999999822
 10
1.79568002467
 20
0.621629973453
 10
1.77366002469
 20
0.621629973453
 10
1.77366002469
 20
0.63263999969
 10
1.77732999844
 20
0.63630997344
 10
1.78466999843
 20
0.63630997344
 10
1.78834002468
 20
0.63263999969
 10
1.78834002468
 20
0.621629973453
  0
LWPOLYLINE
  5
16D
330
10
100
AcDbEntity
  8
TRACTOR_PLC
  6
BYLAYER
370
   211
 62
   256
100
AcDbPolyline
 90
     2
 70
     0
 43
0.00199999999822
 10
1.78834002468
 20
0.628969973447
 10
1.79568002467
 20
0.63630997344
  0
LWPOLYLINE
  5
16E
330
10
100
AcDbEntity
  8
TRACTOR_PLC
  6
BYLAYER
370
   211
 62
   256
100
AcDbPolyline
 90
     9
 70
     0
 43
0.00199999999822
 10
1.79200999843
 20
0.643729973434
 10
1.78834002468
 20
0.643729973434
 10
1.78466999843
 20
0.647399999677
 10
1.78466999843
 20
0.654739999671
 10
1.78834002468
 20
0.658409973421
 10
1.79200999843
 20
0.658409973421
 10
1.79568002467
 20
0.654739999671
 10
1.79568002467
 20
0.647399999677
 10
1.79200999843
 20
0.643729973434
  0
LWPOLYLINE
  5
16F
330
10
100
AcDbEntity
  8
TRACTOR_PLC
  6
BYLAYER
370
   211
 62
   256
100
AcDbPolyline
 90
     8
 70
     0
 43
0.00199999999822
 10
1.78466999843
 20
0.647399999677
 10
1.78100002468
 20
0.643729973434
 10
1.77732999844
 20
0.643729973434
 10
1.77366002469
 20
0.647399999677
 10
1.77366002469
 20
0.654739999671
 10
1.77732999844
 20
0.658409973421
 10
1.78100002468
 20
0.658409973421
 10
1.78466999843
 20
0.654739999671
  0
LWPOLYLINE
  5
170
330
10
100
AcDbEntity
  8
TRACTOR_PLC
  6
BYLAYER
370
   211
 62
   256
100
AcDbPolyline
 90
     2
 70
     0
 43
0.00199999999822
 10
1.50540999868
 20
0.701019999629
 10
1.49072999869
 20
0.701019999629
  0
LWPOLYLINE
  5
171
330
10
100
AcDbEntity
  8
TRACTOR_PLC
  6
BYLAYER
370
   211
 62
   256
100
AcDbPolyline
 90
     3
 70
     0
 43
0.00199999999822
 10
1.49806999869
 20
0.701019999629
 10
1.49806999869
 20
0.72303999961
 10
1.49072999869
 20
0.715699999616
  0
LWPOLYLINE
  5
172
330
10
100
AcDbEntity
  8
TRACTOR_PLC
  6
BYLAYER
370
   211
 62
   256
100
AcDbPolyline
 90
     8
 70
     0
 43
0.00199999999822
 10
1.4833099987
 20
0.719369973366
 10
1.47964002495
 20
0.72303999961
 10
1.47230002496
 20
0.72303999961
 10
1.46862999871
 20
0.719369973366
 10
1.46862999871
 20
0.704689973379
 10
1.47230002496
 20
0.701019999629
 10
1.47964002495
 20
0.701019999629
 10
1.4833099987
 20
0.704689973379
  0
LWPOLYLINE
  5
173
330
10
100
AcDbEntity
  8
TRACTOR_PLC
  6
BYLAYER
370
   211
 62
   256
100
AcDbPolyline
 90
     2
 70
     0
 43
0.00199999999822
 10
1.46124002497
 20
0.701019999629
 10
1.45390002497
 20
0.701019999629
  0
LWPOLYLINE
  5
174
330
10
100
AcDbEntity
  8
TRACTOR_PLC
  6
BYLAYER
370
   211
 62
   256
100
AcDbPolyline
 90
     2
 70
     0
 43
0.00199999999822
 10
1.45756999872
 20
0.701019999629
 10
1.45756999872
 20
0.72303999961
  0
LWPOLYLINE
  5
175
330
10
100
AcDbEntity
  8
TRACTOR_PLC
  6
BYLAYER
370
   211
 62
   256
100
AcDbPolyline
 90
     2
 70
     0
 43
0.00199999999822
 10
1.45390002497
 20
0.72303999961
 10
1.46124002497
 20
0.72303999961
  0
LWPOLYLINE
  5
176
330
10
100
AcDbEntity
  8
TRACTOR_PLC
  6
BYLAYER
370
   211
 62
   256
100
AcDbPolyline
 90
     7
 70
     0
 43
0.00199999999822
 10
1.3109000251
 20
0.662659999663
 10
1.3109000251
 20
0.647979999677
 10
1.29622002511
 20
0.662659999663
 10
1.29254999887
 20
0.662659999663
 10
1.28888002512
 20
0.65898997342
 10
1.28888002512
 20
0.651649973427
 10
1.29254999887
 20
0.647979999677
  0
LWPOLYLINE
  5
177
330
10
100
AcDbEntity
  8
TRACTOR_PLC
  6
BYLAYER
370
   211
 62
   256
100
AcDbPolyline
 90
     8
 70
     0
 43
0.00199999999822
 10
1.29254999887
 20
0.640559999683
 10
1.28888002512
 20
0.63688997344
 10
1.28888002512
 20
0.629549973446
 10
1.29254999887
 20
0.625879999696
 10
1.30722999886
 20
0.625879999696
 10
1.3109000251
 20
0.629549973446
 10
1.3109000251
 20
0.63688997344
 10
1.30722999886
 20
0.640559999683
  0
LWPOLYLINE
  5
178
330
10
100
AcDbEntity
  8
TRACTOR_PLC
  6
BYLAYER
370
   211
 62
   256
100
AcDbPolyline
 90
     7
 70
     0
 43
0.00199999999822
 10
1.60906002483
 20
0.893779999458
 10
1.60906002483
 20
0.915799999439
 10
1.62006999858
 20
0.915799999439
 10
1.62374002482
 20
0.912129973195
 10
1.62374002482
 20
0.904789973202
 10
1.62006999858
 20
0.901119999452
 10
1.60906002483
 20
0.901119999452
  0
LWPOLYLINE
  5
179
330
10
100
AcDbEntity
  8
TRACTOR_PLC
  6
BYLAYER
370
   211
 62
   256
100
AcDbPolyline
 90
     2
 70
     0
 43
0.00199999999822
 10
1.61640002483
 20
0.901119999452
 10
1.62374002482
 20
0.893779999458
  0
LWPOLYLINE
  5
17A
330
10
100
AcDbEntity
  8
TRACTOR_PLC
  6
BYLAYER
370
   211
 62
   256
100
AcDbPolyline
 90
     2
 70
     0
 43
0.00199999999822
 10
1.63116002481
 20
0.893779999458
 10
1.6458400248
 20
0.893779999458
  0
LWPOLYLINE
  5
17B
330
10
100
AcDbEntity
  8
TRACTOR_PLC
  6
BYLAYER
370
   211
 62
   256
100
AcDbPolyline
 90
     3
 70
     0
 43
0.00199999999822
 10
1.63850002481
 20
0.893779999458
 10
1.63850002481
 20
0.915799999439
 10
1.63116002481
 20
0.908459999445
  0
LWPOLYLINE
  5
17C
330
10
100
AcDbEntity
  8
TRACTOR_PLC
  6
BYLAYER
370
   211
 62
   256
100
AcDbPolyline
 90
     5
 70
     0
 43
0.00199999999822
 10
1.6532600248
 20
0.915799999439
 10
1.66794002478
 20
0.915799999439
 10
1.66794002478
 20
0.912129973195
 10
1.6532600248
 20
0.897449973208
 10
1.6532600248
 20
0.893779999458
  0
LWPOLYLINE
  5
17D
330
10
100
AcDbEntity
  8
TRACTOR_PLC
  6
BYLAYER
370
   211
 62
   256
100
AcDbPolyline
 90
     6
 70
     0
 43
0.00199999999822
 10
1.80380002466
 20
0.906129973201
 10
1.80380002466
 20
0.917139999438
 10
1.80746999841
 20
0.920809973188
 10
1.8148099984
 20
0.920809973188
 10
1.81848002465
 20
0.917139999438
 10
1.81848002465
 20
0.906129973201
  0
LWPOLYLINE
  5
17E
330
10
100
AcDbEntity
  8
TRACTOR_PLC
  6
BYLAYER
370
   211
 62
   256
100
AcDbPolyline
 90
     2
 70
     0
 43
0.00199999999822
 10
1.82582002464
 20
0.906129973201
 10
1.80380002466
 20
0.906129973201
  0
LWPOLYLINE
  5
17F
330
10
100
AcDbEntity
  8
TRACTOR_PLC
  6
BYLAYER
370
   211
 62
   256
100
AcDbPolyline
 90
     2
 70
     0
 43
0.00199999999822
 10
1.81848002465
 20
0.913469973194
 10
1.82582002464
 20
0.920809973188
  0
LWPOLYLINE
  5
180
330
10
100
AcDbEntity
  8
TRACTOR_PLC
  6
BYLAYER
370
   211
 62
   256
100
AcDbPolyline
 90
     2
 70
     0
 43
0.00199999999822
 10
1.82582002464
 20
0.928229973181
 10
1.82582002464
 20
0.942909973168
  0
LWPOLYLINE
  5
181
330
10
100
AcDbEntity
  8
TRACTOR_PLC
  6
BYLAYER
370
   211
 62
   256
100
AcDbPolyline
 90
     3
 70
     0
 43
0.00199999999822
 10
1.82582002464
 20
0.935569973174
 10
1.80380002466
 20
0.935569973174
 10
1.81114002465
 20
0.928229973181
  0
LWPOLYLINE
  5
182
330
10
100
AcDbEntity
  8
TRACTOR_PLC
  6
BYLAYER
370
   211
 62
   256
100
AcDbPolyline
 90
     8
 70
     0
 43
0.00199999999822
 10
1.8148099984
 20
0.950329973161
 10
1.81114002465
 20
0.957669973155
 10
1.81114002465
 20
0.961339999398
 10
1.8148099984
 20
0.965009973148
 10
1.8221499984
 20
0.965009973148
 10
1.82582002464
 20
0.961339999398
 10
1.82582002464
 20
0.953999999405
 10
1.8221499984
 20
0.950329973161
  0
LWPOLYLINE
  5
183
330
10
100
AcDbEntity
  8
TRACTOR_PLC
  6
BYLAYER
370
   211
 62
   256
100
AcDbPolyline
 90
     3
 70
     0
 43
0.00199999999822
 10
1.8148099984
 20
0.950329973161
 10
1.80380002466
 20
0.950329973161
 10
1.80380002466
 20
0.965009973148
  0
LWPOLYLINE
  5
184
330
10
100
AcDbEntity
  8
TRACTOR_PLC
  6
BYLAYER
370
   211
 62
   256
100
AcDbPolyline
 90
     2
 70
     0
 43
0.00199999999822
 10
2.0428299982
 20
1.06376997306
 10
2.0428299982
 20
1.0710999993
  0
LWPOLYLINE
  5
185
330
10
100
AcDbEntity
  8
TRACTOR_PLC
  6
BYLAYER
370
   211
 62
   256
100
AcDbPolyline
 90
     2
 70
     0
 43
0.00199999999822
 10
2.0428299982
 20
1.06742997306
 10
2.06484999818
 20
1.06742997306
  0
LWPOLYLINE
  5
186
330
10
100
AcDbEntity
  8
TRACTOR_PLC
  6
BYLAYER
370
   211
 62
   256
100
AcDbPolyline
 90
     2
 70
     0
 43
0.00199999999822
 10
2.06484999818
 20
1.06376997306
 10
2.06484999818
 20
1.0710999993
  0
LWPOLYLINE
  5
187
330
10
100
AcDbEntity
  8
TRACTOR_PLC
  6
BYLAYER
370
   211
 62
   256
100
AcDbPolyline
 90
     4
 70
     0
 43
0.00199999999822
 10
2.06118002443
 20
1.07849999929
 10
2.06484999818
 20
1.08216997304
 10
2.06484999818
 20
1.08950997304
 10
2.06118002443
 20
1.09317999928
  0
LWPOLYLINE
  5
188
330
10
100
AcDbEntity
  8
TRACTOR_PLC
  6
BYLAYER
370
   211
 62
   256
100
AcDbPolyline
 90
     7
 70
     0
 43
0.00199999999822
 10
2.06118002443
 20
1.10059999927
 10
2.06484999818
 20
1.10426997302
 10
2.06484999818
 20
1.11160997302
 10
2.06118002443
 20
1.11527999926
 10
2.05750999819
 20
1.11527999926
 10
2.05384002444
 20
1.11160997302
 10
2.05384002444
 20
1.10793999927
  0
LWPOLYLINE
  5
189
330
10
100
AcDbEntity
  8
TRACTOR_PLC
  6
BYLAYER
370
   211
 62
   256
100
AcDbPolyline
 90
     6
 70
     0
 43
0.00199999999822
 10
2.05384002444
 20
1.11160997302
 10
2.0501699982
 20
1.11527999926
 10
2.04650002445
 20
1.11527999926
 10
2.0428299982
 20
1.11160997302
 10
2.0428299982
 20
1.10426997302
 10
2.04650002445
 20
1.10059999927
  0
LWPOLYLINE
  5
18A
330
10
100
AcDbEntity
  8
TRACTOR_PLC
  6
BYLAYER
370
   211
 62
   256
100
AcDbPolyline
 90
     5
 70
     0
 43
0.00199999999822
 10
2.04650002445
 20
1.09317999928
 10
2.0428299982
 20
1.08950997304
 10
2.0428299982
 20
1.08216997304
 10
2.04650002445
 20
1.07849999929
 10
2.06118002443
 20
1.07849999929
  0
LWPOLYLINE
  5
18B
330
10
100
AcDbEntity
  8
TRACTOR_PLC
  6
BYLAYER
370
   211
 62
   256
100
AcDbPolyline
 90
     2
 70
     0
 43
0.00199999999822
 10
2.33632002419
 20
1.04055999933
 10
2.33632002419
 20
1.01853999935
  0
LWPOLYLINE
  5
18C
330
10
100
AcDbEntity
  8
TRACTOR_PLC
  6
BYLAYER
370
   211
 62
   256
100
AcDbPolyline
 90
     6
 70
     0
 43
0.00199999999822
 10
2.33632002419
 20
1.02587999934
 10
2.34732999793
 20
1.02587999934
 10
2.35100002418
 20
1.02954997309
 10
2.35100002418
 20
1.03688997308
 10
2.34732999793
 20
1.04055999933
 10
2.33632002419
 20
1.04055999933
  0
LWPOLYLINE
  5
18D
330
10
100
AcDbEntity
  8
TRACTOR_PLC
  6
BYLAYER
370
   211
 62
   256
100
AcDbPolyline
 90
     2
 70
     0
 43
0.00199999999822
 10
2.34366002418
 20
1.02587999934
 10
2.35100002418
 20
1.01853999935
  0
LWPOLYLINE
  5
18E
330
10
100
AcDbEntity
  8
TRACTOR_PLC
  6
BYLAYER
370
   211
 62
   256
100
AcDbPolyline
 90
     2
 70
     0
 43
0.00199999999822
 10
2.35842002417
 20
1.01853999935
 10
2.37310002416
 20
1.01853999935
  0
LWPOLYLINE
  5
18F
330
10
100
AcDbEntity
  8
TRACTOR_PLC
  6
BYLAYER
370
   211
 62
   256
100
AcDbPolyline
 90
     3
 70
     0
 43
0.00199999999822
 10
2.36576002416
 20
1.01853999935
 10
2.36576002416
 20
1.04055999933
 10
2.35842002417
 20
1.03321999933
  0
LWPOLYLINE
  5
190
330
10
100
AcDbEntity
  8
TRACTOR_PLC
  6
BYLAYER
370
   211
 62
   256
100
AcDbPolyline
 90
     5
 70
     0
 43
0.00199999999822
 10
2.49136002405
 20
0.967169973146
 10
2.49136002405
 20
0.952489973159
 10
2.4950299978
 20
0.948819999409
 10
2.50236999779
 20
0.948819999409
 10
2.50604002404
 20
0.952489973159
  0
LWPOLYLINE
  5
191
330
10
100
AcDbEntity
  8
TRACTOR_PLC
  6
BYLAYER
370
   211
 62
   256
100
AcDbPolyline
 90
     2
 70
     0
 43
0.00199999999822
 10
2.51346002403
 20
0.952489973159
 10
2.51346002403
 20
0.948819999409
  0
LWPOLYLINE
  5
192
330
10
100
AcDbEntity
  8
TRACTOR_PLC
  6
BYLAYER
370
   211
 62
   256
100
AcDbPolyline
 90
     4
 70
     0
 43
0.00199999999822
 10
2.51346002403
 20
0.952489973159
 10
2.52812999777
 20
0.967169973146
 10
2.52812999777
 20
0.97083999939
 10
2.51346002403
 20
0.97083999939
  0
LWPOLYLINE
  5
193
330
10
100
AcDbEntity
  8
TRACTOR_PLC
  6
BYLAYER
370
   211
 62
   256
100
AcDbPolyline
 90
     4
 70
     0
 43
0.00199999999822
 10
2.50604002404
 20
0.967169973146
 10
2.50236999779
 20
0.97083999939
 10
2.4950299978
 20
0.97083999939
 10
2.49136002405
 20
0.967169973146
  0
LWPOLYLINE
  5
194
330
10
100
AcDbEntity
  8
TRACTOR_PLC
  6
BYLAYER
370
   211
 62
   256
100
AcDbPolyline
 90
     4
 70
     0
 43
0.00199999999822
 10
2.37294002416
 20
0.935339999421
 10
2.36926999791
 20
0.939009973171
 10
2.36192999792
 20
0.939009973171
 10
2.35826002417
 20
0.935339999421
  0
LWPOLYLINE
  5
195
330
10
100
AcDbEntity
  8
TRACTOR_PLC
  6
BYLAYER
370
   211
 62
   256
100
AcDbPolyline
 90
     4
 70
     0
 43
0.00199999999822
 10
2.35084002418
 20
0.935339999421
 10
2.35084002418
 20
0.927999999428
 10
2.34716999793
 20
0.924329973184
 10
2.33616002419
 20
0.924329973184
  0
LWPOLYLINE
  5
196
330
10
100
AcDbEntity
  8
TRACTOR_PLC
  6
BYLAYER
370
   211
 62
   256
100
AcDbPolyline
 90
     4
 70
     0
 43
0.00199999999822
 10
2.33616002419
 20
0.916989973191
 10
2.33616002419
 20
0.939009973171
 10
2.34716999793
 20
0.939009973171
 10
2.35084002418
 20
0.935339999421
  0
LWPOLYLINE
  5
197
330
10
100
AcDbEntity
  8
TRACTOR_PLC
  6
BYLAYER
370
   211
 62
   256
100
AcDbPolyline
 90
     2
 70
     0
 43
0.00199999999822
 10
2.34350002418
 20
0.924329973184
 10
2.35084002418
 20
0.916989973191
  0
LWPOLYLINE
  5
198
330
10
100
AcDbEntity
  8
TRACTOR_PLC
  6
BYLAYER
370
   211
 62
   256
100
AcDbPolyline
 90
     3
 70
     0
 43
0.00199999999822
 10
2.35826002417
 20
0.916989973191
 10
2.37294002416
 20
0.931669973178
 10
2.37294002416
 20
0.935339999421
  0
LWPOLYLINE
  5
199
330
10
100
AcDbEntity
  8
TRACTOR_PLC
  6
BYLAYER
370
   211
 62
   256
100
AcDbPolyline
 90
     2
 70
     0
 43
0.00199999999822
 10
2.37294002416
 20
0.916989973191
 10
2.35826002417
 20
0.916989973191
  0
LWPOLYLINE
  5
19A
330
10
100
AcDbEntity
  8
TRACTOR_PLC
  6
BYLAYER
370
   211
 62
   256
100
AcDbPolyline
 90
    10
 70
     0
 43
0.00199999999822
 10
2.36264999792
 20
0.839119999507
 10
2.36998999791
 20
0.839119999507
 10
2.37366002416
 20
0.835449973263
 10
2.37366002416
 20
0.831779999513
 10
2.36998999791
 20
0.82810997327
 10
2.37366002416
 20
0.82443999952
 10
2.37366002416
 20
0.820769973276
 10
2.36998999791
 20
0.817099999526
 10
2.36264999792
 20
0.817099999526
 10
2.35898002417
 20
0.820769973276
  0
LWPOLYLINE
  5
19B
330
10
100
AcDbEntity
  8
TRACTOR_PLC
  6
BYLAYER
370
   211
 62
   256
100
AcDbPolyline
 90
     2
 70
     0
 43
0.00199999999822
 10
2.35156002418
 20
0.817099999526
 10
2.34422002418
 20
0.82443999952
  0
LWPOLYLINE
  5
19C
330
10
100
AcDbEntity
  8
TRACTOR_PLC
  6
BYLAYER
370
   211
 62
   256
100
AcDbPolyline
 90
     2
 70
     0
 43
0.00199999999822
 10
2.34788999793
 20
0.82443999952
 10
2.33688002419
 20
0.82443999952
  0
LWPOLYLINE
  5
19D
330
10
100
AcDbEntity
  8
TRACTOR_PLC
  6
BYLAYER
370
   211
 62
   256
100
AcDbPolyline
 90
     6
 70
     0
 43
0.00199999999822
 10
2.33688002419
 20
0.817099999526
 10
2.33688002419
 20
0.839119999507
 10
2.34788999793
 20
0.839119999507
 10
2.35156002418
 20
0.835449973263
 10
2.35156002418
 20
0.82810997327
 10
2.34788999793
 20
0.82443999952
  0
LWPOLYLINE
  5
19E
330
10
100
AcDbEntity
  8
TRACTOR_PLC
  6
BYLAYER
370
   211
 62
   256
100
AcDbPolyline
 90
     2
 70
     0
 43
0.00199999999822
 10
2.35898002417
 20
0.835449973263
 10
2.36264999792
 20
0.839119999507
  0
LWPOLYLINE
  5
19F
330
10
100
AcDbEntity
  8
TRACTOR_PLC
  6
BYLAYER
370
   211
 62
   256
100
AcDbPolyline
 90
     2
 70
     0
 43
0.00199999999822
 10
2.36632002416
 20
0.82810997327
 10
2.36998999791
 20
0.82810997327
  0
LWPOLYLINE
  5
1A0
330
10
100
AcDbEntity
  8
TRACTOR_PLC
  6
BYLAYER
370
   211
 62
   256
100
AcDbPolyline
 90
     3
 70
     0
 43
0.00199999999822
 10
2.37016002416
 20
0.736559999598
 10
2.35914999792
 20
0.725549973361
 10
2.37382999791
 20
0.725549973361
  0
LWPOLYLINE
  5
1A1
330
10
100
AcDbEntity
  8
TRACTOR_PLC
  6
BYLAYER
370
   211
 62
   256
100
AcDbPolyline
 90
     2
 70
     0
 43
0.00199999999822
 10
2.37016002416
 20
0.714539999617
 10
2.37016002416
 20
0.736559999598
  0
LWPOLYLINE
  5
1A2
330
10
100
AcDbEntity
  8
TRACTOR_PLC
  6
BYLAYER
370
   211
 62
   256
100
AcDbPolyline
 90
     4
 70
     0
 43
0.00199999999822
 10
2.35172999793
 20
0.732889973354
 10
2.34806002418
 20
0.736559999598
 10
2.33704999794
 20
0.736559999598
 10
2.33704999794
 20
0.714539999617
  0
LWPOLYLINE
  5
1A3
330
10
100
AcDbEntity
  8
TRACTOR_PLC
  6
BYLAYER
370
   211
 62
   256
100
AcDbPolyline
 90
     4
 70
     0
 43
0.00199999999822
 10
2.33704999794
 20
0.721879999611
 10
2.34806002418
 20
0.721879999611
 10
2.35172999793
 20
0.725549973361
 10
2.35172999793
 20
0.732889973354
  0
LWPOLYLINE
  5
1A4
330
10
100
AcDbEntity
  8
TRACTOR_PLC
  6
BYLAYER
370
   211
 62
   256
100
AcDbPolyline
 90
     2
 70
     0
 43
0.00199999999822
 10
2.34438999793
 20
0.721879999611
 10
2.35172999793
 20
0.714539999617
  0
LWPOLYLINE
  5
1A5
330
10
100
AcDbEntity
  8
TRACTOR_PLC
  6
BYLAYER
370
   211
 62
   256
100
AcDbPolyline
 90
     4
 70
     0
 43
0.00199999999822
 10
2.48898999781
 20
0.729659999604
 10
2.49266002405
 20
0.725989973361
 10
2.50000002404
 20
0.725989973361
 10
2.50366999779
 20
0.729659999604
  0
LWPOLYLINE
  5
1A6
330
10
100
AcDbEntity
  8
TRACTOR_PLC
  6
BYLAYER
370
   211
 62
   256
100
AcDbPolyline
 90
    11
 70
     0
 43
0.00199999999822
 10
2.51108999779
 20
0.729659999604
 10
2.51476002403
 20
0.725989973361
 10
2.52210002402
 20
0.725989973361
 10
2.52576999777
 20
0.729659999604
 10
2.52576999777
 20
0.744339999591
 10
2.52210002402
 20
0.748009973341
 10
2.51476002403
 20
0.748009973341
 10
2.51108999779
 20
0.744339999591
 10
2.51108999779
 20
0.740669973348
 10
2.51476002403
 20
0.736999999597
 10
2.52576999777
 20
0.736999999597
  0
LWPOLYLINE
  5
1A7
330
10
100
AcDbEntity
  8
TRACTOR_PLC
  6
BYLAYER
370
   211
 62
   256
100
AcDbPolyline
 90
     5
 70
     0
 43
0.00199999999822
 10
2.50366999779
 20
0.744339999591
 10
2.50000002404
 20
0.748009973341
 10
2.49266002405
 20
0.748009973341
 10
2.48898999781
 20
0.744339999591
 10
2.48898999781
 20
0.729659999604
  0
LWPOLYLINE
  5
1A8
330
10
100
AcDbEntity
  8
TRACTOR_PLC
  6
BYLAYER
370
   211
 62
   256
100
AcDbPolyline
 90
     7
 70
     0
 43
0.00199999999822
 10
2.70796999761
 20
0.838759999507
 10
2.70796999761
 20
0.860779999488
 10
2.71898002385
 20
0.860779999488
 10
2.7226499976
 20
0.857109973244
 10
2.7226499976
 20
0.849769973251
 10
2.71898002385
 20
0.846099999501
 10
2.70796999761
 20
0.846099999501
  0
LWPOLYLINE
  5
1A9
330
10
100
AcDbEntity
  8
TRACTOR_PLC
  6
BYLAYER
370
   211
 62
   256
100
AcDbPolyline
 90
     2
 70
     0
 43
0.00199999999822
 10
2.73006999759
 20
0.849769973251
 10
2.74474999758
 20
0.849769973251
  0
LWPOLYLINE
  5
1AA
330
10
100
AcDbEntity
  8
TRACTOR_PLC
  6
BYLAYER
370
   211
 62
   256
100
AcDbPolyline
 90
     2
 70
     0
 43
0.00199999999822
 10
2.74474999758
 20
0.853439999494
 10
2.74474999758
 20
0.838759999507
  0
LWPOLYLINE
  5
1AB
330
10
100
AcDbEntity
  8
TRACTOR_PLC
  6
BYLAYER
370
   211
 62
   256
100
AcDbPolyline
 90
     7
 70
     0
 43
0.00199999999822
 10
2.75216999757
 20
0.838759999507
 10
2.76316999756
 20
0.838759999507
 10
2.76684002381
 20
0.842429973257
 10
2.76684002381
 20
0.857109973244
 10
2.76316999756
 20
0.860779999488
 10
2.75216999757
 20
0.860779999488
 10
2.75216999757
 20
0.838759999507
  0
LWPOLYLINE
  5
1AC
330
10
100
AcDbEntity
  8
TRACTOR_PLC
  6
BYLAYER
370
   211
 62
   256
100
AcDbPolyline
 90
     4
 70
     0
 43
0.00199999999822
 10
2.74474999758
 20
0.853439999494
 10
2.73740999759
 20
0.860779999488
 10
2.73006999759
 20
0.853439999494
 10
2.73006999759
 20
0.838759999507
  0
LWPOLYLINE
  5
1AD
330
10
100
AcDbEntity
  8
TRACTOR_PLC
  6
BYLAYER
370
   211
 62
   256
100
AcDbPolyline
 90
     2
 70
     0
 43
0.00199999999822
 10
2.7742600238
 20
0.835089973264
 10
2.78894002379
 20
0.835089973264
  0
LWPOLYLINE
  5
1AE
330
10
100
AcDbEntity
  8
TRACTOR_PLC
  6
BYLAYER
370
   211
 62
   256
100
AcDbPolyline
 90
     2
 70
     0
 43
0.00199999999822
 10
2.79636002378
 20
0.849769973251
 10
2.81104002377
 20
0.849769973251
  0
LWPOLYLINE
  5
1AF
330
10
100
AcDbEntity
  8
TRACTOR_PLC
  6
BYLAYER
370
   211
 62
   256
100
AcDbPolyline
 90
     3
 70
     0
 43
0.00199999999822
 10
2.80736999752
 20
0.838759999507
 10
2.80736999752
 20
0.860779999488
 10
2.79636002378
 20
0.849769973251
  0
LWPOLYLINE
  5
1B0
330
10
100
AcDbEntity
  8
TRACTOR_PLC
  6
BYLAYER
370
   211
 62
   256
100
AcDbPolyline
 90
     6
 70
     0
 43
0.00199999999822
 10
2.89246999745
 20
0.77128997332
 10
2.90348002369
 20
0.77128997332
 10
2.90714999744
 20
0.76761999957
 10
2.90714999744
 20
0.760279999577
 10
2.90348002369
 20
0.756609973333
 10
2.89246999745
 20
0.756609973333
  0
LWPOLYLINE
  5
1B1
330
10
100
AcDbEntity
  8
TRACTOR_PLC
  6
BYLAYER
370
   211
 62
   256
100
AcDbPolyline
 90
     2
 70
     0
 43
0.00199999999822
 10
2.89246999745
 20
0.74926997334
 10
2.89246999745
 20
0.77128997332
  0
LWPOLYLINE
  5
1B2
330
10
100
AcDbEntity
  8
TRACTOR_PLC
  6
BYLAYER
370
   211
 62
   256
100
AcDbPolyline
 90
     2
 70
     0
 43
0.00199999999822
 10
2.91456999743
 20
0.763949973327
 10
2.91456999743
 20
0.74926997334
  0
LWPOLYLINE
  5
1B3
330
10
100
AcDbEntity
  8
TRACTOR_PLC
  6
BYLAYER
370
   211
 62
   256
100
AcDbPolyline
 90
     2
 70
     0
 43
0.00199999999822
 10
2.91456999743
 20
0.760279999577
 10
2.92924999742
 20
0.760279999577
  0
LWPOLYLINE
  5
1B4
330
10
100
AcDbEntity
  8
TRACTOR_PLC
  6
BYLAYER
370
   211
 62
   256
100
AcDbPolyline
 90
     2
 70
     0
 43
0.00199999999822
 10
2.92924999742
 20
0.763949973327
 10
2.92924999742
 20
0.74926997334
  0
LWPOLYLINE
  5
1B5
330
10
100
AcDbEntity
  8
TRACTOR_PLC
  6
BYLAYER
370
   211
 62
   256
100
AcDbPolyline
 90
     7
 70
     0
 43
0.00199999999822
 10
2.93666999741
 20
0.74926997334
 10
2.94768002365
 20
0.74926997334
 10
2.9513499974
 20
0.752939999583
 10
2.9513499974
 20
0.76761999957
 10
2.94768002365
 20
0.77128997332
 10
2.93666999741
 20
0.77128997332
 10
2.93666999741
 20
0.74926997334
  0
LWPOLYLINE
  5
1B6
330
10
100
AcDbEntity
  8
TRACTOR_PLC
  6
BYLAYER
370
   211
 62
   256
100
AcDbPolyline
 90
     3
 70
     0
 43
0.00199999999822
 10
2.92924999742
 20
0.763949973327
 10
2.92190999742
 20
0.77128997332
 10
2.91456999743
 20
0.763949973327
  0
LWPOLYLINE
  5
1B7
330
10
100
AcDbEntity
  8
TRACTOR_PLC
  6
BYLAYER
370
   211
 62
   256
100
AcDbPolyline
 90
     2
 70
     0
 43
0.00199999999822
 10
2.95876999739
 20
0.74559999959
 10
2.97344002362
 20
0.74559999959
  0
LWPOLYLINE
  5
1B8
330
10
100
AcDbEntity
  8
TRACTOR_PLC
  6
BYLAYER
370
   211
 62
   256
100
AcDbPolyline
 90
     5
 70
     0
 43
0.00199999999822
 10
2.98086002362
 20
0.74926997334
 10
2.98086002362
 20
0.752939999583
 10
2.9955400236
 20
0.76761999957
 10
2.9955400236
 20
0.77128997332
 10
2.98086002362
 20
0.77128997332
  0
LWPOLYLINE
  5
1B9
330
10
100
AcDbEntity
  8
TRACTOR_PLC
  6
BYLAYER
370
   211
 62
   256
100
AcDbPolyline
 90
     2
 70
     0
 43
0.00199999999822
 10
2.97606999737
 20
0.927509973182
 10
2.96138999739
 20
0.927509973182
  0
LWPOLYLINE
  5
1BA
330
10
100
AcDbEntity
  8
TRACTOR_PLC
  6
BYLAYER
370
   211
 62
   256
100
AcDbPolyline
 90
     7
 70
     0
 43
0.00199999999822
 10
2.95398002364
 20
0.934849973175
 10
2.95398002364
 20
0.949529973162
 10
2.9503099974
 20
0.953199999406
 10
2.93930002365
 20
0.953199999406
 10
2.93930002365
 20
0.931179999425
 10
2.9503099974
 20
0.931179999425
 10
2.95398002364
 20
0.934849973175
  0
LWPOLYLINE
  5
1BB
330
10
100
AcDbEntity
  8
TRACTOR_PLC
  6
BYLAYER
370
   211
 62
   256
100
AcDbPolyline
 90
     5
 70
     0
 43
0.00199999999822
 10
2.93188002366
 20
0.931179999425
 10
2.93188002366
 20
0.945859999412
 10
2.92454002367
 20
0.953199999406
 10
2.91720002367
 20
0.945859999412
 10
2.91720002367
 20
0.931179999425
  0
LWPOLYLINE
  5
1BC
330
10
100
AcDbEntity
  8
TRACTOR_PLC
  6
BYLAYER
370
   211
 62
   256
100
AcDbPolyline
 90
     2
 70
     0
 43
0.00199999999822
 10
2.91720002367
 20
0.942189973169
 10
2.93188002366
 20
0.942189973169
  0
LWPOLYLINE
  5
1BD
330
10
100
AcDbEntity
  8
TRACTOR_PLC
  6
BYLAYER
370
   211
 62
   256
100
AcDbPolyline
 90
     3
 70
     0
 43
0.00199999999822
 10
2.90978002368
 20
0.942189973169
 10
2.90610999744
 20
0.938519999419
 10
2.89510002369
 20
0.938519999419
  0
LWPOLYLINE
  5
1BE
330
10
100
AcDbEntity
  8
TRACTOR_PLC
  6
BYLAYER
370
   211
 62
   256
100
AcDbPolyline
 90
     5
 70
     0
 43
0.00199999999822
 10
2.89510002369
 20
0.931179999425
 10
2.89510002369
 20
0.953199999406
 10
2.90610999744
 20
0.953199999406
 10
2.90978002368
 20
0.949529973162
 10
2.90978002368
 20
0.942189973169
  0
LWPOLYLINE
  5
1BF
330
10
100
AcDbEntity
  8
TRACTOR_PLC
  6
BYLAYER
370
   211
 62
   256
100
AcDbPolyline
 90
     8
 70
     0
 43
0.00199999999822
 10
2.98348999737
 20
0.942189973169
 10
2.99082999736
 20
0.945859999412
 10
2.9945000236
 20
0.945859999412
 10
2.99816999735
 20
0.942189973169
 10
2.99816999735
 20
0.934849973175
 10
2.9945000236
 20
0.931179999425
 10
2.98716002361
 20
0.931179999425
 10
2.98348999737
 20
0.934849973175
  0
LWPOLYLINE
  5
1C0
330
10
100
AcDbEntity
  8
TRACTOR_PLC
  6
BYLAYER
370
   211
 62
   256
100
AcDbPolyline
 90
     3
 70
     0
 43
0.00199999999822
 10
2.98348999737
 20
0.942189973169
 10
2.98348999737
 20
0.953199999406
 10
2.99816999735
 20
0.953199999406
  0
LWPOLYLINE
  5
1C1
330
10
100
AcDbEntity
  8
TRACTOR_PLC
  6
BYLAYER
370
   211
 62
   256
100
AcDbPolyline
 90
     7
 70
     0
 43
0.00199999999822
 10
2.80992999752
 20
1.02514997309
 10
2.79524999753
 20
1.02514997309
 10
2.80992999752
 20
1.03982997308
 10
2.80992999752
 20
1.04349999933
 10
2.80626002377
 20
1.04716997308
 10
2.79892002378
 20
1.04716997308
 10
2.79524999753
 20
1.04349999933
  0
LWPOLYLINE
  5
1C2
330
10
100
AcDbEntity
  8
TRACTOR_PLC
  6
BYLAYER
370
   211
 62
   256
100
AcDbPolyline
 90
     7
 70
     0
 43
0.00199999999822
 10
2.76572999756
 20
1.04349999933
 10
2.76572999756
 20
1.02881999934
 10
2.76206002381
 20
1.02514997309
 10
2.75104999757
 20
1.02514997309
 10
2.75104999757
 20
1.04716997308
 10
2.76206002381
 20
1.04716997308
 10
2.76572999756
 20
1.04349999933
  0
LWPOLYLINE
  5
1C3
330
10
100
AcDbEntity
  8
TRACTOR_PLC
  6
BYLAYER
370
   211
 62
   256
100
AcDbPolyline
 90
     2
 70
     0
 43
0.00199999999822
 10
2.74362999758
 20
1.03982997308
 10
2.74362999758
 20
1.02514997309
  0
LWPOLYLINE
  5
1C4
330
10
100
AcDbEntity
  8
TRACTOR_PLC
  6
BYLAYER
370
   211
 62
   256
100
AcDbPolyline
 90
     2
 70
     0
 43
0.00199999999822
 10
2.74362999758
 20
1.03615999933
 10
2.72894999759
 20
1.03615999933
  0
LWPOLYLINE
  5
1C5
330
10
100
AcDbEntity
  8
TRACTOR_PLC
  6
BYLAYER
370
   211
 62
   256
100
AcDbPolyline
 90
     2
 70
     0
 43
0.00199999999822
 10
2.72894999759
 20
1.03982997308
 10
2.72894999759
 20
1.02514997309
  0
LWPOLYLINE
  5
1C6
330
10
100
AcDbEntity
  8
TRACTOR_PLC
  6
BYLAYER
370
   211
 62
   256
100
AcDbPolyline
 90
     3
 70
     0
 43
0.00199999999822
 10
2.7215299976
 20
1.03615999933
 10
2.7178699976
 20
1.03248997309
 10
2.70686002386
 20
1.03248997309
  0
LWPOLYLINE
  5
1C7
330
10
100
AcDbEntity
  8
TRACTOR_PLC
  6
BYLAYER
370
   211
 62
   256
100
AcDbPolyline
 90
     5
 70
     0
 43
0.00199999999822
 10
2.70686002386
 20
1.02514997309
 10
2.70686002386
 20
1.04716997308
 10
2.7178699976
 20
1.04716997308
 10
2.7215299976
 20
1.04349999933
 10
2.7215299976
 20
1.03615999933
  0
LWPOLYLINE
  5
1C8
330
10
100
AcDbEntity
  8
TRACTOR_PLC
  6
BYLAYER
370
   211
 62
   256
100
AcDbPolyline
 90
     3
 70
     0
 43
0.00199999999822
 10
2.72894999759
 20
1.03982997308
 10
2.73628999759
 20
1.04716997308
 10
2.74362999758
 20
1.03982997308
  0
LWPOLYLINE
  5
1C9
330
10
100
AcDbEntity
  8
TRACTOR_PLC
  6
BYLAYER
370
   211
 62
   256
100
AcDbPolyline
 90
     2
 70
     0
 43
0.00199999999822
 10
2.77314999755
 20
1.02147999934
 10
2.78782999754
 20
1.02147999934
  0
LWPOLYLINE
  5
1CA
330
10
100
AcDbEntity
  8
TRACTOR_PLC
  6
BYLAYER
370
   211
 62
   256
100
AcDbPolyline
 90
     7
 70
     0
 43
0.00199999999822
 10
2.89410999745
 20
1.14906997298
 10
2.89410999745
 20
1.17108997297
 10
2.90512002368
 20
1.17108997297
 10
2.90878999743
 20
1.16741999922
 10
2.90878999743
 20
1.16007999922
 10
2.90512002368
 20
1.15640997298
 10
2.89410999745
 20
1.15640997298
  0
LWPOLYLINE
  5
1CB
330
10
100
AcDbEntity
  8
TRACTOR_PLC
  6
BYLAYER
370
   211
 62
   256
100
AcDbPolyline
 90
     2
 70
     0
 43
0.00199999999822
 10
2.91620999743
 20
1.16007999922
 10
2.93088002366
 20
1.16007999922
  0
LWPOLYLINE
  5
1CC
330
10
100
AcDbEntity
  8
TRACTOR_PLC
  6
BYLAYER
370
   211
 62
   256
100
AcDbPolyline
 90
     2
 70
     0
 43
0.00199999999822
 10
2.93088002366
 20
1.16374997297
 10
2.93088002366
 20
1.14906997298
  0
LWPOLYLINE
  5
1CD
330
10
100
AcDbEntity
  8
TRACTOR_PLC
  6
BYLAYER
370
   211
 62
   256
100
AcDbPolyline
 90
     7
 70
     0
 43
0.00199999999822
 10
2.93830002365
 20
1.14906997298
 10
2.9493099974
 20
1.14906997298
 10
2.95298002364
 20
1.15273999923
 10
2.95298002364
 20
1.16741999922
 10
2.9493099974
 20
1.17108997297
 10
2.93830002365
 20
1.17108997297
 10
2.93830002365
 20
1.14906997298
  0
LWPOLYLINE
  5
1CE
330
10
100
AcDbEntity
  8
TRACTOR_PLC
  6
BYLAYER
370
   211
 62
   256
100
AcDbPolyline
 90
     4
 70
     0
 43
0.00199999999822
 10
2.93088002366
 20
1.16374997297
 10
2.92354999742
 20
1.17108997297
 10
2.91620999743
 20
1.16374997297
 10
2.91620999743
 20
1.14906997298
  0
LWPOLYLINE
  5
1CF
330
10
100
AcDbEntity
  8
TRACTOR_PLC
  6
BYLAYER
370
   211
 62
   256
100
AcDbPolyline
 90
     2
 70
     0
 43
0.00199999999822
 10
2.96040002363
 20
1.14539999923
 10
2.97508002362
 20
1.14539999923
  0
LWPOLYLINE
  5
1D0
330
10
100
AcDbEntity
  8
TRACTOR_PLC
  6
BYLAYER
370
   211
 62
   256
100
AcDbPolyline
 90
    14
 70
     0
 43
0.00199999999822
 10
2.98250002361
 20
1.15273999923
 10
2.98616999736
 20
1.14906997298
 10
2.99350999736
 20
1.14906997298
 10
2.9971800236
 20
1.15273999923
 10
2.9971800236
 20
1.15640997298
 10
2.99350999736
 20
1.16007999922
 10
2.98616999736
 20
1.16007999922
 10
2.98250002361
 20
1.16374997297
 10
2.98250002361
 20
1.16741999922
 10
2.98616999736
 20
1.17108997297
 10
2.99350999736
 20
1.17108997297
 10
2.9971800236
 20
1.16741999922
 10
2.9971800236
 20
1.16374997297
 10
2.99350999736
 20
1.16007999922
  0
LWPOLYLINE
  5
1D1
330
10
100
AcDbEntity
  8
TRACTOR_PLC
  6
BYLAYER
370
   211
 62
   256
100
AcDbPolyline
 90
     3
 70
     0
 43
0.00199999999822
 10
2.98616999736
 20
1.16007999922
 10
2.98250002361
 20
1.15640997298
 10
2.98250002361
 20
1.15273999923
  0
LWPOLYLINE
  5
1D2
330
10
100
AcDbEntity
  8
TRACTOR_PLC
  6
BYLAYER
370
   211
 62
   256
100
AcDbPolyline
 90
     4
 70
     0
 43
0.00199999999822
 10
2.85240999748
 20
1.24003999915
 10
2.84874002373
 20
1.23636997291
 10
2.84140002374
 20
1.23636997291
 10
2.8377299975
 20
1.24003999915
  0
LWPOLYLINE
  5
1D3
330
10
100
AcDbEntity
  8
TRACTOR_PLC
  6
BYLAYER
370
   211
 62
   256
100
AcDbPolyline
 90
     7
 70
     0
 43
0.00199999999822
 10
2.8303099975
 20
1.24003999915
 10
2.82664002375
 20
1.23636997291
 10
2.81562999752
 20
1.23636997291
 10
2.81562999752
 20
1.25838997289
 10
2.82664002375
 20
1.25838997289
 10
2.8303099975
 20
1.25471999914
 10
2.8303099975
 20
1.24003999915
  0
LWPOLYLINE
  5
1D4
330
10
100
AcDbEntity
  8
TRACTOR_PLC
  6
BYLAYER
370
   211
 62
   256
100
AcDbPolyline
 90
     8
 70
     0
 43
0.00199999999822
 10
2.8377299975
 20
1.25471999914
 10
2.84140002374
 20
1.25838997289
 10
2.84874002373
 20
1.25838997289
 10
2.85240999748
 20
1.25471999914
 10
2.85240999748
 20
1.25104997289
 10
2.84874002373
 20
1.24737999914
 10
2.85240999748
 20
1.2437099729
 10
2.85240999748
 20
1.24003999915
  0
LWPOLYLINE
  5
1D5
330
10
100
AcDbEntity
  8
TRACTOR_PLC
  6
BYLAYER
370
   211
 62
   256
100
AcDbPolyline
 90
     2
 70
     0
 43
0.00199999999822
 10
2.84874002373
 20
1.24737999914
 10
2.84506999749
 20
1.24737999914
  0
LWPOLYLINE
  5
1D6
330
10
100
AcDbEntity
  8
TRACTOR_PLC
  6
BYLAYER
370
   211
 62
   256
100
AcDbPolyline
 90
     9
 70
     0
 43
0.00199999999822
 10
2.52616999777
 20
1.21519999917
 10
2.52616999777
 20
1.21152997293
 10
2.52250002402
 20
1.20785999918
 10
2.51516002403
 20
1.20785999918
 10
2.51148999779
 20
1.21152997293
 10
2.51148999779
 20
1.21519999917
 10
2.51516002403
 20
1.21886997292
 10
2.52250002402
 20
1.21886997292
 10
2.52616999777
 20
1.21519999917
  0
LWPOLYLINE
  5
1D7
330
10
100
AcDbEntity
  8
TRACTOR_PLC
  6
BYLAYER
370
   211
 62
   256
100
AcDbPolyline
 90
     8
 70
     0
 43
0.00199999999822
 10
2.52250002402
 20
1.20785999918
 10
2.52616999777
 20
1.20418997294
 10
2.52616999777
 20
1.20051999919
 10
2.52250002402
 20
1.19684997294
 10
2.51516002403
 20
1.19684997294
 10
2.51148999779
 20
1.20051999919
 10
2.51148999779
 20
1.20418997294
 10
2.51516002403
 20
1.20785999918
  0
LWPOLYLINE
  5
1D8
330
10
100
AcDbEntity
  8
TRACTOR_PLC
  6
BYLAYER
370
   211
 62
   256
100
AcDbPolyline
 90
     8
 70
     0
 43
0.00199999999822
 10
2.50406999779
 20
1.20051999919
 10
2.50040002404
 20
1.19684997294
 10
2.49306002405
 20
1.19684997294
 10
2.48938999781
 20
1.20051999919
 10
2.48938999781
 20
1.21519999917
 10
2.49306002405
 20
1.21886997292
 10
2.50040002404
 20
1.21886997292
 10
2.50406999779
 20
1.21519999917
  0
LWPOLYLINE
  5
1D9
330
10
100
AcDbEntity
  8
TRACTOR_PLC
  6
BYLAYER
370
   211
 62
   256
100
AcDbPolyline
 90
    10
 70
     0
 43
0.00199999999822
 10
1.66000999854
 20
1.12498997301
 10
1.65266999855
 20
1.12131999926
 10
1.64532999856
 20
1.11397999926
 10
1.65634002479
 20
1.11397999926
 10
1.66000999854
 20
1.11030997302
 10
1.66000999854
 20
1.10663999927
 10
1.65634002479
 20
1.10296997303
 10
1.6490000248
 20
1.10296997303
 10
1.64532999856
 20
1.10663999927
 10
1.64532999856
 20
1.11397999926
  0
LWPOLYLINE
  5
1DA
330
10
100
AcDbEntity
  8
TRACTOR_PLC
  6
BYLAYER
370
   211
 62
   256
100
AcDbPolyline
 90
     2
 70
     0
 43
0.00199999999822
 10
1.63790999856
 20
1.10296997303
 10
1.62322999857
 20
1.10296997303
  0
LWPOLYLINE
  5
1DB
330
10
100
AcDbEntity
  8
TRACTOR_PLC
  6
BYLAYER
370
   211
 62
   256
100
AcDbPolyline
 90
     3
 70
     0
 43
0.00199999999822
 10
1.63056999857
 20
1.10296997303
 10
1.63056999857
 20
1.12498997301
 10
1.62322999857
 20
1.11764997301
  0
LWPOLYLINE
  5
1DC
330
10
100
AcDbEntity
  8
TRACTOR_PLC
  6
BYLAYER
370
   211
 62
   256
100
AcDbPolyline
 90
     3
 70
     0
 43
0.00199999999822
 10
1.61580999858
 20
1.11397999926
 10
1.61214002483
 20
1.11030997302
 10
1.60112999859
 20
1.11030997302
  0
LWPOLYLINE
  5
1DD
330
10
100
AcDbEntity
  8
TRACTOR_PLC
  6
BYLAYER
370
   211
 62
   256
100
AcDbPolyline
 90
     5
 70
     0
 43
0.00199999999822
 10
1.60112999859
 20
1.10296997303
 10
1.60112999859
 20
1.12498997301
 10
1.61214002483
 20
1.12498997301
 10
1.61580999858
 20
1.12131999926
 10
1.61580999858
 20
1.11397999926
  0
LWPOLYLINE
  5
1DE
330
10
100
AcDbEntity
  8
TRACTOR_PLC
  6
BYLAYER
370
   211
 62
   256
100
AcDbPolyline
 90
     2
 70
     0
 43
0.00199999999822
 10
1.60846999859
 20
1.11030997302
 10
1.61580999858
 20
1.10296997303
  0
LWPOLYLINE
  5
1DF
330
10
100
AcDbEntity
  8
TRACTOR_PLC
  6
BYLAYER
370
   211
 62
   256
100
AcDbPolyline
 90
     2
 70
     0
 43
0.00199999999822
 10
2.19894999806
 20
0.596779999722
 10
2.22096999804
 20
0.596779999722
  0
LWPOLYLINE
  5
1E0
330
10
100
AcDbEntity
  8
TRACTOR_PLC
  6
BYLAYER
370
   211
 62
   256
100
AcDbPolyline
 90
     2
 70
     0
 43
0.00199999999822
 10
2.22096999804
 20
0.589439999729
 10
2.22096999804
 20
0.604119999715
  0
LWPOLYLINE
  5
1E1
330
10
100
AcDbEntity
  8
TRACTOR_PLC
  6
BYLAYER
370
   211
 62
   256
100
AcDbPolyline
 90
     2
 70
     0
 43
0.00199999999822
 10
2.20628999806
 20
0.589439999729
 10
2.19894999806
 20
0.596779999722
  0
LWPOLYLINE
  5
1E2
330
10
100
AcDbEntity
  8
TRACTOR_PLC
  6
BYLAYER
370
   211
 62
   256
100
AcDbPolyline
 90
     2
 70
     0
 43
0.00199999999822
 10
2.19894999806
 20
0.582019999735
 10
2.19894999806
 20
0.567349973501
  0
LWPOLYLINE
  5
1E3
330
10
100
AcDbEntity
  8
TRACTOR_PLC
  6
BYLAYER
370
   211
 62
   256
100
AcDbPolyline
 90
     2
 70
     0
 43
0.00199999999822
 10
2.19894999806
 20
0.574689973495
 10
2.22096999804
 20
0.574689973495
  0
LWPOLYLINE
  5
1E4
330
10
100
AcDbEntity
  8
TRACTOR_PLC
  6
BYLAYER
370
   211
 62
   256
100
AcDbPolyline
 90
     2
 70
     0
 43
0.00199999999822
 10
2.70840999761
 20
0.556399999758
 10
2.70840999761
 20
0.534379999777
  0
LWPOLYLINE
  5
1E5
330
10
100
AcDbEntity
  8
TRACTOR_PLC
  6
BYLAYER
370
   211
 62
   256
100
AcDbPolyline
 90
     6
 70
     0
 43
0.00199999999822
 10
2.70840999761
 20
0.541719999771
 10
2.71942002385
 20
0.541719999771
 10
2.7230899976
 20
0.545389973521
 10
2.7230899976
 20
0.552729973514
 10
2.71942002385
 20
0.556399999758
 10
2.70840999761
 20
0.556399999758
  0
LWPOLYLINE
  5
1E6
330
10
100
AcDbEntity
  8
TRACTOR_PLC
  6
BYLAYER
370
   211
 62
   256
100
AcDbPolyline
 90
     2
 70
     0
 43
0.00199999999822
 10
2.73050999759
 20
0.549059999764
 10
2.73050999759
 20
0.534379999777
  0
LWPOLYLINE
  5
1E7
330
10
100
AcDbEntity
  8
TRACTOR_PLC
  6
BYLAYER
370
   211
 62
   256
100
AcDbPolyline
 90
     2
 70
     0
 43
0.00199999999822
 10
2.73050999759
 20
0.545389973521
 10
2.74518002383
 20
0.545389973521
  0
LWPOLYLINE
  5
1E8
330
10
100
AcDbEntity
  8
TRACTOR_PLC
  6
BYLAYER
370
   211
 62
   256
100
AcDbPolyline
 90
     2
 70
     0
 43
0.00199999999822
 10
2.74518002383
 20
0.549059999764
 10
2.74518002383
 20
0.534379999777
  0
LWPOLYLINE
  5
1E9
330
10
100
AcDbEntity
  8
TRACTOR_PLC
  6
BYLAYER
370
   211
 62
   256
100
AcDbPolyline
 90
     7
 70
     0
 43
0.00199999999822
 10
2.75260002382
 20
0.534379999777
 10
2.76360999756
 20
0.534379999777
 10
2.76728002381
 20
0.538049973527
 10
2.76728002381
 20
0.552729973514
 10
2.76360999756
 20
0.556399999758
 10
2.75260002382
 20
0.556399999758
 10
2.75260002382
 20
0.534379999777
  0
LWPOLYLINE
  5
1EA
330
10
100
AcDbEntity
  8
TRACTOR_PLC
  6
BYLAYER
370
   211
 62
   256
100
AcDbPolyline
 90
     3
 70
     0
 43
0.00199999999822
 10
2.74518002383
 20
0.549059999764
 10
2.73784999759
 20
0.556399999758
 10
2.73050999759
 20
0.549059999764
  0
LWPOLYLINE
  5
1EB
330
10
100
AcDbEntity
  8
TRACTOR_PLC
  6
BYLAYER
370
   211
 62
   256
100
AcDbPolyline
 90
     2
 70
     0
 43
0.00199999999822
 10
2.7747000238
 20
0.530709973534
 10
2.78938002379
 20
0.530709973534
  0
LWPOLYLINE
  5
1EC
330
10
100
AcDbEntity
  8
TRACTOR_PLC
  6
BYLAYER
370
   211
 62
   256
100
AcDbPolyline
 90
     7
 70
     0
 43
0.00199999999822
 10
2.79680002378
 20
0.538049973527
 10
2.80046999753
 20
0.534379999777
 10
2.80780999752
 20
0.534379999777
 10
2.81148002377
 20
0.538049973527
 10
2.81148002377
 20
0.541719999771
 10
2.80780999752
 20
0.545389973521
 10
2.80414002377
 20
0.545389973521
  0
LWPOLYLINE
  5
1ED
330
10
100
AcDbEntity
  8
TRACTOR_PLC
  6
BYLAYER
370
   211
 62
   256
100
AcDbPolyline
 90
     6
 70
     0
 43
0.00199999999822
 10
2.80780999752
 20
0.545389973521
 10
2.81148002377
 20
0.549059999764
 10
2.81148002377
 20
0.552729973514
 10
2.80780999752
 20
0.556399999758
 10
2.80046999753
 20
0.556399999758
 10
2.79680002378
 20
0.552729973514
  0
LWPOLYLINE
  5
1EE
330
10
100
AcDbEntity
  8
TRACTOR_PLC
  6
BYLAYER
370
   211
 62
   256
100
AcDbPolyline
 90
     6
 70
     0
 43
0.00199999999822
 10
2.89114999745
 20
0.467819999836
 10
2.90216002369
 20
0.467819999836
 10
2.90582999744
 20
0.464149973593
 10
2.90582999744
 20
0.4568099736
 10
2.90216002369
 20
0.45313999985
 10
2.89114999745
 20
0.45313999985
  0
LWPOLYLINE
  5
1EF
330
10
100
AcDbEntity
  8
TRACTOR_PLC
  6
BYLAYER
370
   211
 62
   256
100
AcDbPolyline
 90
     2
 70
     0
 43
0.00199999999822
 10
2.89114999745
 20
0.445799999856
 10
2.89114999745
 20
0.467819999836
  0
LWPOLYLINE
  5
1F0
330
10
100
AcDbEntity
  8
TRACTOR_PLC
  6
BYLAYER
370
   211
 62
   256
100
AcDbPolyline
 90
     4
 70
     0
 43
0.00199999999822
 10
2.91324999743
 20
0.460479999843
 10
2.92058999742
 20
0.467819999836
 10
2.92792999742
 20
0.460479999843
 10
2.92792999742
 20
0.445799999856
  0
LWPOLYLINE
  5
1F1
330
10
100
AcDbEntity
  8
TRACTOR_PLC
  6
BYLAYER
370
   211
 62
   256
100
AcDbPolyline
 90
     7
 70
     0
 43
0.00199999999822
 10
2.93534999741
 20
0.445799999856
 10
2.94636002365
 20
0.445799999856
 10
2.9500299974
 20
0.449469973606
 10
2.9500299974
 20
0.464149973593
 10
2.94636002365
 20
0.467819999836
 10
2.93534999741
 20
0.467819999836
 10
2.93534999741
 20
0.445799999856
  0
LWPOLYLINE
  5
1F2
330
10
100
AcDbEntity
  8
TRACTOR_PLC
  6
BYLAYER
370
   211
 62
   256
100
AcDbPolyline
 90
     2
 70
     0
 43
0.00199999999822
 10
2.92792999742
 20
0.4568099736
 10
2.91324999743
 20
0.4568099736
  0
LWPOLYLINE
  5
1F3
330
10
100
AcDbEntity
  8
TRACTOR_PLC
  6
BYLAYER
370
   211
 62
   256
100
AcDbPolyline
 90
     2
 70
     0
 43
0.00199999999822
 10
2.91324999743
 20
0.460479999843
 10
2.91324999743
 20
0.445799999856
  0
LWPOLYLINE
  5
1F4
330
10
100
AcDbEntity
  8
TRACTOR_PLC
  6
BYLAYER
370
   211
 62
   256
100
AcDbPolyline
 90
     2
 70
     0
 43
0.00199999999822
 10
2.95744999739
 20
0.442129973613
 10
2.97212002362
 20
0.442129973613
  0
LWPOLYLINE
  5
1F5
330
10
100
AcDbEntity
  8
TRACTOR_PLC
  6
BYLAYER
370
   211
 62
   256
100
AcDbPolyline
 90
     8
 70
     0
 43
0.00199999999822
 10
2.97954002362
 20
0.449469973606
 10
2.98320999737
 20
0.445799999856
 10
2.99054999736
 20
0.445799999856
 10
2.9942200236
 20
0.449469973606
 10
2.9942200236
 20
0.45313999985
 10
2.99054999736
 20
0.4568099736
 10
2.97954002362
 20
0.4568099736
 10
2.97954002362
 20
0.449469973606
  0
LWPOLYLINE
  5
1F6
330
10
100
AcDbEntity
  8
TRACTOR_PLC
  6
BYLAYER
370
   211
 62
   256
100
AcDbPolyline
 90
     3
 70
     0
 43
0.00199999999822
 10
2.97954002362
 20
0.4568099736
 10
2.98688002361
 20
0.464149973593
 10
2.9942200236
 20
0.467819999836
  0
LWPOLYLINE
  5
1F7
330
10
100
AcDbEntity
  8
TRACTOR_PLC
  6
BYLAYER
370
   211
 62
   256
100
AcDbPolyline
 90
     2
 70
     0
 43
0.00199999999822
 10
2.80532002377
 20
0.344999999946
 10
2.79798002378
 20
0.337659999952
  0
LWPOLYLINE
  5
1F8
330
10
100
AcDbEntity
  8
TRACTOR_PLC
  6
BYLAYER
370
   211
 62
   256
100
AcDbPolyline
 90
     2
 70
     0
 43
0.00199999999822
 10
2.80532002377
 20
0.344999999946
 10
2.80532002377
 20
0.322989973718
  0
LWPOLYLINE
  5
1F9
330
10
100
AcDbEntity
  8
TRACTOR_PLC
  6
BYLAYER
370
   211
 62
   256
100
AcDbPolyline
 90
     2
 70
     0
 43
0.00199999999822
 10
2.79798002378
 20
0.322989973718
 10
2.81266002377
 20
0.322989973718
  0
LWPOLYLINE
  5
1FA
330
10
100
AcDbEntity
  8
TRACTOR_PLC
  6
BYLAYER
370
   211
 62
   256
100
AcDbPolyline
 90
     2
 70
     0
 43
0.00199999999822
 10
2.79056002379
 20
0.319319999968
 10
2.7758800238
 20
0.319319999968
  0
LWPOLYLINE
  5
1FB
330
10
100
AcDbEntity
  8
TRACTOR_PLC
  6
BYLAYER
370
   211
 62
   256
100
AcDbPolyline
 90
     7
 70
     0
 43
0.00199999999822
 10
2.7684600238
 20
0.326659999962
 10
2.7684600238
 20
0.341329973702
 10
2.76478999756
 20
0.344999999946
 10
2.75378002382
 20
0.344999999946
 10
2.75378002382
 20
0.322989973718
 10
2.76478999756
 20
0.322989973718
 10
2.7684600238
 20
0.326659999962
  0
LWPOLYLINE
  5
1FC
330
10
100
AcDbEntity
  8
TRACTOR_PLC
  6
BYLAYER
370
   211
 62
   256
100
AcDbPolyline
 90
     5
 70
     0
 43
0.00199999999822
 10
2.74636002382
 20
0.322989973718
 10
2.74636002382
 20
0.337659999952
 10
2.73902002383
 20
0.344999999946
 10
2.73168002384
 20
0.337659999952
 10
2.73168002384
 20
0.322989973718
  0
LWPOLYLINE
  5
1FD
330
10
100
AcDbEntity
  8
TRACTOR_PLC
  6
BYLAYER
370
   211
 62
   256
100
AcDbPolyline
 90
     2
 70
     0
 43
0.00199999999822
 10
2.73168002384
 20
0.333999999955
 10
2.74636002382
 20
0.333999999955
  0
LWPOLYLINE
  5
1FE
330
10
100
AcDbEntity
  8
TRACTOR_PLC
  6
BYLAYER
370
   211
 62
   256
100
AcDbPolyline
 90
     3
 70
     0
 43
0.00199999999822
 10
2.72426002384
 20
0.333999999955
 10
2.7205899976
 20
0.330329973712
 10
2.70958002386
 20
0.330329973712
  0
LWPOLYLINE
  5
1FF
330
10
100
AcDbEntity
  8
TRACTOR_PLC
  6
BYLAYER
370
   211
 62
   256
100
AcDbPolyline
 90
     5
 70
     0
 43
0.00199999999822
 10
2.70958002386
 20
0.322989973718
 10
2.70958002386
 20
0.344999999946
 10
2.7205899976
 20
0.344999999946
 10
2.72426002384
 20
0.341329973702
 10
2.72426002384
 20
0.333999999955
  0
LWPOLYLINE
  5
200
330
10
100
AcDbEntity
  8
TRACTOR_PLC
  6
BYLAYER
370
   211
 62
   256
100
AcDbPolyline
 90
     2
 70
     0
 43
0.00599999999467
 10
2.71908002385
 20
0.355989973689
 10
2.73908002383
 20
0.355989973689
  0
LWPOLYLINE
  5
201
330
10
100
AcDbEntity
  8
TRACTOR_PLC
  6
BYLAYER
370
   211
 62
   256
100
AcDbPolyline
 90
     2
 70
     0
 43
0.00599999999467
 10
2.71908002385
 20
0.355989973689
 10
2.71908002385
 20
0.375989973671
  0
LWPOLYLINE
  5
202
330
10
100
AcDbEntity
  8
TRACTOR_PLC
  6
BYLAYER
370
   211
 62
   256
100
AcDbPolyline
 90
     3
 70
     0
 43
0.00599999999467
 10
2.79908002378
 20
0.355989973689
 10
2.81908002376
 20
0.355989973689
 10
2.81908002376
 20
0.375989973671
  0
LWPOLYLINE
  5
203
330
10
100
AcDbEntity
  8
TRACTOR_PLC
  6
BYLAYER
370
   211
 62
   256
100
AcDbPolyline
 90
     3
 70
     0
 43
0.00599999999467
 10
2.81908002376
 20
0.435989973618
 10
2.81908002376
 20
0.4559899736
 10
2.79908002378
 20
0.4559899736
  0
LWPOLYLINE
  5
204
330
10
100
AcDbEntity
  8
TRACTOR_PLC
  6
BYLAYER
370
   211
 62
   256
100
AcDbPolyline
 90
     3
 70
     0
 43
0.00599999999467
 10
2.73908002383
 20
0.4559899736
 10
2.71908002385
 20
0.4559899736
 10
2.71908002385
 20
0.435989973618
  0
LWPOLYLINE
  5
205
330
10
100
AcDbEntity
  8
TRACTOR_PLC
  6
BYLAYER
370
   211
 62
   256
100
AcDbPolyline
 90
     2
 70
     0
 43
0.00599999999467
 10
2.90064002369
 20
0.478799999827
 10
2.92064002367
 20
0.478799999827
  0
LWPOLYLINE
  5
206
330
10
100
AcDbEntity
  8
TRACTOR_PLC
  6
BYLAYER
370
   211
 62
   256
100
AcDbPolyline
 90
     2
 70
     0
 43
0.00599999999467
 10
2.90064002369
 20
0.478799999827
 10
2.90064002369
 20
0.498799999809
  0
LWPOLYLINE
  5
207
330
10
100
AcDbEntity
  8
TRACTOR_PLC
  6
BYLAYER
370
   211
 62
   256
100
AcDbPolyline
 90
     3
 70
     0
 43
0.00599999999467
 10
2.98064002362
 20
0.478799999827
 10
3.0006400236
 20
0.478799999827
 10
3.0006400236
 20
0.498799999809
  0
LWPOLYLINE
  5
208
330
10
100
AcDbEntity
  8
TRACTOR_PLC
  6
BYLAYER
370
   211
 62
   256
100
AcDbPolyline
 90
     3
 70
     0
 43
0.00599999999467
 10
3.0006400236
 20
0.558799999756
 10
3.0006400236
 20
0.578799999738
 10
2.98064002362
 20
0.578799999738
  0
LWPOLYLINE
  5
209
330
10
100
AcDbEntity
  8
TRACTOR_PLC
  6
BYLAYER
370
   211
 62
   256
100
AcDbPolyline
 90
     3
 70
     0
 43
0.00599999999467
 10
2.92064002367
 20
0.578799999738
 10
2.90064002369
 20
0.578799999738
 10
2.90064002369
 20
0.558799999756
  0
LWPOLYLINE
  5
20A
330
10
100
AcDbEntity
  8
TRACTOR_PLC
  6
BYLAYER
370
   211
 62
   256
100
AcDbPolyline
 90
     2
 70
     0
 43
0.00599999999467
 10
2.81790002376
 20
0.567379999748
 10
2.79790002378
 20
0.567379999748
  0
LWPOLYLINE
  5
20B
330
10
100
AcDbEntity
  8
TRACTOR_PLC
  6
BYLAYER
370
   211
 62
   256
100
AcDbPolyline
 90
     2
 70
     0
 43
0.00599999999467
 10
2.81790002376
 20
0.567379999748
 10
2.81790002376
 20
0.58737999973
  0
LWPOLYLINE
  5
20C
330
10
100
AcDbEntity
  8
TRACTOR_PLC
  6
BYLAYER
370
   211
 62
   256
100
AcDbPolyline
 90
     3
 70
     0
 43
0.00599999999467
 10
2.73790002383
 20
0.567379999748
 10
2.71790002385
 20
0.567379999748
 10
2.71790002385
 20
0.58737999973
  0
LWPOLYLINE
  5
20D
330
10
100
AcDbEntity
  8
TRACTOR_PLC
  6
BYLAYER
370
   211
 62
   256
100
AcDbPolyline
 90
     3
 70
     0
 43
0.00599999999467
 10
2.71790002385
 20
0.647379999677
 10
2.71790002385
 20
0.667379999659
 10
2.73790002383
 20
0.667379999659
  0
LWPOLYLINE
  5
20E
330
10
100
AcDbEntity
  8
TRACTOR_PLC
  6
BYLAYER
370
   211
 62
   256
100
AcDbPolyline
 90
     3
 70
     0
 43
0.00599999999467
 10
2.79790002378
 20
0.667379999659
 10
2.81790002376
 20
0.667379999659
 10
2.81790002376
 20
0.647379999677
  0
LWPOLYLINE
  5
20F
330
10
100
AcDbEntity
  8
TRACTOR_PLC
  6
BYLAYER
370
   211
 62
   256
100
AcDbPolyline
 90
     2
 70
     0
 43
0.00599999999467
 10
2.56338999774
 20
0.674369973406
 10
2.55838999774
 20
0.674369973406
  0
LWPOLYLINE
  5
210
330
10
100
AcDbEntity
  8
TRACTOR_PLC
  6
BYLAYER
370
   211
 62
   256
100
AcDbPolyline
 90
     2
 70
     0
 43
0.00599999999467
 10
2.53838999776
 20
0.674369973406
 10
2.53338999777
 20
0.674369973406
  0
LWPOLYLINE
  5
211
330
10
100
AcDbEntity
  8
TRACTOR_PLC
  6
BYLAYER
370
   211
 62
   256
100
AcDbPolyline
 90
     2
 70
     0
 43
0.00599999999467
 10
2.90196002369
 20
0.782269973311
 10
2.92196002367
 20
0.782269973311
  0
LWPOLYLINE
  5
212
330
10
100
AcDbEntity
  8
TRACTOR_PLC
  6
BYLAYER
370
   211
 62
   256
100
AcDbPolyline
 90
     2
 70
     0
 43
0.00599999999467
 10
2.90196002369
 20
0.782269973311
 10
2.90196002369
 20
0.802269973293
  0
LWPOLYLINE
  5
213
330
10
100
AcDbEntity
  8
TRACTOR_PLC
  6
BYLAYER
370
   211
 62
   256
100
AcDbPolyline
 90
     3
 70
     0
 43
0.00599999999467
 10
2.98196002362
 20
0.782269973311
 10
3.0019600236
 20
0.782269973311
 10
3.0019600236
 20
0.802269973293
  0
LWPOLYLINE
  5
214
330
10
100
AcDbEntity
  8
TRACTOR_PLC
  6
BYLAYER
370
   211
 62
   256
100
AcDbPolyline
 90
     3
 70
     0
 43
0.00599999999467
 10
3.0019600236
 20
0.86226997324
 10
3.0019600236
 20
0.882269973222
 10
2.98196002362
 20
0.882269973222
  0
LWPOLYLINE
  5
215
330
10
100
AcDbEntity
  8
TRACTOR_PLC
  6
BYLAYER
370
   211
 62
   256
100
AcDbPolyline
 90
     3
 70
     0
 43
0.00599999999467
 10
2.92196002367
 20
0.882269973222
 10
2.90196002369
 20
0.882269973222
 10
2.90196002369
 20
0.86226997324
  0
LWPOLYLINE
  5
216
330
10
100
AcDbEntity
  8
TRACTOR_PLC
  6
BYLAYER
370
   211
 62
   256
100
AcDbPolyline
 90
     2
 70
     0
 43
0.00599999999467
 10
2.81746002376
 20
0.871759999478
 10
2.79746002378
 20
0.871759999478
  0
LWPOLYLINE
  5
217
330
10
100
AcDbEntity
  8
TRACTOR_PLC
  6
BYLAYER
370
   211
 62
   256
100
AcDbPolyline
 90
     2
 70
     0
 43
0.00599999999467
 10
2.81746002376
 20
0.871759999478
 10
2.81746002376
 20
0.89175999946
  0
LWPOLYLINE
  5
218
330
10
100
AcDbEntity
  8
TRACTOR_PLC
  6
BYLAYER
370
   211
 62
   256
100
AcDbPolyline
 90
     3
 70
     0
 43
0.00599999999467
 10
2.73746002383
 20
0.871759999478
 10
2.71746002385
 20
0.871759999478
 10
2.71746002385
 20
0.89175999946
  0
LWPOLYLINE
  5
219
330
10
100
AcDbEntity
  8
TRACTOR_PLC
  6
BYLAYER
370
   211
 62
   256
100
AcDbPolyline
 90
     3
 70
     0
 43
0.00599999999467
 10
2.71746002385
 20
0.951759999407
 10
2.71746002385
 20
0.971759999389
 10
2.73746002383
 20
0.971759999389
  0
LWPOLYLINE
  5
21A
330
10
100
AcDbEntity
  8
TRACTOR_PLC
  6
BYLAYER
370
   211
 62
   256
100
AcDbPolyline
 90
     3
 70
     0
 43
0.00599999999467
 10
2.79746002378
 20
0.971759999389
 10
2.81746002376
 20
0.971759999389
 10
2.81746002376
 20
0.951759999407
  0
LWPOLYLINE
  5
21B
330
10
100
AcDbEntity
  8
TRACTOR_PLC
  6
BYLAYER
370
   211
 62
   256
100
AcDbPolyline
 90
     2
 70
     0
 43
0.00599999999467
 10
2.90458999744
 20
0.964179999396
 10
2.92458999742
 20
0.964179999396
  0
LWPOLYLINE
  5
21C
330
10
100
AcDbEntity
  8
TRACTOR_PLC
  6
BYLAYER
370
   211
 62
   256
100
AcDbPolyline
 90
     2
 70
     0
 43
0.00599999999467
 10
2.90458999744
 20
0.964179999396
 10
2.90458999744
 20
0.984179999378
  0
LWPOLYLINE
  5
21D
330
10
100
AcDbEntity
  8
TRACTOR_PLC
  6
BYLAYER
370
   211
 62
   256
100
AcDbPolyline
 90
     3
 70
     0
 43
0.00599999999467
 10
2.98458999737
 20
0.964179999396
 10
3.00458999735
 20
0.964179999396
 10
3.00458999735
 20
0.984179999378
  0
LWPOLYLINE
  5
21E
330
10
100
AcDbEntity
  8
TRACTOR_PLC
  6
BYLAYER
370
   211
 62
   256
100
AcDbPolyline
 90
     3
 70
     0
 43
0.00599999999467
 10
3.00458999735
 20
1.04417999932
 10
3.00458999735
 20
1.06417999931
 10
2.98458999737
 20
1.06417999931
  0
LWPOLYLINE
  5
21F
330
10
100
AcDbEntity
  8
TRACTOR_PLC
  6
BYLAYER
370
   211
 62
   256
100
AcDbPolyline
 90
     3
 70
     0
 43
0.00599999999467
 10
2.92458999742
 20
1.06417999931
 10
2.90458999744
 20
1.06417999931
 10
2.90458999744
 20
1.04417999932
  0
LWPOLYLINE
  5
220
330
10
100
AcDbEntity
  8
TRACTOR_PLC
  6
BYLAYER
370
   211
 62
   256
100
AcDbPolyline
 90
     2
 70
     0
 43
0.00599999999467
 10
2.81634999752
 20
1.05814997307
 10
2.79634999753
 20
1.05814997307
  0
LWPOLYLINE
  5
221
330
10
100
AcDbEntity
  8
TRACTOR_PLC
  6
BYLAYER
370
   211
 62
   256
100
AcDbPolyline
 90
     2
 70
     0
 43
0.00599999999467
 10
2.81634999752
 20
1.05814997307
 10
2.81634999752
 20
1.07814997305
  0
LWPOLYLINE
  5
222
330
10
100
AcDbEntity
  8
TRACTOR_PLC
  6
BYLAYER
370
   211
 62
   256
100
AcDbPolyline
 90
     3
 70
     0
 43
0.00599999999467
 10
2.73634999759
 20
1.05814997307
 10
2.7163499976
 20
1.05814997307
 10
2.7163499976
 20
1.07814997305
  0
LWPOLYLINE
  5
223
330
10
100
AcDbEntity
  8
TRACTOR_PLC
  6
BYLAYER
370
   211
 62
   256
100
AcDbPolyline
 90
     3
 70
     0
 43
0.00599999999467
 10
2.7163499976
 20
1.13814997299
 10
2.7163499976
 20
1.15814997298
 10
2.73634999759
 20
1.15814997298
  0
LWPOLYLINE
  5
224
330
10
100
AcDbEntity
  8
TRACTOR_PLC
  6
BYLAYER
370
   211
 62
   256
100
AcDbPolyline
 90
     3
 70
     0
 43
0.00599999999467
 10
2.79634999753
 20
1.15814997298
 10
2.81634999752
 20
1.15814997298
 10
2.81634999752
 20
1.13814997299
  0
LWPOLYLINE
  5
225
330
10
100
AcDbEntity
  8
TRACTOR_PLC
  6
BYLAYER
370
   211
 62
   256
100
AcDbPolyline
 90
     2
 70
     0
 43
0.00599999999467
 10
2.90360002368
 20
1.18206997296
 10
2.92360002367
 20
1.18206997296
  0
LWPOLYLINE
  5
226
330
10
100
AcDbEntity
  8
TRACTOR_PLC
  6
BYLAYER
370
   211
 62
   256
100
AcDbPolyline
 90
     2
 70
     0
 43
0.00599999999467
 10
2.90360002368
 20
1.18206997296
 10
2.90360002368
 20
1.20206997294
  0
LWPOLYLINE
  5
227
330
10
100
AcDbEntity
  8
TRACTOR_PLC
  6
BYLAYER
370
   211
 62
   256
100
AcDbPolyline
 90
     3
 70
     0
 43
0.00599999999467
 10
2.98360002361
 20
1.18206997296
 10
3.0036000236
 20
1.18206997296
 10
3.0036000236
 20
1.20206997294
  0
LWPOLYLINE
  5
228
330
10
100
AcDbEntity
  8
TRACTOR_PLC
  6
BYLAYER
370
   211
 62
   256
100
AcDbPolyline
 90
     3
 70
     0
 43
0.00599999999467
 10
3.0036000236
 20
1.26206997288
 10
3.0036000236
 20
1.28206997287
 10
2.98360002361
 20
1.28206997287
  0
LWPOLYLINE
  5
229
330
10
100
AcDbEntity
  8
TRACTOR_PLC
  6
BYLAYER
370
   211
 62
   256
100
AcDbPolyline
 90
     3
 70
     0
 43
0.00599999999467
 10
2.92360002367
 20
1.28206997287
 10
2.90360002368
 20
1.28206997287
 10
2.90360002368
 20
1.26206997288
  0
LWPOLYLINE
  5
22A
330
10
100
AcDbEntity
  8
TRACTOR_PLC
  6
BYLAYER
370
   211
 62
   256
100
AcDbPolyline
 90
     2
 70
     0
 43
0.00599999999467
 10
2.56378999774
 20
1.14523999924
 10
2.55878999774
 20
1.14523999924
  0
LWPOLYLINE
  5
22B
330
10
100
AcDbEntity
  8
TRACTOR_PLC
  6
BYLAYER
370
   211
 62
   256
100
AcDbPolyline
 90
     2
 70
     0
 43
0.00599999999467
 10
2.53878999776
 20
1.14523999924
 10
2.53378999777
 20
1.14523999924
  0
LWPOLYLINE
  5
22C
330
10
100
AcDbEntity
  8
TRACTOR_PLC
  6
BYLAYER
370
   211
 62
   256
100
AcDbPolyline
 90
     2
 70
     0
 43
0.00599999999467
 10
2.53574999776
 20
0.897199999455
 10
2.54074999776
 20
0.897199999455
  0
LWPOLYLINE
  5
22D
330
10
100
AcDbEntity
  8
TRACTOR_PLC
  6
BYLAYER
370
   211
 62
   256
100
AcDbPolyline
 90
     2
 70
     0
 43
0.00599999999467
 10
2.56074999774
 20
0.897199999455
 10
2.56574999774
 20
0.897199999455
  0
LWPOLYLINE
  5
22E
330
10
100
AcDbEntity
  8
TRACTOR_PLC
  6
BYLAYER
370
   211
 62
   256
100
AcDbPolyline
 90
     2
 70
     0
 43
0.00599999999467
 10
1.05830999908
 20
0.386259999909
 10
1.04830999909
 20
0.386259999909
  0
LWPOLYLINE
  5
22F
330
10
100
AcDbEntity
  8
TRACTOR_PLC
  6
BYLAYER
370
   211
 62
   256
100
AcDbPolyline
 90
     2
 70
     0
 43
0.00599999999467
 10
1.05830999908
 20
0.386259999909
 10
1.05830999908
 20
0.376259999918
  0
LWPOLYLINE
  5
230
330
10
100
AcDbEntity
  8
TRACTOR_PLC
  6
BYLAYER
370
   211
 62
   256
100
AcDbPolyline
 90
     3
 70
     0
 43
0.00599999999467
 10
1.00830999912
 20
0.386259999909
 10
0.99830999913
 20
0.386259999909
 10
0.99830999913
 20
0.376259999918
  0
LWPOLYLINE
  5
231
330
10
100
AcDbEntity
  8
TRACTOR_PLC
  6
BYLAYER
370
   211
 62
   256
100
AcDbPolyline
 90
     3
 70
     0
 43
0.00599999999467
 10
0.957529999166
 20
0.375869973671
 10
0.957529999166
 20
0.385869973663
 10
0.947529999175
 20
0.385869973663
  0
LWPOLYLINE
  5
232
330
10
100
AcDbEntity
  8
TRACTOR_PLC
  6
BYLAYER
370
   211
 62
   256
100
AcDbPolyline
 90
     3
 70
     0
 43
0.00599999999467
 10
0.90752999921
 20
0.385869973663
 10
0.897529999219
 20
0.385869973663
 10
0.897529999219
 20
0.375869973671
  0
LWPOLYLINE
  5
233
330
10
100
AcDbEntity
  8
TRACTOR_PLC
  6
BYLAYER
370
   211
 62
   256
100
AcDbPolyline
 90
     3
 70
     0
 43
0.00599999999467
 10
0.858709999254
 20
0.375869973671
 10
0.858709999254
 20
0.385869973663
 10
0.848709999263
 20
0.385869973663
  0
LWPOLYLINE
  5
234
330
10
100
AcDbEntity
  8
TRACTOR_PLC
  6
BYLAYER
370
   211
 62
   256
100
AcDbPolyline
 90
     3
 70
     0
 43
0.00599999999467
 10
0.808709999298
 20
0.385869973663
 10
0.798709999307
 20
0.385869973663
 10
0.798709999307
 20
0.375869973671
  0
LWPOLYLINE
  5
235
330
10
100
AcDbEntity
  8
TRACTOR_PLC
  6
BYLAYER
370
   211
 62
   256
100
AcDbPolyline
 90
     3
 70
     0
 43
0.00599999999467
 10
0.758709999343
 20
0.374689973672
 10
0.758709999343
 20
0.384689973664
 10
0.748709999351
 20
0.384689973664
  0
LWPOLYLINE
  5
236
330
10
100
AcDbEntity
  8
TRACTOR_PLC
  6
BYLAYER
370
   211
 62
   256
100
AcDbPolyline
 90
     3
 70
     0
 43
0.00599999999467
 10
0.708709999387
 20
0.384689973664
 10
0.698709999396
 20
0.384689973664
 10
0.698709999396
 20
0.374689973672
  0
LWPOLYLINE
  5
237
330
10
100
AcDbEntity
  8
TRACTOR_PLC
  6
BYLAYER
370
   211
 62
   256
100
AcDbPolyline
 90
     3
 70
     0
 43
0.00599999999467
 10
0.656349999433
 20
0.375469973672
 10
0.656349999433
 20
0.385469973663
 10
0.646349999442
 20
0.385469973663
  0
LWPOLYLINE
  5
238
330
10
100
AcDbEntity
  8
TRACTOR_PLC
  6
BYLAYER
370
   211
 62
   256
100
AcDbPolyline
 90
     3
 70
     0
 43
0.00599999999467
 10
0.606349999478
 20
0.385469973663
 10
0.596349999487
 20
0.385469973663
 10
0.596349999487
 20
0.375469973672
  0
LWPOLYLINE
  5
239
330
10
100
AcDbEntity
  8
TRACTOR_PLC
  6
BYLAYER
370
   211
 62
   256
100
AcDbPolyline
 90
     3
 70
     0
 43
0.00599999999467
 10
0.596349999487
 20
0.335469973707
 10
0.596349999487
 20
0.325469973716
 10
0.606349999478
 20
0.325469973716
  0
LWPOLYLINE
  5
23A
330
10
100
AcDbEntity
  8
TRACTOR_PLC
  6
BYLAYER
370
   211
 62
   256
100
AcDbPolyline
 90
     3
 70
     0
 43
0.00599999999467
 10
0.646349999442
 20
0.325469973716
 10
0.656349999433
 20
0.325469973716
 10
0.656349999433
 20
0.335469973707
  0
LWPOLYLINE
  5
23B
330
10
100
AcDbEntity
  8
TRACTOR_PLC
  6
BYLAYER
370
   211
 62
   256
100
AcDbPolyline
 90
     3
 70
     0
 43
0.00599999999467
 10
0.698709999396
 20
0.334689973708
 10
0.698709999396
 20
0.324689973717
 10
0.708709999387
 20
0.324689973717
  0
LWPOLYLINE
  5
23C
330
10
100
AcDbEntity
  8
TRACTOR_PLC
  6
BYLAYER
370
   211
 62
   256
100
AcDbPolyline
 90
     3
 70
     0
 43
0.00599999999467
 10
0.748709999351
 20
0.324689973717
 10
0.758709999343
 20
0.324689973717
 10
0.758709999343
 20
0.334689973708
  0
LWPOLYLINE
  5
23D
330
10
100
AcDbEntity
  8
TRACTOR_PLC
  6
BYLAYER
370
   211
 62
   256
100
AcDbPolyline
 90
     3
 70
     0
 43
0.00599999999467
 10
0.798709999307
 20
0.335869973707
 10
0.798709999307
 20
0.325869973716
 10
0.808709999298
 20
0.325869973716
  0
LWPOLYLINE
  5
23E
330
10
100
AcDbEntity
  8
TRACTOR_PLC
  6
BYLAYER
370
   211
 62
   256
100
AcDbPolyline
 90
     3
 70
     0
 43
0.00599999999467
 10
0.848709999263
 20
0.325869973716
 10
0.858709999254
 20
0.325869973716
 10
0.858709999254
 20
0.335869973707
  0
LWPOLYLINE
  5
23F
330
10
100
AcDbEntity
  8
TRACTOR_PLC
  6
BYLAYER
370
   211
 62
   256
100
AcDbPolyline
 90
     3
 70
     0
 43
0.00599999999467
 10
0.897529999219
 20
0.335869973707
 10
0.897529999219
 20
0.325869973716
 10
0.90752999921
 20
0.325869973716
  0
LWPOLYLINE
  5
240
330
10
100
AcDbEntity
  8
TRACTOR_PLC
  6
BYLAYER
370
   211
 62
   256
100
AcDbPolyline
 90
     3
 70
     0
 43
0.00599999999467
 10
0.947529999175
 20
0.325869973716
 10
0.957529999166
 20
0.325869973716
 10
0.957529999166
 20
0.335869973707
  0
LWPOLYLINE
  5
241
330
10
100
AcDbEntity
  8
TRACTOR_PLC
  6
BYLAYER
370
   211
 62
   256
100
AcDbPolyline
 90
     3
 70
     0
 43
0.00599999999467
 10
0.99830999913
 20
0.336259999953
 10
0.99830999913
 20
0.326259999962
 10
1.00830999912
 20
0.326259999962
  0
LWPOLYLINE
  5
242
330
10
100
AcDbEntity
  8
TRACTOR_PLC
  6
BYLAYER
370
   211
 62
   256
100
AcDbPolyline
 90
     3
 70
     0
 43
0.00599999999467
 10
1.04830999909
 20
0.326259999962
 10
1.05830999908
 20
0.326259999962
 10
1.05830999908
 20
0.336259999953
  0
LWPOLYLINE
  5
243
330
10
100
AcDbEntity
  8
TRACTOR_PLC
  6
BYLAYER
370
   211
 62
   256
100
AcDbPolyline
 90
     3
 70
     0
 43
0.00999999999112
 10
2.53838999776
 20
0.644369973433
 10
2.53838999776
 20
0.674369973406
 10
2.53838999776
 20
0.70436997338
  0
LWPOLYLINE
  5
244
330
10
100
AcDbEntity
  8
TRACTOR_PLC
  6
BYLAYER
370
   211
 62
   256
100
AcDbPolyline
 90
     3
 70
     0
 43
0.00999999999112
 10
2.55838999774
 20
0.70436997338
 10
2.55838999774
 20
0.674369973406
 10
2.55838999774
 20
0.644369973433
  0
LWPOLYLINE
  5
245
330
10
100
AcDbEntity
  8
TRACTOR_PLC
  6
BYLAYER
370
   211
 62
   256
100
AcDbPolyline
 90
     3
 70
     0
 43
0.00999999999112
 10
2.56074999774
 20
0.867199999482
 10
2.56074999774
 20
0.897199999455
 10
2.56074999774
 20
0.927199999429
  0
LWPOLYLINE
  5
246
330
10
100
AcDbEntity
  8
TRACTOR_PLC
  6
BYLAYER
370
   211
 62
   256
100
AcDbPolyline
 90
     3
 70
     0
 43
0.00999999999112
 10
2.54074999776
 20
0.927199999429
 10
2.54074999776
 20
0.897199999455
 10
2.54074999776
 20
0.867199999482
  0
LWPOLYLINE
  5
247
330
10
100
AcDbEntity
  8
TRACTOR_PLC
  6
BYLAYER
370
   211
 62
   256
100
AcDbPolyline
 90
     3
 70
     0
 43
0.00999999999112
 10
2.53878999776
 20
1.11523999926
 10
2.53878999776
 20
1.14523999924
 10
2.53878999776
 20
1.17523999921
  0
LWPOLYLINE
  5
248
330
10
100
AcDbEntity
  8
TRACTOR_PLC
  6
BYLAYER
370
   211
 62
   256
100
AcDbPolyline
 90
     3
 70
     0
 43
0.00999999999112
 10
2.55878999774
 20
1.17523999921
 10
2.55878999774
 20
1.14523999924
 10
2.55878999774
 20
1.11523999926
  0
LWPOLYLINE
  5
249
330
10
100
AcDbEntity
  8
TRACTOR_PLC
  6
BYLAYER
370
   211
 62
   256
100
AcDbPolyline
 90
     2
 70
     0
 43
0.000999999999112
 10
2.46286002408
 20
1.1810999992
 10
2.46248999783
 20
1.1810999992
  0
LWPOLYLINE
  5
24A
330
10
100
AcDbEntity
  8
TRACTOR_PLC
  6
BYLAYER
370
   211
 62
   256
100
AcDbPolyline
 90
     2
 70
     0
 43
0.000999999999112
 10
2.46446002407
 20
0.933069973177
 10
2.46482999783
 20
0.933069973177
  0
LWPOLYLINE
  5
24B
330
10
100
AcDbEntity
  8
TRACTOR_PLC
  6
BYLAYER
370
   211
 62
   256
100
AcDbPolyline
 90
     2
 70
     0
 43
0.000999999999112
 10
2.46246999783
 20
0.710229973375
 10
2.46208999783
 20
0.710229973375
  0
LWPOLYLINE
  5
24C
330
10
100
AcDbEntity
  8
TRACTOR_PLC
  6
BYLAYER
370
   211
 62
   256
100
AcDbPolyline
 90
   105
 70
     0
 43
0.00499999999556
 10
2.48264002406
 20
0.716889973369
 10
2.61452999769
 20
0.716889973369
 10
2.61580999769
 20
0.716879999615
 10
2.61708999769
 20
0.716839999615
 10
2.61836002394
 20
0.716759999615
 10
2.61964002394
 20
0.716649973369
 10
2.62090999769
 20
0.716489973369
 10
2.62216999769
 20
0.716289973369
 10
2.62342999769
 20
0.716059999616
 10
2.62468002393
 20
0.71578997337
 10
2.62592002393
 20
0.715479999617
 10
2.62714999768
 20
0.71512997337
 10
2.62836999768
 20
0.714739999617
 10
2.62956999768
 20
0.714319999618
 10
2.63076999768
 20
0.713859999618
 10
2.63194999768
 20
0.713369973372
 10
2.63310999768
 20
0.712829973372
 10
2.63426002392
 20
0.712269973373
 10
2.63538999768
 20
0.711669973373
 10
2.63650002392
 20
0.711029973374
 10
2.63758999767
 20
0.710359999621
 10
2.63864999767
 20
0.709659999622
 10
2.63970002392
 20
0.708929973376
 10
2.64072999767
 20
0.708159999623
 10
2.64172999767
 20
0.707369973377
 10
2.64270002392
 20
0.706539999625
 10
2.64364999767
 20
0.705679999625
 10
2.64458002391
 20
0.704799999626
 10
2.64546999767
 20
0.70388997338
 10
2.64634002391
 20
0.702949973381
 10
2.64718002391
 20
0.701979999629
 10
2.64798999767
 20
0.700989973383
 10
2.64876999766
 20
0.69997999963
 10
2.64952002391
 20
0.698939999631
 10
2.65022999766
 20
0.697879999632
 10
2.65090999766
 20
0.696799999633
 10
2.65156002391
 20
0.695699999634
 10
2.65218002391
 20
0.694579999635
 10
2.65276002391
 20
0.693439999636
 10
2.65330999766
 20
0.692279999637
 10
2.65382002391
 20
0.691109973392
 10
2.65428999766
 20
0.689919999639
 10
2.65472999766
 20
0.68871999964
 10
2.65512999766
 20
0.687499999641
 10
2.65548999766
 20
0.686279999643
 10
2.6558200239
 20
0.685039999644
 10
2.65610999766
 20
0.683799999645
 10
2.6563600239
 20
0.682539999646
 10
2.65656999766
 20
0.681279999647
 10
2.6567400239
 20
0.680009973401
 10
2.6568800239
 20
0.678739999649
 10
2.65696999766
 20
0.677469973404
 10
2.65702999766
 20
0.676189973405
 10
2.65704999766
 20
0.674909973406
 10
2.65702999766
 20
0.673629973407
 10
2.65696999766
 20
0.672349973408
 10
2.65686999766
 20
0.671079999656
 10
2.65672999766
 20
0.66980997341
 10
2.6565600239
 20
0.668539999658
 10
2.6563400239
 20
0.667279999659
 10
2.65608999766
 20
0.666029973414
 10
2.6558000239
 20
0.664779999662
 10
2.65546999766
 20
0.663549973416
 10
2.65510002391
 20
0.662319999664
 10
2.65470002391
 20
0.661109973418
 10
2.65426002391
 20
0.659909973419
 10
2.65378002391
 20
0.658719999667
 10
2.65326002391
 20
0.657549973421
 10
2.65272002391
 20
0.656389973422
 10
2.65212999766
 20
0.65525999967
 10
2.65150999766
 20
0.654139999671
 10
2.65086002391
 20
0.653039999672
 10
2.65018002391
 20
0.651959999673
 10
2.64946002391
 20
0.650899999674
 10
2.64870999766
 20
0.649859999675
 10
2.64792999767
 20
0.648849973429
 10
2.64712002391
 20
0.647859999677
 10
2.64628002391
 20
0.646899999677
 10
2.64540999767
 20
0.645959999678
 10
2.64450999767
 20
0.645049973432
 10
2.64358002392
 20
0.644169973433
 10
2.64262999767
 20
0.643319999681
 10
2.64164999767
 20
0.642489973435
 10
2.64064999767
 20
0.641699999682
 10
2.63962002392
 20
0.640929973436
 10
2.63856999767
 20
0.640199999683
 10
2.63750002392
 20
0.639499999684
 10
2.63640999768
 20
0.638839999685
 10
2.63530002392
 20
0.638209973438
 10
2.63416999768
 20
0.637609973439
 10
2.63302002393
 20
0.637039999686
 10
2.63186002393
 20
0.636519999687
 10
2.63068002393
 20
0.636019999687
 10
2.62948002393
 20
0.635569973441
 10
2.62826999768
 20
0.635149973441
 10
2.62704999768
 20
0.634759999688
 10
2.62582002393
 20
0.634419999689
 10
2.62458002393
 20
0.634109973442
 10
2.62332999769
 20
0.633839999689
 10
2.62206999769
 20
0.633609973443
 10
2.62080999769
 20
0.633419999689
 10
2.61954002394
 20
0.63325999969
 10
2.61826999769
 20
0.633149973443
 10
2.61698999769
 20
0.633069973443
 10
2.61570999769
 20
0.633029973443
  0
LWPOLYLINE
  5
24D
330
10
100
AcDbEntity
  8
TRACTOR_PLC
  6
BYLAYER
370
   211
 62
   256
100
AcDbPolyline
 90
     2
 70
     0
 43
0.00499999999556
 10
2.61572002394
 20
0.633029973443
 10
2.48382999781
 20
0.633029973443
  0
LWPOLYLINE
  5
24E
330
10
100
AcDbEntity
  8
TRACTOR_PLC
  6
BYLAYER
370
   211
 62
   256
100
AcDbPolyline
 90
   104
 70
     0
 43
0.00499999999556
 10
2.48382002406
 20
0.633029973443
 10
2.48254002406
 20
0.63303999969
 10
2.48126002406
 20
0.63307999969
 10
2.47998999781
 20
0.63315999969
 10
2.47870999782
 20
0.633269973443
 10
2.47744002406
 20
0.633429973443
 10
2.47618002406
 20
0.633629973443
 10
2.47492002407
 20
0.633859999689
 10
2.47366999782
 20
0.634129973442
 10
2.47242999782
 20
0.634439999689
 10
2.47120002407
 20
0.634789973442
 10
2.46998002407
 20
0.635179999688
 10
2.46878002407
 20
0.635599999688
 10
2.46758002407
 20
0.636059999687
 10
2.46640002407
 20
0.63654997344
 10
2.46524002407
 20
0.637089973439
 10
2.46408999783
 20
0.637649973439
 10
2.46296002408
 20
0.638249973438
 10
2.46184999783
 20
0.638889973438
 10
2.46076002408
 20
0.639559999684
 10
2.45970002408
 20
0.640259999683
 10
2.45864999783
 20
0.640989973436
 10
2.45762002408
 20
0.641759999682
 10
2.45662002408
 20
0.642549973435
 10
2.45564999784
 20
0.643379999681
 10
2.45470002408
 20
0.64423999968
 10
2.45376999784
 20
0.645119999679
 10
2.45288002409
 20
0.646029973432
 10
2.45200999784
 20
0.646969973431
 10
2.45116999784
 20
0.647939999677
 10
2.45036002409
 20
0.648929973429
 10
2.44958002409
 20
0.649939999675
 10
2.44882999784
 20
0.650979999674
 10
2.44812002409
 20
0.652039999673
 10
2.44744002409
 20
0.653119999672
 10
2.44678999784
 20
0.654219999671
 10
2.44616999784
 20
0.65533999967
 10
2.44558999784
 20
0.656479999669
 10
2.44504002409
 20
0.657639999668
 10
2.44452999785
 20
0.65880997342
 10
2.44406002409
 20
0.659999999666
 10
2.44362002409
 20
0.661199999665
 10
2.44322002409
 20
0.662419999664
 10
2.44286002409
 20
0.663639999663
 10
2.44252999785
 20
0.664879999662
 10
2.44224002409
 20
0.66611999966
 10
2.44198999785
 20
0.667379999659
 10
2.44178002409
 20
0.668639999658
 10
2.44160999785
 20
0.66990997341
 10
2.44146999785
 20
0.671179999656
 10
2.4413800241
 20
0.672449973408
 10
2.4413200241
 20
0.673729973407
 10
2.4413000241
 20
0.675009973406
 10
2.4413200241
 20
0.676289973405
 10
2.4413800241
 20
0.677569973404
 10
2.4414800241
 20
0.678839999649
 10
2.4416200241
 20
0.680109973401
 10
2.44178999785
 20
0.681379999647
 10
2.44200999785
 20
0.682639999646
 10
2.44226002409
 20
0.683889973398
 10
2.44254999785
 20
0.685139999644
 10
2.44288002409
 20
0.686369973396
 10
2.44324999785
 20
0.687599999641
 10
2.44364999785
 20
0.688809973394
 10
2.44408999785
 20
0.690009973392
 10
2.44456999785
 20
0.691199999638
 10
2.44508999785
 20
0.69236997339
 10
2.44562999784
 20
0.693529973389
 10
2.44622002409
 20
0.694659999635
 10
2.44684002409
 20
0.695779999634
 10
2.44748999784
 20
0.696879999633
 10
2.44816999784
 20
0.697959999632
 10
2.44888999784
 20
0.699019999631
 10
2.44964002409
 20
0.70005999963
 10
2.45042002409
 20
0.701069973383
 10
2.45122999784
 20
0.702059999629
 10
2.45206999784
 20
0.703019999628
 10
2.45294002409
 20
0.703959999627
 10
2.45384002408
 20
0.704869973379
 10
2.45476999784
 20
0.705749973379
 10
2.45572002408
 20
0.706599999624
 10
2.45670002408
 20
0.707429973377
 10
2.45770002408
 20
0.708219999623
 10
2.45872999783
 20
0.708989973376
 10
2.45978002408
 20
0.709719999622
 10
2.46084999783
 20
0.710419999621
 10
2.46194002408
 20
0.711079999621
 10
2.46304999783
 20
0.711709973373
 10
2.46418002408
 20
0.712309973373
 10
2.46532999783
 20
0.712879999619
 10
2.46648999783
 20
0.713399999618
 10
2.46766999783
 20
0.713899999618
 10
2.46886999782
 20
0.714349973371
 10
2.47008002407
 20
0.714769973371
 10
2.47130002407
 20
0.715159999617
 10
2.47252999782
 20
0.715499999617
 10
2.47376999782
 20
0.71580997337
 10
2.47502002407
 20
0.716079999616
 10
2.47628002406
 20
0.716309973369
 10
2.47754002406
 20
0.716499999616
 10
2.47880999782
 20
0.716659999616
 10
2.48008002406
 20
0.716769973369
 10
2.48136002406
 20
0.716849973369
 10
2.48264002406
 20
0.716889973369
  0
LWPOLYLINE
  5
24F
330
10
100
AcDbEntity
  8
TRACTOR_PLC
  6
BYLAYER
370
   211
 62
   256
100
AcDbPolyline
 90
     2
 70
     0
 43
0.00499999999556
 10
2.23426002428
 20
0.707619999624
 10
2.23426002428
 20
0.54269999977
  0
LWPOLYLINE
  5
250
330
10
100
AcDbEntity
  8
TRACTOR_PLC
  6
BYLAYER
370
   211
 62
   256
100
AcDbPolyline
 90
     2
 70
     0
 43
0.00499999999556
 10
2.17926002433
 20
0.536429973529
 10
2.17926002433
 20
0.520629973543
  0
LWPOLYLINE
  5
251
330
10
100
AcDbEntity
  8
TRACTOR_PLC
  6
BYLAYER
370
   211
 62
   256
100
AcDbPolyline
 90
     2
 70
     0
 43
0.00499999999556
 10
2.17926002433
 20
0.61388997346
 10
2.17926002433
 20
0.63642997344
  0
LWPOLYLINE
  5
252
330
10
100
AcDbEntity
  8
TRACTOR_PLC
  6
BYLAYER
370
   211
 62
   256
100
AcDbPolyline
 90
    25
 70
     0
 43
0.00499999999556
 10
2.23426002428
 20
0.54269999977
 10
2.23226999803
 20
0.541169973525
 10
2.23024999804
 20
0.539689973526
 10
2.22820002428
 20
0.538259999774
 10
2.22610999804
 20
0.536879999775
 10
2.22398999804
 20
0.53554997353
 10
2.22184002429
 20
0.534269973531
 10
2.21966002429
 20
0.533049973532
 10
2.21744999805
 20
0.531869973533
 10
2.21520999805
 20
0.530749973534
 10
2.21294999805
 20
0.529679999782
 10
2.2106600243
 20
0.528669973536
 10
2.20834999806
 20
0.527709973537
 10
2.20600999806
 20
0.526799999784
 10
2.20366002431
 20
0.525949973538
 10
2.20128002431
 20
0.525159999786
 10
2.19888999806
 20
0.52442997354
 10
2.19648002431
 20
0.52374997354
 10
2.19406002431
 20
0.523129973541
 10
2.19162002432
 20
0.522569973541
 10
2.18916002432
 20
0.522059999788
 10
2.18670002432
 20
0.521619999789
 10
2.18422999808
 20
0.521229973542
 10
2.18174999808
 20
0.520909973543
 10
2.17926002433
 20
0.52063999979
  0
LWPOLYLINE
  5
253
330
10
100
AcDbEntity
  8
TRACTOR_PLC
  6
BYLAYER
370
   211
 62
   256
100
AcDbPolyline
 90
    81
 70
     0
 43
0.00499999999556
 10
2.06892999818
 20
0.656119999669
 10
2.06970999818
 20
0.658539999667
 10
2.07054999818
 20
0.660939999665
 10
2.07144002442
 20
0.663319999663
 10
2.07240002442
 20
0.665679999661
 10
2.07340999818
 20
0.668019999659
 10
2.07446999817
 20
0.67032997341
 10
2.07560002442
 20
0.672609973408
 10
2.07676999817
 20
0.674869973406
 10
2.07800002442
 20
0.677099999651
 10
2.07928999817
 20
0.679289973402
 10
2.08062999817
 20
0.681459999647
 10
2.08202002441
 20
0.683589973398
 10
2.08346002441
 20
0.685689973396
 10
2.08494999817
 20
0.687749973395
 10
2.08648999816
 20
0.689769973393
 10
2.08808002441
 20
0.691759999638
 10
2.08972002441
 20
0.693709973389
 10
2.09140999816
 20
0.695619999634
 10
2.0931400244
 20
0.697479999633
 10
2.09490999816
 20
0.699309973384
 10
2.09672999815
 20
0.701089973383
 10
2.09858999815
 20
0.702819999628
 10
2.1005000244
 20
0.70450997338
 10
2.1024400244
 20
0.706149973378
 10
2.10442002439
 20
0.707749973377
 10
2.10644002439
 20
0.709299999622
 10
2.10850002439
 20
0.710789973374
 10
2.11058999814
 20
0.712239999619
 10
2.11272002439
 20
0.713639999618
 10
2.11488002439
 20
0.714979999617
 10
2.11708002438
 20
0.716269973369
 10
2.11930002438
 20
0.717509973368
 10
2.12154999813
 20
0.718699999614
 10
2.12382999813
 20
0.719819999613
 10
2.12614002438
 20
0.720899999612
 10
2.12846999813
 20
0.721909973364
 10
2.13082999812
 20
0.722869973363
 10
2.13320999812
 20
0.723779999609
 10
2.13560999812
 20
0.724619999608
 10
2.13802999812
 20
0.725409973361
 10
2.14046999812
 20
0.726139999607
 10
2.14292999811
 20
0.726799999607
 10
2.14540002436
 20
0.727409973359
 10
2.14788002436
 20
0.727959999606
 10
2.15038002435
 20
0.728449973358
 10
2.1528899981
 20
0.728879999605
 10
2.1554099981
 20
0.729239999604
 10
2.1579299981
 20
0.729549973357
 10
2.1604699981
 20
0.729789973357
 10
2.16300002434
 20
0.729969973357
 10
2.16554999809
 20
0.730089973357
 10
2.16808999809
 20
0.730149973357
 10
2.17064002434
 20
0.730149973357
 10
2.17318002433
 20
0.730089973357
 10
2.17572002433
 20
0.729959999604
 10
2.17826002433
 20
0.729769973357
 10
2.18078999808
 20
0.729519999604
 10
2.18332002432
 20
0.729209973358
 10
2.18584002432
 20
0.728839999605
 10
2.18834002432
 20
0.728409973358
 10
2.19084002432
 20
0.727919999606
 10
2.19332999807
 20
0.727369973359
 10
2.19580002431
 20
0.72674997336
 10
2.19824999806
 20
0.726079999607
 10
2.20068999806
 20
0.725349973361
 10
2.20310999806
 20
0.724559999609
 10
2.2055000243
 20
0.723709973363
 10
2.2078800243
 20
0.72279999961
 10
2.2102400243
 20
0.721829973364
 10
2.21256999805
 20
0.720809973365
 10
2.21486999805
 20
0.719729973366
 10
2.21714999805
 20
0.718599999614
 10
2.21940002429
 20
0.717409973368
 10
2.22162002429
 20
0.716169973369
 10
2.22380999804
 20
0.714879999617
 10
2.22596999804
 20
0.713529973372
 10
2.22810002428
 20
0.712129973373
 10
2.23018999804
 20
0.710669973374
 10
2.23224002428
 20
0.709169973375
 10
2.23426002428
 20
0.707619999624
  0
LWPOLYLINE
  5
254
330
10
100
AcDbEntity
  8
TRACTOR_PLC
  6
BYLAYER
370
   211
 62
   256
100
AcDbPolyline
 90
     2
 70
     0
 43
0.00499999999556
 10
2.17926002433
 20
0.713889973371
 10
2.17926002433
 20
0.729679999604
  0
LWPOLYLINE
  5
255
330
10
100
AcDbEntity
  8
TRACTOR_PLC
  6
BYLAYER
370
   211
 62
   256
100
AcDbPolyline
 90
    57
 70
     0
 43
0.00499999999556
 10
2.06892999818
 20
0.594199999724
 10
2.06970999818
 20
0.591759999726
 10
2.07056002442
 20
0.589339999729
 10
2.07146002442
 20
0.586949973484
 10
2.07242002442
 20
0.584569973486
 10
2.07344002442
 20
0.582219999735
 10
2.07452002442
 20
0.57988997349
 10
2.07564999817
 20
0.577589973492
 10
2.07684002442
 20
0.575319999741
 10
2.07808002442
 20
0.573079999743
 10
2.07938002442
 20
0.570869973498
 10
2.08072999817
 20
0.568699999747
 10
2.08214002441
 20
0.566549973502
 10
2.08360002441
 20
0.564439999751
 10
2.08510002441
 20
0.562369973506
 10
2.08666002441
 20
0.560339999754
 10
2.08826999816
 20
0.558339999756
 10
2.08992002441
 20
0.556379999758
 10
2.09162002441
 20
0.554469973513
 10
2.09336999816
 20
0.552589973515
 10
2.09516999816
 20
0.550759999763
 10
2.0970000244
 20
0.548979999764
 10
2.09888999815
 20
0.547229973519
 10
2.10080999815
 20
0.545539999767
 10
2.10276999815
 20
0.543889973522
 10
2.10478002439
 20
0.542289973524
 10
2.10682002439
 20
0.540749973525
 10
2.10890002439
 20
0.539249973526
 10
2.11100999814
 20
0.537799999774
 10
2.11316002439
 20
0.536399999776
 10
2.11534002438
 20
0.535059999777
 10
2.11756002438
 20
0.533769973531
 10
2.11980002438
 20
0.532539999779
 10
2.12208002438
 20
0.53135999978
 10
2.12438002438
 20
0.530229973534
 10
2.12670999813
 20
0.529169973535
 10
2.12906999813
 20
0.528159999783
 10
2.13144999812
 20
0.527199999784
 10
2.13384999812
 20
0.526309973538
 10
2.13626999812
 20
0.525479999785
 10
2.13872002436
 20
0.524699999786
 10
2.14118002436
 20
0.52398997354
 10
2.14366002436
 20
0.52332997354
 10
2.14614999811
 20
0.522739999788
 10
2.14864999811
 20
0.522199999788
 10
2.15116999811
 20
0.521729973542
 10
2.15370002435
 20
0.521319999789
 10
2.15624002435
 20
0.520969973543
 10
2.1587899981
 20
0.52067999979
 10
2.16134002434
 20
0.52045999979
 10
2.16390002434
 20
0.52029999979
 10
2.16646002434
 20
0.52019999979
 10
2.16902002434
 20
0.52015999979
 10
2.17158999809
 20
0.520189973543
 10
2.17414999809
 20
0.520269973543
 10
2.17670999808
 20
0.52041999979
 10
2.17926002433
 20
0.52063999979
  0
LWPOLYLINE
  5
256
330
10
100
AcDbEntity
  8
TRACTOR_PLC
  6
BYLAYER
370
   211
 62
   256
100
AcDbPolyline
 90
   105
 70
     0
 43
0.00499999999556
 10
2.48618999781
 20
0.855869973245
 10
2.61808002394
 20
0.855869973245
 10
2.61936002394
 20
0.855909973245
 10
2.62064002394
 20
0.855989973245
 10
2.62190999769
 20
0.856099999492
 10
2.62318002393
 20
0.856259999492
 10
2.62444002393
 20
0.856449973245
 10
2.62570002393
 20
0.856679999491
 10
2.62694999768
 20
0.856949973244
 10
2.62818999768
 20
0.857259999491
 10
2.62942002393
 20
0.85759999949
 10
2.63064002393
 20
0.857989973243
 10
2.63184999768
 20
0.858409973243
 10
2.63304999768
 20
0.858859999489
 10
2.63422999768
 20
0.859359999489
 10
2.63538999768
 20
0.859879999488
 10
2.63654002392
 20
0.860449973241
 10
2.63766999767
 20
0.861049973241
 10
2.63878002392
 20
0.861679999487
 10
2.63986999767
 20
0.862339999486
 10
2.64094002392
 20
0.863039999486
 10
2.64198999767
 20
0.863769973238
 10
2.64302002392
 20
0.864539999484
 10
2.64402002392
 20
0.865329973237
 10
2.64500002391
 20
0.866159999483
 10
2.64594999767
 20
0.867009973235
 10
2.64688002391
 20
0.867889973235
 10
2.64778002391
 20
0.86879999948
 10
2.64864999766
 20
0.86973999948
 10
2.64948999766
 20
0.870699999479
 10
2.65030002391
 20
0.871689973231
 10
2.65108002391
 20
0.872699999477
 10
2.65182999766
 20
0.873739999476
 10
2.65254999766
 20
0.874799999475
 10
2.65322999766
 20
0.875879999474
 10
2.65388002391
 20
0.876979999473
 10
2.65450002391
 20
0.878099999472
 10
2.65508999766
 20
0.879229973225
 10
2.65562999766
 20
0.880389973223
 10
2.65614999766
 20
0.881559999469
 10
2.65662999766
 20
0.882749973221
 10
2.65706999766
 20
0.88394997322
 10
2.65746999766
 20
0.885159999466
 10
2.6578400239
 20
0.886389973218
 10
2.65816999766
 20
0.887619999464
 10
2.6584600239
 20
0.888869973216
 10
2.65870999766
 20
0.890119999462
 10
2.65892999766
 20
0.89137999946
 10
2.6591000239
 20
0.892649973213
 10
2.6592400239
 20
0.893919999458
 10
2.6593400239
 20
0.89518997321
 10
2.6594000239
 20
0.896469973209
 10
2.6594200239
 20
0.897749973208
 10
2.6594000239
 20
0.899029973207
 10
2.6593400239
 20
0.900309973206
 10
2.65924999766
 20
0.901579999451
 10
2.65910999766
 20
0.902849973204
 10
2.6589400239
 20
0.904119999449
 10
2.65872999766
 20
0.905379999448
 10
2.6584800239
 20
0.906639999447
 10
2.65818999766
 20
0.907879999446
 10
2.6578600239
 20
0.909119999445
 10
2.6575000239
 20
0.910339999444
 10
2.6571000239
 20
0.911559999443
 10
2.6566600239
 20
0.912759999441
 10
2.65618999766
 20
0.913949973194
 10
2.65568002391
 20
0.915119999439
 10
2.65512999766
 20
0.916279999438
 10
2.65454999766
 20
0.917419999437
 10
2.65392999766
 20
0.918539999436
 10
2.65328002391
 20
0.919639999435
 10
2.65260002391
 20
0.920719999434
 10
2.65188999766
 20
0.921779999433
 10
2.65114002391
 20
0.922819999433
 10
2.65036002391
 20
0.923829973185
 10
2.64954999766
 20
0.924819999431
 10
2.64870999766
 20
0.925789973183
 10
2.64784002391
 20
0.926729973182
 10
2.64694999767
 20
0.927639999428
 10
2.64602002391
 20
0.928519999427
 10
2.64506999767
 20
0.929379999427
 10
2.64410002392
 20
0.930209973179
 10
2.64310002392
 20
0.930999999425
 10
2.64206999767
 20
0.931769973178
 10
2.64102002392
 20
0.932499999424
 10
2.63996002392
 20
0.933199999423
 10
2.63886999767
 20
0.933869973176
 10
2.63776002392
 20
0.934509973175
 10
2.63662999768
 20
0.935109973175
 10
2.63548002392
 20
0.935669973174
 10
2.63432002392
 20
0.936209973174
 10
2.63314002393
 20
0.93669999942
 10
2.63194002393
 20
0.93715999942
 10
2.63074002393
 20
0.937579999419
 10
2.62952002393
 20
0.937969973172
 10
2.62828999768
 20
0.938319999419
 10
2.62704999768
 20
0.938629973172
 10
2.62580002393
 20
0.938899999418
 10
2.62454002393
 20
0.939129973171
 10
2.62328002393
 20
0.939329973171
 10
2.62200999769
 20
0.939489973171
 10
2.62072999769
 20
0.939599999418
 10
2.61946002394
 20
0.939679999418
 10
2.61818002394
 20
0.939719999418
 10
2.61690002394
 20
0.939729973171
  0
LWPOLYLINE
  5
257
330
10
100
AcDbEntity
  8
TRACTOR_PLC
  6
BYLAYER
370
   211
 62
   256
100
AcDbPolyline
 90
     2
 70
     0
 43
0.00499999999556
 10
2.61690002394
 20
0.939719999418
 10
2.48500999781
 20
0.939719999418
  0
LWPOLYLINE
  5
258
330
10
100
AcDbEntity
  8
TRACTOR_PLC
  6
BYLAYER
370
   211
 62
   256
100
AcDbPolyline
 90
   104
 70
     0
 43
0.00499999999556
 10
2.48500999781
 20
0.939729973171
 10
2.48372999781
 20
0.939689973171
 10
2.48244999781
 20
0.939609973171
 10
2.48118002406
 20
0.939499999418
 10
2.47990999781
 20
0.939339999418
 10
2.47864999782
 20
0.939149973171
 10
2.47738999782
 20
0.938919999418
 10
2.47614002406
 20
0.938649973172
 10
2.47490002407
 20
0.938339999419
 10
2.47366999782
 20
0.937999999419
 10
2.47244999782
 20
0.937609973173
 10
2.47124002407
 20
0.937189973173
 10
2.47004002407
 20
0.93673999942
 10
2.46886002407
 20
0.936239999421
 10
2.46770002407
 20
0.935719999421
 10
2.46654999783
 20
0.935149973175
 10
2.46542002407
 20
0.934549973175
 10
2.46430999783
 20
0.933919999423
 10
2.46322002408
 20
0.933259999423
 10
2.46214999783
 20
0.932559999424
 10
2.46110002408
 20
0.931829973178
 10
2.46006999783
 20
0.931059999425
 10
2.45906999783
 20
0.930269973179
 10
2.45808999783
 20
0.929439999427
 10
2.45714002408
 20
0.928589973181
 10
2.45620999784
 20
0.927709973181
 10
2.45530999784
 20
0.926799999429
 10
2.45444002408
 20
0.92585999943
 10
2.45360002408
 20
0.924899999431
 10
2.45278999784
 20
0.923909973185
 10
2.45200999784
 20
0.922899999432
 10
2.45126002409
 20
0.921859999433
 10
2.45054002409
 20
0.920799999434
 10
2.44986002409
 20
0.919719999435
 10
2.44920999784
 20
0.918619999436
 10
2.44858999784
 20
0.917499999437
 10
2.44800002409
 20
0.916369973192
 10
2.44746002409
 20
0.915209973193
 10
2.44694002409
 20
0.91403999944
 10
2.44646002409
 20
0.912849973195
 10
2.44602002409
 20
0.911649973196
 10
2.44562002409
 20
0.910439999444
 10
2.44524999785
 20
0.909209973198
 10
2.44492002409
 20
0.907979999446
 10
2.44462999785
 20
0.9067299732
 10
2.44438002409
 20
0.905479999448
 10
2.44416002409
 20
0.904219999449
 10
2.44398999785
 20
0.902949973203
 10
2.44384999785
 20
0.901679999451
 10
2.44374999785
 20
0.900409973206
 10
2.44368999785
 20
0.899129973207
 10
2.44366999785
 20
0.897849973208
 10
2.44368999785
 20
0.896569973209
 10
2.44374999785
 20
0.89528997321
 10
2.44384002409
 20
0.894019999458
 10
2.44398002409
 20
0.892749973213
 10
2.44414999785
 20
0.89147999946
 10
2.44436002409
 20
0.890219999461
 10
2.44460999785
 20
0.888959999463
 10
2.44490002409
 20
0.887719999464
 10
2.44522999785
 20
0.886479999465
 10
2.44558999784
 20
0.885259999466
 10
2.44598999784
 20
0.884039999467
 10
2.44642999784
 20
0.882839999468
 10
2.44690002409
 20
0.881649973222
 10
2.44740999784
 20
0.88047999947
 10
2.44796002409
 20
0.879319999471
 10
2.44854002409
 20
0.878179999472
 10
2.44916002409
 20
0.877059999473
 10
2.44980999784
 20
0.875959999474
 10
2.45048999784
 20
0.874879999475
 10
2.45120002409
 20
0.873819999476
 10
2.45194999784
 20
0.872779999477
 10
2.45272999784
 20
0.871769973231
 10
2.45354002408
 20
0.870779999479
 10
2.45438002408
 20
0.869809973233
 10
2.45524999784
 20
0.868869973234
 10
2.45614002408
 20
0.867959999481
 10
2.45706999783
 20
0.867079999482
 10
2.45802002408
 20
0.866219999483
 10
2.45898999783
 20
0.865389973237
 10
2.45998999783
 20
0.864599999484
 10
2.46102002408
 20
0.863829973238
 10
2.46206999783
 20
0.863099999486
 10
2.46312999783
 20
0.862399999486
 10
2.46422002408
 20
0.86172997324
 10
2.46532999783
 20
0.861089973241
 10
2.46646002407
 20
0.860489973241
 10
2.46760999783
 20
0.859929973242
 10
2.46876999782
 20
0.859389973242
 10
2.46994999782
 20
0.858899999489
 10
2.47114999782
 20
0.85843999949
 10
2.47234999782
 20
0.85801999949
 10
2.47356999782
 20
0.857629973244
 10
2.47480002407
 20
0.857279999491
 10
2.47604002406
 20
0.856969973244
 10
2.47728999782
 20
0.856699999491
 10
2.47854999782
 20
0.856469973245
 10
2.47980999781
 20
0.856269973245
 10
2.48108002406
 20
0.856109973245
 10
2.48236002406
 20
0.855999999492
 10
2.48362999781
 20
0.855919999492
 10
2.48490999781
 20
0.855879999492
 10
2.48618999781
 20
0.855869973245
  0
LWPOLYLINE
  5
259
330
10
100
AcDbEntity
  8
TRACTOR_PLC
  6
BYLAYER
370
   211
 62
   256
100
AcDbPolyline
 90
   209
 70
     0
 43
0.00499999999556
 10
2.48422002406
 20
1.10389999927
 10
2.61610999769
 20
1.10389999927
 10
2.61738999769
 20
1.10393999927
 10
2.61866999769
 20
1.10401999927
 10
2.61994002394
 20
1.10412997302
 10
2.62120999769
 20
1.10428997302
 10
2.62246999769
 20
1.10447999927
 10
2.62372999769
 20
1.10470997302
 10
2.62498002393
 20
1.10497999927
 10
2.62622002393
 20
1.10528997302
 10
2.62744999768
 20
1.10562997302
 10
2.62866999768
 20
1.10601999927
 10
2.62988002393
 20
1.10643999927
 10
2.63108002393
 20
1.10688997302
 10
2.63226002393
 20
1.10738997302
 10
2.63342002392
 20
1.10790997302
 10
2.63456999768
 20
1.10847999927
 10
2.63570002392
 20
1.10907999927
 10
2.63680999768
 20
1.10970997302
 10
2.63790002392
 20
1.11036997302
 10
2.63896999767
 20
1.11106997302
 10
2.64002002392
 20
1.11179999926
 10
2.64104999767
 20
1.11256997302
 10
2.64204999767
 20
1.11335999926
 10
2.64302999767
 20
1.11418997302
 10
2.64398002392
 20
1.11503999926
 10
2.64490999767
 20
1.11591999926
 10
2.64580999767
 20
1.11682997301
 10
2.64668002391
 20
1.11776997301
 10
2.64752002391
 20
1.11872997301
 10
2.64832999766
 20
1.11971999926
 10
2.64910999766
 20
1.12072997301
 10
2.64986002391
 20
1.12176997301
 10
2.65058002391
 20
1.12282997301
 10
2.65126002391
 20
1.12390997301
 10
2.65190999766
 20
1.12500997301
 10
2.65252999766
 20
1.12612997301
 10
2.65312002391
 20
1.12725999925
 10
2.65366002391
 20
1.12841999925
 10
2.65418002391
 20
1.129589973
 10
2.65466002391
 20
1.13077999925
 10
2.65510002391
 20
1.13197999925
 10
2.65550002391
 20
1.133189973
 10
2.65586999766
 20
1.13441999924
 10
2.6562000239
 20
1.135649973
 10
2.65648999766
 20
1.13689999924
 10
2.6567400239
 20
1.13814997299
 10
2.6569600239
 20
1.13940997299
 10
2.65712999766
 20
1.14067999924
 10
2.65726999766
 20
1.14194997299
 10
2.65736999766
 20
1.14321999924
 10
2.65742999766
 20
1.14449999924
 10
2.65744999766
 20
1.14577999923
 10
2.65742999766
 20
1.14705999923
 10
2.65736999766
 20
1.14833999923
 10
2.6572800239
 20
1.14960997298
 10
2.6571400239
 20
1.15087999923
 10
2.65696999766
 20
1.15214997298
 10
2.6567600239
 20
1.15340997298
 10
2.65650999766
 20
1.15466997298
 10
2.6562200239
 20
1.15590997298
 10
2.65588999766
 20
1.15714997298
 10
2.65552999766
 20
1.15836997298
 10
2.65512999766
 20
1.15958997298
 10
2.65468999766
 20
1.16078997297
 10
2.65422002391
 20
1.16197999922
 10
2.65370999766
 20
1.16314997297
 10
2.65316002391
 20
1.16430997297
 10
2.65258002391
 20
1.16544997297
 10
2.65196002391
 20
1.16656997297
 10
2.65130999766
 20
1.16766997297
 10
2.65062999766
 20
1.16874997297
 10
2.64992002391
 20
1.16980997297
 10
2.64916999766
 20
1.17084997297
 10
2.64838999766
 20
1.17185999921
 10
2.64758002391
 20
1.17284997296
 10
2.64674002391
 20
1.17381999921
 10
2.64586999767
 20
1.17475999921
 10
2.64498002391
 20
1.17566997296
 10
2.64404999767
 20
1.17654997296
 10
2.64310002392
 20
1.17740997296
 10
2.64212999767
 20
1.17823999921
 10
2.64112999767
 20
1.17902997296
 10
2.64010002392
 20
1.1797999992
 10
2.63904999767
 20
1.18052997296
 10
2.63798999767
 20
1.18122997296
 10
2.63690002392
 20
1.1818999992
 10
2.63578999768
 20
1.1825399992
 10
2.63466002392
 20
1.1831399992
 10
2.63350999768
 20
1.1836999992
 10
2.63234999768
 20
1.1842399992
 10
2.63116999768
 20
1.18472997295
 10
2.62996999768
 20
1.18518997295
 10
2.62876999768
 20
1.18560997295
 10
2.62754999768
 20
1.1859999992
 10
2.62632002393
 20
1.18634997295
 10
2.62508002393
 20
1.1866599992
 10
2.62382999769
 20
1.18692997295
 10
2.62256999769
 20
1.1871599992
 10
2.62130999769
 20
1.1873599992
 10
2.62004002394
 20
1.1875199992
 10
2.61876002394
 20
1.18762997295
 10
2.61748999769
 20
1.18770997295
 10
2.61620999769
 20
1.18774997295
 10
2.61492999769
 20
1.1877599992
 10
2.48304002406
 20
1.1877599992
 10
2.48176002406
 20
1.1877199992
 10
2.48048002406
 20
1.1876399992
 10
2.47920999782
 20
1.18752997295
 10
2.47794002406
 20
1.18736997295
 10
2.47668002406
 20
1.1871799992
 10
2.47542002407
 20
1.18694997295
 10
2.47416999782
 20
1.1866799992
 10
2.47292999782
 20
1.18636997295
 10
2.47170002407
 20
1.18602997295
 10
2.47048002407
 20
1.1856399992
 10
2.46926999782
 20
1.1852199992
 10
2.46806999782
 20
1.18476997295
 10
2.46688999783
 20
1.18426997295
 10
2.46572999783
 20
1.18374997295
 10
2.46458002407
 20
1.1831799992
 10
2.46344999783
 20
1.1825799992
 10
2.46234002408
 20
1.18194997296
 10
2.46124999783
 20
1.18128997296
 10
2.46018002408
 20
1.18058997296
 10
2.45912999783
 20
1.1798599992
 10
2.45810002408
 20
1.17908997296
 10
2.45710002408
 20
1.17829999921
 10
2.45612002408
 20
1.17746997296
 10
2.45516999784
 20
1.17661999921
 10
2.45424002408
 20
1.17573999921
 10
2.45334002408
 20
1.17482997296
 10
2.45246999784
 20
1.17388997296
 10
2.45162999784
 20
1.17292997296
 10
2.45082002409
 20
1.17193999921
 10
2.45004002409
 20
1.17092997297
 10
2.44928999784
 20
1.16988997297
 10
2.44856999784
 20
1.16882997297
 10
2.44788999784
 20
1.16774997297
 10
2.44724002409
 20
1.16664997297
 10
2.44662002409
 20
1.16552997297
 10
2.44602999784
 20
1.16439999922
 10
2.44548999784
 20
1.16323999922
 10
2.44496999785
 20
1.16206997297
 10
2.44448999785
 20
1.16087999922
 10
2.44404999785
 20
1.15967999922
 10
2.44364999785
 20
1.15846997298
 10
2.44328002409
 20
1.15723999922
 10
2.44294999785
 20
1.15600997298
 10
2.44266002409
 20
1.15475999923
 10
2.44240999785
 20
1.15350997298
 10
2.44218999785
 20
1.15224997298
 10
2.44202002409
 20
1.15097999923
 10
2.44188002409
 20
1.14970997298
 10
2.44178002409
 20
1.14843999923
 10
2.4417200241
 20
1.14715999923
 10
2.4417000241
 20
1.14587999923
 10
2.4417200241
 20
1.14459999924
 10
2.44178002409
 20
1.14331999924
 10
2.44186999785
 20
1.14204997299
 10
2.44200999785
 20
1.14077999924
 10
2.44218002409
 20
1.13950997299
 10
2.44238999785
 20
1.13824997299
 10
2.44264002409
 20
1.136989973
 10
2.44292999785
 20
1.135749973
 10
2.44326002409
 20
1.134509973
 10
2.44362002409
 20
1.133289973
 10
2.44402002409
 20
1.132069973
 10
2.44446002409
 20
1.130869973
 10
2.44492999785
 20
1.12967999925
 10
2.44544002409
 20
1.128509973
 10
2.44598999784
 20
1.127349973
 10
2.44656999784
 20
1.12620997301
 10
2.44718999784
 20
1.12508997301
 10
2.44784002409
 20
1.12398997301
 10
2.44852002409
 20
1.12290997301
 10
2.44922999784
 20
1.12184997301
 10
2.44998002409
 20
1.12080997301
 10
2.45076002409
 20
1.11979999926
 10
2.45156999784
 20
1.11880997301
 10
2.45240999784
 20
1.11783999926
 10
2.45328002408
 20
1.11689999926
 10
2.45416999784
 20
1.11598997301
 10
2.45510002408
 20
1.11510997302
 10
2.45604999784
 20
1.11424997302
 10
2.45702002408
 20
1.11341999926
 10
2.45802002408
 20
1.11262997302
 10
2.45904999783
 20
1.11185999926
 10
2.46010002408
 20
1.11112997302
 10
2.46116002408
 20
1.11042997302
 10
2.46224999783
 20
1.10975999927
 10
2.46336002408
 20
1.10911999927
 10
2.46448999783
 20
1.10851999927
 10
2.46564002407
 20
1.10795999927
 10
2.46680002407
 20
1.10741999927
 10
2.46798002407
 20
1.10692997302
 10
2.46918002407
 20
1.10646997302
 10
2.47038002407
 20
1.10604997302
 10
2.47160002407
 20
1.10565999927
 10
2.47282999782
 20
1.10530997302
 10
2.47406999782
 20
1.10499999927
 10
2.47532002407
 20
1.10472997302
 10
2.47658002406
 20
1.10449999927
 10
2.47784002406
 20
1.10429999927
 10
2.47910999782
 20
1.10413999927
 10
2.48038999781
 20
1.10402997302
 10
2.48166002406
 20
1.10394997302
 10
2.48294002406
 20
1.10390997303
 10
2.48422002406
 20
1.10389999927
  0
LWPOLYLINE
  5
25A
330
10
100
AcDbEntity
  8
TRACTOR_PLC
  6
BYLAYER
370
   211
 62
   256
100
AcDbPolyline
 90
     3
 70
     0
 43
0.00499999999556
 10
2.7213299976
 20
1.30311999909
 10
2.7213299976
 20
1.32186997283
 10
2.69006999763
 20
1.32186997283
  0
LWPOLYLINE
  5
25B
330
10
100
AcDbEntity
  8
TRACTOR_PLC
  6
BYLAYER
370
   211
 62
   256
100
AcDbPolyline
 90
     2
 70
     0
 43
0.00499999999556
 10
2.7213299976
 20
1.32186997283
 10
2.7213299976
 20
1.34061999906
  0
LWPOLYLINE
  5
25C
330
10
100
AcDbEntity
  8
TRACTOR_PLC
  6
BYLAYER
370
   211
 62
   256
100
AcDbPolyline
 90
     4
 70
     0
 43
0.00499999999556
 10
2.7213299976
 20
1.32186997283
 10
2.74632999758
 20
1.34061999906
 10
2.74632999758
 20
1.32186997283
 10
2.7775800238
 20
1.32186997283
  0
LWPOLYLINE
  5
25D
330
10
100
AcDbEntity
  8
TRACTOR_PLC
  6
BYLAYER
370
   211
 62
   256
100
AcDbPolyline
 90
     3
 70
     0
 43
0.00499999999556
 10
2.74632999758
 20
1.32186997283
 10
2.74632999758
 20
1.30311999909
 10
2.7213299976
 20
1.32186997283
  0
LWPOLYLINE
  5
25E
330
10
100
AcDbEntity
  8
TRACTOR_PLC
  6
BYLAYER
370
   211
 62
   256
100
AcDbPolyline
 90
     2
 70
     0
 43
0.00499999999556
 10
1.05116999908
 20
0.511419999798
 10
1.03616002534
 20
0.496409973564
  0
LWPOLYLINE
  5
25F
330
10
100
AcDbEntity
  8
TRACTOR_PLC
  6
BYLAYER
370
   211
 62
   256
100
AcDbPolyline
 90
     2
 70
     0
 43
0.00499999999556
 10
1.03616002534
 20
0.503909973558
 10
1.03616002534
 20
0.481389973578
  0
LWPOLYLINE
  5
260
330
10
100
AcDbEntity
  8
TRACTOR_PLC
  6
BYLAYER
370
   211
 62
   256
100
AcDbPolyline
 90
     6
 70
     0
 43
0.00499999999556
 10
1.05116999908
 20
0.481389973578
 10
1.00612999912
 20
0.481389973578
 10
1.00612999912
 20
0.503909973558
 10
1.01364002536
 20
0.511419999798
 10
1.0286499991
 20
0.511419999798
 10
1.03616002534
 20
0.503909973558
  0
LWPOLYLINE
  5
261
330
10
100
AcDbEntity
  8
TRACTOR_PLC
  6
BYLAYER
370
   211
 62
   256
100
AcDbPolyline
 90
     3
 70
     0
 43
0.00499999999556
 10
1.05116999908
 20
0.465379999839
 10
1.05116999908
 20
0.435349973619
 10
1.00612999912
 20
0.435349973619
  0
LWPOLYLINE
  5
262
330
10
100
AcDbEntity
  8
TRACTOR_PLC
  6
BYLAYER
370
   211
 62
   256
100
AcDbPolyline
 90
     8
 70
     0
 43
0.00499999999556
 10
1.01364002536
 20
0.41933999988
 10
1.00612999912
 20
0.411829973639
 10
1.00612999912
 20
0.3968199999
 10
1.01364002536
 20
0.389309973659
 10
1.04366002534
 20
0.389309973659
 10
1.05116999908
 20
0.3968199999
 10
1.05116999908
 20
0.411829973639
 10
1.04366002534
 20
0.41933999988
  0
LWPOLYLINE
  5
263
330
10
100
AcDbEntity
  8
TRACTOR_PLC
  6
BYLAYER
370
   211
 62
   256
100
AcDbPolyline
 90
     3
 70
     0
 43
0.00499999999556
 10
0.950380025419
 20
0.403929973646
 10
0.935369999186
 20
0.388919999907
 10
0.905340025459
 20
0.388919999907
  0
LWPOLYLINE
  5
264
330
10
100
AcDbEntity
  8
TRACTOR_PLC
  6
BYLAYER
370
   211
 62
   256
100
AcDbPolyline
 90
     2
 70
     0
 43
0.00499999999556
 10
0.935369999186
 20
0.418949973633
 10
0.950380025419
 20
0.403929973646
  0
LWPOLYLINE
  5
265
330
10
100
AcDbEntity
  8
TRACTOR_PLC
  6
BYLAYER
370
   211
 62
   256
100
AcDbPolyline
 90
     2
 70
     0
 43
0.00499999999556
 10
0.935369999186
 20
0.418949973633
 10
0.905340025459
 20
0.418949973633
  0
LWPOLYLINE
  5
266
330
10
100
AcDbEntity
  8
TRACTOR_PLC
  6
BYLAYER
370
   211
 62
   256
100
AcDbPolyline
 90
     5
 70
     0
 43
0.00499999999556
 10
0.912849999206
 20
0.434959999866
 10
0.942880025426
 20
0.434959999866
 10
0.950380025419
 20
0.442469973612
 10
0.950380025419
 20
0.457479999846
 10
0.942880025426
 20
0.464989973592
  0
LWPOLYLINE
  5
267
330
10
100
AcDbEntity
  8
TRACTOR_PLC
  6
BYLAYER
370
   211
 62
   256
100
AcDbPolyline
 90
     5
 70
     0
 43
0.00499999999556
 10
0.942880025426
 20
0.480999999825
 10
0.912849999206
 20
0.480999999825
 10
0.905340025459
 20
0.488509973571
 10
0.905340025459
 20
0.503519999805
 10
0.912849999206
 20
0.511019999798
  0
LWPOLYLINE
  5
268
330
10
100
AcDbEntity
  8
TRACTOR_PLC
  6
BYLAYER
370
   211
 62
   256
100
AcDbPolyline
 90
     4
 70
     0
 43
0.00499999999556
 10
0.942880025426
 20
0.511019999798
 10
0.950380025419
 20
0.503519999805
 10
0.950380025419
 20
0.488509973571
 10
0.942880025426
 20
0.480999999825
  0
LWPOLYLINE
  5
269
330
10
100
AcDbEntity
  8
TRACTOR_PLC
  6
BYLAYER
370
   211
 62
   256
100
AcDbPolyline
 90
     4
 70
     0
 43
0.00499999999556
 10
0.912849999206
 20
0.464989973592
 10
0.905340025459
 20
0.457479999846
 10
0.905340025459
 20
0.442469973612
 10
0.912849999206
 20
0.434959999866
  0
LWPOLYLINE
  5
26A
330
10
100
AcDbEntity
  8
TRACTOR_PLC
  6
BYLAYER
370
   211
 62
   256
100
AcDbPolyline
 90
     4
 70
     0
 43
0.00499999999556
 10
0.851560025507
 20
0.434959999866
 10
0.806520025547
 20
0.434959999866
 10
0.851560025507
 20
0.464989973592
 10
0.806520025547
 20
0.464989973592
  0
LWPOLYLINE
  5
26B
330
10
100
AcDbEntity
  8
TRACTOR_PLC
  6
BYLAYER
370
   211
 62
   256
100
AcDbPolyline
 90
     7
 70
     0
 43
0.00499999999556
 10
0.806520025547
 20
0.480999999825
 10
0.806520025547
 20
0.503519999805
 10
0.814029999293
 20
0.511019999798
 10
0.844060025513
 20
0.511019999798
 10
0.851560025507
 20
0.503519999805
 10
0.851560025507
 20
0.480999999825
 10
0.806520025547
 20
0.480999999825
  0
LWPOLYLINE
  5
26C
330
10
100
AcDbEntity
  8
TRACTOR_PLC
  6
BYLAYER
370
   211
 62
   256
100
AcDbPolyline
 90
     2
 70
     0
 43
0.00499999999556
 10
0.751560025596
 20
0.494829973566
 10
0.706520025636
 20
0.494829973566
  0
LWPOLYLINE
  5
26D
330
10
100
AcDbEntity
  8
TRACTOR_PLC
  6
BYLAYER
370
   211
 62
   256
100
AcDbPolyline
 90
     2
 70
     0
 43
0.00499999999556
 10
0.706520025636
 20
0.479819999826
 10
0.706520025636
 20
0.509839999799
  0
LWPOLYLINE
  5
26E
330
10
100
AcDbEntity
  8
TRACTOR_PLC
  6
BYLAYER
370
   211
 62
   256
100
AcDbPolyline
 90
     2
 70
     0
 43
0.00499999999556
 10
0.649200025686
 20
0.510629973552
 10
0.626680025706
 20
0.488109973572
  0
LWPOLYLINE
  5
26F
330
10
100
AcDbEntity
  8
TRACTOR_PLC
  6
BYLAYER
370
   211
 62
   256
100
AcDbPolyline
 90
     2
 70
     0
 43
0.00499999999556
 10
0.634189999453
 20
0.480609973578
 10
0.604160025726
 20
0.510629973552
  0
LWPOLYLINE
  5
270
330
10
100
AcDbEntity
  8
TRACTOR_PLC
  6
BYLAYER
370
   211
 62
   256
100
AcDbPolyline
 90
     2
 70
     0
 43
0.00499999999556
 10
0.604160025726
 20
0.480609973578
 10
0.649200025686
 20
0.480609973578
  0
LWPOLYLINE
  5
271
330
10
100
AcDbEntity
  8
TRACTOR_PLC
  6
BYLAYER
370
   211
 62
   256
100
AcDbPolyline
 90
     3
 70
     0
 43
0.00499999999556
 10
0.649200025686
 20
0.464589973593
 10
0.649200025686
 20
0.434569973619
 10
0.604160025726
 20
0.434569973619
  0
LWPOLYLINE
  5
272
330
10
100
AcDbEntity
  8
TRACTOR_PLC
  6
BYLAYER
370
   211
 62
   256
100
AcDbPolyline
 90
     8
 70
     0
 43
0.00499999999556
 10
0.611669999473
 20
0.418549973634
 10
0.604160025726
 20
0.41104997364
 10
0.604160025726
 20
0.396029973653
 10
0.611669999473
 20
0.38852997366
 10
0.641689999446
 20
0.38852997366
 10
0.649200025686
 20
0.396029973653
 10
0.649200025686
 20
0.41104997364
 10
0.641689999446
 20
0.418549973634
  0
LWPOLYLINE
  5
273
330
10
100
AcDbEntity
  8
TRACTOR_PLC
  6
BYLAYER
370
   211
 62
   256
100
AcDbPolyline
 90
     7
 70
     0
 43
0.00499999999556
 10
0.706520025636
 20
0.410259999888
 10
0.706520025636
 20
0.387739999908
 10
0.751560025596
 20
0.387739999908
 10
0.751560025596
 20
0.410259999888
 10
0.744060025602
 20
0.417759999881
 10
0.714029999382
 20
0.417759999881
 10
0.706520025636
 20
0.410259999888
  0
LWPOLYLINE
  5
274
330
10
100
AcDbEntity
  8
TRACTOR_PLC
  6
BYLAYER
370
   211
 62
   256
100
AcDbPolyline
 90
     4
 70
     0
 43
0.00499999999556
 10
0.721540025622
 20
0.433779999867
 10
0.706520025636
 20
0.448789973607
 10
0.721540025622
 20
0.46379999984
 10
0.751560025596
 20
0.46379999984
  0
LWPOLYLINE
  5
275
330
10
100
AcDbEntity
  8
TRACTOR_PLC
  6
BYLAYER
370
   211
 62
   256
100
AcDbPolyline
 90
     2
 70
     0
 43
0.00499999999556
 10
0.729040025616
 20
0.46379999984
 10
0.729040025616
 20
0.433779999867
  0
LWPOLYLINE
  5
276
330
10
100
AcDbEntity
  8
TRACTOR_PLC
  6
BYLAYER
370
   211
 62
   256
100
AcDbPolyline
 90
     2
 70
     0
 43
0.00499999999556
 10
0.721540025622
 20
0.433779999867
 10
0.751560025596
 20
0.433779999867
  0
LWPOLYLINE
  5
277
330
10
100
AcDbEntity
  8
TRACTOR_PLC
  6
BYLAYER
370
   211
 62
   256
100
AcDbPolyline
 90
     9
 70
     0
 43
0.00499999999556
 10
0.806520025547
 20
0.411439999887
 10
0.806520025547
 20
0.396429973653
 10
0.814029999293
 20
0.388919999907
 10
0.844060025513
 20
0.388919999907
 10
0.851560025507
 20
0.396429973653
 10
0.851560025507
 20
0.411439999887
 10
0.844060025513
 20
0.418949973633
 10
0.829040025527
 20
0.418949973633
 10
0.829040025527
 20
0.403929973646
  0
LWPOLYLINE
  5
278
330
10
100
AcDbEntity
  8
TRACTOR_PLC
  6
BYLAYER
370
   211
 62
   256
100
AcDbPolyline
 90
     2
 70
     0
 43
0.00499999999556
 10
0.814029999293
 20
0.418949973633
 10
0.806520025547
 20
0.411439999887
  0
LWPOLYLINE
  5
279
330
10
100
AcDbEntity
  8
TRACTOR_PLC
  6
BYLAYER
370
   211
 62
   256
100
AcDbPolyline
 90
     5
 70
     0
 43
0.0079999999929
 10
1.97478002451
 20
0.761779999575
 10
2.13894002436
 20
0.761779999575
 10
2.13894002436
 20
1.15377999923
 10
1.97478002451
 20
1.15377999923
 10
1.97478002451
 20
0.761779999575
  0
LWPOLYLINE
  5
27A
330
10
100
AcDbEntity
  8
TRACTOR_PLC
  6
BYLAYER
370
   211
 62
   256
100
AcDbPolyline
 90
   116
 70
     0
 43
0.00399999999645
 10
2.0942600244
 20
0.7938499733
 10
2.0942800244
 20
0.7945699733
 10
2.0943400244
 20
0.795289973299
 10
2.0944400244
 20
0.795999999545
 10
2.09456999816
 20
0.796709973298
 10
2.09474999816
 20
0.797409973297
 10
2.0949600244
 20
0.798099999543
 10
2.09520999816
 20
0.798769973296
 10
2.0955000244
 20
0.799429973295
 10
2.0958200244
 20
0.800079999541
 10
2.0961800244
 20
0.800699999541
 10
2.09656999815
 20
0.801309973294
 10
2.09698999815
 20
0.801889973293
 10
2.09744999815
 20
0.802449973293
 10
2.09792999815
 20
0.802979999539
 10
2.09844999815
 20
0.803489973292
 10
2.09898999815
 20
0.803969973291
 10
2.09954999815
 20
0.804409973291
 10
2.1001400244
 20
0.804829973291
 10
2.10074999815
 20
0.80520997329
 10
2.1013800244
 20
0.805559999537
 10
2.10202999815
 20
0.805879999536
 10
2.1027000244
 20
0.806149973289
 10
2.10336999815
 20
0.806389973289
 10
2.10406999815
 20
0.806599999536
 10
2.10476999815
 20
0.806759999536
 10
2.10548002439
 20
0.806889973289
 10
2.10618999815
 20
0.806979999535
 10
2.10690999815
 20
0.807029973289
 10
2.10762999814
 20
0.807039999535
 10
2.10834999814
 20
0.807009973289
 10
2.10906999814
 20
0.806939999535
 10
2.10978002439
 20
0.806829973289
 10
2.11048999814
 20
0.806689973289
 10
2.11118002439
 20
0.806499999536
 10
2.11186999814
 20
0.806279999536
 10
2.11254002439
 20
0.806019999536
 10
2.11320002439
 20
0.805719999536
 10
2.11384002439
 20
0.80538997329
 10
2.11446002439
 20
0.80502997329
 10
2.11506002439
 20
0.804629973291
 10
2.11562999814
 20
0.804189973291
 10
2.11618999814
 20
0.803729973292
 10
2.11670999814
 20
0.803239999539
 10
2.11720999814
 20
0.802719999539
 10
2.11768002438
 20
0.802169973293
 10
2.11812002438
 20
0.80159999954
 10
2.11852999814
 20
0.801009973294
 10
2.11890002438
 20
0.800389973295
 10
2.11924002438
 20
0.799759999542
 10
2.11954999813
 20
0.799099999542
 10
2.11982002438
 20
0.798439999543
 10
2.12004999813
 20
0.797749973297
 10
2.12024002438
 20
0.797059999544
 10
2.12040002438
 20
0.796359999545
 10
2.12052002438
 20
0.795649973299
 10
2.12060002438
 20
0.794929973299
 10
2.12064002438
 20
0.7942099733
 10
2.12064002438
 20
0.793489973301
 10
2.12060002438
 20
0.792769973301
 10
2.12052002438
 20
0.792049973302
 10
2.12040002438
 20
0.791339999549
 10
2.12024002438
 20
0.79063999955
 10
2.12004999813
 20
0.789949973304
 10
2.11982002438
 20
0.789259999551
 10
2.11954999813
 20
0.788599999552
 10
2.11924002438
 20
0.787939999552
 10
2.11890002438
 20
0.787309973306
 10
2.11852999814
 20
0.786689973307
 10
2.11812002438
 20
0.786099999554
 10
2.11768002438
 20
0.785529973308
 10
2.11720999814
 20
0.784979999555
 10
2.11670999814
 20
0.784459999555
 10
2.11618999814
 20
0.783969973309
 10
2.11562999814
 20
0.783509973309
 10
2.11506002439
 20
0.78306997331
 10
2.11446002439
 20
0.78266997331
 10
2.11384002439
 20
0.782309973311
 10
2.11320002439
 20
0.781979999558
 10
2.11254002439
 20
0.781679999558
 10
2.11186999814
 20
0.781419999558
 10
2.11118002439
 20
0.781199999558
 10
2.11048999814
 20
0.781009973312
 10
2.10978002439
 20
0.780869973312
 10
2.10906999814
 20
0.780759999559
 10
2.10834999814
 20
0.780689973312
 10
2.10762999814
 20
0.780659999559
 10
2.10690999815
 20
0.780669973312
 10
2.10618999815
 20
0.780719999559
 10
2.10548002439
 20
0.780809973312
 10
2.10476999815
 20
0.780939999558
 10
2.10406999815
 20
0.781099999558
 10
2.10336999815
 20
0.781309973311
 10
2.1027000244
 20
0.781549973311
 10
2.10202999815
 20
0.781819999558
 10
2.1013800244
 20
0.782139999557
 10
2.10074999815
 20
0.78248997331
 10
2.1001400244
 20
0.78286997331
 10
2.09954999815
 20
0.78328997331
 10
2.09898999815
 20
0.783729973309
 10
2.09844999815
 20
0.784209973309
 10
2.09792999815
 20
0.784719999555
 10
2.09744999815
 20
0.785249973308
 10
2.09698999815
 20
0.785809973307
 10
2.09656999815
 20
0.786389973307
 10
2.0961800244
 20
0.786999999553
 10
2.0958200244
 20
0.787619999553
 10
2.0955000244
 20
0.788269973305
 10
2.09520999816
 20
0.788929973305
 10
2.0949600244
 20
0.789599999551
 10
2.09474999816
 20
0.790289973303
 10
2.09456999816
 20
0.790989973303
 10
2.0944400244
 20
0.791699999549
 10
2.0943400244
 20
0.792409973302
 10
2.0942800244
 20
0.793129973301
 10
2.0942600244
 20
0.7938499733
  0
ENDSEC
  0
SECTION
  2
OBJECTS
  0
DICTIONARY
  5
4F
102
{ACAD_REACTORS
330
0
102
}
330
0
100
AcDbDictionary
280
     1
281
     0
  3
ACAD_GROUP
350
50
  3
ACAD_LAYOUT
350
51
  3
ACAD_MLINESTYLE
350
54
  0
DICTIONARY
  5
50
102
{ACAD_REACTORS
330
4F
102
}
330
4F
100
AcDbDictionary
280
     1
281
     0
  0
DICTIONARY
  5
51
102
{ACAD_REACTORS
330
4F
102
}
330
4F
100
AcDbDictionary
280
     1
281
     0
  3
Model
350
52
  3
Layout1
350
53
  0
LAYOUT
  5
52
102
{ACAD_REACTORS
330
51
102
}
330
51
100
AcDbPlotSettings
  1

  2
none_device
  4
ISO_A4_(210.00_x_297.00_MM)
 40
0.0
 41
0.0
 42
0.0
 43
0.0
 44
210.0
 45
297.0
 46
0.0
 47
0.0
 48
0.0
 49
0.0
140
0.0
141
0.0
141
1.0
143
1.0
 72
     1
 73
     0
 74
     5
  7

 75
    16
147
1.0
 76
     0
 77
     2
148
0.0
149
0.0
100
AcDbLayout
  1
Model
 70
     1
 71
     0
 10
0.01817
 20
0.28364
 11
29.5813349606
 21
12.3561349606
 12
0.0
 22
0.0
 32
0.0
 14
0.01817
 24
0.28364
 34
0.0
 15
29.5813349606
 25
12.3561349606
 35
0.0
146
0.0
 13
0.0
 23
0.0
 33
0.0
 16
1.0
 26
0.0
 36
0.0
 17
0.0
 27
1.0
 37
0.0
 76
     0
330
10
  0
LAYOUT
  5
53
102
{ACAD_REACTORS
330
51
102
}
330
51
100
AcDbPlotSettings
  1

  2
none_device
  4

 40
0.0
 41
0.0
 42
0.0
 43
0.0
 44
0.0
 45
0.0
 46
0.0
 47
0.0
 48
0.0
 49
0.0
140
0.0
141
0.0
141
1.0
143
1.0
 72
     1
 73
     0
 74
     5
  7

 75
    16
147
1.0
 76
     0
 77
     2
148
0.0
149
0.0
100
AcDbLayout
  1
Layout1
 70
     1
 71
     1
 10
100000000000000000000.0
 20
100000000000000000000.0
 11
-100000000000000000000.0
 21
-100000000000000000000.0
 12
0.0
 22
0.0
 32
0.0
 14
100000000000000000000.0
 24
100000000000000000000.0
 34
0.0
 15
-100000000000000000000.0
 25
-100000000000000000000.0
 35
0.0
146
0.0
 13
0.0
 23
0.0
 33
0.0
 16
1.0
 26
0.0
 36
0.0
 17
0.0
 27
1.0
 37
0.0
 76
     0
330
11
  0
DICTIONARY
  5
54
102
{ACAD_REACTORS
330
4F
102
}
330
4F
100
AcDbDictionary
280
     1
281
     0
  0
ENDSEC
  0
EOF
