G04 EAGLE Gerber X2 export*
%TF.Part,Single*%
%TF.FileFunction,Other,Silk screen CMP*%
%TF.FilePolarity,Positive*%
%TF.GenerationSoftware,Autodesk,EAGLE,9.0.1*%
%TF.CreationDate,2018-09-16T05:54:57Z*%
G75*
%MOMM*%
%FSLAX34Y34*%
%LPD*%
%AMOC8*
5,1,8,0,0,1.08239X$1,22.5*%
G01*
%ADD10C,0.000000*%
%ADD11C,0.050800*%
%ADD12C,0.152400*%
%ADD13C,0.254000*%
%ADD14C,0.025400*%
%ADD15C,0.127000*%
%ADD16C,0.199800*%
%ADD17C,0.203200*%
%ADD18C,0.101600*%
%ADD19C,0.304800*%
%ADD20R,0.762000X10.668000*%
%ADD21R,0.508000X1.905000*%
%ADD22R,0.508000X0.762000*%
%ADD23C,0.406400*%
%ADD24C,0.177800*%
%ADD25C,0.812800*%


D10*
X668173Y454655D02*
X3400Y456200D01*
X4600Y600D01*
X668600Y1600D02*
X668173Y454655D01*
X666573Y955D02*
X4600Y600D01*
D11*
X239304Y73511D02*
X239304Y102971D01*
X239304Y73511D02*
X227644Y73511D01*
X227644Y102971D01*
X239304Y102971D01*
X241192Y97039D02*
X240260Y96107D01*
X240260Y94243D01*
X241192Y93311D01*
X244921Y93311D01*
X245853Y94243D01*
X245853Y96107D01*
X244921Y97039D01*
X245853Y98924D02*
X245853Y102652D01*
X245853Y98924D02*
X242124Y102652D01*
X241192Y102652D01*
X240260Y101720D01*
X240260Y99856D01*
X241192Y98924D01*
D12*
X539540Y224800D02*
X540810Y224800D01*
D13*
X539540Y224800D02*
X539540Y232420D01*
X539540Y224800D02*
X539540Y217180D01*
X534460Y224800D02*
X534460Y232420D01*
X534460Y224800D02*
X534460Y217180D01*
D12*
X534460Y224800D02*
X533190Y224800D01*
D11*
X525641Y242572D02*
X524709Y243504D01*
X522845Y243504D01*
X521913Y242572D01*
X521913Y238843D01*
X522845Y237911D01*
X524709Y237911D01*
X525641Y238843D01*
X527526Y242572D02*
X528458Y243504D01*
X530322Y243504D01*
X531255Y242572D01*
X531255Y241640D01*
X530322Y240708D01*
X531255Y239775D01*
X531255Y238843D01*
X530322Y237911D01*
X528458Y237911D01*
X527526Y238843D01*
X527526Y239775D01*
X528458Y240708D01*
X527526Y241640D01*
X527526Y242572D01*
X528458Y240708D02*
X530322Y240708D01*
D14*
X515175Y233909D02*
X515080Y233909D01*
D15*
X520300Y235600D02*
X520041Y235593D01*
X519782Y235580D01*
X519523Y235561D01*
X519265Y235535D01*
X519008Y235503D01*
X518751Y235465D01*
X518495Y235420D01*
X518241Y235369D01*
X517988Y235313D01*
X517736Y235250D01*
X517486Y235180D01*
X517238Y235105D01*
X516992Y235024D01*
X516747Y234937D01*
X516505Y234844D01*
X516266Y234745D01*
X516028Y234640D01*
X515794Y234529D01*
X515562Y234413D01*
X515333Y234291D01*
X515107Y234164D01*
X514884Y234031D01*
X514665Y233893D01*
X514449Y233749D01*
X514236Y233601D01*
X514027Y233447D01*
X513822Y233288D01*
X513621Y233124D01*
X513424Y232955D01*
X513231Y232782D01*
X513043Y232604D01*
X512859Y232421D01*
X512679Y232234D01*
X512504Y232042D01*
X512334Y231847D01*
X512168Y231647D01*
X512007Y231444D01*
X511852Y231236D01*
X511701Y231025D01*
X511556Y230810D01*
X511416Y230592D01*
X511281Y230370D01*
X511152Y230145D01*
X511028Y229917D01*
X510910Y229686D01*
X510797Y229452D01*
X510691Y229216D01*
X510590Y228977D01*
X510495Y228736D01*
X510405Y228492D01*
X510322Y228247D01*
X510245Y227999D01*
X510174Y227750D01*
X510108Y227499D01*
X510049Y227246D01*
X509997Y226992D01*
X509950Y226737D01*
X509910Y226481D01*
X509875Y226224D01*
X509848Y225966D01*
X509826Y225707D01*
X509811Y225448D01*
X509802Y225189D01*
X509799Y224930D01*
X509803Y224670D01*
X509813Y224411D01*
X509829Y224152D01*
X509851Y223894D01*
X509880Y223636D01*
X509915Y223379D01*
X509957Y223123D01*
X510004Y222868D01*
X510058Y222614D01*
X510118Y222362D01*
X510184Y222111D01*
X510256Y221862D01*
X510335Y221615D01*
X510419Y221369D01*
X510509Y221126D01*
X510605Y220885D01*
X510707Y220647D01*
X510815Y220411D01*
X510928Y220177D01*
X511047Y219947D01*
X511172Y219720D01*
X511302Y219495D01*
X511437Y219274D01*
X511578Y219056D01*
X511724Y218842D01*
X511876Y218631D01*
X512032Y218424D01*
X512194Y218221D01*
X512360Y218022D01*
X512531Y217827D01*
X512707Y217637D01*
X512887Y217450D01*
X513072Y217268D01*
X513261Y217091D01*
X513455Y216918D01*
X513652Y216750D01*
X513854Y216587D01*
X514060Y216429D01*
X514269Y216276D01*
X514482Y216128D01*
X514699Y215985D01*
X514919Y215848D01*
X515142Y215716D01*
X515369Y215589D01*
X515598Y215468D01*
X515830Y215353D01*
X516065Y215243D01*
X516303Y215139D01*
X516543Y215041D01*
X516786Y214949D01*
X517030Y214863D01*
X517277Y214783D01*
X517525Y214708D01*
X517776Y214640D01*
X518028Y214578D01*
X518281Y214522D01*
X518535Y214473D01*
X518791Y214429D01*
X519048Y214392D01*
X519305Y214361D01*
X519563Y214336D01*
X519822Y214318D01*
X520081Y214305D01*
X520341Y214300D01*
X520600Y214300D01*
X554100Y214300D02*
X554359Y214307D01*
X554618Y214320D01*
X554877Y214339D01*
X555135Y214365D01*
X555392Y214397D01*
X555649Y214435D01*
X555905Y214480D01*
X556159Y214531D01*
X556412Y214587D01*
X556664Y214650D01*
X556914Y214720D01*
X557162Y214795D01*
X557408Y214876D01*
X557653Y214963D01*
X557895Y215056D01*
X558134Y215155D01*
X558372Y215260D01*
X558606Y215371D01*
X558838Y215487D01*
X559067Y215609D01*
X559293Y215736D01*
X559516Y215869D01*
X559735Y216007D01*
X559951Y216151D01*
X560164Y216299D01*
X560373Y216453D01*
X560578Y216612D01*
X560779Y216776D01*
X560976Y216945D01*
X561169Y217118D01*
X561357Y217296D01*
X561541Y217479D01*
X561721Y217666D01*
X561896Y217858D01*
X562066Y218053D01*
X562232Y218253D01*
X562393Y218456D01*
X562548Y218664D01*
X562699Y218875D01*
X562844Y219090D01*
X562984Y219308D01*
X563119Y219530D01*
X563248Y219755D01*
X563372Y219983D01*
X563490Y220214D01*
X563603Y220448D01*
X563709Y220684D01*
X563810Y220923D01*
X563905Y221164D01*
X563995Y221408D01*
X564078Y221653D01*
X564155Y221901D01*
X564226Y222150D01*
X564292Y222401D01*
X564351Y222654D01*
X564403Y222908D01*
X564450Y223163D01*
X564490Y223419D01*
X564525Y223676D01*
X564552Y223934D01*
X564574Y224193D01*
X564589Y224452D01*
X564598Y224711D01*
X564601Y224970D01*
X564597Y225230D01*
X564587Y225489D01*
X564571Y225748D01*
X564549Y226006D01*
X564520Y226264D01*
X564485Y226521D01*
X564443Y226777D01*
X564396Y227032D01*
X564342Y227286D01*
X564282Y227538D01*
X564216Y227789D01*
X564144Y228038D01*
X564065Y228285D01*
X563981Y228531D01*
X563891Y228774D01*
X563795Y229015D01*
X563693Y229253D01*
X563585Y229489D01*
X563472Y229723D01*
X563353Y229953D01*
X563228Y230180D01*
X563098Y230405D01*
X562963Y230626D01*
X562822Y230844D01*
X562676Y231058D01*
X562524Y231269D01*
X562368Y231476D01*
X562206Y231679D01*
X562040Y231878D01*
X561869Y232073D01*
X561693Y232263D01*
X561513Y232450D01*
X561328Y232632D01*
X561139Y232809D01*
X560945Y232982D01*
X560748Y233150D01*
X560546Y233313D01*
X560340Y233471D01*
X560131Y233624D01*
X559918Y233772D01*
X559701Y233915D01*
X559481Y234052D01*
X559258Y234184D01*
X559031Y234311D01*
X558802Y234432D01*
X558570Y234547D01*
X558335Y234657D01*
X558097Y234761D01*
X557857Y234859D01*
X557614Y234951D01*
X557370Y235037D01*
X557123Y235117D01*
X556875Y235192D01*
X556624Y235260D01*
X556372Y235322D01*
X556119Y235378D01*
X555865Y235427D01*
X555609Y235471D01*
X555352Y235508D01*
X555095Y235539D01*
X554837Y235564D01*
X554578Y235582D01*
X554319Y235595D01*
X554059Y235600D01*
X553800Y235600D01*
X520300Y235600D01*
X520600Y214300D02*
X554100Y214300D01*
X511600Y224800D02*
X511608Y225423D01*
X511631Y226046D01*
X511669Y226669D01*
X511722Y227290D01*
X511791Y227909D01*
X511875Y228527D01*
X511974Y229142D01*
X512088Y229755D01*
X512217Y230365D01*
X512361Y230972D01*
X512520Y231575D01*
X512694Y232173D01*
X512882Y232768D01*
X513085Y233357D01*
X513302Y233941D01*
X513533Y234520D01*
X513779Y235093D01*
X514039Y235660D01*
X514312Y236220D01*
X514599Y236773D01*
X514900Y237320D01*
X515214Y237858D01*
X515541Y238389D01*
X515881Y238911D01*
X516233Y239426D01*
X516599Y239931D01*
X516976Y240427D01*
X517366Y240914D01*
X517767Y241391D01*
X518180Y241858D01*
X518604Y242314D01*
X519039Y242761D01*
X519486Y243196D01*
X519942Y243620D01*
X520409Y244033D01*
X520886Y244434D01*
X521373Y244824D01*
X521869Y245201D01*
X522374Y245567D01*
X522889Y245919D01*
X523411Y246259D01*
X523942Y246586D01*
X524480Y246900D01*
X525027Y247201D01*
X525580Y247488D01*
X526140Y247761D01*
X526707Y248021D01*
X527280Y248267D01*
X527859Y248498D01*
X528443Y248715D01*
X529032Y248918D01*
X529627Y249106D01*
X530225Y249280D01*
X530828Y249439D01*
X531435Y249583D01*
X532045Y249712D01*
X532658Y249826D01*
X533273Y249925D01*
X533891Y250009D01*
X534510Y250078D01*
X535131Y250131D01*
X535754Y250169D01*
X536377Y250192D01*
X537000Y250200D01*
X537623Y250192D01*
X538246Y250169D01*
X538869Y250131D01*
X539490Y250078D01*
X540109Y250009D01*
X540727Y249925D01*
X541342Y249826D01*
X541955Y249712D01*
X542565Y249583D01*
X543172Y249439D01*
X543775Y249280D01*
X544373Y249106D01*
X544968Y248918D01*
X545557Y248715D01*
X546141Y248498D01*
X546720Y248267D01*
X547293Y248021D01*
X547860Y247761D01*
X548420Y247488D01*
X548973Y247201D01*
X549520Y246900D01*
X550058Y246586D01*
X550589Y246259D01*
X551111Y245919D01*
X551626Y245567D01*
X552131Y245201D01*
X552627Y244824D01*
X553114Y244434D01*
X553591Y244033D01*
X554058Y243620D01*
X554514Y243196D01*
X554961Y242761D01*
X555396Y242314D01*
X555820Y241858D01*
X556233Y241391D01*
X556634Y240914D01*
X557024Y240427D01*
X557401Y239931D01*
X557767Y239426D01*
X558119Y238911D01*
X558459Y238389D01*
X558786Y237858D01*
X559100Y237320D01*
X559401Y236773D01*
X559688Y236220D01*
X559961Y235660D01*
X560221Y235093D01*
X560467Y234520D01*
X560698Y233941D01*
X560915Y233357D01*
X561118Y232768D01*
X561306Y232173D01*
X561480Y231575D01*
X561639Y230972D01*
X561783Y230365D01*
X561912Y229755D01*
X562026Y229142D01*
X562125Y228527D01*
X562209Y227909D01*
X562278Y227290D01*
X562331Y226669D01*
X562369Y226046D01*
X562392Y225423D01*
X562400Y224800D01*
X562392Y224177D01*
X562369Y223554D01*
X562331Y222931D01*
X562278Y222310D01*
X562209Y221691D01*
X562125Y221073D01*
X562026Y220458D01*
X561912Y219845D01*
X561783Y219235D01*
X561639Y218628D01*
X561480Y218025D01*
X561306Y217427D01*
X561118Y216832D01*
X560915Y216243D01*
X560698Y215659D01*
X560467Y215080D01*
X560221Y214507D01*
X559961Y213940D01*
X559688Y213380D01*
X559401Y212827D01*
X559100Y212280D01*
X558786Y211742D01*
X558459Y211211D01*
X558119Y210689D01*
X557767Y210174D01*
X557401Y209669D01*
X557024Y209173D01*
X556634Y208686D01*
X556233Y208209D01*
X555820Y207742D01*
X555396Y207286D01*
X554961Y206839D01*
X554514Y206404D01*
X554058Y205980D01*
X553591Y205567D01*
X553114Y205166D01*
X552627Y204776D01*
X552131Y204399D01*
X551626Y204033D01*
X551111Y203681D01*
X550589Y203341D01*
X550058Y203014D01*
X549520Y202700D01*
X548973Y202399D01*
X548420Y202112D01*
X547860Y201839D01*
X547293Y201579D01*
X546720Y201333D01*
X546141Y201102D01*
X545557Y200885D01*
X544968Y200682D01*
X544373Y200494D01*
X543775Y200320D01*
X543172Y200161D01*
X542565Y200017D01*
X541955Y199888D01*
X541342Y199774D01*
X540727Y199675D01*
X540109Y199591D01*
X539490Y199522D01*
X538869Y199469D01*
X538246Y199431D01*
X537623Y199408D01*
X537000Y199400D01*
X536377Y199408D01*
X535754Y199431D01*
X535131Y199469D01*
X534510Y199522D01*
X533891Y199591D01*
X533273Y199675D01*
X532658Y199774D01*
X532045Y199888D01*
X531435Y200017D01*
X530828Y200161D01*
X530225Y200320D01*
X529627Y200494D01*
X529032Y200682D01*
X528443Y200885D01*
X527859Y201102D01*
X527280Y201333D01*
X526707Y201579D01*
X526140Y201839D01*
X525580Y202112D01*
X525027Y202399D01*
X524480Y202700D01*
X523942Y203014D01*
X523411Y203341D01*
X522889Y203681D01*
X522374Y204033D01*
X521869Y204399D01*
X521373Y204776D01*
X520886Y205166D01*
X520409Y205567D01*
X519942Y205980D01*
X519486Y206404D01*
X519039Y206839D01*
X518604Y207286D01*
X518180Y207742D01*
X517767Y208209D01*
X517366Y208686D01*
X516976Y209173D01*
X516599Y209669D01*
X516233Y210174D01*
X515881Y210689D01*
X515541Y211211D01*
X515214Y211742D01*
X514900Y212280D01*
X514599Y212827D01*
X514312Y213380D01*
X514039Y213940D01*
X513779Y214507D01*
X513533Y215080D01*
X513302Y215659D01*
X513085Y216243D01*
X512882Y216832D01*
X512694Y217427D01*
X512520Y218025D01*
X512361Y218628D01*
X512217Y219235D01*
X512088Y219845D01*
X511974Y220458D01*
X511875Y221073D01*
X511791Y221691D01*
X511722Y222310D01*
X511669Y222931D01*
X511631Y223554D01*
X511608Y224177D01*
X511600Y224800D01*
D12*
X238060Y327000D02*
X236790Y327000D01*
D13*
X238060Y327000D02*
X238060Y319380D01*
X238060Y327000D02*
X238060Y334620D01*
X243140Y327000D02*
X243140Y319380D01*
X243140Y327000D02*
X243140Y334620D01*
D12*
X243140Y327000D02*
X244410Y327000D01*
D11*
X247765Y313894D02*
X248697Y312961D01*
X247765Y313894D02*
X245901Y313894D01*
X244969Y312961D01*
X244969Y309233D01*
X245901Y308301D01*
X247765Y308301D01*
X248697Y309233D01*
X250582Y309233D02*
X251514Y308301D01*
X253378Y308301D01*
X254310Y309233D01*
X254310Y312961D01*
X253378Y313894D01*
X251514Y313894D01*
X250582Y312961D01*
X250582Y312029D01*
X251514Y311097D01*
X254310Y311097D01*
D14*
X262425Y317891D02*
X262520Y317891D01*
D15*
X257300Y316200D02*
X257559Y316207D01*
X257818Y316220D01*
X258077Y316239D01*
X258335Y316265D01*
X258592Y316297D01*
X258849Y316335D01*
X259105Y316380D01*
X259359Y316431D01*
X259612Y316487D01*
X259864Y316550D01*
X260114Y316620D01*
X260362Y316695D01*
X260608Y316776D01*
X260853Y316863D01*
X261095Y316956D01*
X261334Y317055D01*
X261572Y317160D01*
X261806Y317271D01*
X262038Y317387D01*
X262267Y317509D01*
X262493Y317636D01*
X262716Y317769D01*
X262935Y317907D01*
X263151Y318051D01*
X263364Y318199D01*
X263573Y318353D01*
X263778Y318512D01*
X263979Y318676D01*
X264176Y318845D01*
X264369Y319018D01*
X264557Y319196D01*
X264741Y319379D01*
X264921Y319566D01*
X265096Y319758D01*
X265266Y319953D01*
X265432Y320153D01*
X265593Y320356D01*
X265748Y320564D01*
X265899Y320775D01*
X266044Y320990D01*
X266184Y321208D01*
X266319Y321430D01*
X266448Y321655D01*
X266572Y321883D01*
X266690Y322114D01*
X266803Y322348D01*
X266909Y322584D01*
X267010Y322823D01*
X267105Y323064D01*
X267195Y323308D01*
X267278Y323553D01*
X267355Y323801D01*
X267426Y324050D01*
X267492Y324301D01*
X267551Y324554D01*
X267603Y324808D01*
X267650Y325063D01*
X267690Y325319D01*
X267725Y325576D01*
X267752Y325834D01*
X267774Y326093D01*
X267789Y326352D01*
X267798Y326611D01*
X267801Y326870D01*
X267797Y327130D01*
X267787Y327389D01*
X267771Y327648D01*
X267749Y327906D01*
X267720Y328164D01*
X267685Y328421D01*
X267643Y328677D01*
X267596Y328932D01*
X267542Y329186D01*
X267482Y329438D01*
X267416Y329689D01*
X267344Y329938D01*
X267265Y330185D01*
X267181Y330431D01*
X267091Y330674D01*
X266995Y330915D01*
X266893Y331153D01*
X266785Y331389D01*
X266672Y331623D01*
X266553Y331853D01*
X266428Y332080D01*
X266298Y332305D01*
X266163Y332526D01*
X266022Y332744D01*
X265876Y332958D01*
X265724Y333169D01*
X265568Y333376D01*
X265406Y333579D01*
X265240Y333778D01*
X265069Y333973D01*
X264893Y334163D01*
X264713Y334350D01*
X264528Y334532D01*
X264339Y334709D01*
X264145Y334882D01*
X263948Y335050D01*
X263746Y335213D01*
X263540Y335371D01*
X263331Y335524D01*
X263118Y335672D01*
X262901Y335815D01*
X262681Y335952D01*
X262458Y336084D01*
X262231Y336211D01*
X262002Y336332D01*
X261770Y336447D01*
X261535Y336557D01*
X261297Y336661D01*
X261057Y336759D01*
X260814Y336851D01*
X260570Y336937D01*
X260323Y337017D01*
X260075Y337092D01*
X259824Y337160D01*
X259572Y337222D01*
X259319Y337278D01*
X259065Y337327D01*
X258809Y337371D01*
X258552Y337408D01*
X258295Y337439D01*
X258037Y337464D01*
X257778Y337482D01*
X257519Y337495D01*
X257259Y337500D01*
X257000Y337500D01*
X223500Y337500D02*
X223241Y337493D01*
X222982Y337480D01*
X222723Y337461D01*
X222465Y337435D01*
X222208Y337403D01*
X221951Y337365D01*
X221695Y337320D01*
X221441Y337269D01*
X221188Y337213D01*
X220936Y337150D01*
X220686Y337080D01*
X220438Y337005D01*
X220192Y336924D01*
X219947Y336837D01*
X219705Y336744D01*
X219466Y336645D01*
X219228Y336540D01*
X218994Y336429D01*
X218762Y336313D01*
X218533Y336191D01*
X218307Y336064D01*
X218084Y335931D01*
X217865Y335793D01*
X217649Y335649D01*
X217436Y335501D01*
X217227Y335347D01*
X217022Y335188D01*
X216821Y335024D01*
X216624Y334855D01*
X216431Y334682D01*
X216243Y334504D01*
X216059Y334321D01*
X215879Y334134D01*
X215704Y333942D01*
X215534Y333747D01*
X215368Y333547D01*
X215207Y333344D01*
X215052Y333136D01*
X214901Y332925D01*
X214756Y332710D01*
X214616Y332492D01*
X214481Y332270D01*
X214352Y332045D01*
X214228Y331817D01*
X214110Y331586D01*
X213997Y331352D01*
X213891Y331116D01*
X213790Y330877D01*
X213695Y330636D01*
X213605Y330392D01*
X213522Y330147D01*
X213445Y329899D01*
X213374Y329650D01*
X213308Y329399D01*
X213249Y329146D01*
X213197Y328892D01*
X213150Y328637D01*
X213110Y328381D01*
X213075Y328124D01*
X213048Y327866D01*
X213026Y327607D01*
X213011Y327348D01*
X213002Y327089D01*
X212999Y326830D01*
X213003Y326570D01*
X213013Y326311D01*
X213029Y326052D01*
X213051Y325794D01*
X213080Y325536D01*
X213115Y325279D01*
X213157Y325023D01*
X213204Y324768D01*
X213258Y324514D01*
X213318Y324262D01*
X213384Y324011D01*
X213456Y323762D01*
X213535Y323515D01*
X213619Y323269D01*
X213709Y323026D01*
X213805Y322785D01*
X213907Y322547D01*
X214015Y322311D01*
X214128Y322077D01*
X214247Y321847D01*
X214372Y321620D01*
X214502Y321395D01*
X214637Y321174D01*
X214778Y320956D01*
X214924Y320742D01*
X215076Y320531D01*
X215232Y320324D01*
X215394Y320121D01*
X215560Y319922D01*
X215731Y319727D01*
X215907Y319537D01*
X216087Y319350D01*
X216272Y319168D01*
X216461Y318991D01*
X216655Y318818D01*
X216852Y318650D01*
X217054Y318487D01*
X217260Y318329D01*
X217469Y318176D01*
X217682Y318028D01*
X217899Y317885D01*
X218119Y317748D01*
X218342Y317616D01*
X218569Y317489D01*
X218798Y317368D01*
X219030Y317253D01*
X219265Y317143D01*
X219503Y317039D01*
X219743Y316941D01*
X219986Y316849D01*
X220230Y316763D01*
X220477Y316683D01*
X220725Y316608D01*
X220976Y316540D01*
X221228Y316478D01*
X221481Y316422D01*
X221735Y316373D01*
X221991Y316329D01*
X222248Y316292D01*
X222505Y316261D01*
X222763Y316236D01*
X223022Y316218D01*
X223281Y316205D01*
X223541Y316200D01*
X223800Y316200D01*
X257300Y316200D01*
X257000Y337500D02*
X223500Y337500D01*
X215200Y327000D02*
X215208Y327623D01*
X215231Y328246D01*
X215269Y328869D01*
X215322Y329490D01*
X215391Y330109D01*
X215475Y330727D01*
X215574Y331342D01*
X215688Y331955D01*
X215817Y332565D01*
X215961Y333172D01*
X216120Y333775D01*
X216294Y334373D01*
X216482Y334968D01*
X216685Y335557D01*
X216902Y336141D01*
X217133Y336720D01*
X217379Y337293D01*
X217639Y337860D01*
X217912Y338420D01*
X218199Y338973D01*
X218500Y339520D01*
X218814Y340058D01*
X219141Y340589D01*
X219481Y341111D01*
X219833Y341626D01*
X220199Y342131D01*
X220576Y342627D01*
X220966Y343114D01*
X221367Y343591D01*
X221780Y344058D01*
X222204Y344514D01*
X222639Y344961D01*
X223086Y345396D01*
X223542Y345820D01*
X224009Y346233D01*
X224486Y346634D01*
X224973Y347024D01*
X225469Y347401D01*
X225974Y347767D01*
X226489Y348119D01*
X227011Y348459D01*
X227542Y348786D01*
X228080Y349100D01*
X228627Y349401D01*
X229180Y349688D01*
X229740Y349961D01*
X230307Y350221D01*
X230880Y350467D01*
X231459Y350698D01*
X232043Y350915D01*
X232632Y351118D01*
X233227Y351306D01*
X233825Y351480D01*
X234428Y351639D01*
X235035Y351783D01*
X235645Y351912D01*
X236258Y352026D01*
X236873Y352125D01*
X237491Y352209D01*
X238110Y352278D01*
X238731Y352331D01*
X239354Y352369D01*
X239977Y352392D01*
X240600Y352400D01*
X241223Y352392D01*
X241846Y352369D01*
X242469Y352331D01*
X243090Y352278D01*
X243709Y352209D01*
X244327Y352125D01*
X244942Y352026D01*
X245555Y351912D01*
X246165Y351783D01*
X246772Y351639D01*
X247375Y351480D01*
X247973Y351306D01*
X248568Y351118D01*
X249157Y350915D01*
X249741Y350698D01*
X250320Y350467D01*
X250893Y350221D01*
X251460Y349961D01*
X252020Y349688D01*
X252573Y349401D01*
X253120Y349100D01*
X253658Y348786D01*
X254189Y348459D01*
X254711Y348119D01*
X255226Y347767D01*
X255731Y347401D01*
X256227Y347024D01*
X256714Y346634D01*
X257191Y346233D01*
X257658Y345820D01*
X258114Y345396D01*
X258561Y344961D01*
X258996Y344514D01*
X259420Y344058D01*
X259833Y343591D01*
X260234Y343114D01*
X260624Y342627D01*
X261001Y342131D01*
X261367Y341626D01*
X261719Y341111D01*
X262059Y340589D01*
X262386Y340058D01*
X262700Y339520D01*
X263001Y338973D01*
X263288Y338420D01*
X263561Y337860D01*
X263821Y337293D01*
X264067Y336720D01*
X264298Y336141D01*
X264515Y335557D01*
X264718Y334968D01*
X264906Y334373D01*
X265080Y333775D01*
X265239Y333172D01*
X265383Y332565D01*
X265512Y331955D01*
X265626Y331342D01*
X265725Y330727D01*
X265809Y330109D01*
X265878Y329490D01*
X265931Y328869D01*
X265969Y328246D01*
X265992Y327623D01*
X266000Y327000D01*
X265992Y326377D01*
X265969Y325754D01*
X265931Y325131D01*
X265878Y324510D01*
X265809Y323891D01*
X265725Y323273D01*
X265626Y322658D01*
X265512Y322045D01*
X265383Y321435D01*
X265239Y320828D01*
X265080Y320225D01*
X264906Y319627D01*
X264718Y319032D01*
X264515Y318443D01*
X264298Y317859D01*
X264067Y317280D01*
X263821Y316707D01*
X263561Y316140D01*
X263288Y315580D01*
X263001Y315027D01*
X262700Y314480D01*
X262386Y313942D01*
X262059Y313411D01*
X261719Y312889D01*
X261367Y312374D01*
X261001Y311869D01*
X260624Y311373D01*
X260234Y310886D01*
X259833Y310409D01*
X259420Y309942D01*
X258996Y309486D01*
X258561Y309039D01*
X258114Y308604D01*
X257658Y308180D01*
X257191Y307767D01*
X256714Y307366D01*
X256227Y306976D01*
X255731Y306599D01*
X255226Y306233D01*
X254711Y305881D01*
X254189Y305541D01*
X253658Y305214D01*
X253120Y304900D01*
X252573Y304599D01*
X252020Y304312D01*
X251460Y304039D01*
X250893Y303779D01*
X250320Y303533D01*
X249741Y303302D01*
X249157Y303085D01*
X248568Y302882D01*
X247973Y302694D01*
X247375Y302520D01*
X246772Y302361D01*
X246165Y302217D01*
X245555Y302088D01*
X244942Y301974D01*
X244327Y301875D01*
X243709Y301791D01*
X243090Y301722D01*
X242469Y301669D01*
X241846Y301631D01*
X241223Y301608D01*
X240600Y301600D01*
X239977Y301608D01*
X239354Y301631D01*
X238731Y301669D01*
X238110Y301722D01*
X237491Y301791D01*
X236873Y301875D01*
X236258Y301974D01*
X235645Y302088D01*
X235035Y302217D01*
X234428Y302361D01*
X233825Y302520D01*
X233227Y302694D01*
X232632Y302882D01*
X232043Y303085D01*
X231459Y303302D01*
X230880Y303533D01*
X230307Y303779D01*
X229740Y304039D01*
X229180Y304312D01*
X228627Y304599D01*
X228080Y304900D01*
X227542Y305214D01*
X227011Y305541D01*
X226489Y305881D01*
X225974Y306233D01*
X225469Y306599D01*
X224973Y306976D01*
X224486Y307366D01*
X224009Y307767D01*
X223542Y308180D01*
X223086Y308604D01*
X222639Y309039D01*
X222204Y309486D01*
X221780Y309942D01*
X221367Y310409D01*
X220966Y310886D01*
X220576Y311373D01*
X220199Y311869D01*
X219833Y312374D01*
X219481Y312889D01*
X219141Y313411D01*
X218814Y313942D01*
X218500Y314480D01*
X218199Y315027D01*
X217912Y315580D01*
X217639Y316140D01*
X217379Y316707D01*
X217133Y317280D01*
X216902Y317859D01*
X216685Y318443D01*
X216482Y319032D01*
X216294Y319627D01*
X216120Y320225D01*
X215961Y320828D01*
X215817Y321435D01*
X215688Y322045D01*
X215574Y322658D01*
X215475Y323273D01*
X215391Y323891D01*
X215322Y324510D01*
X215269Y325131D01*
X215231Y325754D01*
X215208Y326377D01*
X215200Y327000D01*
D16*
X247271Y146657D02*
X345171Y146657D01*
X345171Y68657D02*
X247271Y68657D01*
X247271Y146657D01*
D17*
X253171Y88657D02*
X339271Y88657D01*
X253171Y88657D02*
X253171Y93657D01*
X253171Y126657D01*
X253171Y93657D02*
X339271Y93657D01*
X339271Y126657D01*
X339271Y93657D02*
X339271Y88657D01*
D16*
X345171Y68657D02*
X345171Y146657D01*
D17*
X339271Y126657D02*
X253171Y126657D01*
D11*
X258899Y111968D02*
X260763Y111968D01*
X259831Y111968D02*
X259831Y117561D01*
X258899Y117561D02*
X260763Y117561D01*
X265437Y117561D02*
X266369Y116629D01*
X265437Y117561D02*
X263573Y117561D01*
X262641Y116629D01*
X262641Y112901D01*
X263573Y111968D01*
X265437Y111968D01*
X266369Y112901D01*
X268254Y115697D02*
X270118Y117561D01*
X270118Y111968D01*
X268254Y111968D02*
X271982Y111968D01*
D15*
X256985Y98657D02*
X256987Y98751D01*
X256993Y98845D01*
X257003Y98939D01*
X257017Y99032D01*
X257035Y99125D01*
X257056Y99217D01*
X257082Y99307D01*
X257111Y99397D01*
X257144Y99485D01*
X257181Y99572D01*
X257221Y99657D01*
X257265Y99741D01*
X257313Y99822D01*
X257363Y99902D01*
X257418Y99979D01*
X257475Y100054D01*
X257535Y100126D01*
X257599Y100196D01*
X257665Y100263D01*
X257734Y100327D01*
X257806Y100388D01*
X257880Y100446D01*
X257957Y100501D01*
X258036Y100553D01*
X258117Y100601D01*
X258200Y100646D01*
X258284Y100687D01*
X258371Y100725D01*
X258459Y100759D01*
X258548Y100789D01*
X258638Y100816D01*
X258730Y100838D01*
X258822Y100857D01*
X258916Y100872D01*
X259009Y100883D01*
X259103Y100890D01*
X259197Y100893D01*
X259292Y100892D01*
X259386Y100887D01*
X259480Y100878D01*
X259573Y100865D01*
X259666Y100848D01*
X259758Y100828D01*
X259849Y100803D01*
X259939Y100775D01*
X260027Y100743D01*
X260115Y100707D01*
X260200Y100667D01*
X260284Y100624D01*
X260366Y100578D01*
X260446Y100528D01*
X260524Y100474D01*
X260599Y100418D01*
X260672Y100358D01*
X260743Y100295D01*
X260810Y100230D01*
X260875Y100161D01*
X260937Y100090D01*
X260996Y100017D01*
X261052Y99941D01*
X261104Y99862D01*
X261153Y99782D01*
X261199Y99699D01*
X261241Y99615D01*
X261280Y99529D01*
X261315Y99441D01*
X261346Y99352D01*
X261374Y99262D01*
X261397Y99171D01*
X261417Y99079D01*
X261433Y98986D01*
X261445Y98892D01*
X261453Y98798D01*
X261457Y98704D01*
X261457Y98610D01*
X261453Y98516D01*
X261445Y98422D01*
X261433Y98328D01*
X261417Y98235D01*
X261397Y98143D01*
X261374Y98052D01*
X261346Y97962D01*
X261315Y97873D01*
X261280Y97785D01*
X261241Y97699D01*
X261199Y97615D01*
X261153Y97532D01*
X261104Y97452D01*
X261052Y97373D01*
X260996Y97297D01*
X260937Y97224D01*
X260875Y97153D01*
X260810Y97084D01*
X260743Y97019D01*
X260672Y96956D01*
X260599Y96896D01*
X260524Y96840D01*
X260446Y96786D01*
X260366Y96736D01*
X260284Y96690D01*
X260200Y96647D01*
X260115Y96607D01*
X260027Y96571D01*
X259939Y96539D01*
X259849Y96511D01*
X259758Y96486D01*
X259666Y96466D01*
X259573Y96449D01*
X259480Y96436D01*
X259386Y96427D01*
X259292Y96422D01*
X259197Y96421D01*
X259103Y96424D01*
X259009Y96431D01*
X258916Y96442D01*
X258822Y96457D01*
X258730Y96476D01*
X258638Y96498D01*
X258548Y96525D01*
X258459Y96555D01*
X258371Y96589D01*
X258284Y96627D01*
X258200Y96668D01*
X258117Y96713D01*
X258036Y96761D01*
X257957Y96813D01*
X257880Y96868D01*
X257806Y96926D01*
X257734Y96987D01*
X257665Y97051D01*
X257599Y97118D01*
X257535Y97188D01*
X257475Y97260D01*
X257418Y97335D01*
X257363Y97412D01*
X257313Y97492D01*
X257265Y97573D01*
X257221Y97657D01*
X257181Y97742D01*
X257144Y97829D01*
X257111Y97917D01*
X257082Y98007D01*
X257056Y98097D01*
X257035Y98189D01*
X257017Y98282D01*
X257003Y98375D01*
X256993Y98469D01*
X256987Y98563D01*
X256985Y98657D01*
D17*
X391202Y226971D02*
X432900Y226971D01*
X391202Y226971D02*
X391202Y127403D01*
X432900Y127403D01*
X432900Y226971D01*
D18*
X421552Y135547D02*
X421554Y135663D01*
X421560Y135778D01*
X421570Y135893D01*
X421584Y136008D01*
X421602Y136122D01*
X421624Y136236D01*
X421649Y136348D01*
X421679Y136460D01*
X421712Y136571D01*
X421750Y136680D01*
X421791Y136788D01*
X421835Y136895D01*
X421884Y137000D01*
X421936Y137103D01*
X421991Y137205D01*
X422050Y137304D01*
X422112Y137402D01*
X422178Y137497D01*
X422247Y137590D01*
X422319Y137680D01*
X422394Y137768D01*
X422472Y137853D01*
X422553Y137935D01*
X422637Y138015D01*
X422724Y138092D01*
X422813Y138165D01*
X422905Y138236D01*
X422999Y138303D01*
X423095Y138367D01*
X423193Y138428D01*
X423294Y138485D01*
X423396Y138539D01*
X423500Y138589D01*
X423606Y138636D01*
X423713Y138678D01*
X423822Y138717D01*
X423932Y138753D01*
X424044Y138784D01*
X424156Y138812D01*
X424269Y138836D01*
X424383Y138856D01*
X424497Y138872D01*
X424612Y138884D01*
X424728Y138892D01*
X424843Y138896D01*
X424959Y138896D01*
X425074Y138892D01*
X425190Y138884D01*
X425305Y138872D01*
X425419Y138856D01*
X425533Y138836D01*
X425646Y138812D01*
X425758Y138784D01*
X425870Y138753D01*
X425980Y138717D01*
X426089Y138678D01*
X426196Y138636D01*
X426302Y138589D01*
X426406Y138539D01*
X426508Y138485D01*
X426609Y138428D01*
X426707Y138367D01*
X426803Y138303D01*
X426897Y138236D01*
X426989Y138165D01*
X427078Y138092D01*
X427165Y138015D01*
X427249Y137935D01*
X427330Y137853D01*
X427408Y137768D01*
X427483Y137680D01*
X427555Y137590D01*
X427624Y137497D01*
X427690Y137402D01*
X427752Y137304D01*
X427811Y137205D01*
X427866Y137103D01*
X427918Y137000D01*
X427967Y136895D01*
X428011Y136788D01*
X428052Y136680D01*
X428090Y136571D01*
X428123Y136460D01*
X428153Y136348D01*
X428178Y136236D01*
X428200Y136122D01*
X428218Y136008D01*
X428232Y135893D01*
X428242Y135778D01*
X428248Y135663D01*
X428250Y135547D01*
X428248Y135431D01*
X428242Y135316D01*
X428232Y135201D01*
X428218Y135086D01*
X428200Y134972D01*
X428178Y134858D01*
X428153Y134746D01*
X428123Y134634D01*
X428090Y134523D01*
X428052Y134414D01*
X428011Y134306D01*
X427967Y134199D01*
X427918Y134094D01*
X427866Y133991D01*
X427811Y133889D01*
X427752Y133790D01*
X427690Y133692D01*
X427624Y133597D01*
X427555Y133504D01*
X427483Y133414D01*
X427408Y133326D01*
X427330Y133241D01*
X427249Y133159D01*
X427165Y133079D01*
X427078Y133002D01*
X426989Y132929D01*
X426897Y132858D01*
X426803Y132791D01*
X426707Y132727D01*
X426609Y132666D01*
X426508Y132609D01*
X426406Y132555D01*
X426302Y132505D01*
X426196Y132458D01*
X426089Y132416D01*
X425980Y132377D01*
X425870Y132341D01*
X425758Y132310D01*
X425646Y132282D01*
X425533Y132258D01*
X425419Y132238D01*
X425305Y132222D01*
X425190Y132210D01*
X425074Y132202D01*
X424959Y132198D01*
X424843Y132198D01*
X424728Y132202D01*
X424612Y132210D01*
X424497Y132222D01*
X424383Y132238D01*
X424269Y132258D01*
X424156Y132282D01*
X424044Y132310D01*
X423932Y132341D01*
X423822Y132377D01*
X423713Y132416D01*
X423606Y132458D01*
X423500Y132505D01*
X423396Y132555D01*
X423294Y132609D01*
X423193Y132666D01*
X423095Y132727D01*
X422999Y132791D01*
X422905Y132858D01*
X422813Y132929D01*
X422724Y133002D01*
X422637Y133079D01*
X422553Y133159D01*
X422472Y133241D01*
X422394Y133326D01*
X422319Y133414D01*
X422247Y133504D01*
X422178Y133597D01*
X422112Y133692D01*
X422050Y133790D01*
X421991Y133889D01*
X421936Y133991D01*
X421884Y134094D01*
X421835Y134199D01*
X421791Y134306D01*
X421750Y134414D01*
X421712Y134523D01*
X421679Y134634D01*
X421649Y134746D01*
X421624Y134858D01*
X421602Y134972D01*
X421584Y135086D01*
X421570Y135201D01*
X421560Y135316D01*
X421554Y135431D01*
X421552Y135547D01*
D11*
X414081Y204106D02*
X414081Y205971D01*
X414081Y205038D02*
X408488Y205038D01*
X408488Y204106D02*
X408488Y205971D01*
X408488Y210645D02*
X409420Y211577D01*
X408488Y210645D02*
X408488Y208781D01*
X409420Y207848D01*
X413148Y207848D01*
X414081Y208781D01*
X414081Y210645D01*
X413148Y211577D01*
X409420Y213462D02*
X408488Y214394D01*
X408488Y216258D01*
X409420Y217190D01*
X410352Y217190D01*
X411284Y216258D01*
X411284Y215326D01*
X411284Y216258D02*
X412216Y217190D01*
X413148Y217190D01*
X414081Y216258D01*
X414081Y214394D01*
X413148Y213462D01*
D15*
X452051Y125187D02*
X372051Y125187D01*
X372051Y229187D01*
X452051Y229187D01*
X452051Y125187D01*
D11*
X463182Y202367D02*
X492642Y202367D01*
X463182Y202367D02*
X463182Y216027D01*
X492642Y216027D01*
X492642Y202367D01*
X483592Y201288D02*
X483592Y195695D01*
X483592Y201288D02*
X486389Y201288D01*
X487321Y200356D01*
X487321Y198492D01*
X486389Y197560D01*
X483592Y197560D01*
X485456Y197560D02*
X487321Y195695D01*
X489205Y199424D02*
X491070Y201288D01*
X491070Y195695D01*
X492934Y195695D02*
X489205Y195695D01*
X385449Y48992D02*
X355989Y48992D01*
X385449Y48992D02*
X385449Y35332D01*
X355989Y35332D01*
X355989Y48992D01*
X354321Y50076D02*
X354321Y55668D01*
X357117Y55668D01*
X358049Y54736D01*
X358049Y52872D01*
X357117Y51940D01*
X354321Y51940D01*
X356185Y51940D02*
X358049Y50076D01*
X359934Y53804D02*
X361798Y55668D01*
X361798Y50076D01*
X359934Y50076D02*
X363662Y50076D01*
X368343Y50076D02*
X368343Y55668D01*
X365547Y52872D01*
X369275Y52872D01*
X343618Y149828D02*
X343618Y179288D01*
X343618Y149828D02*
X329958Y149828D01*
X329958Y179288D01*
X343618Y179288D01*
X344697Y164625D02*
X350289Y164625D01*
X344697Y164625D02*
X344697Y167422D01*
X345629Y168354D01*
X347493Y168354D01*
X348425Y167422D01*
X348425Y164625D01*
X348425Y166490D02*
X350289Y168354D01*
X346561Y170238D02*
X344697Y172103D01*
X350289Y172103D01*
X350289Y173967D02*
X350289Y170238D01*
X344697Y175852D02*
X344697Y179580D01*
X344697Y175852D02*
X347493Y175852D01*
X346561Y177716D01*
X346561Y178648D01*
X347493Y179580D01*
X349357Y179580D01*
X350289Y178648D01*
X350289Y176784D01*
X349357Y175852D01*
X326866Y209906D02*
X297406Y209906D01*
X326866Y209906D02*
X326866Y196246D01*
X297406Y196246D01*
X297406Y209906D01*
X295738Y210989D02*
X295738Y216582D01*
X298534Y216582D01*
X299466Y215649D01*
X299466Y213785D01*
X298534Y212853D01*
X295738Y212853D01*
X297602Y212853D02*
X299466Y210989D01*
X301351Y214717D02*
X303215Y216582D01*
X303215Y210989D01*
X301351Y210989D02*
X305079Y210989D01*
X308828Y215649D02*
X310692Y216582D01*
X308828Y215649D02*
X306964Y213785D01*
X306964Y211921D01*
X307896Y210989D01*
X309760Y210989D01*
X310692Y211921D01*
X310692Y212853D01*
X309760Y213785D01*
X306964Y213785D01*
X313531Y170678D02*
X284071Y170678D01*
X284071Y184338D01*
X313531Y184338D01*
X313531Y170678D01*
X298868Y169599D02*
X298868Y164007D01*
X298868Y169599D02*
X301664Y169599D01*
X302597Y168667D01*
X302597Y166803D01*
X301664Y165871D01*
X298868Y165871D01*
X300732Y165871D02*
X302597Y164007D01*
X304481Y167735D02*
X306345Y169599D01*
X306345Y164007D01*
X304481Y164007D02*
X308210Y164007D01*
X310094Y169599D02*
X313823Y169599D01*
X313823Y168667D01*
X310094Y164939D01*
X310094Y164007D01*
X463140Y176574D02*
X492600Y176574D01*
X463140Y176574D02*
X463140Y190234D01*
X492600Y190234D01*
X492600Y176574D01*
X483551Y175495D02*
X483551Y169903D01*
X483551Y175495D02*
X486347Y175495D01*
X487279Y174563D01*
X487279Y172699D01*
X486347Y171767D01*
X483551Y171767D01*
X485415Y171767D02*
X487279Y169903D01*
X489164Y169903D02*
X492892Y169903D01*
X489164Y169903D02*
X492892Y173631D01*
X492892Y174563D01*
X491960Y175495D01*
X490096Y175495D01*
X489164Y174563D01*
X492784Y151202D02*
X463324Y151202D01*
X463324Y164862D01*
X492784Y164862D01*
X492784Y151202D01*
X483734Y150123D02*
X483734Y144531D01*
X483734Y150123D02*
X486530Y150123D01*
X487463Y149191D01*
X487463Y147327D01*
X486530Y146395D01*
X483734Y146395D01*
X485598Y146395D02*
X487463Y144531D01*
X489347Y149191D02*
X490279Y150123D01*
X492144Y150123D01*
X493076Y149191D01*
X493076Y148259D01*
X492144Y147327D01*
X491211Y147327D01*
X492144Y147327D02*
X493076Y146395D01*
X493076Y145463D01*
X492144Y144531D01*
X490279Y144531D01*
X489347Y145463D01*
X492826Y125151D02*
X463366Y125151D01*
X463366Y138811D01*
X492826Y138811D01*
X492826Y125151D01*
X483776Y124072D02*
X483776Y118480D01*
X483776Y124072D02*
X486572Y124072D01*
X487504Y123140D01*
X487504Y121276D01*
X486572Y120344D01*
X483776Y120344D01*
X485640Y120344D02*
X487504Y118480D01*
X492185Y118480D02*
X492185Y124072D01*
X489389Y121276D01*
X493118Y121276D01*
X349871Y122375D02*
X349871Y92915D01*
X349871Y122375D02*
X363531Y122375D01*
X363531Y92915D01*
X349871Y92915D01*
X348787Y91247D02*
X343195Y91247D01*
X343195Y94043D01*
X344127Y94975D01*
X345991Y94975D01*
X346923Y94043D01*
X346923Y91247D01*
X346923Y93111D02*
X348787Y94975D01*
X344127Y96860D02*
X343195Y97792D01*
X343195Y99656D01*
X344127Y100588D01*
X345059Y100588D01*
X345991Y99656D01*
X346923Y100588D01*
X347855Y100588D01*
X348787Y99656D01*
X348787Y97792D01*
X347855Y96860D01*
X346923Y96860D01*
X345991Y97792D01*
X345059Y96860D01*
X344127Y96860D01*
X345991Y97792D02*
X345991Y99656D01*
X299805Y64022D02*
X270345Y64022D01*
X299805Y64022D02*
X299805Y50362D01*
X270345Y50362D01*
X270345Y64022D01*
X268676Y65105D02*
X268676Y70698D01*
X271473Y70698D01*
X272405Y69765D01*
X272405Y67901D01*
X271473Y66969D01*
X268676Y66969D01*
X270541Y66969D02*
X272405Y65105D01*
X274290Y66037D02*
X275222Y65105D01*
X277086Y65105D01*
X278018Y66037D01*
X278018Y69765D01*
X277086Y70698D01*
X275222Y70698D01*
X274290Y69765D01*
X274290Y68833D01*
X275222Y67901D01*
X278018Y67901D01*
X593488Y144590D02*
X593488Y150182D01*
X596284Y150182D01*
X597216Y149250D01*
X597216Y148318D01*
X596284Y147386D01*
X597216Y146454D01*
X597216Y145522D01*
X596284Y144590D01*
X593488Y144590D01*
X593488Y147386D02*
X596284Y147386D01*
X599101Y145522D02*
X599101Y150182D01*
X599101Y145522D02*
X600033Y144590D01*
X601897Y144590D01*
X602829Y145522D01*
X602829Y150182D01*
X604714Y150182D02*
X608442Y150182D01*
X608442Y149250D01*
X604714Y145522D01*
X604714Y144590D01*
X608442Y144590D01*
D15*
X608544Y152038D02*
X576544Y152038D01*
X576544Y184038D01*
X608544Y184038D01*
X608544Y152038D01*
D11*
X640767Y226204D02*
X644495Y226204D01*
X646380Y225272D02*
X646380Y229000D01*
X646380Y225272D02*
X648244Y223408D01*
X650108Y225272D01*
X650108Y229000D01*
X651993Y229000D02*
X655722Y229000D01*
X651993Y229000D02*
X651993Y223408D01*
X655722Y223408D01*
X653857Y226204D02*
X651993Y226204D01*
D15*
X655823Y230856D02*
X623823Y230856D01*
X623823Y262856D01*
X655823Y262856D01*
X655823Y230856D01*
D11*
X645079Y337655D02*
X641351Y337655D01*
X643215Y339519D02*
X643215Y335790D01*
X646964Y336722D02*
X646964Y340451D01*
X646964Y336722D02*
X648828Y334858D01*
X650692Y336722D01*
X650692Y340451D01*
X652577Y340451D02*
X656305Y340451D01*
X652577Y340451D02*
X652577Y334858D01*
X656305Y334858D01*
X654441Y337655D02*
X652577Y337655D01*
D15*
X656407Y342307D02*
X624407Y342307D01*
X624407Y374307D01*
X656407Y374307D01*
X656407Y342307D01*
D11*
X593599Y72868D02*
X593599Y67276D01*
X593599Y72868D02*
X596395Y72868D01*
X597328Y71936D01*
X597328Y70072D01*
X596395Y69140D01*
X593599Y69140D01*
X595463Y69140D02*
X597328Y67276D01*
X599212Y72868D02*
X602941Y72868D01*
X599212Y72868D02*
X599212Y67276D01*
X602941Y67276D01*
X601076Y70072D02*
X599212Y70072D01*
X604825Y72868D02*
X604825Y67276D01*
X608554Y67276D01*
D15*
X608655Y74724D02*
X576655Y74724D01*
X576655Y106724D01*
X608655Y106724D01*
X608655Y74724D01*
D11*
X640798Y401675D02*
X644527Y401675D01*
X640798Y401675D02*
X640798Y396082D01*
X644527Y396082D01*
X642662Y398878D02*
X640798Y398878D01*
X646411Y396082D02*
X646411Y401675D01*
X650140Y396082D01*
X650140Y401675D01*
X654821Y401675D02*
X655753Y400743D01*
X654821Y401675D02*
X652957Y401675D01*
X652024Y400743D01*
X652024Y397014D01*
X652957Y396082D01*
X654821Y396082D01*
X655753Y397014D01*
X655753Y398878D01*
X653889Y398878D01*
D15*
X655854Y403530D02*
X623854Y403530D01*
X623854Y435530D01*
X655854Y435530D01*
X655854Y403530D01*
D11*
X598818Y197525D02*
X598818Y191932D01*
X598818Y194729D02*
X602547Y194729D01*
X602547Y197525D02*
X602547Y191932D01*
X604431Y191932D02*
X604431Y197525D01*
X607228Y197525D01*
X608160Y196593D01*
X608160Y195661D01*
X607228Y194729D01*
X608160Y193797D01*
X608160Y192864D01*
X607228Y191932D01*
X604431Y191932D01*
X604431Y194729D02*
X607228Y194729D01*
D15*
X608261Y199381D02*
X576261Y199381D01*
X576261Y231381D01*
X608261Y231381D01*
X608261Y199381D01*
D11*
X641019Y173656D02*
X641019Y168063D01*
X641019Y173656D02*
X643815Y173656D01*
X644747Y172724D01*
X644747Y170860D01*
X643815Y169927D01*
X641019Y169927D01*
X648496Y168063D02*
X648496Y173656D01*
X646632Y173656D02*
X650360Y173656D01*
X653177Y173656D02*
X655041Y173656D01*
X653177Y173656D02*
X652245Y172724D01*
X652245Y168995D01*
X653177Y168063D01*
X655041Y168063D01*
X655973Y168995D01*
X655973Y172724D01*
X655041Y173656D01*
D15*
X656075Y175512D02*
X624075Y175512D01*
X624075Y207512D01*
X656075Y207512D01*
X656075Y175512D01*
D11*
X648425Y50370D02*
X649357Y49438D01*
X648425Y50370D02*
X646561Y50370D01*
X645629Y49438D01*
X645629Y48506D01*
X646561Y47574D01*
X648425Y47574D01*
X649357Y46642D01*
X649357Y45710D01*
X648425Y44778D01*
X646561Y44778D01*
X645629Y45710D01*
X654038Y50370D02*
X654970Y49438D01*
X654038Y50370D02*
X652174Y50370D01*
X651242Y49438D01*
X651242Y48506D01*
X652174Y47574D01*
X654038Y47574D01*
X654970Y46642D01*
X654970Y45710D01*
X654038Y44778D01*
X652174Y44778D01*
X651242Y45710D01*
D15*
X655072Y52226D02*
X623072Y52226D01*
X623072Y84226D01*
X655072Y84226D01*
X655072Y52226D01*
X522110Y52754D02*
X521606Y52367D01*
X521093Y51991D01*
X520571Y51628D01*
X520041Y51277D01*
X519503Y50940D01*
X518956Y50615D01*
X518402Y50303D01*
X517841Y50004D01*
X517272Y49719D01*
X516697Y49448D01*
X516116Y49190D01*
X515529Y48947D01*
X514936Y48717D01*
X514338Y48502D01*
X513735Y48301D01*
X513127Y48114D01*
X512515Y47942D01*
X511899Y47784D01*
X511279Y47642D01*
X510657Y47514D01*
X510031Y47401D01*
X509403Y47302D01*
X508773Y47219D01*
X508140Y47151D01*
X507491Y47097D01*
X506842Y47059D01*
X506191Y47037D01*
X505540Y47030D01*
X504889Y47039D01*
X504239Y47065D01*
X503589Y47106D01*
X502941Y47163D01*
X502294Y47236D01*
X501649Y47324D01*
X501006Y47429D01*
X500366Y47549D01*
X499730Y47684D01*
X499096Y47835D01*
X498467Y48002D01*
X497842Y48183D01*
X497221Y48380D01*
X496606Y48592D01*
X495996Y48819D01*
X495391Y49061D01*
X494793Y49318D01*
X494201Y49589D01*
X493616Y49874D01*
X493038Y50174D01*
X492468Y50487D01*
X491905Y50815D01*
X491351Y51156D01*
X490805Y51510D01*
X490268Y51878D01*
X489739Y52259D01*
X489221Y52652D01*
X488712Y53058D01*
X488213Y53476D01*
X487725Y53907D01*
X487247Y54349D01*
X486780Y54803D01*
X486325Y55268D01*
X485881Y55744D01*
X485448Y56230D01*
X485028Y56727D01*
X484620Y57234D01*
X484224Y57751D01*
X483841Y58278D01*
X483471Y58814D01*
X483114Y59358D01*
X482771Y59911D01*
X482441Y60472D01*
X482125Y61042D01*
X481823Y61618D01*
X481536Y62202D01*
X481262Y62793D01*
X481003Y63390D01*
X480759Y63994D01*
X480529Y64603D01*
X480315Y65217D01*
X480115Y65837D01*
X480115Y81563D02*
X480314Y82178D01*
X480526Y82789D01*
X480754Y83394D01*
X480996Y83993D01*
X481253Y84586D01*
X481524Y85173D01*
X481809Y85753D01*
X482108Y86326D01*
X482421Y86892D01*
X482748Y87450D01*
X483088Y88000D01*
X483441Y88541D01*
X483807Y89074D01*
X484186Y89597D01*
X484578Y90112D01*
X484982Y90616D01*
X485398Y91111D01*
X485825Y91596D01*
X486265Y92070D01*
X486716Y92533D01*
X487178Y92985D01*
X487651Y93426D01*
X488134Y93855D01*
X488628Y94272D01*
X489131Y94678D01*
X489644Y95071D01*
X490167Y95451D01*
X490699Y95819D01*
X491239Y96173D01*
X491788Y96515D01*
X492345Y96843D01*
X492910Y97157D01*
X493482Y97458D01*
X494061Y97745D01*
X494648Y98017D01*
X495240Y98276D01*
X495839Y98520D01*
X496443Y98749D01*
X497053Y98963D01*
X497668Y99163D01*
X498287Y99348D01*
X498911Y99518D01*
X499539Y99672D01*
X500170Y99811D01*
X500804Y99935D01*
X501441Y100044D01*
X502081Y100137D01*
X502723Y100214D01*
X503366Y100276D01*
X504011Y100323D01*
X504657Y100353D01*
X505303Y100368D01*
X505949Y100368D01*
X506596Y100351D01*
X507241Y100319D01*
X507886Y100272D01*
X508529Y100209D01*
X509171Y100130D01*
X509810Y100036D01*
X510447Y99926D01*
X511082Y99801D01*
X511713Y99660D01*
X512340Y99504D01*
X512963Y99333D01*
X513582Y99147D01*
X514197Y98946D01*
X514806Y98731D01*
X515410Y98500D01*
X516008Y98255D01*
X516600Y97996D01*
X517186Y97722D01*
X517765Y97434D01*
X518336Y97132D01*
X518900Y96817D01*
X519457Y96488D01*
X520005Y96145D01*
X520545Y95789D01*
X521076Y95421D01*
X521598Y95039D01*
X522110Y94645D01*
X522110Y52755D01*
X508140Y51163D02*
X508140Y47151D01*
X508140Y70837D02*
X508140Y76563D01*
X508140Y96237D02*
X508140Y100249D01*
D11*
X513143Y60880D02*
X518735Y60880D01*
X513143Y59016D02*
X513143Y62744D01*
X515007Y64629D02*
X513143Y66493D01*
X518735Y66493D01*
X518735Y64629D02*
X518735Y68357D01*
D15*
X475600Y45700D02*
X475600Y101700D01*
X523600Y101700D01*
X523600Y45700D01*
X475600Y45700D01*
D12*
X170171Y41540D02*
X170171Y25270D01*
X170171Y30693D02*
X181018Y41540D01*
X172883Y33405D02*
X181018Y25270D01*
X186543Y25270D02*
X197390Y25270D01*
X197390Y36116D02*
X186543Y25270D01*
X197390Y36116D02*
X197390Y38828D01*
X194678Y41540D01*
X189255Y41540D01*
X186543Y38828D01*
D15*
X9800Y46600D02*
X9800Y275600D01*
X9800Y46600D02*
X200800Y46600D01*
X200800Y275600D01*
X9800Y275600D01*
D11*
X302470Y38370D02*
X331930Y38370D01*
X302470Y38370D02*
X302470Y50030D01*
X331930Y50030D01*
X331930Y38370D01*
X320385Y36482D02*
X319453Y37414D01*
X317589Y37414D01*
X316657Y36482D01*
X316657Y32754D01*
X317589Y31822D01*
X319453Y31822D01*
X320385Y32754D01*
X322270Y35550D02*
X324134Y37414D01*
X324134Y31822D01*
X322270Y31822D02*
X325998Y31822D01*
X327883Y32754D02*
X327883Y36482D01*
X328815Y37414D01*
X330679Y37414D01*
X331611Y36482D01*
X331611Y32754D01*
X330679Y31822D01*
X328815Y31822D01*
X327883Y32754D01*
X331611Y36482D01*
D12*
X69620Y31620D02*
X67080Y31620D01*
X67080Y29080D01*
X82320Y29080D02*
X82320Y31620D01*
X79780Y31620D01*
X82320Y18920D02*
X82320Y16380D01*
X79780Y16380D01*
X69620Y16380D02*
X67080Y16380D01*
X67080Y18920D01*
D15*
X69066Y32396D02*
X80505Y32396D01*
X80505Y38116D01*
X78599Y40022D01*
X70972Y40022D01*
X69066Y38116D01*
X69066Y32396D01*
X72879Y44090D02*
X80505Y44090D01*
X72879Y44090D02*
X69066Y47903D01*
X72879Y51716D01*
X80505Y51716D01*
X74785Y51716D02*
X74785Y44090D01*
X69066Y59597D02*
X80505Y59597D01*
X69066Y55784D02*
X69066Y63410D01*
X65700Y33000D02*
X83700Y33000D01*
X83700Y15000D01*
X65700Y15000D01*
X65700Y33000D01*
D12*
X43620Y31820D02*
X41080Y31820D01*
X41080Y29280D01*
X56320Y29280D02*
X56320Y31820D01*
X53780Y31820D01*
X56320Y19120D02*
X56320Y16580D01*
X53780Y16580D01*
X43620Y16580D02*
X41080Y16580D01*
X41080Y19120D01*
D15*
X43066Y38316D02*
X44972Y40222D01*
X43066Y38316D02*
X43066Y34502D01*
X44972Y32596D01*
X52599Y32596D01*
X54505Y34502D01*
X54505Y38316D01*
X52599Y40222D01*
X54505Y44290D02*
X43066Y44290D01*
X54505Y44290D02*
X54505Y51916D01*
X54505Y55984D02*
X43066Y55984D01*
X50692Y55984D02*
X43066Y63610D01*
X48785Y57890D02*
X54505Y63610D01*
X57700Y33200D02*
X39700Y33200D01*
X57700Y33200D02*
X57700Y15200D01*
X39700Y15200D01*
X39700Y33200D01*
D12*
X143180Y32020D02*
X145720Y32020D01*
X143180Y32020D02*
X143180Y29480D01*
X158420Y29480D02*
X158420Y32020D01*
X155880Y32020D01*
X158420Y19320D02*
X158420Y16780D01*
X155880Y16780D01*
X145720Y16780D02*
X143180Y16780D01*
X143180Y19320D01*
D15*
X145166Y38516D02*
X147072Y40422D01*
X145166Y38516D02*
X145166Y34702D01*
X147072Y32796D01*
X154699Y32796D01*
X156605Y34702D01*
X156605Y38516D01*
X154699Y40422D01*
X156605Y44490D02*
X145166Y44490D01*
X145166Y50210D01*
X147072Y52116D01*
X150885Y52116D01*
X152792Y50210D01*
X152792Y44490D01*
X152792Y48303D02*
X156605Y52116D01*
X159800Y33400D02*
X141800Y33400D01*
X159800Y33400D02*
X159800Y15400D01*
X141800Y15400D01*
X141800Y33400D01*
D12*
X95020Y31920D02*
X92480Y31920D01*
X92480Y29380D01*
X107720Y29380D02*
X107720Y31920D01*
X105180Y31920D01*
X107720Y19220D02*
X107720Y16680D01*
X105180Y16680D01*
X95020Y16680D02*
X92480Y16680D01*
X92480Y19220D01*
D15*
X94466Y38416D02*
X96372Y40322D01*
X94466Y38416D02*
X94466Y34602D01*
X96372Y32696D01*
X103999Y32696D01*
X105905Y34602D01*
X105905Y38416D01*
X103999Y40322D01*
X100185Y40322D01*
X100185Y36509D01*
X105905Y44390D02*
X94466Y44390D01*
X105905Y52016D01*
X94466Y52016D01*
X94466Y56084D02*
X105905Y56084D01*
X105905Y61804D01*
X103999Y63710D01*
X96372Y63710D01*
X94466Y61804D01*
X94466Y56084D01*
X91100Y33300D02*
X109100Y33300D01*
X109100Y15300D01*
X91100Y15300D01*
X91100Y33300D01*
D12*
X117580Y31920D02*
X120120Y31920D01*
X117580Y31920D02*
X117580Y29380D01*
X132820Y29380D02*
X132820Y31920D01*
X130280Y31920D01*
X132820Y19220D02*
X132820Y16680D01*
X130280Y16680D01*
X120120Y16680D02*
X117580Y16680D01*
X117580Y19220D01*
D15*
X119566Y32696D02*
X127192Y32696D01*
X131005Y36509D01*
X127192Y40322D01*
X119566Y40322D01*
X119566Y50110D02*
X121472Y52016D01*
X119566Y50110D02*
X119566Y46296D01*
X121472Y44390D01*
X129099Y44390D01*
X131005Y46296D01*
X131005Y50110D01*
X129099Y52016D01*
X119566Y61804D02*
X121472Y63710D01*
X119566Y61804D02*
X119566Y57990D01*
X121472Y56084D01*
X129099Y56084D01*
X131005Y57990D01*
X131005Y61804D01*
X129099Y63710D01*
X134200Y33300D02*
X116200Y33300D01*
X134200Y33300D02*
X134200Y15300D01*
X116200Y15300D01*
X116200Y33300D01*
D17*
X277543Y347346D02*
X382448Y347455D01*
X382527Y292168D02*
X277646Y292155D01*
X382527Y292168D02*
X382527Y348108D01*
X277594Y347964D02*
X277646Y292155D01*
D18*
X274492Y319026D02*
X262798Y319026D01*
X262798Y324873D01*
X264747Y326822D01*
X268645Y326822D01*
X270594Y324873D01*
X270594Y319026D01*
X270594Y322924D02*
X274492Y326822D01*
X274492Y330720D02*
X274492Y338516D01*
X274492Y330720D02*
X266696Y338516D01*
X264747Y338516D01*
X262798Y336567D01*
X262798Y332669D01*
X264747Y330720D01*
X264747Y342414D02*
X272543Y342414D01*
X264747Y342414D02*
X262798Y344363D01*
X262798Y348261D01*
X264747Y350210D01*
X272543Y350210D01*
X274492Y348261D01*
X274492Y344363D01*
X272543Y342414D01*
X264747Y350210D01*
D15*
X277400Y291300D02*
X383400Y291300D01*
X277400Y291300D02*
X277400Y348300D01*
X383400Y348300D01*
X383400Y291300D01*
D11*
X389770Y353070D02*
X419230Y353070D01*
X389770Y353070D02*
X389770Y372730D01*
X419230Y372730D01*
X419230Y353070D01*
D14*
X423674Y348172D02*
X427487Y348172D01*
X423674Y348172D02*
X423674Y350714D01*
X425580Y349443D02*
X425580Y348172D01*
X423674Y351914D02*
X423674Y354456D01*
X423674Y351914D02*
X427487Y351914D01*
X427487Y354456D01*
X425580Y353185D02*
X425580Y351914D01*
X427487Y355656D02*
X423674Y355656D01*
X423674Y357563D01*
X424309Y358198D01*
X425580Y358198D01*
X426216Y357563D01*
X426216Y355656D01*
X426216Y356927D02*
X427487Y358198D01*
X427487Y359398D02*
X427487Y360669D01*
X427487Y360034D02*
X423674Y360034D01*
X423674Y360669D02*
X423674Y359398D01*
X423674Y363164D02*
X427487Y363164D01*
X423674Y361893D02*
X423674Y364435D01*
X423674Y365635D02*
X423674Y368177D01*
X423674Y365635D02*
X427487Y365635D01*
X427487Y368177D01*
X425580Y366906D02*
X425580Y365635D01*
D12*
X383050Y372340D02*
X383050Y392660D01*
D11*
X370350Y393930D02*
X300500Y393930D01*
X300500Y371070D02*
X230650Y371070D01*
X275100Y374880D02*
X300500Y374880D01*
X300500Y390120D02*
X325900Y390120D01*
D12*
X337330Y359640D02*
X281450Y359640D01*
X263670Y405360D02*
X319550Y405360D01*
X319708Y405358D01*
X319867Y405352D01*
X320025Y405342D01*
X320182Y405328D01*
X320340Y405311D01*
X320496Y405289D01*
X320653Y405264D01*
X320808Y405234D01*
X320963Y405201D01*
X321117Y405164D01*
X321270Y405123D01*
X321422Y405078D01*
X321572Y405029D01*
X321722Y404977D01*
X321870Y404921D01*
X322017Y404861D01*
X322162Y404798D01*
X322305Y404731D01*
X322447Y404661D01*
X322587Y404587D01*
X322725Y404509D01*
X322861Y404428D01*
X322995Y404344D01*
X323127Y404257D01*
X323257Y404166D01*
X323384Y404072D01*
X323509Y403975D01*
X323632Y403874D01*
X323752Y403771D01*
X323869Y403665D01*
X323984Y403556D01*
X324096Y403444D01*
X324205Y403329D01*
X324311Y403212D01*
X324414Y403092D01*
X324515Y402969D01*
X324612Y402844D01*
X324706Y402717D01*
X324797Y402587D01*
X324884Y402455D01*
X324968Y402321D01*
X325049Y402185D01*
X325127Y402047D01*
X325201Y401907D01*
X325271Y401765D01*
X325338Y401622D01*
X325401Y401477D01*
X325461Y401330D01*
X325517Y401182D01*
X325569Y401032D01*
X325618Y400882D01*
X325663Y400730D01*
X325704Y400577D01*
X325741Y400423D01*
X325774Y400268D01*
X325804Y400113D01*
X325829Y399956D01*
X325851Y399800D01*
X325868Y399642D01*
X325882Y399485D01*
X325892Y399327D01*
X325898Y399168D01*
X325900Y399010D01*
X281450Y359640D02*
X281292Y359642D01*
X281133Y359648D01*
X280975Y359658D01*
X280818Y359672D01*
X280660Y359689D01*
X280504Y359711D01*
X280347Y359736D01*
X280192Y359766D01*
X280037Y359799D01*
X279883Y359836D01*
X279730Y359877D01*
X279578Y359922D01*
X279428Y359971D01*
X279278Y360023D01*
X279130Y360079D01*
X278983Y360139D01*
X278838Y360202D01*
X278695Y360269D01*
X278553Y360339D01*
X278413Y360413D01*
X278275Y360491D01*
X278139Y360572D01*
X278005Y360656D01*
X277873Y360743D01*
X277743Y360834D01*
X277616Y360928D01*
X277491Y361025D01*
X277368Y361126D01*
X277248Y361229D01*
X277131Y361335D01*
X277016Y361444D01*
X276904Y361556D01*
X276795Y361671D01*
X276689Y361788D01*
X276586Y361908D01*
X276485Y362031D01*
X276388Y362156D01*
X276294Y362283D01*
X276203Y362413D01*
X276116Y362545D01*
X276032Y362679D01*
X275951Y362815D01*
X275873Y362953D01*
X275799Y363093D01*
X275729Y363235D01*
X275662Y363378D01*
X275599Y363523D01*
X275539Y363670D01*
X275483Y363818D01*
X275431Y363968D01*
X275382Y364118D01*
X275337Y364270D01*
X275296Y364423D01*
X275259Y364577D01*
X275226Y364732D01*
X275196Y364887D01*
X275171Y365044D01*
X275149Y365200D01*
X275132Y365358D01*
X275118Y365515D01*
X275108Y365673D01*
X275102Y365832D01*
X275100Y365990D01*
X224300Y365990D02*
X327170Y365990D01*
X376700Y399010D02*
X273830Y399010D01*
X224300Y365990D02*
X224142Y365992D01*
X223983Y365998D01*
X223825Y366008D01*
X223668Y366022D01*
X223510Y366039D01*
X223354Y366061D01*
X223197Y366086D01*
X223042Y366116D01*
X222887Y366149D01*
X222733Y366186D01*
X222580Y366227D01*
X222428Y366272D01*
X222278Y366321D01*
X222128Y366373D01*
X221980Y366429D01*
X221833Y366489D01*
X221688Y366552D01*
X221545Y366619D01*
X221403Y366689D01*
X221263Y366763D01*
X221125Y366841D01*
X220989Y366922D01*
X220855Y367006D01*
X220723Y367093D01*
X220593Y367184D01*
X220466Y367278D01*
X220341Y367375D01*
X220218Y367476D01*
X220098Y367579D01*
X219981Y367685D01*
X219866Y367794D01*
X219754Y367906D01*
X219645Y368021D01*
X219539Y368138D01*
X219436Y368258D01*
X219335Y368381D01*
X219238Y368506D01*
X219144Y368633D01*
X219053Y368763D01*
X218966Y368895D01*
X218882Y369029D01*
X218801Y369165D01*
X218723Y369303D01*
X218649Y369443D01*
X218579Y369585D01*
X218512Y369728D01*
X218449Y369873D01*
X218389Y370020D01*
X218333Y370168D01*
X218281Y370318D01*
X218232Y370468D01*
X218187Y370620D01*
X218146Y370773D01*
X218109Y370927D01*
X218076Y371082D01*
X218046Y371237D01*
X218021Y371394D01*
X217999Y371550D01*
X217982Y371708D01*
X217968Y371865D01*
X217958Y372023D01*
X217952Y372182D01*
X217950Y372340D01*
X217950Y392660D02*
X217952Y392818D01*
X217958Y392977D01*
X217968Y393135D01*
X217982Y393292D01*
X217999Y393450D01*
X218021Y393606D01*
X218046Y393763D01*
X218076Y393918D01*
X218109Y394073D01*
X218146Y394227D01*
X218187Y394380D01*
X218232Y394532D01*
X218281Y394682D01*
X218333Y394832D01*
X218389Y394980D01*
X218449Y395127D01*
X218512Y395272D01*
X218579Y395415D01*
X218649Y395557D01*
X218723Y395697D01*
X218801Y395835D01*
X218882Y395971D01*
X218966Y396105D01*
X219053Y396237D01*
X219144Y396367D01*
X219238Y396494D01*
X219335Y396619D01*
X219436Y396742D01*
X219539Y396862D01*
X219645Y396979D01*
X219754Y397094D01*
X219866Y397206D01*
X219981Y397315D01*
X220098Y397421D01*
X220218Y397524D01*
X220341Y397625D01*
X220466Y397722D01*
X220593Y397816D01*
X220723Y397907D01*
X220855Y397994D01*
X220989Y398078D01*
X221125Y398159D01*
X221263Y398237D01*
X221403Y398311D01*
X221545Y398381D01*
X221688Y398448D01*
X221833Y398511D01*
X221980Y398571D01*
X222128Y398627D01*
X222278Y398679D01*
X222428Y398728D01*
X222580Y398773D01*
X222733Y398814D01*
X222887Y398851D01*
X223042Y398884D01*
X223197Y398914D01*
X223354Y398939D01*
X223510Y398961D01*
X223668Y398978D01*
X223825Y398992D01*
X223983Y399002D01*
X224142Y399008D01*
X224300Y399010D01*
X376700Y399010D02*
X376858Y399008D01*
X377017Y399002D01*
X377175Y398992D01*
X377332Y398978D01*
X377490Y398961D01*
X377646Y398939D01*
X377803Y398914D01*
X377958Y398884D01*
X378113Y398851D01*
X378267Y398814D01*
X378420Y398773D01*
X378572Y398728D01*
X378722Y398679D01*
X378872Y398627D01*
X379020Y398571D01*
X379167Y398511D01*
X379312Y398448D01*
X379455Y398381D01*
X379597Y398311D01*
X379737Y398237D01*
X379875Y398159D01*
X380011Y398078D01*
X380145Y397994D01*
X380277Y397907D01*
X380407Y397816D01*
X380534Y397722D01*
X380659Y397625D01*
X380782Y397524D01*
X380902Y397421D01*
X381019Y397315D01*
X381134Y397206D01*
X381246Y397094D01*
X381355Y396979D01*
X381461Y396862D01*
X381564Y396742D01*
X381665Y396619D01*
X381762Y396494D01*
X381856Y396367D01*
X381947Y396237D01*
X382034Y396105D01*
X382118Y395971D01*
X382199Y395835D01*
X382277Y395697D01*
X382351Y395557D01*
X382421Y395415D01*
X382488Y395272D01*
X382551Y395127D01*
X382611Y394980D01*
X382667Y394832D01*
X382719Y394682D01*
X382768Y394532D01*
X382813Y394380D01*
X382854Y394227D01*
X382891Y394073D01*
X382924Y393918D01*
X382954Y393763D01*
X382979Y393606D01*
X383001Y393450D01*
X383018Y393292D01*
X383032Y393135D01*
X383042Y392977D01*
X383048Y392818D01*
X383050Y392660D01*
X383050Y372340D02*
X383048Y372182D01*
X383042Y372023D01*
X383032Y371865D01*
X383018Y371708D01*
X383001Y371550D01*
X382979Y371394D01*
X382954Y371237D01*
X382924Y371082D01*
X382891Y370927D01*
X382854Y370773D01*
X382813Y370620D01*
X382768Y370468D01*
X382719Y370318D01*
X382667Y370168D01*
X382611Y370020D01*
X382551Y369873D01*
X382488Y369728D01*
X382421Y369585D01*
X382351Y369443D01*
X382277Y369303D01*
X382199Y369165D01*
X382118Y369029D01*
X382034Y368895D01*
X381947Y368763D01*
X381856Y368633D01*
X381762Y368506D01*
X381665Y368381D01*
X381564Y368258D01*
X381461Y368138D01*
X381355Y368021D01*
X381246Y367906D01*
X381134Y367794D01*
X381019Y367685D01*
X380902Y367579D01*
X380782Y367476D01*
X380659Y367375D01*
X380534Y367278D01*
X380407Y367184D01*
X380277Y367093D01*
X380145Y367006D01*
X380011Y366922D01*
X379875Y366841D01*
X379737Y366763D01*
X379597Y366689D01*
X379455Y366619D01*
X379312Y366552D01*
X379167Y366489D01*
X379020Y366429D01*
X378872Y366373D01*
X378722Y366321D01*
X378572Y366272D01*
X378420Y366227D01*
X378267Y366186D01*
X378113Y366149D01*
X377958Y366116D01*
X377803Y366086D01*
X377646Y366061D01*
X377490Y366039D01*
X377332Y366022D01*
X377175Y366008D01*
X377017Y365998D01*
X376858Y365992D01*
X376700Y365990D01*
X217950Y372340D02*
X217950Y392660D01*
X350030Y365990D02*
X376700Y365990D01*
X250970Y399010D02*
X224300Y399010D01*
D15*
X237635Y409805D02*
X237635Y421245D01*
X243355Y421245D01*
X245262Y419338D01*
X245262Y415525D01*
X243355Y413618D01*
X237635Y413618D01*
X241448Y413618D02*
X245262Y409805D01*
X249329Y417432D02*
X253142Y421245D01*
X253142Y409805D01*
X249329Y409805D02*
X256955Y409805D01*
X261023Y411712D02*
X261023Y419338D01*
X262930Y421245D01*
X266743Y421245D01*
X268649Y419338D01*
X268649Y411712D01*
X266743Y409805D01*
X262930Y409805D01*
X261023Y411712D01*
X268649Y419338D01*
D12*
X56660Y305200D02*
X55390Y305200D01*
D13*
X56660Y305200D02*
X56660Y297580D01*
X56660Y305200D02*
X56660Y312820D01*
X61740Y305200D02*
X61740Y297580D01*
X61740Y305200D02*
X61740Y312820D01*
D12*
X61740Y305200D02*
X63010Y305200D01*
D11*
X60752Y292094D02*
X61684Y291161D01*
X60752Y292094D02*
X58888Y292094D01*
X57956Y291161D01*
X57956Y287433D01*
X58888Y286501D01*
X60752Y286501D01*
X61684Y287433D01*
X63569Y290229D02*
X65433Y292094D01*
X65433Y286501D01*
X63569Y286501D02*
X67297Y286501D01*
X69182Y290229D02*
X71046Y292094D01*
X71046Y286501D01*
X69182Y286501D02*
X72910Y286501D01*
D14*
X81025Y296091D02*
X81120Y296091D01*
D15*
X75900Y294400D02*
X76159Y294407D01*
X76418Y294420D01*
X76677Y294439D01*
X76935Y294465D01*
X77192Y294497D01*
X77449Y294535D01*
X77705Y294580D01*
X77959Y294631D01*
X78212Y294687D01*
X78464Y294750D01*
X78714Y294820D01*
X78962Y294895D01*
X79208Y294976D01*
X79453Y295063D01*
X79695Y295156D01*
X79934Y295255D01*
X80172Y295360D01*
X80406Y295471D01*
X80638Y295587D01*
X80867Y295709D01*
X81093Y295836D01*
X81316Y295969D01*
X81535Y296107D01*
X81751Y296251D01*
X81964Y296399D01*
X82173Y296553D01*
X82378Y296712D01*
X82579Y296876D01*
X82776Y297045D01*
X82969Y297218D01*
X83157Y297396D01*
X83341Y297579D01*
X83521Y297766D01*
X83696Y297958D01*
X83866Y298153D01*
X84032Y298353D01*
X84193Y298556D01*
X84348Y298764D01*
X84499Y298975D01*
X84644Y299190D01*
X84784Y299408D01*
X84919Y299630D01*
X85048Y299855D01*
X85172Y300083D01*
X85290Y300314D01*
X85403Y300548D01*
X85509Y300784D01*
X85610Y301023D01*
X85705Y301264D01*
X85795Y301508D01*
X85878Y301753D01*
X85955Y302001D01*
X86026Y302250D01*
X86092Y302501D01*
X86151Y302754D01*
X86203Y303008D01*
X86250Y303263D01*
X86290Y303519D01*
X86325Y303776D01*
X86352Y304034D01*
X86374Y304293D01*
X86389Y304552D01*
X86398Y304811D01*
X86401Y305070D01*
X86397Y305330D01*
X86387Y305589D01*
X86371Y305848D01*
X86349Y306106D01*
X86320Y306364D01*
X86285Y306621D01*
X86243Y306877D01*
X86196Y307132D01*
X86142Y307386D01*
X86082Y307638D01*
X86016Y307889D01*
X85944Y308138D01*
X85865Y308385D01*
X85781Y308631D01*
X85691Y308874D01*
X85595Y309115D01*
X85493Y309353D01*
X85385Y309589D01*
X85272Y309823D01*
X85153Y310053D01*
X85028Y310280D01*
X84898Y310505D01*
X84763Y310726D01*
X84622Y310944D01*
X84476Y311158D01*
X84324Y311369D01*
X84168Y311576D01*
X84006Y311779D01*
X83840Y311978D01*
X83669Y312173D01*
X83493Y312363D01*
X83313Y312550D01*
X83128Y312732D01*
X82939Y312909D01*
X82745Y313082D01*
X82548Y313250D01*
X82346Y313413D01*
X82140Y313571D01*
X81931Y313724D01*
X81718Y313872D01*
X81501Y314015D01*
X81281Y314152D01*
X81058Y314284D01*
X80831Y314411D01*
X80602Y314532D01*
X80370Y314647D01*
X80135Y314757D01*
X79897Y314861D01*
X79657Y314959D01*
X79414Y315051D01*
X79170Y315137D01*
X78923Y315217D01*
X78675Y315292D01*
X78424Y315360D01*
X78172Y315422D01*
X77919Y315478D01*
X77665Y315527D01*
X77409Y315571D01*
X77152Y315608D01*
X76895Y315639D01*
X76637Y315664D01*
X76378Y315682D01*
X76119Y315695D01*
X75859Y315700D01*
X75600Y315700D01*
X42100Y315700D02*
X41841Y315693D01*
X41582Y315680D01*
X41323Y315661D01*
X41065Y315635D01*
X40808Y315603D01*
X40551Y315565D01*
X40295Y315520D01*
X40041Y315469D01*
X39788Y315413D01*
X39536Y315350D01*
X39286Y315280D01*
X39038Y315205D01*
X38792Y315124D01*
X38547Y315037D01*
X38305Y314944D01*
X38066Y314845D01*
X37828Y314740D01*
X37594Y314629D01*
X37362Y314513D01*
X37133Y314391D01*
X36907Y314264D01*
X36684Y314131D01*
X36465Y313993D01*
X36249Y313849D01*
X36036Y313701D01*
X35827Y313547D01*
X35622Y313388D01*
X35421Y313224D01*
X35224Y313055D01*
X35031Y312882D01*
X34843Y312704D01*
X34659Y312521D01*
X34479Y312334D01*
X34304Y312142D01*
X34134Y311947D01*
X33968Y311747D01*
X33807Y311544D01*
X33652Y311336D01*
X33501Y311125D01*
X33356Y310910D01*
X33216Y310692D01*
X33081Y310470D01*
X32952Y310245D01*
X32828Y310017D01*
X32710Y309786D01*
X32597Y309552D01*
X32491Y309316D01*
X32390Y309077D01*
X32295Y308836D01*
X32205Y308592D01*
X32122Y308347D01*
X32045Y308099D01*
X31974Y307850D01*
X31908Y307599D01*
X31849Y307346D01*
X31797Y307092D01*
X31750Y306837D01*
X31710Y306581D01*
X31675Y306324D01*
X31648Y306066D01*
X31626Y305807D01*
X31611Y305548D01*
X31602Y305289D01*
X31599Y305030D01*
X31603Y304770D01*
X31613Y304511D01*
X31629Y304252D01*
X31651Y303994D01*
X31680Y303736D01*
X31715Y303479D01*
X31757Y303223D01*
X31804Y302968D01*
X31858Y302714D01*
X31918Y302462D01*
X31984Y302211D01*
X32056Y301962D01*
X32135Y301715D01*
X32219Y301469D01*
X32309Y301226D01*
X32405Y300985D01*
X32507Y300747D01*
X32615Y300511D01*
X32728Y300277D01*
X32847Y300047D01*
X32972Y299820D01*
X33102Y299595D01*
X33237Y299374D01*
X33378Y299156D01*
X33524Y298942D01*
X33676Y298731D01*
X33832Y298524D01*
X33994Y298321D01*
X34160Y298122D01*
X34331Y297927D01*
X34507Y297737D01*
X34687Y297550D01*
X34872Y297368D01*
X35061Y297191D01*
X35255Y297018D01*
X35452Y296850D01*
X35654Y296687D01*
X35860Y296529D01*
X36069Y296376D01*
X36282Y296228D01*
X36499Y296085D01*
X36719Y295948D01*
X36942Y295816D01*
X37169Y295689D01*
X37398Y295568D01*
X37630Y295453D01*
X37865Y295343D01*
X38103Y295239D01*
X38343Y295141D01*
X38586Y295049D01*
X38830Y294963D01*
X39077Y294883D01*
X39325Y294808D01*
X39576Y294740D01*
X39828Y294678D01*
X40081Y294622D01*
X40335Y294573D01*
X40591Y294529D01*
X40848Y294492D01*
X41105Y294461D01*
X41363Y294436D01*
X41622Y294418D01*
X41881Y294405D01*
X42141Y294400D01*
X42400Y294400D01*
X75900Y294400D01*
X75600Y315700D02*
X42100Y315700D01*
X33800Y305200D02*
X33808Y305823D01*
X33831Y306446D01*
X33869Y307069D01*
X33922Y307690D01*
X33991Y308309D01*
X34075Y308927D01*
X34174Y309542D01*
X34288Y310155D01*
X34417Y310765D01*
X34561Y311372D01*
X34720Y311975D01*
X34894Y312573D01*
X35082Y313168D01*
X35285Y313757D01*
X35502Y314341D01*
X35733Y314920D01*
X35979Y315493D01*
X36239Y316060D01*
X36512Y316620D01*
X36799Y317173D01*
X37100Y317720D01*
X37414Y318258D01*
X37741Y318789D01*
X38081Y319311D01*
X38433Y319826D01*
X38799Y320331D01*
X39176Y320827D01*
X39566Y321314D01*
X39967Y321791D01*
X40380Y322258D01*
X40804Y322714D01*
X41239Y323161D01*
X41686Y323596D01*
X42142Y324020D01*
X42609Y324433D01*
X43086Y324834D01*
X43573Y325224D01*
X44069Y325601D01*
X44574Y325967D01*
X45089Y326319D01*
X45611Y326659D01*
X46142Y326986D01*
X46680Y327300D01*
X47227Y327601D01*
X47780Y327888D01*
X48340Y328161D01*
X48907Y328421D01*
X49480Y328667D01*
X50059Y328898D01*
X50643Y329115D01*
X51232Y329318D01*
X51827Y329506D01*
X52425Y329680D01*
X53028Y329839D01*
X53635Y329983D01*
X54245Y330112D01*
X54858Y330226D01*
X55473Y330325D01*
X56091Y330409D01*
X56710Y330478D01*
X57331Y330531D01*
X57954Y330569D01*
X58577Y330592D01*
X59200Y330600D01*
X59823Y330592D01*
X60446Y330569D01*
X61069Y330531D01*
X61690Y330478D01*
X62309Y330409D01*
X62927Y330325D01*
X63542Y330226D01*
X64155Y330112D01*
X64765Y329983D01*
X65372Y329839D01*
X65975Y329680D01*
X66573Y329506D01*
X67168Y329318D01*
X67757Y329115D01*
X68341Y328898D01*
X68920Y328667D01*
X69493Y328421D01*
X70060Y328161D01*
X70620Y327888D01*
X71173Y327601D01*
X71720Y327300D01*
X72258Y326986D01*
X72789Y326659D01*
X73311Y326319D01*
X73826Y325967D01*
X74331Y325601D01*
X74827Y325224D01*
X75314Y324834D01*
X75791Y324433D01*
X76258Y324020D01*
X76714Y323596D01*
X77161Y323161D01*
X77596Y322714D01*
X78020Y322258D01*
X78433Y321791D01*
X78834Y321314D01*
X79224Y320827D01*
X79601Y320331D01*
X79967Y319826D01*
X80319Y319311D01*
X80659Y318789D01*
X80986Y318258D01*
X81300Y317720D01*
X81601Y317173D01*
X81888Y316620D01*
X82161Y316060D01*
X82421Y315493D01*
X82667Y314920D01*
X82898Y314341D01*
X83115Y313757D01*
X83318Y313168D01*
X83506Y312573D01*
X83680Y311975D01*
X83839Y311372D01*
X83983Y310765D01*
X84112Y310155D01*
X84226Y309542D01*
X84325Y308927D01*
X84409Y308309D01*
X84478Y307690D01*
X84531Y307069D01*
X84569Y306446D01*
X84592Y305823D01*
X84600Y305200D01*
X84592Y304577D01*
X84569Y303954D01*
X84531Y303331D01*
X84478Y302710D01*
X84409Y302091D01*
X84325Y301473D01*
X84226Y300858D01*
X84112Y300245D01*
X83983Y299635D01*
X83839Y299028D01*
X83680Y298425D01*
X83506Y297827D01*
X83318Y297232D01*
X83115Y296643D01*
X82898Y296059D01*
X82667Y295480D01*
X82421Y294907D01*
X82161Y294340D01*
X81888Y293780D01*
X81601Y293227D01*
X81300Y292680D01*
X80986Y292142D01*
X80659Y291611D01*
X80319Y291089D01*
X79967Y290574D01*
X79601Y290069D01*
X79224Y289573D01*
X78834Y289086D01*
X78433Y288609D01*
X78020Y288142D01*
X77596Y287686D01*
X77161Y287239D01*
X76714Y286804D01*
X76258Y286380D01*
X75791Y285967D01*
X75314Y285566D01*
X74827Y285176D01*
X74331Y284799D01*
X73826Y284433D01*
X73311Y284081D01*
X72789Y283741D01*
X72258Y283414D01*
X71720Y283100D01*
X71173Y282799D01*
X70620Y282512D01*
X70060Y282239D01*
X69493Y281979D01*
X68920Y281733D01*
X68341Y281502D01*
X67757Y281285D01*
X67168Y281082D01*
X66573Y280894D01*
X65975Y280720D01*
X65372Y280561D01*
X64765Y280417D01*
X64155Y280288D01*
X63542Y280174D01*
X62927Y280075D01*
X62309Y279991D01*
X61690Y279922D01*
X61069Y279869D01*
X60446Y279831D01*
X59823Y279808D01*
X59200Y279800D01*
X58577Y279808D01*
X57954Y279831D01*
X57331Y279869D01*
X56710Y279922D01*
X56091Y279991D01*
X55473Y280075D01*
X54858Y280174D01*
X54245Y280288D01*
X53635Y280417D01*
X53028Y280561D01*
X52425Y280720D01*
X51827Y280894D01*
X51232Y281082D01*
X50643Y281285D01*
X50059Y281502D01*
X49480Y281733D01*
X48907Y281979D01*
X48340Y282239D01*
X47780Y282512D01*
X47227Y282799D01*
X46680Y283100D01*
X46142Y283414D01*
X45611Y283741D01*
X45089Y284081D01*
X44574Y284433D01*
X44069Y284799D01*
X43573Y285176D01*
X43086Y285566D01*
X42609Y285967D01*
X42142Y286380D01*
X41686Y286804D01*
X41239Y287239D01*
X40804Y287686D01*
X40380Y288142D01*
X39967Y288609D01*
X39566Y289086D01*
X39176Y289573D01*
X38799Y290069D01*
X38433Y290574D01*
X38081Y291089D01*
X37741Y291611D01*
X37414Y292142D01*
X37100Y292680D01*
X36799Y293227D01*
X36512Y293780D01*
X36239Y294340D01*
X35979Y294907D01*
X35733Y295480D01*
X35502Y296059D01*
X35285Y296643D01*
X35082Y297232D01*
X34894Y297827D01*
X34720Y298425D01*
X34561Y299028D01*
X34417Y299635D01*
X34288Y300245D01*
X34174Y300858D01*
X34075Y301473D01*
X33991Y302091D01*
X33922Y302710D01*
X33869Y303331D01*
X33831Y303954D01*
X33808Y304577D01*
X33800Y305200D01*
D19*
X554752Y381100D02*
X554752Y387450D01*
X554752Y381100D02*
X554752Y374750D01*
D12*
X554752Y381100D02*
X542560Y381100D01*
D19*
X561102Y381100D02*
X561102Y387450D01*
X561102Y381100D02*
X561102Y374750D01*
D12*
X561102Y381100D02*
X573040Y381100D01*
X520970Y401420D02*
X520970Y360780D01*
X523510Y358240D02*
X592090Y358240D01*
X594630Y360780D02*
X594630Y401420D01*
X592090Y403960D02*
X523510Y403960D01*
X592090Y403960D02*
X592190Y403958D01*
X592289Y403952D01*
X592389Y403942D01*
X592487Y403929D01*
X592586Y403911D01*
X592683Y403890D01*
X592779Y403865D01*
X592875Y403836D01*
X592969Y403803D01*
X593062Y403767D01*
X593153Y403727D01*
X593243Y403683D01*
X593331Y403636D01*
X593417Y403586D01*
X593501Y403532D01*
X593583Y403475D01*
X593662Y403415D01*
X593740Y403351D01*
X593814Y403285D01*
X593886Y403216D01*
X593955Y403144D01*
X594021Y403070D01*
X594085Y402992D01*
X594145Y402913D01*
X594202Y402831D01*
X594256Y402747D01*
X594306Y402661D01*
X594353Y402573D01*
X594397Y402483D01*
X594437Y402392D01*
X594473Y402299D01*
X594506Y402205D01*
X594535Y402109D01*
X594560Y402013D01*
X594581Y401916D01*
X594599Y401817D01*
X594612Y401719D01*
X594622Y401619D01*
X594628Y401520D01*
X594630Y401420D01*
X594630Y360780D02*
X594628Y360680D01*
X594622Y360581D01*
X594612Y360481D01*
X594599Y360383D01*
X594581Y360284D01*
X594560Y360187D01*
X594535Y360091D01*
X594506Y359995D01*
X594473Y359901D01*
X594437Y359808D01*
X594397Y359717D01*
X594353Y359627D01*
X594306Y359539D01*
X594256Y359453D01*
X594202Y359369D01*
X594145Y359287D01*
X594085Y359208D01*
X594021Y359130D01*
X593955Y359056D01*
X593886Y358984D01*
X593814Y358915D01*
X593740Y358849D01*
X593662Y358785D01*
X593583Y358725D01*
X593501Y358668D01*
X593417Y358614D01*
X593331Y358564D01*
X593243Y358517D01*
X593153Y358473D01*
X593062Y358433D01*
X592969Y358397D01*
X592875Y358364D01*
X592779Y358335D01*
X592683Y358310D01*
X592586Y358289D01*
X592487Y358271D01*
X592389Y358258D01*
X592289Y358248D01*
X592190Y358242D01*
X592090Y358240D01*
X523510Y358240D02*
X523410Y358242D01*
X523311Y358248D01*
X523211Y358258D01*
X523113Y358271D01*
X523014Y358289D01*
X522917Y358310D01*
X522821Y358335D01*
X522725Y358364D01*
X522631Y358397D01*
X522538Y358433D01*
X522447Y358473D01*
X522357Y358517D01*
X522269Y358564D01*
X522183Y358614D01*
X522099Y358668D01*
X522017Y358725D01*
X521938Y358785D01*
X521860Y358849D01*
X521786Y358915D01*
X521714Y358984D01*
X521645Y359056D01*
X521579Y359130D01*
X521515Y359208D01*
X521455Y359287D01*
X521398Y359369D01*
X521344Y359453D01*
X521294Y359539D01*
X521247Y359627D01*
X521203Y359717D01*
X521163Y359808D01*
X521127Y359901D01*
X521094Y359995D01*
X521065Y360091D01*
X521040Y360187D01*
X521019Y360284D01*
X521001Y360383D01*
X520988Y360481D01*
X520978Y360581D01*
X520972Y360680D01*
X520970Y360780D01*
X520970Y401420D02*
X520972Y401520D01*
X520978Y401619D01*
X520988Y401719D01*
X521001Y401817D01*
X521019Y401916D01*
X521040Y402013D01*
X521065Y402109D01*
X521094Y402205D01*
X521127Y402299D01*
X521163Y402392D01*
X521203Y402483D01*
X521247Y402573D01*
X521294Y402661D01*
X521344Y402747D01*
X521398Y402831D01*
X521455Y402913D01*
X521515Y402992D01*
X521579Y403070D01*
X521645Y403144D01*
X521714Y403216D01*
X521786Y403285D01*
X521860Y403351D01*
X521938Y403415D01*
X522017Y403475D01*
X522099Y403532D01*
X522183Y403586D01*
X522269Y403636D01*
X522357Y403683D01*
X522447Y403727D01*
X522538Y403767D01*
X522631Y403803D01*
X522725Y403836D01*
X522821Y403865D01*
X522917Y403890D01*
X523014Y403911D01*
X523113Y403929D01*
X523211Y403942D01*
X523311Y403952D01*
X523410Y403958D01*
X523510Y403960D01*
D15*
X530502Y417938D02*
X528595Y419845D01*
X524782Y419845D01*
X522875Y417938D01*
X522875Y410312D01*
X524782Y408405D01*
X528595Y408405D01*
X530502Y410312D01*
X534569Y416032D02*
X538382Y419845D01*
X538382Y408405D01*
X534569Y408405D02*
X542195Y408405D01*
X546263Y408405D02*
X553889Y408405D01*
X546263Y408405D02*
X553889Y416032D01*
X553889Y417938D01*
X551983Y419845D01*
X548170Y419845D01*
X546263Y417938D01*
X193970Y336700D02*
X164760Y337970D01*
X162220Y340510D01*
X162220Y434490D01*
X164760Y437030D01*
X193970Y438300D01*
X165776Y432458D02*
X165778Y432558D01*
X165784Y432659D01*
X165794Y432758D01*
X165808Y432858D01*
X165825Y432957D01*
X165847Y433055D01*
X165873Y433152D01*
X165902Y433248D01*
X165935Y433342D01*
X165972Y433436D01*
X166012Y433528D01*
X166056Y433618D01*
X166104Y433706D01*
X166155Y433793D01*
X166209Y433877D01*
X166267Y433959D01*
X166328Y434039D01*
X166392Y434116D01*
X166459Y434191D01*
X166529Y434263D01*
X166602Y434332D01*
X166677Y434398D01*
X166755Y434462D01*
X166835Y434522D01*
X166918Y434579D01*
X167003Y434632D01*
X167090Y434682D01*
X167179Y434729D01*
X167269Y434772D01*
X167361Y434812D01*
X167455Y434848D01*
X167550Y434880D01*
X167646Y434908D01*
X167744Y434933D01*
X167842Y434953D01*
X167941Y434970D01*
X168041Y434983D01*
X168140Y434992D01*
X168241Y434997D01*
X168341Y434998D01*
X168441Y434995D01*
X168542Y434988D01*
X168641Y434977D01*
X168741Y434962D01*
X168839Y434944D01*
X168937Y434921D01*
X169034Y434894D01*
X169129Y434864D01*
X169224Y434830D01*
X169317Y434792D01*
X169408Y434751D01*
X169498Y434706D01*
X169586Y434658D01*
X169672Y434606D01*
X169756Y434551D01*
X169837Y434492D01*
X169916Y434430D01*
X169993Y434366D01*
X170067Y434298D01*
X170138Y434227D01*
X170207Y434154D01*
X170272Y434078D01*
X170335Y433999D01*
X170394Y433918D01*
X170450Y433835D01*
X170503Y433750D01*
X170552Y433662D01*
X170598Y433573D01*
X170640Y433482D01*
X170679Y433389D01*
X170714Y433295D01*
X170745Y433200D01*
X170773Y433103D01*
X170796Y433006D01*
X170816Y432907D01*
X170832Y432808D01*
X170844Y432709D01*
X170852Y432608D01*
X170856Y432508D01*
X170856Y432408D01*
X170852Y432308D01*
X170844Y432207D01*
X170832Y432108D01*
X170816Y432009D01*
X170796Y431910D01*
X170773Y431813D01*
X170745Y431716D01*
X170714Y431621D01*
X170679Y431527D01*
X170640Y431434D01*
X170598Y431343D01*
X170552Y431254D01*
X170503Y431166D01*
X170450Y431081D01*
X170394Y430998D01*
X170335Y430917D01*
X170272Y430838D01*
X170207Y430762D01*
X170138Y430689D01*
X170067Y430618D01*
X169993Y430550D01*
X169916Y430486D01*
X169837Y430424D01*
X169756Y430365D01*
X169672Y430310D01*
X169586Y430258D01*
X169498Y430210D01*
X169408Y430165D01*
X169317Y430124D01*
X169224Y430086D01*
X169129Y430052D01*
X169034Y430022D01*
X168937Y429995D01*
X168839Y429972D01*
X168741Y429954D01*
X168641Y429939D01*
X168542Y429928D01*
X168441Y429921D01*
X168341Y429918D01*
X168241Y429919D01*
X168140Y429924D01*
X168041Y429933D01*
X167941Y429946D01*
X167842Y429963D01*
X167744Y429983D01*
X167646Y430008D01*
X167550Y430036D01*
X167455Y430068D01*
X167361Y430104D01*
X167269Y430144D01*
X167179Y430187D01*
X167090Y430234D01*
X167003Y430284D01*
X166918Y430337D01*
X166835Y430394D01*
X166755Y430454D01*
X166677Y430518D01*
X166602Y430584D01*
X166529Y430653D01*
X166459Y430725D01*
X166392Y430800D01*
X166328Y430877D01*
X166267Y430957D01*
X166209Y431039D01*
X166155Y431123D01*
X166104Y431210D01*
X166056Y431298D01*
X166012Y431388D01*
X165972Y431480D01*
X165935Y431574D01*
X165902Y431668D01*
X165873Y431764D01*
X165847Y431861D01*
X165825Y431959D01*
X165808Y432058D01*
X165794Y432158D01*
X165784Y432257D01*
X165778Y432358D01*
X165776Y432458D01*
X157013Y411564D02*
X157013Y407751D01*
X157013Y409658D02*
X145573Y409658D01*
X145573Y411564D02*
X145573Y407751D01*
X145573Y421267D02*
X147480Y423174D01*
X145573Y421267D02*
X145573Y417454D01*
X147480Y415547D01*
X155106Y415547D01*
X157013Y417454D01*
X157013Y421267D01*
X155106Y423174D01*
X145573Y427241D02*
X145573Y434867D01*
X145573Y427241D02*
X151293Y427241D01*
X149387Y431054D01*
X149387Y432961D01*
X151293Y434867D01*
X155106Y434867D01*
X157013Y432961D01*
X157013Y429148D01*
X155106Y427241D01*
D20*
X201590Y387500D03*
D21*
X195240Y431315D03*
D22*
X195240Y400200D03*
X195240Y374800D03*
D21*
X195240Y343685D03*
D12*
X92500Y381272D02*
X92500Y391940D01*
D23*
X92500Y381272D02*
X100120Y381272D01*
X92500Y381272D02*
X84880Y381272D01*
X92500Y372382D02*
X100120Y372382D01*
D12*
X92500Y372382D02*
X92500Y361460D01*
D23*
X92500Y372382D02*
X84880Y372382D01*
D15*
X133765Y382263D02*
X135672Y384170D01*
X133765Y382263D02*
X133765Y378450D01*
X135672Y376543D01*
X143298Y376543D01*
X145205Y378450D01*
X145205Y382263D01*
X143298Y384170D01*
X137579Y388237D02*
X133765Y392050D01*
X145205Y392050D01*
X145205Y388237D02*
X145205Y395864D01*
X145205Y405651D02*
X133765Y405651D01*
X139485Y399931D01*
X139485Y407557D01*
X54400Y376700D02*
X54411Y377635D01*
X54446Y378569D01*
X54503Y379503D01*
X54583Y380434D01*
X54687Y381364D01*
X54812Y382290D01*
X54961Y383214D01*
X55132Y384133D01*
X55326Y385048D01*
X55542Y385958D01*
X55780Y386862D01*
X56041Y387760D01*
X56323Y388651D01*
X56627Y389536D01*
X56953Y390412D01*
X57300Y391280D01*
X57669Y392140D01*
X58058Y392990D01*
X58468Y393830D01*
X58899Y394660D01*
X59350Y395479D01*
X59821Y396287D01*
X60311Y397083D01*
X60821Y397867D01*
X61350Y398638D01*
X61898Y399396D01*
X62464Y400140D01*
X63048Y400870D01*
X63650Y401586D01*
X64270Y402286D01*
X64906Y402971D01*
X65559Y403641D01*
X66229Y404294D01*
X66914Y404930D01*
X67614Y405550D01*
X68330Y406152D01*
X69060Y406736D01*
X69804Y407302D01*
X70562Y407850D01*
X71333Y408379D01*
X72117Y408889D01*
X72913Y409379D01*
X73721Y409850D01*
X74540Y410301D01*
X75370Y410732D01*
X76210Y411142D01*
X77060Y411531D01*
X77920Y411900D01*
X78788Y412247D01*
X79664Y412573D01*
X80549Y412877D01*
X81440Y413159D01*
X82338Y413420D01*
X83242Y413658D01*
X84152Y413874D01*
X85067Y414068D01*
X85986Y414239D01*
X86910Y414388D01*
X87836Y414513D01*
X88766Y414617D01*
X89697Y414697D01*
X90631Y414754D01*
X91565Y414789D01*
X92500Y414800D01*
X93435Y414789D01*
X94369Y414754D01*
X95303Y414697D01*
X96234Y414617D01*
X97164Y414513D01*
X98090Y414388D01*
X99014Y414239D01*
X99933Y414068D01*
X100848Y413874D01*
X101758Y413658D01*
X102662Y413420D01*
X103560Y413159D01*
X104451Y412877D01*
X105336Y412573D01*
X106212Y412247D01*
X107080Y411900D01*
X107940Y411531D01*
X108790Y411142D01*
X109630Y410732D01*
X110460Y410301D01*
X111279Y409850D01*
X112087Y409379D01*
X112883Y408889D01*
X113667Y408379D01*
X114438Y407850D01*
X115196Y407302D01*
X115940Y406736D01*
X116670Y406152D01*
X117386Y405550D01*
X118086Y404930D01*
X118771Y404294D01*
X119441Y403641D01*
X120094Y402971D01*
X120730Y402286D01*
X121350Y401586D01*
X121952Y400870D01*
X122536Y400140D01*
X123102Y399396D01*
X123650Y398638D01*
X124179Y397867D01*
X124689Y397083D01*
X125179Y396287D01*
X125650Y395479D01*
X126101Y394660D01*
X126532Y393830D01*
X126942Y392990D01*
X127331Y392140D01*
X127700Y391280D01*
X128047Y390412D01*
X128373Y389536D01*
X128677Y388651D01*
X128959Y387760D01*
X129220Y386862D01*
X129458Y385958D01*
X129674Y385048D01*
X129868Y384133D01*
X130039Y383214D01*
X130188Y382290D01*
X130313Y381364D01*
X130417Y380434D01*
X130497Y379503D01*
X130554Y378569D01*
X130589Y377635D01*
X130600Y376700D01*
X130589Y375765D01*
X130554Y374831D01*
X130497Y373897D01*
X130417Y372966D01*
X130313Y372036D01*
X130188Y371110D01*
X130039Y370186D01*
X129868Y369267D01*
X129674Y368352D01*
X129458Y367442D01*
X129220Y366538D01*
X128959Y365640D01*
X128677Y364749D01*
X128373Y363864D01*
X128047Y362988D01*
X127700Y362120D01*
X127331Y361260D01*
X126942Y360410D01*
X126532Y359570D01*
X126101Y358740D01*
X125650Y357921D01*
X125179Y357113D01*
X124689Y356317D01*
X124179Y355533D01*
X123650Y354762D01*
X123102Y354004D01*
X122536Y353260D01*
X121952Y352530D01*
X121350Y351814D01*
X120730Y351114D01*
X120094Y350429D01*
X119441Y349759D01*
X118771Y349106D01*
X118086Y348470D01*
X117386Y347850D01*
X116670Y347248D01*
X115940Y346664D01*
X115196Y346098D01*
X114438Y345550D01*
X113667Y345021D01*
X112883Y344511D01*
X112087Y344021D01*
X111279Y343550D01*
X110460Y343099D01*
X109630Y342668D01*
X108790Y342258D01*
X107940Y341869D01*
X107080Y341500D01*
X106212Y341153D01*
X105336Y340827D01*
X104451Y340523D01*
X103560Y340241D01*
X102662Y339980D01*
X101758Y339742D01*
X100848Y339526D01*
X99933Y339332D01*
X99014Y339161D01*
X98090Y339012D01*
X97164Y338887D01*
X96234Y338783D01*
X95303Y338703D01*
X94369Y338646D01*
X93435Y338611D01*
X92500Y338600D01*
X91565Y338611D01*
X90631Y338646D01*
X89697Y338703D01*
X88766Y338783D01*
X87836Y338887D01*
X86910Y339012D01*
X85986Y339161D01*
X85067Y339332D01*
X84152Y339526D01*
X83242Y339742D01*
X82338Y339980D01*
X81440Y340241D01*
X80549Y340523D01*
X79664Y340827D01*
X78788Y341153D01*
X77920Y341500D01*
X77060Y341869D01*
X76210Y342258D01*
X75370Y342668D01*
X74540Y343099D01*
X73721Y343550D01*
X72913Y344021D01*
X72117Y344511D01*
X71333Y345021D01*
X70562Y345550D01*
X69804Y346098D01*
X69060Y346664D01*
X68330Y347248D01*
X67614Y347850D01*
X66914Y348470D01*
X66229Y349106D01*
X65559Y349759D01*
X64906Y350429D01*
X64270Y351114D01*
X63650Y351814D01*
X63048Y352530D01*
X62464Y353260D01*
X61898Y354004D01*
X61350Y354762D01*
X60821Y355533D01*
X60311Y356317D01*
X59821Y357113D01*
X59350Y357921D01*
X58899Y358740D01*
X58468Y359570D01*
X58058Y360410D01*
X57669Y361260D01*
X57300Y362120D01*
X56953Y362988D01*
X56627Y363864D01*
X56323Y364749D01*
X56041Y365640D01*
X55780Y366538D01*
X55542Y367442D01*
X55326Y368352D01*
X55132Y369267D01*
X54961Y370186D01*
X54812Y371110D01*
X54687Y372036D01*
X54583Y372966D01*
X54503Y373897D01*
X54446Y374831D01*
X54411Y375765D01*
X54400Y376700D01*
X391125Y426100D02*
X397475Y421337D01*
X397475Y426100D01*
X397475Y430863D01*
X391125Y426100D01*
X391125Y421337D01*
X391125Y426100D02*
X391125Y430863D01*
X397475Y426100D02*
X405413Y426100D01*
X391125Y426100D02*
X383187Y426100D01*
D11*
X415078Y414111D02*
X415078Y408518D01*
X417874Y408518D01*
X418806Y409450D01*
X418806Y413179D01*
X417874Y414111D01*
X415078Y414111D01*
X420691Y414111D02*
X424419Y414111D01*
X420691Y414111D02*
X420691Y411314D01*
X422555Y412246D01*
X423487Y412246D01*
X424419Y411314D01*
X424419Y409450D01*
X423487Y408518D01*
X421623Y408518D01*
X420691Y409450D01*
D15*
X426400Y415400D02*
X362200Y415400D01*
X362200Y436800D01*
X426400Y436800D01*
X426400Y415400D01*
D12*
X132560Y306700D02*
X131290Y306700D01*
D13*
X132560Y306700D02*
X132560Y299080D01*
X132560Y306700D02*
X132560Y314320D01*
X137640Y306700D02*
X137640Y299080D01*
X137640Y306700D02*
X137640Y314320D01*
D12*
X137640Y306700D02*
X138910Y306700D01*
D11*
X136652Y293594D02*
X137584Y292661D01*
X136652Y293594D02*
X134788Y293594D01*
X133856Y292661D01*
X133856Y288933D01*
X134788Y288001D01*
X136652Y288001D01*
X137584Y288933D01*
X139469Y291729D02*
X141333Y293594D01*
X141333Y288001D01*
X139469Y288001D02*
X143197Y288001D01*
X145082Y292661D02*
X146014Y293594D01*
X147878Y293594D01*
X148810Y292661D01*
X148810Y291729D01*
X147878Y290797D01*
X146946Y290797D01*
X147878Y290797D02*
X148810Y289865D01*
X148810Y288933D01*
X147878Y288001D01*
X146014Y288001D01*
X145082Y288933D01*
D14*
X156925Y297591D02*
X157020Y297591D01*
D15*
X151800Y295900D02*
X152059Y295907D01*
X152318Y295920D01*
X152577Y295939D01*
X152835Y295965D01*
X153092Y295997D01*
X153349Y296035D01*
X153605Y296080D01*
X153859Y296131D01*
X154112Y296187D01*
X154364Y296250D01*
X154614Y296320D01*
X154862Y296395D01*
X155108Y296476D01*
X155353Y296563D01*
X155595Y296656D01*
X155834Y296755D01*
X156072Y296860D01*
X156306Y296971D01*
X156538Y297087D01*
X156767Y297209D01*
X156993Y297336D01*
X157216Y297469D01*
X157435Y297607D01*
X157651Y297751D01*
X157864Y297899D01*
X158073Y298053D01*
X158278Y298212D01*
X158479Y298376D01*
X158676Y298545D01*
X158869Y298718D01*
X159057Y298896D01*
X159241Y299079D01*
X159421Y299266D01*
X159596Y299458D01*
X159766Y299653D01*
X159932Y299853D01*
X160093Y300056D01*
X160248Y300264D01*
X160399Y300475D01*
X160544Y300690D01*
X160684Y300908D01*
X160819Y301130D01*
X160948Y301355D01*
X161072Y301583D01*
X161190Y301814D01*
X161303Y302048D01*
X161409Y302284D01*
X161510Y302523D01*
X161605Y302764D01*
X161695Y303008D01*
X161778Y303253D01*
X161855Y303501D01*
X161926Y303750D01*
X161992Y304001D01*
X162051Y304254D01*
X162103Y304508D01*
X162150Y304763D01*
X162190Y305019D01*
X162225Y305276D01*
X162252Y305534D01*
X162274Y305793D01*
X162289Y306052D01*
X162298Y306311D01*
X162301Y306570D01*
X162297Y306830D01*
X162287Y307089D01*
X162271Y307348D01*
X162249Y307606D01*
X162220Y307864D01*
X162185Y308121D01*
X162143Y308377D01*
X162096Y308632D01*
X162042Y308886D01*
X161982Y309138D01*
X161916Y309389D01*
X161844Y309638D01*
X161765Y309885D01*
X161681Y310131D01*
X161591Y310374D01*
X161495Y310615D01*
X161393Y310853D01*
X161285Y311089D01*
X161172Y311323D01*
X161053Y311553D01*
X160928Y311780D01*
X160798Y312005D01*
X160663Y312226D01*
X160522Y312444D01*
X160376Y312658D01*
X160224Y312869D01*
X160068Y313076D01*
X159906Y313279D01*
X159740Y313478D01*
X159569Y313673D01*
X159393Y313863D01*
X159213Y314050D01*
X159028Y314232D01*
X158839Y314409D01*
X158645Y314582D01*
X158448Y314750D01*
X158246Y314913D01*
X158040Y315071D01*
X157831Y315224D01*
X157618Y315372D01*
X157401Y315515D01*
X157181Y315652D01*
X156958Y315784D01*
X156731Y315911D01*
X156502Y316032D01*
X156270Y316147D01*
X156035Y316257D01*
X155797Y316361D01*
X155557Y316459D01*
X155314Y316551D01*
X155070Y316637D01*
X154823Y316717D01*
X154575Y316792D01*
X154324Y316860D01*
X154072Y316922D01*
X153819Y316978D01*
X153565Y317027D01*
X153309Y317071D01*
X153052Y317108D01*
X152795Y317139D01*
X152537Y317164D01*
X152278Y317182D01*
X152019Y317195D01*
X151759Y317200D01*
X151500Y317200D01*
X118000Y317200D02*
X117741Y317193D01*
X117482Y317180D01*
X117223Y317161D01*
X116965Y317135D01*
X116708Y317103D01*
X116451Y317065D01*
X116195Y317020D01*
X115941Y316969D01*
X115688Y316913D01*
X115436Y316850D01*
X115186Y316780D01*
X114938Y316705D01*
X114692Y316624D01*
X114447Y316537D01*
X114205Y316444D01*
X113966Y316345D01*
X113728Y316240D01*
X113494Y316129D01*
X113262Y316013D01*
X113033Y315891D01*
X112807Y315764D01*
X112584Y315631D01*
X112365Y315493D01*
X112149Y315349D01*
X111936Y315201D01*
X111727Y315047D01*
X111522Y314888D01*
X111321Y314724D01*
X111124Y314555D01*
X110931Y314382D01*
X110743Y314204D01*
X110559Y314021D01*
X110379Y313834D01*
X110204Y313642D01*
X110034Y313447D01*
X109868Y313247D01*
X109707Y313044D01*
X109552Y312836D01*
X109401Y312625D01*
X109256Y312410D01*
X109116Y312192D01*
X108981Y311970D01*
X108852Y311745D01*
X108728Y311517D01*
X108610Y311286D01*
X108497Y311052D01*
X108391Y310816D01*
X108290Y310577D01*
X108195Y310336D01*
X108105Y310092D01*
X108022Y309847D01*
X107945Y309599D01*
X107874Y309350D01*
X107808Y309099D01*
X107749Y308846D01*
X107697Y308592D01*
X107650Y308337D01*
X107610Y308081D01*
X107575Y307824D01*
X107548Y307566D01*
X107526Y307307D01*
X107511Y307048D01*
X107502Y306789D01*
X107499Y306530D01*
X107503Y306270D01*
X107513Y306011D01*
X107529Y305752D01*
X107551Y305494D01*
X107580Y305236D01*
X107615Y304979D01*
X107657Y304723D01*
X107704Y304468D01*
X107758Y304214D01*
X107818Y303962D01*
X107884Y303711D01*
X107956Y303462D01*
X108035Y303215D01*
X108119Y302969D01*
X108209Y302726D01*
X108305Y302485D01*
X108407Y302247D01*
X108515Y302011D01*
X108628Y301777D01*
X108747Y301547D01*
X108872Y301320D01*
X109002Y301095D01*
X109137Y300874D01*
X109278Y300656D01*
X109424Y300442D01*
X109576Y300231D01*
X109732Y300024D01*
X109894Y299821D01*
X110060Y299622D01*
X110231Y299427D01*
X110407Y299237D01*
X110587Y299050D01*
X110772Y298868D01*
X110961Y298691D01*
X111155Y298518D01*
X111352Y298350D01*
X111554Y298187D01*
X111760Y298029D01*
X111969Y297876D01*
X112182Y297728D01*
X112399Y297585D01*
X112619Y297448D01*
X112842Y297316D01*
X113069Y297189D01*
X113298Y297068D01*
X113530Y296953D01*
X113765Y296843D01*
X114003Y296739D01*
X114243Y296641D01*
X114486Y296549D01*
X114730Y296463D01*
X114977Y296383D01*
X115225Y296308D01*
X115476Y296240D01*
X115728Y296178D01*
X115981Y296122D01*
X116235Y296073D01*
X116491Y296029D01*
X116748Y295992D01*
X117005Y295961D01*
X117263Y295936D01*
X117522Y295918D01*
X117781Y295905D01*
X118041Y295900D01*
X118300Y295900D01*
X151800Y295900D01*
X151500Y317200D02*
X118000Y317200D01*
X109700Y306700D02*
X109708Y307323D01*
X109731Y307946D01*
X109769Y308569D01*
X109822Y309190D01*
X109891Y309809D01*
X109975Y310427D01*
X110074Y311042D01*
X110188Y311655D01*
X110317Y312265D01*
X110461Y312872D01*
X110620Y313475D01*
X110794Y314073D01*
X110982Y314668D01*
X111185Y315257D01*
X111402Y315841D01*
X111633Y316420D01*
X111879Y316993D01*
X112139Y317560D01*
X112412Y318120D01*
X112699Y318673D01*
X113000Y319220D01*
X113314Y319758D01*
X113641Y320289D01*
X113981Y320811D01*
X114333Y321326D01*
X114699Y321831D01*
X115076Y322327D01*
X115466Y322814D01*
X115867Y323291D01*
X116280Y323758D01*
X116704Y324214D01*
X117139Y324661D01*
X117586Y325096D01*
X118042Y325520D01*
X118509Y325933D01*
X118986Y326334D01*
X119473Y326724D01*
X119969Y327101D01*
X120474Y327467D01*
X120989Y327819D01*
X121511Y328159D01*
X122042Y328486D01*
X122580Y328800D01*
X123127Y329101D01*
X123680Y329388D01*
X124240Y329661D01*
X124807Y329921D01*
X125380Y330167D01*
X125959Y330398D01*
X126543Y330615D01*
X127132Y330818D01*
X127727Y331006D01*
X128325Y331180D01*
X128928Y331339D01*
X129535Y331483D01*
X130145Y331612D01*
X130758Y331726D01*
X131373Y331825D01*
X131991Y331909D01*
X132610Y331978D01*
X133231Y332031D01*
X133854Y332069D01*
X134477Y332092D01*
X135100Y332100D01*
X135723Y332092D01*
X136346Y332069D01*
X136969Y332031D01*
X137590Y331978D01*
X138209Y331909D01*
X138827Y331825D01*
X139442Y331726D01*
X140055Y331612D01*
X140665Y331483D01*
X141272Y331339D01*
X141875Y331180D01*
X142473Y331006D01*
X143068Y330818D01*
X143657Y330615D01*
X144241Y330398D01*
X144820Y330167D01*
X145393Y329921D01*
X145960Y329661D01*
X146520Y329388D01*
X147073Y329101D01*
X147620Y328800D01*
X148158Y328486D01*
X148689Y328159D01*
X149211Y327819D01*
X149726Y327467D01*
X150231Y327101D01*
X150727Y326724D01*
X151214Y326334D01*
X151691Y325933D01*
X152158Y325520D01*
X152614Y325096D01*
X153061Y324661D01*
X153496Y324214D01*
X153920Y323758D01*
X154333Y323291D01*
X154734Y322814D01*
X155124Y322327D01*
X155501Y321831D01*
X155867Y321326D01*
X156219Y320811D01*
X156559Y320289D01*
X156886Y319758D01*
X157200Y319220D01*
X157501Y318673D01*
X157788Y318120D01*
X158061Y317560D01*
X158321Y316993D01*
X158567Y316420D01*
X158798Y315841D01*
X159015Y315257D01*
X159218Y314668D01*
X159406Y314073D01*
X159580Y313475D01*
X159739Y312872D01*
X159883Y312265D01*
X160012Y311655D01*
X160126Y311042D01*
X160225Y310427D01*
X160309Y309809D01*
X160378Y309190D01*
X160431Y308569D01*
X160469Y307946D01*
X160492Y307323D01*
X160500Y306700D01*
X160492Y306077D01*
X160469Y305454D01*
X160431Y304831D01*
X160378Y304210D01*
X160309Y303591D01*
X160225Y302973D01*
X160126Y302358D01*
X160012Y301745D01*
X159883Y301135D01*
X159739Y300528D01*
X159580Y299925D01*
X159406Y299327D01*
X159218Y298732D01*
X159015Y298143D01*
X158798Y297559D01*
X158567Y296980D01*
X158321Y296407D01*
X158061Y295840D01*
X157788Y295280D01*
X157501Y294727D01*
X157200Y294180D01*
X156886Y293642D01*
X156559Y293111D01*
X156219Y292589D01*
X155867Y292074D01*
X155501Y291569D01*
X155124Y291073D01*
X154734Y290586D01*
X154333Y290109D01*
X153920Y289642D01*
X153496Y289186D01*
X153061Y288739D01*
X152614Y288304D01*
X152158Y287880D01*
X151691Y287467D01*
X151214Y287066D01*
X150727Y286676D01*
X150231Y286299D01*
X149726Y285933D01*
X149211Y285581D01*
X148689Y285241D01*
X148158Y284914D01*
X147620Y284600D01*
X147073Y284299D01*
X146520Y284012D01*
X145960Y283739D01*
X145393Y283479D01*
X144820Y283233D01*
X144241Y283002D01*
X143657Y282785D01*
X143068Y282582D01*
X142473Y282394D01*
X141875Y282220D01*
X141272Y282061D01*
X140665Y281917D01*
X140055Y281788D01*
X139442Y281674D01*
X138827Y281575D01*
X138209Y281491D01*
X137590Y281422D01*
X136969Y281369D01*
X136346Y281331D01*
X135723Y281308D01*
X135100Y281300D01*
X134477Y281308D01*
X133854Y281331D01*
X133231Y281369D01*
X132610Y281422D01*
X131991Y281491D01*
X131373Y281575D01*
X130758Y281674D01*
X130145Y281788D01*
X129535Y281917D01*
X128928Y282061D01*
X128325Y282220D01*
X127727Y282394D01*
X127132Y282582D01*
X126543Y282785D01*
X125959Y283002D01*
X125380Y283233D01*
X124807Y283479D01*
X124240Y283739D01*
X123680Y284012D01*
X123127Y284299D01*
X122580Y284600D01*
X122042Y284914D01*
X121511Y285241D01*
X120989Y285581D01*
X120474Y285933D01*
X119969Y286299D01*
X119473Y286676D01*
X118986Y287066D01*
X118509Y287467D01*
X118042Y287880D01*
X117586Y288304D01*
X117139Y288739D01*
X116704Y289186D01*
X116280Y289642D01*
X115867Y290109D01*
X115466Y290586D01*
X115076Y291073D01*
X114699Y291569D01*
X114333Y292074D01*
X113981Y292589D01*
X113641Y293111D01*
X113314Y293642D01*
X113000Y294180D01*
X112699Y294727D01*
X112412Y295280D01*
X112139Y295840D01*
X111879Y296407D01*
X111633Y296980D01*
X111402Y297559D01*
X111185Y298143D01*
X110982Y298732D01*
X110794Y299327D01*
X110620Y299925D01*
X110461Y300528D01*
X110317Y301135D01*
X110188Y301745D01*
X110074Y302358D01*
X109975Y302973D01*
X109891Y303591D01*
X109822Y304210D01*
X109769Y304831D01*
X109731Y305454D01*
X109708Y306077D01*
X109700Y306700D01*
D13*
X606000Y342500D02*
X606000Y261500D01*
X544000Y261500D01*
X544000Y337500D01*
X544000Y342500D01*
X606000Y342500D01*
D18*
X596750Y332750D02*
X596838Y332693D01*
X596924Y332633D01*
X597008Y332569D01*
X597089Y332502D01*
X597168Y332433D01*
X597244Y332360D01*
X597317Y332285D01*
X597388Y332207D01*
X597455Y332126D01*
X597519Y332043D01*
X597580Y331957D01*
X597638Y331869D01*
X597693Y331780D01*
X597744Y331688D01*
X597791Y331594D01*
X597835Y331499D01*
X597876Y331402D01*
X597912Y331303D01*
X597945Y331203D01*
X597975Y331102D01*
X598000Y331000D01*
X598022Y330897D01*
X598039Y330794D01*
X598053Y330690D01*
X598063Y330585D01*
X598069Y330480D01*
X598071Y330375D01*
X598069Y330270D01*
X598063Y330165D01*
X598053Y330060D01*
X598039Y329956D01*
X598022Y329853D01*
X598000Y329750D01*
X597975Y329648D01*
X597945Y329547D01*
X597912Y329447D01*
X597876Y329348D01*
X597835Y329251D01*
X597791Y329156D01*
X597744Y329062D01*
X597693Y328970D01*
X597638Y328881D01*
X597580Y328793D01*
X597519Y328707D01*
X597455Y328624D01*
X597388Y328543D01*
X597317Y328465D01*
X597244Y328390D01*
X597168Y328317D01*
X597089Y328248D01*
X597008Y328181D01*
X596924Y328117D01*
X596838Y328057D01*
X596750Y328000D01*
X596662Y327943D01*
X596576Y327883D01*
X596492Y327819D01*
X596411Y327752D01*
X596332Y327683D01*
X596256Y327610D01*
X596183Y327535D01*
X596112Y327457D01*
X596045Y327376D01*
X595981Y327293D01*
X595920Y327207D01*
X595862Y327119D01*
X595807Y327030D01*
X595756Y326938D01*
X595709Y326844D01*
X595665Y326749D01*
X595624Y326652D01*
X595588Y326553D01*
X595555Y326453D01*
X595525Y326352D01*
X595500Y326250D01*
X595478Y326147D01*
X595461Y326044D01*
X595447Y325940D01*
X595437Y325835D01*
X595431Y325730D01*
X595429Y325625D01*
X595431Y325520D01*
X595437Y325415D01*
X595447Y325310D01*
X595461Y325206D01*
X595478Y325103D01*
X595500Y325000D01*
X595525Y324898D01*
X595555Y324797D01*
X595588Y324697D01*
X595624Y324598D01*
X595665Y324501D01*
X595709Y324406D01*
X595756Y324312D01*
X595807Y324220D01*
X595862Y324131D01*
X595920Y324043D01*
X595981Y323957D01*
X596045Y323874D01*
X596112Y323793D01*
X596183Y323715D01*
X596256Y323640D01*
X596332Y323567D01*
X596411Y323498D01*
X596492Y323431D01*
X596576Y323367D01*
X596662Y323307D01*
X596750Y323250D01*
X596750Y280750D02*
X596838Y280693D01*
X596924Y280633D01*
X597008Y280569D01*
X597089Y280502D01*
X597168Y280433D01*
X597244Y280360D01*
X597317Y280285D01*
X597388Y280207D01*
X597455Y280126D01*
X597519Y280043D01*
X597580Y279957D01*
X597638Y279869D01*
X597693Y279780D01*
X597744Y279688D01*
X597791Y279594D01*
X597835Y279499D01*
X597876Y279402D01*
X597912Y279303D01*
X597945Y279203D01*
X597975Y279102D01*
X598000Y279000D01*
X598022Y278897D01*
X598039Y278794D01*
X598053Y278690D01*
X598063Y278585D01*
X598069Y278480D01*
X598071Y278375D01*
X598069Y278270D01*
X598063Y278165D01*
X598053Y278060D01*
X598039Y277956D01*
X598022Y277853D01*
X598000Y277750D01*
X597975Y277648D01*
X597945Y277547D01*
X597912Y277447D01*
X597876Y277348D01*
X597835Y277251D01*
X597791Y277156D01*
X597744Y277062D01*
X597693Y276970D01*
X597638Y276881D01*
X597580Y276793D01*
X597519Y276707D01*
X597455Y276624D01*
X597388Y276543D01*
X597317Y276465D01*
X597244Y276390D01*
X597168Y276317D01*
X597089Y276248D01*
X597008Y276181D01*
X596924Y276117D01*
X596838Y276057D01*
X596750Y276000D01*
X596662Y275943D01*
X596576Y275883D01*
X596492Y275819D01*
X596411Y275752D01*
X596332Y275683D01*
X596256Y275610D01*
X596183Y275535D01*
X596112Y275457D01*
X596045Y275376D01*
X595981Y275293D01*
X595920Y275207D01*
X595862Y275119D01*
X595807Y275030D01*
X595756Y274938D01*
X595709Y274844D01*
X595665Y274749D01*
X595624Y274652D01*
X595588Y274553D01*
X595555Y274453D01*
X595525Y274352D01*
X595500Y274250D01*
X595478Y274147D01*
X595461Y274044D01*
X595447Y273940D01*
X595437Y273835D01*
X595431Y273730D01*
X595429Y273625D01*
X595431Y273520D01*
X595437Y273415D01*
X595447Y273310D01*
X595461Y273206D01*
X595478Y273103D01*
X595500Y273000D01*
X595525Y272898D01*
X595555Y272797D01*
X595588Y272697D01*
X595624Y272598D01*
X595665Y272501D01*
X595709Y272406D01*
X595756Y272312D01*
X595807Y272220D01*
X595862Y272131D01*
X595920Y272043D01*
X595981Y271957D01*
X596045Y271874D01*
X596112Y271793D01*
X596183Y271715D01*
X596256Y271640D01*
X596332Y271567D01*
X596411Y271498D01*
X596492Y271431D01*
X596576Y271367D01*
X596662Y271307D01*
X596750Y271250D01*
X553250Y323250D02*
X553250Y332750D01*
X553250Y280750D02*
X553250Y271250D01*
X548500Y328000D02*
X558000Y328000D01*
D13*
X544000Y337500D02*
X606000Y337500D01*
D24*
X544139Y347339D02*
X544139Y363355D01*
X552147Y363355D01*
X554816Y360685D01*
X554816Y358016D01*
X552147Y355347D01*
X554816Y352678D01*
X554816Y350008D01*
X552147Y347339D01*
X544139Y347339D01*
X544139Y355347D02*
X552147Y355347D01*
X560511Y358016D02*
X565849Y363355D01*
X565849Y347339D01*
X560511Y347339D02*
X571188Y347339D01*
D12*
X473000Y377572D02*
X473000Y388240D01*
D23*
X473000Y377572D02*
X480620Y377572D01*
X473000Y377572D02*
X465380Y377572D01*
X473000Y368682D02*
X480620Y368682D01*
D12*
X473000Y368682D02*
X473000Y357760D01*
D23*
X473000Y368682D02*
X465380Y368682D01*
D15*
X514265Y378563D02*
X516172Y380470D01*
X514265Y378563D02*
X514265Y374750D01*
X516172Y372843D01*
X523798Y372843D01*
X525705Y374750D01*
X525705Y378563D01*
X523798Y380470D01*
X518079Y384537D02*
X514265Y388350D01*
X525705Y388350D01*
X525705Y384537D02*
X525705Y392164D01*
X514265Y396231D02*
X514265Y403857D01*
X514265Y396231D02*
X519985Y396231D01*
X518079Y400044D01*
X518079Y401951D01*
X519985Y403857D01*
X523798Y403857D01*
X525705Y401951D01*
X525705Y398138D01*
X523798Y396231D01*
X434900Y373000D02*
X434911Y373935D01*
X434946Y374869D01*
X435003Y375803D01*
X435083Y376734D01*
X435187Y377664D01*
X435312Y378590D01*
X435461Y379514D01*
X435632Y380433D01*
X435826Y381348D01*
X436042Y382258D01*
X436280Y383162D01*
X436541Y384060D01*
X436823Y384951D01*
X437127Y385836D01*
X437453Y386712D01*
X437800Y387580D01*
X438169Y388440D01*
X438558Y389290D01*
X438968Y390130D01*
X439399Y390960D01*
X439850Y391779D01*
X440321Y392587D01*
X440811Y393383D01*
X441321Y394167D01*
X441850Y394938D01*
X442398Y395696D01*
X442964Y396440D01*
X443548Y397170D01*
X444150Y397886D01*
X444770Y398586D01*
X445406Y399271D01*
X446059Y399941D01*
X446729Y400594D01*
X447414Y401230D01*
X448114Y401850D01*
X448830Y402452D01*
X449560Y403036D01*
X450304Y403602D01*
X451062Y404150D01*
X451833Y404679D01*
X452617Y405189D01*
X453413Y405679D01*
X454221Y406150D01*
X455040Y406601D01*
X455870Y407032D01*
X456710Y407442D01*
X457560Y407831D01*
X458420Y408200D01*
X459288Y408547D01*
X460164Y408873D01*
X461049Y409177D01*
X461940Y409459D01*
X462838Y409720D01*
X463742Y409958D01*
X464652Y410174D01*
X465567Y410368D01*
X466486Y410539D01*
X467410Y410688D01*
X468336Y410813D01*
X469266Y410917D01*
X470197Y410997D01*
X471131Y411054D01*
X472065Y411089D01*
X473000Y411100D01*
X473935Y411089D01*
X474869Y411054D01*
X475803Y410997D01*
X476734Y410917D01*
X477664Y410813D01*
X478590Y410688D01*
X479514Y410539D01*
X480433Y410368D01*
X481348Y410174D01*
X482258Y409958D01*
X483162Y409720D01*
X484060Y409459D01*
X484951Y409177D01*
X485836Y408873D01*
X486712Y408547D01*
X487580Y408200D01*
X488440Y407831D01*
X489290Y407442D01*
X490130Y407032D01*
X490960Y406601D01*
X491779Y406150D01*
X492587Y405679D01*
X493383Y405189D01*
X494167Y404679D01*
X494938Y404150D01*
X495696Y403602D01*
X496440Y403036D01*
X497170Y402452D01*
X497886Y401850D01*
X498586Y401230D01*
X499271Y400594D01*
X499941Y399941D01*
X500594Y399271D01*
X501230Y398586D01*
X501850Y397886D01*
X502452Y397170D01*
X503036Y396440D01*
X503602Y395696D01*
X504150Y394938D01*
X504679Y394167D01*
X505189Y393383D01*
X505679Y392587D01*
X506150Y391779D01*
X506601Y390960D01*
X507032Y390130D01*
X507442Y389290D01*
X507831Y388440D01*
X508200Y387580D01*
X508547Y386712D01*
X508873Y385836D01*
X509177Y384951D01*
X509459Y384060D01*
X509720Y383162D01*
X509958Y382258D01*
X510174Y381348D01*
X510368Y380433D01*
X510539Y379514D01*
X510688Y378590D01*
X510813Y377664D01*
X510917Y376734D01*
X510997Y375803D01*
X511054Y374869D01*
X511089Y373935D01*
X511100Y373000D01*
X511089Y372065D01*
X511054Y371131D01*
X510997Y370197D01*
X510917Y369266D01*
X510813Y368336D01*
X510688Y367410D01*
X510539Y366486D01*
X510368Y365567D01*
X510174Y364652D01*
X509958Y363742D01*
X509720Y362838D01*
X509459Y361940D01*
X509177Y361049D01*
X508873Y360164D01*
X508547Y359288D01*
X508200Y358420D01*
X507831Y357560D01*
X507442Y356710D01*
X507032Y355870D01*
X506601Y355040D01*
X506150Y354221D01*
X505679Y353413D01*
X505189Y352617D01*
X504679Y351833D01*
X504150Y351062D01*
X503602Y350304D01*
X503036Y349560D01*
X502452Y348830D01*
X501850Y348114D01*
X501230Y347414D01*
X500594Y346729D01*
X499941Y346059D01*
X499271Y345406D01*
X498586Y344770D01*
X497886Y344150D01*
X497170Y343548D01*
X496440Y342964D01*
X495696Y342398D01*
X494938Y341850D01*
X494167Y341321D01*
X493383Y340811D01*
X492587Y340321D01*
X491779Y339850D01*
X490960Y339399D01*
X490130Y338968D01*
X489290Y338558D01*
X488440Y338169D01*
X487580Y337800D01*
X486712Y337453D01*
X485836Y337127D01*
X484951Y336823D01*
X484060Y336541D01*
X483162Y336280D01*
X482258Y336042D01*
X481348Y335826D01*
X480433Y335632D01*
X479514Y335461D01*
X478590Y335312D01*
X477664Y335187D01*
X476734Y335083D01*
X475803Y335003D01*
X474869Y334946D01*
X473935Y334911D01*
X473000Y334900D01*
X472065Y334911D01*
X471131Y334946D01*
X470197Y335003D01*
X469266Y335083D01*
X468336Y335187D01*
X467410Y335312D01*
X466486Y335461D01*
X465567Y335632D01*
X464652Y335826D01*
X463742Y336042D01*
X462838Y336280D01*
X461940Y336541D01*
X461049Y336823D01*
X460164Y337127D01*
X459288Y337453D01*
X458420Y337800D01*
X457560Y338169D01*
X456710Y338558D01*
X455870Y338968D01*
X455040Y339399D01*
X454221Y339850D01*
X453413Y340321D01*
X452617Y340811D01*
X451833Y341321D01*
X451062Y341850D01*
X450304Y342398D01*
X449560Y342964D01*
X448830Y343548D01*
X448114Y344150D01*
X447414Y344770D01*
X446729Y345406D01*
X446059Y346059D01*
X445406Y346729D01*
X444770Y347414D01*
X444150Y348114D01*
X443548Y348830D01*
X442964Y349560D01*
X442398Y350304D01*
X441850Y351062D01*
X441321Y351833D01*
X440811Y352617D01*
X440321Y353413D01*
X439850Y354221D01*
X439399Y355040D01*
X438968Y355870D01*
X438558Y356710D01*
X438169Y357560D01*
X437800Y358420D01*
X437453Y359288D01*
X437127Y360164D01*
X436823Y361049D01*
X436541Y361940D01*
X436280Y362838D01*
X436042Y363742D01*
X435826Y364652D01*
X435632Y365567D01*
X435461Y366486D01*
X435312Y367410D01*
X435187Y368336D01*
X435083Y369266D01*
X435003Y370197D01*
X434946Y371131D01*
X434911Y372065D01*
X434900Y373000D01*
D17*
X359857Y231954D02*
X254952Y231845D01*
X254873Y287133D02*
X359754Y287145D01*
X254873Y287133D02*
X254873Y231193D01*
X359806Y231336D02*
X359754Y287145D01*
D18*
X362898Y226208D02*
X374592Y226208D01*
X362898Y226208D02*
X362898Y232055D01*
X364847Y234004D01*
X368745Y234004D01*
X370694Y232055D01*
X370694Y226208D01*
X370694Y230106D02*
X374592Y234004D01*
X366796Y237902D02*
X362898Y241800D01*
X374592Y241800D01*
X374592Y237902D02*
X374592Y245698D01*
X364847Y249596D02*
X362898Y251545D01*
X362898Y255443D01*
X364847Y257392D01*
X366796Y257392D01*
X368745Y255443D01*
X370694Y257392D01*
X372643Y257392D01*
X374592Y255443D01*
X374592Y251545D01*
X372643Y249596D01*
X370694Y249596D01*
X368745Y251545D01*
X366796Y249596D01*
X364847Y249596D01*
X368745Y251545D02*
X368745Y255443D01*
D15*
X360000Y288000D02*
X254000Y288000D01*
X360000Y288000D02*
X360000Y231000D01*
X254000Y231000D01*
X254000Y288000D01*
D12*
X469952Y278252D02*
X469855Y278160D01*
X469761Y278065D01*
X469670Y277968D01*
X469582Y277867D01*
X469496Y277764D01*
X469414Y277659D01*
X469335Y277551D01*
X469260Y277441D01*
X469187Y277329D01*
X469118Y277214D01*
X469053Y277098D01*
X468990Y276980D01*
X468932Y276860D01*
X468877Y276738D01*
X468826Y276614D01*
X468778Y276490D01*
X468734Y276363D01*
X468694Y276236D01*
X468658Y276107D01*
X468625Y275978D01*
X468596Y275847D01*
X468572Y275716D01*
X468551Y275584D01*
X468534Y275451D01*
X468521Y275318D01*
X468512Y275185D01*
X468507Y275051D01*
X468506Y274918D01*
X468509Y274784D01*
X468516Y274651D01*
X468527Y274518D01*
X468542Y274385D01*
X468560Y274253D01*
X468583Y274121D01*
X468610Y273990D01*
X468640Y273860D01*
X468675Y273731D01*
X468713Y273603D01*
X468755Y273476D01*
X468800Y273350D01*
X468850Y273226D01*
X468903Y273103D01*
X468960Y272982D01*
X469020Y272863D01*
X469084Y272746D01*
X469151Y272630D01*
X469222Y272517D01*
X469296Y272406D01*
X469373Y272297D01*
X469453Y272190D01*
X469537Y272086D01*
X469624Y271984D01*
X469713Y271885D01*
X469806Y271789D01*
X469901Y271695D01*
X470000Y271604D01*
X470100Y271517D01*
X470204Y271432D01*
X470310Y271350D01*
X470418Y271272D01*
X470528Y271197D01*
X470641Y271125D01*
X470756Y271057D01*
X470872Y270992D01*
X470991Y270930D01*
X471112Y270872D01*
X471234Y270818D01*
X471357Y270767D01*
X471482Y270720D01*
X471609Y270677D01*
X471736Y270637D01*
X471865Y270602D01*
X471995Y270570D01*
X472126Y270542D01*
X472257Y270518D01*
X472389Y270498D01*
X472522Y270482D01*
X472655Y270469D01*
X472788Y270461D01*
X472922Y270457D01*
X473055Y270456D01*
X473189Y270460D01*
X473322Y270468D01*
X473456Y270479D01*
X473588Y270495D01*
X473721Y270514D01*
X473852Y270538D01*
X473983Y270565D01*
X474113Y270596D01*
X474242Y270631D01*
X474370Y270670D01*
X474496Y270712D01*
X474622Y270759D01*
X474746Y270809D01*
X474868Y270863D01*
X474989Y270920D01*
X475108Y270981D01*
X475225Y271045D01*
X475340Y271113D01*
X475453Y271184D01*
X475564Y271259D01*
X475672Y271337D01*
X475778Y271418D01*
X475882Y271502D01*
X475983Y271589D01*
X476082Y271679D01*
X476178Y271772D01*
X476048Y309748D02*
X476145Y309840D01*
X476239Y309935D01*
X476330Y310032D01*
X476418Y310133D01*
X476504Y310236D01*
X476586Y310341D01*
X476665Y310449D01*
X476740Y310559D01*
X476813Y310671D01*
X476882Y310786D01*
X476947Y310902D01*
X477010Y311020D01*
X477068Y311140D01*
X477123Y311262D01*
X477174Y311386D01*
X477222Y311510D01*
X477266Y311637D01*
X477306Y311764D01*
X477342Y311893D01*
X477375Y312022D01*
X477404Y312153D01*
X477428Y312284D01*
X477449Y312416D01*
X477466Y312549D01*
X477479Y312682D01*
X477488Y312815D01*
X477493Y312949D01*
X477494Y313082D01*
X477491Y313216D01*
X477484Y313349D01*
X477473Y313482D01*
X477458Y313615D01*
X477440Y313747D01*
X477417Y313879D01*
X477390Y314010D01*
X477360Y314140D01*
X477325Y314269D01*
X477287Y314397D01*
X477245Y314524D01*
X477200Y314650D01*
X477150Y314774D01*
X477097Y314897D01*
X477040Y315018D01*
X476980Y315137D01*
X476916Y315254D01*
X476849Y315370D01*
X476778Y315483D01*
X476704Y315594D01*
X476627Y315703D01*
X476547Y315810D01*
X476463Y315914D01*
X476376Y316016D01*
X476287Y316115D01*
X476194Y316211D01*
X476099Y316305D01*
X476000Y316396D01*
X475900Y316483D01*
X475796Y316568D01*
X475690Y316650D01*
X475582Y316728D01*
X475472Y316803D01*
X475359Y316875D01*
X475244Y316943D01*
X475128Y317008D01*
X475009Y317070D01*
X474888Y317128D01*
X474766Y317182D01*
X474643Y317233D01*
X474518Y317280D01*
X474391Y317323D01*
X474264Y317363D01*
X474135Y317398D01*
X474005Y317430D01*
X473874Y317458D01*
X473743Y317482D01*
X473611Y317502D01*
X473478Y317518D01*
X473345Y317531D01*
X473212Y317539D01*
X473078Y317543D01*
X472945Y317544D01*
X472811Y317540D01*
X472678Y317532D01*
X472544Y317521D01*
X472412Y317505D01*
X472279Y317486D01*
X472148Y317462D01*
X472017Y317435D01*
X471887Y317404D01*
X471758Y317369D01*
X471630Y317330D01*
X471504Y317288D01*
X471378Y317241D01*
X471254Y317191D01*
X471132Y317137D01*
X471011Y317080D01*
X470892Y317019D01*
X470775Y316955D01*
X470660Y316887D01*
X470547Y316816D01*
X470436Y316741D01*
X470328Y316663D01*
X470222Y316582D01*
X470118Y316498D01*
X470017Y316411D01*
X469918Y316321D01*
X469822Y316228D01*
X476048Y309748D02*
X469698Y303398D01*
X463348Y309748D02*
X469698Y316098D01*
X476048Y284348D02*
X469698Y277998D01*
X476048Y271648D02*
X482398Y277998D01*
D25*
X479350Y281300D02*
X473000Y274950D01*
X466650Y306700D02*
X473000Y313050D01*
X475540Y296540D02*
X470460Y291460D01*
D12*
X441250Y294000D02*
X441260Y294779D01*
X441288Y295558D01*
X441336Y296336D01*
X441403Y297112D01*
X441489Y297887D01*
X441594Y298659D01*
X441717Y299428D01*
X441860Y300194D01*
X442021Y300956D01*
X442202Y301715D01*
X442400Y302468D01*
X442617Y303217D01*
X442852Y303959D01*
X443106Y304696D01*
X443377Y305427D01*
X443667Y306150D01*
X443974Y306866D01*
X444298Y307575D01*
X444640Y308275D01*
X444999Y308967D01*
X445375Y309650D01*
X445767Y310323D01*
X446176Y310986D01*
X446601Y311639D01*
X447042Y312282D01*
X447498Y312913D01*
X447970Y313534D01*
X448457Y314142D01*
X448959Y314738D01*
X449475Y315322D01*
X450005Y315893D01*
X450549Y316451D01*
X451107Y316995D01*
X451678Y317525D01*
X452262Y318041D01*
X452858Y318543D01*
X453466Y319030D01*
X454087Y319502D01*
X454718Y319958D01*
X455361Y320399D01*
X456014Y320824D01*
X456677Y321233D01*
X457350Y321625D01*
X458033Y322001D01*
X458725Y322360D01*
X459425Y322702D01*
X460134Y323026D01*
X460850Y323333D01*
X461573Y323623D01*
X462304Y323894D01*
X463041Y324148D01*
X463783Y324383D01*
X464532Y324600D01*
X465285Y324798D01*
X466044Y324979D01*
X466806Y325140D01*
X467572Y325283D01*
X468341Y325406D01*
X469113Y325511D01*
X469888Y325597D01*
X470664Y325664D01*
X471442Y325712D01*
X472221Y325740D01*
X473000Y325750D01*
X473779Y325740D01*
X474558Y325712D01*
X475336Y325664D01*
X476112Y325597D01*
X476887Y325511D01*
X477659Y325406D01*
X478428Y325283D01*
X479194Y325140D01*
X479956Y324979D01*
X480715Y324798D01*
X481468Y324600D01*
X482217Y324383D01*
X482959Y324148D01*
X483696Y323894D01*
X484427Y323623D01*
X485150Y323333D01*
X485866Y323026D01*
X486575Y322702D01*
X487275Y322360D01*
X487967Y322001D01*
X488650Y321625D01*
X489323Y321233D01*
X489986Y320824D01*
X490639Y320399D01*
X491282Y319958D01*
X491913Y319502D01*
X492534Y319030D01*
X493142Y318543D01*
X493738Y318041D01*
X494322Y317525D01*
X494893Y316995D01*
X495451Y316451D01*
X495995Y315893D01*
X496525Y315322D01*
X497041Y314738D01*
X497543Y314142D01*
X498030Y313534D01*
X498502Y312913D01*
X498958Y312282D01*
X499399Y311639D01*
X499824Y310986D01*
X500233Y310323D01*
X500625Y309650D01*
X501001Y308967D01*
X501360Y308275D01*
X501702Y307575D01*
X502026Y306866D01*
X502333Y306150D01*
X502623Y305427D01*
X502894Y304696D01*
X503148Y303959D01*
X503383Y303217D01*
X503600Y302468D01*
X503798Y301715D01*
X503979Y300956D01*
X504140Y300194D01*
X504283Y299428D01*
X504406Y298659D01*
X504511Y297887D01*
X504597Y297112D01*
X504664Y296336D01*
X504712Y295558D01*
X504740Y294779D01*
X504750Y294000D01*
X504740Y293221D01*
X504712Y292442D01*
X504664Y291664D01*
X504597Y290888D01*
X504511Y290113D01*
X504406Y289341D01*
X504283Y288572D01*
X504140Y287806D01*
X503979Y287044D01*
X503798Y286285D01*
X503600Y285532D01*
X503383Y284783D01*
X503148Y284041D01*
X502894Y283304D01*
X502623Y282573D01*
X502333Y281850D01*
X502026Y281134D01*
X501702Y280425D01*
X501360Y279725D01*
X501001Y279033D01*
X500625Y278350D01*
X500233Y277677D01*
X499824Y277014D01*
X499399Y276361D01*
X498958Y275718D01*
X498502Y275087D01*
X498030Y274466D01*
X497543Y273858D01*
X497041Y273262D01*
X496525Y272678D01*
X495995Y272107D01*
X495451Y271549D01*
X494893Y271005D01*
X494322Y270475D01*
X493738Y269959D01*
X493142Y269457D01*
X492534Y268970D01*
X491913Y268498D01*
X491282Y268042D01*
X490639Y267601D01*
X489986Y267176D01*
X489323Y266767D01*
X488650Y266375D01*
X487967Y265999D01*
X487275Y265640D01*
X486575Y265298D01*
X485866Y264974D01*
X485150Y264667D01*
X484427Y264377D01*
X483696Y264106D01*
X482959Y263852D01*
X482217Y263617D01*
X481468Y263400D01*
X480715Y263202D01*
X479956Y263021D01*
X479194Y262860D01*
X478428Y262717D01*
X477659Y262594D01*
X476887Y262489D01*
X476112Y262403D01*
X475336Y262336D01*
X474558Y262288D01*
X473779Y262260D01*
X473000Y262250D01*
X472221Y262260D01*
X471442Y262288D01*
X470664Y262336D01*
X469888Y262403D01*
X469113Y262489D01*
X468341Y262594D01*
X467572Y262717D01*
X466806Y262860D01*
X466044Y263021D01*
X465285Y263202D01*
X464532Y263400D01*
X463783Y263617D01*
X463041Y263852D01*
X462304Y264106D01*
X461573Y264377D01*
X460850Y264667D01*
X460134Y264974D01*
X459425Y265298D01*
X458725Y265640D01*
X458033Y265999D01*
X457350Y266375D01*
X456677Y266767D01*
X456014Y267176D01*
X455361Y267601D01*
X454718Y268042D01*
X454087Y268498D01*
X453466Y268970D01*
X452858Y269457D01*
X452262Y269959D01*
X451678Y270475D01*
X451107Y271005D01*
X450549Y271549D01*
X450005Y272107D01*
X449475Y272678D01*
X448959Y273262D01*
X448457Y273858D01*
X447970Y274466D01*
X447498Y275087D01*
X447042Y275718D01*
X446601Y276361D01*
X446176Y277014D01*
X445767Y277677D01*
X445375Y278350D01*
X444999Y279033D01*
X444640Y279725D01*
X444298Y280425D01*
X443974Y281134D01*
X443667Y281850D01*
X443377Y282573D01*
X443106Y283304D01*
X442852Y284041D01*
X442617Y284783D01*
X442400Y285532D01*
X442202Y286285D01*
X442021Y287044D01*
X441860Y287806D01*
X441717Y288572D01*
X441594Y289341D01*
X441489Y290113D01*
X441403Y290888D01*
X441336Y291664D01*
X441288Y292442D01*
X441260Y293221D01*
X441250Y294000D01*
D15*
X507915Y296647D02*
X519355Y296647D01*
X519355Y304274D01*
X511729Y308341D02*
X507915Y312154D01*
X519355Y312154D01*
X519355Y308341D02*
X519355Y315968D01*
X388297Y339000D02*
X388297Y272000D01*
X388297Y339000D02*
X426297Y339000D01*
X426297Y272000D01*
X388297Y272000D01*
D18*
X385669Y268935D02*
X373975Y268935D01*
X373975Y276731D01*
X379822Y272833D02*
X379822Y268935D01*
X377873Y280629D02*
X373975Y284527D01*
X385669Y284527D01*
X385669Y280629D02*
X385669Y288425D01*
D15*
X532825Y151763D02*
X539175Y147000D01*
X532825Y147000D02*
X532825Y151763D01*
X532825Y147000D02*
X532825Y142237D01*
X539175Y147000D01*
X539175Y151763D01*
X539175Y147000D02*
X539175Y142237D01*
X532825Y147000D02*
X524887Y147000D01*
X539175Y147000D02*
X547113Y147000D01*
D11*
X504504Y158994D02*
X504504Y164587D01*
X504504Y158994D02*
X507300Y158994D01*
X508233Y159926D01*
X508233Y163655D01*
X507300Y164587D01*
X504504Y164587D01*
X510117Y164587D02*
X513846Y164587D01*
X513846Y163655D01*
X510117Y159926D01*
X510117Y158994D01*
D15*
X503900Y157700D02*
X568100Y157700D01*
X568100Y136300D01*
X503900Y136300D01*
X503900Y157700D01*
D11*
X620725Y157453D02*
X620725Y151860D01*
X620725Y157453D02*
X623521Y157453D01*
X624453Y156521D01*
X624453Y154657D01*
X623521Y153725D01*
X620725Y153725D01*
X626338Y151860D02*
X628202Y151860D01*
X627270Y151860D02*
X627270Y157453D01*
X626338Y157453D02*
X628202Y157453D01*
X630080Y157453D02*
X630080Y151860D01*
X633809Y151860D02*
X630080Y157453D01*
X633809Y157453D02*
X633809Y151860D01*
X635693Y151860D02*
X635693Y157453D01*
X635693Y151860D02*
X638490Y151860D01*
X639422Y152792D01*
X639422Y156521D01*
X638490Y157453D01*
X635693Y157453D01*
D15*
X622000Y150000D02*
X654000Y150000D01*
X654000Y118000D01*
X622000Y118000D01*
X622000Y150000D01*
M02*
