%
M48
M72
T01C0.0320
T02C0.0394
T03C0.0440
T04C0.0470
T05C0.0500
T06C0.0520
T07C0.0591
T08C0.0710
T09C0.0787
T10C0.1102
T11C0.1300
%
T01
X10680Y15393
X11680Y15393
X12680Y15393
X13680Y15393
X14680Y15393
X15680Y15393
X16680Y15393
X16680Y18393
X15680Y18393
X14680Y18393
X13680Y18393
X12680Y18393
X11680Y18393
X10680Y18393
X14180Y23893
X14180Y24893
X14180Y25893
X22680Y25893
X23680Y25893
X24680Y25893
X25680Y25893
X25680Y22893
X24680Y22893
X23680Y22893
X22680Y22893
X28180Y20393
X30180Y20393
X29180Y22893
X29180Y23893
X29180Y24893
X22680Y14393
X22680Y13393
X39680Y14393
X40680Y14393
X40680Y10393
X39680Y10393
X32180Y39893
X31180Y39893
X6680Y40393
X5680Y40393
T02
X9180Y40393
X10180Y40393
X11180Y40393
X12180Y40393
X9680Y24893
X9680Y18393
X6180Y18393
X6180Y17393
X6180Y16393
X6180Y15393
X6180Y14393
X30180Y25893
X35680Y25893
X40180Y17393
X40180Y16393
X36680Y39893
X35680Y39893
X34680Y39893
X33680Y39893
T03
X25180Y17393
X25180Y16393
X25180Y15393
T04
X25640Y8373
X25640Y6413
X29220Y6413
X29220Y8373
X34140Y8373
X34140Y6413
X20720Y6413
X20720Y8373
X17140Y8373
X17140Y6413
X12220Y6413
X12220Y8373
X9140Y8373
X9140Y6413
X4220Y6413
X4220Y8373
T05
X10680Y8393
X10680Y12393
X9180Y13893
X13180Y13893
X18180Y17393
X19680Y16393
X19680Y20393
X18180Y21393
X16680Y22893
X19180Y23893
X20680Y22393
X20680Y26393
X19180Y27893
X16680Y26893
X12180Y27893
X10680Y27393
X12180Y23893
X6680Y27393
X18680Y12393
X18680Y8393
X27180Y8393
X27180Y12393
X35680Y14893
X37680Y14893
X36180Y11893
X37680Y8393
X36180Y7893
X41680Y8393
X37680Y18893
X35680Y18893
X31680Y23393
X31680Y27393
X27180Y27893
X27180Y23893
X37680Y23893
X37680Y27893
T06
X35680Y29643
X33330Y30443
X38030Y30443
X38030Y35243
X33330Y35243
X12530Y35743
X7830Y35743
X7830Y30943
X10180Y30143
X12530Y30943
T07
X16958Y32712
X16939Y34382
X24939Y34382
X24958Y32712
T08
X23180Y9163
X23180Y5623
X14680Y5623
X14680Y9163
X6680Y9163
X6680Y5623
X31680Y5623
X31680Y9163
T09
X24998Y30094
X21584Y30952
X21584Y35444
X24077Y36488
X29584Y35444
X29584Y30952
X16998Y30094
X16077Y36488
T10
X2180Y5893
X22180Y18893
X33180Y21893
X39180Y5893
X40180Y41893
X4180Y41893
T11
X32080Y16393
M30
