G75*
%MOIN*%
%OFA0B0*%
%FSLAX25Y25*%
%IPPOS*%
%LPD*%
%AMOC8*
5,1,8,0,0,1.08239X$1,22.5*
%
%ADD10C,0.00000*%
%ADD11R,0.04737X0.05131*%
%ADD12OC8,0.05800*%
%ADD13R,0.07493X0.07887*%
%ADD14R,0.09600X0.05600*%
%ADD15R,0.09461X0.14973*%
%ADD16R,0.04343X0.03950*%
%ADD17R,0.05131X0.04737*%
%ADD18R,0.12611X0.12611*%
%ADD19OC8,0.06000*%
%ADD20OC8,0.14580*%
%ADD21OC8,0.10643*%
%ADD22R,0.06784X0.07808*%
%ADD23R,0.07887X0.07493*%
%ADD24R,0.07100X0.07100*%
%ADD25C,0.04762*%
%ADD26OC8,0.04762*%
D10*
X0046060Y0028618D02*
X0306285Y0028364D01*
X0305902Y0028618D02*
X0306285Y0138640D01*
X0046060Y0138894D01*
X0046060Y0028618D01*
D11*
X0143246Y0049116D03*
X0153088Y0048249D03*
X0159781Y0048249D03*
X0143246Y0055809D03*
X0153207Y0056596D03*
X0159899Y0056596D03*
X0160075Y0071138D03*
X0153383Y0071138D03*
X0216239Y0081951D03*
X0216239Y0088644D03*
X0202460Y0107620D03*
X0195767Y0107620D03*
X0186712Y0107541D03*
X0180019Y0107541D03*
X0173139Y0108390D03*
X0165265Y0108382D03*
X0157569Y0108393D03*
X0157569Y0115086D03*
X0165265Y0115075D03*
X0173139Y0115083D03*
X0239866Y0050379D03*
X0246558Y0050379D03*
D12*
X0250406Y0063004D03*
X0259597Y0063053D03*
X0259637Y0089746D03*
X0250446Y0089696D03*
X0250249Y0114500D03*
X0259440Y0114549D03*
D13*
X0202539Y0099470D03*
X0202539Y0083329D03*
X0128126Y0079087D03*
X0128126Y0062945D03*
D14*
X0185447Y0081000D03*
X0185447Y0090100D03*
X0185447Y0099200D03*
D15*
X0161046Y0090100D03*
D16*
X0135647Y0056045D03*
X0127773Y0052305D03*
X0135647Y0048564D03*
D17*
X0168915Y0049470D03*
X0168915Y0056163D03*
D18*
X0276790Y0061738D03*
X0295064Y0052880D03*
X0276908Y0040599D03*
X0295196Y0083227D03*
X0276746Y0092176D03*
X0295459Y0101418D03*
X0276635Y0110815D03*
X0295360Y0123207D03*
D19*
X0216926Y0067516D03*
X0209426Y0062516D03*
X0216926Y0057516D03*
D20*
X0103393Y0057043D03*
X0057527Y0065626D03*
X0057527Y0110547D03*
X0112606Y0120980D03*
D21*
X0103984Y0099917D03*
X0103787Y0083224D03*
D22*
X0193284Y0071374D03*
X0193284Y0061374D03*
X0193284Y0051374D03*
X0229859Y0051374D03*
X0229859Y0061374D03*
X0229859Y0071374D03*
D23*
X0266217Y0077909D03*
X0282359Y0077909D03*
D24*
X0102831Y0035626D03*
X0092753Y0035587D03*
X0082871Y0035587D03*
X0072871Y0035469D03*
X0062635Y0035547D03*
D25*
X0125587Y0047161D03*
X0145194Y0043264D03*
X0175769Y0049312D03*
X0183461Y0058972D03*
X0170075Y0066059D03*
X0141335Y0069209D03*
X0138186Y0082201D03*
X0125942Y0087988D03*
X0157477Y0102280D03*
X0176375Y0099130D03*
X0209839Y0089287D03*
X0207871Y0071571D03*
X0242123Y0071965D03*
X0241335Y0108579D03*
D26*
X0132871Y0112358D03*
X0132855Y0098988D03*
M02*
