  0
SECTION
  2
HEADER
  9
$ACADVER
  1
AC1009
  9
$FILLMODE
 70
1
  9
$EXTMIN
 10
-10.8852
 20
-9.2070
 30
0.0000
  9
$EXTMAX
 10
76.6075
 20
37.1756
 30
0.0000
  0
ENDSEC
  0
SECTION
  2
TABLES
  0
TABLE
  2
LTYPE
 70
1
  0
LTYPE
  2
CONTINUOUS
 70
64
  3
Solid line
 72
65
 73
0
 40
0
  0
ENDTAB
  0
TABLE
  2
LAYER
 70
255
  0
LAYER
  2
20
 70
64
 62
7
  6
CONTINUOUS
  0
LAYER
  2
29
 70
64
 62
253
  6
CONTINUOUS
  0
LAYER
  2
31
 70
64
 62
253
  6
CONTINUOUS
  0
ENDTAB
  0
ENDSEC
  0
SECTION
  2
BLOCKS
  0
BLOCK
  8
0
  2
RECT
 70
64
 10
0.0000
 20
0.0000
 30
0.0000
  3
RECT
  0
SOLID
  8
0
 10
-0.5000
 20
-0.5000
 30
0.0000
 11
0.5000
 21
-0.5000
 31
0.0000
 12
-0.5000
 22
0.5000
 32
0.0000
 13
0.5000
 23
0.5000
 33
0.0000
  0
ENDBLK
  8
0
  0
BLOCK
  8
0
  2
PIE
 70
64
 10
0.0000
 20
0.0000
 30
0.0000
  3
PIE
  0
POLYLINE
  8
0
 66
1
 10
0.0000
 20
0.0000
 30
0.0000
 40
0.5000
 41
0.5000
 70
0
  0
VERTEX
  8
0
 10
0.0000
 20
-0.2500
 30
0.0000
 42
1.0000
  0
VERTEX
  8
0
 10
0.0000
 20
0.2500
 30
0.0000
 42
1.0000
  0
VERTEX
  8
0
 10
0.0000
 20
-0.2500
 30
0.0000
  0
SEQEND
  8
0
  0
ENDBLK
  8
0
  0
BLOCK
  8
0
  2
OCTAGONP
 70
64
 10
0.0000
 20
0.0000
 30
0.0000
  3
OCTAGONP
  0
POLYLINE
  8
0
 66
1
 10
0.0000
 20
0.0000
 30
0.0000
 40
0.5000
 41
0.5000
 70
0
  0
VERTEX
  8
0
 10
-0.2500
 20
-0.1036
 30
0.0000
  0
VERTEX
  8
0
 10
-0.2500
 20
0.1036
 30
0.0000
  0
VERTEX
  8
0
 10
-0.1036
 20
0.2500
 30
0.0000
  0
VERTEX
  8
0
 10
0.1036
 20
0.2500
 30
0.0000
  0
VERTEX
  8
0
 10
0.2500
 20
0.1036
 30
0.0000
  0
VERTEX
  8
0
 10
0.2500
 20
-0.1036
 30
0.0000
  0
VERTEX
  8
0
 10
0.1036
 20
-0.2500
 30
0.0000
  0
VERTEX
  8
0
 10
-0.1036
 20
-0.2500
 30
0.0000
  0
VERTEX
  8
0
 10
-0.2500
 20
-0.1036
 30
0.0000
  0
VERTEX
  8
0
 10
-0.2500
 20
0.1036
 30
0.0000
  0
SEQEND
  8
0
  0
ENDBLK
  8
0
  0
BLOCK
  8
0
  2
SQUAREP
 70
64
 10
0.0000
 20
0.0000
 30
0.0000
  3
SQUAREP
  0
SOLID
  8
0
 10
-0.5000
 20
-0.5000
 30
0.0000
 11
0.5000
 21
-0.5000
 31
0.0000
 12
-0.5000
 22
0.5000
 32
0.0000
 13
0.5000
 23
0.5000
 33
0.0000
  0
ENDBLK
  8
0
  0
BLOCK
  8
0
  2
ROUNDP
 70
64
 10
0.0000
 20
0.0000
 30
0.0000
  3
ROUNDP
  0
POLYLINE
  8
0
 66
1
 10
0.0000
 20
0.0000
 30
0.0000
 40
0.5000
 41
0.5000
 70
0
  0
VERTEX
  8
0
 10
0.0000
 20
-0.2500
 30
0.0000
 42
1.0000
  0
VERTEX
  8
0
 10
0.0000
 20
0.2500
 30
0.0000
 42
1.0000
  0
VERTEX
  8
0
 10
0.0000
 20
-0.2500
 30
0.0000
  0
SEQEND
  8
0
  0
ENDBLK
  8
0
  0
BLOCK
  8
0
  2
ANNULUSP
 70
64
 10
0.0000
 20
0.0000
 30
0.0000
  3
ANNULUSP
  0
POLYLINE
  8
0
 66
1
 10
0.0000
 20
0.0000
 30
0.0000
 40
0.5000
 41
0.5000
 70
0
  0
VERTEX
  8
0
 10
0.0000
 20
-0.2500
 30
0.0000
 42
1.0000
  0
VERTEX
  8
0
 10
0.0000
 20
0.2500
 30
0.0000
 42
1.0000
  0
VERTEX
  8
0
 10
0.0000
 20
-0.2500
 30
0.0000
  0
SEQEND
  8
0
  0
ENDBLK
  8
0
  0
BLOCK
  8
0
  2
THERMALP
 70
64
 10
0.0000
 20
0.0000
 30
0.0000
  3
THERMALP
  0
POLYLINE
  8
0
 66
1
 10
0.0000
 20
0.0000
 30
0.0000
 40
0.1000
 41
0.1000
 70
0
  0
VERTEX
  8
0
 10
-0.2379
 20
0.4500
 30
0.0000
  0
VERTEX
  8
0
 10
0.2379
 20
0.4500
 30
0.0000
  0
SEQEND
  8
0
  0
POLYLINE
  8
0
 66
1
 10
0.0000
 20
0.0000
 30
0.0000
 40
0.0500
 41
0.0500
 70
0
  0
VERTEX
  8
0
 10
0.2379
 20
0.4250
 30
0.0000
 42
1.0000
  0
VERTEX
  8
0
 10
0.2379
 20
0.4750
 30
0.0000
  0
SEQEND
  8
0
  0
POLYLINE
  8
0
 66
1
 10
0.0000
 20
0.0000
 30
0.0000
 40
0.0500
 41
0.0500
 70
0
  0
VERTEX
  8
0
 10
-0.2379
 20
0.4750
 30
0.0000
 42
1.0000
  0
VERTEX
  8
0
 10
-0.2379
 20
0.4250
 30
0.0000
  0
SEQEND
  8
0
  0
POLYLINE
  8
0
 66
1
 10
0.0000
 20
0.0000
 30
0.0000
 40
0.1000
 41
0.1000
 70
0
  0
VERTEX
  8
0
 10
0.4500
 20
0.2379
 30
0.0000
  0
VERTEX
  8
0
 10
0.4500
 20
-0.2379
 30
0.0000
  0
SEQEND
  8
0
  0
POLYLINE
  8
0
 66
1
 10
0.0000
 20
0.0000
 30
0.0000
 40
0.0500
 41
0.0500
 70
0
  0
VERTEX
  8
0
 10
0.4250
 20
-0.2379
 30
0.0000
 42
1.0000
  0
VERTEX
  8
0
 10
0.4750
 20
-0.2379
 30
0.0000
  0
SEQEND
  8
0
  0
POLYLINE
  8
0
 66
1
 10
0.0000
 20
0.0000
 30
0.0000
 40
0.0500
 41
0.0500
 70
0
  0
VERTEX
  8
0
 10
0.4750
 20
0.2379
 30
0.0000
 42
1.0000
  0
VERTEX
  8
0
 10
0.4250
 20
0.2379
 30
0.0000
  0
SEQEND
  8
0
  0
POLYLINE
  8
0
 66
1
 10
0.0000
 20
0.0000
 30
0.0000
 40
0.1000
 41
0.1000
 70
0
  0
VERTEX
  8
0
 10
0.2379
 20
-0.4500
 30
0.0000
  0
VERTEX
  8
0
 10
-0.2379
 20
-0.4500
 30
0.0000
  0
SEQEND
  8
0
  0
POLYLINE
  8
0
 66
1
 10
0.0000
 20
0.0000
 30
0.0000
 40
0.0500
 41
0.0500
 70
0
  0
VERTEX
  8
0
 10
-0.2379
 20
-0.4250
 30
0.0000
 42
1.0000
  0
VERTEX
  8
0
 10
-0.2379
 20
-0.4750
 30
0.0000
  0
SEQEND
  8
0
  0
POLYLINE
  8
0
 66
1
 10
0.0000
 20
0.0000
 30
0.0000
 40
0.0500
 41
0.0500
 70
0
  0
VERTEX
  8
0
 10
0.2379
 20
-0.4750
 30
0.0000
 42
1.0000
  0
VERTEX
  8
0
 10
0.2379
 20
-0.4250
 30
0.0000
  0
SEQEND
  8
0
  0
POLYLINE
  8
0
 66
1
 10
0.0000
 20
0.0000
 30
0.0000
 40
0.1000
 41
0.1000
 70
0
  0
VERTEX
  8
0
 10
-0.4500
 20
-0.2379
 30
0.0000
  0
VERTEX
  8
0
 10
-0.4500
 20
0.2379
 30
0.0000
  0
SEQEND
  8
0
  0
POLYLINE
  8
0
 66
1
 10
0.0000
 20
0.0000
 30
0.0000
 40
0.0500
 41
0.0500
 70
0
  0
VERTEX
  8
0
 10
-0.4250
 20
0.2379
 30
0.0000
 42
1.0000
  0
VERTEX
  8
0
 10
-0.4750
 20
0.2379
 30
0.0000
  0
SEQEND
  8
0
  0
POLYLINE
  8
0
 66
1
 10
0.0000
 20
0.0000
 30
0.0000
 40
0.0500
 41
0.0500
 70
0
  0
VERTEX
  8
0
 10
-0.4750
 20
-0.2379
 30
0.0000
 42
1.0000
  0
VERTEX
  8
0
 10
-0.4250
 20
-0.2379
 30
0.0000
  0
SEQEND
  8
0
  0
ENDBLK
  8
0
  0
BLOCK
  8
0
  2
OCTAGONV
 70
64
 10
0.0000
 20
0.0000
 30
0.0000
  3
OCTAGONV
  0
POLYLINE
  8
0
 66
1
 10
0.0000
 20
0.0000
 30
0.0000
 40
0.5000
 41
0.5000
 70
0
  0
VERTEX
  8
0
 10
-0.2500
 20
-0.1036
 30
0.0000
  0
VERTEX
  8
0
 10
-0.2500
 20
0.1036
 30
0.0000
  0
VERTEX
  8
0
 10
-0.1036
 20
0.2500
 30
0.0000
  0
VERTEX
  8
0
 10
0.1036
 20
0.2500
 30
0.0000
  0
VERTEX
  8
0
 10
0.2500
 20
0.1036
 30
0.0000
  0
VERTEX
  8
0
 10
0.2500
 20
-0.1036
 30
0.0000
  0
VERTEX
  8
0
 10
0.1036
 20
-0.2500
 30
0.0000
  0
VERTEX
  8
0
 10
-0.1036
 20
-0.2500
 30
0.0000
  0
VERTEX
  8
0
 10
-0.2500
 20
-0.1036
 30
0.0000
  0
VERTEX
  8
0
 10
-0.2500
 20
0.1036
 30
0.0000
  0
SEQEND
  8
0
  0
ENDBLK
  8
0
  0
BLOCK
  8
0
  2
SQUAREV
 70
64
 10
0.0000
 20
0.0000
 30
0.0000
  3
SQUAREV
  0
SOLID
  8
0
 10
-0.5000
 20
-0.5000
 30
0.0000
 11
0.5000
 21
-0.5000
 31
0.0000
 12
-0.5000
 22
0.5000
 32
0.0000
 13
0.5000
 23
0.5000
 33
0.0000
  0
ENDBLK
  8
0
  0
BLOCK
  8
0
  2
ROUNDV
 70
64
 10
0.0000
 20
0.0000
 30
0.0000
  3
ROUNDV
  0
POLYLINE
  8
0
 66
1
 10
0.0000
 20
0.0000
 30
0.0000
 40
0.5000
 41
0.5000
 70
0
  0
VERTEX
  8
0
 10
0.0000
 20
-0.2500
 30
0.0000
 42
1.0000
  0
VERTEX
  8
0
 10
0.0000
 20
0.2500
 30
0.0000
 42
1.0000
  0
VERTEX
  8
0
 10
0.0000
 20
-0.2500
 30
0.0000
  0
SEQEND
  8
0
  0
ENDBLK
  8
0
  0
BLOCK
  8
0
  2
ANNULUSV
 70
64
 10
0.0000
 20
0.0000
 30
0.0000
  3
ANNULUSV
  0
POLYLINE
  8
0
 66
1
 10
0.0000
 20
0.0000
 30
0.0000
 40
0.5000
 41
0.5000
 70
0
  0
VERTEX
  8
0
 10
0.0000
 20
-0.2500
 30
0.0000
 42
1.0000
  0
VERTEX
  8
0
 10
0.0000
 20
0.2500
 30
0.0000
 42
1.0000
  0
VERTEX
  8
0
 10
0.0000
 20
-0.2500
 30
0.0000
  0
SEQEND
  8
0
  0
ENDBLK
  8
0
  0
BLOCK
  8
0
  2
THERMALV
 70
64
 10
0.0000
 20
0.0000
 30
0.0000
  3
THERMALV
  0
POLYLINE
  8
0
 66
1
 10
0.0000
 20
0.0000
 30
0.0000
 40
0.1000
 41
0.1000
 70
0
  0
VERTEX
  8
0
 10
-0.2379
 20
0.4500
 30
0.0000
  0
VERTEX
  8
0
 10
0.2379
 20
0.4500
 30
0.0000
  0
SEQEND
  8
0
  0
POLYLINE
  8
0
 66
1
 10
0.0000
 20
0.0000
 30
0.0000
 40
0.0500
 41
0.0500
 70
0
  0
VERTEX
  8
0
 10
0.2379
 20
0.4250
 30
0.0000
 42
1.0000
  0
VERTEX
  8
0
 10
0.2379
 20
0.4750
 30
0.0000
  0
SEQEND
  8
0
  0
POLYLINE
  8
0
 66
1
 10
0.0000
 20
0.0000
 30
0.0000
 40
0.0500
 41
0.0500
 70
0
  0
VERTEX
  8
0
 10
-0.2379
 20
0.4750
 30
0.0000
 42
1.0000
  0
VERTEX
  8
0
 10
-0.2379
 20
0.4250
 30
0.0000
  0
SEQEND
  8
0
  0
POLYLINE
  8
0
 66
1
 10
0.0000
 20
0.0000
 30
0.0000
 40
0.1000
 41
0.1000
 70
0
  0
VERTEX
  8
0
 10
0.4500
 20
0.2379
 30
0.0000
  0
VERTEX
  8
0
 10
0.4500
 20
-0.2379
 30
0.0000
  0
SEQEND
  8
0
  0
POLYLINE
  8
0
 66
1
 10
0.0000
 20
0.0000
 30
0.0000
 40
0.0500
 41
0.0500
 70
0
  0
VERTEX
  8
0
 10
0.4250
 20
-0.2379
 30
0.0000
 42
1.0000
  0
VERTEX
  8
0
 10
0.4750
 20
-0.2379
 30
0.0000
  0
SEQEND
  8
0
  0
POLYLINE
  8
0
 66
1
 10
0.0000
 20
0.0000
 30
0.0000
 40
0.0500
 41
0.0500
 70
0
  0
VERTEX
  8
0
 10
0.4750
 20
0.2379
 30
0.0000
 42
1.0000
  0
VERTEX
  8
0
 10
0.4250
 20
0.2379
 30
0.0000
  0
SEQEND
  8
0
  0
POLYLINE
  8
0
 66
1
 10
0.0000
 20
0.0000
 30
0.0000
 40
0.1000
 41
0.1000
 70
0
  0
VERTEX
  8
0
 10
0.2379
 20
-0.4500
 30
0.0000
  0
VERTEX
  8
0
 10
-0.2379
 20
-0.4500
 30
0.0000
  0
SEQEND
  8
0
  0
POLYLINE
  8
0
 66
1
 10
0.0000
 20
0.0000
 30
0.0000
 40
0.0500
 41
0.0500
 70
0
  0
VERTEX
  8
0
 10
-0.2379
 20
-0.4250
 30
0.0000
 42
1.0000
  0
VERTEX
  8
0
 10
-0.2379
 20
-0.4750
 30
0.0000
  0
SEQEND
  8
0
  0
POLYLINE
  8
0
 66
1
 10
0.0000
 20
0.0000
 30
0.0000
 40
0.0500
 41
0.0500
 70
0
  0
VERTEX
  8
0
 10
0.2379
 20
-0.4750
 30
0.0000
 42
1.0000
  0
VERTEX
  8
0
 10
0.2379
 20
-0.4250
 30
0.0000
  0
SEQEND
  8
0
  0
POLYLINE
  8
0
 66
1
 10
0.0000
 20
0.0000
 30
0.0000
 40
0.1000
 41
0.1000
 70
0
  0
VERTEX
  8
0
 10
-0.4500
 20
-0.2379
 30
0.0000
  0
VERTEX
  8
0
 10
-0.4500
 20
0.2379
 30
0.0000
  0
SEQEND
  8
0
  0
POLYLINE
  8
0
 66
1
 10
0.0000
 20
0.0000
 30
0.0000
 40
0.0500
 41
0.0500
 70
0
  0
VERTEX
  8
0
 10
-0.4250
 20
0.2379
 30
0.0000
 42
1.0000
  0
VERTEX
  8
0
 10
-0.4750
 20
0.2379
 30
0.0000
  0
SEQEND
  8
0
  0
POLYLINE
  8
0
 66
1
 10
0.0000
 20
0.0000
 30
0.0000
 40
0.0500
 41
0.0500
 70
0
  0
VERTEX
  8
0
 10
-0.4750
 20
-0.2379
 30
0.0000
 42
1.0000
  0
VERTEX
  8
0
 10
-0.4250
 20
-0.2379
 30
0.0000
  0
SEQEND
  8
0
  0
ENDBLK
  8
0
  0
ENDSEC
  0
SECTION
  2
ENTITIES
  0
LINE
  8
20
 10
66.6573
 20
28.3955
 30
0.0000
 11
0.5600
 21
28.4600
 31
0.0000
  0
LINE
  8
20
 10
0.5600
 20
28.4600
 30
0.0000
 11
0.5600
 21
0.1600
 31
0.0000
  0
LINE
  8
20
 10
66.5600
 20
0.1600
 30
0.0000
 11
66.6573
 21
28.3955
 31
0.0000
  0
LINE
  8
20
 10
66.6573
 20
0.0955
 30
0.0000
 11
0.5600
 21
0.1600
 31
0.0000
  0
INSERT
  8
29
  2
RECT
 10
23.2474
 20
9.4641
 30
0.0000
 41
1.3032
 42
1.2032
 43
1.0000
 50
270.0000
  0
INSERT
  8
31
  2
RECT
 10
23.2474
 20
9.4641
 30
0.0000
 41
1.1000
 42
1.0000
 43
1.0000
 50
270.0000
  0
INSERT
  8
29
  2
RECT
 10
23.2474
 20
7.7641
 30
0.0000
 41
1.3032
 42
1.2032
 43
1.0000
 50
270.0000
  0
INSERT
  8
31
  2
RECT
 10
23.2474
 20
7.7641
 30
0.0000
 41
1.1000
 42
1.0000
 43
1.0000
 50
270.0000
  0
INSERT
  8
29
  2
OCTAGONP
 10
52.3800
 20
15.9700
 30
0.0000
 41
1.5240
 42
1.5240
 43
1.0000
 50
0.0000
  0
INSERT
  8
29
  2
OCTAGONP
 10
54.9200
 20
15.9700
 30
0.0000
 41
1.5240
 42
1.5240
 43
1.0000
 50
0.0000
  0
INSERT
  8
29
  2
OCTAGONP
 10
52.3300
 20
22.2700
 30
0.0000
 41
1.5240
 42
1.5240
 43
1.0000
 50
0.0000
  0
INSERT
  8
29
  2
OCTAGONP
 10
54.8700
 20
22.2700
 30
0.0000
 41
1.5240
 42
1.5240
 43
1.0000
 50
0.0000
  0
INSERT
  8
29
  2
OCTAGONP
 10
52.4800
 20
10.3700
 30
0.0000
 41
1.5240
 42
1.5240
 43
1.0000
 50
0.0000
  0
INSERT
  8
29
  2
OCTAGONP
 10
55.0200
 20
10.3700
 30
0.0000
 41
1.5240
 42
1.5240
 43
1.0000
 50
0.0000
  0
INSERT
  8
29
  2
RECT
 10
25.7121
 20
7.9557
 30
0.0000
 41
0.8032
 42
2.4032
 43
1.0000
 50
0.0000
  0
INSERT
  8
31
  2
RECT
 10
25.7121
 20
7.9557
 30
0.0000
 41
0.6000
 42
2.2000
 43
1.0000
 50
0.0000
  0
INSERT
  8
29
  2
RECT
 10
26.9821
 20
7.9557
 30
0.0000
 41
0.8032
 42
2.4032
 43
1.0000
 50
0.0000
  0
INSERT
  8
31
  2
RECT
 10
26.9821
 20
7.9557
 30
0.0000
 41
0.6000
 42
2.2000
 43
1.0000
 50
0.0000
  0
INSERT
  8
29
  2
RECT
 10
28.2521
 20
7.9557
 30
0.0000
 41
0.8032
 42
2.4032
 43
1.0000
 50
0.0000
  0
INSERT
  8
31
  2
RECT
 10
28.2521
 20
7.9557
 30
0.0000
 41
0.6000
 42
2.2000
 43
1.0000
 50
0.0000
  0
INSERT
  8
29
  2
RECT
 10
29.5221
 20
7.9557
 30
0.0000
 41
0.8032
 42
2.4032
 43
1.0000
 50
0.0000
  0
INSERT
  8
31
  2
RECT
 10
29.5221
 20
7.9557
 30
0.0000
 41
0.6000
 42
2.2000
 43
1.0000
 50
0.0000
  0
INSERT
  8
29
  2
RECT
 10
30.7921
 20
7.9557
 30
0.0000
 41
0.8032
 42
2.4032
 43
1.0000
 50
0.0000
  0
INSERT
  8
31
  2
RECT
 10
30.7921
 20
7.9557
 30
0.0000
 41
0.6000
 42
2.2000
 43
1.0000
 50
0.0000
  0
INSERT
  8
29
  2
RECT
 10
32.0621
 20
7.9557
 30
0.0000
 41
0.8032
 42
2.4032
 43
1.0000
 50
0.0000
  0
INSERT
  8
31
  2
RECT
 10
32.0621
 20
7.9557
 30
0.0000
 41
0.6000
 42
2.2000
 43
1.0000
 50
0.0000
  0
INSERT
  8
29
  2
RECT
 10
33.3321
 20
7.9557
 30
0.0000
 41
0.8032
 42
2.4032
 43
1.0000
 50
0.0000
  0
INSERT
  8
31
  2
RECT
 10
33.3321
 20
7.9557
 30
0.0000
 41
0.6000
 42
2.2000
 43
1.0000
 50
0.0000
  0
INSERT
  8
29
  2
RECT
 10
33.3321
 20
13.1557
 30
0.0000
 41
0.8032
 42
2.4032
 43
1.0000
 50
0.0000
  0
INSERT
  8
31
  2
RECT
 10
33.3321
 20
13.1557
 30
0.0000
 41
0.6000
 42
2.2000
 43
1.0000
 50
0.0000
  0
INSERT
  8
29
  2
RECT
 10
32.0621
 20
13.1557
 30
0.0000
 41
0.8032
 42
2.4032
 43
1.0000
 50
0.0000
  0
INSERT
  8
31
  2
RECT
 10
32.0621
 20
13.1557
 30
0.0000
 41
0.6000
 42
2.2000
 43
1.0000
 50
0.0000
  0
INSERT
  8
29
  2
RECT
 10
30.7921
 20
13.1557
 30
0.0000
 41
0.8032
 42
2.4032
 43
1.0000
 50
0.0000
  0
INSERT
  8
31
  2
RECT
 10
30.7921
 20
13.1557
 30
0.0000
 41
0.6000
 42
2.2000
 43
1.0000
 50
0.0000
  0
INSERT
  8
29
  2
RECT
 10
29.5221
 20
13.1557
 30
0.0000
 41
0.8032
 42
2.4032
 43
1.0000
 50
0.0000
  0
INSERT
  8
31
  2
RECT
 10
29.5221
 20
13.1557
 30
0.0000
 41
0.6000
 42
2.2000
 43
1.0000
 50
0.0000
  0
INSERT
  8
29
  2
RECT
 10
28.2521
 20
13.1557
 30
0.0000
 41
0.8032
 42
2.4032
 43
1.0000
 50
0.0000
  0
INSERT
  8
31
  2
RECT
 10
28.2521
 20
13.1557
 30
0.0000
 41
0.6000
 42
2.2000
 43
1.0000
 50
0.0000
  0
INSERT
  8
29
  2
RECT
 10
26.9821
 20
13.1557
 30
0.0000
 41
0.8032
 42
2.4032
 43
1.0000
 50
0.0000
  0
INSERT
  8
31
  2
RECT
 10
26.9821
 20
13.1557
 30
0.0000
 41
0.6000
 42
2.2000
 43
1.0000
 50
0.0000
  0
INSERT
  8
29
  2
RECT
 10
25.7121
 20
13.1557
 30
0.0000
 41
0.8032
 42
2.4032
 43
1.0000
 50
0.0000
  0
INSERT
  8
31
  2
RECT
 10
25.7121
 20
13.1557
 30
0.0000
 41
0.6000
 42
2.2000
 43
1.0000
 50
0.0000
  0
INSERT
  8
29
  2
RECT
 10
44.3451
 20
13.0637
 30
0.0000
 41
1.2032
 42
0.7032
 43
1.0000
 50
180.0000
  0
INSERT
  8
31
  2
RECT
 10
44.3451
 20
13.0637
 30
0.0000
 41
1.0000
 42
0.5000
 43
1.0000
 50
180.0000
  0
INSERT
  8
29
  2
RECT
 10
44.3451
 20
14.3337
 30
0.0000
 41
1.2032
 42
0.7032
 43
1.0000
 50
180.0000
  0
INSERT
  8
31
  2
RECT
 10
44.3451
 20
14.3337
 30
0.0000
 41
1.0000
 42
0.5000
 43
1.0000
 50
180.0000
  0
INSERT
  8
29
  2
RECT
 10
44.3451
 20
15.6037
 30
0.0000
 41
1.2032
 42
0.7032
 43
1.0000
 50
180.0000
  0
INSERT
  8
31
  2
RECT
 10
44.3451
 20
15.6037
 30
0.0000
 41
1.0000
 42
0.5000
 43
1.0000
 50
180.0000
  0
INSERT
  8
29
  2
RECT
 10
44.3451
 20
16.8737
 30
0.0000
 41
1.2032
 42
0.7032
 43
1.0000
 50
180.0000
  0
INSERT
  8
31
  2
RECT
 10
44.3451
 20
16.8737
 30
0.0000
 41
1.0000
 42
0.5000
 43
1.0000
 50
180.0000
  0
INSERT
  8
29
  2
RECT
 10
44.3451
 20
18.1437
 30
0.0000
 41
1.2032
 42
0.7032
 43
1.0000
 50
0.0000
  0
INSERT
  8
31
  2
RECT
 10
44.3451
 20
18.1437
 30
0.0000
 41
1.0000
 42
0.5000
 43
1.0000
 50
0.0000
  0
INSERT
  8
29
  2
RECT
 10
44.3451
 20
19.4137
 30
0.0000
 41
1.2032
 42
0.7032
 43
1.0000
 50
0.0000
  0
INSERT
  8
31
  2
RECT
 10
44.3451
 20
19.4137
 30
0.0000
 41
1.0000
 42
0.5000
 43
1.0000
 50
0.0000
  0
INSERT
  8
29
  2
RECT
 10
44.3451
 20
20.6837
 30
0.0000
 41
1.2032
 42
0.7032
 43
1.0000
 50
0.0000
  0
INSERT
  8
31
  2
RECT
 10
44.3451
 20
20.6837
 30
0.0000
 41
1.0000
 42
0.5000
 43
1.0000
 50
0.0000
  0
INSERT
  8
29
  2
RECT
 10
44.3451
 20
21.9537
 30
0.0000
 41
1.2032
 42
0.7032
 43
1.0000
 50
0.0000
  0
INSERT
  8
31
  2
RECT
 10
44.3451
 20
21.9537
 30
0.0000
 41
1.0000
 42
0.5000
 43
1.0000
 50
0.0000
  0
INSERT
  8
29
  2
RECT
 10
37.8651
 20
21.9537
 30
0.0000
 41
1.2032
 42
0.7032
 43
1.0000
 50
0.0000
  0
INSERT
  8
31
  2
RECT
 10
37.8651
 20
21.9537
 30
0.0000
 41
1.0000
 42
0.5000
 43
1.0000
 50
0.0000
  0
INSERT
  8
29
  2
RECT
 10
37.8651
 20
20.6837
 30
0.0000
 41
1.2032
 42
0.7032
 43
1.0000
 50
0.0000
  0
INSERT
  8
31
  2
RECT
 10
37.8651
 20
20.6837
 30
0.0000
 41
1.0000
 42
0.5000
 43
1.0000
 50
0.0000
  0
INSERT
  8
29
  2
RECT
 10
37.8651
 20
19.4137
 30
0.0000
 41
1.2032
 42
0.7032
 43
1.0000
 50
0.0000
  0
INSERT
  8
31
  2
RECT
 10
37.8651
 20
19.4137
 30
0.0000
 41
1.0000
 42
0.5000
 43
1.0000
 50
0.0000
  0
INSERT
  8
29
  2
RECT
 10
37.8651
 20
18.1437
 30
0.0000
 41
1.2032
 42
0.7032
 43
1.0000
 50
0.0000
  0
INSERT
  8
31
  2
RECT
 10
37.8651
 20
18.1437
 30
0.0000
 41
1.0000
 42
0.5000
 43
1.0000
 50
0.0000
  0
INSERT
  8
29
  2
RECT
 10
37.8651
 20
16.8737
 30
0.0000
 41
1.2032
 42
0.7032
 43
1.0000
 50
180.0000
  0
INSERT
  8
31
  2
RECT
 10
37.8651
 20
16.8737
 30
0.0000
 41
1.0000
 42
0.5000
 43
1.0000
 50
180.0000
  0
INSERT
  8
29
  2
RECT
 10
37.8651
 20
15.6037
 30
0.0000
 41
1.2032
 42
0.7032
 43
1.0000
 50
180.0000
  0
INSERT
  8
31
  2
RECT
 10
37.8651
 20
15.6037
 30
0.0000
 41
1.0000
 42
0.5000
 43
1.0000
 50
180.0000
  0
INSERT
  8
29
  2
RECT
 10
37.8651
 20
14.3337
 30
0.0000
 41
1.2032
 42
0.7032
 43
1.0000
 50
180.0000
  0
INSERT
  8
31
  2
RECT
 10
37.8651
 20
14.3337
 30
0.0000
 41
1.0000
 42
0.5000
 43
1.0000
 50
180.0000
  0
INSERT
  8
29
  2
RECT
 10
37.8651
 20
13.0637
 30
0.0000
 41
1.2032
 42
0.7032
 43
1.0000
 50
180.0000
  0
INSERT
  8
31
  2
RECT
 10
37.8651
 20
13.0637
 30
0.0000
 41
1.0000
 42
0.5000
 43
1.0000
 50
180.0000
  0
INSERT
  8
29
  2
OCTAGONP
 10
15.7227
 20
13.6800
 30
0.0000
 41
2.2032
 42
2.2032
 43
1.0000
 50
180.0000
  0
INSERT
  8
29
  2
OCTAGONP
 10
15.7727
 20
17.9200
 30
0.0000
 41
2.2032
 42
2.2032
 43
1.0000
 50
180.0000
  0
INSERT
  8
29
  2
OCTAGONP
 10
15.7227
 20
7.1300
 30
0.0000
 41
2.2032
 42
2.2032
 43
1.0000
 50
180.0000
  0
INSERT
  8
29
  2
OCTAGONP
 10
3.6227
 20
9.8600
 30
0.0000
 41
2.2032
 42
2.2032
 43
1.0000
 50
180.0000
  0
INSERT
  8
29
  2
OCTAGONP
 10
3.6227
 20
20.8700
 30
0.0000
 41
2.2032
 42
2.2032
 43
1.0000
 50
180.0000
  0
INSERT
  8
29
  2
OCTAGONP
 10
17.8727
 20
23.6000
 30
0.0000
 41
2.2032
 42
2.2032
 43
1.0000
 50
180.0000
  0
INSERT
  8
29
  2
OCTAGONP
 10
59.1954
 20
3.4930
 30
0.0000
 41
2.7432
 42
2.7432
 43
1.0000
 50
180.0000
  0
INSERT
  8
29
  2
OCTAGONP
 10
59.1261
 20
21.3281
 30
0.0000
 41
2.7432
 42
2.7432
 43
1.0000
 50
180.0000
  0
INSERT
  8
29
  2
OCTAGONP
 10
59.1655
 20
8.8624
 30
0.0000
 41
2.7432
 42
2.7432
 43
1.0000
 50
180.0000
  0
INSERT
  8
29
  2
OCTAGONP
 10
59.1544
 20
16.5938
 30
0.0000
 41
2.7432
 42
2.7432
 43
1.0000
 50
180.0000
  0
INSERT
  8
29
  2
OCTAGONP
 10
63.9075
 20
18.9412
 30
0.0000
 41
2.7432
 42
2.7432
 43
1.0000
 50
180.0000
  0
INSERT
  8
29
  2
OCTAGONP
 10
63.8072
 20
6.6126
 30
0.0000
 41
2.7432
 42
2.7432
 43
1.0000
 50
180.0000
  0
INSERT
  8
29
  2
OCTAGONP
 10
63.8407
 20
14.3207
 30
0.0000
 41
2.7432
 42
2.7432
 43
1.0000
 50
180.0000
  0
INSERT
  8
29
  2
OCTAGONP
 10
63.8823
 20
24.4756
 30
0.0000
 41
2.7432
 42
2.7432
 43
1.0000
 50
180.0000
  0
INSERT
  8
29
  2
RECT
 10
48.5412
 20
20.7096
 30
0.0000
 41
1.2032
 42
1.3032
 43
1.0000
 50
180.0000
  0
INSERT
  8
31
  2
RECT
 10
48.5412
 20
20.7096
 30
0.0000
 41
1.0000
 42
1.1000
 43
1.0000
 50
180.0000
  0
INSERT
  8
29
  2
RECT
 10
46.8412
 20
20.7096
 30
0.0000
 41
1.2032
 42
1.3032
 43
1.0000
 50
180.0000
  0
INSERT
  8
31
  2
RECT
 10
46.8412
 20
20.7096
 30
0.0000
 41
1.0000
 42
1.1000
 43
1.0000
 50
180.0000
  0
INSERT
  8
29
  2
RECT
 10
48.5370
 20
18.1304
 30
0.0000
 41
1.2032
 42
1.3032
 43
1.0000
 50
180.0000
  0
INSERT
  8
31
  2
RECT
 10
48.5370
 20
18.1304
 30
0.0000
 41
1.0000
 42
1.1000
 43
1.0000
 50
180.0000
  0
INSERT
  8
29
  2
RECT
 10
46.8370
 20
18.1304
 30
0.0000
 41
1.2032
 42
1.3032
 43
1.0000
 50
180.0000
  0
INSERT
  8
31
  2
RECT
 10
46.8370
 20
18.1304
 30
0.0000
 41
1.0000
 42
1.1000
 43
1.0000
 50
180.0000
  0
INSERT
  8
29
  2
RECT
 10
48.5554
 20
15.5932
 30
0.0000
 41
1.2032
 42
1.3032
 43
1.0000
 50
180.0000
  0
INSERT
  8
31
  2
RECT
 10
48.5554
 20
15.5932
 30
0.0000
 41
1.0000
 42
1.1000
 43
1.0000
 50
180.0000
  0
INSERT
  8
29
  2
RECT
 10
46.8554
 20
15.5932
 30
0.0000
 41
1.2032
 42
1.3032
 43
1.0000
 50
180.0000
  0
INSERT
  8
31
  2
RECT
 10
46.8554
 20
15.5932
 30
0.0000
 41
1.0000
 42
1.1000
 43
1.0000
 50
180.0000
  0
INSERT
  8
29
  2
RECT
 10
48.5596
 20
12.9881
 30
0.0000
 41
1.2032
 42
1.3032
 43
1.0000
 50
180.0000
  0
INSERT
  8
31
  2
RECT
 10
48.5596
 20
12.9881
 30
0.0000
 41
1.0000
 42
1.1000
 43
1.0000
 50
180.0000
  0
INSERT
  8
29
  2
RECT
 10
46.8596
 20
12.9881
 30
0.0000
 41
1.2032
 42
1.3032
 43
1.0000
 50
180.0000
  0
INSERT
  8
31
  2
RECT
 10
46.8596
 20
12.9881
 30
0.0000
 41
1.0000
 42
1.1000
 43
1.0000
 50
180.0000
  0
INSERT
  8
29
  2
RECT
 10
35.5701
 20
9.7045
 30
0.0000
 41
1.2032
 42
1.3032
 43
1.0000
 50
90.0000
  0
INSERT
  8
31
  2
RECT
 10
35.5701
 20
9.7045
 30
0.0000
 41
1.0000
 42
1.1000
 43
1.0000
 50
90.0000
  0
INSERT
  8
29
  2
RECT
 10
35.5701
 20
11.4045
 30
0.0000
 41
1.2032
 42
1.3032
 43
1.0000
 50
90.0000
  0
INSERT
  8
31
  2
RECT
 10
35.5701
 20
11.4045
 30
0.0000
 41
1.0000
 42
1.1000
 43
1.0000
 50
90.0000
  0
INSERT
  8
29
  2
RECT
 10
27.5575
 20
5.5092
 30
0.0000
 41
1.2032
 42
1.3032
 43
1.0000
 50
0.0000
  0
INSERT
  8
31
  2
RECT
 10
27.5575
 20
5.5092
 30
0.0000
 41
1.0000
 42
1.1000
 43
1.0000
 50
0.0000
  0
INSERT
  8
29
  2
RECT
 10
29.2575
 20
5.5092
 30
0.0000
 41
1.2032
 42
1.3032
 43
1.0000
 50
0.0000
  0
INSERT
  8
31
  2
RECT
 10
29.2575
 20
5.5092
 30
0.0000
 41
1.0000
 42
1.1000
 43
1.0000
 50
0.0000
  0
INSERT
  8
29
  2
RECT
 10
36.1219
 20
5.7062
 30
0.0000
 41
1.2032
 42
1.3032
 43
1.0000
 50
0.0000
  0
INSERT
  8
31
  2
RECT
 10
36.1219
 20
5.7062
 30
0.0000
 41
1.0000
 42
1.1000
 43
1.0000
 50
0.0000
  0
INSERT
  8
29
  2
RECT
 10
37.8219
 20
5.7062
 30
0.0000
 41
1.2032
 42
1.3032
 43
1.0000
 50
0.0000
  0
INSERT
  8
31
  2
RECT
 10
37.8219
 20
5.7062
 30
0.0000
 41
1.0000
 42
1.1000
 43
1.0000
 50
0.0000
  0
INSERT
  8
29
  2
RECT
 10
33.5788
 20
17.0958
 30
0.0000
 41
1.2032
 42
1.3032
 43
1.0000
 50
270.0000
  0
INSERT
  8
31
  2
RECT
 10
33.5788
 20
17.0958
 30
0.0000
 41
1.0000
 42
1.1000
 43
1.0000
 50
270.0000
  0
INSERT
  8
29
  2
RECT
 10
33.5788
 20
15.3958
 30
0.0000
 41
1.2032
 42
1.3032
 43
1.0000
 50
270.0000
  0
INSERT
  8
31
  2
RECT
 10
33.5788
 20
15.3958
 30
0.0000
 41
1.0000
 42
1.1000
 43
1.0000
 50
270.0000
  0
INSERT
  8
29
  2
RECT
 10
30.2636
 20
20.0976
 30
0.0000
 41
1.2032
 42
1.3032
 43
1.0000
 50
0.0000
  0
INSERT
  8
31
  2
RECT
 10
30.2636
 20
20.0976
 30
0.0000
 41
1.0000
 42
1.1000
 43
1.0000
 50
0.0000
  0
INSERT
  8
29
  2
RECT
 10
31.9636
 20
20.0976
 30
0.0000
 41
1.2032
 42
1.3032
 43
1.0000
 50
0.0000
  0
INSERT
  8
31
  2
RECT
 10
31.9636
 20
20.0976
 30
0.0000
 41
1.0000
 42
1.1000
 43
1.0000
 50
0.0000
  0
INSERT
  8
29
  2
RECT
 10
30.6301
 20
17.5408
 30
0.0000
 41
1.2032
 42
1.3032
 43
1.0000
 50
180.0000
  0
INSERT
  8
31
  2
RECT
 10
30.6301
 20
17.5408
 30
0.0000
 41
1.0000
 42
1.1000
 43
1.0000
 50
180.0000
  0
INSERT
  8
29
  2
RECT
 10
28.9301
 20
17.5408
 30
0.0000
 41
1.2032
 42
1.3032
 43
1.0000
 50
180.0000
  0
INSERT
  8
31
  2
RECT
 10
28.9301
 20
17.5408
 30
0.0000
 41
1.0000
 42
1.1000
 43
1.0000
 50
180.0000
  0
INSERT
  8
29
  2
OCTAGONP
 10
43.9600
 20
10.3300
 30
0.0000
 41
1.5240
 42
1.5240
 43
1.0000
 50
90.0000
  0
INSERT
  8
29
  2
OCTAGONP
 10
42.0550
 20
9.0600
 30
0.0000
 41
1.5240
 42
1.5240
 43
1.0000
 50
90.0000
  0
INSERT
  8
29
  2
OCTAGONP
 10
43.9600
 20
7.7900
 30
0.0000
 41
1.5240
 42
1.5240
 43
1.0000
 50
90.0000
  0
INSERT
  8
29
  2
ROUNDV
 10
20.7600
 20
5.1600
 30
0.0000
 41
1.2096
 42
1.2096
 43
1.0000
 50
0.0000
  0
INSERT
  8
29
  2
ROUNDV
 10
42.1600
 20
15.8600
 30
0.0000
 41
1.2096
 42
1.2096
 43
1.0000
 50
0.0000
  0
INSERT
  8
29
  2
ROUNDV
 10
27.3600
 20
22.6731
 30
0.0000
 41
1.2096
 42
1.2096
 43
1.0000
 50
0.0000
  0
INSERT
  8
29
  2
ROUNDV
 10
41.6600
 20
11.3600
 30
0.0000
 41
1.2096
 42
1.2096
 43
1.0000
 50
0.0000
  0
INSERT
  8
29
  2
ROUNDV
 10
50.3600
 20
11.4600
 30
0.0000
 41
1.2096
 42
1.2096
 43
1.0000
 50
0.0000
  0
INSERT
  8
29
  2
ROUNDV
 10
50.1600
 20
20.7600
 30
0.0000
 41
1.2096
 42
1.2096
 43
1.0000
 50
0.0000
  0
INSERT
  8
29
  2
ROUNDV
 10
27.8600
 20
15.2600
 30
0.0000
 41
1.2096
 42
1.2096
 43
1.0000
 50
0.0000
  0
INSERT
  8
29
  2
ROUNDV
 10
26.5600
 20
15.2600
 30
0.0000
 41
1.2096
 42
1.2096
 43
1.0000
 50
0.0000
  0
INSERT
  8
29
  2
ROUNDV
 10
32.0600
 20
9.9600
 30
0.0000
 41
1.2096
 42
1.2096
 43
1.0000
 50
0.0000
  0
INSERT
  8
29
  2
ROUNDV
 10
35.4600
 20
8.1600
 30
0.0000
 41
1.2096
 42
1.2096
 43
1.0000
 50
0.0000
  0
INSERT
  8
29
  2
ROUNDV
 10
33.5062
 20
5.7062
 30
0.0000
 41
1.2096
 42
1.2096
 43
1.0000
 50
0.0000
  0
INSERT
  8
29
  2
ROUNDV
 10
28.8600
 20
19.1600
 30
0.0000
 41
1.2096
 42
1.2096
 43
1.0000
 50
0.0000
  0
INSERT
  8
29
  2
ROUNDV
 10
33.6600
 20
18.3600
 30
0.0000
 41
1.2096
 42
1.2096
 43
1.0000
 50
0.0000
  0
INSERT
  8
29
  2
ROUNDV
 10
24.7600
 20
10.7600
 30
0.0000
 41
1.2096
 42
1.2096
 43
1.0000
 50
0.0000
  0
INSERT
  8
29
  2
ROUNDV
 10
23.9600
 20
14.0600
 30
0.0000
 41
1.2096
 42
1.2096
 43
1.0000
 50
0.0000
  0
INSERT
  8
29
  2
ROUNDV
 10
24.2600
 20
17.9600
 30
0.0000
 41
1.2096
 42
1.2096
 43
1.0000
 50
0.0000
  0
INSERT
  8
29
  2
ROUNDV
 10
44.3600
 20
5.2600
 30
0.0000
 41
1.2096
 42
1.2096
 43
1.0000
 50
0.0000
  0
ENDSEC
  0
EOF
