G75*
%MOIN*%
%OFA0B0*%
%FSLAX25Y25*%
%IPPOS*%
%LPD*%
%AMOC8*
5,1,8,0,0,1.08239X$1,22.5*
%
%ADD10C,0.00600*%
%ADD11C,0.00500*%
%ADD12C,0.00394*%
%ADD13C,0.00400*%
%ADD14C,0.00787*%
%ADD15C,0.02400*%
%ADD16R,0.08000X0.02000*%
%ADD17R,0.10000X0.02000*%
D10*
X0126714Y0072698D02*
X0126714Y0074833D01*
X0126714Y0073765D02*
X0133120Y0073765D01*
X0133120Y0072698D02*
X0133120Y0074833D01*
X0136674Y0072941D02*
X0139674Y0072941D01*
X0138174Y0074441D02*
X0138174Y0071441D01*
X0142674Y0067441D02*
X0142674Y0063941D01*
X0137674Y0063941D01*
X0137674Y0061941D01*
X0147674Y0061941D01*
X0147674Y0063941D01*
X0142674Y0063941D01*
X0128894Y0060941D02*
X0128898Y0061279D01*
X0128911Y0061617D01*
X0128931Y0061955D01*
X0128960Y0062292D01*
X0128998Y0062628D01*
X0129043Y0062963D01*
X0129097Y0063297D01*
X0129159Y0063629D01*
X0129229Y0063960D01*
X0129307Y0064289D01*
X0129393Y0064616D01*
X0129487Y0064941D01*
X0129590Y0065264D01*
X0129700Y0065583D01*
X0129817Y0065900D01*
X0129943Y0066214D01*
X0130076Y0066525D01*
X0130217Y0066833D01*
X0130365Y0067137D01*
X0130521Y0067437D01*
X0130684Y0067733D01*
X0130854Y0068025D01*
X0131032Y0068313D01*
X0131216Y0068597D01*
X0131408Y0068876D01*
X0131606Y0069150D01*
X0131811Y0069419D01*
X0132022Y0069683D01*
X0132240Y0069942D01*
X0132464Y0070195D01*
X0132694Y0070443D01*
X0132930Y0070685D01*
X0133172Y0070921D01*
X0133420Y0071151D01*
X0133673Y0071375D01*
X0133932Y0071593D01*
X0134196Y0071804D01*
X0134465Y0072009D01*
X0134739Y0072207D01*
X0135018Y0072399D01*
X0135302Y0072583D01*
X0135590Y0072761D01*
X0135882Y0072931D01*
X0136178Y0073094D01*
X0136478Y0073250D01*
X0136782Y0073398D01*
X0137090Y0073539D01*
X0137401Y0073672D01*
X0137715Y0073798D01*
X0138032Y0073915D01*
X0138351Y0074025D01*
X0138674Y0074128D01*
X0138999Y0074222D01*
X0139326Y0074308D01*
X0139655Y0074386D01*
X0139986Y0074456D01*
X0140318Y0074518D01*
X0140652Y0074572D01*
X0140987Y0074617D01*
X0141323Y0074655D01*
X0141660Y0074684D01*
X0141998Y0074704D01*
X0142336Y0074717D01*
X0142674Y0074721D01*
X0143012Y0074717D01*
X0143350Y0074704D01*
X0143688Y0074684D01*
X0144025Y0074655D01*
X0144361Y0074617D01*
X0144696Y0074572D01*
X0145030Y0074518D01*
X0145362Y0074456D01*
X0145693Y0074386D01*
X0146022Y0074308D01*
X0146349Y0074222D01*
X0146674Y0074128D01*
X0146997Y0074025D01*
X0147316Y0073915D01*
X0147633Y0073798D01*
X0147947Y0073672D01*
X0148258Y0073539D01*
X0148566Y0073398D01*
X0148870Y0073250D01*
X0149170Y0073094D01*
X0149466Y0072931D01*
X0149758Y0072761D01*
X0150046Y0072583D01*
X0150330Y0072399D01*
X0150609Y0072207D01*
X0150883Y0072009D01*
X0151152Y0071804D01*
X0151416Y0071593D01*
X0151675Y0071375D01*
X0151928Y0071151D01*
X0152176Y0070921D01*
X0152418Y0070685D01*
X0152654Y0070443D01*
X0152884Y0070195D01*
X0153108Y0069942D01*
X0153326Y0069683D01*
X0153537Y0069419D01*
X0153742Y0069150D01*
X0153940Y0068876D01*
X0154132Y0068597D01*
X0154316Y0068313D01*
X0154494Y0068025D01*
X0154664Y0067733D01*
X0154827Y0067437D01*
X0154983Y0067137D01*
X0155131Y0066833D01*
X0155272Y0066525D01*
X0155405Y0066214D01*
X0155531Y0065900D01*
X0155648Y0065583D01*
X0155758Y0065264D01*
X0155861Y0064941D01*
X0155955Y0064616D01*
X0156041Y0064289D01*
X0156119Y0063960D01*
X0156189Y0063629D01*
X0156251Y0063297D01*
X0156305Y0062963D01*
X0156350Y0062628D01*
X0156388Y0062292D01*
X0156417Y0061955D01*
X0156437Y0061617D01*
X0156450Y0061279D01*
X0156454Y0060941D01*
X0156450Y0060603D01*
X0156437Y0060265D01*
X0156417Y0059927D01*
X0156388Y0059590D01*
X0156350Y0059254D01*
X0156305Y0058919D01*
X0156251Y0058585D01*
X0156189Y0058253D01*
X0156119Y0057922D01*
X0156041Y0057593D01*
X0155955Y0057266D01*
X0155861Y0056941D01*
X0155758Y0056618D01*
X0155648Y0056299D01*
X0155531Y0055982D01*
X0155405Y0055668D01*
X0155272Y0055357D01*
X0155131Y0055049D01*
X0154983Y0054745D01*
X0154827Y0054445D01*
X0154664Y0054149D01*
X0154494Y0053857D01*
X0154316Y0053569D01*
X0154132Y0053285D01*
X0153940Y0053006D01*
X0153742Y0052732D01*
X0153537Y0052463D01*
X0153326Y0052199D01*
X0153108Y0051940D01*
X0152884Y0051687D01*
X0152654Y0051439D01*
X0152418Y0051197D01*
X0152176Y0050961D01*
X0151928Y0050731D01*
X0151675Y0050507D01*
X0151416Y0050289D01*
X0151152Y0050078D01*
X0150883Y0049873D01*
X0150609Y0049675D01*
X0150330Y0049483D01*
X0150046Y0049299D01*
X0149758Y0049121D01*
X0149466Y0048951D01*
X0149170Y0048788D01*
X0148870Y0048632D01*
X0148566Y0048484D01*
X0148258Y0048343D01*
X0147947Y0048210D01*
X0147633Y0048084D01*
X0147316Y0047967D01*
X0146997Y0047857D01*
X0146674Y0047754D01*
X0146349Y0047660D01*
X0146022Y0047574D01*
X0145693Y0047496D01*
X0145362Y0047426D01*
X0145030Y0047364D01*
X0144696Y0047310D01*
X0144361Y0047265D01*
X0144025Y0047227D01*
X0143688Y0047198D01*
X0143350Y0047178D01*
X0143012Y0047165D01*
X0142674Y0047161D01*
X0142336Y0047165D01*
X0141998Y0047178D01*
X0141660Y0047198D01*
X0141323Y0047227D01*
X0140987Y0047265D01*
X0140652Y0047310D01*
X0140318Y0047364D01*
X0139986Y0047426D01*
X0139655Y0047496D01*
X0139326Y0047574D01*
X0138999Y0047660D01*
X0138674Y0047754D01*
X0138351Y0047857D01*
X0138032Y0047967D01*
X0137715Y0048084D01*
X0137401Y0048210D01*
X0137090Y0048343D01*
X0136782Y0048484D01*
X0136478Y0048632D01*
X0136178Y0048788D01*
X0135882Y0048951D01*
X0135590Y0049121D01*
X0135302Y0049299D01*
X0135018Y0049483D01*
X0134739Y0049675D01*
X0134465Y0049873D01*
X0134196Y0050078D01*
X0133932Y0050289D01*
X0133673Y0050507D01*
X0133420Y0050731D01*
X0133172Y0050961D01*
X0132930Y0051197D01*
X0132694Y0051439D01*
X0132464Y0051687D01*
X0132240Y0051940D01*
X0132022Y0052199D01*
X0131811Y0052463D01*
X0131606Y0052732D01*
X0131408Y0053006D01*
X0131216Y0053285D01*
X0131032Y0053569D01*
X0130854Y0053857D01*
X0130684Y0054149D01*
X0130521Y0054445D01*
X0130365Y0054745D01*
X0130217Y0055049D01*
X0130076Y0055357D01*
X0129943Y0055668D01*
X0129817Y0055982D01*
X0129700Y0056299D01*
X0129590Y0056618D01*
X0129487Y0056941D01*
X0129393Y0057266D01*
X0129307Y0057593D01*
X0129229Y0057922D01*
X0129159Y0058253D01*
X0129097Y0058585D01*
X0129043Y0058919D01*
X0128998Y0059254D01*
X0128960Y0059590D01*
X0128931Y0059927D01*
X0128911Y0060265D01*
X0128898Y0060603D01*
X0128894Y0060941D01*
X0142674Y0058441D02*
X0142674Y0054441D01*
X0180296Y0050028D02*
X0180296Y0059965D01*
X0233103Y0059965D01*
X0233103Y0050028D01*
X0180296Y0050028D01*
X0198278Y0053386D02*
X0199163Y0052501D01*
X0200933Y0052501D01*
X0201818Y0053386D01*
X0200933Y0055156D02*
X0199163Y0055156D01*
X0198278Y0054271D01*
X0198278Y0053386D01*
X0200933Y0055156D02*
X0201818Y0056041D01*
X0201818Y0056926D01*
X0200933Y0057811D01*
X0199163Y0057811D01*
X0198278Y0056926D01*
X0203716Y0056926D02*
X0203716Y0055156D01*
X0204601Y0054271D01*
X0207256Y0054271D01*
X0207256Y0052501D02*
X0207256Y0057811D01*
X0204601Y0057811D01*
X0203716Y0056926D01*
X0205486Y0054271D02*
X0203716Y0052501D01*
X0263064Y0054533D02*
X0264132Y0053465D01*
X0267335Y0053465D01*
X0267335Y0059871D01*
X0264132Y0059871D01*
X0263064Y0058803D01*
X0263064Y0057736D01*
X0264132Y0056668D01*
X0267335Y0056668D01*
X0264132Y0056668D02*
X0263064Y0055601D01*
X0263064Y0054533D01*
X0262946Y0090965D02*
X0267216Y0090965D01*
X0267216Y0097371D01*
X0267610Y0123898D02*
X0263340Y0123898D01*
X0267610Y0123898D02*
X0267610Y0130304D01*
X0263340Y0130304D01*
X0265475Y0127101D02*
X0267610Y0127101D01*
X0147765Y0109585D02*
X0141360Y0109585D01*
X0141360Y0107450D02*
X0141360Y0111721D01*
X0145630Y0107450D02*
X0147765Y0109585D01*
X0147765Y0105275D02*
X0147765Y0103140D01*
X0147765Y0104207D02*
X0142427Y0104207D01*
X0141360Y0103140D01*
X0141360Y0102072D01*
X0142427Y0101005D01*
X0133120Y0099534D02*
X0133120Y0097399D01*
X0132052Y0096331D01*
X0130984Y0096331D01*
X0129917Y0097399D01*
X0129917Y0099534D01*
X0128849Y0100601D01*
X0127782Y0100601D01*
X0126714Y0099534D01*
X0126714Y0097399D01*
X0127782Y0096331D01*
X0126714Y0094156D02*
X0133120Y0094156D01*
X0133120Y0089886D02*
X0126714Y0089886D01*
X0126714Y0087710D02*
X0126714Y0083440D01*
X0133120Y0083440D01*
X0133120Y0087710D01*
X0133120Y0089886D02*
X0126714Y0094156D01*
X0133120Y0099534D02*
X0132052Y0100601D01*
X0132052Y0102777D02*
X0129917Y0104912D01*
X0126714Y0104912D01*
X0129917Y0104912D02*
X0132052Y0107047D01*
X0133120Y0107047D01*
X0133120Y0102777D02*
X0132052Y0102777D01*
X0129029Y0115995D02*
X0125489Y0115995D01*
X0124604Y0116880D01*
X0124604Y0118650D01*
X0125489Y0119535D01*
X0129029Y0119535D02*
X0129914Y0118650D01*
X0129914Y0116880D01*
X0129029Y0115995D01*
X0128144Y0121433D02*
X0129914Y0123203D01*
X0124604Y0123203D01*
X0124604Y0121433D02*
X0124604Y0124973D01*
X0135091Y0133083D02*
X0135091Y0135083D01*
X0139091Y0135083D01*
X0143091Y0135083D01*
X0143091Y0133083D01*
X0135091Y0133083D01*
X0133091Y0136083D02*
X0131091Y0136083D01*
X0132091Y0137083D02*
X0132091Y0135083D01*
X0139091Y0135083D02*
X0139091Y0138083D01*
X0129091Y0132083D02*
X0129094Y0132328D01*
X0129103Y0132574D01*
X0129118Y0132819D01*
X0129139Y0133063D01*
X0129166Y0133307D01*
X0129199Y0133550D01*
X0129238Y0133793D01*
X0129283Y0134034D01*
X0129334Y0134274D01*
X0129391Y0134513D01*
X0129453Y0134750D01*
X0129522Y0134986D01*
X0129596Y0135220D01*
X0129676Y0135452D01*
X0129761Y0135682D01*
X0129852Y0135910D01*
X0129949Y0136135D01*
X0130051Y0136359D01*
X0130159Y0136579D01*
X0130272Y0136797D01*
X0130390Y0137012D01*
X0130514Y0137224D01*
X0130642Y0137433D01*
X0130776Y0137639D01*
X0130915Y0137841D01*
X0131059Y0138040D01*
X0131208Y0138235D01*
X0131361Y0138427D01*
X0131519Y0138615D01*
X0131681Y0138799D01*
X0131849Y0138978D01*
X0132020Y0139154D01*
X0132196Y0139325D01*
X0132375Y0139493D01*
X0132559Y0139655D01*
X0132747Y0139813D01*
X0132939Y0139966D01*
X0133134Y0140115D01*
X0133333Y0140259D01*
X0133535Y0140398D01*
X0133741Y0140532D01*
X0133950Y0140660D01*
X0134162Y0140784D01*
X0134377Y0140902D01*
X0134595Y0141015D01*
X0134815Y0141123D01*
X0135039Y0141225D01*
X0135264Y0141322D01*
X0135492Y0141413D01*
X0135722Y0141498D01*
X0135954Y0141578D01*
X0136188Y0141652D01*
X0136424Y0141721D01*
X0136661Y0141783D01*
X0136900Y0141840D01*
X0137140Y0141891D01*
X0137381Y0141936D01*
X0137624Y0141975D01*
X0137867Y0142008D01*
X0138111Y0142035D01*
X0138355Y0142056D01*
X0138600Y0142071D01*
X0138846Y0142080D01*
X0139091Y0142083D01*
X0139336Y0142080D01*
X0139582Y0142071D01*
X0139827Y0142056D01*
X0140071Y0142035D01*
X0140315Y0142008D01*
X0140558Y0141975D01*
X0140801Y0141936D01*
X0141042Y0141891D01*
X0141282Y0141840D01*
X0141521Y0141783D01*
X0141758Y0141721D01*
X0141994Y0141652D01*
X0142228Y0141578D01*
X0142460Y0141498D01*
X0142690Y0141413D01*
X0142918Y0141322D01*
X0143143Y0141225D01*
X0143367Y0141123D01*
X0143587Y0141015D01*
X0143805Y0140902D01*
X0144020Y0140784D01*
X0144232Y0140660D01*
X0144441Y0140532D01*
X0144647Y0140398D01*
X0144849Y0140259D01*
X0145048Y0140115D01*
X0145243Y0139966D01*
X0145435Y0139813D01*
X0145623Y0139655D01*
X0145807Y0139493D01*
X0145986Y0139325D01*
X0146162Y0139154D01*
X0146333Y0138978D01*
X0146501Y0138799D01*
X0146663Y0138615D01*
X0146821Y0138427D01*
X0146974Y0138235D01*
X0147123Y0138040D01*
X0147267Y0137841D01*
X0147406Y0137639D01*
X0147540Y0137433D01*
X0147668Y0137224D01*
X0147792Y0137012D01*
X0147910Y0136797D01*
X0148023Y0136579D01*
X0148131Y0136359D01*
X0148233Y0136135D01*
X0148330Y0135910D01*
X0148421Y0135682D01*
X0148506Y0135452D01*
X0148586Y0135220D01*
X0148660Y0134986D01*
X0148729Y0134750D01*
X0148791Y0134513D01*
X0148848Y0134274D01*
X0148899Y0134034D01*
X0148944Y0133793D01*
X0148983Y0133550D01*
X0149016Y0133307D01*
X0149043Y0133063D01*
X0149064Y0132819D01*
X0149079Y0132574D01*
X0149088Y0132328D01*
X0149091Y0132083D01*
X0149088Y0131838D01*
X0149079Y0131592D01*
X0149064Y0131347D01*
X0149043Y0131103D01*
X0149016Y0130859D01*
X0148983Y0130616D01*
X0148944Y0130373D01*
X0148899Y0130132D01*
X0148848Y0129892D01*
X0148791Y0129653D01*
X0148729Y0129416D01*
X0148660Y0129180D01*
X0148586Y0128946D01*
X0148506Y0128714D01*
X0148421Y0128484D01*
X0148330Y0128256D01*
X0148233Y0128031D01*
X0148131Y0127807D01*
X0148023Y0127587D01*
X0147910Y0127369D01*
X0147792Y0127154D01*
X0147668Y0126942D01*
X0147540Y0126733D01*
X0147406Y0126527D01*
X0147267Y0126325D01*
X0147123Y0126126D01*
X0146974Y0125931D01*
X0146821Y0125739D01*
X0146663Y0125551D01*
X0146501Y0125367D01*
X0146333Y0125188D01*
X0146162Y0125012D01*
X0145986Y0124841D01*
X0145807Y0124673D01*
X0145623Y0124511D01*
X0145435Y0124353D01*
X0145243Y0124200D01*
X0145048Y0124051D01*
X0144849Y0123907D01*
X0144647Y0123768D01*
X0144441Y0123634D01*
X0144232Y0123506D01*
X0144020Y0123382D01*
X0143805Y0123264D01*
X0143587Y0123151D01*
X0143367Y0123043D01*
X0143143Y0122941D01*
X0142918Y0122844D01*
X0142690Y0122753D01*
X0142460Y0122668D01*
X0142228Y0122588D01*
X0141994Y0122514D01*
X0141758Y0122445D01*
X0141521Y0122383D01*
X0141282Y0122326D01*
X0141042Y0122275D01*
X0140801Y0122230D01*
X0140558Y0122191D01*
X0140315Y0122158D01*
X0140071Y0122131D01*
X0139827Y0122110D01*
X0139582Y0122095D01*
X0139336Y0122086D01*
X0139091Y0122083D01*
X0138846Y0122086D01*
X0138600Y0122095D01*
X0138355Y0122110D01*
X0138111Y0122131D01*
X0137867Y0122158D01*
X0137624Y0122191D01*
X0137381Y0122230D01*
X0137140Y0122275D01*
X0136900Y0122326D01*
X0136661Y0122383D01*
X0136424Y0122445D01*
X0136188Y0122514D01*
X0135954Y0122588D01*
X0135722Y0122668D01*
X0135492Y0122753D01*
X0135264Y0122844D01*
X0135039Y0122941D01*
X0134815Y0123043D01*
X0134595Y0123151D01*
X0134377Y0123264D01*
X0134162Y0123382D01*
X0133950Y0123506D01*
X0133741Y0123634D01*
X0133535Y0123768D01*
X0133333Y0123907D01*
X0133134Y0124051D01*
X0132939Y0124200D01*
X0132747Y0124353D01*
X0132559Y0124511D01*
X0132375Y0124673D01*
X0132196Y0124841D01*
X0132020Y0125012D01*
X0131849Y0125188D01*
X0131681Y0125367D01*
X0131519Y0125551D01*
X0131361Y0125739D01*
X0131208Y0125931D01*
X0131059Y0126126D01*
X0130915Y0126325D01*
X0130776Y0126527D01*
X0130642Y0126733D01*
X0130514Y0126942D01*
X0130390Y0127154D01*
X0130272Y0127369D01*
X0130159Y0127587D01*
X0130051Y0127807D01*
X0129949Y0128031D01*
X0129852Y0128256D01*
X0129761Y0128484D01*
X0129676Y0128714D01*
X0129596Y0128946D01*
X0129522Y0129180D01*
X0129453Y0129416D01*
X0129391Y0129653D01*
X0129334Y0129892D01*
X0129283Y0130132D01*
X0129238Y0130373D01*
X0129199Y0130616D01*
X0129166Y0130859D01*
X0129139Y0131103D01*
X0129118Y0131347D01*
X0129103Y0131592D01*
X0129094Y0131838D01*
X0129091Y0132083D01*
X0139091Y0129583D02*
X0139091Y0126083D01*
X0129917Y0085575D02*
X0129917Y0083440D01*
X0126714Y0081265D02*
X0133120Y0081265D01*
X0133120Y0076995D02*
X0126714Y0081265D01*
X0126714Y0076995D02*
X0133120Y0076995D01*
D11*
X0131645Y0051180D02*
X0130743Y0051180D01*
X0129842Y0050279D01*
X0128940Y0051180D01*
X0128038Y0051180D01*
X0127136Y0050279D01*
X0127136Y0048475D01*
X0128038Y0047574D01*
X0129842Y0049377D02*
X0129842Y0050279D01*
X0131645Y0051180D02*
X0132547Y0050279D01*
X0132547Y0048475D01*
X0131645Y0047574D01*
X0131645Y0045743D02*
X0132547Y0044841D01*
X0132547Y0043038D01*
X0131645Y0042136D01*
X0128038Y0042136D01*
X0127136Y0043038D01*
X0127136Y0044841D01*
X0128038Y0045743D01*
X0219320Y0093514D02*
X0222926Y0093514D01*
X0221123Y0093514D02*
X0221123Y0098924D01*
X0222926Y0097121D01*
X0224757Y0093514D02*
X0228364Y0093514D01*
X0228364Y0098924D01*
X0230195Y0098022D02*
X0230195Y0096219D01*
X0231097Y0095317D01*
X0233802Y0095317D01*
X0233802Y0093514D02*
X0233802Y0098924D01*
X0231097Y0098924D01*
X0230195Y0098022D01*
X0231998Y0095317D02*
X0230195Y0093514D01*
D12*
X0145075Y0040469D02*
X0123698Y0040469D01*
X0123698Y0059720D01*
X0123698Y0127870D02*
X0123698Y0146768D01*
X0144603Y0146768D01*
X0244642Y0146768D02*
X0269327Y0146768D01*
X0269327Y0127634D01*
X0269327Y0058421D02*
X0269327Y0040350D01*
X0248894Y0040350D01*
D13*
X0248411Y0046180D02*
X0248411Y0048344D01*
X0249132Y0049066D01*
X0250575Y0049066D01*
X0251296Y0048344D01*
X0251296Y0046180D01*
X0246968Y0046180D01*
X0247690Y0050530D02*
X0248411Y0051252D01*
X0248411Y0053416D01*
X0249132Y0053416D02*
X0246968Y0053416D01*
X0246968Y0051252D01*
X0247690Y0050530D01*
X0249854Y0051252D02*
X0249854Y0052695D01*
X0249132Y0053416D01*
X0248411Y0054881D02*
X0249854Y0056323D01*
X0249854Y0057045D01*
X0249854Y0058506D02*
X0249854Y0059948D01*
X0250575Y0059227D02*
X0247690Y0059227D01*
X0246968Y0059948D01*
X0246968Y0054881D02*
X0249854Y0054881D01*
X0251296Y0065756D02*
X0246968Y0065756D01*
X0246968Y0068641D02*
X0251296Y0065756D01*
X0251296Y0068641D02*
X0246968Y0068641D01*
X0247690Y0070106D02*
X0246968Y0070828D01*
X0246968Y0072270D01*
X0247690Y0072992D01*
X0249132Y0072992D01*
X0249854Y0072270D01*
X0249854Y0070828D01*
X0249132Y0070106D01*
X0247690Y0070106D01*
X0249132Y0078807D02*
X0249132Y0081692D01*
X0247690Y0087507D02*
X0250575Y0090392D01*
X0247690Y0090392D01*
X0246968Y0089671D01*
X0246968Y0088228D01*
X0247690Y0087507D01*
X0250575Y0087507D01*
X0251296Y0088228D01*
X0251296Y0089671D01*
X0250575Y0090392D01*
X0249132Y0091857D02*
X0249132Y0094743D01*
X0247690Y0096207D02*
X0250575Y0099093D01*
X0247690Y0099093D01*
X0246968Y0098371D01*
X0246968Y0096929D01*
X0247690Y0096207D01*
X0250575Y0096207D01*
X0251296Y0096929D01*
X0251296Y0098371D01*
X0250575Y0099093D01*
X0251296Y0100557D02*
X0249132Y0100557D01*
X0249854Y0102000D01*
X0249854Y0102722D01*
X0249132Y0103443D01*
X0247690Y0103443D01*
X0246968Y0102722D01*
X0246968Y0101279D01*
X0247690Y0100557D01*
X0251296Y0100557D02*
X0251296Y0103443D01*
X0250575Y0104908D02*
X0247690Y0104908D01*
X0250575Y0107793D01*
X0247690Y0107793D01*
X0246968Y0107072D01*
X0246968Y0105629D01*
X0247690Y0104908D01*
X0250575Y0104908D02*
X0251296Y0105629D01*
X0251296Y0107072D01*
X0250575Y0107793D01*
X0250575Y0109258D02*
X0247690Y0109258D01*
X0250575Y0112143D01*
X0247690Y0112143D01*
X0246968Y0111422D01*
X0246968Y0109979D01*
X0247690Y0109258D01*
X0250575Y0109258D02*
X0251296Y0109979D01*
X0251296Y0111422D01*
X0250575Y0112143D01*
X0249854Y0113608D02*
X0251296Y0115051D01*
X0246968Y0115051D01*
X0246968Y0116493D02*
X0246968Y0113608D01*
X0246968Y0117958D02*
X0251296Y0117958D01*
X0251296Y0120122D01*
X0250575Y0120844D01*
X0249132Y0120844D01*
X0248411Y0120122D01*
X0248411Y0117958D01*
X0247690Y0122308D02*
X0250575Y0125194D01*
X0247690Y0125194D01*
X0246968Y0124472D01*
X0246968Y0123030D01*
X0247690Y0122308D01*
X0250575Y0122308D01*
X0251296Y0123030D01*
X0251296Y0124472D01*
X0250575Y0125194D01*
X0250575Y0126658D02*
X0247690Y0126658D01*
X0250575Y0129544D01*
X0247690Y0129544D01*
X0246968Y0128823D01*
X0246968Y0127380D01*
X0247690Y0126658D01*
X0250575Y0126658D02*
X0251296Y0127380D01*
X0251296Y0128823D01*
X0250575Y0129544D01*
X0249132Y0131009D02*
X0249132Y0133173D01*
X0248411Y0133894D01*
X0247690Y0133894D01*
X0246968Y0133173D01*
X0246968Y0131730D01*
X0247690Y0131009D01*
X0249132Y0131009D01*
X0250575Y0132451D01*
X0251296Y0133894D01*
X0251296Y0094021D02*
X0246968Y0094021D01*
X0249132Y0091857D02*
X0251296Y0094021D01*
D14*
X0243146Y0062713D02*
X0156532Y0062713D01*
X0156532Y0142634D01*
X0243146Y0142634D01*
X0243146Y0062713D01*
D15*
X0151217Y0077201D02*
X0151217Y0136020D01*
D16*
X0139091Y0130083D03*
D17*
X0142674Y0058941D03*
M02*
