%
M48
M72
T01C0.03200
T02C0.03937
T03C0.05512
T04C0.05906
T05C0.08268
T06C0.09055
T07C0.09449
T08C0.09843
%
T01
X142674Y53941
X142674Y67941
X139091Y136083
X139091Y128083
T02
X151217Y76846
X151335Y136138
T03
X190942Y83087
X207477Y83087
T04
X170827Y54996
X241981Y54996
T05
X231099Y83283
X222635Y130724
X179446Y130705
T06
X168304Y74425
T07
X257123Y127476
X255942Y93618
X257123Y59760
T08
X189564Y54839
X215351Y54839
X203304Y130862
M30
