M48
INCH,TZ
VER,1
FMAT,2
T01C0.032F1000B1000S6H2000
T02C0.03937F1000B1000S6H2000
T03C0.05512F1000B1000S6H2000
T04C0.05906F1000B1000S6H2000
T05C0.08268F1000B1000S6H2000
T06C0.09055F1000B1000S6H2000
T07C0.09449F1000B1000S6H2000
T08C0.09843F1000B1000S6H2000
DETECT,ON
ATC,ON
%
T01
X142674Y53941
Y67941
X139091Y136083
Y128083
T02
X151217Y76846
X151335Y136138
T03
X190942Y83087
X207477
T04
X170827Y54996
X241981
T05
X231099Y83283
X222635Y130724
X179446Y130705
T06
X168304Y74425
T07
X257123Y127476
X255942Y93618
X257123Y59760
T08
X189564Y54839
X215351
X203304Y130862
M30
