%
M48
M72
T01C0.02400
T02C0.03200
T03C0.03937
T04C0.04331
T05C0.04400
T06C0.04700
T07C0.05118
T08C0.05200
T09C0.05512
T10C0.07100
T11C0.09843
T12C0.11024
T13C0.13000
%
T01
X501000Y616000
X511000Y616000
X521000Y616000
T02
X436000Y691000
X426000Y691000
X416000Y691000
X406000Y691000
X396000Y691000
X386000Y691000
X376000Y691000
X366000Y691000
X366000Y721000
X376000Y721000
X386000Y721000
X396000Y721000
X406000Y721000
X416000Y721000
X426000Y721000
X436000Y721000
X301000Y651000
X261000Y651000
X356000Y401000
X376000Y381000
X376000Y371000
X376000Y361000
X356000Y361000
X396000Y351000
X396000Y391000
X396000Y281000
X376000Y271000
X376000Y261000
X376000Y251000
X356000Y241000
X356000Y281000
X396000Y241000
X366000Y196000
X366000Y186000
X366000Y161000
X366000Y151000
X301000Y176000
X301000Y226000
X271000Y231000
X271000Y241000
X271000Y251000
X271000Y261000
X271000Y271000
X271000Y281000
X271000Y291000
X246000Y306000
X241000Y291000
X241000Y281000
X241000Y271000
X241000Y261000
X241000Y251000
X241000Y241000
X241000Y231000
X251000Y176000
X261000Y176000
X211000Y176000
X301000Y266000
X301000Y326000
X261000Y326000
X246000Y346000
X521000Y196000
X521000Y156000
X541000Y151000
X551000Y151000
X551000Y111000
X541000Y111000
X521000Y91000
X561000Y91000
X551000Y296000
X551000Y306000
X551000Y406000
X551000Y416000
T03
X551000Y381000
X551000Y371000
X551000Y361000
X551000Y351000
X551000Y281000
X551000Y271000
X551000Y261000
X551000Y251000
X546000Y181000
X546000Y171000
X301000Y616000
X291000Y616000
X281000Y616000
X271000Y616000
X261000Y616000
X366984Y644976
X376984Y644976
X386984Y644976
X396984Y644976
X406984Y644976
X416984Y644976
X426984Y644976
X436984Y644976
X446984Y644976
X456984Y644976
X466984Y644976
X476984Y644976
X486984Y644976
X496984Y644976
X506984Y644976
X516984Y644976
X191000Y276000
X191000Y266000
X191000Y256000
X191000Y246000
X191000Y236000
T04
X211000Y236000
X211000Y266000
X311000Y436000
X331000Y646000
X331000Y666000
X456000Y671000
X501000Y671000
T05
X416000Y391000
X416000Y351000
X416000Y281000
X416000Y241000
X396000Y181000
X396000Y171000
X396000Y161000
X501000Y156000
X501000Y196000
T06
X440600Y95800
X440600Y76200
X391400Y76200
X391400Y95800
X280600Y401200
X280600Y420800
X231400Y420800
X231400Y401200
X231400Y521200
X231400Y540800
X280600Y540800
X280600Y521200
X135600Y95800
X135600Y76200
X86400Y76200
X86400Y95800
T07
X236000Y216000
X276000Y201000
X321000Y216000
X326000Y241000
X326000Y326000
X311000Y396000
X311000Y436000
T08
X448500Y371000
X456500Y347500
X456500Y394500
X504500Y394500
X504500Y347500
X504500Y284500
X504500Y237500
X456500Y237500
X448500Y261000
X456500Y284500
T09
X341000Y151000
X301000Y151000
X236000Y201000
T10
X111000Y103700
X111000Y68300
X256000Y393300
X256000Y428700
X256000Y513300
X256000Y548700
X416000Y103700
X416000Y68300
T11
X538638Y644976
X538638Y767024
X243362Y767024
X243362Y644976
T12
X56000Y51000
X111000Y216000
X111000Y331000
X176000Y471000
X66000Y526000
X396000Y471000
X396000Y321000
X541000Y526000
X546000Y51000
T13
X455000Y171000
M30
