G75*
%MOIN*%
%OFA0B0*%
%FSLAX25Y25*%
%IPPOS*%
%LPD*%
%AMOC8*
5,1,8,0,0,1.08239X$1,22.5*
%
%ADD10C,0.11824*%
%ADD11C,0.07400*%
%ADD12C,0.10643*%
%ADD13C,0.06000*%
%ADD14C,0.08600*%
%ADD15OC8,0.06000*%
%ADD16C,0.05200*%
%ADD17C,0.06737*%
%ADD18C,0.07850*%
%ADD19C,0.07900*%
%ADD20C,0.07400*%
%ADD21C,0.13800*%
%ADD22OC8,0.07100*%
%ADD23R,0.07296X0.07296*%
%ADD24R,0.08477X0.08477*%
%ADD25R,0.09068X0.09068*%
D10*
X0056000Y0051000D03*
X0111000Y0216000D03*
X0111000Y0331000D03*
X0176000Y0471000D03*
X0066000Y0526000D03*
X0396000Y0471000D03*
X0396000Y0321000D03*
X0541000Y0526000D03*
X0546000Y0051000D03*
D11*
X0501000Y0156000D03*
X0501000Y0196000D03*
X0416000Y0241000D03*
X0416000Y0281000D03*
X0416000Y0351000D03*
X0416000Y0391000D03*
X0416984Y0644976D03*
X0406984Y0644976D03*
X0396984Y0644976D03*
X0386984Y0644976D03*
X0376984Y0644976D03*
X0366984Y0644976D03*
X0426984Y0644976D03*
X0436984Y0644976D03*
X0446984Y0644976D03*
X0456984Y0644976D03*
X0466984Y0644976D03*
X0476984Y0644976D03*
X0486984Y0644976D03*
X0496984Y0644976D03*
X0506984Y0644976D03*
X0516984Y0644976D03*
D12*
X0538638Y0644976D03*
X0538638Y0767024D03*
X0243362Y0767024D03*
X0243362Y0644976D03*
D13*
X0366000Y0688400D02*
X0366000Y0693600D01*
X0376000Y0693600D02*
X0376000Y0688400D01*
X0386000Y0688400D02*
X0386000Y0693600D01*
X0396000Y0693600D02*
X0396000Y0688400D01*
X0406000Y0688400D02*
X0406000Y0693600D01*
X0416000Y0693600D02*
X0416000Y0688400D01*
X0426000Y0688400D02*
X0426000Y0693600D01*
X0436000Y0693600D02*
X0436000Y0688400D01*
X0436000Y0718400D02*
X0436000Y0723600D01*
X0426000Y0723600D02*
X0426000Y0718400D01*
X0416000Y0718400D02*
X0416000Y0723600D01*
X0406000Y0723600D02*
X0406000Y0718400D01*
X0396000Y0718400D02*
X0396000Y0723600D01*
X0386000Y0723600D02*
X0386000Y0718400D01*
X0376000Y0718400D02*
X0376000Y0723600D01*
X0366000Y0723600D02*
X0366000Y0718400D01*
X0373400Y0381000D02*
X0378600Y0381000D01*
X0378600Y0371000D02*
X0373400Y0371000D01*
X0373400Y0361000D02*
X0378600Y0361000D01*
X0378600Y0271000D02*
X0373400Y0271000D01*
X0373400Y0261000D02*
X0378600Y0261000D01*
X0378600Y0251000D02*
X0373400Y0251000D01*
X0273600Y0251000D02*
X0268400Y0251000D01*
X0268400Y0241000D02*
X0273600Y0241000D01*
X0273600Y0231000D02*
X0268400Y0231000D01*
X0268400Y0261000D02*
X0273600Y0261000D01*
X0273600Y0271000D02*
X0268400Y0271000D01*
X0268400Y0281000D02*
X0273600Y0281000D01*
X0273600Y0291000D02*
X0268400Y0291000D01*
X0243600Y0291000D02*
X0238400Y0291000D01*
X0238400Y0281000D02*
X0243600Y0281000D01*
X0243600Y0271000D02*
X0238400Y0271000D01*
X0238400Y0261000D02*
X0243600Y0261000D01*
X0243600Y0251000D02*
X0238400Y0251000D01*
X0238400Y0241000D02*
X0243600Y0241000D01*
X0243600Y0231000D02*
X0238400Y0231000D01*
D14*
X0444600Y0261000D02*
X0452400Y0261000D01*
X0452600Y0237500D02*
X0460400Y0237500D01*
X0460400Y0284500D02*
X0452600Y0284500D01*
X0500600Y0284500D02*
X0508400Y0284500D01*
X0508400Y0237500D02*
X0500600Y0237500D01*
X0500600Y0347500D02*
X0508400Y0347500D01*
X0508400Y0394500D02*
X0500600Y0394500D01*
X0460400Y0394500D02*
X0452600Y0394500D01*
X0452400Y0371000D02*
X0444600Y0371000D01*
X0452600Y0347500D02*
X0460400Y0347500D01*
D15*
X0396000Y0351000D03*
X0396000Y0391000D03*
X0356000Y0401000D03*
X0356000Y0361000D03*
X0301000Y0326000D03*
X0261000Y0326000D03*
X0246000Y0306000D03*
X0246000Y0346000D03*
X0301000Y0266000D03*
X0301000Y0226000D03*
X0301000Y0176000D03*
X0261000Y0176000D03*
X0251000Y0176000D03*
X0211000Y0176000D03*
X0356000Y0241000D03*
X0356000Y0281000D03*
X0396000Y0281000D03*
X0396000Y0241000D03*
X0521000Y0196000D03*
X0521000Y0156000D03*
X0541000Y0151000D03*
X0551000Y0151000D03*
X0551000Y0111000D03*
X0541000Y0111000D03*
X0521000Y0091000D03*
X0561000Y0091000D03*
X0551000Y0296000D03*
X0551000Y0306000D03*
X0551000Y0406000D03*
X0551000Y0416000D03*
X0301000Y0651000D03*
X0261000Y0651000D03*
D16*
X0501000Y0616000D03*
X0511000Y0616000D03*
X0521000Y0616000D03*
D17*
X0548031Y0381000D02*
X0553969Y0381000D01*
X0553969Y0371000D02*
X0548031Y0371000D01*
X0548031Y0361000D02*
X0553969Y0361000D01*
X0553969Y0351000D02*
X0548031Y0351000D01*
X0548031Y0281000D02*
X0553969Y0281000D01*
X0553969Y0271000D02*
X0548031Y0271000D01*
X0548031Y0261000D02*
X0553969Y0261000D01*
X0553969Y0251000D02*
X0548031Y0251000D01*
X0548969Y0181000D02*
X0543031Y0181000D01*
X0543031Y0171000D02*
X0548969Y0171000D01*
X0301000Y0613031D02*
X0301000Y0618969D01*
X0291000Y0618969D02*
X0291000Y0613031D01*
X0281000Y0613031D02*
X0281000Y0618969D01*
X0271000Y0618969D02*
X0271000Y0613031D01*
X0261000Y0613031D02*
X0261000Y0618969D01*
X0193969Y0276000D02*
X0188031Y0276000D01*
X0188031Y0266000D02*
X0193969Y0266000D01*
X0193969Y0256000D02*
X0188031Y0256000D01*
X0188031Y0246000D02*
X0193969Y0246000D01*
X0193969Y0236000D02*
X0188031Y0236000D01*
D18*
X0139125Y0095800D02*
X0132075Y0095800D01*
X0132075Y0076200D02*
X0139125Y0076200D01*
X0089925Y0076200D02*
X0082875Y0076200D01*
X0082875Y0095800D02*
X0089925Y0095800D01*
X0227875Y0401200D02*
X0234925Y0401200D01*
X0234925Y0420800D02*
X0227875Y0420800D01*
X0277075Y0420800D02*
X0284125Y0420800D01*
X0284125Y0401200D02*
X0277075Y0401200D01*
X0277075Y0521200D02*
X0284125Y0521200D01*
X0284125Y0540800D02*
X0277075Y0540800D01*
X0234925Y0540800D02*
X0227875Y0540800D01*
X0227875Y0521200D02*
X0234925Y0521200D01*
X0387875Y0095800D02*
X0394925Y0095800D01*
X0394925Y0076200D02*
X0387875Y0076200D01*
X0437075Y0076200D02*
X0444125Y0076200D01*
X0444125Y0095800D02*
X0437075Y0095800D01*
D19*
X0416000Y0103700D03*
X0416000Y0068300D03*
X0256000Y0393300D03*
X0256000Y0428700D03*
X0256000Y0513300D03*
X0256000Y0548700D03*
X0111000Y0103700D03*
X0111000Y0068300D03*
D20*
X0392700Y0161000D02*
X0399300Y0161000D01*
X0399300Y0171000D02*
X0392700Y0171000D01*
X0392700Y0181000D02*
X0399300Y0181000D01*
D21*
X0455000Y0171000D03*
D22*
X0366000Y0161000D03*
X0366000Y0151000D03*
X0366000Y0186000D03*
X0366000Y0196000D03*
D23*
X0211000Y0236000D03*
X0211000Y0266000D03*
X0311000Y0436000D03*
X0331000Y0646000D03*
X0331000Y0666000D03*
X0456000Y0671000D03*
X0501000Y0671000D03*
D24*
X0311000Y0436000D03*
X0311000Y0396000D03*
X0326000Y0326000D03*
X0326000Y0241000D03*
X0321000Y0216000D03*
X0276000Y0201000D03*
X0236000Y0216000D03*
D25*
X0236000Y0201000D03*
X0301000Y0151000D03*
X0341000Y0151000D03*
M02*
