  0
SECTION
  2
HEADER
  9
$ACADVER
  1
AC1018
  9
$INSBASE
 10
0.0
 20
0.0
 30
0.0
  9
$EXTMIN
 10
0.01817
 20
0.28364
 30
0.0
  9
$EXTMAX
 10
29.5813349606
 20
12.3561349606
 30
0.0
  9
$LIMMIN
 10
0.01817
 20
0.28364
  9
$LIMMAX
 10
29.5813349606
 20
12.3561349606
  9
$INSUNITS
 70
     4
  9
$HANDSEED
  5
   442
  0
ENDSEC
  0
SECTION
  2
CLASSES
  0
ENDSEC
  0
SECTION
  2
TABLES
  0
TABLE
  2
VPORT
  5
1
330
0
100
AcDbSymbolTable
 70
     0
  0
ENDTAB
  0
TABLE
  2
LTYPE
  5
2
330
0
100
AcDbSymbolTable
 70
     3
  0
LTYPE
  5
3
330
2
100
AcDbSymbolTableRecord
100
AcDbLinetypeTableRecord
  2
BYLAYER
 70
     0
  3
Continuous
 72
    65
 73
     0
 40
0.0
  0
LTYPE
  5
4
330
2
100
AcDbSymbolTableRecord
100
AcDbLinetypeTableRecord
  2
BYBLOCK
 70
     0
  3
Continuous
 72
    65
 73
     0
 40
0.0
  0
LTYPE
  5
5
330
2
100
AcDbSymbolTableRecord
100
AcDbLinetypeTableRecord
  2
CONTINUOUS
 70
     0
  3
Continuous
 72
    65
 73
     0
 40
0.0
  0
ENDTAB
  0
TABLE
  2
LAYER
  5
6
330
0
100
AcDbSymbolTable
 70
     2
  0
LAYER
  5
7
330
6
100
AcDbSymbolTableRecord
100
AcDbLayerTableRecord
  2
0
 70
     0
 62
     7
  6
CONTINUOUS
370
     0
390
     0
  0
LAYER
  5
8
330
6
100
AcDbSymbolTableRecord
100
AcDbLayerTableRecord
  2
TRACTOR_BPLC
 70
     0
 62
   254
  6
CONTINUOUS
370
     0
390
     0
  0
ENDTAB
  0
TABLE
  2
STYLE
  5
9
330
0
100
AcDbSymbolTable
 70
     0
  0
ENDTAB
  0
TABLE
  2
VIEW
  5
A
330
0
100
AcDbSymbolTable
 70
     0
  0
ENDTAB
  0
TABLE
  2
UCS
  5
B
330
0
100
AcDbSymbolTable
 70
     0
  0
ENDTAB
  0
TABLE
  2
APPID
  5
C
330
0
100
AcDbSymbolTable
 70
     1
  0
APPID
  5
D
330
C
100
AcDbSymbolTableRecord
100
AcDbRegAppTableRecord
  2
ACAD
 70
     0
  0
ENDTAB
  0
TABLE
  2
DIMSTYLE
  5
E
330
0
100
AcDbSymbolTable
 70
     0
100
AcDbDimStyleTable
 71
     0
  0
ENDTAB
  0
TABLE
  2
BLOCK_RECORD
  5
F
330
0
100
AcDbSymbolTable
 70
    63
  0
BLOCK_RECORD
  5
10
330
F
100
AcDbSymbolTableRecord
100
AcDbBlockTableRecord
  2
*Model_Space
340
52
  0
BLOCK_RECORD
  5
11
330
F
100
AcDbSymbolTableRecord
100
AcDbBlockTableRecord
  2
*Paper_Space
340
53
  0
BLOCK_RECORD
  5
12
330
F
100
AcDbSymbolTableRecord
100
AcDbBlockTableRecord
  2
ROUND_1
340
0
  0
BLOCK_RECORD
  5
13
330
F
100
AcDbSymbolTableRecord
100
AcDbBlockTableRecord
  2
RECTANGLE_2
340
0
  0
BLOCK_RECORD
  5
14
330
F
100
AcDbSymbolTableRecord
100
AcDbBlockTableRecord
  2
ROUND_3
340
0
  0
BLOCK_RECORD
  5
15
330
F
100
AcDbSymbolTableRecord
100
AcDbBlockTableRecord
  2
RECTANGLE_4
340
0
  0
BLOCK_RECORD
  5
16
330
F
100
AcDbSymbolTableRecord
100
AcDbBlockTableRecord
  2
RECTANGLE_5
340
0
  0
BLOCK_RECORD
  5
17
330
F
100
AcDbSymbolTableRecord
100
AcDbBlockTableRecord
  2
RECTANGLE_6
340
0
  0
BLOCK_RECORD
  5
18
330
F
100
AcDbSymbolTableRecord
100
AcDbBlockTableRecord
  2
RECTANGLE_7
340
0
  0
BLOCK_RECORD
  5
19
330
F
100
AcDbSymbolTableRecord
100
AcDbBlockTableRecord
  2
RECTANGLE_8
340
0
  0
BLOCK_RECORD
  5
1A
330
F
100
AcDbSymbolTableRecord
100
AcDbBlockTableRecord
  2
SQUARE_9
340
0
  0
BLOCK_RECORD
  5
1B
330
F
100
AcDbSymbolTableRecord
100
AcDbBlockTableRecord
  2
CUSTOM_10
340
0
  0
BLOCK_RECORD
  5
1C
330
F
100
AcDbSymbolTableRecord
100
AcDbBlockTableRecord
  2
ROUND_11
340
0
  0
BLOCK_RECORD
  5
1D
330
F
100
AcDbSymbolTableRecord
100
AcDbBlockTableRecord
  2
ROUND_12
340
0
  0
BLOCK_RECORD
  5
1E
330
F
100
AcDbSymbolTableRecord
100
AcDbBlockTableRecord
  2
CUSTOM_13
340
0
  0
BLOCK_RECORD
  5
1F
330
F
100
AcDbSymbolTableRecord
100
AcDbBlockTableRecord
  2
CUSTOM_14
340
0
  0
BLOCK_RECORD
  5
20
330
F
100
AcDbSymbolTableRecord
100
AcDbBlockTableRecord
  2
RECTANGLE_15
340
0
  0
BLOCK_RECORD
  5
21
330
F
100
AcDbSymbolTableRecord
100
AcDbBlockTableRecord
  2
RECTANGLE_16
340
0
  0
BLOCK_RECORD
  5
22
330
F
100
AcDbSymbolTableRecord
100
AcDbBlockTableRecord
  2
SQUARE_17
340
0
  0
BLOCK_RECORD
  5
23
330
F
100
AcDbSymbolTableRecord
100
AcDbBlockTableRecord
  2
ROUND_18
340
0
  0
BLOCK_RECORD
  5
24
330
F
100
AcDbSymbolTableRecord
100
AcDbBlockTableRecord
  2
ROUND_19
340
0
  0
BLOCK_RECORD
  5
25
330
F
100
AcDbSymbolTableRecord
100
AcDbBlockTableRecord
  2
ROUND_20
340
0
  0
BLOCK_RECORD
  5
26
330
F
100
AcDbSymbolTableRecord
100
AcDbBlockTableRecord
  2
CUSTOM_21
340
0
  0
BLOCK_RECORD
  5
27
330
F
100
AcDbSymbolTableRecord
100
AcDbBlockTableRecord
  2
ROUND_22
340
0
  0
BLOCK_RECORD
  5
28
330
F
100
AcDbSymbolTableRecord
100
AcDbBlockTableRecord
  2
ROUND_23
340
0
  0
BLOCK_RECORD
  5
29
330
F
100
AcDbSymbolTableRecord
100
AcDbBlockTableRecord
  2
ROUND_24
340
0
  0
BLOCK_RECORD
  5
2A
330
F
100
AcDbSymbolTableRecord
100
AcDbBlockTableRecord
  2
ROUND_25
340
0
  0
BLOCK_RECORD
  5
2B
330
F
100
AcDbSymbolTableRecord
100
AcDbBlockTableRecord
  2
ROUND_26
340
0
  0
BLOCK_RECORD
  5
2C
330
F
100
AcDbSymbolTableRecord
100
AcDbBlockTableRecord
  2
ROUND_27
340
0
  0
BLOCK_RECORD
  5
2D
330
F
100
AcDbSymbolTableRecord
100
AcDbBlockTableRecord
  2
RECTANGLE_28
340
0
  0
BLOCK_RECORD
  5
2E
330
F
100
AcDbSymbolTableRecord
100
AcDbBlockTableRecord
  2
RECTANGLE_29
340
0
  0
BLOCK_RECORD
  5
2F
330
F
100
AcDbSymbolTableRecord
100
AcDbBlockTableRecord
  2
CUSTOM_30
340
0
  0
BLOCK_RECORD
  5
30
330
F
100
AcDbSymbolTableRecord
100
AcDbBlockTableRecord
  2
CUSTOM_31
340
0
  0
BLOCK_RECORD
  5
31
330
F
100
AcDbSymbolTableRecord
100
AcDbBlockTableRecord
  2
CUSTOM_32
340
0
  0
BLOCK_RECORD
  5
32
330
F
100
AcDbSymbolTableRecord
100
AcDbBlockTableRecord
  2
CUSTOM_33
340
0
  0
BLOCK_RECORD
  5
33
330
F
100
AcDbSymbolTableRecord
100
AcDbBlockTableRecord
  2
ROUND_34
340
0
  0
BLOCK_RECORD
  5
34
330
F
100
AcDbSymbolTableRecord
100
AcDbBlockTableRecord
  2
ROUND_35
340
0
  0
BLOCK_RECORD
  5
35
330
F
100
AcDbSymbolTableRecord
100
AcDbBlockTableRecord
  2
CUSTOM_36
340
0
  0
BLOCK_RECORD
  5
36
330
F
100
AcDbSymbolTableRecord
100
AcDbBlockTableRecord
  2
CUSTOM_37
340
0
  0
BLOCK_RECORD
  5
37
330
F
100
AcDbSymbolTableRecord
100
AcDbBlockTableRecord
  2
CUSTOM_38
340
0
  0
BLOCK_RECORD
  5
38
330
F
100
AcDbSymbolTableRecord
100
AcDbBlockTableRecord
  2
CUSTOM_39
340
0
  0
BLOCK_RECORD
  5
39
330
F
100
AcDbSymbolTableRecord
100
AcDbBlockTableRecord
  2
RECTANGLE_40
340
0
  0
BLOCK_RECORD
  5
3A
330
F
100
AcDbSymbolTableRecord
100
AcDbBlockTableRecord
  2
ROUND_41
340
0
  0
BLOCK_RECORD
  5
3B
330
F
100
AcDbSymbolTableRecord
100
AcDbBlockTableRecord
  2
RECTANGLE_42
340
0
  0
BLOCK_RECORD
  5
3C
330
F
100
AcDbSymbolTableRecord
100
AcDbBlockTableRecord
  2
RECTANGLE_43
340
0
  0
BLOCK_RECORD
  5
3D
330
F
100
AcDbSymbolTableRecord
100
AcDbBlockTableRecord
  2
RECTANGLE_44
340
0
  0
BLOCK_RECORD
  5
3E
330
F
100
AcDbSymbolTableRecord
100
AcDbBlockTableRecord
  2
RECTANGLE_45
340
0
  0
BLOCK_RECORD
  5
3F
330
F
100
AcDbSymbolTableRecord
100
AcDbBlockTableRecord
  2
SQUARE_46
340
0
  0
BLOCK_RECORD
  5
40
330
F
100
AcDbSymbolTableRecord
100
AcDbBlockTableRecord
  2
CUSTOM_47
340
0
  0
BLOCK_RECORD
  5
41
330
F
100
AcDbSymbolTableRecord
100
AcDbBlockTableRecord
  2
CUSTOM_48
340
0
  0
BLOCK_RECORD
  5
42
330
F
100
AcDbSymbolTableRecord
100
AcDbBlockTableRecord
  2
CUSTOM_49
340
0
  0
BLOCK_RECORD
  5
43
330
F
100
AcDbSymbolTableRecord
100
AcDbBlockTableRecord
  2
SQUARE_50
340
0
  0
BLOCK_RECORD
  5
44
330
F
100
AcDbSymbolTableRecord
100
AcDbBlockTableRecord
  2
ROUND_51
340
0
  0
BLOCK_RECORD
  5
45
330
F
100
AcDbSymbolTableRecord
100
AcDbBlockTableRecord
  2
CUSTOM_52
340
0
  0
BLOCK_RECORD
  5
46
330
F
100
AcDbSymbolTableRecord
100
AcDbBlockTableRecord
  2
RECTANGLE_53
340
0
  0
BLOCK_RECORD
  5
47
330
F
100
AcDbSymbolTableRecord
100
AcDbBlockTableRecord
  2
RECTANGLE_54
340
0
  0
BLOCK_RECORD
  5
48
330
F
100
AcDbSymbolTableRecord
100
AcDbBlockTableRecord
  2
RECTANGLE_55
340
0
  0
BLOCK_RECORD
  5
49
330
F
100
AcDbSymbolTableRecord
100
AcDbBlockTableRecord
  2
RECTANGLE_56
340
0
  0
BLOCK_RECORD
  5
4A
330
F
100
AcDbSymbolTableRecord
100
AcDbBlockTableRecord
  2
CUSTOM_57
340
0
  0
BLOCK_RECORD
  5
4B
330
F
100
AcDbSymbolTableRecord
100
AcDbBlockTableRecord
  2
CUSTOM_58
340
0
  0
BLOCK_RECORD
  5
4C
330
F
100
AcDbSymbolTableRecord
100
AcDbBlockTableRecord
  2
CUSTOM_59
340
0
  0
BLOCK_RECORD
  5
4D
330
F
100
AcDbSymbolTableRecord
100
AcDbBlockTableRecord
  2
RECTANGLE_60
340
0
  0
BLOCK_RECORD
  5
4E
330
F
100
AcDbSymbolTableRecord
100
AcDbBlockTableRecord
  2
CUSTOM_61
340
0
  0
ENDTAB
  0
ENDSEC
  0
SECTION
  2
BLOCKS
  0
BLOCK
  5
55
330
10
100
AcDbEntity
  8
0
100
AcDbBlockBegin
  2
*Model_Space
 70
     0
 10
0.0
 20
0.0
 30
0.0
  3
*Model_Space
  1

  0
ENDBLK
  5
56
330
10
100
AcDbEntity
  8
0
100
AcDbBlockEnd
  0
BLOCK
  5
57
330
11
100
AcDbEntity
  8
0
100
AcDbBlockBegin
  2
*Paper_Space
 70
     0
 10
0.0
 20
0.0
 30
0.0
  3
*Paper_Space
  1

  0
ENDBLK
  5
58
330
11
100
AcDbEntity
  8
0
100
AcDbBlockEnd
  0
BLOCK
  5
59
330
12
100
AcDbEntity
  8
0
100
AcDbBlockBegin
  2
ROUND_1
 70
     0
 10
0.0
 20
0.0
 30
0.0
  3
ROUND_1
  1

  0
HATCH
  5
5B
330
12
100
AcDbEntity
  8
0
100
AcDbHatch
 10
0.0
 20
0.0
 30
0.0
210
0.0
220
0.0
230
1.0
  2
SOLID
 70
     1
 71
     0
 91
     1
 92
     0
 93
     1
 72
     2
 10
0.0
 20
0.0
 40
0.0
 50
0.0
 51
360.0
 73
     1
 97
     0
 75
     0
 76
     1
 98
     1
 10
0.0
 20
0.0
  0
ENDBLK
  5
5A
330
12
100
AcDbEntity
  8
0
100
AcDbBlockEnd
  0
BLOCK
  5
5C
330
13
100
AcDbEntity
  8
0
100
AcDbBlockBegin
  2
RECTANGLE_2
 70
     0
 10
0.0
 20
0.0
 30
0.0
  3
RECTANGLE_2
  1

  0
SOLID
  5
5E
330
13
100
AcDbEntity
  8
0
  6
BYLAYER
 62
   256
100
AcDbTrace
 10
0.0196849606286
 20
0.0216549608625
 30
0.0
 11
0.0196849606286
 21
-0.0216549603589
 31
0.0
 12
-0.0196849081029
 22
0.0216549608625
 32
0.0
 13
-0.0196849081029
 23
-0.0216549603589
 33
0.0
  0
ENDBLK
  5
5D
330
13
100
AcDbEntity
  8
0
100
AcDbBlockEnd
  0
BLOCK
  5
5F
330
14
100
AcDbEntity
  8
0
100
AcDbBlockBegin
  2
ROUND_3
 70
     0
 10
0.0
 20
0.0
 30
0.0
  3
ROUND_3
  1

  0
HATCH
  5
61
330
14
100
AcDbEntity
  8
0
100
AcDbHatch
 10
0.0
 20
0.0
 30
0.0
210
0.0
220
0.0
230
1.0
  2
SOLID
 70
     1
 71
     0
 91
     1
 92
     0
 93
     1
 72
     2
 10
0.0
 20
0.0
 40
0.0218099737339
 50
0.0
 51
360.0
 73
     1
 97
     0
 75
     0
 76
     1
 98
     1
 10
0.0
 20
0.0
  0
ENDBLK
  5
60
330
14
100
AcDbEntity
  8
0
100
AcDbBlockEnd
  0
BLOCK
  5
62
330
15
100
AcDbEntity
  8
0
100
AcDbBlockBegin
  2
RECTANGLE_4
 70
     0
 10
0.0
 20
0.0
 30
0.0
  3
RECTANGLE_4
  1

  0
SOLID
  5
64
330
15
100
AcDbEntity
  8
0
  6
BYLAYER
 62
   256
100
AcDbTrace
 10
0.0334649606163
 20
0.0354349608503
 30
0.0
 11
0.0334649606163
 21
-0.0354349603466
 31
0.0
 12
-0.0334649080906
 22
0.0354349608503
 32
0.0
 13
-0.0334649080906
 23
-0.0354349603466
 33
0.0
  0
ENDBLK
  5
63
330
15
100
AcDbEntity
  8
0
100
AcDbBlockEnd
  0
BLOCK
  5
65
330
16
100
AcDbEntity
  8
0
100
AcDbBlockBegin
  2
RECTANGLE_5
 70
     0
 10
0.0
 20
0.0
 30
0.0
  3
RECTANGLE_5
  1

  0
SOLID
  5
67
330
16
100
AcDbEntity
  8
0
  6
BYLAYER
 62
   256
100
AcDbTrace
 10
0.0440000262238
 20
0.0240000002305
 30
0.0
 11
0.0440000262238
 21
-0.0239999997269
 31
0.0
 12
-0.0439999736981
 22
0.0240000002305
 32
0.0
 13
-0.0439999736981
 23
-0.0239999997269
 33
0.0
  0
ENDBLK
  5
66
330
16
100
AcDbEntity
  8
0
100
AcDbBlockEnd
  0
BLOCK
  5
68
330
17
100
AcDbEntity
  8
0
100
AcDbBlockBegin
  2
RECTANGLE_6
 70
     0
 10
0.0
 20
0.0
 30
0.0
  3
RECTANGLE_6
  1

  0
SOLID
  5
6A
330
17
100
AcDbEntity
  8
0
  6
BYLAYER
 62
   256
100
AcDbTrace
 10
0.0433049606076
 20
0.0708649345721
 30
0.0
 11
0.0433049606076
 21
-0.0708649340685
 31
0.0
 12
-0.0433049080819
 22
0.0708649345721
 32
0.0
 13
-0.0433049080819
 23
-0.0708649340685
 33
0.0
  0
ENDBLK
  5
69
330
17
100
AcDbEntity
  8
0
100
AcDbBlockEnd
  0
BLOCK
  5
6B
330
18
100
AcDbEntity
  8
0
100
AcDbBlockBegin
  2
RECTANGLE_7
 70
     0
 10
0.0
 20
0.0
 30
0.0
  3
RECTANGLE_7
  1

  0
SOLID
  5
6D
330
18
100
AcDbEntity
  8
0
  6
BYLAYER
 62
   256
100
AcDbTrace
 10
0.017714986877
 20
0.0157499739911
 30
0.0
 11
0.017714986877
 21
-0.0157499734875
 31
0.0
 12
-0.0177149343513
 22
0.0157499739911
 32
0.0
 13
-0.0177149343513
 23
-0.0157499734875
 33
0.0
  0
ENDBLK
  5
6C
330
18
100
AcDbEntity
  8
0
100
AcDbBlockEnd
  0
BLOCK
  5
6E
330
19
100
AcDbEntity
  8
0
100
AcDbBlockBegin
  2
RECTANGLE_8
 70
     0
 10
0.0
 20
0.0
 30
0.0
  3
RECTANGLE_8
  1

  0
SOLID
  5
70
330
19
100
AcDbEntity
  8
0
  6
BYLAYER
 62
   256
100
AcDbTrace
 10
0.0216549868735
 20
0.0196849346175
 30
0.0
 11
0.0216549868735
 21
-0.0196849341139
 31
0.0
 12
-0.0216549343478
 22
0.0196849346175
 32
0.0
 13
-0.0216549343478
 23
-0.0196849341139
 33
0.0
  0
ENDBLK
  5
6F
330
19
100
AcDbEntity
  8
0
100
AcDbBlockEnd
  0
BLOCK
  5
71
330
1A
100
AcDbEntity
  8
0
100
AcDbBlockBegin
  2
SQUARE_9
 70
     0
 10
0.0
 20
0.0
 30
0.0
  3
SQUARE_9
  1

  0
SOLID
  5
73
330
1A
100
AcDbEntity
  8
0
  6
BYLAYER
 62
   256
100
AcDbTrace
 10
0.0590549868403
 20
0.0590549608293
 30
0.0
 11
0.0590549868403
 21
-0.0590549603257
 31
0.0
 12
-0.0590549343146
 22
0.0590549608293
 32
0.0
 13
-0.0590549343146
 23
-0.0590549603257
 33
0.0
  0
ENDBLK
  5
72
330
1A
100
AcDbEntity
  8
0
100
AcDbBlockEnd
  0
BLOCK
  5
74
330
1B
100
AcDbEntity
  8
0
100
AcDbBlockBegin
  2
CUSTOM_10
 70
     0
 10
0.0
 20
0.0
 30
0.0
  3
CUSTOM_10
  1

  0
SOLID
  5
76
330
1B
100
AcDbEntity
  8
0
  6
BYLAYER
 62
   256
100
AcDbTrace
 10
-0.0107694750399
 20
-0.0259998947382
 30
0.0
 11
-0.0259998687272
 21
-0.010769501051
 31
0.0
 12
0.0107695275656
 22
-0.0259998947382
 32
0.0
 13
0.0259999212529
 23
-0.010769501051
 33
0.0
  0
SOLID
  5
77
330
1B
100
AcDbEntity
  8
0
  6
BYLAYER
 62
   256
100
AcDbTrace
 10
-0.0259998687272
 20
-0.010769501051
 30
0.0
 11
-0.0259998687272
 21
0.0107695015546
 31
0.0
 12
0.0259999212529
 22
-0.010769501051
 32
0.0
 13
0.0259999212529
 23
0.0107695015546
 33
0.0
  0
SOLID
  5
78
330
1B
100
AcDbEntity
  8
0
  6
BYLAYER
 62
   256
100
AcDbTrace
 10
-0.0259998687272
 20
0.0107695015546
 30
0.0
 11
-0.0107694750399
 21
0.0259998952419
 31
0.0
 12
0.0259999212529
 22
0.0107695015546
 32
0.0
 13
0.0107695275656
 23
0.0259998952419
 33
0.0
  0
ENDBLK
  5
75
330
1B
100
AcDbEntity
  8
0
100
AcDbBlockEnd
  0
BLOCK
  5
79
330
1C
100
AcDbEntity
  8
0
100
AcDbBlockBegin
  2
ROUND_11
 70
     0
 10
0.0
 20
0.0
 30
0.0
  3
ROUND_11
  1

  0
HATCH
  5
7B
330
1C
100
AcDbEntity
  8
0
100
AcDbHatch
 10
0.0
 20
0.0
 30
0.0
210
0.0
220
0.0
230
1.0
  2
SOLID
 70
     1
 71
     0
 91
     1
 92
     0
 93
     1
 72
     2
 10
0.0
 20
0.0
 40
0.000999999999112
 50
0.0
 51
360.0
 73
     1
 97
     0
 75
     0
 76
     1
 98
     1
 10
0.0
 20
0.0
  0
ENDBLK
  5
7A
330
1C
100
AcDbEntity
  8
0
100
AcDbBlockEnd
  0
BLOCK
  5
7C
330
1D
100
AcDbEntity
  8
0
100
AcDbBlockBegin
  2
ROUND_12
 70
     0
 10
0.0
 20
0.0
 30
0.0
  3
ROUND_12
  1

  0
HATCH
  5
7E
330
1D
100
AcDbEntity
  8
0
100
AcDbHatch
 10
0.0
 20
0.0
 30
0.0
210
0.0
220
0.0
230
1.0
  2
SOLID
 70
     1
 71
     0
 91
     1
 92
     0
 93
     1
 72
     2
 10
0.0
 20
0.0
 40
0.00249999999778
 50
0.0
 51
360.0
 73
     1
 97
     0
 75
     0
 76
     1
 98
     1
 10
0.0
 20
0.0
  0
ENDBLK
  5
7D
330
1D
100
AcDbEntity
  8
0
100
AcDbBlockEnd
  0
BLOCK
  5
7F
330
1E
100
AcDbEntity
  8
0
100
AcDbBlockBegin
  2
CUSTOM_13
 70
     0
 10
0.0
 20
0.0
 30
0.0
  3
CUSTOM_13
  1

  0
SOLID
  5
81
330
1E
100
AcDbEntity
  8
0
  6
BYLAYER
 62
   256
100
AcDbTrace
 10
-0.0285392388037
 20
-0.0688998422067
 30
0.0
 11
-0.0688997112088
 21
-0.0285392648147
 31
0.0
 12
0.0285392388359
 22
-0.0688998422067
 32
0.0
 13
0.0688998687214
 23
-0.0285392648147
 33
0.0
  0
SOLID
  5
82
330
1E
100
AcDbEntity
  8
0
  6
BYLAYER
 62
   256
100
AcDbTrace
 10
-0.0688997112088
 20
-0.0285392648147
 30
0.0
 11
-0.0688998161957
 21
-0.0285392123213
 31
0.0
 12
0.0688998687214
 22
-0.0285392648147
 32
0.0
 13
0.0688998687214
 23
-0.0285392123213
 33
0.0
  0
SOLID
  5
83
330
1E
100
AcDbEntity
  8
0
  6
BYLAYER
 62
   256
100
AcDbTrace
 10
-0.0688998161957
 20
-0.0285392123213
 30
0.0
 11
-0.0688998161957
 21
0.0285392128249
 31
0.0
 12
0.0688998687214
 22
-0.0285392123213
 32
0.0
 13
0.0688998687214
 23
0.0285392128249
 33
0.0
  0
SOLID
  5
84
330
1E
100
AcDbEntity
  8
0
  6
BYLAYER
 62
   256
100
AcDbTrace
 10
-0.0688998161957
 20
0.0285392128249
 30
0.0
 11
-0.0688998161957
 21
0.0285392653183
 31
0.0
 12
0.0688998687214
 22
0.0285392128249
 32
0.0
 13
0.0688998687214
 23
0.0285392653183
 33
0.0
  0
SOLID
  5
85
330
1E
100
AcDbEntity
  8
0
  6
BYLAYER
 62
   256
100
AcDbTrace
 10
-0.0688998161957
 20
0.0285392653183
 30
0.0
 11
-0.0285391863102
 21
0.0688998427103
 31
0.0
 12
0.0688998687214
 22
0.0285392653183
 32
0.0
 13
0.0285392913294
 23
0.0688998427103
 33
0.0
  0
ENDBLK
  5
80
330
1E
100
AcDbEntity
  8
0
100
AcDbBlockEnd
  0
BLOCK
  5
86
330
1F
100
AcDbEntity
  8
0
100
AcDbBlockBegin
  2
CUSTOM_14
 70
     0
 10
0.0
 20
0.0
 30
0.0
  3
CUSTOM_14
  1

  0
SOLID
  5
88
330
1F
100
AcDbEntity
  8
0
  6
BYLAYER
 62
   256
100
AcDbTrace
 10
-0.0203853805432
 20
-0.0492148553475
 30
0.0
 11
-0.0492148293365
 21
-0.0203855115411
 31
0.0
 12
0.0203855380558
 22
-0.0492148553475
 32
0.0
 13
0.0492148293688
 23
-0.0203855115411
 33
0.0
  0
SOLID
  5
89
330
1F
100
AcDbEntity
  8
0
  6
BYLAYER
 62
   256
100
AcDbTrace
 10
-0.0492148293365
 20
-0.0203855115411
 30
0.0
 11
-0.0492148293365
 21
-0.0203854065542
 31
0.0
 12
0.0492148293688
 22
-0.0203855115411
 32
0.0
 13
0.0492148818622
 23
-0.0203854065542
 33
0.0
  0
SOLID
  5
8A
330
1F
100
AcDbEntity
  8
0
  6
BYLAYER
 62
   256
100
AcDbTrace
 10
-0.0492148293365
 20
-0.0203854065542
 30
0.0
 11
-0.0492148293365
 21
0.0203854070579
 31
0.0
 12
0.0492148818622
 22
-0.0203854065542
 32
0.0
 13
0.0492148818622
 23
0.0203854070579
 33
0.0
  0
SOLID
  5
8B
330
1F
100
AcDbEntity
  8
0
  6
BYLAYER
 62
   256
100
AcDbTrace
 10
-0.0492148293365
 20
0.0203854070579
 30
0.0
 11
-0.0492148293365
 21
0.0203855120447
 31
0.0
 12
0.0492148818622
 22
0.0203854070579
 32
0.0
 13
0.0492148818622
 23
0.0203855120447
 33
0.0
  0
SOLID
  5
8C
330
1F
100
AcDbEntity
  8
0
  6
BYLAYER
 62
   256
100
AcDbTrace
 10
-0.0492148293365
 20
0.0203855120447
 30
0.0
 11
-0.0203854855301
 21
0.0492148558512
 31
0.0
 12
0.0492148818622
 22
0.0203855120447
 32
0.0
 13
0.0203854330689
 23
0.0492148558512
 33
0.0
  0
ENDBLK
  5
87
330
1F
100
AcDbEntity
  8
0
100
AcDbBlockEnd
  0
BLOCK
  5
8D
330
20
100
AcDbEntity
  8
0
100
AcDbBlockBegin
  2
RECTANGLE_15
 70
     0
 10
0.0
 20
0.0
 30
0.0
  3
RECTANGLE_15
  1

  0
SOLID
  5
8F
330
20
100
AcDbEntity
  8
0
  6
BYLAYER
 62
   256
100
AcDbTrace
 10
0.0299200262363
 20
0.0350400002207
 30
0.0
 11
0.0299200262363
 21
-0.0350399997171
 31
0.0
 12
-0.0299199737106
 22
0.0350400002207
 32
0.0
 13
-0.0299199737106
 23
-0.0350399997171
 33
0.0
  0
ENDBLK
  5
8E
330
20
100
AcDbEntity
  8
0
100
AcDbBlockEnd
  0
BLOCK
  5
90
330
21
100
AcDbEntity
  8
0
100
AcDbBlockBegin
  2
RECTANGLE_16
 70
     0
 10
0.0
 20
0.0
 30
0.0
  3
RECTANGLE_16
  1

  0
SOLID
  5
92
330
21
100
AcDbEntity
  8
0
  6
BYLAYER
 62
   256
100
AcDbTrace
 10
0.0354349868613
 20
0.0334649346053
 30
0.0
 11
0.0354349868613
 21
-0.0334649341017
 31
0.0
 12
-0.0354349343356
 22
0.0334649346053
 32
0.0
 13
-0.0354349343356
 23
-0.0334649341017
 33
0.0
  0
ENDBLK
  5
91
330
21
100
AcDbEntity
  8
0
100
AcDbBlockEnd
  0
BLOCK
  5
93
330
22
100
AcDbEntity
  8
0
100
AcDbBlockBegin
  2
SQUARE_17
 70
     0
 10
0.0
 20
0.0
 30
0.0
  3
SQUARE_17
  1

  0
SOLID
  5
95
330
22
100
AcDbEntity
  8
0
  6
BYLAYER
 62
   256
100
AcDbTrace
 10
0.0315000262349
 20
0.0315000002239
 30
0.0
 11
0.0315000262349
 21
-0.0314999997202
 31
0.0
 12
-0.0314999737092
 22
0.0315000002239
 32
0.0
 13
-0.0314999737092
 23
-0.0314999997202
 33
0.0
  0
ENDBLK
  5
94
330
22
100
AcDbEntity
  8
0
100
AcDbBlockEnd
  0
BLOCK
  5
96
330
23
100
AcDbEntity
  8
0
100
AcDbBlockBegin
  2
ROUND_18
 70
     0
 10
0.0
 20
0.0
 30
0.0
  3
ROUND_18
  1

  0
HATCH
  5
98
330
23
100
AcDbEntity
  8
0
100
AcDbHatch
 10
0.0
 20
0.0
 30
0.0
210
0.0
220
0.0
230
1.0
  2
SOLID
 70
     1
 71
     0
 91
     1
 92
     0
 93
     1
 72
     2
 10
0.0
 20
0.0
 40
0.0119999999893
 50
0.0
 51
360.0
 73
     1
 97
     0
 75
     0
 76
     1
 98
     1
 10
0.0
 20
0.0
  0
ENDBLK
  5
97
330
23
100
AcDbEntity
  8
0
100
AcDbBlockEnd
  0
BLOCK
  5
99
330
24
100
AcDbEntity
  8
0
100
AcDbBlockBegin
  2
ROUND_19
 70
     0
 10
0.0
 20
0.0
 30
0.0
  3
ROUND_19
  1

  0
HATCH
  5
9B
330
24
100
AcDbEntity
  8
0
100
AcDbHatch
 10
0.0
 20
0.0
 30
0.0
210
0.0
220
0.0
230
1.0
  2
SOLID
 70
     1
 71
     0
 91
     1
 92
     0
 93
     1
 72
     2
 10
0.0
 20
0.0
 40
0.0159999999858
 50
0.0
 51
360.0
 73
     1
 97
     0
 75
     0
 76
     1
 98
     1
 10
0.0
 20
0.0
  0
ENDBLK
  5
9A
330
24
100
AcDbEntity
  8
0
100
AcDbBlockEnd
  0
BLOCK
  5
9C
330
25
100
AcDbEntity
  8
0
100
AcDbBlockBegin
  2
ROUND_20
 70
     0
 10
0.0
 20
0.0
 30
0.0
  3
ROUND_20
  1

  0
HATCH
  5
9E
330
25
100
AcDbEntity
  8
0
100
AcDbHatch
 10
0.0
 20
0.0
 30
0.0
210
0.0
220
0.0
230
1.0
  2
SOLID
 70
     1
 71
     0
 91
     1
 92
     0
 93
     1
 72
     2
 10
0.0
 20
0.0
 40
0.0198099737357
 50
0.0
 51
360.0
 73
     1
 97
     0
 75
     0
 76
     1
 98
     1
 10
0.0
 20
0.0
  0
ENDBLK
  5
9D
330
25
100
AcDbEntity
  8
0
100
AcDbBlockEnd
  0
BLOCK
  5
9F
330
26
100
AcDbEntity
  8
0
100
AcDbBlockBegin
  2
CUSTOM_21
 70
     0
 10
0.0
 20
0.0
 30
0.0
  3
CUSTOM_21
  1

  0
SOLID
  5
A1
330
26
100
AcDbEntity
  8
0
  6
BYLAYER
 62
   256
100
AcDbTrace
 10
-0.00820553803433
 20
-0.0198099209904
 30
0.0
 11
-0.0198097899925
 21
-0.00820556404536
 31
0.0
 12
0.00820553806659
 22
-0.0198099209904
 32
0.0
 13
0.0198099475051
 23
-0.00820556404536
 33
0.0
  0
SOLID
  5
A2
330
26
100
AcDbEntity
  8
0
  6
BYLAYER
 62
   256
100
AcDbTrace
 10
-0.0198097899925
 20
-0.00820556404536
 30
0.0
 11
-0.0198098949794
 21
-0.00820551155192
 31
0.0
 12
0.0198099475051
 22
-0.00820556404536
 32
0.0
 13
0.0198099475051
 23
-0.00820551155192
 33
0.0
  0
SOLID
  5
A3
330
26
100
AcDbEntity
  8
0
  6
BYLAYER
 62
   256
100
AcDbTrace
 10
-0.0198098949794
 20
-0.00820551155192
 30
0.0
 11
-0.0198098949794
 21
0.00820551205556
 31
0.0
 12
0.0198099475051
 22
-0.00820551155192
 32
0.0
 13
0.0198099475051
 23
0.00820551205556
 33
0.0
  0
SOLID
  5
A4
330
26
100
AcDbEntity
  8
0
  6
BYLAYER
 62
   256
100
AcDbTrace
 10
-0.0198098949794
 20
0.00820551205556
 30
0.0
 11
-0.0198098949794
 21
0.008205564549
 31
0.0
 12
0.0198099475051
 22
0.00820551205556
 32
0.0
 13
0.0198099475051
 23
0.008205564549
 33
0.0
  0
SOLID
  5
A5
330
26
100
AcDbEntity
  8
0
  6
BYLAYER
 62
   256
100
AcDbTrace
 10
-0.0198098949794
 20
0.008205564549
 30
0.0
 11
-0.00820548554089
 21
0.0198099214941
 31
0.0
 12
0.0198099475051
 22
0.008205564549
 32
0.0
 13
0.00820559056003
 23
0.0198099214941
 33
0.0
  0
ENDBLK
  5
A0
330
26
100
AcDbEntity
  8
0
100
AcDbBlockEnd
  0
BLOCK
  5
A6
330
27
100
AcDbEntity
  8
0
100
AcDbBlockBegin
  2
ROUND_22
 70
     0
 10
0.0
 20
0.0
 30
0.0
  3
ROUND_22
  1

  0
HATCH
  5
A8
330
27
100
AcDbEntity
  8
0
100
AcDbHatch
 10
0.0
 20
0.0
 30
0.0
210
0.0
220
0.0
230
1.0
  2
SOLID
 70
     1
 71
     0
 91
     1
 92
     0
 93
     1
 72
     2
 10
0.0
 20
0.0
 40
0.0199999999822
 50
0.0
 51
360.0
 73
     1
 97
     0
 75
     0
 76
     1
 98
     1
 10
0.0
 20
0.0
  0
ENDBLK
  5
A7
330
27
100
AcDbEntity
  8
0
100
AcDbBlockEnd
  0
BLOCK
  5
A9
330
28
100
AcDbEntity
  8
0
100
AcDbBlockBegin
  2
ROUND_23
 70
     0
 10
0.0
 20
0.0
 30
0.0
  3
ROUND_23
  1

  0
HATCH
  5
AB
330
28
100
AcDbEntity
  8
0
100
AcDbHatch
 10
0.0
 20
0.0
 30
0.0
210
0.0
220
0.0
230
1.0
  2
SOLID
 70
     1
 71
     0
 91
     1
 92
     0
 93
     1
 72
     2
 10
0.0
 20
0.0
 40
0.00399999999645
 50
0.0
 51
360.0
 73
     1
 97
     0
 75
     0
 76
     1
 98
     1
 10
0.0
 20
0.0
  0
ENDBLK
  5
AA
330
28
100
AcDbEntity
  8
0
100
AcDbBlockEnd
  0
BLOCK
  5
AC
330
29
100
AcDbEntity
  8
0
100
AcDbBlockBegin
  2
ROUND_24
 70
     0
 10
0.0
 20
0.0
 30
0.0
  3
ROUND_24
  1

  0
HATCH
  5
AE
330
29
100
AcDbEntity
  8
0
100
AcDbHatch
 10
0.0
 20
0.0
 30
0.0
210
0.0
220
0.0
230
1.0
  2
SOLID
 70
     1
 71
     0
 91
     1
 92
     0
 93
     1
 72
     2
 10
0.0
 20
0.0
 40
0.00199999999822
 50
0.0
 51
360.0
 73
     1
 97
     0
 75
     0
 76
     1
 98
     1
 10
0.0
 20
0.0
  0
ENDBLK
  5
AD
330
29
100
AcDbEntity
  8
0
100
AcDbBlockEnd
  0
BLOCK
  5
AF
330
2A
100
AcDbEntity
  8
0
100
AcDbBlockBegin
  2
ROUND_25
 70
     0
 10
0.0
 20
0.0
 30
0.0
  3
ROUND_25
  1

  0
HATCH
  5
B1
330
2A
100
AcDbEntity
  8
0
100
AcDbHatch
 10
0.0
 20
0.0
 30
0.0
210
0.0
220
0.0
230
1.0
  2
SOLID
 70
     1
 71
     0
 91
     1
 92
     0
 93
     1
 72
     2
 10
0.0
 20
0.0
 40
0.0379999999663
 50
0.0
 51
360.0
 73
     1
 97
     0
 75
     0
 76
     1
 98
     1
 10
0.0
 20
0.0
  0
ENDBLK
  5
B0
330
2A
100
AcDbEntity
  8
0
100
AcDbBlockEnd
  0
BLOCK
  5
B2
330
2B
100
AcDbEntity
  8
0
100
AcDbBlockBegin
  2
ROUND_26
 70
     0
 10
0.0
 20
0.0
 30
0.0
  3
ROUND_26
  1

  0
HATCH
  5
B4
330
2B
100
AcDbEntity
  8
0
100
AcDbHatch
 10
0.0
 20
0.0
 30
0.0
210
0.0
220
0.0
230
1.0
  2
SOLID
 70
     1
 71
     0
 91
     1
 92
     0
 93
     1
 72
     2
 10
0.0
 20
0.0
 40
0.00299999999734
 50
0.0
 51
360.0
 73
     1
 97
     0
 75
     0
 76
     1
 98
     1
 10
0.0
 20
0.0
  0
ENDBLK
  5
B3
330
2B
100
AcDbEntity
  8
0
100
AcDbBlockEnd
  0
BLOCK
  5
B5
330
2C
100
AcDbEntity
  8
0
100
AcDbBlockBegin
  2
ROUND_27
 70
     0
 10
0.0
 20
0.0
 30
0.0
  3
ROUND_27
  1

  0
HATCH
  5
B7
330
2C
100
AcDbEntity
  8
0
100
AcDbHatch
 10
0.0
 20
0.0
 30
0.0
210
0.0
220
0.0
230
1.0
  2
SOLID
 70
     1
 71
     0
 91
     1
 92
     0
 93
     1
 72
     2
 10
0.0
 20
0.0
 40
0.0108699737436
 50
0.0
 51
360.0
 73
     1
 97
     0
 75
     0
 76
     1
 98
     1
 10
0.0
 20
0.0
  0
ENDBLK
  5
B6
330
2C
100
AcDbEntity
  8
0
100
AcDbBlockEnd
  0
BLOCK
  5
B8
330
2D
100
AcDbEntity
  8
0
100
AcDbBlockBegin
  2
RECTANGLE_28
 70
     0
 10
0.0
 20
0.0
 30
0.0
  3
RECTANGLE_28
  1

  0
SOLID
  5
BA
330
2D
100
AcDbEntity
  8
0
  6
BYLAYER
 62
   256
100
AcDbTrace
 10
0.0118100000056
 20
0.0433049345966
 30
0.0
 11
0.0118100000056
 21
-0.0433049340929
 31
0.0
 12
-0.0118099474799
 22
0.0433049345966
 32
0.0
 13
-0.0118099474799
 23
-0.0433049340929
 33
0.0
  0
ENDBLK
  5
B9
330
2D
100
AcDbEntity
  8
0
100
AcDbBlockEnd
  0
BLOCK
  5
BB
330
2E
100
AcDbEntity
  8
0
100
AcDbBlockBegin
  2
RECTANGLE_29
 70
     0
 10
0.0
 20
0.0
 30
0.0
  3
RECTANGLE_29
  1

  0
SOLID
  5
BD
330
2E
100
AcDbEntity
  8
0
  6
BYLAYER
 62
   256
100
AcDbTrace
 10
0.0196849606286
 20
0.00984493462628
 30
0.0
 11
0.0196849606286
 21
-0.00984493412264
 31
0.0
 12
-0.0196849081029
 22
0.00984493462628
 32
0.0
 13
-0.0196849081029
 23
-0.00984493412264
 33
0.0
  0
ENDBLK
  5
BC
330
2E
100
AcDbEntity
  8
0
100
AcDbBlockEnd
  0
BLOCK
  5
BE
330
2F
100
AcDbEntity
  8
0
100
AcDbBlockBegin
  2
CUSTOM_30
 70
     0
 10
0.0
 20
0.0
 30
0.0
  3
CUSTOM_30
  1

  0
SOLID
  5
C0
330
2F
100
AcDbEntity
  8
0
  6
BYLAYER
 62
   256
100
AcDbTrace
 10
-0.0107694750399
 20
-0.0259998947382
 30
0.0
 11
-0.0259998687272
 21
-0.010769501051
 31
0.0
 12
0.0107695275656
 22
-0.0259998947382
 32
0.0
 13
0.0259999212529
 23
-0.010769501051
 33
0.0
  0
SOLID
  5
C1
330
2F
100
AcDbEntity
  8
0
  6
BYLAYER
 62
   256
100
AcDbTrace
 10
-0.0259998687272
 20
-0.010769501051
 30
0.0
 11
-0.0259998687272
 21
0.0107695015546
 31
0.0
 12
0.0259999212529
 22
-0.010769501051
 32
0.0
 13
0.0259999212529
 23
0.0107695015546
 33
0.0
  0
SOLID
  5
C2
330
2F
100
AcDbEntity
  8
0
  6
BYLAYER
 62
   256
100
AcDbTrace
 10
-0.0259998687272
 20
0.0107695015546
 30
0.0
 11
-0.0107694750399
 21
0.0259998952419
 31
0.0
 12
0.0259999212529
 22
0.0107695015546
 32
0.0
 13
0.0107695275656
 23
0.0259998952419
 33
0.0
  0
ENDBLK
  5
BF
330
2F
100
AcDbEntity
  8
0
100
AcDbBlockEnd
  0
BLOCK
  5
C3
330
30
100
AcDbEntity
  8
0
100
AcDbBlockBegin
  2
CUSTOM_31
 70
     0
 10
0.0
 20
0.0
 30
0.0
  3
CUSTOM_31
  1

  0
SOLID
  5
C5
330
30
100
AcDbEntity
  8
0
  6
BYLAYER
 62
   256
100
AcDbTrace
 10
-0.0285392388037
 20
-0.0688998422067
 30
0.0
 11
-0.0688997112088
 21
-0.0285392648147
 31
0.0
 12
0.0285392388359
 22
-0.0688998422067
 32
0.0
 13
0.0688998687214
 23
-0.0285392648147
 33
0.0
  0
SOLID
  5
C6
330
30
100
AcDbEntity
  8
0
  6
BYLAYER
 62
   256
100
AcDbTrace
 10
-0.0688997112088
 20
-0.0285392648147
 30
0.0
 11
-0.0688998161957
 21
-0.0285392123213
 31
0.0
 12
0.0688998687214
 22
-0.0285392648147
 32
0.0
 13
0.0688998687214
 23
-0.0285392123213
 33
0.0
  0
SOLID
  5
C7
330
30
100
AcDbEntity
  8
0
  6
BYLAYER
 62
   256
100
AcDbTrace
 10
-0.0688998161957
 20
-0.0285392123213
 30
0.0
 11
-0.0688998161957
 21
0.0285392128249
 31
0.0
 12
0.0688998687214
 22
-0.0285392123213
 32
0.0
 13
0.0688998687214
 23
0.0285392128249
 33
0.0
  0
SOLID
  5
C8
330
30
100
AcDbEntity
  8
0
  6
BYLAYER
 62
   256
100
AcDbTrace
 10
-0.0688998161957
 20
0.0285392128249
 30
0.0
 11
-0.0688998161957
 21
0.0285392653183
 31
0.0
 12
0.0688998687214
 22
0.0285392128249
 32
0.0
 13
0.0688998687214
 23
0.0285392653183
 33
0.0
  0
SOLID
  5
C9
330
30
100
AcDbEntity
  8
0
  6
BYLAYER
 62
   256
100
AcDbTrace
 10
-0.0688998161957
 20
0.0285392653183
 30
0.0
 11
-0.0285391863102
 21
0.0688998427103
 31
0.0
 12
0.0688998687214
 22
0.0285392653183
 32
0.0
 13
0.0285392913294
 23
0.0688998427103
 33
0.0
  0
ENDBLK
  5
C4
330
30
100
AcDbEntity
  8
0
100
AcDbBlockEnd
  0
BLOCK
  5
CA
330
31
100
AcDbEntity
  8
0
100
AcDbBlockBegin
  2
CUSTOM_32
 70
     0
 10
0.0
 20
0.0
 30
0.0
  3
CUSTOM_32
  1

  0
SOLID
  5
CC
330
31
100
AcDbEntity
  8
0
  6
BYLAYER
 62
   256
100
AcDbTrace
 10
-0.0203853805432
 20
-0.0492148553475
 30
0.0
 11
-0.0492148293365
 21
-0.0203855115411
 31
0.0
 12
0.0203855380558
 22
-0.0492148553475
 32
0.0
 13
0.0492148293688
 23
-0.0203855115411
 33
0.0
  0
SOLID
  5
CD
330
31
100
AcDbEntity
  8
0
  6
BYLAYER
 62
   256
100
AcDbTrace
 10
-0.0492148293365
 20
-0.0203855115411
 30
0.0
 11
-0.0492148293365
 21
-0.0203854065542
 31
0.0
 12
0.0492148293688
 22
-0.0203855115411
 32
0.0
 13
0.0492148818622
 23
-0.0203854065542
 33
0.0
  0
SOLID
  5
CE
330
31
100
AcDbEntity
  8
0
  6
BYLAYER
 62
   256
100
AcDbTrace
 10
-0.0492148293365
 20
-0.0203854065542
 30
0.0
 11
-0.0492148293365
 21
0.0203854070579
 31
0.0
 12
0.0492148818622
 22
-0.0203854065542
 32
0.0
 13
0.0492148818622
 23
0.0203854070579
 33
0.0
  0
SOLID
  5
CF
330
31
100
AcDbEntity
  8
0
  6
BYLAYER
 62
   256
100
AcDbTrace
 10
-0.0492148293365
 20
0.0203854070579
 30
0.0
 11
-0.0492148293365
 21
0.0203855120447
 31
0.0
 12
0.0492148818622
 22
0.0203854070579
 32
0.0
 13
0.0492148818622
 23
0.0203855120447
 33
0.0
  0
SOLID
  5
D0
330
31
100
AcDbEntity
  8
0
  6
BYLAYER
 62
   256
100
AcDbTrace
 10
-0.0492148293365
 20
0.0203855120447
 30
0.0
 11
-0.0203854855301
 21
0.0492148558512
 31
0.0
 12
0.0492148818622
 22
0.0203855120447
 32
0.0
 13
0.0203854330689
 23
0.0492148558512
 33
0.0
  0
ENDBLK
  5
CB
330
31
100
AcDbEntity
  8
0
100
AcDbBlockEnd
  0
BLOCK
  5
D1
330
32
100
AcDbEntity
  8
0
100
AcDbBlockBegin
  2
CUSTOM_33
 70
     0
 10
0.0
 20
0.0
 30
0.0
  3
CUSTOM_33
  1

  0
SOLID
  5
D3
330
32
100
AcDbEntity
  8
0
  6
BYLAYER
 62
   256
100
AcDbTrace
 10
-0.00820553803433
 20
-0.0198099209904
 30
0.0
 11
-0.0198097899925
 21
-0.00820556404536
 31
0.0
 12
0.00820553806659
 22
-0.0198099209904
 32
0.0
 13
0.0198099475051
 23
-0.00820556404536
 33
0.0
  0
SOLID
  5
D4
330
32
100
AcDbEntity
  8
0
  6
BYLAYER
 62
   256
100
AcDbTrace
 10
-0.0198097899925
 20
-0.00820556404536
 30
0.0
 11
-0.0198098949794
 21
-0.00820551155192
 31
0.0
 12
0.0198099475051
 22
-0.00820556404536
 32
0.0
 13
0.0198099475051
 23
-0.00820551155192
 33
0.0
  0
SOLID
  5
D5
330
32
100
AcDbEntity
  8
0
  6
BYLAYER
 62
   256
100
AcDbTrace
 10
-0.0198098949794
 20
-0.00820551155192
 30
0.0
 11
-0.0198098949794
 21
0.00820551205556
 31
0.0
 12
0.0198099475051
 22
-0.00820551155192
 32
0.0
 13
0.0198099475051
 23
0.00820551205556
 33
0.0
  0
SOLID
  5
D6
330
32
100
AcDbEntity
  8
0
  6
BYLAYER
 62
   256
100
AcDbTrace
 10
-0.0198098949794
 20
0.00820551205556
 30
0.0
 11
-0.0198098949794
 21
0.008205564549
 31
0.0
 12
0.0198099475051
 22
0.00820551205556
 32
0.0
 13
0.0198099475051
 23
0.008205564549
 33
0.0
  0
SOLID
  5
D7
330
32
100
AcDbEntity
  8
0
  6
BYLAYER
 62
   256
100
AcDbTrace
 10
-0.0198098949794
 20
0.008205564549
 30
0.0
 11
-0.00820548554089
 21
0.0198099214941
 31
0.0
 12
0.0198099475051
 22
0.008205564549
 32
0.0
 13
0.00820559056003
 23
0.0198099214941
 33
0.0
  0
ENDBLK
  5
D2
330
32
100
AcDbEntity
  8
0
100
AcDbBlockEnd
  0
BLOCK
  5
D8
330
33
100
AcDbEntity
  8
0
100
AcDbBlockBegin
  2
ROUND_34
 70
     0
 10
0.0
 20
0.0
 30
0.0
  3
ROUND_34
  1

  0
HATCH
  5
DA
330
33
100
AcDbEntity
  8
0
100
AcDbHatch
 10
0.0
 20
0.0
 30
0.0
210
0.0
220
0.0
230
1.0
  2
SOLID
 70
     1
 71
     0
 91
     1
 92
     0
 93
     1
 72
     2
 10
0.0
 20
0.0
 40
0.000499999999556
 50
0.0
 51
360.0
 73
     1
 97
     0
 75
     0
 76
     1
 98
     1
 10
0.0
 20
0.0
  0
ENDBLK
  5
D9
330
33
100
AcDbEntity
  8
0
100
AcDbBlockEnd
  0
BLOCK
  5
DB
330
34
100
AcDbEntity
  8
0
100
AcDbBlockBegin
  2
ROUND_35
 70
     0
 10
0.0
 20
0.0
 30
0.0
  3
ROUND_35
  1

  0
HATCH
  5
DD
330
34
100
AcDbEntity
  8
0
100
AcDbHatch
 10
0.0
 20
0.0
 30
0.0
210
0.0
220
0.0
230
1.0
  2
SOLID
 70
     1
 71
     0
 91
     1
 92
     0
 93
     1
 72
     2
 10
0.0
 20
0.0
 40
0.00499999999556
 50
0.0
 51
360.0
 73
     1
 97
     0
 75
     0
 76
     1
 98
     1
 10
0.0
 20
0.0
  0
ENDBLK
  5
DC
330
34
100
AcDbEntity
  8
0
100
AcDbBlockEnd
  0
BLOCK
  5
DE
330
35
100
AcDbEntity
  8
0
100
AcDbBlockBegin
  2
CUSTOM_36
 70
     0
 10
0.0
 20
0.0
 30
0.0
  3
CUSTOM_36
  1

  0
SOLID
  5
E0
330
35
100
AcDbEntity
  8
0
  6
BYLAYER
 62
   256
100
AcDbTrace
 10
-0.0107694750399
 20
-0.0259998947382
 30
0.0
 11
-0.0259998687272
 21
-0.010769501051
 31
0.0
 12
0.0107695275656
 22
-0.0259998947382
 32
0.0
 13
0.0259999212529
 23
-0.010769501051
 33
0.0
  0
SOLID
  5
E1
330
35
100
AcDbEntity
  8
0
  6
BYLAYER
 62
   256
100
AcDbTrace
 10
-0.0259998687272
 20
-0.010769501051
 30
0.0
 11
-0.0259998687272
 21
0.0107695015546
 31
0.0
 12
0.0259999212529
 22
-0.010769501051
 32
0.0
 13
0.0259999212529
 23
0.0107695015546
 33
0.0
  0
SOLID
  5
E2
330
35
100
AcDbEntity
  8
0
  6
BYLAYER
 62
   256
100
AcDbTrace
 10
-0.0259998687272
 20
0.0107695015546
 30
0.0
 11
-0.0107694750399
 21
0.0259998952419
 31
0.0
 12
0.0259999212529
 22
0.0107695015546
 32
0.0
 13
0.0107695275656
 23
0.0259998952419
 33
0.0
  0
ENDBLK
  5
DF
330
35
100
AcDbEntity
  8
0
100
AcDbBlockEnd
  0
BLOCK
  5
E3
330
36
100
AcDbEntity
  8
0
100
AcDbBlockBegin
  2
CUSTOM_37
 70
     0
 10
0.0
 20
0.0
 30
0.0
  3
CUSTOM_37
  1

  0
SOLID
  5
E5
330
36
100
AcDbEntity
  8
0
  6
BYLAYER
 62
   256
100
AcDbTrace
 10
-0.0285392388037
 20
-0.0688998422067
 30
0.0
 11
-0.0688997112088
 21
-0.0285392648147
 31
0.0
 12
0.0285392388359
 22
-0.0688998422067
 32
0.0
 13
0.0688998687214
 23
-0.0285392648147
 33
0.0
  0
SOLID
  5
E6
330
36
100
AcDbEntity
  8
0
  6
BYLAYER
 62
   256
100
AcDbTrace
 10
-0.0688997112088
 20
-0.0285392648147
 30
0.0
 11
-0.0688998161957
 21
-0.0285392123213
 31
0.0
 12
0.0688998687214
 22
-0.0285392648147
 32
0.0
 13
0.0688998687214
 23
-0.0285392123213
 33
0.0
  0
SOLID
  5
E7
330
36
100
AcDbEntity
  8
0
  6
BYLAYER
 62
   256
100
AcDbTrace
 10
-0.0688998161957
 20
-0.0285392123213
 30
0.0
 11
-0.0688998161957
 21
0.0285392128249
 31
0.0
 12
0.0688998687214
 22
-0.0285392123213
 32
0.0
 13
0.0688998687214
 23
0.0285392128249
 33
0.0
  0
SOLID
  5
E8
330
36
100
AcDbEntity
  8
0
  6
BYLAYER
 62
   256
100
AcDbTrace
 10
-0.0688998161957
 20
0.0285392128249
 30
0.0
 11
-0.0688998161957
 21
0.0285392653183
 31
0.0
 12
0.0688998687214
 22
0.0285392128249
 32
0.0
 13
0.0688998687214
 23
0.0285392653183
 33
0.0
  0
SOLID
  5
E9
330
36
100
AcDbEntity
  8
0
  6
BYLAYER
 62
   256
100
AcDbTrace
 10
-0.0688998161957
 20
0.0285392653183
 30
0.0
 11
-0.0285391863102
 21
0.0688998427103
 31
0.0
 12
0.0688998687214
 22
0.0285392653183
 32
0.0
 13
0.0285392913294
 23
0.0688998427103
 33
0.0
  0
ENDBLK
  5
E4
330
36
100
AcDbEntity
  8
0
100
AcDbBlockEnd
  0
BLOCK
  5
EA
330
37
100
AcDbEntity
  8
0
100
AcDbBlockBegin
  2
CUSTOM_38
 70
     0
 10
0.0
 20
0.0
 30
0.0
  3
CUSTOM_38
  1

  0
SOLID
  5
EC
330
37
100
AcDbEntity
  8
0
  6
BYLAYER
 62
   256
100
AcDbTrace
 10
-0.0203853805432
 20
-0.0492148553475
 30
0.0
 11
-0.0492148293365
 21
-0.0203855115411
 31
0.0
 12
0.0203855380558
 22
-0.0492148553475
 32
0.0
 13
0.0492148293688
 23
-0.0203855115411
 33
0.0
  0
SOLID
  5
ED
330
37
100
AcDbEntity
  8
0
  6
BYLAYER
 62
   256
100
AcDbTrace
 10
-0.0492148293365
 20
-0.0203855115411
 30
0.0
 11
-0.0492148293365
 21
-0.0203854065542
 31
0.0
 12
0.0492148293688
 22
-0.0203855115411
 32
0.0
 13
0.0492148818622
 23
-0.0203854065542
 33
0.0
  0
SOLID
  5
EE
330
37
100
AcDbEntity
  8
0
  6
BYLAYER
 62
   256
100
AcDbTrace
 10
-0.0492148293365
 20
-0.0203854065542
 30
0.0
 11
-0.0492148293365
 21
0.0203854070579
 31
0.0
 12
0.0492148818622
 22
-0.0203854065542
 32
0.0
 13
0.0492148818622
 23
0.0203854070579
 33
0.0
  0
SOLID
  5
EF
330
37
100
AcDbEntity
  8
0
  6
BYLAYER
 62
   256
100
AcDbTrace
 10
-0.0492148293365
 20
0.0203854070579
 30
0.0
 11
-0.0492148293365
 21
0.0203855120447
 31
0.0
 12
0.0492148818622
 22
0.0203854070579
 32
0.0
 13
0.0492148818622
 23
0.0203855120447
 33
0.0
  0
SOLID
  5
F0
330
37
100
AcDbEntity
  8
0
  6
BYLAYER
 62
   256
100
AcDbTrace
 10
-0.0492148293365
 20
0.0203855120447
 30
0.0
 11
-0.0203854855301
 21
0.0492148558512
 31
0.0
 12
0.0492148818622
 22
0.0203855120447
 32
0.0
 13
0.0203854330689
 23
0.0492148558512
 33
0.0
  0
ENDBLK
  5
EB
330
37
100
AcDbEntity
  8
0
100
AcDbBlockEnd
  0
BLOCK
  5
F1
330
38
100
AcDbEntity
  8
0
100
AcDbBlockBegin
  2
CUSTOM_39
 70
     0
 10
0.0
 20
0.0
 30
0.0
  3
CUSTOM_39
  1

  0
SOLID
  5
F3
330
38
100
AcDbEntity
  8
0
  6
BYLAYER
 62
   256
100
AcDbTrace
 10
-0.00820553803433
 20
-0.0198099209904
 30
0.0
 11
-0.0198097899925
 21
-0.00820556404536
 31
0.0
 12
0.00820553806659
 22
-0.0198099209904
 32
0.0
 13
0.0198099475051
 23
-0.00820556404536
 33
0.0
  0
SOLID
  5
F4
330
38
100
AcDbEntity
  8
0
  6
BYLAYER
 62
   256
100
AcDbTrace
 10
-0.0198097899925
 20
-0.00820556404536
 30
0.0
 11
-0.0198098949794
 21
-0.00820551155192
 31
0.0
 12
0.0198099475051
 22
-0.00820556404536
 32
0.0
 13
0.0198099475051
 23
-0.00820551155192
 33
0.0
  0
SOLID
  5
F5
330
38
100
AcDbEntity
  8
0
  6
BYLAYER
 62
   256
100
AcDbTrace
 10
-0.0198098949794
 20
-0.00820551155192
 30
0.0
 11
-0.0198098949794
 21
0.00820551205556
 31
0.0
 12
0.0198099475051
 22
-0.00820551155192
 32
0.0
 13
0.0198099475051
 23
0.00820551205556
 33
0.0
  0
SOLID
  5
F6
330
38
100
AcDbEntity
  8
0
  6
BYLAYER
 62
   256
100
AcDbTrace
 10
-0.0198098949794
 20
0.00820551205556
 30
0.0
 11
-0.0198098949794
 21
0.008205564549
 31
0.0
 12
0.0198099475051
 22
0.00820551205556
 32
0.0
 13
0.0198099475051
 23
0.008205564549
 33
0.0
  0
SOLID
  5
F7
330
38
100
AcDbEntity
  8
0
  6
BYLAYER
 62
   256
100
AcDbTrace
 10
-0.0198098949794
 20
0.008205564549
 30
0.0
 11
-0.00820548554089
 21
0.0198099214941
 31
0.0
 12
0.0198099475051
 22
0.008205564549
 32
0.0
 13
0.00820559056003
 23
0.0198099214941
 33
0.0
  0
ENDBLK
  5
F2
330
38
100
AcDbEntity
  8
0
100
AcDbBlockEnd
  0
BLOCK
  5
F8
330
39
100
AcDbEntity
  8
0
100
AcDbBlockBegin
  2
RECTANGLE_40
 70
     0
 10
0.0
 20
0.0
 30
0.0
  3
RECTANGLE_40
  1

  0
SOLID
  5
FA
330
39
100
AcDbEntity
  8
0
  6
BYLAYER
 62
   256
100
AcDbTrace
 10
0.023684960625
 20
0.025654960859
 30
0.0
 11
0.023684960625
 21
-0.0256549603553
 31
0.0
 12
-0.0236849080993
 22
0.025654960859
 32
0.0
 13
-0.0236849080993
 23
-0.0256549603553
 33
0.0
  0
ENDBLK
  5
F9
330
39
100
AcDbEntity
  8
0
100
AcDbBlockEnd
  0
BLOCK
  5
FB
330
3A
100
AcDbEntity
  8
0
100
AcDbBlockBegin
  2
ROUND_41
 70
     0
 10
0.0
 20
0.0
 30
0.0
  3
ROUND_41
  1

  0
HATCH
  5
FD
330
3A
100
AcDbEntity
  8
0
100
AcDbHatch
 10
0.0
 20
0.0
 30
0.0
210
0.0
220
0.0
230
1.0
  2
SOLID
 70
     1
 71
     0
 91
     1
 92
     0
 93
     1
 72
     2
 10
0.0
 20
0.0
 40
0.0258099737304
 50
0.0
 51
360.0
 73
     1
 97
     0
 75
     0
 76
     1
 98
     1
 10
0.0
 20
0.0
  0
ENDBLK
  5
FC
330
3A
100
AcDbEntity
  8
0
100
AcDbBlockEnd
  0
BLOCK
  5
FE
330
3B
100
AcDbEntity
  8
0
100
AcDbBlockBegin
  2
RECTANGLE_42
 70
     0
 10
0.0
 20
0.0
 30
0.0
  3
RECTANGLE_42
  1

  0
SOLID
  5
100
330
3B
100
AcDbEntity
  8
0
  6
BYLAYER
 62
   256
100
AcDbTrace
 10
0.0394349868578
 20
0.0374649346018
 30
0.0
 11
0.0394349868578
 21
-0.0374649340981
 31
0.0
 12
-0.0394349343321
 22
0.0374649346018
 32
0.0
 13
-0.0394349343321
 23
-0.0374649340981
 33
0.0
  0
ENDBLK
  5
FF
330
3B
100
AcDbEntity
  8
0
100
AcDbBlockEnd
  0
BLOCK
  5
101
330
3C
100
AcDbEntity
  8
0
100
AcDbBlockBegin
  2
RECTANGLE_43
 70
     0
 10
0.0
 20
0.0
 30
0.0
  3
RECTANGLE_43
  1

  0
SOLID
  5
103
330
3C
100
AcDbEntity
  8
0
  6
BYLAYER
 62
   256
100
AcDbTrace
 10
0.0158100000021
 20
0.047304934593
 30
0.0
 11
0.0158100000021
 21
-0.0473049340894
 31
0.0
 12
-0.0158099474764
 22
0.047304934593
 32
0.0
 13
-0.0158099474764
 23
-0.0473049340894
 33
0.0
  0
ENDBLK
  5
102
330
3C
100
AcDbEntity
  8
0
100
AcDbBlockEnd
  0
BLOCK
  5
104
330
3D
100
AcDbEntity
  8
0
100
AcDbBlockBegin
  2
RECTANGLE_44
 70
     0
 10
0.0
 20
0.0
 30
0.0
  3
RECTANGLE_44
  1

  0
SOLID
  5
106
330
3D
100
AcDbEntity
  8
0
  6
BYLAYER
 62
   256
100
AcDbTrace
 10
0.023684960625
 20
0.0138449346227
 30
0.0
 11
0.023684960625
 21
-0.0138449341191
 31
0.0
 12
-0.0236849080993
 22
0.0138449346227
 32
0.0
 13
-0.0236849080993
 23
-0.0138449341191
 33
0.0
  0
ENDBLK
  5
105
330
3D
100
AcDbEntity
  8
0
100
AcDbBlockEnd
  0
BLOCK
  5
107
330
3E
100
AcDbEntity
  8
0
100
AcDbBlockBegin
  2
RECTANGLE_45
 70
     0
 10
0.0
 20
0.0
 30
0.0
  3
RECTANGLE_45
  1

  0
SOLID
  5
109
330
3E
100
AcDbEntity
  8
0
  6
BYLAYER
 62
   256
100
AcDbTrace
 10
0.02565498687
 20
0.023684934614
 30
0.0
 11
0.02565498687
 21
-0.0236849341104
 31
0.0
 12
-0.0256549343443
 22
0.023684934614
 32
0.0
 13
-0.0256549343443
 23
-0.0236849341104
 33
0.0
  0
ENDBLK
  5
108
330
3E
100
AcDbEntity
  8
0
100
AcDbBlockEnd
  0
BLOCK
  5
10A
330
3F
100
AcDbEntity
  8
0
100
AcDbBlockBegin
  2
SQUARE_46
 70
     0
 10
0.0
 20
0.0
 30
0.0
  3
SQUARE_46
  1

  0
SOLID
  5
10C
330
3F
100
AcDbEntity
  8
0
  6
BYLAYER
 62
   256
100
AcDbTrace
 10
0.0630549868368
 20
0.0630549608258
 30
0.0
 11
0.0630549868368
 21
-0.0630549603221
 31
0.0
 12
-0.0630549343111
 22
0.0630549608258
 32
0.0
 13
-0.0630549343111
 23
-0.0630549603221
 33
0.0
  0
ENDBLK
  5
10B
330
3F
100
AcDbEntity
  8
0
100
AcDbBlockEnd
  0
BLOCK
  5
10D
330
40
100
AcDbEntity
  8
0
100
AcDbBlockBegin
  2
CUSTOM_47
 70
     0
 10
0.0
 20
0.0
 30
0.0
  3
CUSTOM_47
  1

  0
SOLID
  5
10F
330
40
100
AcDbEntity
  8
0
  6
BYLAYER
 62
   256
100
AcDbTrace
 10
-0.0124263254322
 20
-0.0299998947347
 30
0.0
 11
-0.0299998687236
 21
-0.0124263514432
 31
0.0
 12
0.0124263779579
 22
-0.0299998947347
 32
0.0
 13
0.0299999212493
 23
-0.0124263514432
 33
0.0
  0
SOLID
  5
110
330
40
100
AcDbEntity
  8
0
  6
BYLAYER
 62
   256
100
AcDbTrace
 10
-0.0299998687236
 20
-0.0124263514432
 30
0.0
 11
-0.0299998687236
 21
0.0124263519468
 31
0.0
 12
0.0299999212493
 22
-0.0124263514432
 32
0.0
 13
0.0299999212493
 23
0.0124263519468
 33
0.0
  0
SOLID
  5
111
330
40
100
AcDbEntity
  8
0
  6
BYLAYER
 62
   256
100
AcDbTrace
 10
-0.0299998687236
 20
0.0124263519468
 30
0.0
 11
-0.0124263254322
 21
0.0299998952383
 31
0.0
 12
0.0299999212493
 22
0.0124263519468
 32
0.0
 13
0.0124263779579
 23
0.0299998952383
 33
0.0
  0
ENDBLK
  5
10E
330
40
100
AcDbEntity
  8
0
100
AcDbBlockEnd
  0
BLOCK
  5
112
330
41
100
AcDbEntity
  8
0
100
AcDbBlockBegin
  2
CUSTOM_48
 70
     0
 10
0.0
 20
0.0
 30
0.0
  3
CUSTOM_48
  1

  0
SOLID
  5
114
330
41
100
AcDbEntity
  8
0
  6
BYLAYER
 62
   256
100
AcDbTrace
 10
-0.0301960367025
 20
-0.0728998422031
 30
0.0
 11
-0.0728998161921
 21
-0.0301961152069
 31
0.0
 12
0.0301961417216
 22
-0.0728998422031
 32
0.0
 13
0.0728997637309
 23
-0.0301961152069
 33
0.0
  0
SOLID
  5
115
330
41
100
AcDbEntity
  8
0
  6
BYLAYER
 62
   256
100
AcDbTrace
 10
-0.0728998161921
 20
-0.0301961152069
 30
0.0
 11
-0.0728998161921
 21
-0.0301960627135
 31
0.0
 12
0.0728997637309
 22
-0.0301961152069
 32
0.0
 13
0.0728998687178
 23
-0.0301960627135
 33
0.0
  0
SOLID
  5
116
330
41
100
AcDbEntity
  8
0
  6
BYLAYER
 62
   256
100
AcDbTrace
 10
-0.0728998161921
 20
-0.0301960627135
 30
0.0
 11
-0.0728998161921
 21
0.0301960632171
 31
0.0
 12
0.0728998687178
 22
-0.0301960627135
 32
0.0
 13
0.0728998687178
 23
0.0301960632171
 33
0.0
  0
SOLID
  5
117
330
41
100
AcDbEntity
  8
0
  6
BYLAYER
 62
   256
100
AcDbTrace
 10
-0.0728998161921
 20
0.0301960632171
 30
0.0
 11
-0.0728998161921
 21
0.0301961157106
 31
0.0
 12
0.0728998687178
 22
0.0301960632171
 32
0.0
 13
0.0728998687178
 23
0.0301961157106
 33
0.0
  0
SOLID
  5
118
330
41
100
AcDbEntity
  8
0
  6
BYLAYER
 62
   256
100
AcDbTrace
 10
-0.0728998161921
 20
0.0301961157106
 30
0.0
 11
-0.0301960891959
 21
0.0728998427068
 31
0.0
 12
0.0728998687178
 22
0.0301961157106
 32
0.0
 13
0.0301960892282
 23
0.0728998427068
 33
0.0
  0
ENDBLK
  5
113
330
41
100
AcDbEntity
  8
0
100
AcDbBlockEnd
  0
BLOCK
  5
119
330
42
100
AcDbEntity
  8
0
100
AcDbBlockBegin
  2
CUSTOM_49
 70
     0
 10
0.0
 20
0.0
 30
0.0
  3
CUSTOM_49
  1

  0
SOLID
  5
11B
330
42
100
AcDbEntity
  8
0
  6
BYLAYER
 62
   256
100
AcDbTrace
 10
-0.0220422309354
 20
-0.053214855344
 30
0.0
 11
-0.0532148293329
 21
-0.0220423619333
 31
0.0
 12
0.022042388448
 22
-0.053214855344
 32
0.0
 13
0.0532148293652
 23
-0.0220423619333
 33
0.0
  0
SOLID
  5
11C
330
42
100
AcDbEntity
  8
0
  6
BYLAYER
 62
   256
100
AcDbTrace
 10
-0.0532148293329
 20
-0.0220423619333
 30
0.0
 11
-0.0532148293329
 21
-0.0220422569465
 31
0.0
 12
0.0532148293652
 22
-0.0220423619333
 32
0.0
 13
0.0532148818587
 23
-0.0220422569465
 33
0.0
  0
SOLID
  5
11D
330
42
100
AcDbEntity
  8
0
  6
BYLAYER
 62
   256
100
AcDbTrace
 10
-0.0532148293329
 20
-0.0220422569465
 30
0.0
 11
-0.0532148293329
 21
0.0220422574501
 31
0.0
 12
0.0532148818587
 22
-0.0220422569465
 32
0.0
 13
0.0532148818587
 23
0.0220422574501
 33
0.0
  0
SOLID
  5
11E
330
42
100
AcDbEntity
  8
0
  6
BYLAYER
 62
   256
100
AcDbTrace
 10
-0.0532148293329
 20
0.0220422574501
 30
0.0
 11
-0.0532148293329
 21
0.022042362437
 31
0.0
 12
0.0532148818587
 22
0.0220422574501
 32
0.0
 13
0.0532148818587
 23
0.022042362437
 33
0.0
  0
SOLID
  5
11F
330
42
100
AcDbEntity
  8
0
  6
BYLAYER
 62
   256
100
AcDbTrace
 10
-0.0532148293329
 20
0.022042362437
 30
0.0
 11
-0.0220423359223
 21
0.0532148558476
 31
0.0
 12
0.0532148818587
 22
0.022042362437
 32
0.0
 13
0.0220422834611
 23
0.0532148558476
 33
0.0
  0
ENDBLK
  5
11A
330
42
100
AcDbEntity
  8
0
100
AcDbBlockEnd
  0
BLOCK
  5
120
330
43
100
AcDbEntity
  8
0
100
AcDbBlockBegin
  2
SQUARE_50
 70
     0
 10
0.0
 20
0.0
 30
0.0
  3
SQUARE_50
  1

  0
SOLID
  5
122
330
43
100
AcDbEntity
  8
0
  6
BYLAYER
 62
   256
100
AcDbTrace
 10
0.0355000262313
 20
0.0355000002203
 30
0.0
 11
0.0355000262313
 21
-0.0354999997167
 31
0.0
 12
-0.0354999737056
 22
0.0355000002203
 32
0.0
 13
-0.0354999737056
 23
-0.0354999997167
 33
0.0
  0
ENDBLK
  5
121
330
43
100
AcDbEntity
  8
0
100
AcDbBlockEnd
  0
BLOCK
  5
123
330
44
100
AcDbEntity
  8
0
100
AcDbBlockBegin
  2
ROUND_51
 70
     0
 10
0.0
 20
0.0
 30
0.0
  3
ROUND_51
  1

  0
HATCH
  5
125
330
44
100
AcDbEntity
  8
0
100
AcDbHatch
 10
0.0
 20
0.0
 30
0.0
210
0.0
220
0.0
230
1.0
  2
SOLID
 70
     1
 71
     0
 91
     1
 92
     0
 93
     1
 72
     2
 10
0.0
 20
0.0
 40
0.0238099737321
 50
0.0
 51
360.0
 73
     1
 97
     0
 75
     0
 76
     1
 98
     1
 10
0.0
 20
0.0
  0
ENDBLK
  5
124
330
44
100
AcDbEntity
  8
0
100
AcDbBlockEnd
  0
BLOCK
  5
126
330
45
100
AcDbEntity
  8
0
100
AcDbBlockBegin
  2
CUSTOM_52
 70
     0
 10
0.0
 20
0.0
 30
0.0
  3
CUSTOM_52
  1

  0
SOLID
  5
128
330
45
100
AcDbEntity
  8
0
  6
BYLAYER
 62
   256
100
AcDbTrace
 10
-0.00986238842656
 20
-0.0238099209869
 30
0.0
 11
-0.023809789989
 21
-0.00986241443759
 31
0.0
 12
0.00986238845882
 22
-0.0238099209869
 32
0.0
 13
0.0238099475016
 23
-0.00986241443759
 33
0.0
  0
SOLID
  5
129
330
45
100
AcDbEntity
  8
0
  6
BYLAYER
 62
   256
100
AcDbTrace
 10
-0.023809789989
 20
-0.00986241443759
 30
0.0
 11
-0.0238098949759
 21
-0.00986236194415
 31
0.0
 12
0.0238099475016
 22
-0.00986241443759
 32
0.0
 13
0.0238099475016
 23
-0.00986236194415
 33
0.0
  0
SOLID
  5
12A
330
45
100
AcDbEntity
  8
0
  6
BYLAYER
 62
   256
100
AcDbTrace
 10
-0.0238098949759
 20
-0.00986236194415
 30
0.0
 11
-0.0238098949759
 21
0.00986236244779
 31
0.0
 12
0.0238099475016
 22
-0.00986236194415
 32
0.0
 13
0.0238099475016
 23
0.00986236244779
 33
0.0
  0
SOLID
  5
12B
330
45
100
AcDbEntity
  8
0
  6
BYLAYER
 62
   256
100
AcDbTrace
 10
-0.0238098949759
 20
0.00986236244779
 30
0.0
 11
-0.0238098949759
 21
0.00986241494123
 31
0.0
 12
0.0238099475016
 22
0.00986236244779
 32
0.0
 13
0.0238099475016
 23
0.00986241494123
 33
0.0
  0
SOLID
  5
12C
330
45
100
AcDbEntity
  8
0
  6
BYLAYER
 62
   256
100
AcDbTrace
 10
-0.0238098949759
 20
0.00986241494123
 30
0.0
 11
-0.00986233593312
 21
0.0238099214905
 31
0.0
 12
0.0238099475016
 22
0.00986241494123
 32
0.0
 13
0.00986244095226
 23
0.0238099214905
 33
0.0
  0
ENDBLK
  5
127
330
45
100
AcDbEntity
  8
0
100
AcDbBlockEnd
  0
BLOCK
  5
12D
330
46
100
AcDbEntity
  8
0
100
AcDbBlockBegin
  2
RECTANGLE_53
 70
     0
 10
0.0
 20
0.0
 30
0.0
  3
RECTANGLE_53
  1

  0
SOLID
  5
12F
330
46
100
AcDbEntity
  8
0
  6
BYLAYER
 62
   256
100
AcDbTrace
 10
0.0374649606128
 20
0.0394349608467
 30
0.0
 11
0.0374649606128
 21
-0.0394349603431
 31
0.0
 12
-0.0374649080871
 22
0.0394349608467
 32
0.0
 13
-0.0374649080871
 23
-0.0394349603431
 33
0.0
  0
ENDBLK
  5
12E
330
46
100
AcDbEntity
  8
0
100
AcDbBlockEnd
  0
BLOCK
  5
130
330
47
100
AcDbEntity
  8
0
100
AcDbBlockBegin
  2
RECTANGLE_54
 70
     0
 10
0.0
 20
0.0
 30
0.0
  3
RECTANGLE_54
  1

  0
SOLID
  5
132
330
47
100
AcDbEntity
  8
0
  6
BYLAYER
 62
   256
100
AcDbTrace
 10
0.0480000262202
 20
0.028000000227
 30
0.0
 11
0.0480000262202
 21
-0.0279999997233
 31
0.0
 12
-0.0479999736945
 22
0.028000000227
 32
0.0
 13
-0.0479999736945
 23
-0.0279999997233
 33
0.0
  0
ENDBLK
  5
131
330
47
100
AcDbEntity
  8
0
100
AcDbBlockEnd
  0
BLOCK
  5
133
330
48
100
AcDbEntity
  8
0
100
AcDbBlockBegin
  2
RECTANGLE_55
 70
     0
 10
0.0
 20
0.0
 30
0.0
  3
RECTANGLE_55
  1

  0
SOLID
  5
135
330
48
100
AcDbEntity
  8
0
  6
BYLAYER
 62
   256
100
AcDbTrace
 10
0.0473049606041
 20
0.0748649345686
 30
0.0
 11
0.0473049606041
 21
-0.0748649340649
 31
0.0
 12
-0.0473049080784
 22
0.0748649345686
 32
0.0
 13
-0.0473049080784
 23
-0.0748649340649
 33
0.0
  0
ENDBLK
  5
134
330
48
100
AcDbEntity
  8
0
100
AcDbBlockEnd
  0
BLOCK
  5
136
330
49
100
AcDbEntity
  8
0
100
AcDbBlockBegin
  2
RECTANGLE_56
 70
     0
 10
0.0
 20
0.0
 30
0.0
  3
RECTANGLE_56
  1

  0
SOLID
  5
138
330
49
100
AcDbEntity
  8
0
  6
BYLAYER
 62
   256
100
AcDbTrace
 10
0.0217149868735
 20
0.0197499739876
 30
0.0
 11
0.0217149868735
 21
-0.0197499734839
 31
0.0
 12
-0.0217149343478
 22
0.0197499739876
 32
0.0
 13
-0.0217149343478
 23
-0.0197499734839
 33
0.0
  0
ENDBLK
  5
137
330
49
100
AcDbEntity
  8
0
100
AcDbBlockEnd
  0
BLOCK
  5
139
330
4A
100
AcDbEntity
  8
0
100
AcDbBlockBegin
  2
CUSTOM_57
 70
     0
 10
0.0
 20
0.0
 30
0.0
  3
CUSTOM_57
  1

  0
SOLID
  5
13B
330
4A
100
AcDbEntity
  8
0
  6
BYLAYER
 62
   256
100
AcDbTrace
 10
-0.0124263254322
 20
-0.0299998947347
 30
0.0
 11
-0.0299998687236
 21
-0.0124263514432
 31
0.0
 12
0.0124263779579
 22
-0.0299998947347
 32
0.0
 13
0.0299999212493
 23
-0.0124263514432
 33
0.0
  0
SOLID
  5
13C
330
4A
100
AcDbEntity
  8
0
  6
BYLAYER
 62
   256
100
AcDbTrace
 10
-0.0299998687236
 20
-0.0124263514432
 30
0.0
 11
-0.0299998687236
 21
0.0124263519468
 31
0.0
 12
0.0299999212493
 22
-0.0124263514432
 32
0.0
 13
0.0299999212493
 23
0.0124263519468
 33
0.0
  0
SOLID
  5
13D
330
4A
100
AcDbEntity
  8
0
  6
BYLAYER
 62
   256
100
AcDbTrace
 10
-0.0299998687236
 20
0.0124263519468
 30
0.0
 11
-0.0124263254322
 21
0.0299998952383
 31
0.0
 12
0.0299999212493
 22
0.0124263519468
 32
0.0
 13
0.0124263779579
 23
0.0299998952383
 33
0.0
  0
ENDBLK
  5
13A
330
4A
100
AcDbEntity
  8
0
100
AcDbBlockEnd
  0
BLOCK
  5
13E
330
4B
100
AcDbEntity
  8
0
100
AcDbBlockBegin
  2
CUSTOM_58
 70
     0
 10
0.0
 20
0.0
 30
0.0
  3
CUSTOM_58
  1

  0
SOLID
  5
140
330
4B
100
AcDbEntity
  8
0
  6
BYLAYER
 62
   256
100
AcDbTrace
 10
-0.0301960367025
 20
-0.0728998422031
 30
0.0
 11
-0.0728998161921
 21
-0.0301961152069
 31
0.0
 12
0.0301961417216
 22
-0.0728998422031
 32
0.0
 13
0.0728997637309
 23
-0.0301961152069
 33
0.0
  0
SOLID
  5
141
330
4B
100
AcDbEntity
  8
0
  6
BYLAYER
 62
   256
100
AcDbTrace
 10
-0.0728998161921
 20
-0.0301961152069
 30
0.0
 11
-0.0728998161921
 21
-0.0301960627135
 31
0.0
 12
0.0728997637309
 22
-0.0301961152069
 32
0.0
 13
0.0728998687178
 23
-0.0301960627135
 33
0.0
  0
SOLID
  5
142
330
4B
100
AcDbEntity
  8
0
  6
BYLAYER
 62
   256
100
AcDbTrace
 10
-0.0728998161921
 20
-0.0301960627135
 30
0.0
 11
-0.0728998161921
 21
0.0301960632171
 31
0.0
 12
0.0728998687178
 22
-0.0301960627135
 32
0.0
 13
0.0728998687178
 23
0.0301960632171
 33
0.0
  0
SOLID
  5
143
330
4B
100
AcDbEntity
  8
0
  6
BYLAYER
 62
   256
100
AcDbTrace
 10
-0.0728998161921
 20
0.0301960632171
 30
0.0
 11
-0.0728998161921
 21
0.0301961157106
 31
0.0
 12
0.0728998687178
 22
0.0301960632171
 32
0.0
 13
0.0728998687178
 23
0.0301961157106
 33
0.0
  0
SOLID
  5
144
330
4B
100
AcDbEntity
  8
0
  6
BYLAYER
 62
   256
100
AcDbTrace
 10
-0.0728998161921
 20
0.0301961157106
 30
0.0
 11
-0.0301960891959
 21
0.0728998427068
 31
0.0
 12
0.0728998687178
 22
0.0301961157106
 32
0.0
 13
0.0301960892282
 23
0.0728998427068
 33
0.0
  0
ENDBLK
  5
13F
330
4B
100
AcDbEntity
  8
0
100
AcDbBlockEnd
  0
BLOCK
  5
145
330
4C
100
AcDbEntity
  8
0
100
AcDbBlockBegin
  2
CUSTOM_59
 70
     0
 10
0.0
 20
0.0
 30
0.0
  3
CUSTOM_59
  1

  0
SOLID
  5
147
330
4C
100
AcDbEntity
  8
0
  6
BYLAYER
 62
   256
100
AcDbTrace
 10
-0.0220422309354
 20
-0.053214855344
 30
0.0
 11
-0.0532148293329
 21
-0.0220423619333
 31
0.0
 12
0.022042388448
 22
-0.053214855344
 32
0.0
 13
0.0532148293652
 23
-0.0220423619333
 33
0.0
  0
SOLID
  5
148
330
4C
100
AcDbEntity
  8
0
  6
BYLAYER
 62
   256
100
AcDbTrace
 10
-0.0532148293329
 20
-0.0220423619333
 30
0.0
 11
-0.0532148293329
 21
-0.0220422569465
 31
0.0
 12
0.0532148293652
 22
-0.0220423619333
 32
0.0
 13
0.0532148818587
 23
-0.0220422569465
 33
0.0
  0
SOLID
  5
149
330
4C
100
AcDbEntity
  8
0
  6
BYLAYER
 62
   256
100
AcDbTrace
 10
-0.0532148293329
 20
-0.0220422569465
 30
0.0
 11
-0.0532148293329
 21
0.0220422574501
 31
0.0
 12
0.0532148818587
 22
-0.0220422569465
 32
0.0
 13
0.0532148818587
 23
0.0220422574501
 33
0.0
  0
SOLID
  5
14A
330
4C
100
AcDbEntity
  8
0
  6
BYLAYER
 62
   256
100
AcDbTrace
 10
-0.0532148293329
 20
0.0220422574501
 30
0.0
 11
-0.0532148293329
 21
0.022042362437
 31
0.0
 12
0.0532148818587
 22
0.0220422574501
 32
0.0
 13
0.0532148818587
 23
0.022042362437
 33
0.0
  0
SOLID
  5
14B
330
4C
100
AcDbEntity
  8
0
  6
BYLAYER
 62
   256
100
AcDbTrace
 10
-0.0532148293329
 20
0.022042362437
 30
0.0
 11
-0.0220423359223
 21
0.0532148558476
 31
0.0
 12
0.0532148818587
 22
0.022042362437
 32
0.0
 13
0.0220422834611
 23
0.0532148558476
 33
0.0
  0
ENDBLK
  5
146
330
4C
100
AcDbEntity
  8
0
100
AcDbBlockEnd
  0
BLOCK
  5
14C
330
4D
100
AcDbEntity
  8
0
100
AcDbBlockBegin
  2
RECTANGLE_60
 70
     0
 10
0.0
 20
0.0
 30
0.0
  3
RECTANGLE_60
  1

  0
SOLID
  5
14E
330
4D
100
AcDbEntity
  8
0
  6
BYLAYER
 62
   256
100
AcDbTrace
 10
0.0339200262327
 20
0.0390400002172
 30
0.0
 11
0.0339200262327
 21
-0.0390399997135
 31
0.0
 12
-0.033919973707
 22
0.0390400002172
 32
0.0
 13
-0.033919973707
 23
-0.0390399997135
 33
0.0
  0
ENDBLK
  5
14D
330
4D
100
AcDbEntity
  8
0
100
AcDbBlockEnd
  0
BLOCK
  5
14F
330
4E
100
AcDbEntity
  8
0
100
AcDbBlockBegin
  2
CUSTOM_61
 70
     0
 10
0.0
 20
0.0
 30
0.0
  3
CUSTOM_61
  1

  0
SOLID
  5
151
330
4E
100
AcDbEntity
  8
0
  6
BYLAYER
 62
   256
100
AcDbTrace
 10
-0.00986238842656
 20
-0.0238099209869
 30
0.0
 11
-0.023809789989
 21
-0.00986241443759
 31
0.0
 12
0.00986238845882
 22
-0.0238099209869
 32
0.0
 13
0.0238099475016
 23
-0.00986241443759
 33
0.0
  0
SOLID
  5
152
330
4E
100
AcDbEntity
  8
0
  6
BYLAYER
 62
   256
100
AcDbTrace
 10
-0.023809789989
 20
-0.00986241443759
 30
0.0
 11
-0.0238098949759
 21
-0.00986236194415
 31
0.0
 12
0.0238099475016
 22
-0.00986241443759
 32
0.0
 13
0.0238099475016
 23
-0.00986236194415
 33
0.0
  0
SOLID
  5
153
330
4E
100
AcDbEntity
  8
0
  6
BYLAYER
 62
   256
100
AcDbTrace
 10
-0.0238098949759
 20
-0.00986236194415
 30
0.0
 11
-0.0238098949759
 21
0.00986236244779
 31
0.0
 12
0.0238099475016
 22
-0.00986236194415
 32
0.0
 13
0.0238099475016
 23
0.00986236244779
 33
0.0
  0
SOLID
  5
154
330
4E
100
AcDbEntity
  8
0
  6
BYLAYER
 62
   256
100
AcDbTrace
 10
-0.0238098949759
 20
0.00986236244779
 30
0.0
 11
-0.0238098949759
 21
0.00986241494123
 31
0.0
 12
0.0238099475016
 22
0.00986236244779
 32
0.0
 13
0.0238099475016
 23
0.00986241494123
 33
0.0
  0
SOLID
  5
155
330
4E
100
AcDbEntity
  8
0
  6
BYLAYER
 62
   256
100
AcDbTrace
 10
-0.0238098949759
 20
0.00986241494123
 30
0.0
 11
-0.00986233593312
 21
0.0238099214905
 31
0.0
 12
0.0238099475016
 22
0.00986241494123
 32
0.0
 13
0.00986244095226
 23
0.0238099214905
 33
0.0
  0
ENDBLK
  5
150
330
4E
100
AcDbEntity
  8
0
100
AcDbBlockEnd
  0
ENDSEC
  0
SECTION
  2
ENTITIES
  0
INSERT
  5
156
330
10
100
AcDbEntity
  8
TRACTOR_BPLC
100
AcDbBlockReference
  2
ROUND_27
 10
2.03698002445
 20
0.475939999829
 30
0.0
  0
LWPOLYLINE
  5
157
330
10
100
AcDbEntity
  8
TRACTOR_BPLC
  6
BYLAYER
 62
   256
100
AcDbPolyline
 90
     2
 70
     0
 10
0.460600025854
 20
0.286179999998
 10
3.0628499973
 20
0.28364
  0
LWPOLYLINE
  5
158
330
10
100
AcDbEntity
  8
TRACTOR_BPLC
  6
BYLAYER
 62
   256
100
AcDbPolyline
 90
     4
 70
     0
 10
3.05902002355
 20
0.286179999998
 10
3.0628499973
 20
1.38639999902
 10
0.460600025854
 20
1.38893999902
 10
0.460600025854
 20
0.286179999998
  0
LWPOLYLINE
  5
159
330
10
100
AcDbEntity
  8
TRACTOR_BPLC
  6
BYLAYER
370
   211
 62
   256
100
AcDbPolyline
 90
     9
 70
     0
 43
0.00199999999822
 10
1.23110999892
 20
0.54650997352
 10
1.23478002517
 20
0.54283999977
 10
1.24946002515
 20
0.54283999977
 10
1.2531299989
 20
0.54650997352
 10
1.2531299989
 20
0.553849973513
 10
1.24946002515
 20
0.557519999757
 10
1.23478002517
 20
0.557519999757
 10
1.23110999892
 20
0.553849973513
 10
1.23110999892
 20
0.54650997352
  0
LWPOLYLINE
  5
15A
330
10
100
AcDbEntity
  8
TRACTOR_BPLC
  6
BYLAYER
370
   211
 62
   256
100
AcDbPolyline
 90
     2
 70
     0
 43
0.00199999999822
 10
1.23844999892
 20
0.550179999763
 10
1.23110999892
 20
0.557519999757
  0
LWPOLYLINE
  5
15B
330
10
100
AcDbEntity
  8
TRACTOR_BPLC
  6
BYLAYER
370
   211
 62
   256
100
AcDbPolyline
 90
     2
 70
     0
 43
0.00199999999822
 10
1.23110999892
 20
0.56493999975
 10
1.23110999892
 20
0.579619999737
  0
LWPOLYLINE
  5
15C
330
10
100
AcDbEntity
  8
TRACTOR_BPLC
  6
BYLAYER
370
   211
 62
   256
100
AcDbPolyline
 90
     3
 70
     0
 43
0.00199999999822
 10
1.23110999892
 20
0.572279999744
 10
1.2531299989
 20
0.572279999744
 10
1.24578999891
 20
0.56493999975
  0
LWPOLYLINE
  5
15D
330
10
100
AcDbEntity
  8
TRACTOR_BPLC
  6
BYLAYER
370
   211
 62
   256
100
AcDbPolyline
 90
     7
 70
     0
 43
0.00199999999822
 10
1.34476002507
 20
0.586159999731
 10
1.34476002507
 20
0.597169973475
 10
1.34842999882
 20
0.600839999718
 10
1.36310999881
 20
0.600839999718
 10
1.36678002505
 20
0.597169973475
 10
1.36678002505
 20
0.586159999731
 10
1.34476002507
 20
0.586159999731
  0
LWPOLYLINE
  5
15E
330
10
100
AcDbEntity
  8
TRACTOR_BPLC
  6
BYLAYER
370
   211
 62
   256
100
AcDbPolyline
 90
     2
 70
     0
 43
0.00199999999822
 10
1.34476002507
 20
0.608259999712
 10
1.34476002507
 20
0.622939999699
  0
LWPOLYLINE
  5
15F
330
10
100
AcDbEntity
  8
TRACTOR_BPLC
  6
BYLAYER
370
   211
 62
   256
100
AcDbPolyline
 90
     3
 70
     0
 43
0.00199999999822
 10
1.34476002507
 20
0.615599999705
 10
1.36678002505
 20
0.615599999705
 10
1.35944002506
 20
0.608259999712
  0
LWPOLYLINE
  5
160
330
10
100
AcDbEntity
  8
TRACTOR_BPLC
  6
BYLAYER
370
   211
 62
   256
100
AcDbPolyline
 90
    10
 70
     0
 43
0.00199999999822
 10
1.50858002492
 20
0.522709973541
 10
1.51592002492
 20
0.519039999791
 10
1.52326002491
 20
0.511699999798
 10
1.51224999867
 20
0.511699999798
 10
1.50858002492
 20
0.508029973554
 10
1.50858002492
 20
0.504359999804
 10
1.51224999867
 20
0.500689973561
 10
1.51958999867
 20
0.500689973561
 10
1.52326002491
 20
0.504359999804
 10
1.52326002491
 20
0.511699999798
  0
LWPOLYLINE
  5
161
330
10
100
AcDbEntity
  8
TRACTOR_BPLC
  6
BYLAYER
370
   211
 62
   256
100
AcDbPolyline
 90
     3
 70
     0
 43
0.00199999999822
 10
1.5306800249
 20
0.511699999798
 10
1.53434999865
 20
0.508029973554
 10
1.54536002489
 20
0.508029973554
  0
LWPOLYLINE
  5
162
330
10
100
AcDbEntity
  8
TRACTOR_BPLC
  6
BYLAYER
370
   211
 62
   256
100
AcDbPolyline
 90
     5
 70
     0
 43
0.00199999999822
 10
1.54536002489
 20
0.500689973561
 10
1.54536002489
 20
0.522709973541
 10
1.53434999865
 20
0.522709973541
 10
1.5306800249
 20
0.519039999791
 10
1.5306800249
 20
0.511699999798
  0
LWPOLYLINE
  5
163
330
10
100
AcDbEntity
  8
TRACTOR_BPLC
  6
BYLAYER
370
   211
 62
   256
100
AcDbPolyline
 90
     2
 70
     0
 43
0.00199999999822
 10
1.5380200249
 20
0.508029973554
 10
1.5306800249
 20
0.500689973561
  0
LWPOLYLINE
  5
164
330
10
100
AcDbEntity
  8
TRACTOR_BPLC
  6
BYLAYER
370
   211
 62
   256
100
AcDbPolyline
 90
     5
 70
     0
 43
0.00199999999822
 10
1.53316999865
 20
0.439249973615
 10
1.5295000249
 20
0.435579999865
 10
1.5295000249
 20
0.428239999872
 10
1.53316999865
 20
0.424569973628
 10
1.54418002489
 20
0.424569973628
  0
LWPOLYLINE
  5
165
330
10
100
AcDbEntity
  8
TRACTOR_BPLC
  6
BYLAYER
370
   211
 62
   256
100
AcDbPolyline
 90
     2
 70
     0
 43
0.00199999999822
 10
1.5368400249
 20
0.424569973628
 10
1.5295000249
 20
0.417229973635
  0
LWPOLYLINE
  5
166
330
10
100
AcDbEntity
  8
TRACTOR_BPLC
  6
BYLAYER
370
   211
 62
   256
100
AcDbPolyline
 90
    10
 70
     0
 43
0.00199999999822
 10
1.52208002491
 20
0.420899999878
 10
1.51840999867
 20
0.417229973635
 10
1.51106999867
 20
0.417229973635
 10
1.50740002492
 20
0.420899999878
 10
1.50740002492
 20
0.428239999872
 10
1.51106999867
 20
0.431909973622
 10
1.51474002492
 20
0.431909973622
 10
1.52208002491
 20
0.428239999872
 10
1.52208002491
 20
0.439249973615
 10
1.50740002492
 20
0.439249973615
  0
LWPOLYLINE
  5
167
330
10
100
AcDbEntity
  8
TRACTOR_BPLC
  6
BYLAYER
370
   211
 62
   256
100
AcDbPolyline
 90
     3
 70
     0
 43
0.00199999999822
 10
1.53316999865
 20
0.439249973615
 10
1.54418002489
 20
0.439249973615
 10
1.54418002489
 20
0.417229973635
  0
LWPOLYLINE
  5
168
330
10
100
AcDbEntity
  8
TRACTOR_BPLC
  6
BYLAYER
370
   211
 62
   256
100
AcDbPolyline
 90
     6
 70
     0
 43
0.00199999999822
 10
1.38956999878
 20
0.46780997359
 10
1.38590002503
 20
0.46413999984
 10
1.37122002505
 20
0.46413999984
 10
1.3675499988
 20
0.46780997359
 10
1.3675499988
 20
0.475149973583
 10
1.37122002505
 20
0.478819999827
  0
LWPOLYLINE
  5
169
330
10
100
AcDbEntity
  8
TRACTOR_BPLC
  6
BYLAYER
370
   211
 62
   256
100
AcDbPolyline
 90
     2
 70
     0
 43
0.00199999999822
 10
1.3675499988
 20
0.48623999982
 10
1.3675499988
 20
0.500919999807
  0
LWPOLYLINE
  5
16A
330
10
100
AcDbEntity
  8
TRACTOR_BPLC
  6
BYLAYER
370
   211
 62
   256
100
AcDbPolyline
 90
     3
 70
     0
 43
0.00199999999822
 10
1.3675499988
 20
0.493579999814
 10
1.38956999878
 20
0.493579999814
 10
1.38222999879
 20
0.48623999982
  0
LWPOLYLINE
  5
16B
330
10
100
AcDbEntity
  8
TRACTOR_BPLC
  6
BYLAYER
370
   211
 62
   256
100
AcDbPolyline
 90
     3
 70
     0
 43
0.00199999999822
 10
1.38590002503
 20
0.478819999827
 10
1.38956999878
 20
0.475149973583
 10
1.38956999878
 20
0.46780997359
  0
LWPOLYLINE
  5
16C
330
10
100
AcDbEntity
  8
TRACTOR_BPLC
  6
BYLAYER
370
   211
 62
   256
100
AcDbPolyline
 90
     7
 70
     0
 43
0.00199999999822
 10
1.62388999857
 20
0.548329973518
 10
1.64590999855
 20
0.548329973518
 10
1.64590999855
 20
0.559339999755
 10
1.6422400248
 20
0.563009973505
 10
1.63490002481
 20
0.563009973505
 10
1.63122999857
 20
0.559339999755
 10
1.63122999857
 20
0.548329973518
  0
LWPOLYLINE
  5
16D
330
10
100
AcDbEntity
  8
TRACTOR_BPLC
  6
BYLAYER
370
   211
 62
   256
100
AcDbPolyline
 90
     2
 70
     0
 43
0.00199999999822
 10
1.63122999857
 20
0.555669973512
 10
1.62388999857
 20
0.563009973505
  0
LWPOLYLINE
  5
16E
330
10
100
AcDbEntity
  8
TRACTOR_BPLC
  6
BYLAYER
370
   211
 62
   256
100
AcDbPolyline
 90
     5
 70
     0
 43
0.00199999999822
 10
1.62388999857
 20
0.570429973499
 10
1.62756002482
 20
0.570429973499
 10
1.6422400248
 20
0.585109973486
 10
1.64590999855
 20
0.585109973486
 10
1.64590999855
 20
0.570429973499
  0
LWPOLYLINE
  5
16F
330
10
100
AcDbEntity
  8
TRACTOR_BPLC
  6
BYLAYER
370
   211
 62
   256
100
AcDbPolyline
 90
     2
 70
     0
 43
0.00199999999822
 10
2.00446999824
 20
0.412759999885
 10
2.00446999824
 20
0.390739999905
  0
LWPOLYLINE
  5
170
330
10
100
AcDbEntity
  8
TRACTOR_BPLC
  6
BYLAYER
370
   211
 62
   256
100
AcDbPolyline
 90
     2
 70
     0
 43
0.00199999999822
 10
1.99714002449
 20
0.390739999905
 10
2.01180999823
 20
0.390739999905
  0
LWPOLYLINE
  5
171
330
10
100
AcDbEntity
  8
TRACTOR_BPLC
  6
BYLAYER
370
   211
 62
   256
100
AcDbPolyline
 90
     2
 70
     0
 43
0.00199999999822
 10
2.01922999822
 20
0.390739999905
 10
2.03024002446
 20
0.401749973648
  0
LWPOLYLINE
  5
172
330
10
100
AcDbEntity
  8
TRACTOR_BPLC
  6
BYLAYER
370
   211
 62
   256
100
AcDbPolyline
 90
     2
 70
     0
 43
0.00199999999822
 10
2.03390999821
 20
0.398079999898
 10
2.01922999822
 20
0.412759999885
  0
LWPOLYLINE
  5
173
330
10
100
AcDbEntity
  8
TRACTOR_BPLC
  6
BYLAYER
370
   211
 62
   256
100
AcDbPolyline
 90
     2
 70
     0
 43
0.00199999999822
 10
2.01180999823
 20
0.405419999892
 10
2.00446999824
 20
0.412759999885
  0
LWPOLYLINE
  5
174
330
10
100
AcDbEntity
  8
TRACTOR_BPLC
  6
BYLAYER
370
   211
 62
   256
100
AcDbPolyline
 90
     2
 70
     0
 43
0.00199999999822
 10
2.03390999821
 20
0.412759999885
 10
2.03390999821
 20
0.390739999905
  0
LWPOLYLINE
  5
175
330
10
100
AcDbEntity
  8
TRACTOR_BPLC
  6
BYLAYER
370
   211
 62
   256
100
AcDbPolyline
 90
     9
 70
     0
 43
0.00199999999822
 10
2.0413299982
 20
0.394409973655
 10
2.0413299982
 20
0.409089973642
 10
2.04500002445
 20
0.412759999885
 10
2.05234002444
 20
0.412759999885
 10
2.05600999819
 20
0.409089973642
 10
2.05600999819
 20
0.394409973655
 10
2.05234002444
 20
0.390739999905
 10
2.04500002445
 20
0.390739999905
 10
2.0413299982
 20
0.394409973655
  0
LWPOLYLINE
  5
176
330
10
100
AcDbEntity
  8
TRACTOR_BPLC
  6
BYLAYER
370
   211
 62
   256
100
AcDbPolyline
 90
     2
 70
     0
 43
0.00199999999822
 10
2.43560999785
 20
0.547059999766
 10
2.45028999784
 20
0.547059999766
  0
LWPOLYLINE
  5
177
330
10
100
AcDbEntity
  8
TRACTOR_BPLC
  6
BYLAYER
370
   211
 62
   256
100
AcDbPolyline
 90
     3
 70
     0
 43
0.00199999999822
 10
2.44294999785
 20
0.547059999766
 10
2.44294999785
 20
0.5690699735
 10
2.45028999784
 20
0.561729973506
  0
LWPOLYLINE
  5
178
330
10
100
AcDbEntity
  8
TRACTOR_BPLC
  6
BYLAYER
370
   211
 62
   256
100
AcDbPolyline
 90
     2
 70
     0
 43
0.00199999999822
 10
2.45770999783
 20
0.547059999766
 10
2.47238999782
 20
0.547059999766
  0
LWPOLYLINE
  5
179
330
10
100
AcDbEntity
  8
TRACTOR_BPLC
  6
BYLAYER
370
   211
 62
   256
100
AcDbPolyline
 90
     3
 70
     0
 43
0.00199999999822
 10
2.46504999783
 20
0.547059999766
 10
2.46504999783
 20
0.5690699735
 10
2.47238999782
 20
0.561729973506
  0
LWPOLYLINE
  5
17A
330
10
100
AcDbEntity
  8
TRACTOR_BPLC
  6
BYLAYER
370
   211
 62
   256
100
AcDbPolyline
 90
     3
 70
     0
 43
0.00199999999822
 10
2.47980999781
 20
0.558059999756
 10
2.48348002406
 20
0.554389973513
 10
2.4944899978
 20
0.554389973513
  0
LWPOLYLINE
  5
17B
330
10
100
AcDbEntity
  8
TRACTOR_BPLC
  6
BYLAYER
370
   211
 62
   256
100
AcDbPolyline
 90
     5
 70
     0
 43
0.00199999999822
 10
2.4944899978
 20
0.547059999766
 10
2.4944899978
 20
0.5690699735
 10
2.48348002406
 20
0.5690699735
 10
2.47980999781
 20
0.56539999975
 10
2.47980999781
 20
0.558059999756
  0
LWPOLYLINE
  5
17C
330
10
100
AcDbEntity
  8
TRACTOR_BPLC
  6
BYLAYER
370
   211
 62
   256
100
AcDbPolyline
 90
     2
 70
     0
 43
0.00199999999822
 10
2.48714999781
 20
0.554389973513
 10
2.47980999781
 20
0.547059999766
  0
LWPOLYLINE
  5
17D
330
10
100
AcDbEntity
  8
TRACTOR_BPLC
  6
BYLAYER
370
   211
 62
   256
100
AcDbPolyline
 90
     4
 70
     0
 43
0.00199999999822
 10
2.8337699975
 20
0.842589973257
 10
2.8337699975
 20
0.864609973237
 10
2.84478002374
 20
0.853599999494
 10
2.83010002375
 20
0.853599999494
  0
LWPOLYLINE
  5
17E
330
10
100
AcDbEntity
  8
TRACTOR_BPLC
  6
BYLAYER
370
   211
 62
   256
100
AcDbPolyline
 90
     7
 70
     0
 43
0.00199999999822
 10
2.85220002373
 20
0.8462599995
 10
2.85220002373
 20
0.860939999487
 10
2.85586999748
 20
0.864609973237
 10
2.86688002372
 20
0.864609973237
 10
2.86688002372
 20
0.842589973257
 10
2.85586999748
 20
0.842589973257
 10
2.85220002373
 20
0.8462599995
  0
LWPOLYLINE
  5
17F
330
10
100
AcDbEntity
  8
TRACTOR_BPLC
  6
BYLAYER
370
   211
 62
   256
100
AcDbPolyline
 90
     6
 70
     0
 43
0.00199999999822
 10
2.22732002429
 20
0.874929973228
 10
2.22364999804
 20
0.871259999478
 10
2.20896999805
 20
0.871259999478
 10
2.2053000243
 20
0.874929973228
 10
2.2053000243
 20
0.882269973222
 10
2.20896999805
 20
0.885929973219
  0
LWPOLYLINE
  5
180
330
10
100
AcDbEntity
  8
TRACTOR_BPLC
  6
BYLAYER
370
   211
 62
   256
100
AcDbPolyline
 90
     7
 70
     0
 43
0.00199999999822
 10
2.20896999805
 20
0.893349973212
 10
2.2053000243
 20
0.897019999455
 10
2.2053000243
 20
0.904359999449
 10
2.20896999805
 20
0.908029973199
 10
2.2126400243
 20
0.908029973199
 10
2.21630999805
 20
0.904359999449
 10
2.21630999805
 20
0.900689973205
  0
LWPOLYLINE
  5
181
330
10
100
AcDbEntity
  8
TRACTOR_BPLC
  6
BYLAYER
370
   211
 62
   256
100
AcDbPolyline
 90
     6
 70
     0
 43
0.00199999999822
 10
2.21630999805
 20
0.904359999449
 10
2.21998002429
 20
0.908029973199
 10
2.22364999804
 20
0.908029973199
 10
2.22732002429
 20
0.904359999449
 10
2.22732002429
 20
0.897019999455
 10
2.22364999804
 20
0.893349973212
  0
LWPOLYLINE
  5
182
330
10
100
AcDbEntity
  8
TRACTOR_BPLC
  6
BYLAYER
370
   211
 62
   256
100
AcDbPolyline
 90
     3
 70
     0
 43
0.00199999999822
 10
2.22364999804
 20
0.885929973219
 10
2.22732002429
 20
0.882269973222
 10
2.22732002429
 20
0.874929973228
  0
LWPOLYLINE
  5
183
330
10
100
AcDbEntity
  8
TRACTOR_BPLC
  6
BYLAYER
370
   211
 62
   256
100
AcDbPolyline
 90
     7
 70
     0
 43
0.00199999999822
 10
1.96190002452
 20
0.995799999368
 10
1.96190002452
 20
1.00680997311
 10
1.95824002452
 20
1.01047999935
 10
1.94356002454
 20
1.01047999935
 10
1.93988999829
 20
1.00680997311
 10
1.93988999829
 20
0.995799999368
 10
1.96190002452
 20
0.995799999368
  0
LWPOLYLINE
  5
184
330
10
100
AcDbEntity
  8
TRACTOR_BPLC
  6
BYLAYER
370
   211
 62
   256
100
AcDbPolyline
 90
     7
 70
     0
 43
0.00199999999822
 10
1.95824002452
 20
1.01789999935
 10
1.96190002452
 20
1.0215699731
 10
1.96190002452
 20
1.02890997309
 10
1.95824002452
 20
1.03257999934
 10
1.95456999828
 20
1.03257999934
 10
1.93988999829
 20
1.01789999935
 10
1.93988999829
 20
1.03257999934
  0
LWPOLYLINE
  5
185
330
10
100
AcDbEntity
  8
TRACTOR_BPLC
  6
BYLAYER
370
   211
 62
   256
100
AcDbPolyline
 90
     7
 70
     0
 43
0.00199999999822
 10
1.89602002458
 20
1.11867999926
 10
1.89602002458
 20
1.14069999924
 10
1.88500999834
 20
1.14069999924
 10
1.88134002459
 20
1.137029973
 10
1.88134002459
 20
1.129689973
 10
1.88500999834
 20
1.12601999925
 10
1.89602002458
 20
1.12601999925
  0
LWPOLYLINE
  5
186
330
10
100
AcDbEntity
  8
TRACTOR_BPLC
  6
BYLAYER
370
   211
 62
   256
100
AcDbPolyline
 90
     2
 70
     0
 43
0.00199999999822
 10
1.88868002459
 20
1.12601999925
 10
1.88134002459
 20
1.11867999926
  0
LWPOLYLINE
  5
187
330
10
100
AcDbEntity
  8
TRACTOR_BPLC
  6
BYLAYER
370
   211
 62
   256
100
AcDbPolyline
 90
     2
 70
     0
 43
0.00199999999822
 10
1.8739200246
 20
1.11867999926
 10
1.85924002461
 20
1.11867999926
  0
LWPOLYLINE
  5
188
330
10
100
AcDbEntity
  8
TRACTOR_BPLC
  6
BYLAYER
370
   211
 62
   256
100
AcDbPolyline
 90
     3
 70
     0
 43
0.00199999999822
 10
1.86658002461
 20
1.11867999926
 10
1.86658002461
 20
1.14069999924
 10
1.8739200246
 20
1.13335999925
  0
LWPOLYLINE
  5
189
330
10
100
AcDbEntity
  8
TRACTOR_BPLC
  6
BYLAYER
370
   211
 62
   256
100
AcDbPolyline
 90
    11
 70
     0
 43
0.00199999999822
 10
1.85182002462
 20
1.137029973
 10
1.84814999838
 20
1.14069999924
 10
1.84080999838
 20
1.14069999924
 10
1.83714002463
 20
1.137029973
 10
1.83714002463
 20
1.13335999925
 10
1.84080999838
 20
1.129689973
 10
1.83714002463
 20
1.12601999925
 10
1.83714002463
 20
1.12234997301
 10
1.84080999838
 20
1.11867999926
 10
1.84814999838
 20
1.11867999926
 10
1.85182002462
 20
1.12234997301
  0
LWPOLYLINE
  5
18A
330
10
100
AcDbEntity
  8
TRACTOR_BPLC
  6
BYLAYER
370
   211
 62
   256
100
AcDbPolyline
 90
     2
 70
     0
 43
0.00199999999822
 10
1.84448002463
 20
1.129689973
 10
1.84080999838
 20
1.129689973
  0
LWPOLYLINE
  5
18B
330
10
100
AcDbEntity
  8
TRACTOR_BPLC
  6
BYLAYER
370
   211
 62
   256
100
AcDbPolyline
 90
     6
 70
     0
 43
0.00199999999822
 10
1.79632002467
 20
1.13931999924
 10
1.79264999842
 20
1.135649973
 10
1.77796999844
 20
1.135649973
 10
1.77430002469
 20
1.13931999924
 10
1.77430002469
 20
1.14665999923
 10
1.77796999844
 20
1.15032997298
  0
LWPOLYLINE
  5
18C
330
10
100
AcDbEntity
  8
TRACTOR_BPLC
  6
BYLAYER
370
   211
 62
   256
100
AcDbPolyline
 90
     2
 70
     0
 43
0.00199999999822
 10
1.78530999843
 20
1.15774997298
 10
1.78530999843
 20
1.17242997296
  0
LWPOLYLINE
  5
18D
330
10
100
AcDbEntity
  8
TRACTOR_BPLC
  6
BYLAYER
370
   211
 62
   256
100
AcDbPolyline
 90
     3
 70
     0
 43
0.00199999999822
 10
1.77430002469
 20
1.16875999921
 10
1.79632002467
 20
1.16875999921
 10
1.78530999843
 20
1.15774997298
  0
LWPOLYLINE
  5
18E
330
10
100
AcDbEntity
  8
TRACTOR_BPLC
  6
BYLAYER
370
   211
 62
   256
100
AcDbPolyline
 90
     3
 70
     0
 43
0.00199999999822
 10
1.79264999842
 20
1.15032997298
 10
1.79632002467
 20
1.14665999923
 10
1.79632002467
 20
1.13931999924
  0
LWPOLYLINE
  5
18F
330
10
100
AcDbEntity
  8
TRACTOR_BPLC
  6
BYLAYER
370
   211
 62
   256
100
AcDbPolyline
 90
     6
 70
     0
 43
0.00199999999822
 10
1.71758002474
 20
1.13923999924
 10
1.71390999849
 20
1.135569973
 10
1.69922999851
 20
1.135569973
 10
1.69556002476
 20
1.13923999924
 10
1.69556002476
 20
1.14657999923
 10
1.69922999851
 20
1.15024997298
  0
LWPOLYLINE
  5
190
330
10
100
AcDbEntity
  8
TRACTOR_BPLC
  6
BYLAYER
370
   211
 62
   256
100
AcDbPolyline
 90
    10
 70
     0
 43
0.00199999999822
 10
1.69922999851
 20
1.15766997298
 10
1.69556002476
 20
1.16133999922
 10
1.69556002476
 20
1.16867999921
 10
1.69922999851
 20
1.17234997296
 10
1.7065699985
 20
1.17234997296
 10
1.71024002474
 20
1.16867999921
 10
1.71024002474
 20
1.16500997297
 10
1.7065699985
 20
1.15766997298
 10
1.71758002474
 20
1.15766997298
 10
1.71758002474
 20
1.17234997296
  0
LWPOLYLINE
  5
191
330
10
100
AcDbEntity
  8
TRACTOR_BPLC
  6
BYLAYER
370
   211
 62
   256
100
AcDbPolyline
 90
     3
 70
     0
 43
0.00199999999822
 10
1.71390999849
 20
1.15024997298
 10
1.71758002474
 20
1.14657999923
 10
1.71758002474
 20
1.13923999924
  0
LWPOLYLINE
  5
192
330
10
100
AcDbEntity
  8
TRACTOR_BPLC
  6
BYLAYER
370
   211
 62
   256
100
AcDbPolyline
 90
     6
 70
     0
 43
0.00199999999822
 10
1.64062002481
 20
1.13934997299
 10
1.63694999856
 20
1.13567999924
 10
1.62226999858
 20
1.13567999924
 10
1.61860002483
 20
1.13934997299
 10
1.61860002483
 20
1.14668997299
 10
1.62226999858
 20
1.15035999923
  0
LWPOLYLINE
  5
193
330
10
100
AcDbEntity
  8
TRACTOR_BPLC
  6
BYLAYER
370
   211
 62
   256
100
AcDbPolyline
 90
     8
 70
     0
 43
0.00199999999822
 10
1.62226999858
 20
1.15777999922
 10
1.61860002483
 20
1.16144997297
 10
1.61860002483
 20
1.16878997297
 10
1.62226999858
 20
1.17245999921
 10
1.62594002482
 20
1.17245999921
 10
1.62960999857
 20
1.16878997297
 10
1.62960999857
 20
1.15777999922
 10
1.62226999858
 20
1.15777999922
  0
LWPOLYLINE
  5
194
330
10
100
AcDbEntity
  8
TRACTOR_BPLC
  6
BYLAYER
370
   211
 62
   256
100
AcDbPolyline
 90
     3
 70
     0
 43
0.00199999999822
 10
1.62960999857
 20
1.15777999922
 10
1.63694999856
 20
1.16511999922
 10
1.64062002481
 20
1.17245999921
  0
LWPOLYLINE
  5
195
330
10
100
AcDbEntity
  8
TRACTOR_BPLC
  6
BYLAYER
370
   211
 62
   256
100
AcDbPolyline
 90
     3
 70
     0
 43
0.00199999999822
 10
1.63694999856
 20
1.15035999923
 10
1.64062002481
 20
1.14668997299
 10
1.64062002481
 20
1.13934997299
  0
LWPOLYLINE
  5
196
330
10
100
AcDbEntity
  8
TRACTOR_BPLC
  6
BYLAYER
370
   211
 62
   256
100
AcDbPolyline
 90
     7
 70
     0
 43
0.00199999999822
 10
1.7074699985
 20
0.994579999369
 10
1.7074699985
 20
0.979899999382
 10
1.72214999849
 20
0.994579999369
 10
1.72582002473
 20
0.994579999369
 10
1.72948999848
 20
0.990909973125
 10
1.72948999848
 20
0.983569973132
 10
1.72582002473
 20
0.979899999382
  0
LWPOLYLINE
  5
197
330
10
100
AcDbEntity
  8
TRACTOR_BPLC
  6
BYLAYER
370
   211
 62
   256
100
AcDbPolyline
 90
     8
 70
     0
 43
0.00199999999822
 10
1.72582002473
 20
0.972479999388
 10
1.72948999848
 20
0.968809973145
 10
1.72948999848
 20
0.961479999398
 10
1.72582002473
 20
0.957809973155
 10
1.71114002474
 20
0.957809973155
 10
1.7074699985
 20
0.961479999398
 10
1.7074699985
 20
0.968809973145
 10
1.71114002474
 20
0.972479999388
  0
LWPOLYLINE
  5
198
330
10
100
AcDbEntity
  8
TRACTOR_BPLC
  6
BYLAYER
370
   211
 62
   256
100
AcDbPolyline
 90
     2
 70
     0
 43
0.00199999999822
 10
1.7074699985
 20
0.950409973161
 10
1.7074699985
 20
0.943069973168
  0
LWPOLYLINE
  5
199
330
10
100
AcDbEntity
  8
TRACTOR_BPLC
  6
BYLAYER
370
   211
 62
   256
100
AcDbPolyline
 90
     2
 70
     0
 43
0.00199999999822
 10
1.7074699985
 20
0.946739999411
 10
1.72948999848
 20
0.946739999411
  0
LWPOLYLINE
  5
19A
330
10
100
AcDbEntity
  8
TRACTOR_BPLC
  6
BYLAYER
370
   211
 62
   256
100
AcDbPolyline
 90
     2
 70
     0
 43
0.00199999999822
 10
1.72948999848
 20
0.943069973168
 10
1.72948999848
 20
0.950409973161
  0
LWPOLYLINE
  5
19B
330
10
100
AcDbEntity
  8
TRACTOR_BPLC
  6
BYLAYER
370
   211
 62
   256
100
AcDbPolyline
 90
     7
 70
     0
 43
0.00199999999822
 10
1.99462002449
 20
1.11946997301
 10
2.00930002448
 20
1.11946997301
 10
1.99462002449
 20
1.13413999924
 10
1.99462002449
 20
1.13780997299
 10
1.99828999824
 20
1.14147999924
 10
2.00562999824
 20
1.14147999924
 10
2.00930002448
 20
1.13780997299
  0
LWPOLYLINE
  5
19C
330
10
100
AcDbEntity
  8
TRACTOR_BPLC
  6
BYLAYER
370
   211
 62
   256
100
AcDbPolyline
 90
     2
 70
     0
 43
0.00199999999822
 10
2.02406002447
 20
1.14147999924
 10
2.03140002446
 20
1.13413999924
  0
LWPOLYLINE
  5
19D
330
10
100
AcDbEntity
  8
TRACTOR_BPLC
  6
BYLAYER
370
   211
 62
   256
100
AcDbPolyline
 90
     3
 70
     0
 43
0.00199999999822
 10
2.03882002445
 20
1.130469973
 10
2.0424899982
 20
1.12679999925
 10
2.05350002444
 20
1.12679999925
  0
LWPOLYLINE
  5
19E
330
10
100
AcDbEntity
  8
TRACTOR_BPLC
  6
BYLAYER
370
   211
 62
   256
100
AcDbPolyline
 90
     5
 70
     0
 43
0.00199999999822
 10
2.05350002444
 20
1.11946997301
 10
2.05350002444
 20
1.14147999924
 10
2.0424899982
 20
1.14147999924
 10
2.03882002445
 20
1.13780997299
 10
2.03882002445
 20
1.130469973
  0
LWPOLYLINE
  5
19F
330
10
100
AcDbEntity
  8
TRACTOR_BPLC
  6
BYLAYER
370
   211
 62
   256
100
AcDbPolyline
 90
     2
 70
     0
 43
0.00199999999822
 10
2.04616002445
 20
1.12679999925
 10
2.03882002445
 20
1.11946997301
  0
LWPOLYLINE
  5
1A0
330
10
100
AcDbEntity
  8
TRACTOR_BPLC
  6
BYLAYER
370
   211
 62
   256
100
AcDbPolyline
 90
     2
 70
     0
 43
0.00199999999822
 10
2.03140002446
 20
1.11946997301
 10
2.01672002447
 20
1.11946997301
  0
LWPOLYLINE
  5
1A1
330
10
100
AcDbEntity
  8
TRACTOR_BPLC
  6
BYLAYER
370
   211
 62
   256
100
AcDbPolyline
 90
     2
 70
     0
 43
0.00199999999822
 10
2.02406002447
 20
1.11946997301
 10
2.02406002447
 20
1.14147999924
  0
LWPOLYLINE
  5
1A2
330
10
100
AcDbEntity
  8
TRACTOR_BPLC
  6
BYLAYER
370
   211
 62
   256
100
AcDbPolyline
 90
     5
 70
     0
 43
0.00499999999556
 10
2.02538999822
 20
0.957749973155
 10
2.02538999822
 20
0.926499999429
 10
2.04414002445
 20
0.926499999429
 10
2.02538999822
 20
0.901499999451
 10
2.02538999822
 20
0.870239999479
  0
LWPOLYLINE
  5
1A3
330
10
100
AcDbEntity
  8
TRACTOR_BPLC
  6
BYLAYER
370
   211
 62
   256
100
AcDbPolyline
 90
     2
 70
     0
 43
0.00499999999556
 10
2.02538999822
 20
0.901499999451
 10
2.04414002445
 20
0.901499999451
  0
LWPOLYLINE
  5
1A4
330
10
100
AcDbEntity
  8
TRACTOR_BPLC
  6
BYLAYER
370
   211
 62
   256
100
AcDbPolyline
 90
     2
 70
     0
 43
0.00499999999556
 10
2.02538999822
 20
0.901499999451
 10
2.00662999823
 20
0.901499999451
  0
LWPOLYLINE
  5
1A5
330
10
100
AcDbEntity
  8
TRACTOR_BPLC
  6
BYLAYER
370
   211
 62
   256
100
AcDbPolyline
 90
     3
 70
     0
 43
0.00499999999556
 10
2.02538999822
 20
0.901499999451
 10
2.00662999823
 20
0.926499999429
 10
2.02538999822
 20
0.926499999429
  0
LWPOLYLINE
  5
1A6
330
10
100
AcDbEntity
  8
TRACTOR_BPLC
  6
BYLAYER
370
   211
 62
   256
100
AcDbPolyline
 90
     3
 70
     0
 43
0.00499999999556
 10
2.69912999762
 20
0.779089973313
 10
2.73038002384
 20
0.779089973313
 10
2.73038002384
 20
0.760339999577
  0
LWPOLYLINE
  5
1A7
330
10
100
AcDbEntity
  8
TRACTOR_BPLC
  6
BYLAYER
370
   211
 62
   256
100
AcDbPolyline
 90
     4
 70
     0
 43
0.00499999999556
 10
2.73038002384
 20
0.779089973313
 10
2.75538002382
 20
0.760339999577
 10
2.75538002382
 20
0.779089973313
 10
2.78662999754
 20
0.779089973313
  0
LWPOLYLINE
  5
1A8
330
10
100
AcDbEntity
  8
TRACTOR_BPLC
  6
BYLAYER
370
   211
 62
   256
100
AcDbPolyline
 90
     4
 70
     0
 43
0.00499999999556
 10
2.75538002382
 20
0.779089973313
 10
2.75538002382
 20
0.797849973297
 10
2.73038002384
 20
0.779089973313
 10
2.73038002384
 20
0.797849973297
  0
LWPOLYLINE
  5
1A9
330
10
100
AcDbEntity
  8
TRACTOR_BPLC
  6
BYLAYER
370
   211
 62
   256
100
AcDbPolyline
 90
     3
 70
     0
 43
0.00499999999556
 10
1.30000999886
 20
0.72265999961
 10
1.28126002513
 20
0.72265999961
 10
1.28126002513
 20
0.753909973336
  0
LWPOLYLINE
  5
1AA
330
10
100
AcDbEntity
  8
TRACTOR_BPLC
  6
BYLAYER
370
   211
 62
   256
100
AcDbPolyline
 90
     2
 70
     0
 43
0.00499999999556
 10
1.28126002513
 20
0.72265999961
 10
1.2625099989
 20
0.72265999961
  0
LWPOLYLINE
  5
1AB
330
10
100
AcDbEntity
  8
TRACTOR_BPLC
  6
BYLAYER
370
   211
 62
   256
100
AcDbPolyline
 90
     4
 70
     0
 43
0.00499999999556
 10
1.28126002513
 20
0.72265999961
 10
1.2625099989
 20
0.697659999632
 10
1.28126002513
 20
0.697659999632
 10
1.28126002513
 20
0.666409973413
  0
LWPOLYLINE
  5
1AC
330
10
100
AcDbEntity
  8
TRACTOR_BPLC
  6
BYLAYER
370
   211
 62
   256
100
AcDbPolyline
 90
     3
 70
     0
 43
0.00499999999556
 10
1.28126002513
 20
0.697659999632
 10
1.30000999886
 20
0.697659999632
 10
1.28126002513
 20
0.72265999961
  0
LWPOLYLINE
  5
1AD
330
10
100
AcDbEntity
  8
TRACTOR_BPLC
  6
BYLAYER
370
   211
 62
   256
100
AcDbPolyline
 90
     5
 70
     0
 43
0.0079999999929
 10
1.66246999854
 20
0.771999999566
 10
1.66246999854
 20
1.02999999934
 10
1.80246999842
 20
1.02999999934
 10
1.80246999842
 20
0.771999999566
 10
1.66246999854
 20
0.771999999566
  0
LWPOLYLINE
  5
1AE
330
10
100
AcDbEntity
  8
TRACTOR_BPLC
  6
BYLAYER
370
   211
 62
   256
100
AcDbPolyline
 90
     3
 70
     0
 43
0.00399999999645
 10
1.63050002482
 20
0.812549973284
 10
1.61648002483
 20
0.798539999543
 10
1.61648002483
 20
0.817219999526
  0
LWPOLYLINE
  5
1AF
330
10
100
AcDbEntity
  8
TRACTOR_BPLC
  6
BYLAYER
370
   211
 62
   256
100
AcDbPolyline
 90
     2
 70
     0
 43
0.00399999999645
 10
1.60246999859
 20
0.812549973284
 10
1.63050002482
 20
0.812549973284
  0
LWPOLYLINE
  5
1B0
330
10
100
AcDbEntity
  8
TRACTOR_BPLC
  6
BYLAYER
370
   211
 62
   256
100
AcDbPolyline
 90
     2
 70
     0
 43
0.00399999999645
 10
1.87246999835
 20
0.838019999508
 10
1.8771400246
 20
0.833349973265
  0
LWPOLYLINE
  5
1B1
330
10
100
AcDbEntity
  8
TRACTOR_BPLC
  6
BYLAYER
370
   211
 62
   256
100
AcDbPolyline
 90
     6
 70
     0
 43
0.00399999999645
 10
1.87246999835
 20
0.838019999508
 10
1.87246999835
 20
0.8473599995
 10
1.8771400246
 20
0.852029973249
 10
1.88180999835
 20
0.852029973249
 10
1.88648002459
 20
0.8473599995
 10
1.88648002459
 20
0.842689973257
  0
LWPOLYLINE
  5
1B2
330
10
100
AcDbEntity
  8
TRACTOR_BPLC
  6
BYLAYER
370
   211
 62
   256
100
AcDbPolyline
 90
     6
 70
     0
 43
0.00399999999645
 10
1.88648002459
 20
0.8473599995
 10
1.89116002458
 20
0.852029973249
 10
1.89582999833
 20
0.852029973249
 10
1.90050002458
 20
0.8473599995
 10
1.90050002458
 20
0.838019999508
 10
1.89582999833
 20
0.833349973265
  0
LWPOLYLINE
  5
1B3
330
10
100
AcDbEntity
  8
TRACTOR_BPLC
  6
BYLAYER
370
   211
 62
   256
100
AcDbPolyline
 90
     7
 70
     0
 43
0.00399999999645
 10
1.89620002458
 20
0.924349973184
 10
1.90086999833
 20
0.929019999427
 10
1.90086999833
 20
0.938359999419
 10
1.89620002458
 20
0.943029973168
 10
1.89152999834
 20
0.943029973168
 10
1.8728400246
 20
0.924349973184
 10
1.8728400246
 20
0.943029973168
  0
LWPOLYLINE
  5
1B4
330
10
100
AcDbEntity
  8
TRACTOR_BPLC
  6
BYLAYER
370
   211
 62
   256
100
AcDbPolyline
 90
     2
 70
     0
 43
0.00399999999645
 10
1.87246999835
 20
1.00946997311
 10
1.87246999835
 20
1.02814997309
  0
LWPOLYLINE
  5
1B5
330
10
100
AcDbEntity
  8
TRACTOR_BPLC
  6
BYLAYER
370
   211
 62
   256
100
AcDbPolyline
 90
     3
 70
     0
 43
0.00399999999645
 10
1.87246999835
 20
1.0188099731
 10
1.90050002458
 20
1.0188099731
 10
1.89116002458
 20
1.00946997311
  0
LWPOLYLINE
  5
1B6
330
10
100
AcDbEntity
  8
TRACTOR_BPLC
  6
BYLAYER
370
   211
 62
   256
100
AcDbPolyline
 90
     3
 70
     0
 43
0.00399999999645
 10
1.34270002507
 20
0.58012997349
 10
1.29150999887
 20
0.58012997349
 10
1.29150999887
 20
0.54666997352
  0
LWPOLYLINE
  5
1B7
330
10
100
AcDbEntity
  8
TRACTOR_BPLC
  6
BYLAYER
370
   211
 62
   256
100
AcDbPolyline
 90
     2
 70
     0
 43
0.00399999999645
 10
1.34270002507
 20
0.536829973528
 10
1.34270002507
 20
0.509269973553
  0
LWPOLYLINE
  5
1B8
330
10
100
AcDbEntity
  8
TRACTOR_BPLC
  6
BYLAYER
370
   211
 62
   256
100
AcDbPolyline
 90
     3
 70
     0
 43
0.00399999999645
 10
1.29150999887
 20
0.499419999808
 10
1.29150999887
 20
0.465959999838
 10
1.34270002507
 20
0.465959999838
  0
LWPOLYLINE
  5
1B9
330
10
100
AcDbEntity
  8
TRACTOR_BPLC
  6
BYLAYER
370
   211
 62
   256
100
AcDbPolyline
 90
     5
 70
     0
 43
0.00599999999467
 10
1.9905200245
 20
0.44109999986
 10
2.24090999803
 20
0.44109999986
 10
2.24090999803
 20
0.785389973308
 10
2.01082999823
 20
0.785389973308
 10
2.01082999823
 20
0.445039999857
  0
LWPOLYLINE
  5
1BA
330
10
100
AcDbEntity
  8
TRACTOR_BPLC
  6
BYLAYER
370
   211
 62
   256
100
AcDbPolyline
 90
     3
 70
     0
 43
0.00599999999467
 10
1.9905200245
 20
0.44109999986
 10
1.9905200245
 20
0.785389973308
 10
2.01082999823
 20
0.785389973308
  0
ENDSEC
  0
SECTION
  2
OBJECTS
  0
DICTIONARY
  5
4F
102
{ACAD_REACTORS
330
0
102
}
330
0
100
AcDbDictionary
280
     1
281
     0
  3
ACAD_GROUP
350
50
  3
ACAD_LAYOUT
350
51
  3
ACAD_MLINESTYLE
350
54
  0
DICTIONARY
  5
50
102
{ACAD_REACTORS
330
4F
102
}
330
4F
100
AcDbDictionary
280
     1
281
     0
  0
DICTIONARY
  5
51
102
{ACAD_REACTORS
330
4F
102
}
330
4F
100
AcDbDictionary
280
     1
281
     0
  3
Model
350
52
  3
Layout1
350
53
  0
LAYOUT
  5
52
102
{ACAD_REACTORS
330
51
102
}
330
51
100
AcDbPlotSettings
  1

  2
none_device
  4
ISO_A4_(210.00_x_297.00_MM)
 40
0.0
 41
0.0
 42
0.0
 43
0.0
 44
210.0
 45
297.0
 46
0.0
 47
0.0
 48
0.0
 49
0.0
140
0.0
141
0.0
141
1.0
143
1.0
 72
     1
 73
     0
 74
     5
  7

 75
    16
147
1.0
 76
     0
 77
     2
148
0.0
149
0.0
100
AcDbLayout
  1
Model
 70
     1
 71
     0
 10
0.01817
 20
0.28364
 11
29.5813349606
 21
12.3561349606
 12
0.0
 22
0.0
 32
0.0
 14
0.01817
 24
0.28364
 34
0.0
 15
29.5813349606
 25
12.3561349606
 35
0.0
146
0.0
 13
0.0
 23
0.0
 33
0.0
 16
1.0
 26
0.0
 36
0.0
 17
0.0
 27
1.0
 37
0.0
 76
     0
330
10
  0
LAYOUT
  5
53
102
{ACAD_REACTORS
330
51
102
}
330
51
100
AcDbPlotSettings
  1

  2
none_device
  4

 40
0.0
 41
0.0
 42
0.0
 43
0.0
 44
0.0
 45
0.0
 46
0.0
 47
0.0
 48
0.0
 49
0.0
140
0.0
141
0.0
141
1.0
143
1.0
 72
     1
 73
     0
 74
     5
  7

 75
    16
147
1.0
 76
     0
 77
     2
148
0.0
149
0.0
100
AcDbLayout
  1
Layout1
 70
     1
 71
     1
 10
100000000000000000000.0
 20
100000000000000000000.0
 11
-100000000000000000000.0
 21
-100000000000000000000.0
 12
0.0
 22
0.0
 32
0.0
 14
100000000000000000000.0
 24
100000000000000000000.0
 34
0.0
 15
-100000000000000000000.0
 25
-100000000000000000000.0
 35
0.0
146
0.0
 13
0.0
 23
0.0
 33
0.0
 16
1.0
 26
0.0
 36
0.0
 17
0.0
 27
1.0
 37
0.0
 76
     0
330
11
  0
DICTIONARY
  5
54
102
{ACAD_REACTORS
330
4F
102
}
330
4F
100
AcDbDictionary
280
     1
281
     0
  0
ENDSEC
  0
EOF
