  0
SECTION
  2
HEADER
  9
$ACADVER
  1
AC1018
  9
$INSBASE
 10
0.0
 20
0.0
 30
0.0
  9
$EXTMIN
 10
0.01817
 20
0.28364
 30
0.0
  9
$EXTMAX
 10
29.5813349606
 20
12.3561349606
 30
0.0
  9
$LIMMIN
 10
0.01817
 20
0.28364
  9
$LIMMAX
 10
29.5813349606
 20
12.3561349606
  9
$INSUNITS
 70
     4
  9
$HANDSEED
  5
   724
  0
ENDSEC
  0
SECTION
  2
CLASSES
  0
ENDSEC
  0
SECTION
  2
TABLES
  0
TABLE
  2
VPORT
  5
1
330
0
100
AcDbSymbolTable
 70
     0
  0
ENDTAB
  0
TABLE
  2
LTYPE
  5
2
330
0
100
AcDbSymbolTable
 70
     3
  0
LTYPE
  5
3
330
2
100
AcDbSymbolTableRecord
100
AcDbLinetypeTableRecord
  2
BYLAYER
 70
     0
  3
Continuous
 72
    65
 73
     0
 40
0.0
  0
LTYPE
  5
4
330
2
100
AcDbSymbolTableRecord
100
AcDbLinetypeTableRecord
  2
BYBLOCK
 70
     0
  3
Continuous
 72
    65
 73
     0
 40
0.0
  0
LTYPE
  5
5
330
2
100
AcDbSymbolTableRecord
100
AcDbLinetypeTableRecord
  2
CONTINUOUS
 70
     0
  3
Continuous
 72
    65
 73
     0
 40
0.0
  0
ENDTAB
  0
TABLE
  2
LAYER
  5
6
330
0
100
AcDbSymbolTable
 70
     2
  0
LAYER
  5
7
330
6
100
AcDbSymbolTableRecord
100
AcDbLayerTableRecord
  2
0
 70
     0
 62
     7
  6
CONTINUOUS
370
     0
390
     0
  0
LAYER
  5
8
330
6
100
AcDbSymbolTableRecord
100
AcDbLayerTableRecord
  2
TRACTOR_CMP
 70
     0
 62
   254
  6
CONTINUOUS
370
     0
390
     0
  0
ENDTAB
  0
TABLE
  2
STYLE
  5
9
330
0
100
AcDbSymbolTable
 70
     0
  0
ENDTAB
  0
TABLE
  2
VIEW
  5
A
330
0
100
AcDbSymbolTable
 70
     0
  0
ENDTAB
  0
TABLE
  2
UCS
  5
B
330
0
100
AcDbSymbolTable
 70
     0
  0
ENDTAB
  0
TABLE
  2
APPID
  5
C
330
0
100
AcDbSymbolTable
 70
     1
  0
APPID
  5
D
330
C
100
AcDbSymbolTableRecord
100
AcDbRegAppTableRecord
  2
ACAD
 70
     0
  0
ENDTAB
  0
TABLE
  2
DIMSTYLE
  5
E
330
0
100
AcDbSymbolTable
 70
     0
100
AcDbDimStyleTable
 71
     0
  0
ENDTAB
  0
TABLE
  2
BLOCK_RECORD
  5
F
330
0
100
AcDbSymbolTable
 70
    63
  0
BLOCK_RECORD
  5
10
330
F
100
AcDbSymbolTableRecord
100
AcDbBlockTableRecord
  2
*Model_Space
340
52
  0
BLOCK_RECORD
  5
11
330
F
100
AcDbSymbolTableRecord
100
AcDbBlockTableRecord
  2
*Paper_Space
340
53
  0
BLOCK_RECORD
  5
12
330
F
100
AcDbSymbolTableRecord
100
AcDbBlockTableRecord
  2
ROUND_1
340
0
  0
BLOCK_RECORD
  5
13
330
F
100
AcDbSymbolTableRecord
100
AcDbBlockTableRecord
  2
RECTANGLE_2
340
0
  0
BLOCK_RECORD
  5
14
330
F
100
AcDbSymbolTableRecord
100
AcDbBlockTableRecord
  2
ROUND_3
340
0
  0
BLOCK_RECORD
  5
15
330
F
100
AcDbSymbolTableRecord
100
AcDbBlockTableRecord
  2
RECTANGLE_4
340
0
  0
BLOCK_RECORD
  5
16
330
F
100
AcDbSymbolTableRecord
100
AcDbBlockTableRecord
  2
RECTANGLE_5
340
0
  0
BLOCK_RECORD
  5
17
330
F
100
AcDbSymbolTableRecord
100
AcDbBlockTableRecord
  2
RECTANGLE_6
340
0
  0
BLOCK_RECORD
  5
18
330
F
100
AcDbSymbolTableRecord
100
AcDbBlockTableRecord
  2
RECTANGLE_7
340
0
  0
BLOCK_RECORD
  5
19
330
F
100
AcDbSymbolTableRecord
100
AcDbBlockTableRecord
  2
RECTANGLE_8
340
0
  0
BLOCK_RECORD
  5
1A
330
F
100
AcDbSymbolTableRecord
100
AcDbBlockTableRecord
  2
SQUARE_9
340
0
  0
BLOCK_RECORD
  5
1B
330
F
100
AcDbSymbolTableRecord
100
AcDbBlockTableRecord
  2
CUSTOM_10
340
0
  0
BLOCK_RECORD
  5
1C
330
F
100
AcDbSymbolTableRecord
100
AcDbBlockTableRecord
  2
ROUND_11
340
0
  0
BLOCK_RECORD
  5
1D
330
F
100
AcDbSymbolTableRecord
100
AcDbBlockTableRecord
  2
ROUND_12
340
0
  0
BLOCK_RECORD
  5
1E
330
F
100
AcDbSymbolTableRecord
100
AcDbBlockTableRecord
  2
CUSTOM_13
340
0
  0
BLOCK_RECORD
  5
1F
330
F
100
AcDbSymbolTableRecord
100
AcDbBlockTableRecord
  2
CUSTOM_14
340
0
  0
BLOCK_RECORD
  5
20
330
F
100
AcDbSymbolTableRecord
100
AcDbBlockTableRecord
  2
RECTANGLE_15
340
0
  0
BLOCK_RECORD
  5
21
330
F
100
AcDbSymbolTableRecord
100
AcDbBlockTableRecord
  2
RECTANGLE_16
340
0
  0
BLOCK_RECORD
  5
22
330
F
100
AcDbSymbolTableRecord
100
AcDbBlockTableRecord
  2
SQUARE_17
340
0
  0
BLOCK_RECORD
  5
23
330
F
100
AcDbSymbolTableRecord
100
AcDbBlockTableRecord
  2
ROUND_18
340
0
  0
BLOCK_RECORD
  5
24
330
F
100
AcDbSymbolTableRecord
100
AcDbBlockTableRecord
  2
ROUND_19
340
0
  0
BLOCK_RECORD
  5
25
330
F
100
AcDbSymbolTableRecord
100
AcDbBlockTableRecord
  2
ROUND_20
340
0
  0
BLOCK_RECORD
  5
26
330
F
100
AcDbSymbolTableRecord
100
AcDbBlockTableRecord
  2
CUSTOM_21
340
0
  0
BLOCK_RECORD
  5
27
330
F
100
AcDbSymbolTableRecord
100
AcDbBlockTableRecord
  2
ROUND_22
340
0
  0
BLOCK_RECORD
  5
28
330
F
100
AcDbSymbolTableRecord
100
AcDbBlockTableRecord
  2
ROUND_23
340
0
  0
BLOCK_RECORD
  5
29
330
F
100
AcDbSymbolTableRecord
100
AcDbBlockTableRecord
  2
ROUND_24
340
0
  0
BLOCK_RECORD
  5
2A
330
F
100
AcDbSymbolTableRecord
100
AcDbBlockTableRecord
  2
ROUND_25
340
0
  0
BLOCK_RECORD
  5
2B
330
F
100
AcDbSymbolTableRecord
100
AcDbBlockTableRecord
  2
ROUND_26
340
0
  0
BLOCK_RECORD
  5
2C
330
F
100
AcDbSymbolTableRecord
100
AcDbBlockTableRecord
  2
ROUND_27
340
0
  0
BLOCK_RECORD
  5
2D
330
F
100
AcDbSymbolTableRecord
100
AcDbBlockTableRecord
  2
RECTANGLE_28
340
0
  0
BLOCK_RECORD
  5
2E
330
F
100
AcDbSymbolTableRecord
100
AcDbBlockTableRecord
  2
RECTANGLE_29
340
0
  0
BLOCK_RECORD
  5
2F
330
F
100
AcDbSymbolTableRecord
100
AcDbBlockTableRecord
  2
CUSTOM_30
340
0
  0
BLOCK_RECORD
  5
30
330
F
100
AcDbSymbolTableRecord
100
AcDbBlockTableRecord
  2
CUSTOM_31
340
0
  0
BLOCK_RECORD
  5
31
330
F
100
AcDbSymbolTableRecord
100
AcDbBlockTableRecord
  2
CUSTOM_32
340
0
  0
BLOCK_RECORD
  5
32
330
F
100
AcDbSymbolTableRecord
100
AcDbBlockTableRecord
  2
CUSTOM_33
340
0
  0
BLOCK_RECORD
  5
33
330
F
100
AcDbSymbolTableRecord
100
AcDbBlockTableRecord
  2
ROUND_34
340
0
  0
BLOCK_RECORD
  5
34
330
F
100
AcDbSymbolTableRecord
100
AcDbBlockTableRecord
  2
ROUND_35
340
0
  0
BLOCK_RECORD
  5
35
330
F
100
AcDbSymbolTableRecord
100
AcDbBlockTableRecord
  2
CUSTOM_36
340
0
  0
BLOCK_RECORD
  5
36
330
F
100
AcDbSymbolTableRecord
100
AcDbBlockTableRecord
  2
CUSTOM_37
340
0
  0
BLOCK_RECORD
  5
37
330
F
100
AcDbSymbolTableRecord
100
AcDbBlockTableRecord
  2
CUSTOM_38
340
0
  0
BLOCK_RECORD
  5
38
330
F
100
AcDbSymbolTableRecord
100
AcDbBlockTableRecord
  2
CUSTOM_39
340
0
  0
BLOCK_RECORD
  5
39
330
F
100
AcDbSymbolTableRecord
100
AcDbBlockTableRecord
  2
RECTANGLE_40
340
0
  0
BLOCK_RECORD
  5
3A
330
F
100
AcDbSymbolTableRecord
100
AcDbBlockTableRecord
  2
ROUND_41
340
0
  0
BLOCK_RECORD
  5
3B
330
F
100
AcDbSymbolTableRecord
100
AcDbBlockTableRecord
  2
RECTANGLE_42
340
0
  0
BLOCK_RECORD
  5
3C
330
F
100
AcDbSymbolTableRecord
100
AcDbBlockTableRecord
  2
RECTANGLE_43
340
0
  0
BLOCK_RECORD
  5
3D
330
F
100
AcDbSymbolTableRecord
100
AcDbBlockTableRecord
  2
RECTANGLE_44
340
0
  0
BLOCK_RECORD
  5
3E
330
F
100
AcDbSymbolTableRecord
100
AcDbBlockTableRecord
  2
RECTANGLE_45
340
0
  0
BLOCK_RECORD
  5
3F
330
F
100
AcDbSymbolTableRecord
100
AcDbBlockTableRecord
  2
SQUARE_46
340
0
  0
BLOCK_RECORD
  5
40
330
F
100
AcDbSymbolTableRecord
100
AcDbBlockTableRecord
  2
CUSTOM_47
340
0
  0
BLOCK_RECORD
  5
41
330
F
100
AcDbSymbolTableRecord
100
AcDbBlockTableRecord
  2
CUSTOM_48
340
0
  0
BLOCK_RECORD
  5
42
330
F
100
AcDbSymbolTableRecord
100
AcDbBlockTableRecord
  2
CUSTOM_49
340
0
  0
BLOCK_RECORD
  5
43
330
F
100
AcDbSymbolTableRecord
100
AcDbBlockTableRecord
  2
SQUARE_50
340
0
  0
BLOCK_RECORD
  5
44
330
F
100
AcDbSymbolTableRecord
100
AcDbBlockTableRecord
  2
ROUND_51
340
0
  0
BLOCK_RECORD
  5
45
330
F
100
AcDbSymbolTableRecord
100
AcDbBlockTableRecord
  2
CUSTOM_52
340
0
  0
BLOCK_RECORD
  5
46
330
F
100
AcDbSymbolTableRecord
100
AcDbBlockTableRecord
  2
RECTANGLE_53
340
0
  0
BLOCK_RECORD
  5
47
330
F
100
AcDbSymbolTableRecord
100
AcDbBlockTableRecord
  2
RECTANGLE_54
340
0
  0
BLOCK_RECORD
  5
48
330
F
100
AcDbSymbolTableRecord
100
AcDbBlockTableRecord
  2
RECTANGLE_55
340
0
  0
BLOCK_RECORD
  5
49
330
F
100
AcDbSymbolTableRecord
100
AcDbBlockTableRecord
  2
RECTANGLE_56
340
0
  0
BLOCK_RECORD
  5
4A
330
F
100
AcDbSymbolTableRecord
100
AcDbBlockTableRecord
  2
CUSTOM_57
340
0
  0
BLOCK_RECORD
  5
4B
330
F
100
AcDbSymbolTableRecord
100
AcDbBlockTableRecord
  2
CUSTOM_58
340
0
  0
BLOCK_RECORD
  5
4C
330
F
100
AcDbSymbolTableRecord
100
AcDbBlockTableRecord
  2
CUSTOM_59
340
0
  0
BLOCK_RECORD
  5
4D
330
F
100
AcDbSymbolTableRecord
100
AcDbBlockTableRecord
  2
RECTANGLE_60
340
0
  0
BLOCK_RECORD
  5
4E
330
F
100
AcDbSymbolTableRecord
100
AcDbBlockTableRecord
  2
CUSTOM_61
340
0
  0
ENDTAB
  0
ENDSEC
  0
SECTION
  2
BLOCKS
  0
BLOCK
  5
55
330
10
100
AcDbEntity
  8
0
100
AcDbBlockBegin
  2
*Model_Space
 70
     0
 10
0.0
 20
0.0
 30
0.0
  3
*Model_Space
  1

  0
ENDBLK
  5
56
330
10
100
AcDbEntity
  8
0
100
AcDbBlockEnd
  0
BLOCK
  5
57
330
11
100
AcDbEntity
  8
0
100
AcDbBlockBegin
  2
*Paper_Space
 70
     0
 10
0.0
 20
0.0
 30
0.0
  3
*Paper_Space
  1

  0
ENDBLK
  5
58
330
11
100
AcDbEntity
  8
0
100
AcDbBlockEnd
  0
BLOCK
  5
59
330
12
100
AcDbEntity
  8
0
100
AcDbBlockBegin
  2
ROUND_1
 70
     0
 10
0.0
 20
0.0
 30
0.0
  3
ROUND_1
  1

  0
HATCH
  5
5B
330
12
100
AcDbEntity
  8
0
100
AcDbHatch
 10
0.0
 20
0.0
 30
0.0
210
0.0
220
0.0
230
1.0
  2
SOLID
 70
     1
 71
     0
 91
     1
 92
     0
 93
     1
 72
     2
 10
0.0
 20
0.0
 40
0.0
 50
0.0
 51
360.0
 73
     1
 97
     0
 75
     0
 76
     1
 98
     1
 10
0.0
 20
0.0
  0
ENDBLK
  5
5A
330
12
100
AcDbEntity
  8
0
100
AcDbBlockEnd
  0
BLOCK
  5
5C
330
13
100
AcDbEntity
  8
0
100
AcDbBlockBegin
  2
RECTANGLE_2
 70
     0
 10
0.0
 20
0.0
 30
0.0
  3
RECTANGLE_2
  1

  0
SOLID
  5
5E
330
13
100
AcDbEntity
  8
0
  6
BYLAYER
 62
   256
100
AcDbTrace
 10
0.0196849606286
 20
0.0216549608625
 30
0.0
 11
0.0196849606286
 21
-0.0216549603589
 31
0.0
 12
-0.0196849081029
 22
0.0216549608625
 32
0.0
 13
-0.0196849081029
 23
-0.0216549603589
 33
0.0
  0
ENDBLK
  5
5D
330
13
100
AcDbEntity
  8
0
100
AcDbBlockEnd
  0
BLOCK
  5
5F
330
14
100
AcDbEntity
  8
0
100
AcDbBlockBegin
  2
ROUND_3
 70
     0
 10
0.0
 20
0.0
 30
0.0
  3
ROUND_3
  1

  0
HATCH
  5
61
330
14
100
AcDbEntity
  8
0
100
AcDbHatch
 10
0.0
 20
0.0
 30
0.0
210
0.0
220
0.0
230
1.0
  2
SOLID
 70
     1
 71
     0
 91
     1
 92
     0
 93
     1
 72
     2
 10
0.0
 20
0.0
 40
0.0218099737339
 50
0.0
 51
360.0
 73
     1
 97
     0
 75
     0
 76
     1
 98
     1
 10
0.0
 20
0.0
  0
ENDBLK
  5
60
330
14
100
AcDbEntity
  8
0
100
AcDbBlockEnd
  0
BLOCK
  5
62
330
15
100
AcDbEntity
  8
0
100
AcDbBlockBegin
  2
RECTANGLE_4
 70
     0
 10
0.0
 20
0.0
 30
0.0
  3
RECTANGLE_4
  1

  0
SOLID
  5
64
330
15
100
AcDbEntity
  8
0
  6
BYLAYER
 62
   256
100
AcDbTrace
 10
0.0334649606163
 20
0.0354349608503
 30
0.0
 11
0.0334649606163
 21
-0.0354349603466
 31
0.0
 12
-0.0334649080906
 22
0.0354349608503
 32
0.0
 13
-0.0334649080906
 23
-0.0354349603466
 33
0.0
  0
ENDBLK
  5
63
330
15
100
AcDbEntity
  8
0
100
AcDbBlockEnd
  0
BLOCK
  5
65
330
16
100
AcDbEntity
  8
0
100
AcDbBlockBegin
  2
RECTANGLE_5
 70
     0
 10
0.0
 20
0.0
 30
0.0
  3
RECTANGLE_5
  1

  0
SOLID
  5
67
330
16
100
AcDbEntity
  8
0
  6
BYLAYER
 62
   256
100
AcDbTrace
 10
0.0440000262238
 20
0.0240000002305
 30
0.0
 11
0.0440000262238
 21
-0.0239999997269
 31
0.0
 12
-0.0439999736981
 22
0.0240000002305
 32
0.0
 13
-0.0439999736981
 23
-0.0239999997269
 33
0.0
  0
ENDBLK
  5
66
330
16
100
AcDbEntity
  8
0
100
AcDbBlockEnd
  0
BLOCK
  5
68
330
17
100
AcDbEntity
  8
0
100
AcDbBlockBegin
  2
RECTANGLE_6
 70
     0
 10
0.0
 20
0.0
 30
0.0
  3
RECTANGLE_6
  1

  0
SOLID
  5
6A
330
17
100
AcDbEntity
  8
0
  6
BYLAYER
 62
   256
100
AcDbTrace
 10
0.0433049606076
 20
0.0708649345721
 30
0.0
 11
0.0433049606076
 21
-0.0708649340685
 31
0.0
 12
-0.0433049080819
 22
0.0708649345721
 32
0.0
 13
-0.0433049080819
 23
-0.0708649340685
 33
0.0
  0
ENDBLK
  5
69
330
17
100
AcDbEntity
  8
0
100
AcDbBlockEnd
  0
BLOCK
  5
6B
330
18
100
AcDbEntity
  8
0
100
AcDbBlockBegin
  2
RECTANGLE_7
 70
     0
 10
0.0
 20
0.0
 30
0.0
  3
RECTANGLE_7
  1

  0
SOLID
  5
6D
330
18
100
AcDbEntity
  8
0
  6
BYLAYER
 62
   256
100
AcDbTrace
 10
0.017714986877
 20
0.0157499739911
 30
0.0
 11
0.017714986877
 21
-0.0157499734875
 31
0.0
 12
-0.0177149343513
 22
0.0157499739911
 32
0.0
 13
-0.0177149343513
 23
-0.0157499734875
 33
0.0
  0
ENDBLK
  5
6C
330
18
100
AcDbEntity
  8
0
100
AcDbBlockEnd
  0
BLOCK
  5
6E
330
19
100
AcDbEntity
  8
0
100
AcDbBlockBegin
  2
RECTANGLE_8
 70
     0
 10
0.0
 20
0.0
 30
0.0
  3
RECTANGLE_8
  1

  0
SOLID
  5
70
330
19
100
AcDbEntity
  8
0
  6
BYLAYER
 62
   256
100
AcDbTrace
 10
0.0216549868735
 20
0.0196849346175
 30
0.0
 11
0.0216549868735
 21
-0.0196849341139
 31
0.0
 12
-0.0216549343478
 22
0.0196849346175
 32
0.0
 13
-0.0216549343478
 23
-0.0196849341139
 33
0.0
  0
ENDBLK
  5
6F
330
19
100
AcDbEntity
  8
0
100
AcDbBlockEnd
  0
BLOCK
  5
71
330
1A
100
AcDbEntity
  8
0
100
AcDbBlockBegin
  2
SQUARE_9
 70
     0
 10
0.0
 20
0.0
 30
0.0
  3
SQUARE_9
  1

  0
SOLID
  5
73
330
1A
100
AcDbEntity
  8
0
  6
BYLAYER
 62
   256
100
AcDbTrace
 10
0.0590549868403
 20
0.0590549608293
 30
0.0
 11
0.0590549868403
 21
-0.0590549603257
 31
0.0
 12
-0.0590549343146
 22
0.0590549608293
 32
0.0
 13
-0.0590549343146
 23
-0.0590549603257
 33
0.0
  0
ENDBLK
  5
72
330
1A
100
AcDbEntity
  8
0
100
AcDbBlockEnd
  0
BLOCK
  5
74
330
1B
100
AcDbEntity
  8
0
100
AcDbBlockBegin
  2
CUSTOM_10
 70
     0
 10
0.0
 20
0.0
 30
0.0
  3
CUSTOM_10
  1

  0
SOLID
  5
76
330
1B
100
AcDbEntity
  8
0
  6
BYLAYER
 62
   256
100
AcDbTrace
 10
-0.0107694750399
 20
-0.0259998947382
 30
0.0
 11
-0.0259998687272
 21
-0.010769501051
 31
0.0
 12
0.0107695275656
 22
-0.0259998947382
 32
0.0
 13
0.0259999212529
 23
-0.010769501051
 33
0.0
  0
SOLID
  5
77
330
1B
100
AcDbEntity
  8
0
  6
BYLAYER
 62
   256
100
AcDbTrace
 10
-0.0259998687272
 20
-0.010769501051
 30
0.0
 11
-0.0259998687272
 21
0.0107695015546
 31
0.0
 12
0.0259999212529
 22
-0.010769501051
 32
0.0
 13
0.0259999212529
 23
0.0107695015546
 33
0.0
  0
SOLID
  5
78
330
1B
100
AcDbEntity
  8
0
  6
BYLAYER
 62
   256
100
AcDbTrace
 10
-0.0259998687272
 20
0.0107695015546
 30
0.0
 11
-0.0107694750399
 21
0.0259998952419
 31
0.0
 12
0.0259999212529
 22
0.0107695015546
 32
0.0
 13
0.0107695275656
 23
0.0259998952419
 33
0.0
  0
ENDBLK
  5
75
330
1B
100
AcDbEntity
  8
0
100
AcDbBlockEnd
  0
BLOCK
  5
79
330
1C
100
AcDbEntity
  8
0
100
AcDbBlockBegin
  2
ROUND_11
 70
     0
 10
0.0
 20
0.0
 30
0.0
  3
ROUND_11
  1

  0
HATCH
  5
7B
330
1C
100
AcDbEntity
  8
0
100
AcDbHatch
 10
0.0
 20
0.0
 30
0.0
210
0.0
220
0.0
230
1.0
  2
SOLID
 70
     1
 71
     0
 91
     1
 92
     0
 93
     1
 72
     2
 10
0.0
 20
0.0
 40
0.000999999999112
 50
0.0
 51
360.0
 73
     1
 97
     0
 75
     0
 76
     1
 98
     1
 10
0.0
 20
0.0
  0
ENDBLK
  5
7A
330
1C
100
AcDbEntity
  8
0
100
AcDbBlockEnd
  0
BLOCK
  5
7C
330
1D
100
AcDbEntity
  8
0
100
AcDbBlockBegin
  2
ROUND_12
 70
     0
 10
0.0
 20
0.0
 30
0.0
  3
ROUND_12
  1

  0
HATCH
  5
7E
330
1D
100
AcDbEntity
  8
0
100
AcDbHatch
 10
0.0
 20
0.0
 30
0.0
210
0.0
220
0.0
230
1.0
  2
SOLID
 70
     1
 71
     0
 91
     1
 92
     0
 93
     1
 72
     2
 10
0.0
 20
0.0
 40
0.00249999999778
 50
0.0
 51
360.0
 73
     1
 97
     0
 75
     0
 76
     1
 98
     1
 10
0.0
 20
0.0
  0
ENDBLK
  5
7D
330
1D
100
AcDbEntity
  8
0
100
AcDbBlockEnd
  0
BLOCK
  5
7F
330
1E
100
AcDbEntity
  8
0
100
AcDbBlockBegin
  2
CUSTOM_13
 70
     0
 10
0.0
 20
0.0
 30
0.0
  3
CUSTOM_13
  1

  0
SOLID
  5
81
330
1E
100
AcDbEntity
  8
0
  6
BYLAYER
 62
   256
100
AcDbTrace
 10
-0.0285392388037
 20
-0.0688998422067
 30
0.0
 11
-0.0688997112088
 21
-0.0285392648147
 31
0.0
 12
0.0285392388359
 22
-0.0688998422067
 32
0.0
 13
0.0688998687214
 23
-0.0285392648147
 33
0.0
  0
SOLID
  5
82
330
1E
100
AcDbEntity
  8
0
  6
BYLAYER
 62
   256
100
AcDbTrace
 10
-0.0688997112088
 20
-0.0285392648147
 30
0.0
 11
-0.0688998161957
 21
-0.0285392123213
 31
0.0
 12
0.0688998687214
 22
-0.0285392648147
 32
0.0
 13
0.0688998687214
 23
-0.0285392123213
 33
0.0
  0
SOLID
  5
83
330
1E
100
AcDbEntity
  8
0
  6
BYLAYER
 62
   256
100
AcDbTrace
 10
-0.0688998161957
 20
-0.0285392123213
 30
0.0
 11
-0.0688998161957
 21
0.0285392128249
 31
0.0
 12
0.0688998687214
 22
-0.0285392123213
 32
0.0
 13
0.0688998687214
 23
0.0285392128249
 33
0.0
  0
SOLID
  5
84
330
1E
100
AcDbEntity
  8
0
  6
BYLAYER
 62
   256
100
AcDbTrace
 10
-0.0688998161957
 20
0.0285392128249
 30
0.0
 11
-0.0688998161957
 21
0.0285392653183
 31
0.0
 12
0.0688998687214
 22
0.0285392128249
 32
0.0
 13
0.0688998687214
 23
0.0285392653183
 33
0.0
  0
SOLID
  5
85
330
1E
100
AcDbEntity
  8
0
  6
BYLAYER
 62
   256
100
AcDbTrace
 10
-0.0688998161957
 20
0.0285392653183
 30
0.0
 11
-0.0285391863102
 21
0.0688998427103
 31
0.0
 12
0.0688998687214
 22
0.0285392653183
 32
0.0
 13
0.0285392913294
 23
0.0688998427103
 33
0.0
  0
ENDBLK
  5
80
330
1E
100
AcDbEntity
  8
0
100
AcDbBlockEnd
  0
BLOCK
  5
86
330
1F
100
AcDbEntity
  8
0
100
AcDbBlockBegin
  2
CUSTOM_14
 70
     0
 10
0.0
 20
0.0
 30
0.0
  3
CUSTOM_14
  1

  0
SOLID
  5
88
330
1F
100
AcDbEntity
  8
0
  6
BYLAYER
 62
   256
100
AcDbTrace
 10
-0.0203853805432
 20
-0.0492148553475
 30
0.0
 11
-0.0492148293365
 21
-0.0203855115411
 31
0.0
 12
0.0203855380558
 22
-0.0492148553475
 32
0.0
 13
0.0492148293688
 23
-0.0203855115411
 33
0.0
  0
SOLID
  5
89
330
1F
100
AcDbEntity
  8
0
  6
BYLAYER
 62
   256
100
AcDbTrace
 10
-0.0492148293365
 20
-0.0203855115411
 30
0.0
 11
-0.0492148293365
 21
-0.0203854065542
 31
0.0
 12
0.0492148293688
 22
-0.0203855115411
 32
0.0
 13
0.0492148818622
 23
-0.0203854065542
 33
0.0
  0
SOLID
  5
8A
330
1F
100
AcDbEntity
  8
0
  6
BYLAYER
 62
   256
100
AcDbTrace
 10
-0.0492148293365
 20
-0.0203854065542
 30
0.0
 11
-0.0492148293365
 21
0.0203854070579
 31
0.0
 12
0.0492148818622
 22
-0.0203854065542
 32
0.0
 13
0.0492148818622
 23
0.0203854070579
 33
0.0
  0
SOLID
  5
8B
330
1F
100
AcDbEntity
  8
0
  6
BYLAYER
 62
   256
100
AcDbTrace
 10
-0.0492148293365
 20
0.0203854070579
 30
0.0
 11
-0.0492148293365
 21
0.0203855120447
 31
0.0
 12
0.0492148818622
 22
0.0203854070579
 32
0.0
 13
0.0492148818622
 23
0.0203855120447
 33
0.0
  0
SOLID
  5
8C
330
1F
100
AcDbEntity
  8
0
  6
BYLAYER
 62
   256
100
AcDbTrace
 10
-0.0492148293365
 20
0.0203855120447
 30
0.0
 11
-0.0203854855301
 21
0.0492148558512
 31
0.0
 12
0.0492148818622
 22
0.0203855120447
 32
0.0
 13
0.0203854330689
 23
0.0492148558512
 33
0.0
  0
ENDBLK
  5
87
330
1F
100
AcDbEntity
  8
0
100
AcDbBlockEnd
  0
BLOCK
  5
8D
330
20
100
AcDbEntity
  8
0
100
AcDbBlockBegin
  2
RECTANGLE_15
 70
     0
 10
0.0
 20
0.0
 30
0.0
  3
RECTANGLE_15
  1

  0
SOLID
  5
8F
330
20
100
AcDbEntity
  8
0
  6
BYLAYER
 62
   256
100
AcDbTrace
 10
0.0299200262363
 20
0.0350400002207
 30
0.0
 11
0.0299200262363
 21
-0.0350399997171
 31
0.0
 12
-0.0299199737106
 22
0.0350400002207
 32
0.0
 13
-0.0299199737106
 23
-0.0350399997171
 33
0.0
  0
ENDBLK
  5
8E
330
20
100
AcDbEntity
  8
0
100
AcDbBlockEnd
  0
BLOCK
  5
90
330
21
100
AcDbEntity
  8
0
100
AcDbBlockBegin
  2
RECTANGLE_16
 70
     0
 10
0.0
 20
0.0
 30
0.0
  3
RECTANGLE_16
  1

  0
SOLID
  5
92
330
21
100
AcDbEntity
  8
0
  6
BYLAYER
 62
   256
100
AcDbTrace
 10
0.0354349868613
 20
0.0334649346053
 30
0.0
 11
0.0354349868613
 21
-0.0334649341017
 31
0.0
 12
-0.0354349343356
 22
0.0334649346053
 32
0.0
 13
-0.0354349343356
 23
-0.0334649341017
 33
0.0
  0
ENDBLK
  5
91
330
21
100
AcDbEntity
  8
0
100
AcDbBlockEnd
  0
BLOCK
  5
93
330
22
100
AcDbEntity
  8
0
100
AcDbBlockBegin
  2
SQUARE_17
 70
     0
 10
0.0
 20
0.0
 30
0.0
  3
SQUARE_17
  1

  0
SOLID
  5
95
330
22
100
AcDbEntity
  8
0
  6
BYLAYER
 62
   256
100
AcDbTrace
 10
0.0315000262349
 20
0.0315000002239
 30
0.0
 11
0.0315000262349
 21
-0.0314999997202
 31
0.0
 12
-0.0314999737092
 22
0.0315000002239
 32
0.0
 13
-0.0314999737092
 23
-0.0314999997202
 33
0.0
  0
ENDBLK
  5
94
330
22
100
AcDbEntity
  8
0
100
AcDbBlockEnd
  0
BLOCK
  5
96
330
23
100
AcDbEntity
  8
0
100
AcDbBlockBegin
  2
ROUND_18
 70
     0
 10
0.0
 20
0.0
 30
0.0
  3
ROUND_18
  1

  0
HATCH
  5
98
330
23
100
AcDbEntity
  8
0
100
AcDbHatch
 10
0.0
 20
0.0
 30
0.0
210
0.0
220
0.0
230
1.0
  2
SOLID
 70
     1
 71
     0
 91
     1
 92
     0
 93
     1
 72
     2
 10
0.0
 20
0.0
 40
0.0119999999893
 50
0.0
 51
360.0
 73
     1
 97
     0
 75
     0
 76
     1
 98
     1
 10
0.0
 20
0.0
  0
ENDBLK
  5
97
330
23
100
AcDbEntity
  8
0
100
AcDbBlockEnd
  0
BLOCK
  5
99
330
24
100
AcDbEntity
  8
0
100
AcDbBlockBegin
  2
ROUND_19
 70
     0
 10
0.0
 20
0.0
 30
0.0
  3
ROUND_19
  1

  0
HATCH
  5
9B
330
24
100
AcDbEntity
  8
0
100
AcDbHatch
 10
0.0
 20
0.0
 30
0.0
210
0.0
220
0.0
230
1.0
  2
SOLID
 70
     1
 71
     0
 91
     1
 92
     0
 93
     1
 72
     2
 10
0.0
 20
0.0
 40
0.0159999999858
 50
0.0
 51
360.0
 73
     1
 97
     0
 75
     0
 76
     1
 98
     1
 10
0.0
 20
0.0
  0
ENDBLK
  5
9A
330
24
100
AcDbEntity
  8
0
100
AcDbBlockEnd
  0
BLOCK
  5
9C
330
25
100
AcDbEntity
  8
0
100
AcDbBlockBegin
  2
ROUND_20
 70
     0
 10
0.0
 20
0.0
 30
0.0
  3
ROUND_20
  1

  0
HATCH
  5
9E
330
25
100
AcDbEntity
  8
0
100
AcDbHatch
 10
0.0
 20
0.0
 30
0.0
210
0.0
220
0.0
230
1.0
  2
SOLID
 70
     1
 71
     0
 91
     1
 92
     0
 93
     1
 72
     2
 10
0.0
 20
0.0
 40
0.0198099737357
 50
0.0
 51
360.0
 73
     1
 97
     0
 75
     0
 76
     1
 98
     1
 10
0.0
 20
0.0
  0
ENDBLK
  5
9D
330
25
100
AcDbEntity
  8
0
100
AcDbBlockEnd
  0
BLOCK
  5
9F
330
26
100
AcDbEntity
  8
0
100
AcDbBlockBegin
  2
CUSTOM_21
 70
     0
 10
0.0
 20
0.0
 30
0.0
  3
CUSTOM_21
  1

  0
SOLID
  5
A1
330
26
100
AcDbEntity
  8
0
  6
BYLAYER
 62
   256
100
AcDbTrace
 10
-0.00820553803433
 20
-0.0198099209904
 30
0.0
 11
-0.0198097899925
 21
-0.00820556404536
 31
0.0
 12
0.00820553806659
 22
-0.0198099209904
 32
0.0
 13
0.0198099475051
 23
-0.00820556404536
 33
0.0
  0
SOLID
  5
A2
330
26
100
AcDbEntity
  8
0
  6
BYLAYER
 62
   256
100
AcDbTrace
 10
-0.0198097899925
 20
-0.00820556404536
 30
0.0
 11
-0.0198098949794
 21
-0.00820551155192
 31
0.0
 12
0.0198099475051
 22
-0.00820556404536
 32
0.0
 13
0.0198099475051
 23
-0.00820551155192
 33
0.0
  0
SOLID
  5
A3
330
26
100
AcDbEntity
  8
0
  6
BYLAYER
 62
   256
100
AcDbTrace
 10
-0.0198098949794
 20
-0.00820551155192
 30
0.0
 11
-0.0198098949794
 21
0.00820551205556
 31
0.0
 12
0.0198099475051
 22
-0.00820551155192
 32
0.0
 13
0.0198099475051
 23
0.00820551205556
 33
0.0
  0
SOLID
  5
A4
330
26
100
AcDbEntity
  8
0
  6
BYLAYER
 62
   256
100
AcDbTrace
 10
-0.0198098949794
 20
0.00820551205556
 30
0.0
 11
-0.0198098949794
 21
0.008205564549
 31
0.0
 12
0.0198099475051
 22
0.00820551205556
 32
0.0
 13
0.0198099475051
 23
0.008205564549
 33
0.0
  0
SOLID
  5
A5
330
26
100
AcDbEntity
  8
0
  6
BYLAYER
 62
   256
100
AcDbTrace
 10
-0.0198098949794
 20
0.008205564549
 30
0.0
 11
-0.00820548554089
 21
0.0198099214941
 31
0.0
 12
0.0198099475051
 22
0.008205564549
 32
0.0
 13
0.00820559056003
 23
0.0198099214941
 33
0.0
  0
ENDBLK
  5
A0
330
26
100
AcDbEntity
  8
0
100
AcDbBlockEnd
  0
BLOCK
  5
A6
330
27
100
AcDbEntity
  8
0
100
AcDbBlockBegin
  2
ROUND_22
 70
     0
 10
0.0
 20
0.0
 30
0.0
  3
ROUND_22
  1

  0
HATCH
  5
A8
330
27
100
AcDbEntity
  8
0
100
AcDbHatch
 10
0.0
 20
0.0
 30
0.0
210
0.0
220
0.0
230
1.0
  2
SOLID
 70
     1
 71
     0
 91
     1
 92
     0
 93
     1
 72
     2
 10
0.0
 20
0.0
 40
0.0199999999822
 50
0.0
 51
360.0
 73
     1
 97
     0
 75
     0
 76
     1
 98
     1
 10
0.0
 20
0.0
  0
ENDBLK
  5
A7
330
27
100
AcDbEntity
  8
0
100
AcDbBlockEnd
  0
BLOCK
  5
A9
330
28
100
AcDbEntity
  8
0
100
AcDbBlockBegin
  2
ROUND_23
 70
     0
 10
0.0
 20
0.0
 30
0.0
  3
ROUND_23
  1

  0
HATCH
  5
AB
330
28
100
AcDbEntity
  8
0
100
AcDbHatch
 10
0.0
 20
0.0
 30
0.0
210
0.0
220
0.0
230
1.0
  2
SOLID
 70
     1
 71
     0
 91
     1
 92
     0
 93
     1
 72
     2
 10
0.0
 20
0.0
 40
0.00399999999645
 50
0.0
 51
360.0
 73
     1
 97
     0
 75
     0
 76
     1
 98
     1
 10
0.0
 20
0.0
  0
ENDBLK
  5
AA
330
28
100
AcDbEntity
  8
0
100
AcDbBlockEnd
  0
BLOCK
  5
AC
330
29
100
AcDbEntity
  8
0
100
AcDbBlockBegin
  2
ROUND_24
 70
     0
 10
0.0
 20
0.0
 30
0.0
  3
ROUND_24
  1

  0
HATCH
  5
AE
330
29
100
AcDbEntity
  8
0
100
AcDbHatch
 10
0.0
 20
0.0
 30
0.0
210
0.0
220
0.0
230
1.0
  2
SOLID
 70
     1
 71
     0
 91
     1
 92
     0
 93
     1
 72
     2
 10
0.0
 20
0.0
 40
0.00199999999822
 50
0.0
 51
360.0
 73
     1
 97
     0
 75
     0
 76
     1
 98
     1
 10
0.0
 20
0.0
  0
ENDBLK
  5
AD
330
29
100
AcDbEntity
  8
0
100
AcDbBlockEnd
  0
BLOCK
  5
AF
330
2A
100
AcDbEntity
  8
0
100
AcDbBlockBegin
  2
ROUND_25
 70
     0
 10
0.0
 20
0.0
 30
0.0
  3
ROUND_25
  1

  0
HATCH
  5
B1
330
2A
100
AcDbEntity
  8
0
100
AcDbHatch
 10
0.0
 20
0.0
 30
0.0
210
0.0
220
0.0
230
1.0
  2
SOLID
 70
     1
 71
     0
 91
     1
 92
     0
 93
     1
 72
     2
 10
0.0
 20
0.0
 40
0.0379999999663
 50
0.0
 51
360.0
 73
     1
 97
     0
 75
     0
 76
     1
 98
     1
 10
0.0
 20
0.0
  0
ENDBLK
  5
B0
330
2A
100
AcDbEntity
  8
0
100
AcDbBlockEnd
  0
BLOCK
  5
B2
330
2B
100
AcDbEntity
  8
0
100
AcDbBlockBegin
  2
ROUND_26
 70
     0
 10
0.0
 20
0.0
 30
0.0
  3
ROUND_26
  1

  0
HATCH
  5
B4
330
2B
100
AcDbEntity
  8
0
100
AcDbHatch
 10
0.0
 20
0.0
 30
0.0
210
0.0
220
0.0
230
1.0
  2
SOLID
 70
     1
 71
     0
 91
     1
 92
     0
 93
     1
 72
     2
 10
0.0
 20
0.0
 40
0.00299999999734
 50
0.0
 51
360.0
 73
     1
 97
     0
 75
     0
 76
     1
 98
     1
 10
0.0
 20
0.0
  0
ENDBLK
  5
B3
330
2B
100
AcDbEntity
  8
0
100
AcDbBlockEnd
  0
BLOCK
  5
B5
330
2C
100
AcDbEntity
  8
0
100
AcDbBlockBegin
  2
ROUND_27
 70
     0
 10
0.0
 20
0.0
 30
0.0
  3
ROUND_27
  1

  0
HATCH
  5
B7
330
2C
100
AcDbEntity
  8
0
100
AcDbHatch
 10
0.0
 20
0.0
 30
0.0
210
0.0
220
0.0
230
1.0
  2
SOLID
 70
     1
 71
     0
 91
     1
 92
     0
 93
     1
 72
     2
 10
0.0
 20
0.0
 40
0.0108699737436
 50
0.0
 51
360.0
 73
     1
 97
     0
 75
     0
 76
     1
 98
     1
 10
0.0
 20
0.0
  0
ENDBLK
  5
B6
330
2C
100
AcDbEntity
  8
0
100
AcDbBlockEnd
  0
BLOCK
  5
B8
330
2D
100
AcDbEntity
  8
0
100
AcDbBlockBegin
  2
RECTANGLE_28
 70
     0
 10
0.0
 20
0.0
 30
0.0
  3
RECTANGLE_28
  1

  0
SOLID
  5
BA
330
2D
100
AcDbEntity
  8
0
  6
BYLAYER
 62
   256
100
AcDbTrace
 10
0.0118100000056
 20
0.0433049345966
 30
0.0
 11
0.0118100000056
 21
-0.0433049340929
 31
0.0
 12
-0.0118099474799
 22
0.0433049345966
 32
0.0
 13
-0.0118099474799
 23
-0.0433049340929
 33
0.0
  0
ENDBLK
  5
B9
330
2D
100
AcDbEntity
  8
0
100
AcDbBlockEnd
  0
BLOCK
  5
BB
330
2E
100
AcDbEntity
  8
0
100
AcDbBlockBegin
  2
RECTANGLE_29
 70
     0
 10
0.0
 20
0.0
 30
0.0
  3
RECTANGLE_29
  1

  0
SOLID
  5
BD
330
2E
100
AcDbEntity
  8
0
  6
BYLAYER
 62
   256
100
AcDbTrace
 10
0.0196849606286
 20
0.00984493462628
 30
0.0
 11
0.0196849606286
 21
-0.00984493412264
 31
0.0
 12
-0.0196849081029
 22
0.00984493462628
 32
0.0
 13
-0.0196849081029
 23
-0.00984493412264
 33
0.0
  0
ENDBLK
  5
BC
330
2E
100
AcDbEntity
  8
0
100
AcDbBlockEnd
  0
BLOCK
  5
BE
330
2F
100
AcDbEntity
  8
0
100
AcDbBlockBegin
  2
CUSTOM_30
 70
     0
 10
0.0
 20
0.0
 30
0.0
  3
CUSTOM_30
  1

  0
SOLID
  5
C0
330
2F
100
AcDbEntity
  8
0
  6
BYLAYER
 62
   256
100
AcDbTrace
 10
-0.0107694750399
 20
-0.0259998947382
 30
0.0
 11
-0.0259998687272
 21
-0.010769501051
 31
0.0
 12
0.0107695275656
 22
-0.0259998947382
 32
0.0
 13
0.0259999212529
 23
-0.010769501051
 33
0.0
  0
SOLID
  5
C1
330
2F
100
AcDbEntity
  8
0
  6
BYLAYER
 62
   256
100
AcDbTrace
 10
-0.0259998687272
 20
-0.010769501051
 30
0.0
 11
-0.0259998687272
 21
0.0107695015546
 31
0.0
 12
0.0259999212529
 22
-0.010769501051
 32
0.0
 13
0.0259999212529
 23
0.0107695015546
 33
0.0
  0
SOLID
  5
C2
330
2F
100
AcDbEntity
  8
0
  6
BYLAYER
 62
   256
100
AcDbTrace
 10
-0.0259998687272
 20
0.0107695015546
 30
0.0
 11
-0.0107694750399
 21
0.0259998952419
 31
0.0
 12
0.0259999212529
 22
0.0107695015546
 32
0.0
 13
0.0107695275656
 23
0.0259998952419
 33
0.0
  0
ENDBLK
  5
BF
330
2F
100
AcDbEntity
  8
0
100
AcDbBlockEnd
  0
BLOCK
  5
C3
330
30
100
AcDbEntity
  8
0
100
AcDbBlockBegin
  2
CUSTOM_31
 70
     0
 10
0.0
 20
0.0
 30
0.0
  3
CUSTOM_31
  1

  0
SOLID
  5
C5
330
30
100
AcDbEntity
  8
0
  6
BYLAYER
 62
   256
100
AcDbTrace
 10
-0.0285392388037
 20
-0.0688998422067
 30
0.0
 11
-0.0688997112088
 21
-0.0285392648147
 31
0.0
 12
0.0285392388359
 22
-0.0688998422067
 32
0.0
 13
0.0688998687214
 23
-0.0285392648147
 33
0.0
  0
SOLID
  5
C6
330
30
100
AcDbEntity
  8
0
  6
BYLAYER
 62
   256
100
AcDbTrace
 10
-0.0688997112088
 20
-0.0285392648147
 30
0.0
 11
-0.0688998161957
 21
-0.0285392123213
 31
0.0
 12
0.0688998687214
 22
-0.0285392648147
 32
0.0
 13
0.0688998687214
 23
-0.0285392123213
 33
0.0
  0
SOLID
  5
C7
330
30
100
AcDbEntity
  8
0
  6
BYLAYER
 62
   256
100
AcDbTrace
 10
-0.0688998161957
 20
-0.0285392123213
 30
0.0
 11
-0.0688998161957
 21
0.0285392128249
 31
0.0
 12
0.0688998687214
 22
-0.0285392123213
 32
0.0
 13
0.0688998687214
 23
0.0285392128249
 33
0.0
  0
SOLID
  5
C8
330
30
100
AcDbEntity
  8
0
  6
BYLAYER
 62
   256
100
AcDbTrace
 10
-0.0688998161957
 20
0.0285392128249
 30
0.0
 11
-0.0688998161957
 21
0.0285392653183
 31
0.0
 12
0.0688998687214
 22
0.0285392128249
 32
0.0
 13
0.0688998687214
 23
0.0285392653183
 33
0.0
  0
SOLID
  5
C9
330
30
100
AcDbEntity
  8
0
  6
BYLAYER
 62
   256
100
AcDbTrace
 10
-0.0688998161957
 20
0.0285392653183
 30
0.0
 11
-0.0285391863102
 21
0.0688998427103
 31
0.0
 12
0.0688998687214
 22
0.0285392653183
 32
0.0
 13
0.0285392913294
 23
0.0688998427103
 33
0.0
  0
ENDBLK
  5
C4
330
30
100
AcDbEntity
  8
0
100
AcDbBlockEnd
  0
BLOCK
  5
CA
330
31
100
AcDbEntity
  8
0
100
AcDbBlockBegin
  2
CUSTOM_32
 70
     0
 10
0.0
 20
0.0
 30
0.0
  3
CUSTOM_32
  1

  0
SOLID
  5
CC
330
31
100
AcDbEntity
  8
0
  6
BYLAYER
 62
   256
100
AcDbTrace
 10
-0.0203853805432
 20
-0.0492148553475
 30
0.0
 11
-0.0492148293365
 21
-0.0203855115411
 31
0.0
 12
0.0203855380558
 22
-0.0492148553475
 32
0.0
 13
0.0492148293688
 23
-0.0203855115411
 33
0.0
  0
SOLID
  5
CD
330
31
100
AcDbEntity
  8
0
  6
BYLAYER
 62
   256
100
AcDbTrace
 10
-0.0492148293365
 20
-0.0203855115411
 30
0.0
 11
-0.0492148293365
 21
-0.0203854065542
 31
0.0
 12
0.0492148293688
 22
-0.0203855115411
 32
0.0
 13
0.0492148818622
 23
-0.0203854065542
 33
0.0
  0
SOLID
  5
CE
330
31
100
AcDbEntity
  8
0
  6
BYLAYER
 62
   256
100
AcDbTrace
 10
-0.0492148293365
 20
-0.0203854065542
 30
0.0
 11
-0.0492148293365
 21
0.0203854070579
 31
0.0
 12
0.0492148818622
 22
-0.0203854065542
 32
0.0
 13
0.0492148818622
 23
0.0203854070579
 33
0.0
  0
SOLID
  5
CF
330
31
100
AcDbEntity
  8
0
  6
BYLAYER
 62
   256
100
AcDbTrace
 10
-0.0492148293365
 20
0.0203854070579
 30
0.0
 11
-0.0492148293365
 21
0.0203855120447
 31
0.0
 12
0.0492148818622
 22
0.0203854070579
 32
0.0
 13
0.0492148818622
 23
0.0203855120447
 33
0.0
  0
SOLID
  5
D0
330
31
100
AcDbEntity
  8
0
  6
BYLAYER
 62
   256
100
AcDbTrace
 10
-0.0492148293365
 20
0.0203855120447
 30
0.0
 11
-0.0203854855301
 21
0.0492148558512
 31
0.0
 12
0.0492148818622
 22
0.0203855120447
 32
0.0
 13
0.0203854330689
 23
0.0492148558512
 33
0.0
  0
ENDBLK
  5
CB
330
31
100
AcDbEntity
  8
0
100
AcDbBlockEnd
  0
BLOCK
  5
D1
330
32
100
AcDbEntity
  8
0
100
AcDbBlockBegin
  2
CUSTOM_33
 70
     0
 10
0.0
 20
0.0
 30
0.0
  3
CUSTOM_33
  1

  0
SOLID
  5
D3
330
32
100
AcDbEntity
  8
0
  6
BYLAYER
 62
   256
100
AcDbTrace
 10
-0.00820553803433
 20
-0.0198099209904
 30
0.0
 11
-0.0198097899925
 21
-0.00820556404536
 31
0.0
 12
0.00820553806659
 22
-0.0198099209904
 32
0.0
 13
0.0198099475051
 23
-0.00820556404536
 33
0.0
  0
SOLID
  5
D4
330
32
100
AcDbEntity
  8
0
  6
BYLAYER
 62
   256
100
AcDbTrace
 10
-0.0198097899925
 20
-0.00820556404536
 30
0.0
 11
-0.0198098949794
 21
-0.00820551155192
 31
0.0
 12
0.0198099475051
 22
-0.00820556404536
 32
0.0
 13
0.0198099475051
 23
-0.00820551155192
 33
0.0
  0
SOLID
  5
D5
330
32
100
AcDbEntity
  8
0
  6
BYLAYER
 62
   256
100
AcDbTrace
 10
-0.0198098949794
 20
-0.00820551155192
 30
0.0
 11
-0.0198098949794
 21
0.00820551205556
 31
0.0
 12
0.0198099475051
 22
-0.00820551155192
 32
0.0
 13
0.0198099475051
 23
0.00820551205556
 33
0.0
  0
SOLID
  5
D6
330
32
100
AcDbEntity
  8
0
  6
BYLAYER
 62
   256
100
AcDbTrace
 10
-0.0198098949794
 20
0.00820551205556
 30
0.0
 11
-0.0198098949794
 21
0.008205564549
 31
0.0
 12
0.0198099475051
 22
0.00820551205556
 32
0.0
 13
0.0198099475051
 23
0.008205564549
 33
0.0
  0
SOLID
  5
D7
330
32
100
AcDbEntity
  8
0
  6
BYLAYER
 62
   256
100
AcDbTrace
 10
-0.0198098949794
 20
0.008205564549
 30
0.0
 11
-0.00820548554089
 21
0.0198099214941
 31
0.0
 12
0.0198099475051
 22
0.008205564549
 32
0.0
 13
0.00820559056003
 23
0.0198099214941
 33
0.0
  0
ENDBLK
  5
D2
330
32
100
AcDbEntity
  8
0
100
AcDbBlockEnd
  0
BLOCK
  5
D8
330
33
100
AcDbEntity
  8
0
100
AcDbBlockBegin
  2
ROUND_34
 70
     0
 10
0.0
 20
0.0
 30
0.0
  3
ROUND_34
  1

  0
HATCH
  5
DA
330
33
100
AcDbEntity
  8
0
100
AcDbHatch
 10
0.0
 20
0.0
 30
0.0
210
0.0
220
0.0
230
1.0
  2
SOLID
 70
     1
 71
     0
 91
     1
 92
     0
 93
     1
 72
     2
 10
0.0
 20
0.0
 40
0.000499999999556
 50
0.0
 51
360.0
 73
     1
 97
     0
 75
     0
 76
     1
 98
     1
 10
0.0
 20
0.0
  0
ENDBLK
  5
D9
330
33
100
AcDbEntity
  8
0
100
AcDbBlockEnd
  0
BLOCK
  5
DB
330
34
100
AcDbEntity
  8
0
100
AcDbBlockBegin
  2
ROUND_35
 70
     0
 10
0.0
 20
0.0
 30
0.0
  3
ROUND_35
  1

  0
HATCH
  5
DD
330
34
100
AcDbEntity
  8
0
100
AcDbHatch
 10
0.0
 20
0.0
 30
0.0
210
0.0
220
0.0
230
1.0
  2
SOLID
 70
     1
 71
     0
 91
     1
 92
     0
 93
     1
 72
     2
 10
0.0
 20
0.0
 40
0.00499999999556
 50
0.0
 51
360.0
 73
     1
 97
     0
 75
     0
 76
     1
 98
     1
 10
0.0
 20
0.0
  0
ENDBLK
  5
DC
330
34
100
AcDbEntity
  8
0
100
AcDbBlockEnd
  0
BLOCK
  5
DE
330
35
100
AcDbEntity
  8
0
100
AcDbBlockBegin
  2
CUSTOM_36
 70
     0
 10
0.0
 20
0.0
 30
0.0
  3
CUSTOM_36
  1

  0
SOLID
  5
E0
330
35
100
AcDbEntity
  8
0
  6
BYLAYER
 62
   256
100
AcDbTrace
 10
-0.0107694750399
 20
-0.0259998947382
 30
0.0
 11
-0.0259998687272
 21
-0.010769501051
 31
0.0
 12
0.0107695275656
 22
-0.0259998947382
 32
0.0
 13
0.0259999212529
 23
-0.010769501051
 33
0.0
  0
SOLID
  5
E1
330
35
100
AcDbEntity
  8
0
  6
BYLAYER
 62
   256
100
AcDbTrace
 10
-0.0259998687272
 20
-0.010769501051
 30
0.0
 11
-0.0259998687272
 21
0.0107695015546
 31
0.0
 12
0.0259999212529
 22
-0.010769501051
 32
0.0
 13
0.0259999212529
 23
0.0107695015546
 33
0.0
  0
SOLID
  5
E2
330
35
100
AcDbEntity
  8
0
  6
BYLAYER
 62
   256
100
AcDbTrace
 10
-0.0259998687272
 20
0.0107695015546
 30
0.0
 11
-0.0107694750399
 21
0.0259998952419
 31
0.0
 12
0.0259999212529
 22
0.0107695015546
 32
0.0
 13
0.0107695275656
 23
0.0259998952419
 33
0.0
  0
ENDBLK
  5
DF
330
35
100
AcDbEntity
  8
0
100
AcDbBlockEnd
  0
BLOCK
  5
E3
330
36
100
AcDbEntity
  8
0
100
AcDbBlockBegin
  2
CUSTOM_37
 70
     0
 10
0.0
 20
0.0
 30
0.0
  3
CUSTOM_37
  1

  0
SOLID
  5
E5
330
36
100
AcDbEntity
  8
0
  6
BYLAYER
 62
   256
100
AcDbTrace
 10
-0.0285392388037
 20
-0.0688998422067
 30
0.0
 11
-0.0688997112088
 21
-0.0285392648147
 31
0.0
 12
0.0285392388359
 22
-0.0688998422067
 32
0.0
 13
0.0688998687214
 23
-0.0285392648147
 33
0.0
  0
SOLID
  5
E6
330
36
100
AcDbEntity
  8
0
  6
BYLAYER
 62
   256
100
AcDbTrace
 10
-0.0688997112088
 20
-0.0285392648147
 30
0.0
 11
-0.0688998161957
 21
-0.0285392123213
 31
0.0
 12
0.0688998687214
 22
-0.0285392648147
 32
0.0
 13
0.0688998687214
 23
-0.0285392123213
 33
0.0
  0
SOLID
  5
E7
330
36
100
AcDbEntity
  8
0
  6
BYLAYER
 62
   256
100
AcDbTrace
 10
-0.0688998161957
 20
-0.0285392123213
 30
0.0
 11
-0.0688998161957
 21
0.0285392128249
 31
0.0
 12
0.0688998687214
 22
-0.0285392123213
 32
0.0
 13
0.0688998687214
 23
0.0285392128249
 33
0.0
  0
SOLID
  5
E8
330
36
100
AcDbEntity
  8
0
  6
BYLAYER
 62
   256
100
AcDbTrace
 10
-0.0688998161957
 20
0.0285392128249
 30
0.0
 11
-0.0688998161957
 21
0.0285392653183
 31
0.0
 12
0.0688998687214
 22
0.0285392128249
 32
0.0
 13
0.0688998687214
 23
0.0285392653183
 33
0.0
  0
SOLID
  5
E9
330
36
100
AcDbEntity
  8
0
  6
BYLAYER
 62
   256
100
AcDbTrace
 10
-0.0688998161957
 20
0.0285392653183
 30
0.0
 11
-0.0285391863102
 21
0.0688998427103
 31
0.0
 12
0.0688998687214
 22
0.0285392653183
 32
0.0
 13
0.0285392913294
 23
0.0688998427103
 33
0.0
  0
ENDBLK
  5
E4
330
36
100
AcDbEntity
  8
0
100
AcDbBlockEnd
  0
BLOCK
  5
EA
330
37
100
AcDbEntity
  8
0
100
AcDbBlockBegin
  2
CUSTOM_38
 70
     0
 10
0.0
 20
0.0
 30
0.0
  3
CUSTOM_38
  1

  0
SOLID
  5
EC
330
37
100
AcDbEntity
  8
0
  6
BYLAYER
 62
   256
100
AcDbTrace
 10
-0.0203853805432
 20
-0.0492148553475
 30
0.0
 11
-0.0492148293365
 21
-0.0203855115411
 31
0.0
 12
0.0203855380558
 22
-0.0492148553475
 32
0.0
 13
0.0492148293688
 23
-0.0203855115411
 33
0.0
  0
SOLID
  5
ED
330
37
100
AcDbEntity
  8
0
  6
BYLAYER
 62
   256
100
AcDbTrace
 10
-0.0492148293365
 20
-0.0203855115411
 30
0.0
 11
-0.0492148293365
 21
-0.0203854065542
 31
0.0
 12
0.0492148293688
 22
-0.0203855115411
 32
0.0
 13
0.0492148818622
 23
-0.0203854065542
 33
0.0
  0
SOLID
  5
EE
330
37
100
AcDbEntity
  8
0
  6
BYLAYER
 62
   256
100
AcDbTrace
 10
-0.0492148293365
 20
-0.0203854065542
 30
0.0
 11
-0.0492148293365
 21
0.0203854070579
 31
0.0
 12
0.0492148818622
 22
-0.0203854065542
 32
0.0
 13
0.0492148818622
 23
0.0203854070579
 33
0.0
  0
SOLID
  5
EF
330
37
100
AcDbEntity
  8
0
  6
BYLAYER
 62
   256
100
AcDbTrace
 10
-0.0492148293365
 20
0.0203854070579
 30
0.0
 11
-0.0492148293365
 21
0.0203855120447
 31
0.0
 12
0.0492148818622
 22
0.0203854070579
 32
0.0
 13
0.0492148818622
 23
0.0203855120447
 33
0.0
  0
SOLID
  5
F0
330
37
100
AcDbEntity
  8
0
  6
BYLAYER
 62
   256
100
AcDbTrace
 10
-0.0492148293365
 20
0.0203855120447
 30
0.0
 11
-0.0203854855301
 21
0.0492148558512
 31
0.0
 12
0.0492148818622
 22
0.0203855120447
 32
0.0
 13
0.0203854330689
 23
0.0492148558512
 33
0.0
  0
ENDBLK
  5
EB
330
37
100
AcDbEntity
  8
0
100
AcDbBlockEnd
  0
BLOCK
  5
F1
330
38
100
AcDbEntity
  8
0
100
AcDbBlockBegin
  2
CUSTOM_39
 70
     0
 10
0.0
 20
0.0
 30
0.0
  3
CUSTOM_39
  1

  0
SOLID
  5
F3
330
38
100
AcDbEntity
  8
0
  6
BYLAYER
 62
   256
100
AcDbTrace
 10
-0.00820553803433
 20
-0.0198099209904
 30
0.0
 11
-0.0198097899925
 21
-0.00820556404536
 31
0.0
 12
0.00820553806659
 22
-0.0198099209904
 32
0.0
 13
0.0198099475051
 23
-0.00820556404536
 33
0.0
  0
SOLID
  5
F4
330
38
100
AcDbEntity
  8
0
  6
BYLAYER
 62
   256
100
AcDbTrace
 10
-0.0198097899925
 20
-0.00820556404536
 30
0.0
 11
-0.0198098949794
 21
-0.00820551155192
 31
0.0
 12
0.0198099475051
 22
-0.00820556404536
 32
0.0
 13
0.0198099475051
 23
-0.00820551155192
 33
0.0
  0
SOLID
  5
F5
330
38
100
AcDbEntity
  8
0
  6
BYLAYER
 62
   256
100
AcDbTrace
 10
-0.0198098949794
 20
-0.00820551155192
 30
0.0
 11
-0.0198098949794
 21
0.00820551205556
 31
0.0
 12
0.0198099475051
 22
-0.00820551155192
 32
0.0
 13
0.0198099475051
 23
0.00820551205556
 33
0.0
  0
SOLID
  5
F6
330
38
100
AcDbEntity
  8
0
  6
BYLAYER
 62
   256
100
AcDbTrace
 10
-0.0198098949794
 20
0.00820551205556
 30
0.0
 11
-0.0198098949794
 21
0.008205564549
 31
0.0
 12
0.0198099475051
 22
0.00820551205556
 32
0.0
 13
0.0198099475051
 23
0.008205564549
 33
0.0
  0
SOLID
  5
F7
330
38
100
AcDbEntity
  8
0
  6
BYLAYER
 62
   256
100
AcDbTrace
 10
-0.0198098949794
 20
0.008205564549
 30
0.0
 11
-0.00820548554089
 21
0.0198099214941
 31
0.0
 12
0.0198099475051
 22
0.008205564549
 32
0.0
 13
0.00820559056003
 23
0.0198099214941
 33
0.0
  0
ENDBLK
  5
F2
330
38
100
AcDbEntity
  8
0
100
AcDbBlockEnd
  0
BLOCK
  5
F8
330
39
100
AcDbEntity
  8
0
100
AcDbBlockBegin
  2
RECTANGLE_40
 70
     0
 10
0.0
 20
0.0
 30
0.0
  3
RECTANGLE_40
  1

  0
SOLID
  5
FA
330
39
100
AcDbEntity
  8
0
  6
BYLAYER
 62
   256
100
AcDbTrace
 10
0.023684960625
 20
0.025654960859
 30
0.0
 11
0.023684960625
 21
-0.0256549603553
 31
0.0
 12
-0.0236849080993
 22
0.025654960859
 32
0.0
 13
-0.0236849080993
 23
-0.0256549603553
 33
0.0
  0
ENDBLK
  5
F9
330
39
100
AcDbEntity
  8
0
100
AcDbBlockEnd
  0
BLOCK
  5
FB
330
3A
100
AcDbEntity
  8
0
100
AcDbBlockBegin
  2
ROUND_41
 70
     0
 10
0.0
 20
0.0
 30
0.0
  3
ROUND_41
  1

  0
HATCH
  5
FD
330
3A
100
AcDbEntity
  8
0
100
AcDbHatch
 10
0.0
 20
0.0
 30
0.0
210
0.0
220
0.0
230
1.0
  2
SOLID
 70
     1
 71
     0
 91
     1
 92
     0
 93
     1
 72
     2
 10
0.0
 20
0.0
 40
0.0258099737304
 50
0.0
 51
360.0
 73
     1
 97
     0
 75
     0
 76
     1
 98
     1
 10
0.0
 20
0.0
  0
ENDBLK
  5
FC
330
3A
100
AcDbEntity
  8
0
100
AcDbBlockEnd
  0
BLOCK
  5
FE
330
3B
100
AcDbEntity
  8
0
100
AcDbBlockBegin
  2
RECTANGLE_42
 70
     0
 10
0.0
 20
0.0
 30
0.0
  3
RECTANGLE_42
  1

  0
SOLID
  5
100
330
3B
100
AcDbEntity
  8
0
  6
BYLAYER
 62
   256
100
AcDbTrace
 10
0.0394349868578
 20
0.0374649346018
 30
0.0
 11
0.0394349868578
 21
-0.0374649340981
 31
0.0
 12
-0.0394349343321
 22
0.0374649346018
 32
0.0
 13
-0.0394349343321
 23
-0.0374649340981
 33
0.0
  0
ENDBLK
  5
FF
330
3B
100
AcDbEntity
  8
0
100
AcDbBlockEnd
  0
BLOCK
  5
101
330
3C
100
AcDbEntity
  8
0
100
AcDbBlockBegin
  2
RECTANGLE_43
 70
     0
 10
0.0
 20
0.0
 30
0.0
  3
RECTANGLE_43
  1

  0
SOLID
  5
103
330
3C
100
AcDbEntity
  8
0
  6
BYLAYER
 62
   256
100
AcDbTrace
 10
0.0158100000021
 20
0.047304934593
 30
0.0
 11
0.0158100000021
 21
-0.0473049340894
 31
0.0
 12
-0.0158099474764
 22
0.047304934593
 32
0.0
 13
-0.0158099474764
 23
-0.0473049340894
 33
0.0
  0
ENDBLK
  5
102
330
3C
100
AcDbEntity
  8
0
100
AcDbBlockEnd
  0
BLOCK
  5
104
330
3D
100
AcDbEntity
  8
0
100
AcDbBlockBegin
  2
RECTANGLE_44
 70
     0
 10
0.0
 20
0.0
 30
0.0
  3
RECTANGLE_44
  1

  0
SOLID
  5
106
330
3D
100
AcDbEntity
  8
0
  6
BYLAYER
 62
   256
100
AcDbTrace
 10
0.023684960625
 20
0.0138449346227
 30
0.0
 11
0.023684960625
 21
-0.0138449341191
 31
0.0
 12
-0.0236849080993
 22
0.0138449346227
 32
0.0
 13
-0.0236849080993
 23
-0.0138449341191
 33
0.0
  0
ENDBLK
  5
105
330
3D
100
AcDbEntity
  8
0
100
AcDbBlockEnd
  0
BLOCK
  5
107
330
3E
100
AcDbEntity
  8
0
100
AcDbBlockBegin
  2
RECTANGLE_45
 70
     0
 10
0.0
 20
0.0
 30
0.0
  3
RECTANGLE_45
  1

  0
SOLID
  5
109
330
3E
100
AcDbEntity
  8
0
  6
BYLAYER
 62
   256
100
AcDbTrace
 10
0.02565498687
 20
0.023684934614
 30
0.0
 11
0.02565498687
 21
-0.0236849341104
 31
0.0
 12
-0.0256549343443
 22
0.023684934614
 32
0.0
 13
-0.0256549343443
 23
-0.0236849341104
 33
0.0
  0
ENDBLK
  5
108
330
3E
100
AcDbEntity
  8
0
100
AcDbBlockEnd
  0
BLOCK
  5
10A
330
3F
100
AcDbEntity
  8
0
100
AcDbBlockBegin
  2
SQUARE_46
 70
     0
 10
0.0
 20
0.0
 30
0.0
  3
SQUARE_46
  1

  0
SOLID
  5
10C
330
3F
100
AcDbEntity
  8
0
  6
BYLAYER
 62
   256
100
AcDbTrace
 10
0.0630549868368
 20
0.0630549608258
 30
0.0
 11
0.0630549868368
 21
-0.0630549603221
 31
0.0
 12
-0.0630549343111
 22
0.0630549608258
 32
0.0
 13
-0.0630549343111
 23
-0.0630549603221
 33
0.0
  0
ENDBLK
  5
10B
330
3F
100
AcDbEntity
  8
0
100
AcDbBlockEnd
  0
BLOCK
  5
10D
330
40
100
AcDbEntity
  8
0
100
AcDbBlockBegin
  2
CUSTOM_47
 70
     0
 10
0.0
 20
0.0
 30
0.0
  3
CUSTOM_47
  1

  0
SOLID
  5
10F
330
40
100
AcDbEntity
  8
0
  6
BYLAYER
 62
   256
100
AcDbTrace
 10
-0.0124263254322
 20
-0.0299998947347
 30
0.0
 11
-0.0299998687236
 21
-0.0124263514432
 31
0.0
 12
0.0124263779579
 22
-0.0299998947347
 32
0.0
 13
0.0299999212493
 23
-0.0124263514432
 33
0.0
  0
SOLID
  5
110
330
40
100
AcDbEntity
  8
0
  6
BYLAYER
 62
   256
100
AcDbTrace
 10
-0.0299998687236
 20
-0.0124263514432
 30
0.0
 11
-0.0299998687236
 21
0.0124263519468
 31
0.0
 12
0.0299999212493
 22
-0.0124263514432
 32
0.0
 13
0.0299999212493
 23
0.0124263519468
 33
0.0
  0
SOLID
  5
111
330
40
100
AcDbEntity
  8
0
  6
BYLAYER
 62
   256
100
AcDbTrace
 10
-0.0299998687236
 20
0.0124263519468
 30
0.0
 11
-0.0124263254322
 21
0.0299998952383
 31
0.0
 12
0.0299999212493
 22
0.0124263519468
 32
0.0
 13
0.0124263779579
 23
0.0299998952383
 33
0.0
  0
ENDBLK
  5
10E
330
40
100
AcDbEntity
  8
0
100
AcDbBlockEnd
  0
BLOCK
  5
112
330
41
100
AcDbEntity
  8
0
100
AcDbBlockBegin
  2
CUSTOM_48
 70
     0
 10
0.0
 20
0.0
 30
0.0
  3
CUSTOM_48
  1

  0
SOLID
  5
114
330
41
100
AcDbEntity
  8
0
  6
BYLAYER
 62
   256
100
AcDbTrace
 10
-0.0301960367025
 20
-0.0728998422031
 30
0.0
 11
-0.0728998161921
 21
-0.0301961152069
 31
0.0
 12
0.0301961417216
 22
-0.0728998422031
 32
0.0
 13
0.0728997637309
 23
-0.0301961152069
 33
0.0
  0
SOLID
  5
115
330
41
100
AcDbEntity
  8
0
  6
BYLAYER
 62
   256
100
AcDbTrace
 10
-0.0728998161921
 20
-0.0301961152069
 30
0.0
 11
-0.0728998161921
 21
-0.0301960627135
 31
0.0
 12
0.0728997637309
 22
-0.0301961152069
 32
0.0
 13
0.0728998687178
 23
-0.0301960627135
 33
0.0
  0
SOLID
  5
116
330
41
100
AcDbEntity
  8
0
  6
BYLAYER
 62
   256
100
AcDbTrace
 10
-0.0728998161921
 20
-0.0301960627135
 30
0.0
 11
-0.0728998161921
 21
0.0301960632171
 31
0.0
 12
0.0728998687178
 22
-0.0301960627135
 32
0.0
 13
0.0728998687178
 23
0.0301960632171
 33
0.0
  0
SOLID
  5
117
330
41
100
AcDbEntity
  8
0
  6
BYLAYER
 62
   256
100
AcDbTrace
 10
-0.0728998161921
 20
0.0301960632171
 30
0.0
 11
-0.0728998161921
 21
0.0301961157106
 31
0.0
 12
0.0728998687178
 22
0.0301960632171
 32
0.0
 13
0.0728998687178
 23
0.0301961157106
 33
0.0
  0
SOLID
  5
118
330
41
100
AcDbEntity
  8
0
  6
BYLAYER
 62
   256
100
AcDbTrace
 10
-0.0728998161921
 20
0.0301961157106
 30
0.0
 11
-0.0301960891959
 21
0.0728998427068
 31
0.0
 12
0.0728998687178
 22
0.0301961157106
 32
0.0
 13
0.0301960892282
 23
0.0728998427068
 33
0.0
  0
ENDBLK
  5
113
330
41
100
AcDbEntity
  8
0
100
AcDbBlockEnd
  0
BLOCK
  5
119
330
42
100
AcDbEntity
  8
0
100
AcDbBlockBegin
  2
CUSTOM_49
 70
     0
 10
0.0
 20
0.0
 30
0.0
  3
CUSTOM_49
  1

  0
SOLID
  5
11B
330
42
100
AcDbEntity
  8
0
  6
BYLAYER
 62
   256
100
AcDbTrace
 10
-0.0220422309354
 20
-0.053214855344
 30
0.0
 11
-0.0532148293329
 21
-0.0220423619333
 31
0.0
 12
0.022042388448
 22
-0.053214855344
 32
0.0
 13
0.0532148293652
 23
-0.0220423619333
 33
0.0
  0
SOLID
  5
11C
330
42
100
AcDbEntity
  8
0
  6
BYLAYER
 62
   256
100
AcDbTrace
 10
-0.0532148293329
 20
-0.0220423619333
 30
0.0
 11
-0.0532148293329
 21
-0.0220422569465
 31
0.0
 12
0.0532148293652
 22
-0.0220423619333
 32
0.0
 13
0.0532148818587
 23
-0.0220422569465
 33
0.0
  0
SOLID
  5
11D
330
42
100
AcDbEntity
  8
0
  6
BYLAYER
 62
   256
100
AcDbTrace
 10
-0.0532148293329
 20
-0.0220422569465
 30
0.0
 11
-0.0532148293329
 21
0.0220422574501
 31
0.0
 12
0.0532148818587
 22
-0.0220422569465
 32
0.0
 13
0.0532148818587
 23
0.0220422574501
 33
0.0
  0
SOLID
  5
11E
330
42
100
AcDbEntity
  8
0
  6
BYLAYER
 62
   256
100
AcDbTrace
 10
-0.0532148293329
 20
0.0220422574501
 30
0.0
 11
-0.0532148293329
 21
0.022042362437
 31
0.0
 12
0.0532148818587
 22
0.0220422574501
 32
0.0
 13
0.0532148818587
 23
0.022042362437
 33
0.0
  0
SOLID
  5
11F
330
42
100
AcDbEntity
  8
0
  6
BYLAYER
 62
   256
100
AcDbTrace
 10
-0.0532148293329
 20
0.022042362437
 30
0.0
 11
-0.0220423359223
 21
0.0532148558476
 31
0.0
 12
0.0532148818587
 22
0.022042362437
 32
0.0
 13
0.0220422834611
 23
0.0532148558476
 33
0.0
  0
ENDBLK
  5
11A
330
42
100
AcDbEntity
  8
0
100
AcDbBlockEnd
  0
BLOCK
  5
120
330
43
100
AcDbEntity
  8
0
100
AcDbBlockBegin
  2
SQUARE_50
 70
     0
 10
0.0
 20
0.0
 30
0.0
  3
SQUARE_50
  1

  0
SOLID
  5
122
330
43
100
AcDbEntity
  8
0
  6
BYLAYER
 62
   256
100
AcDbTrace
 10
0.0355000262313
 20
0.0355000002203
 30
0.0
 11
0.0355000262313
 21
-0.0354999997167
 31
0.0
 12
-0.0354999737056
 22
0.0355000002203
 32
0.0
 13
-0.0354999737056
 23
-0.0354999997167
 33
0.0
  0
ENDBLK
  5
121
330
43
100
AcDbEntity
  8
0
100
AcDbBlockEnd
  0
BLOCK
  5
123
330
44
100
AcDbEntity
  8
0
100
AcDbBlockBegin
  2
ROUND_51
 70
     0
 10
0.0
 20
0.0
 30
0.0
  3
ROUND_51
  1

  0
HATCH
  5
125
330
44
100
AcDbEntity
  8
0
100
AcDbHatch
 10
0.0
 20
0.0
 30
0.0
210
0.0
220
0.0
230
1.0
  2
SOLID
 70
     1
 71
     0
 91
     1
 92
     0
 93
     1
 72
     2
 10
0.0
 20
0.0
 40
0.0238099737321
 50
0.0
 51
360.0
 73
     1
 97
     0
 75
     0
 76
     1
 98
     1
 10
0.0
 20
0.0
  0
ENDBLK
  5
124
330
44
100
AcDbEntity
  8
0
100
AcDbBlockEnd
  0
BLOCK
  5
126
330
45
100
AcDbEntity
  8
0
100
AcDbBlockBegin
  2
CUSTOM_52
 70
     0
 10
0.0
 20
0.0
 30
0.0
  3
CUSTOM_52
  1

  0
SOLID
  5
128
330
45
100
AcDbEntity
  8
0
  6
BYLAYER
 62
   256
100
AcDbTrace
 10
-0.00986238842656
 20
-0.0238099209869
 30
0.0
 11
-0.023809789989
 21
-0.00986241443759
 31
0.0
 12
0.00986238845882
 22
-0.0238099209869
 32
0.0
 13
0.0238099475016
 23
-0.00986241443759
 33
0.0
  0
SOLID
  5
129
330
45
100
AcDbEntity
  8
0
  6
BYLAYER
 62
   256
100
AcDbTrace
 10
-0.023809789989
 20
-0.00986241443759
 30
0.0
 11
-0.0238098949759
 21
-0.00986236194415
 31
0.0
 12
0.0238099475016
 22
-0.00986241443759
 32
0.0
 13
0.0238099475016
 23
-0.00986236194415
 33
0.0
  0
SOLID
  5
12A
330
45
100
AcDbEntity
  8
0
  6
BYLAYER
 62
   256
100
AcDbTrace
 10
-0.0238098949759
 20
-0.00986236194415
 30
0.0
 11
-0.0238098949759
 21
0.00986236244779
 31
0.0
 12
0.0238099475016
 22
-0.00986236194415
 32
0.0
 13
0.0238099475016
 23
0.00986236244779
 33
0.0
  0
SOLID
  5
12B
330
45
100
AcDbEntity
  8
0
  6
BYLAYER
 62
   256
100
AcDbTrace
 10
-0.0238098949759
 20
0.00986236244779
 30
0.0
 11
-0.0238098949759
 21
0.00986241494123
 31
0.0
 12
0.0238099475016
 22
0.00986236244779
 32
0.0
 13
0.0238099475016
 23
0.00986241494123
 33
0.0
  0
SOLID
  5
12C
330
45
100
AcDbEntity
  8
0
  6
BYLAYER
 62
   256
100
AcDbTrace
 10
-0.0238098949759
 20
0.00986241494123
 30
0.0
 11
-0.00986233593312
 21
0.0238099214905
 31
0.0
 12
0.0238099475016
 22
0.00986241494123
 32
0.0
 13
0.00986244095226
 23
0.0238099214905
 33
0.0
  0
ENDBLK
  5
127
330
45
100
AcDbEntity
  8
0
100
AcDbBlockEnd
  0
BLOCK
  5
12D
330
46
100
AcDbEntity
  8
0
100
AcDbBlockBegin
  2
RECTANGLE_53
 70
     0
 10
0.0
 20
0.0
 30
0.0
  3
RECTANGLE_53
  1

  0
SOLID
  5
12F
330
46
100
AcDbEntity
  8
0
  6
BYLAYER
 62
   256
100
AcDbTrace
 10
0.0374649606128
 20
0.0394349608467
 30
0.0
 11
0.0374649606128
 21
-0.0394349603431
 31
0.0
 12
-0.0374649080871
 22
0.0394349608467
 32
0.0
 13
-0.0374649080871
 23
-0.0394349603431
 33
0.0
  0
ENDBLK
  5
12E
330
46
100
AcDbEntity
  8
0
100
AcDbBlockEnd
  0
BLOCK
  5
130
330
47
100
AcDbEntity
  8
0
100
AcDbBlockBegin
  2
RECTANGLE_54
 70
     0
 10
0.0
 20
0.0
 30
0.0
  3
RECTANGLE_54
  1

  0
SOLID
  5
132
330
47
100
AcDbEntity
  8
0
  6
BYLAYER
 62
   256
100
AcDbTrace
 10
0.0480000262202
 20
0.028000000227
 30
0.0
 11
0.0480000262202
 21
-0.0279999997233
 31
0.0
 12
-0.0479999736945
 22
0.028000000227
 32
0.0
 13
-0.0479999736945
 23
-0.0279999997233
 33
0.0
  0
ENDBLK
  5
131
330
47
100
AcDbEntity
  8
0
100
AcDbBlockEnd
  0
BLOCK
  5
133
330
48
100
AcDbEntity
  8
0
100
AcDbBlockBegin
  2
RECTANGLE_55
 70
     0
 10
0.0
 20
0.0
 30
0.0
  3
RECTANGLE_55
  1

  0
SOLID
  5
135
330
48
100
AcDbEntity
  8
0
  6
BYLAYER
 62
   256
100
AcDbTrace
 10
0.0473049606041
 20
0.0748649345686
 30
0.0
 11
0.0473049606041
 21
-0.0748649340649
 31
0.0
 12
-0.0473049080784
 22
0.0748649345686
 32
0.0
 13
-0.0473049080784
 23
-0.0748649340649
 33
0.0
  0
ENDBLK
  5
134
330
48
100
AcDbEntity
  8
0
100
AcDbBlockEnd
  0
BLOCK
  5
136
330
49
100
AcDbEntity
  8
0
100
AcDbBlockBegin
  2
RECTANGLE_56
 70
     0
 10
0.0
 20
0.0
 30
0.0
  3
RECTANGLE_56
  1

  0
SOLID
  5
138
330
49
100
AcDbEntity
  8
0
  6
BYLAYER
 62
   256
100
AcDbTrace
 10
0.0217149868735
 20
0.0197499739876
 30
0.0
 11
0.0217149868735
 21
-0.0197499734839
 31
0.0
 12
-0.0217149343478
 22
0.0197499739876
 32
0.0
 13
-0.0217149343478
 23
-0.0197499734839
 33
0.0
  0
ENDBLK
  5
137
330
49
100
AcDbEntity
  8
0
100
AcDbBlockEnd
  0
BLOCK
  5
139
330
4A
100
AcDbEntity
  8
0
100
AcDbBlockBegin
  2
CUSTOM_57
 70
     0
 10
0.0
 20
0.0
 30
0.0
  3
CUSTOM_57
  1

  0
SOLID
  5
13B
330
4A
100
AcDbEntity
  8
0
  6
BYLAYER
 62
   256
100
AcDbTrace
 10
-0.0124263254322
 20
-0.0299998947347
 30
0.0
 11
-0.0299998687236
 21
-0.0124263514432
 31
0.0
 12
0.0124263779579
 22
-0.0299998947347
 32
0.0
 13
0.0299999212493
 23
-0.0124263514432
 33
0.0
  0
SOLID
  5
13C
330
4A
100
AcDbEntity
  8
0
  6
BYLAYER
 62
   256
100
AcDbTrace
 10
-0.0299998687236
 20
-0.0124263514432
 30
0.0
 11
-0.0299998687236
 21
0.0124263519468
 31
0.0
 12
0.0299999212493
 22
-0.0124263514432
 32
0.0
 13
0.0299999212493
 23
0.0124263519468
 33
0.0
  0
SOLID
  5
13D
330
4A
100
AcDbEntity
  8
0
  6
BYLAYER
 62
   256
100
AcDbTrace
 10
-0.0299998687236
 20
0.0124263519468
 30
0.0
 11
-0.0124263254322
 21
0.0299998952383
 31
0.0
 12
0.0299999212493
 22
0.0124263519468
 32
0.0
 13
0.0124263779579
 23
0.0299998952383
 33
0.0
  0
ENDBLK
  5
13A
330
4A
100
AcDbEntity
  8
0
100
AcDbBlockEnd
  0
BLOCK
  5
13E
330
4B
100
AcDbEntity
  8
0
100
AcDbBlockBegin
  2
CUSTOM_58
 70
     0
 10
0.0
 20
0.0
 30
0.0
  3
CUSTOM_58
  1

  0
SOLID
  5
140
330
4B
100
AcDbEntity
  8
0
  6
BYLAYER
 62
   256
100
AcDbTrace
 10
-0.0301960367025
 20
-0.0728998422031
 30
0.0
 11
-0.0728998161921
 21
-0.0301961152069
 31
0.0
 12
0.0301961417216
 22
-0.0728998422031
 32
0.0
 13
0.0728997637309
 23
-0.0301961152069
 33
0.0
  0
SOLID
  5
141
330
4B
100
AcDbEntity
  8
0
  6
BYLAYER
 62
   256
100
AcDbTrace
 10
-0.0728998161921
 20
-0.0301961152069
 30
0.0
 11
-0.0728998161921
 21
-0.0301960627135
 31
0.0
 12
0.0728997637309
 22
-0.0301961152069
 32
0.0
 13
0.0728998687178
 23
-0.0301960627135
 33
0.0
  0
SOLID
  5
142
330
4B
100
AcDbEntity
  8
0
  6
BYLAYER
 62
   256
100
AcDbTrace
 10
-0.0728998161921
 20
-0.0301960627135
 30
0.0
 11
-0.0728998161921
 21
0.0301960632171
 31
0.0
 12
0.0728998687178
 22
-0.0301960627135
 32
0.0
 13
0.0728998687178
 23
0.0301960632171
 33
0.0
  0
SOLID
  5
143
330
4B
100
AcDbEntity
  8
0
  6
BYLAYER
 62
   256
100
AcDbTrace
 10
-0.0728998161921
 20
0.0301960632171
 30
0.0
 11
-0.0728998161921
 21
0.0301961157106
 31
0.0
 12
0.0728998687178
 22
0.0301960632171
 32
0.0
 13
0.0728998687178
 23
0.0301961157106
 33
0.0
  0
SOLID
  5
144
330
4B
100
AcDbEntity
  8
0
  6
BYLAYER
 62
   256
100
AcDbTrace
 10
-0.0728998161921
 20
0.0301961157106
 30
0.0
 11
-0.0301960891959
 21
0.0728998427068
 31
0.0
 12
0.0728998687178
 22
0.0301961157106
 32
0.0
 13
0.0301960892282
 23
0.0728998427068
 33
0.0
  0
ENDBLK
  5
13F
330
4B
100
AcDbEntity
  8
0
100
AcDbBlockEnd
  0
BLOCK
  5
145
330
4C
100
AcDbEntity
  8
0
100
AcDbBlockBegin
  2
CUSTOM_59
 70
     0
 10
0.0
 20
0.0
 30
0.0
  3
CUSTOM_59
  1

  0
SOLID
  5
147
330
4C
100
AcDbEntity
  8
0
  6
BYLAYER
 62
   256
100
AcDbTrace
 10
-0.0220422309354
 20
-0.053214855344
 30
0.0
 11
-0.0532148293329
 21
-0.0220423619333
 31
0.0
 12
0.022042388448
 22
-0.053214855344
 32
0.0
 13
0.0532148293652
 23
-0.0220423619333
 33
0.0
  0
SOLID
  5
148
330
4C
100
AcDbEntity
  8
0
  6
BYLAYER
 62
   256
100
AcDbTrace
 10
-0.0532148293329
 20
-0.0220423619333
 30
0.0
 11
-0.0532148293329
 21
-0.0220422569465
 31
0.0
 12
0.0532148293652
 22
-0.0220423619333
 32
0.0
 13
0.0532148818587
 23
-0.0220422569465
 33
0.0
  0
SOLID
  5
149
330
4C
100
AcDbEntity
  8
0
  6
BYLAYER
 62
   256
100
AcDbTrace
 10
-0.0532148293329
 20
-0.0220422569465
 30
0.0
 11
-0.0532148293329
 21
0.0220422574501
 31
0.0
 12
0.0532148818587
 22
-0.0220422569465
 32
0.0
 13
0.0532148818587
 23
0.0220422574501
 33
0.0
  0
SOLID
  5
14A
330
4C
100
AcDbEntity
  8
0
  6
BYLAYER
 62
   256
100
AcDbTrace
 10
-0.0532148293329
 20
0.0220422574501
 30
0.0
 11
-0.0532148293329
 21
0.022042362437
 31
0.0
 12
0.0532148818587
 22
0.0220422574501
 32
0.0
 13
0.0532148818587
 23
0.022042362437
 33
0.0
  0
SOLID
  5
14B
330
4C
100
AcDbEntity
  8
0
  6
BYLAYER
 62
   256
100
AcDbTrace
 10
-0.0532148293329
 20
0.022042362437
 30
0.0
 11
-0.0220423359223
 21
0.0532148558476
 31
0.0
 12
0.0532148818587
 22
0.022042362437
 32
0.0
 13
0.0220422834611
 23
0.0532148558476
 33
0.0
  0
ENDBLK
  5
146
330
4C
100
AcDbEntity
  8
0
100
AcDbBlockEnd
  0
BLOCK
  5
14C
330
4D
100
AcDbEntity
  8
0
100
AcDbBlockBegin
  2
RECTANGLE_60
 70
     0
 10
0.0
 20
0.0
 30
0.0
  3
RECTANGLE_60
  1

  0
SOLID
  5
14E
330
4D
100
AcDbEntity
  8
0
  6
BYLAYER
 62
   256
100
AcDbTrace
 10
0.0339200262327
 20
0.0390400002172
 30
0.0
 11
0.0339200262327
 21
-0.0390399997135
 31
0.0
 12
-0.033919973707
 22
0.0390400002172
 32
0.0
 13
-0.033919973707
 23
-0.0390399997135
 33
0.0
  0
ENDBLK
  5
14D
330
4D
100
AcDbEntity
  8
0
100
AcDbBlockEnd
  0
BLOCK
  5
14F
330
4E
100
AcDbEntity
  8
0
100
AcDbBlockBegin
  2
CUSTOM_61
 70
     0
 10
0.0
 20
0.0
 30
0.0
  3
CUSTOM_61
  1

  0
SOLID
  5
151
330
4E
100
AcDbEntity
  8
0
  6
BYLAYER
 62
   256
100
AcDbTrace
 10
-0.00986238842656
 20
-0.0238099209869
 30
0.0
 11
-0.023809789989
 21
-0.00986241443759
 31
0.0
 12
0.00986238845882
 22
-0.0238099209869
 32
0.0
 13
0.0238099475016
 23
-0.00986241443759
 33
0.0
  0
SOLID
  5
152
330
4E
100
AcDbEntity
  8
0
  6
BYLAYER
 62
   256
100
AcDbTrace
 10
-0.023809789989
 20
-0.00986241443759
 30
0.0
 11
-0.0238098949759
 21
-0.00986236194415
 31
0.0
 12
0.0238099475016
 22
-0.00986241443759
 32
0.0
 13
0.0238099475016
 23
-0.00986236194415
 33
0.0
  0
SOLID
  5
153
330
4E
100
AcDbEntity
  8
0
  6
BYLAYER
 62
   256
100
AcDbTrace
 10
-0.0238098949759
 20
-0.00986236194415
 30
0.0
 11
-0.0238098949759
 21
0.00986236244779
 31
0.0
 12
0.0238099475016
 22
-0.00986236194415
 32
0.0
 13
0.0238099475016
 23
0.00986236244779
 33
0.0
  0
SOLID
  5
154
330
4E
100
AcDbEntity
  8
0
  6
BYLAYER
 62
   256
100
AcDbTrace
 10
-0.0238098949759
 20
0.00986236244779
 30
0.0
 11
-0.0238098949759
 21
0.00986241494123
 31
0.0
 12
0.0238099475016
 22
0.00986236244779
 32
0.0
 13
0.0238099475016
 23
0.00986241494123
 33
0.0
  0
SOLID
  5
155
330
4E
100
AcDbEntity
  8
0
  6
BYLAYER
 62
   256
100
AcDbTrace
 10
-0.0238098949759
 20
0.00986241494123
 30
0.0
 11
-0.00986233593312
 21
0.0238099214905
 31
0.0
 12
0.0238099475016
 22
0.00986241494123
 32
0.0
 13
0.00986244095226
 23
0.0238099214905
 33
0.0
  0
ENDBLK
  5
150
330
4E
100
AcDbEntity
  8
0
100
AcDbBlockEnd
  0
ENDSEC
  0
SECTION
  2
ENTITIES
  0
INSERT
  5
156
330
10
100
AcDbEntity
  8
TRACTOR_CMP
100
AcDbBlockReference
  2
RECTANGLE_2
 10
1.35380002506
 20
0.574139999742
 30
0.0
  0
INSERT
  5
157
330
10
100
AcDbEntity
  8
TRACTOR_CMP
100
AcDbBlockReference
  2
RECTANGLE_2
 10
1.35380002506
 20
0.641069973436
 30
0.0
  0
INSERT
  5
158
330
10
100
AcDbEntity
  8
TRACTOR_CMP
100
AcDbBlockReference
  2
RECTANGLE_2
 10
1.52348999866
 20
0.485359999821
 30
0.0
  0
INSERT
  5
159
330
10
100
AcDbEntity
  8
TRACTOR_CMP
100
AcDbBlockReference
  2
RECTANGLE_2
 10
1.59042002485
 20
0.485359999821
 30
0.0
  0
INSERT
  5
15A
330
10
100
AcDbEntity
  8
TRACTOR_CMP
100
AcDbBlockReference
  2
RECTANGLE_2
 10
1.86066999836
 20
0.493119999814
 30
0.0
  0
INSERT
  5
15B
330
10
100
AcDbEntity
  8
TRACTOR_CMP
100
AcDbBlockReference
  2
RECTANGLE_2
 10
1.92760002455
 20
0.493119999814
 30
0.0
  0
INSERT
  5
15C
330
10
100
AcDbEntity
  8
TRACTOR_CMP
100
AcDbBlockReference
  2
RECTANGLE_2
 10
2.28342002424
 20
0.779809973313
 30
0.0
  0
INSERT
  5
15D
330
10
100
AcDbEntity
  8
TRACTOR_CMP
100
AcDbBlockReference
  2
RECTANGLE_2
 10
2.35034002418
 20
0.779809973313
 30
0.0
  0
INSERT
  5
15E
330
10
100
AcDbEntity
  8
TRACTOR_CMP
100
AcDbBlockReference
  2
RECTANGLE_2
 10
2.35018002418
 20
0.882369973222
 30
0.0
  0
INSERT
  5
15F
330
10
100
AcDbEntity
  8
TRACTOR_CMP
100
AcDbBlockReference
  2
RECTANGLE_2
 10
2.28324999799
 20
0.882369973222
 30
0.0
  0
INSERT
  5
160
330
10
100
AcDbEntity
  8
TRACTOR_CMP
100
AcDbBlockReference
  2
RECTANGLE_2
 10
2.28252999799
 20
0.98225999938
 30
0.0
  0
INSERT
  5
161
330
10
100
AcDbEntity
  8
TRACTOR_CMP
100
AcDbBlockReference
  2
RECTANGLE_2
 10
2.34946002418
 20
0.98225999938
 30
0.0
  0
INSERT
  5
162
330
10
100
AcDbEntity
  8
TRACTOR_CMP
100
AcDbBlockReference
  2
RECTANGLE_2
 10
2.34962002418
 20
1.08380997304
 30
0.0
  0
INSERT
  5
163
330
10
100
AcDbEntity
  8
TRACTOR_CMP
100
AcDbBlockReference
  2
RECTANGLE_2
 10
2.28268999799
 20
1.08380997304
 30
0.0
  0
INSERT
  5
164
330
10
100
AcDbEntity
  8
TRACTOR_CMP
100
AcDbBlockReference
  2
RECTANGLE_2
 10
1.69696002476
 20
1.05970997306
 30
0.0
  0
INSERT
  5
165
330
10
100
AcDbEntity
  8
TRACTOR_CMP
100
AcDbBlockReference
  2
RECTANGLE_2
 10
1.63002999857
 20
1.05970997306
 30
0.0
  0
INSERT
  5
166
330
10
100
AcDbEntity
  8
TRACTOR_CMP
100
AcDbBlockReference
  2
RECTANGLE_2
 10
1.6444600248
 20
0.959049973154
 30
0.0
  0
INSERT
  5
167
330
10
100
AcDbEntity
  8
TRACTOR_CMP
100
AcDbBlockReference
  2
RECTANGLE_2
 10
1.57752999862
 20
0.959049973154
 30
0.0
  0
INSERT
  5
168
330
10
100
AcDbEntity
  8
TRACTOR_CMP
100
AcDbBlockReference
  2
RECTANGLE_16
 10
2.65312002391
 20
1.32186997283
 30
0.0
  0
INSERT
  5
169
330
10
100
AcDbEntity
  8
TRACTOR_CMP
100
AcDbBlockReference
  2
RECTANGLE_16
 10
2.81452999752
 20
1.32186997283
 30
0.0
  0
INSERT
  5
16A
330
10
100
AcDbEntity
  8
TRACTOR_CMP
100
AcDbBlockReference
  2
RECTANGLE_28
 10
1.75084002471
 20
0.786399999554
 30
0.0
  0
INSERT
  5
16B
330
10
100
AcDbEntity
  8
TRACTOR_CMP
100
AcDbBlockReference
  2
RECTANGLE_28
 10
1.70084002475
 20
0.786399999554
 30
0.0
  0
INSERT
  5
16C
330
10
100
AcDbEntity
  8
TRACTOR_CMP
100
AcDbBlockReference
  2
RECTANGLE_28
 10
1.6508400248
 20
0.786399999554
 30
0.0
  0
INSERT
  5
16D
330
10
100
AcDbEntity
  8
TRACTOR_CMP
100
AcDbBlockReference
  2
RECTANGLE_28
 10
1.60084002484
 20
0.786399999554
 30
0.0
  0
INSERT
  5
16E
330
10
100
AcDbEntity
  8
TRACTOR_CMP
100
AcDbBlockReference
  2
RECTANGLE_28
 10
1.55084002489
 20
0.786399999554
 30
0.0
  0
INSERT
  5
16F
330
10
100
AcDbEntity
  8
TRACTOR_CMP
100
AcDbBlockReference
  2
RECTANGLE_28
 10
1.50084002493
 20
0.786399999554
 30
0.0
  0
INSERT
  5
170
330
10
100
AcDbEntity
  8
TRACTOR_CMP
100
AcDbBlockReference
  2
RECTANGLE_28
 10
1.45084002497
 20
0.786399999554
 30
0.0
  0
INSERT
  5
171
330
10
100
AcDbEntity
  8
TRACTOR_CMP
100
AcDbBlockReference
  2
RECTANGLE_28
 10
1.45084002497
 20
0.581679999735
 30
0.0
  0
INSERT
  5
172
330
10
100
AcDbEntity
  8
TRACTOR_CMP
100
AcDbBlockReference
  2
RECTANGLE_28
 10
1.50084002493
 20
0.581679999735
 30
0.0
  0
INSERT
  5
173
330
10
100
AcDbEntity
  8
TRACTOR_CMP
100
AcDbBlockReference
  2
RECTANGLE_28
 10
1.55084002489
 20
0.581679999735
 30
0.0
  0
INSERT
  5
174
330
10
100
AcDbEntity
  8
TRACTOR_CMP
100
AcDbBlockReference
  2
RECTANGLE_28
 10
1.60084002484
 20
0.581679999735
 30
0.0
  0
INSERT
  5
175
330
10
100
AcDbEntity
  8
TRACTOR_CMP
100
AcDbBlockReference
  2
RECTANGLE_28
 10
1.6508400248
 20
0.581679999735
 30
0.0
  0
INSERT
  5
176
330
10
100
AcDbEntity
  8
TRACTOR_CMP
100
AcDbBlockReference
  2
RECTANGLE_28
 10
1.70084002475
 20
0.581679999735
 30
0.0
  0
INSERT
  5
177
330
10
100
AcDbEntity
  8
TRACTOR_CMP
100
AcDbBlockReference
  2
RECTANGLE_28
 10
1.75084002471
 20
0.581679999735
 30
0.0
  0
INSERT
  5
178
330
10
100
AcDbEntity
  8
TRACTOR_CMP
100
AcDbBlockReference
  2
RECTANGLE_29
 10
1.92930002455
 20
0.782779999557
 30
0.0
  0
INSERT
  5
179
330
10
100
AcDbEntity
  8
TRACTOR_CMP
100
AcDbBlockReference
  2
RECTANGLE_29
 10
1.92930002455
 20
0.832779999512
 30
0.0
  0
INSERT
  5
17A
330
10
100
AcDbEntity
  8
TRACTOR_CMP
100
AcDbBlockReference
  2
RECTANGLE_29
 10
1.92930002455
 20
0.882779999468
 30
0.0
  0
INSERT
  5
17B
330
10
100
AcDbEntity
  8
TRACTOR_CMP
100
AcDbBlockReference
  2
RECTANGLE_29
 10
1.92930002455
 20
0.932779999424
 30
0.0
  0
INSERT
  5
17C
330
10
100
AcDbEntity
  8
TRACTOR_CMP
100
AcDbBlockReference
  2
RECTANGLE_29
 10
1.92930002455
 20
0.982779999379
 30
0.0
  0
INSERT
  5
17D
330
10
100
AcDbEntity
  8
TRACTOR_CMP
100
AcDbBlockReference
  2
RECTANGLE_29
 10
1.92930002455
 20
1.03277999933
 30
0.0
  0
INSERT
  5
17E
330
10
100
AcDbEntity
  8
TRACTOR_CMP
100
AcDbBlockReference
  2
RECTANGLE_29
 10
1.92930002455
 20
1.08277999929
 30
0.0
  0
INSERT
  5
17F
330
10
100
AcDbEntity
  8
TRACTOR_CMP
100
AcDbBlockReference
  2
RECTANGLE_29
 10
1.92930002455
 20
1.13277999925
 30
0.0
  0
INSERT
  5
180
330
10
100
AcDbEntity
  8
TRACTOR_CMP
100
AcDbBlockReference
  2
RECTANGLE_29
 10
2.18442002432
 20
1.13277999925
 30
0.0
  0
INSERT
  5
181
330
10
100
AcDbEntity
  8
TRACTOR_CMP
100
AcDbBlockReference
  2
RECTANGLE_29
 10
2.18442002432
 20
1.08277999929
 30
0.0
  0
INSERT
  5
182
330
10
100
AcDbEntity
  8
TRACTOR_CMP
100
AcDbBlockReference
  2
RECTANGLE_29
 10
2.18442002432
 20
1.03277999933
 30
0.0
  0
INSERT
  5
183
330
10
100
AcDbEntity
  8
TRACTOR_CMP
100
AcDbBlockReference
  2
RECTANGLE_29
 10
2.18442002432
 20
0.982779999379
 30
0.0
  0
INSERT
  5
184
330
10
100
AcDbEntity
  8
TRACTOR_CMP
100
AcDbBlockReference
  2
RECTANGLE_29
 10
2.18442002432
 20
0.932779999424
 30
0.0
  0
INSERT
  5
185
330
10
100
AcDbEntity
  8
TRACTOR_CMP
100
AcDbBlockReference
  2
RECTANGLE_29
 10
2.18442002432
 20
0.882779999468
 30
0.0
  0
INSERT
  5
186
330
10
100
AcDbEntity
  8
TRACTOR_CMP
100
AcDbBlockReference
  2
RECTANGLE_29
 10
2.18442002432
 20
0.832779999512
 30
0.0
  0
INSERT
  5
187
330
10
100
AcDbEntity
  8
TRACTOR_CMP
100
AcDbBlockReference
  2
RECTANGLE_29
 10
2.18442002432
 20
0.782779999557
 30
0.0
  0
INSERT
  5
188
330
10
100
AcDbEntity
  8
TRACTOR_CMP
100
AcDbBlockReference
  2
RECTANGLE_8
 10
1.83894999838
 20
0.717459999615
 30
0.0
  0
INSERT
  5
189
330
10
100
AcDbEntity
  8
TRACTOR_CMP
100
AcDbBlockReference
  2
RECTANGLE_8
 10
1.83894999838
 20
0.650529973428
 30
0.0
  0
INSERT
  5
18A
330
10
100
AcDbEntity
  8
TRACTOR_CMP
100
AcDbBlockReference
  2
RECTANGLE_8
 10
1.76054999845
 20
0.874599999475
 30
0.0
  0
INSERT
  5
18B
330
10
100
AcDbEntity
  8
TRACTOR_CMP
100
AcDbBlockReference
  2
RECTANGLE_8
 10
1.76054999845
 20
0.941529973169
 30
0.0
  0
INSERT
  5
18C
330
10
100
AcDbEntity
  8
TRACTOR_CMP
100
AcDbBlockReference
  2
RECTANGLE_8
 10
1.71690002474
 20
0.43420997362
 30
0.0
  0
INSERT
  5
18D
330
10
100
AcDbEntity
  8
TRACTOR_CMP
100
AcDbBlockReference
  2
RECTANGLE_8
 10
1.64996999855
 20
0.43420997362
 30
0.0
  0
INSERT
  5
18E
330
10
100
AcDbEntity
  8
TRACTOR_CMP
100
AcDbBlockReference
  2
SQUARE_9
 10
2.7690800238
 20
0.405989973645
 30
0.0
  0
INSERT
  5
18F
330
10
100
AcDbEntity
  8
TRACTOR_CMP
100
AcDbBlockReference
  2
SQUARE_9
 10
2.95064002364
 20
0.528799999782
 30
0.0
  0
INSERT
  5
190
330
10
100
AcDbEntity
  8
TRACTOR_CMP
100
AcDbBlockReference
  2
SQUARE_9
 10
2.76790002381
 20
0.617379999704
 30
0.0
  0
INSERT
  5
191
330
10
100
AcDbEntity
  8
TRACTOR_CMP
100
AcDbBlockReference
  2
SQUARE_9
 10
2.95196002364
 20
0.832269973266
 30
0.0
  0
INSERT
  5
192
330
10
100
AcDbEntity
  8
TRACTOR_CMP
100
AcDbBlockReference
  2
SQUARE_9
 10
2.76746002381
 20
0.921759999433
 30
0.0
  0
INSERT
  5
193
330
10
100
AcDbEntity
  8
TRACTOR_CMP
100
AcDbBlockReference
  2
SQUARE_9
 10
2.95458999739
 20
1.01417999935
 30
0.0
  0
INSERT
  5
194
330
10
100
AcDbEntity
  8
TRACTOR_CMP
100
AcDbBlockReference
  2
SQUARE_9
 10
2.76634999756
 20
1.10814997302
 30
0.0
  0
INSERT
  5
195
330
10
100
AcDbEntity
  8
TRACTOR_CMP
100
AcDbBlockReference
  2
SQUARE_9
 10
2.95360002364
 20
1.23206997291
 30
0.0
  0
INSERT
  5
196
330
10
100
AcDbEntity
  8
TRACTOR_CMP
100
AcDbBlockReference
  2
CUSTOM_30
 10
2.16926002434
 20
0.675159999652
 30
0.0
  0
INSERT
  5
197
330
10
100
AcDbEntity
  8
TRACTOR_CMP
100
AcDbBlockReference
  2
CUSTOM_30
 10
2.0942600244
 20
0.625159999697
 30
0.0
  0
INSERT
  5
198
330
10
100
AcDbEntity
  8
TRACTOR_CMP
100
AcDbBlockReference
  2
CUSTOM_30
 10
2.16926002434
 20
0.575159999741
 30
0.0
  0
INSERT
  5
199
330
10
100
AcDbEntity
  8
TRACTOR_CMP
100
AcDbBlockReference
  2
CUSTOM_31
 10
1.0339299991
 20
0.570429973499
 30
0.0
  0
INSERT
  5
19A
330
10
100
AcDbEntity
  8
TRACTOR_CMP
100
AcDbBlockReference
  2
CUSTOM_31
 10
0.575269999505
 20
0.656259999669
 30
0.0
  0
INSERT
  5
19B
330
10
100
AcDbEntity
  8
TRACTOR_CMP
100
AcDbBlockReference
  2
CUSTOM_31
 10
0.575269999505
 20
1.10546997302
 30
0.0
  0
INSERT
  5
19C
330
10
100
AcDbEntity
  8
TRACTOR_CMP
100
AcDbBlockReference
  2
CUSTOM_31
 10
1.12606002526
 20
1.20979999918
 30
0.0
  0
INSERT
  5
19D
330
10
100
AcDbEntity
  8
TRACTOR_CMP
100
AcDbBlockReference
  2
CUSTOM_32
 10
1.03984002534
 20
0.999169973118
 30
0.0
  0
INSERT
  5
19E
330
10
100
AcDbEntity
  8
TRACTOR_CMP
100
AcDbBlockReference
  2
CUSTOM_32
 10
1.03786999909
 20
0.832239999513
 30
0.0
  0
INSERT
  5
19F
330
10
100
AcDbEntity
  8
TRACTOR_CMP
100
AcDbBlockReference
  2
SQUARE_17
 10
1.0283099991
 20
0.356259999936
 30
0.0
  0
INSERT
  5
1A0
330
10
100
AcDbEntity
  8
TRACTOR_CMP
100
AcDbBlockReference
  2
SQUARE_17
 10
0.927529999193
 20
0.355869973689
 30
0.0
  0
INSERT
  5
1A1
330
10
100
AcDbEntity
  8
TRACTOR_CMP
100
AcDbBlockReference
  2
SQUARE_17
 10
0.82870999928
 20
0.355869973689
 30
0.0
  0
INSERT
  5
1A2
330
10
100
AcDbEntity
  8
TRACTOR_CMP
100
AcDbBlockReference
  2
SQUARE_17
 10
0.728709999369
 20
0.35468997369
 30
0.0
  0
INSERT
  5
1A3
330
10
100
AcDbEntity
  8
TRACTOR_CMP
100
AcDbBlockReference
  2
SQUARE_17
 10
0.62634999946
 20
0.35546997369
 30
0.0
  0
INSERT
  5
1A4
330
10
100
AcDbEntity
  8
TRACTOR_CMP
100
AcDbBlockReference
  2
ROUND_20
 10
2.42122999787
 20
0.719649973366
 30
0.0
  0
INSERT
  5
1A5
330
10
100
AcDbEntity
  8
TRACTOR_CMP
100
AcDbBlockReference
  2
ROUND_20
 10
2.07870999817
 20
0.71570997337
 30
0.0
  0
INSERT
  5
1A6
330
10
100
AcDbEntity
  8
TRACTOR_CMP
100
AcDbBlockReference
  2
ROUND_20
 10
1.83460999839
 20
0.589719999728
 30
0.0
  0
INSERT
  5
1A7
330
10
100
AcDbEntity
  8
TRACTOR_CMP
100
AcDbBlockReference
  2
ROUND_20
 10
1.70074999851
 20
0.660589973419
 30
0.0
  0
INSERT
  5
1A8
330
10
100
AcDbEntity
  8
TRACTOR_CMP
100
AcDbBlockReference
  2
ROUND_20
 10
1.41334999876
 20
0.692089973391
 30
0.0
  0
INSERT
  5
1A9
330
10
100
AcDbEntity
  8
TRACTOR_CMP
100
AcDbBlockReference
  2
ROUND_20
 10
1.38186002504
 20
0.822009973275
 30
0.0
  0
INSERT
  5
1AA
330
10
100
AcDbEntity
  8
TRACTOR_CMP
100
AcDbBlockReference
  2
ROUND_20
 10
1.25942002514
 20
0.879879999471
 30
0.0
  0
INSERT
  5
1AB
330
10
100
AcDbEntity
  8
TRACTOR_CMP
100
AcDbBlockReference
  2
ROUND_20
 10
1.57476999862
 20
1.02279999934
 30
0.0
  0
INSERT
  5
1AC
330
10
100
AcDbEntity
  8
TRACTOR_CMP
100
AcDbBlockReference
  2
ROUND_20
 10
1.76374999845
 20
0.991299999372
 30
0.0
  0
INSERT
  5
1AD
330
10
100
AcDbEntity
  8
TRACTOR_CMP
100
AcDbBlockReference
  2
ROUND_20
 10
2.09838999815
 20
0.892869973212
 30
0.0
  0
INSERT
  5
1AE
330
10
100
AcDbEntity
  8
TRACTOR_CMP
100
AcDbBlockReference
  2
ROUND_20
 10
2.41334999787
 20
1.08578997304
 30
0.0
  0
INSERT
  5
1AF
330
10
100
AcDbEntity
  8
TRACTOR_CMP
100
AcDbBlockReference
  2
ROUND_20
 10
1.75768999846
 20
0.493119999814
 30
0.0
  0
INSERT
  5
1B0
330
10
100
AcDbEntity
  8
TRACTOR_CMP
100
AcDbBlockReference
  2
ROUND_20
 10
1.45194002497
 20
0.432639999868
 30
0.0
  0
INSERT
  5
1B1
330
10
100
AcDbEntity
  8
TRACTOR_CMP
100
AcDbBlockReference
  2
ROUND_20
 10
1.2558699989
 20
0.471609973586
 30
0.0
  0
INSERT
  5
1B2
330
10
100
AcDbEntity
  8
TRACTOR_CMP
100
AcDbBlockReference
  2
CUSTOM_33
 10
2.51824002403
 20
1.14940997298
 30
0.0
  0
INSERT
  5
1B3
330
10
100
AcDbEntity
  8
TRACTOR_CMP
100
AcDbBlockReference
  2
CUSTOM_33
 10
1.32870999884
 20
1.12357999925
 30
0.0
  0
INSERT
  5
1B4
330
10
100
AcDbEntity
  8
TRACTOR_CMP
100
AcDbBlockReference
  2
CUSTOM_33
 10
1.32854999884
 20
0.989879999373
 30
0.0
  0
LWPOLYLINE
  5
1B5
330
10
100
AcDbEntity
  8
TRACTOR_CMP
  6
BYLAYER
 62
   256
100
AcDbPolyline
 90
     2
 70
     0
 10
0.460600025854
 20
0.286179999998
 10
3.0628499973
 20
0.28364
  0
LWPOLYLINE
  5
1B6
330
10
100
AcDbEntity
  8
TRACTOR_CMP
  6
BYLAYER
 62
   256
100
AcDbPolyline
 90
     4
 70
     0
 10
3.05902002355
 20
0.286179999998
 10
3.0628499973
 20
1.38639999902
 10
0.460600025854
 20
1.38893999902
 10
0.460600025854
 20
0.286179999998
  0
LWPOLYLINE
  5
1B7
330
10
100
AcDbEntity
  8
TRACTOR_CMP
  6
BYLAYER
370
   211
 62
   256
100
AcDbPolyline
 90
     2
 70
     0
 43
0.0436199999613
 10
2.47658002406
 20
0.896959999455
 10
2.52020999778
 20
0.896959999455
  0
LWPOLYLINE
  5
1B8
330
10
100
AcDbEntity
  8
TRACTOR_CMP
  6
BYLAYER
370
   211
 62
   256
100
AcDbPolyline
 90
     2
 70
     0
 43
0.0436199999613
 10
2.58062002397
 20
0.897459999455
 10
2.62424002393
 20
0.897459999455
  0
LWPOLYLINE
  5
1B9
330
10
100
AcDbEntity
  8
TRACTOR_CMP
  6
BYLAYER
370
   211
 62
   256
100
AcDbPolyline
 90
     2
 70
     0
 43
0.0436199999613
 10
2.62188002394
 20
0.674629973406
 10
2.57826002397
 20
0.674629973406
  0
LWPOLYLINE
  5
1BA
330
10
100
AcDbEntity
  8
TRACTOR_CMP
  6
BYLAYER
370
   211
 62
   256
100
AcDbPolyline
 90
     2
 70
     0
 43
0.0436199999613
 10
2.51784002403
 20
0.674129973407
 10
2.47422002407
 20
0.674129973407
  0
LWPOLYLINE
  5
1BB
330
10
100
AcDbEntity
  8
TRACTOR_CMP
  6
BYLAYER
370
   211
 62
   256
100
AcDbPolyline
 90
     2
 70
     0
 43
0.0436199999613
 10
2.47462002407
 20
1.14499999924
 10
2.51824002403
 20
1.14499999924
  0
LWPOLYLINE
  5
1BC
330
10
100
AcDbEntity
  8
TRACTOR_CMP
  6
BYLAYER
370
   211
 62
   256
100
AcDbPolyline
 90
     2
 70
     0
 43
0.0436199999613
 10
2.57864999773
 20
1.14548997299
 10
2.62226999769
 20
1.14548997299
  0
LWPOLYLINE
  5
1BD
330
10
100
AcDbEntity
  8
TRACTOR_CMP
  6
BYLAYER
370
   211
 62
   256
100
AcDbPolyline
 90
    19
 70
     0
 43
0.0239999999787
 10
0.62634999946
 20
0.35546997369
 10
0.620440025712
 20
0.361379999931
 10
0.620440025712
 20
0.475549973583
 10
0.692880025648
 20
0.547989973519
 10
0.692880025648
 20
0.660589973419
 10
0.825949999283
 20
0.793659999547
 10
0.912569999206
 20
0.793659999547
 10
0.940120025428
 20
0.821219999523
 10
0.940120025428
 20
1.03656997308
 10
0.977129999149
 20
1.0735799993
 10
1.41452999876
 20
1.0735799993
 10
1.46098999872
 20
1.02712997309
 10
1.46098999872
 20
0.926339999429
 10
1.4850099987
 20
0.902319999451
 10
1.4850099987
 20
0.901539999451
 10
1.50430002493
 20
0.882239999469
 10
1.50430002493
 20
0.88105999947
 10
1.55084002489
 20
0.834529973264
 10
1.55084002489
 20
0.786399999554
  0
LWPOLYLINE
  5
1BE
330
10
100
AcDbEntity
  8
TRACTOR_CMP
  6
BYLAYER
370
   211
 62
   256
100
AcDbPolyline
 90
     5
 70
     0
 43
0.0239999999787
 10
1.60084002484
 20
0.786399999554
 10
1.60232999859
 20
0.784909973308
 10
1.60232999859
 20
0.743269973345
 10
1.62814002482
 20
0.717459999615
 10
1.83894999838
 20
0.717459999615
  0
LWPOLYLINE
  5
1BF
330
10
100
AcDbEntity
  8
TRACTOR_CMP
  6
BYLAYER
370
   211
 62
   256
100
AcDbPolyline
 90
     6
 70
     0
 43
0.0239999999787
 10
1.78128999843
 20
0.669459999657
 10
1.78128999843
 20
0.656229973422
 10
1.76980999844
 20
0.660989973418
 10
1.75656999846
 20
0.660989973418
 10
1.75656999846
 20
0.669459999657
 10
1.78128999843
 20
0.669459999657
  0
LWPOLYLINE
  5
1C0
330
10
100
AcDbEntity
  8
TRACTOR_CMP
  6
BYLAYER
370
   211
 62
   256
100
AcDbPolyline
 90
     2
 70
     0
 43
0.0239999999787
 10
1.78128999843
 20
0.663639999663
 10
1.75656999846
 20
0.663639999663
  0
LWPOLYLINE
  5
1C1
330
10
100
AcDbEntity
  8
TRACTOR_CMP
  6
BYLAYER
370
   211
 62
   256
100
AcDbPolyline
 90
     2
 70
     0
 43
0.0239999999787
 10
1.70084002475
 20
0.660509973419
 10
1.70074999851
 20
0.660589973419
  0
LWPOLYLINE
  5
1C2
330
10
100
AcDbEntity
  8
TRACTOR_CMP
  6
BYLAYER
370
   211
 62
   256
100
AcDbPolyline
 90
     2
 70
     0
 43
0.0239999999787
 10
1.70084002475
 20
0.660509973419
 10
1.70084002475
 20
0.581679999735
  0
LWPOLYLINE
  5
1C3
330
10
100
AcDbEntity
  8
TRACTOR_CMP
  6
BYLAYER
370
   211
 62
   256
100
AcDbPolyline
 90
     6
 70
     0
 43
0.0239999999787
 10
1.75084002471
 20
0.581679999735
 10
1.75084002471
 20
0.582949973488
 10
1.78736999843
 20
0.546419999767
 10
1.90942002457
 20
0.546419999767
 10
1.92930002455
 20
0.566299999749
 10
1.92930002455
 20
0.782779999557
  0
LWPOLYLINE
  5
1C4
330
10
100
AcDbEntity
  8
TRACTOR_CMP
  6
BYLAYER
370
   211
 62
   256
100
AcDbPolyline
 90
     2
 70
     0
 43
0.0239999999787
 10
1.8736200246
 20
0.783569973309
 10
1.80068002466
 20
0.783569973309
  0
LWPOLYLINE
  5
1C5
330
10
100
AcDbEntity
  8
TRACTOR_CMP
  6
BYLAYER
370
   211
 62
   256
100
AcDbPolyline
 90
    15
 70
     0
 43
0.0239999999787
 10
1.80068002466
 20
0.776859999562
 10
1.80068002466
 20
0.823599999521
 10
1.80260002466
 20
0.82439999952
 10
1.81272002465
 20
0.834519999511
 10
1.81282999841
 20
0.834779999511
 10
1.8736200246
 20
0.834779999511
 10
1.8736200246
 20
0.815779999528
 10
1.87692999835
 20
0.807779999535
 10
1.8736200246
 20
0.799789973295
 10
1.8736200246
 20
0.770719999568
 10
1.8677600246
 20
0.773149973319
 10
1.81012999841
 20
0.773149973319
 10
1.79864999842
 20
0.768389973323
 10
1.79864999842
 20
0.771959999566
 10
1.80068002466
 20
0.776859999562
  0
LWPOLYLINE
  5
1C6
330
10
100
AcDbEntity
  8
TRACTOR_CMP
  6
BYLAYER
370
   211
 62
   256
100
AcDbPolyline
 90
     5
 70
     0
 43
0.0239999999787
 10
1.75268002471
 20
0.786399999554
 10
1.75268002471
 20
0.866729973236
 10
1.76054999845
 20
0.874599999475
 10
1.76872999845
 20
0.882779999468
 10
1.92930002455
 20
0.882779999468
  0
LWPOLYLINE
  5
1C7
330
10
100
AcDbEntity
  8
TRACTOR_CMP
  6
BYLAYER
370
   211
 62
   256
100
AcDbPolyline
 90
     5
 70
     0
 43
0.0239999999787
 10
1.98498999825
 20
0.88077999947
 10
1.98498999825
 20
0.884779999466
 10
2.00378999824
 20
0.884779999466
 10
2.00378999824
 20
0.88077999947
 10
1.98498999825
 20
0.88077999947
  0
LWPOLYLINE
  5
1C8
330
10
100
AcDbEntity
  8
TRACTOR_CMP
  6
BYLAYER
370
   211
 62
   256
100
AcDbPolyline
 90
     7
 70
     0
 43
0.0239999999787
 10
2.02486999822
 20
0.832779999512
 10
2.05178999819
 20
0.859689973242
 10
2.05178999819
 20
0.960749973152
 10
2.05424002444
 20
0.963199999397
 10
2.05272002444
 20
0.964709973149
 10
2.02078999822
 20
0.932779999424
 10
1.92930002455
 20
0.932779999424
  0
LWPOLYLINE
  5
1C9
330
10
100
AcDbEntity
  8
TRACTOR_CMP
  6
BYLAYER
370
   211
 62
   256
100
AcDbPolyline
 90
    10
 70
     0
 43
0.0239999999787
 10
1.8736200246
 20
0.930779999425
 10
1.81820002465
 20
0.930779999425
 10
1.81820002465
 20
0.968369973145
 10
1.8164299984
 20
0.972649973142
 10
1.81956002465
 20
0.980199999382
 10
1.81956002465
 20
0.986609973129
 10
1.84228999838
 20
0.986609973129
 10
1.87522999835
 20
0.953669973158
 10
1.8736200246
 20
0.949789973162
 10
1.8736200246
 20
0.930779999425
  0
LWPOLYLINE
  5
1CA
330
10
100
AcDbEntity
  8
TRACTOR_CMP
  6
BYLAYER
370
   211
 62
   256
100
AcDbPolyline
 90
     2
 70
     0
 43
0.0239999999787
 10
1.87430999835
 20
0.95146997316
 10
1.81820002465
 20
0.95146997316
  0
LWPOLYLINE
  5
1CB
330
10
100
AcDbEntity
  8
TRACTOR_CMP
  6
BYLAYER
370
   211
 62
   256
100
AcDbPolyline
 90
     2
 70
     0
 43
0.0239999999787
 10
1.8175899984
 20
0.975449973139
 10
1.85344999837
 20
0.975449973139
  0
LWPOLYLINE
  5
1CC
330
10
100
AcDbEntity
  8
TRACTOR_CMP
  6
BYLAYER
370
   211
 62
   256
100
AcDbPolyline
 90
     3
 70
     0
 43
0.0239999999787
 10
1.86216999836
 20
1.03460997309
 10
1.91398999832
 20
0.982779999379
 10
1.92930002455
 20
0.982779999379
  0
LWPOLYLINE
  5
1CD
330
10
100
AcDbEntity
  8
TRACTOR_CMP
  6
BYLAYER
370
   211
 62
   256
100
AcDbPolyline
 90
     6
 70
     0
 43
0.0239999999787
 10
1.98498999825
 20
0.980779999381
 10
1.98498999825
 20
0.984779999378
 10
2.00472002448
 20
0.984779999378
 10
2.00472002448
 20
0.984599999378
 10
2.00090999824
 20
0.980779999381
 10
1.98498999825
 20
0.980779999381
  0
LWPOLYLINE
  5
1CE
330
10
100
AcDbEntity
  8
TRACTOR_CMP
  6
BYLAYER
370
   211
 62
   256
100
AcDbPolyline
 90
     5
 70
     0
 43
0.0239999999787
 10
2.05272002444
 20
0.964709973149
 10
2.05272002444
 20
1.06419999931
 10
2.05418002444
 20
1.06565999931
 10
2.08704999816
 20
1.03277999933
 10
2.18442002432
 20
1.03277999933
  0
LWPOLYLINE
  5
1CF
330
10
100
AcDbEntity
  8
TRACTOR_CMP
  6
BYLAYER
370
   211
 62
   256
100
AcDbPolyline
 90
     4
 70
     0
 43
0.0239999999787
 10
2.24010999803
 20
1.03208997309
 10
2.24010999803
 20
1.03413999933
 10
2.24112999803
 20
1.03310997309
 10
2.24010999803
 20
1.03208997309
  0
LWPOLYLINE
  5
1D0
330
10
100
AcDbEntity
  8
TRACTOR_CMP
  6
BYLAYER
370
   211
 62
   256
100
AcDbPolyline
 90
     2
 70
     0
 43
0.0239999999787
 10
2.28200002424
 20
0.982779999379
 10
2.18442002432
 20
0.982779999379
  0
LWPOLYLINE
  5
1D1
330
10
100
AcDbEntity
  8
TRACTOR_CMP
  6
BYLAYER
370
   211
 62
   256
100
AcDbPolyline
 90
     7
 70
     0
 43
0.0239999999787
 10
2.12874002437
 20
0.980779999381
 10
2.1023600244
 20
0.980779999381
 10
2.10076999815
 20
0.982369973133
 10
2.1007200244
 20
0.98247999938
 10
2.1007200244
 20
0.984779999378
 10
2.12874002437
 20
0.984779999378
 10
2.12874002437
 20
0.980779999381
  0
LWPOLYLINE
  5
1D2
330
10
100
AcDbEntity
  8
TRACTOR_CMP
  6
BYLAYER
370
   211
 62
   256
100
AcDbPolyline
 90
     4
 70
     0
 43
0.0239999999787
 10
2.08246999817
 20
0.932779999424
 10
2.05852999819
 20
0.956729973156
 10
2.05852999819
 20
0.958909973154
 10
2.05424002444
 20
0.963199999397
  0
LWPOLYLINE
  5
1D3
330
10
100
AcDbEntity
  8
TRACTOR_CMP
  6
BYLAYER
370
   211
 62
   256
100
AcDbPolyline
 90
     3
 70
     0
 43
0.0239999999787
 10
2.08246999817
 20
0.932779999424
 10
2.09838999815
 20
0.932779999424
 10
2.09838999815
 20
0.892869973212
  0
LWPOLYLINE
  5
1D4
330
10
100
AcDbEntity
  8
TRACTOR_CMP
  6
BYLAYER
370
   211
 62
   256
100
AcDbPolyline
 90
     8
 70
     0
 43
0.0239999999787
 10
2.05178999819
 20
0.859689973242
 10
2.07870002442
 20
0.832779999512
 10
2.07870002442
 20
0.715719999616
 10
2.07870999817
 20
0.71570997337
 10
2.01610999823
 20
0.653109973425
 10
2.01610999823
 20
0.486969973573
 10
1.95666002453
 20
0.433819999867
 10
1.71690002474
 20
0.43420997362
  0
LWPOLYLINE
  5
1D5
330
10
100
AcDbEntity
  8
TRACTOR_CMP
  6
BYLAYER
370
   211
 62
   256
100
AcDbPolyline
 90
     4
 70
     0
 43
0.0239999999787
 10
1.64996999855
 20
0.43420997362
 10
1.61752002483
 20
0.432459999868
 10
1.54132002489
 20
0.356259999936
 10
1.0283099991
 20
0.356259999936
  0
LWPOLYLINE
  5
1D6
330
10
100
AcDbEntity
  8
TRACTOR_CMP
  6
BYLAYER
370
   211
 62
   256
100
AcDbPolyline
 90
     6
 70
     0
 43
0.0239999999787
 10
1.09130999905
 20
0.420039999879
 10
1.11020002528
 20
0.401139999896
 10
1.41492999876
 20
0.401139999896
 10
1.44660002498
 20
0.432809973621
 10
1.45210999873
 20
0.432809973621
 10
1.45194002497
 20
0.432639999868
  0
LWPOLYLINE
  5
1D7
330
10
100
AcDbEntity
  8
TRACTOR_CMP
  6
BYLAYER
370
   211
 62
   256
100
AcDbPolyline
 90
    13
 70
     0
 43
0.0239999999787
 10
1.45210999873
 20
0.432809973621
 10
1.51302002492
 20
0.432809973621
 10
1.52310002491
 20
0.442889973612
 10
1.52310002491
 20
0.484899999821
 10
1.52348999866
 20
0.484899999821
 10
1.52348999866
 20
0.485359999821
 10
1.52194999866
 20
0.483819999822
 10
1.48698002494
 20
0.483819999822
 10
1.45016002498
 20
0.520629973543
 10
1.45016002498
 20
0.580999999736
 10
1.45084002497
 20
0.581679999735
 10
1.45084002497
 20
0.654599999671
 10
1.41334999876
 20
0.692089973391
  0
LWPOLYLINE
  5
1D8
330
10
100
AcDbEntity
  8
TRACTOR_CMP
  6
BYLAYER
370
   211
 62
   256
100
AcDbPolyline
 90
    28
 70
     0
 43
0.0239999999787
 10
1.46754002496
 20
0.707099999624
 10
1.46848002496
 20
0.704839999626
 10
1.49152999869
 20
0.6817899734
 10
1.49884002493
 20
0.664149973415
 10
1.49884002493
 20
0.660989973418
 10
1.51980999867
 20
0.660989973418
 10
1.52584002491
 20
0.65848997342
 10
1.5318600249
 20
0.660989973418
 10
1.56980999862
 20
0.660989973418
 10
1.57584002486
 20
0.65848997342
 10
1.58186002486
 20
0.660989973418
 10
1.61980999858
 20
0.660989973418
 10
1.62584002482
 20
0.65848997342
 10
1.63186002481
 20
0.660989973418
 10
1.6449400248
 20
0.660989973418
 10
1.6449400248
 20
0.669459999657
 10
1.61858999858
 20
0.669459999657
 10
1.60094999859
 20
0.676769973404
 10
1.57514002486
 20
0.702579999628
 10
1.57038002487
 20
0.707329973377
 10
1.56980999862
 20
0.707099999624
 10
1.5318600249
 20
0.707099999624
 10
1.52584002491
 20
0.709589973375
 10
1.51980999867
 20
0.707099999624
 10
1.48186002495
 20
0.707099999624
 10
1.47584002495
 20
0.709589973375
 10
1.46980999871
 20
0.707099999624
 10
1.46754002496
 20
0.707099999624
  0
LWPOLYLINE
  5
1D9
330
10
100
AcDbEntity
  8
TRACTOR_CMP
  6
BYLAYER
370
   211
 62
   256
100
AcDbPolyline
 90
     2
 70
     0
 43
0.0239999999787
 10
1.4856899987
 20
0.687629973395
 10
1.5900899986
 20
0.687629973395
  0
LWPOLYLINE
  5
1DA
330
10
100
AcDbEntity
  8
TRACTOR_CMP
  6
BYLAYER
370
   211
 62
   256
100
AcDbPolyline
 90
     2
 70
     0
 43
0.0239999999787
 10
1.6449400248
 20
0.663639999663
 10
1.49884002493
 20
0.663639999663
  0
LWPOLYLINE
  5
1DB
330
10
100
AcDbEntity
  8
TRACTOR_CMP
  6
BYLAYER
370
   211
 62
   256
100
AcDbPolyline
 90
    13
 70
     0
 43
0.0239999999787
 10
1.38972999878
 20
0.755079999581
 10
1.35430002506
 20
0.719649973366
 10
1.35430002506
 20
0.641559999682
 10
1.35380002506
 20
0.641069973436
 10
1.31508999885
 20
0.641069973436
 10
1.2598099989
 20
0.585789973485
 10
1.21138002519
 20
0.634209973442
 10
1.21138002519
 20
0.635789973441
 10
1.16572002523
 20
0.681459999647
 10
0.901940025462
 20
0.681459999647
 10
0.823589999285
 20
0.60310997347
 10
0.823589999285
 20
0.360979999931
 10
0.82870999928
 20
0.355869973689
  0
LWPOLYLINE
  5
1DC
330
10
100
AcDbEntity
  8
TRACTOR_CMP
  6
BYLAYER
370
   211
 62
   256
100
AcDbPolyline
 90
    18
 70
     0
 43
0.0239999999787
 10
0.728709999369
 20
0.35468997369
 10
0.726349999371
 20
0.357049973688
 10
0.726349999371
 20
0.457829973599
 10
0.754300025593
 20
0.485789973574
 10
0.754300025593
 20
0.640909973436
 10
0.857840025501
 20
0.744449973344
 10
1.10272002528
 20
0.744449973344
 10
1.17082999898
 20
0.81255999953
 10
1.17082999898
 20
0.94050997317
 10
1.22358999893
 20
0.993269973123
 10
1.22398002518
 20
0.993269973123
 10
1.26886002514
 20
1.03814997308
 10
1.38382999879
 20
1.03814997308
 10
1.41650002501
 20
1.00546997311
 10
1.41650002501
 20
0.920829973188
 10
1.50232999868
 20
0.83499999951
 10
1.50232999868
 20
0.787899999552
 10
1.50084002493
 20
0.786399999554
  0
LWPOLYLINE
  5
1DD
330
10
100
AcDbEntity
  8
TRACTOR_CMP
  6
BYLAYER
370
   211
 62
   256
100
AcDbPolyline
 90
     5
 70
     0
 43
0.0239999999787
 10
1.44822999873
 20
0.789009973305
 10
1.44822999873
 20
0.82806997327
 10
1.32830999884
 20
0.937989973172
 10
1.32830999884
 20
0.989649973126
 10
1.32854999884
 20
0.989879999373
  0
LWPOLYLINE
  5
1DE
330
10
100
AcDbEntity
  8
TRACTOR_CMP
  6
BYLAYER
370
   211
 62
   256
100
AcDbPolyline
 90
    17
 70
     0
 43
0.0239999999787
 10
1.28030999888
 20
0.959189973154
 10
1.28030999888
 20
0.946459999412
 10
1.27994002513
 20
0.945439999412
 10
1.28030999888
 20
0.936949973173
 10
1.28030999888
 20
0.931639999425
 10
1.27052002513
 20
0.935689973174
 10
1.24830999891
 20
0.935689973174
 10
1.22780002517
 20
0.927199999429
 10
1.21882999893
 20
0.91822997319
 10
1.21882999893
 20
0.920629973188
 10
1.24982999891
 20
0.951619999407
 10
1.25116999891
 20
0.952179999406
 10
1.26468002514
 20
0.965679999394
 10
1.26494999889
 20
0.966359999394
 10
1.27274002513
 20
0.974139999387
 10
1.27274002513
 20
0.966759999394
 10
1.28030999888
 20
0.959189973154
  0
LWPOLYLINE
  5
1DF
330
10
100
AcDbEntity
  8
TRACTOR_CMP
  6
BYLAYER
370
   211
 62
   256
100
AcDbPolyline
 90
     2
 70
     0
 43
0.0239999999787
 10
1.28030999888
 20
0.95146997316
 10
1.24966999891
 20
0.95146997316
  0
LWPOLYLINE
  5
1E0
330
10
100
AcDbEntity
  8
TRACTOR_CMP
  6
BYLAYER
370
   211
 62
   256
100
AcDbPolyline
 90
     2
 70
     0
 43
0.0239999999787
 10
1.22848999893
 20
0.927479999428
 10
1.22568002517
 20
0.927479999428
  0
LWPOLYLINE
  5
1E1
330
10
100
AcDbEntity
  8
TRACTOR_CMP
  6
BYLAYER
370
   211
 62
   256
100
AcDbPolyline
 90
     5
 70
     0
 43
0.0239999999787
 10
1.25942002514
 20
0.879879999471
 10
1.31098999885
 20
0.82830997327
 10
1.37556002504
 20
0.82830997327
 10
1.38186002504
 20
0.822009973275
 10
1.38028002504
 20
0.823579999521
  0
LWPOLYLINE
  5
1E2
330
10
100
AcDbEntity
  8
TRACTOR_CMP
  6
BYLAYER
370
   211
 62
   256
100
AcDbPolyline
 90
    24
 70
     0
 43
0.0239999999787
 10
1.34462999882
 20
0.780309973312
 10
1.30144002511
 20
0.780309973312
 10
1.28380002512
 20
0.787609973306
 10
1.24666002516
 20
0.82475999952
 10
1.22780002517
 20
0.832569973266
 10
1.21882999893
 20
0.841539999505
 10
1.21882999893
 20
0.822109973275
 10
1.21882999893
 20
0.803009973292
 10
1.21152999894
 20
0.785369973308
 10
1.15560999899
 20
0.729459999604
 10
1.17526002522
 20
0.729459999604
 10
1.1929000252
 20
0.722149973364
 10
1.20640999895
 20
0.708649973376
 10
1.25208002515
 20
0.662979999663
 10
1.2531899989
 20
0.660289973419
 10
1.2598099989
 20
0.653669973425
 10
1.28790002512
 20
0.681759999647
 10
1.3055400251
 20
0.689069973393
 10
1.3063000251
 20
0.689069973393
 10
1.3063000251
 20
0.729189973358
 10
1.31360999885
 20
0.746839999589
 10
1.32710999884
 20
0.760339999577
 10
1.34584999882
 20
0.77907999956
 10
1.34462999882
 20
0.780309973312
  0
LWPOLYLINE
  5
1E3
330
10
100
AcDbEntity
  8
TRACTOR_CMP
  6
BYLAYER
370
   211
 62
   256
100
AcDbPolyline
 90
     2
 70
     0
 43
0.0239999999787
 10
1.32634999884
 20
0.759579999577
 10
1.18574002521
 20
0.759579999577
  0
LWPOLYLINE
  5
1E4
330
10
100
AcDbEntity
  8
TRACTOR_CMP
  6
BYLAYER
370
   211
 62
   256
100
AcDbPolyline
 90
     2
 70
     0
 43
0.0239999999787
 10
1.16176002523
 20
0.735599999599
 10
1.30894999885
 20
0.735599999599
  0
LWPOLYLINE
  5
1E5
330
10
100
AcDbEntity
  8
TRACTOR_CMP
  6
BYLAYER
370
   211
 62
   256
100
AcDbPolyline
 90
     2
 70
     0
 43
0.0239999999787
 10
1.3063000251
 20
0.711609973373
 10
1.20344002519
 20
0.711609973373
  0
LWPOLYLINE
  5
1E6
330
10
100
AcDbEntity
  8
TRACTOR_CMP
  6
BYLAYER
370
   211
 62
   256
100
AcDbPolyline
 90
     2
 70
     0
 43
0.0239999999787
 10
1.22742999893
 20
0.687629973395
 10
1.30206999886
 20
0.687629973395
  0
LWPOLYLINE
  5
1E7
330
10
100
AcDbEntity
  8
TRACTOR_CMP
  6
BYLAYER
370
   211
 62
   256
100
AcDbPolyline
 90
     2
 70
     0
 43
0.0239999999787
 10
1.26978002514
 20
0.663639999663
 10
1.25140999891
 20
0.663639999663
  0
LWPOLYLINE
  5
1E8
330
10
100
AcDbEntity
  8
TRACTOR_CMP
  6
BYLAYER
370
   211
 62
   256
100
AcDbPolyline
 90
    17
 70
     0
 43
0.0239999999787
 10
1.16958002522
 20
0.609709973464
 10
1.145829999
 20
0.633459999689
 10
1.11926002527
 20
0.633459999689
 10
1.13882999901
 20
0.613879999707
 10
1.13882999901
 20
0.526979999784
 10
1.0798800253
 20
0.468039999836
 10
1.10084999904
 20
0.468039999836
 10
1.11850002527
 20
0.460729973596
 10
1.13008999901
 20
0.449139999853
 10
1.20476999895
 20
0.449139999853
 10
1.2000600252
 20
0.460509973596
 10
1.2000600252
 20
0.482719999823
 10
1.20856002519
 20
0.503229973558
 10
1.20894999894
 20
0.503619999805
 10
1.21112002519
 20
0.566599999749
 10
1.17068999898
 20
0.607019999713
 10
1.16958002522
 20
0.609709973464
  0
LWPOLYLINE
  5
1E9
330
10
100
AcDbEntity
  8
TRACTOR_CMP
  6
BYLAYER
370
   211
 62
   256
100
AcDbPolyline
 90
     2
 70
     0
 43
0.0239999999787
 10
1.16362002523
 20
0.615669973458
 10
1.13704002525
 20
0.615669973458
  0
LWPOLYLINE
  5
1EA
330
10
100
AcDbEntity
  8
TRACTOR_CMP
  6
BYLAYER
370
   211
 62
   256
100
AcDbPolyline
 90
     2
 70
     0
 43
0.0239999999787
 10
1.13882999901
 20
0.59168997348
 10
1.18602999896
 20
0.59168997348
  0
LWPOLYLINE
  5
1EB
330
10
100
AcDbEntity
  8
TRACTOR_CMP
  6
BYLAYER
370
   211
 62
   256
100
AcDbPolyline
 90
     2
 70
     0
 43
0.0239999999787
 10
1.21000999894
 20
0.567699999748
 10
1.13882999901
 20
0.567699999748
  0
LWPOLYLINE
  5
1EC
330
10
100
AcDbEntity
  8
TRACTOR_CMP
  6
BYLAYER
370
   211
 62
   256
100
AcDbPolyline
 90
     2
 70
     0
 43
0.0239999999787
 10
1.13882999901
 20
0.543719999769
 10
1.21032999894
 20
0.543719999769
  0
LWPOLYLINE
  5
1ED
330
10
100
AcDbEntity
  8
TRACTOR_CMP
  6
BYLAYER
370
   211
 62
   256
100
AcDbPolyline
 90
     2
 70
     0
 43
0.0239999999787
 10
1.20950002519
 20
0.519729973544
 10
1.13158002526
 20
0.519729973544
  0
LWPOLYLINE
  5
1EE
330
10
100
AcDbEntity
  8
TRACTOR_CMP
  6
BYLAYER
370
   211
 62
   256
100
AcDbPolyline
 90
     2
 70
     0
 43
0.0239999999787
 10
1.10758999903
 20
0.495749973565
 10
1.20546002519
 20
0.495749973565
  0
LWPOLYLINE
  5
1EF
330
10
100
AcDbEntity
  8
TRACTOR_CMP
  6
BYLAYER
370
   211
 62
   256
100
AcDbPolyline
 90
     2
 70
     0
 43
0.0239999999787
 10
1.2000600252
 20
0.471759999833
 10
1.08360999905
 20
0.471759999833
  0
LWPOLYLINE
  5
1F0
330
10
100
AcDbEntity
  8
TRACTOR_CMP
  6
BYLAYER
370
   211
 62
   256
100
AcDbPolyline
 90
     5
 70
     0
 43
0.0239999999787
 10
1.09130999905
 20
0.420039999879
 10
0.957049999166
 20
0.420039999879
 10
0.927920025439
 20
0.390909973658
 10
0.927920025439
 20
0.356259999936
 10
0.927529999193
 20
0.355869973689
  0
LWPOLYLINE
  5
1F1
330
10
100
AcDbEntity
  8
TRACTOR_CMP
  6
BYLAYER
370
   211
 62
   256
100
AcDbPolyline
 90
    14
 70
     0
 43
0.0239999999787
 10
0.89250002547
 20
0.423369973629
 10
0.888869999227
 20
0.423369973629
 10
0.878120025483
 20
0.418909973633
 10
0.871589999242
 20
0.421619999877
 10
0.871589999242
 20
0.583229973487
 10
0.921820025444
 20
0.633459999689
 10
0.948609999174
 20
0.633459999689
 10
0.929029999191
 20
0.613879999707
 10
0.929029999191
 20
0.526979999784
 10
0.987980025386
 20
0.468039999836
 10
0.947509999175
 20
0.468039999836
 10
0.929860025437
 20
0.460729973596
 10
0.900729999216
 20
0.431599999869
 10
0.89250002547
 20
0.423369973629
  0
LWPOLYLINE
  5
1F2
330
10
100
AcDbEntity
  8
TRACTOR_CMP
  6
BYLAYER
370
   211
 62
   256
100
AcDbPolyline
 90
     2
 70
     0
 43
0.0239999999787
 10
0.89292002547
 20
0.423789973629
 10
0.871589999242
 20
0.423789973629
  0
LWPOLYLINE
  5
1F3
330
10
100
AcDbEntity
  8
TRACTOR_CMP
  6
BYLAYER
370
   211
 62
   256
100
AcDbPolyline
 90
     2
 70
     0
 43
0.0239999999787
 10
0.871589999242
 20
0.447779999854
 10
0.916909999202
 20
0.447779999854
  0
LWPOLYLINE
  5
1F4
330
10
100
AcDbEntity
  8
TRACTOR_CMP
  6
BYLAYER
370
   211
 62
   256
100
AcDbPolyline
 90
     2
 70
     0
 43
0.0239999999787
 10
0.871589999242
 20
0.471759999833
 10
0.984249999142
 20
0.471759999833
  0
LWPOLYLINE
  5
1F5
330
10
100
AcDbEntity
  8
TRACTOR_CMP
  6
BYLAYER
370
   211
 62
   256
100
AcDbPolyline
 90
     2
 70
     0
 43
0.0239999999787
 10
0.960269999164
 20
0.495749973565
 10
0.871589999242
 20
0.495749973565
  0
LWPOLYLINE
  5
1F6
330
10
100
AcDbEntity
  8
TRACTOR_CMP
  6
BYLAYER
370
   211
 62
   256
100
AcDbPolyline
 90
     2
 70
     0
 43
0.0239999999787
 10
0.871589999242
 20
0.519729973544
 10
0.936280025432
 20
0.519729973544
  0
LWPOLYLINE
  5
1F7
330
10
100
AcDbEntity
  8
TRACTOR_CMP
  6
BYLAYER
370
   211
 62
   256
100
AcDbPolyline
 90
     2
 70
     0
 43
0.0239999999787
 10
0.929029999191
 20
0.543719999769
 10
0.871589999242
 20
0.543719999769
  0
LWPOLYLINE
  5
1F8
330
10
100
AcDbEntity
  8
TRACTOR_CMP
  6
BYLAYER
370
   211
 62
   256
100
AcDbPolyline
 90
     2
 70
     0
 43
0.0239999999787
 10
0.871589999242
 20
0.567699999748
 10
0.929029999191
 20
0.567699999748
  0
LWPOLYLINE
  5
1F9
330
10
100
AcDbEntity
  8
TRACTOR_CMP
  6
BYLAYER
370
   211
 62
   256
100
AcDbPolyline
 90
     2
 70
     0
 43
0.0239999999787
 10
0.929029999191
 20
0.59168997348
 10
0.880049999235
 20
0.59168997348
  0
LWPOLYLINE
  5
1FA
330
10
100
AcDbEntity
  8
TRACTOR_CMP
  6
BYLAYER
370
   211
 62
   256
100
AcDbPolyline
 90
     2
 70
     0
 43
0.0239999999787
 10
0.904029999214
 20
0.615669973458
 10
0.930820025436
 20
0.615669973458
  0
LWPOLYLINE
  5
1FB
330
10
100
AcDbEntity
  8
TRACTOR_CMP
  6
BYLAYER
370
   211
 62
   256
100
AcDbPolyline
 90
    80
 70
     0
 43
0.0239999999787
 10
0.798760025554
 20
0.834349973264
 10
0.672140025666
 20
0.707729973377
 10
0.618720025714
 20
0.761159999576
 10
0.531820025791
 20
0.761159999576
 10
0.512600025808
 20
0.741939999593
 10
0.512600025808
 20
1.01979999935
 10
0.531820025791
 20
1.00057999936
 10
0.618720025714
 20
1.00057999936
 10
0.680169999412
 20
1.06201999931
 10
0.680169999412
 20
1.14891999923
 10
0.618720025714
 20
1.21036997293
 10
0.531820025791
 20
1.21036997293
 10
0.512600025808
 20
1.19114997295
 10
0.512600025808
 20
1.33688997282
 10
2.48702002405
 20
1.33495999907
 10
2.47414999782
 20
1.32209999908
 10
2.46624002407
 20
1.3029799991
 10
2.46624002407
 20
1.20280997294
 10
2.46312002408
 20
1.20280997294
 10
2.44186999785
 20
1.19400997295
 10
2.42560999786
 20
1.17773999921
 10
2.41680002412
 20
1.15649999923
 10
2.41680002412
 20
1.14159999924
 10
2.40224999788
 20
1.14159999924
 10
2.38918999789
 20
1.136189973
 10
2.37646999791
 20
1.14145999924
 10
2.3227800242
 20
1.14145999924
 10
2.31616002421
 20
1.13871999924
 10
2.30954002421
 20
1.14145999924
 10
2.25584999801
 20
1.14145999924
 10
2.24260999803
 20
1.13597999924
 10
2.24010999803
 20
1.133469973
 10
2.24010999803
 20
1.14978997298
 10
2.23462999803
 20
1.16301999922
 10
2.22450002429
 20
1.17313999921
 10
2.21126999805
 20
1.17862997296
 10
2.19918002431
 20
1.17862997296
 10
2.19396999807
 20
1.1807799992
 10
2.04318002445
 20
1.1807799992
 10
2.02552999822
 20
1.17347999921
 10
2.01202999823
 20
1.15996997298
 10
2.00472002448
 20
1.14232997299
 10
2.00472002448
 20
1.12323999925
 10
2.00618002448
 20
1.11972997301
 10
2.00618002448
 20
1.08553999929
 10
2.00142002449
 20
1.08077999929
 10
1.98498999825
 20
1.08077999929
 10
1.98498999825
 20
1.09978997303
 10
1.9816800245
 20
1.10777999927
 10
1.98498999825
 20
1.11577999926
 10
1.98498999825
 20
1.14978997298
 10
1.97950999826
 20
1.16301999922
 10
1.97730002451
 20
1.16521999922
 10
1.97730002451
 20
1.1848999992
 10
1.97000002451
 20
1.20253999918
 10
1.9339699983
 20
1.23856997291
 10
1.92046002456
 20
1.25206997289
 10
1.90282002457
 20
1.25937999913
 10
1.40694999877
 20
1.25937999913
 10
1.38930999878
 20
1.25206997289
 10
1.31664002509
 20
1.17938997296
 10
1.30558999886
 20
1.17938997296
 10
1.27290002513
 20
1.14669999923
 10
1.27290002513
 20
1.12157999926
 10
1.18618002521
 20
1.12157999926
 10
1.23094999892
 20
1.16634997297
 10
1.23094999892
 20
1.25324997289
 10
1.16950999898
 20
1.31469999908
 10
1.08260999905
 20
1.31469999908
 10
1.02116002536
 20
1.25324997289
 10
1.02116002536
 20
1.16634997297
 10
1.06592999907
 20
1.12157999926
 10
0.967580025404
 20
1.12157999926
 10
0.949940025419
 20
1.11426997302
 10
0.912929999206
 20
1.07726997305
 10
0.899429999218
 20
1.06375999931
 10
0.892120025471
 20
1.04611999932
 10
0.892120025471
 20
0.841659999505
 10
0.816400025538
 20
0.841659999505
 10
0.798760025554
 20
0.834349973264
  0
LWPOLYLINE
  5
1FC
330
10
100
AcDbEntity
  8
TRACTOR_CMP
  6
BYLAYER
370
   211
 62
   256
100
AcDbPolyline
 90
     2
 70
     0
 43
0.0239999999787
 10
0.795949999309
 20
0.831539999514
 10
0.512600025808
 20
0.831539999514
  0
LWPOLYLINE
  5
1FD
330
10
100
AcDbEntity
  8
TRACTOR_CMP
  6
BYLAYER
370
   211
 62
   256
100
AcDbPolyline
 90
     2
 70
     0
 43
0.0239999999787
 10
0.512600025808
 20
0.807549973288
 10
0.771960025577
 20
0.807549973288
  0
LWPOLYLINE
  5
1FE
330
10
100
AcDbEntity
  8
TRACTOR_CMP
  6
BYLAYER
370
   211
 62
   256
100
AcDbPolyline
 90
     2
 70
     0
 43
0.0239999999787
 10
0.747980025599
 20
0.783569973309
 10
0.512600025808
 20
0.783569973309
  0
LWPOLYLINE
  5
1FF
330
10
100
AcDbEntity
  8
TRACTOR_CMP
  6
BYLAYER
370
   211
 62
   256
100
AcDbPolyline
 90
     2
 70
     0
 43
0.0239999999787
 10
0.512600025808
 20
0.759579999577
 10
0.530249999545
 20
0.759579999577
  0
LWPOLYLINE
  5
200
330
10
100
AcDbEntity
  8
TRACTOR_CMP
  6
BYLAYER
370
   211
 62
   256
100
AcDbPolyline
 90
     2
 70
     0
 43
0.0239999999787
 10
0.620289999465
 20
0.759579999577
 10
0.723989999373
 20
0.759579999577
  0
LWPOLYLINE
  5
201
330
10
100
AcDbEntity
  8
TRACTOR_CMP
  6
BYLAYER
370
   211
 62
   256
100
AcDbPolyline
 90
     2
 70
     0
 43
0.0239999999787
 10
0.700009999395
 20
0.735599999599
 10
0.644280025691
 20
0.735599999599
  0
LWPOLYLINE
  5
202
330
10
100
AcDbEntity
  8
TRACTOR_CMP
  6
BYLAYER
370
   211
 62
   256
100
AcDbPolyline
 90
     2
 70
     0
 43
0.0239999999787
 10
0.66826002567
 20
0.711609973373
 10
0.676020025663
 20
0.711609973373
  0
LWPOLYLINE
  5
203
330
10
100
AcDbEntity
  8
TRACTOR_CMP
  6
BYLAYER
370
   211
 62
   256
100
AcDbPolyline
 90
    14
 70
     0
 43
0.0239999999787
 10
0.64488002569
 20
0.577519999739
 10
0.64488002569
 20
0.567869973501
 10
0.593249999489
 20
0.516239999793
 10
0.579749999501
 20
0.502739999805
 10
0.572440025755
 20
0.485099999821
 10
0.572440025755
 20
0.415479999883
 10
0.564329999515
 20
0.40735999989
 10
0.55884999952
 20
0.394129973655
 10
0.55884999952
 20
0.338089973705
 10
0.512600025808
 20
0.338129973705
 10
0.512600025808
 20
0.570589973499
 10
0.531820025791
 20
0.551359999762
 10
0.618720025714
 20
0.551359999762
 10
0.64488002569
 20
0.577519999739
  0
LWPOLYLINE
  5
204
330
10
100
AcDbEntity
  8
TRACTOR_CMP
  6
BYLAYER
370
   211
 62
   256
100
AcDbPolyline
 90
     2
 70
     0
 43
0.0239999999787
 10
0.644709999444
 20
0.567699999748
 10
0.635060025699
 20
0.567699999748
  0
LWPOLYLINE
  5
205
330
10
100
AcDbEntity
  8
TRACTOR_CMP
  6
BYLAYER
370
   211
 62
   256
100
AcDbPolyline
 90
     2
 70
     0
 43
0.0239999999787
 10
0.620720025712
 20
0.543719999769
 10
0.512600025808
 20
0.543719999769
  0
LWPOLYLINE
  5
206
330
10
100
AcDbEntity
  8
TRACTOR_CMP
  6
BYLAYER
370
   211
 62
   256
100
AcDbPolyline
 90
     2
 70
     0
 43
0.0239999999787
 10
0.512600025808
 20
0.519729973544
 10
0.596740025733
 20
0.519729973544
  0
LWPOLYLINE
  5
207
330
10
100
AcDbEntity
  8
TRACTOR_CMP
  6
BYLAYER
370
   211
 62
   256
100
AcDbPolyline
 90
     2
 70
     0
 43
0.0239999999787
 10
0.576849999504
 20
0.495749973565
 10
0.512600025808
 20
0.495749973565
  0
LWPOLYLINE
  5
208
330
10
100
AcDbEntity
  8
TRACTOR_CMP
  6
BYLAYER
370
   211
 62
   256
100
AcDbPolyline
 90
     2
 70
     0
 43
0.0239999999787
 10
0.512600025808
 20
0.471759999833
 10
0.572440025755
 20
0.471759999833
  0
LWPOLYLINE
  5
209
330
10
100
AcDbEntity
  8
TRACTOR_CMP
  6
BYLAYER
370
   211
 62
   256
100
AcDbPolyline
 90
     2
 70
     0
 43
0.0239999999787
 10
0.572440025755
 20
0.447779999854
 10
0.512600025808
 20
0.447779999854
  0
LWPOLYLINE
  5
20A
330
10
100
AcDbEntity
  8
TRACTOR_CMP
  6
BYLAYER
370
   211
 62
   256
100
AcDbPolyline
 90
     2
 70
     0
 43
0.0239999999787
 10
0.512600025808
 20
0.423789973629
 10
0.572440025755
 20
0.423789973629
  0
LWPOLYLINE
  5
20B
330
10
100
AcDbEntity
  8
TRACTOR_CMP
  6
BYLAYER
370
   211
 62
   256
100
AcDbPolyline
 90
     2
 70
     0
 43
0.0239999999787
 10
0.561200025765
 20
0.39980997365
 10
0.512600025808
 20
0.39980997365
  0
LWPOLYLINE
  5
20C
330
10
100
AcDbEntity
  8
TRACTOR_CMP
  6
BYLAYER
370
   211
 62
   256
100
AcDbPolyline
 90
     2
 70
     0
 43
0.0239999999787
 10
0.512600025808
 20
0.375819999918
 10
0.55884999952
 20
0.375819999918
  0
LWPOLYLINE
  5
20D
330
10
100
AcDbEntity
  8
TRACTOR_CMP
  6
BYLAYER
370
   211
 62
   256
100
AcDbPolyline
 90
     2
 70
     0
 43
0.0239999999787
 10
0.55884999952
 20
0.351839999939
 10
0.512600025808
 20
0.351839999939
  0
LWPOLYLINE
  5
20E
330
10
100
AcDbEntity
  8
TRACTOR_CMP
  6
BYLAYER
370
   211
 62
   256
100
AcDbPolyline
 90
     6
 70
     0
 43
0.0239999999787
 10
0.668440025669
 20
0.421549973631
 10
0.668440025669
 20
0.455669973601
 10
0.678349999414
 20
0.465569973592
 10
0.678349999414
 20
0.417379999881
 10
0.678240025661
 20
0.417489973634
 10
0.668440025669
 20
0.421549973631
  0
LWPOLYLINE
  5
20F
330
10
100
AcDbEntity
  8
TRACTOR_CMP
  6
BYLAYER
370
   211
 62
   256
100
AcDbPolyline
 90
     2
 70
     0
 43
0.0239999999787
 10
0.668440025669
 20
0.423789973629
 10
0.678349999414
 20
0.423789973629
  0
LWPOLYLINE
  5
210
330
10
100
AcDbEntity
  8
TRACTOR_CMP
  6
BYLAYER
370
   211
 62
   256
100
AcDbPolyline
 90
     2
 70
     0
 43
0.0239999999787
 10
0.678349999414
 20
0.447779999854
 10
0.668440025669
 20
0.447779999854
  0
LWPOLYLINE
  5
211
330
10
100
AcDbEntity
  8
TRACTOR_CMP
  6
BYLAYER
370
   211
 62
   256
100
AcDbPolyline
 90
     5
 70
     0
 43
0.0239999999787
 10
0.774340025575
 20
0.437949973616
 10
0.774340025575
 20
0.419289973633
 10
0.775589999328
 20
0.41877999988
 10
0.775589999328
 20
0.439199999862
 10
0.774340025575
 20
0.437949973616
  0
LWPOLYLINE
  5
212
330
10
100
AcDbEntity
  8
TRACTOR_CMP
  6
BYLAYER
370
   211
 62
   256
100
AcDbPolyline
 90
     2
 70
     0
 43
0.0239999999787
 10
0.774340025575
 20
0.423789973629
 10
0.775589999328
 20
0.423789973629
  0
LWPOLYLINE
  5
213
330
10
100
AcDbEntity
  8
TRACTOR_CMP
  6
BYLAYER
370
   211
 62
   256
100
AcDbPolyline
 90
     2
 70
     0
 43
0.0239999999787
 10
0.515480025805
 20
0.567699999748
 10
0.512600025808
 20
0.567699999748
  0
LWPOLYLINE
  5
214
330
10
100
AcDbEntity
  8
TRACTOR_CMP
  6
BYLAYER
370
   211
 62
   256
100
AcDbPolyline
 90
     2
 70
     0
 43
0.0239999999787
 10
0.512600025808
 20
0.855519999492
 10
0.892120025471
 20
0.855519999492
  0
LWPOLYLINE
  5
215
330
10
100
AcDbEntity
  8
TRACTOR_CMP
  6
BYLAYER
370
   211
 62
   256
100
AcDbPolyline
 90
     2
 70
     0
 43
0.0239999999787
 10
0.892120025471
 20
0.879509973224
 10
0.512600025808
 20
0.879509973224
  0
LWPOLYLINE
  5
216
330
10
100
AcDbEntity
  8
TRACTOR_CMP
  6
BYLAYER
370
   211
 62
   256
100
AcDbPolyline
 90
     2
 70
     0
 43
0.0239999999787
 10
0.512600025808
 20
0.903489973203
 10
0.892120025471
 20
0.903489973203
  0
LWPOLYLINE
  5
217
330
10
100
AcDbEntity
  8
TRACTOR_CMP
  6
BYLAYER
370
   211
 62
   256
100
AcDbPolyline
 90
     2
 70
     0
 43
0.0239999999787
 10
0.892120025471
 20
0.927479999428
 10
0.512600025808
 20
0.927479999428
  0
LWPOLYLINE
  5
218
330
10
100
AcDbEntity
  8
TRACTOR_CMP
  6
BYLAYER
370
   211
 62
   256
100
AcDbPolyline
 90
     2
 70
     0
 43
0.0239999999787
 10
0.512600025808
 20
0.95146997316
 10
0.892120025471
 20
0.95146997316
  0
LWPOLYLINE
  5
219
330
10
100
AcDbEntity
  8
TRACTOR_CMP
  6
BYLAYER
370
   211
 62
   256
100
AcDbPolyline
 90
     2
 70
     0
 43
0.0239999999787
 10
0.892120025471
 20
0.975449973139
 10
0.512600025808
 20
0.975449973139
  0
LWPOLYLINE
  5
21A
330
10
100
AcDbEntity
  8
TRACTOR_CMP
  6
BYLAYER
370
   211
 62
   256
100
AcDbPolyline
 90
     2
 70
     0
 43
0.0239999999787
 10
0.512600025808
 20
0.999439999364
 10
0.892120025471
 20
0.999439999364
  0
LWPOLYLINE
  5
21B
330
10
100
AcDbEntity
  8
TRACTOR_CMP
  6
BYLAYER
370
   211
 62
   256
100
AcDbPolyline
 90
     2
 70
     0
 43
0.0239999999787
 10
0.892120025471
 20
1.02341999934
 10
0.641560025693
 20
1.02341999934
  0
LWPOLYLINE
  5
21C
330
10
100
AcDbEntity
  8
TRACTOR_CMP
  6
BYLAYER
370
   211
 62
   256
100
AcDbPolyline
 90
     2
 70
     0
 43
0.0239999999787
 10
0.665549999425
 20
1.04740997308
 10
0.89266002547
 20
1.04740997308
  0
LWPOLYLINE
  5
21D
330
10
100
AcDbEntity
  8
TRACTOR_CMP
  6
BYLAYER
370
   211
 62
   256
100
AcDbPolyline
 90
     2
 70
     0
 43
0.0239999999787
 10
0.907060025458
 20
1.07138997305
 10
0.680169999412
 20
1.07138997305
  0
LWPOLYLINE
  5
21E
330
10
100
AcDbEntity
  8
TRACTOR_CMP
  6
BYLAYER
370
   211
 62
   256
100
AcDbPolyline
 90
     2
 70
     0
 43
0.0239999999787
 10
0.680169999412
 20
1.09537999928
 10
0.931040025436
 20
1.09537999928
  0
LWPOLYLINE
  5
21F
330
10
100
AcDbEntity
  8
TRACTOR_CMP
  6
BYLAYER
370
   211
 62
   256
100
AcDbPolyline
 90
     2
 70
     0
 43
0.0239999999787
 10
0.962220025409
 20
1.11935999926
 10
0.680169999412
 20
1.11935999926
  0
LWPOLYLINE
  5
220
330
10
100
AcDbEntity
  8
TRACTOR_CMP
  6
BYLAYER
370
   211
 62
   256
100
AcDbPolyline
 90
     2
 70
     0
 43
0.0239999999787
 10
0.680169999412
 20
1.14334997299
 10
1.04416999909
 20
1.14334997299
  0
LWPOLYLINE
  5
221
330
10
100
AcDbEntity
  8
TRACTOR_CMP
  6
BYLAYER
370
   211
 62
   256
100
AcDbPolyline
 90
     2
 70
     0
 43
0.0239999999787
 10
1.02116002536
 20
1.16732997297
 10
0.661760025675
 20
1.16732997297
  0
LWPOLYLINE
  5
222
330
10
100
AcDbEntity
  8
TRACTOR_CMP
  6
BYLAYER
370
   211
 62
   256
100
AcDbPolyline
 90
     2
 70
     0
 43
0.0239999999787
 10
0.63776999945
 20
1.19131999919
 10
1.02116002536
 20
1.19131999919
  0
LWPOLYLINE
  5
223
330
10
100
AcDbEntity
  8
TRACTOR_CMP
  6
BYLAYER
370
   211
 62
   256
100
AcDbPolyline
 90
     2
 70
     0
 43
0.0239999999787
 10
1.02116002536
 20
1.21529999917
 10
0.512600025808
 20
1.21529999917
  0
LWPOLYLINE
  5
224
330
10
100
AcDbEntity
  8
TRACTOR_CMP
  6
BYLAYER
370
   211
 62
   256
100
AcDbPolyline
 90
     2
 70
     0
 43
0.0239999999787
 10
0.512600025808
 20
1.19131999919
 10
0.512769999561
 20
1.19131999919
  0
LWPOLYLINE
  5
225
330
10
100
AcDbEntity
  8
TRACTOR_CMP
  6
BYLAYER
370
   211
 62
   256
100
AcDbPolyline
 90
     2
 70
     0
 43
0.0239999999787
 10
0.512600025808
 20
1.2392899729
 10
1.02116002536
 20
1.2392899729
  0
LWPOLYLINE
  5
226
330
10
100
AcDbEntity
  8
TRACTOR_CMP
  6
BYLAYER
370
   211
 62
   256
100
AcDbPolyline
 90
     2
 70
     0
 43
0.0239999999787
 10
1.03118002535
 20
1.26326997288
 10
0.512600025808
 20
1.26326997288
  0
LWPOLYLINE
  5
227
330
10
100
AcDbEntity
  8
TRACTOR_CMP
  6
BYLAYER
370
   211
 62
   256
100
AcDbPolyline
 90
     2
 70
     0
 43
0.0239999999787
 10
0.512600025808
 20
1.28725999911
 10
1.05516002533
 20
1.28725999911
  0
LWPOLYLINE
  5
228
330
10
100
AcDbEntity
  8
TRACTOR_CMP
  6
BYLAYER
370
   211
 62
   256
100
AcDbPolyline
 90
     2
 70
     0
 43
0.0239999999787
 10
1.07914999906
 20
1.31123999909
 10
0.512600025808
 20
1.31123999909
  0
LWPOLYLINE
  5
229
330
10
100
AcDbEntity
  8
TRACTOR_CMP
  6
BYLAYER
370
   211
 62
   256
100
AcDbPolyline
 90
     2
 70
     0
 43
0.0239999999787
 10
0.512600025808
 20
1.33522997282
 10
2.21338999805
 20
1.33522997282
  0
LWPOLYLINE
  5
22A
330
10
100
AcDbEntity
  8
TRACTOR_CMP
  6
BYLAYER
370
   211
 62
   256
100
AcDbPolyline
 90
     2
 70
     0
 43
0.0239999999787
 10
2.46624002407
 20
1.21529999917
 10
1.95722999828
 20
1.21529999917
  0
LWPOLYLINE
  5
22B
330
10
100
AcDbEntity
  8
TRACTOR_CMP
  6
BYLAYER
370
   211
 62
   256
100
AcDbPolyline
 90
     2
 70
     0
 43
0.0239999999787
 10
1.97464002451
 20
1.19131999919
 10
2.4391800241
 20
1.19131999919
  0
LWPOLYLINE
  5
22C
330
10
100
AcDbEntity
  8
TRACTOR_CMP
  6
BYLAYER
370
   211
 62
   256
100
AcDbPolyline
 90
     2
 70
     0
 43
0.0239999999787
 10
2.42128999787
 20
1.16732997297
 10
2.23030999804
 20
1.16732997297
  0
LWPOLYLINE
  5
22D
330
10
100
AcDbEntity
  8
TRACTOR_CMP
  6
BYLAYER
370
   211
 62
   256
100
AcDbPolyline
 90
     2
 70
     0
 43
0.0239999999787
 10
2.24010999803
 20
1.14334997299
 10
2.41680002412
 20
1.14334997299
  0
LWPOLYLINE
  5
22E
330
10
100
AcDbEntity
  8
TRACTOR_CMP
  6
BYLAYER
370
   211
 62
   256
100
AcDbPolyline
 90
     3
 70
     0
 43
0.0239999999787
 10
2.41334999787
 20
1.08578997304
 10
2.41136999788
 20
1.08380997304
 10
2.34962002418
 20
1.08380997304
  0
LWPOLYLINE
  5
22F
330
10
100
AcDbEntity
  8
TRACTOR_CMP
  6
BYLAYER
370
   211
 62
   256
100
AcDbPolyline
 90
     3
 70
     0
 43
0.0239999999787
 10
2.28268999799
 20
1.08380997304
 10
2.28166999799
 20
1.08277999929
 10
2.18442002432
 20
1.08277999929
  0
LWPOLYLINE
  5
230
330
10
100
AcDbEntity
  8
TRACTOR_CMP
  6
BYLAYER
370
   211
 62
   256
100
AcDbPolyline
 90
     5
 70
     0
 43
0.0239999999787
 10
2.12874002437
 20
1.08077999929
 10
2.10692999815
 20
1.08077999929
 10
2.10292999815
 20
1.08477999929
 10
2.12874002437
 20
1.08477999929
 10
2.12874002437
 20
1.08077999929
  0
LWPOLYLINE
  5
231
330
10
100
AcDbEntity
  8
TRACTOR_CMP
  6
BYLAYER
370
   211
 62
   256
100
AcDbPolyline
 90
     4
 70
     0
 43
0.0239999999787
 10
2.05418002444
 20
1.06565999931
 10
2.05418002444
 20
1.131329973
 10
2.05272002444
 20
1.13277999925
 10
2.18442002432
 20
1.13277999925
  0
LWPOLYLINE
  5
232
330
10
100
AcDbEntity
  8
TRACTOR_CMP
  6
BYLAYER
370
   211
 62
   256
100
AcDbPolyline
 90
     3
 70
     0
 43
0.0239999999787
 10
2.05272002444
 20
1.06419999931
 10
2.02130002447
 20
1.03277999933
 10
1.92930002455
 20
1.03277999933
  0
LWPOLYLINE
  5
233
330
10
100
AcDbEntity
  8
TRACTOR_CMP
  6
BYLAYER
370
   211
 62
   256
100
AcDbPolyline
 90
     6
 70
     0
 43
0.0239999999787
 10
1.86216999836
 20
1.03460997309
 10
1.71516999849
 20
1.03460997309
 10
1.69696002476
 20
1.05970997306
 10
1.70084002475
 20
1.02027999935
 10
1.70084002475
 20
0.786399999554
 10
1.69830002476
 20
0.786399999554
  0
LWPOLYLINE
  5
234
330
10
100
AcDbEntity
  8
TRACTOR_CMP
  6
BYLAYER
370
   211
 62
   256
100
AcDbPolyline
 90
     2
 70
     0
 43
0.0239999999787
 10
1.75084002471
 20
0.786399999554
 10
1.75268002471
 20
0.786399999554
  0
LWPOLYLINE
  5
235
330
10
100
AcDbEntity
  8
TRACTOR_CMP
  6
BYLAYER
370
   211
 62
   256
100
AcDbPolyline
 90
     2
 70
     0
 43
0.0239999999787
 10
1.80068002466
 20
0.807549973288
 10
1.8768400246
 20
0.807549973288
  0
LWPOLYLINE
  5
236
330
10
100
AcDbEntity
  8
TRACTOR_CMP
  6
BYLAYER
370
   211
 62
   256
100
AcDbPolyline
 90
     2
 70
     0
 43
0.0239999999787
 10
1.8736200246
 20
0.831539999514
 10
1.80974002466
 20
0.831539999514
  0
LWPOLYLINE
  5
237
330
10
100
AcDbEntity
  8
TRACTOR_CMP
  6
BYLAYER
370
   211
 62
   256
100
AcDbPolyline
 90
     2
 70
     0
 43
0.0239999999787
 10
1.76054999845
 20
0.874599999475
 10
1.7602400247
 20
0.882779999468
  0
LWPOLYLINE
  5
238
330
10
100
AcDbEntity
  8
TRACTOR_CMP
  6
BYLAYER
370
   211
 62
   256
100
AcDbPolyline
 90
     3
 70
     0
 43
0.0239999999787
 10
1.76054999845
 20
0.941529973169
 10
1.76374999845
 20
0.944719999413
 10
1.76374999845
 20
0.991299999372
  0
LWPOLYLINE
  5
239
330
10
100
AcDbEntity
  8
TRACTOR_CMP
  6
BYLAYER
370
   211
 62
   256
100
AcDbPolyline
 90
     2
 70
     0
 43
0.0239999999787
 10
1.64956999855
 20
0.953929973158
 10
1.6444600248
 20
0.959049973154
  0
LWPOLYLINE
  5
23A
330
10
100
AcDbEntity
  8
TRACTOR_CMP
  6
BYLAYER
370
   211
 62
   256
100
AcDbPolyline
 90
    10
 70
     0
 43
0.0239999999787
 10
1.64956999855
 20
0.953929973158
 10
1.64956999855
 20
0.886969973218
 10
1.64878999855
 20
0.886179999465
 10
1.55074999864
 20
0.886179999465
 10
1.51964999867
 20
0.917279999437
 10
1.51964999867
 20
1.05822997307
 10
1.5983899986
 20
1.136969973
 10
1.73224999848
 20
1.136969973
 10
1.78644002468
 20
1.08277999929
 10
1.92930002455
 20
1.08277999929
  0
LWPOLYLINE
  5
23B
330
10
100
AcDbEntity
  8
TRACTOR_CMP
  6
BYLAYER
370
   211
 62
   256
100
AcDbPolyline
 90
     2
 70
     0
 43
0.0239999999787
 10
1.98498999825
 20
1.09537999928
 10
2.00618002448
 20
1.09537999928
  0
LWPOLYLINE
  5
23C
330
10
100
AcDbEntity
  8
TRACTOR_CMP
  6
BYLAYER
370
   211
 62
   256
100
AcDbPolyline
 90
     2
 70
     0
 43
0.0239999999787
 10
2.00618002448
 20
1.11935999926
 10
1.98498999825
 20
1.11935999926
  0
LWPOLYLINE
  5
23D
330
10
100
AcDbEntity
  8
TRACTOR_CMP
  6
BYLAYER
370
   211
 62
   256
100
AcDbPolyline
 90
     2
 70
     0
 43
0.0239999999787
 10
1.98498999825
 20
1.14334997299
 10
2.00514002448
 20
1.14334997299
  0
LWPOLYLINE
  5
23E
330
10
100
AcDbEntity
  8
TRACTOR_CMP
  6
BYLAYER
370
   211
 62
   256
100
AcDbPolyline
 90
     2
 70
     0
 43
0.0239999999787
 10
2.01938999822
 20
1.16732997297
 10
1.97730002451
 20
1.16732997297
  0
LWPOLYLINE
  5
23F
330
10
100
AcDbEntity
  8
TRACTOR_CMP
  6
BYLAYER
370
   211
 62
   256
100
AcDbPolyline
 90
     4
 70
     0
 43
0.0239999999787
 10
1.92930002455
 20
1.17534997296
 10
1.89326999834
 20
1.21137999918
 10
1.41650002501
 20
1.21137999918
 10
1.32870999884
 20
1.12357999925
  0
LWPOLYLINE
  5
240
330
10
100
AcDbEntity
  8
TRACTOR_CMP
  6
BYLAYER
370
   211
 62
   256
100
AcDbPolyline
 90
     2
 70
     0
 43
0.0239999999787
 10
1.27290002513
 20
1.14334997299
 10
1.20794999894
 20
1.14334997299
  0
LWPOLYLINE
  5
241
330
10
100
AcDbEntity
  8
TRACTOR_CMP
  6
BYLAYER
370
   211
 62
   256
100
AcDbPolyline
 90
     2
 70
     0
 43
0.0239999999787
 10
1.23094999892
 20
1.16732997297
 10
1.29352999887
 20
1.16732997297
  0
LWPOLYLINE
  5
242
330
10
100
AcDbEntity
  8
TRACTOR_CMP
  6
BYLAYER
370
   211
 62
   256
100
AcDbPolyline
 90
     2
 70
     0
 43
0.0239999999787
 10
1.32856002508
 20
1.19131999919
 10
1.23094999892
 20
1.19131999919
  0
LWPOLYLINE
  5
243
330
10
100
AcDbEntity
  8
TRACTOR_CMP
  6
BYLAYER
370
   211
 62
   256
100
AcDbPolyline
 90
     2
 70
     0
 43
0.0239999999787
 10
1.23094999892
 20
1.21529999917
 10
1.35254002506
 20
1.21529999917
  0
LWPOLYLINE
  5
244
330
10
100
AcDbEntity
  8
TRACTOR_CMP
  6
BYLAYER
370
   211
 62
   256
100
AcDbPolyline
 90
     2
 70
     0
 43
0.0239999999787
 10
1.37652999879
 20
1.2392899729
 10
1.23094999892
 20
1.2392899729
  0
LWPOLYLINE
  5
245
330
10
100
AcDbEntity
  8
TRACTOR_CMP
  6
BYLAYER
370
   211
 62
   256
100
AcDbPolyline
 90
     2
 70
     0
 43
0.0239999999787
 10
1.22094002518
 20
1.26326997288
 10
2.46624002407
 20
1.26326997288
  0
LWPOLYLINE
  5
246
330
10
100
AcDbEntity
  8
TRACTOR_CMP
  6
BYLAYER
370
   211
 62
   256
100
AcDbPolyline
 90
     2
 70
     0
 43
0.0239999999787
 10
2.46624002407
 20
1.2392899729
 10
1.9332499983
 20
1.2392899729
  0
LWPOLYLINE
  5
247
330
10
100
AcDbEntity
  8
TRACTOR_CMP
  6
BYLAYER
370
   211
 62
   256
100
AcDbPolyline
 90
     2
 70
     0
 43
0.0239999999787
 10
1.92930002455
 20
1.17534997296
 10
1.92930002455
 20
1.13277999925
  0
LWPOLYLINE
  5
248
330
10
100
AcDbEntity
  8
TRACTOR_CMP
  6
BYLAYER
370
   211
 62
   256
100
AcDbPolyline
 90
     7
 70
     0
 43
0.0239999999787
 10
1.8736200246
 20
1.13077999925
 10
1.80632002466
 20
1.13077999925
 10
1.77372002469
 20
1.16337999922
 10
1.87338999835
 20
1.16337999922
 10
1.87752999835
 20
1.15923999922
 10
1.8736200246
 20
1.14978997298
 10
1.8736200246
 20
1.13077999925
  0
LWPOLYLINE
  5
249
330
10
100
AcDbEntity
  8
TRACTOR_CMP
  6
BYLAYER
370
   211
 62
   256
100
AcDbPolyline
 90
     2
 70
     0
 43
0.0239999999787
 10
1.8736200246
 20
1.14334997299
 10
1.79376002467
 20
1.14334997299
  0
LWPOLYLINE
  5
24A
330
10
100
AcDbEntity
  8
TRACTOR_CMP
  6
BYLAYER
370
   211
 62
   256
100
AcDbPolyline
 90
     5
 70
     0
 43
0.0239999999787
 10
1.63002999857
 20
1.05970997306
 10
1.61168002483
 20
1.05970997306
 10
1.57476999862
 20
1.02279999934
 10
1.57752999862
 20
1.02003999935
 10
1.57752999862
 20
0.959049973154
  0
LWPOLYLINE
  5
24B
330
10
100
AcDbEntity
  8
TRACTOR_CMP
  6
BYLAYER
370
   211
 62
   256
100
AcDbPolyline
 90
     2
 70
     0
 43
0.0239999999787
 10
1.57722999862
 20
1.02033999935
 10
1.57476999862
 20
1.02279999934
  0
LWPOLYLINE
  5
24C
330
10
100
AcDbEntity
  8
TRACTOR_CMP
  6
BYLAYER
370
   211
 62
   256
100
AcDbPolyline
 90
    10
 70
     0
 43
0.0239999999787
 10
1.47650999871
 20
1.07948997305
 10
1.45522999872
 20
1.10076997303
 10
1.44172002498
 20
1.11426997302
 10
1.424080025
 20
1.12157999926
 10
1.39458999878
 20
1.12157999926
 10
1.43638002499
 20
1.16337999922
 10
1.55692002488
 20
1.16337999922
 10
1.49246002494
 20
1.09891999928
 10
1.47896002495
 20
1.08541999929
 10
1.47650999871
 20
1.07948997305
  0
LWPOLYLINE
  5
24D
330
10
100
AcDbEntity
  8
TRACTOR_CMP
  6
BYLAYER
370
   211
 62
   256
100
AcDbPolyline
 90
     2
 70
     0
 43
0.0239999999787
 10
1.48892002494
 20
1.09537999928
 10
1.46062002497
 20
1.09537999928
  0
LWPOLYLINE
  5
24E
330
10
100
AcDbEntity
  8
TRACTOR_CMP
  6
BYLAYER
370
   211
 62
   256
100
AcDbPolyline
 90
     2
 70
     0
 43
0.0239999999787
 10
1.42944999875
 20
1.11935999926
 10
1.51290002492
 20
1.11935999926
  0
LWPOLYLINE
  5
24F
330
10
100
AcDbEntity
  8
TRACTOR_CMP
  6
BYLAYER
370
   211
 62
   256
100
AcDbPolyline
 90
     2
 70
     0
 43
0.0239999999787
 10
1.53688999865
 20
1.14334997299
 10
1.41634999876
 20
1.14334997299
  0
LWPOLYLINE
  5
250
330
10
100
AcDbEntity
  8
TRACTOR_CMP
  6
BYLAYER
370
   211
 62
   256
100
AcDbPolyline
 90
     9
 70
     0
 43
0.0239999999787
 10
1.18802002521
 20
1.02557999934
 10
1.14364002525
 20
0.981199999381
 10
1.13014002526
 20
0.967699999393
 10
1.12282999902
 20
0.950059999408
 10
1.12282999902
 20
0.867789973235
 10
1.07590002531
 20
0.91471999944
 10
1.12504999902
 20
0.963879999396
 10
1.12504999902
 20
1.02557999934
 10
1.18802002521
 20
1.02557999934
  0
LWPOLYLINE
  5
251
330
10
100
AcDbEntity
  8
TRACTOR_CMP
  6
BYLAYER
370
   211
 62
   256
100
AcDbPolyline
 90
     2
 70
     0
 43
0.0239999999787
 10
1.18586002521
 20
1.02341999934
 10
1.12504999902
 20
1.02341999934
  0
LWPOLYLINE
  5
252
330
10
100
AcDbEntity
  8
TRACTOR_CMP
  6
BYLAYER
370
   211
 62
   256
100
AcDbPolyline
 90
     2
 70
     0
 43
0.0239999999787
 10
1.12504999902
 20
0.999439999364
 10
1.16186999898
 20
0.999439999364
  0
LWPOLYLINE
  5
253
330
10
100
AcDbEntity
  8
TRACTOR_CMP
  6
BYLAYER
370
   211
 62
   256
100
AcDbPolyline
 90
     2
 70
     0
 43
0.0239999999787
 10
1.13788999901
 20
0.975449973139
 10
1.12504999902
 20
0.975449973139
  0
LWPOLYLINE
  5
254
330
10
100
AcDbEntity
  8
TRACTOR_CMP
  6
BYLAYER
370
   211
 62
   256
100
AcDbPolyline
 90
     2
 70
     0
 43
0.0239999999787
 10
1.12342002527
 20
0.95146997316
 10
1.11264002528
 20
0.95146997316
  0
LWPOLYLINE
  5
255
330
10
100
AcDbEntity
  8
TRACTOR_CMP
  6
BYLAYER
370
   211
 62
   256
100
AcDbPolyline
 90
     2
 70
     0
 43
0.0239999999787
 10
1.12282999902
 20
0.927479999428
 10
1.08864999905
 20
0.927479999428
  0
LWPOLYLINE
  5
256
330
10
100
AcDbEntity
  8
TRACTOR_CMP
  6
BYLAYER
370
   211
 62
   256
100
AcDbPolyline
 90
     2
 70
     0
 43
0.0239999999787
 10
1.08712999905
 20
0.903489973203
 10
1.12282999902
 20
0.903489973203
  0
LWPOLYLINE
  5
257
330
10
100
AcDbEntity
  8
TRACTOR_CMP
  6
BYLAYER
370
   211
 62
   256
100
AcDbPolyline
 90
     2
 70
     0
 43
0.0239999999787
 10
1.12282999902
 20
0.879509973224
 10
1.11110999903
 20
0.879509973224
  0
LWPOLYLINE
  5
258
330
10
100
AcDbEntity
  8
TRACTOR_CMP
  6
BYLAYER
370
   211
 62
   256
100
AcDbPolyline
 90
     4
 70
     0
 43
0.0239999999787
 10
1.00180999913
 20
0.916689973191
 10
0.988120025386
 20
0.903009973203
 10
0.988120025386
 20
0.930379999426
 10
1.00180999913
 20
0.916689973191
  0
LWPOLYLINE
  5
259
330
10
100
AcDbEntity
  8
TRACTOR_CMP
  6
BYLAYER
370
   211
 62
   256
100
AcDbPolyline
 90
     2
 70
     0
 43
0.0239999999787
 10
0.991020025383
 20
0.927479999428
 10
0.988120025386
 20
0.927479999428
  0
LWPOLYLINE
  5
25A
330
10
100
AcDbEntity
  8
TRACTOR_CMP
  6
BYLAYER
370
   211
 62
   256
100
AcDbPolyline
 90
     2
 70
     0
 43
0.0239999999787
 10
0.988120025386
 20
0.903489973203
 10
0.988609999138
 20
0.903489973203
  0
LWPOLYLINE
  5
25B
330
10
100
AcDbEntity
  8
TRACTOR_CMP
  6
BYLAYER
370
   211
 62
   256
100
AcDbPolyline
 90
     2
 70
     0
 43
0.0239999999787
 10
1.21882999893
 20
0.831539999514
 10
1.23028002517
 20
0.831539999514
  0
LWPOLYLINE
  5
25C
330
10
100
AcDbEntity
  8
TRACTOR_CMP
  6
BYLAYER
370
   211
 62
   256
100
AcDbPolyline
 90
     2
 70
     0
 43
0.0239999999787
 10
1.21882999893
 20
0.807549973288
 10
1.26386002514
 20
0.807549973288
  0
LWPOLYLINE
  5
25D
330
10
100
AcDbEntity
  8
TRACTOR_CMP
  6
BYLAYER
370
   211
 62
   256
100
AcDbPolyline
 90
     2
 70
     0
 43
0.0239999999787
 10
1.29356999887
 20
0.783569973309
 10
1.20972999894
 20
0.783569973309
  0
LWPOLYLINE
  5
25E
330
10
100
AcDbEntity
  8
TRACTOR_CMP
  6
BYLAYER
370
   211
 62
   256
100
AcDbPolyline
 90
     4
 70
     0
 43
0.0239999999787
 10
1.38972999878
 20
0.755079999581
 10
1.40942002501
 20
0.755079999581
 10
1.44334002498
 20
0.789009973305
 10
1.44822999873
 20
0.789009973305
  0
LWPOLYLINE
  5
25F
330
10
100
AcDbEntity
  8
TRACTOR_CMP
  6
BYLAYER
370
   211
 62
   256
100
AcDbPolyline
 90
     2
 70
     0
 43
0.0239999999787
 10
1.64956999855
 20
0.787669973306
 10
1.64956999855
 20
0.886969973218
  0
LWPOLYLINE
  5
260
330
10
100
AcDbEntity
  8
TRACTOR_CMP
  6
BYLAYER
370
   211
 62
   256
100
AcDbPolyline
 90
     2
 70
     0
 43
0.0239999999787
 10
1.64956999855
 20
0.787669973306
 10
1.6508400248
 20
0.786399999554
  0
LWPOLYLINE
  5
261
330
10
100
AcDbEntity
  8
TRACTOR_CMP
  6
BYLAYER
370
   211
 62
   256
100
AcDbPolyline
 90
     2
 70
     0
 43
0.0239999999787
 10
1.83460999839
 20
0.650139999675
 10
1.83460999839
 20
0.589719999728
  0
LWPOLYLINE
  5
262
330
10
100
AcDbEntity
  8
TRACTOR_CMP
  6
BYLAYER
370
   211
 62
   256
100
AcDbPolyline
 90
     2
 70
     0
 43
0.0239999999787
 10
1.75084002471
 20
0.582949973488
 10
1.75084002471
 20
0.612249973462
  0
LWPOLYLINE
  5
263
330
10
100
AcDbEntity
  8
TRACTOR_CMP
  6
BYLAYER
370
   211
 62
   256
100
AcDbPolyline
 90
     2
 70
     0
 43
0.0239999999787
 10
1.83460999839
 20
0.650139999675
 10
1.83894999838
 20
0.650529973428
  0
LWPOLYLINE
  5
264
330
10
100
AcDbEntity
  8
TRACTOR_CMP
  6
BYLAYER
370
   211
 62
   256
100
AcDbPolyline
 90
     9
 70
     0
 43
0.0239999999787
 10
1.97730002451
 20
0.682189973399
 10
1.97730002451
 20
0.750339999586
 10
1.97950999826
 20
0.752549973337
 10
1.98498999825
 20
0.765779999572
 10
1.98498999825
 20
0.784779999555
 10
2.03070002446
 20
0.784779999555
 10
2.03070002446
 20
0.74563999959
 10
2.02358002447
 20
0.728469973358
 10
1.97730002451
 20
0.682189973399
  0
LWPOLYLINE
  5
265
330
10
100
AcDbEntity
  8
TRACTOR_CMP
  6
BYLAYER
370
   211
 62
   256
100
AcDbPolyline
 90
     2
 70
     0
 43
0.0239999999787
 10
1.97730002451
 20
0.687629973395
 10
1.98274999826
 20
0.687629973395
  0
LWPOLYLINE
  5
266
330
10
100
AcDbEntity
  8
TRACTOR_CMP
  6
BYLAYER
370
   211
 62
   256
100
AcDbPolyline
 90
     2
 70
     0
 43
0.0239999999787
 10
1.97730002451
 20
0.711609973373
 10
2.00672999823
 20
0.711609973373
  0
LWPOLYLINE
  5
267
330
10
100
AcDbEntity
  8
TRACTOR_CMP
  6
BYLAYER
370
   211
 62
   256
100
AcDbPolyline
 90
     2
 70
     0
 43
0.0239999999787
 10
2.02654002446
 20
0.735599999599
 10
1.97730002451
 20
0.735599999599
  0
LWPOLYLINE
  5
268
330
10
100
AcDbEntity
  8
TRACTOR_CMP
  6
BYLAYER
370
   211
 62
   256
100
AcDbPolyline
 90
     2
 70
     0
 43
0.0239999999787
 10
1.9824200245
 20
0.759579999577
 10
2.03070002446
 20
0.759579999577
  0
LWPOLYLINE
  5
269
330
10
100
AcDbEntity
  8
TRACTOR_CMP
  6
BYLAYER
370
   211
 62
   256
100
AcDbPolyline
 90
     2
 70
     0
 43
0.0239999999787
 10
2.03070002446
 20
0.783569973309
 10
1.98498999825
 20
0.783569973309
  0
LWPOLYLINE
  5
26A
330
10
100
AcDbEntity
  8
TRACTOR_CMP
  6
BYLAYER
370
   211
 62
   256
100
AcDbPolyline
 90
     2
 70
     0
 43
0.0239999999787
 10
2.02486999822
 20
0.832779999512
 10
1.92930002455
 20
0.832779999512
  0
LWPOLYLINE
  5
26B
330
10
100
AcDbEntity
  8
TRACTOR_CMP
  6
BYLAYER
370
   211
 62
   256
100
AcDbPolyline
 90
     2
 70
     0
 43
0.0239999999787
 10
2.07870002442
 20
0.832779999512
 10
2.18442002432
 20
0.832779999512
  0
LWPOLYLINE
  5
26C
330
10
100
AcDbEntity
  8
TRACTOR_CMP
  6
BYLAYER
370
   211
 62
   256
100
AcDbPolyline
 90
     5
 70
     0
 43
0.0239999999787
 10
2.24010999803
 20
0.833259999512
 10
2.24010999803
 20
0.830779999514
 10
2.24214002427
 20
0.830779999514
 10
2.24236002427
 20
0.831009973267
 10
2.24010999803
 20
0.833259999512
  0
LWPOLYLINE
  5
26D
330
10
100
AcDbEntity
  8
TRACTOR_CMP
  6
BYLAYER
370
   211
 62
   256
100
AcDbPolyline
 90
     2
 70
     0
 43
0.0239999999787
 10
2.24010999803
 20
0.831539999514
 10
2.24182999803
 20
0.831539999514
  0
LWPOLYLINE
  5
26E
330
10
100
AcDbEntity
  8
TRACTOR_CMP
  6
BYLAYER
370
   211
 62
   256
100
AcDbPolyline
 90
     2
 70
     0
 43
0.0239999999787
 10
2.28044002424
 20
0.782779999557
 10
2.18442002432
 20
0.782779999557
  0
LWPOLYLINE
  5
26F
330
10
100
AcDbEntity
  8
TRACTOR_CMP
  6
BYLAYER
370
   211
 62
   256
100
AcDbPolyline
 90
     2
 70
     0
 43
0.0239999999787
 10
2.12874002437
 20
0.783569973309
 10
2.12670002437
 20
0.783569973309
  0
LWPOLYLINE
  5
270
330
10
100
AcDbEntity
  8
TRACTOR_CMP
  6
BYLAYER
370
   211
 62
   256
100
AcDbPolyline
 90
    10
 70
     0
 43
0.0239999999787
 10
2.12670002437
 20
0.784779999555
 10
2.12874002437
 20
0.784779999555
 10
2.12874002437
 20
0.765779999572
 10
2.13422002437
 20
0.752549973337
 10
2.14434002436
 20
0.742419999593
 10
2.1570499981
 20
0.737159999597
 10
2.14358002436
 20
0.737159999597
 10
2.13414002437
 20
0.727719999606
 10
2.12670002437
 20
0.74569999959
 10
2.12670002437
 20
0.784779999555
  0
LWPOLYLINE
  5
271
330
10
100
AcDbEntity
  8
TRACTOR_CMP
  6
BYLAYER
370
   211
 62
   256
100
AcDbPolyline
 90
     2
 70
     0
 43
0.0239999999787
 10
2.12670002437
 20
0.759579999577
 10
2.13130002437
 20
0.759579999577
  0
LWPOLYLINE
  5
272
330
10
100
AcDbEntity
  8
TRACTOR_CMP
  6
BYLAYER
370
   211
 62
   256
100
AcDbPolyline
 90
     2
 70
     0
 43
0.0239999999787
 10
2.13088002437
 20
0.735599999599
 10
2.14202002436
 20
0.735599999599
  0
LWPOLYLINE
  5
273
330
10
100
AcDbEntity
  8
TRACTOR_CMP
  6
BYLAYER
370
   211
 62
   256
100
AcDbPolyline
 90
    61
 70
     0
 43
0.0239999999787
 10
2.19730999807
 20
0.734779999599
 10
2.23618999803
 20
0.734779999599
 10
2.24334002427
 20
0.727629973359
 10
2.25656999801
 20
0.722149973364
 10
2.31026002421
 20
0.722149973364
 10
2.31688002421
 20
0.724889973362
 10
2.3235000242
 20
0.722149973364
 10
2.36542002416
 20
0.722149973364
 10
2.36542002416
 20
0.708539999623
 10
2.37322999791
 20
0.689689973393
 10
2.37322999791
 20
0.635289973441
 10
2.3805299979
 20
0.617649973457
 10
2.39404002414
 20
0.604149973469
 10
2.63288999768
 20
0.365289973681
 10
2.65054002391
 20
0.357989973687
 10
2.66962999765
 20
0.357989973687
 10
2.67402002389
 20
0.357989973687
 10
2.67402002389
 20
0.339769973703
 10
2.67558002389
 20
0.336019999953
 10
1.5900299986
 20
0.337079999953
 10
1.63146999857
 20
0.378529973669
 10
1.67878002477
 20
0.378529973669
 10
1.68342999852
 20
0.380449973667
 10
1.68808002476
 20
0.378529973669
 10
1.74570999847
 20
0.378529973669
 10
1.7589400247
 20
0.384009973664
 10
1.76106999845
 20
0.386139999909
 10
1.95528002453
 20
0.385819999909
 10
1.96350999827
 20
0.38535999991
 10
1.96478002452
 20
0.385809973663
 10
1.96612999827
 20
0.385799999909
 10
1.97374999826
 20
0.38894997366
 10
1.98152999826
 20
0.391669973657
 10
1.9825400245
 20
0.392569973657
 10
1.9837800245
 20
0.393079999903
 10
1.9896200245
 20
0.398899999898
 10
2.04202002445
 20
0.445749973609
 10
2.04330002445
 20
0.446279999856
 10
2.04910002444
 20
0.45207999985
 10
2.05522002444
 20
0.457549973599
 10
2.05582002444
 20
0.458799999844
 10
2.05680002444
 20
0.459779999844
 10
2.05994002443
 20
0.467359999837
 10
2.06350002443
 20
0.474749973584
 10
2.06358002443
 20
0.476139999829
 10
2.06410999818
 20
0.477419999828
 10
2.06410999818
 20
0.485629973574
 10
2.06456999818
 20
0.493819999813
 10
2.06410999818
 20
0.495129973566
 10
2.06410999818
 20
0.567629973501
 10
2.06858002443
 20
0.563159999752
 10
2.10726002439
 20
0.563159999752
 10
2.10726002439
 20
0.549479999764
 10
2.14358002436
 20
0.513159999796
 10
2.19494002431
 20
0.513159999796
 10
2.23126002428
 20
0.549479999764
 10
2.23126002428
 20
0.600839999718
 10
2.2069400243
 20
0.625159999697
 10
2.23126002428
 20
0.649479999675
 10
2.23126002428
 20
0.70083999963
 10
2.19730999807
 20
0.734779999599
  0
LWPOLYLINE
  5
274
330
10
100
AcDbEntity
  8
TRACTOR_CMP
  6
BYLAYER
370
   211
 62
   256
100
AcDbPolyline
 90
     2
 70
     0
 43
0.0239999999787
 10
2.22048002429
 20
0.711609973373
 10
2.36542002416
 20
0.711609973373
  0
LWPOLYLINE
  5
275
330
10
100
AcDbEntity
  8
TRACTOR_CMP
  6
BYLAYER
370
   211
 62
   256
100
AcDbPolyline
 90
     2
 70
     0
 43
0.0239999999787
 10
2.37322999791
 20
0.687629973395
 10
2.23126002428
 20
0.687629973395
  0
LWPOLYLINE
  5
276
330
10
100
AcDbEntity
  8
TRACTOR_CMP
  6
BYLAYER
370
   211
 62
   256
100
AcDbPolyline
 90
     2
 70
     0
 43
0.0239999999787
 10
2.23126002428
 20
0.663639999663
 10
2.37322999791
 20
0.663639999663
  0
LWPOLYLINE
  5
277
330
10
100
AcDbEntity
  8
TRACTOR_CMP
  6
BYLAYER
370
   211
 62
   256
100
AcDbPolyline
 90
     2
 70
     0
 43
0.0239999999787
 10
2.37322999791
 20
0.639659999684
 10
2.22144002429
 20
0.639659999684
  0
LWPOLYLINE
  5
278
330
10
100
AcDbEntity
  8
TRACTOR_CMP
  6
BYLAYER
370
   211
 62
   256
100
AcDbPolyline
 90
     2
 70
     0
 43
0.0239999999787
 10
2.2164200243
 20
0.615669973458
 10
2.3825099979
 20
0.615669973458
  0
LWPOLYLINE
  5
279
330
10
100
AcDbEntity
  8
TRACTOR_CMP
  6
BYLAYER
370
   211
 62
   256
100
AcDbPolyline
 90
     2
 70
     0
 43
0.0239999999787
 10
2.40650002413
 20
0.59168997348
 10
2.23126002428
 20
0.59168997348
  0
LWPOLYLINE
  5
27A
330
10
100
AcDbEntity
  8
TRACTOR_CMP
  6
BYLAYER
370
   211
 62
   256
100
AcDbPolyline
 90
     2
 70
     0
 43
0.0239999999787
 10
2.23126002428
 20
0.567699999748
 10
2.43048002411
 20
0.567699999748
  0
LWPOLYLINE
  5
27B
330
10
100
AcDbEntity
  8
TRACTOR_CMP
  6
BYLAYER
370
   211
 62
   256
100
AcDbPolyline
 90
     2
 70
     0
 43
0.0239999999787
 10
2.45446999784
 20
0.543719999769
 10
2.22550002429
 20
0.543719999769
  0
LWPOLYLINE
  5
27C
330
10
100
AcDbEntity
  8
TRACTOR_CMP
  6
BYLAYER
370
   211
 62
   256
100
AcDbPolyline
 90
     2
 70
     0
 43
0.0239999999787
 10
2.20152002431
 20
0.519729973544
 10
2.47844999782
 20
0.519729973544
  0
LWPOLYLINE
  5
27D
330
10
100
AcDbEntity
  8
TRACTOR_CMP
  6
BYLAYER
370
   211
 62
   256
100
AcDbPolyline
 90
     2
 70
     0
 43
0.0239999999787
 10
2.50244002404
 20
0.495749973565
 10
2.06410999818
 20
0.495749973565
  0
LWPOLYLINE
  5
27E
330
10
100
AcDbEntity
  8
TRACTOR_CMP
  6
BYLAYER
370
   211
 62
   256
100
AcDbPolyline
 90
     2
 70
     0
 43
0.0239999999787
 10
2.06410999818
 20
0.519729973544
 10
2.13700002437
 20
0.519729973544
  0
LWPOLYLINE
  5
27F
330
10
100
AcDbEntity
  8
TRACTOR_CMP
  6
BYLAYER
370
   211
 62
   256
100
AcDbPolyline
 90
     2
 70
     0
 43
0.0239999999787
 10
2.11302002439
 20
0.543719999769
 10
2.06410999818
 20
0.543719999769
  0
LWPOLYLINE
  5
280
330
10
100
AcDbEntity
  8
TRACTOR_CMP
  6
BYLAYER
370
   211
 62
   256
100
AcDbPolyline
 90
     3
 70
     0
 43
0.0239999999787
 10
1.92910002455
 20
0.526729973537
 10
1.92910002455
 20
0.494619999813
 10
1.92760002455
 20
0.493119999814
  0
LWPOLYLINE
  5
281
330
10
100
AcDbEntity
  8
TRACTOR_CMP
  6
BYLAYER
370
   211
 62
   256
100
AcDbPolyline
 90
     2
 70
     0
 43
0.0239999999787
 10
1.92910002455
 20
0.526729973537
 10
1.90942002457
 20
0.546419999767
  0
LWPOLYLINE
  5
282
330
10
100
AcDbEntity
  8
TRACTOR_CMP
  6
BYLAYER
370
   211
 62
   256
100
AcDbPolyline
 90
     3
 70
     0
 43
0.0239999999787
 10
1.86066999836
 20
0.493119999814
 10
1.75768999846
 20
0.493119999814
 10
1.75798999846
 20
0.493119999814
  0
LWPOLYLINE
  5
283
330
10
100
AcDbEntity
  8
TRACTOR_CMP
  6
BYLAYER
370
   211
 62
   256
100
AcDbPolyline
 90
     2
 70
     0
 43
0.0239999999787
 10
1.70188002475
 20
0.495749973565
 10
1.6488400248
 20
0.495749973565
  0
LWPOLYLINE
  5
284
330
10
100
AcDbEntity
  8
TRACTOR_CMP
  6
BYLAYER
370
   211
 62
   256
100
AcDbPolyline
 90
    11
 70
     0
 43
0.0239999999787
 10
1.6488400248
 20
0.489899999817
 10
1.6488400248
 20
0.502369973559
 10
1.66980999853
 20
0.502369973559
 10
1.67584002478
 20
0.504869973557
 10
1.68186002477
 20
0.502369973559
 10
1.70188002475
 20
0.502369973559
 10
1.70188002475
 20
0.489899999817
 10
1.68808002476
 20
0.489899999817
 10
1.68342999852
 20
0.487969973572
 10
1.67878002477
 20
0.489899999817
 10
1.6488400248
 20
0.489899999817
  0
LWPOLYLINE
  5
285
330
10
100
AcDbEntity
  8
TRACTOR_CMP
  6
BYLAYER
370
   211
 62
   256
100
AcDbPolyline
 90
     6
 70
     0
 43
0.0239999999787
 10
1.60084002484
 20
0.495779999812
 10
1.59042002485
 20
0.485359999821
 10
1.58854999861
 20
0.483489973576
 10
1.58854999861
 20
0.45231999985
 10
1.60626999859
 20
0.431849973622
 10
1.61752002483
 20
0.432459999868
  0
LWPOLYLINE
  5
286
330
10
100
AcDbEntity
  8
TRACTOR_CMP
  6
BYLAYER
370
   211
 62
   256
100
AcDbPolyline
 90
     3
 70
     0
 43
0.0239999999787
 10
1.52358999866
 20
0.485259999821
 10
1.52348999866
 20
0.485359999821
 10
1.52226002491
 20
0.484129973575
  0
LWPOLYLINE
  5
287
330
10
100
AcDbEntity
  8
TRACTOR_CMP
  6
BYLAYER
370
   211
 62
   256
100
AcDbPolyline
 90
     2
 70
     0
 43
0.0239999999787
 10
1.60084002484
 20
0.495779999812
 10
1.60084002484
 20
0.581679999735
  0
LWPOLYLINE
  5
288
330
10
100
AcDbEntity
  8
TRACTOR_CMP
  6
BYLAYER
370
   211
 62
   256
100
AcDbPolyline
 90
     3
 70
     0
 43
0.0239999999787
 10
1.45016002498
 20
0.580999999736
 10
1.44328999873
 20
0.574139999742
 10
1.35380002506
 20
0.574139999742
  0
LWPOLYLINE
  5
289
330
10
100
AcDbEntity
  8
TRACTOR_CMP
  6
BYLAYER
370
   211
 62
   256
100
AcDbPolyline
 90
    19
 70
     0
 43
0.0239999999787
 10
1.32696002508
 20
0.516479999793
 10
1.31372999885
 20
0.521959999788
 10
1.30590999886
 20
0.529779999781
 10
1.30484999886
 20
0.499209973562
 10
1.3116800251
 20
0.482719999823
 10
1.3116800251
 20
0.460509973596
 10
1.30696999886
 20
0.449139999853
 10
1.39504999878
 20
0.449139999853
 10
1.40070999877
 20
0.454799999848
 10
1.40462002502
 20
0.464249973593
 10
1.420320025
 20
0.479949973579
 10
1.42218999875
 20
0.480719999825
 10
1.40946999876
 20
0.493439999814
 10
1.40216002502
 20
0.511089973551
 10
1.40216002502
 20
0.526139999785
 10
1.39804999877
 20
0.526139999785
 10
1.39388002503
 20
0.521959999788
 10
1.38064999879
 20
0.516479999793
 10
1.32696002508
 20
0.516479999793
  0
LWPOLYLINE
  5
28A
330
10
100
AcDbEntity
  8
TRACTOR_CMP
  6
BYLAYER
370
   211
 62
   256
100
AcDbPolyline
 90
     2
 70
     0
 43
0.0239999999787
 10
1.31910999885
 20
0.519729973544
 10
1.3055600251
 20
0.519729973544
  0
LWPOLYLINE
  5
28B
330
10
100
AcDbEntity
  8
TRACTOR_CMP
  6
BYLAYER
370
   211
 62
   256
100
AcDbPolyline
 90
     2
 70
     0
 43
0.0239999999787
 10
1.30628999886
 20
0.495749973565
 10
1.40850999877
 20
0.495749973565
  0
LWPOLYLINE
  5
28C
330
10
100
AcDbEntity
  8
TRACTOR_CMP
  6
BYLAYER
370
   211
 62
   256
100
AcDbPolyline
 90
     2
 70
     0
 43
0.0239999999787
 10
1.41212999876
 20
0.471759999833
 10
1.3116800251
 20
0.471759999833
  0
LWPOLYLINE
  5
28D
330
10
100
AcDbEntity
  8
TRACTOR_CMP
  6
BYLAYER
370
   211
 62
   256
100
AcDbPolyline
 90
     2
 70
     0
 43
0.0239999999787
 10
1.2558699989
 20
0.471609973586
 10
1.2598099989
 20
0.585789973485
  0
LWPOLYLINE
  5
28E
330
10
100
AcDbEntity
  8
TRACTOR_CMP
  6
BYLAYER
370
   211
 62
   256
100
AcDbPolyline
 90
     2
 70
     0
 43
0.0239999999787
 10
1.38850002503
 20
0.519729973544
 10
1.40216002502
 20
0.519729973544
  0
LWPOLYLINE
  5
28F
330
10
100
AcDbEntity
  8
TRACTOR_CMP
  6
BYLAYER
370
   211
 62
   256
100
AcDbPolyline
 90
     2
 70
     0
 43
0.0239999999787
 10
1.62876999857
 20
0.375819999918
 10
2.62236002393
 20
0.375819999918
  0
LWPOLYLINE
  5
290
330
10
100
AcDbEntity
  8
TRACTOR_CMP
  6
BYLAYER
370
   211
 62
   256
100
AcDbPolyline
 90
     2
 70
     0
 43
0.0239999999787
 10
2.59838002396
 20
0.39980997365
 10
1.99062999825
 20
0.39980997365
  0
LWPOLYLINE
  5
291
330
10
100
AcDbEntity
  8
TRACTOR_CMP
  6
BYLAYER
370
   211
 62
   256
100
AcDbPolyline
 90
     2
 70
     0
 43
0.0239999999787
 10
2.01746002447
 20
0.423789973629
 10
2.57438999773
 20
0.423789973629
  0
LWPOLYLINE
  5
292
330
10
100
AcDbEntity
  8
TRACTOR_CMP
  6
BYLAYER
370
   211
 62
   256
100
AcDbPolyline
 90
     2
 70
     0
 43
0.0239999999787
 10
2.55040999775
 20
0.447779999854
 10
2.04480002445
 20
0.447779999854
  0
LWPOLYLINE
  5
293
330
10
100
AcDbEntity
  8
TRACTOR_CMP
  6
BYLAYER
370
   211
 62
   256
100
AcDbPolyline
 90
     2
 70
     0
 43
0.0239999999787
 10
2.06206002443
 20
0.471759999833
 10
2.52642002402
 20
0.471759999833
  0
LWPOLYLINE
  5
294
330
10
100
AcDbEntity
  8
TRACTOR_CMP
  6
BYLAYER
370
   211
 62
   256
100
AcDbPolyline
 90
     2
 70
     0
 43
0.0239999999787
 10
2.61422002394
 20
0.519729973544
 10
2.85558999748
 20
0.519729973544
  0
LWPOLYLINE
  5
295
330
10
100
AcDbEntity
  8
TRACTOR_CMP
  6
BYLAYER
370
   211
 62
   256
100
AcDbPolyline
 90
    24
 70
     0
 43
0.0239999999787
 10
2.84734999749
 20
0.527799999783
 10
2.85558999748
 20
0.536039999776
 10
2.85558999748
 20
0.488499999818
 10
2.84852999749
 20
0.495559999812
 10
2.83530002375
 20
0.501039999807
 10
2.70286002386
 20
0.501039999807
 10
2.68962999763
 20
0.495559999812
 10
2.67950002388
 20
0.485429973574
 10
2.67402002389
 20
0.472199999833
 10
2.67402002389
 20
0.459929973597
 10
2.51762999778
 20
0.616319999705
 10
2.52934002402
 20
0.616319999705
 10
2.54864999775
 20
0.624319999698
 10
2.56676002398
 20
0.616819999704
 10
2.63338002392
 20
0.616819999704
 10
2.65462999766
 20
0.625619999696
 10
2.67088999764
 20
0.641879999682
 10
2.67284999764
 20
0.646599999678
 10
2.67284999764
 20
0.551159999762
 10
2.67832999764
 20
0.537929973528
 10
2.68844999763
 20
0.527799999783
 10
2.70168999762
 20
0.522319999788
 10
2.83412002375
 20
0.522319999788
 10
2.84734999749
 20
0.527799999783
  0
LWPOLYLINE
  5
296
330
10
100
AcDbEntity
  8
TRACTOR_CMP
  6
BYLAYER
370
   211
 62
   256
100
AcDbPolyline
 90
     2
 70
     0
 43
0.0239999999787
 10
2.84806999749
 20
0.495749973565
 10
2.85558999748
 20
0.495749973565
  0
LWPOLYLINE
  5
297
330
10
100
AcDbEntity
  8
TRACTOR_CMP
  6
BYLAYER
370
   211
 62
   256
100
AcDbPolyline
 90
     8
 70
     0
 43
0.0239999999787
 10
2.95064002364
 20
0.528799999782
 10
2.95232999739
 20
0.530489973534
 10
2.95232999739
 20
0.619649973455
 10
2.81452999752
 20
0.757439999579
 10
2.49682002405
 20
0.757439999579
 10
2.47948999781
 20
0.774759999564
 10
2.35538999792
 20
0.774759999564
 10
2.35034002418
 20
0.779809973313
  0
LWPOLYLINE
  5
298
330
10
100
AcDbEntity
  8
TRACTOR_CMP
  6
BYLAYER
370
   211
 62
   256
100
AcDbPolyline
 90
     2
 70
     0
 43
0.0239999999787
 10
2.28342002424
 20
0.779809973313
 10
2.28044002424
 20
0.782779999557
  0
LWPOLYLINE
  5
299
330
10
100
AcDbEntity
  8
TRACTOR_CMP
  6
BYLAYER
370
   211
 62
   256
100
AcDbPolyline
 90
    17
 70
     0
 43
0.0239999999787
 10
2.39122999789
 20
0.831169973267
 10
2.39964002413
 20
0.822759999521
 10
2.48904002405
 20
0.822759999521
 10
2.50668002404
 20
0.815459999528
 10
2.51670002403
 20
0.805439999537
 10
2.6032299977
 20
0.805439999537
 10
2.56894999774
 20
0.839719999506
 10
2.55100999775
 20
0.847149973253
 10
2.53170002402
 20
0.83914997326
 10
2.46508002407
 20
0.83914997326
 10
2.44384002409
 20
0.847949973252
 10
2.42756999786
 20
0.864219999485
 10
2.41946999787
 20
0.883779999467
 10
2.40586002413
 20
0.870169973233
 10
2.40586002413
 20
0.853549973247
 10
2.40038002413
 20
0.840319999506
 10
2.39122999789
 20
0.831169973267
  0
LWPOLYLINE
  5
29A
330
10
100
AcDbEntity
  8
TRACTOR_CMP
  6
BYLAYER
370
   211
 62
   256
100
AcDbPolyline
 90
     2
 70
     0
 43
0.0239999999787
 10
2.39160002414
 20
0.831539999514
 10
2.57712999773
 20
0.831539999514
  0
LWPOLYLINE
  5
29B
330
10
100
AcDbEntity
  8
TRACTOR_CMP
  6
BYLAYER
370
   211
 62
   256
100
AcDbPolyline
 90
     2
 70
     0
 43
0.0239999999787
 10
2.60112002395
 20
0.807549973288
 10
2.51458999778
 20
0.807549973288
  0
LWPOLYLINE
  5
29C
330
10
100
AcDbEntity
  8
TRACTOR_CMP
  6
BYLAYER
370
   211
 62
   256
100
AcDbPolyline
 90
     2
 70
     0
 43
0.0239999999787
 10
2.43626999785
 20
0.855519999492
 10
2.40586002413
 20
0.855519999492
  0
LWPOLYLINE
  5
29D
330
10
100
AcDbEntity
  8
TRACTOR_CMP
  6
BYLAYER
370
   211
 62
   256
100
AcDbPolyline
 90
     2
 70
     0
 43
0.0239999999787
 10
2.41520002412
 20
0.879509973224
 10
2.42124002411
 20
0.879509973224
  0
LWPOLYLINE
  5
29E
330
10
100
AcDbEntity
  8
TRACTOR_CMP
  6
BYLAYER
370
   211
 62
   256
100
AcDbPolyline
 90
     6
 70
     0
 43
0.0239999999787
 10
2.35018002418
 20
0.882369973222
 10
2.44336002409
 20
0.975549973139
 10
2.44376002409
 20
0.975159999386
 10
2.63342999768
 20
0.975159999386
 10
2.67244999764
 20
1.01417999935
 10
2.95458999739
 20
1.01417999935
  0
LWPOLYLINE
  5
29F
330
10
100
AcDbEntity
  8
TRACTOR_CMP
  6
BYLAYER
370
   211
 62
   256
100
AcDbPolyline
 90
    11
 70
     0
 43
0.0239999999787
 10
2.86140999748
 20
1.08489999929
 10
2.86140999748
 20
1.15894997298
 10
2.86402999747
 20
1.15261999923
 10
2.87414999746
 20
1.14249999924
 10
2.88738999745
 20
1.13701999924
 10
3.00998002359
 20
1.13701999924
 10
3.00988999734
 20
1.10922997302
 10
2.8883800237
 20
1.10922997302
 10
2.87514999746
 20
1.10374997303
 10
2.86502002372
 20
1.09362997303
 10
2.86140999748
 20
1.08489999929
  0
LWPOLYLINE
  5
2A0
330
10
100
AcDbEntity
  8
TRACTOR_CMP
  6
BYLAYER
370
   211
 62
   256
100
AcDbPolyline
 90
     2
 70
     0
 43
0.0239999999787
 10
2.86140999748
 20
1.09537999928
 10
2.86676999747
 20
1.09537999928
  0
LWPOLYLINE
  5
2A1
330
10
100
AcDbEntity
  8
TRACTOR_CMP
  6
BYLAYER
370
   211
 62
   256
100
AcDbPolyline
 90
     2
 70
     0
 43
0.0239999999787
 10
2.86140999748
 20
1.11935999926
 10
3.00992002359
 20
1.11935999926
  0
LWPOLYLINE
  5
2A2
330
10
100
AcDbEntity
  8
TRACTOR_CMP
  6
BYLAYER
370
   211
 62
   256
100
AcDbPolyline
 90
     2
 70
     0
 43
0.0239999999787
 10
2.87330002371
 20
1.14334997299
 10
2.86140999748
 20
1.14334997299
  0
LWPOLYLINE
  5
2A3
330
10
100
AcDbEntity
  8
TRACTOR_CMP
  6
BYLAYER
370
   211
 62
   256
100
AcDbPolyline
 90
    34
 70
     0
 43
0.0239999999787
 10
2.85854999748
 20
1.18126997296
 10
2.85592002373
 20
1.1875999992
 10
2.84580002374
 20
1.19772997294
 10
2.8325699975
 20
1.20320997294
 10
2.70012999762
 20
1.20320997294
 10
2.68690002388
 20
1.19772997294
 10
2.67678002389
 20
1.1875999992
 10
2.67208999764
 20
1.17628997296
 10
2.67128002389
 20
1.17823999921
 10
2.65502002391
 20
1.19449999919
 10
2.63376999768
 20
1.20329999918
 10
2.57024002398
 20
1.20329999918
 10
2.57024002398
 20
1.27039999912
 10
2.58618002397
 20
1.27039999912
 10
2.58716002397
 20
1.26801999913
 10
2.59728999771
 20
1.25788997289
 10
2.61052002395
 20
1.25240997289
 10
2.69570999762
 20
1.25240997289
 10
2.70894002386
 20
1.25788997289
 10
2.7190699976
 20
1.26801999913
 10
2.7245499976
 20
1.28124997287
 10
2.7245499976
 20
1.33472997282
 10
2.74052999758
 20
1.33470997282
 10
2.74052999758
 20
1.30714997284
 10
2.74310002383
 20
1.3009599991
 10
2.74310002383
 20
1.28124997287
 10
2.74858002382
 20
1.26801999913
 10
2.75870999757
 20
1.25788997289
 10
2.7719400238
 20
1.25240997289
 10
2.78886999754
 20
1.25240997289
 10
2.79980999753
 20
1.2478699729
 10
2.8331499975
 20
1.2478699729
 10
2.85854999748
 20
1.22246997292
 10
2.85854999748
 20
1.18126997296
  0
LWPOLYLINE
  5
2A4
330
10
100
AcDbEntity
  8
TRACTOR_CMP
  6
BYLAYER
370
   211
 62
   256
100
AcDbPolyline
 90
     2
 70
     0
 43
0.0239999999787
 10
2.85854999748
 20
1.19131999919
 10
2.85220999748
 20
1.19131999919
  0
LWPOLYLINE
  5
2A5
330
10
100
AcDbEntity
  8
TRACTOR_CMP
  6
BYLAYER
370
   211
 62
   256
100
AcDbPolyline
 90
     2
 70
     0
 43
0.0239999999787
 10
2.85854999748
 20
1.21529999917
 10
2.57024002398
 20
1.21529999917
  0
LWPOLYLINE
  5
2A6
330
10
100
AcDbEntity
  8
TRACTOR_CMP
  6
BYLAYER
370
   211
 62
   256
100
AcDbPolyline
 90
     2
 70
     0
 43
0.0239999999787
 10
2.57024002398
 20
1.2392899729
 10
2.84172999749
 20
1.2392899729
  0
LWPOLYLINE
  5
2A7
330
10
100
AcDbEntity
  8
TRACTOR_CMP
  6
BYLAYER
370
   211
 62
   256
100
AcDbPolyline
 90
     2
 70
     0
 43
0.0239999999787
 10
2.75332999757
 20
1.26326997288
 10
2.71432002385
 20
1.26326997288
  0
LWPOLYLINE
  5
2A8
330
10
100
AcDbEntity
  8
TRACTOR_CMP
  6
BYLAYER
370
   211
 62
   256
100
AcDbPolyline
 90
     2
 70
     0
 43
0.0239999999787
 10
2.7245499976
 20
1.28725999911
 10
2.74310002383
 20
1.28725999911
  0
LWPOLYLINE
  5
2A9
330
10
100
AcDbEntity
  8
TRACTOR_CMP
  6
BYLAYER
370
   211
 62
   256
100
AcDbPolyline
 90
     2
 70
     0
 43
0.0239999999787
 10
2.74052999758
 20
1.31123999909
 10
2.7245499976
 20
1.31123999909
  0
LWPOLYLINE
  5
2AA
330
10
100
AcDbEntity
  8
TRACTOR_CMP
  6
BYLAYER
370
   211
 62
   256
100
AcDbPolyline
 90
     2
 70
     0
 43
0.0239999999787
 10
2.59190999771
 20
1.26326997288
 10
2.57024002398
 20
1.26326997288
  0
LWPOLYLINE
  5
2AB
330
10
100
AcDbEntity
  8
TRACTOR_CMP
  6
BYLAYER
370
   211
 62
   256
100
AcDbPolyline
 90
     2
 70
     0
 43
0.0239999999787
 10
2.46624002407
 20
1.28725999911
 10
1.19694999895
 20
1.28725999911
  0
LWPOLYLINE
  5
2AC
330
10
100
AcDbEntity
  8
TRACTOR_CMP
  6
BYLAYER
370
   211
 62
   256
100
AcDbPolyline
 90
     2
 70
     0
 43
0.0239999999787
 10
1.17296999897
 20
1.31123999909
 10
2.46966002407
 20
1.31123999909
  0
LWPOLYLINE
  5
2AD
330
10
100
AcDbEntity
  8
TRACTOR_CMP
  6
BYLAYER
370
   211
 62
   256
100
AcDbPolyline
 90
     2
 70
     0
 43
0.0239999999787
 10
2.65820999766
 20
1.19131999919
 10
2.68048999764
 20
1.19131999919
  0
LWPOLYLINE
  5
2AE
330
10
100
AcDbEntity
  8
TRACTOR_CMP
  6
BYLAYER
370
   211
 62
   256
100
AcDbPolyline
 90
     6
 70
     0
 43
0.0239999999787
 10
2.70862999761
 20
1.10940997302
 10
2.63776002392
 20
1.03853999933
 10
2.42910002411
 20
1.03853999933
 10
2.37282002416
 20
0.98225999938
 10
2.34946002418
 20
0.98225999938
 10
2.35062002418
 20
0.983429973132
  0
LWPOLYLINE
  5
2AF
330
10
100
AcDbEntity
  8
TRACTOR_CMP
  6
BYLAYER
370
   211
 62
   256
100
AcDbPolyline
 90
     2
 70
     0
 43
0.0239999999787
 10
2.28252999799
 20
0.98225999938
 10
2.28200002424
 20
0.982779999379
  0
LWPOLYLINE
  5
2B0
330
10
100
AcDbEntity
  8
TRACTOR_CMP
  6
BYLAYER
370
   211
 62
   256
100
AcDbPolyline
 90
     4
 70
     0
 43
0.0239999999787
 10
2.24010999803
 20
0.932429973177
 10
2.24010999803
 20
0.931469973178
 10
2.24058002427
 20
0.931949973178
 10
2.24010999803
 20
0.932429973177
  0
LWPOLYLINE
  5
2B1
330
10
100
AcDbEntity
  8
TRACTOR_CMP
  6
BYLAYER
370
   211
 62
   256
100
AcDbPolyline
 90
     2
 70
     0
 43
0.0239999999787
 10
2.18442002432
 20
0.932779999424
 10
2.09838999815
 20
0.932779999424
  0
LWPOLYLINE
  5
2B2
330
10
100
AcDbEntity
  8
TRACTOR_CMP
  6
BYLAYER
370
   211
 62
   256
100
AcDbPolyline
 90
     3
 70
     0
 43
0.0239999999787
 10
2.18442002432
 20
0.882779999468
 10
2.28284002424
 20
0.882779999468
 10
2.28324999799
 20
0.882369973222
  0
LWPOLYLINE
  5
2B3
330
10
100
AcDbEntity
  8
TRACTOR_CMP
  6
BYLAYER
370
   211
 62
   256
100
AcDbPolyline
 90
     4
 70
     0
 43
0.0239999999787
 10
2.42122999787
 20
0.719649973366
 10
2.42122999787
 20
0.644839999679
 10
2.6600800239
 20
0.405989973645
 10
2.7690800238
 20
0.405989973645
  0
LWPOLYLINE
  5
2B4
330
10
100
AcDbEntity
  8
TRACTOR_CMP
  6
BYLAYER
370
   211
 62
   256
100
AcDbPolyline
 90
     2
 70
     0
 43
0.0239999999787
 10
2.86412999747
 20
0.39980997365
 10
3.00742002359
 20
0.39980997365
  0
LWPOLYLINE
  5
2B5
330
10
100
AcDbEntity
  8
TRACTOR_CMP
  6
BYLAYER
370
   211
 62
   256
100
AcDbPolyline
 90
     2
 70
     0
 43
0.0239999999787
 10
3.00732999735
 20
0.375819999918
 10
2.86412999747
 20
0.375819999918
  0
LWPOLYLINE
  5
2B6
330
10
100
AcDbEntity
  8
TRACTOR_CMP
  6
BYLAYER
370
   211
 62
   256
100
AcDbPolyline
 90
     2
 70
     0
 43
0.0239999999787
 10
2.86412999747
 20
0.351839999939
 10
3.00724999735
 20
0.351839999939
  0
LWPOLYLINE
  5
2B7
330
10
100
AcDbEntity
  8
TRACTOR_CMP
  6
BYLAYER
370
   211
 62
   256
100
AcDbPolyline
 90
     8
 70
     0
 43
0.0239999999787
 10
3.00718999735
 20
0.335699999954
 10
3.00754002359
 20
0.43374997362
 10
2.88442999746
 20
0.43374997362
 10
2.87120002371
 20
0.439229973615
 10
2.86412999747
 20
0.446289973609
 10
2.86412999747
 20
0.339769973703
 10
2.86250999747
 20
0.335839999954
 10
3.00718999735
 20
0.335699999954
  0
LWPOLYLINE
  5
2B8
330
10
100
AcDbEntity
  8
TRACTOR_CMP
  6
BYLAYER
370
   211
 62
   256
100
AcDbPolyline
 90
     2
 70
     0
 43
0.0239999999787
 10
3.00750002359
 20
0.423789973629
 10
2.86412999747
 20
0.423789973629
  0
LWPOLYLINE
  5
2B9
330
10
100
AcDbEntity
  8
TRACTOR_CMP
  6
BYLAYER
370
   211
 62
   256
100
AcDbPolyline
 90
     2
 70
     0
 43
0.0239999999787
 10
2.69008999763
 20
0.495749973565
 10
2.63820002392
 20
0.495749973565
  0
LWPOLYLINE
  5
2BA
330
10
100
AcDbEntity
  8
TRACTOR_CMP
  6
BYLAYER
370
   211
 62
   256
100
AcDbPolyline
 90
     2
 70
     0
 43
0.0239999999787
 10
2.66218999765
 20
0.471759999833
 10
2.67402002389
 20
0.471759999833
  0
LWPOLYLINE
  5
2BB
330
10
100
AcDbEntity
  8
TRACTOR_CMP
  6
BYLAYER
370
   211
 62
   256
100
AcDbPolyline
 90
     2
 70
     0
 43
0.0239999999787
 10
2.67592999764
 20
0.543719999769
 10
2.59022999772
 20
0.543719999769
  0
LWPOLYLINE
  5
2BC
330
10
100
AcDbEntity
  8
TRACTOR_CMP
  6
BYLAYER
370
   211
 62
   256
100
AcDbPolyline
 90
     2
 70
     0
 43
0.0239999999787
 10
2.56624999774
 20
0.567699999748
 10
2.67284999764
 20
0.567699999748
  0
LWPOLYLINE
  5
2BD
330
10
100
AcDbEntity
  8
TRACTOR_CMP
  6
BYLAYER
370
   211
 62
   256
100
AcDbPolyline
 90
     2
 70
     0
 43
0.0239999999787
 10
2.67284999764
 20
0.59168997348
 10
2.54226002401
 20
0.59168997348
  0
LWPOLYLINE
  5
2BE
330
10
100
AcDbEntity
  8
TRACTOR_CMP
  6
BYLAYER
370
   211
 62
   256
100
AcDbPolyline
 90
     2
 70
     0
 43
0.0239999999787
 10
2.51828002403
 20
0.615669973458
 10
2.67284999764
 20
0.615669973458
  0
LWPOLYLINE
  5
2BF
330
10
100
AcDbEntity
  8
TRACTOR_CMP
  6
BYLAYER
370
   211
 62
   256
100
AcDbPolyline
 90
     2
 70
     0
 43
0.0239999999787
 10
2.67284999764
 20
0.639659999684
 10
2.66866999765
 20
0.639659999684
  0
LWPOLYLINE
  5
2C0
330
10
100
AcDbEntity
  8
TRACTOR_CMP
  6
BYLAYER
370
   211
 62
   256
100
AcDbPolyline
 90
     7
 70
     0
 43
0.0239999999787
 10
2.67678999764
 20
0.693119999636
 10
2.67088999764
 20
0.707369973377
 10
2.66882002389
 20
0.709439999622
 10
2.69446002387
 20
0.709439999622
 10
2.68844999763
 20
0.706949973377
 10
2.67832999764
 20
0.696829973386
 10
2.67678999764
 20
0.693119999636
  0
LWPOLYLINE
  5
2C1
330
10
100
AcDbEntity
  8
TRACTOR_CMP
  6
BYLAYER
370
   211
 62
   256
100
AcDbPolyline
 90
     5
 70
     0
 43
0.0239999999787
 10
2.86296002372
 20
0.641139999683
 10
2.86296002372
 20
0.61013999971
 10
2.87120002371
 20
0.618379999703
 10
2.8814600237
 20
0.622629973452
 10
2.86296002372
 20
0.641139999683
  0
LWPOLYLINE
  5
2C2
330
10
100
AcDbEntity
  8
TRACTOR_CMP
  6
BYLAYER
370
   211
 62
   256
100
AcDbPolyline
 90
     2
 70
     0
 43
0.0239999999787
 10
2.86296002372
 20
0.639659999684
 10
2.86442999747
 20
0.639659999684
  0
LWPOLYLINE
  5
2C3
330
10
100
AcDbEntity
  8
TRACTOR_CMP
  6
BYLAYER
370
   211
 62
   256
100
AcDbPolyline
 90
     2
 70
     0
 43
0.0239999999787
 10
2.86296002372
 20
0.615669973458
 10
2.86848999747
 20
0.615669973458
  0
LWPOLYLINE
  5
2C4
330
10
100
AcDbEntity
  8
TRACTOR_CMP
  6
BYLAYER
370
   211
 62
   256
100
AcDbPolyline
 90
     8
 70
     0
 43
0.0239999999787
 10
2.97952002362
 20
0.660339999666
 10
2.90264002369
 20
0.737209973351
 10
3.00858999735
 20
0.737209973351
 10
3.00820002359
 20
0.623859999698
 10
3.00032999735
 20
0.623859999698
 10
3.00032999735
 20
0.629189973446
 10
2.99302002361
 20
0.646839999678
 10
2.97952002362
 20
0.660339999666
  0
LWPOLYLINE
  5
2C5
330
10
100
AcDbEntity
  8
TRACTOR_CMP
  6
BYLAYER
370
   211
 62
   256
100
AcDbPolyline
 90
     2
 70
     0
 43
0.0239999999787
 10
2.97620999737
 20
0.663639999663
 10
3.00834002359
 20
0.663639999663
  0
LWPOLYLINE
  5
2C6
330
10
100
AcDbEntity
  8
TRACTOR_CMP
  6
BYLAYER
370
   211
 62
   256
100
AcDbPolyline
 90
     2
 70
     0
 43
0.0239999999787
 10
3.00842002359
 20
0.687629973395
 10
2.9522299974
 20
0.687629973395
  0
LWPOLYLINE
  5
2C7
330
10
100
AcDbEntity
  8
TRACTOR_CMP
  6
BYLAYER
370
   211
 62
   256
100
AcDbPolyline
 90
     2
 70
     0
 43
0.0239999999787
 10
2.92824002366
 20
0.711609973373
 10
3.00850002359
 20
0.711609973373
  0
LWPOLYLINE
  5
2C8
330
10
100
AcDbEntity
  8
TRACTOR_CMP
  6
BYLAYER
370
   211
 62
   256
100
AcDbPolyline
 90
     2
 70
     0
 43
0.0239999999787
 10
3.00858999735
 20
0.735599999599
 10
2.90426002368
 20
0.735599999599
  0
LWPOLYLINE
  5
2C9
330
10
100
AcDbEntity
  8
TRACTOR_CMP
  6
BYLAYER
370
   211
 62
   256
100
AcDbPolyline
 90
     2
 70
     0
 43
0.0239999999787
 10
2.99598999736
 20
0.639659999684
 10
3.00824999735
 20
0.639659999684
  0
LWPOLYLINE
  5
2CA
330
10
100
AcDbEntity
  8
TRACTOR_CMP
  6
BYLAYER
370
   211
 62
   256
100
AcDbPolyline
 90
     7
 70
     0
 43
0.0239999999787
 10
2.86252002372
 20
0.911849973196
 10
2.86252002372
 20
0.94076997317
 10
2.86502002372
 20
0.934729973175
 10
2.87514999746
 20
0.924599999431
 10
2.87716002371
 20
0.923769973185
 10
2.87252002371
 20
0.921839999433
 10
2.86252002372
 20
0.911849973196
  0
LWPOLYLINE
  5
2CB
330
10
100
AcDbEntity
  8
TRACTOR_CMP
  6
BYLAYER
370
   211
 62
   256
100
AcDbPolyline
 90
     2
 70
     0
 43
0.0239999999787
 10
2.86252002372
 20
0.927479999428
 10
2.87226999747
 20
0.927479999428
  0
LWPOLYLINE
  5
2CC
330
10
100
AcDbEntity
  8
TRACTOR_CMP
  6
BYLAYER
370
   211
 62
   256
100
AcDbPolyline
 90
     4
 70
     0
 43
0.0239999999787
 10
2.67240999764
 20
0.931049973178
 10
2.67240999764
 20
0.946249973165
 10
2.66480999765
 20
0.938649973172
 10
2.67240999764
 20
0.931049973178
  0
LWPOLYLINE
  5
2CD
330
10
100
AcDbEntity
  8
TRACTOR_CMP
  6
BYLAYER
370
   211
 62
   256
100
AcDbPolyline
 90
     8
 70
     0
 43
0.0239999999787
 10
2.61788002394
 20
1.08653999929
 10
2.46916002407
 20
1.08653999929
 10
2.46916002407
 20
1.08717999929
 10
2.52974002402
 20
1.08717999929
 10
2.549040024
 20
1.09517999928
 10
2.56714999774
 20
1.08767999929
 10
2.61902002394
 20
1.08767999929
 10
2.61788002394
 20
1.08653999929
  0
LWPOLYLINE
  5
2CE
330
10
100
AcDbEntity
  8
TRACTOR_CMP
  6
BYLAYER
370
   211
 62
   256
100
AcDbPolyline
 90
     3
 70
     0
 43
0.0239999999787
 10
2.70862999761
 20
1.10940997302
 10
2.76508999756
 20
1.10940997302
 10
2.76634999756
 20
1.10814997302
  0
LWPOLYLINE
  5
2CF
330
10
100
AcDbEntity
  8
TRACTOR_CMP
  6
BYLAYER
370
   211
 62
   256
100
AcDbPolyline
 90
     5
 70
     0
 43
0.0239999999787
 10
2.96320002363
 20
1.32712997283
 10
2.95582002364
 20
1.33449999907
 10
3.01066999734
 20
1.33444997282
 10
3.01064002359
 20
1.32712997283
 10
2.96320002363
 20
1.32712997283
  0
LWPOLYLINE
  5
2D0
330
10
100
AcDbEntity
  8
TRACTOR_CMP
  6
BYLAYER
370
   211
 62
   256
100
AcDbPolyline
 90
     2
 70
     0
 43
0.0239999999787
 10
1.22398002518
 20
0.993269973123
 10
1.22398002518
 20
0.992869973124
  0
LWPOLYLINE
  5
2D1
330
10
100
AcDbEntity
  8
TRACTOR_CMP
  6
BYLAYER
370
   211
 62
   256
100
AcDbPolyline
 90
     2
 70
     0
 43
0.0239999999787
 10
1.60478002484
 20
0.351839999939
 10
2.67402002389
 20
0.351839999939
  0
LWPOLYLINE
  5
2D2
330
10
100
AcDbEntity
  8
TRACTOR_CMP
  6
BYLAYER
370
   211
 62
   256
100
AcDbPolyline
 90
     5
 70
     0
 43
0.0319999999716
 10
2.58062002397
 20
0.897459999455
 10
2.60074999771
 20
0.881459999469
 10
2.66808002389
 20
0.814129973282
 10
2.93382999741
 20
0.814129973282
 10
2.95196002364
 20
0.832269973266
  0
LWPOLYLINE
  5
2D3
330
10
100
AcDbEntity
  8
TRACTOR_CMP
  6
BYLAYER
370
   211
 62
   256
100
AcDbPolyline
 90
     5
 70
     0
 43
0.0319999999716
 10
2.51824002403
 20
1.14940997298
 10
2.51824002403
 20
1.2926399991
 10
2.548000024
 20
1.32239999908
 10
2.65258999766
 20
1.32239999908
 10
2.65312002391
 20
1.32186997283
  0
LWPOLYLINE
  5
2D4
330
10
100
AcDbEntity
  8
TRACTOR_CMP
  6
BYLAYER
370
   211
 62
   256
100
AcDbPolyline
 90
     3
 70
     0
 43
0.0759999999325
 10
2.81452999752
 20
1.32186997283
 10
2.86380002372
 20
1.32186997283
 10
2.95360002364
 20
1.23206997291
  0
ENDSEC
  0
SECTION
  2
OBJECTS
  0
DICTIONARY
  5
4F
102
{ACAD_REACTORS
330
0
102
}
330
0
100
AcDbDictionary
280
     1
281
     0
  3
ACAD_GROUP
350
50
  3
ACAD_LAYOUT
350
51
  3
ACAD_MLINESTYLE
350
54
  0
DICTIONARY
  5
50
102
{ACAD_REACTORS
330
4F
102
}
330
4F
100
AcDbDictionary
280
     1
281
     0
  0
DICTIONARY
  5
51
102
{ACAD_REACTORS
330
4F
102
}
330
4F
100
AcDbDictionary
280
     1
281
     0
  3
Model
350
52
  3
Layout1
350
53
  0
LAYOUT
  5
52
102
{ACAD_REACTORS
330
51
102
}
330
51
100
AcDbPlotSettings
  1

  2
none_device
  4
ISO_A4_(210.00_x_297.00_MM)
 40
0.0
 41
0.0
 42
0.0
 43
0.0
 44
210.0
 45
297.0
 46
0.0
 47
0.0
 48
0.0
 49
0.0
140
0.0
141
0.0
141
1.0
143
1.0
 72
     1
 73
     0
 74
     5
  7

 75
    16
147
1.0
 76
     0
 77
     2
148
0.0
149
0.0
100
AcDbLayout
  1
Model
 70
     1
 71
     0
 10
0.01817
 20
0.28364
 11
29.5813349606
 21
12.3561349606
 12
0.0
 22
0.0
 32
0.0
 14
0.01817
 24
0.28364
 34
0.0
 15
29.5813349606
 25
12.3561349606
 35
0.0
146
0.0
 13
0.0
 23
0.0
 33
0.0
 16
1.0
 26
0.0
 36
0.0
 17
0.0
 27
1.0
 37
0.0
 76
     0
330
10
  0
LAYOUT
  5
53
102
{ACAD_REACTORS
330
51
102
}
330
51
100
AcDbPlotSettings
  1

  2
none_device
  4

 40
0.0
 41
0.0
 42
0.0
 43
0.0
 44
0.0
 45
0.0
 46
0.0
 47
0.0
 48
0.0
 49
0.0
140
0.0
141
0.0
141
1.0
143
1.0
 72
     1
 73
     0
 74
     5
  7

 75
    16
147
1.0
 76
     0
 77
     2
148
0.0
149
0.0
100
AcDbLayout
  1
Layout1
 70
     1
 71
     1
 10
100000000000000000000.0
 20
100000000000000000000.0
 11
-100000000000000000000.0
 21
-100000000000000000000.0
 12
0.0
 22
0.0
 32
0.0
 14
100000000000000000000.0
 24
100000000000000000000.0
 34
0.0
 15
-100000000000000000000.0
 25
-100000000000000000000.0
 35
0.0
146
0.0
 13
0.0
 23
0.0
 33
0.0
 16
1.0
 26
0.0
 36
0.0
 17
0.0
 27
1.0
 37
0.0
 76
     0
330
11
  0
DICTIONARY
  5
54
102
{ACAD_REACTORS
330
4F
102
}
330
4F
100
AcDbDictionary
280
     1
281
     0
  0
ENDSEC
  0
EOF
