%
M48
M72
T01C0.02362
T02C0.03000
T03C0.03200
T04C0.04000
T05C0.05906
T06C0.07087
T07C0.07874
%
T01
X128499Y161452
X157436Y157082
X159483Y125704
X159090Y108420
X132594Y125546
X165468Y88696
X154405Y62594
X228893Y89838
X228617Y99208
X229917Y109405
X235940Y121413
X218066Y148106
X248657Y74444
T02
X166781Y58139
X166830Y48948
X234814Y23475
X244005Y23525
T03
X58735Y144247
X66235Y139247
X58735Y134247
X59720Y37200
X59720Y17200
X245980Y126924
X246058Y137161
X245940Y147161
X245940Y157043
X245901Y167121
T04
X94720Y23613
X124720Y16613
T05
X90024Y81649
X89827Y64956
T06
X33351Y19230
X17576Y34771
X33305Y51021
X17594Y66570
X33324Y82682
X17544Y98268
X33342Y114483
X17539Y130066
X33359Y146309
X17594Y161924
T07
X90418Y107830
X136284Y99247
X136284Y54326
X81205Y43893
M30
