M48
;GenerationSoftware,Autodesk,EAGLE,9.0.1*%
;CreationDate,2019-01-13T06:25:38Z*%
FMAT,2
ICI,OFF
METRIC,TZ,000.000
T8C0.600
T7C0.762
T6C0.813
T5C1.016
T4C1.500
T3C1.800
T2C1.900
T1C2.300
%
G90
M71
T1
X40650Y40143
X54310Y26053
X43300Y26053
T2
X56790Y38003
X56790Y41303
T3
X58854Y9504
X63782Y28286
X63741Y42631
X63966Y33872
X58826Y14938
X63907Y6751
X63685Y38353
X63707Y12223
X58500Y20300
X63700Y17700
T4
X50440Y38103
X46300Y38053
T5
X22839Y40060
X21061Y32440
T6
X15910Y37680
X11160Y31800
X16240Y31800
X19100Y20995
X19100Y24805
X7095Y40700
X33960Y7000
X39040Y7000
X46530Y9370
X46530Y6830
X49070Y6830
X10905Y40700
X3800Y10430
X3820Y13030
X3740Y2820
X3730Y7990
X3730Y5380
X15910Y42760
T7
X2941Y17493
X33126Y29104
X33113Y31439
X26141Y30313
X28476Y30326
X5276Y17506
T8
X48600Y24300
X44700Y29400
X20508Y18008
X20621Y15179
X20716Y12216
X8500Y26000
X42000Y17600
X42100Y15000
X39600Y25400
X14700Y15900
X55400Y22200
X23100Y4000
X41900Y21000
X36300Y42700
X56000Y15400
X26000Y10400
X25800Y6900
M30