G04 EAGLE Gerber X2 export*
%TF.Part,Single*%
%TF.FileFunction,Other,Solder side*%
%TF.FilePolarity,Positive*%
%TF.GenerationSoftware,Autodesk,EAGLE,9.0.0*%
%TF.CreationDate,2018-07-01T06:55:26Z*%
G75*
%MOMM*%
%FSLAX34Y34*%
%LPD*%
%AMOC8*
5,1,8,0,0,1.08239X$1,22.5*%
G01*
%ADD10C,0.000000*%
%ADD11P,1.374635X8X202.500000*%
%ADD12P,1.374635X8X22.500000*%
%ADD13R,1.800000X1.700000*%
%ADD14R,1.200000X0.560000*%
%ADD15R,1.000000X1.100000*%
%ADD16R,3.000000X3.000000*%
%ADD17P,1.429621X8X292.500000*%
%ADD18P,3.788365X8X22.500000*%
%ADD19P,2.705975X8X22.500000*%
%ADD20R,1.600200X1.600200*%
%ADD21R,1.700000X1.800000*%
%ADD22P,1.374635X8X292.500000*%
%ADD23P,1.374635X8X112.500000*%
%ADD24P,1.814519X8X112.500000*%
%ADD25C,1.524000*%
%ADD26C,0.812800*%
%ADD27C,0.609600*%
%ADD28R,1.006400X1.006400*%
%ADD29C,1.422400*%
%ADD30C,1.016000*%
%ADD31C,2.184400*%
%ADD32C,3.000000*%
%ADD33C,2.540000*%
%ADD34C,2.188000*%

G36*
X657718Y11355D02*
X657718Y11355D01*
X657790Y11361D01*
X657863Y11358D01*
X658036Y11381D01*
X658210Y11395D01*
X658280Y11412D01*
X658352Y11422D01*
X658519Y11472D01*
X658688Y11514D01*
X658755Y11543D01*
X658825Y11563D01*
X658982Y11640D01*
X659142Y11709D01*
X659203Y11748D01*
X659268Y11779D01*
X659411Y11880D01*
X659558Y11974D01*
X659612Y12022D01*
X659671Y12064D01*
X659795Y12186D01*
X659925Y12303D01*
X659971Y12359D01*
X660023Y12410D01*
X660126Y12551D01*
X660235Y12687D01*
X660271Y12750D01*
X660314Y12808D01*
X660393Y12964D01*
X660479Y13116D01*
X660504Y13184D01*
X660537Y13248D01*
X660590Y13415D01*
X660650Y13578D01*
X660664Y13650D01*
X660686Y13719D01*
X660698Y13823D01*
X660745Y14062D01*
X660752Y14292D01*
X660764Y14396D01*
X661586Y438780D01*
X661580Y438860D01*
X661582Y438940D01*
X661560Y439105D01*
X661547Y439272D01*
X661528Y439349D01*
X661518Y439429D01*
X661469Y439589D01*
X661429Y439751D01*
X661398Y439824D01*
X661375Y439901D01*
X661301Y440051D01*
X661236Y440205D01*
X661193Y440272D01*
X661158Y440344D01*
X661061Y440481D01*
X660971Y440621D01*
X660919Y440681D01*
X660872Y440746D01*
X660754Y440865D01*
X660643Y440990D01*
X660581Y441040D01*
X660525Y441097D01*
X660390Y441195D01*
X660260Y441301D01*
X660191Y441340D01*
X660126Y441387D01*
X659977Y441462D01*
X659832Y441545D01*
X659757Y441573D01*
X659686Y441609D01*
X659526Y441659D01*
X659370Y441718D01*
X659291Y441733D01*
X659215Y441757D01*
X659111Y441769D01*
X658886Y441814D01*
X658642Y441822D01*
X658538Y441833D01*
X638949Y441825D01*
X638808Y441813D01*
X638666Y441811D01*
X638562Y441793D01*
X638457Y441784D01*
X638320Y441750D01*
X638180Y441725D01*
X638081Y441691D01*
X637979Y441665D01*
X637848Y441609D01*
X637714Y441563D01*
X637622Y441512D01*
X637525Y441471D01*
X637406Y441394D01*
X637281Y441327D01*
X637198Y441262D01*
X637109Y441205D01*
X637004Y441111D01*
X636892Y441024D01*
X636820Y440947D01*
X636742Y440877D01*
X636653Y440766D01*
X636556Y440662D01*
X636498Y440574D01*
X636432Y440493D01*
X636362Y440369D01*
X636283Y440251D01*
X636240Y440155D01*
X636188Y440064D01*
X636139Y439931D01*
X636080Y439801D01*
X636053Y439700D01*
X636017Y439601D01*
X635989Y439462D01*
X635953Y439325D01*
X635942Y439220D01*
X635922Y439117D01*
X635918Y438975D01*
X635904Y438834D01*
X635910Y438729D01*
X635907Y438624D01*
X635926Y438483D01*
X635934Y438342D01*
X635958Y438239D01*
X635972Y438135D01*
X636013Y437999D01*
X636044Y437861D01*
X636084Y437763D01*
X636114Y437662D01*
X636177Y437535D01*
X636230Y437404D01*
X636285Y437314D01*
X636331Y437219D01*
X636414Y437104D01*
X636488Y436983D01*
X636556Y436903D01*
X636617Y436817D01*
X636717Y436716D01*
X636809Y436609D01*
X636890Y436541D01*
X636964Y436466D01*
X637079Y436383D01*
X637187Y436292D01*
X637257Y436254D01*
X637363Y436176D01*
X637630Y436042D01*
X640515Y433157D01*
X642062Y429422D01*
X642062Y409378D01*
X641657Y408401D01*
X641634Y408328D01*
X641602Y408259D01*
X641558Y408094D01*
X641506Y407931D01*
X641494Y407856D01*
X641475Y407782D01*
X641458Y407612D01*
X641432Y407443D01*
X641433Y407367D01*
X641426Y407291D01*
X641436Y407121D01*
X641438Y406950D01*
X641452Y406875D01*
X641456Y406799D01*
X641494Y406632D01*
X641524Y406464D01*
X641549Y406392D01*
X641566Y406318D01*
X641630Y406160D01*
X641687Y405999D01*
X641723Y405931D01*
X641752Y405861D01*
X641841Y405716D01*
X641923Y405565D01*
X641970Y405505D01*
X642009Y405440D01*
X642121Y405311D01*
X642226Y405176D01*
X642282Y405124D01*
X642331Y405066D01*
X642462Y404956D01*
X642587Y404840D01*
X642651Y404798D01*
X642709Y404749D01*
X642801Y404698D01*
X642998Y404567D01*
X643214Y404470D01*
X643306Y404419D01*
X644082Y404098D01*
X652298Y395882D01*
X654309Y391027D01*
X654309Y292273D01*
X652298Y287418D01*
X648154Y283274D01*
X640290Y275410D01*
X637942Y274437D01*
X637874Y274402D01*
X637802Y274376D01*
X637655Y274290D01*
X637503Y274212D01*
X637441Y274167D01*
X637375Y274129D01*
X637243Y274021D01*
X637106Y273919D01*
X637053Y273865D01*
X636993Y273816D01*
X636880Y273688D01*
X636761Y273566D01*
X636718Y273504D01*
X636667Y273447D01*
X636576Y273302D01*
X636478Y273162D01*
X636445Y273093D01*
X636405Y273029D01*
X636338Y272871D01*
X636264Y272717D01*
X636243Y272644D01*
X636213Y272574D01*
X636173Y272408D01*
X636125Y272244D01*
X636115Y272169D01*
X636097Y272095D01*
X636085Y271924D01*
X636063Y271755D01*
X636066Y271679D01*
X636060Y271603D01*
X636075Y271432D01*
X636082Y271262D01*
X636097Y271187D01*
X636104Y271111D01*
X636133Y271010D01*
X636180Y270778D01*
X636263Y270557D01*
X636292Y270456D01*
X636897Y268997D01*
X636897Y253954D01*
X635253Y249987D01*
X635218Y249878D01*
X635174Y249773D01*
X635143Y249644D01*
X635102Y249517D01*
X635085Y249404D01*
X635058Y249293D01*
X635048Y249161D01*
X635028Y249029D01*
X635030Y248915D01*
X635021Y248801D01*
X635033Y248669D01*
X635035Y248536D01*
X635054Y248424D01*
X635064Y248310D01*
X635090Y248220D01*
X635120Y248050D01*
X635228Y247744D01*
X635253Y247655D01*
X636919Y243633D01*
X636919Y228591D01*
X635399Y224922D01*
X635364Y224813D01*
X635320Y224708D01*
X635289Y224579D01*
X635248Y224452D01*
X635231Y224339D01*
X635204Y224228D01*
X635194Y224096D01*
X635175Y223964D01*
X635176Y223850D01*
X635168Y223736D01*
X635179Y223604D01*
X635181Y223471D01*
X635201Y223359D01*
X635211Y223245D01*
X635237Y223155D01*
X635266Y222985D01*
X635374Y222679D01*
X635399Y222590D01*
X637142Y218384D01*
X637142Y203341D01*
X636960Y202902D01*
X636937Y202830D01*
X636905Y202760D01*
X636861Y202595D01*
X636809Y202433D01*
X636797Y202357D01*
X636778Y202284D01*
X636761Y202114D01*
X636735Y201945D01*
X636736Y201869D01*
X636728Y201793D01*
X636739Y201623D01*
X636741Y201452D01*
X636754Y201377D01*
X636759Y201301D01*
X636797Y201135D01*
X636827Y200966D01*
X636852Y200894D01*
X636869Y200820D01*
X636933Y200662D01*
X636990Y200500D01*
X637026Y200433D01*
X637055Y200363D01*
X637144Y200217D01*
X637226Y200067D01*
X637273Y200007D01*
X637312Y199942D01*
X637424Y199812D01*
X637529Y199678D01*
X637584Y199626D01*
X637634Y199568D01*
X637765Y199458D01*
X637890Y199342D01*
X637954Y199300D01*
X638012Y199251D01*
X638104Y199200D01*
X638301Y199069D01*
X638517Y198972D01*
X638609Y198921D01*
X641688Y197646D01*
X644546Y194788D01*
X646093Y191053D01*
X646093Y176947D01*
X644546Y173212D01*
X641688Y170354D01*
X637953Y168807D01*
X623847Y168807D01*
X620112Y170354D01*
X617254Y173212D01*
X615707Y176947D01*
X615707Y177814D01*
X615698Y177927D01*
X615699Y178042D01*
X615678Y178173D01*
X615667Y178305D01*
X615640Y178416D01*
X615622Y178529D01*
X615581Y178655D01*
X615549Y178784D01*
X615504Y178889D01*
X615468Y178998D01*
X615406Y179116D01*
X615354Y179238D01*
X615293Y179334D01*
X615240Y179435D01*
X615181Y179509D01*
X615089Y179654D01*
X614873Y179896D01*
X614815Y179968D01*
X610359Y184424D01*
X608194Y189652D01*
X608194Y192154D01*
X608188Y192230D01*
X608190Y192307D01*
X608168Y192476D01*
X608154Y192646D01*
X608136Y192720D01*
X608126Y192796D01*
X608076Y192959D01*
X608035Y193125D01*
X608005Y193195D01*
X607983Y193268D01*
X607908Y193421D01*
X607841Y193578D01*
X607800Y193643D01*
X607766Y193711D01*
X607667Y193850D01*
X607576Y193994D01*
X607525Y194051D01*
X607481Y194113D01*
X607361Y194235D01*
X607247Y194362D01*
X607188Y194410D01*
X607134Y194464D01*
X606996Y194565D01*
X606863Y194672D01*
X606797Y194710D01*
X606735Y194755D01*
X606583Y194832D01*
X606434Y194916D01*
X606363Y194943D01*
X606295Y194977D01*
X606132Y195028D01*
X605972Y195088D01*
X605897Y195102D01*
X605824Y195125D01*
X605719Y195137D01*
X605488Y195183D01*
X605251Y195190D01*
X605147Y195202D01*
X597960Y195202D01*
X594152Y196779D01*
X594062Y196855D01*
X593964Y196914D01*
X593872Y196981D01*
X593754Y197041D01*
X593640Y197110D01*
X593533Y197152D01*
X593432Y197204D01*
X593305Y197244D01*
X593182Y197293D01*
X593070Y197317D01*
X592961Y197352D01*
X592868Y197362D01*
X592700Y197400D01*
X592376Y197418D01*
X592283Y197428D01*
X554121Y197428D01*
X554083Y197444D01*
X554073Y197447D01*
X554065Y197452D01*
X553837Y197523D01*
X553613Y197596D01*
X553604Y197597D01*
X553594Y197600D01*
X553554Y197604D01*
X553125Y197669D01*
X552995Y197667D01*
X552917Y197676D01*
X548728Y197676D01*
X544993Y199223D01*
X542135Y202081D01*
X540588Y205816D01*
X540588Y215458D01*
X542135Y219193D01*
X544125Y221182D01*
X544174Y221240D01*
X544229Y221292D01*
X544333Y221428D01*
X544444Y221558D01*
X544483Y221623D01*
X544530Y221684D01*
X544610Y221834D01*
X544699Y221981D01*
X544727Y222052D01*
X544763Y222119D01*
X544818Y222280D01*
X544882Y222439D01*
X544898Y222513D01*
X544923Y222585D01*
X544952Y222754D01*
X544988Y222920D01*
X544993Y222997D01*
X545006Y223072D01*
X545007Y223242D01*
X545016Y223413D01*
X545008Y223489D01*
X545009Y223565D01*
X544982Y223734D01*
X544964Y223904D01*
X544944Y223977D01*
X544932Y224052D01*
X544878Y224215D01*
X544833Y224379D01*
X544801Y224449D01*
X544778Y224521D01*
X544699Y224672D01*
X544628Y224828D01*
X544585Y224891D01*
X544550Y224959D01*
X544484Y225041D01*
X544352Y225237D01*
X544190Y225409D01*
X544125Y225492D01*
X542135Y227481D01*
X540588Y231216D01*
X540588Y240858D01*
X542135Y244593D01*
X544125Y246582D01*
X544174Y246640D01*
X544229Y246692D01*
X544333Y246828D01*
X544444Y246958D01*
X544483Y247023D01*
X544530Y247084D01*
X544610Y247234D01*
X544699Y247381D01*
X544727Y247452D01*
X544763Y247519D01*
X544818Y247680D01*
X544882Y247839D01*
X544898Y247913D01*
X544923Y247985D01*
X544952Y248154D01*
X544988Y248320D01*
X544993Y248397D01*
X545006Y248472D01*
X545007Y248642D01*
X545016Y248813D01*
X545008Y248889D01*
X545009Y248965D01*
X544982Y249134D01*
X544964Y249304D01*
X544944Y249377D01*
X544932Y249452D01*
X544878Y249615D01*
X544833Y249779D01*
X544801Y249849D01*
X544778Y249921D01*
X544699Y250072D01*
X544628Y250228D01*
X544585Y250291D01*
X544550Y250359D01*
X544484Y250441D01*
X544352Y250637D01*
X544190Y250809D01*
X544125Y250892D01*
X542135Y252881D01*
X540588Y256616D01*
X540588Y266258D01*
X542135Y269993D01*
X544125Y271982D01*
X544174Y272040D01*
X544229Y272092D01*
X544333Y272228D01*
X544444Y272358D01*
X544483Y272423D01*
X544530Y272484D01*
X544610Y272634D01*
X544699Y272781D01*
X544727Y272852D01*
X544763Y272919D01*
X544818Y273080D01*
X544882Y273239D01*
X544898Y273313D01*
X544923Y273385D01*
X544952Y273554D01*
X544988Y273720D01*
X544993Y273797D01*
X545006Y273872D01*
X545007Y274042D01*
X545016Y274213D01*
X545008Y274289D01*
X545009Y274365D01*
X544982Y274534D01*
X544964Y274704D01*
X544944Y274777D01*
X544932Y274852D01*
X544878Y275015D01*
X544833Y275179D01*
X544801Y275249D01*
X544778Y275321D01*
X544699Y275472D01*
X544628Y275628D01*
X544585Y275691D01*
X544550Y275759D01*
X544484Y275841D01*
X544352Y276037D01*
X544190Y276209D01*
X544125Y276292D01*
X542135Y278281D01*
X540588Y282016D01*
X540588Y291658D01*
X542135Y295393D01*
X544993Y298251D01*
X546327Y298803D01*
X546521Y298903D01*
X546717Y298999D01*
X546741Y299015D01*
X546766Y299028D01*
X546942Y299158D01*
X547120Y299284D01*
X547140Y299304D01*
X547163Y299321D01*
X547316Y299478D01*
X547471Y299631D01*
X547487Y299654D01*
X547507Y299674D01*
X547633Y299854D01*
X547761Y300030D01*
X547774Y300055D01*
X547790Y300079D01*
X547885Y300276D01*
X547983Y300470D01*
X547992Y300497D01*
X548004Y300523D01*
X548066Y300733D01*
X548132Y300941D01*
X548134Y300964D01*
X548144Y300996D01*
X548205Y301486D01*
X548202Y301566D01*
X548208Y301619D01*
X548208Y302671D01*
X548381Y303318D01*
X548716Y303897D01*
X549189Y304370D01*
X549768Y304705D01*
X550414Y304878D01*
X553701Y304878D01*
X553701Y303093D01*
X553708Y303017D01*
X553705Y302941D01*
X553727Y302772D01*
X553741Y302601D01*
X553760Y302527D01*
X553770Y302452D01*
X553819Y302288D01*
X553860Y302122D01*
X553890Y302052D01*
X553912Y301979D01*
X553987Y301826D01*
X554054Y301669D01*
X554095Y301605D01*
X554129Y301536D01*
X554228Y301397D01*
X554320Y301253D01*
X554370Y301196D01*
X554414Y301134D01*
X554534Y301012D01*
X554648Y300885D01*
X554708Y300837D01*
X554761Y300783D01*
X554899Y300682D01*
X555032Y300575D01*
X555098Y300537D01*
X555160Y300493D01*
X555312Y300416D01*
X555461Y300331D01*
X555532Y300305D01*
X555600Y300270D01*
X555763Y300219D01*
X555923Y300160D01*
X555998Y300145D01*
X556071Y300122D01*
X556176Y300110D01*
X556408Y300065D01*
X556644Y300057D01*
X556749Y300046D01*
X556825Y300052D01*
X556901Y300049D01*
X557070Y300072D01*
X557241Y300086D01*
X557315Y300104D01*
X557390Y300114D01*
X557554Y300163D01*
X557719Y300204D01*
X557789Y300234D01*
X557862Y300256D01*
X558016Y300332D01*
X558173Y300399D01*
X558237Y300440D01*
X558306Y300473D01*
X558445Y300572D01*
X558589Y300664D01*
X558646Y300715D01*
X558708Y300759D01*
X558829Y300879D01*
X558957Y300993D01*
X559005Y301052D01*
X559059Y301105D01*
X559159Y301244D01*
X559267Y301376D01*
X559304Y301443D01*
X559349Y301504D01*
X559426Y301657D01*
X559511Y301805D01*
X559537Y301877D01*
X559572Y301945D01*
X559623Y302108D01*
X559682Y302268D01*
X559697Y302342D01*
X559720Y302415D01*
X559732Y302520D01*
X559777Y302752D01*
X559784Y302988D01*
X559796Y303093D01*
X559796Y304878D01*
X563083Y304878D01*
X563729Y304705D01*
X564309Y304370D01*
X564782Y303897D01*
X565116Y303318D01*
X565388Y302304D01*
X565445Y302144D01*
X565495Y301979D01*
X565528Y301911D01*
X565554Y301840D01*
X565636Y301690D01*
X565712Y301536D01*
X565756Y301474D01*
X565792Y301408D01*
X565898Y301273D01*
X565997Y301134D01*
X566050Y301080D01*
X566098Y301020D01*
X566224Y300905D01*
X566344Y300783D01*
X566405Y300738D01*
X566461Y300687D01*
X566605Y300593D01*
X566743Y300493D01*
X566810Y300458D01*
X566874Y300417D01*
X567031Y300347D01*
X567183Y300270D01*
X567256Y300247D01*
X567325Y300217D01*
X567490Y300174D01*
X567654Y300122D01*
X567713Y300115D01*
X567802Y300092D01*
X568293Y300046D01*
X568316Y300047D01*
X568331Y300046D01*
X580360Y300046D01*
X580436Y300052D01*
X580512Y300049D01*
X580681Y300072D01*
X580852Y300086D01*
X580926Y300104D01*
X581001Y300114D01*
X581165Y300163D01*
X581331Y300204D01*
X581400Y300234D01*
X581474Y300256D01*
X581627Y300332D01*
X581784Y300399D01*
X581848Y300440D01*
X581917Y300473D01*
X582056Y300572D01*
X582200Y300664D01*
X582257Y300715D01*
X582319Y300759D01*
X582440Y300879D01*
X582568Y300993D01*
X582616Y301052D01*
X582670Y301105D01*
X582771Y301244D01*
X582878Y301376D01*
X582915Y301443D01*
X582960Y301504D01*
X583037Y301657D01*
X583122Y301805D01*
X583148Y301877D01*
X583183Y301945D01*
X583234Y302108D01*
X583293Y302268D01*
X583308Y302342D01*
X583331Y302415D01*
X583343Y302520D01*
X583388Y302752D01*
X583395Y302988D01*
X583407Y303093D01*
X583407Y310353D01*
X584954Y314088D01*
X587812Y316946D01*
X591547Y318493D01*
X602891Y318493D01*
X602967Y318499D01*
X603043Y318497D01*
X603212Y318519D01*
X603383Y318533D01*
X603457Y318551D01*
X603532Y318561D01*
X603696Y318610D01*
X603862Y318651D01*
X603931Y318681D01*
X604005Y318703D01*
X604158Y318779D01*
X604315Y318846D01*
X604379Y318887D01*
X604448Y318920D01*
X604587Y319019D01*
X604731Y319111D01*
X604788Y319162D01*
X604850Y319206D01*
X604971Y319326D01*
X605099Y319440D01*
X605147Y319499D01*
X605201Y319553D01*
X605302Y319691D01*
X605409Y319824D01*
X605446Y319890D01*
X605491Y319951D01*
X605568Y320104D01*
X605653Y320252D01*
X605679Y320324D01*
X605714Y320392D01*
X605765Y320555D01*
X605824Y320715D01*
X605839Y320790D01*
X605862Y320862D01*
X605874Y320967D01*
X605919Y321199D01*
X605926Y321435D01*
X605938Y321540D01*
X605938Y327322D01*
X606789Y329375D01*
X606824Y329484D01*
X606868Y329589D01*
X606899Y329719D01*
X606940Y329845D01*
X606957Y329958D01*
X606984Y330069D01*
X606994Y330201D01*
X607014Y330333D01*
X607012Y330447D01*
X607021Y330561D01*
X607009Y330693D01*
X607007Y330826D01*
X606987Y330939D01*
X606978Y331052D01*
X606952Y331142D01*
X606922Y331312D01*
X606815Y331618D01*
X606789Y331708D01*
X606138Y333278D01*
X606138Y353322D01*
X607685Y357057D01*
X610543Y359915D01*
X611577Y360343D01*
X611772Y360443D01*
X611968Y360539D01*
X611991Y360555D01*
X612016Y360568D01*
X612192Y360698D01*
X612370Y360824D01*
X612390Y360844D01*
X612413Y360861D01*
X612566Y361017D01*
X612721Y361171D01*
X612738Y361194D01*
X612758Y361214D01*
X612883Y361393D01*
X613011Y361570D01*
X613024Y361595D01*
X613040Y361618D01*
X613135Y361815D01*
X613234Y362010D01*
X613242Y362037D01*
X613255Y362063D01*
X613316Y362272D01*
X613382Y362481D01*
X613385Y362504D01*
X613394Y362536D01*
X613455Y363025D01*
X613452Y363106D01*
X613458Y363158D01*
X613458Y365653D01*
X624000Y365653D01*
X624076Y365659D01*
X624152Y365656D01*
X624321Y365679D01*
X624491Y365693D01*
X624565Y365711D01*
X624641Y365721D01*
X624805Y365770D01*
X624970Y365811D01*
X625040Y365841D01*
X625113Y365863D01*
X625267Y365938D01*
X625424Y366006D01*
X625488Y366047D01*
X625556Y366080D01*
X625696Y366179D01*
X625840Y366271D01*
X625896Y366322D01*
X625959Y366366D01*
X626080Y366486D01*
X626208Y366600D01*
X626255Y366659D01*
X626310Y366712D01*
X626410Y366851D01*
X626517Y366983D01*
X626555Y367050D01*
X626600Y367111D01*
X626677Y367264D01*
X626761Y367412D01*
X626788Y367484D01*
X626822Y367552D01*
X626874Y367714D01*
X626933Y367875D01*
X626948Y367949D01*
X626971Y368022D01*
X626982Y368127D01*
X627028Y368359D01*
X627035Y368595D01*
X627047Y368700D01*
X627041Y368776D01*
X627042Y368808D01*
X627043Y368852D01*
X627021Y369021D01*
X627007Y369192D01*
X626989Y369266D01*
X626979Y369341D01*
X626929Y369505D01*
X626888Y369671D01*
X626858Y369741D01*
X626836Y369814D01*
X626761Y369967D01*
X626694Y370124D01*
X626653Y370188D01*
X626619Y370257D01*
X626520Y370396D01*
X626429Y370540D01*
X626378Y370597D01*
X626334Y370659D01*
X626214Y370781D01*
X626100Y370908D01*
X626041Y370956D01*
X625987Y371010D01*
X625849Y371111D01*
X625716Y371218D01*
X625650Y371256D01*
X625588Y371300D01*
X625436Y371377D01*
X625287Y371462D01*
X625216Y371488D01*
X625148Y371523D01*
X624985Y371574D01*
X624825Y371634D01*
X624750Y371648D01*
X624677Y371671D01*
X624573Y371683D01*
X624341Y371728D01*
X624105Y371736D01*
X624000Y371747D01*
X613458Y371747D01*
X613458Y373817D01*
X613441Y374035D01*
X613427Y374253D01*
X613421Y374281D01*
X613418Y374309D01*
X613366Y374521D01*
X613317Y374734D01*
X613306Y374760D01*
X613300Y374788D01*
X613213Y374989D01*
X613131Y375191D01*
X613116Y375215D01*
X613105Y375241D01*
X612988Y375426D01*
X612874Y375612D01*
X612855Y375633D01*
X612840Y375657D01*
X612695Y375820D01*
X612552Y375986D01*
X612530Y376004D01*
X612511Y376025D01*
X612342Y376162D01*
X612174Y376303D01*
X612153Y376314D01*
X612127Y376335D01*
X612001Y376407D01*
X611969Y376430D01*
X611890Y376470D01*
X611699Y376579D01*
X611623Y376607D01*
X611577Y376633D01*
X610243Y377185D01*
X607385Y380043D01*
X605838Y383778D01*
X605838Y403144D01*
X605832Y403220D01*
X605834Y403296D01*
X605812Y403465D01*
X605798Y403636D01*
X605780Y403710D01*
X605770Y403785D01*
X605721Y403949D01*
X605680Y404115D01*
X605650Y404184D01*
X605628Y404258D01*
X605552Y404411D01*
X605485Y404568D01*
X605444Y404632D01*
X605411Y404701D01*
X605312Y404840D01*
X605220Y404984D01*
X605169Y405041D01*
X605125Y405103D01*
X605005Y405224D01*
X604891Y405352D01*
X604832Y405400D01*
X604778Y405454D01*
X604640Y405555D01*
X604507Y405662D01*
X604441Y405699D01*
X604380Y405744D01*
X604227Y405821D01*
X604079Y405906D01*
X604007Y405932D01*
X603939Y405967D01*
X603776Y406018D01*
X603616Y406077D01*
X603541Y406092D01*
X603469Y406115D01*
X603364Y406127D01*
X603132Y406172D01*
X602896Y406179D01*
X602791Y406191D01*
X591833Y406191D01*
X591720Y406182D01*
X591605Y406183D01*
X591474Y406162D01*
X591342Y406151D01*
X591231Y406124D01*
X591118Y406106D01*
X590992Y406065D01*
X590863Y406033D01*
X590758Y405988D01*
X590650Y405952D01*
X590532Y405891D01*
X590410Y405838D01*
X590313Y405777D01*
X590212Y405724D01*
X590138Y405665D01*
X589993Y405573D01*
X589752Y405357D01*
X589679Y405299D01*
X586126Y401746D01*
X581982Y397602D01*
X577127Y395591D01*
X553525Y395591D01*
X553383Y395580D01*
X553240Y395578D01*
X553137Y395560D01*
X553033Y395551D01*
X552895Y395517D01*
X552755Y395492D01*
X552656Y395458D01*
X552555Y395433D01*
X552424Y395376D01*
X552289Y395329D01*
X552197Y395279D01*
X552101Y395238D01*
X551981Y395162D01*
X551856Y395093D01*
X551773Y395029D01*
X551685Y394973D01*
X551579Y394878D01*
X551466Y394791D01*
X551395Y394714D01*
X551317Y394644D01*
X551228Y394533D01*
X551131Y394429D01*
X551073Y394342D01*
X551007Y394260D01*
X550937Y394137D01*
X550858Y394018D01*
X550815Y393923D01*
X550763Y393832D01*
X550714Y393698D01*
X550655Y393568D01*
X550628Y393467D01*
X550592Y393369D01*
X550564Y393229D01*
X550527Y393092D01*
X550517Y392987D01*
X550497Y392885D01*
X550493Y392743D01*
X550478Y392601D01*
X550485Y392496D01*
X550482Y392392D01*
X550500Y392251D01*
X550509Y392108D01*
X550532Y392006D01*
X550546Y391903D01*
X550587Y391766D01*
X550619Y391627D01*
X550658Y391531D01*
X550689Y391431D01*
X550751Y391302D01*
X550805Y391170D01*
X550860Y391081D01*
X550905Y390987D01*
X550988Y390871D01*
X551062Y390750D01*
X551131Y390670D01*
X551191Y390585D01*
X551291Y390484D01*
X551384Y390376D01*
X551464Y390308D01*
X551538Y390234D01*
X551653Y390150D01*
X551762Y390059D01*
X551831Y390021D01*
X551936Y389944D01*
X552324Y389748D01*
X552359Y389729D01*
X553882Y389098D01*
X555795Y387185D01*
X555882Y387111D01*
X555962Y387030D01*
X556069Y386952D01*
X556171Y386866D01*
X556269Y386807D01*
X556361Y386740D01*
X556479Y386680D01*
X556593Y386611D01*
X556699Y386569D01*
X556801Y386517D01*
X556928Y386477D01*
X557051Y386428D01*
X557163Y386403D01*
X557272Y386369D01*
X557365Y386359D01*
X557533Y386321D01*
X557857Y386303D01*
X557949Y386293D01*
X560253Y386293D01*
X563988Y384746D01*
X566846Y381888D01*
X568393Y378153D01*
X568393Y364047D01*
X566846Y360312D01*
X563988Y357454D01*
X560253Y355907D01*
X546147Y355907D01*
X542412Y357454D01*
X539554Y360312D01*
X538520Y362810D01*
X538420Y363005D01*
X538324Y363201D01*
X538308Y363224D01*
X538295Y363249D01*
X538164Y363425D01*
X538038Y363603D01*
X538018Y363623D01*
X538002Y363646D01*
X537845Y363799D01*
X537692Y363954D01*
X537669Y363971D01*
X537648Y363991D01*
X537470Y364116D01*
X537293Y364244D01*
X537268Y364257D01*
X537244Y364273D01*
X537047Y364368D01*
X536853Y364467D01*
X536825Y364475D01*
X536800Y364488D01*
X536591Y364549D01*
X536382Y364615D01*
X536359Y364618D01*
X536327Y364627D01*
X535837Y364688D01*
X535757Y364685D01*
X535704Y364691D01*
X389445Y364691D01*
X389407Y364688D01*
X389369Y364690D01*
X389161Y364668D01*
X388954Y364651D01*
X388917Y364642D01*
X388879Y364638D01*
X388677Y364583D01*
X388475Y364533D01*
X388440Y364518D01*
X388403Y364507D01*
X388213Y364420D01*
X388021Y364338D01*
X387989Y364318D01*
X387955Y364302D01*
X387781Y364185D01*
X387605Y364073D01*
X387577Y364048D01*
X387545Y364026D01*
X387393Y363883D01*
X387238Y363744D01*
X387214Y363715D01*
X387186Y363689D01*
X387058Y363522D01*
X386928Y363360D01*
X386909Y363328D01*
X386886Y363297D01*
X386787Y363113D01*
X386684Y362932D01*
X386670Y362896D01*
X386652Y362862D01*
X386585Y362665D01*
X386512Y362469D01*
X386505Y362432D01*
X386492Y362396D01*
X386457Y362189D01*
X386417Y361985D01*
X386416Y361947D01*
X386410Y361909D01*
X386408Y361700D01*
X386402Y361492D01*
X386407Y361454D01*
X386407Y361416D01*
X386439Y361209D01*
X386466Y361003D01*
X386477Y360966D01*
X386483Y360929D01*
X386549Y360730D01*
X386609Y360531D01*
X386626Y360496D01*
X386638Y360460D01*
X386734Y360275D01*
X386826Y360087D01*
X386848Y360056D01*
X386865Y360022D01*
X386924Y359950D01*
X387111Y359685D01*
X387232Y359563D01*
X387291Y359489D01*
X389954Y356826D01*
X394098Y352682D01*
X395132Y350186D01*
X395231Y349993D01*
X395327Y349796D01*
X395344Y349773D01*
X395357Y349747D01*
X395486Y349572D01*
X395613Y349394D01*
X395633Y349373D01*
X395650Y349350D01*
X395806Y349198D01*
X395959Y349043D01*
X395982Y349026D01*
X396003Y349006D01*
X396182Y348881D01*
X396358Y348752D01*
X396384Y348739D01*
X396407Y348723D01*
X396604Y348628D01*
X396799Y348530D01*
X396826Y348521D01*
X396851Y348509D01*
X397061Y348447D01*
X397269Y348382D01*
X397292Y348379D01*
X397325Y348369D01*
X397814Y348308D01*
X397894Y348311D01*
X397947Y348305D01*
X420731Y348305D01*
X425586Y346294D01*
X440398Y331482D01*
X442409Y326627D01*
X442409Y315888D01*
X442414Y315824D01*
X442413Y315780D01*
X442414Y315772D01*
X442413Y315736D01*
X442435Y315567D01*
X442449Y315396D01*
X442467Y315322D01*
X442477Y315247D01*
X442526Y315083D01*
X442567Y314917D01*
X442597Y314848D01*
X442619Y314774D01*
X442695Y314621D01*
X442762Y314464D01*
X442803Y314400D01*
X442836Y314331D01*
X442935Y314192D01*
X443027Y314048D01*
X443078Y313991D01*
X443122Y313929D01*
X443242Y313808D01*
X443356Y313680D01*
X443415Y313632D01*
X443469Y313578D01*
X443607Y313477D01*
X443740Y313370D01*
X443806Y313333D01*
X443867Y313288D01*
X443953Y313245D01*
X443953Y306508D01*
X443959Y306432D01*
X443956Y306356D01*
X443979Y306187D01*
X443993Y306016D01*
X444011Y305942D01*
X444021Y305867D01*
X444070Y305703D01*
X444111Y305537D01*
X444141Y305468D01*
X444163Y305394D01*
X444238Y305241D01*
X444306Y305084D01*
X444347Y305020D01*
X444380Y304951D01*
X444479Y304812D01*
X444571Y304668D01*
X444622Y304611D01*
X444666Y304549D01*
X444786Y304428D01*
X444900Y304300D01*
X444959Y304252D01*
X445012Y304198D01*
X445151Y304097D01*
X445283Y303990D01*
X445350Y303953D01*
X445411Y303908D01*
X445564Y303831D01*
X445712Y303746D01*
X445784Y303720D01*
X445852Y303685D01*
X446014Y303634D01*
X446175Y303575D01*
X446249Y303560D01*
X446322Y303537D01*
X446427Y303525D01*
X446659Y303480D01*
X446895Y303473D01*
X447000Y303461D01*
X447076Y303467D01*
X447152Y303465D01*
X447321Y303487D01*
X447492Y303501D01*
X447566Y303519D01*
X447641Y303529D01*
X447805Y303578D01*
X447971Y303619D01*
X448041Y303649D01*
X448114Y303671D01*
X448267Y303747D01*
X448424Y303814D01*
X448488Y303855D01*
X448557Y303888D01*
X448696Y303987D01*
X448840Y304079D01*
X448897Y304130D01*
X448959Y304174D01*
X449081Y304294D01*
X449208Y304408D01*
X449256Y304467D01*
X449310Y304521D01*
X449411Y304659D01*
X449518Y304792D01*
X449556Y304858D01*
X449600Y304919D01*
X449677Y305072D01*
X449762Y305220D01*
X449788Y305292D01*
X449823Y305360D01*
X449874Y305523D01*
X449934Y305683D01*
X449948Y305758D01*
X449971Y305830D01*
X449983Y305935D01*
X450028Y306167D01*
X450036Y306403D01*
X450047Y306508D01*
X450047Y312841D01*
X452335Y312841D01*
X452981Y312668D01*
X453560Y312333D01*
X454033Y311860D01*
X454368Y311281D01*
X454541Y310635D01*
X454541Y305282D01*
X454558Y305064D01*
X454572Y304846D01*
X454578Y304818D01*
X454581Y304790D01*
X454633Y304578D01*
X454682Y304365D01*
X454693Y304339D01*
X454699Y304311D01*
X454786Y304110D01*
X454868Y303908D01*
X454883Y303884D01*
X454894Y303858D01*
X455011Y303673D01*
X455125Y303487D01*
X455144Y303466D01*
X455159Y303442D01*
X455304Y303279D01*
X455447Y303113D01*
X455469Y303095D01*
X455488Y303074D01*
X455657Y302937D01*
X455825Y302796D01*
X455846Y302785D01*
X455872Y302764D01*
X456300Y302520D01*
X456376Y302492D01*
X456422Y302466D01*
X457756Y301914D01*
X457768Y301901D01*
X457855Y301827D01*
X457935Y301746D01*
X458043Y301668D01*
X458144Y301582D01*
X458242Y301523D01*
X458334Y301456D01*
X458453Y301396D01*
X458567Y301327D01*
X458673Y301285D01*
X458775Y301233D01*
X458902Y301193D01*
X459025Y301144D01*
X459136Y301119D01*
X459245Y301085D01*
X459339Y301075D01*
X459506Y301037D01*
X459831Y301019D01*
X459923Y301009D01*
X480624Y301009D01*
X480795Y301023D01*
X480966Y301028D01*
X481040Y301043D01*
X481116Y301049D01*
X481282Y301090D01*
X481450Y301123D01*
X481521Y301149D01*
X481595Y301167D01*
X481752Y301235D01*
X481912Y301294D01*
X481979Y301332D01*
X482048Y301362D01*
X482192Y301454D01*
X482341Y301538D01*
X482400Y301586D01*
X482464Y301627D01*
X482592Y301741D01*
X482725Y301848D01*
X482775Y301905D01*
X482832Y301956D01*
X482940Y302089D01*
X483054Y302216D01*
X483094Y302281D01*
X483142Y302340D01*
X483227Y302488D01*
X483319Y302632D01*
X483340Y302688D01*
X483386Y302768D01*
X483558Y303231D01*
X483562Y303253D01*
X483568Y303267D01*
X483581Y303318D01*
X483916Y303897D01*
X484389Y304370D01*
X484968Y304705D01*
X485614Y304878D01*
X488901Y304878D01*
X488901Y304056D01*
X488908Y303980D01*
X488905Y303904D01*
X488927Y303734D01*
X488941Y303564D01*
X488960Y303490D01*
X488970Y303415D01*
X489019Y303251D01*
X489060Y303085D01*
X489090Y303016D01*
X489112Y302942D01*
X489187Y302789D01*
X489254Y302632D01*
X489295Y302568D01*
X489329Y302499D01*
X489428Y302360D01*
X489520Y302216D01*
X489570Y302159D01*
X489614Y302097D01*
X489734Y301976D01*
X489848Y301848D01*
X489908Y301800D01*
X489961Y301746D01*
X490099Y301645D01*
X490232Y301538D01*
X490298Y301501D01*
X490360Y301456D01*
X490512Y301379D01*
X490661Y301294D01*
X490732Y301268D01*
X490800Y301233D01*
X490963Y301182D01*
X491123Y301123D01*
X491198Y301108D01*
X491271Y301085D01*
X491376Y301073D01*
X491608Y301028D01*
X491844Y301021D01*
X491949Y301009D01*
X492025Y301015D01*
X492101Y301013D01*
X492270Y301035D01*
X492441Y301049D01*
X492515Y301067D01*
X492590Y301077D01*
X492754Y301126D01*
X492919Y301167D01*
X492989Y301197D01*
X493062Y301219D01*
X493216Y301295D01*
X493373Y301362D01*
X493437Y301403D01*
X493506Y301436D01*
X493645Y301535D01*
X493789Y301627D01*
X493846Y301678D01*
X493908Y301722D01*
X494029Y301842D01*
X494157Y301956D01*
X494205Y302015D01*
X494259Y302069D01*
X494359Y302207D01*
X494467Y302340D01*
X494504Y302406D01*
X494549Y302467D01*
X494626Y302620D01*
X494711Y302768D01*
X494737Y302840D01*
X494772Y302908D01*
X494823Y303071D01*
X494882Y303231D01*
X494897Y303306D01*
X494920Y303378D01*
X494932Y303483D01*
X494977Y303715D01*
X494984Y303951D01*
X494996Y304056D01*
X494996Y304878D01*
X498283Y304878D01*
X498929Y304705D01*
X499509Y304370D01*
X499982Y303897D01*
X500316Y303318D01*
X500489Y302671D01*
X500489Y301619D01*
X500507Y301401D01*
X500521Y301183D01*
X500527Y301155D01*
X500529Y301127D01*
X500582Y300915D01*
X500631Y300702D01*
X500641Y300676D01*
X500648Y300648D01*
X500734Y300447D01*
X500817Y300245D01*
X500831Y300221D01*
X500843Y300195D01*
X500960Y300010D01*
X501074Y299824D01*
X501092Y299802D01*
X501108Y299779D01*
X501253Y299616D01*
X501396Y299450D01*
X501418Y299432D01*
X501436Y299411D01*
X501606Y299274D01*
X501774Y299133D01*
X501794Y299122D01*
X501820Y299101D01*
X502249Y298857D01*
X502324Y298829D01*
X502371Y298803D01*
X503704Y298251D01*
X506563Y295393D01*
X508109Y291658D01*
X508109Y282016D01*
X506563Y278281D01*
X504573Y276292D01*
X504524Y276234D01*
X504468Y276181D01*
X504364Y276046D01*
X504253Y275916D01*
X504214Y275850D01*
X504168Y275790D01*
X504087Y275640D01*
X503999Y275493D01*
X503971Y275422D01*
X503935Y275355D01*
X503879Y275194D01*
X503816Y275035D01*
X503799Y274961D01*
X503775Y274889D01*
X503746Y274720D01*
X503709Y274553D01*
X503705Y274477D01*
X503692Y274402D01*
X503691Y274231D01*
X503681Y274061D01*
X503689Y273985D01*
X503689Y273909D01*
X503716Y273740D01*
X503734Y273570D01*
X503754Y273497D01*
X503766Y273422D01*
X503819Y273259D01*
X503864Y273095D01*
X503896Y273025D01*
X503920Y272953D01*
X503999Y272802D01*
X504070Y272646D01*
X504113Y272583D01*
X504148Y272515D01*
X504213Y272433D01*
X504345Y272237D01*
X504507Y272065D01*
X504573Y271982D01*
X506563Y269993D01*
X508109Y266258D01*
X508109Y256616D01*
X506563Y252881D01*
X504573Y250892D01*
X504524Y250834D01*
X504468Y250781D01*
X504364Y250646D01*
X504253Y250516D01*
X504214Y250450D01*
X504168Y250390D01*
X504087Y250240D01*
X503999Y250093D01*
X503971Y250022D01*
X503935Y249955D01*
X503879Y249794D01*
X503816Y249635D01*
X503799Y249561D01*
X503775Y249489D01*
X503746Y249320D01*
X503709Y249153D01*
X503705Y249077D01*
X503692Y249002D01*
X503691Y248831D01*
X503681Y248661D01*
X503689Y248585D01*
X503689Y248509D01*
X503716Y248340D01*
X503734Y248170D01*
X503754Y248097D01*
X503766Y248022D01*
X503819Y247859D01*
X503864Y247695D01*
X503896Y247625D01*
X503920Y247553D01*
X503999Y247402D01*
X504070Y247246D01*
X504113Y247183D01*
X504148Y247115D01*
X504213Y247033D01*
X504345Y246837D01*
X504507Y246665D01*
X504573Y246582D01*
X506563Y244593D01*
X508109Y240858D01*
X508109Y231216D01*
X506563Y227481D01*
X504573Y225492D01*
X504524Y225434D01*
X504468Y225381D01*
X504364Y225246D01*
X504253Y225116D01*
X504214Y225050D01*
X504168Y224990D01*
X504087Y224840D01*
X503999Y224693D01*
X503971Y224622D01*
X503935Y224555D01*
X503879Y224394D01*
X503816Y224235D01*
X503799Y224161D01*
X503775Y224089D01*
X503746Y223920D01*
X503709Y223753D01*
X503705Y223677D01*
X503692Y223602D01*
X503691Y223431D01*
X503681Y223261D01*
X503689Y223185D01*
X503689Y223109D01*
X503716Y222940D01*
X503734Y222770D01*
X503754Y222697D01*
X503766Y222622D01*
X503819Y222459D01*
X503864Y222295D01*
X503896Y222225D01*
X503920Y222153D01*
X503999Y222002D01*
X504070Y221846D01*
X504113Y221783D01*
X504148Y221715D01*
X504213Y221633D01*
X504345Y221437D01*
X504507Y221265D01*
X504573Y221182D01*
X506563Y219193D01*
X508109Y215458D01*
X508109Y205816D01*
X506563Y202081D01*
X503704Y199223D01*
X499970Y197676D01*
X498930Y197676D01*
X498817Y197667D01*
X498702Y197668D01*
X498571Y197647D01*
X498439Y197636D01*
X498328Y197609D01*
X498215Y197591D01*
X498089Y197549D01*
X497960Y197518D01*
X497855Y197473D01*
X497746Y197437D01*
X497628Y197375D01*
X497506Y197323D01*
X497410Y197262D01*
X497309Y197209D01*
X497235Y197150D01*
X497090Y197058D01*
X496848Y196842D01*
X496776Y196784D01*
X489301Y189309D01*
X489227Y189222D01*
X489146Y189142D01*
X489068Y189035D01*
X488982Y188934D01*
X488923Y188836D01*
X488856Y188743D01*
X488796Y188625D01*
X488727Y188511D01*
X488685Y188405D01*
X488633Y188303D01*
X488593Y188176D01*
X488544Y188053D01*
X488519Y187942D01*
X488485Y187832D01*
X488475Y187739D01*
X488437Y187571D01*
X488419Y187247D01*
X488409Y187155D01*
X488409Y140973D01*
X486398Y136118D01*
X458323Y108043D01*
X453468Y106032D01*
X434464Y106032D01*
X434351Y106023D01*
X434236Y106023D01*
X434105Y106003D01*
X433973Y105992D01*
X433862Y105964D01*
X433749Y105947D01*
X433623Y105905D01*
X433494Y105873D01*
X433389Y105828D01*
X433280Y105792D01*
X433162Y105731D01*
X433040Y105679D01*
X432944Y105617D01*
X432843Y105565D01*
X432769Y105506D01*
X432624Y105414D01*
X432382Y105197D01*
X432310Y105139D01*
X429900Y102730D01*
X416222Y102730D01*
X413269Y105683D01*
X413182Y105757D01*
X413102Y105838D01*
X412995Y105916D01*
X412893Y106002D01*
X412795Y106061D01*
X412703Y106128D01*
X412585Y106188D01*
X412471Y106257D01*
X412364Y106299D01*
X412263Y106351D01*
X412136Y106391D01*
X412013Y106440D01*
X411901Y106465D01*
X411792Y106499D01*
X411699Y106509D01*
X411531Y106547D01*
X411207Y106565D01*
X411114Y106575D01*
X400570Y106575D01*
X395342Y108741D01*
X390912Y113171D01*
X378336Y125747D01*
X378307Y125772D01*
X378281Y125800D01*
X378119Y125932D01*
X377960Y126067D01*
X377927Y126086D01*
X377898Y126110D01*
X377717Y126213D01*
X377537Y126321D01*
X377502Y126336D01*
X377469Y126354D01*
X377273Y126427D01*
X377079Y126504D01*
X377042Y126513D01*
X377006Y126526D01*
X376802Y126566D01*
X376598Y126611D01*
X376559Y126613D01*
X376522Y126621D01*
X376315Y126627D01*
X376105Y126639D01*
X376067Y126635D01*
X376029Y126636D01*
X375822Y126609D01*
X375615Y126587D01*
X375578Y126577D01*
X375540Y126572D01*
X375340Y126511D01*
X375139Y126456D01*
X375104Y126440D01*
X375068Y126429D01*
X374880Y126337D01*
X374690Y126250D01*
X374659Y126229D01*
X374625Y126212D01*
X374455Y126092D01*
X374281Y125975D01*
X374253Y125949D01*
X374222Y125927D01*
X374074Y125780D01*
X373922Y125637D01*
X373898Y125607D01*
X373871Y125580D01*
X373748Y125411D01*
X373621Y125246D01*
X373603Y125212D01*
X373581Y125181D01*
X373487Y124995D01*
X373388Y124811D01*
X373376Y124775D01*
X373359Y124741D01*
X373296Y124542D01*
X373228Y124344D01*
X373222Y124307D01*
X373210Y124270D01*
X373200Y124178D01*
X373146Y123858D01*
X373144Y123686D01*
X373134Y123593D01*
X373134Y121442D01*
X356931Y105239D01*
X334016Y105239D01*
X317812Y121442D01*
X317812Y144357D01*
X334016Y160561D01*
X336166Y160561D01*
X336204Y160564D01*
X336242Y160562D01*
X336450Y160584D01*
X336658Y160601D01*
X336695Y160610D01*
X336733Y160614D01*
X336934Y160669D01*
X337136Y160719D01*
X337171Y160734D01*
X337208Y160744D01*
X337398Y160832D01*
X337590Y160914D01*
X337622Y160934D01*
X337657Y160950D01*
X337830Y161067D01*
X338006Y161179D01*
X338034Y161204D01*
X338066Y161226D01*
X338218Y161368D01*
X338374Y161508D01*
X338398Y161537D01*
X338425Y161563D01*
X338553Y161729D01*
X338684Y161891D01*
X338703Y161924D01*
X338726Y161955D01*
X338824Y162139D01*
X338928Y162320D01*
X338941Y162356D01*
X338959Y162390D01*
X339027Y162587D01*
X339099Y162783D01*
X339107Y162820D01*
X339119Y162856D01*
X339154Y163063D01*
X339194Y163267D01*
X339195Y163305D01*
X339202Y163343D01*
X339203Y163552D01*
X339209Y163760D01*
X339204Y163798D01*
X339205Y163836D01*
X339172Y164043D01*
X339145Y164249D01*
X339134Y164286D01*
X339128Y164323D01*
X339063Y164521D01*
X339002Y164721D01*
X338986Y164756D01*
X338974Y164792D01*
X338877Y164977D01*
X338786Y165164D01*
X338764Y165195D01*
X338746Y165229D01*
X338688Y165302D01*
X338500Y165567D01*
X338379Y165689D01*
X338321Y165763D01*
X291900Y212183D01*
X291814Y212257D01*
X291733Y212338D01*
X291626Y212416D01*
X291524Y212502D01*
X291427Y212561D01*
X291334Y212628D01*
X291216Y212688D01*
X291102Y212757D01*
X290996Y212799D01*
X290894Y212851D01*
X290767Y212891D01*
X290644Y212940D01*
X290533Y212965D01*
X290423Y212999D01*
X290330Y213009D01*
X290162Y213047D01*
X289838Y213065D01*
X289746Y213075D01*
X253681Y213075D01*
X253605Y213069D01*
X253529Y213071D01*
X253360Y213049D01*
X253189Y213035D01*
X253116Y213017D01*
X253040Y213007D01*
X252876Y212958D01*
X252711Y212917D01*
X252641Y212887D01*
X252568Y212865D01*
X252414Y212789D01*
X252257Y212722D01*
X252193Y212681D01*
X252125Y212648D01*
X251985Y212549D01*
X251841Y212457D01*
X251784Y212406D01*
X251722Y212362D01*
X251601Y212242D01*
X251473Y212128D01*
X251425Y212069D01*
X251371Y212015D01*
X251271Y211877D01*
X251163Y211744D01*
X251126Y211678D01*
X251081Y211617D01*
X251004Y211464D01*
X250919Y211316D01*
X250893Y211244D01*
X250859Y211176D01*
X250807Y211013D01*
X250748Y210853D01*
X250733Y210778D01*
X250710Y210706D01*
X250698Y210601D01*
X250653Y210369D01*
X250646Y210133D01*
X250634Y210028D01*
X250634Y192913D01*
X240725Y183005D01*
X240676Y182947D01*
X240620Y182894D01*
X240516Y182759D01*
X240406Y182629D01*
X240366Y182563D01*
X240320Y182503D01*
X240239Y182353D01*
X240151Y182206D01*
X240123Y182135D01*
X240087Y182068D01*
X240031Y181907D01*
X239968Y181748D01*
X239951Y181674D01*
X239927Y181602D01*
X239898Y181433D01*
X239861Y181266D01*
X239857Y181190D01*
X239844Y181115D01*
X239843Y180944D01*
X239833Y180774D01*
X239842Y180698D01*
X239841Y180622D01*
X239868Y180453D01*
X239886Y180283D01*
X239906Y180210D01*
X239918Y180135D01*
X239971Y179972D01*
X240016Y179808D01*
X240048Y179738D01*
X240072Y179666D01*
X240151Y179514D01*
X240222Y179359D01*
X240265Y179296D01*
X240300Y179228D01*
X240365Y179146D01*
X240497Y178950D01*
X240660Y178777D01*
X240725Y178695D01*
X250134Y169286D01*
X250134Y150513D01*
X236860Y137239D01*
X221209Y137239D01*
X221171Y137236D01*
X221133Y137238D01*
X220925Y137216D01*
X220717Y137199D01*
X220680Y137190D01*
X220642Y137186D01*
X220441Y137131D01*
X220238Y137080D01*
X220203Y137065D01*
X220166Y137055D01*
X219976Y136968D01*
X219785Y136886D01*
X219753Y136866D01*
X219718Y136850D01*
X219545Y136733D01*
X219369Y136621D01*
X219340Y136595D01*
X219309Y136574D01*
X219157Y136431D01*
X219001Y136292D01*
X218977Y136262D01*
X218949Y136236D01*
X218822Y136071D01*
X218691Y135908D01*
X218672Y135875D01*
X218649Y135845D01*
X218550Y135661D01*
X218447Y135480D01*
X218434Y135444D01*
X218416Y135410D01*
X218348Y135213D01*
X218275Y135017D01*
X218268Y134980D01*
X218256Y134944D01*
X218221Y134737D01*
X218181Y134533D01*
X218180Y134495D01*
X218173Y134457D01*
X218172Y134247D01*
X218165Y134040D01*
X218170Y134002D01*
X218170Y133964D01*
X218203Y133757D01*
X218230Y133551D01*
X218241Y133514D01*
X218247Y133477D01*
X218312Y133278D01*
X218372Y133078D01*
X218389Y133044D01*
X218401Y133008D01*
X218498Y132823D01*
X218589Y132635D01*
X218611Y132604D01*
X218629Y132570D01*
X218687Y132498D01*
X218875Y132233D01*
X218996Y132111D01*
X219054Y132037D01*
X233234Y117857D01*
X233234Y94942D01*
X231626Y93335D01*
X231552Y93248D01*
X231471Y93168D01*
X231393Y93060D01*
X231307Y92959D01*
X231248Y92861D01*
X231181Y92769D01*
X231121Y92650D01*
X231052Y92536D01*
X231010Y92430D01*
X230959Y92328D01*
X230919Y92202D01*
X230869Y92078D01*
X230845Y91967D01*
X230810Y91858D01*
X230800Y91764D01*
X230763Y91597D01*
X230744Y91272D01*
X230734Y91180D01*
X230734Y74216D01*
X230738Y74163D01*
X230736Y74109D01*
X230758Y73918D01*
X230774Y73724D01*
X230787Y73672D01*
X230793Y73619D01*
X230846Y73433D01*
X230893Y73245D01*
X230914Y73196D01*
X230928Y73145D01*
X231011Y72970D01*
X231087Y72792D01*
X231116Y72747D01*
X231139Y72699D01*
X231248Y72539D01*
X231352Y72376D01*
X231388Y72336D01*
X231418Y72292D01*
X231552Y72152D01*
X231681Y72008D01*
X231722Y71975D01*
X231759Y71936D01*
X231914Y71820D01*
X232065Y71698D01*
X232111Y71672D01*
X232154Y71640D01*
X232325Y71550D01*
X232494Y71454D01*
X232544Y71436D01*
X232591Y71411D01*
X232774Y71350D01*
X232956Y71283D01*
X233009Y71272D01*
X233059Y71256D01*
X233250Y71225D01*
X233440Y71188D01*
X233493Y71186D01*
X233546Y71178D01*
X233740Y71179D01*
X233933Y71173D01*
X233986Y71179D01*
X234040Y71180D01*
X234231Y71212D01*
X234422Y71237D01*
X234474Y71252D01*
X234526Y71261D01*
X234622Y71297D01*
X234895Y71379D01*
X235071Y71466D01*
X235165Y71501D01*
X236000Y71926D01*
X236853Y72203D01*
X236853Y54890D01*
X236859Y54814D01*
X236856Y54738D01*
X236879Y54569D01*
X236893Y54399D01*
X236911Y54325D01*
X236921Y54249D01*
X236970Y54085D01*
X237011Y53920D01*
X237041Y53850D01*
X237063Y53777D01*
X237138Y53623D01*
X237206Y53466D01*
X237247Y53402D01*
X237280Y53334D01*
X237379Y53194D01*
X237471Y53050D01*
X237522Y52994D01*
X237566Y52931D01*
X237686Y52810D01*
X237800Y52682D01*
X237859Y52634D01*
X237912Y52580D01*
X237913Y52580D01*
X238051Y52479D01*
X238184Y52372D01*
X238250Y52334D01*
X238312Y52289D01*
X238464Y52213D01*
X238613Y52128D01*
X238684Y52101D01*
X238752Y52067D01*
X238915Y52016D01*
X239075Y51956D01*
X239150Y51942D01*
X239223Y51919D01*
X239327Y51907D01*
X239559Y51862D01*
X239795Y51854D01*
X239900Y51843D01*
X250061Y51843D01*
X250061Y46368D01*
X250058Y46293D01*
X250045Y46115D01*
X250051Y46047D01*
X250049Y45978D01*
X250072Y45801D01*
X250087Y45624D01*
X250104Y45557D01*
X250113Y45489D01*
X250164Y45318D01*
X250208Y45146D01*
X250236Y45082D01*
X250256Y45016D01*
X250334Y44856D01*
X250405Y44693D01*
X250442Y44635D01*
X250472Y44573D01*
X250575Y44428D01*
X250672Y44278D01*
X250718Y44227D01*
X250758Y44171D01*
X250883Y44044D01*
X251002Y43912D01*
X251056Y43869D01*
X251105Y43820D01*
X251248Y43715D01*
X251388Y43604D01*
X251448Y43570D01*
X251503Y43530D01*
X251662Y43450D01*
X251818Y43362D01*
X251882Y43338D01*
X251944Y43307D01*
X252114Y43254D01*
X252281Y43193D01*
X252348Y43180D01*
X252414Y43159D01*
X252519Y43147D01*
X252766Y43100D01*
X252988Y43094D01*
X253092Y43083D01*
X290995Y43083D01*
X291109Y43092D01*
X291223Y43091D01*
X291354Y43112D01*
X291487Y43123D01*
X291598Y43150D01*
X291710Y43168D01*
X291837Y43209D01*
X291966Y43241D01*
X292070Y43286D01*
X292179Y43322D01*
X292297Y43384D01*
X292419Y43436D01*
X292515Y43497D01*
X292617Y43550D01*
X292690Y43609D01*
X292835Y43701D01*
X293077Y43917D01*
X293150Y43975D01*
X298511Y49337D01*
X298518Y49344D01*
X298525Y49351D01*
X298677Y49532D01*
X298831Y49713D01*
X298836Y49721D01*
X298842Y49729D01*
X298862Y49764D01*
X299086Y50135D01*
X299134Y50257D01*
X299172Y50326D01*
X301026Y54802D01*
X306028Y59804D01*
X312563Y62511D01*
X319637Y62511D01*
X326172Y59804D01*
X331174Y54802D01*
X333028Y50326D01*
X333032Y50317D01*
X333035Y50308D01*
X333146Y50095D01*
X333253Y49887D01*
X333259Y49879D01*
X333263Y49870D01*
X333289Y49838D01*
X333546Y49490D01*
X333640Y49398D01*
X333689Y49337D01*
X333973Y49052D01*
X337183Y41304D01*
X337183Y32916D01*
X333973Y25168D01*
X333689Y24883D01*
X333682Y24876D01*
X333675Y24869D01*
X333522Y24687D01*
X333369Y24507D01*
X333364Y24499D01*
X333358Y24491D01*
X333338Y24456D01*
X333114Y24085D01*
X333066Y23963D01*
X333028Y23894D01*
X331174Y19418D01*
X328165Y16409D01*
X328140Y16380D01*
X328111Y16354D01*
X327981Y16192D01*
X327846Y16033D01*
X327825Y16000D01*
X327801Y15970D01*
X327698Y15789D01*
X327591Y15611D01*
X327577Y15575D01*
X327557Y15541D01*
X327485Y15346D01*
X327408Y15153D01*
X327399Y15115D01*
X327386Y15078D01*
X327346Y14874D01*
X327301Y14671D01*
X327299Y14632D01*
X327291Y14594D01*
X327285Y14387D01*
X327273Y14178D01*
X327278Y14140D01*
X327276Y14101D01*
X327304Y13895D01*
X327326Y13688D01*
X327336Y13651D01*
X327341Y13612D01*
X327401Y13412D01*
X327456Y13212D01*
X327472Y13177D01*
X327484Y13140D01*
X327575Y12953D01*
X327662Y12764D01*
X327684Y12732D01*
X327701Y12697D01*
X327821Y12527D01*
X327937Y12354D01*
X327964Y12326D01*
X327986Y12295D01*
X328133Y12147D01*
X328275Y11995D01*
X328306Y11971D01*
X328333Y11944D01*
X328501Y11821D01*
X328667Y11695D01*
X328701Y11676D01*
X328732Y11653D01*
X328918Y11560D01*
X329101Y11461D01*
X329138Y11449D01*
X329173Y11431D01*
X329371Y11369D01*
X329568Y11301D01*
X329606Y11295D01*
X329643Y11283D01*
X329736Y11273D01*
X330054Y11219D01*
X330227Y11218D01*
X330321Y11207D01*
X657718Y11355D01*
G37*
G36*
X89320Y68926D02*
X89320Y68926D01*
X89434Y68925D01*
X89566Y68946D01*
X89698Y68957D01*
X89809Y68984D01*
X89921Y69002D01*
X90048Y69043D01*
X90177Y69075D01*
X90282Y69120D01*
X90390Y69156D01*
X90508Y69217D01*
X90630Y69270D01*
X90726Y69331D01*
X90828Y69384D01*
X90901Y69443D01*
X91046Y69535D01*
X91288Y69751D01*
X91361Y69809D01*
X102551Y80999D01*
X108288Y84312D01*
X114687Y86026D01*
X121313Y86026D01*
X127712Y84312D01*
X133449Y80999D01*
X137972Y76477D01*
X138030Y76427D01*
X138082Y76372D01*
X138217Y76268D01*
X138348Y76157D01*
X138413Y76118D01*
X138473Y76072D01*
X138624Y75991D01*
X138770Y75903D01*
X138841Y75874D01*
X138908Y75838D01*
X139070Y75783D01*
X139228Y75720D01*
X139303Y75703D01*
X139375Y75678D01*
X139543Y75650D01*
X139710Y75613D01*
X139786Y75609D01*
X139861Y75596D01*
X140032Y75595D01*
X140202Y75585D01*
X140278Y75593D01*
X140354Y75593D01*
X140523Y75619D01*
X140693Y75637D01*
X140766Y75658D01*
X140842Y75669D01*
X141004Y75723D01*
X141169Y75768D01*
X141238Y75800D01*
X141310Y75824D01*
X141462Y75903D01*
X141617Y75974D01*
X141680Y76016D01*
X141748Y76051D01*
X141830Y76117D01*
X142026Y76249D01*
X142199Y76411D01*
X142281Y76477D01*
X143224Y77420D01*
X143273Y77478D01*
X143329Y77530D01*
X143433Y77665D01*
X143543Y77795D01*
X143583Y77861D01*
X143629Y77921D01*
X143710Y78072D01*
X143798Y78218D01*
X143826Y78289D01*
X143862Y78356D01*
X143918Y78518D01*
X143981Y78676D01*
X143998Y78750D01*
X144022Y78823D01*
X144051Y78991D01*
X144088Y79158D01*
X144092Y79234D01*
X144105Y79309D01*
X144106Y79480D01*
X144116Y79650D01*
X144107Y79726D01*
X144108Y79802D01*
X144081Y79971D01*
X144063Y80141D01*
X144043Y80214D01*
X144031Y80290D01*
X143978Y80452D01*
X143933Y80617D01*
X143901Y80686D01*
X143877Y80758D01*
X143798Y80910D01*
X143727Y81065D01*
X143684Y81128D01*
X143649Y81196D01*
X143583Y81278D01*
X143452Y81474D01*
X143290Y81647D01*
X143224Y81729D01*
X140077Y84876D01*
X140077Y86353D01*
X151000Y86353D01*
X161923Y86353D01*
X161923Y86088D01*
X161937Y85917D01*
X161942Y85747D01*
X161957Y85672D01*
X161963Y85596D01*
X162004Y85430D01*
X162037Y85262D01*
X162063Y85191D01*
X162081Y85117D01*
X162149Y84960D01*
X162208Y84800D01*
X162246Y84734D01*
X162276Y84664D01*
X162368Y84520D01*
X162452Y84371D01*
X162500Y84312D01*
X162541Y84248D01*
X162655Y84120D01*
X162762Y83987D01*
X162819Y83937D01*
X162870Y83880D01*
X163003Y83773D01*
X163130Y83659D01*
X163194Y83618D01*
X163254Y83570D01*
X163402Y83486D01*
X163546Y83394D01*
X163602Y83372D01*
X163682Y83326D01*
X164145Y83155D01*
X164167Y83150D01*
X164181Y83145D01*
X167824Y82169D01*
X173037Y79159D01*
X175210Y76985D01*
X175240Y76960D01*
X175265Y76932D01*
X175427Y76801D01*
X175586Y76666D01*
X175619Y76646D01*
X175649Y76622D01*
X175830Y76519D01*
X176009Y76411D01*
X176044Y76397D01*
X176078Y76378D01*
X176274Y76305D01*
X176467Y76228D01*
X176504Y76220D01*
X176540Y76206D01*
X176745Y76166D01*
X176949Y76121D01*
X176987Y76119D01*
X177024Y76112D01*
X177232Y76105D01*
X177441Y76094D01*
X177479Y76098D01*
X177517Y76096D01*
X177724Y76124D01*
X177932Y76146D01*
X177969Y76156D01*
X178006Y76161D01*
X178207Y76221D01*
X178408Y76276D01*
X178442Y76292D01*
X178479Y76303D01*
X178666Y76395D01*
X178856Y76482D01*
X178888Y76503D01*
X178922Y76520D01*
X179092Y76641D01*
X179265Y76758D01*
X179293Y76784D01*
X179324Y76806D01*
X179472Y76952D01*
X179625Y77095D01*
X179648Y77126D01*
X179675Y77152D01*
X179798Y77321D01*
X179925Y77487D01*
X179943Y77520D01*
X179966Y77551D01*
X180059Y77737D01*
X180158Y77921D01*
X180171Y77958D01*
X180188Y77992D01*
X180250Y78190D01*
X180318Y78388D01*
X180325Y78426D01*
X180336Y78462D01*
X180347Y78554D01*
X180401Y78875D01*
X180402Y79047D01*
X180412Y79140D01*
X180412Y91180D01*
X180403Y91294D01*
X180404Y91408D01*
X180383Y91540D01*
X180373Y91672D01*
X180345Y91783D01*
X180327Y91896D01*
X180286Y92022D01*
X180254Y92151D01*
X180209Y92256D01*
X180173Y92364D01*
X180112Y92482D01*
X180059Y92604D01*
X179998Y92700D01*
X179945Y92802D01*
X179887Y92875D01*
X179794Y93020D01*
X179578Y93262D01*
X179520Y93335D01*
X177912Y94942D01*
X177912Y117857D01*
X194116Y134061D01*
X213909Y134061D01*
X213947Y134064D01*
X213985Y134062D01*
X214192Y134084D01*
X214400Y134101D01*
X214437Y134110D01*
X214475Y134114D01*
X214676Y134169D01*
X214879Y134219D01*
X214914Y134234D01*
X214951Y134244D01*
X215141Y134332D01*
X215333Y134414D01*
X215365Y134434D01*
X215399Y134450D01*
X215573Y134567D01*
X215749Y134679D01*
X215777Y134704D01*
X215809Y134726D01*
X215961Y134868D01*
X216117Y135008D01*
X216141Y135037D01*
X216168Y135063D01*
X216295Y135229D01*
X216427Y135391D01*
X216445Y135424D01*
X216469Y135455D01*
X216567Y135639D01*
X216671Y135820D01*
X216684Y135856D01*
X216702Y135890D01*
X216770Y136087D01*
X216842Y136283D01*
X216849Y136320D01*
X216862Y136356D01*
X216897Y136563D01*
X216937Y136767D01*
X216938Y136805D01*
X216944Y136843D01*
X216946Y137052D01*
X216952Y137260D01*
X216947Y137298D01*
X216947Y137336D01*
X216915Y137543D01*
X216888Y137749D01*
X216877Y137786D01*
X216871Y137823D01*
X216806Y138021D01*
X216745Y138221D01*
X216728Y138256D01*
X216717Y138292D01*
X216620Y138477D01*
X216528Y138664D01*
X216506Y138695D01*
X216489Y138729D01*
X216431Y138802D01*
X216243Y139067D01*
X216122Y139189D01*
X216063Y139263D01*
X204812Y150513D01*
X204812Y169286D01*
X214721Y179195D01*
X214771Y179253D01*
X214826Y179305D01*
X214930Y179441D01*
X215041Y179571D01*
X215080Y179636D01*
X215127Y179697D01*
X215207Y179847D01*
X215295Y179994D01*
X215324Y180065D01*
X215360Y180132D01*
X215415Y180293D01*
X215479Y180452D01*
X215495Y180526D01*
X215520Y180598D01*
X215548Y180767D01*
X215585Y180933D01*
X215590Y181009D01*
X215602Y181085D01*
X215603Y181255D01*
X215613Y181426D01*
X215605Y181502D01*
X215605Y181578D01*
X215579Y181747D01*
X215561Y181917D01*
X215541Y181990D01*
X215529Y182065D01*
X215475Y182228D01*
X215430Y182392D01*
X215398Y182461D01*
X215375Y182534D01*
X215296Y182685D01*
X215224Y182841D01*
X215182Y182904D01*
X215147Y182971D01*
X215081Y183054D01*
X214949Y183250D01*
X214787Y183422D01*
X214721Y183505D01*
X205288Y192938D01*
X205273Y193131D01*
X205263Y193168D01*
X205259Y193206D01*
X205204Y193407D01*
X205154Y193610D01*
X205139Y193645D01*
X205129Y193681D01*
X205042Y193871D01*
X204959Y194063D01*
X204939Y194095D01*
X204923Y194130D01*
X204806Y194303D01*
X204694Y194479D01*
X204669Y194507D01*
X204648Y194539D01*
X204505Y194691D01*
X204366Y194847D01*
X204336Y194871D01*
X204310Y194899D01*
X204144Y195026D01*
X203982Y195157D01*
X203949Y195176D01*
X203918Y195199D01*
X203734Y195298D01*
X203553Y195401D01*
X203517Y195414D01*
X203484Y195432D01*
X203286Y195500D01*
X203090Y195572D01*
X203053Y195580D01*
X203017Y195592D01*
X202810Y195627D01*
X202606Y195667D01*
X202568Y195668D01*
X202531Y195675D01*
X202321Y195676D01*
X202113Y195682D01*
X202076Y195677D01*
X202037Y195678D01*
X201831Y195645D01*
X201624Y195618D01*
X201588Y195607D01*
X201550Y195601D01*
X201352Y195536D01*
X201152Y195476D01*
X201117Y195459D01*
X201081Y195447D01*
X200896Y195350D01*
X200709Y195259D01*
X200678Y195237D01*
X200644Y195219D01*
X200571Y195161D01*
X200306Y194973D01*
X200184Y194852D01*
X200111Y194794D01*
X183258Y177941D01*
X178030Y175775D01*
X171907Y175775D01*
X171793Y175766D01*
X171679Y175767D01*
X171548Y175746D01*
X171415Y175735D01*
X171304Y175708D01*
X171191Y175690D01*
X171065Y175649D01*
X170936Y175617D01*
X170831Y175571D01*
X170723Y175536D01*
X170605Y175474D01*
X170483Y175422D01*
X170387Y175361D01*
X170285Y175308D01*
X170212Y175249D01*
X170067Y175157D01*
X170015Y175111D01*
X166221Y173539D01*
X145179Y173539D01*
X144910Y173651D01*
X144774Y173695D01*
X144641Y173747D01*
X144540Y173770D01*
X144440Y173802D01*
X144299Y173823D01*
X144160Y173854D01*
X144056Y173860D01*
X143952Y173876D01*
X143810Y173874D01*
X143667Y173882D01*
X143563Y173871D01*
X143459Y173870D01*
X143318Y173845D01*
X143177Y173830D01*
X143076Y173802D01*
X142973Y173784D01*
X142838Y173737D01*
X142701Y173699D01*
X142606Y173655D01*
X142507Y173621D01*
X142382Y173553D01*
X142253Y173493D01*
X142166Y173435D01*
X142074Y173385D01*
X141961Y173297D01*
X141843Y173218D01*
X141767Y173146D01*
X141685Y173082D01*
X141588Y172978D01*
X141484Y172880D01*
X141420Y172797D01*
X141349Y172721D01*
X141270Y172602D01*
X141183Y172489D01*
X141134Y172397D01*
X141076Y172310D01*
X141018Y172180D01*
X140950Y172054D01*
X140916Y171955D01*
X140873Y171860D01*
X140836Y171722D01*
X140790Y171587D01*
X140773Y171484D01*
X140746Y171383D01*
X140732Y171242D01*
X140708Y171101D01*
X140707Y170996D01*
X140697Y170892D01*
X140705Y170750D01*
X140705Y170608D01*
X140721Y170504D01*
X140727Y170400D01*
X140759Y170261D01*
X140781Y170120D01*
X140814Y170021D01*
X140837Y169919D01*
X140891Y169787D01*
X140935Y169652D01*
X140984Y169559D01*
X141023Y169462D01*
X141097Y169341D01*
X141163Y169214D01*
X141212Y169153D01*
X141280Y169041D01*
X141564Y168712D01*
X141589Y168681D01*
X143314Y166956D01*
X144073Y165122D01*
X144173Y164927D01*
X144269Y164731D01*
X144285Y164708D01*
X144298Y164683D01*
X144429Y164507D01*
X144555Y164329D01*
X144575Y164309D01*
X144591Y164286D01*
X144748Y164133D01*
X144901Y163978D01*
X144924Y163961D01*
X144945Y163941D01*
X145123Y163816D01*
X145300Y163688D01*
X145325Y163675D01*
X145349Y163659D01*
X145545Y163564D01*
X145740Y163465D01*
X145768Y163457D01*
X145793Y163444D01*
X146002Y163383D01*
X146211Y163317D01*
X146234Y163314D01*
X146266Y163305D01*
X146756Y163244D01*
X146836Y163247D01*
X146889Y163241D01*
X151451Y163241D01*
X151451Y152902D01*
X151457Y152826D01*
X151455Y152750D01*
X151477Y152581D01*
X151491Y152410D01*
X151509Y152337D01*
X151519Y152261D01*
X151568Y152097D01*
X151609Y151932D01*
X151639Y151862D01*
X151661Y151789D01*
X151704Y151702D01*
X151675Y151646D01*
X151624Y151483D01*
X151565Y151323D01*
X151550Y151248D01*
X151527Y151176D01*
X151515Y151071D01*
X151470Y150839D01*
X151463Y150603D01*
X151451Y150498D01*
X151451Y140159D01*
X146475Y140159D01*
X146256Y140142D01*
X146039Y140128D01*
X146011Y140122D01*
X145983Y140119D01*
X145770Y140067D01*
X145558Y140018D01*
X145532Y140007D01*
X145504Y140001D01*
X145303Y139915D01*
X145101Y139832D01*
X145077Y139817D01*
X145051Y139806D01*
X144867Y139689D01*
X144680Y139575D01*
X144658Y139556D01*
X144635Y139541D01*
X144472Y139396D01*
X144306Y139253D01*
X144288Y139231D01*
X144267Y139212D01*
X144129Y139042D01*
X143989Y138875D01*
X143978Y138855D01*
X143957Y138828D01*
X143713Y138400D01*
X143685Y138324D01*
X143659Y138278D01*
X143314Y137444D01*
X140456Y134586D01*
X136721Y133039D01*
X115679Y133039D01*
X111944Y134586D01*
X109086Y137444D01*
X107539Y141179D01*
X107539Y146728D01*
X107533Y146804D01*
X107535Y146880D01*
X107513Y147049D01*
X107499Y147220D01*
X107481Y147294D01*
X107471Y147369D01*
X107422Y147533D01*
X107381Y147699D01*
X107351Y147768D01*
X107329Y147842D01*
X107253Y147995D01*
X107186Y148152D01*
X107145Y148216D01*
X107112Y148285D01*
X107013Y148424D01*
X106921Y148568D01*
X106870Y148625D01*
X106826Y148687D01*
X106706Y148808D01*
X106592Y148936D01*
X106533Y148984D01*
X106479Y149038D01*
X106341Y149139D01*
X106208Y149246D01*
X106142Y149283D01*
X106081Y149328D01*
X105928Y149405D01*
X105780Y149490D01*
X105708Y149516D01*
X105640Y149551D01*
X105477Y149602D01*
X105317Y149661D01*
X105242Y149676D01*
X105170Y149699D01*
X105065Y149711D01*
X104833Y149756D01*
X104597Y149763D01*
X104492Y149775D01*
X72208Y149775D01*
X72132Y149769D01*
X72056Y149771D01*
X71887Y149749D01*
X71716Y149735D01*
X71642Y149717D01*
X71567Y149707D01*
X71403Y149658D01*
X71237Y149617D01*
X71168Y149587D01*
X71094Y149565D01*
X70941Y149489D01*
X70784Y149422D01*
X70720Y149381D01*
X70651Y149348D01*
X70512Y149249D01*
X70368Y149157D01*
X70311Y149106D01*
X70249Y149062D01*
X70128Y148942D01*
X70000Y148828D01*
X69952Y148769D01*
X69898Y148715D01*
X69797Y148577D01*
X69690Y148444D01*
X69653Y148378D01*
X69608Y148317D01*
X69531Y148164D01*
X69446Y148016D01*
X69420Y147944D01*
X69385Y147876D01*
X69334Y147713D01*
X69275Y147553D01*
X69260Y147478D01*
X69237Y147406D01*
X69225Y147301D01*
X69180Y147069D01*
X69178Y147022D01*
X68863Y146261D01*
X68808Y146089D01*
X68745Y145920D01*
X68732Y145854D01*
X68712Y145791D01*
X68685Y145612D01*
X68650Y145436D01*
X68648Y145369D01*
X68638Y145303D01*
X68641Y145122D01*
X68635Y144942D01*
X68644Y144877D01*
X68645Y144810D01*
X68676Y144632D01*
X68699Y144453D01*
X68719Y144390D01*
X68730Y144324D01*
X68790Y144154D01*
X68842Y143981D01*
X68871Y143921D01*
X68893Y143859D01*
X68980Y143699D01*
X69059Y143538D01*
X69097Y143484D01*
X69129Y143425D01*
X69240Y143283D01*
X69344Y143136D01*
X69391Y143088D01*
X69432Y143036D01*
X69564Y142913D01*
X69691Y142785D01*
X69745Y142746D01*
X69794Y142700D01*
X69944Y142600D01*
X70090Y142494D01*
X70149Y142464D01*
X70205Y142427D01*
X70369Y142353D01*
X70530Y142272D01*
X70594Y142252D01*
X70654Y142225D01*
X70828Y142178D01*
X71001Y142124D01*
X71053Y142118D01*
X71131Y142097D01*
X71622Y142048D01*
X71655Y142050D01*
X71679Y142047D01*
X79408Y142047D01*
X79408Y129006D01*
X66366Y129006D01*
X66366Y136493D01*
X66352Y136673D01*
X66345Y136853D01*
X66332Y136918D01*
X66326Y136985D01*
X66283Y137160D01*
X66247Y137337D01*
X66224Y137399D01*
X66208Y137463D01*
X66136Y137629D01*
X66073Y137798D01*
X66039Y137856D01*
X66013Y137917D01*
X65916Y138069D01*
X65826Y138225D01*
X65784Y138277D01*
X65748Y138333D01*
X65628Y138467D01*
X65513Y138607D01*
X65464Y138651D01*
X65419Y138701D01*
X65279Y138814D01*
X65144Y138933D01*
X65087Y138969D01*
X65035Y139011D01*
X64879Y139100D01*
X64726Y139196D01*
X64664Y139222D01*
X64607Y139255D01*
X64437Y139317D01*
X64271Y139387D01*
X64207Y139403D01*
X64144Y139426D01*
X63967Y139461D01*
X63792Y139503D01*
X63725Y139508D01*
X63660Y139521D01*
X63480Y139526D01*
X63300Y139540D01*
X63233Y139534D01*
X63167Y139536D01*
X62988Y139513D01*
X62808Y139497D01*
X62758Y139482D01*
X62678Y139472D01*
X62206Y139329D01*
X62175Y139315D01*
X62153Y139308D01*
X61021Y138839D01*
X35688Y138839D01*
X35612Y138833D01*
X35536Y138835D01*
X35367Y138813D01*
X35196Y138799D01*
X35122Y138781D01*
X35047Y138771D01*
X34883Y138722D01*
X34717Y138681D01*
X34648Y138651D01*
X34574Y138629D01*
X34421Y138553D01*
X34264Y138486D01*
X34200Y138445D01*
X34131Y138412D01*
X33992Y138313D01*
X33848Y138221D01*
X33791Y138170D01*
X33729Y138126D01*
X33608Y138006D01*
X33480Y137892D01*
X33432Y137833D01*
X33378Y137779D01*
X33277Y137641D01*
X33170Y137508D01*
X33133Y137442D01*
X33088Y137381D01*
X33011Y137228D01*
X32926Y137080D01*
X32900Y137008D01*
X32865Y136940D01*
X32814Y136777D01*
X32755Y136617D01*
X32740Y136542D01*
X32717Y136470D01*
X32705Y136365D01*
X32660Y136133D01*
X32653Y135897D01*
X32641Y135792D01*
X32641Y111438D01*
X32647Y111362D01*
X32645Y111286D01*
X32667Y111117D01*
X32681Y110947D01*
X32699Y110873D01*
X32709Y110797D01*
X32758Y110634D01*
X32799Y110468D01*
X32829Y110398D01*
X32851Y110325D01*
X32927Y110171D01*
X32994Y110014D01*
X33035Y109950D01*
X33068Y109882D01*
X33167Y109742D01*
X33259Y109598D01*
X33310Y109542D01*
X33354Y109479D01*
X33474Y109358D01*
X33588Y109231D01*
X33647Y109183D01*
X33701Y109128D01*
X33839Y109028D01*
X33972Y108921D01*
X34038Y108883D01*
X34099Y108838D01*
X34252Y108761D01*
X34400Y108677D01*
X34472Y108650D01*
X34540Y108616D01*
X34703Y108564D01*
X34863Y108505D01*
X34938Y108490D01*
X35010Y108467D01*
X35115Y108456D01*
X35347Y108410D01*
X35583Y108403D01*
X35688Y108391D01*
X60976Y108391D01*
X62153Y107903D01*
X62325Y107848D01*
X62494Y107785D01*
X62559Y107773D01*
X62622Y107752D01*
X62801Y107725D01*
X62978Y107691D01*
X63044Y107689D01*
X63110Y107679D01*
X63291Y107681D01*
X63471Y107675D01*
X63537Y107684D01*
X63604Y107685D01*
X63781Y107716D01*
X63960Y107740D01*
X64024Y107759D01*
X64089Y107770D01*
X64260Y107830D01*
X64433Y107882D01*
X64492Y107911D01*
X64555Y107933D01*
X64713Y108020D01*
X64876Y108099D01*
X64930Y108138D01*
X64988Y108169D01*
X65131Y108280D01*
X65278Y108385D01*
X65325Y108431D01*
X65378Y108472D01*
X65500Y108604D01*
X65629Y108731D01*
X65668Y108785D01*
X65713Y108834D01*
X65813Y108984D01*
X65919Y109130D01*
X65949Y109189D01*
X65986Y109245D01*
X66060Y109410D01*
X66142Y109570D01*
X66162Y109634D01*
X66189Y109694D01*
X66236Y109869D01*
X66290Y110041D01*
X66296Y110094D01*
X66317Y110171D01*
X66366Y110662D01*
X66364Y110695D01*
X66366Y110719D01*
X66366Y120007D01*
X79408Y120007D01*
X79408Y106966D01*
X70895Y106966D01*
X70714Y106951D01*
X70534Y106944D01*
X70469Y106931D01*
X70403Y106926D01*
X70227Y106882D01*
X70051Y106847D01*
X69989Y106823D01*
X69924Y106807D01*
X69758Y106736D01*
X69589Y106672D01*
X69532Y106639D01*
X69471Y106613D01*
X69318Y106516D01*
X69162Y106425D01*
X69111Y106383D01*
X69055Y106348D01*
X68920Y106227D01*
X68780Y106113D01*
X68736Y106063D01*
X68687Y106019D01*
X68573Y105879D01*
X68454Y105743D01*
X68418Y105687D01*
X68377Y105635D01*
X68288Y105478D01*
X68191Y105325D01*
X68166Y105264D01*
X68133Y105206D01*
X68070Y105037D01*
X68000Y104871D01*
X67984Y104806D01*
X67961Y104744D01*
X67926Y104567D01*
X67884Y104391D01*
X67879Y104325D01*
X67866Y104260D01*
X67861Y104080D01*
X67847Y103899D01*
X67853Y103833D01*
X67851Y103766D01*
X67875Y103588D01*
X67890Y103408D01*
X67905Y103357D01*
X67915Y103277D01*
X68058Y102805D01*
X68073Y102775D01*
X68079Y102752D01*
X69115Y100251D01*
X69115Y71964D01*
X69121Y71888D01*
X69119Y71812D01*
X69141Y71643D01*
X69155Y71472D01*
X69173Y71398D01*
X69183Y71323D01*
X69233Y71159D01*
X69274Y70993D01*
X69304Y70923D01*
X69326Y70850D01*
X69401Y70697D01*
X69468Y70540D01*
X69509Y70476D01*
X69543Y70407D01*
X69642Y70268D01*
X69733Y70124D01*
X69784Y70067D01*
X69828Y70005D01*
X69948Y69883D01*
X70062Y69756D01*
X70121Y69708D01*
X70175Y69654D01*
X70313Y69553D01*
X70446Y69446D01*
X70512Y69408D01*
X70574Y69364D01*
X70726Y69287D01*
X70875Y69202D01*
X70946Y69176D01*
X71014Y69141D01*
X71177Y69090D01*
X71337Y69031D01*
X71412Y69016D01*
X71485Y68993D01*
X71590Y68981D01*
X71821Y68936D01*
X72058Y68928D01*
X72162Y68917D01*
X89206Y68917D01*
X89320Y68926D01*
G37*
G36*
X444221Y132459D02*
X444221Y132459D01*
X444335Y132458D01*
X444466Y132478D01*
X444599Y132489D01*
X444710Y132517D01*
X444822Y132534D01*
X444949Y132576D01*
X445078Y132608D01*
X445182Y132653D01*
X445291Y132689D01*
X445409Y132750D01*
X445531Y132802D01*
X445627Y132864D01*
X445729Y132917D01*
X445802Y132975D01*
X445947Y133068D01*
X446189Y133284D01*
X446262Y133342D01*
X461099Y148179D01*
X461173Y148266D01*
X461254Y148346D01*
X461332Y148453D01*
X461418Y148555D01*
X461477Y148653D01*
X461544Y148745D01*
X461604Y148863D01*
X461673Y148977D01*
X461715Y149083D01*
X461767Y149185D01*
X461807Y149312D01*
X461856Y149435D01*
X461881Y149547D01*
X461915Y149656D01*
X461925Y149749D01*
X461963Y149917D01*
X461981Y150241D01*
X461991Y150333D01*
X461991Y196516D01*
X464002Y201370D01*
X474895Y212264D01*
X474969Y212351D01*
X475051Y212431D01*
X475129Y212538D01*
X475215Y212640D01*
X475274Y212738D01*
X475341Y212830D01*
X475401Y212948D01*
X475470Y213062D01*
X475512Y213168D01*
X475563Y213270D01*
X475603Y213397D01*
X475653Y213520D01*
X475677Y213632D01*
X475712Y213741D01*
X475722Y213834D01*
X475759Y214002D01*
X475778Y214326D01*
X475788Y214418D01*
X475788Y215458D01*
X477096Y218615D01*
X477151Y218786D01*
X477214Y218956D01*
X477227Y219021D01*
X477247Y219084D01*
X477274Y219263D01*
X477308Y219440D01*
X477310Y219506D01*
X477320Y219572D01*
X477318Y219753D01*
X477324Y219933D01*
X477315Y219999D01*
X477314Y220065D01*
X477283Y220243D01*
X477259Y220422D01*
X477240Y220486D01*
X477229Y220551D01*
X477169Y220721D01*
X477117Y220894D01*
X477088Y220954D01*
X477066Y221017D01*
X476979Y221175D01*
X476900Y221338D01*
X476861Y221392D01*
X476830Y221450D01*
X476719Y221593D01*
X476614Y221740D01*
X476568Y221787D01*
X476527Y221840D01*
X476395Y221963D01*
X476268Y222091D01*
X476214Y222130D01*
X476165Y222175D01*
X476015Y222275D01*
X475869Y222381D01*
X475810Y222411D01*
X475754Y222448D01*
X475590Y222522D01*
X475429Y222604D01*
X475365Y222624D01*
X475305Y222651D01*
X475131Y222698D01*
X474958Y222752D01*
X474906Y222758D01*
X474828Y222779D01*
X474337Y222828D01*
X474304Y222826D01*
X474280Y222828D01*
X461960Y222828D01*
X461846Y222819D01*
X461732Y222820D01*
X461600Y222799D01*
X461468Y222788D01*
X461357Y222761D01*
X461244Y222743D01*
X461118Y222701D01*
X460989Y222670D01*
X460884Y222625D01*
X460776Y222589D01*
X460658Y222527D01*
X460536Y222475D01*
X460440Y222414D01*
X460338Y222361D01*
X460265Y222302D01*
X460120Y222210D01*
X459878Y221994D01*
X459805Y221936D01*
X457956Y220086D01*
X454221Y218539D01*
X440179Y218539D01*
X436444Y220086D01*
X436432Y220099D01*
X436345Y220173D01*
X436265Y220254D01*
X436157Y220332D01*
X436056Y220418D01*
X435958Y220477D01*
X435866Y220544D01*
X435747Y220604D01*
X435633Y220673D01*
X435527Y220715D01*
X435425Y220767D01*
X435299Y220807D01*
X435175Y220856D01*
X435064Y220881D01*
X434955Y220915D01*
X434861Y220925D01*
X434694Y220963D01*
X434369Y220981D01*
X434277Y220991D01*
X427873Y220991D01*
X423018Y223002D01*
X411541Y234479D01*
X411454Y234552D01*
X411374Y234634D01*
X411267Y234712D01*
X411166Y234798D01*
X411068Y234857D01*
X410975Y234924D01*
X410857Y234984D01*
X410743Y235053D01*
X410637Y235095D01*
X410535Y235146D01*
X410408Y235186D01*
X410285Y235236D01*
X410174Y235260D01*
X410064Y235295D01*
X409971Y235305D01*
X409803Y235342D01*
X409479Y235361D01*
X409387Y235371D01*
X401313Y235371D01*
X401200Y235362D01*
X401085Y235363D01*
X400954Y235342D01*
X400822Y235331D01*
X400711Y235304D01*
X400598Y235286D01*
X400472Y235244D01*
X400343Y235212D01*
X400238Y235167D01*
X400129Y235132D01*
X400011Y235070D01*
X399889Y235018D01*
X399793Y234957D01*
X399692Y234904D01*
X399618Y234845D01*
X399473Y234753D01*
X399231Y234536D01*
X399159Y234479D01*
X391801Y227121D01*
X391727Y227034D01*
X391646Y226954D01*
X391568Y226847D01*
X391482Y226745D01*
X391423Y226647D01*
X391356Y226555D01*
X391296Y226437D01*
X391227Y226323D01*
X391185Y226217D01*
X391133Y226115D01*
X391093Y225988D01*
X391044Y225865D01*
X391019Y225753D01*
X390985Y225644D01*
X390975Y225551D01*
X390937Y225383D01*
X390919Y225059D01*
X390909Y224967D01*
X390909Y174433D01*
X390918Y174320D01*
X390917Y174205D01*
X390938Y174074D01*
X390949Y173942D01*
X390976Y173831D01*
X390994Y173718D01*
X391035Y173592D01*
X391067Y173463D01*
X391112Y173358D01*
X391148Y173250D01*
X391210Y173132D01*
X391262Y173010D01*
X391323Y172913D01*
X391376Y172812D01*
X391435Y172738D01*
X391527Y172593D01*
X391743Y172351D01*
X391801Y172279D01*
X394095Y169985D01*
X394182Y169911D01*
X394262Y169830D01*
X394369Y169752D01*
X394471Y169666D01*
X394569Y169607D01*
X394661Y169540D01*
X394779Y169480D01*
X394893Y169411D01*
X394999Y169369D01*
X395101Y169317D01*
X395228Y169277D01*
X395351Y169228D01*
X395463Y169203D01*
X395572Y169169D01*
X395665Y169159D01*
X395833Y169121D01*
X396157Y169103D01*
X396249Y169093D01*
X398553Y169093D01*
X402288Y167546D01*
X405146Y164688D01*
X406693Y160953D01*
X406693Y146847D01*
X405120Y143049D01*
X405011Y142921D01*
X404971Y142855D01*
X404925Y142795D01*
X404844Y142644D01*
X404756Y142498D01*
X404728Y142427D01*
X404691Y142360D01*
X404636Y142199D01*
X404573Y142040D01*
X404556Y141965D01*
X404531Y141893D01*
X404503Y141725D01*
X404466Y141558D01*
X404462Y141482D01*
X404449Y141407D01*
X404448Y141236D01*
X404438Y141066D01*
X404446Y140990D01*
X404446Y140914D01*
X404472Y140745D01*
X404490Y140575D01*
X404511Y140502D01*
X404522Y140426D01*
X404576Y140264D01*
X404621Y140100D01*
X404653Y140030D01*
X404677Y139958D01*
X404756Y139806D01*
X404827Y139651D01*
X404869Y139588D01*
X404905Y139520D01*
X404970Y139438D01*
X405102Y139242D01*
X405264Y139069D01*
X405330Y138987D01*
X408400Y135917D01*
X408487Y135843D01*
X408567Y135762D01*
X408674Y135684D01*
X408776Y135598D01*
X408873Y135539D01*
X408966Y135472D01*
X409084Y135412D01*
X409198Y135343D01*
X409304Y135301D01*
X409406Y135249D01*
X409533Y135209D01*
X409656Y135160D01*
X409768Y135135D01*
X409877Y135101D01*
X409970Y135091D01*
X410138Y135053D01*
X410462Y135035D01*
X410554Y135025D01*
X410997Y135025D01*
X411073Y135031D01*
X411149Y135029D01*
X411318Y135051D01*
X411488Y135065D01*
X411562Y135083D01*
X411638Y135093D01*
X411802Y135142D01*
X411967Y135183D01*
X412037Y135213D01*
X412110Y135235D01*
X412264Y135311D01*
X412421Y135378D01*
X412485Y135419D01*
X412553Y135452D01*
X412693Y135551D01*
X412837Y135643D01*
X412893Y135694D01*
X412956Y135738D01*
X413077Y135858D01*
X413205Y135972D01*
X413252Y136031D01*
X413307Y136085D01*
X413407Y136223D01*
X413515Y136356D01*
X413552Y136422D01*
X413597Y136483D01*
X413674Y136636D01*
X413759Y136784D01*
X413785Y136856D01*
X413819Y136924D01*
X413871Y137087D01*
X413930Y137247D01*
X413945Y137322D01*
X413968Y137394D01*
X413979Y137499D01*
X414025Y137731D01*
X414032Y137967D01*
X414044Y138072D01*
X414044Y139538D01*
X422934Y139538D01*
X422935Y139538D01*
X431825Y139538D01*
X431825Y138903D01*
X431442Y138519D01*
X431392Y138461D01*
X431337Y138409D01*
X431233Y138273D01*
X431122Y138143D01*
X431083Y138078D01*
X431036Y138018D01*
X430956Y137867D01*
X430867Y137721D01*
X430839Y137650D01*
X430803Y137583D01*
X430748Y137421D01*
X430684Y137263D01*
X430668Y137188D01*
X430643Y137116D01*
X430615Y136948D01*
X430578Y136781D01*
X430573Y136705D01*
X430561Y136630D01*
X430559Y136459D01*
X430550Y136288D01*
X430558Y136213D01*
X430558Y136136D01*
X430584Y135967D01*
X430602Y135798D01*
X430622Y135725D01*
X430634Y135649D01*
X430688Y135487D01*
X430733Y135322D01*
X430765Y135253D01*
X430788Y135181D01*
X430867Y135029D01*
X430939Y134874D01*
X430981Y134810D01*
X431016Y134743D01*
X431082Y134661D01*
X431214Y134464D01*
X431376Y134292D01*
X431442Y134210D01*
X432310Y133342D01*
X432397Y133268D01*
X432477Y133187D01*
X432584Y133108D01*
X432685Y133022D01*
X432783Y132963D01*
X432876Y132896D01*
X432994Y132836D01*
X433108Y132768D01*
X433214Y132725D01*
X433316Y132674D01*
X433443Y132634D01*
X433566Y132585D01*
X433678Y132560D01*
X433786Y132526D01*
X433880Y132515D01*
X434048Y132478D01*
X434372Y132460D01*
X434464Y132449D01*
X444107Y132449D01*
X444221Y132459D01*
G37*
G36*
X298180Y331118D02*
X298180Y331118D01*
X298295Y331117D01*
X298426Y331138D01*
X298558Y331149D01*
X298669Y331176D01*
X298782Y331194D01*
X298908Y331235D01*
X299037Y331267D01*
X299142Y331312D01*
X299250Y331348D01*
X299368Y331410D01*
X299490Y331462D01*
X299587Y331523D01*
X299688Y331576D01*
X299762Y331635D01*
X299907Y331727D01*
X300149Y331943D01*
X300221Y332001D01*
X331818Y363598D01*
X336673Y365609D01*
X347755Y365609D01*
X347793Y365612D01*
X347832Y365610D01*
X348039Y365632D01*
X348246Y365649D01*
X348284Y365658D01*
X348323Y365662D01*
X348523Y365717D01*
X348725Y365767D01*
X348761Y365783D01*
X348798Y365793D01*
X348987Y365880D01*
X349179Y365962D01*
X349211Y365983D01*
X349246Y365999D01*
X349419Y366115D01*
X349595Y366227D01*
X349623Y366253D01*
X349656Y366274D01*
X349807Y366417D01*
X349962Y366556D01*
X349987Y366586D01*
X350015Y366612D01*
X350142Y366778D01*
X350272Y366940D01*
X350292Y366973D01*
X350315Y367004D01*
X350413Y367187D01*
X350516Y367368D01*
X350530Y367405D01*
X350548Y367439D01*
X350616Y367636D01*
X350688Y367831D01*
X350695Y367869D01*
X350708Y367906D01*
X350743Y368111D01*
X350783Y368315D01*
X350784Y368354D01*
X350790Y368392D01*
X350792Y368600D01*
X350798Y368808D01*
X350793Y368847D01*
X350793Y368885D01*
X350761Y369091D01*
X350734Y369297D01*
X350722Y369334D01*
X350716Y369373D01*
X350651Y369570D01*
X350591Y369769D01*
X350574Y369804D01*
X350562Y369841D01*
X350466Y370025D01*
X350374Y370213D01*
X350352Y370244D01*
X350334Y370279D01*
X350275Y370352D01*
X350089Y370615D01*
X349967Y370738D01*
X349908Y370812D01*
X349873Y370847D01*
X349872Y370848D01*
X343002Y377718D01*
X340991Y382573D01*
X340991Y403367D01*
X340982Y403480D01*
X340983Y403595D01*
X340962Y403726D01*
X340951Y403858D01*
X340924Y403969D01*
X340906Y404082D01*
X340865Y404208D01*
X340833Y404337D01*
X340788Y404442D01*
X340752Y404550D01*
X340690Y404668D01*
X340638Y404790D01*
X340577Y404887D01*
X340524Y404988D01*
X340465Y405062D01*
X340373Y405207D01*
X340157Y405449D01*
X340099Y405521D01*
X337321Y408299D01*
X337234Y408373D01*
X337154Y408454D01*
X337047Y408532D01*
X336945Y408618D01*
X336847Y408677D01*
X336755Y408744D01*
X336637Y408804D01*
X336523Y408873D01*
X336417Y408915D01*
X336315Y408967D01*
X336188Y409007D01*
X336065Y409056D01*
X335953Y409081D01*
X335844Y409115D01*
X335751Y409125D01*
X335583Y409163D01*
X335259Y409181D01*
X335167Y409191D01*
X321933Y409191D01*
X321820Y409182D01*
X321705Y409183D01*
X321574Y409162D01*
X321442Y409151D01*
X321331Y409124D01*
X321218Y409106D01*
X321092Y409065D01*
X320963Y409033D01*
X320858Y408988D01*
X320749Y408952D01*
X320632Y408891D01*
X320510Y408838D01*
X320413Y408777D01*
X320312Y408724D01*
X320238Y408665D01*
X320093Y408573D01*
X319851Y408357D01*
X319779Y408299D01*
X318801Y407321D01*
X318727Y407234D01*
X318646Y407154D01*
X318568Y407047D01*
X318482Y406945D01*
X318423Y406848D01*
X318356Y406755D01*
X318296Y406636D01*
X318227Y406523D01*
X318185Y406417D01*
X318133Y406315D01*
X318093Y406188D01*
X318044Y406065D01*
X318019Y405953D01*
X317985Y405844D01*
X317975Y405751D01*
X317937Y405583D01*
X317919Y405259D01*
X317909Y405167D01*
X317909Y382973D01*
X315898Y378118D01*
X296583Y358803D01*
X291687Y356775D01*
X291609Y356763D01*
X291476Y356752D01*
X291365Y356724D01*
X291253Y356707D01*
X291126Y356665D01*
X290998Y356633D01*
X290893Y356588D01*
X290784Y356552D01*
X290666Y356491D01*
X290544Y356439D01*
X290448Y356377D01*
X290346Y356325D01*
X290273Y356266D01*
X290128Y356174D01*
X289886Y355957D01*
X289813Y355899D01*
X289801Y355887D01*
X286066Y354340D01*
X272024Y354340D01*
X271711Y354469D01*
X271603Y354504D01*
X271497Y354549D01*
X271368Y354580D01*
X271242Y354621D01*
X271129Y354638D01*
X271018Y354665D01*
X270885Y354674D01*
X270754Y354694D01*
X270640Y354693D01*
X270526Y354701D01*
X270393Y354690D01*
X270261Y354688D01*
X270148Y354668D01*
X270034Y354658D01*
X269944Y354632D01*
X269775Y354602D01*
X269468Y354495D01*
X269379Y354469D01*
X269066Y354340D01*
X255024Y354340D01*
X251554Y355777D01*
X251383Y355832D01*
X251213Y355895D01*
X251148Y355908D01*
X251085Y355928D01*
X250906Y355955D01*
X250729Y355990D01*
X250663Y355992D01*
X250597Y356002D01*
X250416Y356000D01*
X250236Y356005D01*
X250170Y355997D01*
X250103Y355996D01*
X249926Y355965D01*
X249747Y355941D01*
X249683Y355922D01*
X249618Y355910D01*
X249447Y355851D01*
X249274Y355798D01*
X249215Y355769D01*
X249152Y355747D01*
X248994Y355661D01*
X248831Y355582D01*
X248777Y355543D01*
X248719Y355511D01*
X248576Y355401D01*
X248429Y355296D01*
X248382Y355249D01*
X248329Y355209D01*
X248206Y355076D01*
X248078Y354949D01*
X248039Y354896D01*
X247994Y354847D01*
X247894Y354696D01*
X247859Y354649D01*
X237002Y354649D01*
X236926Y354643D01*
X236850Y354645D01*
X236681Y354623D01*
X236510Y354609D01*
X236437Y354591D01*
X236361Y354581D01*
X236197Y354532D01*
X236032Y354491D01*
X235962Y354461D01*
X235889Y354439D01*
X235802Y354396D01*
X235746Y354425D01*
X235583Y354476D01*
X235423Y354535D01*
X235348Y354550D01*
X235276Y354573D01*
X235171Y354585D01*
X234939Y354630D01*
X234703Y354637D01*
X234598Y354649D01*
X224259Y354649D01*
X224259Y356728D01*
X224242Y356946D01*
X224228Y357164D01*
X224222Y357192D01*
X224219Y357220D01*
X224167Y357432D01*
X224118Y357645D01*
X224107Y357671D01*
X224101Y357699D01*
X224014Y357900D01*
X223932Y358102D01*
X223917Y358126D01*
X223906Y358152D01*
X223789Y358337D01*
X223675Y358523D01*
X223656Y358545D01*
X223641Y358568D01*
X223496Y358731D01*
X223353Y358897D01*
X223331Y358915D01*
X223312Y358936D01*
X223143Y359073D01*
X222975Y359214D01*
X222954Y359225D01*
X222928Y359246D01*
X222500Y359490D01*
X222424Y359518D01*
X222378Y359544D01*
X220344Y360386D01*
X219163Y361568D01*
X219134Y361593D01*
X219108Y361621D01*
X218946Y361752D01*
X218787Y361887D01*
X218754Y361907D01*
X218724Y361931D01*
X218543Y362034D01*
X218364Y362142D01*
X218329Y362156D01*
X218296Y362175D01*
X218100Y362248D01*
X217906Y362325D01*
X217869Y362333D01*
X217833Y362347D01*
X217629Y362387D01*
X217425Y362432D01*
X217386Y362434D01*
X217349Y362441D01*
X217141Y362448D01*
X216932Y362459D01*
X216894Y362455D01*
X216856Y362457D01*
X216650Y362429D01*
X216441Y362407D01*
X216405Y362397D01*
X216367Y362392D01*
X216167Y362332D01*
X215966Y362277D01*
X215931Y362261D01*
X215894Y362250D01*
X215707Y362158D01*
X215517Y362071D01*
X215486Y362050D01*
X215451Y362033D01*
X215281Y361912D01*
X215108Y361795D01*
X215080Y361769D01*
X215049Y361747D01*
X214901Y361601D01*
X214748Y361458D01*
X214725Y361427D01*
X214698Y361401D01*
X214575Y361232D01*
X214448Y361066D01*
X214430Y361033D01*
X214408Y361002D01*
X214314Y360815D01*
X214215Y360631D01*
X214203Y360595D01*
X214185Y360561D01*
X214122Y360362D01*
X214055Y360165D01*
X214049Y360127D01*
X214037Y360091D01*
X214027Y359998D01*
X213972Y359678D01*
X213971Y359506D01*
X213961Y359413D01*
X213961Y339879D01*
X212390Y336087D01*
X212261Y335935D01*
X212241Y335902D01*
X212217Y335872D01*
X212114Y335691D01*
X212006Y335512D01*
X211992Y335477D01*
X211973Y335444D01*
X211901Y335248D01*
X211823Y335054D01*
X211815Y335017D01*
X211801Y334981D01*
X211762Y334777D01*
X211716Y334573D01*
X211714Y334534D01*
X211707Y334497D01*
X211700Y334289D01*
X211689Y334080D01*
X211693Y334042D01*
X211691Y334004D01*
X211719Y333797D01*
X211741Y333590D01*
X211751Y333553D01*
X211756Y333515D01*
X211816Y333315D01*
X211871Y333114D01*
X211887Y333079D01*
X211898Y333042D01*
X211990Y332856D01*
X212077Y332665D01*
X212099Y332634D01*
X212115Y332599D01*
X212236Y332430D01*
X212352Y332256D01*
X212379Y332228D01*
X212401Y332197D01*
X212547Y332049D01*
X212690Y331897D01*
X212721Y331873D01*
X212747Y331846D01*
X212916Y331723D01*
X213082Y331596D01*
X213115Y331578D01*
X213146Y331556D01*
X213333Y331462D01*
X213516Y331363D01*
X213552Y331351D01*
X213587Y331333D01*
X213786Y331271D01*
X213983Y331203D01*
X214021Y331197D01*
X214057Y331185D01*
X214150Y331175D01*
X214469Y331120D01*
X214641Y331119D01*
X214735Y331109D01*
X298067Y331109D01*
X298180Y331118D01*
G37*
%LPC*%
G36*
X588902Y38028D02*
X588902Y38028D01*
X579230Y47700D01*
X579230Y61378D01*
X588902Y71050D01*
X602580Y71050D01*
X610583Y63046D01*
X610642Y62996D01*
X610694Y62941D01*
X610829Y62837D01*
X610959Y62726D01*
X611025Y62687D01*
X611085Y62641D01*
X611236Y62560D01*
X611382Y62472D01*
X611453Y62443D01*
X611520Y62407D01*
X611682Y62352D01*
X611840Y62289D01*
X611914Y62272D01*
X611986Y62247D01*
X612155Y62219D01*
X612322Y62182D01*
X612398Y62178D01*
X612473Y62165D01*
X612644Y62164D01*
X612814Y62154D01*
X612890Y62162D01*
X612966Y62162D01*
X613135Y62188D01*
X613305Y62206D01*
X613378Y62227D01*
X613454Y62238D01*
X613616Y62292D01*
X613781Y62337D01*
X613850Y62369D01*
X613922Y62393D01*
X614074Y62471D01*
X614229Y62543D01*
X614292Y62585D01*
X614360Y62620D01*
X614442Y62686D01*
X614638Y62818D01*
X614811Y62980D01*
X614893Y63046D01*
X615403Y63556D01*
X616038Y63556D01*
X616038Y54666D01*
X616038Y54665D01*
X616038Y45775D01*
X615403Y45775D01*
X615019Y46158D01*
X614961Y46208D01*
X614909Y46263D01*
X614773Y46367D01*
X614643Y46478D01*
X614578Y46517D01*
X614518Y46564D01*
X614367Y46644D01*
X614221Y46733D01*
X614150Y46761D01*
X614083Y46797D01*
X613921Y46852D01*
X613763Y46916D01*
X613688Y46932D01*
X613616Y46957D01*
X613448Y46985D01*
X613281Y47022D01*
X613205Y47027D01*
X613130Y47039D01*
X612959Y47041D01*
X612788Y47050D01*
X612713Y47042D01*
X612636Y47042D01*
X612467Y47016D01*
X612298Y46998D01*
X612225Y46978D01*
X612149Y46966D01*
X611987Y46912D01*
X611822Y46867D01*
X611753Y46835D01*
X611681Y46812D01*
X611529Y46733D01*
X611374Y46661D01*
X611311Y46619D01*
X611243Y46584D01*
X611161Y46518D01*
X610964Y46386D01*
X610792Y46224D01*
X610710Y46158D01*
X602580Y38028D01*
X588902Y38028D01*
G37*
%LPD*%
%LPC*%
G36*
X88406Y129006D02*
X88406Y129006D01*
X88406Y142047D01*
X99242Y142047D01*
X99888Y141874D01*
X100467Y141540D01*
X100940Y141067D01*
X101275Y140487D01*
X101448Y139841D01*
X101448Y129006D01*
X88406Y129006D01*
G37*
%LPD*%
%LPC*%
G36*
X88406Y106966D02*
X88406Y106966D01*
X88406Y120007D01*
X101448Y120007D01*
X101448Y109172D01*
X101275Y108526D01*
X100940Y107946D01*
X100467Y107473D01*
X99888Y107139D01*
X99242Y106966D01*
X88406Y106966D01*
G37*
%LPD*%
%LPC*%
G36*
X242947Y57937D02*
X242947Y57937D01*
X242947Y72203D01*
X243800Y71926D01*
X245225Y71200D01*
X246519Y70260D01*
X247650Y69129D01*
X248590Y67835D01*
X249316Y66410D01*
X249811Y64889D01*
X250061Y63310D01*
X250061Y57937D01*
X242947Y57937D01*
G37*
%LPD*%
G36*
X152342Y332862D02*
X152342Y332862D01*
X152453Y332861D01*
X152587Y332881D01*
X152724Y332893D01*
X152831Y332919D01*
X152940Y332936D01*
X153070Y332978D01*
X153202Y333011D01*
X153304Y333055D01*
X153409Y333089D01*
X153530Y333152D01*
X153656Y333206D01*
X153749Y333265D01*
X153847Y333316D01*
X153957Y333398D01*
X154072Y333471D01*
X154154Y333545D01*
X154243Y333611D01*
X154338Y333709D01*
X154440Y333800D01*
X154509Y333886D01*
X154586Y333965D01*
X154664Y334077D01*
X154750Y334183D01*
X154804Y334279D01*
X154867Y334370D01*
X154926Y334494D01*
X154994Y334612D01*
X155032Y334716D01*
X155080Y334816D01*
X155118Y334947D01*
X155165Y335075D01*
X155186Y335183D01*
X155217Y335289D01*
X155234Y335425D01*
X155260Y335559D01*
X155263Y335669D01*
X155277Y335779D01*
X155271Y335916D01*
X155275Y336052D01*
X155261Y336161D01*
X155256Y336272D01*
X155229Y336406D01*
X155211Y336541D01*
X155179Y336647D01*
X155157Y336755D01*
X155108Y336883D01*
X155068Y337013D01*
X155020Y337113D01*
X154980Y337216D01*
X154911Y337334D01*
X154851Y337456D01*
X154787Y337547D01*
X154732Y337642D01*
X154669Y337714D01*
X154566Y337859D01*
X154345Y338082D01*
X154282Y338155D01*
X154281Y338155D01*
X154248Y338180D01*
X154219Y338210D01*
X154053Y338331D01*
X153891Y338456D01*
X153854Y338476D01*
X153820Y338500D01*
X153637Y338593D01*
X153456Y338690D01*
X153417Y338704D01*
X153380Y338723D01*
X153184Y338784D01*
X152990Y338851D01*
X152949Y338859D01*
X152909Y338871D01*
X152814Y338882D01*
X152504Y338935D01*
X152326Y338937D01*
X152231Y338947D01*
X148500Y338947D01*
X148424Y338941D01*
X148348Y338944D01*
X148179Y338921D01*
X148009Y338907D01*
X147935Y338889D01*
X147859Y338879D01*
X147695Y338830D01*
X147530Y338789D01*
X147460Y338759D01*
X147387Y338737D01*
X147233Y338662D01*
X147076Y338594D01*
X147012Y338553D01*
X146944Y338520D01*
X146804Y338421D01*
X146660Y338329D01*
X146604Y338278D01*
X146541Y338234D01*
X146420Y338114D01*
X146292Y338000D01*
X146245Y337941D01*
X146190Y337888D01*
X146090Y337749D01*
X145983Y337617D01*
X145945Y337550D01*
X145900Y337489D01*
X145823Y337336D01*
X145739Y337188D01*
X145712Y337116D01*
X145678Y337048D01*
X145626Y336886D01*
X145567Y336725D01*
X145552Y336651D01*
X145529Y336578D01*
X145518Y336473D01*
X145472Y336241D01*
X145465Y336005D01*
X145453Y335900D01*
X145459Y335824D01*
X145457Y335748D01*
X145479Y335578D01*
X145493Y335408D01*
X145511Y335334D01*
X145521Y335259D01*
X145571Y335095D01*
X145612Y334929D01*
X145642Y334859D01*
X145664Y334786D01*
X145739Y334633D01*
X145806Y334476D01*
X145847Y334412D01*
X145881Y334343D01*
X145980Y334204D01*
X146071Y334060D01*
X146122Y334003D01*
X146166Y333941D01*
X146286Y333819D01*
X146400Y333692D01*
X146459Y333644D01*
X146513Y333590D01*
X146651Y333489D01*
X146784Y333382D01*
X146850Y333344D01*
X146912Y333299D01*
X147064Y333223D01*
X147213Y333138D01*
X147284Y333111D01*
X147352Y333077D01*
X147515Y333026D01*
X147675Y332966D01*
X147750Y332952D01*
X147823Y332929D01*
X147927Y332917D01*
X148159Y332872D01*
X148395Y332864D01*
X148500Y332853D01*
X152232Y332853D01*
X152342Y332862D01*
G37*
%LPC*%
G36*
X159949Y155949D02*
X159949Y155949D01*
X159949Y163241D01*
X164535Y163241D01*
X165181Y163068D01*
X165760Y162733D01*
X166233Y162260D01*
X166568Y161681D01*
X166741Y161035D01*
X166741Y155949D01*
X159949Y155949D01*
G37*
%LPD*%
%LPC*%
G36*
X159949Y147451D02*
X159949Y147451D01*
X166741Y147451D01*
X166741Y142365D01*
X166568Y141719D01*
X166233Y141140D01*
X165760Y140667D01*
X165181Y140332D01*
X164535Y140159D01*
X159949Y140159D01*
X159949Y147451D01*
G37*
%LPD*%
%LPC*%
G36*
X240049Y339359D02*
X240049Y339359D01*
X240049Y346151D01*
X247341Y346151D01*
X247341Y341565D01*
X247168Y340919D01*
X246833Y340340D01*
X246360Y339867D01*
X245781Y339532D01*
X245135Y339359D01*
X240049Y339359D01*
G37*
%LPD*%
%LPC*%
G36*
X226465Y339359D02*
X226465Y339359D01*
X225819Y339532D01*
X225240Y339867D01*
X224767Y340340D01*
X224432Y340919D01*
X224259Y341565D01*
X224259Y346151D01*
X231551Y346151D01*
X231551Y339359D01*
X226465Y339359D01*
G37*
%LPD*%
%LPC*%
G36*
X154047Y92447D02*
X154047Y92447D01*
X154047Y100323D01*
X155524Y100323D01*
X161923Y93924D01*
X161923Y92447D01*
X154047Y92447D01*
G37*
%LPD*%
%LPC*%
G36*
X140077Y92447D02*
X140077Y92447D01*
X140077Y93924D01*
X146476Y100323D01*
X147953Y100323D01*
X147953Y92447D01*
X140077Y92447D01*
G37*
%LPD*%
%LPC*%
G36*
X425982Y145633D02*
X425982Y145633D01*
X425982Y151477D01*
X426617Y151477D01*
X431825Y146269D01*
X431825Y145633D01*
X425982Y145633D01*
G37*
%LPD*%
%LPC*%
G36*
X622133Y57713D02*
X622133Y57713D01*
X622133Y63556D01*
X622769Y63556D01*
X627977Y58348D01*
X627977Y57713D01*
X622133Y57713D01*
G37*
%LPD*%
%LPC*%
G36*
X414044Y145633D02*
X414044Y145633D01*
X414044Y146269D01*
X419252Y151477D01*
X419887Y151477D01*
X419887Y145633D01*
X414044Y145633D01*
G37*
%LPD*%
%LPC*%
G36*
X622133Y45775D02*
X622133Y45775D01*
X622133Y51618D01*
X627977Y51618D01*
X627977Y50983D01*
X622769Y45775D01*
X622133Y45775D01*
G37*
%LPD*%
D10*
X6000Y451700D02*
X5600Y1600D01*
X670900Y1700D02*
X671773Y452055D01*
X671700Y452000D02*
X6100Y451700D01*
X5200Y900D02*
X670800Y1200D01*
D11*
X595741Y54539D03*
D12*
X619086Y54665D03*
D13*
X118000Y60866D03*
X159000Y60866D03*
D14*
X491949Y210637D03*
X491949Y223337D03*
X491949Y236037D03*
X491949Y248737D03*
X491949Y261437D03*
X491949Y274137D03*
X491949Y286837D03*
X491949Y299537D03*
X556749Y299537D03*
X556749Y286837D03*
X556749Y274137D03*
X556749Y261437D03*
X556749Y248737D03*
X556749Y236037D03*
X556749Y223337D03*
X556749Y210637D03*
D15*
X366512Y335097D03*
X383512Y335097D03*
X621981Y210862D03*
X604981Y210862D03*
X621758Y236112D03*
X604758Y236112D03*
X621736Y261476D03*
X604736Y261476D03*
X604701Y286608D03*
X621701Y286608D03*
X366570Y296704D03*
X383570Y296704D03*
X388254Y251032D03*
X405254Y251032D03*
X262045Y370001D03*
X279045Y370001D03*
D16*
X84044Y366538D03*
X84023Y43756D03*
X83907Y124507D03*
X83955Y204924D03*
X43954Y83230D03*
X43861Y325281D03*
X43875Y244512D03*
D17*
X148500Y335900D03*
X167550Y348600D03*
X148500Y361300D03*
D18*
X205573Y106400D03*
D19*
X227973Y202300D03*
D18*
X345473Y247000D03*
X228973Y268800D03*
X345473Y132900D03*
D19*
X227473Y159900D03*
D20*
X624300Y343300D03*
X624100Y317300D03*
X623900Y419400D03*
X624000Y368700D03*
X624000Y393800D03*
D15*
X447200Y251200D03*
X447200Y234200D03*
X468600Y276400D03*
X468600Y259400D03*
X447000Y304800D03*
X447000Y287800D03*
D13*
X235100Y377500D03*
X194100Y377500D03*
X235800Y350400D03*
X194800Y350400D03*
D16*
X84000Y285700D03*
X44000Y164000D03*
D21*
X126200Y152200D03*
X126200Y193200D03*
D15*
X126200Y221500D03*
X143200Y221500D03*
D22*
X423061Y119241D03*
D23*
X422935Y142586D03*
D21*
X155700Y151700D03*
X155700Y192700D03*
D16*
X44000Y406200D03*
D21*
X115900Y296300D03*
X115900Y337300D03*
D13*
X89300Y409500D03*
X130300Y409500D03*
D24*
X151000Y38600D03*
X151000Y89400D03*
D25*
X239900Y62510D02*
X239900Y47270D01*
X316100Y44730D02*
X316100Y29490D01*
D26*
X149000Y335900D02*
X148500Y335900D01*
X149000Y335900D02*
X154000Y330900D01*
X229300Y330900D01*
X236000Y337600D01*
X236000Y350200D01*
X235800Y350400D01*
X491949Y299537D02*
X523400Y299537D01*
X556749Y299537D01*
X521137Y274137D02*
X491949Y274137D01*
X521137Y274137D02*
X524800Y277800D01*
X525100Y278100D02*
X525100Y297837D01*
X523400Y299537D01*
X519837Y248737D02*
X491949Y248737D01*
X519837Y248737D02*
X523100Y252000D01*
X523100Y252200D01*
X524800Y253900D01*
X524800Y277800D01*
X525100Y278100D01*
X524600Y227400D02*
X520537Y223337D01*
X524600Y227400D02*
X524600Y250500D01*
X523100Y252000D01*
X528663Y223337D02*
X556749Y223337D01*
X528663Y223337D02*
X524600Y227400D01*
X529963Y248737D02*
X556749Y248737D01*
X529963Y248737D02*
X524800Y253900D01*
X529063Y274137D02*
X556749Y274137D01*
X529063Y274137D02*
X525100Y278100D01*
D27*
X452900Y251200D02*
X447200Y251200D01*
X452900Y251200D02*
X456700Y247400D01*
X490612Y247400D01*
X491949Y248737D01*
X491949Y274137D02*
X470863Y274137D01*
X468600Y276400D01*
X486686Y304800D02*
X447000Y304800D01*
X486686Y304800D02*
X491949Y299537D01*
D28*
X325700Y405000D03*
D26*
X325700Y364600D01*
X308100Y347000D01*
X239200Y347000D01*
X235800Y350400D01*
X447000Y306600D02*
X447000Y304800D01*
X148500Y335900D02*
X147300Y334700D01*
D28*
X419600Y220200D03*
D26*
X424300Y364600D02*
X325700Y364600D01*
X424300Y364600D02*
X446900Y342000D01*
X446900Y304900D01*
X447000Y304800D01*
D27*
X443200Y220200D02*
X419600Y220200D01*
X443200Y220200D02*
X475600Y220200D01*
X478100Y222700D01*
X491312Y222700D01*
D26*
X491949Y223337D02*
X520537Y223337D01*
X437286Y142586D02*
X422935Y142586D01*
X437286Y142586D02*
X450500Y155800D01*
X450500Y212900D01*
X443200Y220200D01*
D27*
X491312Y222700D02*
X491949Y223337D01*
X621701Y261511D02*
X621701Y286608D01*
X621701Y261511D02*
X621736Y261476D01*
X621701Y261511D02*
X621701Y236169D01*
X621758Y236112D01*
X621758Y211085D01*
X621981Y210862D01*
X622109Y286200D02*
X621701Y286608D01*
D28*
X630900Y184000D03*
D27*
X621981Y210862D02*
X622419Y211300D01*
D26*
X622419Y192481D01*
X630900Y184000D01*
D27*
X632808Y286608D02*
X621701Y286608D01*
X632808Y286608D02*
X641100Y294900D01*
X641100Y388400D01*
X636600Y392900D01*
X624900Y392900D01*
X624000Y393800D01*
X366512Y335097D02*
X366512Y296762D01*
X366570Y296704D01*
X388254Y253246D02*
X388254Y251032D01*
X388254Y253246D02*
X366300Y275200D01*
X366300Y296433D01*
X366570Y296704D01*
X388254Y251032D02*
X388254Y242254D01*
X377700Y231700D01*
X377700Y167700D01*
X391500Y153900D01*
D28*
X391500Y153900D03*
D26*
X446300Y233300D02*
X447200Y234200D01*
D27*
X449037Y236037D01*
X491949Y236037D01*
X413668Y251032D02*
X405254Y251032D01*
X413668Y251032D02*
X430500Y234200D01*
X447200Y234200D01*
D28*
X403400Y270300D03*
D27*
X403400Y252886D01*
X405254Y251032D01*
X468600Y259400D02*
X470637Y261437D01*
X491949Y261437D01*
X404596Y296704D02*
X383570Y296704D01*
X404596Y296704D02*
X433300Y268000D01*
X452300Y268000D01*
X460800Y259500D01*
X468500Y259500D01*
X468600Y259400D01*
X103712Y244512D02*
X43875Y244512D01*
X103712Y244512D02*
X163000Y303800D01*
X326100Y303800D01*
X336100Y313800D01*
D28*
X336100Y313800D03*
X404400Y314200D03*
D27*
X404400Y296900D01*
X404596Y296704D01*
X447000Y287800D02*
X490986Y287800D01*
X84219Y325281D02*
X43861Y325281D01*
X84219Y325281D02*
X91600Y317900D01*
X383512Y335097D02*
X418104Y335097D01*
X429200Y324000D01*
X429200Y293700D01*
X435600Y287300D01*
X446500Y287300D01*
X447000Y287800D01*
X304800Y317900D02*
X91600Y317900D01*
X304800Y317900D02*
X339300Y352400D01*
X375700Y352400D01*
X382900Y345200D01*
X382900Y335709D01*
X383512Y335097D01*
X490986Y287800D02*
X491949Y286837D01*
X556749Y236037D02*
X580700Y236037D01*
X604684Y236037D01*
X604758Y236112D01*
D28*
X580000Y246900D03*
D27*
X580000Y236737D01*
X580700Y236037D01*
X584000Y261437D02*
X556749Y261437D01*
X584000Y261437D02*
X604697Y261437D01*
X604736Y261476D01*
D28*
X583300Y272800D03*
D27*
X583300Y262137D01*
X584000Y261437D01*
D28*
X399200Y393900D03*
D27*
X399500Y394200D01*
X399500Y400300D01*
X585100Y419400D02*
X623900Y419400D01*
X585100Y419400D02*
X574500Y408800D01*
X399600Y400300D02*
X399500Y400300D01*
X399600Y400300D02*
X408100Y408800D01*
X574500Y408800D01*
D26*
X193000Y348600D02*
X167550Y348600D01*
X193000Y348600D02*
X194800Y350400D01*
X194800Y376800D01*
X194100Y377500D01*
D29*
X130300Y409500D02*
X129700Y410100D01*
X115900Y395100D02*
X115900Y337300D01*
X115900Y395100D02*
X130300Y409500D01*
D30*
X19600Y56700D02*
X32544Y43756D01*
X19600Y56700D02*
X19600Y57800D01*
X17400Y60000D01*
X17400Y427500D01*
X27800Y437900D01*
X119900Y437900D01*
X128700Y429100D01*
X128700Y411100D01*
X130300Y409500D01*
D31*
X151000Y38600D02*
X152600Y36600D01*
X191000Y22000D02*
X300990Y22000D01*
X316100Y37110D01*
D30*
X32544Y43456D02*
X32544Y43756D01*
X32544Y43456D02*
X60000Y16000D01*
X125400Y16000D01*
X151000Y38600D01*
D32*
X184600Y38600D01*
X205573Y59573D02*
X205573Y106400D01*
X205573Y59573D02*
X184600Y38600D01*
D33*
X159000Y46600D02*
X151000Y38600D01*
X159000Y46600D02*
X159000Y60866D01*
D34*
X184600Y28400D02*
X191000Y22000D01*
X184600Y28400D02*
X184600Y38600D01*
D27*
X556749Y286837D02*
X604472Y286837D01*
X604701Y286608D01*
D28*
X598600Y303300D03*
D27*
X598600Y292709D01*
X604701Y286608D01*
D26*
X254546Y377500D02*
X235100Y377500D01*
X254546Y377500D02*
X262045Y370001D01*
D27*
X423061Y119241D02*
X450841Y119241D01*
X475200Y143600D01*
X475200Y193888D01*
X491949Y210637D01*
D26*
X155700Y192700D02*
X155700Y190000D01*
X148100Y221500D02*
X143200Y221500D01*
X148100Y221500D02*
X156800Y212800D01*
X156800Y193800D01*
X155700Y192700D01*
X155700Y190000D02*
X175200Y190000D01*
X212500Y227300D01*
X296900Y227300D01*
X403400Y120800D01*
X421502Y120800D01*
X423061Y119241D01*
X114400Y164000D02*
X44000Y164000D01*
X114400Y164000D02*
X126200Y152200D01*
X126200Y193200D02*
X126200Y221500D01*
D29*
X89300Y409500D02*
X47300Y409500D01*
X44000Y406200D01*
X84000Y285700D02*
X105300Y285700D01*
X115900Y296300D01*
D27*
X568237Y210637D02*
X604755Y210637D01*
X604981Y210862D01*
X568237Y210637D02*
X556749Y210637D01*
X568237Y210637D02*
X580700Y223100D01*
D28*
X580700Y223100D03*
D27*
X289101Y370001D02*
X279045Y370001D01*
X289101Y370001D02*
X304700Y385600D01*
X304700Y411900D01*
X315200Y422400D01*
X341900Y422400D01*
X354200Y410100D01*
X354200Y385200D01*
X361500Y377900D01*
X546400Y377900D01*
X553200Y371100D01*
D28*
X553200Y371100D03*
D32*
X100890Y43756D02*
X84023Y43756D01*
X100890Y43756D02*
X118000Y60866D01*
M02*
