G04 EAGLE Gerber X2 export*
%TF.Part,Single*%
%TF.FileFunction,Other,Solder stop mask SOL*%
%TF.FilePolarity,Positive*%
%TF.GenerationSoftware,Autodesk,EAGLE,9.0.0*%
%TF.CreationDate,2018-07-01T06:55:26Z*%
G75*
%MOMM*%
%FSLAX34Y34*%
%LPD*%
%AMOC8*
5,1,8,0,0,1.08239X$1,22.5*%
G01*
%ADD10C,0.000000*%
%ADD11P,1.594577X8X202.500000*%
%ADD12P,1.594577X8X22.500000*%
%ADD13R,2.003200X1.903200*%
%ADD14R,1.403200X0.763200*%
%ADD15R,1.203200X1.303200*%
%ADD16R,3.203200X3.203200*%
%ADD17P,1.649562X8X292.500000*%
%ADD18P,4.008307X8X22.500000*%
%ADD19P,2.925917X8X22.500000*%
%ADD20R,1.803400X1.803400*%
%ADD21R,1.903200X2.003200*%
%ADD22P,1.594577X8X292.500000*%
%ADD23P,1.594577X8X112.500000*%
%ADD24P,2.034460X8X112.500000*%
%ADD25C,1.727200*%
%ADD26R,1.209600X1.209600*%


D10*
X6000Y451700D02*
X5600Y1600D01*
X670900Y1700D02*
X671773Y452055D01*
X671700Y452000D02*
X6100Y451700D01*
X5200Y900D02*
X670800Y1200D01*
D11*
X595741Y54539D03*
D12*
X619086Y54665D03*
D13*
X118000Y60866D03*
X159000Y60866D03*
D14*
X491949Y210637D03*
X491949Y223337D03*
X491949Y236037D03*
X491949Y248737D03*
X491949Y261437D03*
X491949Y274137D03*
X491949Y286837D03*
X491949Y299537D03*
X556749Y299537D03*
X556749Y286837D03*
X556749Y274137D03*
X556749Y261437D03*
X556749Y248737D03*
X556749Y236037D03*
X556749Y223337D03*
X556749Y210637D03*
D15*
X366512Y335097D03*
X383512Y335097D03*
X621981Y210862D03*
X604981Y210862D03*
X621758Y236112D03*
X604758Y236112D03*
X621736Y261476D03*
X604736Y261476D03*
X604701Y286608D03*
X621701Y286608D03*
X366570Y296704D03*
X383570Y296704D03*
X388254Y251032D03*
X405254Y251032D03*
X262045Y370001D03*
X279045Y370001D03*
D16*
X84044Y366538D03*
X84023Y43756D03*
X83907Y124507D03*
X83955Y204924D03*
X43954Y83230D03*
X43861Y325281D03*
X43875Y244512D03*
D17*
X148500Y335900D03*
X167550Y348600D03*
X148500Y361300D03*
D18*
X205573Y106400D03*
D19*
X227973Y202300D03*
D18*
X345473Y247000D03*
X228973Y268800D03*
X345473Y132900D03*
D19*
X227473Y159900D03*
D20*
X624300Y343300D03*
X624100Y317300D03*
X623900Y419400D03*
X624000Y368700D03*
X624000Y393800D03*
D15*
X447200Y251200D03*
X447200Y234200D03*
X468600Y276400D03*
X468600Y259400D03*
X447000Y304800D03*
X447000Y287800D03*
D13*
X235100Y377500D03*
X194100Y377500D03*
X235800Y350400D03*
X194800Y350400D03*
D16*
X84000Y285700D03*
X44000Y164000D03*
D21*
X126200Y152200D03*
X126200Y193200D03*
D15*
X126200Y221500D03*
X143200Y221500D03*
D22*
X423061Y119241D03*
D23*
X422935Y142586D03*
D21*
X155700Y151700D03*
X155700Y192700D03*
D16*
X44000Y406200D03*
D21*
X115900Y296300D03*
X115900Y337300D03*
D13*
X89300Y409500D03*
X130300Y409500D03*
D24*
X151000Y38600D03*
X151000Y89400D03*
D25*
X239900Y62510D02*
X239900Y47270D01*
X316100Y44730D02*
X316100Y29490D01*
D26*
X325700Y405000D03*
X419600Y220200D03*
X630900Y184000D03*
X391500Y153900D03*
X403400Y270300D03*
X336100Y313800D03*
X404400Y314200D03*
X580000Y246900D03*
X583300Y272800D03*
X399200Y393900D03*
X598600Y303300D03*
X580700Y223100D03*
X553200Y371100D03*
M02*
