G04 EAGLE Gerber X2 export*
%TF.Part,Single*%
%TF.FileFunction,Other,Solder stop mask SOL*%
%TF.FilePolarity,Positive*%
%TF.GenerationSoftware,Autodesk,EAGLE,9.0.1*%
%TF.CreationDate,2018-09-16T05:54:57Z*%
G75*
%MOMM*%
%FSLAX34Y34*%
%LPD*%
%AMOC8*
5,1,8,0,0,1.08239X$1,22.5*%
G01*
%ADD10C,0.000000*%
%ADD11R,1.203200X1.303200*%
%ADD12P,1.594577X8X202.500000*%
%ADD13P,1.594577X8X22.500000*%
%ADD14R,1.903200X2.003200*%
%ADD15R,2.438400X1.422400*%
%ADD16R,2.403200X3.803200*%
%ADD17R,1.103200X1.003200*%
%ADD18R,1.303200X1.203200*%
%ADD19R,3.203200X3.203200*%
%ADD20P,1.649562X8X112.500000*%
%ADD21P,4.008307X8X202.500000*%
%ADD22P,2.925917X8X202.500000*%
%ADD23R,2.003200X1.903200*%
%ADD24R,1.803400X1.803400*%
%ADD25C,1.727200*%
%ADD26P,2.034460X8X22.500000*%
%ADD27P,2.034460X8X292.500000*%
%ADD28C,1.524000*%
%ADD29C,1.209600*%
%ADD30P,1.309259X8X22.500000*%


D10*
X668173Y454655D02*
X3400Y456200D01*
X4600Y600D01*
X668600Y1600D02*
X668173Y454655D01*
X666573Y955D02*
X4600Y600D01*
D11*
X253453Y58664D03*
X253453Y75664D03*
X403856Y163065D03*
X403856Y146065D03*
X310382Y226221D03*
X310382Y209221D03*
X290382Y226201D03*
X290382Y209201D03*
X268834Y226229D03*
X268834Y209229D03*
D12*
X525241Y224739D03*
D13*
X548586Y224865D03*
X252359Y327061D03*
D12*
X229014Y326935D03*
D14*
X215049Y95791D03*
X215049Y136791D03*
D15*
X360644Y185879D03*
X360644Y162765D03*
X360644Y139651D03*
D16*
X298666Y162765D03*
D17*
X234153Y76264D03*
X234153Y57264D03*
X214153Y66764D03*
D18*
X539127Y82867D03*
X539127Y65867D03*
D11*
X403856Y207265D03*
X386856Y207265D03*
X363856Y207065D03*
X346856Y207065D03*
X278453Y56464D03*
X295453Y56464D03*
X278753Y77664D03*
X295753Y77664D03*
D19*
X592544Y168038D03*
X639823Y246856D03*
X640407Y358307D03*
X592655Y90724D03*
X639854Y419530D03*
X592261Y215381D03*
X640075Y191512D03*
X639072Y68226D03*
D20*
X505600Y86400D03*
X486550Y73700D03*
X505600Y61000D03*
D21*
X175627Y241200D03*
D22*
X153227Y145300D03*
D21*
X35727Y100600D03*
X152227Y78800D03*
X35727Y214700D03*
D22*
X153727Y187700D03*
D23*
X516800Y111800D03*
X557800Y111800D03*
D24*
X74700Y24000D03*
X48700Y24200D03*
X150800Y24400D03*
X100100Y24300D03*
X125200Y24300D03*
D25*
X262400Y383770D02*
X262400Y399010D01*
X338600Y381230D02*
X338600Y365990D01*
D13*
X70959Y305261D03*
D12*
X47614Y305135D03*
D26*
X532400Y381100D03*
X583200Y381100D03*
D25*
X187620Y412900D02*
X172380Y412900D01*
X172380Y387500D02*
X187620Y387500D01*
X187620Y362100D02*
X172380Y362100D01*
D27*
X92500Y402100D03*
X92500Y351300D03*
D13*
X146859Y306761D03*
D12*
X123514Y306635D03*
D27*
X473000Y398400D03*
X473000Y347600D03*
D28*
X492050Y300604D02*
X492050Y287396D01*
X453950Y287396D02*
X453950Y300604D01*
D23*
X388500Y74000D03*
X429500Y74000D03*
X385500Y103000D03*
X426500Y103000D03*
X448500Y131000D03*
X489500Y131000D03*
D18*
X487000Y172500D03*
X487000Y155500D03*
X464000Y173500D03*
X464000Y156500D03*
X466500Y191000D03*
X483500Y191000D03*
D17*
X505000Y183500D03*
X505000Y202500D03*
X525000Y193000D03*
D18*
X521000Y147500D03*
X521000Y164500D03*
D19*
X638000Y134000D03*
D29*
X208600Y53700D03*
X422600Y160700D03*
D30*
X227100Y219300D03*
X227060Y185340D03*
D29*
X345062Y45162D03*
X289600Y193700D03*
X337600Y185700D03*
X248600Y109700D03*
X240600Y142700D03*
X209500Y157400D03*
X258400Y43800D03*
X574000Y142000D03*
X360000Y84000D03*
X304000Y100000D03*
X327000Y104000D03*
X509000Y130000D03*
M02*
