G04 EAGLE Gerber X2 export*
%TF.Part,Single*%
%TF.FileFunction,Other,Component side*%
%TF.FilePolarity,Positive*%
%TF.GenerationSoftware,Autodesk,EAGLE,9.0.1*%
%TF.CreationDate,2018-09-16T05:54:57Z*%
G75*
%MOMM*%
%FSLAX34Y34*%
%LPD*%
%AMOC8*
5,1,8,0,0,1.08239X$1,22.5*%
G01*
%ADD10C,0.000000*%
%ADD11R,1.000000X1.100000*%
%ADD12P,1.374635X8X202.500000*%
%ADD13P,1.374635X8X22.500000*%
%ADD14R,0.600000X2.200000*%
%ADD15R,1.200000X0.560000*%
%ADD16R,1.100000X1.000000*%
%ADD17R,3.000000X3.000000*%
%ADD18P,1.429621X8X112.500000*%
%ADD19P,3.788365X8X202.500000*%
%ADD20P,2.705975X8X202.500000*%
%ADD21R,1.600200X1.600200*%
%ADD22R,3.000000X2.000000*%
%ADD23C,1.524000*%
%ADD24P,1.814519X8X22.500000*%
%ADD25P,1.814519X8X292.500000*%
%ADD26R,1.800000X1.700000*%
%ADD27R,1.900000X1.700000*%
%ADD28C,1.320800*%
%ADD29R,3.400000X1.500000*%
%ADD30C,0.609600*%
%ADD31C,1.006400*%
%ADD32P,1.089317X8X22.500000*%
%ADD33C,0.406400*%
%ADD34C,1.930400*%
%ADD35C,1.270000*%
%ADD36C,1.900000*%
%ADD37C,0.812800*%
%ADD38C,2.540000*%

G36*
X60401Y110428D02*
X60401Y110428D01*
X60592Y110430D01*
X60626Y110437D01*
X60661Y110438D01*
X60847Y110479D01*
X61034Y110516D01*
X61067Y110528D01*
X61100Y110536D01*
X61276Y110609D01*
X61454Y110678D01*
X61484Y110696D01*
X61516Y110709D01*
X61676Y110813D01*
X61839Y110912D01*
X61865Y110935D01*
X61894Y110954D01*
X62128Y111161D01*
X94220Y143253D01*
X97581Y144645D01*
X116560Y144645D01*
X116724Y144659D01*
X116888Y144666D01*
X116948Y144679D01*
X117009Y144685D01*
X117168Y144728D01*
X117328Y144764D01*
X117384Y144787D01*
X117443Y144803D01*
X117591Y144874D01*
X117743Y144937D01*
X117795Y144970D01*
X117850Y144997D01*
X117983Y145092D01*
X118122Y145182D01*
X118179Y145233D01*
X118216Y145259D01*
X118258Y145302D01*
X118356Y145388D01*
X118512Y145544D01*
X118617Y145670D01*
X118729Y145791D01*
X118761Y145843D01*
X118800Y145890D01*
X118882Y146032D01*
X118970Y146171D01*
X118994Y146228D01*
X119024Y146280D01*
X119079Y146435D01*
X119141Y146588D01*
X119154Y146647D01*
X119175Y146705D01*
X119201Y146867D01*
X119236Y147028D01*
X119241Y147105D01*
X119248Y147149D01*
X119247Y147210D01*
X119255Y147340D01*
X119255Y199019D01*
X120647Y202380D01*
X123577Y205309D01*
X123577Y205310D01*
X132620Y214353D01*
X135981Y215745D01*
X161581Y215745D01*
X161710Y215756D01*
X161841Y215758D01*
X161934Y215776D01*
X162030Y215785D01*
X162155Y215819D01*
X162283Y215844D01*
X162372Y215878D01*
X162464Y215903D01*
X162581Y215959D01*
X162703Y216006D01*
X162785Y216056D01*
X162871Y216097D01*
X162976Y216172D01*
X163087Y216240D01*
X163159Y216303D01*
X163237Y216359D01*
X163328Y216452D01*
X163425Y216538D01*
X163484Y216613D01*
X163551Y216681D01*
X163624Y216789D01*
X163704Y216891D01*
X163749Y216975D01*
X163803Y217054D01*
X163855Y217173D01*
X163917Y217288D01*
X163946Y217379D01*
X163985Y217466D01*
X164016Y217593D01*
X164056Y217716D01*
X164069Y217811D01*
X164092Y217904D01*
X164100Y218033D01*
X164117Y218162D01*
X164114Y218258D01*
X164119Y218353D01*
X164104Y218482D01*
X164099Y218612D01*
X164078Y218705D01*
X164067Y218800D01*
X164030Y218925D01*
X164002Y219052D01*
X163965Y219140D01*
X163937Y219231D01*
X163878Y219347D01*
X163828Y219467D01*
X163776Y219548D01*
X163733Y219633D01*
X163654Y219736D01*
X163584Y219845D01*
X163497Y219943D01*
X163461Y219991D01*
X163428Y220022D01*
X163377Y220080D01*
X152030Y231426D01*
X152030Y250974D01*
X165853Y264797D01*
X185401Y264797D01*
X199224Y250974D01*
X199224Y231426D01*
X187877Y220080D01*
X187793Y219980D01*
X187703Y219887D01*
X187649Y219807D01*
X187588Y219734D01*
X187523Y219621D01*
X187451Y219514D01*
X187412Y219426D01*
X187365Y219343D01*
X187321Y219221D01*
X187268Y219102D01*
X187246Y219009D01*
X187214Y218919D01*
X187193Y218790D01*
X187162Y218664D01*
X187156Y218569D01*
X187140Y218475D01*
X187142Y218344D01*
X187134Y218215D01*
X187145Y218120D01*
X187146Y218024D01*
X187171Y217897D01*
X187186Y217768D01*
X187214Y217676D01*
X187232Y217582D01*
X187279Y217461D01*
X187317Y217337D01*
X187360Y217252D01*
X187394Y217162D01*
X187462Y217051D01*
X187521Y216935D01*
X187579Y216859D01*
X187628Y216778D01*
X187714Y216680D01*
X187793Y216577D01*
X187863Y216512D01*
X187926Y216440D01*
X188028Y216360D01*
X188124Y216271D01*
X188205Y216220D01*
X188280Y216161D01*
X188394Y216100D01*
X188504Y216030D01*
X188592Y215993D01*
X188676Y215948D01*
X188800Y215908D01*
X188920Y215859D01*
X189014Y215839D01*
X189105Y215809D01*
X189233Y215791D01*
X189361Y215764D01*
X189490Y215756D01*
X189551Y215748D01*
X189596Y215749D01*
X189672Y215745D01*
X250719Y215745D01*
X254080Y214353D01*
X263024Y205409D01*
X263087Y205356D01*
X263144Y205296D01*
X263259Y205212D01*
X263369Y205120D01*
X263441Y205079D01*
X263507Y205030D01*
X263636Y204968D01*
X263760Y204897D01*
X263838Y204869D01*
X263912Y204833D01*
X264049Y204794D01*
X264184Y204746D01*
X264266Y204732D01*
X264345Y204710D01*
X264487Y204696D01*
X264628Y204672D01*
X264711Y204674D01*
X264793Y204665D01*
X264936Y204677D01*
X265079Y204678D01*
X265160Y204694D01*
X265242Y204701D01*
X265380Y204737D01*
X265521Y204764D01*
X265598Y204794D01*
X265677Y204815D01*
X265807Y204875D01*
X265941Y204926D01*
X266011Y204969D01*
X266086Y205004D01*
X266203Y205086D01*
X266325Y205160D01*
X266387Y205215D01*
X266455Y205262D01*
X266556Y205364D01*
X266663Y205458D01*
X266714Y205523D01*
X266772Y205581D01*
X266853Y205699D01*
X266942Y205812D01*
X266981Y205884D01*
X267028Y205952D01*
X267136Y206174D01*
X267155Y206208D01*
X267158Y206219D01*
X267165Y206233D01*
X267847Y207880D01*
X270777Y210809D01*
X270777Y210810D01*
X285388Y225420D01*
X285471Y225520D01*
X285562Y225613D01*
X285615Y225693D01*
X285677Y225766D01*
X285741Y225879D01*
X285814Y225986D01*
X285853Y226074D01*
X285900Y226157D01*
X285944Y226279D01*
X285996Y226398D01*
X286019Y226491D01*
X286051Y226581D01*
X286072Y226710D01*
X286103Y226836D01*
X286109Y226931D01*
X286124Y227025D01*
X286123Y227156D01*
X286131Y227285D01*
X286120Y227380D01*
X286118Y227476D01*
X286094Y227603D01*
X286079Y227732D01*
X286051Y227824D01*
X286033Y227918D01*
X285986Y228039D01*
X285948Y228163D01*
X285905Y228248D01*
X285871Y228338D01*
X285803Y228449D01*
X285744Y228565D01*
X285686Y228641D01*
X285637Y228722D01*
X285550Y228820D01*
X285472Y228923D01*
X285402Y228988D01*
X285338Y229060D01*
X285237Y229140D01*
X285141Y229229D01*
X285060Y229280D01*
X284985Y229339D01*
X284871Y229400D01*
X284761Y229470D01*
X284673Y229507D01*
X284588Y229552D01*
X284465Y229592D01*
X284344Y229641D01*
X284251Y229661D01*
X284160Y229691D01*
X284032Y229709D01*
X283904Y229736D01*
X283775Y229744D01*
X283714Y229752D01*
X283669Y229751D01*
X283592Y229755D01*
X239586Y229755D01*
X236225Y231147D01*
X170500Y296873D01*
X170374Y296978D01*
X170253Y297090D01*
X170202Y297122D01*
X170155Y297162D01*
X170012Y297243D01*
X169873Y297331D01*
X169817Y297355D01*
X169764Y297385D01*
X169609Y297440D01*
X169457Y297502D01*
X169397Y297515D01*
X169339Y297536D01*
X169177Y297563D01*
X169016Y297597D01*
X168939Y297602D01*
X168895Y297609D01*
X168834Y297608D01*
X168705Y297616D01*
X156369Y297616D01*
X156205Y297602D01*
X156041Y297595D01*
X155981Y297582D01*
X155920Y297576D01*
X155762Y297533D01*
X155601Y297497D01*
X155545Y297474D01*
X155486Y297458D01*
X155338Y297387D01*
X155186Y297324D01*
X155134Y297291D01*
X155079Y297265D01*
X154946Y297169D01*
X154807Y297080D01*
X154750Y297028D01*
X154713Y297002D01*
X154671Y296959D01*
X154573Y296873D01*
X153553Y295852D01*
X152015Y294314D01*
X141704Y294314D01*
X140166Y295852D01*
X135951Y300067D01*
X135950Y300068D01*
X134413Y301605D01*
X134413Y331435D01*
X136308Y336010D01*
X157920Y357622D01*
X158025Y357748D01*
X158137Y357869D01*
X158169Y357920D01*
X158208Y357967D01*
X158290Y358110D01*
X158378Y358249D01*
X158402Y358305D01*
X158432Y358358D01*
X158487Y358513D01*
X158549Y358665D01*
X158562Y358725D01*
X158583Y358782D01*
X158609Y358945D01*
X158644Y359106D01*
X158649Y359182D01*
X158656Y359227D01*
X158655Y359288D01*
X158663Y359417D01*
X158663Y364828D01*
X160751Y369870D01*
X164610Y373729D01*
X169652Y375817D01*
X190348Y375817D01*
X195390Y373729D01*
X199249Y369870D01*
X201337Y364828D01*
X201337Y359372D01*
X199249Y354330D01*
X195390Y350471D01*
X190348Y348383D01*
X184937Y348383D01*
X184774Y348369D01*
X184609Y348362D01*
X184550Y348349D01*
X184489Y348343D01*
X184330Y348300D01*
X184170Y348264D01*
X184113Y348241D01*
X184055Y348225D01*
X183906Y348154D01*
X183754Y348091D01*
X183703Y348058D01*
X183648Y348031D01*
X183514Y347936D01*
X183376Y347846D01*
X183318Y347795D01*
X183282Y347769D01*
X183239Y347726D01*
X183142Y347640D01*
X160050Y324548D01*
X159944Y324421D01*
X159833Y324300D01*
X159800Y324249D01*
X159761Y324202D01*
X159679Y324059D01*
X159591Y323921D01*
X159568Y323864D01*
X159538Y323811D01*
X159483Y323656D01*
X159420Y323504D01*
X159407Y323444D01*
X159387Y323387D01*
X159360Y323225D01*
X159325Y323064D01*
X159321Y322987D01*
X159313Y322943D01*
X159314Y322882D01*
X159306Y322752D01*
X159306Y318445D01*
X159309Y318411D01*
X159307Y318376D01*
X159329Y318187D01*
X159346Y317997D01*
X159355Y317963D01*
X159359Y317929D01*
X159415Y317746D01*
X159465Y317562D01*
X159479Y317531D01*
X159489Y317498D01*
X159576Y317327D01*
X159658Y317156D01*
X159678Y317127D01*
X159694Y317097D01*
X159809Y316945D01*
X159920Y316789D01*
X159945Y316765D01*
X159966Y316738D01*
X160106Y316608D01*
X160243Y316475D01*
X160272Y316456D01*
X160297Y316433D01*
X160458Y316330D01*
X160616Y316223D01*
X160648Y316209D01*
X160677Y316191D01*
X160853Y316118D01*
X161028Y316041D01*
X161061Y316033D01*
X161093Y316020D01*
X161280Y315980D01*
X161465Y315934D01*
X161500Y315932D01*
X161534Y315925D01*
X161845Y315906D01*
X175363Y315906D01*
X178724Y314514D01*
X244449Y248788D01*
X244576Y248683D01*
X244696Y248571D01*
X244748Y248539D01*
X244795Y248500D01*
X244937Y248418D01*
X245076Y248330D01*
X245133Y248306D01*
X245186Y248276D01*
X245341Y248221D01*
X245493Y248159D01*
X245552Y248146D01*
X245610Y248125D01*
X245772Y248099D01*
X245933Y248064D01*
X246010Y248059D01*
X246054Y248052D01*
X246115Y248053D01*
X246245Y248045D01*
X246614Y248045D01*
X246649Y248048D01*
X246683Y248046D01*
X246872Y248068D01*
X247063Y248085D01*
X247096Y248094D01*
X247130Y248098D01*
X247313Y248153D01*
X247497Y248203D01*
X247528Y248218D01*
X247561Y248228D01*
X247732Y248315D01*
X247904Y248397D01*
X247932Y248417D01*
X247963Y248432D01*
X248115Y248548D01*
X248270Y248659D01*
X248294Y248684D01*
X248321Y248704D01*
X248450Y248844D01*
X248584Y248981D01*
X248603Y249010D01*
X248627Y249036D01*
X248729Y249197D01*
X248836Y249354D01*
X248850Y249386D01*
X248868Y249415D01*
X248941Y249592D01*
X249018Y249766D01*
X249026Y249800D01*
X249039Y249832D01*
X249079Y250019D01*
X249125Y250204D01*
X249127Y250238D01*
X249134Y250272D01*
X249153Y250584D01*
X249153Y270213D01*
X250081Y272454D01*
X251796Y274169D01*
X254037Y275097D01*
X255264Y275097D01*
X255299Y275100D01*
X255333Y275098D01*
X255522Y275120D01*
X255713Y275137D01*
X255746Y275146D01*
X255780Y275150D01*
X255963Y275205D01*
X256147Y275255D01*
X256178Y275270D01*
X256211Y275280D01*
X256382Y275367D01*
X256554Y275449D01*
X256582Y275469D01*
X256613Y275484D01*
X256765Y275600D01*
X256920Y275711D01*
X256944Y275736D01*
X256971Y275756D01*
X257100Y275896D01*
X257234Y276033D01*
X257253Y276062D01*
X257277Y276088D01*
X257379Y276249D01*
X257486Y276406D01*
X257500Y276438D01*
X257518Y276467D01*
X257591Y276644D01*
X257668Y276818D01*
X257676Y276852D01*
X257689Y276884D01*
X257729Y277071D01*
X257775Y277256D01*
X257777Y277290D01*
X257784Y277324D01*
X257803Y277636D01*
X257803Y299376D01*
X259698Y303950D01*
X263556Y307809D01*
X263557Y307809D01*
X266027Y310280D01*
X266111Y310379D01*
X266201Y310472D01*
X266255Y310552D01*
X266316Y310625D01*
X266381Y310738D01*
X266453Y310846D01*
X266492Y310933D01*
X266539Y311016D01*
X266583Y311138D01*
X266636Y311257D01*
X266658Y311350D01*
X266690Y311440D01*
X266712Y311569D01*
X266742Y311695D01*
X266748Y311790D01*
X266764Y311884D01*
X266762Y312015D01*
X266770Y312144D01*
X266759Y312239D01*
X266758Y312335D01*
X266733Y312462D01*
X266718Y312591D01*
X266690Y312683D01*
X266672Y312777D01*
X266625Y312898D01*
X266588Y313022D01*
X266544Y313108D01*
X266510Y313197D01*
X266442Y313308D01*
X266383Y313424D01*
X266326Y313500D01*
X266276Y313581D01*
X266190Y313679D01*
X266111Y313782D01*
X266041Y313847D01*
X265978Y313919D01*
X265876Y313999D01*
X265780Y314088D01*
X265699Y314139D01*
X265625Y314198D01*
X265510Y314259D01*
X265400Y314329D01*
X265312Y314366D01*
X265228Y314411D01*
X265104Y314451D01*
X264984Y314500D01*
X264890Y314521D01*
X264800Y314550D01*
X264671Y314568D01*
X264544Y314595D01*
X264414Y314603D01*
X264353Y314611D01*
X264309Y314610D01*
X264232Y314614D01*
X247204Y314614D01*
X245666Y316152D01*
X241451Y320368D01*
X241450Y320368D01*
X239913Y321905D01*
X239913Y332217D01*
X241450Y333754D01*
X241451Y333755D01*
X245666Y337970D01*
X247204Y339508D01*
X289365Y339508D01*
X293939Y337613D01*
X294412Y337140D01*
X294538Y337035D01*
X294659Y336923D01*
X294710Y336891D01*
X294757Y336852D01*
X294900Y336770D01*
X295039Y336682D01*
X295095Y336658D01*
X295148Y336628D01*
X295303Y336573D01*
X295455Y336511D01*
X295515Y336498D01*
X295572Y336477D01*
X295735Y336451D01*
X295896Y336416D01*
X295972Y336411D01*
X296017Y336404D01*
X296078Y336405D01*
X296207Y336397D01*
X309863Y336397D01*
X312104Y335469D01*
X313819Y333754D01*
X314747Y331513D01*
X314747Y309087D01*
X313819Y306846D01*
X312104Y305131D01*
X309863Y304203D01*
X296207Y304203D01*
X296044Y304189D01*
X295879Y304182D01*
X295820Y304169D01*
X295759Y304163D01*
X295600Y304120D01*
X295440Y304084D01*
X295383Y304061D01*
X295325Y304045D01*
X295176Y303974D01*
X295024Y303911D01*
X294973Y303878D01*
X294918Y303851D01*
X294784Y303756D01*
X294646Y303666D01*
X294588Y303615D01*
X294552Y303589D01*
X294509Y303546D01*
X294412Y303460D01*
X283440Y292488D01*
X283335Y292362D01*
X283223Y292241D01*
X283191Y292190D01*
X283152Y292143D01*
X283070Y292000D01*
X282982Y291861D01*
X282958Y291805D01*
X282928Y291752D01*
X282873Y291597D01*
X282811Y291445D01*
X282798Y291385D01*
X282777Y291328D01*
X282751Y291165D01*
X282716Y291005D01*
X282711Y290928D01*
X282704Y290883D01*
X282705Y290822D01*
X282697Y290693D01*
X282697Y277636D01*
X282700Y277601D01*
X282698Y277567D01*
X282720Y277378D01*
X282737Y277187D01*
X282746Y277154D01*
X282750Y277120D01*
X282805Y276937D01*
X282855Y276753D01*
X282870Y276722D01*
X282880Y276689D01*
X282967Y276518D01*
X283049Y276346D01*
X283069Y276318D01*
X283084Y276287D01*
X283200Y276135D01*
X283311Y275980D01*
X283336Y275956D01*
X283356Y275929D01*
X283496Y275800D01*
X283633Y275666D01*
X283662Y275647D01*
X283688Y275623D01*
X283849Y275521D01*
X284006Y275414D01*
X284038Y275400D01*
X284067Y275382D01*
X284244Y275309D01*
X284418Y275232D01*
X284452Y275224D01*
X284484Y275211D01*
X284671Y275171D01*
X284856Y275125D01*
X284890Y275123D01*
X284924Y275116D01*
X285236Y275097D01*
X286463Y275097D01*
X288704Y274169D01*
X290419Y272454D01*
X291347Y270213D01*
X291347Y250584D01*
X291350Y250549D01*
X291348Y250515D01*
X291370Y250326D01*
X291387Y250135D01*
X291396Y250102D01*
X291400Y250068D01*
X291455Y249885D01*
X291505Y249701D01*
X291520Y249670D01*
X291530Y249637D01*
X291617Y249466D01*
X291699Y249294D01*
X291719Y249266D01*
X291734Y249235D01*
X291850Y249083D01*
X291961Y248928D01*
X291986Y248904D01*
X292006Y248877D01*
X292146Y248748D01*
X292283Y248614D01*
X292312Y248595D01*
X292338Y248571D01*
X292499Y248469D01*
X292656Y248362D01*
X292688Y248348D01*
X292717Y248330D01*
X292894Y248257D01*
X293068Y248180D01*
X293102Y248172D01*
X293134Y248159D01*
X293321Y248119D01*
X293506Y248073D01*
X293540Y248071D01*
X293574Y248064D01*
X293886Y248045D01*
X320114Y248045D01*
X320149Y248048D01*
X320183Y248046D01*
X320372Y248068D01*
X320563Y248085D01*
X320596Y248094D01*
X320630Y248098D01*
X320813Y248153D01*
X320997Y248203D01*
X321028Y248218D01*
X321061Y248228D01*
X321232Y248315D01*
X321404Y248397D01*
X321432Y248417D01*
X321463Y248432D01*
X321615Y248548D01*
X321770Y248659D01*
X321794Y248684D01*
X321821Y248704D01*
X321950Y248844D01*
X322084Y248981D01*
X322103Y249010D01*
X322127Y249036D01*
X322229Y249197D01*
X322336Y249354D01*
X322350Y249386D01*
X322368Y249415D01*
X322441Y249592D01*
X322518Y249766D01*
X322526Y249800D01*
X322539Y249832D01*
X322579Y250019D01*
X322625Y250204D01*
X322627Y250238D01*
X322634Y250272D01*
X322653Y250584D01*
X322653Y270213D01*
X323581Y272454D01*
X325296Y274169D01*
X327537Y275097D01*
X359963Y275097D01*
X362204Y274169D01*
X364182Y272190D01*
X364308Y272085D01*
X364429Y271973D01*
X364480Y271941D01*
X364527Y271902D01*
X364670Y271820D01*
X364808Y271732D01*
X364865Y271708D01*
X364918Y271678D01*
X365073Y271623D01*
X365225Y271561D01*
X365285Y271548D01*
X365342Y271527D01*
X365504Y271501D01*
X365665Y271466D01*
X365742Y271461D01*
X365786Y271454D01*
X365847Y271455D01*
X365977Y271447D01*
X381661Y271447D01*
X381696Y271450D01*
X381730Y271448D01*
X381920Y271470D01*
X382110Y271487D01*
X382143Y271496D01*
X382177Y271500D01*
X382360Y271555D01*
X382544Y271605D01*
X382575Y271620D01*
X382608Y271630D01*
X382779Y271717D01*
X382951Y271799D01*
X382979Y271819D01*
X383010Y271834D01*
X383162Y271950D01*
X383317Y272061D01*
X383341Y272086D01*
X383368Y272106D01*
X383498Y272246D01*
X383631Y272383D01*
X383650Y272412D01*
X383674Y272438D01*
X383776Y272599D01*
X383883Y272756D01*
X383897Y272788D01*
X383915Y272817D01*
X383988Y272994D01*
X384065Y273168D01*
X384073Y273202D01*
X384086Y273234D01*
X384127Y273421D01*
X384172Y273606D01*
X384174Y273640D01*
X384181Y273674D01*
X384200Y273986D01*
X384200Y290713D01*
X385129Y292954D01*
X386844Y294669D01*
X389084Y295597D01*
X425510Y295597D01*
X427819Y294640D01*
X427931Y294605D01*
X428039Y294561D01*
X428145Y294538D01*
X428249Y294505D01*
X428365Y294491D01*
X428479Y294466D01*
X428633Y294456D01*
X428696Y294449D01*
X428732Y294450D01*
X428791Y294447D01*
X435743Y294447D01*
X435906Y294461D01*
X436071Y294468D01*
X436130Y294481D01*
X436191Y294487D01*
X436350Y294530D01*
X436510Y294566D01*
X436567Y294589D01*
X436625Y294605D01*
X436774Y294676D01*
X436926Y294739D01*
X436977Y294772D01*
X437032Y294799D01*
X437166Y294894D01*
X437304Y294984D01*
X437362Y295035D01*
X437398Y295061D01*
X437441Y295104D01*
X437538Y295190D01*
X440506Y298158D01*
X440611Y298284D01*
X440723Y298405D01*
X440755Y298456D01*
X440794Y298503D01*
X440876Y298646D01*
X440964Y298785D01*
X440988Y298841D01*
X441018Y298894D01*
X441073Y299049D01*
X441135Y299201D01*
X441148Y299261D01*
X441169Y299318D01*
X441195Y299481D01*
X441230Y299642D01*
X441235Y299718D01*
X441242Y299763D01*
X441241Y299824D01*
X441249Y299953D01*
X441249Y303130D01*
X443183Y307798D01*
X446756Y311371D01*
X451424Y313305D01*
X456476Y313305D01*
X461144Y311371D01*
X464717Y307798D01*
X466651Y303130D01*
X466651Y284870D01*
X464717Y280202D01*
X461144Y276629D01*
X460428Y276332D01*
X460270Y276250D01*
X460110Y276173D01*
X460071Y276146D01*
X460029Y276123D01*
X459888Y276015D01*
X459744Y275911D01*
X459710Y275877D01*
X459673Y275848D01*
X459554Y275716D01*
X459430Y275589D01*
X459403Y275549D01*
X459371Y275513D01*
X459277Y275363D01*
X459178Y275216D01*
X459158Y275172D01*
X459133Y275131D01*
X459067Y274966D01*
X458995Y274804D01*
X458984Y274757D01*
X458966Y274713D01*
X458931Y274539D01*
X458889Y274366D01*
X458886Y274319D01*
X458876Y274272D01*
X458872Y274094D01*
X458861Y273917D01*
X458867Y273869D01*
X458865Y273822D01*
X458893Y273646D01*
X458913Y273470D01*
X458927Y273424D01*
X458934Y273377D01*
X458992Y273209D01*
X459043Y273039D01*
X459065Y272996D01*
X459081Y272951D01*
X459167Y272796D01*
X459248Y272637D01*
X459277Y272599D01*
X459300Y272558D01*
X459412Y272420D01*
X459520Y272279D01*
X459555Y272246D01*
X459585Y272209D01*
X459720Y272094D01*
X459851Y271973D01*
X459891Y271948D01*
X459928Y271917D01*
X460081Y271827D01*
X460231Y271732D01*
X460275Y271713D01*
X460316Y271689D01*
X460483Y271628D01*
X460647Y271561D01*
X460694Y271551D01*
X460739Y271534D01*
X460914Y271503D01*
X461087Y271466D01*
X461147Y271462D01*
X461182Y271456D01*
X461245Y271456D01*
X461399Y271447D01*
X484601Y271447D01*
X484778Y271462D01*
X484955Y271472D01*
X485001Y271482D01*
X485049Y271487D01*
X485221Y271533D01*
X485394Y271574D01*
X485438Y271593D01*
X485484Y271605D01*
X485644Y271681D01*
X485807Y271752D01*
X485847Y271778D01*
X485890Y271799D01*
X486034Y271902D01*
X486183Y272000D01*
X486217Y272033D01*
X486256Y272061D01*
X486380Y272188D01*
X486509Y272311D01*
X486537Y272349D01*
X486570Y272383D01*
X486670Y272531D01*
X486775Y272674D01*
X486796Y272717D01*
X486822Y272756D01*
X486894Y272919D01*
X486972Y273078D01*
X486985Y273124D01*
X487005Y273168D01*
X487047Y273341D01*
X487095Y273512D01*
X487100Y273559D01*
X487111Y273606D01*
X487122Y273783D01*
X487140Y273960D01*
X487136Y274007D01*
X487139Y274055D01*
X487118Y274232D01*
X487105Y274409D01*
X487092Y274455D01*
X487087Y274502D01*
X487035Y274673D01*
X486991Y274844D01*
X486971Y274887D01*
X486957Y274933D01*
X486876Y275092D01*
X486801Y275253D01*
X486774Y275292D01*
X486752Y275335D01*
X486645Y275476D01*
X486543Y275622D01*
X486509Y275655D01*
X486480Y275693D01*
X486350Y275814D01*
X486224Y275939D01*
X486184Y275966D01*
X486149Y275998D01*
X485999Y276094D01*
X485853Y276195D01*
X485800Y276221D01*
X485769Y276240D01*
X485711Y276264D01*
X485572Y276332D01*
X484856Y276629D01*
X481283Y280202D01*
X479349Y284870D01*
X479349Y303130D01*
X481283Y307798D01*
X484856Y311371D01*
X489524Y313305D01*
X494576Y313305D01*
X495573Y312892D01*
X495776Y312828D01*
X495977Y312763D01*
X495990Y312761D01*
X496002Y312757D01*
X496214Y312730D01*
X496423Y312702D01*
X496436Y312702D01*
X496449Y312700D01*
X496660Y312711D01*
X496873Y312720D01*
X496886Y312723D01*
X496899Y312724D01*
X497104Y312771D01*
X497312Y312818D01*
X497324Y312823D01*
X497337Y312826D01*
X497531Y312909D01*
X497728Y312991D01*
X497739Y312998D01*
X497751Y313004D01*
X497927Y313120D01*
X498106Y313235D01*
X498118Y313246D01*
X498127Y313252D01*
X498155Y313279D01*
X498340Y313442D01*
X513660Y328762D01*
X513765Y328888D01*
X513877Y329009D01*
X513909Y329060D01*
X513948Y329107D01*
X514030Y329250D01*
X514118Y329389D01*
X514142Y329445D01*
X514172Y329498D01*
X514227Y329653D01*
X514289Y329805D01*
X514302Y329865D01*
X514323Y329922D01*
X514349Y330085D01*
X514384Y330246D01*
X514389Y330322D01*
X514396Y330367D01*
X514395Y330428D01*
X514403Y330557D01*
X514403Y337213D01*
X515331Y339454D01*
X516810Y340932D01*
X516915Y341058D01*
X517027Y341179D01*
X517059Y341230D01*
X517098Y341277D01*
X517180Y341420D01*
X517268Y341558D01*
X517292Y341615D01*
X517322Y341668D01*
X517377Y341823D01*
X517439Y341975D01*
X517452Y342035D01*
X517473Y342092D01*
X517499Y342254D01*
X517534Y342415D01*
X517539Y342492D01*
X517546Y342536D01*
X517545Y342597D01*
X517553Y342727D01*
X517553Y366114D01*
X517550Y366149D01*
X517552Y366183D01*
X517530Y366372D01*
X517513Y366563D01*
X517504Y366596D01*
X517500Y366630D01*
X517445Y366813D01*
X517395Y366997D01*
X517380Y367028D01*
X517370Y367061D01*
X517283Y367232D01*
X517201Y367404D01*
X517181Y367432D01*
X517166Y367463D01*
X517050Y367615D01*
X516939Y367770D01*
X516914Y367794D01*
X516894Y367821D01*
X516754Y367950D01*
X516617Y368084D01*
X516588Y368103D01*
X516562Y368127D01*
X516401Y368229D01*
X516244Y368336D01*
X516212Y368350D01*
X516183Y368368D01*
X516006Y368441D01*
X515832Y368518D01*
X515798Y368526D01*
X515766Y368539D01*
X515579Y368579D01*
X515394Y368625D01*
X515360Y368627D01*
X515326Y368634D01*
X515014Y368653D01*
X485024Y368653D01*
X480450Y370548D01*
X467820Y383178D01*
X467694Y383283D01*
X467573Y383395D01*
X467522Y383427D01*
X467475Y383466D01*
X467435Y383489D01*
X467114Y383810D01*
X466988Y383915D01*
X466867Y384027D01*
X466816Y384059D01*
X466769Y384098D01*
X466626Y384180D01*
X466488Y384268D01*
X466431Y384292D01*
X466378Y384322D01*
X466223Y384377D01*
X466071Y384439D01*
X466011Y384452D01*
X465954Y384473D01*
X465792Y384499D01*
X465631Y384534D01*
X465554Y384539D01*
X465510Y384546D01*
X465449Y384545D01*
X465319Y384553D01*
X386207Y384553D01*
X386044Y384539D01*
X385879Y384532D01*
X385820Y384519D01*
X385759Y384513D01*
X385600Y384470D01*
X385440Y384434D01*
X385383Y384411D01*
X385325Y384395D01*
X385176Y384324D01*
X385024Y384261D01*
X384973Y384228D01*
X384918Y384201D01*
X384784Y384106D01*
X384646Y384016D01*
X384588Y383965D01*
X384552Y383939D01*
X384509Y383896D01*
X384412Y383810D01*
X380284Y379682D01*
X380201Y379582D01*
X380110Y379489D01*
X380056Y379409D01*
X379995Y379336D01*
X379931Y379223D01*
X379858Y379116D01*
X379819Y379028D01*
X379772Y378945D01*
X379728Y378823D01*
X379675Y378704D01*
X379653Y378611D01*
X379621Y378521D01*
X379600Y378393D01*
X379569Y378266D01*
X379563Y378171D01*
X379547Y378077D01*
X379549Y377947D01*
X379541Y377817D01*
X379552Y377722D01*
X379553Y377626D01*
X379578Y377499D01*
X379593Y377370D01*
X379621Y377278D01*
X379639Y377184D01*
X379686Y377063D01*
X379723Y376939D01*
X379767Y376853D01*
X379801Y376764D01*
X379869Y376653D01*
X379928Y376537D01*
X379985Y376461D01*
X380035Y376380D01*
X380121Y376282D01*
X380200Y376179D01*
X380270Y376114D01*
X380333Y376042D01*
X380435Y375962D01*
X380531Y375873D01*
X380612Y375822D01*
X380686Y375763D01*
X380801Y375702D01*
X380911Y375632D01*
X380999Y375595D01*
X381083Y375550D01*
X381207Y375510D01*
X381327Y375461D01*
X381421Y375441D01*
X381512Y375411D01*
X381640Y375393D01*
X381767Y375366D01*
X381897Y375358D01*
X381958Y375350D01*
X382002Y375351D01*
X382079Y375347D01*
X398476Y375347D01*
X400061Y374690D01*
X400173Y374655D01*
X400281Y374611D01*
X400387Y374588D01*
X400491Y374555D01*
X400607Y374541D01*
X400721Y374516D01*
X400875Y374506D01*
X400938Y374499D01*
X400974Y374500D01*
X401033Y374497D01*
X402213Y374497D01*
X403528Y373952D01*
X403685Y373903D01*
X403840Y373846D01*
X403900Y373835D01*
X403958Y373817D01*
X404121Y373796D01*
X404283Y373768D01*
X404344Y373768D01*
X404405Y373760D01*
X404569Y373769D01*
X404733Y373769D01*
X404793Y373780D01*
X404854Y373783D01*
X405014Y373821D01*
X405176Y373850D01*
X405249Y373875D01*
X405293Y373885D01*
X405349Y373910D01*
X405472Y373952D01*
X406787Y374497D01*
X407967Y374497D01*
X408084Y374507D01*
X408200Y374507D01*
X408307Y374527D01*
X408416Y374537D01*
X408528Y374567D01*
X408643Y374588D01*
X408789Y374639D01*
X408850Y374655D01*
X408882Y374671D01*
X408939Y374690D01*
X410524Y375347D01*
X415476Y375347D01*
X417061Y374690D01*
X417173Y374655D01*
X417281Y374611D01*
X417387Y374588D01*
X417491Y374555D01*
X417607Y374541D01*
X417721Y374516D01*
X417875Y374506D01*
X417938Y374499D01*
X417974Y374500D01*
X418033Y374497D01*
X419213Y374497D01*
X421454Y373569D01*
X423169Y371854D01*
X424097Y369613D01*
X424097Y369140D01*
X424107Y369024D01*
X424107Y368907D01*
X424127Y368800D01*
X424137Y368692D01*
X424167Y368579D01*
X424188Y368464D01*
X424239Y368318D01*
X424255Y368257D01*
X424271Y368225D01*
X424290Y368168D01*
X425447Y365376D01*
X425447Y344320D01*
X425466Y344108D01*
X425482Y343897D01*
X425485Y343884D01*
X425487Y343871D01*
X425543Y343666D01*
X425596Y343461D01*
X425602Y343449D01*
X425605Y343437D01*
X425695Y343247D01*
X425785Y343053D01*
X425793Y343042D01*
X425799Y343030D01*
X425921Y342858D01*
X426044Y342684D01*
X426053Y342675D01*
X426061Y342664D01*
X426214Y342515D01*
X426363Y342367D01*
X426374Y342359D01*
X426383Y342350D01*
X426560Y342231D01*
X426733Y342111D01*
X426748Y342104D01*
X426756Y342098D01*
X426793Y342082D01*
X427014Y341974D01*
X427751Y341669D01*
X429466Y339954D01*
X430394Y337713D01*
X430394Y320287D01*
X429466Y318046D01*
X427751Y316331D01*
X425510Y315403D01*
X390786Y315403D01*
X390751Y315400D01*
X390717Y315402D01*
X390528Y315380D01*
X390337Y315363D01*
X390304Y315354D01*
X390270Y315350D01*
X390087Y315295D01*
X389903Y315245D01*
X389872Y315230D01*
X389839Y315220D01*
X389668Y315133D01*
X389496Y315051D01*
X389468Y315031D01*
X389437Y315016D01*
X389285Y314900D01*
X389130Y314789D01*
X389106Y314764D01*
X389079Y314744D01*
X388950Y314604D01*
X388816Y314467D01*
X388797Y314438D01*
X388773Y314412D01*
X388671Y314251D01*
X388564Y314094D01*
X388550Y314062D01*
X388532Y314033D01*
X388459Y313856D01*
X388382Y313682D01*
X388374Y313648D01*
X388361Y313616D01*
X388321Y313429D01*
X388275Y313244D01*
X388273Y313210D01*
X388266Y313176D01*
X388247Y312864D01*
X388247Y309087D01*
X387319Y306846D01*
X385604Y305131D01*
X383363Y304203D01*
X350937Y304203D01*
X348696Y305131D01*
X346981Y306846D01*
X346053Y309087D01*
X346053Y331513D01*
X346981Y333754D01*
X348696Y335469D01*
X350937Y336397D01*
X352164Y336397D01*
X352199Y336400D01*
X352233Y336398D01*
X352422Y336420D01*
X352613Y336437D01*
X352646Y336446D01*
X352680Y336450D01*
X352863Y336505D01*
X353047Y336555D01*
X353078Y336570D01*
X353111Y336580D01*
X353282Y336667D01*
X353454Y336749D01*
X353482Y336769D01*
X353513Y336784D01*
X353665Y336900D01*
X353820Y337011D01*
X353844Y337036D01*
X353871Y337056D01*
X354000Y337196D01*
X354134Y337333D01*
X354153Y337362D01*
X354177Y337388D01*
X354279Y337549D01*
X354386Y337706D01*
X354400Y337738D01*
X354418Y337767D01*
X354491Y337944D01*
X354568Y338118D01*
X354576Y338152D01*
X354589Y338184D01*
X354629Y338371D01*
X354675Y338556D01*
X354677Y338590D01*
X354684Y338624D01*
X354703Y338936D01*
X354703Y347626D01*
X356598Y352201D01*
X361226Y356828D01*
X361309Y356928D01*
X361400Y357021D01*
X361454Y357101D01*
X361515Y357174D01*
X361579Y357287D01*
X361652Y357394D01*
X361691Y357482D01*
X361738Y357565D01*
X361782Y357687D01*
X361835Y357806D01*
X361857Y357899D01*
X361889Y357989D01*
X361910Y358117D01*
X361941Y358244D01*
X361947Y358339D01*
X361963Y358433D01*
X361961Y358563D01*
X361969Y358693D01*
X361958Y358788D01*
X361957Y358884D01*
X361932Y359011D01*
X361917Y359140D01*
X361889Y359232D01*
X361871Y359326D01*
X361824Y359447D01*
X361787Y359571D01*
X361743Y359656D01*
X361709Y359746D01*
X361641Y359857D01*
X361582Y359973D01*
X361525Y360049D01*
X361475Y360130D01*
X361389Y360228D01*
X361310Y360331D01*
X361240Y360396D01*
X361177Y360468D01*
X361075Y360548D01*
X360979Y360637D01*
X360898Y360688D01*
X360824Y360747D01*
X360709Y360808D01*
X360599Y360878D01*
X360511Y360915D01*
X360427Y360960D01*
X360303Y361000D01*
X360183Y361049D01*
X360089Y361069D01*
X359998Y361099D01*
X359870Y361117D01*
X359743Y361144D01*
X359613Y361152D01*
X359552Y361160D01*
X359508Y361159D01*
X359431Y361163D01*
X353144Y361163D01*
X352933Y361144D01*
X352722Y361128D01*
X352709Y361125D01*
X352696Y361123D01*
X352490Y361067D01*
X352286Y361014D01*
X352274Y361008D01*
X352261Y361005D01*
X352071Y360914D01*
X351878Y360825D01*
X351867Y360817D01*
X351855Y360811D01*
X351683Y360689D01*
X351509Y360566D01*
X351499Y360557D01*
X351489Y360549D01*
X351341Y360397D01*
X351191Y360247D01*
X351184Y360236D01*
X351175Y360227D01*
X351056Y360051D01*
X350935Y359877D01*
X350929Y359862D01*
X350923Y359854D01*
X350907Y359817D01*
X350798Y359596D01*
X350229Y358220D01*
X346370Y354361D01*
X341328Y352273D01*
X335872Y352273D01*
X330830Y354361D01*
X326971Y358220D01*
X324883Y363262D01*
X324883Y383958D01*
X326971Y389000D01*
X330830Y392859D01*
X335872Y394947D01*
X341328Y394947D01*
X346370Y392858D01*
X350517Y388711D01*
X350544Y388689D01*
X350567Y388663D01*
X350716Y388544D01*
X350863Y388422D01*
X350893Y388405D01*
X350920Y388383D01*
X351088Y388293D01*
X351254Y388199D01*
X351286Y388187D01*
X351317Y388171D01*
X351498Y388112D01*
X351678Y388048D01*
X351712Y388042D01*
X351745Y388031D01*
X351934Y388005D01*
X352122Y387974D01*
X352157Y387975D01*
X352191Y387970D01*
X352382Y387978D01*
X352573Y387980D01*
X352607Y387987D01*
X352641Y387988D01*
X352827Y388030D01*
X353015Y388066D01*
X353047Y388079D01*
X353081Y388086D01*
X353257Y388160D01*
X353435Y388228D01*
X353464Y388246D01*
X353496Y388260D01*
X353656Y388363D01*
X353819Y388462D01*
X353845Y388485D01*
X353874Y388504D01*
X354109Y388711D01*
X369091Y403693D01*
X369091Y403694D01*
X372566Y407168D01*
X372649Y407268D01*
X372740Y407361D01*
X372794Y407441D01*
X372855Y407514D01*
X372919Y407627D01*
X372992Y407734D01*
X373031Y407822D01*
X373078Y407905D01*
X373122Y408027D01*
X373175Y408146D01*
X373197Y408239D01*
X373229Y408329D01*
X373250Y408457D01*
X373281Y408584D01*
X373287Y408679D01*
X373303Y408773D01*
X373301Y408903D01*
X373309Y409033D01*
X373298Y409128D01*
X373297Y409224D01*
X373272Y409351D01*
X373257Y409480D01*
X373229Y409572D01*
X373211Y409666D01*
X373164Y409787D01*
X373127Y409911D01*
X373083Y409997D01*
X373049Y410086D01*
X372981Y410197D01*
X372922Y410313D01*
X372865Y410389D01*
X372815Y410470D01*
X372729Y410568D01*
X372650Y410671D01*
X372580Y410736D01*
X372517Y410808D01*
X372415Y410888D01*
X372319Y410977D01*
X372238Y411028D01*
X372164Y411087D01*
X372049Y411148D01*
X371939Y411218D01*
X371851Y411255D01*
X371767Y411300D01*
X371643Y411340D01*
X371523Y411389D01*
X371429Y411409D01*
X371338Y411439D01*
X371210Y411457D01*
X371083Y411484D01*
X370953Y411492D01*
X370892Y411500D01*
X370848Y411499D01*
X370771Y411503D01*
X363587Y411503D01*
X361347Y412431D01*
X360868Y412910D01*
X360742Y413015D01*
X360621Y413127D01*
X360570Y413159D01*
X360523Y413198D01*
X360380Y413280D01*
X360242Y413368D01*
X360185Y413392D01*
X360132Y413422D01*
X359977Y413477D01*
X359825Y413539D01*
X359765Y413552D01*
X359708Y413573D01*
X359546Y413599D01*
X359385Y413634D01*
X359308Y413639D01*
X359264Y413646D01*
X359203Y413645D01*
X359073Y413653D01*
X203876Y413653D01*
X203841Y413650D01*
X203807Y413652D01*
X203618Y413630D01*
X203427Y413613D01*
X203394Y413604D01*
X203360Y413600D01*
X203177Y413545D01*
X202993Y413495D01*
X202962Y413480D01*
X202929Y413470D01*
X202758Y413383D01*
X202586Y413301D01*
X202558Y413281D01*
X202527Y413266D01*
X202375Y413150D01*
X202220Y413039D01*
X202196Y413014D01*
X202169Y412994D01*
X202040Y412854D01*
X201906Y412717D01*
X201887Y412688D01*
X201863Y412662D01*
X201761Y412501D01*
X201654Y412344D01*
X201640Y412312D01*
X201622Y412283D01*
X201549Y412106D01*
X201472Y411932D01*
X201464Y411898D01*
X201451Y411866D01*
X201411Y411679D01*
X201365Y411494D01*
X201363Y411460D01*
X201356Y411426D01*
X201337Y411114D01*
X201337Y410172D01*
X199249Y405130D01*
X195390Y401271D01*
X190348Y399183D01*
X169652Y399183D01*
X167052Y400260D01*
X166941Y400295D01*
X166833Y400339D01*
X166726Y400362D01*
X166623Y400395D01*
X166507Y400409D01*
X166392Y400434D01*
X166238Y400444D01*
X166176Y400451D01*
X166140Y400450D01*
X166080Y400453D01*
X109518Y400453D01*
X109483Y400450D01*
X109449Y400452D01*
X109260Y400430D01*
X109069Y400413D01*
X109036Y400404D01*
X109002Y400400D01*
X108819Y400345D01*
X108635Y400295D01*
X108604Y400280D01*
X108571Y400270D01*
X108400Y400183D01*
X108228Y400101D01*
X108200Y400081D01*
X108169Y400066D01*
X108017Y399950D01*
X107862Y399839D01*
X107838Y399814D01*
X107811Y399794D01*
X107682Y399654D01*
X107548Y399517D01*
X107529Y399488D01*
X107505Y399462D01*
X107403Y399301D01*
X107296Y399144D01*
X107282Y399112D01*
X107264Y399083D01*
X107191Y398906D01*
X107114Y398732D01*
X107106Y398698D01*
X107093Y398666D01*
X107053Y398479D01*
X107007Y398294D01*
X107005Y398260D01*
X106998Y398226D01*
X106979Y397914D01*
X106979Y396103D01*
X98497Y387621D01*
X86503Y387621D01*
X78021Y396103D01*
X78021Y408097D01*
X86503Y416579D01*
X88325Y416579D01*
X88488Y416593D01*
X88653Y416600D01*
X88712Y416613D01*
X88773Y416619D01*
X88932Y416662D01*
X89092Y416698D01*
X89149Y416721D01*
X89207Y416737D01*
X89356Y416808D01*
X89508Y416871D01*
X89559Y416904D01*
X89614Y416931D01*
X89748Y417026D01*
X89886Y417116D01*
X89944Y417167D01*
X89980Y417193D01*
X90023Y417236D01*
X90120Y417322D01*
X96250Y423452D01*
X100824Y425347D01*
X166080Y425347D01*
X166197Y425357D01*
X166314Y425357D01*
X166420Y425377D01*
X166529Y425387D01*
X166642Y425417D01*
X166757Y425438D01*
X166903Y425489D01*
X166963Y425505D01*
X166996Y425521D01*
X167052Y425540D01*
X169652Y426617D01*
X175063Y426617D01*
X175226Y426631D01*
X175391Y426638D01*
X175450Y426651D01*
X175511Y426657D01*
X175670Y426700D01*
X175830Y426736D01*
X175887Y426759D01*
X175945Y426775D01*
X176094Y426846D01*
X176246Y426909D01*
X176297Y426942D01*
X176352Y426969D01*
X176486Y427064D01*
X176624Y427154D01*
X176682Y427205D01*
X176718Y427231D01*
X176761Y427274D01*
X176858Y427360D01*
X186150Y436652D01*
X190724Y438547D01*
X359073Y438547D01*
X359237Y438561D01*
X359401Y438568D01*
X359461Y438581D01*
X359521Y438587D01*
X359680Y438630D01*
X359841Y438666D01*
X359897Y438689D01*
X359956Y438705D01*
X360104Y438776D01*
X360256Y438839D01*
X360307Y438872D01*
X360362Y438899D01*
X360496Y438994D01*
X360634Y439084D01*
X360692Y439135D01*
X360728Y439161D01*
X360771Y439204D01*
X360868Y439290D01*
X361347Y439769D01*
X362681Y440321D01*
X362836Y440402D01*
X362994Y440477D01*
X363035Y440506D01*
X363080Y440530D01*
X363218Y440637D01*
X363360Y440738D01*
X363396Y440774D01*
X363436Y440806D01*
X363553Y440935D01*
X363675Y441060D01*
X363704Y441102D01*
X363738Y441140D01*
X363830Y441288D01*
X363928Y441433D01*
X363949Y441479D01*
X363976Y441522D01*
X364040Y441684D01*
X364111Y441844D01*
X364123Y441893D01*
X364142Y441940D01*
X364177Y442112D01*
X364219Y442281D01*
X364222Y442332D01*
X364232Y442382D01*
X364237Y442556D01*
X364248Y442730D01*
X364242Y442781D01*
X364243Y442832D01*
X364216Y443004D01*
X364197Y443178D01*
X364182Y443226D01*
X364174Y443277D01*
X364118Y443442D01*
X364067Y443609D01*
X364044Y443655D01*
X364028Y443702D01*
X363943Y443855D01*
X363864Y444011D01*
X363833Y444051D01*
X363809Y444096D01*
X363698Y444231D01*
X363593Y444370D01*
X363556Y444405D01*
X363523Y444444D01*
X363391Y444557D01*
X363262Y444676D01*
X363220Y444704D01*
X363181Y444737D01*
X363030Y444825D01*
X362883Y444919D01*
X362836Y444938D01*
X362792Y444964D01*
X362629Y445024D01*
X362467Y445091D01*
X362417Y445102D01*
X362370Y445119D01*
X362198Y445149D01*
X362027Y445187D01*
X361964Y445191D01*
X361926Y445197D01*
X361863Y445197D01*
X361715Y445207D01*
X16139Y446010D01*
X16099Y446006D01*
X16058Y446009D01*
X15875Y445987D01*
X15691Y445971D01*
X15651Y445960D01*
X15611Y445955D01*
X15434Y445901D01*
X15256Y445853D01*
X15219Y445836D01*
X15180Y445824D01*
X15016Y445740D01*
X14849Y445661D01*
X14816Y445637D01*
X14779Y445618D01*
X14633Y445507D01*
X14482Y445400D01*
X14454Y445370D01*
X14421Y445345D01*
X14297Y445210D01*
X14168Y445078D01*
X14145Y445044D01*
X14117Y445014D01*
X14018Y444858D01*
X13915Y444705D01*
X13898Y444668D01*
X13876Y444633D01*
X13807Y444462D01*
X13731Y444294D01*
X13722Y444254D01*
X13706Y444216D01*
X13668Y444036D01*
X13624Y443857D01*
X13621Y443816D01*
X13613Y443776D01*
X13594Y443464D01*
X14150Y232617D01*
X14161Y232491D01*
X14163Y232365D01*
X14182Y232267D01*
X14191Y232169D01*
X14224Y232047D01*
X14248Y231922D01*
X14284Y231830D01*
X14310Y231735D01*
X14365Y231621D01*
X14411Y231502D01*
X14462Y231418D01*
X14505Y231329D01*
X14579Y231226D01*
X14645Y231118D01*
X14710Y231044D01*
X14768Y230963D01*
X14859Y230875D01*
X14943Y230780D01*
X15020Y230719D01*
X15091Y230650D01*
X15197Y230580D01*
X15296Y230501D01*
X15383Y230454D01*
X15465Y230399D01*
X15581Y230348D01*
X15693Y230288D01*
X15787Y230258D01*
X15877Y230218D01*
X16001Y230188D01*
X16121Y230149D01*
X16219Y230136D01*
X16315Y230112D01*
X16442Y230105D01*
X16567Y230088D01*
X16666Y230092D01*
X16765Y230086D01*
X16890Y230101D01*
X17017Y230106D01*
X17114Y230128D01*
X17212Y230139D01*
X17333Y230176D01*
X17457Y230204D01*
X17548Y230242D01*
X17642Y230271D01*
X17755Y230328D01*
X17872Y230377D01*
X17955Y230431D01*
X18043Y230476D01*
X18144Y230553D01*
X18250Y230622D01*
X18352Y230711D01*
X18401Y230749D01*
X18430Y230781D01*
X18484Y230829D01*
X25953Y238297D01*
X45501Y238297D01*
X59324Y224474D01*
X59324Y204926D01*
X45501Y191103D01*
X25953Y191103D01*
X18579Y198477D01*
X18477Y198563D01*
X18381Y198655D01*
X18305Y198707D01*
X18234Y198766D01*
X18118Y198832D01*
X18007Y198906D01*
X17923Y198944D01*
X17843Y198989D01*
X17717Y199034D01*
X17595Y199088D01*
X17505Y199109D01*
X17419Y199140D01*
X17287Y199162D01*
X17157Y199193D01*
X17065Y199199D01*
X16974Y199214D01*
X16841Y199212D01*
X16708Y199220D01*
X16616Y199209D01*
X16524Y199207D01*
X16393Y199182D01*
X16261Y199166D01*
X16172Y199139D01*
X16082Y199122D01*
X15958Y199074D01*
X15830Y199035D01*
X15748Y198993D01*
X15662Y198960D01*
X15548Y198890D01*
X15429Y198830D01*
X15356Y198774D01*
X15277Y198726D01*
X15177Y198638D01*
X15071Y198557D01*
X15009Y198489D01*
X14940Y198428D01*
X14857Y198323D01*
X14767Y198225D01*
X14718Y198147D01*
X14660Y198074D01*
X14597Y197957D01*
X14526Y197844D01*
X14491Y197759D01*
X14448Y197678D01*
X14407Y197551D01*
X14356Y197427D01*
X14337Y197337D01*
X14309Y197249D01*
X14290Y197117D01*
X14263Y196987D01*
X14255Y196863D01*
X14247Y196803D01*
X14249Y196756D01*
X14244Y196675D01*
X14449Y118817D01*
X14461Y118691D01*
X14463Y118564D01*
X14481Y118467D01*
X14491Y118369D01*
X14524Y118247D01*
X14548Y118122D01*
X14584Y118030D01*
X14610Y117935D01*
X14665Y117820D01*
X14711Y117702D01*
X14762Y117618D01*
X14805Y117529D01*
X14879Y117426D01*
X14944Y117317D01*
X15010Y117243D01*
X15068Y117163D01*
X15159Y117075D01*
X15243Y116980D01*
X15320Y116919D01*
X15391Y116850D01*
X15497Y116779D01*
X15596Y116701D01*
X15683Y116654D01*
X15765Y116599D01*
X15881Y116548D01*
X15993Y116488D01*
X16087Y116457D01*
X16177Y116418D01*
X16300Y116388D01*
X16421Y116349D01*
X16519Y116335D01*
X16615Y116312D01*
X16741Y116305D01*
X16867Y116287D01*
X16966Y116291D01*
X17064Y116286D01*
X17190Y116301D01*
X17317Y116306D01*
X17413Y116327D01*
X17512Y116339D01*
X17633Y116376D01*
X17756Y116403D01*
X17848Y116442D01*
X17942Y116470D01*
X18055Y116528D01*
X18172Y116577D01*
X18255Y116631D01*
X18343Y116676D01*
X18444Y116753D01*
X18550Y116821D01*
X18652Y116911D01*
X18701Y116949D01*
X18730Y116980D01*
X18784Y117028D01*
X25953Y124197D01*
X45501Y124197D01*
X58537Y111161D01*
X58564Y111138D01*
X58587Y111112D01*
X58735Y110995D01*
X58882Y110872D01*
X58913Y110854D01*
X58940Y110833D01*
X59108Y110743D01*
X59273Y110648D01*
X59306Y110637D01*
X59337Y110620D01*
X59518Y110562D01*
X59698Y110498D01*
X59732Y110492D01*
X59765Y110481D01*
X59953Y110455D01*
X60142Y110424D01*
X60176Y110425D01*
X60211Y110420D01*
X60401Y110428D01*
G37*
G36*
X655890Y11110D02*
X655890Y11110D01*
X655925Y11113D01*
X655960Y11111D01*
X656149Y11133D01*
X656338Y11150D01*
X656372Y11160D01*
X656407Y11164D01*
X656589Y11219D01*
X656773Y11269D01*
X656805Y11284D01*
X656838Y11294D01*
X657008Y11381D01*
X657179Y11463D01*
X657208Y11483D01*
X657239Y11499D01*
X657391Y11614D01*
X657545Y11725D01*
X657570Y11750D01*
X657598Y11771D01*
X657726Y11911D01*
X657859Y12048D01*
X657879Y12077D01*
X657903Y12103D01*
X658004Y12263D01*
X658111Y12421D01*
X658125Y12453D01*
X658144Y12483D01*
X658216Y12659D01*
X658293Y12833D01*
X658301Y12867D01*
X658315Y12900D01*
X658354Y13085D01*
X658399Y13270D01*
X658402Y13305D01*
X658409Y13340D01*
X658428Y13652D01*
X658399Y44621D01*
X658391Y44703D01*
X658393Y44784D01*
X658371Y44926D01*
X658358Y45070D01*
X658337Y45149D01*
X658324Y45229D01*
X658277Y45365D01*
X658239Y45504D01*
X658204Y45578D01*
X658178Y45655D01*
X658108Y45781D01*
X658046Y45911D01*
X657998Y45977D01*
X657958Y46048D01*
X657867Y46159D01*
X657783Y46276D01*
X657725Y46333D01*
X657673Y46397D01*
X657563Y46490D01*
X657460Y46590D01*
X657392Y46636D01*
X657330Y46689D01*
X657206Y46761D01*
X657087Y46842D01*
X657012Y46875D01*
X656942Y46916D01*
X656807Y46966D01*
X656675Y47024D01*
X656596Y47043D01*
X656519Y47071D01*
X656377Y47096D01*
X656237Y47130D01*
X656156Y47135D01*
X656075Y47149D01*
X655932Y47149D01*
X655788Y47157D01*
X655707Y47148D01*
X655625Y47147D01*
X655526Y47129D01*
X622859Y47129D01*
X620618Y48057D01*
X618903Y49773D01*
X617975Y52013D01*
X617975Y71941D01*
X617959Y72118D01*
X617950Y72295D01*
X617939Y72342D01*
X617935Y72390D01*
X617888Y72561D01*
X617848Y72734D01*
X617829Y72778D01*
X617817Y72824D01*
X617741Y72984D01*
X617670Y73148D01*
X617644Y73188D01*
X617623Y73231D01*
X617520Y73375D01*
X617422Y73523D01*
X617389Y73558D01*
X617361Y73597D01*
X617234Y73721D01*
X617111Y73849D01*
X617073Y73877D01*
X617038Y73911D01*
X616891Y74010D01*
X616748Y74115D01*
X616705Y74136D01*
X616665Y74163D01*
X616503Y74235D01*
X616343Y74313D01*
X616297Y74326D01*
X616254Y74345D01*
X616081Y74387D01*
X615910Y74436D01*
X615863Y74440D01*
X615816Y74452D01*
X615639Y74463D01*
X615462Y74480D01*
X615414Y74477D01*
X615367Y74479D01*
X615190Y74459D01*
X615013Y74445D01*
X614967Y74433D01*
X614920Y74427D01*
X614749Y74376D01*
X614578Y74331D01*
X614534Y74311D01*
X614489Y74297D01*
X614330Y74216D01*
X614169Y74142D01*
X614130Y74114D01*
X614087Y74093D01*
X613946Y73986D01*
X613800Y73884D01*
X613766Y73850D01*
X613728Y73821D01*
X613608Y73690D01*
X613483Y73564D01*
X613456Y73525D01*
X613423Y73490D01*
X613328Y73339D01*
X613227Y73194D01*
X613201Y73140D01*
X613181Y73110D01*
X613157Y73051D01*
X613090Y72913D01*
X612824Y72271D01*
X611109Y70555D01*
X608868Y69627D01*
X576443Y69627D01*
X574202Y70555D01*
X572487Y72271D01*
X571559Y74511D01*
X571559Y104516D01*
X571555Y104551D01*
X571558Y104585D01*
X571536Y104774D01*
X571519Y104965D01*
X571509Y104998D01*
X571505Y105032D01*
X571450Y105215D01*
X571400Y105399D01*
X571385Y105430D01*
X571375Y105463D01*
X571288Y105634D01*
X571207Y105806D01*
X571187Y105834D01*
X571171Y105865D01*
X571056Y106017D01*
X570945Y106172D01*
X570920Y106196D01*
X570899Y106223D01*
X570759Y106352D01*
X570622Y106486D01*
X570593Y106505D01*
X570568Y106529D01*
X570407Y106631D01*
X570249Y106738D01*
X570217Y106752D01*
X570188Y106770D01*
X570011Y106843D01*
X569837Y106920D01*
X569803Y106928D01*
X569771Y106941D01*
X569585Y106981D01*
X569400Y107027D01*
X569365Y107029D01*
X569331Y107036D01*
X569019Y107055D01*
X500558Y107055D01*
X497197Y108447D01*
X486004Y119640D01*
X485877Y119746D01*
X485757Y119857D01*
X485705Y119890D01*
X485658Y119929D01*
X485516Y120011D01*
X485377Y120099D01*
X485320Y120123D01*
X485267Y120153D01*
X485112Y120208D01*
X484960Y120270D01*
X484901Y120283D01*
X484843Y120304D01*
X484681Y120330D01*
X484520Y120365D01*
X484443Y120370D01*
X484399Y120377D01*
X484338Y120376D01*
X484208Y120384D01*
X480383Y120384D01*
X479068Y120929D01*
X478911Y120978D01*
X478756Y121035D01*
X478696Y121046D01*
X478638Y121064D01*
X478475Y121085D01*
X478313Y121113D01*
X478252Y121113D01*
X478191Y121121D01*
X478027Y121112D01*
X477863Y121112D01*
X477802Y121101D01*
X477742Y121098D01*
X477582Y121060D01*
X477420Y121031D01*
X477346Y121006D01*
X477303Y120995D01*
X477247Y120972D01*
X477124Y120929D01*
X475808Y120384D01*
X463383Y120384D01*
X461142Y121312D01*
X459606Y122848D01*
X459480Y122954D01*
X459359Y123065D01*
X459308Y123098D01*
X459261Y123137D01*
X459118Y123219D01*
X458979Y123307D01*
X458923Y123331D01*
X458870Y123361D01*
X458715Y123416D01*
X458563Y123478D01*
X458503Y123491D01*
X458446Y123512D01*
X458283Y123538D01*
X458123Y123573D01*
X458046Y123578D01*
X458001Y123585D01*
X457940Y123584D01*
X457811Y123592D01*
X442632Y123592D01*
X442500Y123647D01*
X442389Y123682D01*
X442281Y123726D01*
X442174Y123749D01*
X442071Y123782D01*
X441955Y123796D01*
X441840Y123821D01*
X441687Y123830D01*
X441624Y123838D01*
X441588Y123837D01*
X441528Y123840D01*
X437239Y123840D01*
X434998Y124768D01*
X433283Y126483D01*
X432355Y128724D01*
X432355Y136750D01*
X433283Y138990D01*
X434998Y140705D01*
X437239Y141634D01*
X441528Y141634D01*
X441645Y141644D01*
X441762Y141644D01*
X441868Y141664D01*
X441977Y141674D01*
X442090Y141704D01*
X442205Y141725D01*
X442351Y141776D01*
X442411Y141792D01*
X442444Y141808D01*
X442500Y141827D01*
X442632Y141882D01*
X459323Y141882D01*
X459486Y141896D01*
X459651Y141903D01*
X459710Y141916D01*
X459771Y141922D01*
X459930Y141965D01*
X460090Y142001D01*
X460147Y142024D01*
X460206Y142040D01*
X460354Y142111D01*
X460506Y142174D01*
X460557Y142207D01*
X460612Y142233D01*
X460746Y142329D01*
X460884Y142418D01*
X460942Y142470D01*
X460978Y142496D01*
X461021Y142539D01*
X461118Y142625D01*
X461142Y142649D01*
X461148Y142652D01*
X461263Y142712D01*
X461382Y142763D01*
X461462Y142816D01*
X461547Y142860D01*
X461650Y142940D01*
X461758Y143012D01*
X461827Y143077D01*
X461903Y143136D01*
X461990Y143233D01*
X462084Y143322D01*
X462141Y143399D01*
X462204Y143470D01*
X462273Y143580D01*
X462350Y143686D01*
X462392Y143772D01*
X462442Y143852D01*
X462490Y143973D01*
X462548Y144090D01*
X462574Y144182D01*
X462609Y144271D01*
X462635Y144398D01*
X462671Y144523D01*
X462680Y144619D01*
X462699Y144712D01*
X462702Y144842D01*
X462715Y144971D01*
X462708Y145067D01*
X462710Y145162D01*
X462690Y145290D01*
X462680Y145420D01*
X462656Y145513D01*
X462641Y145607D01*
X462599Y145730D01*
X462566Y145856D01*
X462526Y145943D01*
X462495Y146033D01*
X462431Y146146D01*
X462377Y146265D01*
X462322Y146343D01*
X462275Y146426D01*
X462193Y146527D01*
X462118Y146633D01*
X462051Y146701D01*
X461990Y146774D01*
X461891Y146859D01*
X461799Y146951D01*
X461720Y147005D01*
X461648Y147067D01*
X461535Y147133D01*
X461428Y147207D01*
X461312Y147264D01*
X461259Y147294D01*
X461217Y147310D01*
X461148Y147344D01*
X461100Y147363D01*
X460215Y148248D01*
X460089Y148354D01*
X459968Y148465D01*
X459917Y148498D01*
X459870Y148537D01*
X459727Y148619D01*
X459588Y148707D01*
X459532Y148730D01*
X459479Y148761D01*
X459324Y148816D01*
X459172Y148878D01*
X459112Y148891D01*
X459055Y148912D01*
X458892Y148938D01*
X458732Y148973D01*
X458654Y148978D01*
X458610Y148985D01*
X458550Y148984D01*
X458420Y148992D01*
X442632Y148992D01*
X442500Y149047D01*
X442389Y149082D01*
X442281Y149126D01*
X442174Y149149D01*
X442071Y149182D01*
X441955Y149196D01*
X441840Y149221D01*
X441687Y149230D01*
X441624Y149238D01*
X441588Y149237D01*
X441528Y149240D01*
X437239Y149240D01*
X434998Y150168D01*
X433283Y151883D01*
X432355Y154124D01*
X432355Y162150D01*
X433283Y164390D01*
X434998Y166105D01*
X437239Y167034D01*
X441528Y167034D01*
X441645Y167044D01*
X441762Y167044D01*
X441868Y167064D01*
X441977Y167074D01*
X442090Y167104D01*
X442205Y167125D01*
X442351Y167176D01*
X442411Y167192D01*
X442444Y167208D01*
X442500Y167227D01*
X442632Y167282D01*
X458630Y167282D01*
X458794Y167296D01*
X458958Y167303D01*
X459018Y167316D01*
X459078Y167322D01*
X459237Y167365D01*
X459398Y167401D01*
X459454Y167424D01*
X459513Y167440D01*
X459661Y167511D01*
X459813Y167574D01*
X459865Y167607D01*
X459919Y167633D01*
X460053Y167729D01*
X460191Y167818D01*
X460249Y167870D01*
X460286Y167896D01*
X460328Y167939D01*
X460425Y168025D01*
X461231Y168830D01*
X461253Y168857D01*
X461279Y168880D01*
X461396Y169029D01*
X461519Y169176D01*
X461537Y169206D01*
X461558Y169233D01*
X461648Y169401D01*
X461743Y169567D01*
X461754Y169599D01*
X461771Y169630D01*
X461830Y169811D01*
X461894Y169991D01*
X461899Y170025D01*
X461910Y170058D01*
X461936Y170247D01*
X461967Y170435D01*
X461967Y170470D01*
X461971Y170504D01*
X461964Y170695D01*
X461961Y170886D01*
X461954Y170920D01*
X461953Y170954D01*
X461912Y171140D01*
X461875Y171328D01*
X461863Y171360D01*
X461855Y171394D01*
X461782Y171570D01*
X461713Y171748D01*
X461695Y171777D01*
X461682Y171809D01*
X461578Y171969D01*
X461479Y172132D01*
X461456Y172158D01*
X461437Y172187D01*
X461231Y172422D01*
X460004Y173648D01*
X459877Y173754D01*
X459756Y173865D01*
X459705Y173898D01*
X459658Y173937D01*
X459516Y174019D01*
X459377Y174107D01*
X459320Y174131D01*
X459267Y174161D01*
X459112Y174216D01*
X458960Y174278D01*
X458901Y174291D01*
X458843Y174312D01*
X458681Y174338D01*
X458520Y174373D01*
X458443Y174378D01*
X458399Y174385D01*
X458338Y174384D01*
X458208Y174392D01*
X442632Y174392D01*
X442500Y174447D01*
X442389Y174482D01*
X442281Y174526D01*
X442174Y174549D01*
X442071Y174582D01*
X441955Y174596D01*
X441840Y174621D01*
X441687Y174630D01*
X441624Y174638D01*
X441588Y174637D01*
X441528Y174640D01*
X437239Y174640D01*
X434998Y175568D01*
X433283Y177283D01*
X432355Y179524D01*
X432355Y187550D01*
X433283Y189790D01*
X434998Y191505D01*
X437239Y192434D01*
X441528Y192434D01*
X441645Y192444D01*
X441762Y192444D01*
X441868Y192464D01*
X441977Y192474D01*
X442090Y192504D01*
X442205Y192525D01*
X442351Y192576D01*
X442411Y192592D01*
X442444Y192608D01*
X442500Y192627D01*
X442632Y192682D01*
X458474Y192682D01*
X458638Y192696D01*
X458803Y192703D01*
X458862Y192716D01*
X458923Y192722D01*
X459082Y192765D01*
X459242Y192801D01*
X459299Y192824D01*
X459357Y192840D01*
X459506Y192911D01*
X459658Y192974D01*
X459709Y193007D01*
X459764Y193033D01*
X459898Y193129D01*
X460036Y193218D01*
X460094Y193270D01*
X460130Y193296D01*
X460173Y193339D01*
X460270Y193425D01*
X460977Y194132D01*
X461051Y194171D01*
X461154Y194251D01*
X461263Y194323D01*
X461332Y194388D01*
X461407Y194447D01*
X461495Y194543D01*
X461589Y194633D01*
X461645Y194710D01*
X461709Y194781D01*
X461778Y194892D01*
X461855Y194997D01*
X461897Y195082D01*
X461947Y195163D01*
X461995Y195284D01*
X462052Y195401D01*
X462078Y195493D01*
X462114Y195582D01*
X462140Y195709D01*
X462175Y195834D01*
X462185Y195929D01*
X462204Y196023D01*
X462207Y196153D01*
X462220Y196282D01*
X462212Y196378D01*
X462215Y196473D01*
X462195Y196601D01*
X462185Y196731D01*
X462161Y196824D01*
X462146Y196918D01*
X462104Y197041D01*
X462071Y197167D01*
X462031Y197253D01*
X462000Y197344D01*
X461936Y197457D01*
X461882Y197575D01*
X461827Y197654D01*
X461780Y197737D01*
X461698Y197838D01*
X461623Y197944D01*
X461556Y198011D01*
X461495Y198085D01*
X461396Y198170D01*
X461304Y198262D01*
X461225Y198316D01*
X461153Y198378D01*
X461046Y198440D01*
X460438Y199048D01*
X460312Y199154D01*
X460191Y199265D01*
X460140Y199298D01*
X460093Y199337D01*
X459950Y199419D01*
X459811Y199507D01*
X459755Y199531D01*
X459702Y199561D01*
X459547Y199616D01*
X459395Y199678D01*
X459335Y199691D01*
X459277Y199712D01*
X459115Y199738D01*
X458954Y199773D01*
X458877Y199778D01*
X458833Y199785D01*
X458772Y199784D01*
X458643Y199792D01*
X442632Y199792D01*
X442500Y199847D01*
X442389Y199882D01*
X442281Y199926D01*
X442174Y199949D01*
X442071Y199982D01*
X441955Y199996D01*
X441840Y200021D01*
X441687Y200030D01*
X441624Y200038D01*
X441588Y200037D01*
X441528Y200040D01*
X437239Y200040D01*
X434998Y200968D01*
X433283Y202683D01*
X432355Y204924D01*
X432355Y212950D01*
X433283Y215190D01*
X434998Y216905D01*
X437239Y217834D01*
X441528Y217834D01*
X441645Y217844D01*
X441762Y217844D01*
X441868Y217864D01*
X441977Y217874D01*
X442090Y217904D01*
X442205Y217925D01*
X442351Y217976D01*
X442411Y217992D01*
X442444Y218008D01*
X442500Y218027D01*
X442632Y218082D01*
X458123Y218082D01*
X458287Y218096D01*
X458452Y218103D01*
X458511Y218116D01*
X458572Y218122D01*
X458731Y218165D01*
X458891Y218201D01*
X458947Y218224D01*
X459006Y218240D01*
X459154Y218311D01*
X459307Y218374D01*
X459358Y218407D01*
X459413Y218433D01*
X459546Y218529D01*
X459685Y218618D01*
X459743Y218670D01*
X459779Y218696D01*
X459821Y218739D01*
X459919Y218825D01*
X460959Y219865D01*
X463199Y220793D01*
X473144Y220793D01*
X473274Y220805D01*
X473403Y220807D01*
X473497Y220825D01*
X473592Y220833D01*
X473718Y220867D01*
X473845Y220892D01*
X473935Y220927D01*
X474027Y220952D01*
X474144Y221007D01*
X474265Y221054D01*
X474347Y221104D01*
X474433Y221145D01*
X474539Y221221D01*
X474650Y221288D01*
X474722Y221352D01*
X474799Y221407D01*
X474890Y221500D01*
X474988Y221586D01*
X475047Y221661D01*
X475114Y221730D01*
X475186Y221838D01*
X475267Y221940D01*
X475312Y222024D01*
X475366Y222103D01*
X475418Y222222D01*
X475480Y222336D01*
X475509Y222427D01*
X475548Y222515D01*
X475579Y222641D01*
X475619Y222765D01*
X475632Y222859D01*
X475654Y222952D01*
X475662Y223082D01*
X475680Y223211D01*
X475676Y223306D01*
X475682Y223402D01*
X475667Y223531D01*
X475662Y223661D01*
X475641Y223754D01*
X475630Y223849D01*
X475592Y223973D01*
X475564Y224100D01*
X475528Y224188D01*
X475500Y224280D01*
X475441Y224396D01*
X475391Y224516D01*
X475339Y224596D01*
X475295Y224681D01*
X475217Y224785D01*
X475146Y224894D01*
X475060Y224991D01*
X475023Y225040D01*
X474990Y225070D01*
X474939Y225128D01*
X471056Y229012D01*
X470930Y229117D01*
X470809Y229229D01*
X470757Y229261D01*
X470710Y229300D01*
X470568Y229382D01*
X470429Y229470D01*
X470372Y229494D01*
X470320Y229524D01*
X470165Y229579D01*
X470012Y229641D01*
X469953Y229654D01*
X469895Y229675D01*
X469733Y229701D01*
X469572Y229736D01*
X469495Y229741D01*
X469451Y229748D01*
X469390Y229747D01*
X469260Y229755D01*
X341608Y229755D01*
X341478Y229744D01*
X341348Y229742D01*
X341254Y229724D01*
X341159Y229715D01*
X341034Y229681D01*
X340906Y229656D01*
X340817Y229622D01*
X340725Y229597D01*
X340608Y229541D01*
X340486Y229494D01*
X340404Y229444D01*
X340318Y229403D01*
X340213Y229328D01*
X340101Y229260D01*
X340030Y229197D01*
X339952Y229141D01*
X339861Y229048D01*
X339764Y228962D01*
X339705Y228887D01*
X339638Y228819D01*
X339565Y228711D01*
X339485Y228609D01*
X339439Y228525D01*
X339386Y228446D01*
X339333Y228327D01*
X339272Y228212D01*
X339242Y228121D01*
X339204Y228034D01*
X339173Y227907D01*
X339133Y227784D01*
X339120Y227689D01*
X339097Y227596D01*
X339089Y227467D01*
X339071Y227338D01*
X339075Y227242D01*
X339069Y227147D01*
X339084Y227018D01*
X339090Y226888D01*
X339110Y226795D01*
X339121Y226700D01*
X339159Y226575D01*
X339187Y226448D01*
X339224Y226360D01*
X339252Y226269D01*
X339311Y226153D01*
X339361Y226033D01*
X339413Y225952D01*
X339456Y225867D01*
X339535Y225764D01*
X339605Y225655D01*
X339691Y225557D01*
X339728Y225509D01*
X339761Y225478D01*
X339812Y225420D01*
X346407Y218825D01*
X346533Y218720D01*
X346654Y218608D01*
X346706Y218576D01*
X346753Y218536D01*
X346895Y218455D01*
X347034Y218367D01*
X347091Y218343D01*
X347144Y218313D01*
X347298Y218258D01*
X347451Y218196D01*
X347510Y218183D01*
X347568Y218162D01*
X347730Y218135D01*
X347891Y218101D01*
X347968Y218096D01*
X348012Y218089D01*
X348073Y218090D01*
X348203Y218082D01*
X381470Y218082D01*
X381602Y218027D01*
X381714Y217992D01*
X381822Y217948D01*
X381928Y217925D01*
X382032Y217892D01*
X382148Y217877D01*
X382262Y217853D01*
X382416Y217843D01*
X382479Y217835D01*
X382515Y217837D01*
X382574Y217834D01*
X386864Y217834D01*
X389105Y216905D01*
X390820Y215190D01*
X391748Y212950D01*
X391748Y204924D01*
X390820Y202683D01*
X389105Y200968D01*
X386864Y200040D01*
X382574Y200040D01*
X382458Y200030D01*
X382341Y200029D01*
X382234Y200010D01*
X382126Y200000D01*
X382013Y199970D01*
X381898Y199949D01*
X381752Y199898D01*
X381691Y199882D01*
X381659Y199866D01*
X381602Y199847D01*
X381470Y199792D01*
X372671Y199792D01*
X372541Y199781D01*
X372411Y199779D01*
X372318Y199761D01*
X372222Y199752D01*
X372097Y199718D01*
X371969Y199693D01*
X371880Y199659D01*
X371788Y199634D01*
X371671Y199578D01*
X371549Y199531D01*
X371467Y199481D01*
X371381Y199440D01*
X371276Y199365D01*
X371164Y199297D01*
X371093Y199234D01*
X371015Y199178D01*
X370924Y199085D01*
X370827Y198999D01*
X370768Y198924D01*
X370701Y198856D01*
X370628Y198748D01*
X370548Y198646D01*
X370502Y198562D01*
X370449Y198482D01*
X370396Y198364D01*
X370335Y198249D01*
X370305Y198158D01*
X370267Y198071D01*
X370236Y197944D01*
X370196Y197821D01*
X370183Y197726D01*
X370160Y197633D01*
X370152Y197504D01*
X370134Y197375D01*
X370138Y197279D01*
X370132Y197184D01*
X370147Y197055D01*
X370153Y196925D01*
X370173Y196832D01*
X370184Y196737D01*
X370222Y196612D01*
X370250Y196485D01*
X370287Y196397D01*
X370315Y196306D01*
X370374Y196190D01*
X370424Y196070D01*
X370476Y195990D01*
X370519Y195904D01*
X370598Y195801D01*
X370668Y195692D01*
X370754Y195594D01*
X370791Y195546D01*
X370824Y195515D01*
X370875Y195457D01*
X372907Y193425D01*
X373033Y193320D01*
X373154Y193208D01*
X373206Y193176D01*
X373253Y193136D01*
X373395Y193055D01*
X373534Y192967D01*
X373591Y192943D01*
X373644Y192913D01*
X373798Y192858D01*
X373951Y192796D01*
X374010Y192783D01*
X374068Y192762D01*
X374230Y192735D01*
X374391Y192701D01*
X374468Y192696D01*
X374512Y192689D01*
X374573Y192690D01*
X374703Y192682D01*
X381470Y192682D01*
X381602Y192627D01*
X381714Y192592D01*
X381822Y192548D01*
X381928Y192525D01*
X382032Y192492D01*
X382148Y192478D01*
X382262Y192453D01*
X382416Y192443D01*
X382479Y192435D01*
X382515Y192437D01*
X382574Y192434D01*
X386864Y192434D01*
X389105Y191505D01*
X390820Y189790D01*
X391748Y187550D01*
X391748Y179524D01*
X390820Y177283D01*
X389105Y175568D01*
X386864Y174640D01*
X382574Y174640D01*
X382458Y174630D01*
X382341Y174629D01*
X382234Y174610D01*
X382126Y174600D01*
X382013Y174569D01*
X381898Y174548D01*
X381752Y174498D01*
X381691Y174482D01*
X381658Y174466D01*
X381602Y174447D01*
X381470Y174392D01*
X368044Y174392D01*
X364683Y175784D01*
X353656Y186812D01*
X353530Y186917D01*
X353409Y187029D01*
X353357Y187061D01*
X353310Y187100D01*
X353168Y187182D01*
X353029Y187270D01*
X352972Y187294D01*
X352920Y187324D01*
X352765Y187379D01*
X352612Y187441D01*
X352553Y187454D01*
X352495Y187475D01*
X352333Y187501D01*
X352172Y187536D01*
X352095Y187541D01*
X352051Y187548D01*
X351990Y187547D01*
X351860Y187555D01*
X351268Y187555D01*
X351233Y187552D01*
X351199Y187554D01*
X351010Y187532D01*
X350819Y187515D01*
X350786Y187506D01*
X350752Y187502D01*
X350569Y187447D01*
X350385Y187397D01*
X350354Y187382D01*
X350321Y187372D01*
X350150Y187285D01*
X349978Y187203D01*
X349950Y187183D01*
X349919Y187168D01*
X349767Y187052D01*
X349612Y186941D01*
X349588Y186916D01*
X349561Y186896D01*
X349432Y186756D01*
X349298Y186619D01*
X349279Y186590D01*
X349255Y186564D01*
X349153Y186403D01*
X349046Y186246D01*
X349032Y186214D01*
X349014Y186185D01*
X348941Y186008D01*
X348864Y185834D01*
X348856Y185800D01*
X348843Y185768D01*
X348803Y185581D01*
X348757Y185396D01*
X348755Y185362D01*
X348748Y185328D01*
X348729Y185016D01*
X348729Y183486D01*
X348086Y181936D01*
X348037Y181778D01*
X347980Y181624D01*
X347970Y181564D01*
X347952Y181506D01*
X347931Y181342D01*
X347902Y181181D01*
X347903Y181120D01*
X347895Y181059D01*
X347903Y180895D01*
X347904Y180730D01*
X347915Y180670D01*
X347918Y180610D01*
X347953Y180460D01*
X347957Y180420D01*
X347965Y180394D01*
X347985Y180287D01*
X348010Y180215D01*
X348020Y180171D01*
X348044Y180115D01*
X348086Y179992D01*
X348385Y179271D01*
X348385Y169821D01*
X348388Y169786D01*
X348386Y169752D01*
X348408Y169562D01*
X348425Y169372D01*
X348434Y169339D01*
X348438Y169305D01*
X348493Y169122D01*
X348543Y168938D01*
X348558Y168907D01*
X348568Y168874D01*
X348655Y168703D01*
X348737Y168531D01*
X348757Y168503D01*
X348773Y168472D01*
X348888Y168320D01*
X348999Y168165D01*
X349024Y168141D01*
X349045Y168114D01*
X349185Y167985D01*
X349322Y167851D01*
X349350Y167832D01*
X349376Y167808D01*
X349537Y167706D01*
X349695Y167599D01*
X349726Y167585D01*
X349756Y167567D01*
X349932Y167494D01*
X350106Y167417D01*
X350140Y167409D01*
X350172Y167396D01*
X350359Y167355D01*
X350544Y167310D01*
X350578Y167308D01*
X350612Y167301D01*
X350924Y167282D01*
X381470Y167282D01*
X381602Y167227D01*
X381714Y167192D01*
X381822Y167148D01*
X381928Y167125D01*
X382032Y167092D01*
X382148Y167077D01*
X382262Y167053D01*
X382416Y167043D01*
X382479Y167035D01*
X382515Y167037D01*
X382574Y167034D01*
X386864Y167034D01*
X389105Y166105D01*
X390820Y164390D01*
X391748Y162150D01*
X391748Y154124D01*
X390820Y151883D01*
X389105Y150168D01*
X386864Y149240D01*
X382574Y149240D01*
X382458Y149230D01*
X382341Y149229D01*
X382234Y149210D01*
X382126Y149200D01*
X382013Y149170D01*
X381898Y149149D01*
X381752Y149098D01*
X381691Y149082D01*
X381659Y149066D01*
X381602Y149047D01*
X381470Y148992D01*
X349728Y148992D01*
X349517Y148973D01*
X349306Y148957D01*
X349293Y148953D01*
X349280Y148952D01*
X349074Y148896D01*
X348870Y148843D01*
X348858Y148837D01*
X348845Y148834D01*
X348655Y148743D01*
X348461Y148654D01*
X348450Y148646D01*
X348439Y148640D01*
X348267Y148517D01*
X348093Y148395D01*
X348083Y148386D01*
X348073Y148378D01*
X347924Y148225D01*
X347775Y148076D01*
X347768Y148065D01*
X347759Y148056D01*
X347640Y147880D01*
X347519Y147705D01*
X347512Y147691D01*
X347506Y147682D01*
X347490Y147646D01*
X347483Y147631D01*
X345742Y145890D01*
X345501Y145790D01*
X345312Y145692D01*
X345124Y145595D01*
X345113Y145588D01*
X345101Y145581D01*
X344933Y145451D01*
X344765Y145323D01*
X344756Y145314D01*
X344745Y145306D01*
X344603Y145148D01*
X344460Y144992D01*
X344453Y144981D01*
X344444Y144971D01*
X344333Y144793D01*
X344218Y144613D01*
X344213Y144600D01*
X344206Y144589D01*
X344127Y144392D01*
X344047Y144196D01*
X344044Y144183D01*
X344039Y144171D01*
X343997Y143963D01*
X343952Y143756D01*
X343951Y143740D01*
X343949Y143730D01*
X343948Y143690D01*
X343933Y143444D01*
X343933Y131838D01*
X343611Y131059D01*
X343590Y130995D01*
X343579Y130970D01*
X343571Y130937D01*
X343531Y130840D01*
X343508Y130734D01*
X343476Y130630D01*
X343461Y130514D01*
X343437Y130400D01*
X343427Y130246D01*
X343419Y130183D01*
X343421Y130147D01*
X343417Y130088D01*
X343417Y128114D01*
X343429Y127985D01*
X343431Y127855D01*
X343449Y127761D01*
X343457Y127666D01*
X343492Y127540D01*
X343516Y127413D01*
X343551Y127323D01*
X343576Y127231D01*
X343632Y127114D01*
X343679Y126993D01*
X343728Y126911D01*
X343769Y126825D01*
X343845Y126719D01*
X343912Y126608D01*
X343976Y126536D01*
X344031Y126459D01*
X344125Y126368D01*
X344211Y126270D01*
X344285Y126211D01*
X344354Y126145D01*
X344462Y126072D01*
X344564Y125991D01*
X344648Y125946D01*
X344727Y125893D01*
X344846Y125840D01*
X344961Y125778D01*
X345051Y125749D01*
X345139Y125710D01*
X345265Y125679D01*
X345389Y125639D01*
X345484Y125626D01*
X345576Y125604D01*
X345706Y125596D01*
X345835Y125578D01*
X345930Y125582D01*
X346026Y125576D01*
X346155Y125591D01*
X346285Y125596D01*
X346378Y125617D01*
X346473Y125628D01*
X346598Y125666D01*
X346724Y125694D01*
X346812Y125731D01*
X346904Y125758D01*
X347020Y125817D01*
X347140Y125868D01*
X347220Y125919D01*
X347305Y125963D01*
X347409Y126041D01*
X347518Y126112D01*
X347615Y126198D01*
X347664Y126235D01*
X347694Y126268D01*
X347746Y126313D01*
X349988Y127242D01*
X363413Y127242D01*
X364043Y126981D01*
X364122Y126956D01*
X364197Y126923D01*
X364337Y126889D01*
X364473Y126846D01*
X364555Y126836D01*
X364635Y126816D01*
X364778Y126807D01*
X364920Y126789D01*
X365002Y126794D01*
X365084Y126789D01*
X365226Y126805D01*
X365369Y126812D01*
X365450Y126831D01*
X365532Y126841D01*
X365669Y126882D01*
X365808Y126914D01*
X365884Y126947D01*
X365963Y126971D01*
X366090Y127036D01*
X366222Y127092D01*
X366290Y127138D01*
X366364Y127175D01*
X366478Y127262D01*
X366597Y127341D01*
X366657Y127397D01*
X366723Y127447D01*
X366820Y127553D01*
X366923Y127651D01*
X366972Y127718D01*
X367028Y127778D01*
X367105Y127899D01*
X367189Y128015D01*
X367225Y128089D01*
X367270Y128158D01*
X367324Y128291D01*
X367387Y128419D01*
X367409Y128498D01*
X367441Y128575D01*
X367471Y128715D01*
X367510Y128852D01*
X367518Y128934D01*
X367535Y129015D01*
X367550Y129261D01*
X367554Y129300D01*
X367554Y129311D01*
X367555Y129327D01*
X367555Y136750D01*
X368483Y138990D01*
X370198Y140705D01*
X372439Y141634D01*
X376728Y141634D01*
X376845Y141644D01*
X376962Y141644D01*
X377068Y141664D01*
X377177Y141674D01*
X377290Y141704D01*
X377405Y141725D01*
X377551Y141776D01*
X377611Y141792D01*
X377644Y141808D01*
X377700Y141827D01*
X377832Y141882D01*
X381470Y141882D01*
X381602Y141827D01*
X381714Y141792D01*
X381822Y141748D01*
X381928Y141725D01*
X382032Y141692D01*
X382148Y141677D01*
X382262Y141653D01*
X382416Y141643D01*
X382479Y141635D01*
X382515Y141637D01*
X382574Y141634D01*
X386864Y141634D01*
X389105Y140705D01*
X390820Y138990D01*
X391748Y136750D01*
X391748Y128724D01*
X390820Y126483D01*
X389540Y125203D01*
X389434Y125077D01*
X389323Y124956D01*
X389290Y124905D01*
X389251Y124858D01*
X389169Y124715D01*
X389081Y124576D01*
X389058Y124520D01*
X389027Y124467D01*
X388972Y124312D01*
X388910Y124160D01*
X388897Y124100D01*
X388877Y124043D01*
X388850Y123880D01*
X388815Y123720D01*
X388810Y123643D01*
X388803Y123599D01*
X388804Y123537D01*
X388796Y123408D01*
X388796Y75932D01*
X387845Y73635D01*
X387795Y73478D01*
X387739Y73324D01*
X387728Y73264D01*
X387710Y73206D01*
X387689Y73043D01*
X387661Y72881D01*
X387661Y72820D01*
X387653Y72759D01*
X387662Y72595D01*
X387662Y72430D01*
X387673Y72370D01*
X387676Y72309D01*
X387713Y72150D01*
X387743Y71987D01*
X387768Y71914D01*
X387778Y71871D01*
X387802Y71815D01*
X387845Y71692D01*
X388745Y69519D01*
X388745Y61735D01*
X388753Y61646D01*
X388751Y61557D01*
X388773Y61422D01*
X388785Y61286D01*
X388785Y61284D01*
X388745Y59471D01*
X388747Y59449D01*
X388745Y59415D01*
X388745Y57578D01*
X388741Y57550D01*
X388721Y57464D01*
X388702Y57241D01*
X388696Y57192D01*
X388697Y57176D01*
X388695Y57152D01*
X388604Y53008D01*
X388616Y52817D01*
X388624Y52624D01*
X388632Y52592D01*
X388634Y52559D01*
X388680Y52372D01*
X388722Y52185D01*
X388735Y52154D01*
X388743Y52122D01*
X388821Y51947D01*
X388896Y51769D01*
X388914Y51741D01*
X388927Y51711D01*
X389036Y51552D01*
X389140Y51391D01*
X389167Y51361D01*
X389181Y51339D01*
X389223Y51296D01*
X389347Y51157D01*
X389388Y51116D01*
X390316Y48875D01*
X390316Y35450D01*
X389388Y33209D01*
X387673Y31494D01*
X385432Y30566D01*
X373006Y30566D01*
X371691Y31111D01*
X371534Y31160D01*
X371379Y31217D01*
X371319Y31227D01*
X371261Y31245D01*
X371098Y31266D01*
X370936Y31295D01*
X370875Y31294D01*
X370814Y31302D01*
X370650Y31294D01*
X370486Y31293D01*
X370426Y31282D01*
X370365Y31279D01*
X370205Y31242D01*
X370043Y31212D01*
X369970Y31187D01*
X369926Y31177D01*
X369870Y31153D01*
X369747Y31111D01*
X368432Y30566D01*
X356006Y30566D01*
X353766Y31494D01*
X352050Y33209D01*
X352031Y33255D01*
X352015Y33286D01*
X352004Y33318D01*
X351911Y33485D01*
X351823Y33654D01*
X351802Y33681D01*
X351785Y33712D01*
X351664Y33860D01*
X351547Y34010D01*
X351522Y34033D01*
X351500Y34060D01*
X351354Y34184D01*
X351213Y34312D01*
X351183Y34330D01*
X351157Y34353D01*
X350992Y34449D01*
X350831Y34550D01*
X350799Y34562D01*
X350769Y34580D01*
X350589Y34646D01*
X350412Y34716D01*
X350378Y34723D01*
X350346Y34735D01*
X350158Y34768D01*
X349971Y34806D01*
X349937Y34807D01*
X349902Y34813D01*
X349711Y34813D01*
X349521Y34817D01*
X349487Y34812D01*
X349452Y34812D01*
X349264Y34777D01*
X349076Y34748D01*
X349043Y34737D01*
X349009Y34731D01*
X348714Y34629D01*
X347276Y34034D01*
X342849Y34034D01*
X338759Y35728D01*
X335628Y38859D01*
X333934Y42949D01*
X333934Y47376D01*
X335628Y51466D01*
X338759Y54597D01*
X342849Y56291D01*
X347276Y56291D01*
X351599Y54500D01*
X351711Y54465D01*
X351819Y54421D01*
X351925Y54398D01*
X352029Y54366D01*
X352145Y54351D01*
X352259Y54326D01*
X352413Y54317D01*
X352476Y54309D01*
X352512Y54311D01*
X352571Y54307D01*
X361038Y54307D01*
X361894Y53952D01*
X362006Y53917D01*
X362114Y53873D01*
X362220Y53850D01*
X362324Y53818D01*
X362440Y53803D01*
X362554Y53778D01*
X362708Y53769D01*
X362771Y53761D01*
X362807Y53763D01*
X362866Y53759D01*
X367842Y53759D01*
X367849Y53760D01*
X367856Y53759D01*
X368071Y53780D01*
X368291Y53799D01*
X368297Y53801D01*
X368304Y53801D01*
X368512Y53860D01*
X368725Y53918D01*
X368731Y53920D01*
X368738Y53922D01*
X368937Y54018D01*
X369132Y54111D01*
X369137Y54115D01*
X369143Y54118D01*
X369322Y54247D01*
X369498Y54373D01*
X369502Y54378D01*
X369508Y54382D01*
X369659Y54538D01*
X369812Y54696D01*
X369816Y54701D01*
X369820Y54706D01*
X369942Y54889D01*
X370064Y55069D01*
X370067Y55075D01*
X370070Y55081D01*
X370158Y55281D01*
X370246Y55481D01*
X370248Y55487D01*
X370250Y55493D01*
X370301Y55706D01*
X370353Y55918D01*
X370353Y55925D01*
X370355Y55931D01*
X370381Y56243D01*
X370455Y59616D01*
X370453Y59638D01*
X370455Y59672D01*
X370455Y61016D01*
X370452Y61051D01*
X370454Y61085D01*
X370432Y61274D01*
X370415Y61465D01*
X370406Y61498D01*
X370402Y61532D01*
X370347Y61715D01*
X370297Y61899D01*
X370282Y61930D01*
X370272Y61963D01*
X370185Y62134D01*
X370103Y62306D01*
X370083Y62334D01*
X370068Y62365D01*
X369952Y62517D01*
X369841Y62672D01*
X369816Y62696D01*
X369796Y62723D01*
X369656Y62852D01*
X369519Y62986D01*
X369490Y63005D01*
X369464Y63029D01*
X369303Y63131D01*
X369146Y63238D01*
X369114Y63252D01*
X369085Y63270D01*
X368908Y63343D01*
X368734Y63420D01*
X368700Y63428D01*
X368668Y63441D01*
X368481Y63481D01*
X368296Y63527D01*
X368262Y63529D01*
X368228Y63536D01*
X367916Y63555D01*
X341781Y63555D01*
X339822Y64367D01*
X339710Y64402D01*
X339602Y64446D01*
X339496Y64469D01*
X339392Y64501D01*
X339276Y64516D01*
X339162Y64541D01*
X339008Y64550D01*
X338946Y64558D01*
X338909Y64556D01*
X338850Y64560D01*
X330108Y64560D01*
X328942Y65043D01*
X328785Y65092D01*
X328631Y65149D01*
X328571Y65159D01*
X328513Y65178D01*
X328349Y65198D01*
X328188Y65227D01*
X328127Y65227D01*
X328066Y65234D01*
X327902Y65226D01*
X327737Y65225D01*
X327677Y65214D01*
X327616Y65211D01*
X327456Y65174D01*
X327294Y65144D01*
X327221Y65119D01*
X327178Y65109D01*
X327122Y65085D01*
X326999Y65043D01*
X325833Y64560D01*
X317408Y64560D01*
X316242Y65043D01*
X316086Y65092D01*
X315931Y65149D01*
X315871Y65159D01*
X315813Y65178D01*
X315650Y65198D01*
X315488Y65227D01*
X315427Y65227D01*
X315366Y65234D01*
X315201Y65226D01*
X315037Y65225D01*
X314977Y65214D01*
X314916Y65211D01*
X314756Y65174D01*
X314594Y65144D01*
X314522Y65119D01*
X314478Y65109D01*
X314422Y65085D01*
X314299Y65043D01*
X313133Y64560D01*
X307905Y64560D01*
X307870Y64557D01*
X307836Y64559D01*
X307646Y64537D01*
X307456Y64520D01*
X307423Y64511D01*
X307388Y64507D01*
X307205Y64452D01*
X307022Y64402D01*
X306991Y64387D01*
X306957Y64377D01*
X306787Y64290D01*
X306615Y64208D01*
X306587Y64188D01*
X306556Y64172D01*
X306404Y64057D01*
X306249Y63946D01*
X306225Y63921D01*
X306197Y63900D01*
X306068Y63760D01*
X305935Y63623D01*
X305916Y63595D01*
X305892Y63569D01*
X305790Y63408D01*
X305683Y63250D01*
X305669Y63219D01*
X305650Y63189D01*
X305578Y63013D01*
X305501Y62839D01*
X305492Y62805D01*
X305479Y62773D01*
X305439Y62586D01*
X305394Y62401D01*
X305392Y62367D01*
X305385Y62333D01*
X305365Y62021D01*
X305365Y57836D01*
X305368Y57801D01*
X305366Y57767D01*
X305388Y57578D01*
X305405Y57387D01*
X305414Y57354D01*
X305418Y57320D01*
X305474Y57137D01*
X305524Y56953D01*
X305539Y56922D01*
X305549Y56889D01*
X305636Y56718D01*
X305717Y56546D01*
X305737Y56518D01*
X305753Y56487D01*
X305868Y56335D01*
X305979Y56180D01*
X306004Y56156D01*
X306025Y56129D01*
X306165Y56000D01*
X306302Y55866D01*
X306331Y55847D01*
X306356Y55823D01*
X306517Y55721D01*
X306675Y55614D01*
X306707Y55600D01*
X306736Y55582D01*
X306912Y55509D01*
X307087Y55432D01*
X307120Y55424D01*
X307152Y55411D01*
X307339Y55371D01*
X307524Y55325D01*
X307559Y55323D01*
X307593Y55316D01*
X307905Y55297D01*
X315413Y55297D01*
X317654Y54369D01*
X319369Y52654D01*
X320297Y50413D01*
X320297Y37987D01*
X319369Y35746D01*
X317654Y34031D01*
X315413Y33103D01*
X303792Y33103D01*
X303629Y33089D01*
X303464Y33082D01*
X303405Y33069D01*
X303344Y33063D01*
X303185Y33020D01*
X303025Y32984D01*
X302968Y32961D01*
X302909Y32945D01*
X302761Y32874D01*
X302609Y32811D01*
X302558Y32778D01*
X302503Y32751D01*
X302369Y32656D01*
X302231Y32566D01*
X302173Y32515D01*
X302137Y32489D01*
X302094Y32446D01*
X301997Y32360D01*
X286285Y16647D01*
X284230Y15796D01*
X284072Y15714D01*
X283911Y15637D01*
X283873Y15610D01*
X283831Y15588D01*
X283690Y15479D01*
X283545Y15375D01*
X283512Y15341D01*
X283475Y15312D01*
X283356Y15180D01*
X283231Y15052D01*
X283205Y15013D01*
X283173Y14978D01*
X283079Y14827D01*
X282980Y14679D01*
X282960Y14636D01*
X282936Y14596D01*
X282870Y14430D01*
X282798Y14267D01*
X282786Y14221D01*
X282769Y14177D01*
X282733Y14003D01*
X282691Y13829D01*
X282688Y13782D01*
X282679Y13736D01*
X282675Y13558D01*
X282664Y13380D01*
X282669Y13333D01*
X282668Y13286D01*
X282695Y13111D01*
X282716Y12933D01*
X282730Y12888D01*
X282737Y12841D01*
X282795Y12673D01*
X282847Y12502D01*
X282868Y12460D01*
X282883Y12415D01*
X282970Y12260D01*
X283051Y12101D01*
X283080Y12063D01*
X283103Y12022D01*
X283216Y11884D01*
X283323Y11742D01*
X283358Y11710D01*
X283388Y11674D01*
X283523Y11558D01*
X283655Y11437D01*
X283694Y11412D01*
X283730Y11381D01*
X283884Y11291D01*
X284034Y11196D01*
X284078Y11178D01*
X284119Y11154D01*
X284286Y11092D01*
X284451Y11025D01*
X284497Y11015D01*
X284541Y10999D01*
X284717Y10968D01*
X284891Y10930D01*
X284950Y10927D01*
X284985Y10921D01*
X285048Y10921D01*
X285203Y10911D01*
X655890Y11110D01*
G37*
G36*
X616473Y200659D02*
X616473Y200659D01*
X616508Y200657D01*
X616697Y200679D01*
X616887Y200696D01*
X616921Y200705D01*
X616955Y200709D01*
X617138Y200765D01*
X617322Y200815D01*
X617353Y200830D01*
X617386Y200840D01*
X617557Y200926D01*
X617728Y201008D01*
X617757Y201028D01*
X617787Y201044D01*
X617939Y201159D01*
X618095Y201270D01*
X618119Y201295D01*
X618146Y201316D01*
X618275Y201456D01*
X618409Y201593D01*
X618428Y201622D01*
X618451Y201647D01*
X618554Y201808D01*
X618661Y201966D01*
X618675Y201998D01*
X618693Y202027D01*
X618766Y202203D01*
X618843Y202378D01*
X618851Y202411D01*
X618864Y202443D01*
X618904Y202630D01*
X618950Y202815D01*
X618952Y202850D01*
X618959Y202884D01*
X618978Y203196D01*
X618978Y207724D01*
X619906Y209965D01*
X621621Y211680D01*
X623862Y212608D01*
X655699Y212608D01*
X655734Y212611D01*
X655770Y212609D01*
X655958Y212631D01*
X656147Y212648D01*
X656182Y212658D01*
X656217Y212662D01*
X656399Y212717D01*
X656581Y212767D01*
X656614Y212782D01*
X656648Y212792D01*
X656817Y212879D01*
X656988Y212960D01*
X657017Y212981D01*
X657049Y212997D01*
X657200Y213112D01*
X657354Y213222D01*
X657379Y213248D01*
X657408Y213270D01*
X657536Y213409D01*
X657668Y213545D01*
X657688Y213575D01*
X657712Y213601D01*
X657814Y213761D01*
X657920Y213918D01*
X657935Y213951D01*
X657954Y213981D01*
X658026Y214156D01*
X658103Y214330D01*
X658111Y214365D01*
X658125Y214398D01*
X658164Y214583D01*
X658209Y214767D01*
X658211Y214803D01*
X658219Y214838D01*
X658238Y215150D01*
X658230Y223222D01*
X658227Y223256D01*
X658229Y223289D01*
X658207Y223480D01*
X658190Y223671D01*
X658181Y223703D01*
X658177Y223736D01*
X658122Y223920D01*
X658071Y224105D01*
X658057Y224135D01*
X658047Y224167D01*
X657960Y224338D01*
X657877Y224512D01*
X657858Y224539D01*
X657843Y224568D01*
X657727Y224721D01*
X657615Y224877D01*
X657591Y224901D01*
X657571Y224927D01*
X657429Y225057D01*
X657292Y225191D01*
X657264Y225210D01*
X657239Y225232D01*
X657077Y225336D01*
X656918Y225443D01*
X656888Y225456D01*
X656860Y225474D01*
X656682Y225547D01*
X656506Y225625D01*
X656474Y225633D01*
X656443Y225645D01*
X656255Y225686D01*
X656069Y225731D01*
X656036Y225733D01*
X656003Y225740D01*
X655691Y225759D01*
X623610Y225759D01*
X621370Y226687D01*
X619654Y228402D01*
X618726Y230643D01*
X618726Y250139D01*
X618712Y250303D01*
X618705Y250467D01*
X618692Y250527D01*
X618686Y250588D01*
X618643Y250747D01*
X618607Y250907D01*
X618584Y250963D01*
X618568Y251022D01*
X618497Y251170D01*
X618434Y251322D01*
X618401Y251374D01*
X618374Y251429D01*
X618279Y251562D01*
X618190Y251701D01*
X618138Y251758D01*
X618112Y251795D01*
X618069Y251837D01*
X617983Y251935D01*
X607471Y262446D01*
X607381Y262522D01*
X607298Y262604D01*
X607220Y262658D01*
X605176Y264702D01*
X605153Y264737D01*
X605052Y264852D01*
X605013Y264902D01*
X604986Y264926D01*
X604946Y264971D01*
X604065Y265853D01*
X601203Y272761D01*
X601203Y280239D01*
X604065Y287147D01*
X604946Y288029D01*
X605022Y288119D01*
X605104Y288202D01*
X605158Y288280D01*
X607202Y290324D01*
X607237Y290347D01*
X607352Y290448D01*
X607402Y290487D01*
X607426Y290514D01*
X607471Y290554D01*
X609352Y292435D01*
X616261Y295297D01*
X623739Y295297D01*
X630648Y292435D01*
X632529Y290554D01*
X632619Y290478D01*
X632702Y290396D01*
X632780Y290342D01*
X634824Y288298D01*
X634847Y288263D01*
X634948Y288148D01*
X634987Y288098D01*
X635014Y288074D01*
X635054Y288029D01*
X650113Y272969D01*
X653850Y269232D01*
X653951Y269148D01*
X654045Y269057D01*
X654123Y269004D01*
X654196Y268943D01*
X654310Y268878D01*
X654418Y268805D01*
X654505Y268767D01*
X654587Y268720D01*
X654710Y268676D01*
X654830Y268623D01*
X654922Y268601D01*
X655011Y268569D01*
X655140Y268548D01*
X655268Y268517D01*
X655362Y268511D01*
X655455Y268496D01*
X655586Y268497D01*
X655717Y268490D01*
X655811Y268501D01*
X655905Y268502D01*
X656034Y268527D01*
X656165Y268542D01*
X656255Y268569D01*
X656347Y268587D01*
X656470Y268635D01*
X656595Y268673D01*
X656679Y268716D01*
X656767Y268750D01*
X656880Y268818D01*
X656996Y268877D01*
X657071Y268934D01*
X657152Y268984D01*
X657251Y269070D01*
X657355Y269150D01*
X657419Y269219D01*
X657490Y269282D01*
X657571Y269385D01*
X657660Y269481D01*
X657710Y269561D01*
X657769Y269635D01*
X657831Y269751D01*
X657901Y269861D01*
X657937Y269949D01*
X657982Y270032D01*
X658022Y270156D01*
X658072Y270278D01*
X658092Y270370D01*
X658121Y270460D01*
X658139Y270590D01*
X658166Y270718D01*
X658174Y270846D01*
X658182Y270906D01*
X658180Y270952D01*
X658185Y271030D01*
X658127Y332916D01*
X658115Y333045D01*
X658113Y333173D01*
X658095Y333268D01*
X658086Y333365D01*
X658052Y333489D01*
X658028Y333615D01*
X657993Y333706D01*
X657967Y333799D01*
X657912Y333915D01*
X657866Y334035D01*
X657815Y334118D01*
X657774Y334205D01*
X657699Y334310D01*
X657632Y334420D01*
X657568Y334493D01*
X657511Y334571D01*
X657419Y334661D01*
X657333Y334758D01*
X657258Y334818D01*
X657188Y334885D01*
X657081Y334957D01*
X656980Y335037D01*
X656895Y335083D01*
X656815Y335137D01*
X656697Y335189D01*
X656583Y335250D01*
X656491Y335280D01*
X656403Y335319D01*
X656278Y335349D01*
X656155Y335389D01*
X656060Y335402D01*
X655965Y335425D01*
X655837Y335433D01*
X655709Y335450D01*
X655612Y335446D01*
X655516Y335452D01*
X655388Y335437D01*
X655259Y335432D01*
X655165Y335411D01*
X655069Y335400D01*
X654945Y335362D01*
X654820Y335334D01*
X654731Y335297D01*
X654638Y335269D01*
X654523Y335210D01*
X654404Y335161D01*
X654323Y335108D01*
X654237Y335064D01*
X654134Y334986D01*
X654026Y334916D01*
X653927Y334829D01*
X653878Y334792D01*
X653849Y334759D01*
X653792Y334709D01*
X650698Y331615D01*
X650697Y331615D01*
X635054Y315971D01*
X634978Y315881D01*
X634896Y315798D01*
X634842Y315720D01*
X632798Y313676D01*
X632763Y313653D01*
X632648Y313552D01*
X632598Y313513D01*
X632574Y313486D01*
X632529Y313446D01*
X630648Y311565D01*
X623739Y308703D01*
X616261Y308703D01*
X609352Y311565D01*
X607471Y313446D01*
X607381Y313522D01*
X607298Y313604D01*
X607220Y313658D01*
X605176Y315702D01*
X605153Y315737D01*
X605052Y315852D01*
X605013Y315902D01*
X604986Y315926D01*
X604946Y315971D01*
X604065Y316853D01*
X601203Y323761D01*
X601203Y331239D01*
X604065Y338147D01*
X604946Y339029D01*
X605022Y339119D01*
X605104Y339202D01*
X605158Y339280D01*
X607202Y341324D01*
X607237Y341347D01*
X607352Y341448D01*
X607402Y341487D01*
X607426Y341514D01*
X607471Y341554D01*
X618567Y352649D01*
X618672Y352775D01*
X618784Y352896D01*
X618816Y352948D01*
X618855Y352994D01*
X618937Y353137D01*
X619025Y353276D01*
X619049Y353333D01*
X619079Y353385D01*
X619134Y353540D01*
X619196Y353693D01*
X619209Y353752D01*
X619230Y353810D01*
X619256Y353972D01*
X619291Y354133D01*
X619296Y354210D01*
X619303Y354254D01*
X619302Y354315D01*
X619310Y354445D01*
X619310Y374519D01*
X620238Y376760D01*
X621953Y378475D01*
X624194Y379403D01*
X655541Y379403D01*
X655577Y379406D01*
X655613Y379404D01*
X655801Y379426D01*
X655990Y379443D01*
X656024Y379453D01*
X656060Y379457D01*
X656241Y379512D01*
X656424Y379562D01*
X656456Y379577D01*
X656491Y379588D01*
X656660Y379674D01*
X656831Y379755D01*
X656860Y379776D01*
X656892Y379792D01*
X657043Y379907D01*
X657197Y380017D01*
X657222Y380043D01*
X657250Y380065D01*
X657378Y380204D01*
X657511Y380340D01*
X657531Y380370D01*
X657555Y380396D01*
X657656Y380555D01*
X657763Y380713D01*
X657777Y380746D01*
X657797Y380776D01*
X657868Y380951D01*
X657945Y381125D01*
X657954Y381160D01*
X657967Y381193D01*
X658007Y381378D01*
X658052Y381562D01*
X658054Y381598D01*
X658062Y381633D01*
X658080Y381945D01*
X658067Y395897D01*
X658064Y395930D01*
X658066Y395963D01*
X658044Y396154D01*
X658027Y396345D01*
X658018Y396377D01*
X658014Y396411D01*
X657959Y396595D01*
X657908Y396780D01*
X657894Y396810D01*
X657884Y396842D01*
X657797Y397013D01*
X657714Y397186D01*
X657695Y397213D01*
X657680Y397243D01*
X657564Y397396D01*
X657452Y397552D01*
X657428Y397575D01*
X657408Y397602D01*
X657266Y397732D01*
X657129Y397866D01*
X657101Y397884D01*
X657076Y397907D01*
X656914Y398010D01*
X656755Y398117D01*
X656725Y398131D01*
X656697Y398149D01*
X656519Y398222D01*
X656344Y398299D01*
X656311Y398307D01*
X656280Y398320D01*
X656092Y398360D01*
X655906Y398405D01*
X655873Y398407D01*
X655840Y398414D01*
X655528Y398434D01*
X623642Y398434D01*
X621401Y399362D01*
X619686Y401077D01*
X618758Y403318D01*
X618758Y411114D01*
X618755Y411149D01*
X618757Y411183D01*
X618735Y411372D01*
X618718Y411563D01*
X618709Y411596D01*
X618705Y411630D01*
X618649Y411813D01*
X618599Y411997D01*
X618584Y412028D01*
X618574Y412061D01*
X618488Y412232D01*
X618406Y412404D01*
X618386Y412432D01*
X618370Y412463D01*
X618255Y412615D01*
X618144Y412770D01*
X618119Y412794D01*
X618098Y412821D01*
X617958Y412950D01*
X617821Y413084D01*
X617792Y413103D01*
X617767Y413127D01*
X617606Y413229D01*
X617448Y413336D01*
X617416Y413350D01*
X617387Y413368D01*
X617211Y413441D01*
X617036Y413518D01*
X617003Y413526D01*
X616971Y413539D01*
X616784Y413579D01*
X616599Y413625D01*
X616564Y413627D01*
X616530Y413634D01*
X616218Y413653D01*
X484353Y413653D01*
X484223Y413642D01*
X484093Y413640D01*
X484000Y413622D01*
X483905Y413613D01*
X483779Y413579D01*
X483651Y413554D01*
X483562Y413520D01*
X483470Y413495D01*
X483353Y413439D01*
X483231Y413392D01*
X483150Y413342D01*
X483064Y413301D01*
X482958Y413226D01*
X482847Y413158D01*
X482775Y413095D01*
X482697Y413039D01*
X482607Y412946D01*
X482509Y412860D01*
X482450Y412785D01*
X482383Y412717D01*
X482310Y412609D01*
X482230Y412507D01*
X482185Y412423D01*
X482131Y412344D01*
X482079Y412225D01*
X482017Y412110D01*
X481988Y412019D01*
X481949Y411932D01*
X481918Y411805D01*
X481878Y411682D01*
X481865Y411587D01*
X481842Y411494D01*
X481834Y411365D01*
X481817Y411236D01*
X481821Y411140D01*
X481815Y411045D01*
X481830Y410916D01*
X481835Y410786D01*
X481856Y410693D01*
X481867Y410598D01*
X481904Y410473D01*
X481933Y410346D01*
X481969Y410258D01*
X481997Y410167D01*
X482056Y410051D01*
X482106Y409931D01*
X482158Y409851D01*
X482201Y409765D01*
X482280Y409662D01*
X482351Y409553D01*
X482437Y409455D01*
X482473Y409407D01*
X482506Y409376D01*
X482557Y409318D01*
X487479Y404397D01*
X487479Y399775D01*
X487493Y399612D01*
X487500Y399447D01*
X487513Y399388D01*
X487519Y399327D01*
X487562Y399168D01*
X487598Y399008D01*
X487621Y398951D01*
X487637Y398893D01*
X487708Y398744D01*
X487771Y398592D01*
X487804Y398541D01*
X487831Y398486D01*
X487926Y398352D01*
X488016Y398214D01*
X488067Y398156D01*
X488093Y398120D01*
X488136Y398077D01*
X488222Y397980D01*
X491912Y394290D01*
X492038Y394185D01*
X492159Y394073D01*
X492210Y394041D01*
X492257Y394002D01*
X492400Y393920D01*
X492539Y393832D01*
X492595Y393808D01*
X492648Y393778D01*
X492803Y393723D01*
X492955Y393661D01*
X493015Y393648D01*
X493072Y393627D01*
X493235Y393601D01*
X493396Y393566D01*
X493472Y393561D01*
X493517Y393554D01*
X493578Y393555D01*
X493707Y393547D01*
X523319Y393547D01*
X523483Y393561D01*
X523647Y393568D01*
X523707Y393581D01*
X523767Y393587D01*
X523926Y393630D01*
X524087Y393666D01*
X524143Y393689D01*
X524202Y393705D01*
X524350Y393776D01*
X524502Y393839D01*
X524553Y393872D01*
X524608Y393899D01*
X524742Y393994D01*
X524880Y394084D01*
X524938Y394135D01*
X524975Y394161D01*
X525017Y394204D01*
X525114Y394290D01*
X526403Y395579D01*
X538397Y395579D01*
X546879Y387097D01*
X546879Y375103D01*
X543190Y371414D01*
X543085Y371289D01*
X542973Y371167D01*
X542941Y371116D01*
X542902Y371069D01*
X542820Y370927D01*
X542732Y370788D01*
X542708Y370731D01*
X542678Y370678D01*
X542623Y370523D01*
X542561Y370371D01*
X542548Y370311D01*
X542527Y370254D01*
X542501Y370092D01*
X542466Y369931D01*
X542461Y369854D01*
X542454Y369810D01*
X542455Y369749D01*
X542447Y369619D01*
X542447Y342727D01*
X542461Y342563D01*
X542468Y342399D01*
X542481Y342339D01*
X542487Y342279D01*
X542530Y342120D01*
X542566Y341959D01*
X542589Y341903D01*
X542605Y341844D01*
X542676Y341696D01*
X542739Y341544D01*
X542772Y341493D01*
X542799Y341438D01*
X542894Y341304D01*
X542984Y341166D01*
X543035Y341108D01*
X543061Y341072D01*
X543104Y341029D01*
X543190Y340932D01*
X544669Y339454D01*
X545597Y337213D01*
X545597Y317787D01*
X544669Y315546D01*
X542954Y313831D01*
X540713Y312903D01*
X534057Y312903D01*
X533894Y312889D01*
X533729Y312882D01*
X533670Y312869D01*
X533609Y312863D01*
X533450Y312820D01*
X533290Y312784D01*
X533233Y312761D01*
X533175Y312745D01*
X533026Y312674D01*
X532874Y312611D01*
X532823Y312578D01*
X532768Y312551D01*
X532634Y312456D01*
X532496Y312366D01*
X532438Y312315D01*
X532402Y312289D01*
X532359Y312246D01*
X532262Y312160D01*
X504951Y284849D01*
X504876Y284759D01*
X504794Y284676D01*
X504732Y284587D01*
X504662Y284504D01*
X504605Y284402D01*
X504538Y284306D01*
X504470Y284167D01*
X504439Y284113D01*
X504427Y284079D01*
X504401Y284025D01*
X502817Y280202D01*
X499244Y276629D01*
X495758Y275185D01*
X495643Y275125D01*
X495523Y275073D01*
X495444Y275021D01*
X495359Y274976D01*
X495256Y274897D01*
X495148Y274825D01*
X495079Y274759D01*
X495003Y274701D01*
X494916Y274604D01*
X494822Y274514D01*
X494765Y274437D01*
X494701Y274366D01*
X494633Y274256D01*
X494556Y274151D01*
X494514Y274065D01*
X494464Y273984D01*
X494415Y273863D01*
X494358Y273746D01*
X494332Y273655D01*
X494297Y273566D01*
X494271Y273438D01*
X494235Y273313D01*
X494226Y273218D01*
X494207Y273125D01*
X494204Y272995D01*
X494191Y272865D01*
X494198Y272770D01*
X494196Y272674D01*
X494216Y272546D01*
X494226Y272416D01*
X494250Y272324D01*
X494265Y272229D01*
X494307Y272106D01*
X494340Y271981D01*
X494380Y271894D01*
X494411Y271804D01*
X494475Y271690D01*
X494529Y271572D01*
X494584Y271494D01*
X494630Y271410D01*
X494713Y271310D01*
X494787Y271203D01*
X494855Y271136D01*
X494916Y271062D01*
X495015Y270978D01*
X495107Y270886D01*
X495186Y270832D01*
X495258Y270770D01*
X495370Y270704D01*
X495477Y270630D01*
X495594Y270573D01*
X495647Y270542D01*
X495689Y270527D01*
X495758Y270493D01*
X498030Y269552D01*
X536149Y231432D01*
X536150Y231432D01*
X537687Y229895D01*
X537687Y219583D01*
X536150Y218046D01*
X536149Y218045D01*
X531934Y213830D01*
X530396Y212292D01*
X520085Y212292D01*
X518547Y213830D01*
X498722Y233655D01*
X498586Y233769D01*
X498454Y233888D01*
X498414Y233913D01*
X498377Y233944D01*
X498222Y234032D01*
X498072Y234126D01*
X498027Y234143D01*
X497986Y234167D01*
X497819Y234227D01*
X497654Y234292D01*
X497607Y234302D01*
X497562Y234318D01*
X497386Y234347D01*
X497212Y234383D01*
X497165Y234384D01*
X497117Y234392D01*
X496939Y234389D01*
X496762Y234393D01*
X496715Y234386D01*
X496667Y234385D01*
X496492Y234352D01*
X496317Y234324D01*
X496272Y234309D01*
X496225Y234300D01*
X496059Y234236D01*
X495892Y234178D01*
X495850Y234155D01*
X495805Y234138D01*
X495653Y234045D01*
X495498Y233959D01*
X495461Y233928D01*
X495420Y233904D01*
X495287Y233786D01*
X495150Y233673D01*
X495119Y233637D01*
X495083Y233605D01*
X494973Y233466D01*
X494857Y233331D01*
X494833Y233290D01*
X494804Y233252D01*
X494720Y233095D01*
X494630Y232943D01*
X494614Y232898D01*
X494591Y232855D01*
X494536Y232687D01*
X494475Y232520D01*
X494467Y232473D01*
X494452Y232427D01*
X494428Y232252D01*
X494397Y232076D01*
X494397Y232029D01*
X494390Y231981D01*
X494398Y231803D01*
X494398Y231626D01*
X494407Y231579D01*
X494409Y231531D01*
X494447Y231358D01*
X494479Y231183D01*
X494498Y231127D01*
X494506Y231092D01*
X494531Y231034D01*
X494581Y230888D01*
X495645Y228319D01*
X495645Y220138D01*
X495659Y219974D01*
X495666Y219810D01*
X495679Y219750D01*
X495685Y219689D01*
X495728Y219530D01*
X495764Y219370D01*
X495787Y219314D01*
X495803Y219255D01*
X495874Y219107D01*
X495937Y218955D01*
X495970Y218903D01*
X495997Y218848D01*
X496092Y218715D01*
X496182Y218576D01*
X496233Y218519D01*
X496259Y218482D01*
X496302Y218440D01*
X496388Y218342D01*
X496581Y218150D01*
X497509Y215909D01*
X497509Y207633D01*
X497516Y207551D01*
X497514Y207468D01*
X497536Y207327D01*
X497549Y207184D01*
X497570Y207105D01*
X497583Y207023D01*
X497630Y206888D01*
X497667Y206750D01*
X497703Y206676D01*
X497729Y206598D01*
X497799Y206472D01*
X497861Y206343D01*
X497909Y206276D01*
X497949Y206204D01*
X498039Y206094D01*
X498123Y205977D01*
X498182Y205920D01*
X498234Y205856D01*
X498343Y205763D01*
X498445Y205663D01*
X498514Y205617D01*
X498576Y205563D01*
X498700Y205491D01*
X498819Y205411D01*
X498894Y205378D01*
X498965Y205336D01*
X499099Y205287D01*
X499230Y205229D01*
X499310Y205209D01*
X499388Y205181D01*
X499529Y205156D01*
X499668Y205122D01*
X499750Y205117D01*
X499831Y205103D01*
X499974Y205103D01*
X500117Y205094D01*
X500199Y205104D01*
X500281Y205104D01*
X500422Y205130D01*
X500564Y205147D01*
X500643Y205170D01*
X500724Y205185D01*
X500958Y205265D01*
X500995Y205277D01*
X501005Y205282D01*
X501020Y205287D01*
X504781Y206845D01*
X554760Y206845D01*
X554924Y206859D01*
X555088Y206866D01*
X555148Y206879D01*
X555209Y206885D01*
X555368Y206928D01*
X555528Y206964D01*
X555584Y206987D01*
X555643Y207003D01*
X555791Y207074D01*
X555943Y207137D01*
X555995Y207170D01*
X556050Y207197D01*
X556183Y207292D01*
X556322Y207382D01*
X556379Y207433D01*
X556416Y207459D01*
X556458Y207502D01*
X556556Y207588D01*
X570421Y221453D01*
X570526Y221580D01*
X570638Y221700D01*
X570671Y221752D01*
X570710Y221799D01*
X570791Y221941D01*
X570880Y222080D01*
X570903Y222137D01*
X570933Y222190D01*
X570988Y222345D01*
X571051Y222497D01*
X571063Y222556D01*
X571084Y222614D01*
X571111Y222776D01*
X571145Y222937D01*
X571150Y223014D01*
X571157Y223058D01*
X571157Y223119D01*
X571165Y223249D01*
X571165Y231593D01*
X572093Y233834D01*
X573808Y235549D01*
X576049Y236477D01*
X608474Y236477D01*
X610715Y235549D01*
X612430Y233834D01*
X613358Y231593D01*
X613358Y203196D01*
X613361Y203161D01*
X613359Y203126D01*
X613381Y202937D01*
X613398Y202747D01*
X613407Y202714D01*
X613411Y202679D01*
X613466Y202496D01*
X613516Y202313D01*
X613531Y202281D01*
X613541Y202248D01*
X613628Y202078D01*
X613710Y201906D01*
X613730Y201878D01*
X613746Y201847D01*
X613861Y201695D01*
X613972Y201540D01*
X613997Y201516D01*
X614018Y201488D01*
X614158Y201359D01*
X614295Y201226D01*
X614323Y201206D01*
X614349Y201183D01*
X614510Y201080D01*
X614668Y200974D01*
X614699Y200960D01*
X614729Y200941D01*
X614905Y200869D01*
X615079Y200792D01*
X615113Y200783D01*
X615145Y200770D01*
X615332Y200730D01*
X615517Y200685D01*
X615551Y200683D01*
X615585Y200675D01*
X615897Y200656D01*
X616439Y200656D01*
X616473Y200659D01*
G37*
G36*
X109072Y10817D02*
X109072Y10817D01*
X109153Y10824D01*
X109235Y10822D01*
X109377Y10844D01*
X109520Y10857D01*
X109599Y10879D01*
X109680Y10891D01*
X109816Y10938D01*
X109955Y10976D01*
X110028Y11011D01*
X110106Y11037D01*
X110232Y11108D01*
X110361Y11169D01*
X110428Y11217D01*
X110499Y11257D01*
X110610Y11348D01*
X110727Y11432D01*
X110784Y11490D01*
X110847Y11542D01*
X110941Y11651D01*
X111041Y11754D01*
X111087Y11822D01*
X111140Y11884D01*
X111212Y12009D01*
X111293Y12128D01*
X111326Y12202D01*
X111367Y12273D01*
X111417Y12408D01*
X111475Y12540D01*
X111494Y12619D01*
X111522Y12696D01*
X111547Y12837D01*
X111581Y12977D01*
X111586Y13059D01*
X111600Y13139D01*
X111600Y13283D01*
X111609Y13426D01*
X111599Y13508D01*
X111599Y13589D01*
X111573Y13730D01*
X111556Y13874D01*
X111533Y13952D01*
X111518Y14032D01*
X111437Y14268D01*
X111426Y14305D01*
X111421Y14314D01*
X111416Y14328D01*
X111102Y15086D01*
X111102Y33514D01*
X112030Y35755D01*
X113745Y37470D01*
X115986Y38398D01*
X116513Y38398D01*
X116677Y38412D01*
X116841Y38419D01*
X116901Y38432D01*
X116962Y38438D01*
X117121Y38481D01*
X117281Y38517D01*
X117337Y38540D01*
X117396Y38556D01*
X117544Y38627D01*
X117696Y38690D01*
X117748Y38723D01*
X117803Y38750D01*
X117936Y38845D01*
X118075Y38935D01*
X118132Y38986D01*
X118169Y39012D01*
X118211Y39055D01*
X118309Y39141D01*
X127520Y48353D01*
X130881Y49745D01*
X168619Y49745D01*
X171980Y48353D01*
X174644Y45688D01*
X174770Y45583D01*
X174891Y45471D01*
X174943Y45439D01*
X174990Y45400D01*
X175132Y45318D01*
X175271Y45230D01*
X175328Y45206D01*
X175380Y45176D01*
X175535Y45121D01*
X175688Y45059D01*
X175747Y45046D01*
X175805Y45025D01*
X175967Y44999D01*
X176128Y44964D01*
X176205Y44959D01*
X176249Y44952D01*
X176310Y44953D01*
X176440Y44945D01*
X244160Y44945D01*
X244324Y44959D01*
X244488Y44966D01*
X244548Y44979D01*
X244609Y44985D01*
X244767Y45028D01*
X244928Y45064D01*
X244984Y45087D01*
X245043Y45103D01*
X245191Y45174D01*
X245343Y45237D01*
X245395Y45270D01*
X245450Y45297D01*
X245583Y45392D01*
X245722Y45481D01*
X245779Y45533D01*
X245816Y45559D01*
X245859Y45602D01*
X245956Y45688D01*
X247614Y47347D01*
X247689Y47436D01*
X247772Y47519D01*
X247834Y47609D01*
X247903Y47692D01*
X247961Y47794D01*
X248028Y47890D01*
X248095Y48028D01*
X248127Y48083D01*
X248139Y48117D01*
X248165Y48171D01*
X248966Y50104D01*
X252096Y53235D01*
X252712Y53490D01*
X252785Y53528D01*
X252862Y53558D01*
X252985Y53632D01*
X253111Y53698D01*
X253177Y53749D01*
X253247Y53792D01*
X253354Y53886D01*
X253467Y53974D01*
X253523Y54035D01*
X253584Y54090D01*
X253673Y54202D01*
X253769Y54308D01*
X253813Y54378D01*
X253864Y54443D01*
X253931Y54569D01*
X254007Y54691D01*
X254037Y54767D01*
X254076Y54840D01*
X254121Y54976D01*
X254174Y55109D01*
X254190Y55190D01*
X254216Y55268D01*
X254235Y55410D01*
X254264Y55550D01*
X254266Y55632D01*
X254277Y55714D01*
X254271Y55857D01*
X254275Y56000D01*
X254262Y56082D01*
X254259Y56164D01*
X254228Y56304D01*
X254206Y56445D01*
X254179Y56523D01*
X254161Y56603D01*
X254106Y56735D01*
X254059Y56871D01*
X254019Y56943D01*
X253987Y57019D01*
X253910Y57139D01*
X253840Y57264D01*
X253788Y57328D01*
X253743Y57397D01*
X253580Y57582D01*
X253555Y57613D01*
X253547Y57619D01*
X253536Y57631D01*
X250196Y60971D01*
X248804Y64332D01*
X248804Y68057D01*
X248801Y68091D01*
X248803Y68126D01*
X248781Y68315D01*
X248764Y68505D01*
X248755Y68539D01*
X248751Y68573D01*
X248696Y68756D01*
X248646Y68940D01*
X248631Y68971D01*
X248621Y69004D01*
X248534Y69175D01*
X248452Y69346D01*
X248432Y69374D01*
X248417Y69405D01*
X248301Y69557D01*
X248190Y69712D01*
X248165Y69737D01*
X248145Y69764D01*
X248005Y69893D01*
X247868Y70026D01*
X247839Y70046D01*
X247813Y70069D01*
X247652Y70172D01*
X247495Y70278D01*
X247463Y70292D01*
X247434Y70311D01*
X247257Y70383D01*
X247083Y70461D01*
X247049Y70469D01*
X247017Y70482D01*
X246830Y70522D01*
X246645Y70567D01*
X246611Y70569D01*
X246577Y70577D01*
X246265Y70596D01*
X244504Y70596D01*
X244340Y70581D01*
X244175Y70575D01*
X244116Y70561D01*
X244055Y70556D01*
X243896Y70513D01*
X243736Y70477D01*
X243679Y70454D01*
X243621Y70438D01*
X243473Y70367D01*
X243320Y70303D01*
X243269Y70270D01*
X243214Y70244D01*
X243080Y70148D01*
X242942Y70059D01*
X242884Y70008D01*
X242848Y69982D01*
X242805Y69938D01*
X242708Y69852D01*
X241928Y69072D01*
X239687Y68144D01*
X227262Y68144D01*
X225021Y69072D01*
X223306Y70787D01*
X222378Y73028D01*
X222378Y86453D01*
X223306Y88694D01*
X225021Y90409D01*
X227262Y91337D01*
X239687Y91337D01*
X241928Y90409D01*
X242708Y89629D01*
X242834Y89524D01*
X242955Y89412D01*
X243007Y89379D01*
X243053Y89340D01*
X243196Y89259D01*
X243335Y89170D01*
X243391Y89147D01*
X243444Y89117D01*
X243599Y89062D01*
X243751Y88999D01*
X243811Y88987D01*
X243869Y88966D01*
X244030Y88939D01*
X244192Y88905D01*
X244269Y88900D01*
X244313Y88893D01*
X244374Y88893D01*
X244504Y88885D01*
X246437Y88885D01*
X246471Y88889D01*
X246506Y88886D01*
X246695Y88908D01*
X246885Y88925D01*
X246919Y88934D01*
X246953Y88938D01*
X247136Y88994D01*
X247319Y89044D01*
X247351Y89059D01*
X247384Y89069D01*
X247554Y89156D01*
X247726Y89237D01*
X247754Y89257D01*
X247785Y89273D01*
X247937Y89388D01*
X248092Y89499D01*
X248116Y89524D01*
X248144Y89545D01*
X248273Y89685D01*
X248406Y89822D01*
X248426Y89851D01*
X248449Y89876D01*
X248552Y90037D01*
X248658Y90195D01*
X248672Y90227D01*
X248691Y90256D01*
X248763Y90432D01*
X248841Y90607D01*
X248849Y90641D01*
X248862Y90673D01*
X248902Y90859D01*
X248947Y91044D01*
X248949Y91079D01*
X248957Y91113D01*
X248976Y91425D01*
X248976Y95340D01*
X248961Y95503D01*
X248955Y95668D01*
X248941Y95727D01*
X248936Y95788D01*
X248893Y95947D01*
X248857Y96107D01*
X248833Y96164D01*
X248817Y96223D01*
X248747Y96371D01*
X248683Y96523D01*
X248650Y96574D01*
X248624Y96629D01*
X248528Y96763D01*
X248439Y96901D01*
X248388Y96959D01*
X248362Y96995D01*
X248318Y97038D01*
X248232Y97135D01*
X247443Y97924D01*
X247353Y98000D01*
X247270Y98082D01*
X247181Y98143D01*
X247098Y98213D01*
X246996Y98271D01*
X246900Y98338D01*
X246761Y98405D01*
X246707Y98437D01*
X246673Y98449D01*
X246619Y98475D01*
X242296Y100265D01*
X239165Y103396D01*
X237471Y107486D01*
X237471Y111914D01*
X239165Y116004D01*
X242296Y119135D01*
X246386Y120829D01*
X250814Y120829D01*
X254904Y119135D01*
X258035Y116004D01*
X259825Y111681D01*
X259879Y111577D01*
X259924Y111469D01*
X259983Y111378D01*
X260034Y111282D01*
X260105Y111189D01*
X260169Y111091D01*
X260271Y110975D01*
X260309Y110926D01*
X260336Y110902D01*
X260376Y110857D01*
X265873Y105359D01*
X267265Y101998D01*
X267265Y101293D01*
X267268Y101258D01*
X267266Y101224D01*
X267288Y101034D01*
X267305Y100844D01*
X267314Y100811D01*
X267318Y100776D01*
X267374Y100593D01*
X267424Y100410D01*
X267439Y100379D01*
X267449Y100345D01*
X267536Y100175D01*
X267617Y100003D01*
X267637Y99975D01*
X267653Y99944D01*
X267768Y99792D01*
X267879Y99637D01*
X267904Y99613D01*
X267925Y99585D01*
X268065Y99456D01*
X268202Y99323D01*
X268231Y99304D01*
X268256Y99280D01*
X268417Y99178D01*
X268575Y99071D01*
X268607Y99057D01*
X268636Y99038D01*
X268812Y98966D01*
X268987Y98889D01*
X269020Y98881D01*
X269052Y98867D01*
X269239Y98827D01*
X269424Y98782D01*
X269459Y98780D01*
X269493Y98773D01*
X269805Y98753D01*
X275033Y98753D01*
X276199Y98271D01*
X276355Y98222D01*
X276510Y98165D01*
X276570Y98154D01*
X276628Y98136D01*
X276791Y98115D01*
X276954Y98087D01*
X277015Y98087D01*
X277075Y98079D01*
X277240Y98088D01*
X277404Y98088D01*
X277464Y98099D01*
X277525Y98102D01*
X277685Y98140D01*
X277847Y98169D01*
X277920Y98194D01*
X277963Y98204D01*
X278020Y98228D01*
X278142Y98271D01*
X279308Y98753D01*
X287733Y98753D01*
X288899Y98271D01*
X289056Y98222D01*
X289210Y98165D01*
X289270Y98154D01*
X289328Y98136D01*
X289491Y98115D01*
X289654Y98087D01*
X289715Y98087D01*
X289775Y98079D01*
X289940Y98088D01*
X290104Y98088D01*
X290164Y98099D01*
X290225Y98102D01*
X290385Y98140D01*
X290547Y98169D01*
X290620Y98194D01*
X290663Y98204D01*
X290720Y98228D01*
X290842Y98271D01*
X291304Y98462D01*
X291491Y98560D01*
X291681Y98656D01*
X291691Y98664D01*
X291703Y98670D01*
X291871Y98800D01*
X292039Y98928D01*
X292048Y98938D01*
X292059Y98946D01*
X292201Y99103D01*
X292345Y99259D01*
X292352Y99270D01*
X292360Y99280D01*
X292473Y99460D01*
X292586Y99639D01*
X292591Y99651D01*
X292598Y99663D01*
X292677Y99859D01*
X292757Y100056D01*
X292760Y100069D01*
X292765Y100081D01*
X292807Y100288D01*
X292852Y100496D01*
X292853Y100512D01*
X292855Y100522D01*
X292856Y100561D01*
X292871Y100808D01*
X292871Y102214D01*
X294566Y106304D01*
X295519Y107257D01*
X295541Y107284D01*
X295567Y107307D01*
X295685Y107456D01*
X295808Y107603D01*
X295825Y107633D01*
X295847Y107660D01*
X295936Y107828D01*
X296031Y107994D01*
X296043Y108026D01*
X296059Y108057D01*
X296118Y108238D01*
X296182Y108418D01*
X296188Y108452D01*
X296198Y108485D01*
X296224Y108674D01*
X296256Y108862D01*
X296255Y108897D01*
X296260Y108931D01*
X296252Y109122D01*
X296249Y109312D01*
X296243Y109346D01*
X296241Y109381D01*
X296200Y109567D01*
X296164Y109754D01*
X296151Y109787D01*
X296144Y109821D01*
X296070Y109996D01*
X296002Y110174D01*
X295984Y110204D01*
X295970Y110236D01*
X295867Y110397D01*
X295768Y110559D01*
X295745Y110585D01*
X295726Y110614D01*
X295519Y110848D01*
X291777Y114590D01*
X290400Y115968D01*
X290238Y116103D01*
X290076Y116242D01*
X290064Y116248D01*
X290054Y116257D01*
X289871Y116362D01*
X289687Y116469D01*
X289675Y116474D01*
X289663Y116480D01*
X289464Y116551D01*
X289264Y116624D01*
X289252Y116626D01*
X289239Y116631D01*
X289029Y116666D01*
X288821Y116702D01*
X288808Y116702D01*
X288795Y116704D01*
X288583Y116701D01*
X288371Y116701D01*
X288358Y116698D01*
X288345Y116698D01*
X288135Y116658D01*
X287928Y116620D01*
X287913Y116615D01*
X287903Y116613D01*
X287866Y116598D01*
X287754Y116560D01*
X279308Y116560D01*
X278142Y117043D01*
X277985Y117092D01*
X277831Y117149D01*
X277771Y117159D01*
X277713Y117178D01*
X277549Y117198D01*
X277388Y117227D01*
X277327Y117227D01*
X277266Y117234D01*
X277102Y117226D01*
X276937Y117225D01*
X276877Y117214D01*
X276816Y117211D01*
X276656Y117174D01*
X276494Y117144D01*
X276421Y117119D01*
X276378Y117109D01*
X276322Y117085D01*
X276199Y117043D01*
X275033Y116560D01*
X266608Y116560D01*
X264367Y117488D01*
X262652Y119203D01*
X261724Y121444D01*
X261724Y131217D01*
X261713Y131333D01*
X261713Y131450D01*
X261694Y131557D01*
X261684Y131665D01*
X261676Y131695D01*
X261676Y135638D01*
X261680Y135670D01*
X261705Y135785D01*
X261714Y135939D01*
X261722Y136001D01*
X261720Y136038D01*
X261724Y136097D01*
X261724Y141492D01*
X261709Y141655D01*
X261703Y141820D01*
X261689Y141879D01*
X261684Y141940D01*
X261641Y142099D01*
X261605Y142259D01*
X261582Y142316D01*
X261565Y142375D01*
X261495Y142523D01*
X261431Y142675D01*
X261398Y142726D01*
X261372Y142781D01*
X261277Y142915D01*
X261187Y143053D01*
X261136Y143111D01*
X261110Y143147D01*
X261066Y143190D01*
X260980Y143287D01*
X255364Y148904D01*
X255228Y149018D01*
X255096Y149137D01*
X255055Y149162D01*
X255018Y149193D01*
X254865Y149280D01*
X254713Y149375D01*
X254669Y149392D01*
X254627Y149416D01*
X254460Y149475D01*
X254295Y149541D01*
X254248Y149551D01*
X254203Y149567D01*
X254028Y149596D01*
X253854Y149631D01*
X253806Y149632D01*
X253759Y149640D01*
X253581Y149638D01*
X253404Y149642D01*
X253357Y149635D01*
X253309Y149634D01*
X253134Y149600D01*
X252959Y149573D01*
X252914Y149558D01*
X252867Y149549D01*
X252701Y149485D01*
X252533Y149427D01*
X252491Y149404D01*
X252447Y149386D01*
X252295Y149294D01*
X252140Y149208D01*
X252103Y149177D01*
X252062Y149152D01*
X251929Y149035D01*
X251791Y148922D01*
X251760Y148886D01*
X251724Y148854D01*
X251614Y148715D01*
X251499Y148580D01*
X251475Y148539D01*
X251445Y148501D01*
X251361Y148345D01*
X251271Y148191D01*
X251255Y148146D01*
X251232Y148104D01*
X251178Y147936D01*
X251116Y147769D01*
X251108Y147721D01*
X251093Y147676D01*
X251069Y147500D01*
X251038Y147325D01*
X251038Y147277D01*
X251032Y147230D01*
X251039Y147052D01*
X251040Y146875D01*
X251048Y146828D01*
X251050Y146780D01*
X251089Y146607D01*
X251121Y146432D01*
X251140Y146376D01*
X251148Y146341D01*
X251172Y146283D01*
X251222Y146136D01*
X251729Y144914D01*
X251729Y140486D01*
X250035Y136396D01*
X246904Y133265D01*
X242814Y131571D01*
X238386Y131571D01*
X234296Y133266D01*
X233150Y134412D01*
X233024Y134517D01*
X232903Y134629D01*
X232851Y134661D01*
X232805Y134700D01*
X232662Y134782D01*
X232523Y134870D01*
X232467Y134894D01*
X232414Y134924D01*
X232259Y134979D01*
X232107Y135041D01*
X232047Y135054D01*
X231990Y135075D01*
X231827Y135101D01*
X231666Y135136D01*
X231589Y135141D01*
X231545Y135148D01*
X231485Y135147D01*
X231355Y135155D01*
X220781Y135155D01*
X217420Y136547D01*
X208343Y145624D01*
X208253Y145699D01*
X208170Y145782D01*
X208081Y145844D01*
X207998Y145913D01*
X207896Y145971D01*
X207800Y146038D01*
X207661Y146105D01*
X207607Y146137D01*
X207573Y146149D01*
X207519Y146175D01*
X203196Y147966D01*
X200480Y150682D01*
X200380Y150765D01*
X200287Y150856D01*
X200207Y150910D01*
X200134Y150971D01*
X200021Y151035D01*
X199914Y151108D01*
X199826Y151147D01*
X199743Y151194D01*
X199621Y151238D01*
X199502Y151291D01*
X199409Y151313D01*
X199319Y151345D01*
X199191Y151366D01*
X199064Y151397D01*
X198969Y151403D01*
X198875Y151419D01*
X198745Y151417D01*
X198615Y151425D01*
X198520Y151414D01*
X198424Y151413D01*
X198297Y151388D01*
X198168Y151373D01*
X198076Y151345D01*
X197982Y151327D01*
X197861Y151280D01*
X197737Y151243D01*
X197651Y151199D01*
X197562Y151165D01*
X197451Y151097D01*
X197335Y151038D01*
X197259Y150980D01*
X197178Y150931D01*
X197080Y150845D01*
X196977Y150766D01*
X196912Y150696D01*
X196840Y150633D01*
X196760Y150531D01*
X196671Y150435D01*
X196620Y150354D01*
X196561Y150280D01*
X196500Y150165D01*
X196430Y150055D01*
X196393Y149967D01*
X196348Y149883D01*
X196308Y149759D01*
X196259Y149639D01*
X196239Y149545D01*
X196209Y149454D01*
X196191Y149326D01*
X196164Y149198D01*
X196156Y149069D01*
X196148Y149008D01*
X196149Y148963D01*
X196145Y148887D01*
X196145Y138481D01*
X194753Y135120D01*
X174880Y115247D01*
X171519Y113855D01*
X112340Y113855D01*
X112176Y113841D01*
X112012Y113834D01*
X111952Y113821D01*
X111891Y113815D01*
X111732Y113772D01*
X111572Y113736D01*
X111516Y113713D01*
X111457Y113697D01*
X111309Y113626D01*
X111157Y113563D01*
X111105Y113530D01*
X111050Y113503D01*
X110917Y113408D01*
X110778Y113318D01*
X110721Y113267D01*
X110684Y113241D01*
X110642Y113198D01*
X110544Y113112D01*
X91088Y93656D01*
X90983Y93530D01*
X90871Y93409D01*
X90839Y93357D01*
X90800Y93310D01*
X90718Y93168D01*
X90630Y93029D01*
X90606Y92972D01*
X90576Y92920D01*
X90521Y92765D01*
X90459Y92612D01*
X90446Y92553D01*
X90425Y92495D01*
X90399Y92333D01*
X90364Y92172D01*
X90359Y92095D01*
X90352Y92051D01*
X90353Y91990D01*
X90345Y91860D01*
X90345Y55481D01*
X88953Y52120D01*
X83988Y47156D01*
X83883Y47030D01*
X83771Y46909D01*
X83739Y46857D01*
X83700Y46810D01*
X83618Y46668D01*
X83530Y46529D01*
X83506Y46472D01*
X83476Y46420D01*
X83421Y46265D01*
X83359Y46112D01*
X83346Y46053D01*
X83325Y45995D01*
X83299Y45833D01*
X83264Y45672D01*
X83259Y45595D01*
X83252Y45551D01*
X83253Y45490D01*
X83245Y45360D01*
X83245Y40072D01*
X83264Y39860D01*
X83280Y39649D01*
X83283Y39636D01*
X83285Y39623D01*
X83340Y39418D01*
X83394Y39213D01*
X83400Y39201D01*
X83403Y39189D01*
X83493Y38999D01*
X83583Y38805D01*
X83591Y38794D01*
X83597Y38782D01*
X83720Y38609D01*
X83842Y38436D01*
X83851Y38427D01*
X83859Y38416D01*
X84012Y38267D01*
X84161Y38119D01*
X84172Y38111D01*
X84181Y38102D01*
X84357Y37983D01*
X84531Y37863D01*
X84546Y37856D01*
X84554Y37850D01*
X84590Y37834D01*
X84812Y37726D01*
X86155Y37170D01*
X87870Y35455D01*
X88798Y33214D01*
X88798Y14786D01*
X88604Y14318D01*
X88579Y14239D01*
X88545Y14163D01*
X88512Y14024D01*
X88469Y13888D01*
X88459Y13806D01*
X88439Y13725D01*
X88430Y13583D01*
X88412Y13442D01*
X88417Y13359D01*
X88411Y13276D01*
X88428Y13134D01*
X88435Y12992D01*
X88454Y12911D01*
X88464Y12829D01*
X88505Y12692D01*
X88537Y12554D01*
X88570Y12477D01*
X88594Y12398D01*
X88659Y12271D01*
X88715Y12140D01*
X88761Y12071D01*
X88799Y11997D01*
X88885Y11883D01*
X88964Y11764D01*
X89021Y11704D01*
X89071Y11638D01*
X89176Y11542D01*
X89274Y11438D01*
X89341Y11389D01*
X89402Y11333D01*
X89522Y11257D01*
X89638Y11172D01*
X89712Y11136D01*
X89782Y11091D01*
X89914Y11037D01*
X90042Y10975D01*
X90122Y10952D01*
X90199Y10921D01*
X90338Y10891D01*
X90475Y10852D01*
X90558Y10844D01*
X90639Y10826D01*
X90882Y10811D01*
X90923Y10807D01*
X90935Y10808D01*
X90951Y10807D01*
X109072Y10817D01*
G37*
%LPC*%
G36*
X142453Y55203D02*
X142453Y55203D01*
X128630Y69026D01*
X128630Y88574D01*
X142453Y102397D01*
X162001Y102397D01*
X175824Y88574D01*
X175824Y69026D01*
X162001Y55203D01*
X142453Y55203D01*
G37*
%LPD*%
G36*
X245090Y153140D02*
X245090Y153140D01*
X245268Y153142D01*
X245315Y153151D01*
X245362Y153154D01*
X245535Y153194D01*
X245710Y153228D01*
X245754Y153245D01*
X245801Y153256D01*
X245964Y153326D01*
X246130Y153390D01*
X246171Y153415D01*
X246215Y153434D01*
X246363Y153532D01*
X246515Y153624D01*
X246550Y153656D01*
X246590Y153682D01*
X246719Y153804D01*
X246852Y153922D01*
X246882Y153960D01*
X246916Y153993D01*
X247021Y154136D01*
X247131Y154275D01*
X247154Y154317D01*
X247182Y154356D01*
X247260Y154516D01*
X247344Y154672D01*
X247359Y154718D01*
X247380Y154761D01*
X247428Y154932D01*
X247483Y155100D01*
X247490Y155148D01*
X247503Y155194D01*
X247520Y155370D01*
X247545Y155546D01*
X247543Y155594D01*
X247547Y155642D01*
X247533Y155819D01*
X247526Y155996D01*
X247516Y156043D01*
X247512Y156091D01*
X247467Y156262D01*
X247429Y156436D01*
X247410Y156480D01*
X247398Y156526D01*
X247323Y156688D01*
X247255Y156851D01*
X247229Y156891D01*
X247209Y156935D01*
X247107Y157080D01*
X247011Y157230D01*
X246971Y157274D01*
X246951Y157304D01*
X246906Y157348D01*
X246804Y157464D01*
X241647Y162620D01*
X240255Y165981D01*
X240255Y184460D01*
X240241Y184624D01*
X240234Y184788D01*
X240221Y184848D01*
X240215Y184909D01*
X240172Y185067D01*
X240136Y185228D01*
X240113Y185284D01*
X240097Y185343D01*
X240026Y185491D01*
X239963Y185643D01*
X239930Y185695D01*
X239903Y185750D01*
X239808Y185883D01*
X239719Y186022D01*
X239667Y186079D01*
X239641Y186116D01*
X239598Y186159D01*
X239512Y186256D01*
X238056Y187712D01*
X237930Y187817D01*
X237809Y187929D01*
X237757Y187961D01*
X237711Y188000D01*
X237568Y188082D01*
X237429Y188170D01*
X237373Y188194D01*
X237320Y188224D01*
X237164Y188279D01*
X237012Y188341D01*
X236953Y188354D01*
X236895Y188375D01*
X236733Y188401D01*
X236572Y188436D01*
X236495Y188441D01*
X236451Y188448D01*
X236390Y188447D01*
X236260Y188455D01*
X216740Y188455D01*
X216576Y188441D01*
X216412Y188434D01*
X216352Y188421D01*
X216291Y188415D01*
X216132Y188372D01*
X215972Y188336D01*
X215916Y188313D01*
X215857Y188297D01*
X215709Y188226D01*
X215556Y188163D01*
X215505Y188130D01*
X215450Y188103D01*
X215317Y188008D01*
X215178Y187918D01*
X215120Y187867D01*
X215084Y187841D01*
X215042Y187798D01*
X214944Y187712D01*
X208680Y181448D01*
X208605Y181358D01*
X208523Y181275D01*
X208461Y181186D01*
X208391Y181102D01*
X208333Y181001D01*
X205661Y178328D01*
X205594Y178300D01*
X205503Y178241D01*
X205406Y178191D01*
X205314Y178119D01*
X205216Y178056D01*
X205100Y177954D01*
X205050Y177915D01*
X205026Y177888D01*
X204981Y177849D01*
X196888Y169756D01*
X196783Y169630D01*
X196671Y169509D01*
X196639Y169457D01*
X196600Y169410D01*
X196518Y169268D01*
X196430Y169129D01*
X196406Y169072D01*
X196376Y169020D01*
X196321Y168865D01*
X196259Y168712D01*
X196246Y168653D01*
X196225Y168595D01*
X196199Y168433D01*
X196164Y168272D01*
X196159Y168195D01*
X196152Y168151D01*
X196153Y168090D01*
X196145Y167960D01*
X196145Y165913D01*
X196156Y165784D01*
X196158Y165654D01*
X196176Y165560D01*
X196185Y165465D01*
X196219Y165339D01*
X196244Y165212D01*
X196278Y165123D01*
X196303Y165031D01*
X196359Y164913D01*
X196406Y164792D01*
X196456Y164710D01*
X196497Y164624D01*
X196572Y164518D01*
X196640Y164407D01*
X196703Y164336D01*
X196759Y164258D01*
X196852Y164167D01*
X196938Y164070D01*
X197013Y164010D01*
X197081Y163944D01*
X197189Y163871D01*
X197291Y163790D01*
X197375Y163745D01*
X197454Y163692D01*
X197573Y163639D01*
X197688Y163578D01*
X197779Y163548D01*
X197866Y163509D01*
X197993Y163479D01*
X198116Y163438D01*
X198211Y163425D01*
X198304Y163403D01*
X198433Y163395D01*
X198562Y163377D01*
X198658Y163381D01*
X198753Y163375D01*
X198882Y163390D01*
X199012Y163395D01*
X199105Y163416D01*
X199200Y163427D01*
X199325Y163465D01*
X199452Y163493D01*
X199540Y163530D01*
X199631Y163557D01*
X199747Y163617D01*
X199867Y163667D01*
X199947Y163718D01*
X200033Y163762D01*
X200136Y163840D01*
X200245Y163911D01*
X200343Y163997D01*
X200391Y164034D01*
X200422Y164067D01*
X200480Y164118D01*
X203196Y166834D01*
X207286Y168529D01*
X211714Y168529D01*
X215804Y166835D01*
X218935Y163704D01*
X220725Y159381D01*
X220779Y159277D01*
X220824Y159169D01*
X220883Y159078D01*
X220934Y158982D01*
X221005Y158889D01*
X221069Y158791D01*
X221171Y158676D01*
X221209Y158626D01*
X221236Y158601D01*
X221276Y158557D01*
X225644Y154188D01*
X225770Y154083D01*
X225891Y153971D01*
X225943Y153939D01*
X225990Y153900D01*
X226132Y153818D01*
X226271Y153730D01*
X226328Y153706D01*
X226380Y153676D01*
X226535Y153621D01*
X226688Y153559D01*
X226747Y153546D01*
X226805Y153525D01*
X226967Y153499D01*
X227128Y153464D01*
X227205Y153459D01*
X227249Y153452D01*
X227310Y153453D01*
X227440Y153445D01*
X236954Y153445D01*
X237071Y153455D01*
X237188Y153455D01*
X237294Y153475D01*
X237403Y153485D01*
X237516Y153515D01*
X237630Y153536D01*
X237776Y153587D01*
X237837Y153603D01*
X237870Y153619D01*
X237926Y153638D01*
X238386Y153829D01*
X242814Y153829D01*
X244036Y153322D01*
X244206Y153269D01*
X244373Y153210D01*
X244420Y153202D01*
X244466Y153187D01*
X244642Y153165D01*
X244818Y153136D01*
X244865Y153137D01*
X244913Y153131D01*
X245090Y153140D01*
G37*
%LPC*%
G36*
X500339Y48299D02*
X500339Y48299D01*
X492899Y55739D01*
X492899Y58460D01*
X492896Y58495D01*
X492898Y58529D01*
X492876Y58718D01*
X492859Y58909D01*
X492850Y58942D01*
X492846Y58976D01*
X492791Y59159D01*
X492741Y59343D01*
X492726Y59374D01*
X492716Y59407D01*
X492629Y59578D01*
X492547Y59750D01*
X492527Y59778D01*
X492512Y59809D01*
X492396Y59961D01*
X492285Y60116D01*
X492260Y60140D01*
X492240Y60167D01*
X492100Y60296D01*
X491963Y60430D01*
X491934Y60449D01*
X491908Y60473D01*
X491747Y60575D01*
X491590Y60682D01*
X491558Y60696D01*
X491529Y60714D01*
X491352Y60787D01*
X491178Y60864D01*
X491144Y60872D01*
X491112Y60885D01*
X490925Y60925D01*
X490740Y60971D01*
X490706Y60973D01*
X490672Y60980D01*
X490360Y60999D01*
X481289Y60999D01*
X473849Y68439D01*
X473849Y78961D01*
X481289Y86401D01*
X491811Y86401D01*
X499251Y78961D01*
X499251Y76240D01*
X499254Y76205D01*
X499252Y76171D01*
X499274Y75982D01*
X499291Y75791D01*
X499300Y75758D01*
X499304Y75724D01*
X499359Y75541D01*
X499409Y75357D01*
X499424Y75326D01*
X499434Y75293D01*
X499521Y75122D01*
X499603Y74950D01*
X499623Y74922D01*
X499638Y74891D01*
X499754Y74739D01*
X499865Y74584D01*
X499890Y74560D01*
X499910Y74533D01*
X500050Y74404D01*
X500187Y74270D01*
X500216Y74251D01*
X500242Y74227D01*
X500403Y74125D01*
X500560Y74018D01*
X500592Y74004D01*
X500621Y73986D01*
X500798Y73913D01*
X500972Y73836D01*
X501006Y73828D01*
X501038Y73815D01*
X501225Y73775D01*
X501410Y73729D01*
X501444Y73727D01*
X501478Y73720D01*
X501790Y73701D01*
X510861Y73701D01*
X518301Y66261D01*
X518301Y55739D01*
X510861Y48299D01*
X500339Y48299D01*
G37*
%LPD*%
%LPC*%
G36*
X42459Y292688D02*
X42459Y292688D01*
X35167Y299979D01*
X35167Y310290D01*
X42459Y317581D01*
X52770Y317581D01*
X57428Y312923D01*
X57455Y312901D01*
X57478Y312875D01*
X57627Y312757D01*
X57773Y312634D01*
X57804Y312617D01*
X57831Y312596D01*
X57999Y312506D01*
X58164Y312411D01*
X58197Y312399D01*
X58228Y312383D01*
X58409Y312324D01*
X58589Y312260D01*
X58623Y312254D01*
X58656Y312244D01*
X58844Y312218D01*
X59033Y312187D01*
X59068Y312187D01*
X59102Y312182D01*
X59292Y312190D01*
X59483Y312193D01*
X59517Y312199D01*
X59552Y312201D01*
X59738Y312242D01*
X59925Y312278D01*
X59958Y312291D01*
X59991Y312298D01*
X60167Y312372D01*
X60345Y312440D01*
X60375Y312459D01*
X60407Y312472D01*
X60567Y312575D01*
X60730Y312674D01*
X60756Y312697D01*
X60785Y312716D01*
X61019Y312923D01*
X65804Y317708D01*
X76115Y317708D01*
X83406Y310417D01*
X83406Y300105D01*
X76115Y292814D01*
X65804Y292814D01*
X61146Y297473D01*
X61119Y297495D01*
X61096Y297521D01*
X60947Y297639D01*
X60800Y297762D01*
X60770Y297779D01*
X60743Y297800D01*
X60575Y297890D01*
X60409Y297985D01*
X60377Y297997D01*
X60346Y298013D01*
X60165Y298072D01*
X59985Y298136D01*
X59951Y298141D01*
X59918Y298152D01*
X59729Y298178D01*
X59541Y298209D01*
X59506Y298209D01*
X59472Y298214D01*
X59281Y298206D01*
X59090Y298203D01*
X59056Y298197D01*
X59022Y298195D01*
X58836Y298154D01*
X58648Y298118D01*
X58616Y298105D01*
X58582Y298098D01*
X58406Y298024D01*
X58228Y297955D01*
X58199Y297937D01*
X58167Y297924D01*
X58007Y297820D01*
X57844Y297721D01*
X57818Y297698D01*
X57789Y297680D01*
X57554Y297473D01*
X52770Y292688D01*
X42459Y292688D01*
G37*
%LPD*%
D10*
X668173Y454655D02*
X3400Y456200D01*
X4600Y600D01*
X668600Y1600D02*
X668173Y454655D01*
X666573Y955D02*
X4600Y600D01*
D11*
X233474Y96741D03*
X233474Y79741D03*
D12*
X525241Y224739D03*
D13*
X548586Y224865D03*
X252359Y327061D03*
D12*
X229014Y326935D03*
D14*
X270821Y81657D03*
X270821Y133657D03*
X258121Y81657D03*
X283521Y81657D03*
X296221Y81657D03*
X258121Y133657D03*
X283521Y133657D03*
X296221Y133657D03*
X321621Y81657D03*
X321621Y133657D03*
X308921Y81657D03*
X334321Y81657D03*
X308921Y133657D03*
X334321Y133657D03*
D15*
X444451Y132737D03*
X444451Y145437D03*
X444451Y158137D03*
X444451Y170837D03*
X444451Y183537D03*
X444451Y196237D03*
X444451Y208937D03*
X444451Y221637D03*
X379651Y221637D03*
X379651Y208937D03*
X379651Y196237D03*
X379651Y183537D03*
X379651Y170837D03*
X379651Y158137D03*
X379651Y145437D03*
X379651Y132737D03*
D11*
X486412Y209197D03*
X469412Y209197D03*
X362219Y42162D03*
X379219Y42162D03*
D16*
X336788Y173058D03*
X336788Y156058D03*
D11*
X303636Y203076D03*
X320636Y203076D03*
X307301Y177508D03*
X290301Y177508D03*
X486370Y183404D03*
X469370Y183404D03*
X486554Y158032D03*
X469554Y158032D03*
X486596Y131981D03*
X469596Y131981D03*
D16*
X356701Y99145D03*
X356701Y116145D03*
D11*
X276575Y57192D03*
X293575Y57192D03*
D17*
X592544Y168038D03*
X639823Y246856D03*
X640407Y358307D03*
X592655Y90724D03*
X639854Y419530D03*
X592261Y215381D03*
X640075Y191512D03*
X639072Y68226D03*
D18*
X505600Y86400D03*
X486550Y73700D03*
X505600Y61000D03*
D19*
X175627Y241200D03*
D20*
X153227Y145300D03*
D19*
X35727Y100600D03*
X152227Y78800D03*
X35727Y214700D03*
D20*
X153727Y187700D03*
D16*
X325700Y44200D03*
X308700Y44200D03*
D21*
X74700Y24000D03*
X48700Y24200D03*
X150800Y24400D03*
X100100Y24300D03*
X125200Y24300D03*
D22*
X367150Y320300D03*
X293650Y320300D03*
D11*
X413000Y362900D03*
X396000Y362900D03*
D23*
X262400Y383770D02*
X262400Y399010D01*
X338600Y381230D02*
X338600Y365990D01*
D13*
X70959Y305261D03*
D12*
X47614Y305135D03*
D24*
X532400Y381100D03*
X583200Y381100D03*
D23*
X187620Y412900D02*
X172380Y412900D01*
X172380Y387500D02*
X187620Y387500D01*
X187620Y362100D02*
X172380Y362100D01*
D25*
X92500Y402100D03*
X92500Y351300D03*
D26*
X414800Y426100D03*
X373800Y426100D03*
D13*
X146859Y306761D03*
D12*
X123514Y306635D03*
D27*
X530000Y327500D03*
X530000Y276500D03*
X620000Y276500D03*
X620000Y327500D03*
D25*
X473000Y398400D03*
X473000Y347600D03*
D22*
X270250Y259000D03*
X343750Y259000D03*
D28*
X492050Y287396D02*
X492050Y300604D01*
X453950Y300604D02*
X453950Y287396D01*
D29*
X407297Y282000D03*
X407297Y329000D03*
D26*
X515500Y147000D03*
X556500Y147000D03*
D17*
X638000Y134000D03*
D30*
X444451Y221637D02*
X411000Y221637D01*
X403019Y196237D02*
X379651Y196237D01*
X403019Y196237D02*
X411000Y204218D01*
X411369Y204587D02*
X411369Y218200D01*
X411369Y221268D01*
X411000Y221637D01*
X419719Y196237D02*
X444451Y196237D01*
X419719Y196237D02*
X411369Y204587D01*
X422600Y170837D02*
X444451Y170837D01*
X422600Y170837D02*
X418557Y170837D01*
X412476Y176918D01*
X412476Y177472D01*
X411384Y178563D01*
X411000Y178947D01*
X411000Y204218D01*
X411369Y204587D01*
X402890Y170837D02*
X379651Y170837D01*
X402890Y170837D02*
X411000Y178947D01*
X419000Y145437D02*
X444451Y145437D01*
X419000Y145437D02*
X417597Y145437D01*
X410762Y152272D01*
X410762Y177940D02*
X411384Y178563D01*
X403927Y145437D02*
X379651Y145437D01*
X233474Y96741D02*
X223641Y96741D01*
X209600Y82700D01*
X208600Y53700D01*
D31*
X208600Y53700D03*
D30*
X410762Y152272D02*
X410762Y177940D01*
X410762Y152272D02*
X403927Y145437D01*
X422600Y160700D02*
X422600Y170837D01*
D31*
X422600Y160700D03*
D30*
X250164Y125700D02*
X242600Y125700D01*
X233600Y116700D01*
X233600Y96866D01*
X233474Y96741D01*
X209600Y82700D02*
X197300Y95000D01*
D32*
X227100Y219300D03*
D30*
X227000Y172160D02*
X257460Y144241D01*
X227000Y172160D02*
X227000Y185280D01*
X227060Y185340D01*
D32*
X227060Y185340D03*
D30*
X98800Y87100D02*
X98800Y25600D01*
X100100Y24300D01*
X197300Y95000D02*
X197300Y95400D01*
X185700Y107000D01*
X118700Y107000D01*
X98800Y87100D01*
X379651Y221637D02*
X411369Y221637D01*
D33*
X411369Y218200D01*
D30*
X258121Y133657D02*
X250164Y125700D01*
X257460Y134318D02*
X257460Y144241D01*
X257460Y134318D02*
X258121Y133657D01*
D34*
X548586Y224865D02*
X548586Y257914D01*
X530000Y276500D01*
X583200Y339200D02*
X583200Y381100D01*
X570000Y326000D02*
X570000Y284000D01*
X562500Y276500D01*
X530000Y276500D01*
X570000Y326000D02*
X583200Y339200D01*
D35*
X180000Y387500D02*
X156500Y387500D01*
X120300Y351300D02*
X92500Y351300D01*
X120300Y351300D02*
X156500Y387500D01*
X92500Y337649D02*
X123514Y306635D01*
X92500Y337649D02*
X92500Y351300D01*
X180000Y387500D02*
X258510Y387500D01*
X258632Y387502D01*
X258754Y387508D01*
X258876Y387517D01*
X258998Y387531D01*
X259119Y387548D01*
X259239Y387569D01*
X259359Y387594D01*
X259477Y387622D01*
X259595Y387654D01*
X259712Y387690D01*
X259828Y387730D01*
X259942Y387773D01*
X260055Y387820D01*
X260166Y387870D01*
X260276Y387924D01*
X260384Y387981D01*
X260490Y388042D01*
X260594Y388106D01*
X260697Y388173D01*
X260796Y388243D01*
X260894Y388316D01*
X260990Y388393D01*
X261083Y388472D01*
X261173Y388554D01*
X261261Y388639D01*
X261346Y388727D01*
X261428Y388817D01*
X261507Y388910D01*
X261584Y389006D01*
X261657Y389104D01*
X261727Y389203D01*
X261794Y389306D01*
X261858Y389410D01*
X261919Y389516D01*
X261976Y389624D01*
X262030Y389734D01*
X262080Y389845D01*
X262127Y389958D01*
X262170Y390072D01*
X262210Y390188D01*
X262246Y390305D01*
X262278Y390423D01*
X262306Y390541D01*
X262331Y390661D01*
X262352Y390781D01*
X262369Y390902D01*
X262383Y391024D01*
X262392Y391146D01*
X262398Y391268D01*
X262400Y391390D01*
D36*
X229014Y358004D02*
X229014Y326935D01*
X229014Y358004D02*
X262400Y391390D01*
D30*
X325700Y44200D02*
X342900Y27000D01*
X445000Y27000D01*
X468000Y50000D01*
X505600Y86400D02*
X475000Y117000D01*
X426000Y117000D01*
X418000Y125000D01*
X418000Y144437D01*
X419000Y145437D01*
X468000Y110000D02*
X468000Y50000D01*
X468000Y110000D02*
X475000Y117000D01*
X256205Y79741D02*
X233474Y79741D01*
X256205Y79741D02*
X257949Y81485D01*
X276575Y57192D02*
X276262Y56879D01*
X257949Y81485D02*
X258121Y81657D01*
X276575Y57192D02*
X276600Y57166D01*
D31*
X345062Y45162D03*
X289600Y193700D03*
X337600Y185700D03*
D30*
X337600Y173870D01*
X336788Y173058D01*
X290224Y193076D02*
X289600Y193700D01*
X258121Y100179D02*
X258121Y81657D01*
X258121Y100179D02*
X248600Y109700D01*
D31*
X248600Y109700D03*
X240600Y142700D03*
X209500Y157400D03*
D30*
X345062Y45162D02*
X345138Y45162D01*
X290301Y177508D02*
X290301Y192999D01*
X289600Y193700D01*
X257949Y81485D02*
X257949Y66151D01*
X267300Y56800D01*
X276183Y56800D01*
X276575Y57192D01*
X276575Y57075D01*
X276475Y57075D01*
D31*
X258400Y43800D03*
D30*
X276475Y46404D02*
X276475Y57075D01*
X276475Y46404D02*
X273915Y43844D01*
X258444Y43844D01*
X258400Y43800D01*
X240600Y142700D02*
X240200Y143100D01*
X240600Y142700D02*
X239000Y144300D01*
X222600Y144300D01*
X209500Y157400D01*
X257044Y43844D02*
X258444Y43844D01*
X257044Y43844D02*
X249000Y35800D01*
X171600Y35800D01*
X166800Y40600D01*
X132700Y40600D01*
X125300Y33200D01*
X125300Y24400D01*
X125200Y24300D01*
X345062Y45162D02*
X359219Y45162D01*
X362219Y42162D01*
X303636Y203076D02*
X300378Y203076D01*
X290301Y192999D01*
D35*
X286889Y327061D02*
X252359Y327061D01*
X286889Y327061D02*
X293650Y320300D01*
X270250Y296900D02*
X270250Y259000D01*
X270250Y296900D02*
X293650Y320300D01*
D30*
X486596Y131981D02*
X487877Y130700D01*
X639072Y68226D02*
X639500Y68654D01*
X639500Y87700D01*
X611000Y116200D01*
X502377Y116200D01*
X486596Y131981D01*
X468840Y132737D02*
X444451Y132737D01*
X468840Y132737D02*
X469596Y131981D01*
X486554Y158032D02*
X510222Y181700D01*
X568412Y191512D02*
X640075Y191512D01*
X568412Y191512D02*
X558500Y181600D01*
X510322Y181600D01*
X510222Y181700D01*
X469449Y158137D02*
X444451Y158137D01*
X469449Y158137D02*
X469554Y158032D01*
X486370Y183404D02*
X486667Y183700D01*
X492304Y183404D02*
X506600Y197700D01*
X492304Y183404D02*
X486370Y183404D01*
X577600Y215700D02*
X591942Y215700D01*
X592261Y215381D01*
X559600Y197700D02*
X506600Y197700D01*
X559600Y197700D02*
X577600Y215700D01*
X469237Y183537D02*
X444451Y183537D01*
X469237Y183537D02*
X469370Y183404D01*
X469153Y208937D02*
X444451Y208937D01*
X469153Y208937D02*
X469412Y209197D01*
X334788Y133657D02*
X334321Y133657D01*
X336788Y156058D02*
X336710Y158137D01*
X338867Y158137D02*
X379651Y158137D01*
X338867Y158137D02*
X336788Y156058D01*
X334788Y154058D02*
X334788Y133657D01*
X334788Y154058D02*
X336788Y156058D01*
X379651Y132737D02*
X379651Y77751D01*
X334321Y81657D02*
X334321Y81979D01*
X334321Y89421D01*
X334321Y81979D02*
X343600Y72700D01*
X374600Y72700D01*
X379600Y67700D01*
X379600Y59543D01*
X379219Y42162D01*
X374600Y72700D02*
X379651Y77751D01*
X321621Y133657D02*
X320976Y133657D01*
X321621Y133657D02*
X321621Y193060D01*
X320636Y203076D01*
X325260Y196700D01*
X369863Y183537D02*
X379651Y183537D01*
X369863Y183537D02*
X356700Y196700D01*
X325260Y196700D01*
X296221Y81657D02*
X296221Y59837D01*
X293575Y57192D01*
X300459Y43755D02*
X308700Y44200D01*
X300459Y43755D02*
X297600Y43600D01*
X293100Y48800D01*
X293100Y56717D02*
X293575Y57192D01*
X293100Y56717D02*
X293100Y48800D01*
X300459Y43755D02*
X281105Y24400D01*
X150800Y24400D01*
X303155Y116145D02*
X356701Y116145D01*
X303155Y116145D02*
X296600Y122700D01*
X296600Y133277D01*
X296221Y133657D01*
D37*
X556500Y147000D02*
X561500Y142000D01*
X574000Y142000D01*
D31*
X574000Y142000D03*
D38*
X620000Y327500D02*
X640407Y347907D01*
X640407Y358307D01*
D30*
X308921Y133657D02*
X308600Y133977D01*
X308600Y159200D01*
X308600Y176209D01*
X307301Y177508D01*
X343363Y208937D02*
X379651Y208937D01*
X343363Y208937D02*
X329600Y222700D01*
X295600Y222700D01*
X275600Y202700D01*
X275600Y166900D01*
X283500Y159000D01*
X308400Y159000D01*
X308600Y159200D01*
X200500Y186100D02*
X200500Y186200D01*
X211900Y197600D01*
X241100Y197600D02*
X249400Y189300D01*
X249400Y167800D01*
X271200Y146000D01*
X271200Y134036D01*
X270821Y133657D01*
X241100Y197600D02*
X211900Y197600D01*
X200500Y186200D02*
X200400Y186200D01*
X187000Y172800D01*
X187000Y140300D01*
X169700Y123000D01*
X107500Y123000D01*
X81200Y96700D01*
X81200Y57300D01*
X74100Y50200D01*
X74100Y24600D01*
X74700Y24000D01*
X283521Y133657D02*
X283521Y145879D01*
X271700Y157700D01*
X271700Y158000D01*
X266800Y162900D01*
X266800Y163100D01*
X260700Y169200D01*
X260700Y194800D01*
X248900Y206600D01*
X65600Y73100D02*
X47200Y54700D01*
X47200Y25700D01*
X48700Y24200D01*
X137800Y206600D02*
X248900Y206600D01*
X137800Y206600D02*
X128400Y197200D01*
X128400Y142500D01*
X121400Y135500D01*
X99400Y135500D01*
X65600Y101700D01*
X65600Y73100D01*
D35*
X367150Y320300D02*
X367150Y345150D01*
X384900Y362900D02*
X396000Y362900D01*
X384900Y362900D02*
X367150Y345150D01*
X180000Y412900D02*
X103300Y412900D01*
X92500Y402100D01*
X193200Y426100D02*
X373800Y426100D01*
X193200Y426100D02*
X180000Y412900D01*
D30*
X474100Y238900D02*
X486500Y226500D01*
X486500Y209284D01*
X486412Y209197D01*
D35*
X146859Y306761D02*
X146859Y328959D01*
X180000Y362100D01*
D30*
X241405Y238900D02*
X474100Y238900D01*
X173544Y306761D02*
X146859Y306761D01*
X173544Y306761D02*
X241405Y238900D01*
D35*
X414800Y426100D02*
X633285Y426100D01*
X639854Y419530D01*
D38*
X620000Y276500D02*
X639823Y256677D01*
X639823Y246856D01*
D35*
X525241Y224739D02*
X490980Y259000D01*
X343750Y259000D01*
D30*
X356701Y99145D02*
X356701Y87299D01*
X360000Y84000D01*
D31*
X360000Y84000D03*
D35*
X407297Y329000D02*
X413000Y334703D01*
X413000Y362900D01*
X453950Y294000D02*
X441950Y282000D01*
X407297Y282000D01*
D37*
X308921Y95079D02*
X308921Y81657D01*
X308921Y95079D02*
X304000Y100000D01*
D31*
X304000Y100000D03*
D37*
X321621Y98621D02*
X321621Y81657D01*
X321621Y98621D02*
X327000Y104000D01*
D31*
X327000Y104000D03*
D37*
X515500Y138500D02*
X515500Y147000D01*
X515500Y138500D02*
X525000Y129000D01*
X633000Y129000D01*
X638000Y134000D01*
X515500Y136500D02*
X515500Y147000D01*
X515500Y136500D02*
X509000Y130000D01*
D31*
X509000Y130000D03*
D35*
X356610Y373610D02*
X338600Y373610D01*
X356610Y373610D02*
X380000Y397000D01*
X471600Y397000D01*
X473000Y398400D01*
X487500Y381100D02*
X532400Y381100D01*
X487500Y381100D02*
X471600Y397000D01*
X530000Y378700D02*
X530000Y327500D01*
X530000Y378700D02*
X532400Y381100D01*
X530000Y327500D02*
X496500Y294000D01*
X492050Y294000D01*
M02*
