G04 EAGLE Gerber X2 export*
%TF.Part,Single*%
%TF.FileFunction,Other,Solder stop mask CMP*%
%TF.FilePolarity,Positive*%
%TF.GenerationSoftware,Autodesk,EAGLE,9.0.1*%
%TF.CreationDate,2018-09-16T05:54:57Z*%
G75*
%MOMM*%
%FSLAX34Y34*%
%LPD*%
%AMOC8*
5,1,8,0,0,1.08239X$1,22.5*%
G01*
%ADD10C,0.000000*%
%ADD11R,1.203200X1.303200*%
%ADD12P,1.594577X8X202.500000*%
%ADD13P,1.594577X8X22.500000*%
%ADD14R,0.803200X2.403200*%
%ADD15R,1.403200X0.763200*%
%ADD16R,1.303200X1.203200*%
%ADD17R,3.203200X3.203200*%
%ADD18P,1.649562X8X112.500000*%
%ADD19P,4.008307X8X202.500000*%
%ADD20P,2.925917X8X202.500000*%
%ADD21R,1.803400X1.803400*%
%ADD22R,3.203200X2.203200*%
%ADD23C,1.727200*%
%ADD24P,2.034460X8X22.500000*%
%ADD25P,2.034460X8X292.500000*%
%ADD26R,2.003200X1.903200*%
%ADD27R,2.103200X1.903200*%
%ADD28C,1.524000*%
%ADD29R,3.603200X1.703200*%
%ADD30C,1.209600*%
%ADD31P,1.309259X8X22.500000*%


D10*
X668173Y454655D02*
X3400Y456200D01*
X4600Y600D01*
X668600Y1600D02*
X668173Y454655D01*
X666573Y955D02*
X4600Y600D01*
D11*
X233474Y96741D03*
X233474Y79741D03*
D12*
X525241Y224739D03*
D13*
X548586Y224865D03*
X252359Y327061D03*
D12*
X229014Y326935D03*
D14*
X270821Y81657D03*
X270821Y133657D03*
X258121Y81657D03*
X283521Y81657D03*
X296221Y81657D03*
X258121Y133657D03*
X283521Y133657D03*
X296221Y133657D03*
X321621Y81657D03*
X321621Y133657D03*
X308921Y81657D03*
X334321Y81657D03*
X308921Y133657D03*
X334321Y133657D03*
D15*
X444451Y132737D03*
X444451Y145437D03*
X444451Y158137D03*
X444451Y170837D03*
X444451Y183537D03*
X444451Y196237D03*
X444451Y208937D03*
X444451Y221637D03*
X379651Y221637D03*
X379651Y208937D03*
X379651Y196237D03*
X379651Y183537D03*
X379651Y170837D03*
X379651Y158137D03*
X379651Y145437D03*
X379651Y132737D03*
D11*
X486412Y209197D03*
X469412Y209197D03*
X362219Y42162D03*
X379219Y42162D03*
D16*
X336788Y173058D03*
X336788Y156058D03*
D11*
X303636Y203076D03*
X320636Y203076D03*
X307301Y177508D03*
X290301Y177508D03*
X486370Y183404D03*
X469370Y183404D03*
X486554Y158032D03*
X469554Y158032D03*
X486596Y131981D03*
X469596Y131981D03*
D16*
X356701Y99145D03*
X356701Y116145D03*
D11*
X276575Y57192D03*
X293575Y57192D03*
D17*
X592544Y168038D03*
X639823Y246856D03*
X640407Y358307D03*
X592655Y90724D03*
X639854Y419530D03*
X592261Y215381D03*
X640075Y191512D03*
X639072Y68226D03*
D18*
X505600Y86400D03*
X486550Y73700D03*
X505600Y61000D03*
D19*
X175627Y241200D03*
D20*
X153227Y145300D03*
D19*
X35727Y100600D03*
X152227Y78800D03*
X35727Y214700D03*
D20*
X153727Y187700D03*
D16*
X325700Y44200D03*
X308700Y44200D03*
D21*
X74700Y24000D03*
X48700Y24200D03*
X150800Y24400D03*
X100100Y24300D03*
X125200Y24300D03*
D22*
X367150Y320300D03*
X293650Y320300D03*
D11*
X413000Y362900D03*
X396000Y362900D03*
D23*
X262400Y383770D02*
X262400Y399010D01*
X338600Y381230D02*
X338600Y365990D01*
D13*
X70959Y305261D03*
D12*
X47614Y305135D03*
D24*
X532400Y381100D03*
X583200Y381100D03*
D23*
X187620Y412900D02*
X172380Y412900D01*
X172380Y387500D02*
X187620Y387500D01*
X187620Y362100D02*
X172380Y362100D01*
D25*
X92500Y402100D03*
X92500Y351300D03*
D26*
X414800Y426100D03*
X373800Y426100D03*
D13*
X146859Y306761D03*
D12*
X123514Y306635D03*
D27*
X530000Y327500D03*
X530000Y276500D03*
X620000Y276500D03*
X620000Y327500D03*
D25*
X473000Y398400D03*
X473000Y347600D03*
D22*
X270250Y259000D03*
X343750Y259000D03*
D28*
X492050Y287396D02*
X492050Y300604D01*
X453950Y300604D02*
X453950Y287396D01*
D29*
X407297Y282000D03*
X407297Y329000D03*
D26*
X515500Y147000D03*
X556500Y147000D03*
D17*
X638000Y134000D03*
D30*
X208600Y53700D03*
X422600Y160700D03*
D31*
X227100Y219300D03*
X227060Y185340D03*
D30*
X345062Y45162D03*
X289600Y193700D03*
X337600Y185700D03*
X248600Y109700D03*
X240600Y142700D03*
X209500Y157400D03*
X258400Y43800D03*
X574000Y142000D03*
X360000Y84000D03*
X304000Y100000D03*
X327000Y104000D03*
X509000Y130000D03*
M02*
