G75*
%MOMM*%
%FSLAX34Y34*%
%LPD*%
%AMOC8*
5,1,8,0,0,1.08239X$1,22.5*%
G01*
%ADD10C,0.000000*%
%ADD11R,1.100000X1.000000*%
%ADD12P,1.374635X8X22.500000*%
%ADD13P,1.374635X8X202.500000*%
%ADD14R,1.800000X1.700000*%
%ADD15R,0.800000X0.900000*%
%ADD16R,1.000000X1.100000*%
%ADD17R,3.000000X3.000000*%
%ADD18P,1.429621X8X112.500000*%
%ADD19P,3.788365X8X292.500000*%
%ADD20P,2.705975X8X292.500000*%
%ADD21R,1.600200X1.600200*%
%ADD22C,1.524000*%
%ADD23P,1.374635X8X292.500000*%
%ADD24P,1.374635X8X112.500000*%
%ADD25P,1.814519X8X292.500000*%
%ADD26P,1.814519X8X22.500000*%
%ADD27R,1.700000X1.800000*%
%ADD28R,1.500000X0.600000*%
%ADD29R,1.600000X1.800000*%
%ADD30C,1.320800*%
%ADD31R,0.900000X0.800000*%
%ADD32C,1.270000*%
%ADD33C,0.812800*%
%ADD34C,0.609600*%
%ADD35C,1.006400*%

G36*
X175470Y11607D02*
X175470Y11607D01*
X175602Y11608D01*
X175694Y11626D01*
X175788Y11635D01*
X175915Y11669D01*
X176044Y11694D01*
X176132Y11728D01*
X176223Y11753D01*
X176341Y11809D01*
X176464Y11856D01*
X176544Y11905D01*
X176629Y11946D01*
X176736Y12022D01*
X176848Y12090D01*
X176919Y12153D01*
X176996Y12207D01*
X177087Y12301D01*
X177186Y12388D01*
X177244Y12462D01*
X177310Y12530D01*
X177384Y12639D01*
X177465Y12741D01*
X177510Y12824D01*
X177563Y12903D01*
X177616Y13023D01*
X177678Y13138D01*
X177707Y13228D01*
X177745Y13314D01*
X177776Y13442D01*
X177817Y13567D01*
X177830Y13660D01*
X177852Y13752D01*
X177860Y13882D01*
X177878Y14013D01*
X177874Y14107D01*
X177880Y14201D01*
X177865Y14331D01*
X177860Y14462D01*
X177840Y14555D01*
X177829Y14648D01*
X177791Y14774D01*
X177762Y14902D01*
X177726Y14989D01*
X177699Y15079D01*
X177639Y15196D01*
X177589Y15318D01*
X177538Y15397D01*
X177495Y15481D01*
X177416Y15585D01*
X177344Y15696D01*
X177260Y15792D01*
X177223Y15840D01*
X177190Y15871D01*
X177138Y15930D01*
X139247Y53820D01*
X137855Y57181D01*
X137855Y151491D01*
X137845Y151608D01*
X137845Y151725D01*
X137825Y151831D01*
X137815Y151940D01*
X137785Y152053D01*
X137764Y152168D01*
X137713Y152314D01*
X137697Y152374D01*
X137681Y152407D01*
X137662Y152463D01*
X135871Y156786D01*
X135871Y161214D01*
X137565Y165304D01*
X140696Y168435D01*
X144786Y170129D01*
X149214Y170129D01*
X153304Y168435D01*
X156435Y165304D01*
X158129Y161214D01*
X158129Y156786D01*
X156338Y152463D01*
X156303Y152352D01*
X156259Y152244D01*
X156236Y152137D01*
X156203Y152034D01*
X156189Y151918D01*
X156164Y151803D01*
X156154Y151649D01*
X156147Y151587D01*
X156148Y151551D01*
X156145Y151491D01*
X156145Y63840D01*
X156159Y63676D01*
X156166Y63512D01*
X156179Y63452D01*
X156185Y63391D01*
X156228Y63232D01*
X156264Y63072D01*
X156287Y63016D01*
X156303Y62957D01*
X156374Y62809D01*
X156437Y62657D01*
X156470Y62605D01*
X156497Y62550D01*
X156592Y62417D01*
X156682Y62278D01*
X156733Y62221D01*
X156759Y62184D01*
X156802Y62142D01*
X156888Y62044D01*
X185044Y33888D01*
X185170Y33783D01*
X185291Y33671D01*
X185343Y33639D01*
X185390Y33600D01*
X185532Y33518D01*
X185671Y33430D01*
X185728Y33406D01*
X185780Y33376D01*
X185935Y33321D01*
X186088Y33259D01*
X186147Y33246D01*
X186205Y33225D01*
X186367Y33199D01*
X186528Y33164D01*
X186605Y33159D01*
X186649Y33152D01*
X186710Y33153D01*
X186840Y33145D01*
X217994Y33145D01*
X218076Y33152D01*
X218158Y33150D01*
X218299Y33172D01*
X218442Y33185D01*
X218522Y33206D01*
X218603Y33219D01*
X218738Y33265D01*
X218877Y33303D01*
X218951Y33339D01*
X219029Y33365D01*
X219154Y33435D01*
X219283Y33497D01*
X219350Y33544D01*
X219422Y33585D01*
X219533Y33675D01*
X219649Y33759D01*
X219707Y33818D01*
X219770Y33870D01*
X219863Y33979D01*
X219963Y34081D01*
X220009Y34150D01*
X220063Y34212D01*
X220135Y34336D01*
X220215Y34454D01*
X220249Y34530D01*
X220290Y34601D01*
X220340Y34735D01*
X220398Y34866D01*
X220417Y34946D01*
X220446Y35024D01*
X220470Y35165D01*
X220504Y35304D01*
X220509Y35386D01*
X220524Y35467D01*
X220523Y35610D01*
X220532Y35753D01*
X220522Y35835D01*
X220522Y35917D01*
X220496Y36058D01*
X220480Y36200D01*
X220456Y36279D01*
X220441Y36360D01*
X220361Y36594D01*
X220350Y36631D01*
X220345Y36641D01*
X220340Y36656D01*
X219871Y37786D01*
X219871Y42214D01*
X221662Y46537D01*
X221697Y46648D01*
X221741Y46756D01*
X221764Y46863D01*
X221797Y46966D01*
X221811Y47082D01*
X221836Y47197D01*
X221846Y47351D01*
X221853Y47413D01*
X221852Y47449D01*
X221855Y47509D01*
X221855Y115788D01*
X221840Y115965D01*
X221830Y116142D01*
X221820Y116188D01*
X221815Y116236D01*
X221769Y116408D01*
X221728Y116581D01*
X221709Y116625D01*
X221697Y116671D01*
X221621Y116831D01*
X221550Y116994D01*
X221524Y117034D01*
X221503Y117077D01*
X221400Y117221D01*
X221302Y117370D01*
X221269Y117404D01*
X221241Y117443D01*
X221114Y117567D01*
X220991Y117696D01*
X220953Y117724D01*
X220919Y117757D01*
X220771Y117857D01*
X220628Y117962D01*
X220585Y117983D01*
X220546Y118009D01*
X220383Y118081D01*
X220224Y118159D01*
X220178Y118172D01*
X220134Y118192D01*
X219961Y118234D01*
X219790Y118282D01*
X219743Y118287D01*
X219696Y118298D01*
X219519Y118309D01*
X219342Y118327D01*
X219295Y118323D01*
X219247Y118326D01*
X219070Y118305D01*
X218893Y118292D01*
X218847Y118279D01*
X218800Y118274D01*
X218629Y118222D01*
X218458Y118178D01*
X218415Y118157D01*
X218369Y118144D01*
X218210Y118063D01*
X218049Y117988D01*
X218010Y117961D01*
X217967Y117939D01*
X217826Y117832D01*
X217680Y117730D01*
X217647Y117696D01*
X217609Y117667D01*
X217488Y117537D01*
X217363Y117411D01*
X217336Y117371D01*
X217304Y117336D01*
X217208Y117186D01*
X217107Y117040D01*
X217081Y116987D01*
X217062Y116956D01*
X217038Y116898D01*
X216970Y116759D01*
X216597Y115859D01*
X213466Y112728D01*
X209376Y111034D01*
X204949Y111034D01*
X200859Y112728D01*
X197728Y115859D01*
X196034Y119949D01*
X196034Y124642D01*
X196041Y124764D01*
X196049Y124827D01*
X196047Y124863D01*
X196051Y124923D01*
X196051Y146733D01*
X196041Y146849D01*
X196040Y146966D01*
X196021Y147073D01*
X196011Y147181D01*
X195980Y147294D01*
X195959Y147409D01*
X195909Y147555D01*
X195893Y147615D01*
X195877Y147648D01*
X195858Y147704D01*
X195083Y149575D01*
X195083Y149992D01*
X195073Y150109D01*
X195072Y150226D01*
X195053Y150332D01*
X195043Y150441D01*
X195012Y150554D01*
X194991Y150669D01*
X194941Y150814D01*
X194925Y150875D01*
X194915Y150896D01*
X194915Y175020D01*
X194905Y175136D01*
X194904Y175253D01*
X194885Y175360D01*
X194875Y175468D01*
X194844Y175581D01*
X194823Y175696D01*
X194773Y175842D01*
X194756Y175903D01*
X194741Y175935D01*
X194722Y175992D01*
X193947Y177862D01*
X193947Y182289D01*
X194722Y184160D01*
X194757Y184271D01*
X194801Y184379D01*
X194824Y184485D01*
X194856Y184589D01*
X194871Y184705D01*
X194896Y184819D01*
X194905Y184973D01*
X194913Y185036D01*
X194911Y185072D01*
X194915Y185131D01*
X194915Y190614D01*
X194900Y190778D01*
X194894Y190942D01*
X194880Y191002D01*
X194875Y191062D01*
X194832Y191221D01*
X194796Y191382D01*
X194773Y191438D01*
X194756Y191497D01*
X194686Y191645D01*
X194622Y191797D01*
X194589Y191848D01*
X194563Y191903D01*
X194468Y192037D01*
X194378Y192175D01*
X194327Y192233D01*
X194301Y192269D01*
X194257Y192312D01*
X194171Y192409D01*
X192796Y193785D01*
X192769Y193807D01*
X192746Y193833D01*
X192597Y193951D01*
X192450Y194074D01*
X192420Y194091D01*
X192393Y194113D01*
X192225Y194203D01*
X192059Y194297D01*
X192027Y194309D01*
X191996Y194325D01*
X191815Y194384D01*
X191635Y194448D01*
X191601Y194454D01*
X191568Y194464D01*
X191379Y194490D01*
X191191Y194522D01*
X191156Y194521D01*
X191122Y194526D01*
X190931Y194518D01*
X190740Y194515D01*
X190706Y194509D01*
X190672Y194507D01*
X190486Y194466D01*
X190298Y194430D01*
X190266Y194417D01*
X190232Y194410D01*
X190056Y194336D01*
X189878Y194268D01*
X189849Y194250D01*
X189817Y194236D01*
X189657Y194133D01*
X189494Y194034D01*
X189468Y194011D01*
X189439Y193992D01*
X189204Y193785D01*
X174806Y179386D01*
X171071Y177839D01*
X142261Y177839D01*
X142097Y177825D01*
X141932Y177818D01*
X141873Y177805D01*
X141812Y177799D01*
X141653Y177756D01*
X141493Y177720D01*
X141436Y177697D01*
X141378Y177681D01*
X141230Y177610D01*
X141077Y177547D01*
X141026Y177514D01*
X140971Y177487D01*
X140838Y177392D01*
X140699Y177302D01*
X140641Y177251D01*
X140605Y177225D01*
X140562Y177182D01*
X140465Y177096D01*
X123256Y159886D01*
X119521Y158339D01*
X114013Y158339D01*
X113849Y158325D01*
X113685Y158318D01*
X113625Y158305D01*
X113565Y158299D01*
X113406Y158256D01*
X113245Y158220D01*
X113189Y158197D01*
X113130Y158181D01*
X112982Y158110D01*
X112830Y158047D01*
X112779Y158014D01*
X112724Y157987D01*
X112590Y157892D01*
X112574Y157881D01*
X110213Y156903D01*
X97787Y156903D01*
X95455Y157869D01*
X95437Y157884D01*
X95294Y157966D01*
X95156Y158054D01*
X95099Y158078D01*
X95046Y158108D01*
X94891Y158163D01*
X94739Y158225D01*
X94679Y158238D01*
X94622Y158259D01*
X94459Y158285D01*
X94299Y158320D01*
X94222Y158325D01*
X94178Y158332D01*
X94116Y158331D01*
X93987Y158339D01*
X89478Y158339D01*
X89361Y158329D01*
X89244Y158329D01*
X89137Y158309D01*
X89029Y158299D01*
X88916Y158269D01*
X88801Y158248D01*
X88655Y158197D01*
X88595Y158181D01*
X88562Y158165D01*
X88506Y158146D01*
X86713Y157403D01*
X84324Y157403D01*
X84161Y157389D01*
X83996Y157382D01*
X83937Y157369D01*
X83876Y157363D01*
X83717Y157320D01*
X83557Y157284D01*
X83500Y157261D01*
X83442Y157245D01*
X83293Y157174D01*
X83141Y157111D01*
X83090Y157078D01*
X83035Y157051D01*
X82901Y156956D01*
X82763Y156866D01*
X82705Y156815D01*
X82669Y156789D01*
X82626Y156746D01*
X82529Y156660D01*
X77317Y151447D01*
X73582Y149900D01*
X61253Y149900D01*
X61089Y149886D01*
X60925Y149879D01*
X60865Y149866D01*
X60804Y149860D01*
X60645Y149817D01*
X60485Y149781D01*
X60429Y149758D01*
X60370Y149742D01*
X60222Y149671D01*
X60070Y149608D01*
X60018Y149575D01*
X59963Y149549D01*
X59830Y149453D01*
X59691Y149364D01*
X59634Y149312D01*
X59597Y149286D01*
X59555Y149243D01*
X59457Y149157D01*
X57915Y147614D01*
X47604Y147614D01*
X40431Y154787D01*
X40404Y154810D01*
X40382Y154835D01*
X40233Y154953D01*
X40086Y155076D01*
X40055Y155093D01*
X40028Y155115D01*
X39861Y155205D01*
X39695Y155299D01*
X39662Y155311D01*
X39632Y155327D01*
X39450Y155386D01*
X39270Y155450D01*
X39236Y155456D01*
X39203Y155467D01*
X39014Y155493D01*
X38826Y155524D01*
X38792Y155523D01*
X38757Y155528D01*
X38566Y155520D01*
X38376Y155518D01*
X38342Y155511D01*
X38307Y155510D01*
X38121Y155468D01*
X37934Y155432D01*
X37902Y155420D01*
X37868Y155412D01*
X37692Y155338D01*
X37514Y155270D01*
X37484Y155252D01*
X37452Y155238D01*
X37292Y155135D01*
X37129Y155036D01*
X37103Y155013D01*
X37074Y154994D01*
X36840Y154787D01*
X33097Y151044D01*
X31954Y151044D01*
X31954Y159934D01*
X31954Y159935D01*
X31954Y168825D01*
X33097Y168825D01*
X36714Y165209D01*
X36740Y165186D01*
X36763Y165160D01*
X36912Y165043D01*
X37059Y164920D01*
X37089Y164902D01*
X37116Y164881D01*
X37284Y164791D01*
X37450Y164696D01*
X37483Y164685D01*
X37513Y164668D01*
X37694Y164609D01*
X37874Y164546D01*
X37909Y164540D01*
X37941Y164529D01*
X38130Y164503D01*
X38318Y164472D01*
X38353Y164473D01*
X38387Y164468D01*
X38578Y164476D01*
X38769Y164478D01*
X38803Y164485D01*
X38837Y164486D01*
X39023Y164527D01*
X39211Y164564D01*
X39243Y164576D01*
X39277Y164584D01*
X39452Y164657D01*
X39631Y164726D01*
X39660Y164744D01*
X39692Y164757D01*
X39852Y164861D01*
X40015Y164960D01*
X40041Y164983D01*
X40071Y165002D01*
X40305Y165209D01*
X47604Y172508D01*
X57915Y172508D01*
X59457Y170966D01*
X59584Y170860D01*
X59704Y170749D01*
X59756Y170716D01*
X59803Y170677D01*
X59945Y170595D01*
X60084Y170507D01*
X60141Y170483D01*
X60194Y170453D01*
X60348Y170398D01*
X60501Y170336D01*
X60560Y170323D01*
X60618Y170302D01*
X60780Y170276D01*
X60941Y170241D01*
X61018Y170236D01*
X61062Y170229D01*
X61123Y170230D01*
X61253Y170222D01*
X65864Y170222D01*
X65899Y170225D01*
X65933Y170223D01*
X66122Y170245D01*
X66313Y170262D01*
X66346Y170271D01*
X66380Y170275D01*
X66563Y170330D01*
X66747Y170380D01*
X66778Y170395D01*
X66811Y170405D01*
X66982Y170492D01*
X67154Y170574D01*
X67182Y170594D01*
X67213Y170609D01*
X67365Y170725D01*
X67520Y170836D01*
X67544Y170861D01*
X67571Y170881D01*
X67700Y171022D01*
X67834Y171158D01*
X67853Y171187D01*
X67877Y171213D01*
X67979Y171374D01*
X68086Y171532D01*
X68100Y171563D01*
X68118Y171592D01*
X68191Y171769D01*
X68268Y171943D01*
X68276Y171977D01*
X68289Y172009D01*
X68329Y172196D01*
X68375Y172381D01*
X68377Y172415D01*
X68384Y172449D01*
X68403Y172761D01*
X68403Y174713D01*
X68948Y176028D01*
X68997Y176185D01*
X69054Y176340D01*
X69065Y176400D01*
X69083Y176458D01*
X69104Y176621D01*
X69132Y176783D01*
X69132Y176844D01*
X69140Y176905D01*
X69131Y177069D01*
X69131Y177233D01*
X69120Y177293D01*
X69117Y177354D01*
X69079Y177514D01*
X69050Y177676D01*
X69025Y177749D01*
X69015Y177793D01*
X68991Y177848D01*
X68948Y177972D01*
X68403Y179287D01*
X68403Y181675D01*
X68389Y181839D01*
X68382Y182004D01*
X68369Y182063D01*
X68363Y182124D01*
X68320Y182283D01*
X68284Y182443D01*
X68261Y182500D01*
X68245Y182558D01*
X68174Y182706D01*
X68111Y182859D01*
X68078Y182910D01*
X68051Y182965D01*
X67956Y183098D01*
X67866Y183237D01*
X67815Y183295D01*
X67789Y183331D01*
X67746Y183374D01*
X67696Y183429D01*
X67694Y183432D01*
X67692Y183434D01*
X67660Y183471D01*
X64816Y186315D01*
X64652Y186452D01*
X64492Y186589D01*
X64480Y186595D01*
X64470Y186604D01*
X64285Y186709D01*
X64103Y186816D01*
X64091Y186821D01*
X64079Y186827D01*
X63879Y186898D01*
X63680Y186971D01*
X63667Y186974D01*
X63655Y186978D01*
X63445Y187013D01*
X63237Y187049D01*
X63224Y187049D01*
X63211Y187052D01*
X62997Y187049D01*
X62787Y187048D01*
X62774Y187046D01*
X62761Y187045D01*
X62551Y187005D01*
X62344Y186967D01*
X62329Y186962D01*
X62318Y186960D01*
X62282Y186946D01*
X62048Y186865D01*
X59571Y185839D01*
X55513Y185839D01*
X55349Y185825D01*
X55185Y185818D01*
X55125Y185805D01*
X55065Y185799D01*
X54906Y185756D01*
X54745Y185720D01*
X54689Y185697D01*
X54630Y185681D01*
X54482Y185610D01*
X54330Y185547D01*
X54279Y185514D01*
X54224Y185487D01*
X54090Y185392D01*
X54074Y185381D01*
X51713Y184403D01*
X39287Y184403D01*
X37046Y185331D01*
X35162Y187216D01*
X35036Y187321D01*
X34915Y187433D01*
X34864Y187465D01*
X34817Y187504D01*
X34674Y187586D01*
X34536Y187674D01*
X34479Y187698D01*
X34426Y187728D01*
X34271Y187783D01*
X34119Y187845D01*
X34059Y187858D01*
X34002Y187879D01*
X33839Y187905D01*
X33679Y187940D01*
X33602Y187945D01*
X33558Y187952D01*
X33496Y187951D01*
X33367Y187959D01*
X31039Y187959D01*
X31039Y196000D01*
X31039Y204041D01*
X33367Y204041D01*
X33531Y204055D01*
X33695Y204062D01*
X33755Y204075D01*
X33815Y204081D01*
X33974Y204124D01*
X34135Y204160D01*
X34191Y204183D01*
X34250Y204199D01*
X34398Y204270D01*
X34550Y204333D01*
X34601Y204366D01*
X34656Y204393D01*
X34790Y204488D01*
X34928Y204578D01*
X34986Y204629D01*
X35022Y204655D01*
X35065Y204698D01*
X35162Y204784D01*
X35228Y204850D01*
X35250Y204877D01*
X35276Y204900D01*
X35395Y205049D01*
X35517Y205196D01*
X35534Y205226D01*
X35556Y205253D01*
X35646Y205421D01*
X35740Y205587D01*
X35752Y205619D01*
X35768Y205650D01*
X35827Y205831D01*
X35891Y206011D01*
X35897Y206045D01*
X35908Y206078D01*
X35934Y206267D01*
X35965Y206455D01*
X35964Y206490D01*
X35969Y206524D01*
X35961Y206715D01*
X35959Y206905D01*
X35952Y206939D01*
X35951Y206974D01*
X35909Y207160D01*
X35873Y207347D01*
X35861Y207380D01*
X35853Y207414D01*
X35780Y207589D01*
X35711Y207767D01*
X35693Y207797D01*
X35679Y207829D01*
X35576Y207989D01*
X35477Y208152D01*
X35454Y208178D01*
X35435Y208207D01*
X35228Y208441D01*
X34097Y209572D01*
X33972Y209677D01*
X33850Y209789D01*
X33799Y209822D01*
X33752Y209861D01*
X33610Y209942D01*
X33471Y210031D01*
X33414Y210054D01*
X33361Y210084D01*
X33206Y210139D01*
X33054Y210202D01*
X32994Y210215D01*
X32937Y210235D01*
X32775Y210262D01*
X32614Y210296D01*
X32537Y210301D01*
X32493Y210309D01*
X32432Y210308D01*
X32302Y210316D01*
X30475Y210316D01*
X30475Y217856D01*
X30474Y217856D01*
X30475Y217857D01*
X30475Y225397D01*
X32235Y225397D01*
X32270Y225400D01*
X32304Y225398D01*
X32494Y225420D01*
X32684Y225437D01*
X32717Y225446D01*
X32751Y225450D01*
X32934Y225506D01*
X33118Y225556D01*
X33149Y225570D01*
X33182Y225580D01*
X33353Y225667D01*
X33525Y225749D01*
X33553Y225769D01*
X33584Y225785D01*
X33736Y225900D01*
X33891Y226011D01*
X33915Y226036D01*
X33942Y226057D01*
X34072Y226197D01*
X34205Y226334D01*
X34224Y226363D01*
X34248Y226388D01*
X34350Y226549D01*
X34457Y226707D01*
X34471Y226739D01*
X34489Y226768D01*
X34562Y226944D01*
X34639Y227119D01*
X34647Y227152D01*
X34660Y227184D01*
X34701Y227371D01*
X34746Y227556D01*
X34748Y227591D01*
X34755Y227625D01*
X34774Y227936D01*
X34774Y254956D01*
X36321Y258691D01*
X70160Y292529D01*
X70265Y292655D01*
X70377Y292776D01*
X70409Y292828D01*
X70448Y292874D01*
X70530Y293017D01*
X70618Y293156D01*
X70642Y293212D01*
X70672Y293265D01*
X70727Y293420D01*
X70789Y293572D01*
X70802Y293632D01*
X70823Y293690D01*
X70849Y293852D01*
X70884Y294013D01*
X70889Y294090D01*
X70896Y294134D01*
X70895Y294193D01*
X71831Y296454D01*
X73546Y298169D01*
X75787Y299097D01*
X94213Y299097D01*
X96454Y298169D01*
X97204Y297418D01*
X97231Y297395D01*
X97254Y297369D01*
X97403Y297251D01*
X97550Y297129D01*
X97580Y297111D01*
X97607Y297090D01*
X97775Y297000D01*
X97941Y296905D01*
X97973Y296894D01*
X98004Y296877D01*
X98185Y296818D01*
X98365Y296755D01*
X98399Y296749D01*
X98432Y296738D01*
X98621Y296712D01*
X98809Y296681D01*
X98844Y296681D01*
X98878Y296677D01*
X99069Y296685D01*
X99260Y296687D01*
X99294Y296694D01*
X99328Y296695D01*
X99514Y296736D01*
X99702Y296773D01*
X99734Y296785D01*
X99768Y296793D01*
X99944Y296866D01*
X100122Y296935D01*
X100151Y296953D01*
X100183Y296966D01*
X100343Y297070D01*
X100506Y297169D01*
X100532Y297192D01*
X100561Y297211D01*
X100796Y297418D01*
X101546Y298169D01*
X103787Y299097D01*
X103897Y299097D01*
X104026Y299108D01*
X104157Y299110D01*
X104250Y299128D01*
X104345Y299137D01*
X104471Y299171D01*
X104599Y299196D01*
X104688Y299230D01*
X104780Y299255D01*
X104897Y299311D01*
X105019Y299358D01*
X105100Y299408D01*
X105186Y299449D01*
X105292Y299524D01*
X105403Y299592D01*
X105475Y299655D01*
X105553Y299711D01*
X105643Y299804D01*
X105741Y299890D01*
X105800Y299965D01*
X105867Y300033D01*
X105940Y300141D01*
X106020Y300243D01*
X106065Y300327D01*
X106119Y300406D01*
X106171Y300525D01*
X106233Y300640D01*
X106262Y300731D01*
X106301Y300818D01*
X106332Y300945D01*
X106372Y301068D01*
X106385Y301163D01*
X106408Y301256D01*
X106416Y301385D01*
X106433Y301514D01*
X106429Y301610D01*
X106435Y301705D01*
X106420Y301834D01*
X106415Y301964D01*
X106394Y302057D01*
X106383Y302152D01*
X106346Y302277D01*
X106317Y302404D01*
X106281Y302492D01*
X106253Y302583D01*
X106194Y302699D01*
X106144Y302819D01*
X106092Y302900D01*
X106049Y302985D01*
X105970Y303088D01*
X105899Y303197D01*
X105813Y303295D01*
X105777Y303343D01*
X105744Y303374D01*
X105693Y303432D01*
X97121Y312003D01*
X97121Y323997D01*
X105603Y332479D01*
X117597Y332479D01*
X126079Y323997D01*
X126079Y312003D01*
X117507Y303432D01*
X117424Y303332D01*
X117333Y303239D01*
X117280Y303159D01*
X117219Y303086D01*
X117154Y302973D01*
X117081Y302866D01*
X117043Y302778D01*
X116995Y302695D01*
X116952Y302573D01*
X116899Y302454D01*
X116876Y302361D01*
X116844Y302271D01*
X116823Y302143D01*
X116792Y302016D01*
X116787Y301921D01*
X116771Y301827D01*
X116773Y301697D01*
X116765Y301567D01*
X116776Y301472D01*
X116777Y301376D01*
X116802Y301249D01*
X116817Y301120D01*
X116844Y301028D01*
X116863Y300934D01*
X116909Y300813D01*
X116947Y300689D01*
X116990Y300604D01*
X117025Y300514D01*
X117092Y300403D01*
X117151Y300287D01*
X117209Y300211D01*
X117259Y300130D01*
X117345Y300032D01*
X117423Y299929D01*
X117494Y299864D01*
X117557Y299792D01*
X117659Y299712D01*
X117755Y299623D01*
X117835Y299572D01*
X117910Y299513D01*
X118025Y299452D01*
X118134Y299382D01*
X118223Y299345D01*
X118307Y299300D01*
X118431Y299260D01*
X118551Y299211D01*
X118644Y299191D01*
X118735Y299161D01*
X118864Y299143D01*
X118991Y299116D01*
X119121Y299108D01*
X119181Y299100D01*
X119226Y299101D01*
X119303Y299097D01*
X122213Y299097D01*
X124454Y298169D01*
X126169Y296454D01*
X127097Y294213D01*
X127097Y285324D01*
X127111Y285161D01*
X127118Y284996D01*
X127131Y284937D01*
X127137Y284876D01*
X127180Y284717D01*
X127216Y284557D01*
X127239Y284500D01*
X127255Y284442D01*
X127326Y284293D01*
X127389Y284141D01*
X127422Y284090D01*
X127449Y284035D01*
X127544Y283901D01*
X127634Y283763D01*
X127685Y283705D01*
X127711Y283669D01*
X127754Y283626D01*
X127840Y283529D01*
X130114Y281256D01*
X131661Y277521D01*
X131661Y263413D01*
X131672Y263283D01*
X131674Y263154D01*
X131692Y263060D01*
X131701Y262965D01*
X131735Y262839D01*
X131760Y262711D01*
X131794Y262622D01*
X131819Y262530D01*
X131875Y262413D01*
X131922Y262291D01*
X131972Y262210D01*
X132013Y262124D01*
X132088Y262018D01*
X132156Y261907D01*
X132219Y261835D01*
X132275Y261757D01*
X132368Y261667D01*
X132454Y261569D01*
X132529Y261510D01*
X132597Y261443D01*
X132705Y261371D01*
X132807Y261290D01*
X132891Y261245D01*
X132970Y261191D01*
X133089Y261139D01*
X133204Y261077D01*
X133295Y261048D01*
X133382Y261009D01*
X133509Y260978D01*
X133632Y260938D01*
X133727Y260925D01*
X133820Y260902D01*
X133949Y260894D01*
X134078Y260877D01*
X134174Y260881D01*
X134269Y260875D01*
X134398Y260890D01*
X134528Y260895D01*
X134621Y260916D01*
X134716Y260927D01*
X134841Y260965D01*
X134968Y260993D01*
X135056Y261029D01*
X135147Y261057D01*
X135263Y261116D01*
X135383Y261166D01*
X135463Y261218D01*
X135549Y261262D01*
X135652Y261340D01*
X135761Y261411D01*
X135859Y261497D01*
X135907Y261534D01*
X135938Y261566D01*
X135996Y261618D01*
X137046Y262669D01*
X139287Y263597D01*
X158713Y263597D01*
X160954Y262669D01*
X162669Y260953D01*
X163155Y259778D01*
X163253Y259591D01*
X163350Y259401D01*
X163358Y259391D01*
X163364Y259379D01*
X163494Y259212D01*
X163622Y259043D01*
X163632Y259034D01*
X163640Y259023D01*
X163796Y258882D01*
X163953Y258737D01*
X163964Y258730D01*
X163974Y258722D01*
X164153Y258610D01*
X164333Y258496D01*
X164345Y258491D01*
X164356Y258484D01*
X164553Y258405D01*
X164749Y258325D01*
X164762Y258322D01*
X164774Y258317D01*
X164982Y258275D01*
X165189Y258230D01*
X165205Y258229D01*
X165216Y258227D01*
X165255Y258226D01*
X165501Y258211D01*
X175543Y258211D01*
X175707Y258225D01*
X175872Y258232D01*
X175931Y258245D01*
X175992Y258251D01*
X176151Y258294D01*
X176311Y258330D01*
X176368Y258353D01*
X176426Y258369D01*
X176574Y258440D01*
X176727Y258503D01*
X176778Y258536D01*
X176833Y258563D01*
X176966Y258658D01*
X177105Y258748D01*
X177163Y258799D01*
X177171Y258804D01*
X181870Y260751D01*
X200130Y260751D01*
X204798Y258817D01*
X208371Y255244D01*
X210305Y250576D01*
X210305Y245524D01*
X208371Y240856D01*
X204798Y237283D01*
X200130Y235349D01*
X181870Y235349D01*
X177159Y237300D01*
X177092Y237363D01*
X177040Y237395D01*
X176994Y237434D01*
X176851Y237516D01*
X176712Y237604D01*
X176656Y237627D01*
X176603Y237658D01*
X176448Y237713D01*
X176296Y237775D01*
X176236Y237788D01*
X176179Y237809D01*
X176016Y237835D01*
X175855Y237870D01*
X175778Y237875D01*
X175734Y237882D01*
X175673Y237881D01*
X175543Y237889D01*
X165129Y237889D01*
X164917Y237870D01*
X164706Y237854D01*
X164693Y237851D01*
X164680Y237849D01*
X164475Y237793D01*
X164270Y237740D01*
X164258Y237734D01*
X164246Y237731D01*
X164055Y237640D01*
X163862Y237551D01*
X163851Y237543D01*
X163839Y237537D01*
X163667Y237414D01*
X163493Y237292D01*
X163484Y237283D01*
X163473Y237275D01*
X163325Y237123D01*
X163176Y236973D01*
X163168Y236962D01*
X163159Y236953D01*
X163041Y236777D01*
X162920Y236603D01*
X162913Y236588D01*
X162907Y236580D01*
X162891Y236544D01*
X162783Y236322D01*
X162669Y236046D01*
X160907Y234285D01*
X160895Y234278D01*
X160768Y234212D01*
X160703Y234161D01*
X160633Y234118D01*
X160526Y234024D01*
X160412Y233936D01*
X160357Y233874D01*
X160295Y233820D01*
X160207Y233708D01*
X160111Y233602D01*
X160067Y233531D01*
X160016Y233467D01*
X159948Y233341D01*
X159873Y233219D01*
X159842Y233143D01*
X159803Y233070D01*
X159759Y232934D01*
X159706Y232801D01*
X159690Y232720D01*
X159664Y232642D01*
X159645Y232500D01*
X159616Y232360D01*
X159614Y232277D01*
X159603Y232196D01*
X159609Y232053D01*
X159605Y231910D01*
X159618Y231828D01*
X159621Y231746D01*
X159652Y231606D01*
X159674Y231465D01*
X159701Y231387D01*
X159719Y231306D01*
X159774Y231174D01*
X159820Y231039D01*
X159861Y230967D01*
X159892Y230891D01*
X159970Y230771D01*
X160040Y230646D01*
X160092Y230582D01*
X160137Y230512D01*
X160151Y230497D01*
X161097Y228213D01*
X161097Y214787D01*
X160169Y212546D01*
X158284Y210662D01*
X158179Y210536D01*
X158067Y210415D01*
X158035Y210364D01*
X157996Y210317D01*
X157914Y210174D01*
X157826Y210036D01*
X157802Y209979D01*
X157772Y209926D01*
X157717Y209771D01*
X157655Y209619D01*
X157642Y209559D01*
X157621Y209502D01*
X157595Y209339D01*
X157560Y209179D01*
X157555Y209102D01*
X157548Y209058D01*
X157549Y208996D01*
X157541Y208867D01*
X157541Y207039D01*
X150000Y207039D01*
X141348Y207039D01*
X141307Y207065D01*
X141150Y207172D01*
X141118Y207186D01*
X141089Y207204D01*
X140912Y207277D01*
X140738Y207354D01*
X140704Y207362D01*
X140672Y207375D01*
X140485Y207415D01*
X140300Y207461D01*
X140266Y207463D01*
X140232Y207470D01*
X139920Y207489D01*
X121500Y207489D01*
X118976Y207489D01*
X118973Y207489D01*
X111459Y207489D01*
X111459Y207517D01*
X111445Y207681D01*
X111438Y207845D01*
X111425Y207905D01*
X111419Y207965D01*
X111376Y208124D01*
X111340Y208285D01*
X111317Y208341D01*
X111301Y208400D01*
X111230Y208548D01*
X111167Y208700D01*
X111134Y208751D01*
X111107Y208806D01*
X111012Y208940D01*
X110922Y209078D01*
X110871Y209136D01*
X110845Y209172D01*
X110802Y209215D01*
X110716Y209312D01*
X108831Y211196D01*
X107903Y213437D01*
X107903Y221863D01*
X108386Y223028D01*
X108435Y223185D01*
X108492Y223340D01*
X108503Y223400D01*
X108521Y223458D01*
X108542Y223621D01*
X108570Y223783D01*
X108570Y223844D01*
X108578Y223905D01*
X108569Y224069D01*
X108569Y224233D01*
X108558Y224293D01*
X108555Y224354D01*
X108517Y224514D01*
X108488Y224676D01*
X108463Y224749D01*
X108452Y224793D01*
X108428Y224849D01*
X108386Y224972D01*
X107903Y226137D01*
X107903Y230350D01*
X107900Y230385D01*
X107902Y230419D01*
X107880Y230608D01*
X107863Y230799D01*
X107854Y230832D01*
X107850Y230866D01*
X107795Y231049D01*
X107745Y231233D01*
X107730Y231264D01*
X107720Y231297D01*
X107633Y231468D01*
X107551Y231640D01*
X107531Y231668D01*
X107516Y231699D01*
X107400Y231851D01*
X107289Y232006D01*
X107264Y232030D01*
X107244Y232057D01*
X107104Y232186D01*
X106967Y232320D01*
X106938Y232339D01*
X106912Y232363D01*
X106751Y232465D01*
X106594Y232572D01*
X106562Y232586D01*
X106533Y232604D01*
X106356Y232677D01*
X106182Y232754D01*
X106148Y232762D01*
X106116Y232775D01*
X105929Y232815D01*
X105744Y232861D01*
X105710Y232863D01*
X105676Y232870D01*
X105364Y232889D01*
X82636Y232889D01*
X82601Y232886D01*
X82567Y232888D01*
X82378Y232866D01*
X82187Y232849D01*
X82154Y232840D01*
X82120Y232836D01*
X81937Y232781D01*
X81753Y232731D01*
X81722Y232716D01*
X81689Y232706D01*
X81518Y232619D01*
X81346Y232537D01*
X81318Y232517D01*
X81287Y232502D01*
X81135Y232386D01*
X80980Y232275D01*
X80956Y232250D01*
X80929Y232230D01*
X80800Y232090D01*
X80666Y231953D01*
X80647Y231924D01*
X80623Y231898D01*
X80521Y231737D01*
X80414Y231580D01*
X80400Y231548D01*
X80382Y231519D01*
X80309Y231342D01*
X80232Y231168D01*
X80224Y231134D01*
X80211Y231102D01*
X80171Y230915D01*
X80125Y230730D01*
X80123Y230696D01*
X80116Y230662D01*
X80097Y230350D01*
X80097Y226137D01*
X79614Y224972D01*
X79565Y224815D01*
X79508Y224660D01*
X79497Y224600D01*
X79479Y224542D01*
X79458Y224379D01*
X79430Y224217D01*
X79430Y224156D01*
X79422Y224095D01*
X79431Y223931D01*
X79431Y223767D01*
X79442Y223707D01*
X79445Y223646D01*
X79483Y223486D01*
X79512Y223324D01*
X79537Y223251D01*
X79548Y223207D01*
X79572Y223151D01*
X79614Y223028D01*
X80097Y221863D01*
X80097Y213437D01*
X79614Y212272D01*
X79565Y212115D01*
X79508Y211960D01*
X79497Y211900D01*
X79479Y211842D01*
X79458Y211679D01*
X79430Y211517D01*
X79430Y211456D01*
X79422Y211395D01*
X79431Y211231D01*
X79431Y211067D01*
X79442Y211007D01*
X79445Y210946D01*
X79483Y210785D01*
X79512Y210624D01*
X79537Y210551D01*
X79548Y210507D01*
X79572Y210451D01*
X79614Y210328D01*
X80097Y209163D01*
X80097Y200825D01*
X80111Y200661D01*
X80118Y200496D01*
X80131Y200437D01*
X80137Y200376D01*
X80180Y200217D01*
X80216Y200057D01*
X80239Y200000D01*
X80255Y199942D01*
X80326Y199794D01*
X80389Y199641D01*
X80422Y199590D01*
X80449Y199535D01*
X80544Y199402D01*
X80634Y199263D01*
X80685Y199205D01*
X80711Y199169D01*
X80754Y199126D01*
X80840Y199029D01*
X82529Y197340D01*
X82655Y197235D01*
X82776Y197123D01*
X82828Y197091D01*
X82874Y197052D01*
X83017Y196970D01*
X83156Y196882D01*
X83212Y196858D01*
X83265Y196828D01*
X83420Y196773D01*
X83572Y196711D01*
X83632Y196698D01*
X83690Y196677D01*
X83852Y196651D01*
X84013Y196616D01*
X84090Y196611D01*
X84134Y196604D01*
X84195Y196605D01*
X84325Y196597D01*
X86713Y196597D01*
X88954Y195669D01*
X90669Y193953D01*
X91748Y191347D01*
X91781Y191284D01*
X91806Y191218D01*
X91885Y191085D01*
X91957Y190948D01*
X92000Y190892D01*
X92036Y190831D01*
X92138Y190714D01*
X92232Y190592D01*
X92285Y190544D01*
X92332Y190491D01*
X92452Y190394D01*
X92567Y190290D01*
X92627Y190253D01*
X92682Y190208D01*
X92818Y190134D01*
X92949Y190052D01*
X93015Y190026D01*
X93077Y189992D01*
X93224Y189943D01*
X93367Y189886D01*
X93437Y189872D01*
X93504Y189849D01*
X93657Y189827D01*
X93808Y189796D01*
X93879Y189794D01*
X93949Y189784D01*
X94104Y189789D01*
X94259Y189785D01*
X94329Y189796D01*
X94399Y189798D01*
X94551Y189830D01*
X94704Y189854D01*
X94770Y189877D01*
X94840Y189891D01*
X94983Y189950D01*
X95129Y190000D01*
X95191Y190035D01*
X95257Y190061D01*
X95387Y190144D01*
X95523Y190219D01*
X95577Y190264D01*
X95637Y190302D01*
X95751Y190407D01*
X95871Y190505D01*
X95917Y190559D01*
X95969Y190606D01*
X96063Y190730D01*
X96163Y190847D01*
X96199Y190908D01*
X96242Y190965D01*
X96313Y191102D01*
X96391Y191236D01*
X96415Y191302D01*
X96448Y191365D01*
X96544Y191651D01*
X96546Y191658D01*
X96546Y191660D01*
X96547Y191662D01*
X96632Y191981D01*
X96967Y192560D01*
X97440Y193033D01*
X98019Y193368D01*
X98665Y193541D01*
X101461Y193541D01*
X101461Y185500D01*
X101464Y185466D01*
X101462Y185431D01*
X101484Y185242D01*
X101500Y185052D01*
X101510Y185018D01*
X101514Y184984D01*
X101569Y184801D01*
X101619Y184617D01*
X101634Y184586D01*
X101644Y184553D01*
X101731Y184382D01*
X101812Y184211D01*
X101833Y184183D01*
X101848Y184152D01*
X101963Y184000D01*
X102075Y183845D01*
X102075Y183844D01*
X102099Y183820D01*
X102120Y183793D01*
X102121Y183793D01*
X102121Y183792D01*
X102261Y183663D01*
X102398Y183530D01*
X102426Y183511D01*
X102452Y183487D01*
X102613Y183385D01*
X102771Y183278D01*
X102802Y183264D01*
X102832Y183245D01*
X103008Y183173D01*
X103183Y183096D01*
X103216Y183088D01*
X103248Y183075D01*
X103435Y183034D01*
X103620Y182989D01*
X103654Y182987D01*
X103688Y182980D01*
X104000Y182961D01*
X111548Y182961D01*
X111552Y182911D01*
X111554Y182781D01*
X111572Y182687D01*
X111581Y182592D01*
X111615Y182467D01*
X111640Y182339D01*
X111674Y182250D01*
X111699Y182158D01*
X111755Y182040D01*
X111802Y181919D01*
X111852Y181837D01*
X111893Y181751D01*
X111968Y181645D01*
X112036Y181534D01*
X112099Y181463D01*
X112155Y181385D01*
X112248Y181294D01*
X112334Y181197D01*
X112409Y181138D01*
X112477Y181071D01*
X112585Y180998D01*
X112687Y180917D01*
X112771Y180872D01*
X112850Y180819D01*
X112969Y180766D01*
X113084Y180705D01*
X113175Y180675D01*
X113262Y180636D01*
X113389Y180606D01*
X113512Y180566D01*
X113607Y180552D01*
X113700Y180530D01*
X113829Y180522D01*
X113958Y180504D01*
X114054Y180508D01*
X114149Y180502D01*
X114278Y180517D01*
X114408Y180522D01*
X114501Y180543D01*
X114596Y180554D01*
X114721Y180592D01*
X114848Y180620D01*
X114936Y180657D01*
X115027Y180685D01*
X115143Y180743D01*
X115263Y180794D01*
X115344Y180846D01*
X115429Y180889D01*
X115532Y180967D01*
X115641Y181038D01*
X115739Y181124D01*
X115787Y181161D01*
X115818Y181194D01*
X115876Y181245D01*
X128029Y193398D01*
X128029Y193399D01*
X129705Y195074D01*
X129788Y195174D01*
X129879Y195267D01*
X129933Y195347D01*
X129994Y195420D01*
X130058Y195533D01*
X130131Y195640D01*
X130170Y195728D01*
X130217Y195811D01*
X130261Y195933D01*
X130314Y196052D01*
X130336Y196145D01*
X130368Y196235D01*
X130389Y196363D01*
X130420Y196490D01*
X130426Y196585D01*
X130442Y196679D01*
X130440Y196809D01*
X130448Y196939D01*
X130437Y197034D01*
X130436Y197130D01*
X130411Y197257D01*
X130396Y197386D01*
X130368Y197478D01*
X130350Y197572D01*
X130303Y197693D01*
X130265Y197817D01*
X130222Y197903D01*
X130188Y197992D01*
X130120Y198103D01*
X130061Y198219D01*
X130003Y198295D01*
X129954Y198376D01*
X129868Y198474D01*
X129789Y198577D01*
X129719Y198642D01*
X129656Y198714D01*
X129554Y198794D01*
X129458Y198883D01*
X129377Y198934D01*
X129302Y198993D01*
X129188Y199055D01*
X129078Y199124D01*
X128990Y199161D01*
X128906Y199206D01*
X128782Y199246D01*
X128662Y199295D01*
X128568Y199315D01*
X128477Y199345D01*
X128349Y199363D01*
X128221Y199390D01*
X128091Y199398D01*
X128031Y199406D01*
X127987Y199405D01*
X127910Y199409D01*
X124039Y199409D01*
X124039Y202411D01*
X131541Y202411D01*
X131541Y201616D01*
X131403Y201101D01*
X131370Y200915D01*
X131332Y200730D01*
X131332Y200693D01*
X131325Y200658D01*
X131326Y200468D01*
X131322Y200279D01*
X131327Y200244D01*
X131327Y200207D01*
X131362Y200021D01*
X131391Y199834D01*
X131402Y199800D01*
X131409Y199765D01*
X131475Y199588D01*
X131537Y199409D01*
X131555Y199377D01*
X131567Y199343D01*
X131664Y199181D01*
X131756Y199015D01*
X131779Y198987D01*
X131798Y198956D01*
X131921Y198814D01*
X132042Y198667D01*
X132069Y198643D01*
X132093Y198616D01*
X132240Y198498D01*
X132384Y198375D01*
X132415Y198356D01*
X132443Y198334D01*
X132609Y198243D01*
X132773Y198147D01*
X132807Y198135D01*
X132838Y198117D01*
X133017Y198057D01*
X133195Y197992D01*
X133231Y197986D01*
X133265Y197974D01*
X133452Y197947D01*
X133639Y197914D01*
X133675Y197914D01*
X133711Y197909D01*
X133900Y197915D01*
X134089Y197915D01*
X134125Y197922D01*
X134161Y197923D01*
X134346Y197962D01*
X134532Y197996D01*
X134574Y198011D01*
X134601Y198017D01*
X134658Y198040D01*
X134827Y198098D01*
X134979Y198161D01*
X139920Y198161D01*
X139955Y198164D01*
X139989Y198162D01*
X140178Y198184D01*
X140369Y198201D01*
X140402Y198210D01*
X140436Y198214D01*
X140619Y198269D01*
X140803Y198319D01*
X140834Y198334D01*
X140867Y198344D01*
X141038Y198431D01*
X141210Y198513D01*
X141238Y198533D01*
X141269Y198548D01*
X141421Y198664D01*
X141576Y198775D01*
X141600Y198800D01*
X141627Y198820D01*
X141756Y198960D01*
X141890Y199097D01*
X141909Y199126D01*
X141933Y199152D01*
X142035Y199313D01*
X142142Y199470D01*
X142156Y199502D01*
X142174Y199531D01*
X142247Y199708D01*
X142324Y199882D01*
X142332Y199916D01*
X142345Y199948D01*
X142385Y200135D01*
X142431Y200320D01*
X142433Y200354D01*
X142440Y200388D01*
X142459Y200700D01*
X142459Y201961D01*
X150000Y201961D01*
X157541Y201961D01*
X157541Y200700D01*
X157544Y200665D01*
X157542Y200631D01*
X157564Y200442D01*
X157581Y200251D01*
X157590Y200218D01*
X157594Y200184D01*
X157649Y200001D01*
X157699Y199817D01*
X157714Y199786D01*
X157724Y199753D01*
X157811Y199582D01*
X157893Y199410D01*
X157913Y199382D01*
X157928Y199351D01*
X158044Y199199D01*
X158155Y199044D01*
X158180Y199020D01*
X158200Y198993D01*
X158340Y198864D01*
X158477Y198730D01*
X158506Y198711D01*
X158532Y198687D01*
X158693Y198585D01*
X158850Y198478D01*
X158882Y198464D01*
X158911Y198446D01*
X159088Y198373D01*
X159262Y198296D01*
X159296Y198288D01*
X159328Y198275D01*
X159515Y198235D01*
X159700Y198189D01*
X159734Y198187D01*
X159768Y198180D01*
X160080Y198161D01*
X163789Y198161D01*
X163953Y198175D01*
X164118Y198182D01*
X164177Y198195D01*
X164238Y198201D01*
X164397Y198244D01*
X164557Y198280D01*
X164613Y198303D01*
X164672Y198319D01*
X164821Y198390D01*
X164973Y198453D01*
X165024Y198486D01*
X165079Y198513D01*
X165213Y198608D01*
X165351Y198698D01*
X165409Y198749D01*
X165445Y198775D01*
X165488Y198818D01*
X165585Y198904D01*
X171201Y204521D01*
X171337Y204683D01*
X171475Y204844D01*
X171482Y204856D01*
X171490Y204866D01*
X171595Y205050D01*
X171702Y205233D01*
X171707Y205245D01*
X171713Y205257D01*
X171785Y205458D01*
X171857Y205656D01*
X171860Y205669D01*
X171864Y205681D01*
X171899Y205891D01*
X171936Y206099D01*
X171936Y206112D01*
X171938Y206125D01*
X171935Y206337D01*
X171934Y206549D01*
X171932Y206562D01*
X171932Y206576D01*
X171891Y206784D01*
X171853Y206992D01*
X171848Y207007D01*
X171846Y207018D01*
X171832Y207054D01*
X171752Y207288D01*
X171695Y207424D01*
X171695Y212476D01*
X173629Y217144D01*
X177202Y220717D01*
X181870Y222651D01*
X200130Y222651D01*
X204798Y220717D01*
X208371Y217144D01*
X210305Y212476D01*
X210305Y207424D01*
X210248Y207288D01*
X210185Y207085D01*
X210119Y206884D01*
X210118Y206871D01*
X210114Y206858D01*
X210087Y206649D01*
X210058Y206438D01*
X210059Y206425D01*
X210057Y206412D01*
X210068Y206202D01*
X210076Y205988D01*
X210079Y205975D01*
X210080Y205962D01*
X210128Y205756D01*
X210174Y205548D01*
X210179Y205536D01*
X210182Y205523D01*
X210266Y205328D01*
X210348Y205133D01*
X210355Y205122D01*
X210360Y205110D01*
X210477Y204933D01*
X210592Y204755D01*
X210602Y204743D01*
X210608Y204734D01*
X210635Y204705D01*
X210799Y204521D01*
X213689Y201630D01*
X215236Y197895D01*
X215236Y185131D01*
X215247Y185015D01*
X215247Y184898D01*
X215267Y184791D01*
X215276Y184683D01*
X215307Y184570D01*
X215328Y184455D01*
X215378Y184309D01*
X215395Y184248D01*
X215410Y184216D01*
X215430Y184160D01*
X216204Y182289D01*
X216204Y177862D01*
X215430Y175992D01*
X215395Y175880D01*
X215350Y175772D01*
X215327Y175666D01*
X215295Y175562D01*
X215280Y175446D01*
X215256Y175332D01*
X215246Y175178D01*
X215238Y175115D01*
X215240Y175079D01*
X215236Y175020D01*
X215236Y159554D01*
X215251Y159390D01*
X215258Y159226D01*
X215271Y159166D01*
X215276Y159105D01*
X215320Y158947D01*
X215355Y158786D01*
X215379Y158730D01*
X215395Y158671D01*
X215465Y158523D01*
X215529Y158371D01*
X215535Y158362D01*
X217340Y154002D01*
X217340Y149575D01*
X216566Y147704D01*
X216531Y147593D01*
X216486Y147485D01*
X216464Y147378D01*
X216431Y147275D01*
X216416Y147159D01*
X216392Y147044D01*
X216382Y146891D01*
X216374Y146828D01*
X216376Y146792D01*
X216372Y146733D01*
X216372Y129513D01*
X216383Y129397D01*
X216383Y129280D01*
X216403Y129173D01*
X216412Y129065D01*
X216443Y128952D01*
X216464Y128837D01*
X216514Y128691D01*
X216531Y128630D01*
X216546Y128598D01*
X216566Y128542D01*
X216970Y127565D01*
X217052Y127408D01*
X217129Y127248D01*
X217156Y127209D01*
X217179Y127166D01*
X217287Y127026D01*
X217391Y126882D01*
X217425Y126848D01*
X217454Y126810D01*
X217586Y126692D01*
X217713Y126568D01*
X217753Y126541D01*
X217789Y126509D01*
X217939Y126415D01*
X218086Y126315D01*
X218130Y126296D01*
X218171Y126271D01*
X218336Y126205D01*
X218498Y126133D01*
X218545Y126122D01*
X218589Y126104D01*
X218763Y126069D01*
X218936Y126027D01*
X218983Y126024D01*
X219030Y126014D01*
X219208Y126010D01*
X219385Y125999D01*
X219433Y126004D01*
X219480Y126003D01*
X219656Y126030D01*
X219832Y126051D01*
X219878Y126065D01*
X219925Y126072D01*
X220093Y126130D01*
X220263Y126181D01*
X220306Y126203D01*
X220351Y126218D01*
X220506Y126305D01*
X220665Y126386D01*
X220703Y126414D01*
X220744Y126438D01*
X220882Y126550D01*
X221023Y126658D01*
X221056Y126693D01*
X221093Y126723D01*
X221208Y126858D01*
X221329Y126989D01*
X221354Y127029D01*
X221385Y127065D01*
X221475Y127219D01*
X221570Y127368D01*
X221589Y127413D01*
X221613Y127454D01*
X221674Y127621D01*
X221741Y127785D01*
X221751Y127832D01*
X221768Y127877D01*
X221799Y128051D01*
X221836Y128225D01*
X221840Y128284D01*
X221846Y128320D01*
X221846Y128383D01*
X221855Y128537D01*
X221855Y137819D01*
X223247Y141180D01*
X248820Y166753D01*
X252181Y168145D01*
X319660Y168145D01*
X319824Y168159D01*
X319988Y168166D01*
X320048Y168179D01*
X320109Y168185D01*
X320268Y168228D01*
X320428Y168264D01*
X320484Y168287D01*
X320543Y168303D01*
X320691Y168374D01*
X320843Y168437D01*
X320895Y168470D01*
X320950Y168497D01*
X321083Y168592D01*
X321222Y168682D01*
X321279Y168733D01*
X321316Y168759D01*
X321358Y168802D01*
X321456Y168888D01*
X378660Y226092D01*
X378765Y226218D01*
X378877Y226339D01*
X378909Y226391D01*
X378948Y226438D01*
X379030Y226580D01*
X379118Y226719D01*
X379142Y226776D01*
X379172Y226828D01*
X379227Y226983D01*
X379289Y227136D01*
X379302Y227195D01*
X379323Y227253D01*
X379349Y227415D01*
X379384Y227576D01*
X379389Y227653D01*
X379396Y227697D01*
X379395Y227758D01*
X379403Y227888D01*
X379403Y238713D01*
X380331Y240954D01*
X382046Y242669D01*
X384287Y243597D01*
X384535Y243597D01*
X384664Y243608D01*
X384794Y243610D01*
X384888Y243628D01*
X384983Y243637D01*
X385109Y243671D01*
X385236Y243696D01*
X385325Y243730D01*
X385417Y243755D01*
X385535Y243811D01*
X385656Y243858D01*
X385738Y243908D01*
X385824Y243949D01*
X385930Y244024D01*
X386041Y244092D01*
X386113Y244155D01*
X386190Y244211D01*
X386281Y244304D01*
X386379Y244390D01*
X386438Y244465D01*
X386504Y244533D01*
X386577Y244641D01*
X386658Y244743D01*
X386703Y244827D01*
X386756Y244906D01*
X386809Y245026D01*
X386870Y245140D01*
X386900Y245231D01*
X386939Y245318D01*
X386969Y245445D01*
X387010Y245568D01*
X387023Y245663D01*
X387045Y245756D01*
X387053Y245885D01*
X387071Y246015D01*
X387067Y246110D01*
X387073Y246205D01*
X387058Y246335D01*
X387052Y246464D01*
X387032Y246557D01*
X387021Y246652D01*
X386983Y246777D01*
X386955Y246904D01*
X386918Y246992D01*
X386891Y247083D01*
X386831Y247199D01*
X386781Y247319D01*
X386729Y247400D01*
X386686Y247485D01*
X386613Y247581D01*
X384871Y251786D01*
X384871Y256214D01*
X386565Y260304D01*
X389696Y263435D01*
X393786Y265129D01*
X398214Y265129D01*
X402304Y263435D01*
X402368Y263370D01*
X402468Y263287D01*
X402561Y263196D01*
X402640Y263142D01*
X402714Y263081D01*
X402827Y263017D01*
X402934Y262944D01*
X403022Y262905D01*
X403105Y262858D01*
X403227Y262814D01*
X403346Y262762D01*
X403439Y262739D01*
X403529Y262707D01*
X403657Y262686D01*
X403784Y262655D01*
X403879Y262649D01*
X403973Y262633D01*
X404103Y262635D01*
X404233Y262627D01*
X404328Y262638D01*
X404423Y262640D01*
X404551Y262664D01*
X404680Y262679D01*
X404772Y262707D01*
X404865Y262725D01*
X404987Y262772D01*
X405111Y262810D01*
X405196Y262853D01*
X405285Y262887D01*
X405396Y262955D01*
X405512Y263014D01*
X405589Y263072D01*
X405670Y263121D01*
X405768Y263207D01*
X405871Y263286D01*
X405936Y263356D01*
X406008Y263419D01*
X406088Y263521D01*
X406176Y263617D01*
X406228Y263698D01*
X406287Y263773D01*
X406348Y263887D01*
X406418Y263997D01*
X406454Y264085D01*
X406500Y264169D01*
X406540Y264293D01*
X406589Y264413D01*
X406609Y264507D01*
X406639Y264598D01*
X406657Y264726D01*
X406684Y264854D01*
X406692Y264984D01*
X406700Y265044D01*
X406698Y265088D01*
X406703Y265166D01*
X406703Y272501D01*
X420526Y286324D01*
X440074Y286324D01*
X453897Y272501D01*
X453897Y253629D01*
X453908Y253500D01*
X453910Y253370D01*
X453928Y253276D01*
X453937Y253181D01*
X453971Y253055D01*
X453995Y252928D01*
X454030Y252838D01*
X454055Y252746D01*
X454111Y252629D01*
X454158Y252508D01*
X454207Y252426D01*
X454248Y252340D01*
X454324Y252234D01*
X454392Y252123D01*
X454455Y252051D01*
X454511Y251974D01*
X454604Y251883D01*
X454690Y251786D01*
X454765Y251726D01*
X454833Y251660D01*
X454941Y251587D01*
X455043Y251506D01*
X455127Y251461D01*
X455206Y251408D01*
X455325Y251355D01*
X455440Y251293D01*
X455531Y251264D01*
X455618Y251225D01*
X455745Y251194D01*
X455868Y251154D01*
X455963Y251141D01*
X456056Y251119D01*
X456185Y251111D01*
X456314Y251093D01*
X456410Y251097D01*
X456505Y251091D01*
X456634Y251106D01*
X456764Y251111D01*
X456857Y251132D01*
X456952Y251143D01*
X457077Y251181D01*
X457204Y251209D01*
X457292Y251246D01*
X457383Y251273D01*
X457499Y251332D01*
X457619Y251382D01*
X457699Y251434D01*
X457784Y251478D01*
X457888Y251556D01*
X457997Y251627D01*
X458095Y251713D01*
X458143Y251750D01*
X458173Y251783D01*
X458231Y251834D01*
X468273Y261876D01*
X468379Y262002D01*
X468490Y262123D01*
X468523Y262174D01*
X468562Y262221D01*
X468644Y262364D01*
X468732Y262502D01*
X468755Y262559D01*
X468785Y262612D01*
X468840Y262767D01*
X468903Y262919D01*
X468916Y262979D01*
X468936Y263036D01*
X468963Y263198D01*
X468998Y263359D01*
X469002Y263436D01*
X469010Y263480D01*
X469009Y263541D01*
X469017Y263671D01*
X469017Y273023D01*
X469674Y274608D01*
X469709Y274720D01*
X469753Y274828D01*
X469776Y274934D01*
X469808Y275038D01*
X469823Y275154D01*
X469848Y275268D01*
X469857Y275422D01*
X469865Y275485D01*
X469863Y275521D01*
X469867Y275580D01*
X469867Y276760D01*
X470795Y279001D01*
X472679Y280885D01*
X472785Y281011D01*
X472896Y281132D01*
X472929Y281183D01*
X472968Y281230D01*
X473050Y281373D01*
X473138Y281512D01*
X473161Y281568D01*
X473191Y281621D01*
X473246Y281776D01*
X473309Y281928D01*
X473322Y281988D01*
X473342Y282045D01*
X473369Y282208D01*
X473404Y282368D01*
X473408Y282445D01*
X473416Y282489D01*
X473415Y282551D01*
X473423Y282680D01*
X473423Y285008D01*
X481463Y285008D01*
X481498Y285011D01*
X481532Y285009D01*
X481722Y285031D01*
X481912Y285048D01*
X481945Y285057D01*
X481980Y285061D01*
X482163Y285116D01*
X482346Y285166D01*
X482377Y285181D01*
X482411Y285191D01*
X482581Y285278D01*
X482753Y285359D01*
X482781Y285380D01*
X482812Y285395D01*
X482964Y285511D01*
X483119Y285622D01*
X483143Y285646D01*
X483171Y285667D01*
X483171Y285668D01*
X483300Y285808D01*
X483433Y285944D01*
X483433Y285945D01*
X483453Y285973D01*
X483476Y285999D01*
X483579Y286160D01*
X483685Y286318D01*
X483699Y286349D01*
X483718Y286379D01*
X483791Y286555D01*
X483868Y286730D01*
X483876Y286763D01*
X483889Y286795D01*
X483929Y286982D01*
X483974Y287167D01*
X483976Y287201D01*
X483984Y287235D01*
X484003Y287547D01*
X484003Y295088D01*
X487446Y295088D01*
X487464Y295085D01*
X487605Y295085D01*
X487747Y295077D01*
X487830Y295086D01*
X487914Y295087D01*
X488053Y295112D01*
X488194Y295129D01*
X488274Y295153D01*
X488357Y295168D01*
X488489Y295218D01*
X488625Y295259D01*
X488700Y295297D01*
X488778Y295326D01*
X488900Y295399D01*
X489026Y295463D01*
X489093Y295514D01*
X489165Y295557D01*
X489272Y295650D01*
X489385Y295735D01*
X489442Y295797D01*
X489505Y295852D01*
X489594Y295962D01*
X489690Y296066D01*
X489735Y296137D01*
X489788Y296202D01*
X489856Y296327D01*
X489932Y296446D01*
X489964Y296524D01*
X490004Y296597D01*
X490049Y296732D01*
X490103Y296863D01*
X490121Y296945D01*
X490147Y297024D01*
X490168Y297164D01*
X490198Y297303D01*
X490204Y297414D01*
X490213Y297470D01*
X490211Y297521D01*
X490217Y297615D01*
X490217Y302467D01*
X490214Y302502D01*
X490216Y302536D01*
X490194Y302725D01*
X490177Y302916D01*
X490168Y302949D01*
X490164Y302983D01*
X490109Y303166D01*
X490058Y303350D01*
X490044Y303381D01*
X490034Y303414D01*
X489947Y303585D01*
X489865Y303757D01*
X489845Y303785D01*
X489829Y303816D01*
X489714Y303968D01*
X489603Y304123D01*
X489578Y304147D01*
X489557Y304174D01*
X489417Y304303D01*
X489280Y304437D01*
X489252Y304456D01*
X489226Y304480D01*
X489065Y304582D01*
X488907Y304689D01*
X488876Y304703D01*
X488846Y304721D01*
X488670Y304794D01*
X488495Y304871D01*
X488462Y304879D01*
X488430Y304892D01*
X488243Y304933D01*
X488058Y304978D01*
X488024Y304980D01*
X487990Y304987D01*
X487678Y305006D01*
X486203Y305006D01*
X486203Y312547D01*
X486200Y312581D01*
X486202Y312616D01*
X486180Y312805D01*
X486163Y312995D01*
X486154Y313029D01*
X486150Y313063D01*
X486095Y313246D01*
X486045Y313430D01*
X486030Y313461D01*
X486020Y313494D01*
X485933Y313665D01*
X485851Y313836D01*
X485831Y313864D01*
X485815Y313895D01*
X485700Y314047D01*
X485589Y314202D01*
X485589Y314203D01*
X485564Y314227D01*
X485543Y314254D01*
X485543Y314255D01*
X485403Y314384D01*
X485266Y314517D01*
X485237Y314536D01*
X485212Y314560D01*
X485051Y314662D01*
X484893Y314769D01*
X484861Y314783D01*
X484832Y314802D01*
X484656Y314874D01*
X484481Y314951D01*
X484447Y314959D01*
X484415Y314972D01*
X484229Y315013D01*
X484044Y315058D01*
X484009Y315060D01*
X483975Y315067D01*
X483663Y315086D01*
X475623Y315086D01*
X475623Y317882D01*
X475796Y318528D01*
X476130Y319107D01*
X476604Y319580D01*
X477183Y319915D01*
X477530Y320008D01*
X477541Y320012D01*
X477553Y320014D01*
X477753Y320089D01*
X477953Y320162D01*
X477963Y320168D01*
X477974Y320172D01*
X478157Y320281D01*
X478342Y320389D01*
X478351Y320397D01*
X478361Y320403D01*
X478522Y320542D01*
X478685Y320681D01*
X478692Y320690D01*
X478701Y320698D01*
X478835Y320864D01*
X478971Y321029D01*
X478976Y321039D01*
X478984Y321048D01*
X479086Y321236D01*
X479190Y321422D01*
X479194Y321433D01*
X479200Y321443D01*
X479268Y321646D01*
X479337Y321848D01*
X479339Y321859D01*
X479343Y321870D01*
X479374Y322083D01*
X479407Y322293D01*
X479407Y322304D01*
X479408Y322316D01*
X479401Y322529D01*
X479397Y322743D01*
X479394Y322754D01*
X479394Y322766D01*
X479349Y322975D01*
X479307Y323184D01*
X479303Y323195D01*
X479300Y323206D01*
X479220Y323403D01*
X479141Y323603D01*
X479135Y323613D01*
X479131Y323623D01*
X479016Y323804D01*
X478904Y323985D01*
X478896Y323994D01*
X478890Y324004D01*
X478745Y324162D01*
X478602Y324320D01*
X478593Y324327D01*
X478585Y324336D01*
X478416Y324465D01*
X478247Y324596D01*
X478237Y324601D01*
X478227Y324608D01*
X478037Y324706D01*
X477848Y324805D01*
X477837Y324809D01*
X477827Y324814D01*
X477530Y324913D01*
X477283Y324979D01*
X476704Y325314D01*
X476230Y325787D01*
X475896Y326366D01*
X475723Y327012D01*
X475723Y329308D01*
X482263Y329308D01*
X482298Y329311D01*
X482332Y329309D01*
X482522Y329331D01*
X482712Y329348D01*
X482745Y329357D01*
X482780Y329361D01*
X482963Y329416D01*
X483146Y329466D01*
X483177Y329481D01*
X483211Y329491D01*
X483381Y329578D01*
X483553Y329659D01*
X483581Y329680D01*
X483612Y329695D01*
X483764Y329811D01*
X483919Y329922D01*
X483943Y329946D01*
X483971Y329967D01*
X484100Y330107D01*
X484233Y330244D01*
X484252Y330273D01*
X484276Y330298D01*
X484378Y330459D01*
X484485Y330617D01*
X484499Y330649D01*
X484518Y330678D01*
X484590Y330855D01*
X484667Y331029D01*
X484675Y331063D01*
X484689Y331095D01*
X484729Y331281D01*
X484774Y331467D01*
X484776Y331501D01*
X484783Y331535D01*
X484803Y331847D01*
X484799Y331882D01*
X484802Y331916D01*
X484780Y332106D01*
X484763Y332296D01*
X484754Y332329D01*
X484750Y332363D01*
X484694Y332546D01*
X484644Y332730D01*
X484629Y332761D01*
X484619Y332794D01*
X484532Y332965D01*
X484451Y333137D01*
X484431Y333165D01*
X484415Y333196D01*
X484300Y333348D01*
X484189Y333503D01*
X484164Y333527D01*
X484143Y333555D01*
X484003Y333684D01*
X483866Y333817D01*
X483837Y333836D01*
X483812Y333860D01*
X483651Y333962D01*
X483493Y334069D01*
X483461Y334083D01*
X483432Y334102D01*
X483256Y334174D01*
X483081Y334251D01*
X483047Y334259D01*
X483015Y334272D01*
X482829Y334313D01*
X482644Y334358D01*
X482609Y334360D01*
X482575Y334367D01*
X482263Y334386D01*
X475723Y334386D01*
X475723Y336861D01*
X475720Y336896D01*
X475722Y336930D01*
X475700Y337120D01*
X475683Y337310D01*
X475674Y337343D01*
X475670Y337377D01*
X475615Y337560D01*
X475564Y337744D01*
X475550Y337775D01*
X475540Y337808D01*
X475453Y337978D01*
X475371Y338151D01*
X475351Y338179D01*
X475335Y338210D01*
X475220Y338361D01*
X475109Y338517D01*
X475084Y338541D01*
X475063Y338568D01*
X474923Y338697D01*
X474786Y338831D01*
X474758Y338850D01*
X474732Y338874D01*
X474571Y338976D01*
X474413Y339083D01*
X474381Y339097D01*
X474352Y339115D01*
X474176Y339188D01*
X474001Y339265D01*
X473968Y339273D01*
X473936Y339286D01*
X473749Y339327D01*
X473564Y339372D01*
X473530Y339374D01*
X473496Y339381D01*
X473184Y339400D01*
X466054Y339400D01*
X465891Y339386D01*
X465726Y339379D01*
X465667Y339366D01*
X465606Y339360D01*
X465447Y339317D01*
X465287Y339281D01*
X465230Y339258D01*
X465172Y339242D01*
X465023Y339171D01*
X464871Y339108D01*
X464820Y339075D01*
X464765Y339048D01*
X464631Y338953D01*
X464493Y338864D01*
X464435Y338812D01*
X464399Y338786D01*
X464356Y338743D01*
X464259Y338657D01*
X429436Y303834D01*
X424862Y301939D01*
X344095Y301939D01*
X343965Y301928D01*
X343836Y301926D01*
X343742Y301908D01*
X343647Y301899D01*
X343521Y301865D01*
X343394Y301840D01*
X343304Y301806D01*
X343212Y301781D01*
X343095Y301725D01*
X342974Y301678D01*
X342892Y301628D01*
X342806Y301587D01*
X342700Y301512D01*
X342589Y301444D01*
X342517Y301381D01*
X342440Y301325D01*
X342349Y301232D01*
X342251Y301146D01*
X342192Y301071D01*
X342125Y301002D01*
X342053Y300895D01*
X341972Y300793D01*
X341927Y300708D01*
X341873Y300629D01*
X341821Y300510D01*
X341759Y300396D01*
X341730Y300305D01*
X341691Y300218D01*
X341660Y300091D01*
X341620Y299968D01*
X341607Y299873D01*
X341585Y299780D01*
X341577Y299651D01*
X341559Y299522D01*
X341563Y299426D01*
X341557Y299331D01*
X341572Y299202D01*
X341577Y299072D01*
X341598Y298978D01*
X341609Y298884D01*
X341647Y298759D01*
X341675Y298632D01*
X341711Y298544D01*
X341739Y298453D01*
X341798Y298337D01*
X341848Y298217D01*
X341900Y298136D01*
X341944Y298051D01*
X342022Y297948D01*
X342093Y297838D01*
X342179Y297741D01*
X342216Y297693D01*
X342249Y297662D01*
X342300Y297604D01*
X343708Y296196D01*
X343708Y285885D01*
X342170Y284347D01*
X337955Y280132D01*
X337954Y280132D01*
X336417Y278594D01*
X294504Y278594D01*
X289929Y280489D01*
X273850Y296568D01*
X272431Y297987D01*
X272404Y298009D01*
X272382Y298035D01*
X272232Y298153D01*
X272086Y298276D01*
X272056Y298293D01*
X272028Y298315D01*
X271861Y298405D01*
X271695Y298499D01*
X271662Y298511D01*
X271632Y298527D01*
X271451Y298586D01*
X271270Y298650D01*
X271236Y298656D01*
X271203Y298667D01*
X271014Y298693D01*
X270826Y298724D01*
X270792Y298723D01*
X270757Y298728D01*
X270566Y298720D01*
X270376Y298718D01*
X270342Y298711D01*
X270307Y298710D01*
X270121Y298668D01*
X269934Y298632D01*
X269902Y298620D01*
X269868Y298612D01*
X269692Y298538D01*
X269514Y298470D01*
X269484Y298452D01*
X269452Y298438D01*
X269292Y298335D01*
X269129Y298236D01*
X269103Y298213D01*
X269074Y298194D01*
X268840Y297987D01*
X265097Y294244D01*
X263954Y294244D01*
X263954Y303134D01*
X263954Y303135D01*
X263954Y312025D01*
X265097Y312025D01*
X267978Y309144D01*
X268077Y309061D01*
X268171Y308970D01*
X268250Y308917D01*
X268323Y308855D01*
X268436Y308791D01*
X268544Y308718D01*
X268631Y308679D01*
X268714Y308632D01*
X268837Y308589D01*
X268956Y308536D01*
X269048Y308513D01*
X269139Y308481D01*
X269267Y308460D01*
X269393Y308429D01*
X269489Y308423D01*
X269583Y308408D01*
X269713Y308410D01*
X269843Y308402D01*
X269937Y308413D01*
X270033Y308414D01*
X270161Y308439D01*
X270290Y308454D01*
X270381Y308481D01*
X270475Y308499D01*
X270596Y308546D01*
X270721Y308584D01*
X270806Y308627D01*
X270895Y308662D01*
X271006Y308729D01*
X271122Y308788D01*
X271198Y308846D01*
X271280Y308896D01*
X271377Y308982D01*
X271481Y309060D01*
X271546Y309130D01*
X271617Y309194D01*
X271698Y309296D01*
X271786Y309391D01*
X271837Y309472D01*
X271897Y309547D01*
X271958Y309661D01*
X272028Y309771D01*
X272064Y309860D01*
X272109Y309944D01*
X272149Y310067D01*
X272199Y310188D01*
X272219Y310281D01*
X272248Y310372D01*
X272266Y310501D01*
X272293Y310628D01*
X272301Y310758D01*
X272310Y310818D01*
X272308Y310863D01*
X272313Y310940D01*
X272313Y316235D01*
X274208Y320810D01*
X329950Y376552D01*
X334524Y378447D01*
X388479Y378447D01*
X388608Y378458D01*
X388738Y378460D01*
X388832Y378478D01*
X388927Y378487D01*
X389053Y378521D01*
X389180Y378546D01*
X389270Y378580D01*
X389362Y378605D01*
X389479Y378661D01*
X389600Y378708D01*
X389682Y378758D01*
X389768Y378799D01*
X389874Y378874D01*
X389985Y378942D01*
X390057Y379005D01*
X390134Y379061D01*
X390225Y379154D01*
X390323Y379240D01*
X390382Y379315D01*
X390448Y379383D01*
X390521Y379491D01*
X390602Y379593D01*
X390647Y379677D01*
X390701Y379756D01*
X390753Y379875D01*
X390815Y379990D01*
X390844Y380081D01*
X390883Y380168D01*
X390914Y380295D01*
X390954Y380418D01*
X390967Y380513D01*
X390989Y380606D01*
X390997Y380735D01*
X391015Y380864D01*
X391011Y380960D01*
X391017Y381055D01*
X391002Y381184D01*
X390997Y381314D01*
X390976Y381407D01*
X390965Y381502D01*
X390927Y381627D01*
X390899Y381754D01*
X390862Y381842D01*
X390835Y381933D01*
X390776Y382049D01*
X390726Y382169D01*
X390674Y382250D01*
X390630Y382335D01*
X390552Y382438D01*
X390481Y382547D01*
X390395Y382645D01*
X390358Y382693D01*
X390326Y382724D01*
X390274Y382782D01*
X380203Y392853D01*
X380203Y412401D01*
X394026Y426224D01*
X413574Y426224D01*
X427397Y412401D01*
X427397Y392853D01*
X417325Y382782D01*
X417242Y382682D01*
X417151Y382589D01*
X417098Y382509D01*
X417036Y382436D01*
X416972Y382323D01*
X416899Y382216D01*
X416861Y382128D01*
X416813Y382045D01*
X416770Y381923D01*
X416717Y381804D01*
X416694Y381711D01*
X416662Y381621D01*
X416641Y381493D01*
X416610Y381366D01*
X416604Y381271D01*
X416589Y381177D01*
X416591Y381047D01*
X416583Y380917D01*
X416594Y380822D01*
X416595Y380726D01*
X416620Y380599D01*
X416635Y380470D01*
X416662Y380378D01*
X416680Y380284D01*
X416727Y380163D01*
X416765Y380039D01*
X416808Y379954D01*
X416843Y379864D01*
X416910Y379753D01*
X416969Y379637D01*
X417027Y379561D01*
X417077Y379480D01*
X417163Y379382D01*
X417241Y379279D01*
X417312Y379214D01*
X417375Y379142D01*
X417477Y379062D01*
X417572Y378973D01*
X417653Y378922D01*
X417728Y378863D01*
X417843Y378802D01*
X417952Y378732D01*
X418041Y378695D01*
X418125Y378650D01*
X418248Y378610D01*
X418369Y378561D01*
X418462Y378541D01*
X418553Y378511D01*
X418682Y378493D01*
X418809Y378466D01*
X418939Y378458D01*
X418999Y378450D01*
X419044Y378451D01*
X419121Y378447D01*
X436164Y378447D01*
X436198Y378450D01*
X436233Y378448D01*
X436422Y378470D01*
X436612Y378487D01*
X436646Y378496D01*
X436680Y378500D01*
X436863Y378555D01*
X437047Y378605D01*
X437078Y378620D01*
X437111Y378630D01*
X437282Y378717D01*
X437453Y378799D01*
X437481Y378819D01*
X437512Y378834D01*
X437664Y378950D01*
X437819Y379061D01*
X437844Y379086D01*
X437871Y379106D01*
X438000Y379246D01*
X438134Y379383D01*
X438153Y379412D01*
X438176Y379438D01*
X438279Y379599D01*
X438386Y379756D01*
X438400Y379788D01*
X438418Y379817D01*
X438491Y379994D01*
X438568Y380168D01*
X438576Y380202D01*
X438589Y380234D01*
X438629Y380421D01*
X438674Y380606D01*
X438677Y380640D01*
X438684Y380674D01*
X438703Y380986D01*
X438703Y388430D01*
X444019Y393746D01*
X444125Y393872D01*
X444236Y393993D01*
X444269Y394044D01*
X444308Y394091D01*
X444389Y394234D01*
X444478Y394373D01*
X444501Y394429D01*
X444531Y394482D01*
X444586Y394637D01*
X444649Y394789D01*
X444662Y394849D01*
X444682Y394906D01*
X444709Y395069D01*
X444744Y395229D01*
X444748Y395306D01*
X444756Y395350D01*
X444755Y395412D01*
X444763Y395541D01*
X444763Y401321D01*
X444748Y401485D01*
X444741Y401649D01*
X444728Y401709D01*
X444723Y401770D01*
X444680Y401929D01*
X444644Y402089D01*
X444620Y402145D01*
X444604Y402204D01*
X444534Y402352D01*
X444470Y402505D01*
X444437Y402556D01*
X444411Y402611D01*
X444315Y402744D01*
X444226Y402883D01*
X444175Y402941D01*
X444149Y402977D01*
X444105Y403019D01*
X444019Y403117D01*
X443041Y404095D01*
X442113Y406336D01*
X442113Y425761D01*
X443041Y428002D01*
X444756Y429717D01*
X446997Y430645D01*
X467422Y430645D01*
X469663Y429717D01*
X471378Y428002D01*
X472306Y425761D01*
X472306Y406336D01*
X471378Y404095D01*
X470400Y403117D01*
X470294Y402991D01*
X470183Y402870D01*
X470150Y402818D01*
X470111Y402772D01*
X470030Y402629D01*
X469941Y402490D01*
X469918Y402433D01*
X469888Y402381D01*
X469833Y402226D01*
X469770Y402073D01*
X469757Y402014D01*
X469737Y401956D01*
X469710Y401794D01*
X469675Y401633D01*
X469671Y401556D01*
X469663Y401512D01*
X469664Y401451D01*
X469656Y401321D01*
X469656Y395722D01*
X469671Y395558D01*
X469678Y395394D01*
X469691Y395334D01*
X469696Y395273D01*
X469739Y395115D01*
X469775Y394954D01*
X469799Y394898D01*
X469815Y394839D01*
X469885Y394691D01*
X469949Y394539D01*
X469982Y394487D01*
X470008Y394432D01*
X470104Y394299D01*
X470193Y394161D01*
X470244Y394103D01*
X470270Y394066D01*
X470314Y394024D01*
X470400Y393926D01*
X475897Y388430D01*
X475897Y373024D01*
X471501Y368629D01*
X471418Y368529D01*
X471327Y368436D01*
X471274Y368356D01*
X471212Y368283D01*
X471148Y368170D01*
X471075Y368063D01*
X471036Y367975D01*
X470989Y367892D01*
X470946Y367770D01*
X470893Y367651D01*
X470870Y367558D01*
X470838Y367468D01*
X470817Y367340D01*
X470786Y367213D01*
X470780Y367118D01*
X470765Y367024D01*
X470767Y366894D01*
X470759Y366764D01*
X470770Y366669D01*
X470771Y366574D01*
X470796Y366446D01*
X470811Y366317D01*
X470838Y366225D01*
X470856Y366131D01*
X470903Y366010D01*
X470941Y365886D01*
X470984Y365801D01*
X471019Y365711D01*
X471086Y365600D01*
X471145Y365484D01*
X471203Y365408D01*
X471253Y365327D01*
X471339Y365229D01*
X471417Y365126D01*
X471488Y365061D01*
X471551Y364989D01*
X471653Y364909D01*
X471748Y364821D01*
X471829Y364769D01*
X471904Y364710D01*
X472018Y364649D01*
X472128Y364579D01*
X472217Y364542D01*
X472301Y364497D01*
X472424Y364457D01*
X472545Y364408D01*
X472638Y364388D01*
X472729Y364358D01*
X472858Y364340D01*
X472985Y364313D01*
X473115Y364305D01*
X473175Y364297D01*
X473220Y364299D01*
X473297Y364294D01*
X483203Y364294D01*
X483333Y364305D01*
X483462Y364307D01*
X483556Y364325D01*
X483651Y364334D01*
X483777Y364368D01*
X483904Y364393D01*
X483994Y364427D01*
X484086Y364452D01*
X484203Y364508D01*
X484324Y364555D01*
X484406Y364605D01*
X484492Y364646D01*
X484598Y364721D01*
X484709Y364789D01*
X484781Y364852D01*
X484858Y364908D01*
X484949Y365001D01*
X485047Y365087D01*
X485106Y365162D01*
X485173Y365230D01*
X485245Y365338D01*
X485326Y365440D01*
X485371Y365524D01*
X485425Y365603D01*
X485477Y365722D01*
X485539Y365837D01*
X485568Y365928D01*
X485607Y366015D01*
X485638Y366142D01*
X485678Y366265D01*
X485691Y366360D01*
X485713Y366453D01*
X485721Y366582D01*
X485739Y366711D01*
X485735Y366807D01*
X485741Y366902D01*
X485726Y367031D01*
X485721Y367161D01*
X485700Y367254D01*
X485689Y367349D01*
X485651Y367474D01*
X485623Y367601D01*
X485587Y367689D01*
X485559Y367780D01*
X485500Y367896D01*
X485450Y368016D01*
X485398Y368096D01*
X485354Y368182D01*
X485276Y368285D01*
X485205Y368394D01*
X485119Y368492D01*
X485082Y368540D01*
X485049Y368571D01*
X484998Y368629D01*
X481103Y372524D01*
X481103Y387930D01*
X486509Y393336D01*
X486615Y393462D01*
X486726Y393583D01*
X486759Y393635D01*
X486798Y393681D01*
X486880Y393824D01*
X486968Y393963D01*
X486991Y394019D01*
X487022Y394072D01*
X487077Y394227D01*
X487139Y394379D01*
X487152Y394439D01*
X487172Y394497D01*
X487199Y394659D01*
X487234Y394820D01*
X487239Y394897D01*
X487246Y394941D01*
X487245Y395002D01*
X487253Y395132D01*
X487253Y400063D01*
X487234Y400274D01*
X487218Y400486D01*
X487214Y400498D01*
X487213Y400512D01*
X487158Y400714D01*
X487104Y400921D01*
X487098Y400933D01*
X487095Y400946D01*
X487004Y401137D01*
X486915Y401330D01*
X486907Y401341D01*
X486901Y401353D01*
X486778Y401525D01*
X486656Y401699D01*
X486647Y401708D01*
X486639Y401719D01*
X486486Y401868D01*
X486337Y402016D01*
X486326Y402023D01*
X486317Y402033D01*
X486139Y402152D01*
X485966Y402272D01*
X485952Y402279D01*
X485943Y402285D01*
X485907Y402301D01*
X485766Y402370D01*
X484041Y404095D01*
X483113Y406336D01*
X483113Y425761D01*
X484041Y428002D01*
X485756Y429717D01*
X487997Y430645D01*
X508422Y430645D01*
X510663Y429717D01*
X512378Y428002D01*
X513306Y425761D01*
X513306Y406336D01*
X512340Y404003D01*
X512305Y403891D01*
X512261Y403783D01*
X512238Y403677D01*
X512205Y403573D01*
X512190Y403457D01*
X512166Y403343D01*
X512156Y403189D01*
X512148Y403127D01*
X512150Y403090D01*
X512147Y403031D01*
X512147Y395132D01*
X512161Y394968D01*
X512168Y394803D01*
X512181Y394744D01*
X512187Y394683D01*
X512230Y394524D01*
X512265Y394364D01*
X512289Y394308D01*
X512305Y394249D01*
X512376Y394100D01*
X512439Y393948D01*
X512472Y393897D01*
X512498Y393842D01*
X512594Y393708D01*
X512683Y393570D01*
X512734Y393512D01*
X512761Y393476D01*
X512804Y393433D01*
X512890Y393336D01*
X518297Y387930D01*
X518297Y372524D01*
X512890Y367118D01*
X512785Y366991D01*
X512673Y366870D01*
X512641Y366819D01*
X512601Y366772D01*
X512520Y366629D01*
X512432Y366491D01*
X512408Y366434D01*
X512378Y366381D01*
X512323Y366226D01*
X512261Y366074D01*
X512248Y366014D01*
X512227Y365957D01*
X512200Y365795D01*
X512166Y365634D01*
X512161Y365557D01*
X512154Y365513D01*
X512155Y365452D01*
X512147Y365322D01*
X512147Y357307D01*
X510252Y352733D01*
X506393Y348875D01*
X506393Y348874D01*
X505064Y347545D01*
X505011Y347482D01*
X504952Y347425D01*
X504867Y347310D01*
X504775Y347200D01*
X504734Y347128D01*
X504686Y347062D01*
X504623Y346933D01*
X504552Y346809D01*
X504524Y346731D01*
X504488Y346657D01*
X504449Y346520D01*
X504401Y346385D01*
X504388Y346303D01*
X504365Y346224D01*
X504351Y346082D01*
X504328Y345940D01*
X504329Y345858D01*
X504321Y345776D01*
X504332Y345634D01*
X504334Y345490D01*
X504349Y345409D01*
X504356Y345327D01*
X504392Y345189D01*
X504419Y345048D01*
X504449Y344971D01*
X504470Y344892D01*
X504530Y344762D01*
X504582Y344628D01*
X504624Y344558D01*
X504659Y344483D01*
X504741Y344366D01*
X504816Y344243D01*
X504870Y344182D01*
X504917Y344114D01*
X505019Y344013D01*
X505114Y343906D01*
X505178Y343855D01*
X505237Y343797D01*
X505355Y343715D01*
X505467Y343627D01*
X505539Y343588D01*
X505607Y343541D01*
X505829Y343433D01*
X505864Y343414D01*
X505874Y343411D01*
X505888Y343404D01*
X508314Y342399D01*
X511815Y338898D01*
X513710Y334323D01*
X513710Y316908D01*
X513721Y316791D01*
X513721Y316675D01*
X513741Y316568D01*
X513750Y316459D01*
X513781Y316347D01*
X513802Y316232D01*
X513852Y316086D01*
X513869Y316025D01*
X513884Y315992D01*
X513904Y315936D01*
X515110Y313023D01*
X515110Y284771D01*
X514454Y283186D01*
X514419Y283074D01*
X514374Y282966D01*
X514351Y282860D01*
X514319Y282756D01*
X514304Y282640D01*
X514280Y282526D01*
X514270Y282372D01*
X514262Y282309D01*
X514264Y282273D01*
X514260Y282214D01*
X514260Y281034D01*
X513715Y279719D01*
X513666Y279562D01*
X513610Y279407D01*
X513599Y279347D01*
X513581Y279289D01*
X513560Y279126D01*
X513531Y278964D01*
X513532Y278903D01*
X513524Y278842D01*
X513532Y278678D01*
X513533Y278514D01*
X513544Y278454D01*
X513547Y278393D01*
X513584Y278233D01*
X513614Y278071D01*
X513639Y277998D01*
X513649Y277954D01*
X513673Y277899D01*
X513715Y277775D01*
X514260Y276460D01*
X514260Y275280D01*
X514271Y275164D01*
X514271Y275047D01*
X514291Y274940D01*
X514300Y274832D01*
X514331Y274719D01*
X514352Y274604D01*
X514402Y274458D01*
X514419Y274397D01*
X514434Y274365D01*
X514454Y274308D01*
X515110Y272723D01*
X515110Y267771D01*
X514454Y266186D01*
X514419Y266074D01*
X514374Y265966D01*
X514351Y265860D01*
X514319Y265756D01*
X514304Y265640D01*
X514280Y265526D01*
X514270Y265372D01*
X514262Y265309D01*
X514264Y265273D01*
X514260Y265214D01*
X514260Y264034D01*
X513332Y261794D01*
X511617Y260078D01*
X509376Y259150D01*
X508904Y259150D01*
X508787Y259140D01*
X508670Y259140D01*
X508564Y259120D01*
X508455Y259110D01*
X508342Y259080D01*
X508228Y259059D01*
X508081Y259008D01*
X508021Y258992D01*
X507988Y258976D01*
X507932Y258957D01*
X505139Y257800D01*
X500188Y257800D01*
X499930Y257907D01*
X499819Y257942D01*
X499711Y257986D01*
X499604Y258009D01*
X499501Y258042D01*
X499385Y258057D01*
X499270Y258081D01*
X499117Y258091D01*
X499054Y258099D01*
X499018Y258097D01*
X498958Y258100D01*
X496450Y258100D01*
X496415Y258097D01*
X496381Y258099D01*
X496191Y258077D01*
X496001Y258060D01*
X495968Y258051D01*
X495933Y258047D01*
X495750Y257992D01*
X495567Y257942D01*
X495536Y257927D01*
X495502Y257917D01*
X495332Y257830D01*
X495160Y257748D01*
X495132Y257728D01*
X495101Y257713D01*
X494949Y257597D01*
X494794Y257486D01*
X494770Y257461D01*
X494742Y257441D01*
X494613Y257301D01*
X494480Y257164D01*
X494461Y257135D01*
X494437Y257109D01*
X494335Y256948D01*
X494228Y256791D01*
X494214Y256759D01*
X494195Y256730D01*
X494123Y256553D01*
X494046Y256379D01*
X494037Y256345D01*
X494024Y256313D01*
X493984Y256127D01*
X493939Y255941D01*
X493937Y255907D01*
X493930Y255873D01*
X493910Y255561D01*
X493910Y254988D01*
X492015Y250413D01*
X466978Y225376D01*
X466894Y225276D01*
X466804Y225183D01*
X466750Y225103D01*
X466689Y225030D01*
X466624Y224917D01*
X466552Y224810D01*
X466513Y224722D01*
X466466Y224639D01*
X466422Y224517D01*
X466369Y224398D01*
X466347Y224305D01*
X466315Y224215D01*
X466294Y224086D01*
X466263Y223960D01*
X466257Y223865D01*
X466241Y223771D01*
X466243Y223640D01*
X466235Y223511D01*
X466246Y223416D01*
X466247Y223320D01*
X466272Y223193D01*
X466287Y223064D01*
X466315Y222972D01*
X466333Y222878D01*
X466380Y222757D01*
X466417Y222633D01*
X466461Y222548D01*
X466495Y222458D01*
X466563Y222347D01*
X466622Y222231D01*
X466679Y222155D01*
X466729Y222074D01*
X466815Y221976D01*
X466894Y221873D01*
X466964Y221808D01*
X467027Y221736D01*
X467129Y221656D01*
X467225Y221567D01*
X467306Y221516D01*
X467380Y221457D01*
X467495Y221396D01*
X467605Y221326D01*
X467693Y221289D01*
X467777Y221244D01*
X467901Y221204D01*
X468021Y221155D01*
X468115Y221135D01*
X468206Y221105D01*
X468334Y221087D01*
X468461Y221060D01*
X468591Y221052D01*
X468652Y221044D01*
X468696Y221045D01*
X468773Y221041D01*
X471835Y221041D01*
X472481Y220868D01*
X473060Y220533D01*
X473533Y220060D01*
X473965Y219311D01*
X474040Y219205D01*
X474107Y219093D01*
X474169Y219021D01*
X474224Y218943D01*
X474317Y218851D01*
X474402Y218753D01*
X474476Y218693D01*
X474544Y218626D01*
X474651Y218552D01*
X474752Y218471D01*
X474836Y218425D01*
X474915Y218370D01*
X475033Y218317D01*
X475147Y218254D01*
X475238Y218224D01*
X475325Y218185D01*
X475451Y218153D01*
X475574Y218111D01*
X475669Y218097D01*
X475761Y218074D01*
X475891Y218065D01*
X476020Y218046D01*
X476115Y218049D01*
X476210Y218042D01*
X476340Y218056D01*
X476470Y218060D01*
X476563Y218080D01*
X476658Y218090D01*
X476783Y218127D01*
X476910Y218154D01*
X476999Y218190D01*
X477090Y218216D01*
X477207Y218274D01*
X477327Y218324D01*
X477408Y218375D01*
X477493Y218417D01*
X477598Y218495D01*
X477708Y218564D01*
X477778Y218629D01*
X477855Y218686D01*
X477944Y218781D01*
X478040Y218869D01*
X478097Y218945D01*
X478163Y219014D01*
X478234Y219123D01*
X478312Y219227D01*
X478356Y219312D01*
X478408Y219392D01*
X478459Y219512D01*
X478518Y219627D01*
X478559Y219751D01*
X478583Y219807D01*
X478593Y219850D01*
X478617Y219924D01*
X478632Y219981D01*
X478967Y220560D01*
X479440Y221033D01*
X480019Y221368D01*
X480665Y221541D01*
X483461Y221541D01*
X483461Y216039D01*
X466000Y216039D01*
X456948Y216039D01*
X456807Y216129D01*
X456650Y216236D01*
X456618Y216250D01*
X456589Y216268D01*
X456412Y216341D01*
X456238Y216418D01*
X456204Y216426D01*
X456172Y216439D01*
X455985Y216479D01*
X455800Y216525D01*
X455766Y216527D01*
X455732Y216534D01*
X455420Y216553D01*
X450227Y216553D01*
X450063Y216539D01*
X449899Y216532D01*
X449839Y216519D01*
X449779Y216513D01*
X449620Y216470D01*
X449459Y216434D01*
X449403Y216411D01*
X449344Y216395D01*
X449196Y216324D01*
X449044Y216261D01*
X448993Y216228D01*
X448938Y216201D01*
X448804Y216106D01*
X448666Y216016D01*
X448608Y215965D01*
X448572Y215939D01*
X448529Y215896D01*
X448432Y215810D01*
X447954Y215331D01*
X445713Y214403D01*
X432668Y214403D01*
X432633Y214400D01*
X432599Y214402D01*
X432410Y214380D01*
X432219Y214363D01*
X432186Y214354D01*
X432152Y214350D01*
X431969Y214295D01*
X431785Y214245D01*
X431754Y214230D01*
X431721Y214220D01*
X431550Y214133D01*
X431378Y214051D01*
X431350Y214031D01*
X431319Y214016D01*
X431167Y213900D01*
X431012Y213789D01*
X430988Y213764D01*
X430961Y213744D01*
X430832Y213604D01*
X430698Y213467D01*
X430679Y213438D01*
X430655Y213412D01*
X430553Y213251D01*
X430446Y213094D01*
X430432Y213062D01*
X430414Y213033D01*
X430341Y212856D01*
X430264Y212682D01*
X430256Y212648D01*
X430243Y212616D01*
X430203Y212429D01*
X430157Y212244D01*
X430155Y212210D01*
X430148Y212176D01*
X430129Y211864D01*
X430129Y210136D01*
X430132Y210101D01*
X430130Y210067D01*
X430152Y209878D01*
X430169Y209687D01*
X430178Y209654D01*
X430182Y209620D01*
X430237Y209437D01*
X430287Y209253D01*
X430302Y209222D01*
X430312Y209189D01*
X430399Y209018D01*
X430481Y208846D01*
X430501Y208818D01*
X430516Y208787D01*
X430632Y208635D01*
X430743Y208480D01*
X430768Y208456D01*
X430788Y208429D01*
X430928Y208300D01*
X431065Y208166D01*
X431094Y208147D01*
X431120Y208123D01*
X431281Y208021D01*
X431438Y207914D01*
X431470Y207900D01*
X431499Y207882D01*
X431676Y207809D01*
X431850Y207732D01*
X431884Y207724D01*
X431916Y207711D01*
X432103Y207671D01*
X432288Y207625D01*
X432322Y207623D01*
X432356Y207616D01*
X432668Y207597D01*
X449713Y207597D01*
X451954Y206669D01*
X452704Y205918D01*
X452731Y205895D01*
X452754Y205869D01*
X452903Y205752D01*
X453050Y205629D01*
X453080Y205611D01*
X453107Y205590D01*
X453275Y205500D01*
X453441Y205405D01*
X453473Y205394D01*
X453504Y205377D01*
X453685Y205318D01*
X453865Y205255D01*
X453899Y205249D01*
X453932Y205238D01*
X454121Y205212D01*
X454309Y205181D01*
X454344Y205181D01*
X454378Y205177D01*
X454569Y205185D01*
X454760Y205187D01*
X454794Y205194D01*
X454828Y205195D01*
X455014Y205236D01*
X455202Y205273D01*
X455234Y205285D01*
X455268Y205293D01*
X455444Y205366D01*
X455622Y205435D01*
X455651Y205453D01*
X455683Y205466D01*
X455843Y205570D01*
X456006Y205669D01*
X456032Y205692D01*
X456061Y205711D01*
X456296Y205918D01*
X457216Y206838D01*
X457321Y206964D01*
X457433Y207085D01*
X457465Y207136D01*
X457504Y207183D01*
X457586Y207326D01*
X457674Y207464D01*
X457698Y207521D01*
X457728Y207574D01*
X457783Y207729D01*
X457845Y207881D01*
X457858Y207941D01*
X457879Y207998D01*
X457905Y208160D01*
X457940Y208321D01*
X457945Y208398D01*
X457952Y208442D01*
X457951Y208503D01*
X457959Y208633D01*
X457959Y210961D01*
X466000Y210961D01*
X486000Y210961D01*
X493541Y210961D01*
X493541Y209133D01*
X493555Y208969D01*
X493562Y208805D01*
X493575Y208745D01*
X493581Y208685D01*
X493624Y208526D01*
X493660Y208365D01*
X493683Y208309D01*
X493699Y208250D01*
X493770Y208102D01*
X493833Y207950D01*
X493866Y207899D01*
X493893Y207844D01*
X493988Y207710D01*
X494078Y207572D01*
X494129Y207514D01*
X494155Y207478D01*
X494198Y207435D01*
X494284Y207338D01*
X496169Y205453D01*
X497260Y202818D01*
X497298Y202745D01*
X497328Y202669D01*
X497402Y202546D01*
X497469Y202419D01*
X497519Y202354D01*
X497562Y202284D01*
X497657Y202177D01*
X497744Y202063D01*
X497805Y202008D01*
X497860Y201946D01*
X497972Y201858D01*
X498079Y201762D01*
X498148Y201718D01*
X498213Y201667D01*
X498339Y201599D01*
X498461Y201524D01*
X498537Y201493D01*
X498610Y201454D01*
X498746Y201410D01*
X498879Y201357D01*
X498960Y201341D01*
X499038Y201315D01*
X499180Y201296D01*
X499320Y201267D01*
X499403Y201265D01*
X499484Y201254D01*
X499627Y201260D01*
X499770Y201256D01*
X499852Y201269D01*
X499934Y201272D01*
X500074Y201303D01*
X500215Y201325D01*
X500293Y201352D01*
X500374Y201370D01*
X500506Y201425D01*
X500641Y201472D01*
X500713Y201512D01*
X500789Y201543D01*
X500909Y201621D01*
X501034Y201691D01*
X501098Y201743D01*
X501167Y201788D01*
X501352Y201951D01*
X501383Y201976D01*
X501390Y201984D01*
X501402Y201995D01*
X501940Y202533D01*
X502519Y202868D01*
X503165Y203041D01*
X506792Y203041D01*
X506874Y203048D01*
X506956Y203046D01*
X507097Y203068D01*
X507240Y203081D01*
X507320Y203102D01*
X507401Y203115D01*
X507536Y203161D01*
X507674Y203199D01*
X507749Y203235D01*
X507827Y203261D01*
X507952Y203331D01*
X508081Y203393D01*
X508148Y203440D01*
X508220Y203481D01*
X508331Y203571D01*
X508447Y203655D01*
X508505Y203714D01*
X508568Y203766D01*
X508661Y203875D01*
X508761Y203977D01*
X508807Y204046D01*
X508861Y204108D01*
X508933Y204232D01*
X509013Y204350D01*
X509047Y204426D01*
X509088Y204497D01*
X509138Y204631D01*
X509196Y204762D01*
X509215Y204842D01*
X509243Y204920D01*
X509268Y205061D01*
X509302Y205200D01*
X509307Y205282D01*
X509322Y205363D01*
X509321Y205506D01*
X509330Y205649D01*
X509320Y205731D01*
X509320Y205813D01*
X509294Y205954D01*
X509278Y206096D01*
X509254Y206175D01*
X509239Y206256D01*
X509159Y206490D01*
X509148Y206527D01*
X509143Y206537D01*
X509138Y206552D01*
X508339Y208479D01*
X508339Y210523D01*
X508329Y210639D01*
X508329Y210756D01*
X508309Y210863D01*
X508299Y210971D01*
X508269Y211084D01*
X508248Y211199D01*
X508197Y211345D01*
X508181Y211405D01*
X508165Y211438D01*
X508146Y211494D01*
X507403Y213287D01*
X507403Y226713D01*
X508331Y228954D01*
X510046Y230669D01*
X512287Y231597D01*
X524713Y231597D01*
X526028Y231052D01*
X526185Y231003D01*
X526340Y230946D01*
X526400Y230935D01*
X526458Y230917D01*
X526621Y230896D01*
X526783Y230868D01*
X526844Y230868D01*
X526905Y230860D01*
X527069Y230869D01*
X527233Y230869D01*
X527293Y230880D01*
X527354Y230883D01*
X527514Y230921D01*
X527676Y230950D01*
X527749Y230975D01*
X527793Y230985D01*
X527849Y231010D01*
X527972Y231052D01*
X529287Y231597D01*
X541713Y231597D01*
X543954Y230669D01*
X545669Y228954D01*
X546597Y226713D01*
X546597Y224324D01*
X546611Y224161D01*
X546618Y223996D01*
X546631Y223937D01*
X546637Y223876D01*
X546680Y223717D01*
X546716Y223557D01*
X546739Y223500D01*
X546755Y223442D01*
X546826Y223294D01*
X546889Y223141D01*
X546922Y223090D01*
X546949Y223035D01*
X547044Y222902D01*
X547134Y222763D01*
X547185Y222705D01*
X547211Y222669D01*
X547254Y222626D01*
X547340Y222529D01*
X555965Y213904D01*
X556091Y213799D01*
X556212Y213687D01*
X556263Y213655D01*
X556310Y213616D01*
X556453Y213534D01*
X556592Y213446D01*
X556648Y213422D01*
X556701Y213392D01*
X556856Y213337D01*
X557008Y213275D01*
X557068Y213262D01*
X557126Y213241D01*
X557288Y213215D01*
X557449Y213180D01*
X557526Y213175D01*
X557570Y213168D01*
X557631Y213169D01*
X557760Y213161D01*
X561364Y213161D01*
X561399Y213164D01*
X561433Y213162D01*
X561622Y213184D01*
X561813Y213201D01*
X561846Y213210D01*
X561880Y213214D01*
X562063Y213269D01*
X562247Y213319D01*
X562278Y213334D01*
X562311Y213344D01*
X562482Y213431D01*
X562654Y213513D01*
X562682Y213533D01*
X562713Y213548D01*
X562865Y213664D01*
X563020Y213775D01*
X563044Y213800D01*
X563071Y213820D01*
X563200Y213960D01*
X563334Y214097D01*
X563353Y214126D01*
X563377Y214152D01*
X563479Y214313D01*
X563586Y214470D01*
X563600Y214502D01*
X563618Y214531D01*
X563691Y214708D01*
X563768Y214882D01*
X563776Y214916D01*
X563789Y214948D01*
X563829Y215135D01*
X563875Y215320D01*
X563877Y215354D01*
X563884Y215388D01*
X563903Y215700D01*
X563903Y219213D01*
X564831Y221454D01*
X566546Y223169D01*
X568787Y224097D01*
X570014Y224097D01*
X570049Y224100D01*
X570083Y224098D01*
X570272Y224120D01*
X570463Y224137D01*
X570496Y224146D01*
X570530Y224150D01*
X570713Y224205D01*
X570897Y224255D01*
X570928Y224270D01*
X570961Y224280D01*
X571132Y224367D01*
X571304Y224449D01*
X571332Y224469D01*
X571363Y224484D01*
X571515Y224600D01*
X571670Y224711D01*
X571694Y224736D01*
X571721Y224756D01*
X571850Y224896D01*
X571984Y225033D01*
X572003Y225062D01*
X572027Y225088D01*
X572129Y225249D01*
X572236Y225406D01*
X572250Y225438D01*
X572268Y225467D01*
X572341Y225644D01*
X572418Y225818D01*
X572426Y225852D01*
X572439Y225884D01*
X572479Y226070D01*
X572525Y226256D01*
X572527Y226290D01*
X572534Y226324D01*
X572553Y226636D01*
X572553Y251379D01*
X572542Y251508D01*
X572540Y251639D01*
X572522Y251732D01*
X572513Y251828D01*
X572479Y251953D01*
X572454Y252081D01*
X572420Y252170D01*
X572395Y252262D01*
X572339Y252379D01*
X572292Y252501D01*
X572242Y252583D01*
X572201Y252669D01*
X572126Y252774D01*
X572058Y252885D01*
X571995Y252957D01*
X571939Y253035D01*
X571846Y253126D01*
X571760Y253223D01*
X571685Y253282D01*
X571617Y253349D01*
X571509Y253422D01*
X571407Y253502D01*
X571323Y253547D01*
X571244Y253601D01*
X571125Y253653D01*
X571010Y253715D01*
X570919Y253744D01*
X570832Y253783D01*
X570705Y253814D01*
X570582Y253854D01*
X570487Y253867D01*
X570394Y253890D01*
X570265Y253898D01*
X570136Y253915D01*
X570040Y253912D01*
X569945Y253917D01*
X569816Y253902D01*
X569686Y253897D01*
X569593Y253876D01*
X569498Y253865D01*
X569373Y253828D01*
X569246Y253800D01*
X569158Y253763D01*
X569067Y253735D01*
X568951Y253676D01*
X568831Y253626D01*
X568750Y253574D01*
X568665Y253531D01*
X568562Y253452D01*
X568453Y253382D01*
X568355Y253295D01*
X568307Y253259D01*
X568276Y253226D01*
X568218Y253175D01*
X554174Y239130D01*
X534626Y239130D01*
X520803Y252953D01*
X520803Y272501D01*
X534626Y286324D01*
X554864Y286324D01*
X554899Y286327D01*
X554933Y286324D01*
X555122Y286347D01*
X555313Y286363D01*
X555346Y286373D01*
X555380Y286377D01*
X555563Y286432D01*
X555747Y286482D01*
X555778Y286497D01*
X555811Y286507D01*
X555982Y286594D01*
X556154Y286675D01*
X556182Y286695D01*
X556213Y286711D01*
X556365Y286826D01*
X556520Y286937D01*
X556544Y286962D01*
X556571Y286983D01*
X556700Y287123D01*
X556834Y287260D01*
X556853Y287289D01*
X556877Y287314D01*
X556979Y287475D01*
X557086Y287633D01*
X557100Y287665D01*
X557118Y287694D01*
X557191Y287871D01*
X557268Y288045D01*
X557276Y288079D01*
X557289Y288111D01*
X557329Y288297D01*
X557375Y288482D01*
X557377Y288517D01*
X557384Y288551D01*
X557403Y288863D01*
X557403Y307713D01*
X558331Y309954D01*
X560046Y311669D01*
X562287Y312597D01*
X581713Y312597D01*
X583954Y311669D01*
X585068Y310554D01*
X585168Y310470D01*
X585261Y310379D01*
X585341Y310326D01*
X585414Y310265D01*
X585527Y310200D01*
X585634Y310127D01*
X585722Y310089D01*
X585805Y310041D01*
X585927Y309998D01*
X586046Y309945D01*
X586139Y309923D01*
X586229Y309890D01*
X586357Y309869D01*
X586484Y309838D01*
X586579Y309833D01*
X586673Y309817D01*
X586803Y309819D01*
X586933Y309811D01*
X587028Y309822D01*
X587124Y309823D01*
X587251Y309848D01*
X587380Y309863D01*
X587472Y309891D01*
X587566Y309909D01*
X587687Y309955D01*
X587811Y309993D01*
X587897Y310037D01*
X587986Y310071D01*
X588097Y310138D01*
X588213Y310198D01*
X588289Y310255D01*
X588370Y310305D01*
X588468Y310391D01*
X588571Y310470D01*
X588636Y310540D01*
X588708Y310603D01*
X588788Y310705D01*
X588877Y310801D01*
X588928Y310881D01*
X588987Y310956D01*
X589049Y311071D01*
X589118Y311180D01*
X589155Y311269D01*
X589200Y311353D01*
X589240Y311477D01*
X589289Y311597D01*
X589309Y311690D01*
X589339Y311781D01*
X589357Y311910D01*
X589384Y312037D01*
X589392Y312167D01*
X589400Y312227D01*
X589399Y312272D01*
X589403Y312349D01*
X589403Y312443D01*
X589389Y312606D01*
X589382Y312771D01*
X589369Y312830D01*
X589363Y312891D01*
X589320Y313050D01*
X589284Y313210D01*
X589261Y313267D01*
X589245Y313325D01*
X589174Y313474D01*
X589111Y313626D01*
X589078Y313677D01*
X589051Y313732D01*
X588956Y313866D01*
X588866Y314004D01*
X588815Y314062D01*
X588789Y314098D01*
X588746Y314141D01*
X588660Y314238D01*
X580238Y322660D01*
X580112Y322765D01*
X579991Y322877D01*
X579940Y322909D01*
X579893Y322948D01*
X579750Y323030D01*
X579611Y323118D01*
X579555Y323142D01*
X579502Y323172D01*
X579347Y323227D01*
X579195Y323289D01*
X579135Y323302D01*
X579078Y323323D01*
X578915Y323349D01*
X578754Y323384D01*
X578678Y323389D01*
X578633Y323396D01*
X578572Y323395D01*
X578443Y323403D01*
X562287Y323403D01*
X560046Y324331D01*
X558331Y326046D01*
X557403Y328287D01*
X557403Y348713D01*
X558331Y350954D01*
X558673Y351295D01*
X558757Y351395D01*
X558847Y351488D01*
X558901Y351567D01*
X558962Y351641D01*
X559027Y351754D01*
X559099Y351861D01*
X559138Y351949D01*
X559185Y352032D01*
X559229Y352154D01*
X559282Y352273D01*
X559304Y352366D01*
X559336Y352456D01*
X559357Y352584D01*
X559388Y352710D01*
X559394Y352806D01*
X559410Y352900D01*
X559408Y353030D01*
X559416Y353160D01*
X559405Y353255D01*
X559404Y353350D01*
X559379Y353478D01*
X559364Y353607D01*
X559336Y353699D01*
X559318Y353792D01*
X559271Y353913D01*
X559234Y354038D01*
X559190Y354123D01*
X559156Y354212D01*
X559088Y354324D01*
X559029Y354439D01*
X558972Y354515D01*
X558922Y354597D01*
X558836Y354695D01*
X558757Y354798D01*
X558687Y354863D01*
X558624Y354934D01*
X558522Y355015D01*
X558426Y355103D01*
X558345Y355155D01*
X558271Y355214D01*
X558156Y355275D01*
X558046Y355345D01*
X557958Y355381D01*
X557874Y355427D01*
X557750Y355467D01*
X557630Y355516D01*
X557536Y355536D01*
X557446Y355566D01*
X557317Y355583D01*
X557190Y355611D01*
X557060Y355619D01*
X557000Y355627D01*
X556955Y355625D01*
X556878Y355630D01*
X556426Y355630D01*
X542603Y369453D01*
X542603Y389001D01*
X556426Y402824D01*
X575974Y402824D01*
X589797Y389001D01*
X589797Y380029D01*
X589808Y379900D01*
X589810Y379770D01*
X589828Y379676D01*
X589837Y379581D01*
X589871Y379455D01*
X589895Y379328D01*
X589930Y379238D01*
X589955Y379146D01*
X590011Y379029D01*
X590058Y378908D01*
X590107Y378826D01*
X590148Y378740D01*
X590224Y378634D01*
X590292Y378523D01*
X590355Y378451D01*
X590411Y378374D01*
X590504Y378283D01*
X590590Y378186D01*
X590665Y378126D01*
X590733Y378060D01*
X590841Y377987D01*
X590943Y377906D01*
X591027Y377861D01*
X591106Y377808D01*
X591225Y377755D01*
X591340Y377693D01*
X591431Y377664D01*
X591518Y377625D01*
X591645Y377594D01*
X591768Y377554D01*
X591863Y377541D01*
X591956Y377519D01*
X592085Y377511D01*
X592214Y377493D01*
X592310Y377497D01*
X592405Y377491D01*
X592534Y377506D01*
X592664Y377511D01*
X592757Y377532D01*
X592852Y377543D01*
X592977Y377581D01*
X593104Y377609D01*
X593192Y377646D01*
X593283Y377673D01*
X593399Y377732D01*
X593519Y377782D01*
X593599Y377834D01*
X593684Y377878D01*
X593788Y377956D01*
X593897Y378027D01*
X593995Y378113D01*
X594043Y378150D01*
X594073Y378183D01*
X594131Y378234D01*
X614567Y398669D01*
X614672Y398795D01*
X614784Y398916D01*
X614816Y398967D01*
X614855Y399014D01*
X614937Y399157D01*
X615025Y399296D01*
X615049Y399352D01*
X615079Y399405D01*
X615134Y399560D01*
X615196Y399712D01*
X615209Y399772D01*
X615230Y399829D01*
X615256Y399992D01*
X615291Y400153D01*
X615296Y400229D01*
X615303Y400274D01*
X615302Y400335D01*
X615310Y400464D01*
X615310Y422519D01*
X616238Y424760D01*
X617953Y426475D01*
X620194Y427403D01*
X652620Y427403D01*
X654355Y426684D01*
X654427Y426662D01*
X654495Y426631D01*
X654641Y426595D01*
X654785Y426550D01*
X654859Y426540D01*
X654932Y426522D01*
X655082Y426512D01*
X655231Y426493D01*
X655307Y426497D01*
X655382Y426492D01*
X655531Y426508D01*
X655681Y426516D01*
X655754Y426533D01*
X655829Y426541D01*
X655973Y426584D01*
X656120Y426618D01*
X656189Y426648D01*
X656261Y426669D01*
X656395Y426737D01*
X656533Y426796D01*
X656596Y426837D01*
X656663Y426871D01*
X656784Y426961D01*
X656909Y427044D01*
X656963Y427096D01*
X657024Y427141D01*
X657126Y427251D01*
X657235Y427355D01*
X657279Y427416D01*
X657331Y427471D01*
X657412Y427597D01*
X657501Y427718D01*
X657534Y427786D01*
X657575Y427849D01*
X657632Y427988D01*
X657698Y428123D01*
X657719Y428195D01*
X657748Y428265D01*
X657780Y428411D01*
X657821Y428556D01*
X657829Y428631D01*
X657845Y428704D01*
X657864Y428982D01*
X657866Y429004D01*
X657866Y429009D01*
X657866Y429016D01*
X657940Y441970D01*
X657936Y442009D01*
X657939Y442048D01*
X657918Y442233D01*
X657902Y442419D01*
X657892Y442457D01*
X657888Y442495D01*
X657834Y442674D01*
X657786Y442854D01*
X657770Y442889D01*
X657759Y442927D01*
X657674Y443093D01*
X657595Y443262D01*
X657573Y443294D01*
X657555Y443328D01*
X657443Y443477D01*
X657335Y443629D01*
X657307Y443657D01*
X657284Y443688D01*
X657147Y443814D01*
X657014Y443945D01*
X656982Y443967D01*
X656954Y443994D01*
X656796Y444094D01*
X656643Y444199D01*
X656607Y444215D01*
X656574Y444236D01*
X656402Y444308D01*
X656232Y444384D01*
X656194Y444393D01*
X656158Y444408D01*
X655976Y444448D01*
X655795Y444493D01*
X655756Y444496D01*
X655718Y444504D01*
X655406Y444524D01*
X167655Y445658D01*
X167522Y445646D01*
X167389Y445644D01*
X167298Y445627D01*
X167206Y445619D01*
X167078Y445584D01*
X166947Y445559D01*
X166861Y445525D01*
X166771Y445501D01*
X166651Y445444D01*
X166527Y445396D01*
X166448Y445348D01*
X166364Y445309D01*
X166256Y445232D01*
X166142Y445163D01*
X166073Y445101D01*
X165998Y445047D01*
X165904Y444952D01*
X165805Y444864D01*
X165748Y444792D01*
X165683Y444725D01*
X165608Y444615D01*
X165526Y444511D01*
X165482Y444430D01*
X165430Y444353D01*
X165376Y444232D01*
X165313Y444114D01*
X165284Y444026D01*
X165247Y443942D01*
X165215Y443812D01*
X165174Y443686D01*
X165161Y443595D01*
X165139Y443504D01*
X165131Y443372D01*
X165112Y443240D01*
X165116Y443147D01*
X165110Y443055D01*
X165125Y442923D01*
X165131Y442790D01*
X165151Y442700D01*
X165161Y442608D01*
X165200Y442480D01*
X165228Y442351D01*
X165264Y442265D01*
X165291Y442176D01*
X165351Y442058D01*
X165402Y441935D01*
X165452Y441857D01*
X165494Y441775D01*
X165574Y441669D01*
X165646Y441557D01*
X165729Y441463D01*
X165765Y441415D01*
X165799Y441384D01*
X165853Y441323D01*
X173579Y433597D01*
X173579Y421603D01*
X165097Y413121D01*
X153103Y413121D01*
X144621Y421603D01*
X144621Y433597D01*
X152386Y441362D01*
X152468Y441460D01*
X152557Y441551D01*
X152612Y441632D01*
X152675Y441708D01*
X152738Y441818D01*
X152810Y441923D01*
X152850Y442013D01*
X152899Y442099D01*
X152941Y442218D01*
X152993Y442335D01*
X153017Y442430D01*
X153049Y442523D01*
X153070Y442648D01*
X153101Y442772D01*
X153107Y442870D01*
X153123Y442967D01*
X153121Y443094D01*
X153129Y443221D01*
X153118Y443319D01*
X153117Y443417D01*
X153093Y443542D01*
X153078Y443668D01*
X153050Y443763D01*
X153031Y443859D01*
X152986Y443978D01*
X152949Y444100D01*
X152905Y444188D01*
X152869Y444280D01*
X152803Y444388D01*
X152746Y444501D01*
X152686Y444580D01*
X152635Y444664D01*
X152551Y444760D01*
X152474Y444861D01*
X152402Y444928D01*
X152337Y445002D01*
X152237Y445081D01*
X152144Y445167D01*
X152061Y445220D01*
X151984Y445281D01*
X151872Y445341D01*
X151765Y445410D01*
X151674Y445447D01*
X151587Y445494D01*
X151466Y445533D01*
X151349Y445581D01*
X151252Y445602D01*
X151159Y445633D01*
X151033Y445650D01*
X150909Y445677D01*
X150774Y445686D01*
X150713Y445694D01*
X150670Y445693D01*
X150597Y445697D01*
X16168Y446010D01*
X16124Y446006D01*
X16080Y446008D01*
X15900Y445986D01*
X15719Y445971D01*
X15677Y445959D01*
X15633Y445954D01*
X15460Y445901D01*
X15284Y445853D01*
X15245Y445835D01*
X15203Y445822D01*
X15042Y445738D01*
X14877Y445661D01*
X14842Y445635D01*
X14803Y445615D01*
X14659Y445505D01*
X14511Y445399D01*
X14480Y445368D01*
X14445Y445342D01*
X14323Y445207D01*
X14196Y445078D01*
X14171Y445041D01*
X14142Y445009D01*
X14045Y444855D01*
X13943Y444705D01*
X13925Y444665D01*
X13902Y444628D01*
X13834Y444460D01*
X13760Y444294D01*
X13749Y444251D01*
X13733Y444211D01*
X13695Y444033D01*
X13652Y443857D01*
X13649Y443813D01*
X13640Y443770D01*
X13623Y443458D01*
X15699Y14275D01*
X15702Y14248D01*
X15700Y14221D01*
X15723Y14024D01*
X15742Y13827D01*
X15749Y13801D01*
X15752Y13774D01*
X15809Y13584D01*
X15862Y13393D01*
X15874Y13369D01*
X15882Y13343D01*
X15971Y13166D01*
X16058Y12988D01*
X16074Y12965D01*
X16086Y12941D01*
X16205Y12784D01*
X16321Y12623D01*
X16341Y12604D01*
X16357Y12582D01*
X16503Y12448D01*
X16646Y12310D01*
X16668Y12295D01*
X16688Y12277D01*
X16855Y12170D01*
X17020Y12060D01*
X17045Y12049D01*
X17068Y12034D01*
X17252Y11959D01*
X17433Y11880D01*
X17459Y11873D01*
X17484Y11863D01*
X17679Y11821D01*
X17871Y11775D01*
X17898Y11774D01*
X17924Y11768D01*
X18236Y11748D01*
X23761Y11743D01*
X23796Y11746D01*
X23832Y11744D01*
X24021Y11766D01*
X24209Y11783D01*
X24244Y11792D01*
X24279Y11796D01*
X24461Y11851D01*
X24644Y11901D01*
X24676Y11916D01*
X24710Y11926D01*
X24879Y12012D01*
X25050Y12094D01*
X25080Y12114D01*
X25112Y12131D01*
X25262Y12245D01*
X25417Y12355D01*
X25442Y12381D01*
X25470Y12403D01*
X25599Y12542D01*
X25731Y12678D01*
X25751Y12707D01*
X25776Y12734D01*
X25877Y12894D01*
X25984Y13051D01*
X25998Y13083D01*
X26017Y13114D01*
X26089Y13289D01*
X26166Y13462D01*
X26175Y13497D01*
X26188Y13530D01*
X26228Y13716D01*
X26273Y13899D01*
X26275Y13935D01*
X26283Y13970D01*
X26302Y14282D01*
X26302Y29414D01*
X27340Y31919D01*
X27404Y32125D01*
X27470Y32325D01*
X27471Y32337D01*
X27475Y32349D01*
X27502Y32562D01*
X27531Y32772D01*
X27530Y32783D01*
X27532Y32795D01*
X27521Y33008D01*
X27512Y33221D01*
X27509Y33233D01*
X27508Y33245D01*
X27461Y33451D01*
X27414Y33661D01*
X27409Y33672D01*
X27406Y33684D01*
X27329Y33863D01*
X27324Y33879D01*
X26202Y36586D01*
X26202Y55014D01*
X27130Y57255D01*
X28973Y59097D01*
X29030Y59132D01*
X29128Y59220D01*
X29232Y59301D01*
X29295Y59371D01*
X29365Y59434D01*
X29445Y59538D01*
X29533Y59635D01*
X29583Y59715D01*
X29641Y59789D01*
X29702Y59906D01*
X29771Y60018D01*
X29806Y60105D01*
X29850Y60188D01*
X29889Y60313D01*
X29938Y60436D01*
X29957Y60528D01*
X29985Y60617D01*
X30002Y60748D01*
X30028Y60877D01*
X30030Y60971D01*
X30042Y61064D01*
X30036Y61196D01*
X30039Y61327D01*
X30025Y61420D01*
X30020Y61514D01*
X29978Y61718D01*
X29970Y61772D01*
X29964Y61791D01*
X29958Y61820D01*
X29758Y62565D01*
X29758Y68361D01*
X40300Y68361D01*
X50842Y68361D01*
X50842Y62565D01*
X50642Y61820D01*
X50626Y61727D01*
X50600Y61637D01*
X50587Y61506D01*
X50565Y61377D01*
X50565Y61283D01*
X50556Y61189D01*
X50566Y61058D01*
X50567Y60926D01*
X50584Y60834D01*
X50591Y60740D01*
X50624Y60613D01*
X50648Y60483D01*
X50681Y60395D01*
X50705Y60305D01*
X50760Y60185D01*
X50807Y60062D01*
X50855Y59981D01*
X50894Y59896D01*
X50970Y59788D01*
X51037Y59675D01*
X51099Y59604D01*
X51153Y59527D01*
X51246Y59434D01*
X51332Y59335D01*
X51405Y59276D01*
X51472Y59210D01*
X51580Y59135D01*
X51625Y59099D01*
X53470Y57255D01*
X54398Y55014D01*
X54398Y36586D01*
X53360Y34081D01*
X53296Y33875D01*
X53230Y33675D01*
X53229Y33663D01*
X53225Y33651D01*
X53198Y33438D01*
X53169Y33228D01*
X53170Y33217D01*
X53168Y33205D01*
X53179Y32992D01*
X53188Y32779D01*
X53191Y32767D01*
X53192Y32755D01*
X53239Y32549D01*
X53286Y32339D01*
X53291Y32328D01*
X53294Y32316D01*
X53371Y32137D01*
X53376Y32121D01*
X54498Y29414D01*
X54498Y14250D01*
X54501Y14217D01*
X54499Y14183D01*
X54521Y13993D01*
X54538Y13801D01*
X54546Y13769D01*
X54550Y13736D01*
X54606Y13552D01*
X54656Y13367D01*
X54670Y13337D01*
X54680Y13305D01*
X54767Y13133D01*
X54850Y12960D01*
X54869Y12933D01*
X54884Y12903D01*
X55000Y12750D01*
X55112Y12594D01*
X55136Y12571D01*
X55156Y12544D01*
X55297Y12414D01*
X55434Y12280D01*
X55462Y12261D01*
X55487Y12239D01*
X55648Y12136D01*
X55807Y12028D01*
X55838Y12015D01*
X55866Y11997D01*
X56043Y11924D01*
X56219Y11846D01*
X56252Y11838D01*
X56283Y11825D01*
X56470Y11785D01*
X56657Y11739D01*
X56690Y11737D01*
X56723Y11730D01*
X57035Y11711D01*
X175340Y11595D01*
X175470Y11607D01*
G37*
G36*
X332773Y42191D02*
X332773Y42191D01*
X332902Y42193D01*
X332996Y42211D01*
X333091Y42220D01*
X333217Y42254D01*
X333344Y42279D01*
X333434Y42313D01*
X333526Y42338D01*
X333643Y42394D01*
X333764Y42441D01*
X333846Y42491D01*
X333932Y42532D01*
X334038Y42607D01*
X334149Y42675D01*
X334221Y42738D01*
X334298Y42794D01*
X334389Y42887D01*
X334487Y42973D01*
X334546Y43048D01*
X334612Y43116D01*
X334685Y43224D01*
X334766Y43326D01*
X334811Y43410D01*
X334865Y43490D01*
X334917Y43608D01*
X334979Y43723D01*
X335008Y43814D01*
X335047Y43901D01*
X335078Y44027D01*
X335118Y44151D01*
X335131Y44246D01*
X335153Y44339D01*
X335161Y44468D01*
X335179Y44597D01*
X335175Y44693D01*
X335181Y44788D01*
X335166Y44917D01*
X335161Y45047D01*
X335140Y45140D01*
X335129Y45235D01*
X335091Y45360D01*
X335063Y45487D01*
X335026Y45575D01*
X334999Y45666D01*
X334940Y45782D01*
X334890Y45902D01*
X334838Y45982D01*
X334794Y46068D01*
X334716Y46171D01*
X334645Y46280D01*
X334559Y46378D01*
X334522Y46426D01*
X334489Y46457D01*
X334438Y46515D01*
X333477Y47476D01*
X333477Y49461D01*
X344400Y49461D01*
X355323Y49461D01*
X355323Y47476D01*
X354362Y46515D01*
X354278Y46415D01*
X354188Y46322D01*
X354134Y46242D01*
X354073Y46169D01*
X354008Y46056D01*
X353935Y45949D01*
X353897Y45861D01*
X353849Y45778D01*
X353806Y45656D01*
X353753Y45537D01*
X353731Y45444D01*
X353699Y45354D01*
X353677Y45226D01*
X353647Y45099D01*
X353641Y45004D01*
X353625Y44910D01*
X353627Y44780D01*
X353619Y44650D01*
X353630Y44555D01*
X353631Y44460D01*
X353656Y44332D01*
X353671Y44203D01*
X353699Y44111D01*
X353717Y44017D01*
X353764Y43896D01*
X353801Y43772D01*
X353845Y43686D01*
X353879Y43597D01*
X353947Y43486D01*
X354006Y43371D01*
X354063Y43294D01*
X354113Y43213D01*
X354199Y43115D01*
X354278Y43012D01*
X354348Y42947D01*
X354411Y42875D01*
X354513Y42795D01*
X354609Y42707D01*
X354689Y42655D01*
X354764Y42596D01*
X354879Y42535D01*
X354988Y42465D01*
X355077Y42428D01*
X355161Y42383D01*
X355285Y42343D01*
X355405Y42294D01*
X355498Y42274D01*
X355589Y42244D01*
X355718Y42226D01*
X355845Y42199D01*
X355975Y42191D01*
X356035Y42183D01*
X356080Y42185D01*
X356157Y42180D01*
X361068Y42180D01*
X361198Y42191D01*
X361327Y42193D01*
X361421Y42211D01*
X361516Y42220D01*
X361642Y42254D01*
X361769Y42279D01*
X361859Y42313D01*
X361951Y42338D01*
X362068Y42394D01*
X362189Y42441D01*
X362271Y42491D01*
X362357Y42532D01*
X362463Y42607D01*
X362574Y42675D01*
X362646Y42738D01*
X362723Y42794D01*
X362814Y42887D01*
X362912Y42973D01*
X362971Y43048D01*
X363037Y43116D01*
X363110Y43224D01*
X363191Y43326D01*
X363236Y43410D01*
X363290Y43490D01*
X363342Y43608D01*
X363404Y43723D01*
X363433Y43814D01*
X363472Y43901D01*
X363503Y44028D01*
X363543Y44151D01*
X363556Y44246D01*
X363578Y44339D01*
X363586Y44468D01*
X363604Y44597D01*
X363600Y44693D01*
X363606Y44788D01*
X363591Y44917D01*
X363586Y45047D01*
X363565Y45140D01*
X363554Y45235D01*
X363516Y45360D01*
X363488Y45487D01*
X363451Y45575D01*
X363424Y45666D01*
X363365Y45782D01*
X363315Y45902D01*
X363263Y45982D01*
X363219Y46068D01*
X363141Y46171D01*
X363070Y46280D01*
X362984Y46378D01*
X362947Y46426D01*
X362914Y46457D01*
X362863Y46515D01*
X361331Y48046D01*
X360403Y50287D01*
X360403Y70713D01*
X361331Y72954D01*
X363046Y74669D01*
X365287Y75597D01*
X384713Y75597D01*
X387030Y74637D01*
X387101Y74577D01*
X387131Y74560D01*
X387158Y74539D01*
X387326Y74449D01*
X387492Y74354D01*
X387525Y74342D01*
X387555Y74326D01*
X387737Y74267D01*
X387916Y74203D01*
X387951Y74198D01*
X387984Y74187D01*
X388172Y74161D01*
X388361Y74130D01*
X388395Y74130D01*
X388430Y74125D01*
X388620Y74133D01*
X388811Y74136D01*
X388845Y74142D01*
X388879Y74144D01*
X389065Y74185D01*
X389253Y74221D01*
X389285Y74234D01*
X389319Y74241D01*
X389495Y74315D01*
X389673Y74384D01*
X389702Y74402D01*
X389734Y74415D01*
X389895Y74519D01*
X390058Y74618D01*
X390084Y74641D01*
X390113Y74659D01*
X390347Y74866D01*
X391106Y75625D01*
X391211Y75751D01*
X391323Y75872D01*
X391355Y75923D01*
X391394Y75970D01*
X391476Y76113D01*
X391564Y76252D01*
X391588Y76308D01*
X391618Y76361D01*
X391673Y76516D01*
X391735Y76668D01*
X391748Y76728D01*
X391769Y76786D01*
X391795Y76948D01*
X391830Y77109D01*
X391835Y77186D01*
X391842Y77230D01*
X391841Y77291D01*
X391849Y77420D01*
X391849Y79961D01*
X399289Y87401D01*
X409811Y87401D01*
X410120Y87091D01*
X410220Y87008D01*
X410313Y86917D01*
X410393Y86863D01*
X410466Y86802D01*
X410579Y86738D01*
X410686Y86665D01*
X410774Y86626D01*
X410857Y86579D01*
X410979Y86535D01*
X411098Y86483D01*
X411191Y86460D01*
X411281Y86428D01*
X411409Y86407D01*
X411536Y86376D01*
X411631Y86370D01*
X411725Y86354D01*
X411855Y86356D01*
X411985Y86348D01*
X412080Y86359D01*
X412175Y86361D01*
X412303Y86385D01*
X412432Y86400D01*
X412524Y86428D01*
X412618Y86446D01*
X412739Y86493D01*
X412863Y86531D01*
X412949Y86574D01*
X413038Y86608D01*
X413149Y86676D01*
X413265Y86735D01*
X413341Y86793D01*
X413422Y86842D01*
X413520Y86928D01*
X413623Y87007D01*
X413688Y87077D01*
X413760Y87141D01*
X413840Y87242D01*
X413929Y87338D01*
X413980Y87419D01*
X414039Y87494D01*
X414100Y87608D01*
X414170Y87718D01*
X414207Y87806D01*
X414252Y87890D01*
X414292Y88014D01*
X414341Y88134D01*
X414361Y88228D01*
X414391Y88319D01*
X414409Y88447D01*
X414436Y88575D01*
X414444Y88705D01*
X414452Y88765D01*
X414451Y88809D01*
X414455Y88887D01*
X414455Y91188D01*
X419812Y96545D01*
X421061Y96545D01*
X421061Y87400D01*
X421064Y87366D01*
X421062Y87331D01*
X421084Y87142D01*
X421100Y86952D01*
X421110Y86918D01*
X421114Y86884D01*
X421169Y86701D01*
X421219Y86517D01*
X421234Y86486D01*
X421244Y86453D01*
X421331Y86282D01*
X421412Y86111D01*
X421433Y86083D01*
X421448Y86052D01*
X421563Y85900D01*
X421675Y85745D01*
X421675Y85744D01*
X421699Y85720D01*
X421720Y85693D01*
X421721Y85693D01*
X421721Y85692D01*
X421861Y85563D01*
X421998Y85430D01*
X422026Y85411D01*
X422052Y85387D01*
X422213Y85285D01*
X422371Y85178D01*
X422402Y85164D01*
X422432Y85145D01*
X422608Y85073D01*
X422783Y84996D01*
X422816Y84988D01*
X422848Y84975D01*
X423035Y84934D01*
X423220Y84889D01*
X423254Y84887D01*
X423288Y84880D01*
X423600Y84861D01*
X432745Y84861D01*
X432745Y83612D01*
X428143Y79010D01*
X428120Y78983D01*
X428094Y78960D01*
X427976Y78811D01*
X427854Y78665D01*
X427837Y78635D01*
X427815Y78607D01*
X427725Y78439D01*
X427630Y78274D01*
X427619Y78241D01*
X427602Y78211D01*
X427543Y78029D01*
X427480Y77849D01*
X427474Y77815D01*
X427463Y77782D01*
X427437Y77593D01*
X427406Y77405D01*
X427407Y77371D01*
X427402Y77336D01*
X427410Y77145D01*
X427412Y76955D01*
X427419Y76921D01*
X427420Y76886D01*
X427461Y76700D01*
X427498Y76513D01*
X427510Y76481D01*
X427518Y76447D01*
X427591Y76271D01*
X427660Y76093D01*
X427678Y76063D01*
X427691Y76031D01*
X427795Y75871D01*
X427894Y75708D01*
X427917Y75682D01*
X427936Y75653D01*
X428143Y75419D01*
X430657Y72904D01*
X430783Y72799D01*
X430904Y72687D01*
X430956Y72655D01*
X431002Y72616D01*
X431145Y72534D01*
X431284Y72446D01*
X431341Y72422D01*
X431393Y72392D01*
X431548Y72337D01*
X431701Y72275D01*
X431760Y72262D01*
X431818Y72241D01*
X431980Y72215D01*
X432141Y72180D01*
X432218Y72175D01*
X432262Y72168D01*
X432323Y72169D01*
X432453Y72161D01*
X460608Y72161D01*
X460619Y72162D01*
X460631Y72161D01*
X460844Y72182D01*
X461056Y72201D01*
X461067Y72204D01*
X461079Y72205D01*
X461285Y72263D01*
X461490Y72319D01*
X461501Y72324D01*
X461512Y72327D01*
X461706Y72422D01*
X461897Y72513D01*
X461906Y72519D01*
X461917Y72524D01*
X462090Y72651D01*
X462263Y72775D01*
X462271Y72783D01*
X462281Y72790D01*
X462428Y72944D01*
X462577Y73097D01*
X462584Y73107D01*
X462592Y73115D01*
X462709Y73293D01*
X462829Y73470D01*
X462834Y73481D01*
X462840Y73491D01*
X462925Y73687D01*
X463011Y73882D01*
X463014Y73893D01*
X463019Y73904D01*
X463068Y74113D01*
X463118Y74320D01*
X463119Y74331D01*
X463121Y74343D01*
X463133Y74556D01*
X463146Y74769D01*
X463144Y74781D01*
X463145Y74792D01*
X463119Y75003D01*
X463094Y75216D01*
X463090Y75227D01*
X463089Y75239D01*
X463026Y75441D01*
X462963Y75647D01*
X462958Y75658D01*
X462955Y75669D01*
X462857Y75857D01*
X462759Y76049D01*
X462752Y76058D01*
X462747Y76068D01*
X462616Y76237D01*
X462487Y76407D01*
X462479Y76415D01*
X462471Y76424D01*
X462313Y76568D01*
X462156Y76712D01*
X462146Y76719D01*
X462138Y76726D01*
X461877Y76899D01*
X461240Y77267D01*
X460767Y77740D01*
X460432Y78319D01*
X460259Y78965D01*
X460259Y83551D01*
X470090Y83551D01*
X470124Y83554D01*
X470159Y83552D01*
X470348Y83574D01*
X470538Y83591D01*
X470572Y83600D01*
X470606Y83604D01*
X470789Y83659D01*
X470973Y83709D01*
X471004Y83724D01*
X471037Y83734D01*
X471208Y83821D01*
X471379Y83903D01*
X471407Y83923D01*
X471438Y83938D01*
X471590Y84054D01*
X471745Y84165D01*
X471770Y84190D01*
X471797Y84210D01*
X471806Y84220D01*
X471908Y84120D01*
X471936Y84101D01*
X471962Y84077D01*
X472123Y83975D01*
X472281Y83868D01*
X472312Y83854D01*
X472342Y83836D01*
X472518Y83763D01*
X472692Y83686D01*
X472726Y83678D01*
X472758Y83665D01*
X472945Y83624D01*
X473130Y83579D01*
X473164Y83577D01*
X473198Y83570D01*
X473510Y83551D01*
X483341Y83551D01*
X483341Y78965D01*
X483168Y78319D01*
X482833Y77740D01*
X482360Y77267D01*
X481723Y76899D01*
X481713Y76892D01*
X481703Y76887D01*
X481530Y76763D01*
X481354Y76640D01*
X481346Y76632D01*
X481337Y76625D01*
X481187Y76471D01*
X481038Y76320D01*
X481031Y76311D01*
X481023Y76303D01*
X480904Y76126D01*
X480782Y75950D01*
X480777Y75939D01*
X480771Y75930D01*
X480684Y75734D01*
X480596Y75540D01*
X480593Y75528D01*
X480589Y75518D01*
X480538Y75309D01*
X480485Y75103D01*
X480485Y75092D01*
X480482Y75080D01*
X480469Y74868D01*
X480454Y74654D01*
X480455Y74642D01*
X480454Y74631D01*
X480479Y74419D01*
X480502Y74206D01*
X480505Y74195D01*
X480506Y74184D01*
X480568Y73978D01*
X480628Y73774D01*
X480633Y73764D01*
X480637Y73753D01*
X480734Y73562D01*
X480829Y73371D01*
X480836Y73362D01*
X480841Y73351D01*
X480970Y73181D01*
X481097Y73010D01*
X481106Y73002D01*
X481113Y72993D01*
X481270Y72847D01*
X481426Y72702D01*
X481435Y72695D01*
X481444Y72687D01*
X481624Y72573D01*
X481803Y72456D01*
X481814Y72452D01*
X481824Y72446D01*
X482020Y72365D01*
X482218Y72282D01*
X482230Y72279D01*
X482240Y72275D01*
X482450Y72230D01*
X482658Y72183D01*
X482669Y72182D01*
X482681Y72180D01*
X482992Y72161D01*
X484981Y72161D01*
X485145Y72175D01*
X485309Y72182D01*
X485369Y72195D01*
X485429Y72201D01*
X485588Y72244D01*
X485749Y72280D01*
X485805Y72303D01*
X485864Y72319D01*
X486012Y72390D01*
X486164Y72453D01*
X486216Y72486D01*
X486270Y72513D01*
X486404Y72608D01*
X486542Y72698D01*
X486600Y72749D01*
X486637Y72775D01*
X486679Y72818D01*
X486777Y72904D01*
X488413Y74541D01*
X490654Y75469D01*
X495164Y75469D01*
X495199Y75473D01*
X495233Y75470D01*
X495422Y75492D01*
X495613Y75509D01*
X495646Y75519D01*
X495680Y75523D01*
X495863Y75578D01*
X496047Y75628D01*
X496078Y75643D01*
X496111Y75653D01*
X496282Y75740D01*
X496454Y75821D01*
X496482Y75841D01*
X496513Y75857D01*
X496665Y75972D01*
X496820Y76083D01*
X496844Y76108D01*
X496871Y76129D01*
X497000Y76269D01*
X497134Y76406D01*
X497153Y76435D01*
X497177Y76460D01*
X497279Y76621D01*
X497386Y76779D01*
X497400Y76811D01*
X497418Y76840D01*
X497491Y77017D01*
X497568Y77191D01*
X497576Y77225D01*
X497589Y77257D01*
X497629Y77443D01*
X497675Y77628D01*
X497677Y77663D01*
X497684Y77697D01*
X497703Y78009D01*
X497703Y97513D01*
X498631Y99754D01*
X499882Y101004D01*
X499966Y101104D01*
X500057Y101197D01*
X500110Y101277D01*
X500171Y101350D01*
X500236Y101463D01*
X500309Y101570D01*
X500347Y101658D01*
X500395Y101741D01*
X500438Y101863D01*
X500491Y101982D01*
X500513Y102075D01*
X500546Y102165D01*
X500567Y102293D01*
X500598Y102420D01*
X500603Y102515D01*
X500619Y102609D01*
X500617Y102739D01*
X500625Y102869D01*
X500614Y102964D01*
X500613Y103060D01*
X500588Y103187D01*
X500573Y103316D01*
X500545Y103408D01*
X500527Y103502D01*
X500481Y103623D01*
X500443Y103747D01*
X500399Y103833D01*
X500365Y103922D01*
X500298Y104033D01*
X500238Y104149D01*
X500181Y104225D01*
X500131Y104306D01*
X500045Y104404D01*
X499966Y104507D01*
X499896Y104572D01*
X499833Y104644D01*
X499731Y104724D01*
X499635Y104813D01*
X499555Y104864D01*
X499480Y104923D01*
X499365Y104985D01*
X499256Y105054D01*
X499167Y105091D01*
X499083Y105136D01*
X498959Y105176D01*
X498839Y105225D01*
X498746Y105245D01*
X498655Y105275D01*
X498526Y105293D01*
X498399Y105320D01*
X498269Y105328D01*
X498209Y105336D01*
X498164Y105335D01*
X498087Y105339D01*
X496013Y105339D01*
X495849Y105325D01*
X495685Y105318D01*
X495625Y105305D01*
X495565Y105299D01*
X495406Y105256D01*
X495245Y105220D01*
X495189Y105197D01*
X495130Y105181D01*
X494982Y105110D01*
X494830Y105047D01*
X494779Y105014D01*
X494724Y104987D01*
X494590Y104892D01*
X494452Y104802D01*
X494394Y104751D01*
X494358Y104725D01*
X494315Y104682D01*
X494218Y104596D01*
X493954Y104331D01*
X491713Y103403D01*
X483055Y103403D01*
X483043Y103402D01*
X483032Y103403D01*
X482819Y103382D01*
X482606Y103363D01*
X482595Y103360D01*
X482584Y103359D01*
X482378Y103301D01*
X482172Y103245D01*
X482162Y103240D01*
X482150Y103237D01*
X481958Y103143D01*
X481765Y103051D01*
X481756Y103045D01*
X481746Y103040D01*
X481574Y102914D01*
X481399Y102789D01*
X481391Y102781D01*
X481382Y102774D01*
X481235Y102621D01*
X481085Y102467D01*
X481079Y102457D01*
X481071Y102449D01*
X480953Y102271D01*
X480833Y102094D01*
X480828Y102083D01*
X480822Y102073D01*
X480738Y101878D01*
X480651Y101682D01*
X480648Y101670D01*
X480644Y101660D01*
X480595Y101451D01*
X480544Y101244D01*
X480544Y101233D01*
X480541Y101222D01*
X480530Y101008D01*
X480517Y100795D01*
X480518Y100783D01*
X480517Y100772D01*
X480544Y100562D01*
X480569Y100348D01*
X480572Y100337D01*
X480573Y100325D01*
X480637Y100122D01*
X480699Y99917D01*
X480704Y99906D01*
X480708Y99895D01*
X480807Y99704D01*
X480903Y99515D01*
X480910Y99506D01*
X480916Y99496D01*
X481047Y99326D01*
X481175Y99157D01*
X481184Y99149D01*
X481191Y99140D01*
X481349Y98997D01*
X481506Y98852D01*
X481516Y98845D01*
X481525Y98838D01*
X481785Y98665D01*
X482360Y98333D01*
X482833Y97860D01*
X483168Y97281D01*
X483341Y96635D01*
X483341Y92049D01*
X473510Y92049D01*
X473476Y92046D01*
X473441Y92048D01*
X473252Y92026D01*
X473062Y92009D01*
X473028Y92000D01*
X472994Y91996D01*
X472811Y91941D01*
X472627Y91891D01*
X472596Y91876D01*
X472563Y91866D01*
X472392Y91779D01*
X472221Y91697D01*
X472193Y91677D01*
X472162Y91662D01*
X472010Y91546D01*
X471855Y91435D01*
X471830Y91410D01*
X471803Y91390D01*
X471794Y91380D01*
X471692Y91480D01*
X471664Y91499D01*
X471638Y91523D01*
X471477Y91625D01*
X471319Y91732D01*
X471288Y91746D01*
X471258Y91764D01*
X471082Y91837D01*
X470908Y91914D01*
X470874Y91922D01*
X470842Y91935D01*
X470655Y91975D01*
X470470Y92021D01*
X470436Y92023D01*
X470402Y92030D01*
X470090Y92049D01*
X460259Y92049D01*
X460259Y96635D01*
X460432Y97281D01*
X460767Y97860D01*
X461240Y98333D01*
X461819Y98668D01*
X461820Y98668D01*
X461887Y98692D01*
X461956Y98708D01*
X462098Y98769D01*
X462243Y98822D01*
X462304Y98858D01*
X462369Y98886D01*
X462498Y98971D01*
X462632Y99049D01*
X462686Y99095D01*
X462745Y99134D01*
X462857Y99241D01*
X462975Y99341D01*
X463020Y99396D01*
X463071Y99445D01*
X463162Y99570D01*
X463260Y99689D01*
X463295Y99751D01*
X463337Y99808D01*
X463405Y99947D01*
X463480Y100082D01*
X463503Y100149D01*
X463534Y100213D01*
X463577Y100362D01*
X463627Y100508D01*
X463638Y100578D01*
X463657Y100646D01*
X463673Y100800D01*
X463697Y100953D01*
X463695Y101023D01*
X463702Y101094D01*
X463690Y101249D01*
X463686Y101403D01*
X463672Y101472D01*
X463667Y101543D01*
X463628Y101692D01*
X463597Y101844D01*
X463571Y101910D01*
X463553Y101979D01*
X463488Y102119D01*
X463431Y102263D01*
X463393Y102323D01*
X463364Y102387D01*
X463275Y102514D01*
X463193Y102645D01*
X463146Y102698D01*
X463105Y102756D01*
X462996Y102865D01*
X462892Y102980D01*
X462836Y103023D01*
X462786Y103073D01*
X462659Y103161D01*
X462537Y103256D01*
X462474Y103289D01*
X462415Y103329D01*
X462144Y103462D01*
X462138Y103465D01*
X462137Y103466D01*
X462135Y103466D01*
X460046Y104331D01*
X458331Y106046D01*
X457366Y108377D01*
X457363Y108409D01*
X457342Y108488D01*
X457329Y108569D01*
X457283Y108705D01*
X457245Y108843D01*
X457209Y108917D01*
X457183Y108995D01*
X457113Y109121D01*
X457051Y109250D01*
X457004Y109316D01*
X456963Y109389D01*
X456873Y109499D01*
X456789Y109616D01*
X456730Y109673D01*
X456678Y109737D01*
X456569Y109830D01*
X456467Y109930D01*
X456398Y109976D01*
X456336Y110029D01*
X456212Y110102D01*
X456094Y110182D01*
X456018Y110215D01*
X455947Y110257D01*
X455813Y110306D01*
X455682Y110364D01*
X455602Y110384D01*
X455524Y110412D01*
X455383Y110437D01*
X455244Y110471D01*
X455162Y110476D01*
X455081Y110490D01*
X454938Y110490D01*
X454795Y110498D01*
X454713Y110489D01*
X454631Y110489D01*
X454490Y110463D01*
X454348Y110446D01*
X454269Y110422D01*
X454188Y110408D01*
X453955Y110328D01*
X453917Y110316D01*
X453907Y110311D01*
X453892Y110306D01*
X451713Y109403D01*
X431287Y109403D01*
X429046Y110331D01*
X427331Y112046D01*
X426403Y114287D01*
X426403Y133713D01*
X427297Y135871D01*
X427336Y135995D01*
X427384Y136116D01*
X427403Y136209D01*
X427432Y136300D01*
X427448Y136430D01*
X427474Y136557D01*
X427477Y136652D01*
X427489Y136747D01*
X427482Y136877D01*
X427485Y137007D01*
X427471Y137101D01*
X427466Y137197D01*
X427436Y137323D01*
X427416Y137452D01*
X427385Y137542D01*
X427364Y137635D01*
X427312Y137755D01*
X427270Y137878D01*
X427223Y137961D01*
X427186Y138049D01*
X427114Y138157D01*
X427051Y138271D01*
X426990Y138345D01*
X426937Y138425D01*
X426848Y138519D01*
X426765Y138619D01*
X426693Y138682D01*
X426627Y138751D01*
X426522Y138827D01*
X426423Y138912D01*
X426340Y138960D01*
X426263Y139016D01*
X426147Y139073D01*
X426034Y139139D01*
X425945Y139172D01*
X425859Y139214D01*
X425734Y139250D01*
X425612Y139294D01*
X425517Y139311D01*
X425426Y139337D01*
X425296Y139350D01*
X425168Y139373D01*
X425073Y139372D01*
X424978Y139382D01*
X424848Y139371D01*
X424718Y139371D01*
X424624Y139354D01*
X424529Y139346D01*
X424403Y139314D01*
X424275Y139290D01*
X424152Y139248D01*
X424093Y139232D01*
X424052Y139214D01*
X423979Y139188D01*
X423214Y138871D01*
X418786Y138871D01*
X418021Y139188D01*
X417897Y139227D01*
X417776Y139276D01*
X417682Y139295D01*
X417591Y139323D01*
X417462Y139340D01*
X417334Y139366D01*
X417239Y139368D01*
X417144Y139380D01*
X417014Y139373D01*
X416884Y139376D01*
X416790Y139362D01*
X416695Y139357D01*
X416568Y139327D01*
X416439Y139308D01*
X416349Y139277D01*
X416256Y139255D01*
X416137Y139204D01*
X416014Y139161D01*
X415930Y139115D01*
X415842Y139077D01*
X415734Y139005D01*
X415620Y138942D01*
X415546Y138881D01*
X415467Y138829D01*
X415373Y138739D01*
X415272Y138657D01*
X415210Y138584D01*
X415141Y138518D01*
X415064Y138413D01*
X414979Y138314D01*
X414931Y138232D01*
X414875Y138155D01*
X414818Y138038D01*
X414752Y137926D01*
X414719Y137836D01*
X414677Y137750D01*
X414642Y137625D01*
X414597Y137503D01*
X414580Y137409D01*
X414554Y137317D01*
X414541Y137188D01*
X414519Y137060D01*
X414519Y136964D01*
X414510Y136869D01*
X414520Y136739D01*
X414520Y136609D01*
X414537Y136515D01*
X414545Y136420D01*
X414578Y136294D01*
X414601Y136166D01*
X414643Y136043D01*
X414659Y135984D01*
X414678Y135944D01*
X414703Y135871D01*
X415597Y133713D01*
X415597Y114287D01*
X414669Y112046D01*
X412954Y110331D01*
X410713Y109403D01*
X392136Y109403D01*
X392101Y109400D01*
X392067Y109402D01*
X391878Y109380D01*
X391687Y109363D01*
X391654Y109354D01*
X391620Y109350D01*
X391437Y109295D01*
X391253Y109245D01*
X391222Y109230D01*
X391189Y109220D01*
X391018Y109133D01*
X390846Y109051D01*
X390818Y109031D01*
X390787Y109016D01*
X390635Y108900D01*
X390480Y108789D01*
X390456Y108764D01*
X390429Y108744D01*
X390300Y108604D01*
X390166Y108467D01*
X390147Y108438D01*
X390123Y108412D01*
X390021Y108251D01*
X389914Y108094D01*
X389900Y108062D01*
X389882Y108033D01*
X389809Y107856D01*
X389732Y107682D01*
X389724Y107648D01*
X389711Y107616D01*
X389671Y107429D01*
X389625Y107244D01*
X389623Y107210D01*
X389616Y107176D01*
X389597Y106864D01*
X389597Y91287D01*
X388669Y89046D01*
X386954Y87331D01*
X384713Y86403D01*
X365287Y86403D01*
X363046Y87331D01*
X361331Y89047D01*
X360610Y90788D01*
X360512Y90976D01*
X360416Y91165D01*
X360408Y91175D01*
X360402Y91187D01*
X360271Y91356D01*
X360144Y91523D01*
X360134Y91532D01*
X360126Y91543D01*
X359968Y91685D01*
X359813Y91829D01*
X359801Y91836D01*
X359792Y91844D01*
X359613Y91956D01*
X359433Y92070D01*
X359421Y92075D01*
X359409Y92082D01*
X359212Y92161D01*
X359016Y92241D01*
X359004Y92244D01*
X358991Y92249D01*
X358783Y92292D01*
X358576Y92336D01*
X358560Y92337D01*
X358550Y92339D01*
X358511Y92340D01*
X358264Y92355D01*
X324895Y92355D01*
X324731Y92341D01*
X324567Y92334D01*
X324507Y92321D01*
X324447Y92315D01*
X324288Y92272D01*
X324127Y92236D01*
X324071Y92213D01*
X324012Y92197D01*
X323864Y92126D01*
X323712Y92063D01*
X323660Y92030D01*
X323606Y92003D01*
X323472Y91908D01*
X323334Y91818D01*
X323276Y91767D01*
X323240Y91741D01*
X323197Y91698D01*
X323100Y91612D01*
X311695Y80207D01*
X311590Y80081D01*
X311478Y79960D01*
X311446Y79909D01*
X311406Y79862D01*
X311325Y79719D01*
X311236Y79580D01*
X311213Y79524D01*
X311183Y79471D01*
X311128Y79316D01*
X311065Y79164D01*
X311053Y79104D01*
X311032Y79047D01*
X311005Y78884D01*
X310971Y78724D01*
X310966Y78647D01*
X310959Y78602D01*
X310960Y78541D01*
X310952Y78412D01*
X310952Y74587D01*
X310023Y72346D01*
X308308Y70631D01*
X306068Y69703D01*
X302504Y69703D01*
X302374Y69691D01*
X302244Y69689D01*
X302151Y69671D01*
X302055Y69663D01*
X301930Y69628D01*
X301802Y69604D01*
X301713Y69569D01*
X301621Y69544D01*
X301504Y69488D01*
X301382Y69442D01*
X301300Y69392D01*
X301214Y69351D01*
X301109Y69275D01*
X300997Y69208D01*
X300926Y69144D01*
X300848Y69089D01*
X300757Y68995D01*
X300660Y68909D01*
X300601Y68835D01*
X300534Y68766D01*
X300461Y68658D01*
X300381Y68556D01*
X300335Y68472D01*
X300282Y68393D01*
X300229Y68274D01*
X300168Y68159D01*
X300138Y68069D01*
X300100Y67981D01*
X300069Y67855D01*
X300029Y67731D01*
X300016Y67637D01*
X299993Y67544D01*
X299985Y67414D01*
X299967Y67285D01*
X299971Y67190D01*
X299965Y67094D01*
X299980Y66965D01*
X299986Y66835D01*
X300006Y66742D01*
X300017Y66647D01*
X300055Y66522D01*
X300083Y66396D01*
X300120Y66308D01*
X300148Y66216D01*
X300207Y66100D01*
X300257Y65980D01*
X300309Y65900D01*
X300352Y65815D01*
X300431Y65711D01*
X300501Y65602D01*
X300587Y65505D01*
X300624Y65456D01*
X300657Y65426D01*
X300708Y65368D01*
X308079Y57997D01*
X308079Y52942D01*
X308093Y52779D01*
X308100Y52614D01*
X308113Y52555D01*
X308119Y52494D01*
X308162Y52335D01*
X308198Y52175D01*
X308221Y52118D01*
X308237Y52060D01*
X308308Y51911D01*
X308371Y51759D01*
X308404Y51708D01*
X308431Y51653D01*
X308526Y51519D01*
X308616Y51381D01*
X308667Y51323D01*
X308693Y51287D01*
X308736Y51244D01*
X308822Y51147D01*
X317046Y42924D01*
X317172Y42818D01*
X317293Y42707D01*
X317344Y42674D01*
X317391Y42635D01*
X317534Y42553D01*
X317673Y42465D01*
X317729Y42441D01*
X317782Y42411D01*
X317937Y42356D01*
X318089Y42294D01*
X318149Y42281D01*
X318207Y42260D01*
X318369Y42234D01*
X318530Y42199D01*
X318606Y42194D01*
X318651Y42187D01*
X318712Y42188D01*
X318841Y42180D01*
X332643Y42180D01*
X332773Y42191D01*
G37*
%LPC*%
G36*
X40300Y73439D02*
X40300Y73439D01*
X29758Y73439D01*
X29758Y79236D01*
X30000Y80138D01*
X30016Y80231D01*
X30042Y80321D01*
X30055Y80452D01*
X30078Y80582D01*
X30077Y80676D01*
X30087Y80769D01*
X30076Y80900D01*
X30076Y81032D01*
X30059Y81124D01*
X30051Y81218D01*
X30018Y81345D01*
X29994Y81475D01*
X29961Y81563D01*
X29937Y81654D01*
X29882Y81773D01*
X29836Y81896D01*
X29787Y81977D01*
X29748Y82062D01*
X29673Y82170D01*
X29605Y82283D01*
X29544Y82354D01*
X29490Y82431D01*
X29396Y82524D01*
X29310Y82623D01*
X29237Y82682D01*
X29170Y82748D01*
X29062Y82823D01*
X28960Y82906D01*
X28877Y82951D01*
X28800Y83004D01*
X28613Y83095D01*
X28565Y83122D01*
X28549Y83127D01*
X26830Y84845D01*
X25902Y87086D01*
X25902Y105514D01*
X26855Y107813D01*
X26969Y107950D01*
X26988Y107982D01*
X27011Y108012D01*
X27100Y108178D01*
X27193Y108341D01*
X27205Y108376D01*
X27223Y108409D01*
X27281Y108588D01*
X27343Y108765D01*
X27350Y108802D01*
X27361Y108838D01*
X27386Y109023D01*
X27417Y109209D01*
X27416Y109247D01*
X27421Y109284D01*
X27413Y109471D01*
X27411Y109660D01*
X27404Y109696D01*
X27402Y109734D01*
X27361Y109916D01*
X27325Y110102D01*
X27312Y110137D01*
X27304Y110173D01*
X27254Y110292D01*
X27224Y110379D01*
X26102Y113086D01*
X26102Y131514D01*
X27030Y133755D01*
X28745Y135470D01*
X30986Y136398D01*
X49414Y136398D01*
X51655Y135470D01*
X53370Y133755D01*
X54298Y131514D01*
X54298Y113086D01*
X53345Y110787D01*
X53231Y110650D01*
X53214Y110620D01*
X53192Y110593D01*
X53102Y110425D01*
X53007Y110259D01*
X52996Y110227D01*
X52979Y110196D01*
X52920Y110015D01*
X52857Y109835D01*
X52851Y109801D01*
X52840Y109768D01*
X52814Y109579D01*
X52783Y109391D01*
X52784Y109356D01*
X52779Y109322D01*
X52787Y109131D01*
X52789Y108941D01*
X52796Y108907D01*
X52797Y108872D01*
X52838Y108686D01*
X52875Y108499D01*
X52887Y108466D01*
X52895Y108432D01*
X52945Y108311D01*
X52976Y108221D01*
X54098Y105514D01*
X54098Y87086D01*
X53170Y84845D01*
X51145Y82821D01*
X51046Y82703D01*
X50942Y82592D01*
X50902Y82531D01*
X50856Y82475D01*
X50780Y82342D01*
X50697Y82214D01*
X50668Y82147D01*
X50633Y82084D01*
X50581Y81940D01*
X50522Y81799D01*
X50506Y81728D01*
X50482Y81660D01*
X50457Y81509D01*
X50423Y81360D01*
X50420Y81288D01*
X50408Y81216D01*
X50410Y81063D01*
X50404Y80910D01*
X50413Y80838D01*
X50414Y80766D01*
X50444Y80615D01*
X50464Y80464D01*
X50486Y80395D01*
X50500Y80324D01*
X50555Y80181D01*
X50602Y80035D01*
X50644Y79952D01*
X50662Y79904D01*
X50663Y79902D01*
X50842Y79236D01*
X50842Y73439D01*
X40300Y73439D01*
X40300Y73439D01*
G37*
%LPD*%
G36*
X454111Y137895D02*
X454111Y137895D01*
X454302Y137905D01*
X454336Y137913D01*
X454370Y137916D01*
X454555Y137964D01*
X454740Y138007D01*
X454772Y138021D01*
X454806Y138030D01*
X454979Y138110D01*
X455154Y138185D01*
X455183Y138204D01*
X455214Y138219D01*
X455370Y138328D01*
X455530Y138433D01*
X455555Y138457D01*
X455583Y138477D01*
X455717Y138612D01*
X455856Y138744D01*
X455876Y138772D01*
X455900Y138797D01*
X456009Y138953D01*
X456121Y139107D01*
X456137Y139138D01*
X456156Y139167D01*
X456294Y139448D01*
X457331Y141953D01*
X459216Y143838D01*
X459321Y143964D01*
X459433Y144085D01*
X459465Y144136D01*
X459504Y144183D01*
X459586Y144326D01*
X459674Y144464D01*
X459698Y144521D01*
X459728Y144574D01*
X459783Y144729D01*
X459845Y144881D01*
X459858Y144941D01*
X459879Y144998D01*
X459905Y145161D01*
X459940Y145321D01*
X459945Y145398D01*
X459952Y145442D01*
X459951Y145504D01*
X459959Y145633D01*
X459959Y147961D01*
X468000Y147961D01*
X468034Y147964D01*
X468069Y147962D01*
X468258Y147984D01*
X468448Y148000D01*
X468482Y148010D01*
X468516Y148014D01*
X468699Y148069D01*
X468883Y148119D01*
X468914Y148134D01*
X468947Y148144D01*
X469118Y148231D01*
X469289Y148312D01*
X469317Y148333D01*
X469348Y148348D01*
X469500Y148463D01*
X469655Y148575D01*
X469679Y148599D01*
X469707Y148620D01*
X469707Y148621D01*
X469836Y148760D01*
X469969Y148897D01*
X469970Y148898D01*
X469989Y148926D01*
X470013Y148952D01*
X470115Y149113D01*
X470222Y149271D01*
X470236Y149302D01*
X470254Y149332D01*
X470327Y149508D01*
X470404Y149683D01*
X470412Y149716D01*
X470425Y149748D01*
X470466Y149935D01*
X470511Y150120D01*
X470513Y150154D01*
X470520Y150188D01*
X470539Y150500D01*
X470539Y158041D01*
X473835Y158041D01*
X474481Y157868D01*
X475060Y157533D01*
X475462Y157132D01*
X475480Y157116D01*
X475496Y157098D01*
X475653Y156972D01*
X475807Y156843D01*
X475828Y156831D01*
X475846Y156816D01*
X476024Y156719D01*
X476198Y156619D01*
X476220Y156611D01*
X476241Y156600D01*
X476433Y156536D01*
X476622Y156468D01*
X476646Y156465D01*
X476668Y156457D01*
X476868Y156428D01*
X477066Y156395D01*
X477090Y156395D01*
X477114Y156392D01*
X477315Y156398D01*
X477517Y156401D01*
X477540Y156406D01*
X477564Y156406D01*
X477761Y156448D01*
X477959Y156487D01*
X477981Y156495D01*
X478004Y156500D01*
X478191Y156576D01*
X478379Y156649D01*
X478399Y156661D01*
X478421Y156670D01*
X478591Y156778D01*
X478763Y156883D01*
X478781Y156899D01*
X478801Y156911D01*
X478950Y157047D01*
X479101Y157181D01*
X479116Y157200D01*
X479133Y157216D01*
X479255Y157376D01*
X479380Y157534D01*
X479391Y157555D01*
X479406Y157574D01*
X479471Y157701D01*
X479967Y158560D01*
X480440Y159033D01*
X481019Y159368D01*
X481182Y159411D01*
X481294Y159452D01*
X481408Y159483D01*
X481505Y159529D01*
X481605Y159566D01*
X481708Y159626D01*
X481815Y159677D01*
X481902Y159739D01*
X481994Y159793D01*
X482084Y159870D01*
X482181Y159939D01*
X482255Y160015D01*
X482337Y160085D01*
X482412Y160176D01*
X482495Y160261D01*
X482555Y160350D01*
X482623Y160433D01*
X482681Y160536D01*
X482747Y160634D01*
X482790Y160732D01*
X482843Y160826D01*
X482881Y160938D01*
X482929Y161046D01*
X482955Y161150D01*
X482989Y161251D01*
X483008Y161368D01*
X483036Y161484D01*
X483042Y161590D01*
X483059Y161696D01*
X483056Y161814D01*
X483064Y161933D01*
X483051Y162039D01*
X483049Y162146D01*
X483025Y162262D01*
X483011Y162380D01*
X482980Y162483D01*
X482959Y162588D01*
X482916Y162698D01*
X482881Y162811D01*
X482833Y162907D01*
X482793Y163006D01*
X482731Y163107D01*
X482677Y163213D01*
X482612Y163298D01*
X482556Y163389D01*
X482476Y163477D01*
X482405Y163571D01*
X482326Y163644D01*
X482255Y163723D01*
X482161Y163796D01*
X482074Y163877D01*
X481983Y163934D01*
X481899Y164000D01*
X481794Y164055D01*
X481694Y164118D01*
X481595Y164159D01*
X481500Y164209D01*
X481387Y164244D01*
X481277Y164289D01*
X481173Y164312D01*
X481071Y164344D01*
X480953Y164359D01*
X480837Y164384D01*
X480686Y164393D01*
X480624Y164401D01*
X480587Y164399D01*
X480525Y164403D01*
X478287Y164403D01*
X476972Y164948D01*
X476815Y164997D01*
X476660Y165054D01*
X476600Y165065D01*
X476542Y165083D01*
X476379Y165104D01*
X476217Y165132D01*
X476156Y165132D01*
X476095Y165140D01*
X475931Y165131D01*
X475767Y165131D01*
X475707Y165120D01*
X475646Y165117D01*
X475486Y165079D01*
X475324Y165050D01*
X475251Y165025D01*
X475207Y165015D01*
X475152Y164991D01*
X475028Y164948D01*
X473713Y164403D01*
X461287Y164403D01*
X459046Y165331D01*
X457331Y167046D01*
X456403Y169287D01*
X456403Y173612D01*
X456393Y173729D01*
X456393Y173845D01*
X456373Y173952D01*
X456363Y174061D01*
X456333Y174174D01*
X456312Y174288D01*
X456261Y174435D01*
X456245Y174495D01*
X456229Y174528D01*
X456210Y174584D01*
X455839Y175479D01*
X455839Y177141D01*
X455832Y177223D01*
X455834Y177305D01*
X455812Y177446D01*
X455799Y177589D01*
X455778Y177669D01*
X455765Y177750D01*
X455719Y177886D01*
X455681Y178024D01*
X455646Y178098D01*
X455619Y178176D01*
X455549Y178301D01*
X455487Y178430D01*
X455440Y178497D01*
X455399Y178569D01*
X455309Y178680D01*
X455225Y178796D01*
X455166Y178854D01*
X455114Y178918D01*
X455005Y179010D01*
X454903Y179110D01*
X454834Y179157D01*
X454772Y179210D01*
X454648Y179282D01*
X454530Y179362D01*
X454454Y179396D01*
X454383Y179437D01*
X454249Y179487D01*
X454118Y179545D01*
X454038Y179564D01*
X453960Y179593D01*
X453819Y179617D01*
X453680Y179651D01*
X453598Y179656D01*
X453517Y179671D01*
X453374Y179670D01*
X453231Y179679D01*
X453149Y179670D01*
X453067Y179669D01*
X452926Y179644D01*
X452784Y179627D01*
X452705Y179603D01*
X452624Y179588D01*
X452391Y179508D01*
X452353Y179497D01*
X452343Y179492D01*
X452328Y179487D01*
X449713Y178403D01*
X433668Y178403D01*
X433633Y178400D01*
X433599Y178402D01*
X433410Y178380D01*
X433219Y178363D01*
X433186Y178354D01*
X433152Y178350D01*
X432969Y178295D01*
X432785Y178245D01*
X432754Y178230D01*
X432721Y178220D01*
X432550Y178133D01*
X432378Y178051D01*
X432350Y178031D01*
X432319Y178016D01*
X432167Y177900D01*
X432012Y177789D01*
X431988Y177764D01*
X431961Y177744D01*
X431832Y177604D01*
X431698Y177467D01*
X431679Y177438D01*
X431655Y177412D01*
X431553Y177251D01*
X431446Y177094D01*
X431432Y177062D01*
X431414Y177033D01*
X431341Y176856D01*
X431264Y176682D01*
X431256Y176648D01*
X431243Y176616D01*
X431203Y176429D01*
X431157Y176244D01*
X431155Y176210D01*
X431148Y176176D01*
X431129Y175864D01*
X431129Y173786D01*
X429338Y169463D01*
X429303Y169352D01*
X429259Y169244D01*
X429236Y169137D01*
X429203Y169034D01*
X429189Y168918D01*
X429164Y168803D01*
X429154Y168649D01*
X429147Y168587D01*
X429148Y168551D01*
X429145Y168491D01*
X429145Y158645D01*
X429159Y158482D01*
X429166Y158317D01*
X429179Y158258D01*
X429185Y158197D01*
X429228Y158038D01*
X429264Y157878D01*
X429287Y157821D01*
X429303Y157763D01*
X429374Y157615D01*
X429437Y157462D01*
X429470Y157411D01*
X429497Y157356D01*
X429592Y157223D01*
X429682Y157084D01*
X429733Y157026D01*
X429759Y156990D01*
X429802Y156947D01*
X429888Y156850D01*
X430435Y156304D01*
X432129Y152214D01*
X432129Y147786D01*
X430434Y143696D01*
X429670Y142932D01*
X429587Y142832D01*
X429496Y142739D01*
X429442Y142659D01*
X429381Y142586D01*
X429317Y142473D01*
X429244Y142366D01*
X429205Y142278D01*
X429158Y142195D01*
X429114Y142073D01*
X429061Y141954D01*
X429039Y141861D01*
X429007Y141771D01*
X428986Y141643D01*
X428955Y141516D01*
X428949Y141421D01*
X428933Y141327D01*
X428935Y141197D01*
X428927Y141067D01*
X428938Y140972D01*
X428939Y140877D01*
X428964Y140749D01*
X428979Y140620D01*
X429007Y140528D01*
X429025Y140434D01*
X429072Y140313D01*
X429109Y140189D01*
X429153Y140103D01*
X429187Y140014D01*
X429255Y139903D01*
X429314Y139787D01*
X429372Y139711D01*
X429421Y139630D01*
X429507Y139532D01*
X429586Y139429D01*
X429656Y139364D01*
X429719Y139292D01*
X429821Y139212D01*
X429917Y139123D01*
X429998Y139072D01*
X430072Y139013D01*
X430187Y138952D01*
X430297Y138882D01*
X430385Y138845D01*
X430469Y138800D01*
X430593Y138760D01*
X430713Y138711D01*
X430807Y138691D01*
X430898Y138661D01*
X431026Y138643D01*
X431154Y138616D01*
X431284Y138608D01*
X431344Y138600D01*
X431388Y138601D01*
X431465Y138597D01*
X451713Y138597D01*
X452976Y138074D01*
X453009Y138063D01*
X453040Y138048D01*
X453224Y137996D01*
X453405Y137939D01*
X453440Y137934D01*
X453473Y137925D01*
X453663Y137906D01*
X453852Y137882D01*
X453887Y137884D01*
X453921Y137880D01*
X454111Y137895D01*
G37*
%LPC*%
G36*
X218042Y386883D02*
X218042Y386883D01*
X213000Y388971D01*
X209141Y392830D01*
X207053Y397872D01*
X207053Y403328D01*
X209141Y408370D01*
X213000Y412229D01*
X218042Y414317D01*
X238738Y414317D01*
X243780Y412229D01*
X247639Y408370D01*
X249727Y403328D01*
X249727Y397872D01*
X247639Y392830D01*
X243780Y388971D01*
X238738Y386883D01*
X218042Y386883D01*
G37*
%LPD*%
%LPC*%
G36*
X106524Y387695D02*
X106524Y387695D01*
X101856Y389629D01*
X98283Y393202D01*
X96349Y397870D01*
X96349Y416130D01*
X98283Y420798D01*
X101856Y424371D01*
X106524Y426305D01*
X111576Y426305D01*
X116244Y424371D01*
X119817Y420798D01*
X121751Y416130D01*
X121751Y397870D01*
X119817Y393202D01*
X116244Y389629D01*
X111576Y387695D01*
X106524Y387695D01*
G37*
%LPD*%
%LPC*%
G36*
X68424Y387695D02*
X68424Y387695D01*
X63756Y389629D01*
X60183Y393202D01*
X58249Y397870D01*
X58249Y416130D01*
X60183Y420798D01*
X63756Y424371D01*
X68424Y426305D01*
X73476Y426305D01*
X78144Y424371D01*
X81717Y420798D01*
X83651Y416130D01*
X83651Y397870D01*
X81717Y393202D01*
X78144Y389629D01*
X73476Y387695D01*
X68424Y387695D01*
G37*
%LPD*%
G36*
X499382Y142516D02*
X499382Y142516D01*
X499430Y142517D01*
X499605Y142551D01*
X499780Y142578D01*
X499825Y142593D01*
X499872Y142602D01*
X500038Y142666D01*
X500205Y142724D01*
X500247Y142747D01*
X500292Y142765D01*
X500443Y142857D01*
X500599Y142943D01*
X500636Y142974D01*
X500677Y142999D01*
X500810Y143116D01*
X500947Y143229D01*
X500978Y143265D01*
X501014Y143297D01*
X501124Y143436D01*
X501240Y143571D01*
X501264Y143612D01*
X501293Y143650D01*
X501377Y143807D01*
X501467Y143960D01*
X501483Y144005D01*
X501506Y144047D01*
X501561Y144216D01*
X501622Y144382D01*
X501630Y144430D01*
X501645Y144475D01*
X501669Y144651D01*
X501700Y144826D01*
X501700Y144874D01*
X501707Y144921D01*
X501699Y145099D01*
X501699Y145276D01*
X501690Y145323D01*
X501688Y145371D01*
X501650Y145545D01*
X501618Y145719D01*
X501599Y145775D01*
X501591Y145811D01*
X501566Y145869D01*
X501516Y146015D01*
X501403Y146287D01*
X501403Y159713D01*
X502487Y162328D01*
X502511Y162407D01*
X502545Y162482D01*
X502579Y162621D01*
X502621Y162758D01*
X502632Y162840D01*
X502651Y162920D01*
X502660Y163062D01*
X502678Y163205D01*
X502674Y163287D01*
X502679Y163369D01*
X502662Y163511D01*
X502655Y163654D01*
X502637Y163734D01*
X502627Y163816D01*
X502585Y163954D01*
X502553Y164093D01*
X502521Y164168D01*
X502497Y164247D01*
X502432Y164375D01*
X502375Y164506D01*
X502330Y164575D01*
X502292Y164649D01*
X502206Y164763D01*
X502127Y164882D01*
X502070Y164942D01*
X502020Y165007D01*
X501915Y165104D01*
X501816Y165208D01*
X501750Y165257D01*
X501689Y165313D01*
X501568Y165389D01*
X501453Y165474D01*
X501379Y165510D01*
X501309Y165554D01*
X501177Y165609D01*
X501048Y165672D01*
X500969Y165694D01*
X500893Y165725D01*
X500753Y165755D01*
X500615Y165795D01*
X500533Y165803D01*
X500453Y165820D01*
X500207Y165835D01*
X500167Y165839D01*
X500156Y165838D01*
X500141Y165839D01*
X494513Y165839D01*
X494349Y165825D01*
X494185Y165818D01*
X494125Y165805D01*
X494065Y165799D01*
X493906Y165756D01*
X493745Y165720D01*
X493689Y165697D01*
X493630Y165681D01*
X493482Y165610D01*
X493330Y165547D01*
X493279Y165514D01*
X493224Y165487D01*
X493090Y165392D01*
X493074Y165381D01*
X490767Y164426D01*
X490610Y164344D01*
X490450Y164267D01*
X490411Y164240D01*
X490368Y164217D01*
X490228Y164109D01*
X490084Y164005D01*
X490050Y163971D01*
X490012Y163942D01*
X489894Y163810D01*
X489770Y163683D01*
X489743Y163643D01*
X489711Y163607D01*
X489617Y163457D01*
X489517Y163310D01*
X489498Y163266D01*
X489473Y163225D01*
X489407Y163060D01*
X489335Y162898D01*
X489324Y162851D01*
X489306Y162807D01*
X489271Y162633D01*
X489229Y162460D01*
X489226Y162413D01*
X489216Y162366D01*
X489212Y162188D01*
X489201Y162011D01*
X489206Y161963D01*
X489205Y161916D01*
X489232Y161740D01*
X489253Y161564D01*
X489267Y161518D01*
X489274Y161471D01*
X489332Y161302D01*
X489383Y161133D01*
X489405Y161090D01*
X489421Y161045D01*
X489507Y160890D01*
X489588Y160731D01*
X489616Y160693D01*
X489640Y160652D01*
X489752Y160514D01*
X489860Y160373D01*
X489895Y160340D01*
X489925Y160303D01*
X490060Y160188D01*
X490191Y160067D01*
X490231Y160042D01*
X490267Y160011D01*
X490420Y159921D01*
X490571Y159826D01*
X490615Y159807D01*
X490656Y159783D01*
X490823Y159722D01*
X490987Y159655D01*
X491034Y159645D01*
X491079Y159628D01*
X491254Y159597D01*
X491427Y159560D01*
X491486Y159556D01*
X491522Y159550D01*
X491585Y159550D01*
X491739Y159541D01*
X492335Y159541D01*
X492981Y159368D01*
X493560Y159033D01*
X494033Y158560D01*
X494368Y157981D01*
X494541Y157335D01*
X494541Y154039D01*
X487000Y154039D01*
X486966Y154036D01*
X486931Y154038D01*
X486742Y154016D01*
X486552Y153999D01*
X486518Y153990D01*
X486484Y153986D01*
X486301Y153931D01*
X486117Y153881D01*
X486086Y153866D01*
X486053Y153856D01*
X485882Y153769D01*
X485711Y153688D01*
X485683Y153667D01*
X485652Y153652D01*
X485500Y153536D01*
X485345Y153425D01*
X485321Y153401D01*
X485293Y153380D01*
X485164Y153240D01*
X485031Y153103D01*
X485011Y153074D01*
X484988Y153049D01*
X484885Y152888D01*
X484779Y152730D01*
X484765Y152698D01*
X484746Y152669D01*
X484674Y152492D01*
X484596Y152318D01*
X484588Y152284D01*
X484575Y152252D01*
X484535Y152066D01*
X484490Y151880D01*
X484488Y151846D01*
X484480Y151812D01*
X484461Y151500D01*
X484464Y151465D01*
X484462Y151431D01*
X484484Y151241D01*
X484501Y151051D01*
X484510Y151018D01*
X484514Y150984D01*
X484569Y150801D01*
X484620Y150617D01*
X484634Y150586D01*
X484644Y150553D01*
X484731Y150382D01*
X484813Y150210D01*
X484833Y150182D01*
X484849Y150151D01*
X484964Y149999D01*
X485075Y149844D01*
X485100Y149820D01*
X485121Y149792D01*
X485261Y149663D01*
X485398Y149530D01*
X485426Y149511D01*
X485452Y149487D01*
X485613Y149385D01*
X485771Y149278D01*
X485802Y149264D01*
X485832Y149245D01*
X486008Y149173D01*
X486183Y149096D01*
X486216Y149088D01*
X486248Y149075D01*
X486435Y149034D01*
X486620Y148989D01*
X486654Y148987D01*
X486688Y148980D01*
X487000Y148961D01*
X494541Y148961D01*
X494541Y147133D01*
X494555Y146969D01*
X494562Y146805D01*
X494575Y146745D01*
X494581Y146685D01*
X494624Y146526D01*
X494660Y146365D01*
X494683Y146309D01*
X494699Y146250D01*
X494770Y146102D01*
X494833Y145950D01*
X494866Y145899D01*
X494893Y145844D01*
X494988Y145710D01*
X495077Y145572D01*
X495129Y145514D01*
X495155Y145478D01*
X495198Y145435D01*
X495284Y145338D01*
X497375Y143247D01*
X497511Y143134D01*
X497643Y143014D01*
X497683Y142989D01*
X497720Y142958D01*
X497874Y142870D01*
X498025Y142776D01*
X498070Y142759D01*
X498111Y142735D01*
X498278Y142676D01*
X498443Y142610D01*
X498490Y142600D01*
X498535Y142584D01*
X498710Y142555D01*
X498885Y142520D01*
X498932Y142519D01*
X498980Y142511D01*
X499157Y142513D01*
X499335Y142509D01*
X499382Y142516D01*
G37*
%LPC*%
G36*
X213149Y326939D02*
X213149Y326939D01*
X213149Y334561D01*
X219030Y334561D01*
X220609Y334311D01*
X222130Y333816D01*
X223555Y333090D01*
X224849Y332150D01*
X225980Y331019D01*
X226920Y329725D01*
X227646Y328300D01*
X228089Y326939D01*
X213149Y326939D01*
G37*
%LPD*%
%LPC*%
G36*
X193131Y326939D02*
X193131Y326939D01*
X193574Y328300D01*
X194300Y329725D01*
X195240Y331019D01*
X196371Y332150D01*
X197665Y333090D01*
X199090Y333816D01*
X200611Y334311D01*
X202190Y334561D01*
X208071Y334561D01*
X208071Y326939D01*
X193131Y326939D01*
G37*
%LPD*%
%LPC*%
G36*
X213149Y321861D02*
X213149Y321861D01*
X228089Y321861D01*
X227646Y320500D01*
X226920Y319075D01*
X225980Y317781D01*
X224849Y316650D01*
X223555Y315710D01*
X222130Y314984D01*
X220609Y314489D01*
X219030Y314239D01*
X213149Y314239D01*
X213149Y321861D01*
G37*
%LPD*%
%LPC*%
G36*
X202190Y314239D02*
X202190Y314239D01*
X200611Y314489D01*
X199090Y314984D01*
X197665Y315710D01*
X196371Y316650D01*
X195240Y317781D01*
X194300Y319075D01*
X193574Y320500D01*
X193131Y321861D01*
X208071Y321861D01*
X208071Y314239D01*
X202190Y314239D01*
G37*
%LPD*%
%LPC*%
G36*
X346939Y54539D02*
X346939Y54539D01*
X346939Y62923D01*
X348924Y62923D01*
X355323Y56524D01*
X355323Y54539D01*
X346939Y54539D01*
G37*
%LPD*%
%LPC*%
G36*
X164939Y320539D02*
X164939Y320539D01*
X164939Y328923D01*
X166924Y328923D01*
X173323Y322524D01*
X173323Y320539D01*
X164939Y320539D01*
G37*
%LPD*%
%LPC*%
G36*
X161639Y379339D02*
X161639Y379339D01*
X161639Y387723D01*
X163624Y387723D01*
X170023Y381324D01*
X170023Y379339D01*
X161639Y379339D01*
G37*
%LPD*%
%LPC*%
G36*
X148177Y379339D02*
X148177Y379339D01*
X148177Y381324D01*
X154576Y387723D01*
X156561Y387723D01*
X156561Y379339D01*
X148177Y379339D01*
G37*
%LPD*%
%LPC*%
G36*
X161639Y365877D02*
X161639Y365877D01*
X161639Y374261D01*
X170023Y374261D01*
X170023Y372276D01*
X163624Y365877D01*
X161639Y365877D01*
G37*
%LPD*%
%LPC*%
G36*
X333477Y54539D02*
X333477Y54539D01*
X333477Y56524D01*
X339876Y62923D01*
X341861Y62923D01*
X341861Y54539D01*
X333477Y54539D01*
G37*
%LPD*%
%LPC*%
G36*
X151477Y320539D02*
X151477Y320539D01*
X151477Y322524D01*
X157876Y328923D01*
X159861Y328923D01*
X159861Y320539D01*
X151477Y320539D01*
G37*
%LPD*%
%LPC*%
G36*
X164939Y307077D02*
X164939Y307077D01*
X164939Y315461D01*
X173323Y315461D01*
X173323Y313476D01*
X166924Y307077D01*
X164939Y307077D01*
G37*
%LPD*%
%LPC*%
G36*
X154576Y365877D02*
X154576Y365877D01*
X148177Y372276D01*
X148177Y374261D01*
X156561Y374261D01*
X156561Y365877D01*
X154576Y365877D01*
G37*
%LPD*%
%LPC*%
G36*
X157876Y307077D02*
X157876Y307077D01*
X151477Y313476D01*
X151477Y315461D01*
X159861Y315461D01*
X159861Y307077D01*
X157876Y307077D01*
G37*
%LPD*%
%LPC*%
G36*
X153249Y293749D02*
X153249Y293749D01*
X153249Y301041D01*
X157835Y301041D01*
X158481Y300868D01*
X159060Y300533D01*
X159533Y300060D01*
X159868Y299481D01*
X160041Y298835D01*
X160041Y293749D01*
X153249Y293749D01*
G37*
%LPD*%
%LPC*%
G36*
X153249Y285251D02*
X153249Y285251D01*
X160041Y285251D01*
X160041Y280165D01*
X159868Y279519D01*
X159533Y278940D01*
X159060Y278467D01*
X158481Y278132D01*
X157835Y277959D01*
X153249Y277959D01*
X153249Y285251D01*
G37*
%LPD*%
%LPC*%
G36*
X137959Y293749D02*
X137959Y293749D01*
X137959Y298835D01*
X138132Y299481D01*
X138467Y300060D01*
X138940Y300533D01*
X139519Y300868D01*
X140165Y301041D01*
X144751Y301041D01*
X144751Y293749D01*
X137959Y293749D01*
G37*
%LPD*%
%LPC*%
G36*
X140165Y277959D02*
X140165Y277959D01*
X139519Y278132D01*
X138940Y278467D01*
X138467Y278940D01*
X138132Y279519D01*
X137959Y280165D01*
X137959Y285251D01*
X144751Y285251D01*
X144751Y277959D01*
X140165Y277959D01*
G37*
%LPD*%
%LPC*%
G36*
X426139Y89939D02*
X426139Y89939D01*
X426139Y96545D01*
X427388Y96545D01*
X432745Y91188D01*
X432745Y89939D01*
X426139Y89939D01*
G37*
%LPD*%
%LPC*%
G36*
X20523Y162474D02*
X20523Y162474D01*
X20523Y163617D01*
X25732Y168825D01*
X26875Y168825D01*
X26875Y162474D01*
X20523Y162474D01*
G37*
%LPD*%
%LPC*%
G36*
X252523Y305674D02*
X252523Y305674D01*
X252523Y306817D01*
X257732Y312025D01*
X258875Y312025D01*
X258875Y305674D01*
X252523Y305674D01*
G37*
%LPD*%
%LPC*%
G36*
X25732Y151044D02*
X25732Y151044D01*
X20523Y156252D01*
X20523Y157395D01*
X26875Y157395D01*
X26875Y151044D01*
X25732Y151044D01*
G37*
%LPD*%
%LPC*%
G36*
X257732Y294244D02*
X257732Y294244D01*
X252523Y299452D01*
X252523Y300595D01*
X258875Y300595D01*
X258875Y294244D01*
X257732Y294244D01*
G37*
%LPD*%
%LPC*%
G36*
X488539Y216039D02*
X488539Y216039D01*
X488539Y221541D01*
X491335Y221541D01*
X491981Y221368D01*
X492560Y221033D01*
X493033Y220560D01*
X493368Y219981D01*
X493541Y219335D01*
X493541Y216039D01*
X488539Y216039D01*
G37*
%LPD*%
%LPC*%
G36*
X106539Y188039D02*
X106539Y188039D01*
X106539Y193541D01*
X109335Y193541D01*
X109981Y193368D01*
X110560Y193033D01*
X111033Y192560D01*
X111368Y191981D01*
X111541Y191335D01*
X111541Y188039D01*
X106539Y188039D01*
G37*
%LPD*%
%LPC*%
G36*
X20959Y198539D02*
X20959Y198539D01*
X20959Y201835D01*
X21132Y202481D01*
X21467Y203060D01*
X21940Y203533D01*
X22519Y203868D01*
X23165Y204041D01*
X25961Y204041D01*
X25961Y198539D01*
X20959Y198539D01*
G37*
%LPD*%
%LPC*%
G36*
X473423Y290086D02*
X473423Y290086D01*
X473423Y292882D01*
X473596Y293528D01*
X473930Y294107D01*
X474404Y294580D01*
X474983Y294915D01*
X475629Y295088D01*
X478924Y295088D01*
X478924Y290086D01*
X473423Y290086D01*
G37*
%LPD*%
%LPC*%
G36*
X19894Y220396D02*
X19894Y220396D01*
X19894Y223191D01*
X20068Y223837D01*
X20402Y224416D01*
X20875Y224890D01*
X21454Y225224D01*
X22101Y225397D01*
X25396Y225397D01*
X25396Y220396D01*
X19894Y220396D01*
G37*
%LPD*%
%LPC*%
G36*
X459959Y153039D02*
X459959Y153039D01*
X459959Y155835D01*
X460132Y156481D01*
X460467Y157060D01*
X460940Y157533D01*
X461519Y157868D01*
X462165Y158041D01*
X465461Y158041D01*
X465461Y153039D01*
X459959Y153039D01*
G37*
%LPD*%
%LPC*%
G36*
X22101Y210316D02*
X22101Y210316D01*
X21454Y210489D01*
X20875Y210823D01*
X20402Y211296D01*
X20068Y211876D01*
X19894Y212522D01*
X19894Y215317D01*
X25396Y215317D01*
X25396Y210316D01*
X22101Y210316D01*
G37*
%LPD*%
%LPC*%
G36*
X23165Y187959D02*
X23165Y187959D01*
X22519Y188132D01*
X21940Y188467D01*
X21467Y188940D01*
X21132Y189519D01*
X20959Y190165D01*
X20959Y193461D01*
X25961Y193461D01*
X25961Y187959D01*
X23165Y187959D01*
G37*
%LPD*%
%LPC*%
G36*
X477829Y305006D02*
X477829Y305006D01*
X477183Y305179D01*
X476604Y305514D01*
X476130Y305987D01*
X475796Y306566D01*
X475623Y307212D01*
X475623Y310008D01*
X481124Y310008D01*
X481124Y305006D01*
X477829Y305006D01*
G37*
%LPD*%
%LPC*%
G36*
X113665Y199409D02*
X113665Y199409D01*
X113019Y199582D01*
X112440Y199917D01*
X111967Y200390D01*
X111632Y200969D01*
X111459Y201615D01*
X111459Y202411D01*
X118961Y202411D01*
X118961Y199409D01*
X113665Y199409D01*
G37*
%LPD*%
D10*
X668173Y454655D02*
X3400Y456200D01*
X5600Y1600D01*
X665600Y1600D02*
X668173Y454655D01*
X666573Y955D02*
X5600Y1600D01*
D11*
X483664Y312547D03*
X500664Y312547D03*
X27935Y217856D03*
X44935Y217856D03*
D12*
X284759Y303261D03*
D13*
X261414Y303135D03*
D14*
X498210Y416049D03*
X457210Y416049D03*
D15*
X501264Y331847D03*
X482264Y331847D03*
X491764Y351847D03*
D16*
X513867Y63873D03*
X496867Y63873D03*
X458404Y32019D03*
X441404Y32019D03*
D11*
X481464Y287547D03*
X481464Y270547D03*
X502664Y287247D03*
X502664Y270247D03*
D16*
X299855Y81299D03*
X282855Y81299D03*
D17*
X588544Y95038D03*
X637823Y282856D03*
X636407Y406307D03*
X639655Y338724D03*
X588854Y39530D03*
X588261Y149381D03*
X639075Y67512D03*
X637072Y122226D03*
D18*
X423600Y87400D03*
X404550Y74700D03*
X423600Y62000D03*
D19*
X403800Y402627D03*
D20*
X499700Y380227D03*
D19*
X544400Y262727D03*
X566200Y379227D03*
X430300Y262727D03*
D20*
X457300Y380727D03*
D14*
X471800Y87800D03*
X512800Y87800D03*
D21*
X40000Y96300D03*
X40200Y122300D03*
X40400Y20200D03*
X40300Y70900D03*
X40300Y45800D03*
D22*
X202990Y324400D02*
X218230Y324400D01*
X220770Y400600D02*
X236010Y400600D01*
D23*
X331261Y291041D03*
D24*
X331135Y314386D03*
D25*
X159100Y427600D03*
X159100Y376800D03*
D26*
X111600Y318000D03*
X162400Y318000D03*
D27*
X375000Y101500D03*
X375000Y60500D03*
D14*
X394500Y229000D03*
X435500Y229000D03*
D28*
X121500Y230350D03*
X66500Y230350D03*
X121500Y243050D03*
X121500Y217650D03*
X121500Y204950D03*
X66500Y243050D03*
X66500Y217650D03*
X66500Y204950D03*
D16*
X150000Y204500D03*
X150000Y221500D03*
D27*
X149000Y289500D03*
X149000Y248500D03*
D29*
X113000Y284000D03*
X85000Y284000D03*
D11*
X80000Y168500D03*
X80000Y185500D03*
D16*
X45500Y196000D03*
X28500Y196000D03*
D12*
X52759Y160061D03*
D13*
X29414Y159935D03*
D30*
X184396Y209950D02*
X197604Y209950D01*
X197604Y248050D02*
X184396Y248050D01*
D16*
X104000Y185500D03*
X104000Y168500D03*
D30*
X70950Y400396D02*
X70950Y413604D01*
X109050Y413604D02*
X109050Y400396D01*
D31*
X508000Y115500D03*
X508000Y134500D03*
X528000Y125000D03*
D16*
X487000Y151500D03*
X487000Y134500D03*
D11*
X468000Y150500D03*
X468000Y133500D03*
D16*
X485500Y115000D03*
X468500Y115000D03*
D14*
X400500Y124000D03*
X441500Y124000D03*
D16*
X529500Y153000D03*
X512500Y153000D03*
D17*
X637000Y177000D03*
D27*
X604000Y275500D03*
X604000Y316500D03*
D31*
X508000Y177500D03*
X508000Y196500D03*
X528000Y187000D03*
D16*
X486000Y213500D03*
X486000Y196500D03*
D11*
X466000Y213500D03*
X466000Y196500D03*
D16*
X484500Y176000D03*
X467500Y176000D03*
D14*
X398500Y193000D03*
X439500Y193000D03*
D16*
X535500Y220000D03*
X518500Y220000D03*
D17*
X585000Y203000D03*
D27*
X572000Y297500D03*
X572000Y338500D03*
D26*
X293600Y52000D03*
X344400Y52000D03*
D14*
X528500Y33000D03*
X487500Y33000D03*
D32*
X482264Y313947D02*
X482264Y331847D01*
X482264Y313947D02*
X483664Y312547D01*
X481464Y313147D02*
X481464Y287547D01*
X481464Y313147D02*
X482264Y313947D01*
X483664Y312547D02*
X465453Y312547D01*
X261414Y303135D02*
X261414Y287586D01*
X275000Y274000D01*
X286000Y274000D01*
D33*
X491000Y151500D02*
X508000Y134500D01*
X491000Y151500D02*
X487000Y151500D01*
X486000Y150500D02*
X468000Y150500D01*
X486000Y150500D02*
X487000Y151500D01*
X486000Y213500D02*
X491000Y213500D01*
X508000Y196500D01*
X486000Y213500D02*
X466000Y213500D01*
X471800Y87800D02*
X424000Y87800D01*
X423600Y87400D01*
X149550Y204950D02*
X121500Y204950D01*
X149550Y204950D02*
X150000Y204500D01*
X121500Y204950D02*
X104000Y187450D01*
X104000Y185500D01*
X28500Y196000D02*
X27935Y196565D01*
X27935Y217856D01*
X150000Y204500D02*
X161500Y204500D01*
X149000Y289500D02*
X150500Y291000D01*
X149000Y289500D02*
X162400Y302900D01*
X162400Y318000D01*
X389400Y81400D02*
X400000Y92000D01*
X419800Y92000D01*
X424000Y87800D01*
X27935Y217856D02*
X27935Y307935D01*
X144400Y336000D02*
X162400Y318000D01*
X56000Y336000D02*
X27935Y307935D01*
X56000Y336000D02*
X144400Y336000D01*
X168000Y211000D02*
X161500Y204500D01*
X168000Y211000D02*
X168000Y225000D01*
X175000Y232000D01*
X204000Y232000D01*
X214000Y274000D02*
X197000Y291000D01*
X214000Y274000D02*
X214000Y242000D01*
X204000Y232000D01*
X197000Y291000D02*
X150500Y291000D01*
D32*
X286000Y274000D02*
X294000Y266000D01*
X381000Y294000D02*
X447000Y294000D01*
X465453Y312453D01*
X465453Y312547D01*
X353000Y266000D02*
X294000Y266000D01*
X353000Y266000D02*
X381000Y294000D01*
D33*
X389400Y81400D02*
X359400Y81400D01*
X344400Y66400D02*
X344400Y52000D01*
X344400Y66400D02*
X359400Y81400D01*
X28500Y160849D02*
X28500Y196000D01*
X28500Y160849D02*
X29414Y159935D01*
D34*
X438500Y150500D02*
X468000Y150500D01*
X438500Y150500D02*
X424000Y136000D01*
X424000Y87800D01*
X486000Y213500D02*
X503000Y230500D01*
D35*
X502000Y239000D03*
D34*
X503000Y238000D02*
X503000Y230500D01*
X503000Y238000D02*
X502000Y239000D01*
X29414Y159935D02*
X21000Y151521D01*
X21000Y76000D01*
X26100Y70900D01*
X40300Y70900D01*
D35*
X447000Y294000D03*
D33*
X104000Y168500D02*
X80000Y168500D01*
X104000Y168500D02*
X117500Y168500D01*
X137000Y188000D01*
X169050Y188000D01*
X191000Y209950D01*
X71561Y160061D02*
X52759Y160061D01*
X71561Y160061D02*
X80000Y168500D01*
X191000Y209950D02*
X205076Y195874D01*
X205076Y180076D01*
D35*
X205076Y180076D03*
X206212Y151788D03*
D33*
X205076Y152924D02*
X205076Y180076D01*
X205076Y152924D02*
X206212Y151788D01*
X206212Y123113D01*
X207162Y122162D01*
D35*
X207162Y122162D03*
D32*
X442573Y366000D02*
X457300Y380727D01*
X442573Y366000D02*
X337000Y366000D01*
X457210Y380817D02*
X457210Y416049D01*
X457210Y380817D02*
X457300Y380727D01*
X284759Y313759D02*
X284759Y303261D01*
X284759Y313759D02*
X337000Y366000D01*
D33*
X44935Y252935D02*
X44935Y217856D01*
X66294Y217856D01*
X66500Y217650D01*
X76000Y284000D02*
X85000Y284000D01*
X76000Y284000D02*
X44935Y252935D01*
D35*
X85000Y260000D03*
D33*
X85000Y284000D01*
D32*
X296980Y291041D02*
X331261Y291041D01*
X296980Y291041D02*
X284759Y303261D01*
D35*
X420000Y176000D03*
D34*
X420000Y209000D01*
X419000Y210000D01*
D35*
X419000Y210000D03*
D34*
X420000Y176000D02*
X420000Y151000D01*
X421000Y150000D01*
D35*
X421000Y150000D03*
D33*
X419000Y210000D02*
X419000Y231000D01*
X396000Y254000D01*
D35*
X396000Y254000D03*
D32*
X501264Y313147D02*
X501264Y331847D01*
X501264Y313147D02*
X500664Y312547D01*
X502664Y310547D02*
X502664Y287247D01*
X502664Y310547D02*
X500664Y312547D01*
X502364Y270547D02*
X481464Y270547D01*
X502364Y270547D02*
X502664Y270247D01*
X453000Y229000D02*
X435500Y229000D01*
X481464Y257464D02*
X481464Y270547D01*
X481464Y257464D02*
X453000Y229000D01*
D33*
X293600Y52000D02*
X313581Y32019D01*
X441404Y32019D01*
D34*
X240000Y24000D02*
X182000Y24000D01*
X147000Y59000D01*
X147000Y159000D01*
D35*
X147000Y159000D03*
D34*
X282855Y81299D02*
X282855Y66855D01*
X240000Y24000D01*
D33*
X423600Y62000D02*
X494994Y62000D01*
X496867Y63873D01*
D32*
X604000Y316500D02*
X582000Y338500D01*
X572000Y338500D01*
X636407Y402907D01*
X636407Y406307D01*
D33*
X581306Y87800D02*
X512800Y87800D01*
X581306Y87800D02*
X588544Y95038D01*
X513867Y86733D02*
X513867Y63873D01*
X513867Y86733D02*
X512800Y87800D01*
D32*
X499700Y380227D02*
X499700Y414558D01*
X498210Y416049D01*
X499700Y359783D02*
X491764Y351847D01*
X499700Y359783D02*
X499700Y380227D01*
X491764Y351847D02*
X459847Y351847D01*
X422386Y314386D02*
X331135Y314386D01*
X422386Y314386D02*
X459847Y351847D01*
D34*
X320055Y101500D02*
X299855Y81299D01*
X320055Y101500D02*
X375000Y101500D01*
D33*
X404550Y74700D02*
X390350Y60500D01*
X375000Y60500D01*
X121500Y243050D02*
X121500Y247000D01*
X66500Y243050D02*
X66500Y230350D01*
X66500Y243050D02*
X121500Y243050D01*
X121500Y275500D02*
X113000Y284000D01*
X121500Y275500D02*
X121500Y243050D01*
X121500Y217650D02*
X146150Y217650D01*
X150000Y221500D01*
X130850Y230350D02*
X149000Y248500D01*
X130850Y230350D02*
X121500Y230350D01*
X149450Y248050D02*
X191000Y248050D01*
X149450Y248050D02*
X149000Y248500D01*
X57550Y196000D02*
X45500Y196000D01*
X57550Y196000D02*
X66500Y204950D01*
X66500Y199000D02*
X80000Y185500D01*
X66500Y199000D02*
X66500Y204950D01*
D34*
X324500Y159000D02*
X394500Y229000D01*
X324500Y159000D02*
X254000Y159000D01*
X231000Y136000D01*
X231000Y40000D01*
D35*
X231000Y40000D03*
D33*
X485500Y115000D02*
X487000Y116500D01*
X487000Y134500D01*
X486000Y115500D02*
X508000Y115500D01*
X486000Y115500D02*
X485500Y115000D01*
X468500Y115000D02*
X468500Y124000D01*
X468500Y133000D01*
X468000Y133500D01*
X467500Y133000D01*
D34*
X468500Y124000D02*
X441500Y124000D01*
X398500Y193000D02*
X352500Y147000D01*
X271000Y147000D01*
X243000Y119000D01*
D35*
X258000Y69000D03*
D34*
X243000Y84000D01*
X243000Y119000D01*
D33*
X512500Y148500D02*
X512500Y153000D01*
X512500Y148500D02*
X528000Y133000D01*
X528000Y125000D01*
D32*
X604000Y249000D02*
X604000Y275500D01*
X637000Y216000D02*
X637000Y177000D01*
X637000Y216000D02*
X604000Y249000D01*
D33*
X543000Y153000D02*
X529500Y153000D01*
X567000Y177000D02*
X637000Y177000D01*
X567000Y177000D02*
X543000Y153000D01*
X486000Y177500D02*
X484500Y176000D01*
X486000Y177500D02*
X486000Y196500D01*
X484500Y176000D02*
X506500Y176000D01*
X508000Y177500D01*
X466000Y177500D02*
X466000Y196500D01*
X466000Y177500D02*
X467500Y176000D01*
X464500Y195000D02*
X466000Y196500D01*
X441500Y195000D02*
X439500Y193000D01*
X456000Y195000D02*
X464500Y195000D01*
X456000Y195000D02*
X441500Y195000D01*
D35*
X260000Y104000D03*
D34*
X280000Y124000D02*
X400500Y124000D01*
X280000Y124000D02*
X260000Y104000D01*
D33*
X518500Y210500D02*
X518500Y220000D01*
X518500Y210500D02*
X528000Y201000D01*
X528000Y187000D01*
D32*
X572000Y284000D02*
X572000Y297500D01*
X585000Y271000D02*
X585000Y203000D01*
X585000Y271000D02*
X572000Y284000D01*
D33*
X535500Y220000D02*
X552500Y203000D01*
X585000Y203000D01*
X582324Y33000D02*
X528500Y33000D01*
X582324Y33000D02*
X588854Y39530D01*
X486519Y32019D02*
X458404Y32019D01*
X486519Y32019D02*
X487500Y33000D01*
M02*
