M48
FMAT,2
ICI,OFF
METRIC,TZ,000.000
T7C0.600
T6C0.762
T5C0.813
T4C1.016
T3C1.500
T2C1.800
T1C2.000
%
G90
M71
T1
X40380Y40263
X43030Y26273
X56620Y37923
X54440Y26273
T2
X63641Y40631
X63966Y33872
X58885Y3953
X58826Y14938
X63907Y6751
X63707Y12223
X58500Y20300
X63700Y17700
X58854Y9504
X63782Y28286
T3
X49970Y38023
X45730Y38073
T4
X22839Y40060
X21061Y32440
T5
X15910Y37680
X11160Y31800
X16240Y31800
X19100Y24805
X7095Y40700
X10905Y40700
X29360Y5200
X42360Y8740
X40455Y7470
X42360Y6200
X34440Y5200
X4000Y9630
X4020Y12230
X4040Y2020
X4030Y7090
X4030Y4580
X19100Y20995
X15910Y42760
T6
X28476Y30326
X26141Y30313
X5276Y16006
X2941Y15993
X33126Y29104
X33113Y31439
T7
X44700Y29400
X20508Y18008
X20621Y15179
X20716Y12216
X8500Y26000
X42000Y17600
X25800Y6900
X23100Y4000
X50200Y23900
X14700Y15900
X41900Y21000
X39600Y25400
X42100Y15000
X26000Y10400
M30