G75*
%MOMM*%
%FSLAX34Y34*%
%LPD*%
%AMOC8*
5,1,8,0,0,1.08239X$1,22.5*%
G01*
%ADD10C,0.000000*%
%ADD11R,1.000000X1.100000*%
%ADD12P,1.374635X8X22.500000*%
%ADD13P,1.374635X8X202.500000*%
%ADD14R,0.600000X2.200000*%
%ADD15R,1.200000X0.560000*%
%ADD16R,3.000000X3.000000*%
%ADD17P,1.429621X8X112.500000*%
%ADD18P,3.788365X8X292.500000*%
%ADD19P,2.705975X8X292.500000*%
%ADD20R,1.100000X1.000000*%
%ADD21R,1.600200X1.600200*%
%ADD22R,3.000000X2.000000*%
%ADD23C,1.524000*%
%ADD24P,1.374635X8X292.500000*%
%ADD25P,1.374635X8X112.500000*%
%ADD26P,1.814519X8X292.500000*%
%ADD27R,1.900000X1.700000*%
%ADD28P,1.814519X8X22.500000*%
%ADD29C,1.320800*%
%ADD30R,3.400000X1.500000*%
%ADD31R,1.800000X1.700000*%
%ADD32C,1.270000*%
%ADD33C,0.812800*%
%ADD34C,0.609600*%
%ADD35C,1.006400*%
%ADD36C,2.540000*%
%ADD37C,3.000000*%

G36*
X652994Y11132D02*
X652994Y11132D01*
X653023Y11130D01*
X653219Y11151D01*
X653414Y11169D01*
X653442Y11176D01*
X653471Y11179D01*
X653659Y11235D01*
X653849Y11287D01*
X653875Y11299D01*
X653902Y11307D01*
X654078Y11395D01*
X654256Y11480D01*
X654279Y11496D01*
X654305Y11509D01*
X654462Y11627D01*
X654622Y11741D01*
X654642Y11762D01*
X654665Y11779D01*
X654799Y11923D01*
X654936Y12064D01*
X654953Y12088D01*
X654972Y12109D01*
X655078Y12273D01*
X655189Y12437D01*
X655201Y12463D01*
X655216Y12487D01*
X655292Y12668D01*
X655372Y12848D01*
X655378Y12876D01*
X655389Y12903D01*
X655432Y13095D01*
X655479Y13286D01*
X655480Y13314D01*
X655487Y13342D01*
X655508Y13654D01*
X655679Y43861D01*
X655676Y43903D01*
X655678Y43945D01*
X655657Y44127D01*
X655642Y44310D01*
X655631Y44350D01*
X655626Y44392D01*
X655573Y44568D01*
X655526Y44745D01*
X655508Y44783D01*
X655496Y44823D01*
X655412Y44987D01*
X655335Y45153D01*
X655310Y45187D01*
X655291Y45224D01*
X655180Y45370D01*
X655075Y45520D01*
X655045Y45549D01*
X655019Y45583D01*
X654884Y45707D01*
X654754Y45836D01*
X654719Y45860D01*
X654688Y45888D01*
X654533Y45987D01*
X654382Y46090D01*
X654344Y46107D01*
X654309Y46130D01*
X654139Y46200D01*
X653971Y46275D01*
X653931Y46285D01*
X653892Y46301D01*
X653713Y46339D01*
X653534Y46384D01*
X653493Y46387D01*
X653452Y46396D01*
X653140Y46415D01*
X622862Y46415D01*
X620621Y47343D01*
X618906Y49058D01*
X617978Y51299D01*
X617978Y55316D01*
X617975Y55351D01*
X617977Y55385D01*
X617955Y55574D01*
X617938Y55765D01*
X617929Y55798D01*
X617925Y55832D01*
X617870Y56015D01*
X617820Y56199D01*
X617805Y56230D01*
X617795Y56263D01*
X617708Y56434D01*
X617626Y56606D01*
X617606Y56634D01*
X617590Y56665D01*
X617475Y56817D01*
X617364Y56972D01*
X617339Y56996D01*
X617318Y57023D01*
X617179Y57152D01*
X617042Y57286D01*
X617013Y57305D01*
X616987Y57329D01*
X616826Y57431D01*
X616668Y57538D01*
X616637Y57552D01*
X616608Y57570D01*
X616431Y57643D01*
X616257Y57720D01*
X616223Y57728D01*
X616191Y57741D01*
X616004Y57781D01*
X615819Y57827D01*
X615785Y57829D01*
X615751Y57836D01*
X615439Y57855D01*
X612490Y57855D01*
X612456Y57852D01*
X612421Y57854D01*
X612232Y57832D01*
X612042Y57815D01*
X612009Y57806D01*
X611974Y57802D01*
X611791Y57747D01*
X611608Y57697D01*
X611576Y57682D01*
X611543Y57672D01*
X611373Y57585D01*
X611201Y57503D01*
X611173Y57483D01*
X611142Y57468D01*
X610990Y57352D01*
X610835Y57241D01*
X610811Y57216D01*
X610783Y57196D01*
X610654Y57056D01*
X610521Y56919D01*
X610501Y56890D01*
X610478Y56864D01*
X610375Y56703D01*
X610269Y56546D01*
X610255Y56514D01*
X610236Y56485D01*
X610164Y56308D01*
X610086Y56134D01*
X610078Y56100D01*
X610065Y56068D01*
X610025Y55881D01*
X609980Y55696D01*
X609978Y55662D01*
X609970Y55628D01*
X609951Y55316D01*
X609951Y23318D01*
X609023Y21077D01*
X607308Y19362D01*
X605067Y18434D01*
X572642Y18434D01*
X570401Y19362D01*
X568686Y21077D01*
X567758Y23318D01*
X567758Y55316D01*
X567755Y55351D01*
X567757Y55385D01*
X567735Y55574D01*
X567718Y55765D01*
X567709Y55798D01*
X567705Y55832D01*
X567649Y56015D01*
X567599Y56199D01*
X567584Y56230D01*
X567574Y56263D01*
X567488Y56434D01*
X567406Y56606D01*
X567386Y56634D01*
X567370Y56665D01*
X567255Y56817D01*
X567144Y56972D01*
X567119Y56996D01*
X567098Y57023D01*
X566958Y57152D01*
X566821Y57286D01*
X566792Y57305D01*
X566767Y57329D01*
X566606Y57431D01*
X566448Y57538D01*
X566416Y57552D01*
X566387Y57570D01*
X566211Y57643D01*
X566036Y57720D01*
X566003Y57728D01*
X565971Y57741D01*
X565784Y57781D01*
X565599Y57827D01*
X565564Y57829D01*
X565530Y57836D01*
X565218Y57855D01*
X560181Y57855D01*
X556820Y59247D01*
X543247Y72820D01*
X541855Y76181D01*
X541855Y118160D01*
X541841Y118324D01*
X541834Y118488D01*
X541821Y118548D01*
X541815Y118609D01*
X541772Y118768D01*
X541736Y118928D01*
X541713Y118984D01*
X541697Y119043D01*
X541626Y119191D01*
X541563Y119343D01*
X541530Y119395D01*
X541503Y119450D01*
X541408Y119583D01*
X541318Y119722D01*
X541267Y119779D01*
X541241Y119816D01*
X541198Y119858D01*
X541112Y119956D01*
X509956Y151112D01*
X509830Y151217D01*
X509709Y151329D01*
X509657Y151361D01*
X509610Y151400D01*
X509468Y151482D01*
X509329Y151570D01*
X509272Y151594D01*
X509220Y151624D01*
X509065Y151679D01*
X508912Y151741D01*
X508853Y151754D01*
X508795Y151775D01*
X508633Y151801D01*
X508472Y151836D01*
X508395Y151841D01*
X508351Y151848D01*
X508290Y151847D01*
X508160Y151855D01*
X434668Y151855D01*
X434633Y151852D01*
X434599Y151854D01*
X434410Y151832D01*
X434219Y151815D01*
X434186Y151806D01*
X434152Y151802D01*
X433969Y151747D01*
X433785Y151697D01*
X433754Y151682D01*
X433721Y151672D01*
X433550Y151585D01*
X433378Y151503D01*
X433350Y151483D01*
X433319Y151468D01*
X433167Y151352D01*
X433012Y151241D01*
X432988Y151216D01*
X432961Y151196D01*
X432832Y151056D01*
X432698Y150919D01*
X432679Y150890D01*
X432655Y150864D01*
X432553Y150703D01*
X432446Y150546D01*
X432432Y150514D01*
X432414Y150485D01*
X432341Y150308D01*
X432264Y150134D01*
X432256Y150100D01*
X432243Y150068D01*
X432203Y149881D01*
X432157Y149696D01*
X432155Y149662D01*
X432148Y149628D01*
X432129Y149316D01*
X432129Y147786D01*
X430435Y143696D01*
X427304Y140565D01*
X423214Y138871D01*
X418786Y138871D01*
X418748Y138887D01*
X418545Y138951D01*
X418344Y139016D01*
X418331Y139018D01*
X418319Y139022D01*
X418109Y139049D01*
X417898Y139078D01*
X417885Y139077D01*
X417872Y139079D01*
X417662Y139068D01*
X417448Y139059D01*
X417435Y139056D01*
X417422Y139056D01*
X417217Y139008D01*
X417009Y138962D01*
X416996Y138956D01*
X416984Y138954D01*
X416789Y138870D01*
X416593Y138788D01*
X416582Y138781D01*
X416570Y138776D01*
X416392Y138658D01*
X416215Y138544D01*
X416203Y138533D01*
X416194Y138527D01*
X416166Y138500D01*
X415981Y138337D01*
X414007Y136363D01*
X411767Y135435D01*
X399341Y135435D01*
X398026Y135980D01*
X397869Y136029D01*
X397714Y136086D01*
X397654Y136097D01*
X397596Y136115D01*
X397433Y136135D01*
X397271Y136164D01*
X397210Y136164D01*
X397149Y136172D01*
X396985Y136163D01*
X396821Y136163D01*
X396761Y136152D01*
X396700Y136148D01*
X396540Y136111D01*
X396378Y136082D01*
X396305Y136056D01*
X396261Y136046D01*
X396206Y136022D01*
X396082Y135980D01*
X394767Y135435D01*
X382341Y135435D01*
X380184Y136329D01*
X380027Y136378D01*
X379872Y136435D01*
X379812Y136445D01*
X379754Y136464D01*
X379591Y136484D01*
X379429Y136513D01*
X379368Y136513D01*
X379307Y136520D01*
X379143Y136512D01*
X378979Y136511D01*
X378919Y136500D01*
X378858Y136497D01*
X378698Y136460D01*
X378536Y136430D01*
X378462Y136405D01*
X378419Y136395D01*
X378363Y136371D01*
X378240Y136329D01*
X377213Y135903D01*
X364787Y135903D01*
X362213Y136970D01*
X362148Y137007D01*
X362025Y137051D01*
X361905Y137104D01*
X361813Y137126D01*
X361724Y137158D01*
X361595Y137179D01*
X361468Y137210D01*
X361373Y137216D01*
X361280Y137232D01*
X361149Y137230D01*
X361018Y137238D01*
X360924Y137227D01*
X360830Y137226D01*
X360701Y137201D01*
X360571Y137186D01*
X360480Y137159D01*
X360387Y137141D01*
X360265Y137094D01*
X360140Y137056D01*
X360056Y137013D01*
X359967Y136979D01*
X359855Y136911D01*
X359739Y136851D01*
X359663Y136794D01*
X359582Y136745D01*
X359484Y136658D01*
X359380Y136579D01*
X359316Y136510D01*
X359245Y136447D01*
X359163Y136344D01*
X359075Y136248D01*
X359024Y136168D01*
X358965Y136094D01*
X358903Y135979D01*
X358833Y135868D01*
X358797Y135781D01*
X358752Y135697D01*
X358712Y135573D01*
X358662Y135452D01*
X358642Y135359D01*
X358613Y135269D01*
X358595Y135140D01*
X358567Y135012D01*
X358559Y134884D01*
X358551Y134823D01*
X358553Y134778D01*
X358548Y134700D01*
X358548Y127724D01*
X357620Y125483D01*
X355905Y123768D01*
X353664Y122840D01*
X351539Y122840D01*
X351375Y122826D01*
X351211Y122819D01*
X351151Y122806D01*
X351090Y122800D01*
X350932Y122757D01*
X350771Y122721D01*
X350715Y122698D01*
X350656Y122682D01*
X350508Y122611D01*
X350356Y122548D01*
X350304Y122515D01*
X350249Y122488D01*
X350116Y122393D01*
X349978Y122303D01*
X349920Y122252D01*
X349883Y122226D01*
X349841Y122183D01*
X349743Y122097D01*
X348930Y121283D01*
X348908Y121256D01*
X348882Y121233D01*
X348764Y121084D01*
X348641Y120938D01*
X348624Y120908D01*
X348602Y120880D01*
X348512Y120712D01*
X348418Y120547D01*
X348406Y120514D01*
X348390Y120483D01*
X348331Y120302D01*
X348267Y120123D01*
X348261Y120088D01*
X348250Y120055D01*
X348225Y119866D01*
X348193Y119678D01*
X348194Y119643D01*
X348189Y119609D01*
X348197Y119419D01*
X348200Y119228D01*
X348206Y119194D01*
X348208Y119159D01*
X348249Y118973D01*
X348285Y118786D01*
X348298Y118754D01*
X348305Y118719D01*
X348379Y118544D01*
X348447Y118366D01*
X348466Y118336D01*
X348479Y118304D01*
X348582Y118145D01*
X348605Y118106D01*
X349597Y115713D01*
X349597Y96287D01*
X348669Y94046D01*
X346953Y92331D01*
X344556Y91339D01*
X344411Y91262D01*
X344261Y91193D01*
X344211Y91158D01*
X344157Y91130D01*
X344027Y91029D01*
X343893Y90935D01*
X343850Y90892D01*
X343801Y90854D01*
X343691Y90732D01*
X343575Y90616D01*
X343541Y90565D01*
X343500Y90520D01*
X343413Y90381D01*
X343319Y90245D01*
X343285Y90176D01*
X343262Y90138D01*
X343239Y90081D01*
X343182Y89964D01*
X342253Y87720D01*
X308822Y54290D01*
X308717Y54164D01*
X308605Y54043D01*
X308573Y53991D01*
X308534Y53944D01*
X308452Y53802D01*
X308364Y53663D01*
X308340Y53606D01*
X308310Y53554D01*
X308255Y53399D01*
X308193Y53246D01*
X308180Y53187D01*
X308159Y53129D01*
X308133Y52967D01*
X308098Y52806D01*
X308093Y52729D01*
X308086Y52685D01*
X308087Y52624D01*
X308079Y52494D01*
X308079Y46003D01*
X299597Y37521D01*
X287603Y37521D01*
X279121Y46003D01*
X279121Y57997D01*
X287603Y66479D01*
X294094Y66479D01*
X294258Y66493D01*
X294422Y66500D01*
X294482Y66513D01*
X294543Y66519D01*
X294702Y66562D01*
X294862Y66598D01*
X294918Y66621D01*
X294977Y66637D01*
X295125Y66708D01*
X295277Y66771D01*
X295329Y66804D01*
X295384Y66831D01*
X295517Y66926D01*
X295656Y67016D01*
X295713Y67067D01*
X295750Y67093D01*
X295792Y67136D01*
X295890Y67222D01*
X319830Y91162D01*
X319966Y91326D01*
X320103Y91486D01*
X320110Y91497D01*
X320118Y91507D01*
X320224Y91691D01*
X320331Y91875D01*
X320335Y91887D01*
X320342Y91898D01*
X320413Y92098D01*
X320486Y92297D01*
X320488Y92310D01*
X320493Y92323D01*
X320527Y92533D01*
X320564Y92741D01*
X320564Y92754D01*
X320566Y92767D01*
X320563Y92981D01*
X320563Y93191D01*
X320560Y93204D01*
X320560Y93217D01*
X320520Y93426D01*
X320482Y93634D01*
X320476Y93649D01*
X320474Y93659D01*
X320460Y93696D01*
X320380Y93929D01*
X319403Y96287D01*
X319403Y115713D01*
X320331Y117954D01*
X322047Y119669D01*
X324101Y120519D01*
X324247Y120596D01*
X324396Y120665D01*
X324446Y120700D01*
X324500Y120728D01*
X324630Y120829D01*
X324765Y120923D01*
X324808Y120966D01*
X324856Y121004D01*
X324966Y121126D01*
X325082Y121242D01*
X325117Y121293D01*
X325157Y121338D01*
X325244Y121478D01*
X325338Y121613D01*
X325372Y121682D01*
X325395Y121720D01*
X325418Y121777D01*
X325475Y121894D01*
X326747Y124966D01*
X333611Y131829D01*
X333716Y131955D01*
X333828Y132076D01*
X333861Y132128D01*
X333900Y132174D01*
X333981Y132317D01*
X334070Y132456D01*
X334093Y132513D01*
X334123Y132565D01*
X334178Y132720D01*
X334241Y132873D01*
X334253Y132932D01*
X334274Y132990D01*
X334301Y133152D01*
X334335Y133313D01*
X334340Y133390D01*
X334347Y133434D01*
X334347Y133495D01*
X334355Y133625D01*
X334355Y135750D01*
X335283Y137990D01*
X336998Y139705D01*
X339239Y140634D01*
X343528Y140634D01*
X343645Y140644D01*
X343762Y140644D01*
X343868Y140664D01*
X343977Y140674D01*
X344090Y140704D01*
X344205Y140725D01*
X344351Y140776D01*
X344411Y140792D01*
X344444Y140808D01*
X344500Y140827D01*
X344632Y140882D01*
X348270Y140882D01*
X348402Y140827D01*
X348514Y140792D01*
X348622Y140748D01*
X348728Y140725D01*
X348832Y140692D01*
X348948Y140677D01*
X349062Y140653D01*
X349216Y140643D01*
X349279Y140635D01*
X349315Y140637D01*
X349374Y140634D01*
X351303Y140634D01*
X351433Y140645D01*
X351563Y140647D01*
X351657Y140665D01*
X351752Y140674D01*
X351877Y140708D01*
X352005Y140733D01*
X352094Y140767D01*
X352186Y140792D01*
X352304Y140848D01*
X352425Y140895D01*
X352507Y140945D01*
X352593Y140985D01*
X352698Y141061D01*
X352810Y141129D01*
X352881Y141192D01*
X352959Y141248D01*
X353050Y141341D01*
X353147Y141427D01*
X353206Y141502D01*
X353273Y141570D01*
X353346Y141678D01*
X353427Y141780D01*
X353472Y141864D01*
X353525Y141943D01*
X353578Y142062D01*
X353639Y142177D01*
X353669Y142268D01*
X353707Y142355D01*
X353738Y142482D01*
X353778Y142605D01*
X353791Y142700D01*
X353814Y142793D01*
X353822Y142922D01*
X353840Y143051D01*
X353836Y143147D01*
X353842Y143242D01*
X353827Y143371D01*
X353821Y143501D01*
X353801Y143594D01*
X353790Y143689D01*
X353752Y143814D01*
X353724Y143941D01*
X353687Y144029D01*
X353659Y144120D01*
X353600Y144236D01*
X353550Y144356D01*
X353498Y144436D01*
X353455Y144521D01*
X353377Y144625D01*
X353306Y144734D01*
X353220Y144832D01*
X353183Y144880D01*
X353150Y144911D01*
X353099Y144968D01*
X350819Y147248D01*
X350693Y147354D01*
X350572Y147465D01*
X350520Y147498D01*
X350474Y147537D01*
X350331Y147619D01*
X350192Y147707D01*
X350136Y147731D01*
X350083Y147761D01*
X349928Y147816D01*
X349776Y147878D01*
X349716Y147891D01*
X349658Y147912D01*
X349496Y147938D01*
X349335Y147973D01*
X349258Y147978D01*
X349214Y147985D01*
X349153Y147984D01*
X349023Y147992D01*
X344632Y147992D01*
X344500Y148047D01*
X344389Y148082D01*
X344281Y148126D01*
X344174Y148149D01*
X344071Y148182D01*
X343955Y148196D01*
X343840Y148221D01*
X343687Y148230D01*
X343624Y148238D01*
X343588Y148237D01*
X343528Y148240D01*
X339239Y148240D01*
X336998Y149168D01*
X335283Y150883D01*
X334355Y153124D01*
X334355Y161150D01*
X335283Y163390D01*
X336998Y165105D01*
X339239Y166034D01*
X343528Y166034D01*
X343645Y166044D01*
X343762Y166044D01*
X343868Y166064D01*
X343977Y166074D01*
X344090Y166104D01*
X344205Y166125D01*
X344351Y166176D01*
X344411Y166192D01*
X344444Y166208D01*
X344500Y166227D01*
X344632Y166282D01*
X355682Y166282D01*
X359043Y164889D01*
X361972Y161960D01*
X361973Y161960D01*
X364092Y159840D01*
X364218Y159735D01*
X364339Y159623D01*
X364391Y159591D01*
X364437Y159552D01*
X364580Y159470D01*
X364719Y159382D01*
X364776Y159358D01*
X364828Y159328D01*
X364983Y159273D01*
X365136Y159211D01*
X365195Y159198D01*
X365253Y159177D01*
X365415Y159151D01*
X365576Y159116D01*
X365653Y159111D01*
X365697Y159104D01*
X365758Y159105D01*
X365888Y159097D01*
X377213Y159097D01*
X377351Y159039D01*
X377384Y159029D01*
X377415Y159014D01*
X377599Y158962D01*
X377781Y158905D01*
X377815Y158900D01*
X377848Y158891D01*
X378038Y158872D01*
X378227Y158848D01*
X378262Y158850D01*
X378296Y158846D01*
X378486Y158861D01*
X378677Y158871D01*
X378711Y158879D01*
X378745Y158882D01*
X378930Y158930D01*
X379115Y158973D01*
X379147Y158987D01*
X379181Y158996D01*
X379354Y159075D01*
X379529Y159151D01*
X379558Y159170D01*
X379590Y159185D01*
X379746Y159294D01*
X379905Y159399D01*
X379930Y159423D01*
X379958Y159443D01*
X380092Y159578D01*
X380231Y159710D01*
X380251Y159738D01*
X380276Y159762D01*
X380384Y159919D01*
X380497Y160073D01*
X380512Y160104D01*
X380532Y160133D01*
X380669Y160414D01*
X380801Y160734D01*
X381099Y161031D01*
X381151Y161094D01*
X381211Y161151D01*
X381296Y161267D01*
X381387Y161377D01*
X381428Y161448D01*
X381477Y161515D01*
X381540Y161643D01*
X381611Y161767D01*
X381638Y161845D01*
X381675Y161919D01*
X381714Y162057D01*
X381762Y162192D01*
X381775Y162273D01*
X381798Y162352D01*
X381812Y162495D01*
X381835Y162636D01*
X381834Y162718D01*
X381842Y162800D01*
X381831Y162943D01*
X381829Y163086D01*
X381813Y163167D01*
X381807Y163249D01*
X381771Y163388D01*
X381744Y163528D01*
X381714Y163605D01*
X381693Y163685D01*
X381633Y163815D01*
X381581Y163948D01*
X381538Y164019D01*
X381504Y164094D01*
X381422Y164211D01*
X381347Y164333D01*
X381293Y164395D01*
X381245Y164462D01*
X381144Y164563D01*
X381049Y164670D01*
X380984Y164722D01*
X380926Y164780D01*
X380808Y164861D01*
X380696Y164950D01*
X380623Y164989D01*
X380556Y165036D01*
X380334Y165144D01*
X380299Y165162D01*
X380289Y165166D01*
X380275Y165173D01*
X378917Y165735D01*
X377493Y167160D01*
X377366Y167265D01*
X377245Y167377D01*
X377194Y167409D01*
X377147Y167448D01*
X377004Y167530D01*
X376866Y167618D01*
X376809Y167642D01*
X376756Y167672D01*
X376601Y167727D01*
X376449Y167789D01*
X376390Y167802D01*
X376332Y167823D01*
X376170Y167849D01*
X376009Y167884D01*
X375932Y167889D01*
X375888Y167896D01*
X375827Y167895D01*
X375697Y167903D01*
X364787Y167903D01*
X362546Y168831D01*
X360831Y170546D01*
X360302Y171825D01*
X360204Y172013D01*
X360108Y172201D01*
X360100Y172212D01*
X360094Y172224D01*
X359964Y172391D01*
X359836Y172560D01*
X359826Y172569D01*
X359818Y172580D01*
X359661Y172721D01*
X359504Y172865D01*
X359493Y172873D01*
X359484Y172881D01*
X359305Y172993D01*
X359125Y173107D01*
X359112Y173112D01*
X359101Y173119D01*
X358905Y173197D01*
X358708Y173278D01*
X358695Y173281D01*
X358683Y173286D01*
X358476Y173328D01*
X358268Y173373D01*
X358252Y173374D01*
X358242Y173376D01*
X358202Y173377D01*
X357956Y173392D01*
X344632Y173392D01*
X344500Y173447D01*
X344389Y173482D01*
X344281Y173526D01*
X344174Y173549D01*
X344071Y173582D01*
X343955Y173596D01*
X343840Y173621D01*
X343687Y173630D01*
X343624Y173638D01*
X343588Y173637D01*
X343528Y173640D01*
X339239Y173640D01*
X336998Y174568D01*
X335283Y176283D01*
X334355Y178524D01*
X334355Y186550D01*
X335283Y188790D01*
X336998Y190505D01*
X339239Y191434D01*
X343528Y191434D01*
X343645Y191444D01*
X343762Y191444D01*
X343868Y191464D01*
X343977Y191474D01*
X344090Y191504D01*
X344205Y191525D01*
X344351Y191576D01*
X344411Y191592D01*
X344444Y191608D01*
X344500Y191627D01*
X344632Y191682D01*
X369782Y191682D01*
X370728Y191290D01*
X370839Y191255D01*
X370947Y191211D01*
X371053Y191188D01*
X371157Y191155D01*
X371273Y191141D01*
X371387Y191116D01*
X371541Y191106D01*
X371604Y191099D01*
X371640Y191100D01*
X371699Y191097D01*
X377213Y191097D01*
X377732Y190882D01*
X377934Y190818D01*
X378136Y190753D01*
X378149Y190751D01*
X378162Y190747D01*
X378372Y190720D01*
X378582Y190691D01*
X378595Y190692D01*
X378608Y190690D01*
X378820Y190701D01*
X379032Y190710D01*
X379045Y190712D01*
X379058Y190713D01*
X379265Y190761D01*
X379472Y190807D01*
X379484Y190812D01*
X379497Y190815D01*
X379691Y190899D01*
X379887Y190981D01*
X379898Y190988D01*
X379910Y190993D01*
X380087Y191110D01*
X380265Y191225D01*
X380277Y191235D01*
X380286Y191241D01*
X380314Y191268D01*
X380499Y191432D01*
X386332Y197265D01*
X386416Y197365D01*
X386507Y197458D01*
X386560Y197537D01*
X386621Y197610D01*
X386686Y197723D01*
X386759Y197831D01*
X386797Y197918D01*
X386845Y198001D01*
X386888Y198124D01*
X386941Y198243D01*
X386963Y198336D01*
X386995Y198426D01*
X387017Y198554D01*
X387047Y198680D01*
X387053Y198775D01*
X387069Y198870D01*
X387067Y199000D01*
X387075Y199130D01*
X387064Y199224D01*
X387063Y199320D01*
X387038Y199448D01*
X387023Y199577D01*
X386995Y199668D01*
X386977Y199762D01*
X386930Y199883D01*
X386893Y200008D01*
X386849Y200093D01*
X386815Y200182D01*
X386747Y200293D01*
X386688Y200409D01*
X386631Y200485D01*
X386581Y200567D01*
X386495Y200664D01*
X386416Y200768D01*
X386346Y200833D01*
X386283Y200904D01*
X386181Y200985D01*
X386085Y201073D01*
X386005Y201124D01*
X385930Y201184D01*
X385815Y201245D01*
X385706Y201315D01*
X385617Y201351D01*
X385533Y201396D01*
X385409Y201436D01*
X385289Y201486D01*
X385195Y201506D01*
X385105Y201535D01*
X384976Y201553D01*
X384849Y201581D01*
X384719Y201589D01*
X384659Y201597D01*
X384614Y201595D01*
X384537Y201600D01*
X381199Y201600D01*
X381019Y201675D01*
X380862Y201724D01*
X380707Y201781D01*
X380647Y201791D01*
X380589Y201809D01*
X380426Y201830D01*
X380264Y201859D01*
X380203Y201859D01*
X380142Y201866D01*
X379978Y201858D01*
X379813Y201857D01*
X379754Y201846D01*
X379693Y201843D01*
X379533Y201806D01*
X379371Y201776D01*
X379298Y201751D01*
X379254Y201741D01*
X379198Y201717D01*
X379075Y201675D01*
X377213Y200903D01*
X364787Y200903D01*
X363561Y201411D01*
X363446Y201447D01*
X363418Y201459D01*
X363390Y201465D01*
X363357Y201475D01*
X363157Y201540D01*
X363144Y201542D01*
X363131Y201546D01*
X362920Y201573D01*
X362711Y201602D01*
X362698Y201601D01*
X362684Y201603D01*
X362474Y201592D01*
X362261Y201583D01*
X362248Y201580D01*
X362235Y201580D01*
X362029Y201532D01*
X361821Y201486D01*
X361809Y201481D01*
X361796Y201478D01*
X361603Y201394D01*
X361406Y201312D01*
X361395Y201305D01*
X361383Y201300D01*
X361207Y201184D01*
X361028Y201068D01*
X361016Y201057D01*
X361007Y201052D01*
X360979Y201024D01*
X360916Y200969D01*
X360902Y200959D01*
X360885Y200942D01*
X360793Y200861D01*
X360117Y200184D01*
X356756Y198792D01*
X344632Y198792D01*
X344500Y198847D01*
X344389Y198882D01*
X344281Y198926D01*
X344174Y198949D01*
X344071Y198982D01*
X343955Y198996D01*
X343840Y199021D01*
X343687Y199030D01*
X343624Y199038D01*
X343588Y199037D01*
X343528Y199040D01*
X339239Y199040D01*
X336998Y199968D01*
X335283Y201683D01*
X334355Y203924D01*
X334355Y211950D01*
X335283Y214190D01*
X336998Y215905D01*
X339239Y216834D01*
X343528Y216834D01*
X343645Y216844D01*
X343762Y216844D01*
X343868Y216864D01*
X343977Y216874D01*
X344090Y216904D01*
X344205Y216925D01*
X344351Y216976D01*
X344411Y216992D01*
X344444Y217008D01*
X344500Y217027D01*
X344632Y217082D01*
X350097Y217082D01*
X350261Y217096D01*
X350425Y217103D01*
X350485Y217116D01*
X350546Y217122D01*
X350705Y217165D01*
X350865Y217201D01*
X350921Y217224D01*
X350980Y217240D01*
X351128Y217311D01*
X351280Y217374D01*
X351332Y217407D01*
X351387Y217433D01*
X351520Y217529D01*
X351659Y217618D01*
X351716Y217670D01*
X351753Y217696D01*
X351795Y217739D01*
X351893Y217825D01*
X355820Y221753D01*
X359181Y223145D01*
X361984Y223145D01*
X362100Y223155D01*
X362217Y223155D01*
X362324Y223175D01*
X362432Y223185D01*
X362545Y223215D01*
X362660Y223236D01*
X362806Y223287D01*
X362867Y223303D01*
X362899Y223319D01*
X362956Y223338D01*
X364787Y224097D01*
X377343Y224097D01*
X377555Y224116D01*
X377766Y224132D01*
X377779Y224135D01*
X377792Y224137D01*
X377997Y224193D01*
X378202Y224246D01*
X378214Y224252D01*
X378226Y224255D01*
X378417Y224346D01*
X378610Y224435D01*
X378621Y224443D01*
X378633Y224449D01*
X378805Y224572D01*
X378979Y224694D01*
X378988Y224703D01*
X378999Y224711D01*
X379147Y224863D01*
X379296Y225013D01*
X379304Y225024D01*
X379313Y225033D01*
X379432Y225209D01*
X379552Y225383D01*
X379559Y225398D01*
X379565Y225406D01*
X379581Y225443D01*
X379649Y225582D01*
X387820Y233753D01*
X391181Y235145D01*
X418381Y235145D01*
X418510Y235156D01*
X418640Y235158D01*
X418734Y235176D01*
X418829Y235185D01*
X418955Y235219D01*
X419082Y235244D01*
X419172Y235278D01*
X419264Y235303D01*
X419381Y235359D01*
X419502Y235406D01*
X419584Y235456D01*
X419670Y235497D01*
X419776Y235572D01*
X419887Y235640D01*
X419959Y235703D01*
X420036Y235759D01*
X420127Y235852D01*
X420225Y235938D01*
X420284Y236013D01*
X420350Y236081D01*
X420423Y236189D01*
X420504Y236291D01*
X420549Y236375D01*
X420603Y236454D01*
X420655Y236573D01*
X420717Y236688D01*
X420746Y236779D01*
X420785Y236866D01*
X420816Y236993D01*
X420856Y237116D01*
X420869Y237211D01*
X420891Y237304D01*
X420899Y237433D01*
X420917Y237562D01*
X420913Y237658D01*
X420919Y237753D01*
X420904Y237882D01*
X420899Y238012D01*
X420878Y238105D01*
X420867Y238200D01*
X420829Y238325D01*
X420801Y238452D01*
X420764Y238540D01*
X420737Y238631D01*
X420678Y238747D01*
X420628Y238867D01*
X420576Y238948D01*
X420532Y239033D01*
X420454Y239136D01*
X420383Y239245D01*
X420297Y239343D01*
X420260Y239391D01*
X420228Y239422D01*
X420176Y239480D01*
X410033Y249623D01*
X409970Y249676D01*
X409913Y249735D01*
X409797Y249820D01*
X409688Y249912D01*
X409616Y249953D01*
X409549Y250001D01*
X409421Y250064D01*
X409297Y250135D01*
X409219Y250163D01*
X409145Y250199D01*
X409007Y250238D01*
X408872Y250286D01*
X408791Y250300D01*
X408712Y250322D01*
X408570Y250336D01*
X408428Y250360D01*
X408346Y250358D01*
X408264Y250367D01*
X408121Y250355D01*
X407978Y250353D01*
X407897Y250338D01*
X407815Y250331D01*
X407676Y250295D01*
X407536Y250268D01*
X407459Y250238D01*
X407379Y250217D01*
X407249Y250157D01*
X407116Y250106D01*
X407045Y250063D01*
X406971Y250028D01*
X406853Y249946D01*
X406731Y249872D01*
X406669Y249817D01*
X406602Y249770D01*
X406501Y249668D01*
X406394Y249573D01*
X406343Y249509D01*
X406284Y249450D01*
X406203Y249332D01*
X406114Y249220D01*
X406075Y249148D01*
X406029Y249080D01*
X405920Y248859D01*
X405902Y248823D01*
X405898Y248813D01*
X405891Y248799D01*
X405435Y247696D01*
X402304Y244565D01*
X398214Y242871D01*
X393786Y242871D01*
X391916Y243646D01*
X391804Y243681D01*
X391696Y243725D01*
X391590Y243748D01*
X391486Y243781D01*
X391370Y243795D01*
X391256Y243820D01*
X391102Y243830D01*
X391040Y243837D01*
X391003Y243836D01*
X390944Y243839D01*
X366281Y243839D01*
X362546Y245386D01*
X330082Y277850D01*
X329956Y277956D01*
X329835Y278067D01*
X329784Y278100D01*
X329737Y278139D01*
X329594Y278221D01*
X329455Y278309D01*
X329399Y278332D01*
X329346Y278362D01*
X329191Y278417D01*
X329039Y278480D01*
X328979Y278493D01*
X328921Y278513D01*
X328759Y278540D01*
X328598Y278575D01*
X328522Y278579D01*
X328477Y278587D01*
X328416Y278586D01*
X328287Y278594D01*
X326105Y278594D01*
X318814Y285885D01*
X318814Y296196D01*
X323473Y300854D01*
X323495Y300881D01*
X323521Y300904D01*
X323639Y301053D01*
X323762Y301200D01*
X323779Y301230D01*
X323800Y301257D01*
X323890Y301425D01*
X323985Y301591D01*
X323997Y301623D01*
X324013Y301654D01*
X324072Y301835D01*
X324136Y302015D01*
X324141Y302049D01*
X324152Y302082D01*
X324178Y302271D01*
X324209Y302459D01*
X324209Y302494D01*
X324214Y302528D01*
X324206Y302719D01*
X324203Y302910D01*
X324197Y302944D01*
X324195Y302978D01*
X324154Y303164D01*
X324118Y303352D01*
X324105Y303384D01*
X324098Y303418D01*
X324024Y303594D01*
X323955Y303772D01*
X323937Y303801D01*
X323924Y303833D01*
X323820Y303993D01*
X323721Y304156D01*
X323698Y304182D01*
X323680Y304211D01*
X323473Y304446D01*
X318688Y309230D01*
X318688Y319541D01*
X325979Y326833D01*
X336290Y326833D01*
X343581Y319541D01*
X343581Y309230D01*
X338923Y304572D01*
X338901Y304545D01*
X338875Y304522D01*
X338757Y304373D01*
X338634Y304227D01*
X338617Y304196D01*
X338596Y304169D01*
X338506Y304001D01*
X338411Y303836D01*
X338399Y303803D01*
X338383Y303772D01*
X338324Y303591D01*
X338260Y303411D01*
X338254Y303377D01*
X338244Y303344D01*
X338218Y303156D01*
X338187Y302967D01*
X338187Y302932D01*
X338182Y302898D01*
X338190Y302707D01*
X338193Y302517D01*
X338199Y302483D01*
X338201Y302448D01*
X338242Y302262D01*
X338278Y302075D01*
X338291Y302042D01*
X338298Y302009D01*
X338372Y301833D01*
X338440Y301655D01*
X338459Y301625D01*
X338472Y301593D01*
X338575Y301433D01*
X338674Y301270D01*
X338697Y301244D01*
X338716Y301215D01*
X338923Y300981D01*
X343708Y296196D01*
X343708Y294015D01*
X343722Y293851D01*
X343729Y293687D01*
X343742Y293627D01*
X343748Y293567D01*
X343791Y293408D01*
X343827Y293247D01*
X343850Y293191D01*
X343866Y293132D01*
X343937Y292984D01*
X344000Y292832D01*
X344034Y292780D01*
X344060Y292726D01*
X344155Y292592D01*
X344245Y292454D01*
X344296Y292396D01*
X344322Y292359D01*
X344365Y292317D01*
X344452Y292220D01*
X371767Y264904D01*
X371893Y264799D01*
X372014Y264687D01*
X372065Y264655D01*
X372112Y264616D01*
X372255Y264534D01*
X372393Y264446D01*
X372450Y264422D01*
X372503Y264392D01*
X372658Y264337D01*
X372810Y264275D01*
X372870Y264262D01*
X372927Y264241D01*
X373090Y264215D01*
X373250Y264180D01*
X373327Y264175D01*
X373371Y264168D01*
X373433Y264169D01*
X373562Y264161D01*
X390944Y264161D01*
X391061Y264171D01*
X391178Y264171D01*
X391284Y264191D01*
X391393Y264201D01*
X391506Y264231D01*
X391621Y264252D01*
X391767Y264303D01*
X391827Y264319D01*
X391860Y264335D01*
X391916Y264354D01*
X393786Y265129D01*
X398214Y265129D01*
X402304Y263435D01*
X402368Y263370D01*
X402468Y263287D01*
X402561Y263196D01*
X402640Y263142D01*
X402714Y263081D01*
X402827Y263017D01*
X402934Y262944D01*
X403022Y262905D01*
X403105Y262858D01*
X403227Y262814D01*
X403346Y262762D01*
X403439Y262739D01*
X403529Y262707D01*
X403657Y262686D01*
X403784Y262655D01*
X403879Y262649D01*
X403973Y262633D01*
X404103Y262635D01*
X404233Y262627D01*
X404328Y262638D01*
X404423Y262640D01*
X404551Y262664D01*
X404680Y262679D01*
X404772Y262707D01*
X404865Y262725D01*
X404987Y262772D01*
X405111Y262810D01*
X405196Y262853D01*
X405285Y262887D01*
X405396Y262955D01*
X405512Y263014D01*
X405589Y263072D01*
X405670Y263121D01*
X405768Y263207D01*
X405871Y263286D01*
X405936Y263356D01*
X406008Y263419D01*
X406088Y263521D01*
X406176Y263617D01*
X406228Y263698D01*
X406287Y263773D01*
X406348Y263887D01*
X406418Y263997D01*
X406454Y264085D01*
X406500Y264169D01*
X406540Y264293D01*
X406589Y264413D01*
X406609Y264507D01*
X406639Y264598D01*
X406657Y264726D01*
X406684Y264854D01*
X406692Y264984D01*
X406700Y265044D01*
X406698Y265088D01*
X406703Y265166D01*
X406703Y272501D01*
X420526Y286324D01*
X440074Y286324D01*
X453897Y272501D01*
X453897Y252953D01*
X440423Y239480D01*
X440340Y239380D01*
X440249Y239287D01*
X440196Y239207D01*
X440134Y239134D01*
X440070Y239021D01*
X439997Y238914D01*
X439958Y238826D01*
X439911Y238743D01*
X439868Y238621D01*
X439815Y238502D01*
X439792Y238409D01*
X439760Y238319D01*
X439739Y238190D01*
X439708Y238064D01*
X439702Y237969D01*
X439687Y237875D01*
X439689Y237744D01*
X439681Y237615D01*
X439692Y237520D01*
X439693Y237424D01*
X439718Y237297D01*
X439733Y237168D01*
X439760Y237076D01*
X439778Y236982D01*
X439825Y236861D01*
X439863Y236737D01*
X439906Y236652D01*
X439941Y236562D01*
X440008Y236451D01*
X440067Y236335D01*
X440125Y236259D01*
X440175Y236178D01*
X440261Y236080D01*
X440339Y235977D01*
X440410Y235912D01*
X440473Y235840D01*
X440575Y235760D01*
X440670Y235671D01*
X440751Y235620D01*
X440826Y235561D01*
X440941Y235500D01*
X441050Y235430D01*
X441139Y235393D01*
X441223Y235348D01*
X441346Y235308D01*
X441467Y235259D01*
X441560Y235239D01*
X441651Y235209D01*
X441780Y235191D01*
X441907Y235164D01*
X442037Y235156D01*
X442097Y235148D01*
X442142Y235149D01*
X442219Y235145D01*
X499819Y235145D01*
X503180Y233753D01*
X506109Y230823D01*
X506110Y230823D01*
X552044Y184888D01*
X552170Y184783D01*
X552291Y184671D01*
X552343Y184639D01*
X552390Y184600D01*
X552532Y184518D01*
X552671Y184430D01*
X552728Y184406D01*
X552780Y184376D01*
X552935Y184321D01*
X553088Y184259D01*
X553147Y184246D01*
X553205Y184225D01*
X553367Y184199D01*
X553528Y184164D01*
X553605Y184159D01*
X553649Y184152D01*
X553710Y184153D01*
X553840Y184145D01*
X561364Y184145D01*
X561399Y184148D01*
X561433Y184146D01*
X561622Y184168D01*
X561813Y184185D01*
X561846Y184194D01*
X561880Y184198D01*
X562063Y184253D01*
X562247Y184303D01*
X562278Y184318D01*
X562311Y184328D01*
X562482Y184415D01*
X562654Y184497D01*
X562682Y184517D01*
X562713Y184532D01*
X562865Y184648D01*
X563020Y184759D01*
X563044Y184784D01*
X563071Y184804D01*
X563200Y184944D01*
X563334Y185081D01*
X563353Y185110D01*
X563377Y185136D01*
X563479Y185297D01*
X563586Y185454D01*
X563600Y185486D01*
X563618Y185515D01*
X563691Y185692D01*
X563768Y185866D01*
X563776Y185900D01*
X563789Y185932D01*
X563829Y186119D01*
X563875Y186304D01*
X563877Y186338D01*
X563884Y186372D01*
X563903Y186684D01*
X563903Y219213D01*
X564831Y221454D01*
X566546Y223169D01*
X568787Y224097D01*
X601213Y224097D01*
X603454Y223169D01*
X605169Y221454D01*
X606097Y219213D01*
X606097Y186655D01*
X606091Y186636D01*
X606073Y186447D01*
X606048Y186257D01*
X606050Y186223D01*
X606047Y186188D01*
X606062Y185998D01*
X606071Y185808D01*
X606079Y185774D01*
X606082Y185739D01*
X606130Y185555D01*
X606173Y185369D01*
X606187Y185337D01*
X606196Y185303D01*
X606276Y185130D01*
X606351Y184956D01*
X606370Y184926D01*
X606385Y184895D01*
X606495Y184738D01*
X606599Y184580D01*
X606623Y184554D01*
X606644Y184526D01*
X606778Y184392D01*
X606910Y184254D01*
X606938Y184233D01*
X606963Y184208D01*
X607119Y184100D01*
X607273Y183988D01*
X607305Y183972D01*
X607333Y183952D01*
X607614Y183815D01*
X610180Y182753D01*
X611568Y181364D01*
X611668Y181281D01*
X611761Y181190D01*
X611841Y181136D01*
X611914Y181075D01*
X612027Y181011D01*
X612134Y180938D01*
X612222Y180899D01*
X612305Y180852D01*
X612427Y180808D01*
X612546Y180756D01*
X612639Y180733D01*
X612729Y180701D01*
X612857Y180680D01*
X612984Y180649D01*
X613079Y180643D01*
X613173Y180628D01*
X613303Y180629D01*
X613433Y180621D01*
X613528Y180632D01*
X613624Y180634D01*
X613751Y180658D01*
X613880Y180673D01*
X613972Y180701D01*
X614066Y180719D01*
X614187Y180766D01*
X614311Y180804D01*
X614397Y180847D01*
X614486Y180881D01*
X614597Y180949D01*
X614713Y181008D01*
X614789Y181066D01*
X614870Y181115D01*
X614968Y181202D01*
X615071Y181280D01*
X615136Y181350D01*
X615208Y181414D01*
X615288Y181516D01*
X615377Y181611D01*
X615428Y181692D01*
X615487Y181767D01*
X615549Y181881D01*
X615618Y181991D01*
X615655Y182079D01*
X615700Y182164D01*
X615740Y182287D01*
X615789Y182408D01*
X615809Y182501D01*
X615839Y182592D01*
X615857Y182720D01*
X615884Y182848D01*
X615892Y182978D01*
X615900Y183038D01*
X615899Y183082D01*
X615903Y183160D01*
X615903Y193213D01*
X616831Y195454D01*
X618546Y197169D01*
X620787Y198097D01*
X653242Y198097D01*
X653344Y198071D01*
X653487Y198026D01*
X653562Y198017D01*
X653635Y197999D01*
X653785Y197988D01*
X653934Y197970D01*
X654009Y197973D01*
X654084Y197968D01*
X654233Y197985D01*
X654383Y197993D01*
X654457Y198010D01*
X654531Y198018D01*
X654676Y198061D01*
X654822Y198095D01*
X654891Y198124D01*
X654963Y198146D01*
X655098Y198213D01*
X655236Y198273D01*
X655298Y198314D01*
X655366Y198348D01*
X655486Y198438D01*
X655611Y198521D01*
X655666Y198573D01*
X655726Y198618D01*
X655828Y198728D01*
X655937Y198831D01*
X655982Y198892D01*
X656033Y198947D01*
X656114Y199073D01*
X656203Y199195D01*
X656236Y199262D01*
X656277Y199326D01*
X656335Y199464D01*
X656401Y199599D01*
X656421Y199672D01*
X656450Y199741D01*
X656483Y199888D01*
X656524Y200032D01*
X656531Y200107D01*
X656548Y200181D01*
X656566Y200458D01*
X656568Y200480D01*
X656568Y200485D01*
X656569Y200493D01*
X656902Y259206D01*
X656898Y259247D01*
X656901Y259289D01*
X656880Y259471D01*
X656865Y259654D01*
X656854Y259695D01*
X656849Y259736D01*
X656796Y259913D01*
X656748Y260089D01*
X656731Y260127D01*
X656719Y260167D01*
X656635Y260331D01*
X656557Y260497D01*
X656533Y260531D01*
X656514Y260568D01*
X656403Y260715D01*
X656297Y260865D01*
X656268Y260894D01*
X656242Y260927D01*
X656107Y261052D01*
X655976Y261180D01*
X655942Y261204D01*
X655911Y261232D01*
X655756Y261331D01*
X655605Y261435D01*
X655567Y261452D01*
X655531Y261474D01*
X655361Y261544D01*
X655194Y261619D01*
X655153Y261629D01*
X655115Y261645D01*
X654935Y261684D01*
X654757Y261728D01*
X654716Y261731D01*
X654675Y261740D01*
X654363Y261759D01*
X621610Y261759D01*
X619281Y262724D01*
X619252Y262748D01*
X619110Y262830D01*
X618971Y262918D01*
X618914Y262942D01*
X618861Y262972D01*
X618706Y263027D01*
X618554Y263089D01*
X618494Y263102D01*
X618437Y263123D01*
X618275Y263149D01*
X618114Y263184D01*
X618037Y263189D01*
X617993Y263196D01*
X617932Y263195D01*
X617802Y263203D01*
X584261Y263203D01*
X577353Y266065D01*
X572331Y271086D01*
X572232Y271169D01*
X572138Y271260D01*
X572059Y271314D01*
X571986Y271375D01*
X571873Y271439D01*
X571765Y271512D01*
X571678Y271551D01*
X571595Y271598D01*
X571473Y271642D01*
X571354Y271695D01*
X571261Y271717D01*
X571171Y271749D01*
X571042Y271770D01*
X570916Y271801D01*
X570821Y271807D01*
X570727Y271823D01*
X570597Y271821D01*
X570467Y271829D01*
X570372Y271818D01*
X570276Y271817D01*
X570149Y271792D01*
X570020Y271777D01*
X569928Y271749D01*
X569834Y271731D01*
X569713Y271684D01*
X569589Y271646D01*
X569503Y271603D01*
X569414Y271569D01*
X569303Y271501D01*
X569187Y271442D01*
X569111Y271384D01*
X569030Y271335D01*
X568932Y271249D01*
X568829Y271170D01*
X568764Y271100D01*
X568692Y271037D01*
X568611Y270935D01*
X568523Y270839D01*
X568472Y270758D01*
X568413Y270683D01*
X568351Y270569D01*
X568282Y270459D01*
X568245Y270371D01*
X568200Y270287D01*
X568160Y270163D01*
X568111Y270043D01*
X568090Y269949D01*
X568061Y269858D01*
X568043Y269730D01*
X568016Y269602D01*
X568008Y269473D01*
X568000Y269412D01*
X568001Y269367D01*
X567997Y269291D01*
X567997Y252953D01*
X554174Y239130D01*
X534626Y239130D01*
X520803Y252953D01*
X520803Y272501D01*
X534626Y286324D01*
X550964Y286324D01*
X551093Y286335D01*
X551223Y286337D01*
X551317Y286355D01*
X551412Y286363D01*
X551538Y286398D01*
X551665Y286422D01*
X551754Y286457D01*
X551847Y286482D01*
X551964Y286538D01*
X552085Y286585D01*
X552167Y286634D01*
X552253Y286675D01*
X552359Y286751D01*
X552470Y286819D01*
X552542Y286882D01*
X552619Y286937D01*
X552710Y287031D01*
X552807Y287117D01*
X552866Y287191D01*
X552933Y287260D01*
X553006Y287368D01*
X553087Y287470D01*
X553132Y287554D01*
X553185Y287633D01*
X553238Y287752D01*
X553299Y287867D01*
X553329Y287958D01*
X553368Y288045D01*
X553398Y288171D01*
X553439Y288295D01*
X553452Y288390D01*
X553474Y288482D01*
X553482Y288612D01*
X553500Y288741D01*
X553496Y288837D01*
X553502Y288932D01*
X553487Y289061D01*
X553482Y289191D01*
X553461Y289284D01*
X553450Y289379D01*
X553412Y289504D01*
X553384Y289630D01*
X553347Y289719D01*
X553320Y289810D01*
X553261Y289926D01*
X553210Y290046D01*
X553158Y290126D01*
X553115Y290211D01*
X553037Y290315D01*
X552966Y290424D01*
X552880Y290522D01*
X552843Y290570D01*
X552810Y290600D01*
X552759Y290658D01*
X541958Y301460D01*
X541832Y301565D01*
X541711Y301677D01*
X541659Y301709D01*
X541613Y301748D01*
X541470Y301830D01*
X541331Y301918D01*
X541274Y301942D01*
X541222Y301972D01*
X541067Y302027D01*
X540914Y302089D01*
X540855Y302102D01*
X540797Y302123D01*
X540635Y302149D01*
X540474Y302184D01*
X540397Y302189D01*
X540353Y302196D01*
X540292Y302195D01*
X540162Y302203D01*
X381764Y302203D01*
X381761Y302203D01*
X381757Y302203D01*
X381536Y302183D01*
X381316Y302163D01*
X381312Y302162D01*
X381309Y302162D01*
X381005Y302087D01*
X380552Y301945D01*
X377775Y302193D01*
X377713Y302193D01*
X377549Y302203D01*
X374761Y302203D01*
X374323Y302385D01*
X374319Y302386D01*
X374316Y302388D01*
X374102Y302454D01*
X373893Y302520D01*
X373889Y302520D01*
X373886Y302521D01*
X373577Y302568D01*
X373104Y302610D01*
X370633Y303902D01*
X370575Y303926D01*
X370428Y303998D01*
X367853Y305065D01*
X367517Y305400D01*
X367514Y305403D01*
X367512Y305406D01*
X367347Y305542D01*
X367172Y305689D01*
X367168Y305691D01*
X367166Y305694D01*
X366898Y305855D01*
X366478Y306075D01*
X364689Y308214D01*
X364644Y308259D01*
X364536Y308381D01*
X362565Y310353D01*
X362383Y310791D01*
X362382Y310794D01*
X362381Y310798D01*
X362276Y310997D01*
X362175Y311190D01*
X362173Y311193D01*
X362171Y311196D01*
X361986Y311448D01*
X339390Y338473D01*
X339346Y338518D01*
X339238Y338640D01*
X338331Y339546D01*
X338321Y339571D01*
X338320Y339574D01*
X338318Y339578D01*
X338216Y339772D01*
X338113Y339970D01*
X338111Y339973D01*
X338109Y339976D01*
X337923Y340228D01*
X336181Y342312D01*
X333945Y349448D01*
X334610Y356896D01*
X338075Y363522D01*
X339973Y365110D01*
X340018Y365154D01*
X340140Y365262D01*
X340166Y365288D01*
X340339Y365416D01*
X343812Y368319D01*
X350948Y370555D01*
X358396Y369890D01*
X365022Y366425D01*
X366610Y364527D01*
X366654Y364482D01*
X366762Y364360D01*
X367668Y363454D01*
X367679Y363429D01*
X367680Y363426D01*
X367681Y363422D01*
X367785Y363226D01*
X367887Y363030D01*
X367889Y363027D01*
X367891Y363024D01*
X368076Y362772D01*
X386524Y340707D01*
X386561Y340670D01*
X386593Y340629D01*
X386720Y340511D01*
X386843Y340389D01*
X386885Y340359D01*
X386924Y340323D01*
X387070Y340230D01*
X387212Y340132D01*
X387259Y340110D01*
X387304Y340082D01*
X387464Y340016D01*
X387621Y339944D01*
X387672Y339931D01*
X387720Y339911D01*
X387890Y339874D01*
X388057Y339831D01*
X388109Y339827D01*
X388160Y339816D01*
X388472Y339797D01*
X552739Y339797D01*
X559647Y336935D01*
X595042Y301540D01*
X595168Y301435D01*
X595289Y301323D01*
X595341Y301291D01*
X595387Y301252D01*
X595530Y301170D01*
X595669Y301082D01*
X595726Y301058D01*
X595778Y301028D01*
X595933Y300973D01*
X596086Y300911D01*
X596145Y300898D01*
X596203Y300877D01*
X596365Y300851D01*
X596526Y300816D01*
X596603Y300811D01*
X596647Y300804D01*
X596708Y300805D01*
X596838Y300797D01*
X616090Y300797D01*
X616254Y300811D01*
X616418Y300818D01*
X616478Y300831D01*
X616538Y300837D01*
X616697Y300880D01*
X616858Y300916D01*
X616914Y300939D01*
X616973Y300955D01*
X617121Y301026D01*
X617273Y301089D01*
X617324Y301122D01*
X617379Y301149D01*
X617513Y301244D01*
X617651Y301334D01*
X617709Y301385D01*
X617746Y301411D01*
X617788Y301454D01*
X617886Y301540D01*
X619369Y303024D01*
X621610Y303953D01*
X654210Y303953D01*
X654236Y303946D01*
X654386Y303936D01*
X654535Y303917D01*
X654610Y303921D01*
X654686Y303916D01*
X654835Y303932D01*
X654985Y303940D01*
X655058Y303957D01*
X655133Y303966D01*
X655277Y304008D01*
X655423Y304042D01*
X655493Y304072D01*
X655565Y304093D01*
X655699Y304161D01*
X655837Y304220D01*
X655900Y304262D01*
X655967Y304295D01*
X656087Y304385D01*
X656213Y304468D01*
X656267Y304520D01*
X656328Y304565D01*
X656430Y304675D01*
X656539Y304779D01*
X656583Y304840D01*
X656635Y304895D01*
X656716Y305021D01*
X656805Y305142D01*
X656838Y305210D01*
X656879Y305273D01*
X656936Y305412D01*
X657002Y305547D01*
X657023Y305619D01*
X657052Y305689D01*
X657084Y305835D01*
X657125Y305980D01*
X657133Y306055D01*
X657149Y306128D01*
X657168Y306406D01*
X657170Y306428D01*
X657170Y306433D01*
X657170Y306440D01*
X657219Y315074D01*
X657216Y315115D01*
X657218Y315157D01*
X657197Y315339D01*
X657182Y315522D01*
X657171Y315563D01*
X657166Y315604D01*
X657113Y315781D01*
X657066Y315957D01*
X657048Y315995D01*
X657036Y316035D01*
X656952Y316199D01*
X656875Y316365D01*
X656850Y316399D01*
X656831Y316437D01*
X656721Y316583D01*
X656615Y316733D01*
X656585Y316762D01*
X656559Y316795D01*
X656425Y316920D01*
X656294Y317049D01*
X656259Y317072D01*
X656228Y317101D01*
X656073Y317199D01*
X655922Y317303D01*
X655884Y317320D01*
X655849Y317342D01*
X655679Y317412D01*
X655511Y317487D01*
X655471Y317497D01*
X655432Y317513D01*
X655253Y317552D01*
X655075Y317596D01*
X655033Y317599D01*
X654992Y317608D01*
X654680Y317627D01*
X602506Y317627D01*
X594752Y320839D01*
X560705Y354886D01*
X560579Y354992D01*
X560458Y355103D01*
X560407Y355136D01*
X560360Y355175D01*
X560217Y355257D01*
X560078Y355345D01*
X560022Y355368D01*
X559969Y355399D01*
X559814Y355454D01*
X559662Y355516D01*
X559602Y355529D01*
X559544Y355549D01*
X559382Y355576D01*
X559221Y355611D01*
X559145Y355616D01*
X559100Y355623D01*
X559039Y355622D01*
X558910Y355630D01*
X556426Y355630D01*
X542603Y369453D01*
X542603Y389001D01*
X554171Y400568D01*
X554254Y400668D01*
X554345Y400761D01*
X554398Y400841D01*
X554460Y400914D01*
X554524Y401027D01*
X554597Y401134D01*
X554636Y401222D01*
X554683Y401305D01*
X554727Y401427D01*
X554779Y401546D01*
X554802Y401639D01*
X554834Y401729D01*
X554855Y401858D01*
X554886Y401984D01*
X554892Y402079D01*
X554907Y402173D01*
X554906Y402304D01*
X554914Y402433D01*
X554903Y402528D01*
X554901Y402624D01*
X554877Y402751D01*
X554862Y402880D01*
X554834Y402972D01*
X554816Y403066D01*
X554769Y403187D01*
X554731Y403311D01*
X554688Y403396D01*
X554653Y403486D01*
X554586Y403597D01*
X554527Y403713D01*
X554469Y403789D01*
X554420Y403870D01*
X554333Y403968D01*
X554255Y404071D01*
X554185Y404136D01*
X554121Y404208D01*
X554019Y404288D01*
X553924Y404377D01*
X553843Y404428D01*
X553768Y404487D01*
X553654Y404548D01*
X553544Y404618D01*
X553456Y404655D01*
X553371Y404700D01*
X553248Y404740D01*
X553127Y404789D01*
X553034Y404809D01*
X552943Y404839D01*
X552814Y404857D01*
X552687Y404884D01*
X552557Y404892D01*
X552497Y404900D01*
X552452Y404899D01*
X552375Y404903D01*
X436963Y404903D01*
X436800Y404889D01*
X436635Y404882D01*
X436576Y404869D01*
X436515Y404863D01*
X436356Y404820D01*
X436196Y404784D01*
X436139Y404761D01*
X436081Y404745D01*
X435932Y404674D01*
X435780Y404611D01*
X435729Y404578D01*
X435674Y404551D01*
X435540Y404456D01*
X435402Y404366D01*
X435344Y404315D01*
X435308Y404289D01*
X435265Y404246D01*
X435168Y404160D01*
X428140Y397132D01*
X428035Y397006D01*
X427923Y396885D01*
X427891Y396833D01*
X427851Y396787D01*
X427770Y396644D01*
X427682Y396505D01*
X427658Y396449D01*
X427628Y396396D01*
X427573Y396241D01*
X427511Y396089D01*
X427498Y396029D01*
X427477Y395971D01*
X427450Y395809D01*
X427416Y395648D01*
X427411Y395571D01*
X427404Y395527D01*
X427405Y395466D01*
X427397Y395336D01*
X427397Y392853D01*
X413574Y379030D01*
X394026Y379030D01*
X389970Y383086D01*
X389844Y383192D01*
X389722Y383303D01*
X389671Y383336D01*
X389624Y383375D01*
X389482Y383457D01*
X389343Y383545D01*
X389286Y383568D01*
X389233Y383599D01*
X389078Y383654D01*
X388926Y383716D01*
X388867Y383729D01*
X388809Y383749D01*
X388647Y383776D01*
X388486Y383811D01*
X388409Y383816D01*
X388365Y383823D01*
X388304Y383822D01*
X388174Y383830D01*
X357299Y383830D01*
X357214Y383822D01*
X357129Y383824D01*
X356991Y383803D01*
X356851Y383790D01*
X356768Y383768D01*
X356684Y383754D01*
X356460Y383683D01*
X356416Y383672D01*
X356405Y383666D01*
X356386Y383660D01*
X356273Y383617D01*
X347672Y383829D01*
X347647Y383828D01*
X347609Y383830D01*
X344070Y383830D01*
X344052Y383834D01*
X343919Y383876D01*
X343834Y383887D01*
X343751Y383907D01*
X343711Y383910D01*
X340494Y385337D01*
X340471Y385345D01*
X340436Y385362D01*
X337166Y386716D01*
X337152Y386727D01*
X337044Y386817D01*
X336970Y386859D01*
X336901Y386910D01*
X336865Y386928D01*
X334439Y389477D01*
X334421Y389493D01*
X334395Y389522D01*
X331893Y392025D01*
X331883Y392041D01*
X331818Y392164D01*
X331766Y392232D01*
X331721Y392305D01*
X331695Y392336D01*
X330430Y395619D01*
X330419Y395641D01*
X330406Y395677D01*
X329052Y398947D01*
X329049Y398965D01*
X329037Y399105D01*
X329014Y399187D01*
X329001Y399272D01*
X328989Y399310D01*
X329076Y402828D01*
X329074Y402853D01*
X329076Y402891D01*
X329076Y406430D01*
X329081Y406448D01*
X329123Y406581D01*
X329133Y406666D01*
X329153Y406749D01*
X329157Y406789D01*
X330584Y410006D01*
X330591Y410029D01*
X330608Y410064D01*
X331963Y413334D01*
X331973Y413348D01*
X332063Y413456D01*
X332106Y413530D01*
X332156Y413599D01*
X332175Y413635D01*
X334724Y416061D01*
X334740Y416079D01*
X334769Y416105D01*
X337271Y418607D01*
X337287Y418617D01*
X337411Y418682D01*
X337478Y418734D01*
X337552Y418779D01*
X337582Y418805D01*
X340865Y420070D01*
X340887Y420081D01*
X340924Y420094D01*
X344194Y421448D01*
X344212Y421451D01*
X344351Y421463D01*
X344434Y421486D01*
X344518Y421499D01*
X344556Y421511D01*
X348075Y421424D01*
X348099Y421426D01*
X348137Y421424D01*
X388174Y421424D01*
X388338Y421438D01*
X388502Y421445D01*
X388562Y421458D01*
X388623Y421463D01*
X388781Y421507D01*
X388942Y421542D01*
X388998Y421566D01*
X389057Y421582D01*
X389205Y421653D01*
X389357Y421716D01*
X389409Y421749D01*
X389464Y421775D01*
X389597Y421871D01*
X389735Y421960D01*
X389793Y422011D01*
X389830Y422037D01*
X389872Y422081D01*
X389970Y422167D01*
X394026Y426224D01*
X396510Y426224D01*
X396673Y426238D01*
X396838Y426245D01*
X396897Y426258D01*
X396958Y426263D01*
X397117Y426307D01*
X397277Y426342D01*
X397334Y426366D01*
X397392Y426382D01*
X397541Y426452D01*
X397693Y426516D01*
X397744Y426549D01*
X397799Y426575D01*
X397933Y426671D01*
X398071Y426760D01*
X398129Y426811D01*
X398165Y426837D01*
X398208Y426881D01*
X398305Y426967D01*
X408931Y437593D01*
X412097Y440759D01*
X412178Y440856D01*
X412267Y440947D01*
X412323Y441029D01*
X412386Y441104D01*
X412449Y441214D01*
X412520Y441320D01*
X412560Y441410D01*
X412609Y441495D01*
X412652Y441615D01*
X412703Y441731D01*
X412727Y441827D01*
X412760Y441919D01*
X412780Y442045D01*
X412811Y442168D01*
X412817Y442267D01*
X412833Y442364D01*
X412832Y442491D01*
X412840Y442618D01*
X412828Y442715D01*
X412827Y442814D01*
X412803Y442939D01*
X412789Y443065D01*
X412760Y443159D01*
X412742Y443256D01*
X412696Y443374D01*
X412659Y443496D01*
X412615Y443584D01*
X412579Y443676D01*
X412513Y443785D01*
X412456Y443898D01*
X412397Y443976D01*
X412345Y444061D01*
X412261Y444156D01*
X412185Y444257D01*
X412112Y444324D01*
X412047Y444398D01*
X411948Y444477D01*
X411854Y444563D01*
X411771Y444616D01*
X411694Y444677D01*
X411582Y444737D01*
X411475Y444806D01*
X411384Y444844D01*
X411297Y444890D01*
X411176Y444929D01*
X411059Y444978D01*
X410963Y444999D01*
X410869Y445029D01*
X410743Y445047D01*
X410619Y445074D01*
X410484Y445082D01*
X410423Y445091D01*
X410380Y445089D01*
X410307Y445094D01*
X167655Y445658D01*
X167522Y445646D01*
X167389Y445644D01*
X167298Y445627D01*
X167206Y445619D01*
X167078Y445584D01*
X166947Y445559D01*
X166861Y445525D01*
X166771Y445501D01*
X166651Y445444D01*
X166527Y445396D01*
X166448Y445348D01*
X166364Y445309D01*
X166256Y445232D01*
X166142Y445163D01*
X166073Y445101D01*
X165998Y445047D01*
X165904Y444952D01*
X165805Y444864D01*
X165748Y444792D01*
X165683Y444725D01*
X165608Y444615D01*
X165526Y444511D01*
X165482Y444430D01*
X165430Y444353D01*
X165376Y444232D01*
X165313Y444114D01*
X165284Y444026D01*
X165247Y443942D01*
X165215Y443812D01*
X165174Y443686D01*
X165161Y443595D01*
X165139Y443504D01*
X165131Y443372D01*
X165112Y443240D01*
X165116Y443147D01*
X165110Y443055D01*
X165125Y442923D01*
X165131Y442790D01*
X165151Y442700D01*
X165161Y442608D01*
X165200Y442480D01*
X165228Y442351D01*
X165264Y442265D01*
X165291Y442176D01*
X165351Y442058D01*
X165402Y441935D01*
X165452Y441857D01*
X165494Y441775D01*
X165574Y441669D01*
X165646Y441557D01*
X165729Y441463D01*
X165765Y441415D01*
X165799Y441384D01*
X165853Y441323D01*
X166386Y440790D01*
X166512Y440685D01*
X166633Y440573D01*
X166684Y440541D01*
X166731Y440502D01*
X166874Y440420D01*
X167012Y440332D01*
X167069Y440308D01*
X167122Y440278D01*
X167277Y440223D01*
X167429Y440161D01*
X167489Y440148D01*
X167546Y440127D01*
X167708Y440101D01*
X167869Y440066D01*
X167946Y440061D01*
X167990Y440054D01*
X168051Y440055D01*
X168181Y440047D01*
X203866Y440047D01*
X208440Y438152D01*
X224552Y422040D01*
X224678Y421935D01*
X224799Y421823D01*
X224850Y421791D01*
X224897Y421752D01*
X225040Y421670D01*
X225179Y421582D01*
X225235Y421558D01*
X225288Y421528D01*
X225443Y421473D01*
X225595Y421411D01*
X225655Y421398D01*
X225712Y421377D01*
X225875Y421351D01*
X226036Y421316D01*
X226112Y421311D01*
X226157Y421304D01*
X226218Y421305D01*
X226347Y421297D01*
X266739Y421297D01*
X273648Y418435D01*
X275529Y416554D01*
X275619Y416479D01*
X275702Y416396D01*
X275780Y416342D01*
X277824Y414298D01*
X277847Y414263D01*
X277949Y414147D01*
X277987Y414098D01*
X278014Y414074D01*
X278054Y414029D01*
X278935Y413147D01*
X281797Y406239D01*
X281797Y398761D01*
X278935Y391853D01*
X278054Y390971D01*
X277979Y390881D01*
X277896Y390798D01*
X277842Y390720D01*
X275798Y388676D01*
X275763Y388653D01*
X275648Y388551D01*
X275598Y388513D01*
X275574Y388486D01*
X275529Y388446D01*
X273648Y386565D01*
X266739Y383703D01*
X237221Y383703D01*
X237104Y383693D01*
X236988Y383693D01*
X236881Y383673D01*
X236772Y383663D01*
X236660Y383633D01*
X236545Y383612D01*
X236399Y383561D01*
X236338Y383545D01*
X236306Y383529D01*
X236249Y383510D01*
X232129Y381803D01*
X224651Y381803D01*
X217742Y384665D01*
X214101Y388306D01*
X214012Y388381D01*
X213929Y388464D01*
X213839Y388525D01*
X213756Y388595D01*
X213654Y388653D01*
X213558Y388719D01*
X213420Y388787D01*
X213365Y388818D01*
X213331Y388831D01*
X213277Y388857D01*
X213000Y388971D01*
X209141Y392830D01*
X207053Y397872D01*
X207053Y403283D01*
X207039Y403446D01*
X207032Y403611D01*
X207019Y403670D01*
X207013Y403731D01*
X206970Y403890D01*
X206934Y404050D01*
X206911Y404107D01*
X206895Y404165D01*
X206824Y404314D01*
X206761Y404466D01*
X206728Y404517D01*
X206701Y404572D01*
X206606Y404706D01*
X206516Y404844D01*
X206465Y404902D01*
X206439Y404938D01*
X206396Y404981D01*
X206310Y405078D01*
X196978Y414410D01*
X196852Y414515D01*
X196731Y414627D01*
X196680Y414659D01*
X196633Y414698D01*
X196490Y414780D01*
X196351Y414868D01*
X196295Y414892D01*
X196242Y414922D01*
X196087Y414977D01*
X195935Y415039D01*
X195875Y415052D01*
X195818Y415073D01*
X195655Y415099D01*
X195494Y415134D01*
X195418Y415139D01*
X195373Y415146D01*
X195312Y415145D01*
X195183Y415153D01*
X168181Y415153D01*
X168017Y415139D01*
X167853Y415132D01*
X167793Y415119D01*
X167733Y415113D01*
X167574Y415070D01*
X167413Y415034D01*
X167357Y415011D01*
X167298Y414995D01*
X167150Y414924D01*
X166998Y414861D01*
X166946Y414828D01*
X166892Y414801D01*
X166758Y414706D01*
X166620Y414616D01*
X166562Y414565D01*
X166525Y414539D01*
X166483Y414496D01*
X166386Y414410D01*
X165097Y413121D01*
X153103Y413121D01*
X151814Y414410D01*
X151688Y414515D01*
X151567Y414627D01*
X151516Y414659D01*
X151469Y414698D01*
X151326Y414780D01*
X151188Y414868D01*
X151131Y414892D01*
X151078Y414922D01*
X150923Y414977D01*
X150771Y415039D01*
X150711Y415052D01*
X150654Y415073D01*
X150492Y415099D01*
X150331Y415134D01*
X150254Y415139D01*
X150210Y415146D01*
X150149Y415145D01*
X150019Y415153D01*
X135857Y415153D01*
X135694Y415139D01*
X135529Y415132D01*
X135470Y415119D01*
X135409Y415113D01*
X135250Y415070D01*
X135090Y415034D01*
X135033Y415011D01*
X134975Y414995D01*
X134826Y414924D01*
X134674Y414861D01*
X134623Y414828D01*
X134568Y414801D01*
X134434Y414706D01*
X134296Y414616D01*
X134238Y414565D01*
X134202Y414539D01*
X134159Y414496D01*
X134062Y414410D01*
X124790Y405138D01*
X124685Y405012D01*
X124573Y404891D01*
X124541Y404840D01*
X124502Y404793D01*
X124420Y404650D01*
X124332Y404511D01*
X124308Y404455D01*
X124278Y404402D01*
X124223Y404247D01*
X124161Y404095D01*
X124148Y404035D01*
X124127Y403978D01*
X124101Y403815D01*
X124066Y403655D01*
X124061Y403578D01*
X124054Y403533D01*
X124055Y403472D01*
X124047Y403343D01*
X124047Y327081D01*
X124061Y326917D01*
X124068Y326753D01*
X124081Y326693D01*
X124087Y326633D01*
X124130Y326474D01*
X124166Y326313D01*
X124189Y326257D01*
X124205Y326198D01*
X124276Y326050D01*
X124339Y325898D01*
X124372Y325846D01*
X124399Y325792D01*
X124494Y325658D01*
X124584Y325520D01*
X124635Y325462D01*
X124661Y325425D01*
X124704Y325383D01*
X124790Y325286D01*
X126079Y323997D01*
X126079Y312003D01*
X117597Y303521D01*
X105603Y303521D01*
X102882Y306242D01*
X102782Y306326D01*
X102689Y306417D01*
X102609Y306470D01*
X102536Y306531D01*
X102423Y306596D01*
X102316Y306669D01*
X102228Y306707D01*
X102145Y306755D01*
X102023Y306798D01*
X101904Y306851D01*
X101811Y306874D01*
X101721Y306906D01*
X101593Y306927D01*
X101466Y306958D01*
X101371Y306963D01*
X101277Y306979D01*
X101147Y306977D01*
X101017Y306985D01*
X100922Y306974D01*
X100826Y306973D01*
X100699Y306948D01*
X100570Y306933D01*
X100478Y306906D01*
X100384Y306887D01*
X100263Y306841D01*
X100139Y306803D01*
X100053Y306759D01*
X99964Y306725D01*
X99853Y306658D01*
X99737Y306599D01*
X99661Y306541D01*
X99580Y306491D01*
X99482Y306405D01*
X99379Y306327D01*
X99314Y306256D01*
X99242Y306193D01*
X99162Y306091D01*
X99073Y305995D01*
X99022Y305915D01*
X98963Y305840D01*
X98902Y305725D01*
X98832Y305616D01*
X98795Y305527D01*
X98750Y305443D01*
X98710Y305319D01*
X98661Y305199D01*
X98641Y305106D01*
X98611Y305015D01*
X98593Y304886D01*
X98566Y304759D01*
X98558Y304629D01*
X98550Y304569D01*
X98551Y304535D01*
X97890Y302939D01*
X97855Y302827D01*
X97811Y302719D01*
X97788Y302613D01*
X97755Y302509D01*
X97741Y302393D01*
X97716Y302279D01*
X97706Y302125D01*
X97699Y302062D01*
X97700Y302026D01*
X97697Y301967D01*
X97697Y300787D01*
X97152Y299472D01*
X97103Y299315D01*
X97046Y299160D01*
X97035Y299100D01*
X97017Y299042D01*
X96996Y298879D01*
X96968Y298717D01*
X96968Y298656D01*
X96960Y298595D01*
X96969Y298431D01*
X96969Y298267D01*
X96980Y298207D01*
X96983Y298146D01*
X97021Y297986D01*
X97050Y297824D01*
X97075Y297751D01*
X97085Y297707D01*
X97109Y297652D01*
X97152Y297528D01*
X97697Y296213D01*
X97697Y295033D01*
X97707Y294916D01*
X97707Y294800D01*
X97727Y294693D01*
X97737Y294584D01*
X97767Y294472D01*
X97788Y294357D01*
X97839Y294211D01*
X97855Y294150D01*
X97871Y294118D01*
X97890Y294061D01*
X98547Y292476D01*
X98547Y287524D01*
X97890Y285939D01*
X97855Y285827D01*
X97811Y285719D01*
X97788Y285613D01*
X97755Y285509D01*
X97741Y285393D01*
X97716Y285279D01*
X97706Y285125D01*
X97699Y285062D01*
X97700Y285026D01*
X97697Y284967D01*
X97697Y283787D01*
X96769Y281546D01*
X95053Y279831D01*
X92926Y278950D01*
X92822Y278896D01*
X92714Y278851D01*
X92623Y278792D01*
X92527Y278742D01*
X92434Y278670D01*
X92336Y278607D01*
X92220Y278504D01*
X92171Y278466D01*
X92146Y278439D01*
X92102Y278400D01*
X90459Y276757D01*
X88216Y274514D01*
X88163Y274451D01*
X88104Y274394D01*
X88019Y274278D01*
X87927Y274168D01*
X87886Y274097D01*
X87838Y274030D01*
X87775Y273902D01*
X87704Y273777D01*
X87676Y273700D01*
X87640Y273626D01*
X87601Y273488D01*
X87553Y273353D01*
X87540Y273272D01*
X87517Y273193D01*
X87503Y273050D01*
X87480Y272909D01*
X87481Y272827D01*
X87472Y272745D01*
X87484Y272602D01*
X87486Y272459D01*
X87501Y272378D01*
X87508Y272296D01*
X87544Y272157D01*
X87571Y272017D01*
X87601Y271940D01*
X87622Y271860D01*
X87682Y271730D01*
X87733Y271597D01*
X87776Y271526D01*
X87811Y271451D01*
X87893Y271334D01*
X87967Y271212D01*
X88022Y271150D01*
X88069Y271083D01*
X88171Y270982D01*
X88266Y270875D01*
X88330Y270823D01*
X88389Y270765D01*
X88506Y270684D01*
X88619Y270595D01*
X88691Y270556D01*
X88759Y270509D01*
X88980Y270401D01*
X89016Y270382D01*
X89026Y270379D01*
X89040Y270372D01*
X91304Y269435D01*
X94435Y266304D01*
X95209Y264434D01*
X95263Y264330D01*
X95308Y264222D01*
X95367Y264131D01*
X95418Y264035D01*
X95489Y263942D01*
X95553Y263844D01*
X95655Y263728D01*
X95693Y263679D01*
X95720Y263654D01*
X95760Y263610D01*
X96124Y263245D01*
X96263Y263129D01*
X96358Y263042D01*
X96389Y263022D01*
X96448Y262972D01*
X96459Y262965D01*
X96469Y262956D01*
X96653Y262851D01*
X96694Y262827D01*
X96738Y262800D01*
X96750Y262795D01*
X96837Y262744D01*
X96849Y262740D01*
X96860Y262733D01*
X97060Y262662D01*
X97259Y262589D01*
X97272Y262587D01*
X97285Y262582D01*
X97495Y262547D01*
X97703Y262511D01*
X97716Y262511D01*
X97729Y262509D01*
X97943Y262512D01*
X98153Y262512D01*
X98166Y262515D01*
X98179Y262515D01*
X98373Y262552D01*
X98400Y262555D01*
X98431Y262563D01*
X98596Y262593D01*
X98611Y262598D01*
X98621Y262600D01*
X98658Y262615D01*
X98806Y262665D01*
X98835Y262673D01*
X98850Y262681D01*
X98891Y262695D01*
X99137Y262797D01*
X131563Y262797D01*
X133804Y261869D01*
X135782Y259890D01*
X135908Y259785D01*
X136029Y259673D01*
X136080Y259641D01*
X136127Y259602D01*
X136270Y259520D01*
X136408Y259432D01*
X136465Y259408D01*
X136518Y259378D01*
X136673Y259323D01*
X136825Y259261D01*
X136885Y259248D01*
X136942Y259227D01*
X137105Y259201D01*
X137265Y259166D01*
X137342Y259161D01*
X137386Y259154D01*
X137448Y259155D01*
X137577Y259147D01*
X142493Y259147D01*
X142656Y259161D01*
X142821Y259168D01*
X142880Y259181D01*
X142941Y259187D01*
X143100Y259230D01*
X143260Y259266D01*
X143317Y259289D01*
X143375Y259305D01*
X143524Y259376D01*
X143676Y259439D01*
X143727Y259472D01*
X143782Y259499D01*
X143916Y259594D01*
X144054Y259684D01*
X144112Y259735D01*
X144148Y259761D01*
X144191Y259804D01*
X144288Y259890D01*
X180950Y296552D01*
X185524Y298447D01*
X240476Y298447D01*
X245050Y296552D01*
X253412Y288190D01*
X253538Y288085D01*
X253659Y287973D01*
X253710Y287941D01*
X253757Y287902D01*
X253900Y287820D01*
X254039Y287732D01*
X254095Y287708D01*
X254148Y287678D01*
X254303Y287623D01*
X254455Y287561D01*
X254515Y287548D01*
X254572Y287527D01*
X254735Y287501D01*
X254896Y287466D01*
X254972Y287461D01*
X255017Y287454D01*
X255078Y287455D01*
X255207Y287447D01*
X267793Y287447D01*
X267956Y287461D01*
X268121Y287468D01*
X268180Y287481D01*
X268241Y287487D01*
X268400Y287530D01*
X268560Y287566D01*
X268617Y287589D01*
X268675Y287605D01*
X268824Y287676D01*
X268976Y287739D01*
X269027Y287772D01*
X269082Y287799D01*
X269216Y287894D01*
X269354Y287984D01*
X269412Y288035D01*
X269448Y288061D01*
X269491Y288104D01*
X269588Y288190D01*
X271569Y290171D01*
X271675Y290298D01*
X271786Y290418D01*
X271819Y290470D01*
X271858Y290517D01*
X271939Y290659D01*
X272028Y290798D01*
X272051Y290855D01*
X272081Y290908D01*
X272136Y291063D01*
X272199Y291215D01*
X272212Y291274D01*
X272232Y291332D01*
X272259Y291494D01*
X272293Y291655D01*
X272298Y291732D01*
X272306Y291776D01*
X272305Y291837D01*
X272313Y291967D01*
X272313Y308417D01*
X273850Y309954D01*
X273851Y309955D01*
X278066Y314170D01*
X279604Y315708D01*
X289915Y315708D01*
X291453Y314170D01*
X295668Y309955D01*
X295668Y309954D01*
X297206Y308417D01*
X297206Y289562D01*
X297217Y289445D01*
X297217Y289328D01*
X297236Y289222D01*
X297246Y289113D01*
X297277Y289000D01*
X297298Y288885D01*
X297348Y288739D01*
X297365Y288679D01*
X297380Y288646D01*
X297399Y288590D01*
X297447Y288476D01*
X297447Y283524D01*
X295552Y278950D01*
X281050Y264448D01*
X276476Y262553D01*
X246524Y262553D01*
X241950Y264448D01*
X233588Y272810D01*
X233462Y272915D01*
X233341Y273027D01*
X233290Y273059D01*
X233243Y273098D01*
X233100Y273180D01*
X232961Y273268D01*
X232905Y273292D01*
X232852Y273322D01*
X232697Y273377D01*
X232545Y273439D01*
X232485Y273452D01*
X232428Y273473D01*
X232265Y273499D01*
X232104Y273534D01*
X232028Y273539D01*
X231983Y273546D01*
X231922Y273545D01*
X231793Y273553D01*
X194207Y273553D01*
X194044Y273539D01*
X193879Y273532D01*
X193820Y273519D01*
X193759Y273513D01*
X193600Y273470D01*
X193440Y273434D01*
X193383Y273411D01*
X193325Y273395D01*
X193176Y273324D01*
X193024Y273261D01*
X192973Y273228D01*
X192918Y273201D01*
X192784Y273106D01*
X192646Y273016D01*
X192588Y272965D01*
X192552Y272939D01*
X192509Y272896D01*
X192412Y272810D01*
X184688Y265086D01*
X184604Y264986D01*
X184514Y264893D01*
X184460Y264813D01*
X184399Y264740D01*
X184334Y264627D01*
X184262Y264520D01*
X184223Y264432D01*
X184176Y264349D01*
X184132Y264227D01*
X184079Y264108D01*
X184057Y264015D01*
X184025Y263925D01*
X184004Y263797D01*
X183973Y263670D01*
X183967Y263575D01*
X183951Y263481D01*
X183953Y263351D01*
X183945Y263221D01*
X183956Y263126D01*
X183957Y263030D01*
X183982Y262903D01*
X183997Y262774D01*
X184025Y262682D01*
X184043Y262588D01*
X184090Y262467D01*
X184127Y262343D01*
X184171Y262258D01*
X184205Y262168D01*
X184273Y262057D01*
X184332Y261941D01*
X184389Y261865D01*
X184439Y261784D01*
X184525Y261686D01*
X184604Y261583D01*
X184674Y261518D01*
X184737Y261446D01*
X184839Y261366D01*
X184935Y261277D01*
X185016Y261226D01*
X185090Y261167D01*
X185205Y261106D01*
X185315Y261036D01*
X185403Y260999D01*
X185487Y260954D01*
X185611Y260914D01*
X185731Y260865D01*
X185825Y260845D01*
X185916Y260815D01*
X186044Y260797D01*
X186171Y260770D01*
X186301Y260762D01*
X186362Y260754D01*
X186406Y260755D01*
X186483Y260751D01*
X200130Y260751D01*
X204798Y258817D01*
X208371Y255244D01*
X210305Y250576D01*
X210305Y245524D01*
X208371Y240856D01*
X204798Y237283D01*
X200130Y235349D01*
X181870Y235349D01*
X177202Y237283D01*
X173629Y240856D01*
X171695Y245524D01*
X171695Y245963D01*
X171684Y246092D01*
X171682Y246222D01*
X171664Y246316D01*
X171655Y246411D01*
X171621Y246537D01*
X171596Y246664D01*
X171562Y246753D01*
X171537Y246846D01*
X171481Y246963D01*
X171434Y247084D01*
X171384Y247166D01*
X171343Y247252D01*
X171268Y247358D01*
X171200Y247469D01*
X171137Y247541D01*
X171081Y247618D01*
X170988Y247709D01*
X170902Y247806D01*
X170827Y247865D01*
X170759Y247932D01*
X170651Y248005D01*
X170549Y248086D01*
X170465Y248131D01*
X170386Y248184D01*
X170267Y248237D01*
X170152Y248298D01*
X170061Y248328D01*
X169974Y248367D01*
X169847Y248397D01*
X169724Y248438D01*
X169629Y248451D01*
X169536Y248473D01*
X169407Y248481D01*
X169278Y248499D01*
X169182Y248495D01*
X169087Y248501D01*
X168958Y248486D01*
X168828Y248481D01*
X168735Y248460D01*
X168640Y248449D01*
X168515Y248411D01*
X168388Y248383D01*
X168300Y248346D01*
X168209Y248319D01*
X168093Y248260D01*
X167973Y248209D01*
X167892Y248157D01*
X167807Y248114D01*
X167704Y248036D01*
X167595Y247965D01*
X167497Y247879D01*
X167449Y247842D01*
X167418Y247809D01*
X167360Y247758D01*
X155750Y236148D01*
X151176Y234253D01*
X137577Y234253D01*
X137413Y234239D01*
X137249Y234232D01*
X137189Y234219D01*
X137129Y234213D01*
X136970Y234170D01*
X136809Y234134D01*
X136753Y234111D01*
X136694Y234095D01*
X136546Y234024D01*
X136394Y233961D01*
X136343Y233928D01*
X136288Y233901D01*
X136154Y233806D01*
X136016Y233716D01*
X135958Y233665D01*
X135922Y233639D01*
X135879Y233596D01*
X135782Y233510D01*
X133804Y231531D01*
X131563Y230603D01*
X99137Y230603D01*
X96896Y231531D01*
X95181Y233246D01*
X94253Y235487D01*
X94253Y235682D01*
X94234Y235893D01*
X94218Y236104D01*
X94215Y236117D01*
X94213Y236130D01*
X94158Y236334D01*
X94104Y236540D01*
X94098Y236552D01*
X94095Y236565D01*
X94005Y236754D01*
X93915Y236948D01*
X93907Y236959D01*
X93901Y236971D01*
X93778Y237143D01*
X93656Y237317D01*
X93647Y237326D01*
X93639Y237337D01*
X93487Y237486D01*
X93337Y237635D01*
X93326Y237642D01*
X93317Y237651D01*
X93141Y237770D01*
X92967Y237890D01*
X92952Y237897D01*
X92944Y237903D01*
X92908Y237919D01*
X92686Y238028D01*
X92544Y238086D01*
X81390Y249240D01*
X81300Y249315D01*
X81218Y249398D01*
X81128Y249459D01*
X81045Y249529D01*
X80943Y249587D01*
X80847Y249654D01*
X80709Y249721D01*
X80654Y249753D01*
X80620Y249765D01*
X80566Y249791D01*
X78696Y250565D01*
X75565Y253696D01*
X74628Y255960D01*
X74590Y256033D01*
X74560Y256110D01*
X74486Y256232D01*
X74419Y256359D01*
X74369Y256424D01*
X74326Y256495D01*
X74231Y256602D01*
X74144Y256715D01*
X74082Y256770D01*
X74028Y256832D01*
X73916Y256921D01*
X73809Y257017D01*
X73739Y257060D01*
X73675Y257111D01*
X73549Y257179D01*
X73427Y257255D01*
X73350Y257285D01*
X73278Y257324D01*
X73142Y257368D01*
X73009Y257421D01*
X72928Y257438D01*
X72850Y257463D01*
X72708Y257483D01*
X72568Y257512D01*
X72485Y257513D01*
X72404Y257525D01*
X72260Y257519D01*
X72117Y257522D01*
X72036Y257510D01*
X71954Y257506D01*
X71814Y257475D01*
X71672Y257453D01*
X71594Y257427D01*
X71514Y257409D01*
X71382Y257354D01*
X71247Y257307D01*
X71175Y257267D01*
X71099Y257235D01*
X70978Y257157D01*
X70853Y257088D01*
X70790Y257036D01*
X70720Y256991D01*
X70535Y256827D01*
X70505Y256802D01*
X70498Y256794D01*
X70486Y256784D01*
X63690Y249988D01*
X63585Y249862D01*
X63473Y249741D01*
X63441Y249690D01*
X63402Y249643D01*
X63320Y249500D01*
X63232Y249361D01*
X63208Y249305D01*
X63178Y249252D01*
X63123Y249097D01*
X63061Y248945D01*
X63048Y248885D01*
X63027Y248828D01*
X63001Y248665D01*
X62966Y248505D01*
X62961Y248428D01*
X62954Y248383D01*
X62955Y248322D01*
X62947Y248193D01*
X62947Y235487D01*
X62019Y233246D01*
X60304Y231531D01*
X58063Y230603D01*
X25637Y230603D01*
X23396Y231531D01*
X21681Y233246D01*
X20753Y235487D01*
X20753Y257913D01*
X21681Y260154D01*
X23396Y261869D01*
X25637Y262797D01*
X40243Y262797D01*
X40406Y262811D01*
X40571Y262818D01*
X40630Y262831D01*
X40691Y262837D01*
X40850Y262880D01*
X41010Y262916D01*
X41067Y262939D01*
X41125Y262955D01*
X41274Y263026D01*
X41426Y263089D01*
X41477Y263122D01*
X41532Y263149D01*
X41666Y263244D01*
X41804Y263334D01*
X41862Y263385D01*
X41898Y263411D01*
X41941Y263454D01*
X42038Y263540D01*
X72803Y294306D01*
X72887Y294405D01*
X72977Y294499D01*
X73031Y294578D01*
X73092Y294651D01*
X73157Y294764D01*
X73230Y294872D01*
X73268Y294959D01*
X73316Y295042D01*
X73359Y295164D01*
X73412Y295283D01*
X73434Y295376D01*
X73466Y295466D01*
X73488Y295595D01*
X73518Y295721D01*
X73524Y295816D01*
X73540Y295910D01*
X73538Y296041D01*
X73546Y296170D01*
X73535Y296265D01*
X73534Y296361D01*
X73509Y296488D01*
X73494Y296618D01*
X73466Y296709D01*
X73448Y296803D01*
X73401Y296924D01*
X73364Y297049D01*
X73320Y297134D01*
X73286Y297223D01*
X73218Y297334D01*
X73159Y297450D01*
X73102Y297526D01*
X73052Y297608D01*
X72966Y297705D01*
X72887Y297809D01*
X72817Y297873D01*
X72754Y297945D01*
X72652Y298025D01*
X72556Y298114D01*
X72475Y298165D01*
X72401Y298224D01*
X72286Y298286D01*
X72176Y298356D01*
X72088Y298392D01*
X72004Y298437D01*
X71880Y298477D01*
X71760Y298527D01*
X71666Y298547D01*
X71576Y298576D01*
X71447Y298594D01*
X71320Y298621D01*
X71190Y298629D01*
X71130Y298638D01*
X71085Y298636D01*
X71008Y298640D01*
X34688Y298640D01*
X32447Y299569D01*
X30732Y301284D01*
X29804Y303524D01*
X29804Y320950D01*
X30732Y323191D01*
X32447Y324906D01*
X34688Y325834D01*
X71114Y325834D01*
X73423Y324877D01*
X73535Y324842D01*
X73643Y324798D01*
X73749Y324775D01*
X73853Y324742D01*
X73969Y324728D01*
X74083Y324703D01*
X74237Y324694D01*
X74300Y324686D01*
X74336Y324688D01*
X74395Y324684D01*
X83339Y324684D01*
X87913Y322789D01*
X92102Y318600D01*
X92192Y318525D01*
X92275Y318443D01*
X92364Y318381D01*
X92447Y318311D01*
X92549Y318253D01*
X92645Y318187D01*
X92784Y318119D01*
X92838Y318088D01*
X92872Y318076D01*
X92926Y318050D01*
X93610Y317766D01*
X93689Y317742D01*
X93764Y317708D01*
X93903Y317674D01*
X94040Y317632D01*
X94122Y317621D01*
X94202Y317602D01*
X94344Y317593D01*
X94487Y317575D01*
X94569Y317579D01*
X94651Y317574D01*
X94793Y317591D01*
X94936Y317598D01*
X95017Y317617D01*
X95098Y317626D01*
X95235Y317668D01*
X95375Y317700D01*
X95450Y317733D01*
X95529Y317756D01*
X95657Y317821D01*
X95788Y317878D01*
X95857Y317923D01*
X95931Y317961D01*
X96045Y318047D01*
X96164Y318126D01*
X96224Y318183D01*
X96289Y318233D01*
X96386Y318338D01*
X96490Y318437D01*
X96539Y318503D01*
X96595Y318564D01*
X96672Y318685D01*
X96756Y318800D01*
X96792Y318874D01*
X96836Y318944D01*
X96891Y319076D01*
X96954Y319205D01*
X96976Y319284D01*
X97007Y319360D01*
X97037Y319500D01*
X97077Y319638D01*
X97085Y319720D01*
X97102Y319800D01*
X97117Y320046D01*
X97121Y320086D01*
X97120Y320097D01*
X97121Y320112D01*
X97121Y323997D01*
X98410Y325286D01*
X98515Y325412D01*
X98627Y325533D01*
X98659Y325584D01*
X98698Y325631D01*
X98780Y325774D01*
X98868Y325912D01*
X98892Y325969D01*
X98922Y326022D01*
X98977Y326177D01*
X99039Y326329D01*
X99052Y326389D01*
X99073Y326446D01*
X99099Y326608D01*
X99134Y326769D01*
X99139Y326846D01*
X99146Y326890D01*
X99145Y326951D01*
X99153Y327081D01*
X99153Y391279D01*
X99139Y391443D01*
X99132Y391608D01*
X99119Y391667D01*
X99113Y391728D01*
X99070Y391887D01*
X99034Y392047D01*
X99011Y392103D01*
X98995Y392162D01*
X98924Y392310D01*
X98861Y392463D01*
X98828Y392514D01*
X98801Y392569D01*
X98706Y392702D01*
X98616Y392841D01*
X98565Y392899D01*
X98539Y392935D01*
X98496Y392977D01*
X98410Y393075D01*
X98283Y393202D01*
X96349Y397870D01*
X96349Y416130D01*
X98283Y420798D01*
X101856Y424371D01*
X106524Y426305D01*
X109701Y426305D01*
X109864Y426319D01*
X110029Y426326D01*
X110088Y426339D01*
X110149Y426345D01*
X110308Y426388D01*
X110468Y426424D01*
X110525Y426447D01*
X110583Y426463D01*
X110732Y426534D01*
X110884Y426597D01*
X110935Y426630D01*
X110990Y426657D01*
X111124Y426752D01*
X111262Y426842D01*
X111320Y426893D01*
X111356Y426919D01*
X111399Y426962D01*
X111496Y427048D01*
X118741Y434293D01*
X118741Y434294D01*
X122600Y438152D01*
X127174Y440047D01*
X150019Y440047D01*
X150183Y440061D01*
X150347Y440068D01*
X150406Y440081D01*
X150467Y440087D01*
X150626Y440130D01*
X150787Y440166D01*
X150843Y440189D01*
X150902Y440205D01*
X151050Y440276D01*
X151202Y440339D01*
X151254Y440372D01*
X151308Y440399D01*
X151442Y440494D01*
X151580Y440583D01*
X151638Y440635D01*
X151675Y440661D01*
X151717Y440704D01*
X151814Y440790D01*
X152386Y441362D01*
X152468Y441460D01*
X152557Y441551D01*
X152612Y441632D01*
X152675Y441708D01*
X152738Y441818D01*
X152810Y441923D01*
X152850Y442013D01*
X152899Y442099D01*
X152941Y442218D01*
X152993Y442335D01*
X153017Y442430D01*
X153049Y442523D01*
X153070Y442648D01*
X153101Y442772D01*
X153107Y442870D01*
X153123Y442967D01*
X153121Y443094D01*
X153129Y443221D01*
X153118Y443319D01*
X153117Y443417D01*
X153093Y443542D01*
X153078Y443668D01*
X153050Y443763D01*
X153031Y443859D01*
X152986Y443978D01*
X152949Y444100D01*
X152905Y444188D01*
X152869Y444279D01*
X152803Y444388D01*
X152746Y444501D01*
X152686Y444580D01*
X152635Y444664D01*
X152551Y444760D01*
X152474Y444861D01*
X152402Y444928D01*
X152337Y445002D01*
X152237Y445080D01*
X152144Y445167D01*
X152061Y445220D01*
X151984Y445281D01*
X151872Y445341D01*
X151765Y445410D01*
X151674Y445447D01*
X151587Y445494D01*
X151466Y445533D01*
X151349Y445581D01*
X151252Y445602D01*
X151159Y445633D01*
X151033Y445650D01*
X150909Y445677D01*
X150774Y445686D01*
X150713Y445694D01*
X150670Y445692D01*
X150597Y445697D01*
X16168Y446010D01*
X16124Y446006D01*
X16080Y446008D01*
X15900Y445986D01*
X15719Y445971D01*
X15677Y445959D01*
X15633Y445954D01*
X15460Y445901D01*
X15284Y445853D01*
X15245Y445835D01*
X15203Y445822D01*
X15042Y445738D01*
X14877Y445661D01*
X14842Y445635D01*
X14803Y445615D01*
X14659Y445505D01*
X14511Y445399D01*
X14480Y445368D01*
X14445Y445342D01*
X14323Y445207D01*
X14196Y445078D01*
X14171Y445041D01*
X14142Y445009D01*
X14045Y444855D01*
X13943Y444705D01*
X13925Y444665D01*
X13902Y444628D01*
X13834Y444460D01*
X13760Y444294D01*
X13749Y444251D01*
X13733Y444211D01*
X13695Y444033D01*
X13652Y443857D01*
X13649Y443813D01*
X13640Y443770D01*
X13623Y443458D01*
X15047Y149098D01*
X15059Y148974D01*
X15060Y148850D01*
X15080Y148750D01*
X15089Y148649D01*
X15122Y148530D01*
X15146Y148408D01*
X15182Y148313D01*
X15210Y148215D01*
X15263Y148104D01*
X15308Y147988D01*
X15361Y147901D01*
X15405Y147810D01*
X15478Y147709D01*
X15542Y147604D01*
X15609Y147527D01*
X15669Y147445D01*
X15758Y147359D01*
X15840Y147266D01*
X15920Y147203D01*
X15993Y147133D01*
X16096Y147064D01*
X16193Y146987D01*
X16283Y146939D01*
X16367Y146882D01*
X16481Y146833D01*
X16590Y146774D01*
X16687Y146743D01*
X16780Y146702D01*
X16901Y146673D01*
X17018Y146635D01*
X17119Y146621D01*
X17218Y146597D01*
X17342Y146590D01*
X17464Y146574D01*
X17566Y146578D01*
X17668Y146572D01*
X17790Y146587D01*
X17914Y146592D01*
X18014Y146614D01*
X18115Y146626D01*
X18233Y146663D01*
X18354Y146689D01*
X18448Y146729D01*
X18545Y146759D01*
X18655Y146815D01*
X18769Y146863D01*
X18855Y146918D01*
X18945Y146965D01*
X19043Y147040D01*
X19148Y147107D01*
X19253Y147201D01*
X19303Y147239D01*
X19330Y147269D01*
X19382Y147314D01*
X19890Y147823D01*
X22820Y150753D01*
X26181Y152145D01*
X37773Y152145D01*
X37808Y152148D01*
X37843Y152146D01*
X38032Y152168D01*
X38222Y152185D01*
X38255Y152194D01*
X38290Y152198D01*
X38473Y152253D01*
X38656Y152303D01*
X38687Y152318D01*
X38721Y152328D01*
X38891Y152415D01*
X39063Y152497D01*
X39091Y152517D01*
X39122Y152532D01*
X39274Y152648D01*
X39429Y152759D01*
X39453Y152784D01*
X39481Y152804D01*
X39610Y152944D01*
X39743Y153081D01*
X39762Y153110D01*
X39786Y153136D01*
X39888Y153297D01*
X39995Y153454D01*
X40009Y153486D01*
X40028Y153515D01*
X40100Y153692D01*
X40177Y153866D01*
X40186Y153900D01*
X40199Y153932D01*
X40239Y154119D01*
X40284Y154304D01*
X40286Y154338D01*
X40293Y154372D01*
X40313Y154684D01*
X40313Y165217D01*
X47604Y172508D01*
X57915Y172508D01*
X65900Y164523D01*
X65926Y164501D01*
X65949Y164475D01*
X66098Y164357D01*
X66245Y164234D01*
X66275Y164217D01*
X66302Y164196D01*
X66470Y164106D01*
X66636Y164011D01*
X66669Y163999D01*
X66699Y163983D01*
X66880Y163924D01*
X67060Y163860D01*
X67094Y163854D01*
X67127Y163844D01*
X67316Y163818D01*
X67504Y163787D01*
X67539Y163787D01*
X67573Y163782D01*
X67764Y163790D01*
X67955Y163793D01*
X67989Y163799D01*
X68023Y163801D01*
X68209Y163842D01*
X68397Y163878D01*
X68429Y163891D01*
X68463Y163898D01*
X68639Y163972D01*
X68817Y164041D01*
X68846Y164059D01*
X68878Y164072D01*
X69038Y164175D01*
X69201Y164275D01*
X69227Y164297D01*
X69256Y164316D01*
X69491Y164523D01*
X74790Y169823D01*
X77720Y172753D01*
X81081Y174145D01*
X128819Y174145D01*
X132180Y172753D01*
X136802Y168131D01*
X136828Y168109D01*
X136851Y168083D01*
X137001Y167965D01*
X137147Y167842D01*
X137177Y167825D01*
X137204Y167803D01*
X137372Y167713D01*
X137538Y167619D01*
X137571Y167607D01*
X137601Y167591D01*
X137782Y167532D01*
X137962Y167468D01*
X137996Y167462D01*
X138029Y167452D01*
X138218Y167426D01*
X138406Y167394D01*
X138441Y167395D01*
X138475Y167390D01*
X138666Y167398D01*
X138857Y167401D01*
X138891Y167407D01*
X138925Y167409D01*
X139111Y167450D01*
X139299Y167486D01*
X139331Y167499D01*
X139365Y167506D01*
X139541Y167580D01*
X139719Y167648D01*
X139748Y167666D01*
X139780Y167680D01*
X139941Y167783D01*
X140103Y167882D01*
X140129Y167905D01*
X140158Y167924D01*
X140393Y168131D01*
X140696Y168435D01*
X144786Y170129D01*
X148316Y170129D01*
X148351Y170132D01*
X148385Y170130D01*
X148574Y170152D01*
X148765Y170169D01*
X148798Y170178D01*
X148832Y170182D01*
X149015Y170237D01*
X149199Y170287D01*
X149230Y170302D01*
X149263Y170312D01*
X149434Y170399D01*
X149606Y170481D01*
X149634Y170501D01*
X149665Y170516D01*
X149817Y170632D01*
X149972Y170743D01*
X149996Y170768D01*
X150023Y170788D01*
X150152Y170928D01*
X150286Y171065D01*
X150305Y171094D01*
X150329Y171120D01*
X150431Y171281D01*
X150538Y171438D01*
X150552Y171470D01*
X150570Y171499D01*
X150643Y171676D01*
X150720Y171850D01*
X150728Y171884D01*
X150741Y171916D01*
X150781Y172103D01*
X150827Y172288D01*
X150829Y172322D01*
X150836Y172356D01*
X150855Y172668D01*
X150855Y173819D01*
X152247Y177180D01*
X173930Y198863D01*
X173953Y198890D01*
X173979Y198913D01*
X174097Y199062D01*
X174219Y199208D01*
X174237Y199239D01*
X174258Y199266D01*
X174348Y199434D01*
X174443Y199599D01*
X174454Y199632D01*
X174471Y199663D01*
X174530Y199844D01*
X174593Y200024D01*
X174599Y200058D01*
X174610Y200091D01*
X174636Y200279D01*
X174667Y200468D01*
X174667Y200503D01*
X174671Y200537D01*
X174663Y200727D01*
X174661Y200918D01*
X174654Y200952D01*
X174653Y200987D01*
X174612Y201172D01*
X174575Y201360D01*
X174563Y201392D01*
X174555Y201426D01*
X174482Y201602D01*
X174413Y201780D01*
X174395Y201810D01*
X174382Y201842D01*
X174278Y202002D01*
X174179Y202165D01*
X174156Y202191D01*
X174137Y202220D01*
X173930Y202454D01*
X173629Y202756D01*
X171695Y207424D01*
X171695Y212476D01*
X173629Y217144D01*
X177202Y220717D01*
X181870Y222651D01*
X200130Y222651D01*
X204798Y220717D01*
X206103Y219412D01*
X206229Y219307D01*
X206350Y219195D01*
X206402Y219162D01*
X206449Y219123D01*
X206591Y219042D01*
X206730Y218953D01*
X206787Y218930D01*
X206840Y218900D01*
X206995Y218845D01*
X207147Y218782D01*
X207206Y218770D01*
X207264Y218749D01*
X207426Y218722D01*
X207587Y218688D01*
X207664Y218683D01*
X207708Y218676D01*
X207769Y218677D01*
X207899Y218669D01*
X229288Y218669D01*
X229452Y218683D01*
X229616Y218690D01*
X229676Y218703D01*
X229736Y218708D01*
X229895Y218752D01*
X230056Y218787D01*
X230112Y218811D01*
X230171Y218827D01*
X230319Y218897D01*
X230471Y218961D01*
X230523Y218994D01*
X230577Y219020D01*
X230711Y219116D01*
X230727Y219127D01*
X233088Y220105D01*
X245514Y220105D01*
X246829Y219560D01*
X246986Y219510D01*
X247141Y219454D01*
X247201Y219443D01*
X247259Y219425D01*
X247422Y219404D01*
X247584Y219376D01*
X247645Y219376D01*
X247706Y219368D01*
X247870Y219377D01*
X248034Y219377D01*
X248094Y219388D01*
X248155Y219391D01*
X248315Y219428D01*
X248477Y219458D01*
X248550Y219483D01*
X248594Y219493D01*
X248650Y219517D01*
X248773Y219560D01*
X250088Y220105D01*
X262514Y220105D01*
X264755Y219176D01*
X265090Y218841D01*
X265216Y218736D01*
X265337Y218624D01*
X265388Y218592D01*
X265435Y218552D01*
X265578Y218471D01*
X265716Y218383D01*
X265773Y218359D01*
X265826Y218329D01*
X265981Y218274D01*
X266133Y218212D01*
X266193Y218199D01*
X266250Y218178D01*
X266412Y218151D01*
X266573Y218117D01*
X266650Y218112D01*
X266694Y218105D01*
X266755Y218106D01*
X266885Y218098D01*
X283672Y218098D01*
X286257Y217027D01*
X286369Y216992D01*
X286477Y216948D01*
X286583Y216925D01*
X286687Y216892D01*
X286803Y216877D01*
X286917Y216853D01*
X287071Y216843D01*
X287134Y216835D01*
X287170Y216837D01*
X287229Y216834D01*
X288864Y216834D01*
X291105Y215905D01*
X292820Y214190D01*
X293748Y211950D01*
X293748Y203924D01*
X292820Y201683D01*
X291105Y199968D01*
X288864Y199040D01*
X287229Y199040D01*
X287112Y199030D01*
X286996Y199029D01*
X286889Y199010D01*
X286780Y199000D01*
X286668Y198970D01*
X286553Y198949D01*
X286407Y198898D01*
X286346Y198882D01*
X286335Y198876D01*
X286330Y198875D01*
X286306Y198864D01*
X286257Y198847D01*
X283672Y197776D01*
X267264Y197776D01*
X267230Y197773D01*
X267195Y197775D01*
X267006Y197753D01*
X266816Y197736D01*
X266782Y197727D01*
X266748Y197723D01*
X266565Y197668D01*
X266381Y197618D01*
X266350Y197603D01*
X266317Y197593D01*
X266146Y197506D01*
X265975Y197424D01*
X265947Y197404D01*
X265916Y197389D01*
X265764Y197273D01*
X265609Y197162D01*
X265585Y197137D01*
X265557Y197117D01*
X265428Y196976D01*
X265295Y196840D01*
X265275Y196811D01*
X265252Y196785D01*
X265149Y196624D01*
X265043Y196466D01*
X265029Y196435D01*
X265010Y196406D01*
X264938Y196229D01*
X264860Y196055D01*
X264852Y196021D01*
X264839Y195989D01*
X264799Y195802D01*
X264754Y195617D01*
X264752Y195583D01*
X264744Y195549D01*
X264725Y195237D01*
X264728Y195202D01*
X264726Y195168D01*
X264732Y195118D01*
X264748Y194978D01*
X264765Y194788D01*
X264774Y194755D01*
X264778Y194721D01*
X264833Y194538D01*
X264883Y194354D01*
X264898Y194323D01*
X264908Y194290D01*
X264995Y194119D01*
X265077Y193947D01*
X265097Y193919D01*
X265113Y193888D01*
X265228Y193736D01*
X265339Y193581D01*
X265364Y193557D01*
X265385Y193530D01*
X265525Y193401D01*
X265662Y193267D01*
X265690Y193248D01*
X265716Y193224D01*
X265877Y193122D01*
X266035Y193015D01*
X266066Y193001D01*
X266096Y192983D01*
X266272Y192910D01*
X266447Y192833D01*
X266480Y192825D01*
X266512Y192812D01*
X266699Y192771D01*
X266884Y192726D01*
X266918Y192724D01*
X266952Y192717D01*
X267264Y192698D01*
X283672Y192698D01*
X286257Y191627D01*
X286369Y191592D01*
X286477Y191548D01*
X286583Y191525D01*
X286687Y191492D01*
X286803Y191477D01*
X286917Y191453D01*
X287071Y191443D01*
X287134Y191435D01*
X287170Y191437D01*
X287229Y191434D01*
X288864Y191434D01*
X291105Y190505D01*
X292820Y188790D01*
X293748Y186550D01*
X293748Y178524D01*
X292820Y176283D01*
X291105Y174568D01*
X288864Y173640D01*
X287229Y173640D01*
X287112Y173630D01*
X286996Y173629D01*
X286889Y173610D01*
X286780Y173600D01*
X286668Y173570D01*
X286553Y173549D01*
X286407Y173498D01*
X286346Y173482D01*
X286314Y173466D01*
X286257Y173447D01*
X283672Y172376D01*
X268021Y172376D01*
X267857Y172362D01*
X267693Y172355D01*
X267633Y172342D01*
X267572Y172336D01*
X267413Y172293D01*
X267253Y172257D01*
X267197Y172234D01*
X267138Y172218D01*
X266990Y172147D01*
X266838Y172084D01*
X266786Y172050D01*
X266731Y172024D01*
X266598Y171929D01*
X266459Y171839D01*
X266402Y171788D01*
X266365Y171762D01*
X266326Y171722D01*
X266323Y171719D01*
X266225Y171632D01*
X266142Y171533D01*
X266051Y171440D01*
X265998Y171360D01*
X265936Y171287D01*
X265872Y171174D01*
X265799Y171066D01*
X265760Y170979D01*
X265713Y170896D01*
X265669Y170774D01*
X265617Y170655D01*
X265594Y170562D01*
X265562Y170472D01*
X265541Y170343D01*
X265510Y170217D01*
X265504Y170122D01*
X265489Y170028D01*
X265490Y169897D01*
X265482Y169768D01*
X265493Y169673D01*
X265495Y169577D01*
X265519Y169450D01*
X265534Y169321D01*
X265562Y169229D01*
X265580Y169135D01*
X265627Y169014D01*
X265665Y168890D01*
X265708Y168804D01*
X265743Y168715D01*
X265810Y168604D01*
X265869Y168488D01*
X265927Y168412D01*
X265976Y168331D01*
X266063Y168233D01*
X266141Y168130D01*
X266211Y168065D01*
X266275Y167993D01*
X266376Y167913D01*
X266472Y167824D01*
X266553Y167773D01*
X266628Y167714D01*
X266742Y167653D01*
X266852Y167583D01*
X266940Y167546D01*
X267025Y167501D01*
X267148Y167461D01*
X267269Y167412D01*
X267362Y167391D01*
X267453Y167362D01*
X267582Y167344D01*
X267709Y167317D01*
X267839Y167309D01*
X267899Y167301D01*
X267944Y167302D01*
X268021Y167298D01*
X283672Y167298D01*
X286257Y166227D01*
X286369Y166192D01*
X286477Y166148D01*
X286583Y166125D01*
X286687Y166092D01*
X286803Y166077D01*
X286917Y166053D01*
X287071Y166043D01*
X287134Y166035D01*
X287170Y166037D01*
X287229Y166034D01*
X288864Y166034D01*
X291105Y165105D01*
X292820Y163390D01*
X293748Y161150D01*
X293748Y153124D01*
X292820Y150883D01*
X291105Y149168D01*
X288864Y148240D01*
X287229Y148240D01*
X287112Y148230D01*
X286996Y148229D01*
X286889Y148210D01*
X286780Y148200D01*
X286668Y148170D01*
X286553Y148149D01*
X286407Y148098D01*
X286346Y148082D01*
X286314Y148066D01*
X286257Y148047D01*
X283672Y146976D01*
X269522Y146976D01*
X269311Y146957D01*
X269100Y146941D01*
X269087Y146937D01*
X269074Y146936D01*
X268869Y146880D01*
X268664Y146827D01*
X268652Y146821D01*
X268639Y146818D01*
X268450Y146727D01*
X268256Y146638D01*
X268245Y146630D01*
X268233Y146624D01*
X268060Y146500D01*
X267887Y146379D01*
X267878Y146370D01*
X267867Y146362D01*
X267717Y146209D01*
X267569Y146060D01*
X267562Y146049D01*
X267553Y146040D01*
X267434Y145864D01*
X267313Y145689D01*
X267307Y145675D01*
X267301Y145666D01*
X267285Y145631D01*
X267176Y145409D01*
X266110Y142835D01*
X265223Y141948D01*
X265148Y141858D01*
X265066Y141775D01*
X265004Y141686D01*
X264934Y141602D01*
X264876Y141501D01*
X264810Y141405D01*
X264742Y141266D01*
X264711Y141211D01*
X264699Y141177D01*
X264673Y141124D01*
X263694Y138762D01*
X262181Y137249D01*
X262128Y137186D01*
X262069Y137129D01*
X261984Y137013D01*
X261893Y136903D01*
X261852Y136832D01*
X261803Y136765D01*
X261740Y136637D01*
X261669Y136513D01*
X261642Y136435D01*
X261605Y136361D01*
X261566Y136223D01*
X261518Y136088D01*
X261505Y136007D01*
X261482Y135928D01*
X261468Y135786D01*
X261445Y135644D01*
X261446Y135562D01*
X261438Y135480D01*
X261449Y135337D01*
X261451Y135194D01*
X261467Y135113D01*
X261473Y135031D01*
X261509Y134892D01*
X261537Y134752D01*
X261566Y134675D01*
X261587Y134595D01*
X261647Y134465D01*
X261699Y134332D01*
X261742Y134261D01*
X261776Y134187D01*
X261858Y134069D01*
X261933Y133947D01*
X261987Y133885D01*
X262035Y133818D01*
X262136Y133717D01*
X262231Y133610D01*
X262295Y133559D01*
X262354Y133500D01*
X262472Y133419D01*
X262584Y133330D01*
X262657Y133291D01*
X262724Y133244D01*
X262946Y133136D01*
X262981Y133118D01*
X262991Y133114D01*
X263005Y133107D01*
X263764Y132793D01*
X263782Y132778D01*
X263925Y132696D01*
X264064Y132608D01*
X264120Y132585D01*
X264173Y132555D01*
X264328Y132500D01*
X264480Y132437D01*
X264540Y132424D01*
X264597Y132404D01*
X264760Y132377D01*
X264920Y132342D01*
X264997Y132338D01*
X265041Y132330D01*
X265103Y132331D01*
X265232Y132323D01*
X266816Y132323D01*
X266980Y132338D01*
X267144Y132344D01*
X267204Y132358D01*
X267265Y132363D01*
X267423Y132406D01*
X267584Y132442D01*
X267640Y132466D01*
X267699Y132482D01*
X267847Y132552D01*
X267999Y132616D01*
X268051Y132649D01*
X268106Y132675D01*
X268239Y132770D01*
X268377Y132860D01*
X268435Y132911D01*
X268472Y132937D01*
X268514Y132981D01*
X268612Y133067D01*
X268811Y133266D01*
X268916Y133392D01*
X269028Y133513D01*
X269061Y133564D01*
X269100Y133611D01*
X269181Y133754D01*
X269270Y133893D01*
X269293Y133949D01*
X269323Y134002D01*
X269378Y134157D01*
X269441Y134309D01*
X269453Y134369D01*
X269474Y134426D01*
X269501Y134588D01*
X269535Y134750D01*
X269540Y134826D01*
X269547Y134871D01*
X269547Y134931D01*
X269555Y135061D01*
X269555Y135750D01*
X270483Y137990D01*
X272198Y139705D01*
X274439Y140634D01*
X276074Y140634D01*
X276190Y140644D01*
X276307Y140644D01*
X276414Y140664D01*
X276522Y140674D01*
X276635Y140704D01*
X276750Y140725D01*
X276896Y140776D01*
X276956Y140792D01*
X276989Y140808D01*
X277045Y140827D01*
X279630Y141898D01*
X283672Y141898D01*
X286257Y140827D01*
X286369Y140792D01*
X286477Y140748D01*
X286583Y140725D01*
X286687Y140692D01*
X286803Y140677D01*
X286917Y140653D01*
X287071Y140643D01*
X287134Y140635D01*
X287170Y140637D01*
X287229Y140634D01*
X288864Y140634D01*
X291105Y139705D01*
X292820Y137990D01*
X293748Y135750D01*
X293748Y127724D01*
X292820Y125483D01*
X291105Y123768D01*
X288864Y122840D01*
X288176Y122840D01*
X288012Y122826D01*
X287848Y122819D01*
X287788Y122806D01*
X287727Y122800D01*
X287568Y122757D01*
X287408Y122721D01*
X287352Y122698D01*
X287293Y122682D01*
X287144Y122611D01*
X286993Y122548D01*
X286941Y122515D01*
X286886Y122488D01*
X286753Y122393D01*
X286614Y122303D01*
X286557Y122252D01*
X286520Y122226D01*
X286478Y122183D01*
X286380Y122096D01*
X281048Y116764D01*
X277832Y113549D01*
X274098Y112002D01*
X272531Y112002D01*
X272449Y111994D01*
X272367Y111996D01*
X272226Y111974D01*
X272083Y111962D01*
X272003Y111940D01*
X271922Y111927D01*
X271787Y111881D01*
X271649Y111843D01*
X271574Y111808D01*
X271496Y111781D01*
X271371Y111711D01*
X271242Y111650D01*
X271175Y111602D01*
X271103Y111562D01*
X270992Y111471D01*
X270876Y111388D01*
X270818Y111329D01*
X270755Y111276D01*
X270662Y111168D01*
X270562Y111065D01*
X270516Y110997D01*
X270462Y110934D01*
X270390Y110811D01*
X270310Y110692D01*
X270276Y110617D01*
X270235Y110546D01*
X270185Y110411D01*
X270128Y110280D01*
X270108Y110200D01*
X270080Y110123D01*
X270055Y109982D01*
X270021Y109843D01*
X270016Y109761D01*
X270002Y109679D01*
X270002Y109536D01*
X269993Y109393D01*
X270003Y109311D01*
X270003Y109229D01*
X270029Y109088D01*
X270045Y108946D01*
X270069Y108867D01*
X270084Y108786D01*
X270164Y108553D01*
X270176Y108515D01*
X270180Y108505D01*
X270186Y108491D01*
X271129Y106214D01*
X271129Y101786D01*
X269338Y97463D01*
X269303Y97352D01*
X269259Y97244D01*
X269236Y97137D01*
X269203Y97034D01*
X269189Y96918D01*
X269164Y96803D01*
X269154Y96649D01*
X269147Y96587D01*
X269148Y96551D01*
X269145Y96491D01*
X269145Y91181D01*
X267753Y87820D01*
X262793Y82861D01*
X262740Y82797D01*
X262681Y82740D01*
X262596Y82625D01*
X262504Y82515D01*
X262463Y82444D01*
X262415Y82377D01*
X262352Y82248D01*
X262281Y82124D01*
X262253Y82047D01*
X262217Y81973D01*
X262178Y81835D01*
X262130Y81700D01*
X262117Y81619D01*
X262094Y81539D01*
X262080Y81397D01*
X262057Y81256D01*
X262058Y81173D01*
X262050Y81091D01*
X262061Y80949D01*
X262063Y80806D01*
X262078Y80725D01*
X262085Y80642D01*
X262121Y80504D01*
X262148Y80363D01*
X262178Y80287D01*
X262199Y80207D01*
X262259Y80077D01*
X262311Y79943D01*
X262353Y79873D01*
X262388Y79798D01*
X262470Y79681D01*
X262544Y79559D01*
X262599Y79497D01*
X262646Y79429D01*
X262748Y79329D01*
X262843Y79221D01*
X262907Y79170D01*
X262966Y79112D01*
X263083Y79031D01*
X263196Y78942D01*
X263268Y78903D01*
X263336Y78856D01*
X263557Y78748D01*
X263593Y78729D01*
X263603Y78726D01*
X263617Y78719D01*
X264304Y78435D01*
X267435Y75304D01*
X269129Y71214D01*
X269129Y66786D01*
X267435Y62696D01*
X264304Y59565D01*
X259981Y57775D01*
X259877Y57721D01*
X259769Y57676D01*
X259678Y57617D01*
X259582Y57566D01*
X259489Y57495D01*
X259391Y57431D01*
X259276Y57329D01*
X259226Y57291D01*
X259201Y57264D01*
X259157Y57224D01*
X253180Y51247D01*
X249819Y49855D01*
X242764Y49855D01*
X242682Y49848D01*
X242599Y49850D01*
X242458Y49828D01*
X242315Y49815D01*
X242236Y49794D01*
X242154Y49781D01*
X242019Y49735D01*
X241881Y49697D01*
X241807Y49661D01*
X241729Y49635D01*
X241603Y49565D01*
X241474Y49503D01*
X241407Y49456D01*
X241335Y49415D01*
X241225Y49325D01*
X241108Y49241D01*
X241051Y49182D01*
X240987Y49130D01*
X240894Y49021D01*
X240794Y48919D01*
X240748Y48850D01*
X240694Y48788D01*
X240622Y48664D01*
X240542Y48546D01*
X240509Y48470D01*
X240467Y48399D01*
X240418Y48265D01*
X240360Y48134D01*
X240340Y48054D01*
X240312Y47976D01*
X240287Y47835D01*
X240253Y47696D01*
X240248Y47614D01*
X240234Y47533D01*
X240234Y47390D01*
X240225Y47247D01*
X240235Y47165D01*
X240235Y47083D01*
X240261Y46942D01*
X240278Y46800D01*
X240301Y46721D01*
X240316Y46640D01*
X240396Y46407D01*
X240408Y46369D01*
X240413Y46359D01*
X240418Y46344D01*
X242129Y42214D01*
X242129Y37786D01*
X240435Y33696D01*
X237304Y30565D01*
X233214Y28871D01*
X228786Y28871D01*
X224463Y30662D01*
X224352Y30697D01*
X224244Y30741D01*
X224137Y30764D01*
X224034Y30797D01*
X223918Y30811D01*
X223803Y30836D01*
X223649Y30846D01*
X223587Y30853D01*
X223551Y30852D01*
X223491Y30855D01*
X181181Y30855D01*
X177820Y32247D01*
X162006Y48061D01*
X161906Y48145D01*
X161813Y48235D01*
X161734Y48289D01*
X161661Y48350D01*
X161548Y48415D01*
X161440Y48487D01*
X161353Y48526D01*
X161270Y48573D01*
X161148Y48617D01*
X161029Y48670D01*
X160936Y48692D01*
X160846Y48724D01*
X160717Y48745D01*
X160591Y48776D01*
X160496Y48782D01*
X160401Y48798D01*
X160271Y48796D01*
X160142Y48804D01*
X160047Y48793D01*
X159951Y48792D01*
X159824Y48767D01*
X159694Y48752D01*
X159603Y48724D01*
X159509Y48706D01*
X159388Y48659D01*
X159263Y48622D01*
X159178Y48578D01*
X159089Y48544D01*
X158978Y48476D01*
X158862Y48417D01*
X158786Y48360D01*
X158704Y48310D01*
X158607Y48224D01*
X158503Y48145D01*
X158439Y48075D01*
X158367Y48012D01*
X158286Y47910D01*
X158198Y47814D01*
X158147Y47733D01*
X158088Y47659D01*
X158026Y47544D01*
X157956Y47434D01*
X157920Y47346D01*
X157875Y47262D01*
X157835Y47138D01*
X157785Y47018D01*
X157765Y46924D01*
X157736Y46833D01*
X157718Y46705D01*
X157691Y46578D01*
X157683Y46448D01*
X157674Y46387D01*
X157676Y46343D01*
X157671Y46266D01*
X157671Y45479D01*
X157262Y44489D01*
X157213Y44333D01*
X157156Y44178D01*
X157145Y44118D01*
X157127Y44060D01*
X157106Y43897D01*
X157078Y43735D01*
X157078Y43674D01*
X157070Y43613D01*
X157079Y43449D01*
X157079Y43284D01*
X157090Y43224D01*
X157093Y43163D01*
X157130Y43004D01*
X157160Y42841D01*
X157185Y42768D01*
X157195Y42725D01*
X157219Y42669D01*
X157262Y42546D01*
X157897Y41013D01*
X157897Y28587D01*
X156969Y26346D01*
X156036Y25414D01*
X155961Y25324D01*
X155879Y25242D01*
X155817Y25152D01*
X155747Y25069D01*
X155689Y24967D01*
X155623Y24871D01*
X155555Y24733D01*
X155524Y24678D01*
X155512Y24644D01*
X155486Y24590D01*
X154753Y22820D01*
X147888Y15955D01*
X147805Y15856D01*
X147715Y15764D01*
X147661Y15684D01*
X147599Y15610D01*
X147535Y15498D01*
X147463Y15391D01*
X147423Y15303D01*
X147375Y15219D01*
X147332Y15097D01*
X147280Y14980D01*
X147257Y14886D01*
X147224Y14794D01*
X147203Y14667D01*
X147173Y14542D01*
X147167Y14446D01*
X147151Y14350D01*
X147153Y14221D01*
X147145Y14093D01*
X147156Y13997D01*
X147157Y13900D01*
X147182Y13773D01*
X147196Y13646D01*
X147224Y13553D01*
X147243Y13458D01*
X147289Y13338D01*
X147326Y13214D01*
X147370Y13128D01*
X147405Y13038D01*
X147472Y12928D01*
X147530Y12813D01*
X147589Y12736D01*
X147639Y12653D01*
X147724Y12557D01*
X147802Y12454D01*
X147873Y12388D01*
X147937Y12316D01*
X148038Y12236D01*
X148133Y12148D01*
X148214Y12096D01*
X148290Y12036D01*
X148404Y11975D01*
X148512Y11906D01*
X148602Y11869D01*
X148687Y11824D01*
X148810Y11784D01*
X148929Y11735D01*
X149023Y11714D01*
X149115Y11684D01*
X149243Y11667D01*
X149369Y11640D01*
X149500Y11631D01*
X149561Y11623D01*
X149605Y11625D01*
X149681Y11620D01*
X652966Y11129D01*
X652994Y11132D01*
G37*
G36*
X132199Y29348D02*
X132199Y29348D01*
X132233Y29346D01*
X132422Y29368D01*
X132613Y29385D01*
X132646Y29394D01*
X132680Y29398D01*
X132863Y29453D01*
X133047Y29503D01*
X133078Y29518D01*
X133111Y29528D01*
X133282Y29615D01*
X133454Y29697D01*
X133482Y29717D01*
X133513Y29732D01*
X133665Y29848D01*
X133820Y29959D01*
X133844Y29984D01*
X133871Y30004D01*
X134000Y30144D01*
X134134Y30281D01*
X134153Y30310D01*
X134177Y30336D01*
X134279Y30496D01*
X134386Y30654D01*
X134400Y30686D01*
X134418Y30715D01*
X134491Y30892D01*
X134568Y31066D01*
X134576Y31100D01*
X134589Y31132D01*
X134629Y31319D01*
X134675Y31504D01*
X134677Y31538D01*
X134684Y31572D01*
X134703Y31884D01*
X134703Y38056D01*
X134700Y38090D01*
X134702Y38125D01*
X134680Y38314D01*
X134663Y38504D01*
X134654Y38538D01*
X134650Y38572D01*
X134595Y38755D01*
X134545Y38939D01*
X134530Y38970D01*
X134520Y39003D01*
X134433Y39174D01*
X134351Y39345D01*
X134331Y39373D01*
X134316Y39404D01*
X134200Y39556D01*
X134089Y39711D01*
X134064Y39735D01*
X134044Y39763D01*
X133904Y39892D01*
X133767Y40025D01*
X133738Y40045D01*
X133712Y40068D01*
X133551Y40171D01*
X133394Y40277D01*
X133362Y40291D01*
X133333Y40310D01*
X133156Y40382D01*
X132982Y40460D01*
X132948Y40468D01*
X132916Y40481D01*
X132729Y40521D01*
X132544Y40566D01*
X132510Y40568D01*
X132476Y40576D01*
X132164Y40595D01*
X123362Y40595D01*
X121121Y41523D01*
X120341Y42303D01*
X120215Y42409D01*
X120094Y42520D01*
X120043Y42553D01*
X119996Y42592D01*
X119853Y42674D01*
X119714Y42762D01*
X119658Y42785D01*
X119605Y42815D01*
X119450Y42870D01*
X119298Y42933D01*
X119238Y42946D01*
X119181Y42966D01*
X119019Y42993D01*
X118858Y43028D01*
X118780Y43032D01*
X118736Y43040D01*
X118676Y43039D01*
X118546Y43047D01*
X118171Y43047D01*
X118055Y43037D01*
X117938Y43036D01*
X117831Y43017D01*
X117723Y43007D01*
X117610Y42976D01*
X117495Y42955D01*
X117349Y42905D01*
X117288Y42888D01*
X117256Y42873D01*
X117199Y42854D01*
X116738Y42663D01*
X104313Y42663D01*
X102072Y43591D01*
X100357Y45306D01*
X99429Y47547D01*
X99429Y60972D01*
X99783Y61826D01*
X99818Y61937D01*
X99862Y62046D01*
X99885Y62152D01*
X99917Y62256D01*
X99932Y62372D01*
X99957Y62486D01*
X99966Y62640D01*
X99974Y62702D01*
X99972Y62739D01*
X99976Y62798D01*
X99976Y104940D01*
X101368Y108301D01*
X110820Y117753D01*
X111156Y117892D01*
X111344Y117990D01*
X111533Y118086D01*
X111544Y118094D01*
X111555Y118100D01*
X111723Y118231D01*
X111892Y118358D01*
X111901Y118368D01*
X111911Y118376D01*
X112053Y118534D01*
X112197Y118689D01*
X112204Y118701D01*
X112213Y118710D01*
X112325Y118890D01*
X112439Y119069D01*
X112444Y119081D01*
X112451Y119093D01*
X112529Y119289D01*
X112610Y119486D01*
X112613Y119499D01*
X112618Y119511D01*
X112660Y119718D01*
X112705Y119926D01*
X112706Y119942D01*
X112708Y119952D01*
X112709Y119991D01*
X112724Y120238D01*
X112724Y127217D01*
X112714Y127333D01*
X112713Y127450D01*
X112694Y127557D01*
X112684Y127665D01*
X112676Y127695D01*
X112676Y143316D01*
X112673Y143351D01*
X112675Y143385D01*
X112653Y143574D01*
X112636Y143765D01*
X112627Y143798D01*
X112623Y143832D01*
X112568Y144015D01*
X112517Y144199D01*
X112503Y144230D01*
X112493Y144263D01*
X112406Y144434D01*
X112324Y144606D01*
X112304Y144634D01*
X112288Y144665D01*
X112173Y144817D01*
X112062Y144972D01*
X112037Y144996D01*
X112016Y145023D01*
X111876Y145152D01*
X111739Y145286D01*
X111711Y145305D01*
X111685Y145329D01*
X111524Y145431D01*
X111366Y145538D01*
X111335Y145552D01*
X111305Y145570D01*
X111129Y145643D01*
X110954Y145720D01*
X110921Y145728D01*
X110889Y145741D01*
X110702Y145781D01*
X110517Y145827D01*
X110482Y145829D01*
X110449Y145836D01*
X110137Y145855D01*
X103540Y145855D01*
X103376Y145841D01*
X103212Y145834D01*
X103152Y145821D01*
X103091Y145815D01*
X102932Y145772D01*
X102772Y145736D01*
X102716Y145713D01*
X102657Y145697D01*
X102509Y145626D01*
X102357Y145563D01*
X102305Y145530D01*
X102250Y145503D01*
X102117Y145408D01*
X101978Y145318D01*
X101921Y145267D01*
X101884Y145241D01*
X101842Y145198D01*
X101744Y145112D01*
X54841Y98209D01*
X54736Y98083D01*
X54624Y97962D01*
X54592Y97910D01*
X54553Y97863D01*
X54471Y97721D01*
X54383Y97582D01*
X54359Y97525D01*
X54329Y97473D01*
X54274Y97318D01*
X54212Y97165D01*
X54199Y97106D01*
X54178Y97048D01*
X54152Y96886D01*
X54117Y96725D01*
X54112Y96648D01*
X54105Y96604D01*
X54106Y96543D01*
X54098Y96413D01*
X54098Y87086D01*
X53170Y84845D01*
X51455Y83130D01*
X49214Y82202D01*
X31684Y82202D01*
X31649Y82199D01*
X31615Y82201D01*
X31426Y82179D01*
X31235Y82162D01*
X31202Y82153D01*
X31168Y82149D01*
X30985Y82094D01*
X30801Y82044D01*
X30770Y82029D01*
X30737Y82019D01*
X30566Y81932D01*
X30394Y81850D01*
X30366Y81830D01*
X30335Y81815D01*
X30183Y81699D01*
X30028Y81588D01*
X30004Y81563D01*
X29977Y81543D01*
X29848Y81403D01*
X29714Y81266D01*
X29695Y81237D01*
X29671Y81211D01*
X29569Y81050D01*
X29462Y80893D01*
X29448Y80861D01*
X29430Y80832D01*
X29357Y80655D01*
X29280Y80481D01*
X29272Y80447D01*
X29259Y80415D01*
X29219Y80228D01*
X29173Y80043D01*
X29171Y80009D01*
X29164Y79975D01*
X29145Y79663D01*
X29145Y62437D01*
X29148Y62402D01*
X29146Y62368D01*
X29168Y62179D01*
X29185Y61988D01*
X29194Y61955D01*
X29198Y61921D01*
X29253Y61738D01*
X29303Y61554D01*
X29318Y61523D01*
X29328Y61490D01*
X29415Y61319D01*
X29497Y61147D01*
X29517Y61119D01*
X29532Y61088D01*
X29648Y60936D01*
X29759Y60781D01*
X29784Y60757D01*
X29804Y60730D01*
X29944Y60601D01*
X30081Y60467D01*
X30110Y60448D01*
X30136Y60424D01*
X30297Y60322D01*
X30454Y60215D01*
X30486Y60201D01*
X30515Y60183D01*
X30692Y60110D01*
X30866Y60033D01*
X30900Y60025D01*
X30932Y60012D01*
X31119Y59972D01*
X31304Y59926D01*
X31338Y59924D01*
X31372Y59917D01*
X31684Y59898D01*
X49514Y59898D01*
X51755Y58970D01*
X53470Y57255D01*
X54398Y55014D01*
X54398Y36586D01*
X53360Y34081D01*
X53296Y33875D01*
X53230Y33675D01*
X53229Y33663D01*
X53225Y33651D01*
X53198Y33438D01*
X53169Y33228D01*
X53170Y33217D01*
X53168Y33205D01*
X53179Y32992D01*
X53188Y32779D01*
X53191Y32767D01*
X53192Y32755D01*
X53239Y32549D01*
X53286Y32339D01*
X53291Y32328D01*
X53294Y32316D01*
X53371Y32137D01*
X53376Y32121D01*
X53877Y30912D01*
X53975Y30724D01*
X54071Y30535D01*
X54079Y30525D01*
X54086Y30513D01*
X54215Y30346D01*
X54343Y30177D01*
X54353Y30168D01*
X54361Y30157D01*
X54519Y30015D01*
X54675Y29871D01*
X54686Y29864D01*
X54696Y29856D01*
X54875Y29744D01*
X55054Y29630D01*
X55067Y29625D01*
X55078Y29618D01*
X55274Y29539D01*
X55471Y29459D01*
X55484Y29456D01*
X55496Y29451D01*
X55704Y29409D01*
X55911Y29364D01*
X55927Y29363D01*
X55937Y29361D01*
X55977Y29360D01*
X56223Y29345D01*
X132164Y29345D01*
X132199Y29348D01*
G37*
%LPC*%
G36*
X34688Y345640D02*
X34688Y345640D01*
X32447Y346569D01*
X30732Y348284D01*
X29804Y350524D01*
X29804Y367950D01*
X30732Y370191D01*
X32447Y371906D01*
X34688Y372834D01*
X37915Y372834D01*
X37949Y372837D01*
X37984Y372835D01*
X38173Y372857D01*
X38363Y372874D01*
X38397Y372883D01*
X38431Y372887D01*
X38614Y372942D01*
X38798Y372992D01*
X38829Y373007D01*
X38862Y373017D01*
X39033Y373104D01*
X39204Y373186D01*
X39233Y373206D01*
X39264Y373222D01*
X39416Y373337D01*
X39571Y373448D01*
X39595Y373473D01*
X39622Y373494D01*
X39751Y373634D01*
X39885Y373771D01*
X39904Y373799D01*
X39927Y373825D01*
X40030Y373986D01*
X40137Y374144D01*
X40151Y374175D01*
X40169Y374205D01*
X40242Y374381D01*
X40319Y374555D01*
X40327Y374589D01*
X40340Y374621D01*
X40380Y374808D01*
X40426Y374993D01*
X40428Y375027D01*
X40435Y375061D01*
X40454Y375373D01*
X40454Y391427D01*
X42349Y396001D01*
X57506Y411158D01*
X57611Y411284D01*
X57723Y411405D01*
X57755Y411456D01*
X57794Y411503D01*
X57876Y411646D01*
X57964Y411785D01*
X57988Y411841D01*
X58018Y411894D01*
X58073Y412049D01*
X58135Y412201D01*
X58148Y412261D01*
X58169Y412318D01*
X58195Y412481D01*
X58230Y412642D01*
X58235Y412718D01*
X58242Y412763D01*
X58241Y412824D01*
X58249Y412953D01*
X58249Y416130D01*
X60183Y420798D01*
X63756Y424371D01*
X68424Y426305D01*
X73476Y426305D01*
X78144Y424371D01*
X81717Y420798D01*
X83651Y416130D01*
X83651Y397870D01*
X81717Y393202D01*
X78144Y389629D01*
X73476Y387695D01*
X70299Y387695D01*
X70136Y387681D01*
X69971Y387674D01*
X69912Y387661D01*
X69851Y387655D01*
X69692Y387612D01*
X69532Y387576D01*
X69475Y387553D01*
X69417Y387537D01*
X69268Y387466D01*
X69116Y387403D01*
X69065Y387370D01*
X69010Y387343D01*
X68876Y387248D01*
X68738Y387158D01*
X68680Y387107D01*
X68644Y387081D01*
X68601Y387038D01*
X68504Y386952D01*
X66091Y384539D01*
X65986Y384413D01*
X65874Y384292D01*
X65842Y384240D01*
X65803Y384194D01*
X65721Y384051D01*
X65633Y383912D01*
X65609Y383856D01*
X65579Y383803D01*
X65524Y383648D01*
X65462Y383496D01*
X65449Y383436D01*
X65428Y383378D01*
X65401Y383216D01*
X65367Y383055D01*
X65362Y382979D01*
X65355Y382934D01*
X65356Y382873D01*
X65348Y382744D01*
X65348Y375373D01*
X65351Y375339D01*
X65349Y375304D01*
X65371Y375115D01*
X65388Y374925D01*
X65397Y374891D01*
X65401Y374857D01*
X65456Y374674D01*
X65506Y374490D01*
X65521Y374459D01*
X65531Y374426D01*
X65618Y374255D01*
X65700Y374084D01*
X65720Y374056D01*
X65735Y374025D01*
X65851Y373873D01*
X65962Y373718D01*
X65987Y373693D01*
X66007Y373666D01*
X66147Y373537D01*
X66284Y373404D01*
X66313Y373384D01*
X66339Y373361D01*
X66500Y373258D01*
X66657Y373151D01*
X66689Y373137D01*
X66718Y373119D01*
X66895Y373046D01*
X67069Y372969D01*
X67103Y372961D01*
X67135Y372948D01*
X67321Y372908D01*
X67507Y372863D01*
X67541Y372860D01*
X67575Y372853D01*
X67887Y372834D01*
X71114Y372834D01*
X73354Y371906D01*
X75070Y370191D01*
X75998Y367950D01*
X75998Y350524D01*
X75070Y348284D01*
X73354Y346569D01*
X71114Y345640D01*
X34688Y345640D01*
G37*
%LPD*%
%LPC*%
G36*
X449597Y362130D02*
X449597Y362130D01*
X438703Y373024D01*
X438703Y388430D01*
X449597Y399324D01*
X465003Y399324D01*
X475897Y388430D01*
X475897Y373024D01*
X465003Y362130D01*
X449597Y362130D01*
G37*
%LPD*%
%LPC*%
G36*
X491997Y361630D02*
X491997Y361630D01*
X481103Y372524D01*
X481103Y387930D01*
X491997Y398824D01*
X507403Y398824D01*
X518297Y387930D01*
X518297Y372524D01*
X507403Y361630D01*
X491997Y361630D01*
G37*
%LPD*%
%LPC*%
G36*
X418339Y49299D02*
X418339Y49299D01*
X410899Y56739D01*
X410899Y59460D01*
X410896Y59495D01*
X410898Y59529D01*
X410876Y59718D01*
X410859Y59909D01*
X410850Y59942D01*
X410846Y59976D01*
X410791Y60159D01*
X410741Y60343D01*
X410726Y60374D01*
X410716Y60407D01*
X410629Y60578D01*
X410547Y60750D01*
X410527Y60778D01*
X410512Y60809D01*
X410396Y60961D01*
X410285Y61116D01*
X410260Y61140D01*
X410240Y61167D01*
X410100Y61296D01*
X409963Y61430D01*
X409934Y61449D01*
X409908Y61473D01*
X409747Y61575D01*
X409590Y61682D01*
X409558Y61696D01*
X409529Y61714D01*
X409352Y61787D01*
X409178Y61864D01*
X409144Y61872D01*
X409112Y61885D01*
X408925Y61925D01*
X408740Y61971D01*
X408706Y61973D01*
X408672Y61980D01*
X408360Y61999D01*
X399289Y61999D01*
X391849Y69439D01*
X391849Y79961D01*
X399289Y87401D01*
X409811Y87401D01*
X417251Y79961D01*
X417251Y77240D01*
X417254Y77205D01*
X417252Y77171D01*
X417274Y76982D01*
X417291Y76791D01*
X417300Y76758D01*
X417304Y76724D01*
X417359Y76541D01*
X417409Y76357D01*
X417424Y76326D01*
X417434Y76293D01*
X417521Y76122D01*
X417603Y75950D01*
X417623Y75922D01*
X417638Y75891D01*
X417754Y75739D01*
X417865Y75584D01*
X417890Y75560D01*
X417910Y75533D01*
X418050Y75404D01*
X418187Y75270D01*
X418216Y75251D01*
X418242Y75227D01*
X418403Y75125D01*
X418560Y75018D01*
X418592Y75004D01*
X418621Y74986D01*
X418798Y74913D01*
X418972Y74836D01*
X419006Y74828D01*
X419038Y74815D01*
X419225Y74775D01*
X419410Y74729D01*
X419444Y74727D01*
X419478Y74720D01*
X419790Y74701D01*
X428861Y74701D01*
X436301Y67261D01*
X436301Y56739D01*
X428861Y49299D01*
X418339Y49299D01*
G37*
%LPD*%
D10*
X668173Y454655D02*
X3400Y456200D01*
X5600Y1600D01*
X665600Y1600D02*
X668173Y454655D01*
X666573Y955D02*
X5600Y1600D01*
D11*
X110526Y37259D03*
X110526Y54259D03*
D12*
X284759Y303261D03*
D13*
X261414Y303135D03*
D14*
X121821Y77657D03*
X121821Y129657D03*
X109121Y77657D03*
X134521Y77657D03*
X147221Y77657D03*
X109121Y129657D03*
X134521Y129657D03*
X147221Y129657D03*
X172621Y77657D03*
X172621Y129657D03*
X159921Y77657D03*
X185321Y77657D03*
X159921Y129657D03*
X185321Y129657D03*
D15*
X346451Y131737D03*
X346451Y144437D03*
X346451Y157137D03*
X346451Y169837D03*
X346451Y182537D03*
X346451Y195237D03*
X346451Y207937D03*
X346451Y220637D03*
X281651Y220637D03*
X281651Y207937D03*
X281651Y195237D03*
X281651Y182537D03*
X281651Y169837D03*
X281651Y157137D03*
X281651Y144437D03*
X281651Y131737D03*
D11*
X404412Y213197D03*
X387412Y213197D03*
X238219Y122162D03*
X255219Y122162D03*
X238942Y151788D03*
X255942Y151788D03*
X238636Y180076D03*
X255636Y180076D03*
X256301Y208508D03*
X239301Y208508D03*
X404370Y176404D03*
X387370Y176404D03*
X405554Y147032D03*
X388554Y147032D03*
X129575Y52192D03*
X146575Y52192D03*
D16*
X588544Y95038D03*
X637823Y282856D03*
X636407Y406307D03*
X639655Y338724D03*
X588854Y39530D03*
X588261Y149381D03*
X639075Y67512D03*
X637072Y122226D03*
D17*
X423600Y87400D03*
X404550Y74700D03*
X423600Y62000D03*
D18*
X403800Y402627D03*
D19*
X499700Y380227D03*
D18*
X544400Y262727D03*
X566200Y379227D03*
X430300Y262727D03*
D19*
X457300Y380727D03*
D20*
X129300Y34800D03*
X146300Y34800D03*
D21*
X40000Y96300D03*
X40200Y122300D03*
X40400Y20200D03*
X40300Y70900D03*
X40300Y45800D03*
D22*
X41850Y246700D03*
X115350Y246700D03*
D20*
X86100Y307000D03*
X86100Y290000D03*
D23*
X202990Y324400D02*
X218230Y324400D01*
X220770Y400600D02*
X236010Y400600D01*
D24*
X331261Y291041D03*
D25*
X331135Y314386D03*
D26*
X159100Y427600D03*
X159100Y376800D03*
D27*
X263000Y402500D03*
X263000Y351500D03*
X353000Y351500D03*
X353000Y402500D03*
D28*
X111600Y318000D03*
X162400Y318000D03*
D12*
X52759Y160061D03*
D13*
X29414Y159935D03*
D29*
X184396Y209950D02*
X197604Y209950D01*
X197604Y248050D02*
X184396Y248050D01*
X70950Y400396D02*
X70950Y413604D01*
X109050Y413604D02*
X109050Y400396D01*
D16*
X637000Y177000D03*
D30*
X52901Y359237D03*
X52901Y312237D03*
D16*
X585000Y203000D03*
D28*
X293600Y52000D03*
X344400Y52000D03*
D31*
X375500Y106000D03*
X334500Y106000D03*
D11*
X371000Y130500D03*
X371000Y147500D03*
X371000Y162500D03*
X371000Y179500D03*
X371000Y195500D03*
X371000Y212500D03*
D32*
X159100Y321300D02*
X159100Y376800D01*
X159100Y321300D02*
X162400Y318000D01*
X168800Y324400D02*
X210610Y324400D01*
X168800Y324400D02*
X162400Y318000D01*
X263000Y330000D02*
X263000Y351500D01*
X263000Y330000D02*
X263000Y304721D01*
X261414Y303135D01*
D33*
X322763Y195237D02*
X346451Y195237D01*
X322763Y195237D02*
X313000Y205000D01*
X313000Y221000D01*
X303237Y195237D02*
X281651Y195237D01*
X303237Y195237D02*
X309500Y201500D01*
X313000Y205000D01*
X312637Y220637D02*
X281651Y220637D01*
X312637Y220637D02*
X313000Y221000D01*
X313363Y220637D02*
X346451Y220637D01*
X313363Y220637D02*
X313000Y221000D01*
X305837Y169837D02*
X281651Y169837D01*
X305837Y169837D02*
X313000Y177000D01*
X313000Y198000D01*
X309500Y201500D01*
X320163Y169837D02*
X346451Y169837D01*
X320163Y169837D02*
X316000Y174000D01*
X313000Y177000D01*
X306437Y144437D02*
X281651Y144437D01*
X306437Y144437D02*
X313000Y151000D01*
X313000Y171000D01*
X316000Y174000D01*
X319563Y144437D02*
X346451Y144437D01*
X319563Y144437D02*
X313000Y151000D01*
D34*
X346451Y195237D02*
X370737Y195237D01*
X371000Y195500D01*
X357163Y169837D02*
X346451Y169837D01*
X364500Y162500D02*
X371000Y162500D01*
X364500Y162500D02*
X357163Y169837D01*
X351563Y144437D02*
X346451Y144437D01*
X365500Y130500D02*
X371000Y130500D01*
X365500Y130500D02*
X351563Y144437D01*
D33*
X397000Y94000D02*
X417000Y94000D01*
X423600Y87400D01*
D34*
X112985Y34800D02*
X110526Y37259D01*
X112985Y34800D02*
X129300Y34800D01*
X97000Y117536D02*
X109121Y129657D01*
X97000Y44000D02*
X105000Y36000D01*
X106259Y37259D01*
X110526Y37259D01*
X97000Y68000D02*
X97000Y117536D01*
X97000Y68000D02*
X97000Y44000D01*
X502000Y239000D02*
X503000Y239000D01*
D35*
X502000Y239000D03*
D34*
X94100Y70900D02*
X40300Y70900D01*
X94100Y70900D02*
X97000Y68000D01*
X371000Y130500D02*
X375500Y126000D01*
X375500Y106000D01*
D33*
X385000Y106000D02*
X397000Y94000D01*
X385000Y106000D02*
X375500Y106000D01*
D36*
X263000Y351500D02*
X237710Y351500D01*
X210610Y324400D01*
D33*
X263000Y330000D02*
X297000Y330000D01*
X309000Y318000D01*
X309000Y246000D01*
X313363Y241637D02*
X313363Y220637D01*
X313363Y241637D02*
X309000Y246000D01*
X447000Y294000D02*
X502000Y239000D01*
D35*
X447000Y294000D03*
D33*
X239301Y208508D02*
X192442Y208508D01*
X191000Y209950D01*
X205076Y180076D02*
X238636Y180076D01*
X205076Y180076D02*
X205000Y180000D01*
D35*
X205076Y180076D03*
D33*
X206212Y151788D02*
X238942Y151788D01*
D35*
X206212Y151788D03*
D33*
X207162Y122162D02*
X238219Y122162D01*
X207162Y122162D02*
X207000Y122000D01*
D35*
X207162Y122162D03*
D34*
X109121Y103121D02*
X109121Y77657D01*
X109121Y103121D02*
X116000Y110000D01*
X195000Y110000D01*
X207162Y122162D01*
X112593Y52192D02*
X110526Y54259D01*
X112593Y52192D02*
X129575Y52192D01*
X109121Y55664D02*
X109121Y77657D01*
X109121Y55664D02*
X110526Y54259D01*
X40300Y45800D02*
X26200Y45800D01*
X20000Y52000D01*
X20000Y135000D01*
X28000Y143000D01*
X45000Y143000D01*
X53000Y151000D01*
X52759Y151241D01*
X52759Y160061D01*
D32*
X115350Y246700D02*
X148700Y246700D01*
X188000Y286000D01*
X238000Y286000D01*
X249000Y275000D01*
X274000Y275000D01*
X285000Y286000D01*
X284759Y286241D01*
X284759Y303261D01*
D35*
X85000Y260000D03*
D33*
X98300Y246700D02*
X115350Y246700D01*
X98300Y246700D02*
X85000Y260000D01*
D34*
X404412Y213197D02*
X415804Y213197D01*
X419000Y210000D01*
X418596Y176404D02*
X404370Y176404D01*
X418596Y176404D02*
X420000Y176000D01*
X408522Y150000D02*
X405554Y147032D01*
X408522Y150000D02*
X421000Y150000D01*
D35*
X420000Y176000D03*
X419000Y210000D03*
X421000Y150000D03*
D33*
X368302Y254000D02*
X331261Y291041D01*
X368302Y254000D02*
X396000Y254000D01*
D35*
X396000Y254000D03*
D34*
X346451Y131737D02*
X334500Y119786D01*
X334500Y106000D01*
X334500Y92900D02*
X293600Y52000D01*
X334500Y92900D02*
X334500Y106000D01*
X346451Y157137D02*
X353863Y157137D01*
X363500Y147500D02*
X371000Y147500D01*
X363500Y147500D02*
X353863Y157137D01*
X371000Y147500D02*
X388086Y147500D01*
X388554Y147032D01*
X388554Y155554D01*
X394000Y161000D01*
X513000Y161000D01*
X551000Y123000D01*
X551000Y78000D01*
X562000Y67000D01*
X638563Y67000D01*
X639075Y67512D01*
X354937Y207937D02*
X346451Y207937D01*
X354937Y207937D02*
X361000Y214000D01*
X369500Y214000D01*
X371000Y212500D01*
X386716Y212500D01*
X387412Y213197D01*
X498000Y226000D02*
X549000Y175000D01*
X605000Y175000D01*
X613000Y167000D01*
X613000Y146298D01*
X637072Y122226D01*
X387412Y213197D02*
X387412Y220412D01*
X393000Y226000D02*
X498000Y226000D01*
X393000Y226000D02*
X387412Y220412D01*
X255942Y143942D02*
X249000Y137000D01*
X255942Y143942D02*
X255942Y151788D01*
D33*
X261290Y157137D02*
X281651Y157137D01*
X261290Y157137D02*
X255942Y151788D01*
D34*
X185321Y129657D02*
X185000Y129977D01*
X185321Y129657D02*
X192664Y137000D01*
X249000Y137000D01*
D33*
X258097Y182537D02*
X281651Y182537D01*
X258097Y182537D02*
X255636Y180076D01*
D34*
X256000Y173000D02*
X248000Y165000D01*
X256000Y173000D02*
X255636Y173364D01*
X255636Y180076D01*
X173000Y130036D02*
X172621Y129657D01*
X173000Y150000D02*
X188000Y165000D01*
X173000Y150000D02*
X173000Y130036D01*
X188000Y165000D02*
X248000Y165000D01*
X147221Y52837D02*
X146575Y52192D01*
X147221Y52837D02*
X147221Y77657D01*
X146575Y35075D02*
X146300Y34800D01*
X146575Y35075D02*
X146575Y52192D01*
X139200Y20200D02*
X40400Y20200D01*
X139200Y20200D02*
X147000Y28000D01*
X146300Y28700D01*
X146300Y34800D01*
X147221Y129657D02*
X147221Y158779D01*
X147000Y159000D01*
D35*
X147000Y159000D03*
D37*
X566200Y379227D02*
X606703Y338724D01*
X639655Y338724D01*
X427173Y426000D02*
X403800Y402627D01*
X616714Y426000D02*
X636407Y406307D01*
X457000Y426000D02*
X427173Y426000D01*
X457000Y426000D02*
X616714Y426000D01*
D36*
X403800Y402627D02*
X347873Y402627D01*
X353000Y402500D01*
D33*
X281651Y207937D02*
X256872Y207937D01*
X256301Y208508D01*
D34*
X256301Y199301D01*
X252000Y195000D01*
X183000Y195000D01*
X160000Y129736D02*
X159921Y129657D01*
X160000Y172000D02*
X183000Y195000D01*
X160000Y172000D02*
X160000Y129736D01*
X98700Y155000D02*
X40000Y96300D01*
X98700Y155000D02*
X115000Y155000D01*
X121821Y148179D01*
X121821Y129657D01*
X82900Y165000D02*
X40200Y122300D01*
X82900Y165000D02*
X127000Y165000D01*
X134521Y157479D01*
X134521Y129657D01*
D32*
X79550Y283450D02*
X86100Y290000D01*
X79550Y283450D02*
X42800Y246700D01*
X41850Y246700D01*
D33*
X272077Y122162D02*
X281651Y131737D01*
X272077Y122162D02*
X255219Y122162D01*
D34*
X121821Y91821D02*
X121821Y77657D01*
X121821Y91821D02*
X130000Y100000D01*
X255219Y116219D02*
X255219Y122162D01*
X255219Y116219D02*
X239000Y100000D01*
X130000Y100000D01*
D36*
X378500Y321000D02*
X353000Y351500D01*
X549000Y321000D02*
X588000Y282000D01*
X636967Y282000D01*
X637823Y282856D01*
X446000Y321000D02*
X378500Y321000D01*
X446000Y321000D02*
X549000Y321000D01*
D32*
X80863Y312237D02*
X52901Y312237D01*
X80863Y312237D02*
X86100Y307000D01*
X52901Y388951D02*
X70950Y407000D01*
X52901Y388951D02*
X52901Y359237D01*
D34*
X159921Y77657D02*
X159921Y63079D01*
D35*
X231000Y40000D03*
D34*
X183000Y40000D01*
X159921Y63079D01*
D35*
X258000Y69000D03*
D34*
X172621Y65379D02*
X172621Y77657D01*
X172621Y65379D02*
X179000Y59000D01*
X248000Y59000D01*
X258000Y69000D01*
D32*
X261100Y400600D02*
X263000Y402500D01*
X201390Y427600D02*
X159100Y427600D01*
X201390Y427600D02*
X228390Y400600D01*
X129650Y427600D02*
X109050Y407000D01*
X129650Y427600D02*
X159100Y427600D01*
X111600Y404450D02*
X111600Y318000D01*
X111600Y404450D02*
X109050Y407000D01*
D36*
X230290Y402500D02*
X263000Y402500D01*
X230290Y402500D02*
X228390Y400600D01*
D35*
X260000Y104000D03*
D34*
X244657Y77657D02*
X185321Y77657D01*
X260000Y93000D02*
X260000Y104000D01*
X260000Y93000D02*
X244657Y77657D01*
X346451Y182537D02*
X367963Y182537D01*
X371000Y179500D01*
X384274Y179500D01*
X387370Y176404D01*
X548619Y149381D02*
X588261Y149381D01*
X548619Y149381D02*
X504000Y194000D01*
X387370Y185370D02*
X387370Y176404D01*
X387370Y185370D02*
X396000Y194000D01*
X504000Y194000D01*
M02*
