G75*
%MOMM*%
%FSLAX34Y34*%
%LPD*%
%AMOC8*
5,1,8,0,0,1.08239X$1,22.5*%
G01*
%ADD10C,0.000000*%
%ADD11R,1.303200X1.203200*%
%ADD12P,1.594577X8X22.500000*%
%ADD13P,1.594577X8X202.500000*%
%ADD14R,2.003200X1.903200*%
%ADD15R,1.003200X1.103200*%
%ADD16R,1.203200X1.303200*%
%ADD17R,3.203200X3.203200*%
%ADD18P,1.649562X8X112.500000*%
%ADD19P,4.008307X8X292.500000*%
%ADD20P,2.925917X8X292.500000*%
%ADD21R,1.803400X1.803400*%
%ADD22C,1.727200*%
%ADD23P,1.594577X8X292.500000*%
%ADD24P,1.594577X8X112.500000*%
%ADD25P,2.034460X8X292.500000*%
%ADD26P,2.034460X8X22.500000*%
%ADD27R,1.903200X2.003200*%
%ADD28R,1.703200X0.803200*%
%ADD29R,1.803200X2.003200*%
%ADD30C,1.524000*%
%ADD31R,1.103200X1.003200*%
%ADD32C,1.209600*%


D10*
X668173Y454655D02*
X3400Y456200D01*
X5600Y1600D01*
X665600Y1600D02*
X668173Y454655D01*
X666573Y955D02*
X5600Y1600D01*
D11*
X483664Y312547D03*
X500664Y312547D03*
X27935Y217856D03*
X44935Y217856D03*
D12*
X284759Y303261D03*
D13*
X261414Y303135D03*
D14*
X498210Y416049D03*
X457210Y416049D03*
D15*
X501264Y331847D03*
X482264Y331847D03*
X491764Y351847D03*
D16*
X513867Y63873D03*
X496867Y63873D03*
X458404Y32019D03*
X441404Y32019D03*
D11*
X481464Y287547D03*
X481464Y270547D03*
X502664Y287247D03*
X502664Y270247D03*
D16*
X299855Y81299D03*
X282855Y81299D03*
D17*
X588544Y95038D03*
X637823Y282856D03*
X636407Y406307D03*
X639655Y338724D03*
X588854Y39530D03*
X588261Y149381D03*
X639075Y67512D03*
X637072Y122226D03*
D18*
X423600Y87400D03*
X404550Y74700D03*
X423600Y62000D03*
D19*
X403800Y402627D03*
D20*
X499700Y380227D03*
D19*
X544400Y262727D03*
X566200Y379227D03*
X430300Y262727D03*
D20*
X457300Y380727D03*
D14*
X471800Y87800D03*
X512800Y87800D03*
D21*
X40000Y96300D03*
X40200Y122300D03*
X40400Y20200D03*
X40300Y70900D03*
X40300Y45800D03*
D22*
X202990Y324400D02*
X218230Y324400D01*
X220770Y400600D02*
X236010Y400600D01*
D23*
X331261Y291041D03*
D24*
X331135Y314386D03*
D25*
X159100Y427600D03*
X159100Y376800D03*
D26*
X111600Y318000D03*
X162400Y318000D03*
D27*
X375000Y101500D03*
X375000Y60500D03*
D14*
X394500Y229000D03*
X435500Y229000D03*
D28*
X121500Y230350D03*
X66500Y230350D03*
X121500Y243050D03*
X121500Y217650D03*
X121500Y204950D03*
X66500Y243050D03*
X66500Y217650D03*
X66500Y204950D03*
D16*
X150000Y204500D03*
X150000Y221500D03*
D27*
X149000Y289500D03*
X149000Y248500D03*
D29*
X113000Y284000D03*
X85000Y284000D03*
D11*
X80000Y168500D03*
X80000Y185500D03*
D16*
X45500Y196000D03*
X28500Y196000D03*
D12*
X52759Y160061D03*
D13*
X29414Y159935D03*
D30*
X184396Y209950D02*
X197604Y209950D01*
X197604Y248050D02*
X184396Y248050D01*
D16*
X104000Y185500D03*
X104000Y168500D03*
D30*
X70950Y400396D02*
X70950Y413604D01*
X109050Y413604D02*
X109050Y400396D01*
D31*
X508000Y115500D03*
X508000Y134500D03*
X528000Y125000D03*
D16*
X487000Y151500D03*
X487000Y134500D03*
D11*
X468000Y150500D03*
X468000Y133500D03*
D16*
X485500Y115000D03*
X468500Y115000D03*
D14*
X400500Y124000D03*
X441500Y124000D03*
D16*
X529500Y153000D03*
X512500Y153000D03*
D17*
X637000Y177000D03*
D27*
X604000Y275500D03*
X604000Y316500D03*
D31*
X508000Y177500D03*
X508000Y196500D03*
X528000Y187000D03*
D16*
X486000Y213500D03*
X486000Y196500D03*
D11*
X466000Y213500D03*
X466000Y196500D03*
D16*
X484500Y176000D03*
X467500Y176000D03*
D14*
X398500Y193000D03*
X439500Y193000D03*
D16*
X535500Y220000D03*
X518500Y220000D03*
D17*
X585000Y203000D03*
D27*
X572000Y297500D03*
X572000Y338500D03*
D26*
X293600Y52000D03*
X344400Y52000D03*
D14*
X528500Y33000D03*
X487500Y33000D03*
D32*
X502000Y239000D03*
X447000Y294000D03*
X205076Y180076D03*
X206212Y151788D03*
X207162Y122162D03*
X85000Y260000D03*
X420000Y176000D03*
X419000Y210000D03*
X421000Y150000D03*
X396000Y254000D03*
X147000Y159000D03*
X231000Y40000D03*
X258000Y69000D03*
X260000Y104000D03*
M02*
