G75*
%MOIN*%
%OFA0B0*%
%FSLAX25Y25*%
%IPPOS*%
%LPD*%
%AMOC8*
5,1,8,0,0,1.08239X$1,22.5*
%
%ADD10C,0.00000*%
%ADD11OC8,0.05800*%
%ADD12R,0.05524X0.03005*%
%ADD13R,0.04737X0.05131*%
%ADD14R,0.12611X0.12611*%
%ADD15OC8,0.06000*%
%ADD16OC8,0.14580*%
%ADD17OC8,0.10643*%
%ADD18R,0.07100X0.07100*%
%ADD19R,0.07887X0.07493*%
%ADD20R,0.07493X0.07887*%
%ADD21R,0.04762X0.04762*%
D10*
X0002161Y0002357D02*
X0264208Y0002476D01*
X0264247Y0002672D02*
X0264591Y0179978D01*
X0264562Y0179956D02*
X0002515Y0179838D01*
X0002476Y0179838D02*
X0002318Y0002633D01*
D11*
X0167224Y0021586D03*
X0167174Y0030777D03*
X0166673Y0048948D03*
X0166623Y0058139D03*
X0202725Y0031210D03*
X0202775Y0022019D03*
X0236752Y0022610D03*
X0236702Y0031801D03*
D12*
X0219306Y0084931D03*
X0219306Y0089931D03*
X0219306Y0094931D03*
X0219306Y0099931D03*
X0219306Y0104931D03*
X0219306Y0109931D03*
X0219306Y0114931D03*
X0219306Y0119931D03*
X0193794Y0119931D03*
X0193794Y0114931D03*
X0193794Y0109931D03*
X0193794Y0104931D03*
X0193794Y0099931D03*
X0193794Y0094931D03*
X0193794Y0089931D03*
X0193794Y0084931D03*
D13*
X0176176Y0094208D03*
X0176176Y0100901D03*
X0184602Y0104129D03*
X0184602Y0110822D03*
X0176098Y0115310D03*
X0176098Y0122003D03*
X0151125Y0118816D03*
X0144432Y0118816D03*
X0144409Y0133931D03*
X0151102Y0133931D03*
X0109974Y0147673D03*
X0103281Y0147673D03*
X0152969Y0100835D03*
X0159662Y0100835D03*
X0238198Y0104946D03*
X0244891Y0104946D03*
X0244900Y0094961D03*
X0238207Y0094961D03*
X0238295Y0085020D03*
X0244988Y0085020D03*
X0244878Y0114841D03*
X0238185Y0114841D03*
X0056491Y0089208D03*
X0049798Y0089208D03*
D14*
X0033167Y0082682D03*
X0017387Y0098268D03*
X0033184Y0114483D03*
X0017382Y0130066D03*
X0033201Y0146309D03*
X0017436Y0161924D03*
X0017436Y0066570D03*
X0033148Y0051021D03*
X0017418Y0034771D03*
X0033193Y0019230D03*
D15*
X0058578Y0134247D03*
X0066078Y0139247D03*
X0058578Y0144247D03*
D16*
X0090260Y0107830D03*
X0136126Y0099247D03*
X0136126Y0054326D03*
X0081048Y0043893D03*
D17*
X0089670Y0064956D03*
X0089867Y0081649D03*
D18*
X0245822Y0126924D03*
X0245901Y0137161D03*
X0245783Y0147161D03*
X0245783Y0157043D03*
X0245743Y0167121D03*
D19*
X0092672Y0150625D03*
X0092948Y0139956D03*
X0076806Y0139956D03*
X0076531Y0150625D03*
X0051413Y0163224D03*
X0035271Y0163224D03*
D20*
X0045743Y0134798D03*
X0045743Y0118657D03*
X0049798Y0078066D03*
X0061413Y0077869D03*
X0061413Y0061728D03*
X0049798Y0061924D03*
D21*
X0132436Y0125546D03*
X0159326Y0125704D03*
X0158932Y0108420D03*
X0165310Y0088696D03*
X0154247Y0062594D03*
X0228735Y0089838D03*
X0228460Y0099208D03*
X0229759Y0109405D03*
X0235783Y0127318D03*
X0217909Y0148106D03*
X0157279Y0157082D03*
X0128342Y0161452D03*
X0248499Y0074444D03*
M02*
