G75*
%MOIN*%
%OFA0B0*%
%FSLAX25Y25*%
%IPPOS*%
%LPD*%
%AMOC8*
5,1,8,0,0,1.08239X$1,22.5*
%
%ADD10C,0.00000*%
%ADD11C,0.00200*%
%ADD12C,0.00600*%
%ADD13C,0.01000*%
%ADD14C,0.00100*%
%ADD15C,0.00500*%
%ADD16C,0.00787*%
%ADD17C,0.00800*%
%ADD18C,0.00400*%
D10*
X0002161Y0002357D02*
X0264208Y0002476D01*
X0264247Y0002672D02*
X0264591Y0179978D01*
X0264562Y0179956D02*
X0002515Y0179838D01*
X0002476Y0179838D02*
X0002318Y0002633D01*
D11*
X0029145Y0009998D02*
X0030613Y0009998D01*
X0029879Y0009998D02*
X0029879Y0012200D01*
X0029145Y0011466D01*
X0031355Y0011833D02*
X0031722Y0012200D01*
X0032456Y0012200D01*
X0032823Y0011833D01*
X0032823Y0011466D01*
X0031355Y0009998D01*
X0032823Y0009998D01*
X0033565Y0010732D02*
X0034299Y0009998D01*
X0035033Y0010732D01*
X0035033Y0012200D01*
X0033565Y0012200D02*
X0033565Y0010732D01*
X0035775Y0009631D02*
X0037243Y0009631D01*
X0037985Y0011099D02*
X0039453Y0011099D01*
X0039086Y0009998D02*
X0039086Y0012200D01*
X0037985Y0011099D01*
X0019258Y0025172D02*
X0017790Y0025172D01*
X0017048Y0025906D02*
X0016681Y0025539D01*
X0015947Y0025539D01*
X0015580Y0025906D01*
X0014838Y0025906D02*
X0014471Y0025539D01*
X0013737Y0025539D01*
X0013370Y0025906D01*
X0013737Y0026640D02*
X0014471Y0026640D01*
X0014838Y0026273D01*
X0014838Y0025906D01*
X0013737Y0026640D02*
X0013370Y0027007D01*
X0013370Y0027374D01*
X0013737Y0027741D01*
X0014471Y0027741D01*
X0014838Y0027374D01*
X0015580Y0027374D02*
X0015580Y0027007D01*
X0015947Y0026640D01*
X0016681Y0026640D01*
X0017048Y0026273D01*
X0017048Y0025906D01*
X0017048Y0027374D02*
X0016681Y0027741D01*
X0015947Y0027741D01*
X0015580Y0027374D01*
X0020000Y0027007D02*
X0020734Y0027741D01*
X0020734Y0025539D01*
X0020000Y0025539D02*
X0021468Y0025539D01*
X0022210Y0025906D02*
X0023678Y0027374D01*
X0023678Y0025906D01*
X0023311Y0025539D01*
X0022577Y0025539D01*
X0022210Y0025906D01*
X0022210Y0027374D01*
X0022577Y0027741D01*
X0023311Y0027741D01*
X0023678Y0027374D01*
X0029466Y0041790D02*
X0030200Y0041790D01*
X0030567Y0042157D01*
X0030567Y0042891D01*
X0029833Y0042891D01*
X0029099Y0043625D02*
X0029466Y0043992D01*
X0030200Y0043992D01*
X0030567Y0043625D01*
X0031309Y0043992D02*
X0031309Y0041790D01*
X0032777Y0041790D02*
X0032777Y0043992D01*
X0033519Y0043992D02*
X0034620Y0043992D01*
X0034987Y0043625D01*
X0034987Y0042157D01*
X0034620Y0041790D01*
X0033519Y0041790D01*
X0033519Y0043992D01*
X0031309Y0043992D02*
X0032777Y0041790D01*
X0035729Y0041423D02*
X0037197Y0041423D01*
X0037939Y0042157D02*
X0038306Y0041790D01*
X0039040Y0041790D01*
X0039407Y0042157D01*
X0039407Y0042524D01*
X0039040Y0042891D01*
X0038673Y0042891D01*
X0039040Y0042891D02*
X0039407Y0043258D01*
X0039407Y0043625D01*
X0039040Y0043992D01*
X0038306Y0043992D01*
X0037939Y0043625D01*
X0029466Y0041790D02*
X0029099Y0042157D01*
X0029099Y0043625D01*
X0070981Y0029452D02*
X0070981Y0027251D01*
X0072082Y0027251D01*
X0072449Y0027618D01*
X0072449Y0029085D01*
X0072082Y0029452D01*
X0070981Y0029452D01*
X0073191Y0029085D02*
X0073191Y0028718D01*
X0073558Y0028351D01*
X0074292Y0028351D01*
X0074659Y0027984D01*
X0074659Y0027618D01*
X0074292Y0027251D01*
X0073558Y0027251D01*
X0073191Y0027618D01*
X0073191Y0027984D01*
X0073558Y0028351D01*
X0074292Y0028351D02*
X0074659Y0028718D01*
X0074659Y0029085D01*
X0074292Y0029452D01*
X0073558Y0029452D01*
X0073191Y0029085D01*
X0098303Y0027832D02*
X0098303Y0025630D01*
X0098303Y0026364D02*
X0099404Y0026364D01*
X0099771Y0026731D01*
X0099771Y0027465D01*
X0099404Y0027832D01*
X0098303Y0027832D01*
X0099037Y0026364D02*
X0099771Y0025630D01*
X0100513Y0025630D02*
X0101981Y0025630D01*
X0101247Y0025630D02*
X0101247Y0027832D01*
X0100513Y0027098D01*
X0102723Y0027465D02*
X0103090Y0027832D01*
X0103824Y0027832D01*
X0104191Y0027465D01*
X0102723Y0025997D01*
X0103090Y0025630D01*
X0103824Y0025630D01*
X0104191Y0025997D01*
X0104191Y0027465D01*
X0102723Y0027465D02*
X0102723Y0025997D01*
X0098960Y0025204D02*
X0098960Y0019826D01*
X0110558Y0019826D01*
X0110558Y0025204D01*
X0098960Y0025204D01*
X0126440Y0024259D02*
X0126440Y0020456D01*
X0138039Y0020456D01*
X0138039Y0024259D01*
X0126440Y0024259D01*
X0159836Y0023587D02*
X0160203Y0023954D01*
X0160570Y0023954D01*
X0160937Y0023587D01*
X0160937Y0022853D01*
X0160570Y0022486D01*
X0160203Y0022486D01*
X0159836Y0022853D01*
X0159836Y0023587D01*
X0160937Y0023587D02*
X0161304Y0023954D01*
X0161671Y0023954D01*
X0162038Y0023587D01*
X0162038Y0022853D01*
X0161671Y0022486D01*
X0161304Y0022486D01*
X0160937Y0022853D01*
X0160203Y0021744D02*
X0159836Y0021377D01*
X0159836Y0020643D01*
X0160203Y0020276D01*
X0161671Y0020276D01*
X0162038Y0020643D01*
X0162038Y0021377D01*
X0161671Y0021744D01*
X0195387Y0021810D02*
X0195387Y0021076D01*
X0195754Y0020709D01*
X0197222Y0020709D01*
X0197589Y0021076D01*
X0197589Y0021810D01*
X0197222Y0022177D01*
X0197222Y0022919D02*
X0197589Y0023286D01*
X0197589Y0024020D01*
X0197222Y0024387D01*
X0196855Y0024387D01*
X0196488Y0024020D01*
X0196488Y0022919D01*
X0197222Y0022919D01*
X0196488Y0022919D02*
X0195754Y0023653D01*
X0195387Y0024387D01*
X0195754Y0022177D02*
X0195387Y0021810D01*
X0210588Y0040945D02*
X0210588Y0045536D01*
X0222186Y0045536D01*
X0222186Y0040945D01*
X0210588Y0040945D01*
X0205956Y0045857D02*
X0205589Y0045490D01*
X0204855Y0045490D01*
X0204488Y0045857D01*
X0204488Y0046591D01*
X0205589Y0046591D01*
X0205956Y0046224D01*
X0205956Y0045857D01*
X0205222Y0047325D02*
X0205956Y0047692D01*
X0206081Y0048068D02*
X0206081Y0052658D01*
X0194483Y0052658D01*
X0194483Y0048068D01*
X0206081Y0048068D01*
X0205222Y0047325D02*
X0204488Y0046591D01*
X0203746Y0045490D02*
X0202278Y0045490D01*
X0203012Y0045490D02*
X0203012Y0047692D01*
X0202278Y0046958D01*
X0201536Y0047325D02*
X0201169Y0047692D01*
X0200435Y0047692D01*
X0200068Y0047325D01*
X0200068Y0045857D01*
X0200435Y0045490D01*
X0201169Y0045490D01*
X0201536Y0045857D01*
X0207448Y0047218D02*
X0207448Y0048319D01*
X0207815Y0048686D01*
X0208549Y0048686D01*
X0208916Y0048319D01*
X0208916Y0047218D01*
X0209650Y0047218D02*
X0207448Y0047218D01*
X0208916Y0047952D02*
X0209650Y0048686D01*
X0209650Y0049428D02*
X0209650Y0050896D01*
X0209650Y0050162D02*
X0207448Y0050162D01*
X0208182Y0049428D01*
X0207448Y0051638D02*
X0207448Y0053105D01*
X0207815Y0053105D01*
X0209283Y0051638D01*
X0209650Y0051638D01*
X0210538Y0048116D02*
X0210171Y0047749D01*
X0210171Y0046281D01*
X0210538Y0045914D01*
X0211272Y0045914D01*
X0211639Y0046281D01*
X0212381Y0045914D02*
X0213849Y0045914D01*
X0213115Y0045914D02*
X0213115Y0048116D01*
X0212381Y0047382D01*
X0211639Y0047749D02*
X0211272Y0048116D01*
X0210538Y0048116D01*
X0210076Y0047875D02*
X0215454Y0047875D01*
X0215454Y0059473D01*
X0210076Y0059473D01*
X0210076Y0047875D01*
X0214591Y0047749D02*
X0214591Y0046281D01*
X0216059Y0047749D01*
X0216059Y0046281D01*
X0215692Y0045914D01*
X0214958Y0045914D01*
X0214591Y0046281D01*
X0214591Y0047749D02*
X0214958Y0048116D01*
X0215692Y0048116D01*
X0216059Y0047749D01*
X0205984Y0055600D02*
X0205617Y0055233D01*
X0204883Y0055233D01*
X0204516Y0055600D01*
X0204516Y0056334D02*
X0205250Y0056701D01*
X0205617Y0056701D01*
X0205984Y0056334D01*
X0205984Y0055600D01*
X0204516Y0056334D02*
X0204516Y0057435D01*
X0205984Y0057435D01*
X0206110Y0057811D02*
X0206110Y0062402D01*
X0194511Y0062402D01*
X0194511Y0057811D01*
X0206110Y0057811D01*
X0203774Y0055233D02*
X0202307Y0055233D01*
X0203040Y0055233D02*
X0203040Y0057435D01*
X0202307Y0056701D01*
X0201565Y0057068D02*
X0201198Y0057435D01*
X0200464Y0057435D01*
X0200097Y0057068D01*
X0200097Y0055600D01*
X0200464Y0055233D01*
X0201198Y0055233D01*
X0201565Y0055600D01*
X0201284Y0064603D02*
X0201651Y0064970D01*
X0201284Y0064603D02*
X0200551Y0064603D01*
X0200184Y0064970D01*
X0200184Y0066438D01*
X0200551Y0066805D01*
X0201284Y0066805D01*
X0201651Y0066438D01*
X0202393Y0066071D02*
X0203127Y0066805D01*
X0203127Y0064603D01*
X0202393Y0064603D02*
X0203861Y0064603D01*
X0204603Y0065704D02*
X0206071Y0065704D01*
X0205704Y0064603D02*
X0205704Y0066805D01*
X0204603Y0065704D01*
X0206197Y0067181D02*
X0206197Y0071772D01*
X0194598Y0071772D01*
X0194598Y0067181D01*
X0206197Y0067181D01*
X0207487Y0067103D02*
X0207487Y0066369D01*
X0207854Y0066002D01*
X0207854Y0065261D02*
X0208588Y0065261D01*
X0208955Y0064894D01*
X0208955Y0063793D01*
X0208955Y0064527D02*
X0209689Y0065261D01*
X0209689Y0066002D02*
X0208221Y0067470D01*
X0207854Y0067470D01*
X0207487Y0067103D01*
X0207854Y0068212D02*
X0207487Y0068579D01*
X0207487Y0069313D01*
X0207854Y0069680D01*
X0209322Y0068212D01*
X0209689Y0068579D01*
X0209689Y0069313D01*
X0209322Y0069680D01*
X0207854Y0069680D01*
X0207854Y0068212D02*
X0209322Y0068212D01*
X0209689Y0067470D02*
X0209689Y0066002D01*
X0210115Y0064449D02*
X0215493Y0064449D01*
X0215493Y0076048D01*
X0210115Y0076048D01*
X0210115Y0064449D01*
X0209689Y0063793D02*
X0207487Y0063793D01*
X0207487Y0064894D01*
X0207854Y0065261D01*
X0222601Y0069564D02*
X0223335Y0069564D01*
X0222968Y0069564D02*
X0222968Y0071766D01*
X0222601Y0071766D02*
X0223335Y0071766D01*
X0224074Y0071399D02*
X0224074Y0069931D01*
X0224441Y0069564D01*
X0225175Y0069564D01*
X0225542Y0069931D01*
X0226284Y0069564D02*
X0227752Y0071032D01*
X0227752Y0071399D01*
X0227385Y0071766D01*
X0226651Y0071766D01*
X0226284Y0071399D01*
X0225542Y0071399D02*
X0225175Y0071766D01*
X0224441Y0071766D01*
X0224074Y0071399D01*
X0226284Y0069564D02*
X0227752Y0069564D01*
X0195758Y0084494D02*
X0193556Y0084494D01*
X0193556Y0085595D01*
X0193923Y0085962D01*
X0194657Y0085962D01*
X0195024Y0085595D01*
X0195024Y0084494D01*
X0195024Y0085228D02*
X0195758Y0085962D01*
X0195391Y0086704D02*
X0195758Y0087071D01*
X0195758Y0087805D01*
X0195391Y0088172D01*
X0194657Y0088172D01*
X0194290Y0087805D01*
X0194290Y0087438D01*
X0194657Y0086704D01*
X0193556Y0086704D01*
X0193556Y0088172D01*
X0193132Y0088057D02*
X0187754Y0088057D01*
X0187754Y0076459D01*
X0193132Y0076459D01*
X0193132Y0088057D01*
X0187134Y0088006D02*
X0187134Y0086538D01*
X0187134Y0087272D02*
X0184932Y0087272D01*
X0185666Y0086538D01*
X0185299Y0085796D02*
X0184932Y0085429D01*
X0184932Y0084695D01*
X0185299Y0084328D01*
X0186767Y0084328D01*
X0187134Y0084695D01*
X0187134Y0085429D01*
X0186767Y0085796D01*
X0184555Y0088132D02*
X0179965Y0088132D01*
X0179965Y0076533D01*
X0184555Y0076533D01*
X0184555Y0088132D01*
X0168755Y0088889D02*
X0167287Y0088889D01*
X0168021Y0088889D02*
X0168021Y0091091D01*
X0167287Y0090357D01*
X0166545Y0090724D02*
X0166545Y0089256D01*
X0166178Y0088889D01*
X0165444Y0088889D01*
X0165077Y0089256D01*
X0165077Y0090724D01*
X0165444Y0091091D01*
X0166178Y0091091D01*
X0166545Y0090724D01*
X0165811Y0089623D02*
X0166545Y0088889D01*
X0164929Y0088572D02*
X0164929Y0087471D01*
X0162727Y0087471D01*
X0162727Y0088572D01*
X0163094Y0088938D01*
X0164562Y0088938D01*
X0164929Y0088572D01*
X0164929Y0089680D02*
X0164929Y0091148D01*
X0164929Y0090414D02*
X0162727Y0090414D01*
X0163461Y0089680D01*
X0168225Y0099402D02*
X0169326Y0099402D01*
X0169693Y0099769D01*
X0169693Y0101237D01*
X0169326Y0101604D01*
X0168225Y0101604D01*
X0168225Y0099402D01*
X0170435Y0099769D02*
X0170802Y0099402D01*
X0171536Y0099402D01*
X0171903Y0099769D01*
X0171903Y0100503D01*
X0171536Y0100870D01*
X0171169Y0100870D01*
X0170435Y0100503D01*
X0170435Y0101604D01*
X0171903Y0101604D01*
X0204715Y0101127D02*
X0204715Y0100026D01*
X0206917Y0100026D01*
X0206917Y0101127D01*
X0206550Y0101494D01*
X0205082Y0101494D01*
X0204715Y0101127D01*
X0205816Y0102236D02*
X0205816Y0103704D01*
X0204715Y0103337D02*
X0205816Y0102236D01*
X0206917Y0103337D02*
X0204715Y0103337D01*
X0179312Y0076429D02*
X0178211Y0075328D01*
X0179679Y0075328D01*
X0179312Y0074227D02*
X0179312Y0076429D01*
X0177469Y0076062D02*
X0177469Y0075328D01*
X0177102Y0074961D01*
X0176001Y0074961D01*
X0176001Y0074227D02*
X0176001Y0076429D01*
X0177102Y0076429D01*
X0177469Y0076062D01*
X0176735Y0074961D02*
X0177469Y0074227D01*
X0176658Y0073801D02*
X0176658Y0068423D01*
X0188256Y0068423D01*
X0188256Y0073801D01*
X0176658Y0073801D01*
X0175361Y0073590D02*
X0175361Y0068212D01*
X0163763Y0068212D01*
X0163763Y0073590D01*
X0175361Y0073590D01*
X0166784Y0074383D02*
X0166417Y0074016D01*
X0165683Y0074016D01*
X0165316Y0074383D01*
X0164574Y0074016D02*
X0163840Y0074750D01*
X0164207Y0074750D02*
X0163106Y0074750D01*
X0163106Y0074016D02*
X0163106Y0076218D01*
X0164207Y0076218D01*
X0164574Y0075851D01*
X0164574Y0075117D01*
X0164207Y0074750D01*
X0165316Y0075851D02*
X0165683Y0076218D01*
X0166417Y0076218D01*
X0166784Y0075851D01*
X0166784Y0075484D01*
X0166417Y0075117D01*
X0166784Y0074750D01*
X0166784Y0074383D01*
X0166417Y0075117D02*
X0166050Y0075117D01*
X0161120Y0051316D02*
X0159652Y0051316D01*
X0159285Y0050949D01*
X0159285Y0050215D01*
X0159652Y0049848D01*
X0160019Y0049848D01*
X0160386Y0050215D01*
X0160386Y0051316D01*
X0161120Y0051316D02*
X0161487Y0050949D01*
X0161487Y0050215D01*
X0161120Y0049848D01*
X0161120Y0049106D02*
X0161487Y0048739D01*
X0161487Y0048005D01*
X0161120Y0047638D01*
X0159652Y0047638D01*
X0159285Y0048005D01*
X0159285Y0048739D01*
X0159652Y0049106D01*
X0229364Y0024977D02*
X0229364Y0023509D01*
X0229731Y0022767D02*
X0229364Y0022401D01*
X0229364Y0021667D01*
X0229731Y0021300D01*
X0231199Y0021300D01*
X0231566Y0021667D01*
X0231566Y0022401D01*
X0231199Y0022767D01*
X0231199Y0023509D02*
X0231566Y0023509D01*
X0231199Y0023509D02*
X0229731Y0024977D01*
X0229364Y0024977D01*
X0242763Y0037780D02*
X0243864Y0037780D01*
X0244231Y0038147D01*
X0244231Y0039615D01*
X0243864Y0039982D01*
X0242763Y0039982D01*
X0242763Y0037780D01*
X0244973Y0037780D02*
X0246441Y0037780D01*
X0245707Y0037780D02*
X0245707Y0039982D01*
X0244973Y0039248D01*
X0247183Y0039615D02*
X0247550Y0039982D01*
X0248284Y0039982D01*
X0248650Y0039615D01*
X0248650Y0039248D01*
X0248284Y0038881D01*
X0248650Y0038514D01*
X0248650Y0038147D01*
X0248284Y0037780D01*
X0247550Y0037780D01*
X0247183Y0038147D01*
X0247917Y0038881D02*
X0248284Y0038881D01*
X0129176Y0124121D02*
X0127708Y0122653D01*
X0127708Y0122286D01*
X0126966Y0122653D02*
X0126966Y0124121D01*
X0126599Y0124488D01*
X0125498Y0124488D01*
X0125498Y0122286D01*
X0126599Y0122286D01*
X0126966Y0122653D01*
X0127708Y0124488D02*
X0129176Y0124488D01*
X0129176Y0124121D01*
X0110006Y0144875D02*
X0109272Y0144875D01*
X0108905Y0145242D01*
X0110373Y0146710D01*
X0110373Y0145242D01*
X0110006Y0144875D01*
X0108905Y0145242D02*
X0108905Y0146710D01*
X0109272Y0147077D01*
X0110006Y0147077D01*
X0110373Y0146710D01*
X0110300Y0148309D02*
X0109199Y0148309D01*
X0109199Y0150511D01*
X0110300Y0150511D01*
X0110667Y0150144D01*
X0110667Y0148676D01*
X0110300Y0148309D01*
X0111409Y0148676D02*
X0111776Y0148309D01*
X0112510Y0148309D01*
X0112877Y0148676D01*
X0112877Y0149043D01*
X0112510Y0149410D01*
X0111409Y0149410D01*
X0111409Y0148676D01*
X0111409Y0149410D02*
X0112143Y0150144D01*
X0112877Y0150511D01*
X0107429Y0147077D02*
X0107429Y0144875D01*
X0106695Y0144875D02*
X0108163Y0144875D01*
X0106695Y0146343D02*
X0107429Y0147077D01*
X0105953Y0146710D02*
X0105953Y0145242D01*
X0105586Y0144875D01*
X0104485Y0144875D01*
X0104485Y0147077D01*
X0105586Y0147077D01*
X0105953Y0146710D01*
X0096661Y0142881D02*
X0096661Y0137503D01*
X0085062Y0137503D01*
X0085062Y0142881D01*
X0096661Y0142881D01*
X0088083Y0143675D02*
X0088083Y0145142D01*
X0087716Y0145509D01*
X0086982Y0145509D01*
X0086615Y0145142D01*
X0086615Y0144775D01*
X0086982Y0144409D01*
X0088083Y0144409D01*
X0088083Y0143675D02*
X0087716Y0143308D01*
X0086982Y0143308D01*
X0086615Y0143675D01*
X0085873Y0143308D02*
X0085139Y0144042D01*
X0085506Y0144042D02*
X0084405Y0144042D01*
X0084405Y0143308D02*
X0084405Y0145509D01*
X0085506Y0145509D01*
X0085873Y0145142D01*
X0085873Y0144409D01*
X0085506Y0144042D01*
X0084928Y0148291D02*
X0079550Y0148291D01*
X0079550Y0159889D01*
X0084928Y0159889D01*
X0084928Y0148291D01*
X0079124Y0147634D02*
X0076922Y0147634D01*
X0076922Y0148735D01*
X0077289Y0149102D01*
X0078023Y0149102D01*
X0078390Y0148735D01*
X0078390Y0147634D01*
X0078390Y0148368D02*
X0079124Y0149102D01*
X0078757Y0149844D02*
X0079124Y0150211D01*
X0079124Y0150945D01*
X0078757Y0151312D01*
X0078390Y0151312D01*
X0078023Y0150945D01*
X0078023Y0149844D01*
X0078757Y0149844D01*
X0078023Y0149844D02*
X0077289Y0150578D01*
X0076922Y0151312D01*
X0074377Y0148054D02*
X0069787Y0148054D01*
X0069787Y0159653D01*
X0074377Y0159653D01*
X0074377Y0148054D01*
X0075120Y0155850D02*
X0074753Y0156217D01*
X0074753Y0156951D01*
X0075120Y0157317D01*
X0075120Y0158059D02*
X0074753Y0158426D01*
X0074753Y0159160D01*
X0075120Y0159527D01*
X0075487Y0159527D01*
X0076955Y0158059D01*
X0076955Y0159527D01*
X0076588Y0157317D02*
X0076955Y0156951D01*
X0076955Y0156217D01*
X0076588Y0155850D01*
X0075120Y0155850D01*
X0069590Y0162739D02*
X0069590Y0168117D01*
X0081188Y0168117D01*
X0081188Y0162739D01*
X0069590Y0162739D01*
X0068933Y0168544D02*
X0068933Y0170746D01*
X0070034Y0170746D01*
X0070401Y0170379D01*
X0070401Y0169645D01*
X0070034Y0169278D01*
X0068933Y0169278D01*
X0069667Y0169278D02*
X0070401Y0168544D01*
X0071143Y0168544D02*
X0071143Y0168911D01*
X0072611Y0170379D01*
X0072611Y0170746D01*
X0071143Y0170746D01*
X0057474Y0170658D02*
X0057474Y0171025D01*
X0057107Y0171392D01*
X0056373Y0171392D01*
X0056006Y0171025D01*
X0055264Y0171025D02*
X0055264Y0169557D01*
X0054897Y0169190D01*
X0054163Y0169190D01*
X0053796Y0169557D01*
X0053796Y0171025D01*
X0054163Y0171392D01*
X0054897Y0171392D01*
X0055264Y0171025D01*
X0054530Y0169924D02*
X0055264Y0169190D01*
X0056006Y0169190D02*
X0057474Y0170658D01*
X0057474Y0169190D02*
X0056006Y0169190D01*
X0051503Y0165637D02*
X0051503Y0160259D01*
X0039905Y0160259D01*
X0039905Y0165637D01*
X0051503Y0165637D01*
X0050884Y0159834D02*
X0050150Y0159101D01*
X0049408Y0159467D02*
X0049408Y0158734D01*
X0049041Y0158367D01*
X0047940Y0158367D01*
X0047275Y0158426D02*
X0047275Y0158793D01*
X0046908Y0159160D01*
X0046174Y0159160D01*
X0045807Y0158793D01*
X0045065Y0158793D02*
X0045065Y0158426D01*
X0043597Y0156958D01*
X0045065Y0156958D01*
X0045807Y0156958D02*
X0047275Y0158426D01*
X0047940Y0157633D02*
X0047940Y0159834D01*
X0049041Y0159834D01*
X0049408Y0159467D01*
X0048674Y0158367D02*
X0049408Y0157633D01*
X0050150Y0157633D02*
X0051618Y0157633D01*
X0050884Y0157633D02*
X0050884Y0159834D01*
X0053642Y0156532D02*
X0053642Y0151154D01*
X0042044Y0151154D01*
X0042044Y0156532D01*
X0053642Y0156532D01*
X0047275Y0156958D02*
X0045807Y0156958D01*
X0045065Y0158793D02*
X0044698Y0159160D01*
X0043964Y0159160D01*
X0043597Y0158793D01*
X0042855Y0158793D02*
X0042855Y0158059D01*
X0042488Y0157692D01*
X0041387Y0157692D01*
X0041387Y0156958D02*
X0041387Y0159160D01*
X0042488Y0159160D01*
X0042855Y0158793D01*
X0042121Y0157692D02*
X0042855Y0156958D01*
X0055607Y0144486D02*
X0055607Y0143019D01*
X0055607Y0143752D02*
X0053405Y0143752D01*
X0054139Y0143019D01*
X0053405Y0142277D02*
X0053405Y0140809D01*
X0053405Y0141543D02*
X0055607Y0141543D01*
X0039461Y0137078D02*
X0037993Y0137078D01*
X0038727Y0137078D02*
X0038727Y0139280D01*
X0037993Y0138546D01*
X0037251Y0136711D02*
X0035783Y0136711D01*
X0035041Y0137078D02*
X0033573Y0137078D01*
X0033573Y0137445D01*
X0035041Y0138913D01*
X0035041Y0139280D01*
X0033573Y0139280D01*
X0032831Y0139280D02*
X0032831Y0138913D01*
X0031363Y0137445D01*
X0031363Y0137078D01*
X0032831Y0137078D01*
X0032831Y0139280D02*
X0031363Y0139280D01*
X0030621Y0139280D02*
X0030621Y0137445D01*
X0030254Y0137078D01*
X0029520Y0137078D01*
X0029153Y0137445D01*
X0029153Y0139280D01*
X0028411Y0138913D02*
X0028411Y0138546D01*
X0028044Y0138179D01*
X0026943Y0138179D01*
X0026943Y0137078D02*
X0026943Y0139280D01*
X0028044Y0139280D01*
X0028411Y0138913D01*
X0028044Y0138179D02*
X0028411Y0137812D01*
X0028411Y0137445D01*
X0028044Y0137078D01*
X0026943Y0137078D01*
X0038544Y0126318D02*
X0038911Y0125584D01*
X0039645Y0124850D01*
X0039645Y0125951D01*
X0040012Y0126318D01*
X0040379Y0126318D01*
X0040746Y0125951D01*
X0040746Y0125217D01*
X0040379Y0124850D01*
X0039645Y0124850D01*
X0040746Y0124108D02*
X0040746Y0122640D01*
X0040746Y0123374D02*
X0038544Y0123374D01*
X0039278Y0122640D01*
X0038911Y0121898D02*
X0038544Y0121531D01*
X0038544Y0120430D01*
X0040746Y0120430D01*
X0040746Y0121531D01*
X0040379Y0121898D01*
X0038911Y0121898D01*
X0041991Y0116976D02*
X0053590Y0116976D01*
X0053590Y0111598D01*
X0041991Y0111598D01*
X0041991Y0116976D01*
X0050027Y0111173D02*
X0051128Y0111173D01*
X0051495Y0110806D01*
X0051495Y0110072D01*
X0051128Y0109705D01*
X0050027Y0109705D01*
X0050761Y0109705D02*
X0051495Y0108971D01*
X0052237Y0108971D02*
X0053705Y0110439D01*
X0053705Y0110806D01*
X0053338Y0111173D01*
X0052604Y0111173D01*
X0052237Y0110806D01*
X0052237Y0108971D02*
X0053705Y0108971D01*
X0054005Y0112064D02*
X0053638Y0112431D01*
X0053638Y0113165D01*
X0054005Y0113532D01*
X0055473Y0113532D01*
X0055840Y0113165D01*
X0055840Y0112431D01*
X0055473Y0112064D01*
X0054005Y0112064D01*
X0055106Y0112798D02*
X0055840Y0113532D01*
X0055473Y0114274D02*
X0055840Y0114641D01*
X0055840Y0115375D01*
X0055473Y0115742D01*
X0055106Y0115742D01*
X0054739Y0115375D01*
X0054739Y0115008D01*
X0054739Y0115375D02*
X0054372Y0115742D01*
X0054005Y0115742D01*
X0053638Y0115375D01*
X0053638Y0114641D01*
X0054005Y0114274D01*
X0050027Y0111173D02*
X0050027Y0108971D01*
X0039443Y0107087D02*
X0039076Y0107454D01*
X0038343Y0107454D01*
X0037976Y0107087D01*
X0039443Y0107087D02*
X0039443Y0106720D01*
X0037976Y0105252D01*
X0039443Y0105252D01*
X0037234Y0104885D02*
X0035766Y0104885D01*
X0035024Y0105252D02*
X0033556Y0105252D01*
X0033556Y0107454D01*
X0035024Y0107454D01*
X0034290Y0106353D02*
X0033556Y0106353D01*
X0032814Y0106353D02*
X0032447Y0105986D01*
X0031346Y0105986D01*
X0032080Y0105986D02*
X0032814Y0105252D01*
X0032814Y0106353D02*
X0032814Y0107087D01*
X0032447Y0107454D01*
X0031346Y0107454D01*
X0031346Y0105252D01*
X0030604Y0104885D02*
X0029136Y0104885D01*
X0028394Y0105619D02*
X0028027Y0105252D01*
X0027293Y0105252D01*
X0026926Y0105619D01*
X0027293Y0106353D02*
X0028027Y0106353D01*
X0028394Y0105986D01*
X0028394Y0105619D01*
X0027293Y0106353D02*
X0026926Y0106720D01*
X0026926Y0107087D01*
X0027293Y0107454D01*
X0028027Y0107454D01*
X0028394Y0107087D01*
X0023274Y0120835D02*
X0023641Y0121202D01*
X0023641Y0121569D01*
X0023274Y0121936D01*
X0022173Y0121936D01*
X0022173Y0121202D01*
X0022540Y0120835D01*
X0023274Y0120835D01*
X0022173Y0121936D02*
X0022907Y0122670D01*
X0023641Y0123037D01*
X0021431Y0120468D02*
X0019963Y0120468D01*
X0019221Y0121202D02*
X0018854Y0120835D01*
X0017753Y0120835D01*
X0017753Y0123037D01*
X0018854Y0123037D01*
X0019221Y0122670D01*
X0019221Y0122303D01*
X0018854Y0121936D01*
X0017753Y0121936D01*
X0017011Y0121936D02*
X0015543Y0121936D01*
X0015543Y0120835D02*
X0015543Y0123037D01*
X0017011Y0123037D02*
X0017011Y0120835D01*
X0018854Y0121936D02*
X0019221Y0121569D01*
X0019221Y0121202D01*
X0018859Y0091238D02*
X0018126Y0091238D01*
X0017759Y0090871D01*
X0017759Y0089403D01*
X0018126Y0089036D01*
X0018859Y0089036D01*
X0019226Y0089403D01*
X0019226Y0090871D01*
X0018859Y0091238D01*
X0017017Y0091238D02*
X0015549Y0091238D01*
X0016283Y0091238D02*
X0016283Y0089036D01*
X0014807Y0090137D02*
X0014440Y0089770D01*
X0013339Y0089770D01*
X0013339Y0089036D02*
X0013339Y0091238D01*
X0014440Y0091238D01*
X0014807Y0090871D01*
X0014807Y0090137D01*
X0019968Y0088669D02*
X0021436Y0088669D01*
X0022178Y0089036D02*
X0022178Y0089403D01*
X0023646Y0090871D01*
X0023646Y0091238D01*
X0022178Y0091238D01*
X0020575Y0075804D02*
X0019841Y0075804D01*
X0019475Y0075437D01*
X0019475Y0075070D01*
X0019841Y0074703D01*
X0020942Y0074703D01*
X0020942Y0073969D02*
X0020942Y0075437D01*
X0020575Y0075804D01*
X0020942Y0073969D02*
X0020575Y0073602D01*
X0019841Y0073602D01*
X0019475Y0073969D01*
X0018733Y0073235D02*
X0017265Y0073235D01*
X0016523Y0073969D02*
X0016523Y0074703D01*
X0015789Y0074703D01*
X0016523Y0075437D02*
X0016156Y0075804D01*
X0015422Y0075804D01*
X0015055Y0075437D01*
X0015055Y0073969D01*
X0015422Y0073602D01*
X0016156Y0073602D01*
X0016523Y0073969D01*
X0014313Y0073602D02*
X0014313Y0075804D01*
X0012845Y0075804D02*
X0012845Y0073602D01*
X0012103Y0073602D02*
X0010635Y0073602D01*
X0010635Y0075804D01*
X0012103Y0075804D01*
X0012845Y0075804D02*
X0014313Y0073602D01*
X0011369Y0074703D02*
X0010635Y0074703D01*
X0024699Y0074551D02*
X0025433Y0074551D01*
X0024699Y0073450D02*
X0026167Y0073450D01*
X0026909Y0073450D02*
X0026909Y0075652D01*
X0028376Y0073450D01*
X0028376Y0075652D01*
X0026167Y0075652D02*
X0024699Y0075652D01*
X0024699Y0073450D01*
X0029118Y0073083D02*
X0030586Y0073083D01*
X0031328Y0073450D02*
X0031328Y0075652D01*
X0032429Y0075652D01*
X0032796Y0075285D01*
X0032796Y0074551D01*
X0032429Y0074184D01*
X0031328Y0074184D01*
X0032062Y0074184D02*
X0032796Y0073450D01*
X0033538Y0073450D02*
X0035006Y0073450D01*
X0035748Y0073083D02*
X0037216Y0073083D01*
X0037958Y0073817D02*
X0037958Y0074184D01*
X0038325Y0074551D01*
X0039059Y0074551D01*
X0039426Y0074184D01*
X0039426Y0073817D01*
X0039059Y0073450D01*
X0038325Y0073450D01*
X0037958Y0073817D01*
X0038325Y0074551D02*
X0037958Y0074918D01*
X0037958Y0075285D01*
X0038325Y0075652D01*
X0039059Y0075652D01*
X0039426Y0075285D01*
X0039426Y0074918D01*
X0039059Y0074551D01*
X0033538Y0075652D02*
X0033538Y0073450D01*
X0085259Y0123251D02*
X0085259Y0134850D01*
X0089850Y0134850D01*
X0089850Y0123251D01*
X0085259Y0123251D01*
X0091922Y0123695D02*
X0092289Y0124062D01*
X0093023Y0124062D01*
X0093390Y0123695D01*
X0093390Y0122594D01*
X0094124Y0122594D02*
X0091922Y0122594D01*
X0091922Y0123695D01*
X0092289Y0124804D02*
X0092656Y0124804D01*
X0093023Y0125171D01*
X0093023Y0125905D01*
X0093390Y0126272D01*
X0093757Y0126272D01*
X0094124Y0125905D01*
X0094124Y0125171D01*
X0093757Y0124804D01*
X0093390Y0124804D01*
X0093023Y0125171D01*
X0093023Y0125905D02*
X0092656Y0126272D01*
X0092289Y0126272D01*
X0091922Y0125905D01*
X0091922Y0125171D01*
X0092289Y0124804D01*
X0093390Y0123328D02*
X0094124Y0124062D01*
X0094550Y0123251D02*
X0099928Y0123251D01*
X0099928Y0134850D01*
X0094550Y0134850D01*
X0094550Y0123251D01*
X0092061Y0131046D02*
X0090593Y0131046D01*
X0090226Y0131413D01*
X0090226Y0132147D01*
X0090593Y0132514D01*
X0090593Y0133256D02*
X0090226Y0133623D01*
X0090226Y0134357D01*
X0090593Y0134724D01*
X0090960Y0134724D01*
X0091327Y0134357D01*
X0091694Y0134724D01*
X0092061Y0134724D01*
X0092428Y0134357D01*
X0092428Y0133623D01*
X0092061Y0133256D01*
X0092061Y0132514D02*
X0092428Y0132147D01*
X0092428Y0131413D01*
X0092061Y0131046D01*
X0091327Y0133990D02*
X0091327Y0134357D01*
X0091471Y0169875D02*
X0092205Y0169875D01*
X0092572Y0170242D01*
X0092572Y0171710D01*
X0092205Y0172077D01*
X0091471Y0172077D01*
X0091104Y0171710D01*
X0091104Y0171343D01*
X0091471Y0170976D01*
X0092572Y0170976D01*
X0091471Y0169875D02*
X0091104Y0170242D01*
X0090362Y0170242D02*
X0090362Y0171710D01*
X0089995Y0172077D01*
X0088894Y0172077D01*
X0088894Y0169875D01*
X0089995Y0169875D01*
X0090362Y0170242D01*
X0147385Y0166228D02*
X0147385Y0154629D01*
X0151976Y0154629D01*
X0151976Y0166228D01*
X0147385Y0166228D01*
X0152352Y0165735D02*
X0153453Y0164634D01*
X0153453Y0166102D01*
X0154554Y0165735D02*
X0152352Y0165735D01*
X0152719Y0163892D02*
X0152352Y0163525D01*
X0152352Y0162791D01*
X0152719Y0162424D01*
X0154187Y0162424D01*
X0154554Y0162791D01*
X0154554Y0163525D01*
X0154187Y0163892D01*
X0161916Y0165863D02*
X0167294Y0165863D01*
X0167294Y0154265D01*
X0161916Y0154265D01*
X0161916Y0165863D01*
X0167718Y0165244D02*
X0169920Y0165244D01*
X0169920Y0164510D02*
X0169920Y0165978D01*
X0168452Y0164510D02*
X0167718Y0165244D01*
X0167718Y0163034D02*
X0169920Y0163034D01*
X0169920Y0162300D02*
X0169920Y0163768D01*
X0168452Y0162300D02*
X0167718Y0163034D01*
X0168085Y0161558D02*
X0168819Y0161558D01*
X0169186Y0161191D01*
X0169186Y0160090D01*
X0169920Y0160090D02*
X0167718Y0160090D01*
X0167718Y0161191D01*
X0168085Y0161558D01*
X0169186Y0160824D02*
X0169920Y0161558D01*
X0172729Y0160708D02*
X0172729Y0172307D01*
X0177320Y0172307D01*
X0177320Y0160708D01*
X0172729Y0160708D01*
X0178063Y0168503D02*
X0179531Y0168503D01*
X0179898Y0168870D01*
X0179898Y0169604D01*
X0179531Y0169971D01*
X0179531Y0170713D02*
X0179898Y0171080D01*
X0179898Y0171814D01*
X0179531Y0172181D01*
X0178797Y0172181D01*
X0178430Y0171814D01*
X0178430Y0171447D01*
X0178797Y0170713D01*
X0177696Y0170713D01*
X0177696Y0172181D01*
X0178063Y0169971D02*
X0177696Y0169604D01*
X0177696Y0168870D01*
X0178063Y0168503D01*
X0197259Y0161256D02*
X0199461Y0161256D01*
X0199461Y0160522D02*
X0199461Y0161990D01*
X0197993Y0160522D02*
X0197259Y0161256D01*
X0197626Y0159780D02*
X0197259Y0159413D01*
X0197259Y0158679D01*
X0197626Y0158312D01*
X0199094Y0158312D01*
X0199461Y0158679D01*
X0199461Y0159413D01*
X0199094Y0159780D01*
X0199461Y0157573D02*
X0199461Y0156839D01*
X0199461Y0157206D02*
X0197259Y0157206D01*
X0197259Y0156839D02*
X0197259Y0157573D01*
X0023695Y0154895D02*
X0022228Y0154895D01*
X0022228Y0153794D01*
X0022961Y0154161D01*
X0023328Y0154161D01*
X0023695Y0153794D01*
X0023695Y0153060D01*
X0023328Y0152693D01*
X0022595Y0152693D01*
X0022228Y0153060D01*
X0021486Y0152326D02*
X0020018Y0152326D01*
X0019276Y0153060D02*
X0019276Y0154528D01*
X0018909Y0154895D01*
X0017808Y0154895D01*
X0017808Y0152693D01*
X0018909Y0152693D01*
X0019276Y0153060D01*
X0017066Y0152693D02*
X0017066Y0154895D01*
X0015598Y0154895D02*
X0015598Y0152693D01*
X0014859Y0152693D02*
X0014125Y0152693D01*
X0014492Y0152693D02*
X0014492Y0154895D01*
X0014125Y0154895D02*
X0014859Y0154895D01*
X0015598Y0154895D02*
X0017066Y0152693D01*
X0013383Y0153794D02*
X0013016Y0153427D01*
X0011915Y0153427D01*
X0011915Y0152693D02*
X0011915Y0154895D01*
X0013016Y0154895D01*
X0013383Y0154528D01*
X0013383Y0153794D01*
D12*
X0012861Y0155743D02*
X0011255Y0155743D01*
X0011255Y0157350D01*
X0022011Y0155743D02*
X0023617Y0155743D01*
X0023617Y0157350D01*
X0027020Y0152491D02*
X0027020Y0150884D01*
X0027020Y0152491D02*
X0028627Y0152491D01*
X0037776Y0152491D02*
X0039383Y0152491D01*
X0039383Y0150884D01*
X0039383Y0141735D02*
X0039383Y0140128D01*
X0037776Y0140128D01*
X0028627Y0140128D02*
X0027020Y0140128D01*
X0027020Y0141735D01*
X0023563Y0136247D02*
X0021956Y0136247D01*
X0023563Y0136247D02*
X0023563Y0134641D01*
X0012807Y0136247D02*
X0011200Y0136247D01*
X0011200Y0134641D01*
X0011200Y0125492D02*
X0011200Y0123885D01*
X0012807Y0123885D01*
X0021956Y0123885D02*
X0023563Y0123885D01*
X0023563Y0125492D01*
X0027003Y0120665D02*
X0027003Y0119058D01*
X0027003Y0120665D02*
X0028609Y0120665D01*
X0037759Y0120665D02*
X0039365Y0120665D01*
X0039365Y0119058D01*
X0039365Y0109909D02*
X0039365Y0108302D01*
X0037759Y0108302D01*
X0028609Y0108302D02*
X0027003Y0108302D01*
X0027003Y0109909D01*
X0023568Y0104449D02*
X0021962Y0104449D01*
X0023568Y0104449D02*
X0023568Y0102842D01*
X0012812Y0104449D02*
X0011206Y0104449D01*
X0011206Y0102842D01*
X0011206Y0093693D02*
X0011206Y0092086D01*
X0012812Y0092086D01*
X0021962Y0092086D02*
X0023568Y0092086D01*
X0023568Y0093693D01*
X0026986Y0088863D02*
X0026986Y0087257D01*
X0026986Y0088863D02*
X0028592Y0088863D01*
X0037741Y0088863D02*
X0039348Y0088863D01*
X0039348Y0087257D01*
X0039348Y0078107D02*
X0039348Y0076501D01*
X0037741Y0076501D01*
X0028592Y0076501D02*
X0026986Y0076501D01*
X0026986Y0078107D01*
X0023617Y0072751D02*
X0022011Y0072751D01*
X0023617Y0072751D02*
X0023617Y0071145D01*
X0012861Y0072751D02*
X0011255Y0072751D01*
X0011255Y0071145D01*
X0011255Y0061995D02*
X0011255Y0060389D01*
X0012861Y0060389D01*
X0022011Y0060389D02*
X0023617Y0060389D01*
X0023617Y0061995D01*
X0026967Y0057203D02*
X0026967Y0055596D01*
X0026967Y0057203D02*
X0028573Y0057203D01*
X0037722Y0057203D02*
X0039329Y0057203D01*
X0039329Y0055596D01*
X0039329Y0046447D02*
X0039329Y0044840D01*
X0037722Y0044840D01*
X0028573Y0044840D02*
X0026967Y0044840D01*
X0026967Y0046447D01*
X0023599Y0040952D02*
X0021993Y0040952D01*
X0023599Y0040952D02*
X0023599Y0039346D01*
X0012843Y0040952D02*
X0011237Y0040952D01*
X0011237Y0039346D01*
X0011237Y0030196D02*
X0011237Y0028590D01*
X0012843Y0028590D01*
X0021993Y0028590D02*
X0023599Y0028590D01*
X0023599Y0030196D01*
X0027012Y0025411D02*
X0027012Y0023805D01*
X0027012Y0025411D02*
X0028619Y0025411D01*
X0037768Y0025411D02*
X0039374Y0025411D01*
X0039374Y0023805D01*
X0039374Y0014655D02*
X0039374Y0013049D01*
X0037768Y0013049D01*
X0028619Y0013049D02*
X0027012Y0013049D01*
X0027012Y0014655D01*
X0167200Y0024716D02*
X0167200Y0025216D01*
X0167200Y0027216D02*
X0167200Y0027716D01*
X0166649Y0052078D02*
X0166649Y0052578D01*
X0166649Y0054578D02*
X0166649Y0055078D01*
X0202751Y0028149D02*
X0202751Y0027649D01*
X0202751Y0025649D02*
X0202751Y0025149D01*
X0236728Y0025739D02*
X0236728Y0026239D01*
X0236728Y0028239D02*
X0236728Y0028739D01*
X0242822Y0123924D02*
X0243822Y0123924D01*
X0242822Y0123924D02*
X0242822Y0124924D01*
X0242822Y0128924D02*
X0242822Y0129924D01*
X0243822Y0129924D01*
X0247822Y0129924D02*
X0248822Y0129924D01*
X0248822Y0128924D01*
X0248822Y0124924D02*
X0248822Y0123924D01*
X0247822Y0123924D01*
X0247901Y0134161D02*
X0248901Y0134161D01*
X0248901Y0135161D01*
X0248901Y0139161D02*
X0248901Y0140161D01*
X0247901Y0140161D01*
X0243901Y0140161D02*
X0242901Y0140161D01*
X0242901Y0139161D01*
X0242901Y0135161D02*
X0242901Y0134161D01*
X0243901Y0134161D01*
X0243783Y0144161D02*
X0242783Y0144161D01*
X0242783Y0145161D01*
X0242783Y0149161D02*
X0242783Y0150161D01*
X0243783Y0150161D01*
X0247783Y0150161D02*
X0248783Y0150161D01*
X0248783Y0149161D01*
X0248783Y0145161D02*
X0248783Y0144161D01*
X0247783Y0144161D01*
X0247783Y0154043D02*
X0248783Y0154043D01*
X0248783Y0155043D01*
X0248783Y0159043D02*
X0248783Y0160043D01*
X0247783Y0160043D01*
X0243783Y0160043D02*
X0242783Y0160043D01*
X0242783Y0159043D01*
X0242783Y0155043D02*
X0242783Y0154043D01*
X0243783Y0154043D01*
X0243743Y0164121D02*
X0242743Y0164121D01*
X0242743Y0165121D01*
X0242743Y0169121D02*
X0242743Y0170121D01*
X0243743Y0170121D01*
X0247743Y0170121D02*
X0248743Y0170121D01*
X0248743Y0169121D01*
X0248743Y0165121D02*
X0248743Y0164121D01*
X0247743Y0164121D01*
X0081620Y0122505D02*
X0077350Y0122505D01*
X0079485Y0122505D02*
X0079485Y0128910D01*
X0077350Y0126775D01*
X0075175Y0128910D02*
X0070905Y0124640D01*
X0071972Y0125708D02*
X0075175Y0122505D01*
X0070905Y0122505D02*
X0070905Y0128910D01*
X0023617Y0166499D02*
X0023617Y0168106D01*
X0022011Y0168106D01*
X0012861Y0168106D02*
X0011255Y0168106D01*
X0011255Y0166499D01*
D13*
X0163649Y0054578D02*
X0166649Y0054578D01*
X0169649Y0054578D01*
X0169649Y0052578D02*
X0166649Y0052578D01*
X0163649Y0052578D01*
X0199751Y0027649D02*
X0202751Y0027649D01*
X0205751Y0027649D01*
X0205751Y0025649D02*
X0202751Y0025649D01*
X0199751Y0025649D01*
X0170200Y0025216D02*
X0167200Y0025216D01*
X0164200Y0025216D01*
X0164200Y0027216D02*
X0167200Y0027216D01*
X0170200Y0027216D01*
X0233728Y0026239D02*
X0236728Y0026239D01*
X0239728Y0026239D01*
X0239728Y0028239D02*
X0236728Y0028239D01*
X0233728Y0028239D01*
D14*
X0233141Y0018647D02*
X0233141Y0018610D01*
X0199165Y0018056D02*
X0199165Y0018019D01*
X0163614Y0017623D02*
X0163614Y0017586D01*
X0163063Y0044948D02*
X0163063Y0044986D01*
D15*
X0162397Y0047003D02*
X0162397Y0060192D01*
X0162398Y0060320D01*
X0162402Y0060448D01*
X0162410Y0060575D01*
X0162421Y0060703D01*
X0162437Y0060830D01*
X0162457Y0060956D01*
X0162480Y0061082D01*
X0162507Y0061207D01*
X0162538Y0061331D01*
X0162573Y0061454D01*
X0162612Y0061576D01*
X0162654Y0061696D01*
X0162700Y0061816D01*
X0162749Y0061934D01*
X0162803Y0062050D01*
X0162859Y0062165D01*
X0162919Y0062278D01*
X0162983Y0062389D01*
X0163050Y0062498D01*
X0163120Y0062604D01*
X0163193Y0062709D01*
X0163270Y0062812D01*
X0163349Y0062912D01*
X0163432Y0063009D01*
X0163518Y0063104D01*
X0163606Y0063197D01*
X0163697Y0063286D01*
X0163791Y0063373D01*
X0163888Y0063457D01*
X0163987Y0063538D01*
X0164088Y0063616D01*
X0164192Y0063691D01*
X0164298Y0063762D01*
X0164406Y0063830D01*
X0164516Y0063895D01*
X0164628Y0063957D01*
X0164742Y0064015D01*
X0164858Y0064070D01*
X0164975Y0064121D01*
X0165094Y0064168D01*
X0165214Y0064212D01*
X0165336Y0064252D01*
X0165458Y0064288D01*
X0165582Y0064321D01*
X0165706Y0064350D01*
X0165832Y0064375D01*
X0165958Y0064396D01*
X0166085Y0064413D01*
X0166212Y0064427D01*
X0166339Y0064436D01*
X0166467Y0064442D01*
X0166595Y0064444D01*
X0166723Y0064442D01*
X0166851Y0064436D01*
X0166978Y0064426D01*
X0167105Y0064412D01*
X0167232Y0064395D01*
X0167358Y0064373D01*
X0167483Y0064348D01*
X0167608Y0064319D01*
X0167731Y0064286D01*
X0167854Y0064249D01*
X0167975Y0064209D01*
X0168095Y0064165D01*
X0168214Y0064117D01*
X0168331Y0064065D01*
X0168447Y0064011D01*
X0168560Y0063952D01*
X0168672Y0063890D01*
X0168782Y0063825D01*
X0168890Y0063757D01*
X0168996Y0063685D01*
X0169100Y0063610D01*
X0169201Y0063532D01*
X0169300Y0063451D01*
X0169396Y0063367D01*
X0169490Y0063280D01*
X0169581Y0063190D01*
X0169669Y0063097D01*
X0169754Y0063002D01*
X0169837Y0062904D01*
X0169916Y0062804D01*
X0169993Y0062701D01*
X0170066Y0062596D01*
X0170136Y0062489D01*
X0170202Y0062380D01*
X0170265Y0062269D01*
X0170325Y0062156D01*
X0170382Y0062041D01*
X0170434Y0061925D01*
X0170484Y0061807D01*
X0170529Y0061687D01*
X0170571Y0061566D01*
X0170610Y0061444D01*
X0170644Y0061321D01*
X0170675Y0061197D01*
X0170702Y0061072D01*
X0170725Y0060946D01*
X0170744Y0060820D01*
X0170760Y0060693D01*
X0170771Y0060566D01*
X0170779Y0060438D01*
X0170783Y0060310D01*
X0170783Y0047121D01*
X0170782Y0046992D01*
X0170778Y0046863D01*
X0170770Y0046734D01*
X0170758Y0046605D01*
X0170742Y0046477D01*
X0170722Y0046350D01*
X0170698Y0046223D01*
X0170670Y0046097D01*
X0170639Y0045971D01*
X0170603Y0045847D01*
X0170564Y0045724D01*
X0170521Y0045603D01*
X0170474Y0045482D01*
X0170423Y0045363D01*
X0170369Y0045246D01*
X0170312Y0045131D01*
X0170250Y0045017D01*
X0170186Y0044905D01*
X0170118Y0044795D01*
X0170046Y0044688D01*
X0169971Y0044583D01*
X0169893Y0044480D01*
X0169812Y0044379D01*
X0169728Y0044281D01*
X0169641Y0044186D01*
X0169551Y0044093D01*
X0169458Y0044003D01*
X0169363Y0043917D01*
X0169264Y0043833D01*
X0169164Y0043752D01*
X0169061Y0043674D01*
X0168955Y0043600D01*
X0168847Y0043528D01*
X0168737Y0043461D01*
X0168626Y0043396D01*
X0168512Y0043335D01*
X0168396Y0043278D01*
X0168279Y0043224D01*
X0168160Y0043174D01*
X0168039Y0043127D01*
X0167917Y0043085D01*
X0167794Y0043046D01*
X0167670Y0043010D01*
X0167545Y0042979D01*
X0167418Y0042952D01*
X0167291Y0042928D01*
X0167164Y0042908D01*
X0167036Y0042893D01*
X0166907Y0042881D01*
X0166778Y0042873D01*
X0166649Y0042869D01*
X0166520Y0042870D01*
X0166391Y0042874D01*
X0166262Y0042882D01*
X0166133Y0042894D01*
X0166005Y0042910D01*
X0165878Y0042930D01*
X0165751Y0042954D01*
X0165625Y0042982D01*
X0165499Y0043013D01*
X0165375Y0043049D01*
X0165252Y0043088D01*
X0165131Y0043131D01*
X0165010Y0043178D01*
X0164891Y0043229D01*
X0164774Y0043283D01*
X0164659Y0043340D01*
X0164545Y0043402D01*
X0164433Y0043466D01*
X0164323Y0043534D01*
X0164216Y0043606D01*
X0164111Y0043681D01*
X0164008Y0043759D01*
X0163907Y0043840D01*
X0163809Y0043924D01*
X0163714Y0044011D01*
X0163621Y0044101D01*
X0163531Y0044194D01*
X0163445Y0044289D01*
X0163361Y0044388D01*
X0163280Y0044488D01*
X0163202Y0044591D01*
X0163128Y0044697D01*
X0163056Y0044805D01*
X0162989Y0044915D01*
X0162924Y0045026D01*
X0162863Y0045140D01*
X0162806Y0045256D01*
X0162752Y0045373D01*
X0162702Y0045492D01*
X0162655Y0045613D01*
X0162613Y0045735D01*
X0162574Y0045858D01*
X0162538Y0045982D01*
X0162507Y0046107D01*
X0162480Y0046234D01*
X0162456Y0046361D01*
X0162436Y0046488D01*
X0162421Y0046616D01*
X0162409Y0046745D01*
X0162401Y0046874D01*
X0162397Y0047003D01*
X0156649Y0053578D02*
X0156652Y0053823D01*
X0156661Y0054069D01*
X0156676Y0054314D01*
X0156697Y0054558D01*
X0156724Y0054802D01*
X0156757Y0055045D01*
X0156796Y0055288D01*
X0156841Y0055529D01*
X0156892Y0055769D01*
X0156949Y0056008D01*
X0157011Y0056245D01*
X0157080Y0056481D01*
X0157154Y0056715D01*
X0157234Y0056947D01*
X0157319Y0057177D01*
X0157410Y0057405D01*
X0157507Y0057630D01*
X0157609Y0057854D01*
X0157717Y0058074D01*
X0157830Y0058292D01*
X0157948Y0058507D01*
X0158072Y0058719D01*
X0158200Y0058928D01*
X0158334Y0059134D01*
X0158473Y0059336D01*
X0158617Y0059535D01*
X0158766Y0059730D01*
X0158919Y0059922D01*
X0159077Y0060110D01*
X0159239Y0060294D01*
X0159407Y0060473D01*
X0159578Y0060649D01*
X0159754Y0060820D01*
X0159933Y0060988D01*
X0160117Y0061150D01*
X0160305Y0061308D01*
X0160497Y0061461D01*
X0160692Y0061610D01*
X0160891Y0061754D01*
X0161093Y0061893D01*
X0161299Y0062027D01*
X0161508Y0062155D01*
X0161720Y0062279D01*
X0161935Y0062397D01*
X0162153Y0062510D01*
X0162373Y0062618D01*
X0162597Y0062720D01*
X0162822Y0062817D01*
X0163050Y0062908D01*
X0163280Y0062993D01*
X0163512Y0063073D01*
X0163746Y0063147D01*
X0163982Y0063216D01*
X0164219Y0063278D01*
X0164458Y0063335D01*
X0164698Y0063386D01*
X0164939Y0063431D01*
X0165182Y0063470D01*
X0165425Y0063503D01*
X0165669Y0063530D01*
X0165913Y0063551D01*
X0166158Y0063566D01*
X0166404Y0063575D01*
X0166649Y0063578D01*
X0166894Y0063575D01*
X0167140Y0063566D01*
X0167385Y0063551D01*
X0167629Y0063530D01*
X0167873Y0063503D01*
X0168116Y0063470D01*
X0168359Y0063431D01*
X0168600Y0063386D01*
X0168840Y0063335D01*
X0169079Y0063278D01*
X0169316Y0063216D01*
X0169552Y0063147D01*
X0169786Y0063073D01*
X0170018Y0062993D01*
X0170248Y0062908D01*
X0170476Y0062817D01*
X0170701Y0062720D01*
X0170925Y0062618D01*
X0171145Y0062510D01*
X0171363Y0062397D01*
X0171578Y0062279D01*
X0171790Y0062155D01*
X0171999Y0062027D01*
X0172205Y0061893D01*
X0172407Y0061754D01*
X0172606Y0061610D01*
X0172801Y0061461D01*
X0172993Y0061308D01*
X0173181Y0061150D01*
X0173365Y0060988D01*
X0173544Y0060820D01*
X0173720Y0060649D01*
X0173891Y0060473D01*
X0174059Y0060294D01*
X0174221Y0060110D01*
X0174379Y0059922D01*
X0174532Y0059730D01*
X0174681Y0059535D01*
X0174825Y0059336D01*
X0174964Y0059134D01*
X0175098Y0058928D01*
X0175226Y0058719D01*
X0175350Y0058507D01*
X0175468Y0058292D01*
X0175581Y0058074D01*
X0175689Y0057854D01*
X0175791Y0057630D01*
X0175888Y0057405D01*
X0175979Y0057177D01*
X0176064Y0056947D01*
X0176144Y0056715D01*
X0176218Y0056481D01*
X0176287Y0056245D01*
X0176349Y0056008D01*
X0176406Y0055769D01*
X0176457Y0055529D01*
X0176502Y0055288D01*
X0176541Y0055045D01*
X0176574Y0054802D01*
X0176601Y0054558D01*
X0176622Y0054314D01*
X0176637Y0054069D01*
X0176646Y0053823D01*
X0176649Y0053578D01*
X0176646Y0053333D01*
X0176637Y0053087D01*
X0176622Y0052842D01*
X0176601Y0052598D01*
X0176574Y0052354D01*
X0176541Y0052111D01*
X0176502Y0051868D01*
X0176457Y0051627D01*
X0176406Y0051387D01*
X0176349Y0051148D01*
X0176287Y0050911D01*
X0176218Y0050675D01*
X0176144Y0050441D01*
X0176064Y0050209D01*
X0175979Y0049979D01*
X0175888Y0049751D01*
X0175791Y0049526D01*
X0175689Y0049302D01*
X0175581Y0049082D01*
X0175468Y0048864D01*
X0175350Y0048649D01*
X0175226Y0048437D01*
X0175098Y0048228D01*
X0174964Y0048022D01*
X0174825Y0047820D01*
X0174681Y0047621D01*
X0174532Y0047426D01*
X0174379Y0047234D01*
X0174221Y0047046D01*
X0174059Y0046862D01*
X0173891Y0046683D01*
X0173720Y0046507D01*
X0173544Y0046336D01*
X0173365Y0046168D01*
X0173181Y0046006D01*
X0172993Y0045848D01*
X0172801Y0045695D01*
X0172606Y0045546D01*
X0172407Y0045402D01*
X0172205Y0045263D01*
X0171999Y0045129D01*
X0171790Y0045001D01*
X0171578Y0044877D01*
X0171363Y0044759D01*
X0171145Y0044646D01*
X0170925Y0044538D01*
X0170701Y0044436D01*
X0170476Y0044339D01*
X0170248Y0044248D01*
X0170018Y0044163D01*
X0169786Y0044083D01*
X0169552Y0044009D01*
X0169316Y0043940D01*
X0169079Y0043878D01*
X0168840Y0043821D01*
X0168600Y0043770D01*
X0168359Y0043725D01*
X0168116Y0043686D01*
X0167873Y0043653D01*
X0167629Y0043626D01*
X0167385Y0043605D01*
X0167140Y0043590D01*
X0166894Y0043581D01*
X0166649Y0043578D01*
X0166404Y0043581D01*
X0166158Y0043590D01*
X0165913Y0043605D01*
X0165669Y0043626D01*
X0165425Y0043653D01*
X0165182Y0043686D01*
X0164939Y0043725D01*
X0164698Y0043770D01*
X0164458Y0043821D01*
X0164219Y0043878D01*
X0163982Y0043940D01*
X0163746Y0044009D01*
X0163512Y0044083D01*
X0163280Y0044163D01*
X0163050Y0044248D01*
X0162822Y0044339D01*
X0162597Y0044436D01*
X0162373Y0044538D01*
X0162153Y0044646D01*
X0161935Y0044759D01*
X0161720Y0044877D01*
X0161508Y0045001D01*
X0161299Y0045129D01*
X0161093Y0045263D01*
X0160891Y0045402D01*
X0160692Y0045546D01*
X0160497Y0045695D01*
X0160305Y0045848D01*
X0160117Y0046006D01*
X0159933Y0046168D01*
X0159754Y0046336D01*
X0159578Y0046507D01*
X0159407Y0046683D01*
X0159239Y0046862D01*
X0159077Y0047046D01*
X0158919Y0047234D01*
X0158766Y0047426D01*
X0158617Y0047621D01*
X0158473Y0047820D01*
X0158334Y0048022D01*
X0158200Y0048228D01*
X0158072Y0048437D01*
X0157948Y0048649D01*
X0157830Y0048864D01*
X0157717Y0049082D01*
X0157609Y0049302D01*
X0157507Y0049526D01*
X0157410Y0049751D01*
X0157319Y0049979D01*
X0157234Y0050209D01*
X0157154Y0050441D01*
X0157080Y0050675D01*
X0157011Y0050911D01*
X0156949Y0051148D01*
X0156892Y0051387D01*
X0156841Y0051627D01*
X0156796Y0051868D01*
X0156757Y0052111D01*
X0156724Y0052354D01*
X0156697Y0052598D01*
X0156676Y0052842D01*
X0156661Y0053087D01*
X0156652Y0053333D01*
X0156649Y0053578D01*
X0153794Y0066653D02*
X0153794Y0091928D01*
X0162219Y0091928D01*
X0162219Y0066653D01*
X0153794Y0066653D01*
X0158006Y0074915D02*
X0158006Y0078040D01*
X0156131Y0078040D01*
X0158006Y0078040D02*
X0159882Y0078040D01*
X0158006Y0078040D02*
X0156131Y0080540D01*
X0158006Y0080540D01*
X0158006Y0083666D01*
X0158006Y0080540D02*
X0159882Y0080540D01*
X0158006Y0078040D01*
X0164977Y0076191D02*
X0177575Y0076191D01*
X0177575Y0088789D01*
X0164977Y0088789D01*
X0164977Y0076191D01*
X0167987Y0090468D02*
X0167987Y0098893D01*
X0193263Y0098893D01*
X0193263Y0090468D01*
X0167987Y0090468D01*
X0176250Y0094680D02*
X0179375Y0094680D01*
X0179375Y0092805D01*
X0181875Y0094680D01*
X0185000Y0094680D01*
X0181875Y0094680D02*
X0181875Y0092805D01*
X0181875Y0094680D02*
X0181875Y0096556D01*
X0181875Y0094680D02*
X0179375Y0096556D01*
X0179375Y0094680D01*
X0195783Y0104483D02*
X0204208Y0104483D01*
X0204208Y0079208D01*
X0195783Y0079208D01*
X0195783Y0104483D01*
X0199995Y0096221D02*
X0199995Y0093096D01*
X0198120Y0093096D01*
X0199995Y0090596D01*
X0199995Y0087470D01*
X0199995Y0090596D02*
X0198120Y0090596D01*
X0199995Y0090596D02*
X0201870Y0090596D01*
X0199995Y0090596D02*
X0201870Y0093096D01*
X0199995Y0093096D01*
X0218722Y0086587D02*
X0218722Y0051942D01*
X0246281Y0051942D01*
X0246281Y0086587D01*
X0218722Y0086587D01*
X0220757Y0064934D02*
X0220759Y0065001D01*
X0220765Y0065067D01*
X0220775Y0065133D01*
X0220789Y0065198D01*
X0220806Y0065262D01*
X0220828Y0065325D01*
X0220853Y0065387D01*
X0220882Y0065447D01*
X0220915Y0065505D01*
X0220951Y0065562D01*
X0220990Y0065615D01*
X0221032Y0065667D01*
X0221077Y0065716D01*
X0221126Y0065762D01*
X0221176Y0065805D01*
X0221230Y0065845D01*
X0221285Y0065882D01*
X0221343Y0065915D01*
X0221403Y0065945D01*
X0221464Y0065971D01*
X0221527Y0065993D01*
X0221591Y0066012D01*
X0221656Y0066027D01*
X0221721Y0066038D01*
X0221788Y0066045D01*
X0221854Y0066048D01*
X0221921Y0066047D01*
X0221987Y0066042D01*
X0222053Y0066033D01*
X0222119Y0066020D01*
X0222183Y0066003D01*
X0222247Y0065983D01*
X0222309Y0065958D01*
X0222369Y0065930D01*
X0222428Y0065899D01*
X0222485Y0065864D01*
X0222539Y0065825D01*
X0222591Y0065784D01*
X0222641Y0065739D01*
X0222688Y0065692D01*
X0222731Y0065642D01*
X0222772Y0065589D01*
X0222810Y0065534D01*
X0222844Y0065477D01*
X0222875Y0065417D01*
X0222902Y0065356D01*
X0222925Y0065294D01*
X0222945Y0065230D01*
X0222961Y0065166D01*
X0222973Y0065100D01*
X0222981Y0065034D01*
X0222985Y0064967D01*
X0222985Y0064901D01*
X0222981Y0064834D01*
X0222973Y0064768D01*
X0222961Y0064702D01*
X0222945Y0064638D01*
X0222925Y0064574D01*
X0222902Y0064512D01*
X0222875Y0064451D01*
X0222844Y0064391D01*
X0222810Y0064334D01*
X0222772Y0064279D01*
X0222731Y0064226D01*
X0222688Y0064176D01*
X0222641Y0064129D01*
X0222591Y0064084D01*
X0222539Y0064043D01*
X0222485Y0064004D01*
X0222428Y0063969D01*
X0222369Y0063938D01*
X0222309Y0063910D01*
X0222247Y0063885D01*
X0222183Y0063865D01*
X0222119Y0063848D01*
X0222053Y0063835D01*
X0221987Y0063826D01*
X0221921Y0063821D01*
X0221854Y0063820D01*
X0221788Y0063823D01*
X0221721Y0063830D01*
X0221656Y0063841D01*
X0221591Y0063856D01*
X0221527Y0063875D01*
X0221464Y0063897D01*
X0221403Y0063923D01*
X0221343Y0063953D01*
X0221285Y0063986D01*
X0221230Y0064023D01*
X0221176Y0064063D01*
X0221126Y0064106D01*
X0221077Y0064152D01*
X0221032Y0064201D01*
X0220990Y0064253D01*
X0220951Y0064306D01*
X0220915Y0064363D01*
X0220882Y0064421D01*
X0220853Y0064481D01*
X0220828Y0064543D01*
X0220806Y0064606D01*
X0220789Y0064670D01*
X0220775Y0064735D01*
X0220765Y0064801D01*
X0220759Y0064867D01*
X0220757Y0064934D01*
X0224155Y0048915D02*
X0249430Y0048915D01*
X0249430Y0040490D01*
X0224155Y0040490D01*
X0224155Y0048915D01*
X0232417Y0044703D02*
X0235542Y0044703D01*
X0235542Y0046578D01*
X0235542Y0044703D02*
X0235542Y0042827D01*
X0235542Y0044703D02*
X0238042Y0046578D01*
X0238042Y0044703D01*
X0241168Y0044703D01*
X0238042Y0044703D02*
X0238042Y0042827D01*
X0235542Y0044703D01*
X0232476Y0033854D02*
X0232477Y0033982D01*
X0232481Y0034110D01*
X0232489Y0034237D01*
X0232500Y0034365D01*
X0232516Y0034492D01*
X0232536Y0034618D01*
X0232559Y0034744D01*
X0232586Y0034869D01*
X0232617Y0034993D01*
X0232652Y0035116D01*
X0232691Y0035238D01*
X0232733Y0035358D01*
X0232779Y0035478D01*
X0232828Y0035596D01*
X0232882Y0035712D01*
X0232938Y0035827D01*
X0232998Y0035940D01*
X0233062Y0036051D01*
X0233129Y0036160D01*
X0233199Y0036266D01*
X0233272Y0036371D01*
X0233349Y0036474D01*
X0233428Y0036574D01*
X0233511Y0036671D01*
X0233597Y0036766D01*
X0233685Y0036859D01*
X0233776Y0036948D01*
X0233870Y0037035D01*
X0233967Y0037119D01*
X0234066Y0037200D01*
X0234167Y0037278D01*
X0234271Y0037353D01*
X0234377Y0037424D01*
X0234485Y0037492D01*
X0234595Y0037557D01*
X0234707Y0037619D01*
X0234821Y0037677D01*
X0234937Y0037732D01*
X0235054Y0037783D01*
X0235173Y0037830D01*
X0235293Y0037874D01*
X0235415Y0037914D01*
X0235537Y0037950D01*
X0235661Y0037983D01*
X0235785Y0038012D01*
X0235911Y0038037D01*
X0236037Y0038058D01*
X0236164Y0038075D01*
X0236291Y0038089D01*
X0236418Y0038098D01*
X0236546Y0038104D01*
X0236674Y0038106D01*
X0236802Y0038104D01*
X0236930Y0038098D01*
X0237057Y0038088D01*
X0237184Y0038074D01*
X0237311Y0038057D01*
X0237437Y0038035D01*
X0237562Y0038010D01*
X0237687Y0037981D01*
X0237810Y0037948D01*
X0237933Y0037911D01*
X0238054Y0037871D01*
X0238174Y0037827D01*
X0238293Y0037779D01*
X0238410Y0037727D01*
X0238526Y0037673D01*
X0238639Y0037614D01*
X0238751Y0037552D01*
X0238861Y0037487D01*
X0238969Y0037419D01*
X0239075Y0037347D01*
X0239179Y0037272D01*
X0239280Y0037194D01*
X0239379Y0037113D01*
X0239475Y0037029D01*
X0239569Y0036942D01*
X0239660Y0036852D01*
X0239748Y0036759D01*
X0239833Y0036664D01*
X0239916Y0036566D01*
X0239995Y0036466D01*
X0240072Y0036363D01*
X0240145Y0036258D01*
X0240215Y0036151D01*
X0240281Y0036042D01*
X0240344Y0035931D01*
X0240404Y0035818D01*
X0240461Y0035703D01*
X0240513Y0035587D01*
X0240563Y0035469D01*
X0240608Y0035349D01*
X0240650Y0035228D01*
X0240689Y0035106D01*
X0240723Y0034983D01*
X0240754Y0034859D01*
X0240781Y0034734D01*
X0240804Y0034608D01*
X0240823Y0034482D01*
X0240839Y0034355D01*
X0240850Y0034228D01*
X0240858Y0034100D01*
X0240862Y0033972D01*
X0240861Y0033972D02*
X0240861Y0020783D01*
X0240862Y0020783D02*
X0240861Y0020654D01*
X0240857Y0020525D01*
X0240849Y0020396D01*
X0240837Y0020267D01*
X0240821Y0020139D01*
X0240801Y0020012D01*
X0240777Y0019885D01*
X0240749Y0019759D01*
X0240718Y0019633D01*
X0240682Y0019509D01*
X0240643Y0019386D01*
X0240600Y0019265D01*
X0240553Y0019144D01*
X0240502Y0019025D01*
X0240448Y0018908D01*
X0240391Y0018793D01*
X0240329Y0018679D01*
X0240265Y0018567D01*
X0240197Y0018457D01*
X0240125Y0018350D01*
X0240050Y0018245D01*
X0239972Y0018142D01*
X0239891Y0018041D01*
X0239807Y0017943D01*
X0239720Y0017848D01*
X0239630Y0017755D01*
X0239537Y0017665D01*
X0239442Y0017579D01*
X0239343Y0017495D01*
X0239243Y0017414D01*
X0239140Y0017336D01*
X0239034Y0017262D01*
X0238926Y0017190D01*
X0238816Y0017123D01*
X0238705Y0017058D01*
X0238591Y0016997D01*
X0238475Y0016940D01*
X0238358Y0016886D01*
X0238239Y0016836D01*
X0238118Y0016789D01*
X0237996Y0016747D01*
X0237873Y0016708D01*
X0237749Y0016672D01*
X0237624Y0016641D01*
X0237497Y0016614D01*
X0237370Y0016590D01*
X0237243Y0016570D01*
X0237115Y0016555D01*
X0236986Y0016543D01*
X0236857Y0016535D01*
X0236728Y0016531D01*
X0236599Y0016532D01*
X0236470Y0016536D01*
X0236341Y0016544D01*
X0236212Y0016556D01*
X0236084Y0016572D01*
X0235957Y0016592D01*
X0235830Y0016616D01*
X0235704Y0016644D01*
X0235578Y0016675D01*
X0235454Y0016711D01*
X0235331Y0016750D01*
X0235210Y0016793D01*
X0235089Y0016840D01*
X0234970Y0016891D01*
X0234853Y0016945D01*
X0234738Y0017002D01*
X0234624Y0017064D01*
X0234512Y0017128D01*
X0234402Y0017196D01*
X0234295Y0017268D01*
X0234190Y0017343D01*
X0234087Y0017421D01*
X0233986Y0017502D01*
X0233888Y0017586D01*
X0233793Y0017673D01*
X0233700Y0017763D01*
X0233610Y0017856D01*
X0233524Y0017951D01*
X0233440Y0018050D01*
X0233359Y0018150D01*
X0233281Y0018253D01*
X0233207Y0018359D01*
X0233135Y0018467D01*
X0233068Y0018577D01*
X0233003Y0018688D01*
X0232942Y0018802D01*
X0232885Y0018918D01*
X0232831Y0019035D01*
X0232781Y0019154D01*
X0232734Y0019275D01*
X0232692Y0019397D01*
X0232653Y0019520D01*
X0232617Y0019644D01*
X0232586Y0019769D01*
X0232559Y0019896D01*
X0232535Y0020023D01*
X0232515Y0020150D01*
X0232500Y0020278D01*
X0232488Y0020407D01*
X0232480Y0020536D01*
X0232476Y0020665D01*
X0232476Y0033854D01*
X0226728Y0027239D02*
X0226731Y0027484D01*
X0226740Y0027730D01*
X0226755Y0027975D01*
X0226776Y0028219D01*
X0226803Y0028463D01*
X0226836Y0028706D01*
X0226875Y0028949D01*
X0226920Y0029190D01*
X0226971Y0029430D01*
X0227028Y0029669D01*
X0227090Y0029906D01*
X0227159Y0030142D01*
X0227233Y0030376D01*
X0227313Y0030608D01*
X0227398Y0030838D01*
X0227489Y0031066D01*
X0227586Y0031291D01*
X0227688Y0031515D01*
X0227796Y0031735D01*
X0227909Y0031953D01*
X0228027Y0032168D01*
X0228151Y0032380D01*
X0228279Y0032589D01*
X0228413Y0032795D01*
X0228552Y0032997D01*
X0228696Y0033196D01*
X0228845Y0033391D01*
X0228998Y0033583D01*
X0229156Y0033771D01*
X0229318Y0033955D01*
X0229486Y0034134D01*
X0229657Y0034310D01*
X0229833Y0034481D01*
X0230012Y0034649D01*
X0230196Y0034811D01*
X0230384Y0034969D01*
X0230576Y0035122D01*
X0230771Y0035271D01*
X0230970Y0035415D01*
X0231172Y0035554D01*
X0231378Y0035688D01*
X0231587Y0035816D01*
X0231799Y0035940D01*
X0232014Y0036058D01*
X0232232Y0036171D01*
X0232452Y0036279D01*
X0232676Y0036381D01*
X0232901Y0036478D01*
X0233129Y0036569D01*
X0233359Y0036654D01*
X0233591Y0036734D01*
X0233825Y0036808D01*
X0234061Y0036877D01*
X0234298Y0036939D01*
X0234537Y0036996D01*
X0234777Y0037047D01*
X0235018Y0037092D01*
X0235261Y0037131D01*
X0235504Y0037164D01*
X0235748Y0037191D01*
X0235992Y0037212D01*
X0236237Y0037227D01*
X0236483Y0037236D01*
X0236728Y0037239D01*
X0236973Y0037236D01*
X0237219Y0037227D01*
X0237464Y0037212D01*
X0237708Y0037191D01*
X0237952Y0037164D01*
X0238195Y0037131D01*
X0238438Y0037092D01*
X0238679Y0037047D01*
X0238919Y0036996D01*
X0239158Y0036939D01*
X0239395Y0036877D01*
X0239631Y0036808D01*
X0239865Y0036734D01*
X0240097Y0036654D01*
X0240327Y0036569D01*
X0240555Y0036478D01*
X0240780Y0036381D01*
X0241004Y0036279D01*
X0241224Y0036171D01*
X0241442Y0036058D01*
X0241657Y0035940D01*
X0241869Y0035816D01*
X0242078Y0035688D01*
X0242284Y0035554D01*
X0242486Y0035415D01*
X0242685Y0035271D01*
X0242880Y0035122D01*
X0243072Y0034969D01*
X0243260Y0034811D01*
X0243444Y0034649D01*
X0243623Y0034481D01*
X0243799Y0034310D01*
X0243970Y0034134D01*
X0244138Y0033955D01*
X0244300Y0033771D01*
X0244458Y0033583D01*
X0244611Y0033391D01*
X0244760Y0033196D01*
X0244904Y0032997D01*
X0245043Y0032795D01*
X0245177Y0032589D01*
X0245305Y0032380D01*
X0245429Y0032168D01*
X0245547Y0031953D01*
X0245660Y0031735D01*
X0245768Y0031515D01*
X0245870Y0031291D01*
X0245967Y0031066D01*
X0246058Y0030838D01*
X0246143Y0030608D01*
X0246223Y0030376D01*
X0246297Y0030142D01*
X0246366Y0029906D01*
X0246428Y0029669D01*
X0246485Y0029430D01*
X0246536Y0029190D01*
X0246581Y0028949D01*
X0246620Y0028706D01*
X0246653Y0028463D01*
X0246680Y0028219D01*
X0246701Y0027975D01*
X0246716Y0027730D01*
X0246725Y0027484D01*
X0246728Y0027239D01*
X0246725Y0026994D01*
X0246716Y0026748D01*
X0246701Y0026503D01*
X0246680Y0026259D01*
X0246653Y0026015D01*
X0246620Y0025772D01*
X0246581Y0025529D01*
X0246536Y0025288D01*
X0246485Y0025048D01*
X0246428Y0024809D01*
X0246366Y0024572D01*
X0246297Y0024336D01*
X0246223Y0024102D01*
X0246143Y0023870D01*
X0246058Y0023640D01*
X0245967Y0023412D01*
X0245870Y0023187D01*
X0245768Y0022963D01*
X0245660Y0022743D01*
X0245547Y0022525D01*
X0245429Y0022310D01*
X0245305Y0022098D01*
X0245177Y0021889D01*
X0245043Y0021683D01*
X0244904Y0021481D01*
X0244760Y0021282D01*
X0244611Y0021087D01*
X0244458Y0020895D01*
X0244300Y0020707D01*
X0244138Y0020523D01*
X0243970Y0020344D01*
X0243799Y0020168D01*
X0243623Y0019997D01*
X0243444Y0019829D01*
X0243260Y0019667D01*
X0243072Y0019509D01*
X0242880Y0019356D01*
X0242685Y0019207D01*
X0242486Y0019063D01*
X0242284Y0018924D01*
X0242078Y0018790D01*
X0241869Y0018662D01*
X0241657Y0018538D01*
X0241442Y0018420D01*
X0241224Y0018307D01*
X0241004Y0018199D01*
X0240780Y0018097D01*
X0240555Y0018000D01*
X0240327Y0017909D01*
X0240097Y0017824D01*
X0239865Y0017744D01*
X0239631Y0017670D01*
X0239395Y0017601D01*
X0239158Y0017539D01*
X0238919Y0017482D01*
X0238679Y0017431D01*
X0238438Y0017386D01*
X0238195Y0017347D01*
X0237952Y0017314D01*
X0237708Y0017287D01*
X0237464Y0017266D01*
X0237219Y0017251D01*
X0236973Y0017242D01*
X0236728Y0017239D01*
X0236483Y0017242D01*
X0236237Y0017251D01*
X0235992Y0017266D01*
X0235748Y0017287D01*
X0235504Y0017314D01*
X0235261Y0017347D01*
X0235018Y0017386D01*
X0234777Y0017431D01*
X0234537Y0017482D01*
X0234298Y0017539D01*
X0234061Y0017601D01*
X0233825Y0017670D01*
X0233591Y0017744D01*
X0233359Y0017824D01*
X0233129Y0017909D01*
X0232901Y0018000D01*
X0232676Y0018097D01*
X0232452Y0018199D01*
X0232232Y0018307D01*
X0232014Y0018420D01*
X0231799Y0018538D01*
X0231587Y0018662D01*
X0231378Y0018790D01*
X0231172Y0018924D01*
X0230970Y0019063D01*
X0230771Y0019207D01*
X0230576Y0019356D01*
X0230384Y0019509D01*
X0230196Y0019667D01*
X0230012Y0019829D01*
X0229833Y0019997D01*
X0229657Y0020168D01*
X0229486Y0020344D01*
X0229318Y0020523D01*
X0229156Y0020707D01*
X0228998Y0020895D01*
X0228845Y0021087D01*
X0228696Y0021282D01*
X0228552Y0021481D01*
X0228413Y0021683D01*
X0228279Y0021889D01*
X0228151Y0022098D01*
X0228027Y0022310D01*
X0227909Y0022525D01*
X0227796Y0022743D01*
X0227688Y0022963D01*
X0227586Y0023187D01*
X0227489Y0023412D01*
X0227398Y0023640D01*
X0227313Y0023870D01*
X0227233Y0024102D01*
X0227159Y0024336D01*
X0227090Y0024572D01*
X0227028Y0024809D01*
X0226971Y0025048D01*
X0226920Y0025288D01*
X0226875Y0025529D01*
X0226836Y0025772D01*
X0226803Y0026015D01*
X0226776Y0026259D01*
X0226755Y0026503D01*
X0226740Y0026748D01*
X0226731Y0026994D01*
X0226728Y0027239D01*
X0206885Y0033381D02*
X0206885Y0020192D01*
X0206884Y0020063D01*
X0206880Y0019934D01*
X0206872Y0019805D01*
X0206860Y0019676D01*
X0206844Y0019548D01*
X0206824Y0019421D01*
X0206800Y0019294D01*
X0206772Y0019168D01*
X0206741Y0019042D01*
X0206705Y0018918D01*
X0206666Y0018795D01*
X0206623Y0018674D01*
X0206576Y0018553D01*
X0206525Y0018434D01*
X0206471Y0018317D01*
X0206414Y0018202D01*
X0206352Y0018088D01*
X0206288Y0017976D01*
X0206220Y0017866D01*
X0206148Y0017759D01*
X0206073Y0017654D01*
X0205995Y0017551D01*
X0205914Y0017450D01*
X0205830Y0017352D01*
X0205743Y0017257D01*
X0205653Y0017164D01*
X0205560Y0017074D01*
X0205465Y0016988D01*
X0205366Y0016904D01*
X0205266Y0016823D01*
X0205163Y0016745D01*
X0205057Y0016671D01*
X0204949Y0016599D01*
X0204839Y0016532D01*
X0204728Y0016467D01*
X0204614Y0016406D01*
X0204498Y0016349D01*
X0204381Y0016295D01*
X0204262Y0016245D01*
X0204141Y0016198D01*
X0204019Y0016156D01*
X0203896Y0016117D01*
X0203772Y0016081D01*
X0203647Y0016050D01*
X0203520Y0016023D01*
X0203393Y0015999D01*
X0203266Y0015979D01*
X0203138Y0015964D01*
X0203009Y0015952D01*
X0202880Y0015944D01*
X0202751Y0015940D01*
X0202622Y0015941D01*
X0202493Y0015945D01*
X0202364Y0015953D01*
X0202235Y0015965D01*
X0202107Y0015981D01*
X0201980Y0016001D01*
X0201853Y0016025D01*
X0201727Y0016053D01*
X0201601Y0016084D01*
X0201477Y0016120D01*
X0201354Y0016159D01*
X0201233Y0016202D01*
X0201112Y0016249D01*
X0200993Y0016300D01*
X0200876Y0016354D01*
X0200761Y0016411D01*
X0200647Y0016473D01*
X0200535Y0016537D01*
X0200425Y0016605D01*
X0200318Y0016677D01*
X0200213Y0016752D01*
X0200110Y0016830D01*
X0200009Y0016911D01*
X0199911Y0016995D01*
X0199816Y0017082D01*
X0199723Y0017172D01*
X0199633Y0017265D01*
X0199547Y0017360D01*
X0199463Y0017459D01*
X0199382Y0017559D01*
X0199304Y0017662D01*
X0199230Y0017768D01*
X0199158Y0017876D01*
X0199091Y0017986D01*
X0199026Y0018097D01*
X0198965Y0018211D01*
X0198908Y0018327D01*
X0198854Y0018444D01*
X0198804Y0018563D01*
X0198757Y0018684D01*
X0198715Y0018806D01*
X0198676Y0018929D01*
X0198640Y0019053D01*
X0198609Y0019178D01*
X0198582Y0019305D01*
X0198558Y0019432D01*
X0198538Y0019559D01*
X0198523Y0019687D01*
X0198511Y0019816D01*
X0198503Y0019945D01*
X0198499Y0020074D01*
X0198499Y0033263D01*
X0198500Y0033391D01*
X0198504Y0033519D01*
X0198512Y0033646D01*
X0198523Y0033774D01*
X0198539Y0033901D01*
X0198559Y0034027D01*
X0198582Y0034153D01*
X0198609Y0034278D01*
X0198640Y0034402D01*
X0198675Y0034525D01*
X0198714Y0034647D01*
X0198756Y0034767D01*
X0198802Y0034887D01*
X0198851Y0035005D01*
X0198905Y0035121D01*
X0198961Y0035236D01*
X0199021Y0035349D01*
X0199085Y0035460D01*
X0199152Y0035569D01*
X0199222Y0035675D01*
X0199295Y0035780D01*
X0199372Y0035883D01*
X0199451Y0035983D01*
X0199534Y0036080D01*
X0199620Y0036175D01*
X0199708Y0036268D01*
X0199799Y0036357D01*
X0199893Y0036444D01*
X0199990Y0036528D01*
X0200089Y0036609D01*
X0200190Y0036687D01*
X0200294Y0036762D01*
X0200400Y0036833D01*
X0200508Y0036901D01*
X0200618Y0036966D01*
X0200730Y0037028D01*
X0200844Y0037086D01*
X0200960Y0037141D01*
X0201077Y0037192D01*
X0201196Y0037239D01*
X0201316Y0037283D01*
X0201438Y0037323D01*
X0201560Y0037359D01*
X0201684Y0037392D01*
X0201808Y0037421D01*
X0201934Y0037446D01*
X0202060Y0037467D01*
X0202187Y0037484D01*
X0202314Y0037498D01*
X0202441Y0037507D01*
X0202569Y0037513D01*
X0202697Y0037515D01*
X0202825Y0037513D01*
X0202953Y0037507D01*
X0203080Y0037497D01*
X0203207Y0037483D01*
X0203334Y0037466D01*
X0203460Y0037444D01*
X0203585Y0037419D01*
X0203710Y0037390D01*
X0203833Y0037357D01*
X0203956Y0037320D01*
X0204077Y0037280D01*
X0204197Y0037236D01*
X0204316Y0037188D01*
X0204433Y0037136D01*
X0204549Y0037082D01*
X0204662Y0037023D01*
X0204774Y0036961D01*
X0204884Y0036896D01*
X0204992Y0036828D01*
X0205098Y0036756D01*
X0205202Y0036681D01*
X0205303Y0036603D01*
X0205402Y0036522D01*
X0205498Y0036438D01*
X0205592Y0036351D01*
X0205683Y0036261D01*
X0205771Y0036168D01*
X0205856Y0036073D01*
X0205939Y0035975D01*
X0206018Y0035875D01*
X0206095Y0035772D01*
X0206168Y0035667D01*
X0206238Y0035560D01*
X0206304Y0035451D01*
X0206367Y0035340D01*
X0206427Y0035227D01*
X0206484Y0035112D01*
X0206536Y0034996D01*
X0206586Y0034878D01*
X0206631Y0034758D01*
X0206673Y0034637D01*
X0206712Y0034515D01*
X0206746Y0034392D01*
X0206777Y0034268D01*
X0206804Y0034143D01*
X0206827Y0034017D01*
X0206846Y0033891D01*
X0206862Y0033764D01*
X0206873Y0033637D01*
X0206881Y0033509D01*
X0206885Y0033381D01*
X0192751Y0026649D02*
X0192754Y0026894D01*
X0192763Y0027140D01*
X0192778Y0027385D01*
X0192799Y0027629D01*
X0192826Y0027873D01*
X0192859Y0028116D01*
X0192898Y0028359D01*
X0192943Y0028600D01*
X0192994Y0028840D01*
X0193051Y0029079D01*
X0193113Y0029316D01*
X0193182Y0029552D01*
X0193256Y0029786D01*
X0193336Y0030018D01*
X0193421Y0030248D01*
X0193512Y0030476D01*
X0193609Y0030701D01*
X0193711Y0030925D01*
X0193819Y0031145D01*
X0193932Y0031363D01*
X0194050Y0031578D01*
X0194174Y0031790D01*
X0194302Y0031999D01*
X0194436Y0032205D01*
X0194575Y0032407D01*
X0194719Y0032606D01*
X0194868Y0032801D01*
X0195021Y0032993D01*
X0195179Y0033181D01*
X0195341Y0033365D01*
X0195509Y0033544D01*
X0195680Y0033720D01*
X0195856Y0033891D01*
X0196035Y0034059D01*
X0196219Y0034221D01*
X0196407Y0034379D01*
X0196599Y0034532D01*
X0196794Y0034681D01*
X0196993Y0034825D01*
X0197195Y0034964D01*
X0197401Y0035098D01*
X0197610Y0035226D01*
X0197822Y0035350D01*
X0198037Y0035468D01*
X0198255Y0035581D01*
X0198475Y0035689D01*
X0198699Y0035791D01*
X0198924Y0035888D01*
X0199152Y0035979D01*
X0199382Y0036064D01*
X0199614Y0036144D01*
X0199848Y0036218D01*
X0200084Y0036287D01*
X0200321Y0036349D01*
X0200560Y0036406D01*
X0200800Y0036457D01*
X0201041Y0036502D01*
X0201284Y0036541D01*
X0201527Y0036574D01*
X0201771Y0036601D01*
X0202015Y0036622D01*
X0202260Y0036637D01*
X0202506Y0036646D01*
X0202751Y0036649D01*
X0202996Y0036646D01*
X0203242Y0036637D01*
X0203487Y0036622D01*
X0203731Y0036601D01*
X0203975Y0036574D01*
X0204218Y0036541D01*
X0204461Y0036502D01*
X0204702Y0036457D01*
X0204942Y0036406D01*
X0205181Y0036349D01*
X0205418Y0036287D01*
X0205654Y0036218D01*
X0205888Y0036144D01*
X0206120Y0036064D01*
X0206350Y0035979D01*
X0206578Y0035888D01*
X0206803Y0035791D01*
X0207027Y0035689D01*
X0207247Y0035581D01*
X0207465Y0035468D01*
X0207680Y0035350D01*
X0207892Y0035226D01*
X0208101Y0035098D01*
X0208307Y0034964D01*
X0208509Y0034825D01*
X0208708Y0034681D01*
X0208903Y0034532D01*
X0209095Y0034379D01*
X0209283Y0034221D01*
X0209467Y0034059D01*
X0209646Y0033891D01*
X0209822Y0033720D01*
X0209993Y0033544D01*
X0210161Y0033365D01*
X0210323Y0033181D01*
X0210481Y0032993D01*
X0210634Y0032801D01*
X0210783Y0032606D01*
X0210927Y0032407D01*
X0211066Y0032205D01*
X0211200Y0031999D01*
X0211328Y0031790D01*
X0211452Y0031578D01*
X0211570Y0031363D01*
X0211683Y0031145D01*
X0211791Y0030925D01*
X0211893Y0030701D01*
X0211990Y0030476D01*
X0212081Y0030248D01*
X0212166Y0030018D01*
X0212246Y0029786D01*
X0212320Y0029552D01*
X0212389Y0029316D01*
X0212451Y0029079D01*
X0212508Y0028840D01*
X0212559Y0028600D01*
X0212604Y0028359D01*
X0212643Y0028116D01*
X0212676Y0027873D01*
X0212703Y0027629D01*
X0212724Y0027385D01*
X0212739Y0027140D01*
X0212748Y0026894D01*
X0212751Y0026649D01*
X0212748Y0026404D01*
X0212739Y0026158D01*
X0212724Y0025913D01*
X0212703Y0025669D01*
X0212676Y0025425D01*
X0212643Y0025182D01*
X0212604Y0024939D01*
X0212559Y0024698D01*
X0212508Y0024458D01*
X0212451Y0024219D01*
X0212389Y0023982D01*
X0212320Y0023746D01*
X0212246Y0023512D01*
X0212166Y0023280D01*
X0212081Y0023050D01*
X0211990Y0022822D01*
X0211893Y0022597D01*
X0211791Y0022373D01*
X0211683Y0022153D01*
X0211570Y0021935D01*
X0211452Y0021720D01*
X0211328Y0021508D01*
X0211200Y0021299D01*
X0211066Y0021093D01*
X0210927Y0020891D01*
X0210783Y0020692D01*
X0210634Y0020497D01*
X0210481Y0020305D01*
X0210323Y0020117D01*
X0210161Y0019933D01*
X0209993Y0019754D01*
X0209822Y0019578D01*
X0209646Y0019407D01*
X0209467Y0019239D01*
X0209283Y0019077D01*
X0209095Y0018919D01*
X0208903Y0018766D01*
X0208708Y0018617D01*
X0208509Y0018473D01*
X0208307Y0018334D01*
X0208101Y0018200D01*
X0207892Y0018072D01*
X0207680Y0017948D01*
X0207465Y0017830D01*
X0207247Y0017717D01*
X0207027Y0017609D01*
X0206803Y0017507D01*
X0206578Y0017410D01*
X0206350Y0017319D01*
X0206120Y0017234D01*
X0205888Y0017154D01*
X0205654Y0017080D01*
X0205418Y0017011D01*
X0205181Y0016949D01*
X0204942Y0016892D01*
X0204702Y0016841D01*
X0204461Y0016796D01*
X0204218Y0016757D01*
X0203975Y0016724D01*
X0203731Y0016697D01*
X0203487Y0016676D01*
X0203242Y0016661D01*
X0202996Y0016652D01*
X0202751Y0016649D01*
X0202506Y0016652D01*
X0202260Y0016661D01*
X0202015Y0016676D01*
X0201771Y0016697D01*
X0201527Y0016724D01*
X0201284Y0016757D01*
X0201041Y0016796D01*
X0200800Y0016841D01*
X0200560Y0016892D01*
X0200321Y0016949D01*
X0200084Y0017011D01*
X0199848Y0017080D01*
X0199614Y0017154D01*
X0199382Y0017234D01*
X0199152Y0017319D01*
X0198924Y0017410D01*
X0198699Y0017507D01*
X0198475Y0017609D01*
X0198255Y0017717D01*
X0198037Y0017830D01*
X0197822Y0017948D01*
X0197610Y0018072D01*
X0197401Y0018200D01*
X0197195Y0018334D01*
X0196993Y0018473D01*
X0196794Y0018617D01*
X0196599Y0018766D01*
X0196407Y0018919D01*
X0196219Y0019077D01*
X0196035Y0019239D01*
X0195856Y0019407D01*
X0195680Y0019578D01*
X0195509Y0019754D01*
X0195341Y0019933D01*
X0195179Y0020117D01*
X0195021Y0020305D01*
X0194868Y0020497D01*
X0194719Y0020692D01*
X0194575Y0020891D01*
X0194436Y0021093D01*
X0194302Y0021299D01*
X0194174Y0021508D01*
X0194050Y0021720D01*
X0193932Y0021935D01*
X0193819Y0022153D01*
X0193711Y0022373D01*
X0193609Y0022597D01*
X0193512Y0022822D01*
X0193421Y0023050D01*
X0193336Y0023280D01*
X0193256Y0023512D01*
X0193182Y0023746D01*
X0193113Y0023982D01*
X0193051Y0024219D01*
X0192994Y0024458D01*
X0192943Y0024698D01*
X0192898Y0024939D01*
X0192859Y0025182D01*
X0192826Y0025425D01*
X0192799Y0025669D01*
X0192778Y0025913D01*
X0192763Y0026158D01*
X0192754Y0026404D01*
X0192751Y0026649D01*
X0171334Y0032948D02*
X0171334Y0019759D01*
X0171333Y0019630D01*
X0171329Y0019501D01*
X0171321Y0019372D01*
X0171309Y0019243D01*
X0171293Y0019115D01*
X0171273Y0018988D01*
X0171249Y0018861D01*
X0171221Y0018735D01*
X0171190Y0018609D01*
X0171154Y0018485D01*
X0171115Y0018362D01*
X0171072Y0018241D01*
X0171025Y0018120D01*
X0170974Y0018001D01*
X0170920Y0017884D01*
X0170863Y0017769D01*
X0170801Y0017655D01*
X0170737Y0017543D01*
X0170669Y0017433D01*
X0170597Y0017326D01*
X0170522Y0017221D01*
X0170444Y0017118D01*
X0170363Y0017017D01*
X0170279Y0016919D01*
X0170192Y0016824D01*
X0170102Y0016731D01*
X0170009Y0016641D01*
X0169914Y0016555D01*
X0169815Y0016471D01*
X0169715Y0016390D01*
X0169612Y0016312D01*
X0169506Y0016238D01*
X0169398Y0016166D01*
X0169288Y0016099D01*
X0169177Y0016034D01*
X0169063Y0015973D01*
X0168947Y0015916D01*
X0168830Y0015862D01*
X0168711Y0015812D01*
X0168590Y0015765D01*
X0168468Y0015723D01*
X0168345Y0015684D01*
X0168221Y0015648D01*
X0168096Y0015617D01*
X0167969Y0015590D01*
X0167842Y0015566D01*
X0167715Y0015546D01*
X0167587Y0015531D01*
X0167458Y0015519D01*
X0167329Y0015511D01*
X0167200Y0015507D01*
X0167071Y0015508D01*
X0166942Y0015512D01*
X0166813Y0015520D01*
X0166684Y0015532D01*
X0166556Y0015548D01*
X0166429Y0015568D01*
X0166302Y0015592D01*
X0166176Y0015620D01*
X0166050Y0015651D01*
X0165926Y0015687D01*
X0165803Y0015726D01*
X0165682Y0015769D01*
X0165561Y0015816D01*
X0165442Y0015867D01*
X0165325Y0015921D01*
X0165210Y0015978D01*
X0165096Y0016040D01*
X0164984Y0016104D01*
X0164874Y0016172D01*
X0164767Y0016244D01*
X0164662Y0016319D01*
X0164559Y0016397D01*
X0164458Y0016478D01*
X0164360Y0016562D01*
X0164265Y0016649D01*
X0164172Y0016739D01*
X0164082Y0016832D01*
X0163996Y0016927D01*
X0163912Y0017026D01*
X0163831Y0017126D01*
X0163753Y0017229D01*
X0163679Y0017335D01*
X0163607Y0017443D01*
X0163540Y0017553D01*
X0163475Y0017664D01*
X0163414Y0017778D01*
X0163357Y0017894D01*
X0163303Y0018011D01*
X0163253Y0018130D01*
X0163206Y0018251D01*
X0163164Y0018373D01*
X0163125Y0018496D01*
X0163089Y0018620D01*
X0163058Y0018745D01*
X0163031Y0018872D01*
X0163007Y0018999D01*
X0162987Y0019126D01*
X0162972Y0019254D01*
X0162960Y0019383D01*
X0162952Y0019512D01*
X0162948Y0019641D01*
X0162948Y0032830D01*
X0162949Y0032958D01*
X0162953Y0033086D01*
X0162961Y0033213D01*
X0162972Y0033341D01*
X0162988Y0033468D01*
X0163008Y0033594D01*
X0163031Y0033720D01*
X0163058Y0033845D01*
X0163089Y0033969D01*
X0163124Y0034092D01*
X0163163Y0034214D01*
X0163205Y0034334D01*
X0163251Y0034454D01*
X0163300Y0034572D01*
X0163354Y0034688D01*
X0163410Y0034803D01*
X0163470Y0034916D01*
X0163534Y0035027D01*
X0163601Y0035136D01*
X0163671Y0035242D01*
X0163744Y0035347D01*
X0163821Y0035450D01*
X0163900Y0035550D01*
X0163983Y0035647D01*
X0164069Y0035742D01*
X0164157Y0035835D01*
X0164248Y0035924D01*
X0164342Y0036011D01*
X0164439Y0036095D01*
X0164538Y0036176D01*
X0164639Y0036254D01*
X0164743Y0036329D01*
X0164849Y0036400D01*
X0164957Y0036468D01*
X0165067Y0036533D01*
X0165179Y0036595D01*
X0165293Y0036653D01*
X0165409Y0036708D01*
X0165526Y0036759D01*
X0165645Y0036806D01*
X0165765Y0036850D01*
X0165887Y0036890D01*
X0166009Y0036926D01*
X0166133Y0036959D01*
X0166257Y0036988D01*
X0166383Y0037013D01*
X0166509Y0037034D01*
X0166636Y0037051D01*
X0166763Y0037065D01*
X0166890Y0037074D01*
X0167018Y0037080D01*
X0167146Y0037082D01*
X0167274Y0037080D01*
X0167402Y0037074D01*
X0167529Y0037064D01*
X0167656Y0037050D01*
X0167783Y0037033D01*
X0167909Y0037011D01*
X0168034Y0036986D01*
X0168159Y0036957D01*
X0168282Y0036924D01*
X0168405Y0036887D01*
X0168526Y0036847D01*
X0168646Y0036803D01*
X0168765Y0036755D01*
X0168882Y0036703D01*
X0168998Y0036649D01*
X0169111Y0036590D01*
X0169223Y0036528D01*
X0169333Y0036463D01*
X0169441Y0036395D01*
X0169547Y0036323D01*
X0169651Y0036248D01*
X0169752Y0036170D01*
X0169851Y0036089D01*
X0169947Y0036005D01*
X0170041Y0035918D01*
X0170132Y0035828D01*
X0170220Y0035735D01*
X0170305Y0035640D01*
X0170388Y0035542D01*
X0170467Y0035442D01*
X0170544Y0035339D01*
X0170617Y0035234D01*
X0170687Y0035127D01*
X0170753Y0035018D01*
X0170816Y0034907D01*
X0170876Y0034794D01*
X0170933Y0034679D01*
X0170985Y0034563D01*
X0171035Y0034445D01*
X0171080Y0034325D01*
X0171122Y0034204D01*
X0171161Y0034082D01*
X0171195Y0033959D01*
X0171226Y0033835D01*
X0171253Y0033710D01*
X0171276Y0033584D01*
X0171295Y0033458D01*
X0171311Y0033331D01*
X0171322Y0033204D01*
X0171330Y0033076D01*
X0171334Y0032948D01*
X0157200Y0026216D02*
X0157203Y0026461D01*
X0157212Y0026707D01*
X0157227Y0026952D01*
X0157248Y0027196D01*
X0157275Y0027440D01*
X0157308Y0027683D01*
X0157347Y0027926D01*
X0157392Y0028167D01*
X0157443Y0028407D01*
X0157500Y0028646D01*
X0157562Y0028883D01*
X0157631Y0029119D01*
X0157705Y0029353D01*
X0157785Y0029585D01*
X0157870Y0029815D01*
X0157961Y0030043D01*
X0158058Y0030268D01*
X0158160Y0030492D01*
X0158268Y0030712D01*
X0158381Y0030930D01*
X0158499Y0031145D01*
X0158623Y0031357D01*
X0158751Y0031566D01*
X0158885Y0031772D01*
X0159024Y0031974D01*
X0159168Y0032173D01*
X0159317Y0032368D01*
X0159470Y0032560D01*
X0159628Y0032748D01*
X0159790Y0032932D01*
X0159958Y0033111D01*
X0160129Y0033287D01*
X0160305Y0033458D01*
X0160484Y0033626D01*
X0160668Y0033788D01*
X0160856Y0033946D01*
X0161048Y0034099D01*
X0161243Y0034248D01*
X0161442Y0034392D01*
X0161644Y0034531D01*
X0161850Y0034665D01*
X0162059Y0034793D01*
X0162271Y0034917D01*
X0162486Y0035035D01*
X0162704Y0035148D01*
X0162924Y0035256D01*
X0163148Y0035358D01*
X0163373Y0035455D01*
X0163601Y0035546D01*
X0163831Y0035631D01*
X0164063Y0035711D01*
X0164297Y0035785D01*
X0164533Y0035854D01*
X0164770Y0035916D01*
X0165009Y0035973D01*
X0165249Y0036024D01*
X0165490Y0036069D01*
X0165733Y0036108D01*
X0165976Y0036141D01*
X0166220Y0036168D01*
X0166464Y0036189D01*
X0166709Y0036204D01*
X0166955Y0036213D01*
X0167200Y0036216D01*
X0167445Y0036213D01*
X0167691Y0036204D01*
X0167936Y0036189D01*
X0168180Y0036168D01*
X0168424Y0036141D01*
X0168667Y0036108D01*
X0168910Y0036069D01*
X0169151Y0036024D01*
X0169391Y0035973D01*
X0169630Y0035916D01*
X0169867Y0035854D01*
X0170103Y0035785D01*
X0170337Y0035711D01*
X0170569Y0035631D01*
X0170799Y0035546D01*
X0171027Y0035455D01*
X0171252Y0035358D01*
X0171476Y0035256D01*
X0171696Y0035148D01*
X0171914Y0035035D01*
X0172129Y0034917D01*
X0172341Y0034793D01*
X0172550Y0034665D01*
X0172756Y0034531D01*
X0172958Y0034392D01*
X0173157Y0034248D01*
X0173352Y0034099D01*
X0173544Y0033946D01*
X0173732Y0033788D01*
X0173916Y0033626D01*
X0174095Y0033458D01*
X0174271Y0033287D01*
X0174442Y0033111D01*
X0174610Y0032932D01*
X0174772Y0032748D01*
X0174930Y0032560D01*
X0175083Y0032368D01*
X0175232Y0032173D01*
X0175376Y0031974D01*
X0175515Y0031772D01*
X0175649Y0031566D01*
X0175777Y0031357D01*
X0175901Y0031145D01*
X0176019Y0030930D01*
X0176132Y0030712D01*
X0176240Y0030492D01*
X0176342Y0030268D01*
X0176439Y0030043D01*
X0176530Y0029815D01*
X0176615Y0029585D01*
X0176695Y0029353D01*
X0176769Y0029119D01*
X0176838Y0028883D01*
X0176900Y0028646D01*
X0176957Y0028407D01*
X0177008Y0028167D01*
X0177053Y0027926D01*
X0177092Y0027683D01*
X0177125Y0027440D01*
X0177152Y0027196D01*
X0177173Y0026952D01*
X0177188Y0026707D01*
X0177197Y0026461D01*
X0177200Y0026216D01*
X0177197Y0025971D01*
X0177188Y0025725D01*
X0177173Y0025480D01*
X0177152Y0025236D01*
X0177125Y0024992D01*
X0177092Y0024749D01*
X0177053Y0024506D01*
X0177008Y0024265D01*
X0176957Y0024025D01*
X0176900Y0023786D01*
X0176838Y0023549D01*
X0176769Y0023313D01*
X0176695Y0023079D01*
X0176615Y0022847D01*
X0176530Y0022617D01*
X0176439Y0022389D01*
X0176342Y0022164D01*
X0176240Y0021940D01*
X0176132Y0021720D01*
X0176019Y0021502D01*
X0175901Y0021287D01*
X0175777Y0021075D01*
X0175649Y0020866D01*
X0175515Y0020660D01*
X0175376Y0020458D01*
X0175232Y0020259D01*
X0175083Y0020064D01*
X0174930Y0019872D01*
X0174772Y0019684D01*
X0174610Y0019500D01*
X0174442Y0019321D01*
X0174271Y0019145D01*
X0174095Y0018974D01*
X0173916Y0018806D01*
X0173732Y0018644D01*
X0173544Y0018486D01*
X0173352Y0018333D01*
X0173157Y0018184D01*
X0172958Y0018040D01*
X0172756Y0017901D01*
X0172550Y0017767D01*
X0172341Y0017639D01*
X0172129Y0017515D01*
X0171914Y0017397D01*
X0171696Y0017284D01*
X0171476Y0017176D01*
X0171252Y0017074D01*
X0171027Y0016977D01*
X0170799Y0016886D01*
X0170569Y0016801D01*
X0170337Y0016721D01*
X0170103Y0016647D01*
X0169867Y0016578D01*
X0169630Y0016516D01*
X0169391Y0016459D01*
X0169151Y0016408D01*
X0168910Y0016363D01*
X0168667Y0016324D01*
X0168424Y0016291D01*
X0168180Y0016264D01*
X0167936Y0016243D01*
X0167691Y0016228D01*
X0167445Y0016219D01*
X0167200Y0016216D01*
X0166955Y0016219D01*
X0166709Y0016228D01*
X0166464Y0016243D01*
X0166220Y0016264D01*
X0165976Y0016291D01*
X0165733Y0016324D01*
X0165490Y0016363D01*
X0165249Y0016408D01*
X0165009Y0016459D01*
X0164770Y0016516D01*
X0164533Y0016578D01*
X0164297Y0016647D01*
X0164063Y0016721D01*
X0163831Y0016801D01*
X0163601Y0016886D01*
X0163373Y0016977D01*
X0163148Y0017074D01*
X0162924Y0017176D01*
X0162704Y0017284D01*
X0162486Y0017397D01*
X0162271Y0017515D01*
X0162059Y0017639D01*
X0161850Y0017767D01*
X0161644Y0017901D01*
X0161442Y0018040D01*
X0161243Y0018184D01*
X0161048Y0018333D01*
X0160856Y0018486D01*
X0160668Y0018644D01*
X0160484Y0018806D01*
X0160305Y0018974D01*
X0160129Y0019145D01*
X0159958Y0019321D01*
X0159790Y0019500D01*
X0159628Y0019684D01*
X0159470Y0019872D01*
X0159317Y0020064D01*
X0159168Y0020259D01*
X0159024Y0020458D01*
X0158885Y0020660D01*
X0158751Y0020866D01*
X0158623Y0021075D01*
X0158499Y0021287D01*
X0158381Y0021502D01*
X0158268Y0021720D01*
X0158160Y0021940D01*
X0158058Y0022164D01*
X0157961Y0022389D01*
X0157870Y0022617D01*
X0157785Y0022847D01*
X0157705Y0023079D01*
X0157631Y0023313D01*
X0157562Y0023549D01*
X0157500Y0023786D01*
X0157443Y0024025D01*
X0157392Y0024265D01*
X0157347Y0024506D01*
X0157308Y0024749D01*
X0157275Y0024992D01*
X0157248Y0025236D01*
X0157227Y0025480D01*
X0157212Y0025725D01*
X0157203Y0025971D01*
X0157200Y0026216D01*
X0146334Y0030350D02*
X0071137Y0030350D01*
X0071137Y0120507D01*
X0146334Y0120507D01*
X0146334Y0030350D01*
X0124483Y0026098D02*
X0124483Y0020586D01*
X0113460Y0020586D01*
X0113460Y0026098D01*
X0124483Y0026098D01*
X0096019Y0026741D02*
X0096019Y0018316D01*
X0070743Y0018316D01*
X0070743Y0026741D01*
X0096019Y0026741D01*
X0087756Y0022528D02*
X0084631Y0022528D01*
X0084631Y0020653D01*
X0084631Y0022528D02*
X0084631Y0024404D01*
X0084631Y0022528D02*
X0082131Y0020653D01*
X0082131Y0022528D01*
X0079006Y0022528D01*
X0082131Y0022528D02*
X0082131Y0024404D01*
X0084631Y0022528D01*
X0039493Y0025529D02*
X0039493Y0012931D01*
X0026894Y0012931D01*
X0026894Y0025529D01*
X0039493Y0025529D01*
X0023717Y0028472D02*
X0023717Y0041070D01*
X0011119Y0041070D01*
X0011119Y0028472D01*
X0023717Y0028472D01*
X0026848Y0044722D02*
X0026848Y0057321D01*
X0039447Y0057321D01*
X0039447Y0044722D01*
X0026848Y0044722D01*
X0023735Y0060271D02*
X0011137Y0060271D01*
X0011137Y0072869D01*
X0023735Y0072869D01*
X0023735Y0060271D01*
X0026867Y0076383D02*
X0026867Y0088981D01*
X0039466Y0088981D01*
X0039466Y0076383D01*
X0026867Y0076383D01*
X0023686Y0091968D02*
X0011088Y0091968D01*
X0011088Y0104567D01*
X0023686Y0104567D01*
X0023686Y0091968D01*
X0026885Y0108184D02*
X0026885Y0120783D01*
X0039483Y0120783D01*
X0039483Y0108184D01*
X0026885Y0108184D01*
X0041255Y0120192D02*
X0049680Y0120192D01*
X0049680Y0145468D01*
X0041255Y0145468D01*
X0041255Y0120192D01*
X0045468Y0128455D02*
X0045468Y0131580D01*
X0047343Y0131580D01*
X0045468Y0134080D01*
X0045468Y0137205D01*
X0045468Y0134080D02*
X0043593Y0134080D01*
X0045468Y0134080D02*
X0043593Y0131580D01*
X0045468Y0131580D01*
X0045468Y0134080D02*
X0047343Y0134080D01*
X0052078Y0131001D02*
X0052078Y0147493D01*
X0051491Y0150271D02*
X0070389Y0150271D01*
X0070389Y0128224D01*
X0051491Y0128224D01*
X0051491Y0150271D01*
X0057578Y0149700D02*
X0057578Y0148120D01*
X0057578Y0140374D02*
X0057578Y0138120D01*
X0052078Y0147493D02*
X0052277Y0147646D01*
X0052479Y0147794D01*
X0052684Y0147937D01*
X0052893Y0148075D01*
X0053105Y0148208D01*
X0053320Y0148336D01*
X0053538Y0148458D01*
X0053759Y0148576D01*
X0053983Y0148688D01*
X0054209Y0148795D01*
X0054438Y0148896D01*
X0054669Y0148992D01*
X0054903Y0149083D01*
X0055138Y0149168D01*
X0055376Y0149247D01*
X0055615Y0149320D01*
X0055856Y0149388D01*
X0056098Y0149450D01*
X0056342Y0149506D01*
X0056588Y0149557D01*
X0056834Y0149601D01*
X0057081Y0149640D01*
X0057329Y0149672D01*
X0057578Y0149699D01*
X0053696Y0156491D02*
X0066294Y0156491D01*
X0066294Y0169090D01*
X0053696Y0169090D01*
X0053696Y0156491D01*
X0039501Y0152609D02*
X0039501Y0140010D01*
X0026902Y0140010D01*
X0026902Y0152609D01*
X0039501Y0152609D01*
X0023735Y0155625D02*
X0023735Y0168224D01*
X0011137Y0168224D01*
X0011137Y0155625D01*
X0023735Y0155625D01*
X0023681Y0136366D02*
X0011082Y0136366D01*
X0011082Y0123767D01*
X0023681Y0123767D01*
X0023681Y0136366D01*
X0055940Y0124562D02*
X0068539Y0124562D01*
X0068539Y0111964D01*
X0055940Y0111964D01*
X0055940Y0124562D01*
X0057578Y0128795D02*
X0057578Y0130374D01*
X0052078Y0131001D02*
X0052280Y0130846D01*
X0052485Y0130696D01*
X0052694Y0130550D01*
X0052907Y0130410D01*
X0053123Y0130275D01*
X0053342Y0130146D01*
X0053564Y0130022D01*
X0053789Y0129903D01*
X0054017Y0129790D01*
X0054247Y0129682D01*
X0054480Y0129580D01*
X0054716Y0129483D01*
X0054954Y0129392D01*
X0055193Y0129307D01*
X0055435Y0129228D01*
X0055679Y0129155D01*
X0055924Y0129088D01*
X0056171Y0129026D01*
X0056420Y0128971D01*
X0056670Y0128922D01*
X0056920Y0128879D01*
X0057172Y0128842D01*
X0057425Y0128811D01*
X0057678Y0128786D01*
X0057932Y0128767D01*
X0058186Y0128754D01*
X0058440Y0128748D01*
X0058695Y0128748D01*
X0058949Y0128754D01*
X0059204Y0128766D01*
X0059457Y0128784D01*
X0059711Y0128808D01*
X0059963Y0128839D01*
X0060215Y0128875D01*
X0060466Y0128918D01*
X0060716Y0128967D01*
X0060964Y0129022D01*
X0061211Y0129083D01*
X0061457Y0129149D01*
X0061701Y0129222D01*
X0061943Y0129301D01*
X0062183Y0129385D01*
X0062421Y0129476D01*
X0062657Y0129572D01*
X0062890Y0129673D01*
X0063121Y0129781D01*
X0063349Y0129893D01*
X0063574Y0130012D01*
X0063796Y0130136D01*
X0064016Y0130265D01*
X0064232Y0130399D01*
X0064445Y0130539D01*
X0064654Y0130684D01*
X0064860Y0130833D01*
X0065062Y0130988D01*
X0065260Y0131148D01*
X0065454Y0131312D01*
X0065645Y0131481D01*
X0065831Y0131654D01*
X0066013Y0131832D01*
X0066190Y0132015D01*
X0066363Y0132201D01*
X0066532Y0132392D01*
X0066696Y0132587D01*
X0066855Y0132786D01*
X0067009Y0132988D01*
X0067158Y0133194D01*
X0067302Y0133404D01*
X0067441Y0133617D01*
X0067575Y0133834D01*
X0067704Y0134053D01*
X0067827Y0134276D01*
X0067944Y0134502D01*
X0068057Y0134730D01*
X0068163Y0134961D01*
X0068264Y0135195D01*
X0068360Y0135431D01*
X0068449Y0135669D01*
X0068533Y0135909D01*
X0068611Y0136151D01*
X0068611Y0142343D02*
X0068533Y0142587D01*
X0068448Y0142829D01*
X0068358Y0143068D01*
X0068262Y0143306D01*
X0068160Y0143541D01*
X0068052Y0143774D01*
X0067939Y0144004D01*
X0067820Y0144231D01*
X0067696Y0144455D01*
X0067566Y0144676D01*
X0067431Y0144893D01*
X0067290Y0145108D01*
X0067144Y0145319D01*
X0066994Y0145526D01*
X0066838Y0145729D01*
X0066677Y0145929D01*
X0066512Y0146125D01*
X0066342Y0146316D01*
X0066167Y0146504D01*
X0065987Y0146687D01*
X0065804Y0146865D01*
X0065615Y0147040D01*
X0065423Y0147209D01*
X0065227Y0147374D01*
X0065026Y0147534D01*
X0064822Y0147688D01*
X0064614Y0147838D01*
X0064403Y0147983D01*
X0064188Y0148123D01*
X0063970Y0148257D01*
X0063748Y0148386D01*
X0063524Y0148509D01*
X0063296Y0148627D01*
X0063066Y0148740D01*
X0062833Y0148846D01*
X0062597Y0148947D01*
X0062359Y0149043D01*
X0062119Y0149132D01*
X0061877Y0149215D01*
X0061632Y0149293D01*
X0061386Y0149364D01*
X0061138Y0149430D01*
X0060889Y0149489D01*
X0060639Y0149543D01*
X0060387Y0149590D01*
X0060134Y0149631D01*
X0059880Y0149666D01*
X0059625Y0149695D01*
X0059370Y0149717D01*
X0059114Y0149733D01*
X0058858Y0149743D01*
X0058602Y0149747D01*
X0058345Y0149744D01*
X0058089Y0149736D01*
X0057833Y0149721D01*
X0057578Y0149699D01*
X0088381Y0151019D02*
X0088381Y0159444D01*
X0113657Y0159444D01*
X0113657Y0151019D01*
X0088381Y0151019D01*
X0096644Y0155231D02*
X0099769Y0155231D01*
X0099769Y0157107D01*
X0099769Y0155231D02*
X0099769Y0153356D01*
X0099769Y0155231D02*
X0102269Y0157107D01*
X0102269Y0155231D01*
X0105394Y0155231D01*
X0102269Y0155231D02*
X0102269Y0153356D01*
X0099769Y0155231D01*
X0100044Y0163278D02*
X0102544Y0165153D01*
X0105670Y0165153D01*
X0102544Y0165153D02*
X0102544Y0163278D01*
X0102544Y0165153D02*
X0102544Y0167028D01*
X0102544Y0165153D02*
X0100044Y0167028D01*
X0100044Y0165153D01*
X0096919Y0165153D01*
X0100044Y0165153D02*
X0100044Y0163278D01*
X0088657Y0160940D02*
X0088657Y0169365D01*
X0113932Y0169365D01*
X0113932Y0160940D01*
X0088657Y0160940D01*
X0104247Y0144365D02*
X0104247Y0135940D01*
X0129523Y0135940D01*
X0129523Y0144365D01*
X0104247Y0144365D01*
X0112510Y0140153D02*
X0115635Y0140153D01*
X0115635Y0138278D01*
X0118135Y0140153D01*
X0121260Y0140153D01*
X0118135Y0140153D02*
X0118135Y0138278D01*
X0118135Y0140153D02*
X0118135Y0142028D01*
X0118135Y0140153D02*
X0115635Y0142028D01*
X0115635Y0140153D01*
X0104680Y0133420D02*
X0129956Y0133420D01*
X0129956Y0124995D01*
X0104680Y0124995D01*
X0104680Y0133420D01*
X0112943Y0129208D02*
X0116068Y0129208D01*
X0116068Y0131083D01*
X0116068Y0129208D02*
X0116068Y0127333D01*
X0116068Y0129208D02*
X0118568Y0131083D01*
X0118568Y0129208D01*
X0121693Y0129208D01*
X0118568Y0129208D02*
X0118568Y0127333D01*
X0116068Y0129208D01*
X0191140Y0162405D02*
X0191142Y0162464D01*
X0191148Y0162522D01*
X0191158Y0162580D01*
X0191171Y0162637D01*
X0191189Y0162694D01*
X0191210Y0162749D01*
X0191235Y0162802D01*
X0191263Y0162853D01*
X0191294Y0162903D01*
X0191329Y0162950D01*
X0191367Y0162995D01*
X0191408Y0163038D01*
X0191452Y0163077D01*
X0191498Y0163113D01*
X0191546Y0163147D01*
X0191597Y0163177D01*
X0191650Y0163203D01*
X0191704Y0163226D01*
X0191759Y0163245D01*
X0191816Y0163261D01*
X0191874Y0163273D01*
X0191932Y0163281D01*
X0191991Y0163285D01*
X0192049Y0163285D01*
X0192108Y0163281D01*
X0192166Y0163273D01*
X0192224Y0163261D01*
X0192281Y0163245D01*
X0192336Y0163226D01*
X0192390Y0163203D01*
X0192443Y0163177D01*
X0192494Y0163147D01*
X0192542Y0163113D01*
X0192588Y0163077D01*
X0192632Y0163038D01*
X0192673Y0162995D01*
X0192711Y0162950D01*
X0192746Y0162903D01*
X0192777Y0162853D01*
X0192805Y0162802D01*
X0192830Y0162749D01*
X0192851Y0162694D01*
X0192869Y0162637D01*
X0192882Y0162580D01*
X0192892Y0162522D01*
X0192898Y0162464D01*
X0192900Y0162405D01*
X0192898Y0162346D01*
X0192892Y0162288D01*
X0192882Y0162230D01*
X0192869Y0162173D01*
X0192851Y0162116D01*
X0192830Y0162061D01*
X0192805Y0162008D01*
X0192777Y0161957D01*
X0192746Y0161907D01*
X0192711Y0161860D01*
X0192673Y0161815D01*
X0192632Y0161772D01*
X0192588Y0161733D01*
X0192542Y0161697D01*
X0192494Y0161663D01*
X0192443Y0161633D01*
X0192390Y0161607D01*
X0192336Y0161584D01*
X0192281Y0161565D01*
X0192224Y0161549D01*
X0192166Y0161537D01*
X0192108Y0161529D01*
X0192049Y0161525D01*
X0191991Y0161525D01*
X0191932Y0161529D01*
X0191874Y0161537D01*
X0191816Y0161549D01*
X0191759Y0161565D01*
X0191704Y0161584D01*
X0191650Y0161607D01*
X0191597Y0161633D01*
X0191546Y0161663D01*
X0191498Y0161697D01*
X0191452Y0161733D01*
X0191408Y0161772D01*
X0191367Y0161815D01*
X0191329Y0161860D01*
X0191294Y0161907D01*
X0191263Y0161957D01*
X0191235Y0162008D01*
X0191210Y0162061D01*
X0191189Y0162116D01*
X0191171Y0162173D01*
X0191158Y0162230D01*
X0191148Y0162288D01*
X0191142Y0162346D01*
X0191140Y0162405D01*
X0229126Y0165657D02*
X0229877Y0164907D01*
X0231378Y0164907D01*
X0232129Y0165657D01*
X0233730Y0164907D02*
X0236733Y0164907D01*
X0238334Y0164907D02*
X0238334Y0169411D01*
X0240586Y0169411D01*
X0241336Y0168660D01*
X0241336Y0167159D01*
X0240586Y0166408D01*
X0238334Y0166408D01*
X0239835Y0166408D02*
X0241336Y0164907D01*
X0242200Y0163578D02*
X0249287Y0163578D01*
X0249287Y0170665D01*
X0242200Y0170665D01*
X0242200Y0163578D01*
X0242239Y0160586D02*
X0249326Y0160586D01*
X0249326Y0153499D01*
X0242239Y0153499D01*
X0242239Y0160586D01*
X0240625Y0159332D02*
X0239124Y0159332D01*
X0238373Y0158581D01*
X0238373Y0155579D01*
X0239124Y0154828D01*
X0240625Y0154828D01*
X0241376Y0155579D01*
X0241376Y0158581D02*
X0240625Y0159332D01*
X0236772Y0158581D02*
X0236021Y0159332D01*
X0234520Y0159332D01*
X0233769Y0158581D01*
X0233769Y0155579D01*
X0234520Y0154828D01*
X0236021Y0154828D01*
X0236772Y0155579D01*
X0232168Y0156329D02*
X0232168Y0159332D01*
X0229165Y0159332D02*
X0229165Y0156329D01*
X0230667Y0154828D01*
X0232168Y0156329D01*
X0231417Y0149450D02*
X0229916Y0149450D01*
X0229165Y0148699D01*
X0229165Y0145697D01*
X0229916Y0144946D01*
X0231417Y0144946D01*
X0232168Y0145697D01*
X0232168Y0147198D01*
X0230667Y0147198D01*
X0232168Y0148699D02*
X0231417Y0149450D01*
X0233769Y0149450D02*
X0236772Y0144946D01*
X0236772Y0149450D01*
X0238373Y0149450D02*
X0240625Y0149450D01*
X0241376Y0148699D01*
X0241376Y0145697D01*
X0240625Y0144946D01*
X0238373Y0144946D01*
X0238373Y0149450D01*
X0242239Y0150704D02*
X0249326Y0150704D01*
X0249326Y0143617D01*
X0242239Y0143617D01*
X0242239Y0150704D01*
X0233769Y0149450D02*
X0233769Y0144946D01*
X0235389Y0139450D02*
X0236890Y0137949D01*
X0236890Y0134946D01*
X0236890Y0137198D02*
X0233887Y0137198D01*
X0233887Y0137949D02*
X0235389Y0139450D01*
X0233887Y0137949D02*
X0233887Y0134946D01*
X0232286Y0135697D02*
X0232286Y0138699D01*
X0231535Y0139450D01*
X0229284Y0139450D01*
X0229284Y0134946D01*
X0231535Y0134946D01*
X0232286Y0135697D01*
X0238491Y0139450D02*
X0241494Y0139450D01*
X0239993Y0139450D02*
X0239993Y0134946D01*
X0242357Y0133617D02*
X0249444Y0133617D01*
X0249444Y0140704D01*
X0242357Y0140704D01*
X0242357Y0133617D01*
X0242279Y0130468D02*
X0249365Y0130468D01*
X0249365Y0123381D01*
X0242279Y0123381D01*
X0242279Y0130468D01*
X0241415Y0129214D02*
X0238413Y0126211D01*
X0239163Y0126962D02*
X0241415Y0124710D01*
X0238413Y0124710D02*
X0238413Y0129214D01*
X0233809Y0129214D02*
X0233809Y0124710D01*
X0236811Y0124710D01*
X0232207Y0125461D02*
X0231457Y0124710D01*
X0229955Y0124710D01*
X0229205Y0125461D01*
X0229205Y0128463D01*
X0229955Y0129214D01*
X0231457Y0129214D01*
X0232207Y0128463D01*
X0233730Y0164907D02*
X0233730Y0169411D01*
X0232129Y0168660D02*
X0231378Y0169411D01*
X0229877Y0169411D01*
X0229126Y0168660D01*
X0229126Y0165657D01*
D16*
X0210918Y0167110D02*
X0180209Y0167110D01*
X0180209Y0128566D01*
X0210918Y0128566D01*
X0210918Y0167110D01*
D17*
X0203044Y0164787D02*
X0203044Y0130889D01*
X0190052Y0130889D01*
X0188083Y0130889D01*
X0188083Y0164787D01*
X0190052Y0164787D01*
X0190052Y0130889D01*
X0190052Y0164787D02*
X0203044Y0164787D01*
X0219601Y0076264D02*
X0245401Y0076264D01*
X0245401Y0062264D01*
X0219601Y0062264D01*
X0219601Y0076264D01*
D18*
X0240201Y0080866D02*
X0242069Y0080866D01*
X0241602Y0082267D02*
X0241602Y0079464D01*
X0240201Y0080866D02*
X0241602Y0082267D01*
X0238121Y0055267D02*
X0237187Y0055267D01*
X0236720Y0054800D01*
X0237654Y0053866D02*
X0238121Y0053866D01*
X0238588Y0053399D01*
X0238588Y0052931D01*
X0238121Y0052464D01*
X0237187Y0052464D01*
X0236720Y0052931D01*
X0238121Y0053866D02*
X0238588Y0054333D01*
X0238588Y0054800D01*
X0238121Y0055267D01*
X0229488Y0054763D02*
X0229488Y0054296D01*
X0227620Y0052427D01*
X0229488Y0052427D01*
X0229488Y0054763D02*
X0229021Y0055230D01*
X0228087Y0055230D01*
X0227620Y0054763D01*
X0220976Y0052464D02*
X0219108Y0052464D01*
X0220042Y0052464D02*
X0220042Y0055267D01*
X0219108Y0054333D01*
X0173835Y0076781D02*
X0168717Y0076781D01*
X0168717Y0088199D01*
X0173835Y0088199D01*
X0173835Y0076781D01*
X0124095Y0031602D02*
X0124095Y0026998D01*
X0122561Y0026998D02*
X0125630Y0026998D01*
X0122561Y0030068D02*
X0124095Y0031602D01*
X0121026Y0031602D02*
X0117957Y0031602D01*
X0117957Y0026998D01*
X0116422Y0027766D02*
X0115655Y0026998D01*
X0114120Y0026998D01*
X0113353Y0027766D01*
X0113353Y0030835D01*
X0114120Y0031602D01*
X0115655Y0031602D01*
X0116422Y0030835D01*
X0117957Y0029300D02*
X0119491Y0029300D01*
X0129939Y0029661D02*
X0129939Y0025057D01*
X0133009Y0025057D01*
X0134543Y0025057D02*
X0137613Y0025057D01*
X0136078Y0025057D02*
X0136078Y0029661D01*
X0134543Y0028127D01*
X0067948Y0115704D02*
X0056531Y0115704D01*
X0056531Y0120822D01*
X0067948Y0120822D01*
X0067948Y0115704D01*
X0062554Y0157082D02*
X0057436Y0157082D01*
X0057436Y0168499D01*
X0062554Y0168499D01*
X0062554Y0157082D01*
M02*
