G75*
%MOIN*%
%OFA0B0*%
%FSLAX25Y25*%
%IPPOS*%
%LPD*%
%AMOC8*
5,1,8,0,0,1.08239X$1,22.5*
%
%ADD10C,0.00000*%
%ADD11R,0.04737X0.05131*%
%ADD12R,0.05131X0.04737*%
%ADD13OC8,0.05800*%
%ADD14R,0.07493X0.07887*%
%ADD15R,0.07887X0.07493*%
%ADD16R,0.09461X0.03162*%
%ADD17R,0.05600X0.09600*%
%ADD18R,0.14973X0.09461*%
%ADD19R,0.04343X0.03950*%
%ADD20R,0.12611X0.12611*%
%ADD21OC8,0.06000*%
%ADD22OC8,0.14580*%
%ADD23OC8,0.10643*%
%ADD24R,0.07100X0.07100*%
%ADD25R,0.03950X0.04343*%
%ADD26R,0.01981X0.03950*%
%ADD27R,0.03162X0.03950*%
%ADD28R,0.03556X0.04343*%
%ADD29R,0.04762X0.04762*%
D10*
X0002161Y0002357D02*
X0264208Y0002476D01*
X0264247Y0002672D02*
X0264591Y0179978D01*
X0264562Y0179956D02*
X0002515Y0179838D01*
X0002476Y0179838D02*
X0002318Y0002633D01*
D11*
X0101413Y0022515D03*
X0108106Y0022515D03*
X0166216Y0070901D03*
X0172909Y0070901D03*
X0179111Y0071112D03*
X0185804Y0071112D03*
X0182260Y0078986D03*
X0182260Y0085679D03*
X0094208Y0140192D03*
X0087515Y0140192D03*
X0087554Y0132397D03*
X0087554Y0125704D03*
X0051137Y0114287D03*
X0044444Y0114287D03*
X0072082Y0150507D03*
X0072082Y0157200D03*
X0072043Y0165428D03*
X0078735Y0165428D03*
X0051189Y0153843D03*
X0044497Y0153843D03*
X0042357Y0162948D03*
X0049050Y0162948D03*
X0149680Y0163775D03*
X0149680Y0157082D03*
X0175025Y0163161D03*
X0175025Y0169854D03*
D12*
X0164605Y0163411D03*
X0164605Y0156718D03*
X0097239Y0132397D03*
X0097239Y0125704D03*
X0082239Y0150743D03*
X0082239Y0157436D03*
X0190443Y0085604D03*
X0190443Y0078911D03*
X0197051Y0069476D03*
X0203744Y0069476D03*
X0212804Y0066902D03*
X0212804Y0073595D03*
X0203657Y0060106D03*
X0196964Y0060106D03*
X0196936Y0050363D03*
X0203629Y0050363D03*
X0212765Y0050327D03*
X0212765Y0057020D03*
X0213041Y0043241D03*
X0219734Y0043241D03*
D13*
X0236702Y0031801D03*
X0236752Y0022610D03*
X0202775Y0022019D03*
X0202725Y0031210D03*
X0167174Y0030777D03*
X0167224Y0021586D03*
X0166673Y0048948D03*
X0166623Y0058139D03*
D14*
X0158006Y0071219D03*
X0158006Y0087361D03*
X0199995Y0083775D03*
X0199995Y0099917D03*
X0045468Y0124759D03*
X0045468Y0140901D03*
D15*
X0092948Y0155231D03*
X0093224Y0165153D03*
X0109365Y0165153D03*
X0109090Y0155231D03*
X0108814Y0140153D03*
X0109247Y0129208D03*
X0125389Y0129208D03*
X0124956Y0140153D03*
X0172554Y0094680D03*
X0188696Y0094680D03*
X0228722Y0044703D03*
X0244863Y0044703D03*
X0091452Y0022528D03*
X0075310Y0022528D03*
D16*
X0185327Y0132838D03*
X0185327Y0137838D03*
X0185327Y0142838D03*
X0185327Y0147838D03*
X0185327Y0152838D03*
X0185327Y0157838D03*
X0185327Y0162838D03*
X0205800Y0162838D03*
X0205800Y0157838D03*
X0205800Y0152838D03*
X0205800Y0147838D03*
X0205800Y0142838D03*
X0205800Y0137838D03*
X0205800Y0132838D03*
D17*
X0223401Y0057064D03*
X0232501Y0057064D03*
X0241601Y0057064D03*
D18*
X0232501Y0081465D03*
D19*
X0175213Y0078750D03*
X0167339Y0082490D03*
X0175213Y0086230D03*
X0063932Y0159050D03*
X0056058Y0162791D03*
X0063932Y0166531D03*
D20*
X0033201Y0146309D03*
X0017436Y0161924D03*
X0017382Y0130066D03*
X0033184Y0114483D03*
X0017387Y0098268D03*
X0033167Y0082682D03*
X0017436Y0066570D03*
X0033148Y0051021D03*
X0017418Y0034771D03*
X0033193Y0019230D03*
D21*
X0058578Y0134247D03*
X0066078Y0139247D03*
X0058578Y0144247D03*
D22*
X0090260Y0107830D03*
X0136126Y0099247D03*
X0136126Y0054326D03*
X0081048Y0043893D03*
D23*
X0089670Y0064956D03*
X0089867Y0081649D03*
D24*
X0245822Y0126924D03*
X0245901Y0137161D03*
X0245783Y0147161D03*
X0245783Y0157043D03*
X0245743Y0167121D03*
D25*
X0065980Y0122200D03*
X0058499Y0122200D03*
X0062239Y0114326D03*
D26*
X0115231Y0023342D03*
X0122712Y0023342D03*
D27*
X0118972Y0023342D03*
X0118972Y0023342D03*
D28*
X0129680Y0022357D03*
X0134798Y0022357D03*
D29*
X0154247Y0062594D03*
X0165310Y0088696D03*
X0158932Y0108420D03*
X0159326Y0125704D03*
X0132436Y0125546D03*
X0157279Y0157082D03*
X0128342Y0161452D03*
X0217909Y0148106D03*
X0235783Y0127318D03*
X0229759Y0109405D03*
X0228460Y0099208D03*
X0228735Y0089838D03*
X0248499Y0074444D03*
M02*
