%
M48
M72
T01C0.0236
T02C0.0300
T03C0.0320
T04C0.0591
T05C0.0709
T06C0.0787
%
T01
X12834Y16145
X15728Y15708
X15933Y12570
X15893Y10842
X13244Y12555
X16531Y8870
X15425Y6259
X22874Y8984
X22846Y9921
X22976Y10940
X23578Y12732
X21791Y14811
X24850Y7444
T02
X16662Y5814
X16667Y4895
X16717Y3078
X16722Y2159
X20278Y2202
X20273Y3121
X23670Y3180
X23675Y2261
T03
X5858Y14425
X6608Y13925
X5858Y13425
X24578Y15704
X24574Y16712
X24578Y14716
X24590Y13716
X24582Y12692
T04
X8987Y8165
X8967Y6496
T05
X3319Y1923
X1742Y3477
X3315Y5102
X1744Y6657
X3317Y8268
X1739Y9827
X3318Y11448
X1738Y13007
X3320Y14631
X1744Y16192
T06
X9026Y10783
X13613Y9925
X13613Y5433
X8105Y4389
M30
