%
M48
M72
T01C0.02362
T02C0.03200
T03C0.05906
T04C0.07087
T05C0.07874
%
T01
X207871Y71571
X183461Y58972
X170075Y66059
X141335Y69209
X138186Y82201
X125942Y87988
X132855Y98988
X157477Y102280
X176375Y99130
X209839Y89287
X242123Y71965
X251784Y67413
X257826Y67463
X257865Y114549
X251824Y114500
X251824Y114941
X241335Y108579
X252021Y89696
X258062Y89746
X175769Y49312
X145194Y43264
X125587Y47161
X132871Y112358
T02
X62635Y35547
X72871Y35469
X82871Y35587
X92753Y35587
X102831Y35626
X209426Y62516
X216926Y67516
X216926Y57516
T03
X103787Y83224
X103984Y99917
T04
X276790Y61738
X295064Y52880
X276908Y40599
X295196Y83227
X276746Y92176
X295459Y101418
X276635Y110815
X295360Y123207
T05
X103393Y57043
X57527Y65626
X57527Y110547
X112606Y120980
M30
