G75*
%MOIN*%
%OFA0B0*%
%FSLAX25Y25*%
%IPPOS*%
%LPD*%
%AMOC8*
5,1,8,0,0,1.08239X$1,22.5*
%
%ADD10C,0.00000*%
%ADD11OC8,0.07800*%
%ADD12C,0.06737*%
%ADD13OC8,0.10800*%
D10*
X0060269Y0038933D02*
X0231214Y0038933D01*
X0231214Y0593854D01*
X0060269Y0593854D01*
X0060269Y0038933D01*
D11*
X0121214Y0138933D03*
X0121214Y0148933D03*
X0121214Y0208933D03*
X0121214Y0218933D03*
X0121214Y0278933D03*
X0121214Y0288933D03*
X0121214Y0348933D03*
X0121214Y0358933D03*
X0121214Y0418933D03*
X0121214Y0428933D03*
X0121214Y0488933D03*
X0121214Y0498933D03*
X0171214Y0498933D03*
X0171214Y0488933D03*
X0171214Y0428933D03*
X0171214Y0418933D03*
X0171214Y0358933D03*
X0171214Y0348933D03*
X0171214Y0288933D03*
X0171214Y0278933D03*
X0171214Y0218933D03*
X0171214Y0208933D03*
X0171214Y0148933D03*
X0171214Y0138933D03*
D12*
X0146214Y0515965D02*
X0146214Y0521902D01*
X0136214Y0521902D02*
X0136214Y0515965D01*
D13*
X0146214Y0473933D03*
X0146214Y0458933D03*
X0146214Y0403933D03*
X0146214Y0388933D03*
X0146214Y0333933D03*
X0146214Y0318933D03*
X0146214Y0263933D03*
X0146214Y0248933D03*
X0146214Y0193933D03*
X0146214Y0178933D03*
X0146214Y0123933D03*
X0146214Y0108933D03*
X0201214Y0108933D03*
X0201214Y0178933D03*
X0201214Y0248933D03*
X0201214Y0318933D03*
X0201214Y0388933D03*
X0201214Y0458933D03*
X0091214Y0473933D03*
X0091214Y0403933D03*
X0091214Y0333933D03*
X0091214Y0263933D03*
X0091214Y0193933D03*
X0091214Y0123933D03*
M02*
