%
M48
M72
T01C0.0320
T02C0.0394
T03C0.0400
%
T01
X6205Y10094
X6205Y11094
X6205Y17094
X6205Y18094
X6205Y24094
X6205Y25094
X6205Y31094
X6205Y32094
X6205Y38094
X6205Y39094
X6205Y45094
X6205Y46094
X11205Y46094
X11205Y45094
X11205Y39094
X11205Y38094
X11205Y32094
X11205Y31094
X11205Y25094
X11205Y24094
X11205Y18094
X11205Y17094
X11205Y11094
X11205Y10094
T02
X8705Y48094
X7705Y48094
T03
X3205Y8594
X3205Y15594
X3205Y22594
X3205Y29594
X3205Y36594
X3205Y43594
X8705Y43594
X8705Y42094
X8705Y36594
X8705Y35094
X8705Y29594
X8705Y28094
X8705Y22594
X8705Y21094
X8705Y15594
X8705Y14094
X8705Y8594
X8705Y7094
X14205Y7094
X14205Y14094
X14205Y21094
X14205Y28094
X14205Y35094
X14205Y42094
M30
