%
M48
M72
T01C0.02362
T02C0.03000
T03C0.03200
T04C0.04000
T05C0.05906
T06C0.07087
T07C0.07874
%
T01
X273068Y83106
X166091Y103862
X189603Y95705
X160469Y72083
X171099Y68146
X177398Y68146
X194721Y57909
X177029Y50887
X152359Y45232
X132753Y49130
X91965Y88618
X140020Y100957
X140036Y114327
T02
X266605Y116518
X257414Y116468
X168319Y148366
X168369Y139175
X108445Y148760
X99254Y148711
X78563Y148170
X69372Y148120
T03
X69800Y37516
X80036Y37437
X90036Y37555
X99918Y37555
X109997Y37594
X220528Y63697
X228028Y68697
X228028Y58697
X247890Y148854
X232890Y148854
X228816Y177594
X248816Y177594
X260233Y178028
X280233Y178028
X145509Y144937
X145509Y129937
X87044Y166295
X87044Y186295
T04
X121493Y190547
X121493Y180547
X121493Y170547
X153934Y182079
X183934Y175079
T05
X110952Y85193
X111149Y101886
T06
X283955Y63706
X302230Y54849
X302989Y81531
X283912Y94145
X302625Y103386
X283800Y112784
X302525Y125176
X302755Y169054
X302538Y193158
T07
X119771Y122949
X64692Y112516
X64692Y67595
X110558Y59012
M30
