G04 EAGLE Gerber X2 export*
%TF.Part,Single*%
%TF.FileFunction,Other,Component side*%
%TF.FilePolarity,Positive*%
%TF.GenerationSoftware,Autodesk,EAGLE,9.0.1*%
%TF.CreationDate,2018-09-16T06:03:56Z*%
G75*
%MOMM*%
%FSLAX34Y34*%
%LPD*%
%AMOC8*
5,1,8,0,0,1.08239X$1,22.5*%
G01*
%ADD10C,0.000000*%
%ADD11R,1.000000X1.100000*%
%ADD12P,1.374635X8X202.500000*%
%ADD13P,1.374635X8X22.500000*%
%ADD14R,0.600000X2.200000*%
%ADD15R,1.200000X0.560000*%
%ADD16R,1.100000X1.000000*%
%ADD17R,3.000000X3.000000*%
%ADD18P,1.429621X8X112.500000*%
%ADD19P,3.788365X8X202.500000*%
%ADD20P,2.705975X8X202.500000*%
%ADD21R,1.600200X1.600200*%
%ADD22R,3.000000X2.000000*%
%ADD23C,1.524000*%
%ADD24P,1.814519X8X22.500000*%
%ADD25P,1.814519X8X292.500000*%
%ADD26R,1.800000X1.700000*%
%ADD27R,1.900000X1.700000*%
%ADD28P,1.374635X8X112.500000*%
%ADD29P,1.374635X8X292.500000*%
%ADD30C,1.320800*%
%ADD31R,1.500000X3.400000*%
%ADD32C,0.609600*%
%ADD33C,1.006400*%
%ADD34P,1.089317X8X22.500000*%
%ADD35C,1.930400*%
%ADD36C,1.270000*%
%ADD37C,0.812800*%
%ADD38C,1.900000*%
%ADD39C,1.016000*%
%ADD40C,2.540000*%

G36*
X59401Y110428D02*
X59401Y110428D01*
X59592Y110430D01*
X59626Y110437D01*
X59661Y110438D01*
X59847Y110479D01*
X60034Y110516D01*
X60067Y110528D01*
X60100Y110536D01*
X60276Y110609D01*
X60454Y110678D01*
X60484Y110696D01*
X60516Y110709D01*
X60676Y110813D01*
X60839Y110912D01*
X60865Y110935D01*
X60894Y110954D01*
X61128Y111161D01*
X93220Y143253D01*
X93802Y143494D01*
X93876Y143532D01*
X93952Y143562D01*
X94075Y143636D01*
X94202Y143702D01*
X94267Y143753D01*
X94337Y143796D01*
X94444Y143890D01*
X94558Y143978D01*
X94613Y144039D01*
X94675Y144094D01*
X94763Y144206D01*
X94859Y144312D01*
X94903Y144382D01*
X94954Y144447D01*
X95022Y144573D01*
X95097Y144695D01*
X95128Y144771D01*
X95167Y144844D01*
X95211Y144980D01*
X95264Y145113D01*
X95280Y145194D01*
X95306Y145272D01*
X95325Y145414D01*
X95354Y145554D01*
X95356Y145636D01*
X95367Y145718D01*
X95361Y145861D01*
X95365Y146004D01*
X95352Y146086D01*
X95349Y146168D01*
X95318Y146307D01*
X95296Y146449D01*
X95269Y146527D01*
X95251Y146608D01*
X95196Y146739D01*
X95149Y146875D01*
X95109Y146947D01*
X95077Y147023D01*
X95000Y147143D01*
X94930Y147268D01*
X94878Y147332D01*
X94833Y147401D01*
X94670Y147586D01*
X94645Y147617D01*
X94637Y147623D01*
X94626Y147635D01*
X94565Y147696D01*
X92871Y151786D01*
X92871Y156214D01*
X93646Y158084D01*
X93681Y158196D01*
X93725Y158304D01*
X93748Y158410D01*
X93781Y158514D01*
X93795Y158630D01*
X93820Y158744D01*
X93830Y158898D01*
X93837Y158960D01*
X93836Y158997D01*
X93839Y159056D01*
X93839Y223021D01*
X95386Y226756D01*
X174294Y305664D01*
X178029Y307211D01*
X224543Y307211D01*
X224707Y307225D01*
X224872Y307232D01*
X224931Y307245D01*
X224992Y307251D01*
X225151Y307294D01*
X225311Y307330D01*
X225368Y307353D01*
X225426Y307369D01*
X225574Y307440D01*
X225727Y307503D01*
X225778Y307536D01*
X225833Y307563D01*
X225966Y307658D01*
X226105Y307748D01*
X226163Y307799D01*
X226171Y307804D01*
X230870Y309751D01*
X249130Y309751D01*
X249277Y309690D01*
X249388Y309655D01*
X249497Y309611D01*
X249603Y309588D01*
X249706Y309555D01*
X249822Y309541D01*
X249937Y309516D01*
X250091Y309506D01*
X250153Y309499D01*
X250189Y309500D01*
X250249Y309497D01*
X269843Y309497D01*
X270006Y309511D01*
X270171Y309518D01*
X270230Y309531D01*
X270291Y309537D01*
X270450Y309580D01*
X270610Y309616D01*
X270667Y309639D01*
X270725Y309655D01*
X270874Y309726D01*
X271026Y309789D01*
X271077Y309822D01*
X271132Y309849D01*
X271265Y309944D01*
X271404Y310034D01*
X271462Y310085D01*
X271498Y310111D01*
X271541Y310154D01*
X271638Y310240D01*
X277709Y316311D01*
X282284Y318206D01*
X292731Y318206D01*
X292860Y318218D01*
X292990Y318219D01*
X293084Y318238D01*
X293179Y318246D01*
X293305Y318280D01*
X293433Y318305D01*
X293522Y318339D01*
X293614Y318365D01*
X293731Y318420D01*
X293853Y318467D01*
X293934Y318517D01*
X294020Y318558D01*
X294126Y318634D01*
X294237Y318701D01*
X294309Y318764D01*
X294387Y318820D01*
X294477Y318913D01*
X294575Y318999D01*
X294634Y319074D01*
X294701Y319143D01*
X294774Y319251D01*
X294854Y319353D01*
X294899Y319437D01*
X294953Y319516D01*
X295005Y319635D01*
X295067Y319749D01*
X295096Y319840D01*
X295135Y319928D01*
X295166Y320054D01*
X295206Y320178D01*
X295219Y320272D01*
X295242Y320365D01*
X295250Y320495D01*
X295267Y320624D01*
X295263Y320719D01*
X295269Y320814D01*
X295254Y320944D01*
X295249Y321074D01*
X295228Y321167D01*
X295217Y321262D01*
X295179Y321386D01*
X295151Y321513D01*
X295115Y321601D01*
X295087Y321693D01*
X295028Y321809D01*
X294978Y321929D01*
X294926Y322009D01*
X294883Y322094D01*
X294804Y322197D01*
X294733Y322307D01*
X294647Y322404D01*
X294611Y322453D01*
X294578Y322483D01*
X294526Y322541D01*
X264856Y352212D01*
X264730Y352317D01*
X264609Y352429D01*
X264557Y352461D01*
X264510Y352500D01*
X264368Y352582D01*
X264229Y352670D01*
X264172Y352694D01*
X264120Y352724D01*
X263965Y352779D01*
X263812Y352841D01*
X263753Y352854D01*
X263695Y352875D01*
X263533Y352901D01*
X263372Y352936D01*
X263295Y352941D01*
X263251Y352948D01*
X263190Y352947D01*
X263060Y352955D01*
X197925Y352955D01*
X197762Y352941D01*
X197597Y352934D01*
X197538Y352921D01*
X197477Y352915D01*
X197318Y352872D01*
X197158Y352836D01*
X197101Y352813D01*
X197043Y352797D01*
X196894Y352726D01*
X196742Y352663D01*
X196691Y352630D01*
X196636Y352603D01*
X196502Y352508D01*
X196364Y352418D01*
X196306Y352367D01*
X196270Y352341D01*
X196227Y352298D01*
X196130Y352212D01*
X194390Y350472D01*
X189348Y348383D01*
X183937Y348383D01*
X183774Y348369D01*
X183609Y348362D01*
X183550Y348349D01*
X183489Y348343D01*
X183330Y348300D01*
X183170Y348264D01*
X183113Y348241D01*
X183055Y348225D01*
X182906Y348154D01*
X182754Y348091D01*
X182703Y348058D01*
X182648Y348031D01*
X182514Y347936D01*
X182376Y347846D01*
X182318Y347795D01*
X182282Y347769D01*
X182239Y347726D01*
X182142Y347640D01*
X159050Y324548D01*
X158944Y324421D01*
X158833Y324300D01*
X158800Y324249D01*
X158761Y324202D01*
X158679Y324059D01*
X158591Y323921D01*
X158568Y323864D01*
X158538Y323811D01*
X158483Y323656D01*
X158420Y323504D01*
X158407Y323444D01*
X158387Y323387D01*
X158360Y323225D01*
X158325Y323064D01*
X158321Y322987D01*
X158313Y322943D01*
X158314Y322882D01*
X158306Y322752D01*
X158306Y301605D01*
X156768Y300068D01*
X152553Y295852D01*
X151015Y294314D01*
X140704Y294314D01*
X139166Y295852D01*
X134951Y300067D01*
X134950Y300068D01*
X133413Y301605D01*
X133413Y331435D01*
X135308Y336010D01*
X156920Y357622D01*
X157025Y357748D01*
X157137Y357869D01*
X157169Y357920D01*
X157208Y357967D01*
X157290Y358110D01*
X157378Y358249D01*
X157402Y358305D01*
X157432Y358358D01*
X157487Y358513D01*
X157549Y358665D01*
X157562Y358725D01*
X157583Y358782D01*
X157609Y358945D01*
X157644Y359106D01*
X157649Y359182D01*
X157656Y359227D01*
X157655Y359288D01*
X157663Y359417D01*
X157663Y364828D01*
X159751Y369870D01*
X163610Y373729D01*
X168652Y375817D01*
X189348Y375817D01*
X194390Y373728D01*
X196130Y371988D01*
X196256Y371883D01*
X196377Y371771D01*
X196429Y371739D01*
X196475Y371700D01*
X196618Y371618D01*
X196757Y371530D01*
X196813Y371506D01*
X196866Y371476D01*
X197021Y371421D01*
X197173Y371359D01*
X197233Y371346D01*
X197290Y371325D01*
X197453Y371299D01*
X197614Y371264D01*
X197691Y371259D01*
X197735Y371252D01*
X197795Y371253D01*
X197925Y371245D01*
X269719Y371245D01*
X273080Y369853D01*
X323823Y319110D01*
X325168Y317764D01*
X325268Y317681D01*
X325361Y317590D01*
X325441Y317536D01*
X325514Y317475D01*
X325627Y317411D01*
X325734Y317338D01*
X325822Y317299D01*
X325905Y317252D01*
X326027Y317208D01*
X326146Y317156D01*
X326239Y317133D01*
X326329Y317101D01*
X326457Y317080D01*
X326584Y317049D01*
X326679Y317043D01*
X326773Y317028D01*
X326903Y317029D01*
X327033Y317021D01*
X327128Y317032D01*
X327224Y317034D01*
X327351Y317058D01*
X327480Y317073D01*
X327572Y317101D01*
X327666Y317119D01*
X327787Y317166D01*
X327911Y317204D01*
X327997Y317247D01*
X328086Y317281D01*
X328197Y317349D01*
X328313Y317408D01*
X328389Y317466D01*
X328470Y317515D01*
X328568Y317602D01*
X328671Y317680D01*
X328736Y317750D01*
X328808Y317814D01*
X328888Y317916D01*
X328977Y318011D01*
X329028Y318092D01*
X329087Y318167D01*
X329149Y318281D01*
X329218Y318391D01*
X329255Y318479D01*
X329300Y318564D01*
X329340Y318687D01*
X329389Y318808D01*
X329409Y318901D01*
X329439Y318992D01*
X329457Y319120D01*
X329484Y319248D01*
X329492Y319378D01*
X329500Y319438D01*
X329499Y319482D01*
X329503Y319560D01*
X329503Y320967D01*
X329502Y320981D01*
X329502Y320987D01*
X329499Y321016D01*
X329493Y321084D01*
X329493Y321200D01*
X329473Y321307D01*
X329463Y321416D01*
X329433Y321528D01*
X329412Y321643D01*
X329361Y321789D01*
X329345Y321850D01*
X329329Y321882D01*
X329310Y321939D01*
X328653Y323524D01*
X328653Y328476D01*
X329310Y330061D01*
X329345Y330173D01*
X329389Y330281D01*
X329412Y330387D01*
X329445Y330491D01*
X329459Y330607D01*
X329484Y330721D01*
X329494Y330875D01*
X329501Y330938D01*
X329500Y330974D01*
X329503Y331033D01*
X329503Y332213D01*
X330431Y334454D01*
X332147Y336169D01*
X334274Y337050D01*
X334378Y337104D01*
X334486Y337149D01*
X334577Y337208D01*
X334673Y337258D01*
X334766Y337330D01*
X334864Y337393D01*
X334980Y337496D01*
X335029Y337534D01*
X335053Y337561D01*
X335098Y337600D01*
X347288Y349790D01*
X347394Y349814D01*
X347569Y349846D01*
X347625Y349865D01*
X347661Y349873D01*
X347719Y349897D01*
X347865Y349947D01*
X351723Y351546D01*
X366101Y351546D01*
X366136Y351549D01*
X366170Y351547D01*
X366360Y351569D01*
X366550Y351586D01*
X366583Y351595D01*
X366618Y351599D01*
X366800Y351654D01*
X366984Y351704D01*
X367015Y351719D01*
X367049Y351729D01*
X367219Y351816D01*
X367391Y351898D01*
X367419Y351918D01*
X367450Y351933D01*
X367602Y352049D01*
X367757Y352160D01*
X367781Y352185D01*
X367809Y352205D01*
X367938Y352346D01*
X368071Y352482D01*
X368090Y352511D01*
X368114Y352537D01*
X368216Y352698D01*
X368323Y352855D01*
X368337Y352887D01*
X368356Y352916D01*
X368428Y353093D01*
X368505Y353267D01*
X368513Y353301D01*
X368527Y353333D01*
X368567Y353520D01*
X368612Y353705D01*
X368614Y353739D01*
X368621Y353773D01*
X368640Y354085D01*
X368640Y357312D01*
X369569Y359553D01*
X371284Y361268D01*
X373524Y362196D01*
X390950Y362196D01*
X393191Y361268D01*
X394906Y359553D01*
X395834Y357312D01*
X395834Y320886D01*
X394906Y318646D01*
X393191Y316930D01*
X390950Y316002D01*
X373524Y316002D01*
X371284Y316930D01*
X369569Y318646D01*
X368640Y320886D01*
X368640Y324113D01*
X368637Y324148D01*
X368640Y324182D01*
X368617Y324371D01*
X368601Y324562D01*
X368591Y324595D01*
X368587Y324629D01*
X368532Y324812D01*
X368482Y324996D01*
X368467Y325027D01*
X368457Y325060D01*
X368370Y325231D01*
X368289Y325403D01*
X368269Y325431D01*
X368253Y325462D01*
X368138Y325614D01*
X368027Y325769D01*
X368002Y325793D01*
X367981Y325820D01*
X367841Y325949D01*
X367704Y326083D01*
X367675Y326102D01*
X367650Y326126D01*
X367489Y326228D01*
X367331Y326335D01*
X367299Y326349D01*
X367270Y326367D01*
X367093Y326440D01*
X366919Y326517D01*
X366885Y326525D01*
X366853Y326538D01*
X366667Y326579D01*
X366482Y326624D01*
X366447Y326626D01*
X366413Y326633D01*
X366101Y326652D01*
X360406Y326652D01*
X360243Y326638D01*
X360078Y326631D01*
X360019Y326618D01*
X359958Y326612D01*
X359799Y326569D01*
X359639Y326533D01*
X359582Y326510D01*
X359524Y326494D01*
X359375Y326423D01*
X359223Y326360D01*
X359172Y326327D01*
X359117Y326300D01*
X358983Y326205D01*
X358845Y326116D01*
X358787Y326064D01*
X358751Y326038D01*
X358708Y325995D01*
X358611Y325909D01*
X353200Y320498D01*
X353125Y320408D01*
X353043Y320325D01*
X352981Y320236D01*
X352911Y320153D01*
X352854Y320051D01*
X352787Y319955D01*
X352719Y319817D01*
X352688Y319762D01*
X352676Y319727D01*
X352650Y319674D01*
X352152Y318472D01*
X352103Y318315D01*
X352046Y318160D01*
X352035Y318100D01*
X352017Y318042D01*
X351996Y317879D01*
X351968Y317717D01*
X351968Y317656D01*
X351960Y317595D01*
X351969Y317431D01*
X351969Y317267D01*
X351980Y317207D01*
X351983Y317146D01*
X352021Y316986D01*
X352050Y316824D01*
X352075Y316751D01*
X352085Y316707D01*
X352109Y316651D01*
X352152Y316528D01*
X352697Y315213D01*
X352697Y314033D01*
X352707Y313916D01*
X352707Y313800D01*
X352727Y313693D01*
X352737Y313584D01*
X352767Y313472D01*
X352788Y313357D01*
X352839Y313211D01*
X352855Y313150D01*
X352871Y313118D01*
X352890Y313061D01*
X353547Y311476D01*
X353547Y287336D01*
X353550Y287301D01*
X353548Y287267D01*
X353570Y287078D01*
X353587Y286887D01*
X353596Y286854D01*
X353600Y286820D01*
X353655Y286637D01*
X353705Y286453D01*
X353720Y286422D01*
X353730Y286389D01*
X353817Y286218D01*
X353899Y286046D01*
X353919Y286018D01*
X353934Y285987D01*
X354050Y285835D01*
X354161Y285680D01*
X354186Y285656D01*
X354206Y285629D01*
X354346Y285500D01*
X354483Y285366D01*
X354512Y285347D01*
X354538Y285323D01*
X354699Y285221D01*
X354856Y285114D01*
X354888Y285100D01*
X354917Y285082D01*
X355094Y285009D01*
X355268Y284932D01*
X355302Y284924D01*
X355334Y284911D01*
X355521Y284871D01*
X355706Y284825D01*
X355740Y284823D01*
X355774Y284816D01*
X356086Y284797D01*
X358063Y284797D01*
X360304Y283869D01*
X362019Y282154D01*
X362947Y279913D01*
X362947Y257487D01*
X362019Y255246D01*
X360303Y253531D01*
X358851Y252930D01*
X358693Y252847D01*
X358534Y252771D01*
X358495Y252744D01*
X358452Y252721D01*
X358312Y252613D01*
X358167Y252509D01*
X358134Y252475D01*
X358096Y252446D01*
X357978Y252314D01*
X357853Y252187D01*
X357827Y252147D01*
X357795Y252111D01*
X357701Y251961D01*
X357601Y251814D01*
X357582Y251770D01*
X357557Y251729D01*
X357491Y251564D01*
X357419Y251402D01*
X357408Y251355D01*
X357390Y251311D01*
X357355Y251137D01*
X357312Y250964D01*
X357310Y250917D01*
X357300Y250870D01*
X357296Y250692D01*
X357285Y250515D01*
X357290Y250467D01*
X357289Y250420D01*
X357316Y250244D01*
X357337Y250068D01*
X357351Y250022D01*
X357358Y249975D01*
X357416Y249807D01*
X357467Y249637D01*
X357489Y249594D01*
X357504Y249549D01*
X357591Y249394D01*
X357672Y249235D01*
X357700Y249197D01*
X357724Y249156D01*
X357836Y249018D01*
X357944Y248877D01*
X357979Y248844D01*
X358009Y248807D01*
X358144Y248692D01*
X358275Y248571D01*
X358315Y248546D01*
X358351Y248515D01*
X358505Y248425D01*
X358654Y248330D01*
X358699Y248311D01*
X358740Y248287D01*
X358906Y248226D01*
X359071Y248159D01*
X359118Y248149D01*
X359163Y248132D01*
X359337Y248101D01*
X359511Y248064D01*
X359570Y248060D01*
X359606Y248054D01*
X359669Y248054D01*
X359823Y248045D01*
X397377Y248045D01*
X397554Y248060D01*
X397731Y248070D01*
X397778Y248080D01*
X397825Y248085D01*
X397997Y248131D01*
X398170Y248172D01*
X398214Y248191D01*
X398260Y248203D01*
X398420Y248279D01*
X398583Y248350D01*
X398623Y248376D01*
X398666Y248397D01*
X398811Y248500D01*
X398959Y248598D01*
X398994Y248631D01*
X399033Y248659D01*
X399156Y248786D01*
X399285Y248909D01*
X399313Y248947D01*
X399347Y248981D01*
X399446Y249129D01*
X399551Y249272D01*
X399572Y249315D01*
X399599Y249354D01*
X399671Y249517D01*
X399748Y249676D01*
X399761Y249722D01*
X399781Y249766D01*
X399823Y249939D01*
X399871Y250110D01*
X399876Y250157D01*
X399888Y250204D01*
X399898Y250381D01*
X399916Y250558D01*
X399912Y250605D01*
X399915Y250653D01*
X399895Y250830D01*
X399881Y251007D01*
X399869Y251053D01*
X399863Y251100D01*
X399812Y251271D01*
X399767Y251442D01*
X399747Y251485D01*
X399733Y251531D01*
X399652Y251690D01*
X399578Y251851D01*
X399550Y251890D01*
X399528Y251933D01*
X399421Y252074D01*
X399319Y252220D01*
X399285Y252253D01*
X399256Y252291D01*
X399126Y252412D01*
X399000Y252537D01*
X398960Y252564D01*
X398925Y252596D01*
X398775Y252692D01*
X398629Y252793D01*
X398576Y252819D01*
X398546Y252838D01*
X398487Y252862D01*
X398349Y252930D01*
X396897Y253531D01*
X395181Y255246D01*
X394253Y257487D01*
X394253Y279913D01*
X395181Y282154D01*
X396896Y283869D01*
X399137Y284797D01*
X431563Y284797D01*
X433804Y283869D01*
X435519Y282154D01*
X435812Y281444D01*
X435911Y281256D01*
X436007Y281067D01*
X436015Y281057D01*
X436021Y281045D01*
X436151Y280877D01*
X436279Y280709D01*
X436288Y280700D01*
X436297Y280689D01*
X436454Y280547D01*
X436610Y280403D01*
X436621Y280396D01*
X436631Y280388D01*
X436810Y280276D01*
X436990Y280162D01*
X437002Y280157D01*
X437013Y280150D01*
X437209Y280072D01*
X437406Y279991D01*
X437419Y279988D01*
X437431Y279983D01*
X437638Y279941D01*
X437846Y279896D01*
X437862Y279895D01*
X437873Y279893D01*
X437912Y279892D01*
X438158Y279877D01*
X480223Y279877D01*
X484331Y278175D01*
X524577Y237929D01*
X524703Y237824D01*
X524824Y237712D01*
X524875Y237680D01*
X524922Y237640D01*
X525065Y237559D01*
X525204Y237471D01*
X525260Y237447D01*
X525313Y237417D01*
X525468Y237362D01*
X525620Y237300D01*
X525680Y237287D01*
X525737Y237266D01*
X525900Y237239D01*
X526060Y237205D01*
X526137Y237200D01*
X526182Y237193D01*
X526243Y237194D01*
X526372Y237186D01*
X529396Y237186D01*
X536687Y229895D01*
X536687Y219583D01*
X529396Y212292D01*
X519085Y212292D01*
X516812Y214565D01*
X516723Y214640D01*
X516640Y214722D01*
X516550Y214784D01*
X516467Y214854D01*
X516366Y214912D01*
X516269Y214978D01*
X516131Y215046D01*
X516076Y215077D01*
X516042Y215089D01*
X515989Y215115D01*
X515630Y215264D01*
X512129Y218765D01*
X498064Y232830D01*
X497928Y232944D01*
X497796Y233063D01*
X497755Y233088D01*
X497719Y233119D01*
X497565Y233207D01*
X497414Y233301D01*
X497369Y233318D01*
X497328Y233342D01*
X497161Y233401D01*
X496995Y233467D01*
X496949Y233477D01*
X496903Y233493D01*
X496728Y233522D01*
X496554Y233557D01*
X496507Y233558D01*
X496459Y233566D01*
X496281Y233564D01*
X496104Y233568D01*
X496057Y233561D01*
X496009Y233560D01*
X495834Y233526D01*
X495659Y233499D01*
X495614Y233484D01*
X495567Y233475D01*
X495401Y233410D01*
X495233Y233353D01*
X495192Y233330D01*
X495147Y233312D01*
X494995Y233220D01*
X494840Y233134D01*
X494803Y233103D01*
X494762Y233078D01*
X494629Y232961D01*
X494492Y232848D01*
X494461Y232812D01*
X494425Y232780D01*
X494315Y232641D01*
X494199Y232506D01*
X494175Y232465D01*
X494145Y232427D01*
X494062Y232271D01*
X493972Y232117D01*
X493955Y232072D01*
X493933Y232030D01*
X493878Y231862D01*
X493817Y231695D01*
X493808Y231647D01*
X493794Y231602D01*
X493769Y231426D01*
X493739Y231251D01*
X493739Y231203D01*
X493732Y231156D01*
X493739Y230978D01*
X493740Y230801D01*
X493749Y230754D01*
X493751Y230706D01*
X493789Y230533D01*
X493821Y230358D01*
X493840Y230302D01*
X493848Y230266D01*
X493872Y230208D01*
X493923Y230062D01*
X494645Y228319D01*
X494645Y220138D01*
X494659Y219974D01*
X494666Y219810D01*
X494679Y219750D01*
X494685Y219689D01*
X494728Y219530D01*
X494764Y219370D01*
X494787Y219314D01*
X494803Y219255D01*
X494874Y219107D01*
X494937Y218955D01*
X494970Y218903D01*
X494997Y218848D01*
X495092Y218715D01*
X495182Y218576D01*
X495233Y218519D01*
X495259Y218482D01*
X495302Y218440D01*
X495388Y218342D01*
X495581Y218150D01*
X496509Y215909D01*
X496509Y207633D01*
X496516Y207551D01*
X496514Y207468D01*
X496536Y207327D01*
X496549Y207184D01*
X496570Y207105D01*
X496583Y207023D01*
X496630Y206888D01*
X496667Y206750D01*
X496703Y206676D01*
X496729Y206598D01*
X496799Y206472D01*
X496861Y206343D01*
X496909Y206276D01*
X496949Y206204D01*
X497039Y206094D01*
X497123Y205977D01*
X497182Y205920D01*
X497234Y205856D01*
X497343Y205763D01*
X497445Y205663D01*
X497514Y205617D01*
X497576Y205563D01*
X497700Y205491D01*
X497819Y205411D01*
X497894Y205378D01*
X497965Y205336D01*
X498099Y205287D01*
X498230Y205229D01*
X498310Y205209D01*
X498388Y205181D01*
X498529Y205156D01*
X498668Y205122D01*
X498750Y205117D01*
X498831Y205103D01*
X498974Y205103D01*
X499117Y205094D01*
X499199Y205104D01*
X499281Y205104D01*
X499422Y205130D01*
X499564Y205147D01*
X499643Y205170D01*
X499724Y205185D01*
X499958Y205265D01*
X499995Y205277D01*
X500005Y205282D01*
X500020Y205287D01*
X503781Y206845D01*
X553760Y206845D01*
X553924Y206859D01*
X554088Y206866D01*
X554148Y206879D01*
X554209Y206885D01*
X554368Y206928D01*
X554528Y206964D01*
X554584Y206987D01*
X554643Y207003D01*
X554791Y207074D01*
X554943Y207137D01*
X554995Y207170D01*
X555050Y207197D01*
X555183Y207292D01*
X555322Y207382D01*
X555379Y207433D01*
X555416Y207459D01*
X555458Y207502D01*
X555556Y207588D01*
X569421Y221453D01*
X569526Y221580D01*
X569638Y221700D01*
X569671Y221752D01*
X569710Y221799D01*
X569791Y221941D01*
X569880Y222080D01*
X569903Y222137D01*
X569933Y222190D01*
X569988Y222345D01*
X570051Y222497D01*
X570063Y222556D01*
X570084Y222614D01*
X570111Y222776D01*
X570145Y222937D01*
X570150Y223014D01*
X570157Y223058D01*
X570157Y223119D01*
X570165Y223249D01*
X570165Y231593D01*
X571093Y233834D01*
X572808Y235549D01*
X575049Y236477D01*
X607474Y236477D01*
X609715Y235549D01*
X611430Y233834D01*
X612358Y231593D01*
X612358Y203196D01*
X612361Y203161D01*
X612359Y203126D01*
X612381Y202937D01*
X612398Y202747D01*
X612407Y202714D01*
X612411Y202679D01*
X612466Y202496D01*
X612516Y202313D01*
X612531Y202281D01*
X612541Y202248D01*
X612628Y202078D01*
X612710Y201906D01*
X612730Y201878D01*
X612746Y201847D01*
X612861Y201695D01*
X612972Y201540D01*
X612997Y201516D01*
X613018Y201488D01*
X613158Y201359D01*
X613295Y201226D01*
X613323Y201206D01*
X613349Y201183D01*
X613510Y201080D01*
X613668Y200974D01*
X613699Y200960D01*
X613729Y200941D01*
X613905Y200869D01*
X614079Y200792D01*
X614113Y200783D01*
X614145Y200770D01*
X614332Y200730D01*
X614517Y200685D01*
X614551Y200683D01*
X614585Y200675D01*
X614897Y200656D01*
X615439Y200656D01*
X615473Y200659D01*
X615508Y200657D01*
X615697Y200679D01*
X615887Y200696D01*
X615921Y200705D01*
X615955Y200709D01*
X616138Y200765D01*
X616322Y200815D01*
X616353Y200830D01*
X616386Y200840D01*
X616557Y200926D01*
X616728Y201008D01*
X616757Y201028D01*
X616787Y201044D01*
X616939Y201159D01*
X617095Y201270D01*
X617119Y201295D01*
X617146Y201316D01*
X617275Y201456D01*
X617409Y201593D01*
X617428Y201622D01*
X617451Y201647D01*
X617554Y201808D01*
X617661Y201966D01*
X617675Y201998D01*
X617693Y202027D01*
X617766Y202203D01*
X617843Y202378D01*
X617851Y202411D01*
X617864Y202443D01*
X617904Y202630D01*
X617950Y202815D01*
X617952Y202850D01*
X617959Y202884D01*
X617978Y203196D01*
X617978Y207724D01*
X618906Y209965D01*
X620621Y211680D01*
X622862Y212608D01*
X654112Y212608D01*
X654140Y212611D01*
X654167Y212609D01*
X654363Y212631D01*
X654561Y212648D01*
X654587Y212655D01*
X654615Y212658D01*
X654804Y212715D01*
X654995Y212767D01*
X655020Y212778D01*
X655046Y212786D01*
X655224Y212875D01*
X655402Y212960D01*
X655424Y212976D01*
X655449Y212988D01*
X655607Y213107D01*
X655768Y213222D01*
X655787Y213242D01*
X655809Y213258D01*
X655944Y213403D01*
X656082Y213545D01*
X656097Y213568D01*
X656116Y213588D01*
X656223Y213754D01*
X656334Y213918D01*
X656345Y213943D01*
X656360Y213966D01*
X656436Y214148D01*
X656516Y214330D01*
X656523Y214356D01*
X656533Y214382D01*
X656576Y214575D01*
X656623Y214767D01*
X656625Y214794D01*
X656631Y214821D01*
X656652Y215133D01*
X656697Y223206D01*
X656694Y223247D01*
X656697Y223289D01*
X656675Y223471D01*
X656660Y223654D01*
X656649Y223695D01*
X656644Y223736D01*
X656591Y223913D01*
X656544Y224089D01*
X656526Y224127D01*
X656514Y224167D01*
X656431Y224331D01*
X656353Y224497D01*
X656329Y224531D01*
X656310Y224568D01*
X656199Y224715D01*
X656093Y224865D01*
X656063Y224894D01*
X656038Y224927D01*
X655903Y225052D01*
X655772Y225180D01*
X655737Y225204D01*
X655707Y225232D01*
X655552Y225331D01*
X655400Y225435D01*
X655362Y225452D01*
X655327Y225474D01*
X655157Y225544D01*
X654990Y225619D01*
X654949Y225629D01*
X654910Y225645D01*
X654731Y225684D01*
X654553Y225728D01*
X654511Y225731D01*
X654470Y225740D01*
X654158Y225759D01*
X622610Y225759D01*
X620370Y226687D01*
X618654Y228402D01*
X617726Y230643D01*
X617726Y250139D01*
X617712Y250303D01*
X617705Y250467D01*
X617692Y250527D01*
X617686Y250588D01*
X617643Y250747D01*
X617607Y250907D01*
X617584Y250963D01*
X617568Y251022D01*
X617497Y251170D01*
X617434Y251322D01*
X617401Y251374D01*
X617374Y251429D01*
X617279Y251562D01*
X617190Y251701D01*
X617138Y251758D01*
X617112Y251795D01*
X617069Y251837D01*
X616983Y251935D01*
X606471Y262446D01*
X606381Y262522D01*
X606298Y262604D01*
X606220Y262658D01*
X604176Y264702D01*
X604153Y264737D01*
X604052Y264852D01*
X604013Y264902D01*
X603986Y264926D01*
X603946Y264971D01*
X603065Y265853D01*
X600203Y272761D01*
X600203Y280239D01*
X603065Y287147D01*
X603946Y288029D01*
X604022Y288119D01*
X604104Y288202D01*
X604158Y288280D01*
X606202Y290324D01*
X606237Y290347D01*
X606352Y290448D01*
X606402Y290487D01*
X606426Y290514D01*
X606471Y290554D01*
X608352Y292435D01*
X615261Y295297D01*
X622739Y295297D01*
X629648Y292435D01*
X631529Y290554D01*
X631619Y290478D01*
X631702Y290396D01*
X631780Y290342D01*
X633824Y288298D01*
X633847Y288263D01*
X633948Y288148D01*
X633987Y288098D01*
X634014Y288074D01*
X634054Y288029D01*
X649113Y272969D01*
X649114Y272969D01*
X652635Y269447D01*
X652730Y269368D01*
X652817Y269282D01*
X652902Y269224D01*
X652981Y269158D01*
X653087Y269097D01*
X653189Y269028D01*
X653282Y268986D01*
X653372Y268935D01*
X653487Y268894D01*
X653600Y268843D01*
X653699Y268818D01*
X653796Y268784D01*
X653917Y268764D01*
X654036Y268734D01*
X654139Y268727D01*
X654240Y268711D01*
X654363Y268712D01*
X654486Y268704D01*
X654588Y268715D01*
X654690Y268717D01*
X654811Y268740D01*
X654933Y268754D01*
X655032Y268783D01*
X655133Y268802D01*
X655247Y268847D01*
X655365Y268881D01*
X655457Y268927D01*
X655553Y268965D01*
X655657Y269028D01*
X655767Y269083D01*
X655850Y269145D01*
X655937Y269198D01*
X656029Y269280D01*
X656128Y269353D01*
X656198Y269429D01*
X656275Y269497D01*
X656351Y269593D01*
X656435Y269683D01*
X656490Y269769D01*
X656554Y269850D01*
X656612Y269958D01*
X656679Y270061D01*
X656718Y270156D01*
X656767Y270247D01*
X656805Y270364D01*
X656852Y270477D01*
X656874Y270577D01*
X656906Y270675D01*
X656923Y270796D01*
X656949Y270916D01*
X656959Y271059D01*
X656967Y271121D01*
X656966Y271161D01*
X656970Y271228D01*
X657321Y333094D01*
X657310Y333231D01*
X657308Y333368D01*
X657291Y333455D01*
X657284Y333543D01*
X657249Y333675D01*
X657223Y333810D01*
X657191Y333893D01*
X657168Y333978D01*
X657110Y334102D01*
X657060Y334230D01*
X657014Y334306D01*
X656977Y334386D01*
X656898Y334498D01*
X656826Y334615D01*
X656768Y334681D01*
X656717Y334753D01*
X656619Y334850D01*
X656528Y334952D01*
X656459Y335007D01*
X656396Y335069D01*
X656283Y335147D01*
X656175Y335232D01*
X656097Y335274D01*
X656024Y335323D01*
X655899Y335380D01*
X655778Y335444D01*
X655694Y335472D01*
X655614Y335508D01*
X655480Y335541D01*
X655350Y335584D01*
X655263Y335596D01*
X655177Y335617D01*
X655040Y335626D01*
X654904Y335645D01*
X654816Y335641D01*
X654728Y335647D01*
X654591Y335632D01*
X654454Y335627D01*
X654368Y335607D01*
X654280Y335598D01*
X654149Y335559D01*
X654015Y335529D01*
X653933Y335495D01*
X653848Y335470D01*
X653726Y335408D01*
X653599Y335355D01*
X653525Y335307D01*
X653446Y335268D01*
X653336Y335186D01*
X653221Y335111D01*
X653132Y335033D01*
X653086Y334998D01*
X653052Y334962D01*
X652987Y334904D01*
X634054Y315971D01*
X633978Y315881D01*
X633896Y315798D01*
X633842Y315720D01*
X631798Y313676D01*
X631763Y313653D01*
X631648Y313552D01*
X631598Y313513D01*
X631574Y313486D01*
X631529Y313446D01*
X629648Y311565D01*
X622739Y308703D01*
X615261Y308703D01*
X608352Y311565D01*
X606471Y313446D01*
X606381Y313522D01*
X606298Y313604D01*
X606220Y313658D01*
X604176Y315702D01*
X604153Y315737D01*
X604052Y315852D01*
X604013Y315902D01*
X603986Y315926D01*
X603946Y315971D01*
X603065Y316853D01*
X600203Y323761D01*
X600203Y331239D01*
X603065Y338147D01*
X603946Y339029D01*
X604022Y339119D01*
X604104Y339202D01*
X604158Y339280D01*
X606202Y341324D01*
X606237Y341347D01*
X606352Y341448D01*
X606402Y341487D01*
X606426Y341514D01*
X606471Y341554D01*
X617567Y352649D01*
X617672Y352775D01*
X617784Y352896D01*
X617816Y352948D01*
X617855Y352994D01*
X617937Y353137D01*
X618025Y353276D01*
X618049Y353333D01*
X618079Y353385D01*
X618134Y353540D01*
X618196Y353693D01*
X618209Y353752D01*
X618230Y353810D01*
X618256Y353972D01*
X618291Y354133D01*
X618296Y354210D01*
X618303Y354254D01*
X618302Y354315D01*
X618310Y354445D01*
X618310Y374519D01*
X619238Y376760D01*
X620953Y378475D01*
X623194Y379403D01*
X655060Y379403D01*
X655087Y379406D01*
X655114Y379404D01*
X655310Y379426D01*
X655508Y379443D01*
X655535Y379450D01*
X655562Y379453D01*
X655751Y379510D01*
X655942Y379562D01*
X655967Y379574D01*
X655993Y379581D01*
X656171Y379670D01*
X656349Y379755D01*
X656371Y379771D01*
X656396Y379783D01*
X656555Y379902D01*
X656715Y380017D01*
X656734Y380037D01*
X656756Y380053D01*
X656891Y380198D01*
X657029Y380340D01*
X657045Y380363D01*
X657063Y380383D01*
X657171Y380549D01*
X657281Y380713D01*
X657292Y380738D01*
X657307Y380761D01*
X657383Y380944D01*
X657464Y381125D01*
X657470Y381151D01*
X657481Y381177D01*
X657523Y381370D01*
X657570Y381562D01*
X657572Y381589D01*
X657578Y381616D01*
X657599Y381928D01*
X657678Y395880D01*
X657675Y395922D01*
X657677Y395963D01*
X657656Y396146D01*
X657641Y396329D01*
X657630Y396369D01*
X657625Y396411D01*
X657572Y396587D01*
X657525Y396764D01*
X657507Y396801D01*
X657495Y396842D01*
X657411Y397005D01*
X657334Y397171D01*
X657309Y397206D01*
X657290Y397243D01*
X657179Y397389D01*
X657073Y397539D01*
X657044Y397568D01*
X657018Y397602D01*
X656883Y397726D01*
X656753Y397855D01*
X656718Y397879D01*
X656687Y397907D01*
X656532Y398006D01*
X656381Y398109D01*
X656343Y398126D01*
X656307Y398149D01*
X656138Y398218D01*
X655970Y398294D01*
X655930Y398304D01*
X655891Y398320D01*
X655711Y398358D01*
X655533Y398403D01*
X655492Y398406D01*
X655451Y398414D01*
X655139Y398434D01*
X622642Y398434D01*
X620401Y399362D01*
X618686Y401077D01*
X617758Y403318D01*
X617758Y404544D01*
X617755Y404579D01*
X617757Y404613D01*
X617735Y404803D01*
X617718Y404993D01*
X617709Y405026D01*
X617705Y405061D01*
X617649Y405244D01*
X617599Y405427D01*
X617584Y405458D01*
X617574Y405492D01*
X617488Y405662D01*
X617406Y405834D01*
X617386Y405862D01*
X617370Y405893D01*
X617255Y406045D01*
X617144Y406200D01*
X617119Y406224D01*
X617098Y406252D01*
X616958Y406381D01*
X616821Y406514D01*
X616792Y406533D01*
X616767Y406557D01*
X616606Y406659D01*
X616448Y406766D01*
X616416Y406780D01*
X616387Y406799D01*
X616211Y406871D01*
X616036Y406948D01*
X616003Y406957D01*
X615971Y406970D01*
X615784Y407010D01*
X615599Y407055D01*
X615564Y407057D01*
X615530Y407064D01*
X615218Y407084D01*
X611994Y407084D01*
X607419Y408979D01*
X593588Y422810D01*
X593462Y422915D01*
X593341Y423027D01*
X593290Y423059D01*
X593243Y423098D01*
X593100Y423180D01*
X592961Y423268D01*
X592905Y423292D01*
X592852Y423322D01*
X592697Y423377D01*
X592545Y423439D01*
X592485Y423452D01*
X592428Y423473D01*
X592265Y423499D01*
X592104Y423534D01*
X592028Y423539D01*
X591983Y423546D01*
X591922Y423545D01*
X591793Y423553D01*
X408436Y423553D01*
X408401Y423550D01*
X408367Y423552D01*
X408178Y423530D01*
X407987Y423513D01*
X407954Y423504D01*
X407920Y423500D01*
X407737Y423445D01*
X407553Y423395D01*
X407522Y423380D01*
X407489Y423370D01*
X407318Y423283D01*
X407146Y423201D01*
X407118Y423181D01*
X407087Y423166D01*
X406935Y423050D01*
X406780Y422939D01*
X406756Y422914D01*
X406729Y422894D01*
X406600Y422754D01*
X406466Y422617D01*
X406447Y422588D01*
X406423Y422562D01*
X406321Y422401D01*
X406214Y422244D01*
X406200Y422212D01*
X406182Y422183D01*
X406109Y422006D01*
X406032Y421832D01*
X406024Y421798D01*
X406011Y421766D01*
X405971Y421579D01*
X405925Y421394D01*
X405923Y421360D01*
X405916Y421326D01*
X405897Y421014D01*
X405897Y416387D01*
X404969Y414146D01*
X403254Y412431D01*
X401013Y411503D01*
X380587Y411503D01*
X378346Y412431D01*
X376631Y414146D01*
X375703Y416387D01*
X375703Y435813D01*
X376631Y438054D01*
X378347Y439769D01*
X379586Y440282D01*
X379741Y440363D01*
X379899Y440438D01*
X379940Y440467D01*
X379985Y440491D01*
X380123Y440597D01*
X380266Y440699D01*
X380301Y440735D01*
X380341Y440766D01*
X380458Y440896D01*
X380580Y441021D01*
X380609Y441063D01*
X380643Y441101D01*
X380735Y441249D01*
X380833Y441393D01*
X380854Y441440D01*
X380881Y441483D01*
X380945Y441645D01*
X381017Y441805D01*
X381029Y441854D01*
X381047Y441901D01*
X381082Y442072D01*
X381124Y442242D01*
X381127Y442293D01*
X381138Y442342D01*
X381142Y442517D01*
X381153Y442691D01*
X381147Y442742D01*
X381148Y442792D01*
X381122Y442965D01*
X381102Y443139D01*
X381087Y443187D01*
X381080Y443237D01*
X381023Y443403D01*
X380973Y443570D01*
X380950Y443615D01*
X380933Y443663D01*
X380848Y443816D01*
X380769Y443972D01*
X380739Y444012D01*
X380714Y444056D01*
X380603Y444192D01*
X380498Y444331D01*
X380461Y444366D01*
X380429Y444405D01*
X380296Y444518D01*
X380168Y444637D01*
X380125Y444664D01*
X380086Y444697D01*
X379935Y444785D01*
X379788Y444880D01*
X379741Y444899D01*
X379698Y444925D01*
X379534Y444985D01*
X379372Y445052D01*
X379322Y445062D01*
X379275Y445080D01*
X379103Y445110D01*
X378932Y445147D01*
X378869Y445151D01*
X378831Y445158D01*
X378769Y445158D01*
X378620Y445167D01*
X361898Y445206D01*
X361718Y445191D01*
X361537Y445181D01*
X361494Y445171D01*
X361449Y445167D01*
X361274Y445120D01*
X361099Y445079D01*
X361058Y445061D01*
X361014Y445050D01*
X360851Y444973D01*
X360685Y444901D01*
X360648Y444876D01*
X360607Y444857D01*
X360460Y444752D01*
X360310Y444653D01*
X360277Y444622D01*
X360241Y444596D01*
X360114Y444467D01*
X359984Y444342D01*
X359957Y444306D01*
X359926Y444274D01*
X359824Y444125D01*
X359718Y443979D01*
X359698Y443939D01*
X359673Y443902D01*
X359599Y443737D01*
X359520Y443574D01*
X359508Y443531D01*
X359490Y443490D01*
X359446Y443314D01*
X359397Y443141D01*
X359393Y443097D01*
X359382Y443053D01*
X359370Y442873D01*
X359353Y442693D01*
X359356Y442648D01*
X359353Y442604D01*
X359374Y442424D01*
X359388Y442244D01*
X359399Y442201D01*
X359404Y442156D01*
X359456Y441983D01*
X359502Y441809D01*
X359521Y441768D01*
X359534Y441725D01*
X359615Y441564D01*
X359691Y441400D01*
X359717Y441363D01*
X359737Y441323D01*
X359846Y441179D01*
X359949Y441031D01*
X359981Y441000D01*
X360008Y440964D01*
X360141Y440841D01*
X360269Y440714D01*
X360306Y440688D01*
X360339Y440658D01*
X360491Y440561D01*
X360639Y440458D01*
X360689Y440434D01*
X360718Y440415D01*
X360776Y440391D01*
X360920Y440321D01*
X362253Y439769D01*
X363969Y438054D01*
X364897Y435813D01*
X364897Y416387D01*
X363969Y414146D01*
X362254Y412431D01*
X360013Y411503D01*
X339587Y411503D01*
X337347Y412431D01*
X336868Y412910D01*
X336742Y413015D01*
X336621Y413127D01*
X336570Y413159D01*
X336523Y413198D01*
X336380Y413280D01*
X336242Y413368D01*
X336185Y413392D01*
X336132Y413422D01*
X335977Y413477D01*
X335825Y413539D01*
X335765Y413552D01*
X335708Y413573D01*
X335546Y413599D01*
X335385Y413634D01*
X335308Y413639D01*
X335264Y413646D01*
X335203Y413645D01*
X335073Y413653D01*
X202876Y413653D01*
X202841Y413650D01*
X202807Y413652D01*
X202618Y413630D01*
X202427Y413613D01*
X202394Y413604D01*
X202360Y413600D01*
X202177Y413545D01*
X201993Y413495D01*
X201962Y413480D01*
X201929Y413470D01*
X201758Y413383D01*
X201586Y413301D01*
X201558Y413281D01*
X201527Y413266D01*
X201375Y413150D01*
X201220Y413039D01*
X201196Y413014D01*
X201169Y412994D01*
X201040Y412854D01*
X200906Y412717D01*
X200887Y412688D01*
X200863Y412662D01*
X200761Y412501D01*
X200654Y412344D01*
X200640Y412312D01*
X200622Y412283D01*
X200549Y412106D01*
X200472Y411932D01*
X200464Y411898D01*
X200451Y411866D01*
X200411Y411679D01*
X200365Y411494D01*
X200363Y411460D01*
X200356Y411426D01*
X200337Y411114D01*
X200337Y410172D01*
X198249Y405130D01*
X194390Y401271D01*
X189348Y399183D01*
X168652Y399183D01*
X166052Y400260D01*
X165941Y400295D01*
X165833Y400339D01*
X165726Y400362D01*
X165623Y400395D01*
X165507Y400409D01*
X165392Y400434D01*
X165238Y400444D01*
X165176Y400451D01*
X165140Y400450D01*
X165080Y400453D01*
X108518Y400453D01*
X108483Y400450D01*
X108449Y400452D01*
X108260Y400430D01*
X108069Y400413D01*
X108036Y400404D01*
X108002Y400400D01*
X107819Y400345D01*
X107635Y400295D01*
X107604Y400280D01*
X107571Y400270D01*
X107400Y400183D01*
X107228Y400101D01*
X107200Y400081D01*
X107169Y400066D01*
X107017Y399950D01*
X106862Y399839D01*
X106838Y399814D01*
X106811Y399794D01*
X106682Y399654D01*
X106548Y399517D01*
X106529Y399488D01*
X106505Y399462D01*
X106403Y399301D01*
X106296Y399144D01*
X106282Y399112D01*
X106264Y399083D01*
X106191Y398906D01*
X106114Y398732D01*
X106106Y398698D01*
X106093Y398666D01*
X106053Y398479D01*
X106007Y398294D01*
X106005Y398260D01*
X105998Y398226D01*
X105979Y397914D01*
X105979Y396103D01*
X97497Y387621D01*
X85503Y387621D01*
X77021Y396103D01*
X77021Y408097D01*
X85503Y416579D01*
X87325Y416579D01*
X87488Y416593D01*
X87653Y416600D01*
X87712Y416613D01*
X87773Y416619D01*
X87932Y416662D01*
X88092Y416698D01*
X88149Y416721D01*
X88207Y416737D01*
X88356Y416808D01*
X88508Y416871D01*
X88559Y416904D01*
X88614Y416931D01*
X88748Y417026D01*
X88886Y417116D01*
X88944Y417167D01*
X88980Y417193D01*
X89023Y417236D01*
X89120Y417322D01*
X95250Y423452D01*
X99824Y425347D01*
X165080Y425347D01*
X165197Y425357D01*
X165314Y425357D01*
X165420Y425377D01*
X165529Y425387D01*
X165642Y425417D01*
X165757Y425438D01*
X165903Y425489D01*
X165963Y425505D01*
X165996Y425521D01*
X166052Y425540D01*
X168652Y426617D01*
X174063Y426617D01*
X174226Y426631D01*
X174391Y426638D01*
X174450Y426651D01*
X174511Y426657D01*
X174670Y426700D01*
X174830Y426736D01*
X174887Y426759D01*
X174945Y426775D01*
X175094Y426846D01*
X175246Y426909D01*
X175297Y426942D01*
X175352Y426969D01*
X175486Y427064D01*
X175624Y427154D01*
X175682Y427205D01*
X175718Y427231D01*
X175761Y427274D01*
X175858Y427360D01*
X185150Y436652D01*
X189724Y438547D01*
X335073Y438547D01*
X335237Y438561D01*
X335401Y438568D01*
X335461Y438581D01*
X335521Y438587D01*
X335680Y438630D01*
X335841Y438666D01*
X335897Y438689D01*
X335956Y438705D01*
X336104Y438776D01*
X336256Y438839D01*
X336307Y438872D01*
X336362Y438899D01*
X336496Y438994D01*
X336634Y439084D01*
X336692Y439135D01*
X336728Y439161D01*
X336771Y439204D01*
X336868Y439290D01*
X337347Y439769D01*
X338815Y440377D01*
X338970Y440458D01*
X339128Y440532D01*
X339169Y440562D01*
X339214Y440585D01*
X339352Y440692D01*
X339494Y440794D01*
X339530Y440830D01*
X339570Y440861D01*
X339687Y440990D01*
X339809Y441116D01*
X339838Y441158D01*
X339872Y441195D01*
X339964Y441343D01*
X340062Y441488D01*
X340083Y441534D01*
X340110Y441578D01*
X340174Y441740D01*
X340245Y441899D01*
X340257Y441949D01*
X340276Y441996D01*
X340311Y442167D01*
X340353Y442337D01*
X340356Y442387D01*
X340366Y442437D01*
X340371Y442612D01*
X340382Y442786D01*
X340376Y442836D01*
X340377Y442887D01*
X340350Y443060D01*
X340331Y443233D01*
X340316Y443282D01*
X340308Y443332D01*
X340251Y443497D01*
X340201Y443665D01*
X340178Y443710D01*
X340162Y443758D01*
X340077Y443911D01*
X339998Y444066D01*
X339967Y444107D01*
X339943Y444151D01*
X339832Y444286D01*
X339727Y444426D01*
X339689Y444460D01*
X339657Y444500D01*
X339525Y444613D01*
X339396Y444732D01*
X339354Y444759D01*
X339315Y444792D01*
X339164Y444880D01*
X339017Y444974D01*
X338970Y444994D01*
X338926Y445019D01*
X338763Y445080D01*
X338601Y445146D01*
X338551Y445157D01*
X338504Y445175D01*
X338332Y445205D01*
X338161Y445242D01*
X338098Y445246D01*
X338060Y445253D01*
X337997Y445253D01*
X337849Y445262D01*
X16168Y446010D01*
X16124Y446006D01*
X16080Y446008D01*
X15900Y445986D01*
X15719Y445971D01*
X15677Y445959D01*
X15633Y445954D01*
X15460Y445901D01*
X15284Y445853D01*
X15245Y445835D01*
X15203Y445822D01*
X15042Y445738D01*
X14877Y445661D01*
X14842Y445635D01*
X14803Y445615D01*
X14659Y445505D01*
X14511Y445399D01*
X14480Y445368D01*
X14445Y445342D01*
X14323Y445207D01*
X14196Y445078D01*
X14171Y445041D01*
X14142Y445009D01*
X14045Y444855D01*
X13943Y444705D01*
X13925Y444665D01*
X13902Y444628D01*
X13834Y444460D01*
X13760Y444294D01*
X13749Y444251D01*
X13733Y444211D01*
X13695Y444033D01*
X13652Y443857D01*
X13649Y443813D01*
X13640Y443770D01*
X13623Y443458D01*
X14636Y234098D01*
X14647Y233975D01*
X14649Y233851D01*
X14668Y233750D01*
X14678Y233649D01*
X14711Y233530D01*
X14734Y233408D01*
X14771Y233314D01*
X14798Y233216D01*
X14852Y233104D01*
X14897Y232988D01*
X14950Y232902D01*
X14994Y232810D01*
X15066Y232710D01*
X15131Y232604D01*
X15198Y232528D01*
X15258Y232445D01*
X15347Y232359D01*
X15429Y232266D01*
X15509Y232203D01*
X15582Y232133D01*
X15685Y232064D01*
X15782Y231987D01*
X15871Y231939D01*
X15956Y231882D01*
X16070Y231833D01*
X16179Y231774D01*
X16276Y231743D01*
X16369Y231702D01*
X16489Y231673D01*
X16607Y231635D01*
X16708Y231621D01*
X16807Y231598D01*
X16930Y231591D01*
X17053Y231574D01*
X17155Y231578D01*
X17256Y231572D01*
X17379Y231587D01*
X17503Y231592D01*
X17602Y231614D01*
X17703Y231626D01*
X17822Y231663D01*
X17943Y231690D01*
X18036Y231729D01*
X18134Y231759D01*
X18244Y231815D01*
X18358Y231863D01*
X18444Y231919D01*
X18534Y231965D01*
X18632Y232040D01*
X18736Y232108D01*
X18842Y232201D01*
X18891Y232239D01*
X18919Y232269D01*
X18970Y232315D01*
X24953Y238297D01*
X44501Y238297D01*
X58324Y224474D01*
X58324Y204926D01*
X44501Y191103D01*
X24953Y191103D01*
X19159Y196897D01*
X19055Y196984D01*
X18957Y197079D01*
X18882Y197128D01*
X18814Y197186D01*
X18696Y197253D01*
X18582Y197329D01*
X18500Y197365D01*
X18423Y197409D01*
X18295Y197455D01*
X18170Y197509D01*
X18083Y197530D01*
X17999Y197560D01*
X17864Y197582D01*
X17732Y197614D01*
X17643Y197619D01*
X17554Y197633D01*
X17418Y197632D01*
X17282Y197639D01*
X17194Y197629D01*
X17104Y197627D01*
X16970Y197602D01*
X16835Y197585D01*
X16750Y197559D01*
X16662Y197542D01*
X16535Y197493D01*
X16405Y197453D01*
X16326Y197412D01*
X16242Y197380D01*
X16126Y197309D01*
X16005Y197246D01*
X15934Y197192D01*
X15857Y197146D01*
X15755Y197055D01*
X15647Y196973D01*
X15587Y196907D01*
X15520Y196847D01*
X15436Y196741D01*
X15344Y196640D01*
X15296Y196564D01*
X15241Y196494D01*
X15176Y196374D01*
X15104Y196259D01*
X15070Y196176D01*
X15028Y196097D01*
X14986Y195968D01*
X14935Y195842D01*
X14916Y195754D01*
X14889Y195669D01*
X14870Y195534D01*
X14842Y195401D01*
X14835Y195282D01*
X14827Y195223D01*
X14829Y195175D01*
X14824Y195089D01*
X15185Y120547D01*
X15197Y120424D01*
X15198Y120300D01*
X15218Y120200D01*
X15227Y120099D01*
X15260Y119980D01*
X15284Y119858D01*
X15321Y119763D01*
X15348Y119665D01*
X15402Y119553D01*
X15446Y119438D01*
X15499Y119351D01*
X15543Y119259D01*
X15616Y119159D01*
X15680Y119053D01*
X15747Y118977D01*
X15807Y118895D01*
X15896Y118809D01*
X15978Y118716D01*
X16058Y118653D01*
X16131Y118582D01*
X16234Y118513D01*
X16332Y118436D01*
X16421Y118389D01*
X16506Y118332D01*
X16619Y118282D01*
X16728Y118224D01*
X16825Y118192D01*
X16918Y118152D01*
X17039Y118123D01*
X17157Y118085D01*
X17257Y118071D01*
X17356Y118047D01*
X17480Y118040D01*
X17603Y118023D01*
X17704Y118027D01*
X17806Y118022D01*
X17929Y118037D01*
X18053Y118042D01*
X18152Y118064D01*
X18253Y118076D01*
X18371Y118112D01*
X18492Y118139D01*
X18586Y118178D01*
X18683Y118208D01*
X18793Y118265D01*
X18908Y118313D01*
X18993Y118368D01*
X19083Y118415D01*
X19182Y118490D01*
X19286Y118557D01*
X19391Y118650D01*
X19441Y118688D01*
X19468Y118719D01*
X19520Y118764D01*
X24953Y124197D01*
X44501Y124197D01*
X57537Y111161D01*
X57564Y111138D01*
X57587Y111112D01*
X57735Y110995D01*
X57882Y110872D01*
X57913Y110854D01*
X57940Y110833D01*
X58108Y110743D01*
X58273Y110648D01*
X58306Y110637D01*
X58337Y110620D01*
X58518Y110562D01*
X58698Y110498D01*
X58732Y110492D01*
X58765Y110481D01*
X58953Y110455D01*
X59142Y110424D01*
X59176Y110425D01*
X59211Y110420D01*
X59401Y110428D01*
G37*
G36*
X652994Y11132D02*
X652994Y11132D01*
X653023Y11130D01*
X653219Y11151D01*
X653414Y11169D01*
X653442Y11176D01*
X653471Y11179D01*
X653659Y11235D01*
X653849Y11287D01*
X653875Y11299D01*
X653902Y11307D01*
X654078Y11395D01*
X654256Y11480D01*
X654279Y11496D01*
X654305Y11509D01*
X654462Y11627D01*
X654622Y11741D01*
X654642Y11762D01*
X654665Y11779D01*
X654799Y11923D01*
X654936Y12064D01*
X654953Y12088D01*
X654972Y12109D01*
X655078Y12273D01*
X655189Y12437D01*
X655201Y12463D01*
X655216Y12487D01*
X655292Y12668D01*
X655372Y12848D01*
X655378Y12876D01*
X655389Y12903D01*
X655432Y13095D01*
X655479Y13286D01*
X655480Y13314D01*
X655487Y13342D01*
X655508Y13654D01*
X655683Y44576D01*
X655680Y44617D01*
X655682Y44659D01*
X655661Y44841D01*
X655646Y45024D01*
X655635Y45065D01*
X655630Y45106D01*
X655577Y45283D01*
X655530Y45459D01*
X655512Y45497D01*
X655500Y45537D01*
X655416Y45701D01*
X655339Y45867D01*
X655314Y45901D01*
X655296Y45939D01*
X655185Y46085D01*
X655079Y46235D01*
X655049Y46264D01*
X655024Y46297D01*
X654889Y46422D01*
X654758Y46551D01*
X654723Y46574D01*
X654692Y46603D01*
X654537Y46701D01*
X654386Y46805D01*
X654348Y46822D01*
X654313Y46844D01*
X654143Y46914D01*
X653975Y46989D01*
X653935Y46999D01*
X653896Y47015D01*
X653717Y47054D01*
X653539Y47098D01*
X653497Y47101D01*
X653456Y47110D01*
X653144Y47129D01*
X630959Y47129D01*
X630796Y47115D01*
X630631Y47108D01*
X630572Y47095D01*
X630511Y47089D01*
X630352Y47046D01*
X630192Y47010D01*
X630135Y46987D01*
X630077Y46971D01*
X629928Y46900D01*
X629776Y46837D01*
X629725Y46804D01*
X629670Y46777D01*
X629536Y46682D01*
X629398Y46593D01*
X629340Y46541D01*
X629304Y46515D01*
X629261Y46472D01*
X629164Y46386D01*
X623026Y40247D01*
X619665Y38855D01*
X547181Y38855D01*
X543820Y40247D01*
X477843Y106224D01*
X476451Y109585D01*
X476451Y117845D01*
X476448Y117879D01*
X476450Y117914D01*
X476428Y118103D01*
X476411Y118293D01*
X476402Y118327D01*
X476398Y118361D01*
X476343Y118544D01*
X476293Y118728D01*
X476278Y118759D01*
X476268Y118792D01*
X476181Y118963D01*
X476099Y119134D01*
X476079Y119163D01*
X476063Y119193D01*
X475948Y119345D01*
X475837Y119501D01*
X475812Y119525D01*
X475791Y119552D01*
X475651Y119681D01*
X475514Y119815D01*
X475486Y119834D01*
X475460Y119857D01*
X475299Y119960D01*
X475141Y120067D01*
X475110Y120081D01*
X475080Y120099D01*
X474904Y120172D01*
X474730Y120249D01*
X474696Y120257D01*
X474664Y120270D01*
X474477Y120310D01*
X474292Y120356D01*
X474258Y120358D01*
X474224Y120365D01*
X473912Y120384D01*
X462383Y120384D01*
X460142Y121312D01*
X458606Y122848D01*
X458480Y122954D01*
X458359Y123065D01*
X458308Y123098D01*
X458261Y123137D01*
X458118Y123219D01*
X457979Y123307D01*
X457923Y123330D01*
X457870Y123361D01*
X457715Y123416D01*
X457563Y123478D01*
X457503Y123491D01*
X457446Y123512D01*
X457283Y123538D01*
X457123Y123573D01*
X457045Y123578D01*
X457001Y123585D01*
X456941Y123584D01*
X456811Y123592D01*
X441632Y123592D01*
X441500Y123647D01*
X441389Y123682D01*
X441281Y123726D01*
X441174Y123749D01*
X441071Y123782D01*
X440955Y123796D01*
X440840Y123821D01*
X440687Y123830D01*
X440624Y123838D01*
X440588Y123837D01*
X440528Y123840D01*
X436239Y123840D01*
X433998Y124768D01*
X432283Y126483D01*
X431355Y128724D01*
X431355Y136750D01*
X432283Y138990D01*
X433998Y140705D01*
X436239Y141634D01*
X440528Y141634D01*
X440645Y141644D01*
X440762Y141644D01*
X440868Y141664D01*
X440977Y141674D01*
X441090Y141704D01*
X441205Y141725D01*
X441351Y141776D01*
X441411Y141792D01*
X441444Y141808D01*
X441500Y141827D01*
X441632Y141882D01*
X458323Y141882D01*
X458487Y141896D01*
X458651Y141903D01*
X458710Y141916D01*
X458771Y141922D01*
X458930Y141965D01*
X459090Y142001D01*
X459147Y142024D01*
X459206Y142040D01*
X459354Y142111D01*
X459506Y142174D01*
X459557Y142207D01*
X459612Y142233D01*
X459746Y142329D01*
X459884Y142419D01*
X459942Y142470D01*
X459978Y142496D01*
X460021Y142539D01*
X460118Y142625D01*
X460142Y142649D01*
X460148Y142652D01*
X460263Y142712D01*
X460382Y142763D01*
X460462Y142816D01*
X460547Y142860D01*
X460650Y142940D01*
X460758Y143012D01*
X460827Y143077D01*
X460903Y143136D01*
X460990Y143233D01*
X461084Y143322D01*
X461141Y143399D01*
X461204Y143470D01*
X461273Y143580D01*
X461350Y143686D01*
X461392Y143772D01*
X461442Y143852D01*
X461490Y143973D01*
X461548Y144090D01*
X461574Y144182D01*
X461609Y144271D01*
X461635Y144398D01*
X461671Y144523D01*
X461680Y144619D01*
X461699Y144712D01*
X461702Y144842D01*
X461715Y144971D01*
X461708Y145067D01*
X461710Y145162D01*
X461690Y145290D01*
X461680Y145420D01*
X461656Y145513D01*
X461641Y145607D01*
X461599Y145730D01*
X461566Y145856D01*
X461526Y145943D01*
X461495Y146033D01*
X461431Y146146D01*
X461377Y146265D01*
X461322Y146343D01*
X461275Y146426D01*
X461193Y146527D01*
X461118Y146633D01*
X461051Y146701D01*
X460990Y146774D01*
X460891Y146859D01*
X460799Y146951D01*
X460720Y147005D01*
X460648Y147067D01*
X460535Y147133D01*
X460428Y147207D01*
X460312Y147264D01*
X460259Y147294D01*
X460217Y147310D01*
X460148Y147344D01*
X460100Y147363D01*
X459215Y148248D01*
X459089Y148354D01*
X458968Y148465D01*
X458917Y148498D01*
X458870Y148537D01*
X458727Y148619D01*
X458588Y148707D01*
X458532Y148730D01*
X458479Y148761D01*
X458324Y148816D01*
X458172Y148878D01*
X458112Y148891D01*
X458055Y148912D01*
X457892Y148938D01*
X457732Y148973D01*
X457654Y148978D01*
X457610Y148985D01*
X457550Y148984D01*
X457420Y148992D01*
X441632Y148992D01*
X441500Y149047D01*
X441389Y149082D01*
X441281Y149126D01*
X441174Y149149D01*
X441071Y149182D01*
X440955Y149196D01*
X440840Y149221D01*
X440687Y149230D01*
X440624Y149238D01*
X440588Y149237D01*
X440528Y149240D01*
X436239Y149240D01*
X433998Y150168D01*
X432283Y151883D01*
X431355Y154124D01*
X431355Y162150D01*
X432283Y164390D01*
X433998Y166105D01*
X436239Y167034D01*
X440528Y167034D01*
X440645Y167044D01*
X440762Y167044D01*
X440868Y167064D01*
X440977Y167074D01*
X441090Y167104D01*
X441205Y167125D01*
X441351Y167176D01*
X441411Y167192D01*
X441444Y167208D01*
X441500Y167227D01*
X441632Y167282D01*
X457630Y167282D01*
X457794Y167296D01*
X457958Y167303D01*
X458018Y167316D01*
X458078Y167322D01*
X458237Y167365D01*
X458398Y167401D01*
X458454Y167424D01*
X458513Y167440D01*
X458661Y167511D01*
X458813Y167574D01*
X458865Y167607D01*
X458919Y167633D01*
X459053Y167729D01*
X459191Y167818D01*
X459249Y167870D01*
X459286Y167896D01*
X459328Y167939D01*
X459425Y168025D01*
X460231Y168830D01*
X460253Y168857D01*
X460279Y168880D01*
X460396Y169029D01*
X460519Y169176D01*
X460537Y169206D01*
X460558Y169233D01*
X460648Y169401D01*
X460743Y169567D01*
X460754Y169599D01*
X460771Y169630D01*
X460830Y169811D01*
X460894Y169991D01*
X460899Y170025D01*
X460910Y170058D01*
X460936Y170247D01*
X460967Y170435D01*
X460967Y170470D01*
X460971Y170504D01*
X460964Y170695D01*
X460961Y170886D01*
X460954Y170920D01*
X460953Y170954D01*
X460912Y171140D01*
X460875Y171328D01*
X460863Y171360D01*
X460855Y171394D01*
X460782Y171570D01*
X460713Y171748D01*
X460695Y171777D01*
X460682Y171809D01*
X460578Y171969D01*
X460479Y172132D01*
X460456Y172158D01*
X460437Y172187D01*
X460231Y172422D01*
X459004Y173648D01*
X458877Y173754D01*
X458756Y173865D01*
X458705Y173898D01*
X458658Y173937D01*
X458516Y174019D01*
X458377Y174107D01*
X458320Y174131D01*
X458267Y174161D01*
X458112Y174216D01*
X457960Y174278D01*
X457901Y174291D01*
X457843Y174312D01*
X457681Y174338D01*
X457520Y174373D01*
X457443Y174378D01*
X457399Y174385D01*
X457338Y174384D01*
X457208Y174392D01*
X441632Y174392D01*
X441500Y174447D01*
X441389Y174482D01*
X441281Y174526D01*
X441174Y174549D01*
X441071Y174582D01*
X440955Y174596D01*
X440840Y174621D01*
X440687Y174630D01*
X440624Y174638D01*
X440588Y174637D01*
X440528Y174640D01*
X436239Y174640D01*
X433998Y175568D01*
X432283Y177283D01*
X431355Y179524D01*
X431355Y187550D01*
X432283Y189790D01*
X433998Y191505D01*
X436239Y192434D01*
X440528Y192434D01*
X440645Y192444D01*
X440762Y192444D01*
X440868Y192464D01*
X440977Y192474D01*
X441090Y192504D01*
X441205Y192525D01*
X441351Y192576D01*
X441411Y192592D01*
X441444Y192608D01*
X441500Y192627D01*
X441632Y192682D01*
X457474Y192682D01*
X457638Y192696D01*
X457803Y192703D01*
X457862Y192716D01*
X457923Y192722D01*
X458082Y192765D01*
X458242Y192801D01*
X458299Y192824D01*
X458357Y192840D01*
X458506Y192911D01*
X458658Y192974D01*
X458709Y193007D01*
X458764Y193033D01*
X458898Y193129D01*
X459036Y193218D01*
X459094Y193270D01*
X459130Y193296D01*
X459173Y193339D01*
X459270Y193425D01*
X459977Y194132D01*
X460051Y194171D01*
X460154Y194251D01*
X460263Y194323D01*
X460332Y194388D01*
X460407Y194447D01*
X460495Y194543D01*
X460589Y194633D01*
X460645Y194710D01*
X460709Y194781D01*
X460778Y194892D01*
X460855Y194997D01*
X460897Y195082D01*
X460947Y195163D01*
X460995Y195284D01*
X461052Y195401D01*
X461078Y195493D01*
X461114Y195582D01*
X461140Y195709D01*
X461175Y195834D01*
X461185Y195929D01*
X461204Y196023D01*
X461207Y196153D01*
X461220Y196282D01*
X461212Y196378D01*
X461215Y196473D01*
X461195Y196601D01*
X461185Y196731D01*
X461161Y196824D01*
X461146Y196918D01*
X461104Y197041D01*
X461071Y197167D01*
X461031Y197253D01*
X461000Y197344D01*
X460936Y197457D01*
X460882Y197575D01*
X460827Y197654D01*
X460780Y197737D01*
X460698Y197838D01*
X460623Y197944D01*
X460556Y198011D01*
X460495Y198085D01*
X460396Y198170D01*
X460304Y198262D01*
X460225Y198316D01*
X460153Y198378D01*
X460046Y198440D01*
X459438Y199048D01*
X459312Y199154D01*
X459191Y199265D01*
X459140Y199298D01*
X459093Y199337D01*
X458950Y199419D01*
X458811Y199507D01*
X458755Y199531D01*
X458702Y199561D01*
X458547Y199616D01*
X458395Y199678D01*
X458335Y199691D01*
X458277Y199712D01*
X458115Y199738D01*
X457954Y199773D01*
X457877Y199778D01*
X457833Y199785D01*
X457772Y199784D01*
X457643Y199792D01*
X441632Y199792D01*
X441500Y199847D01*
X441389Y199882D01*
X441281Y199926D01*
X441174Y199949D01*
X441071Y199982D01*
X440955Y199996D01*
X440840Y200021D01*
X440687Y200030D01*
X440624Y200038D01*
X440588Y200037D01*
X440528Y200040D01*
X436239Y200040D01*
X433998Y200968D01*
X432283Y202683D01*
X431355Y204924D01*
X431355Y212950D01*
X432283Y215190D01*
X433998Y216905D01*
X436239Y217834D01*
X440528Y217834D01*
X440645Y217844D01*
X440762Y217844D01*
X440868Y217864D01*
X440977Y217874D01*
X441090Y217904D01*
X441205Y217925D01*
X441351Y217976D01*
X441411Y217992D01*
X441444Y218008D01*
X441500Y218027D01*
X441632Y218082D01*
X457123Y218082D01*
X457287Y218096D01*
X457452Y218103D01*
X457511Y218116D01*
X457572Y218122D01*
X457731Y218165D01*
X457891Y218201D01*
X457947Y218224D01*
X458006Y218240D01*
X458154Y218311D01*
X458307Y218374D01*
X458358Y218407D01*
X458413Y218433D01*
X458546Y218529D01*
X458685Y218618D01*
X458743Y218670D01*
X458779Y218696D01*
X458821Y218739D01*
X458919Y218825D01*
X459959Y219865D01*
X462199Y220793D01*
X472144Y220793D01*
X472274Y220805D01*
X472403Y220807D01*
X472497Y220825D01*
X472592Y220833D01*
X472718Y220867D01*
X472845Y220892D01*
X472935Y220927D01*
X473027Y220952D01*
X473144Y221007D01*
X473265Y221054D01*
X473347Y221104D01*
X473433Y221145D01*
X473539Y221221D01*
X473650Y221288D01*
X473722Y221352D01*
X473799Y221407D01*
X473890Y221500D01*
X473988Y221586D01*
X474047Y221661D01*
X474114Y221730D01*
X474186Y221838D01*
X474267Y221940D01*
X474312Y222024D01*
X474366Y222103D01*
X474418Y222222D01*
X474480Y222336D01*
X474509Y222427D01*
X474548Y222515D01*
X474579Y222641D01*
X474619Y222765D01*
X474632Y222859D01*
X474654Y222952D01*
X474662Y223082D01*
X474680Y223211D01*
X474676Y223306D01*
X474682Y223402D01*
X474667Y223531D01*
X474662Y223661D01*
X474641Y223754D01*
X474630Y223849D01*
X474592Y223973D01*
X474564Y224100D01*
X474528Y224188D01*
X474500Y224280D01*
X474441Y224396D01*
X474391Y224516D01*
X474339Y224596D01*
X474295Y224681D01*
X474217Y224785D01*
X474146Y224894D01*
X474060Y224991D01*
X474023Y225040D01*
X473990Y225070D01*
X473939Y225128D01*
X470056Y229012D01*
X469930Y229117D01*
X469809Y229229D01*
X469757Y229261D01*
X469710Y229300D01*
X469568Y229382D01*
X469429Y229470D01*
X469372Y229494D01*
X469320Y229524D01*
X469165Y229579D01*
X469012Y229641D01*
X468953Y229654D01*
X468895Y229675D01*
X468733Y229701D01*
X468572Y229736D01*
X468495Y229741D01*
X468451Y229748D01*
X468390Y229747D01*
X468260Y229755D01*
X349181Y229755D01*
X345820Y231147D01*
X337856Y239112D01*
X337730Y239217D01*
X337609Y239329D01*
X337557Y239361D01*
X337510Y239400D01*
X337368Y239482D01*
X337229Y239570D01*
X337172Y239594D01*
X337120Y239624D01*
X336965Y239679D01*
X336812Y239741D01*
X336753Y239754D01*
X336695Y239775D01*
X336533Y239801D01*
X336372Y239836D01*
X336295Y239841D01*
X336251Y239848D01*
X336190Y239847D01*
X336060Y239855D01*
X317181Y239855D01*
X313820Y241247D01*
X311247Y243820D01*
X309855Y247181D01*
X309855Y293943D01*
X309844Y294073D01*
X309842Y294203D01*
X309824Y294296D01*
X309815Y294392D01*
X309781Y294517D01*
X309756Y294645D01*
X309722Y294734D01*
X309697Y294826D01*
X309641Y294943D01*
X309594Y295065D01*
X309544Y295147D01*
X309503Y295233D01*
X309428Y295338D01*
X309360Y295450D01*
X309297Y295521D01*
X309241Y295599D01*
X309148Y295690D01*
X309062Y295787D01*
X308987Y295846D01*
X308919Y295913D01*
X308811Y295986D01*
X308709Y296066D01*
X308625Y296111D01*
X308546Y296165D01*
X308427Y296218D01*
X308312Y296279D01*
X308221Y296308D01*
X308134Y296347D01*
X308007Y296378D01*
X307884Y296418D01*
X307789Y296431D01*
X307696Y296454D01*
X307567Y296462D01*
X307438Y296479D01*
X307342Y296476D01*
X307247Y296481D01*
X307118Y296466D01*
X306988Y296461D01*
X306895Y296440D01*
X306800Y296429D01*
X306675Y296392D01*
X306548Y296364D01*
X306460Y296327D01*
X306369Y296299D01*
X306253Y296240D01*
X306133Y296190D01*
X306053Y296138D01*
X305967Y296095D01*
X305864Y296016D01*
X305755Y295946D01*
X305657Y295859D01*
X305609Y295823D01*
X305578Y295790D01*
X305520Y295739D01*
X304633Y294851D01*
X304632Y294850D01*
X303095Y293313D01*
X290967Y293313D01*
X290803Y293298D01*
X290639Y293291D01*
X290579Y293278D01*
X290518Y293273D01*
X290360Y293229D01*
X290199Y293194D01*
X290143Y293170D01*
X290084Y293154D01*
X289936Y293084D01*
X289784Y293020D01*
X289732Y292987D01*
X289677Y292961D01*
X289544Y292865D01*
X289405Y292776D01*
X289348Y292725D01*
X289311Y292699D01*
X289269Y292655D01*
X289171Y292569D01*
X283100Y286498D01*
X278526Y284603D01*
X250249Y284603D01*
X250132Y284593D01*
X250015Y284593D01*
X249909Y284573D01*
X249800Y284563D01*
X249687Y284533D01*
X249572Y284512D01*
X249426Y284461D01*
X249366Y284445D01*
X249333Y284429D01*
X249277Y284410D01*
X249130Y284349D01*
X230870Y284349D01*
X226159Y286300D01*
X226092Y286363D01*
X226040Y286395D01*
X225994Y286434D01*
X225851Y286516D01*
X225712Y286604D01*
X225656Y286627D01*
X225603Y286658D01*
X225448Y286713D01*
X225296Y286775D01*
X225236Y286788D01*
X225179Y286809D01*
X225016Y286835D01*
X224855Y286870D01*
X224778Y286875D01*
X224734Y286882D01*
X224673Y286881D01*
X224543Y286889D01*
X185311Y286889D01*
X185147Y286875D01*
X184982Y286868D01*
X184923Y286855D01*
X184862Y286849D01*
X184703Y286806D01*
X184543Y286770D01*
X184486Y286747D01*
X184428Y286731D01*
X184279Y286660D01*
X184127Y286597D01*
X184076Y286564D01*
X184021Y286537D01*
X183887Y286442D01*
X183749Y286352D01*
X183691Y286301D01*
X183655Y286275D01*
X183612Y286232D01*
X183515Y286146D01*
X166501Y269132D01*
X166418Y269032D01*
X166327Y268939D01*
X166273Y268860D01*
X166212Y268786D01*
X166148Y268673D01*
X166075Y268566D01*
X166036Y268478D01*
X165989Y268395D01*
X165945Y268273D01*
X165893Y268154D01*
X165870Y268061D01*
X165838Y267971D01*
X165817Y267843D01*
X165786Y267716D01*
X165780Y267621D01*
X165764Y267527D01*
X165766Y267397D01*
X165758Y267267D01*
X165769Y267172D01*
X165771Y267077D01*
X165795Y266949D01*
X165810Y266820D01*
X165838Y266728D01*
X165856Y266635D01*
X165903Y266513D01*
X165941Y266389D01*
X165984Y266304D01*
X166018Y266215D01*
X166086Y266103D01*
X166145Y265988D01*
X166203Y265912D01*
X166252Y265830D01*
X166338Y265732D01*
X166417Y265629D01*
X166487Y265564D01*
X166551Y265492D01*
X166652Y265412D01*
X166748Y265324D01*
X166829Y265272D01*
X166904Y265213D01*
X167018Y265152D01*
X167128Y265082D01*
X167216Y265045D01*
X167301Y265000D01*
X167424Y264960D01*
X167544Y264911D01*
X167638Y264891D01*
X167729Y264861D01*
X167857Y264843D01*
X167985Y264816D01*
X168114Y264808D01*
X168175Y264800D01*
X168220Y264802D01*
X168297Y264797D01*
X184401Y264797D01*
X198224Y250974D01*
X198224Y231426D01*
X186877Y220080D01*
X186793Y219980D01*
X186703Y219887D01*
X186649Y219807D01*
X186588Y219734D01*
X186523Y219621D01*
X186451Y219514D01*
X186412Y219426D01*
X186365Y219343D01*
X186321Y219221D01*
X186268Y219102D01*
X186246Y219009D01*
X186214Y218919D01*
X186193Y218790D01*
X186162Y218664D01*
X186156Y218569D01*
X186140Y218475D01*
X186142Y218344D01*
X186134Y218215D01*
X186145Y218120D01*
X186146Y218024D01*
X186171Y217897D01*
X186186Y217768D01*
X186214Y217676D01*
X186232Y217582D01*
X186279Y217461D01*
X186317Y217337D01*
X186360Y217252D01*
X186394Y217162D01*
X186462Y217051D01*
X186521Y216935D01*
X186579Y216859D01*
X186628Y216778D01*
X186714Y216680D01*
X186793Y216577D01*
X186863Y216512D01*
X186926Y216440D01*
X187028Y216360D01*
X187124Y216271D01*
X187205Y216220D01*
X187280Y216161D01*
X187394Y216100D01*
X187504Y216030D01*
X187592Y215993D01*
X187676Y215948D01*
X187800Y215908D01*
X187920Y215859D01*
X188014Y215839D01*
X188105Y215809D01*
X188233Y215791D01*
X188361Y215764D01*
X188490Y215756D01*
X188551Y215748D01*
X188596Y215749D01*
X188672Y215745D01*
X249719Y215745D01*
X253080Y214353D01*
X256009Y211423D01*
X256010Y211423D01*
X262024Y205409D01*
X262087Y205356D01*
X262144Y205296D01*
X262259Y205212D01*
X262369Y205120D01*
X262441Y205079D01*
X262507Y205030D01*
X262636Y204968D01*
X262760Y204897D01*
X262838Y204869D01*
X262912Y204833D01*
X263049Y204794D01*
X263184Y204746D01*
X263266Y204732D01*
X263345Y204710D01*
X263487Y204696D01*
X263628Y204672D01*
X263711Y204673D01*
X263793Y204665D01*
X263935Y204677D01*
X264079Y204678D01*
X264160Y204694D01*
X264242Y204701D01*
X264380Y204737D01*
X264521Y204764D01*
X264598Y204794D01*
X264677Y204815D01*
X264807Y204875D01*
X264941Y204926D01*
X265011Y204969D01*
X265086Y205004D01*
X265203Y205086D01*
X265325Y205160D01*
X265387Y205215D01*
X265455Y205262D01*
X265556Y205364D01*
X265663Y205458D01*
X265714Y205523D01*
X265772Y205581D01*
X265854Y205700D01*
X265942Y205812D01*
X265981Y205884D01*
X266028Y205952D01*
X266136Y206174D01*
X266155Y206208D01*
X266158Y206219D01*
X266165Y206233D01*
X266847Y207880D01*
X289420Y230453D01*
X292781Y231845D01*
X330419Y231845D01*
X333780Y230453D01*
X345407Y218825D01*
X345534Y218720D01*
X345654Y218608D01*
X345706Y218576D01*
X345753Y218536D01*
X345895Y218455D01*
X346034Y218367D01*
X346091Y218343D01*
X346144Y218313D01*
X346298Y218258D01*
X346451Y218196D01*
X346510Y218183D01*
X346568Y218162D01*
X346730Y218135D01*
X346891Y218101D01*
X346968Y218096D01*
X347012Y218089D01*
X347073Y218090D01*
X347203Y218082D01*
X380470Y218082D01*
X380602Y218027D01*
X380714Y217992D01*
X380822Y217948D01*
X380928Y217925D01*
X381032Y217892D01*
X381148Y217878D01*
X381262Y217853D01*
X381416Y217843D01*
X381479Y217835D01*
X381515Y217837D01*
X381574Y217834D01*
X385864Y217834D01*
X388105Y216905D01*
X389820Y215190D01*
X390748Y212950D01*
X390748Y204924D01*
X389820Y202683D01*
X388105Y200968D01*
X385864Y200040D01*
X381574Y200040D01*
X381458Y200030D01*
X381341Y200029D01*
X381234Y200010D01*
X381126Y200000D01*
X381013Y199969D01*
X380898Y199948D01*
X380752Y199898D01*
X380691Y199882D01*
X380658Y199866D01*
X380602Y199847D01*
X380470Y199792D01*
X371671Y199792D01*
X371541Y199781D01*
X371411Y199779D01*
X371318Y199761D01*
X371222Y199752D01*
X371097Y199718D01*
X370969Y199693D01*
X370880Y199659D01*
X370788Y199634D01*
X370671Y199578D01*
X370549Y199531D01*
X370467Y199481D01*
X370381Y199440D01*
X370276Y199365D01*
X370164Y199297D01*
X370093Y199234D01*
X370015Y199178D01*
X369924Y199085D01*
X369827Y198999D01*
X369768Y198924D01*
X369701Y198856D01*
X369628Y198748D01*
X369548Y198646D01*
X369502Y198562D01*
X369449Y198482D01*
X369396Y198364D01*
X369335Y198249D01*
X369305Y198158D01*
X369267Y198071D01*
X369236Y197944D01*
X369196Y197821D01*
X369183Y197726D01*
X369160Y197633D01*
X369152Y197504D01*
X369134Y197375D01*
X369138Y197279D01*
X369132Y197184D01*
X369147Y197055D01*
X369153Y196925D01*
X369173Y196832D01*
X369184Y196737D01*
X369222Y196612D01*
X369250Y196485D01*
X369287Y196397D01*
X369315Y196306D01*
X369374Y196190D01*
X369424Y196070D01*
X369476Y195990D01*
X369519Y195904D01*
X369598Y195801D01*
X369668Y195692D01*
X369754Y195594D01*
X369791Y195546D01*
X369824Y195515D01*
X369875Y195457D01*
X371907Y193425D01*
X372033Y193320D01*
X372154Y193208D01*
X372206Y193176D01*
X372253Y193136D01*
X372395Y193055D01*
X372534Y192967D01*
X372591Y192943D01*
X372644Y192913D01*
X372798Y192858D01*
X372951Y192796D01*
X373010Y192783D01*
X373068Y192762D01*
X373230Y192735D01*
X373391Y192701D01*
X373468Y192696D01*
X373512Y192689D01*
X373573Y192690D01*
X373703Y192682D01*
X380470Y192682D01*
X380602Y192627D01*
X380714Y192592D01*
X380822Y192548D01*
X380928Y192525D01*
X381032Y192492D01*
X381148Y192478D01*
X381262Y192453D01*
X381416Y192443D01*
X381479Y192435D01*
X381515Y192437D01*
X381574Y192434D01*
X385864Y192434D01*
X388105Y191505D01*
X389820Y189790D01*
X390748Y187550D01*
X390748Y179524D01*
X389820Y177283D01*
X388105Y175568D01*
X385864Y174640D01*
X381574Y174640D01*
X381458Y174630D01*
X381341Y174629D01*
X381234Y174610D01*
X381126Y174600D01*
X381013Y174569D01*
X380898Y174548D01*
X380752Y174498D01*
X380691Y174482D01*
X380658Y174466D01*
X380602Y174447D01*
X380470Y174392D01*
X367044Y174392D01*
X366640Y174560D01*
X366561Y174584D01*
X366486Y174618D01*
X366346Y174652D01*
X366210Y174694D01*
X366128Y174705D01*
X366048Y174724D01*
X365906Y174733D01*
X365763Y174751D01*
X365681Y174747D01*
X365599Y174752D01*
X365457Y174736D01*
X365314Y174728D01*
X365234Y174709D01*
X365152Y174700D01*
X365014Y174658D01*
X364875Y174626D01*
X364800Y174594D01*
X364721Y174570D01*
X364593Y174505D01*
X364462Y174448D01*
X364393Y174403D01*
X364319Y174365D01*
X364206Y174279D01*
X364086Y174200D01*
X364026Y174143D01*
X363961Y174093D01*
X363864Y173988D01*
X363760Y173889D01*
X363711Y173823D01*
X363655Y173762D01*
X363579Y173642D01*
X363494Y173526D01*
X363458Y173452D01*
X363414Y173382D01*
X363359Y173250D01*
X363296Y173121D01*
X363274Y173042D01*
X363243Y172966D01*
X363213Y172826D01*
X363173Y172688D01*
X363165Y172606D01*
X363148Y172526D01*
X363133Y172280D01*
X363129Y172240D01*
X363130Y172229D01*
X363129Y172214D01*
X363129Y169821D01*
X363132Y169786D01*
X363130Y169752D01*
X363152Y169562D01*
X363169Y169372D01*
X363178Y169339D01*
X363182Y169305D01*
X363237Y169122D01*
X363287Y168938D01*
X363302Y168907D01*
X363312Y168874D01*
X363399Y168703D01*
X363481Y168531D01*
X363501Y168503D01*
X363516Y168472D01*
X363632Y168320D01*
X363743Y168165D01*
X363768Y168141D01*
X363788Y168114D01*
X363928Y167985D01*
X364065Y167851D01*
X364094Y167832D01*
X364120Y167808D01*
X364281Y167706D01*
X364438Y167599D01*
X364470Y167585D01*
X364499Y167567D01*
X364676Y167494D01*
X364850Y167417D01*
X364884Y167409D01*
X364916Y167396D01*
X365103Y167355D01*
X365288Y167310D01*
X365322Y167308D01*
X365356Y167301D01*
X365668Y167282D01*
X380470Y167282D01*
X380602Y167227D01*
X380714Y167192D01*
X380822Y167148D01*
X380928Y167125D01*
X381032Y167092D01*
X381148Y167077D01*
X381262Y167053D01*
X381416Y167043D01*
X381479Y167035D01*
X381515Y167037D01*
X381574Y167034D01*
X385864Y167034D01*
X388105Y166105D01*
X389820Y164390D01*
X390748Y162150D01*
X390748Y154124D01*
X389820Y151883D01*
X388105Y150168D01*
X385864Y149240D01*
X381574Y149240D01*
X381458Y149230D01*
X381341Y149229D01*
X381234Y149210D01*
X381126Y149200D01*
X381013Y149170D01*
X380898Y149149D01*
X380752Y149098D01*
X380691Y149082D01*
X380659Y149066D01*
X380602Y149047D01*
X380470Y148992D01*
X348728Y148992D01*
X348517Y148973D01*
X348306Y148957D01*
X348293Y148953D01*
X348280Y148952D01*
X348074Y148896D01*
X347870Y148843D01*
X347858Y148837D01*
X347845Y148834D01*
X347655Y148743D01*
X347461Y148654D01*
X347450Y148646D01*
X347439Y148640D01*
X347267Y148517D01*
X347093Y148395D01*
X347083Y148386D01*
X347073Y148378D01*
X346925Y148226D01*
X346775Y148076D01*
X346768Y148065D01*
X346759Y148056D01*
X346640Y147880D01*
X346519Y147705D01*
X346512Y147691D01*
X346506Y147682D01*
X346490Y147646D01*
X346483Y147631D01*
X344742Y145890D01*
X344501Y145790D01*
X344312Y145692D01*
X344124Y145595D01*
X344113Y145588D01*
X344101Y145581D01*
X343933Y145451D01*
X343765Y145323D01*
X343756Y145314D01*
X343745Y145306D01*
X343603Y145148D01*
X343460Y144992D01*
X343453Y144981D01*
X343444Y144971D01*
X343333Y144793D01*
X343218Y144613D01*
X343213Y144600D01*
X343206Y144589D01*
X343127Y144392D01*
X343047Y144196D01*
X343044Y144183D01*
X343039Y144171D01*
X342997Y143963D01*
X342952Y143756D01*
X342951Y143740D01*
X342949Y143730D01*
X342948Y143690D01*
X342933Y143444D01*
X342933Y131838D01*
X342611Y131059D01*
X342576Y130948D01*
X342531Y130840D01*
X342508Y130734D01*
X342476Y130630D01*
X342461Y130514D01*
X342437Y130400D01*
X342427Y130246D01*
X342419Y130183D01*
X342421Y130147D01*
X342417Y130088D01*
X342417Y121444D01*
X341916Y120234D01*
X341852Y120031D01*
X341787Y119830D01*
X341785Y119817D01*
X341781Y119804D01*
X341754Y119592D01*
X341726Y119384D01*
X341726Y119370D01*
X341724Y119357D01*
X341735Y119147D01*
X341744Y118934D01*
X341747Y118921D01*
X341747Y118908D01*
X341795Y118702D01*
X341841Y118494D01*
X341847Y118482D01*
X341850Y118469D01*
X341933Y118275D01*
X342015Y118079D01*
X342022Y118067D01*
X342027Y118055D01*
X342144Y117880D01*
X342259Y117700D01*
X342270Y117689D01*
X342276Y117680D01*
X342303Y117651D01*
X342466Y117466D01*
X344387Y115545D01*
X344414Y115523D01*
X344437Y115497D01*
X344586Y115379D01*
X344733Y115256D01*
X344763Y115239D01*
X344790Y115218D01*
X344958Y115127D01*
X345124Y115033D01*
X345156Y115021D01*
X345187Y115005D01*
X345368Y114946D01*
X345548Y114882D01*
X345582Y114876D01*
X345615Y114866D01*
X345804Y114840D01*
X345992Y114809D01*
X346027Y114809D01*
X346061Y114804D01*
X346252Y114812D01*
X346443Y114815D01*
X346477Y114821D01*
X346511Y114823D01*
X346697Y114864D01*
X346885Y114900D01*
X346917Y114913D01*
X346951Y114920D01*
X347127Y114994D01*
X347305Y115063D01*
X347334Y115081D01*
X347366Y115094D01*
X347526Y115197D01*
X347689Y115296D01*
X347715Y115319D01*
X347744Y115338D01*
X347979Y115545D01*
X348747Y116314D01*
X350988Y117242D01*
X364413Y117242D01*
X366654Y116314D01*
X368369Y114599D01*
X369297Y112358D01*
X369297Y99932D01*
X368752Y98617D01*
X368703Y98460D01*
X368647Y98306D01*
X368636Y98246D01*
X368618Y98187D01*
X368597Y98024D01*
X368568Y97862D01*
X368569Y97801D01*
X368561Y97741D01*
X368569Y97576D01*
X368570Y97412D01*
X368581Y97352D01*
X368584Y97291D01*
X368621Y97131D01*
X368651Y96969D01*
X368676Y96896D01*
X368686Y96852D01*
X368710Y96796D01*
X368752Y96673D01*
X369297Y95358D01*
X369297Y91995D01*
X369313Y91818D01*
X369322Y91641D01*
X369333Y91594D01*
X369337Y91547D01*
X369384Y91375D01*
X369424Y91202D01*
X369443Y91158D01*
X369456Y91112D01*
X369532Y90952D01*
X369602Y90789D01*
X369629Y90749D01*
X369649Y90706D01*
X369752Y90562D01*
X369851Y90413D01*
X369884Y90378D01*
X369911Y90339D01*
X370039Y90216D01*
X370161Y90087D01*
X370200Y90059D01*
X370234Y90025D01*
X370381Y89926D01*
X370525Y89821D01*
X370567Y89800D01*
X370607Y89773D01*
X370770Y89701D01*
X370929Y89623D01*
X370975Y89610D01*
X371019Y89591D01*
X371192Y89549D01*
X371362Y89500D01*
X371410Y89496D01*
X371456Y89484D01*
X371633Y89474D01*
X371810Y89456D01*
X371858Y89460D01*
X371906Y89457D01*
X372082Y89477D01*
X372259Y89491D01*
X372305Y89503D01*
X372353Y89509D01*
X372523Y89560D01*
X372695Y89605D01*
X372738Y89625D01*
X372784Y89639D01*
X372942Y89720D01*
X373103Y89794D01*
X373143Y89822D01*
X373185Y89843D01*
X373326Y89951D01*
X373472Y90053D01*
X373506Y90087D01*
X373544Y90115D01*
X373664Y90246D01*
X373790Y90372D01*
X373817Y90411D01*
X373849Y90447D01*
X373944Y90596D01*
X374046Y90743D01*
X374072Y90796D01*
X374091Y90826D01*
X374115Y90885D01*
X374183Y91023D01*
X374247Y91180D01*
X377177Y94109D01*
X377177Y94110D01*
X383890Y100823D01*
X386820Y103753D01*
X389288Y104775D01*
X389475Y104873D01*
X389665Y104969D01*
X389675Y104977D01*
X389687Y104983D01*
X389854Y105113D01*
X390023Y105241D01*
X390032Y105251D01*
X390043Y105259D01*
X390185Y105417D01*
X390329Y105572D01*
X390336Y105583D01*
X390344Y105593D01*
X390456Y105773D01*
X390570Y105952D01*
X390575Y105964D01*
X390582Y105976D01*
X390661Y106172D01*
X390741Y106369D01*
X390744Y106381D01*
X390749Y106394D01*
X390791Y106602D01*
X390836Y106809D01*
X390837Y106825D01*
X390839Y106835D01*
X390840Y106874D01*
X390855Y107121D01*
X390855Y111160D01*
X390841Y111324D01*
X390834Y111488D01*
X390821Y111548D01*
X390815Y111609D01*
X390772Y111768D01*
X390736Y111928D01*
X390713Y111984D01*
X390697Y112043D01*
X390626Y112191D01*
X390563Y112344D01*
X390530Y112395D01*
X390503Y112450D01*
X390408Y112583D01*
X390318Y112722D01*
X390267Y112780D01*
X390241Y112816D01*
X390198Y112858D01*
X390112Y112956D01*
X380219Y122848D01*
X380093Y122954D01*
X379972Y123065D01*
X379920Y123098D01*
X379874Y123137D01*
X379731Y123219D01*
X379592Y123307D01*
X379535Y123331D01*
X379483Y123361D01*
X379328Y123416D01*
X379175Y123478D01*
X379116Y123491D01*
X379058Y123512D01*
X378896Y123538D01*
X378735Y123573D01*
X378658Y123578D01*
X378614Y123585D01*
X378553Y123584D01*
X378423Y123592D01*
X376832Y123592D01*
X376700Y123647D01*
X376589Y123682D01*
X376481Y123726D01*
X376374Y123749D01*
X376271Y123782D01*
X376155Y123796D01*
X376040Y123821D01*
X375887Y123830D01*
X375824Y123838D01*
X375788Y123837D01*
X375728Y123840D01*
X371439Y123840D01*
X369198Y124768D01*
X367483Y126483D01*
X366555Y128724D01*
X366555Y136750D01*
X367483Y138990D01*
X369198Y140705D01*
X371439Y141634D01*
X375728Y141634D01*
X375845Y141644D01*
X375962Y141644D01*
X376068Y141664D01*
X376177Y141674D01*
X376290Y141704D01*
X376405Y141725D01*
X376551Y141776D01*
X376611Y141792D01*
X376644Y141808D01*
X376700Y141827D01*
X376832Y141882D01*
X385082Y141882D01*
X385214Y141827D01*
X385326Y141792D01*
X385434Y141748D01*
X385540Y141725D01*
X385644Y141692D01*
X385757Y141678D01*
X388193Y140669D01*
X388223Y140644D01*
X388324Y140586D01*
X388396Y140536D01*
X404823Y124110D01*
X407753Y121180D01*
X409145Y117819D01*
X409145Y106086D01*
X409159Y105922D01*
X409166Y105758D01*
X409179Y105698D01*
X409185Y105637D01*
X409228Y105478D01*
X409264Y105318D01*
X409287Y105262D01*
X409303Y105203D01*
X409374Y105055D01*
X409437Y104903D01*
X409470Y104851D01*
X409497Y104796D01*
X409592Y104663D01*
X409682Y104524D01*
X409733Y104467D01*
X409759Y104430D01*
X409802Y104388D01*
X409888Y104290D01*
X410506Y103673D01*
X411434Y101432D01*
X411434Y89006D01*
X410889Y87691D01*
X410840Y87534D01*
X410783Y87379D01*
X410773Y87319D01*
X410755Y87261D01*
X410734Y87098D01*
X410705Y86936D01*
X410706Y86875D01*
X410698Y86814D01*
X410706Y86650D01*
X410707Y86486D01*
X410718Y86426D01*
X410721Y86365D01*
X410758Y86205D01*
X410788Y86043D01*
X410813Y85970D01*
X410823Y85926D01*
X410847Y85870D01*
X410889Y85747D01*
X411434Y84432D01*
X411434Y72006D01*
X410506Y69766D01*
X409726Y68985D01*
X409620Y68859D01*
X409509Y68738D01*
X409476Y68687D01*
X409437Y68640D01*
X409356Y68497D01*
X409267Y68359D01*
X409244Y68302D01*
X409214Y68249D01*
X409159Y68094D01*
X409096Y67942D01*
X409083Y67882D01*
X409063Y67825D01*
X409036Y67663D01*
X409002Y67502D01*
X408997Y67425D01*
X408989Y67381D01*
X408990Y67320D01*
X408982Y67190D01*
X408982Y59019D01*
X407590Y55658D01*
X394180Y42247D01*
X390819Y40855D01*
X348181Y40855D01*
X344820Y42247D01*
X338793Y48274D01*
X338667Y48380D01*
X338546Y48491D01*
X338495Y48524D01*
X338448Y48563D01*
X338305Y48644D01*
X338167Y48733D01*
X338110Y48756D01*
X338057Y48786D01*
X337902Y48841D01*
X337750Y48904D01*
X337690Y48917D01*
X337633Y48937D01*
X337471Y48964D01*
X337310Y48998D01*
X337233Y49003D01*
X337189Y49011D01*
X337128Y49010D01*
X336998Y49018D01*
X327571Y49018D01*
X327454Y49007D01*
X327338Y49007D01*
X327231Y48987D01*
X327122Y48978D01*
X327010Y48947D01*
X326895Y48926D01*
X326749Y48876D01*
X326688Y48859D01*
X326655Y48844D01*
X326599Y48824D01*
X322276Y47034D01*
X321836Y47034D01*
X321801Y47031D01*
X321767Y47033D01*
X321578Y47011D01*
X321387Y46994D01*
X321354Y46985D01*
X321320Y46981D01*
X321137Y46925D01*
X320953Y46875D01*
X320922Y46860D01*
X320889Y46850D01*
X320718Y46763D01*
X320546Y46682D01*
X320518Y46662D01*
X320487Y46646D01*
X320335Y46531D01*
X320180Y46420D01*
X320156Y46395D01*
X320129Y46374D01*
X320000Y46234D01*
X319866Y46097D01*
X319847Y46068D01*
X319823Y46043D01*
X319721Y45882D01*
X319614Y45724D01*
X319600Y45692D01*
X319582Y45663D01*
X319509Y45487D01*
X319432Y45312D01*
X319424Y45279D01*
X319411Y45247D01*
X319371Y45060D01*
X319325Y44875D01*
X319323Y44840D01*
X319316Y44806D01*
X319297Y44494D01*
X319297Y37987D01*
X318369Y35746D01*
X316654Y34031D01*
X314413Y33103D01*
X302792Y33103D01*
X302629Y33089D01*
X302464Y33082D01*
X302405Y33069D01*
X302344Y33063D01*
X302185Y33020D01*
X302025Y32984D01*
X301968Y32961D01*
X301909Y32945D01*
X301761Y32874D01*
X301609Y32811D01*
X301558Y32778D01*
X301503Y32751D01*
X301369Y32656D01*
X301231Y32566D01*
X301173Y32515D01*
X301137Y32489D01*
X301094Y32446D01*
X300997Y32360D01*
X285285Y16647D01*
X284622Y16373D01*
X284465Y16291D01*
X284306Y16216D01*
X284266Y16187D01*
X284222Y16164D01*
X284083Y16056D01*
X283940Y15954D01*
X283905Y15919D01*
X283866Y15889D01*
X283748Y15757D01*
X283625Y15631D01*
X283598Y15591D01*
X283565Y15554D01*
X283472Y15405D01*
X283373Y15258D01*
X283353Y15214D01*
X283327Y15172D01*
X283262Y15008D01*
X283190Y14847D01*
X283178Y14799D01*
X283160Y14754D01*
X283125Y14581D01*
X283083Y14410D01*
X283080Y14361D01*
X283070Y14313D01*
X283066Y14136D01*
X283055Y13960D01*
X283060Y13912D01*
X283059Y13862D01*
X283086Y13688D01*
X283107Y13513D01*
X283121Y13466D01*
X283128Y13417D01*
X283186Y13251D01*
X283236Y13082D01*
X283259Y13038D01*
X283275Y12992D01*
X283360Y12838D01*
X283440Y12680D01*
X283470Y12641D01*
X283494Y12598D01*
X283606Y12462D01*
X283712Y12321D01*
X283748Y12288D01*
X283779Y12250D01*
X283913Y12135D01*
X284043Y12016D01*
X284084Y11989D01*
X284121Y11958D01*
X284274Y11868D01*
X284422Y11774D01*
X284468Y11755D01*
X284510Y11730D01*
X284676Y11669D01*
X284839Y11602D01*
X284887Y11592D01*
X284933Y11575D01*
X285106Y11544D01*
X285279Y11507D01*
X285340Y11503D01*
X285376Y11497D01*
X285439Y11497D01*
X285591Y11488D01*
X652966Y11129D01*
X652994Y11132D01*
G37*
G36*
X107802Y11668D02*
X107802Y11668D01*
X107885Y11666D01*
X108025Y11688D01*
X108167Y11701D01*
X108247Y11723D01*
X108330Y11735D01*
X108464Y11781D01*
X108601Y11819D01*
X108677Y11855D01*
X108756Y11882D01*
X108880Y11951D01*
X109008Y12012D01*
X109076Y12060D01*
X109149Y12101D01*
X109259Y12191D01*
X109374Y12273D01*
X109433Y12333D01*
X109498Y12386D01*
X109590Y12494D01*
X109689Y12596D01*
X109736Y12665D01*
X109790Y12729D01*
X109862Y12851D01*
X109941Y12969D01*
X109975Y13045D01*
X110017Y13117D01*
X110066Y13250D01*
X110124Y13380D01*
X110144Y13462D01*
X110173Y13540D01*
X110197Y13680D01*
X110231Y13818D01*
X110236Y13901D01*
X110251Y13983D01*
X110250Y14125D01*
X110259Y14267D01*
X110250Y14350D01*
X110249Y14434D01*
X110224Y14573D01*
X110207Y14714D01*
X110183Y14795D01*
X110168Y14877D01*
X110102Y15069D01*
X110102Y33514D01*
X111030Y35755D01*
X112745Y37470D01*
X114986Y38398D01*
X115513Y38398D01*
X115677Y38412D01*
X115842Y38419D01*
X115901Y38432D01*
X115962Y38438D01*
X116121Y38481D01*
X116281Y38517D01*
X116337Y38540D01*
X116396Y38556D01*
X116545Y38627D01*
X116697Y38690D01*
X116748Y38723D01*
X116803Y38750D01*
X116936Y38845D01*
X117075Y38935D01*
X117132Y38986D01*
X117169Y39012D01*
X117212Y39055D01*
X117309Y39141D01*
X119477Y41309D01*
X119477Y41310D01*
X126520Y48353D01*
X129881Y49745D01*
X167619Y49745D01*
X170980Y48353D01*
X173644Y45688D01*
X173770Y45583D01*
X173891Y45471D01*
X173943Y45439D01*
X173990Y45400D01*
X174132Y45318D01*
X174271Y45230D01*
X174328Y45206D01*
X174380Y45176D01*
X174535Y45121D01*
X174688Y45059D01*
X174747Y45046D01*
X174805Y45025D01*
X174967Y44999D01*
X175128Y44964D01*
X175205Y44959D01*
X175249Y44952D01*
X175310Y44953D01*
X175440Y44945D01*
X243160Y44945D01*
X243324Y44959D01*
X243488Y44966D01*
X243548Y44979D01*
X243609Y44985D01*
X243767Y45028D01*
X243928Y45064D01*
X243984Y45087D01*
X244043Y45103D01*
X244191Y45174D01*
X244343Y45237D01*
X244395Y45270D01*
X244450Y45297D01*
X244583Y45392D01*
X244722Y45481D01*
X244779Y45533D01*
X244816Y45559D01*
X244859Y45602D01*
X244956Y45688D01*
X246614Y47347D01*
X246689Y47437D01*
X246772Y47519D01*
X246833Y47609D01*
X246903Y47692D01*
X246961Y47794D01*
X247028Y47890D01*
X247095Y48028D01*
X247127Y48083D01*
X247139Y48117D01*
X247165Y48171D01*
X247965Y50104D01*
X251096Y53235D01*
X251712Y53490D01*
X251785Y53528D01*
X251862Y53558D01*
X251985Y53632D01*
X252111Y53698D01*
X252177Y53749D01*
X252247Y53792D01*
X252354Y53886D01*
X252467Y53974D01*
X252523Y54035D01*
X252584Y54090D01*
X252673Y54202D01*
X252769Y54308D01*
X252813Y54378D01*
X252864Y54443D01*
X252931Y54569D01*
X253007Y54691D01*
X253037Y54767D01*
X253076Y54840D01*
X253121Y54976D01*
X253174Y55109D01*
X253190Y55190D01*
X253216Y55268D01*
X253235Y55410D01*
X253264Y55550D01*
X253266Y55632D01*
X253277Y55714D01*
X253271Y55857D01*
X253275Y56000D01*
X253262Y56082D01*
X253259Y56164D01*
X253228Y56304D01*
X253206Y56445D01*
X253179Y56523D01*
X253161Y56603D01*
X253106Y56735D01*
X253059Y56871D01*
X253019Y56943D01*
X252987Y57019D01*
X252910Y57139D01*
X252840Y57264D01*
X252788Y57328D01*
X252743Y57397D01*
X252580Y57582D01*
X252555Y57613D01*
X252547Y57619D01*
X252536Y57631D01*
X249196Y60971D01*
X247804Y64332D01*
X247804Y68057D01*
X247801Y68091D01*
X247803Y68126D01*
X247781Y68315D01*
X247764Y68505D01*
X247755Y68539D01*
X247751Y68573D01*
X247696Y68756D01*
X247646Y68940D01*
X247631Y68971D01*
X247621Y69004D01*
X247534Y69175D01*
X247452Y69346D01*
X247432Y69374D01*
X247417Y69405D01*
X247301Y69557D01*
X247190Y69712D01*
X247165Y69737D01*
X247145Y69764D01*
X247005Y69893D01*
X246868Y70026D01*
X246839Y70046D01*
X246813Y70069D01*
X246652Y70172D01*
X246495Y70278D01*
X246463Y70292D01*
X246434Y70311D01*
X246257Y70383D01*
X246083Y70461D01*
X246049Y70469D01*
X246017Y70482D01*
X245830Y70522D01*
X245645Y70567D01*
X245611Y70569D01*
X245577Y70577D01*
X245265Y70596D01*
X243504Y70596D01*
X243340Y70581D01*
X243175Y70575D01*
X243116Y70561D01*
X243055Y70556D01*
X242896Y70513D01*
X242736Y70477D01*
X242679Y70454D01*
X242621Y70438D01*
X242473Y70367D01*
X242320Y70303D01*
X242269Y70270D01*
X242214Y70244D01*
X242080Y70148D01*
X241942Y70059D01*
X241884Y70008D01*
X241848Y69982D01*
X241805Y69938D01*
X241708Y69852D01*
X240928Y69072D01*
X238687Y68144D01*
X226262Y68144D01*
X224021Y69072D01*
X222306Y70787D01*
X221378Y73028D01*
X221378Y86453D01*
X222306Y88694D01*
X224021Y90409D01*
X226262Y91337D01*
X238687Y91337D01*
X240928Y90409D01*
X241708Y89629D01*
X241834Y89524D01*
X241955Y89412D01*
X242007Y89379D01*
X242053Y89340D01*
X242196Y89259D01*
X242335Y89170D01*
X242391Y89147D01*
X242444Y89117D01*
X242599Y89062D01*
X242751Y88999D01*
X242811Y88987D01*
X242869Y88966D01*
X243030Y88939D01*
X243192Y88905D01*
X243269Y88900D01*
X243313Y88893D01*
X243374Y88893D01*
X243504Y88885D01*
X245437Y88885D01*
X245471Y88889D01*
X245506Y88886D01*
X245695Y88908D01*
X245885Y88925D01*
X245919Y88934D01*
X245953Y88938D01*
X246136Y88994D01*
X246319Y89044D01*
X246351Y89059D01*
X246384Y89069D01*
X246554Y89156D01*
X246726Y89237D01*
X246754Y89257D01*
X246785Y89273D01*
X246937Y89388D01*
X247092Y89499D01*
X247116Y89524D01*
X247144Y89545D01*
X247273Y89685D01*
X247406Y89822D01*
X247426Y89851D01*
X247449Y89876D01*
X247552Y90037D01*
X247658Y90195D01*
X247672Y90227D01*
X247691Y90256D01*
X247763Y90432D01*
X247841Y90607D01*
X247849Y90641D01*
X247862Y90673D01*
X247902Y90859D01*
X247947Y91044D01*
X247949Y91079D01*
X247957Y91113D01*
X247976Y91425D01*
X247976Y92122D01*
X247980Y92155D01*
X248005Y92269D01*
X248014Y92423D01*
X248022Y92485D01*
X248020Y92522D01*
X248024Y92581D01*
X248024Y93869D01*
X248952Y96110D01*
X250667Y97825D01*
X252258Y98484D01*
X252362Y98538D01*
X252469Y98584D01*
X252561Y98642D01*
X252657Y98693D01*
X252750Y98764D01*
X252848Y98828D01*
X252963Y98930D01*
X253013Y98969D01*
X253037Y98995D01*
X253082Y99035D01*
X259753Y105706D01*
X259809Y105755D01*
X259858Y105794D01*
X259883Y105821D01*
X259928Y105861D01*
X266128Y112060D01*
X266233Y112186D01*
X266345Y112307D01*
X266377Y112359D01*
X266416Y112406D01*
X266498Y112548D01*
X266586Y112687D01*
X266610Y112744D01*
X266640Y112796D01*
X266695Y112951D01*
X266757Y113104D01*
X266770Y113163D01*
X266791Y113221D01*
X266817Y113383D01*
X266852Y113544D01*
X266857Y113621D01*
X266864Y113665D01*
X266863Y113726D01*
X266871Y113856D01*
X266871Y114340D01*
X266852Y114552D01*
X266836Y114763D01*
X266833Y114775D01*
X266831Y114789D01*
X266775Y114994D01*
X266722Y115198D01*
X266716Y115210D01*
X266713Y115223D01*
X266622Y115413D01*
X266533Y115607D01*
X266525Y115618D01*
X266519Y115630D01*
X266397Y115801D01*
X266274Y115976D01*
X266265Y115985D01*
X266257Y115996D01*
X266105Y116143D01*
X265955Y116293D01*
X265944Y116300D01*
X265935Y116310D01*
X265760Y116428D01*
X265585Y116549D01*
X265570Y116556D01*
X265562Y116562D01*
X265526Y116578D01*
X265304Y116686D01*
X263367Y117488D01*
X261652Y119203D01*
X260724Y121444D01*
X260724Y131217D01*
X260713Y131333D01*
X260713Y131450D01*
X260694Y131557D01*
X260684Y131665D01*
X260676Y131695D01*
X260676Y135638D01*
X260680Y135670D01*
X260705Y135785D01*
X260714Y135939D01*
X260722Y136001D01*
X260720Y136038D01*
X260724Y136097D01*
X260724Y141492D01*
X260709Y141655D01*
X260703Y141820D01*
X260689Y141879D01*
X260684Y141940D01*
X260641Y142099D01*
X260605Y142259D01*
X260581Y142316D01*
X260565Y142375D01*
X260495Y142523D01*
X260431Y142675D01*
X260398Y142726D01*
X260372Y142781D01*
X260277Y142915D01*
X260187Y143053D01*
X260136Y143111D01*
X260110Y143147D01*
X260066Y143190D01*
X259980Y143287D01*
X240647Y162620D01*
X239255Y165981D01*
X239255Y184460D01*
X239241Y184624D01*
X239234Y184788D01*
X239221Y184848D01*
X239215Y184909D01*
X239172Y185068D01*
X239136Y185228D01*
X239113Y185284D01*
X239097Y185343D01*
X239026Y185491D01*
X238963Y185643D01*
X238930Y185695D01*
X238903Y185750D01*
X238808Y185883D01*
X238718Y186022D01*
X238667Y186079D01*
X238641Y186116D01*
X238598Y186158D01*
X238512Y186256D01*
X237056Y187712D01*
X236930Y187817D01*
X236809Y187929D01*
X236757Y187961D01*
X236710Y188000D01*
X236568Y188082D01*
X236429Y188170D01*
X236372Y188194D01*
X236320Y188224D01*
X236165Y188279D01*
X236012Y188341D01*
X235953Y188354D01*
X235895Y188375D01*
X235733Y188401D01*
X235572Y188436D01*
X235495Y188441D01*
X235451Y188448D01*
X235390Y188447D01*
X235260Y188455D01*
X215740Y188455D01*
X215576Y188441D01*
X215412Y188434D01*
X215352Y188421D01*
X215291Y188415D01*
X215132Y188372D01*
X214972Y188336D01*
X214916Y188313D01*
X214857Y188297D01*
X214708Y188226D01*
X214557Y188163D01*
X214505Y188130D01*
X214450Y188103D01*
X214317Y188008D01*
X214178Y187918D01*
X214121Y187867D01*
X214084Y187841D01*
X214042Y187798D01*
X213944Y187712D01*
X207680Y181448D01*
X207605Y181358D01*
X207523Y181275D01*
X207461Y181186D01*
X207391Y181102D01*
X207334Y181001D01*
X207333Y181001D01*
X204661Y178328D01*
X204594Y178300D01*
X204503Y178241D01*
X204406Y178191D01*
X204314Y178119D01*
X204216Y178056D01*
X204100Y177954D01*
X204050Y177915D01*
X204026Y177888D01*
X203981Y177849D01*
X195888Y169756D01*
X195783Y169630D01*
X195671Y169509D01*
X195639Y169457D01*
X195600Y169410D01*
X195518Y169268D01*
X195430Y169129D01*
X195406Y169072D01*
X195376Y169020D01*
X195321Y168865D01*
X195259Y168712D01*
X195246Y168653D01*
X195225Y168595D01*
X195199Y168433D01*
X195164Y168272D01*
X195159Y168195D01*
X195152Y168151D01*
X195153Y168090D01*
X195145Y167960D01*
X195145Y138481D01*
X193753Y135120D01*
X173880Y115247D01*
X170519Y113855D01*
X111340Y113855D01*
X111176Y113841D01*
X111012Y113834D01*
X110952Y113821D01*
X110891Y113815D01*
X110732Y113772D01*
X110572Y113736D01*
X110516Y113713D01*
X110457Y113697D01*
X110309Y113626D01*
X110157Y113563D01*
X110105Y113530D01*
X110050Y113503D01*
X109917Y113408D01*
X109778Y113318D01*
X109721Y113267D01*
X109684Y113241D01*
X109642Y113198D01*
X109544Y113112D01*
X90088Y93656D01*
X89983Y93530D01*
X89871Y93409D01*
X89839Y93357D01*
X89800Y93310D01*
X89718Y93168D01*
X89630Y93029D01*
X89606Y92972D01*
X89576Y92920D01*
X89521Y92765D01*
X89459Y92612D01*
X89446Y92553D01*
X89425Y92495D01*
X89399Y92333D01*
X89364Y92172D01*
X89359Y92095D01*
X89352Y92051D01*
X89353Y91990D01*
X89345Y91860D01*
X89345Y55481D01*
X87953Y52120D01*
X82988Y47156D01*
X82883Y47030D01*
X82771Y46909D01*
X82739Y46857D01*
X82700Y46810D01*
X82618Y46668D01*
X82530Y46529D01*
X82506Y46472D01*
X82476Y46420D01*
X82421Y46265D01*
X82359Y46112D01*
X82346Y46053D01*
X82325Y45995D01*
X82299Y45833D01*
X82264Y45672D01*
X82259Y45595D01*
X82252Y45551D01*
X82253Y45490D01*
X82245Y45360D01*
X82245Y40072D01*
X82264Y39860D01*
X82280Y39649D01*
X82283Y39636D01*
X82285Y39623D01*
X82340Y39418D01*
X82394Y39213D01*
X82400Y39201D01*
X82403Y39189D01*
X82493Y38999D01*
X82583Y38805D01*
X82591Y38794D01*
X82597Y38782D01*
X82720Y38609D01*
X82842Y38436D01*
X82851Y38427D01*
X82859Y38416D01*
X83012Y38267D01*
X83161Y38119D01*
X83172Y38111D01*
X83181Y38102D01*
X83357Y37983D01*
X83531Y37863D01*
X83546Y37856D01*
X83554Y37850D01*
X83590Y37834D01*
X83812Y37726D01*
X85155Y37170D01*
X86870Y35455D01*
X87798Y33214D01*
X87798Y14559D01*
X87791Y14457D01*
X87773Y14314D01*
X87777Y14232D01*
X87772Y14151D01*
X87789Y14008D01*
X87796Y13864D01*
X87814Y13785D01*
X87824Y13703D01*
X87865Y13565D01*
X87898Y13425D01*
X87930Y13350D01*
X87954Y13272D01*
X88019Y13144D01*
X88076Y13012D01*
X88121Y12944D01*
X88158Y12871D01*
X88245Y12756D01*
X88324Y12636D01*
X88380Y12577D01*
X88429Y12512D01*
X88535Y12414D01*
X88634Y12310D01*
X88700Y12262D01*
X88760Y12206D01*
X88882Y12129D01*
X88998Y12044D01*
X89071Y12008D01*
X89140Y11964D01*
X89273Y11909D01*
X89402Y11846D01*
X89481Y11824D01*
X89556Y11793D01*
X89697Y11762D01*
X89835Y11723D01*
X89916Y11715D01*
X89996Y11698D01*
X90246Y11682D01*
X90283Y11678D01*
X90293Y11679D01*
X90308Y11678D01*
X107718Y11661D01*
X107802Y11668D01*
G37*
%LPC*%
G36*
X497524Y287695D02*
X497524Y287695D01*
X492856Y289629D01*
X489283Y293202D01*
X487349Y297870D01*
X487349Y316130D01*
X489283Y320798D01*
X492856Y324371D01*
X497524Y326305D01*
X502576Y326305D01*
X506401Y324720D01*
X506605Y324656D01*
X506805Y324591D01*
X506818Y324590D01*
X506831Y324586D01*
X507042Y324559D01*
X507251Y324530D01*
X507264Y324531D01*
X507278Y324529D01*
X507488Y324540D01*
X507701Y324548D01*
X507714Y324551D01*
X507727Y324552D01*
X507933Y324600D01*
X508141Y324646D01*
X508153Y324651D01*
X508166Y324654D01*
X508360Y324738D01*
X508556Y324820D01*
X508567Y324827D01*
X508579Y324832D01*
X508756Y324949D01*
X508934Y325064D01*
X508946Y325074D01*
X508955Y325080D01*
X508983Y325107D01*
X509168Y325271D01*
X512660Y328762D01*
X512765Y328888D01*
X512877Y329009D01*
X512909Y329060D01*
X512948Y329107D01*
X513030Y329250D01*
X513118Y329389D01*
X513142Y329445D01*
X513172Y329498D01*
X513227Y329653D01*
X513289Y329805D01*
X513302Y329865D01*
X513323Y329922D01*
X513349Y330085D01*
X513384Y330246D01*
X513389Y330322D01*
X513396Y330367D01*
X513395Y330428D01*
X513403Y330557D01*
X513403Y337213D01*
X514331Y339454D01*
X516047Y341169D01*
X517386Y341723D01*
X517573Y341821D01*
X517763Y341918D01*
X517773Y341926D01*
X517785Y341932D01*
X517952Y342062D01*
X518121Y342190D01*
X518130Y342199D01*
X518141Y342208D01*
X518283Y342365D01*
X518427Y342521D01*
X518434Y342532D01*
X518442Y342542D01*
X518554Y342722D01*
X518668Y342901D01*
X518673Y342913D01*
X518680Y342924D01*
X518759Y343121D01*
X518839Y343317D01*
X518842Y343330D01*
X518847Y343342D01*
X518889Y343550D01*
X518934Y343757D01*
X518935Y343773D01*
X518937Y343784D01*
X518938Y343823D01*
X518953Y344069D01*
X518953Y372019D01*
X518939Y372183D01*
X518932Y372347D01*
X518919Y372407D01*
X518913Y372467D01*
X518870Y372626D01*
X518834Y372787D01*
X518811Y372843D01*
X518795Y372902D01*
X518724Y373050D01*
X518661Y373202D01*
X518628Y373253D01*
X518601Y373308D01*
X518506Y373442D01*
X518416Y373580D01*
X518365Y373638D01*
X518339Y373675D01*
X518296Y373717D01*
X518210Y373814D01*
X516921Y375103D01*
X516921Y387097D01*
X525403Y395579D01*
X537397Y395579D01*
X545879Y387097D01*
X545879Y375103D01*
X544590Y373814D01*
X544485Y373688D01*
X544373Y373567D01*
X544341Y373516D01*
X544302Y373469D01*
X544220Y373326D01*
X544132Y373188D01*
X544108Y373131D01*
X544078Y373078D01*
X544023Y372923D01*
X543961Y372771D01*
X543948Y372712D01*
X543927Y372654D01*
X543901Y372492D01*
X543866Y372331D01*
X543861Y372254D01*
X543854Y372210D01*
X543855Y372149D01*
X543847Y372019D01*
X543847Y339528D01*
X543857Y339412D01*
X543857Y339295D01*
X543877Y339188D01*
X543887Y339080D01*
X543917Y338967D01*
X543938Y338852D01*
X543989Y338706D01*
X544005Y338646D01*
X544021Y338613D01*
X544040Y338557D01*
X544597Y337213D01*
X544597Y317787D01*
X543669Y315546D01*
X541954Y313831D01*
X539713Y312903D01*
X533057Y312903D01*
X532894Y312889D01*
X532729Y312882D01*
X532670Y312869D01*
X532609Y312863D01*
X532450Y312820D01*
X532290Y312784D01*
X532233Y312761D01*
X532175Y312745D01*
X532026Y312674D01*
X531874Y312611D01*
X531823Y312578D01*
X531768Y312551D01*
X531634Y312456D01*
X531496Y312366D01*
X531438Y312315D01*
X531402Y312289D01*
X531359Y312246D01*
X531262Y312160D01*
X515550Y296448D01*
X512432Y295156D01*
X512286Y295080D01*
X512137Y295011D01*
X512087Y294976D01*
X512033Y294948D01*
X511903Y294847D01*
X511768Y294753D01*
X511725Y294710D01*
X511677Y294672D01*
X511567Y294550D01*
X511451Y294433D01*
X511416Y294383D01*
X511375Y294338D01*
X511288Y294198D01*
X511195Y294063D01*
X511161Y293994D01*
X511137Y293956D01*
X511115Y293899D01*
X511058Y293782D01*
X510817Y293202D01*
X507244Y289629D01*
X502576Y287695D01*
X497524Y287695D01*
G37*
%LPD*%
%LPC*%
G36*
X459424Y287695D02*
X459424Y287695D01*
X454756Y289629D01*
X451183Y293202D01*
X449249Y297870D01*
X449249Y301047D01*
X449235Y301210D01*
X449228Y301375D01*
X449215Y301434D01*
X449209Y301495D01*
X449166Y301654D01*
X449130Y301814D01*
X449107Y301871D01*
X449091Y301929D01*
X449020Y302078D01*
X448957Y302230D01*
X448924Y302281D01*
X448897Y302336D01*
X448802Y302470D01*
X448712Y302608D01*
X448661Y302666D01*
X448635Y302702D01*
X448592Y302745D01*
X448506Y302842D01*
X436089Y315259D01*
X435963Y315364D01*
X435842Y315476D01*
X435791Y315508D01*
X435744Y315547D01*
X435601Y315629D01*
X435462Y315717D01*
X435406Y315741D01*
X435353Y315771D01*
X435198Y315826D01*
X435046Y315888D01*
X434986Y315901D01*
X434929Y315922D01*
X434766Y315949D01*
X434605Y315983D01*
X434529Y315988D01*
X434484Y315995D01*
X434423Y315994D01*
X434294Y316002D01*
X420524Y316002D01*
X418284Y316930D01*
X416569Y318646D01*
X415640Y320886D01*
X415640Y357312D01*
X416569Y359553D01*
X418284Y361268D01*
X420524Y362196D01*
X437950Y362196D01*
X440191Y361268D01*
X441906Y359553D01*
X442834Y357312D01*
X442834Y344770D01*
X442848Y344607D01*
X442855Y344442D01*
X442868Y344383D01*
X442874Y344322D01*
X442917Y344163D01*
X442953Y344002D01*
X442976Y343946D01*
X442992Y343887D01*
X443063Y343739D01*
X443126Y343587D01*
X443160Y343536D01*
X443186Y343481D01*
X443281Y343347D01*
X443371Y343209D01*
X443422Y343151D01*
X443448Y343115D01*
X443492Y343072D01*
X443578Y342975D01*
X459504Y327048D01*
X459630Y326943D01*
X459751Y326831D01*
X459802Y326799D01*
X459849Y326760D01*
X459992Y326678D01*
X460131Y326590D01*
X460187Y326566D01*
X460240Y326536D01*
X460395Y326481D01*
X460547Y326419D01*
X460607Y326406D01*
X460664Y326385D01*
X460827Y326359D01*
X460987Y326324D01*
X461064Y326319D01*
X461109Y326312D01*
X461170Y326313D01*
X461299Y326305D01*
X464476Y326305D01*
X469144Y324371D01*
X472717Y320798D01*
X474651Y316130D01*
X474651Y297870D01*
X472717Y293202D01*
X469144Y289629D01*
X464476Y287695D01*
X459424Y287695D01*
G37*
%LPD*%
%LPC*%
G36*
X141453Y55203D02*
X141453Y55203D01*
X127630Y69026D01*
X127630Y88574D01*
X141453Y102397D01*
X161001Y102397D01*
X174824Y88574D01*
X174824Y69026D01*
X161001Y55203D01*
X141453Y55203D01*
G37*
%LPD*%
%LPC*%
G36*
X444339Y65299D02*
X444339Y65299D01*
X436899Y72739D01*
X436899Y75460D01*
X436896Y75495D01*
X436898Y75529D01*
X436876Y75718D01*
X436859Y75909D01*
X436850Y75942D01*
X436846Y75976D01*
X436791Y76159D01*
X436741Y76343D01*
X436726Y76374D01*
X436716Y76407D01*
X436629Y76578D01*
X436547Y76750D01*
X436527Y76778D01*
X436512Y76809D01*
X436396Y76961D01*
X436285Y77116D01*
X436260Y77140D01*
X436240Y77167D01*
X436100Y77296D01*
X435963Y77430D01*
X435934Y77449D01*
X435908Y77473D01*
X435747Y77575D01*
X435590Y77682D01*
X435558Y77696D01*
X435529Y77714D01*
X435352Y77787D01*
X435178Y77864D01*
X435144Y77872D01*
X435112Y77885D01*
X434925Y77925D01*
X434740Y77971D01*
X434706Y77973D01*
X434672Y77980D01*
X434360Y77999D01*
X425289Y77999D01*
X417849Y85439D01*
X417849Y95961D01*
X425289Y103401D01*
X435811Y103401D01*
X443251Y95961D01*
X443251Y93240D01*
X443254Y93205D01*
X443252Y93171D01*
X443274Y92982D01*
X443291Y92791D01*
X443300Y92758D01*
X443304Y92724D01*
X443359Y92541D01*
X443409Y92357D01*
X443424Y92326D01*
X443434Y92293D01*
X443521Y92122D01*
X443603Y91950D01*
X443623Y91922D01*
X443638Y91891D01*
X443754Y91739D01*
X443865Y91584D01*
X443890Y91560D01*
X443910Y91533D01*
X444050Y91404D01*
X444187Y91270D01*
X444216Y91251D01*
X444242Y91227D01*
X444403Y91125D01*
X444560Y91018D01*
X444592Y91004D01*
X444621Y90986D01*
X444798Y90913D01*
X444972Y90836D01*
X445006Y90828D01*
X445038Y90815D01*
X445225Y90775D01*
X445410Y90729D01*
X445444Y90727D01*
X445478Y90720D01*
X445790Y90701D01*
X454861Y90701D01*
X462301Y83261D01*
X462301Y72739D01*
X454861Y65299D01*
X444339Y65299D01*
G37*
%LPD*%
%LPC*%
G36*
X334872Y352273D02*
X334872Y352273D01*
X329830Y354361D01*
X325971Y358220D01*
X323883Y363262D01*
X323883Y383958D01*
X325971Y389000D01*
X329830Y392859D01*
X334872Y394947D01*
X340328Y394947D01*
X345370Y392859D01*
X349229Y389000D01*
X351317Y383958D01*
X351317Y363262D01*
X349229Y358220D01*
X345230Y354222D01*
X345124Y354198D01*
X344949Y354166D01*
X344893Y354147D01*
X344858Y354139D01*
X344800Y354115D01*
X344654Y354065D01*
X340328Y352273D01*
X334872Y352273D01*
G37*
%LPD*%
%LPC*%
G36*
X41459Y292688D02*
X41459Y292688D01*
X34167Y299979D01*
X34167Y310290D01*
X41459Y317581D01*
X51770Y317581D01*
X56428Y312923D01*
X56455Y312901D01*
X56478Y312875D01*
X56627Y312757D01*
X56773Y312634D01*
X56804Y312617D01*
X56831Y312596D01*
X56999Y312506D01*
X57164Y312411D01*
X57197Y312399D01*
X57228Y312383D01*
X57409Y312324D01*
X57589Y312260D01*
X57623Y312254D01*
X57656Y312244D01*
X57844Y312218D01*
X58033Y312187D01*
X58068Y312187D01*
X58102Y312182D01*
X58292Y312190D01*
X58483Y312193D01*
X58517Y312199D01*
X58552Y312201D01*
X58738Y312242D01*
X58925Y312278D01*
X58958Y312291D01*
X58991Y312298D01*
X59167Y312372D01*
X59345Y312440D01*
X59375Y312459D01*
X59407Y312472D01*
X59567Y312575D01*
X59730Y312674D01*
X59756Y312697D01*
X59785Y312716D01*
X60019Y312923D01*
X64804Y317708D01*
X75115Y317708D01*
X82406Y310417D01*
X82406Y300105D01*
X75115Y292814D01*
X64804Y292814D01*
X60146Y297473D01*
X60119Y297495D01*
X60096Y297521D01*
X59947Y297639D01*
X59800Y297762D01*
X59770Y297779D01*
X59743Y297800D01*
X59575Y297890D01*
X59409Y297985D01*
X59377Y297997D01*
X59346Y298013D01*
X59165Y298072D01*
X58985Y298136D01*
X58951Y298141D01*
X58918Y298152D01*
X58729Y298178D01*
X58541Y298209D01*
X58506Y298209D01*
X58472Y298214D01*
X58281Y298206D01*
X58090Y298203D01*
X58056Y298197D01*
X58022Y298195D01*
X57836Y298154D01*
X57648Y298118D01*
X57616Y298105D01*
X57582Y298098D01*
X57406Y298024D01*
X57228Y297955D01*
X57199Y297937D01*
X57167Y297924D01*
X57007Y297820D01*
X56844Y297721D01*
X56818Y297698D01*
X56789Y297680D01*
X56554Y297473D01*
X51770Y292688D01*
X41459Y292688D01*
G37*
%LPD*%
%LPC*%
G36*
X230870Y246249D02*
X230870Y246249D01*
X226202Y248183D01*
X222629Y251756D01*
X220695Y256424D01*
X220695Y261476D01*
X222629Y266144D01*
X226202Y269717D01*
X230870Y271651D01*
X249130Y271651D01*
X253798Y269717D01*
X257371Y266144D01*
X259305Y261476D01*
X259305Y256424D01*
X257371Y251756D01*
X253798Y248183D01*
X249130Y246249D01*
X230870Y246249D01*
G37*
%LPD*%
%LPC*%
G36*
X445603Y365521D02*
X445603Y365521D01*
X437121Y374003D01*
X437121Y385997D01*
X445603Y394479D01*
X457597Y394479D01*
X466079Y385997D01*
X466079Y374003D01*
X457597Y365521D01*
X445603Y365521D01*
G37*
%LPD*%
D10*
X668173Y454655D02*
X3400Y456200D01*
X5600Y1600D01*
X665600Y1600D02*
X668173Y454655D01*
X666573Y955D02*
X5600Y1600D01*
D11*
X232474Y96741D03*
X232474Y79741D03*
D12*
X524241Y224739D03*
D13*
X547586Y224865D03*
D14*
X269821Y81657D03*
X269821Y133657D03*
X257121Y81657D03*
X282521Y81657D03*
X295221Y81657D03*
X257121Y133657D03*
X282521Y133657D03*
X295221Y133657D03*
X320621Y81657D03*
X320621Y133657D03*
X307921Y81657D03*
X333321Y81657D03*
X307921Y133657D03*
X333321Y133657D03*
D15*
X443451Y132737D03*
X443451Y145437D03*
X443451Y158137D03*
X443451Y170837D03*
X443451Y183537D03*
X443451Y196237D03*
X443451Y208937D03*
X443451Y221637D03*
X378651Y221637D03*
X378651Y208937D03*
X378651Y196237D03*
X378651Y183537D03*
X378651Y170837D03*
X378651Y158137D03*
X378651Y145437D03*
X378651Y132737D03*
D11*
X485412Y209197D03*
X468412Y209197D03*
D16*
X399838Y78219D03*
X399838Y95219D03*
X335788Y173058D03*
X335788Y156058D03*
D11*
X302636Y203076D03*
X319636Y203076D03*
X306301Y177508D03*
X289301Y177508D03*
X485370Y183404D03*
X468370Y183404D03*
X485554Y158032D03*
X468554Y158032D03*
X485596Y131981D03*
X468596Y131981D03*
D16*
X357701Y89145D03*
X357701Y106145D03*
D11*
X275575Y57192D03*
X292575Y57192D03*
D17*
X591544Y168038D03*
X638823Y246856D03*
X639407Y358307D03*
X591655Y90724D03*
X638854Y419530D03*
X591261Y215381D03*
X639075Y191512D03*
X638072Y68226D03*
D18*
X449600Y103400D03*
X430550Y90700D03*
X449600Y78000D03*
D19*
X174627Y241200D03*
D20*
X152227Y145300D03*
D19*
X34727Y100600D03*
X151227Y78800D03*
X34727Y214700D03*
D20*
X152727Y187700D03*
D16*
X324700Y44200D03*
X307700Y44200D03*
D21*
X73700Y24000D03*
X47700Y24200D03*
X149800Y24400D03*
X99100Y24300D03*
X124200Y24300D03*
D22*
X341850Y268700D03*
X415350Y268700D03*
D16*
X341100Y326000D03*
X341100Y309000D03*
D23*
X261400Y383770D02*
X261400Y399010D01*
X337600Y381230D02*
X337600Y365990D01*
D13*
X69959Y305261D03*
D12*
X46614Y305135D03*
D24*
X531400Y381100D03*
X582200Y381100D03*
D23*
X186620Y412900D02*
X171380Y412900D01*
X171380Y387500D02*
X186620Y387500D01*
X186620Y362100D02*
X171380Y362100D01*
D25*
X91500Y402100D03*
X91500Y351300D03*
D26*
X390800Y426100D03*
X349800Y426100D03*
D13*
X145859Y306761D03*
D12*
X122514Y306635D03*
D27*
X529000Y327500D03*
X529000Y276500D03*
X619000Y276500D03*
X619000Y327500D03*
D24*
X451600Y380000D03*
X502400Y380000D03*
D28*
X297939Y305759D03*
D29*
X298065Y282414D03*
D30*
X246604Y297050D02*
X233396Y297050D01*
X233396Y258950D02*
X246604Y258950D01*
X461950Y300396D02*
X461950Y313604D01*
X500050Y313604D02*
X500050Y300396D01*
D17*
X640000Y136000D03*
D31*
X429237Y339099D03*
X382237Y339099D03*
D32*
X232474Y96741D02*
X222641Y96741D01*
D33*
X207600Y53700D03*
D32*
X241600Y125700D02*
X249164Y125700D01*
X241600Y125700D02*
X232600Y116700D01*
X232600Y96866D01*
X232474Y96741D01*
X198150Y93150D02*
X196300Y95000D01*
D34*
X226100Y219300D03*
D32*
X226000Y172160D02*
X256460Y144241D01*
X226000Y172160D02*
X226000Y185280D01*
X226060Y185340D01*
D34*
X226060Y185340D03*
D32*
X97800Y87100D02*
X97800Y25600D01*
X99100Y24300D01*
X196300Y95000D02*
X196300Y95400D01*
X184700Y107000D01*
X117700Y107000D01*
X97800Y87100D01*
X249164Y125700D02*
X257121Y133657D01*
X256460Y134318D02*
X256460Y144241D01*
X256460Y134318D02*
X257121Y133657D01*
X344363Y221637D02*
X378651Y221637D01*
X344363Y221637D02*
X331800Y234200D01*
X283000Y234200D01*
X241000Y234200D01*
X226100Y219300D01*
D35*
X582200Y339200D02*
X582200Y381100D01*
X569000Y326000D02*
X569000Y284000D01*
X561500Y276500D01*
X529000Y276500D01*
X569000Y326000D02*
X582200Y339200D01*
D36*
X179000Y387500D02*
X155500Y387500D01*
X119300Y351300D02*
X91500Y351300D01*
X119300Y351300D02*
X155500Y387500D01*
X91500Y337649D02*
X122514Y306635D01*
X91500Y337649D02*
X91500Y351300D01*
X179000Y387500D02*
X257510Y387500D01*
X257632Y387502D01*
X257754Y387508D01*
X257876Y387517D01*
X257998Y387531D01*
X258119Y387548D01*
X258239Y387569D01*
X258359Y387594D01*
X258477Y387622D01*
X258595Y387654D01*
X258712Y387690D01*
X258828Y387730D01*
X258942Y387773D01*
X259055Y387820D01*
X259166Y387870D01*
X259276Y387924D01*
X259384Y387981D01*
X259490Y388042D01*
X259594Y388106D01*
X259697Y388173D01*
X259796Y388243D01*
X259894Y388316D01*
X259990Y388393D01*
X260083Y388472D01*
X260173Y388554D01*
X260261Y388639D01*
X260346Y388727D01*
X260428Y388817D01*
X260507Y388910D01*
X260584Y389006D01*
X260657Y389104D01*
X260727Y389203D01*
X260794Y389306D01*
X260858Y389410D01*
X260919Y389516D01*
X260976Y389624D01*
X261030Y389734D01*
X261080Y389845D01*
X261127Y389958D01*
X261170Y390072D01*
X261210Y390188D01*
X261246Y390305D01*
X261278Y390423D01*
X261306Y390541D01*
X261331Y390661D01*
X261352Y390781D01*
X261369Y390902D01*
X261383Y391024D01*
X261392Y391146D01*
X261398Y391268D01*
X261400Y391390D01*
D32*
X378651Y221637D02*
X398363Y221637D01*
X411000Y209000D01*
X423637Y221637D01*
X443451Y221637D01*
X411000Y209000D02*
X411000Y207000D01*
X411000Y183000D01*
X411000Y155000D01*
X421000Y145000D01*
X421437Y145437D01*
X443451Y145437D01*
X401437Y145437D02*
X378651Y145437D01*
X401437Y145437D02*
X411000Y155000D01*
X398837Y170837D02*
X378651Y170837D01*
X398837Y170837D02*
X411000Y183000D01*
X423163Y170837D02*
X443451Y170837D01*
X423163Y170837D02*
X411000Y183000D01*
X400237Y196237D02*
X378651Y196237D01*
X400237Y196237D02*
X411000Y207000D01*
X423763Y196237D02*
X443451Y196237D01*
X423763Y196237D02*
X411000Y209000D01*
X421437Y131563D02*
X449600Y103400D01*
X421437Y131563D02*
X421437Y145437D01*
D37*
X324700Y44200D02*
X339900Y29000D01*
X457000Y29000D01*
X473000Y45000D01*
X473000Y96000D01*
X465600Y103400D01*
X449600Y103400D01*
D36*
X529000Y265000D02*
X529000Y276500D01*
X529000Y265000D02*
X548000Y246000D01*
X548000Y225279D01*
X547586Y224865D01*
D38*
X582200Y381100D02*
X582200Y387800D01*
X566000Y404000D01*
X512000Y404000D01*
X502400Y394400D02*
X502400Y380000D01*
X502400Y394400D02*
X512000Y404000D01*
D36*
X272010Y402000D02*
X261400Y391390D01*
X494800Y402000D02*
X502400Y394400D01*
X494800Y402000D02*
X272010Y402000D01*
D37*
X298065Y282414D02*
X283000Y267349D01*
X283000Y234200D01*
D32*
X198150Y63150D02*
X207600Y53700D01*
X198150Y63150D02*
X198150Y93150D01*
X219050Y93150D02*
X222641Y96741D01*
X219050Y93150D02*
X198150Y93150D01*
X232474Y79741D02*
X255205Y79741D01*
X256949Y81485D01*
X275575Y57192D02*
X275262Y56879D01*
X256949Y81485D02*
X257121Y81657D01*
X275575Y57192D02*
X275600Y57166D01*
D33*
X320062Y58162D03*
D32*
X256949Y66151D02*
X256949Y81485D01*
X256949Y66151D02*
X266300Y56800D01*
X275183Y56800D01*
X275575Y57192D01*
X275575Y57075D01*
X275475Y57075D01*
D33*
X257400Y43800D03*
D32*
X275475Y46404D02*
X275475Y57075D01*
X275475Y46404D02*
X272915Y43844D01*
X257444Y43844D01*
X257400Y43800D01*
X257444Y43844D02*
X256044Y43844D01*
X248000Y35800D01*
X185000Y35800D01*
X170600Y35800D01*
X165800Y40600D01*
X131700Y40600D01*
X124300Y33200D01*
X124300Y24400D01*
X124200Y24300D01*
X292280Y192720D02*
X302636Y203076D01*
X292280Y192720D02*
X289301Y189741D01*
X289301Y177508D01*
D33*
X104000Y154000D03*
D32*
X335788Y173058D02*
X348730Y173000D01*
X352000Y172000D01*
D33*
X292280Y192720D03*
X352000Y172000D03*
D32*
X264737Y97737D02*
X264716Y97737D01*
X257121Y90141D02*
X257121Y81657D01*
X257121Y90141D02*
X264716Y97737D01*
X278000Y111000D02*
X278000Y112000D01*
X278000Y111000D02*
X264737Y97737D01*
D33*
X278000Y112000D03*
D37*
X104000Y154000D02*
X104000Y221000D01*
D36*
X240000Y297050D02*
X276050Y297050D01*
X284759Y305759D02*
X297939Y305759D01*
X284759Y305759D02*
X276050Y297050D01*
D37*
X240000Y297050D02*
X180050Y297050D01*
X104000Y221000D01*
D32*
X320062Y58162D02*
X341838Y58162D01*
X350000Y50000D01*
X389000Y50000D01*
X399838Y60838D02*
X399838Y78219D01*
X399838Y60838D02*
X389000Y50000D01*
D39*
X415350Y268700D02*
X478000Y268700D01*
X521961Y224739D01*
X524241Y224739D01*
D32*
X485596Y131981D02*
X486877Y130700D01*
X485596Y131981D02*
X485596Y111404D01*
X549000Y48000D01*
X617846Y48000D01*
X638072Y68226D01*
X467840Y132737D02*
X443451Y132737D01*
X467840Y132737D02*
X468596Y131981D01*
X485554Y158032D02*
X509222Y181700D01*
X567412Y191512D02*
X639075Y191512D01*
X567412Y191512D02*
X557500Y181600D01*
X509322Y181600D01*
X509222Y181700D01*
X468449Y158137D02*
X443451Y158137D01*
X468449Y158137D02*
X468554Y158032D01*
X485370Y183404D02*
X485667Y183700D01*
X491304Y183404D02*
X505600Y197700D01*
X491304Y183404D02*
X485370Y183404D01*
X576600Y215700D02*
X590942Y215700D01*
X591261Y215381D01*
X558600Y197700D02*
X505600Y197700D01*
X558600Y197700D02*
X576600Y215700D01*
X468237Y183537D02*
X443451Y183537D01*
X468237Y183537D02*
X468370Y183404D01*
X468153Y208937D02*
X443451Y208937D01*
X468153Y208937D02*
X468412Y209197D01*
X333788Y133657D02*
X333321Y133657D01*
X335788Y156058D02*
X335710Y158137D01*
X337867Y158137D02*
X378651Y158137D01*
X337867Y158137D02*
X335788Y156058D01*
X333788Y154058D02*
X333788Y133657D01*
X333788Y154058D02*
X335788Y156058D01*
X333321Y89421D02*
X333321Y81657D01*
X333321Y70679D01*
X378651Y132737D02*
X383263Y132737D01*
X400000Y116000D01*
X400000Y95381D01*
X399838Y95219D01*
X351977Y63000D02*
X333321Y81657D01*
X351977Y63000D02*
X376000Y63000D01*
X382000Y69000D01*
X382000Y86000D02*
X392000Y96000D01*
X392619Y95381D01*
X400000Y95381D01*
X382000Y86000D02*
X382000Y69000D01*
X320621Y133657D02*
X319976Y133657D01*
X320621Y133657D02*
X320621Y193060D01*
X319636Y203076D01*
X324260Y196700D01*
X368863Y183537D02*
X378651Y183537D01*
X368863Y183537D02*
X355700Y196700D01*
X324260Y196700D01*
X295221Y81657D02*
X295221Y59837D01*
X292575Y57192D01*
X299459Y43755D02*
X307700Y44200D01*
X299459Y43755D02*
X296600Y43600D01*
X292100Y48800D01*
X292100Y56717D02*
X292575Y57192D01*
X292100Y56717D02*
X292100Y48800D01*
X299459Y43755D02*
X280105Y24400D01*
X185000Y24400D02*
X149800Y24400D01*
X185000Y24400D02*
X280105Y24400D01*
X305300Y113000D02*
X295600Y122700D01*
X295600Y133277D01*
X295221Y133657D01*
X305300Y113000D02*
X334000Y113000D01*
X342145Y104855D01*
X356410Y104855D01*
X357701Y106145D01*
D40*
X619000Y327500D02*
X639407Y347907D01*
X639407Y358307D01*
D32*
X307921Y133657D02*
X307600Y133977D01*
X307600Y159200D01*
X307600Y176209D01*
X306301Y177508D01*
X342363Y208937D02*
X378651Y208937D01*
X342363Y208937D02*
X328600Y222700D01*
X294600Y222700D01*
X274600Y202700D01*
X274600Y166900D01*
X282500Y159000D01*
X307400Y159000D01*
X307600Y159200D01*
X199500Y186100D02*
X199500Y186200D01*
X210900Y197600D01*
X240100Y197600D02*
X248400Y189300D01*
X248400Y167800D01*
X270200Y146000D01*
X270200Y134036D01*
X269821Y133657D01*
X240100Y197600D02*
X210900Y197600D01*
X199500Y186200D02*
X199400Y186200D01*
X186000Y172800D01*
X186000Y140300D01*
X168700Y123000D01*
X106500Y123000D01*
X80200Y96700D01*
X80200Y57300D01*
X73100Y50200D01*
X73100Y24600D01*
X73700Y24000D01*
X282521Y133657D02*
X282521Y145879D01*
X270700Y157700D01*
X270700Y158000D01*
X265800Y162900D01*
X265800Y163100D01*
X259700Y169200D01*
X259700Y194800D01*
X247900Y206600D01*
X64600Y73100D02*
X46200Y54700D01*
X46200Y25700D01*
X47700Y24200D01*
X136800Y206600D02*
X247900Y206600D01*
X136800Y206600D02*
X127400Y197200D01*
X127400Y142500D01*
X120400Y135500D01*
X98400Y135500D01*
X64600Y101700D01*
X64600Y73100D01*
D36*
X341100Y269450D02*
X341100Y309000D01*
X341100Y269450D02*
X341850Y268700D01*
X179000Y412900D02*
X102300Y412900D01*
X91500Y402100D01*
X192200Y426100D02*
X349800Y426100D01*
X192200Y426100D02*
X179000Y412900D01*
D32*
X351000Y238900D02*
X473100Y238900D01*
X485500Y226500D01*
X485500Y209284D01*
X485412Y209197D01*
D36*
X145859Y306761D02*
X145859Y328959D01*
X179000Y362100D01*
D32*
X267900Y362100D01*
X319000Y311000D01*
X319000Y249000D01*
X340900Y249000D01*
X351000Y238900D01*
D36*
X614470Y419530D02*
X638854Y419530D01*
X598000Y436000D02*
X400700Y436000D01*
X390800Y426100D01*
X598000Y436000D02*
X614470Y419530D01*
D40*
X619000Y276500D02*
X638823Y256677D01*
X638823Y246856D01*
D33*
X365000Y76000D03*
D32*
X357701Y83299D02*
X357701Y89145D01*
X357701Y83299D02*
X365000Y76000D01*
D36*
X354199Y339099D02*
X382237Y339099D01*
X354199Y339099D02*
X341100Y326000D01*
X429851Y339099D02*
X461950Y307000D01*
X429851Y339099D02*
X429237Y339099D01*
D32*
X307921Y98079D02*
X307921Y81657D01*
X307921Y98079D02*
X305000Y102000D01*
D33*
X305000Y102000D03*
D32*
X320621Y102621D02*
X320621Y81657D01*
X321000Y102000D02*
X320621Y102621D01*
D33*
X321000Y102000D03*
D37*
X568000Y136000D02*
X640000Y136000D01*
X568000Y136000D02*
X564000Y140000D01*
D33*
X564000Y140000D03*
D36*
X529000Y327500D02*
X531400Y329900D01*
X531400Y381100D01*
X529000Y327500D02*
X508500Y307000D01*
X500050Y307000D01*
M02*
