M48
;GenerationSoftware,Autodesk,EAGLE,9.0.1*%
;CreationDate,2018-09-16T05:55:18Z*%
FMAT,2
ICI,OFF
METRIC,TZ,000.000
T7C0.600
T6C0.762
T5C0.813
T4C1.016
T3C1.500
T2C1.800
T1C2.000
%
G90
M71
T1
X3573Y21470
X15223Y7880
X3573Y10060
X17563Y24120
T2
X59254Y16804
X63982Y24686
X64041Y35831
X59266Y9072
X63985Y41953
X59226Y21538
X64007Y19151
X63907Y6823
X63800Y13400
T3
X15373Y18770
X15323Y14530
T4
X18000Y36210
X18000Y38750
X18000Y41290
X33860Y37361
X26240Y39139
T5
X53240Y38110
X58320Y38110
X9250Y40210
X47300Y39840
X47300Y34760
X49205Y29400
X45395Y29400
X50560Y6100
X50560Y8640
X48655Y7370
X9250Y35130
X7470Y2400
X4870Y2420
X15080Y2440
X10010Y2430
X12520Y2430
T6
X7096Y30526
X22901Y32693
X25236Y32706
X14686Y30676
X12351Y30663
X54859Y22487
X52524Y22474
X4761Y30513
T7
X20860Y5370
X42260Y16070
X22710Y21930
X22706Y18534
X34506Y4516
X28960Y19370
X33760Y18570
X36000Y8400
X57400Y14200
X32700Y10400
X25840Y4380
X20950Y15740
X24060Y14270
X24860Y10970
X50900Y13000
X30400Y10000
M30