G04 EAGLE Gerber X2 export*
%TF.Part,Single*%
%TF.FileFunction,Other,Solder side*%
%TF.FilePolarity,Positive*%
%TF.GenerationSoftware,Autodesk,EAGLE,9.0.1*%
%TF.CreationDate,2018-09-16T05:54:57Z*%
G75*
%MOMM*%
%FSLAX34Y34*%
%LPD*%
%AMOC8*
5,1,8,0,0,1.08239X$1,22.5*%
G01*
%ADD10C,0.000000*%
%ADD11R,1.000000X1.100000*%
%ADD12P,1.374635X8X202.500000*%
%ADD13P,1.374635X8X22.500000*%
%ADD14R,1.700000X1.800000*%
%ADD15R,2.235200X1.219200*%
%ADD16R,2.200000X3.600000*%
%ADD17R,0.900000X0.800000*%
%ADD18R,1.100000X1.000000*%
%ADD19R,3.000000X3.000000*%
%ADD20P,1.429621X8X112.500000*%
%ADD21P,3.788365X8X202.500000*%
%ADD22P,2.705975X8X202.500000*%
%ADD23R,1.800000X1.700000*%
%ADD24R,1.600200X1.600200*%
%ADD25C,1.524000*%
%ADD26P,1.814519X8X22.500000*%
%ADD27P,1.814519X8X292.500000*%
%ADD28C,1.320800*%
%ADD29C,0.609600*%
%ADD30C,1.006400*%
%ADD31P,1.089317X8X22.500000*%
%ADD32C,0.812800*%
%ADD33C,1.900000*%
%ADD34C,1.016000*%
%ADD35C,2.100000*%
%ADD36C,2.540000*%

G36*
X196196Y158189D02*
X196196Y158189D01*
X196340Y158191D01*
X196421Y158207D01*
X196503Y158213D01*
X196641Y158250D01*
X196782Y158277D01*
X196859Y158307D01*
X196938Y158327D01*
X197068Y158388D01*
X197202Y158439D01*
X197272Y158482D01*
X197347Y158517D01*
X197464Y158599D01*
X197586Y158673D01*
X197648Y158728D01*
X197716Y158775D01*
X197817Y158877D01*
X197924Y158971D01*
X197975Y159036D01*
X198033Y159094D01*
X198114Y159212D01*
X198203Y159324D01*
X198242Y159397D01*
X198289Y159465D01*
X198397Y159686D01*
X198416Y159721D01*
X198419Y159731D01*
X198426Y159746D01*
X200066Y163704D01*
X200912Y164550D01*
X201017Y164676D01*
X201129Y164797D01*
X201161Y164849D01*
X201200Y164895D01*
X201282Y165038D01*
X201370Y165177D01*
X201394Y165233D01*
X201424Y165286D01*
X201479Y165441D01*
X201541Y165593D01*
X201554Y165653D01*
X201575Y165710D01*
X201601Y165872D01*
X201636Y166034D01*
X201641Y166111D01*
X201648Y166155D01*
X201647Y166215D01*
X201655Y166345D01*
X201655Y167119D01*
X203047Y170480D01*
X211220Y178653D01*
X214581Y180045D01*
X279072Y180045D01*
X279284Y180064D01*
X279495Y180080D01*
X279508Y180083D01*
X279521Y180085D01*
X279726Y180141D01*
X279931Y180194D01*
X279943Y180200D01*
X279955Y180203D01*
X280146Y180294D01*
X280339Y180383D01*
X280350Y180391D01*
X280362Y180397D01*
X280534Y180520D01*
X280708Y180642D01*
X280717Y180651D01*
X280728Y180659D01*
X280876Y180811D01*
X281025Y180961D01*
X281033Y180972D01*
X281042Y180981D01*
X281161Y181157D01*
X281281Y181331D01*
X281288Y181346D01*
X281294Y181354D01*
X281310Y181391D01*
X281418Y181612D01*
X282096Y183249D01*
X282159Y183450D01*
X282225Y183653D01*
X282227Y183666D01*
X282231Y183678D01*
X282258Y183888D01*
X282287Y184099D01*
X282286Y184112D01*
X282288Y184125D01*
X282277Y184335D01*
X282268Y184548D01*
X282265Y184562D01*
X282265Y184575D01*
X282217Y184780D01*
X282171Y184988D01*
X282166Y185000D01*
X282163Y185013D01*
X282079Y185208D01*
X281997Y185403D01*
X281990Y185415D01*
X281985Y185427D01*
X281868Y185603D01*
X281753Y185782D01*
X281742Y185794D01*
X281736Y185802D01*
X281710Y185831D01*
X281546Y186016D01*
X280166Y187396D01*
X278471Y191486D01*
X278471Y195250D01*
X278464Y195332D01*
X278466Y195415D01*
X278444Y195556D01*
X278431Y195699D01*
X278410Y195778D01*
X278397Y195860D01*
X278351Y195995D01*
X278313Y196133D01*
X278277Y196207D01*
X278251Y196285D01*
X278181Y196411D01*
X278119Y196540D01*
X278072Y196607D01*
X278031Y196679D01*
X277941Y196790D01*
X277857Y196906D01*
X277798Y196963D01*
X277746Y197027D01*
X277637Y197120D01*
X277535Y197220D01*
X277466Y197266D01*
X277404Y197320D01*
X277280Y197392D01*
X277162Y197472D01*
X277086Y197505D01*
X277015Y197547D01*
X276881Y197596D01*
X276750Y197654D01*
X276670Y197674D01*
X276592Y197702D01*
X276451Y197727D01*
X276312Y197761D01*
X276230Y197766D01*
X276149Y197780D01*
X276006Y197780D01*
X275863Y197789D01*
X275781Y197779D01*
X275699Y197779D01*
X275558Y197753D01*
X275416Y197736D01*
X275337Y197713D01*
X275256Y197698D01*
X275065Y197632D01*
X262621Y197632D01*
X260381Y198560D01*
X258666Y200275D01*
X257737Y202516D01*
X257737Y215941D01*
X258666Y218182D01*
X260550Y220066D01*
X260655Y220193D01*
X260767Y220313D01*
X260799Y220365D01*
X260839Y220412D01*
X260920Y220554D01*
X261008Y220693D01*
X261032Y220750D01*
X261062Y220803D01*
X261117Y220958D01*
X261179Y221110D01*
X261192Y221169D01*
X261213Y221227D01*
X261240Y221389D01*
X261274Y221550D01*
X261279Y221627D01*
X261286Y221671D01*
X261285Y221732D01*
X261293Y221862D01*
X261293Y223689D01*
X268834Y223689D01*
X276375Y223689D01*
X276375Y221862D01*
X276389Y221698D01*
X276396Y221534D01*
X276409Y221474D01*
X276415Y221413D01*
X276458Y221255D01*
X276494Y221094D01*
X276517Y221038D01*
X276533Y220979D01*
X276604Y220831D01*
X276667Y220679D01*
X276701Y220627D01*
X276727Y220572D01*
X276822Y220439D01*
X276912Y220301D01*
X276963Y220243D01*
X276989Y220206D01*
X277032Y220164D01*
X277119Y220066D01*
X277827Y219358D01*
X277853Y219336D01*
X277876Y219310D01*
X278026Y219192D01*
X278172Y219069D01*
X278202Y219052D01*
X278229Y219031D01*
X278398Y218941D01*
X278563Y218846D01*
X278596Y218834D01*
X278626Y218818D01*
X278808Y218759D01*
X278987Y218695D01*
X279022Y218690D01*
X279055Y218679D01*
X279243Y218653D01*
X279432Y218622D01*
X279466Y218622D01*
X279501Y218617D01*
X279691Y218625D01*
X279882Y218628D01*
X279916Y218634D01*
X279950Y218636D01*
X280136Y218677D01*
X280324Y218713D01*
X280356Y218726D01*
X280390Y218733D01*
X280566Y218807D01*
X280744Y218876D01*
X280773Y218894D01*
X280805Y218907D01*
X280965Y219010D01*
X281129Y219110D01*
X281155Y219133D01*
X281184Y219151D01*
X281418Y219358D01*
X282098Y220038D01*
X282203Y220164D01*
X282315Y220285D01*
X282348Y220337D01*
X282387Y220384D01*
X282468Y220527D01*
X282557Y220665D01*
X282580Y220722D01*
X282610Y220775D01*
X282665Y220930D01*
X282728Y221082D01*
X282740Y221141D01*
X282761Y221199D01*
X282788Y221361D01*
X282822Y221522D01*
X282827Y221599D01*
X282834Y221643D01*
X282834Y221704D01*
X282842Y221834D01*
X282842Y223661D01*
X290382Y223661D01*
X290416Y223664D01*
X290451Y223662D01*
X290640Y223684D01*
X290830Y223701D01*
X290864Y223710D01*
X290898Y223714D01*
X291081Y223770D01*
X291265Y223820D01*
X291296Y223835D01*
X291329Y223845D01*
X291500Y223931D01*
X291671Y224013D01*
X291700Y224033D01*
X291730Y224049D01*
X291882Y224164D01*
X292038Y224275D01*
X292062Y224300D01*
X292089Y224321D01*
X292218Y224461D01*
X292352Y224598D01*
X292371Y224627D01*
X292394Y224652D01*
X292497Y224813D01*
X292604Y224971D01*
X292618Y225003D01*
X292636Y225032D01*
X292709Y225208D01*
X292786Y225383D01*
X292794Y225416D01*
X292807Y225448D01*
X292847Y225635D01*
X292893Y225820D01*
X292895Y225855D01*
X292902Y225889D01*
X292921Y226201D01*
X292918Y226235D01*
X292920Y226270D01*
X292898Y226459D01*
X292881Y226649D01*
X292872Y226683D01*
X292868Y226717D01*
X292813Y226900D01*
X292763Y227084D01*
X292748Y227115D01*
X292738Y227148D01*
X292651Y227319D01*
X292569Y227490D01*
X292549Y227518D01*
X292534Y227549D01*
X292418Y227701D01*
X292307Y227856D01*
X292282Y227881D01*
X292262Y227908D01*
X292121Y228037D01*
X291985Y228170D01*
X291956Y228190D01*
X291930Y228213D01*
X291769Y228316D01*
X291611Y228423D01*
X291580Y228437D01*
X291551Y228455D01*
X291374Y228528D01*
X291200Y228605D01*
X291166Y228613D01*
X291134Y228626D01*
X290947Y228666D01*
X290762Y228711D01*
X290728Y228714D01*
X290694Y228721D01*
X290382Y228740D01*
X282842Y228740D01*
X282842Y232035D01*
X283101Y233004D01*
X283118Y233099D01*
X283148Y233210D01*
X283152Y233247D01*
X283161Y233284D01*
X283166Y233377D01*
X283179Y233448D01*
X283178Y233539D01*
X283189Y233658D01*
X283186Y233696D01*
X283188Y233733D01*
X283177Y233830D01*
X283177Y233898D01*
X283161Y233983D01*
X283150Y234107D01*
X283141Y234143D01*
X283136Y234180D01*
X283107Y234278D01*
X283095Y234341D01*
X283066Y234418D01*
X283033Y234541D01*
X283017Y234575D01*
X283006Y234611D01*
X282958Y234705D01*
X282937Y234762D01*
X282897Y234830D01*
X282840Y234949D01*
X282819Y234979D01*
X282802Y235013D01*
X282737Y235098D01*
X282706Y235149D01*
X282657Y235206D01*
X282579Y235315D01*
X282552Y235341D01*
X282530Y235371D01*
X282449Y235445D01*
X282411Y235489D01*
X282354Y235536D01*
X282257Y235630D01*
X282226Y235651D01*
X282198Y235677D01*
X282105Y235736D01*
X282061Y235772D01*
X281996Y235807D01*
X281885Y235883D01*
X281850Y235898D01*
X281819Y235918D01*
X281716Y235960D01*
X281666Y235988D01*
X281596Y236011D01*
X281473Y236066D01*
X281437Y236075D01*
X281402Y236089D01*
X281295Y236112D01*
X281239Y236131D01*
X281165Y236142D01*
X281036Y236174D01*
X280999Y236176D01*
X280962Y236184D01*
X280819Y236193D01*
X280793Y236197D01*
X280770Y236196D01*
X280650Y236203D01*
X278575Y236203D01*
X278434Y236191D01*
X278292Y236188D01*
X278210Y236171D01*
X278126Y236163D01*
X277990Y236126D01*
X277851Y236098D01*
X277773Y236067D01*
X277692Y236045D01*
X277564Y235984D01*
X277433Y235932D01*
X277361Y235887D01*
X277285Y235851D01*
X277170Y235769D01*
X277050Y235694D01*
X276987Y235638D01*
X276919Y235589D01*
X276820Y235488D01*
X276715Y235393D01*
X276664Y235327D01*
X276605Y235267D01*
X276526Y235149D01*
X276439Y235038D01*
X276400Y234963D01*
X276353Y234894D01*
X276296Y234764D01*
X276230Y234639D01*
X276205Y234559D01*
X276171Y234482D01*
X276137Y234344D01*
X276095Y234209D01*
X276084Y234126D01*
X276064Y234044D01*
X276055Y233903D01*
X276037Y233763D01*
X276042Y233679D01*
X276036Y233595D01*
X276053Y233454D01*
X276060Y233313D01*
X276082Y233204D01*
X276089Y233148D01*
X276103Y233098D01*
X276122Y233007D01*
X276375Y232063D01*
X276375Y228768D01*
X268834Y228768D01*
X261293Y228768D01*
X261293Y232063D01*
X261546Y233007D01*
X261571Y233146D01*
X261604Y233284D01*
X261609Y233367D01*
X261624Y233450D01*
X261623Y233592D01*
X261632Y233733D01*
X261622Y233816D01*
X261622Y233901D01*
X261596Y234040D01*
X261580Y234180D01*
X261555Y234261D01*
X261540Y234343D01*
X261490Y234476D01*
X261449Y234611D01*
X261411Y234686D01*
X261382Y234765D01*
X261309Y234886D01*
X261245Y235013D01*
X261194Y235080D01*
X261151Y235152D01*
X261059Y235259D01*
X260973Y235371D01*
X260911Y235428D01*
X260856Y235492D01*
X260746Y235581D01*
X260642Y235677D01*
X260571Y235722D01*
X260506Y235774D01*
X260382Y235842D01*
X260262Y235918D01*
X260184Y235950D01*
X260111Y235991D01*
X259976Y236036D01*
X259846Y236089D01*
X259763Y236107D01*
X259684Y236134D01*
X259544Y236154D01*
X259405Y236184D01*
X259294Y236191D01*
X259238Y236199D01*
X259187Y236198D01*
X259093Y236203D01*
X201763Y236203D01*
X201728Y236200D01*
X201694Y236202D01*
X201504Y236180D01*
X201314Y236163D01*
X201281Y236154D01*
X201246Y236150D01*
X201063Y236095D01*
X200880Y236045D01*
X200849Y236030D01*
X200815Y236020D01*
X200645Y235933D01*
X200473Y235851D01*
X200445Y235831D01*
X200414Y235816D01*
X200262Y235700D01*
X200107Y235589D01*
X200083Y235564D01*
X200055Y235544D01*
X199926Y235404D01*
X199793Y235267D01*
X199774Y235238D01*
X199750Y235212D01*
X199648Y235051D01*
X199541Y234894D01*
X199527Y234862D01*
X199508Y234833D01*
X199436Y234656D01*
X199359Y234482D01*
X199351Y234448D01*
X199337Y234416D01*
X199297Y234229D01*
X199252Y234044D01*
X199250Y234010D01*
X199243Y233976D01*
X199224Y233664D01*
X199224Y231426D01*
X185401Y217603D01*
X165853Y217603D01*
X152030Y231426D01*
X152030Y250974D01*
X165853Y264797D01*
X171589Y264797D01*
X171753Y264811D01*
X171917Y264818D01*
X171977Y264831D01*
X172038Y264837D01*
X172197Y264880D01*
X172357Y264916D01*
X172413Y264939D01*
X172472Y264955D01*
X172620Y265026D01*
X172772Y265089D01*
X172824Y265123D01*
X172879Y265149D01*
X173012Y265244D01*
X173151Y265334D01*
X173208Y265385D01*
X173245Y265411D01*
X173287Y265454D01*
X173385Y265541D01*
X178779Y270935D01*
X185688Y273797D01*
X443457Y273797D01*
X443587Y273808D01*
X443717Y273810D01*
X443811Y273828D01*
X443906Y273837D01*
X444032Y273871D01*
X444159Y273896D01*
X444248Y273930D01*
X444340Y273955D01*
X444458Y274011D01*
X444579Y274058D01*
X444661Y274108D01*
X444747Y274149D01*
X444853Y274224D01*
X444964Y274292D01*
X445035Y274355D01*
X445113Y274411D01*
X445204Y274504D01*
X445301Y274590D01*
X445360Y274665D01*
X445427Y274733D01*
X445500Y274841D01*
X445581Y274943D01*
X445626Y275027D01*
X445679Y275106D01*
X445732Y275225D01*
X445793Y275340D01*
X445823Y275431D01*
X445861Y275518D01*
X445892Y275645D01*
X445932Y275768D01*
X445945Y275863D01*
X445968Y275956D01*
X445976Y276085D01*
X445994Y276214D01*
X445990Y276310D01*
X445996Y276405D01*
X445981Y276534D01*
X445975Y276664D01*
X445955Y276757D01*
X445944Y276852D01*
X445906Y276977D01*
X445878Y277104D01*
X445841Y277192D01*
X445813Y277283D01*
X445754Y277399D01*
X445704Y277519D01*
X445652Y277599D01*
X445609Y277685D01*
X445530Y277788D01*
X445460Y277897D01*
X445374Y277995D01*
X445337Y278043D01*
X445304Y278074D01*
X445253Y278132D01*
X443183Y280202D01*
X441249Y284870D01*
X441249Y303130D01*
X443183Y307798D01*
X446756Y311371D01*
X451424Y313305D01*
X456476Y313305D01*
X461144Y311371D01*
X464717Y307798D01*
X466651Y303130D01*
X466651Y284870D01*
X464717Y280202D01*
X462647Y278132D01*
X462564Y278032D01*
X462473Y277939D01*
X462419Y277859D01*
X462358Y277786D01*
X462294Y277673D01*
X462221Y277566D01*
X462182Y277478D01*
X462135Y277395D01*
X462091Y277273D01*
X462039Y277154D01*
X462016Y277061D01*
X461984Y276971D01*
X461963Y276843D01*
X461932Y276716D01*
X461926Y276621D01*
X461910Y276527D01*
X461912Y276397D01*
X461904Y276267D01*
X461915Y276172D01*
X461917Y276076D01*
X461941Y275949D01*
X461956Y275820D01*
X461984Y275728D01*
X462002Y275634D01*
X462049Y275513D01*
X462087Y275389D01*
X462130Y275303D01*
X462164Y275214D01*
X462232Y275103D01*
X462291Y274987D01*
X462349Y274911D01*
X462398Y274830D01*
X462484Y274732D01*
X462563Y274629D01*
X462633Y274564D01*
X462697Y274492D01*
X462798Y274412D01*
X462894Y274323D01*
X462975Y274272D01*
X463050Y274213D01*
X463164Y274152D01*
X463274Y274082D01*
X463362Y274045D01*
X463447Y274000D01*
X463570Y273960D01*
X463690Y273911D01*
X463784Y273891D01*
X463875Y273861D01*
X464003Y273843D01*
X464131Y273816D01*
X464260Y273808D01*
X464321Y273800D01*
X464366Y273801D01*
X464443Y273797D01*
X481557Y273797D01*
X481687Y273808D01*
X481817Y273810D01*
X481911Y273828D01*
X482006Y273837D01*
X482132Y273871D01*
X482259Y273896D01*
X482348Y273930D01*
X482440Y273955D01*
X482558Y274011D01*
X482679Y274058D01*
X482761Y274108D01*
X482847Y274149D01*
X482953Y274224D01*
X483064Y274292D01*
X483135Y274355D01*
X483213Y274411D01*
X483304Y274504D01*
X483401Y274590D01*
X483460Y274665D01*
X483527Y274733D01*
X483600Y274841D01*
X483681Y274943D01*
X483726Y275027D01*
X483779Y275106D01*
X483832Y275225D01*
X483893Y275340D01*
X483923Y275431D01*
X483961Y275518D01*
X483992Y275645D01*
X484032Y275768D01*
X484045Y275863D01*
X484068Y275956D01*
X484076Y276085D01*
X484094Y276214D01*
X484090Y276310D01*
X484096Y276405D01*
X484081Y276534D01*
X484075Y276664D01*
X484055Y276757D01*
X484044Y276852D01*
X484006Y276977D01*
X483978Y277104D01*
X483941Y277192D01*
X483913Y277283D01*
X483854Y277399D01*
X483804Y277519D01*
X483752Y277599D01*
X483709Y277685D01*
X483630Y277788D01*
X483560Y277897D01*
X483474Y277995D01*
X483437Y278043D01*
X483404Y278074D01*
X483353Y278132D01*
X481283Y280202D01*
X479349Y284870D01*
X479349Y303130D01*
X481283Y307798D01*
X484856Y311371D01*
X489524Y313305D01*
X494576Y313305D01*
X499244Y311371D01*
X502817Y307798D01*
X504751Y303130D01*
X504751Y284870D01*
X502817Y280202D01*
X500747Y278132D01*
X500664Y278032D01*
X500573Y277939D01*
X500519Y277859D01*
X500458Y277786D01*
X500394Y277673D01*
X500321Y277566D01*
X500282Y277478D01*
X500235Y277395D01*
X500191Y277273D01*
X500139Y277154D01*
X500116Y277061D01*
X500084Y276971D01*
X500063Y276843D01*
X500032Y276716D01*
X500026Y276621D01*
X500010Y276527D01*
X500012Y276397D01*
X500004Y276267D01*
X500015Y276172D01*
X500017Y276076D01*
X500041Y275949D01*
X500056Y275820D01*
X500084Y275728D01*
X500102Y275634D01*
X500149Y275513D01*
X500187Y275389D01*
X500230Y275303D01*
X500264Y275214D01*
X500332Y275103D01*
X500391Y274987D01*
X500449Y274911D01*
X500498Y274830D01*
X500584Y274732D01*
X500663Y274629D01*
X500733Y274564D01*
X500797Y274492D01*
X500898Y274412D01*
X500994Y274323D01*
X501075Y274272D01*
X501150Y274213D01*
X501264Y274152D01*
X501374Y274082D01*
X501462Y274045D01*
X501547Y274000D01*
X501670Y273960D01*
X501790Y273911D01*
X501884Y273891D01*
X501975Y273861D01*
X502103Y273843D01*
X502231Y273816D01*
X502360Y273808D01*
X502421Y273800D01*
X502466Y273801D01*
X502543Y273797D01*
X528263Y273797D01*
X528426Y273811D01*
X528591Y273818D01*
X528650Y273831D01*
X528711Y273837D01*
X528870Y273880D01*
X529031Y273916D01*
X529087Y273939D01*
X529146Y273955D01*
X529294Y274026D01*
X529446Y274089D01*
X529497Y274122D01*
X529552Y274149D01*
X529686Y274244D01*
X529824Y274334D01*
X529882Y274385D01*
X529918Y274411D01*
X529961Y274454D01*
X530058Y274540D01*
X618567Y363049D01*
X618672Y363175D01*
X618784Y363296D01*
X618816Y363347D01*
X618855Y363394D01*
X618937Y363537D01*
X619025Y363676D01*
X619049Y363732D01*
X619079Y363785D01*
X619134Y363940D01*
X619196Y364092D01*
X619209Y364152D01*
X619230Y364209D01*
X619256Y364372D01*
X619291Y364532D01*
X619296Y364609D01*
X619303Y364653D01*
X619302Y364715D01*
X619310Y364844D01*
X619310Y374519D01*
X620238Y376760D01*
X621953Y378475D01*
X624194Y379403D01*
X655541Y379403D01*
X655577Y379406D01*
X655613Y379404D01*
X655801Y379426D01*
X655990Y379443D01*
X656024Y379453D01*
X656060Y379457D01*
X656241Y379512D01*
X656424Y379562D01*
X656456Y379577D01*
X656491Y379588D01*
X656660Y379674D01*
X656831Y379755D01*
X656860Y379776D01*
X656892Y379792D01*
X657043Y379907D01*
X657197Y380017D01*
X657222Y380043D01*
X657250Y380065D01*
X657378Y380204D01*
X657511Y380340D01*
X657531Y380370D01*
X657555Y380396D01*
X657656Y380555D01*
X657763Y380713D01*
X657777Y380746D01*
X657797Y380776D01*
X657868Y380951D01*
X657945Y381125D01*
X657954Y381160D01*
X657967Y381193D01*
X658007Y381378D01*
X658052Y381562D01*
X658054Y381598D01*
X658062Y381633D01*
X658080Y381945D01*
X658067Y395897D01*
X658064Y395930D01*
X658066Y395963D01*
X658044Y396154D01*
X658027Y396345D01*
X658018Y396377D01*
X658014Y396411D01*
X657959Y396595D01*
X657908Y396780D01*
X657894Y396810D01*
X657884Y396842D01*
X657797Y397013D01*
X657714Y397186D01*
X657695Y397213D01*
X657680Y397243D01*
X657564Y397396D01*
X657452Y397552D01*
X657428Y397575D01*
X657408Y397602D01*
X657266Y397732D01*
X657129Y397866D01*
X657101Y397884D01*
X657076Y397907D01*
X656914Y398010D01*
X656755Y398117D01*
X656725Y398131D01*
X656697Y398149D01*
X656519Y398222D01*
X656344Y398299D01*
X656311Y398307D01*
X656280Y398320D01*
X656092Y398360D01*
X655906Y398405D01*
X655873Y398407D01*
X655840Y398414D01*
X655528Y398434D01*
X623642Y398434D01*
X621401Y399362D01*
X619686Y401077D01*
X618758Y403318D01*
X618758Y435743D01*
X619686Y437984D01*
X621401Y439699D01*
X621452Y439720D01*
X621607Y439801D01*
X621764Y439875D01*
X621806Y439905D01*
X621851Y439928D01*
X621989Y440035D01*
X622131Y440137D01*
X622167Y440173D01*
X622207Y440204D01*
X622324Y440334D01*
X622446Y440459D01*
X622474Y440501D01*
X622508Y440538D01*
X622601Y440687D01*
X622699Y440831D01*
X622719Y440878D01*
X622746Y440921D01*
X622811Y441083D01*
X622882Y441243D01*
X622894Y441292D01*
X622913Y441339D01*
X622948Y441510D01*
X622990Y441680D01*
X622993Y441730D01*
X623003Y441780D01*
X623007Y441955D01*
X623018Y442129D01*
X623013Y442179D01*
X623014Y442230D01*
X622987Y442403D01*
X622967Y442576D01*
X622953Y442625D01*
X622945Y442675D01*
X622888Y442840D01*
X622838Y443008D01*
X622815Y443053D01*
X622799Y443101D01*
X622714Y443254D01*
X622635Y443409D01*
X622604Y443450D01*
X622579Y443494D01*
X622469Y443629D01*
X622363Y443769D01*
X622326Y443803D01*
X622294Y443843D01*
X622161Y443956D01*
X622033Y444075D01*
X621990Y444102D01*
X621952Y444135D01*
X621801Y444223D01*
X621654Y444318D01*
X621607Y444337D01*
X621563Y444363D01*
X621399Y444423D01*
X621238Y444489D01*
X621188Y444500D01*
X621140Y444518D01*
X620968Y444548D01*
X620798Y444585D01*
X620735Y444589D01*
X620697Y444596D01*
X620634Y444596D01*
X620486Y444605D01*
X16139Y446010D01*
X16099Y446006D01*
X16058Y446009D01*
X15875Y445987D01*
X15691Y445971D01*
X15651Y445960D01*
X15611Y445955D01*
X15434Y445901D01*
X15256Y445853D01*
X15219Y445836D01*
X15180Y445824D01*
X15016Y445740D01*
X14849Y445661D01*
X14816Y445637D01*
X14779Y445618D01*
X14633Y445507D01*
X14482Y445400D01*
X14454Y445370D01*
X14421Y445345D01*
X14297Y445210D01*
X14168Y445078D01*
X14145Y445044D01*
X14117Y445014D01*
X14018Y444858D01*
X13915Y444705D01*
X13898Y444668D01*
X13876Y444633D01*
X13807Y444462D01*
X13731Y444294D01*
X13722Y444254D01*
X13706Y444216D01*
X13668Y444036D01*
X13624Y443857D01*
X13621Y443816D01*
X13613Y443776D01*
X13594Y443464D01*
X14150Y232617D01*
X14161Y232491D01*
X14163Y232365D01*
X14182Y232267D01*
X14191Y232169D01*
X14224Y232047D01*
X14248Y231922D01*
X14284Y231830D01*
X14310Y231735D01*
X14365Y231621D01*
X14411Y231502D01*
X14462Y231418D01*
X14505Y231329D01*
X14579Y231226D01*
X14645Y231118D01*
X14710Y231044D01*
X14768Y230963D01*
X14859Y230875D01*
X14943Y230780D01*
X15020Y230719D01*
X15091Y230650D01*
X15197Y230580D01*
X15296Y230501D01*
X15383Y230454D01*
X15465Y230399D01*
X15581Y230348D01*
X15693Y230288D01*
X15787Y230258D01*
X15877Y230218D01*
X16001Y230188D01*
X16121Y230149D01*
X16219Y230136D01*
X16315Y230112D01*
X16442Y230105D01*
X16567Y230088D01*
X16666Y230092D01*
X16765Y230086D01*
X16890Y230101D01*
X17017Y230106D01*
X17114Y230128D01*
X17212Y230139D01*
X17333Y230176D01*
X17457Y230204D01*
X17548Y230242D01*
X17642Y230271D01*
X17755Y230328D01*
X17872Y230377D01*
X17955Y230431D01*
X18043Y230476D01*
X18144Y230553D01*
X18250Y230622D01*
X18352Y230711D01*
X18401Y230749D01*
X18430Y230781D01*
X18484Y230829D01*
X25953Y238297D01*
X38293Y238297D01*
X38423Y238308D01*
X38553Y238310D01*
X38647Y238328D01*
X38742Y238337D01*
X38868Y238371D01*
X38995Y238396D01*
X39084Y238430D01*
X39176Y238455D01*
X39294Y238511D01*
X39415Y238558D01*
X39497Y238608D01*
X39583Y238649D01*
X39689Y238724D01*
X39800Y238792D01*
X39871Y238855D01*
X39949Y238911D01*
X40040Y239004D01*
X40137Y239090D01*
X40196Y239165D01*
X40263Y239233D01*
X40336Y239341D01*
X40417Y239443D01*
X40462Y239527D01*
X40515Y239607D01*
X40568Y239726D01*
X40629Y239840D01*
X40659Y239931D01*
X40697Y240018D01*
X40728Y240145D01*
X40768Y240268D01*
X40781Y240363D01*
X40804Y240456D01*
X40812Y240585D01*
X40830Y240714D01*
X40826Y240810D01*
X40832Y240905D01*
X40817Y241034D01*
X40811Y241164D01*
X40791Y241258D01*
X40780Y241352D01*
X40742Y241477D01*
X40714Y241604D01*
X40677Y241692D01*
X40649Y241783D01*
X40590Y241899D01*
X40540Y242019D01*
X40488Y242099D01*
X40445Y242185D01*
X40367Y242288D01*
X40296Y242397D01*
X40210Y242495D01*
X40173Y242543D01*
X40140Y242574D01*
X40089Y242632D01*
X38139Y244582D01*
X36437Y248690D01*
X36437Y297657D01*
X36423Y297821D01*
X36416Y297986D01*
X36403Y298045D01*
X36398Y298106D01*
X36354Y298265D01*
X36319Y298425D01*
X36295Y298481D01*
X36279Y298540D01*
X36208Y298689D01*
X36145Y298841D01*
X36112Y298892D01*
X36086Y298947D01*
X35990Y299080D01*
X35901Y299219D01*
X35850Y299277D01*
X35823Y299313D01*
X35780Y299355D01*
X35737Y299404D01*
X35732Y299410D01*
X35728Y299414D01*
X35694Y299453D01*
X35167Y299979D01*
X35167Y310290D01*
X42459Y317581D01*
X52770Y317581D01*
X57428Y312923D01*
X57455Y312901D01*
X57478Y312875D01*
X57627Y312757D01*
X57773Y312634D01*
X57804Y312617D01*
X57831Y312596D01*
X57999Y312506D01*
X58164Y312411D01*
X58197Y312399D01*
X58228Y312383D01*
X58409Y312324D01*
X58589Y312260D01*
X58623Y312254D01*
X58656Y312244D01*
X58844Y312218D01*
X59033Y312187D01*
X59068Y312187D01*
X59102Y312182D01*
X59292Y312190D01*
X59483Y312193D01*
X59517Y312199D01*
X59552Y312201D01*
X59738Y312242D01*
X59925Y312278D01*
X59958Y312291D01*
X59991Y312298D01*
X60167Y312372D01*
X60345Y312440D01*
X60375Y312459D01*
X60407Y312472D01*
X60567Y312575D01*
X60730Y312674D01*
X60756Y312697D01*
X60785Y312716D01*
X61019Y312923D01*
X65804Y317708D01*
X68838Y317708D01*
X68954Y317718D01*
X69071Y317719D01*
X69178Y317738D01*
X69286Y317748D01*
X69399Y317779D01*
X69514Y317799D01*
X69660Y317850D01*
X69721Y317866D01*
X69753Y317882D01*
X69810Y317901D01*
X70475Y318177D01*
X82319Y318177D01*
X82482Y318191D01*
X82647Y318198D01*
X82706Y318211D01*
X82767Y318217D01*
X82926Y318260D01*
X83086Y318296D01*
X83143Y318319D01*
X83202Y318335D01*
X83350Y318406D01*
X83502Y318469D01*
X83553Y318502D01*
X83608Y318529D01*
X83742Y318624D01*
X83880Y318714D01*
X83938Y318765D01*
X83974Y318791D01*
X84017Y318834D01*
X84114Y318920D01*
X109669Y344475D01*
X113777Y346177D01*
X162775Y346177D01*
X162904Y346188D01*
X163034Y346190D01*
X163128Y346208D01*
X163223Y346217D01*
X163349Y346251D01*
X163476Y346276D01*
X163565Y346310D01*
X163657Y346335D01*
X163775Y346391D01*
X163896Y346438D01*
X163978Y346488D01*
X164064Y346529D01*
X164170Y346604D01*
X164281Y346672D01*
X164352Y346735D01*
X164430Y346791D01*
X164521Y346884D01*
X164618Y346970D01*
X164678Y347045D01*
X164744Y347113D01*
X164817Y347221D01*
X164898Y347323D01*
X164943Y347407D01*
X164996Y347486D01*
X165049Y347605D01*
X165110Y347720D01*
X165140Y347811D01*
X165179Y347898D01*
X165209Y348025D01*
X165250Y348148D01*
X165263Y348243D01*
X165285Y348336D01*
X165293Y348465D01*
X165311Y348594D01*
X165307Y348690D01*
X165313Y348785D01*
X165298Y348914D01*
X165293Y349044D01*
X165272Y349137D01*
X165261Y349232D01*
X165223Y349357D01*
X165195Y349484D01*
X165158Y349572D01*
X165131Y349663D01*
X165071Y349779D01*
X165021Y349899D01*
X164970Y349979D01*
X164926Y350065D01*
X164848Y350168D01*
X164777Y350277D01*
X164691Y350375D01*
X164654Y350423D01*
X164621Y350454D01*
X164570Y350512D01*
X160752Y354330D01*
X158663Y359372D01*
X158663Y364828D01*
X160751Y369870D01*
X164610Y373729D01*
X166432Y374483D01*
X166482Y374509D01*
X166535Y374529D01*
X166682Y374614D01*
X166831Y374692D01*
X166876Y374726D01*
X166925Y374755D01*
X167054Y374864D01*
X167187Y374968D01*
X167225Y375009D01*
X167268Y375046D01*
X167376Y375176D01*
X167489Y375302D01*
X167519Y375350D01*
X167555Y375393D01*
X167638Y375541D01*
X167727Y375684D01*
X167748Y375736D01*
X167775Y375786D01*
X167831Y375945D01*
X167894Y376102D01*
X167905Y376158D01*
X167923Y376211D01*
X167950Y376378D01*
X167984Y376544D01*
X167985Y376600D01*
X167994Y376656D01*
X167990Y376825D01*
X167994Y376994D01*
X167986Y377049D01*
X167985Y377106D01*
X167952Y377271D01*
X167926Y377439D01*
X167907Y377492D01*
X167896Y377547D01*
X167834Y377704D01*
X167779Y377864D01*
X167752Y377914D01*
X167731Y377966D01*
X167642Y378110D01*
X167560Y378258D01*
X167524Y378301D01*
X167495Y378349D01*
X167382Y378475D01*
X167275Y378606D01*
X167232Y378643D01*
X167194Y378685D01*
X166953Y378884D01*
X165761Y379750D01*
X164630Y380881D01*
X163690Y382175D01*
X162964Y383600D01*
X162521Y384961D01*
X180000Y384961D01*
X197479Y384961D01*
X197036Y383600D01*
X196310Y382175D01*
X195370Y380881D01*
X194239Y379750D01*
X193047Y378884D01*
X193004Y378846D01*
X192957Y378815D01*
X192835Y378699D01*
X192708Y378588D01*
X192672Y378544D01*
X192631Y378505D01*
X192532Y378369D01*
X192426Y378236D01*
X192399Y378187D01*
X192366Y378141D01*
X192292Y377990D01*
X192210Y377841D01*
X192193Y377787D01*
X192168Y377737D01*
X192122Y377574D01*
X192068Y377414D01*
X192060Y377358D01*
X192045Y377304D01*
X192028Y377135D01*
X192004Y376968D01*
X192006Y376912D01*
X192000Y376856D01*
X192014Y376687D01*
X192019Y376518D01*
X192031Y376463D01*
X192036Y376407D01*
X192078Y376243D01*
X192114Y376078D01*
X192135Y376026D01*
X192150Y375971D01*
X192221Y375818D01*
X192285Y375661D01*
X192315Y375614D01*
X192339Y375562D01*
X192436Y375424D01*
X192527Y375281D01*
X192565Y375240D01*
X192597Y375194D01*
X192717Y375075D01*
X192832Y374950D01*
X192877Y374916D01*
X192916Y374876D01*
X193056Y374780D01*
X193190Y374678D01*
X193240Y374653D01*
X193287Y374620D01*
X193568Y374483D01*
X195390Y373729D01*
X199249Y369870D01*
X201337Y364828D01*
X201337Y359372D01*
X199249Y354330D01*
X195390Y350471D01*
X190348Y348383D01*
X184553Y348383D01*
X184424Y348372D01*
X184294Y348370D01*
X184200Y348352D01*
X184105Y348343D01*
X183979Y348309D01*
X183852Y348284D01*
X183762Y348250D01*
X183670Y348225D01*
X183553Y348169D01*
X183432Y348122D01*
X183350Y348072D01*
X183264Y348031D01*
X183158Y347956D01*
X183047Y347888D01*
X182975Y347825D01*
X182898Y347769D01*
X182807Y347676D01*
X182710Y347590D01*
X182650Y347515D01*
X182584Y347447D01*
X182511Y347339D01*
X182430Y347237D01*
X182385Y347153D01*
X182332Y347074D01*
X182279Y346955D01*
X182218Y346840D01*
X182188Y346749D01*
X182149Y346662D01*
X182119Y346535D01*
X182078Y346412D01*
X182065Y346317D01*
X182043Y346224D01*
X182035Y346095D01*
X182017Y345966D01*
X182021Y345870D01*
X182015Y345775D01*
X182030Y345646D01*
X182035Y345516D01*
X182056Y345423D01*
X182067Y345328D01*
X182105Y345203D01*
X182133Y345076D01*
X182170Y344988D01*
X182197Y344897D01*
X182256Y344781D01*
X182307Y344661D01*
X182358Y344581D01*
X182402Y344495D01*
X182480Y344392D01*
X182551Y344283D01*
X182637Y344185D01*
X182674Y344137D01*
X182707Y344106D01*
X182758Y344048D01*
X185832Y340974D01*
X217886Y308920D01*
X218012Y308815D01*
X218133Y308703D01*
X218184Y308671D01*
X218231Y308632D01*
X218374Y308550D01*
X218513Y308462D01*
X218569Y308438D01*
X218622Y308408D01*
X218777Y308353D01*
X218929Y308291D01*
X218989Y308278D01*
X219046Y308257D01*
X219209Y308231D01*
X219369Y308196D01*
X219446Y308191D01*
X219491Y308184D01*
X219552Y308185D01*
X219681Y308177D01*
X233319Y308177D01*
X233482Y308191D01*
X233647Y308198D01*
X233706Y308211D01*
X233767Y308217D01*
X233926Y308260D01*
X234086Y308296D01*
X234143Y308319D01*
X234202Y308335D01*
X234350Y308406D01*
X234502Y308469D01*
X234553Y308502D01*
X234608Y308529D01*
X234742Y308624D01*
X234880Y308714D01*
X234938Y308765D01*
X234974Y308791D01*
X235017Y308834D01*
X235114Y308920D01*
X240439Y314245D01*
X240545Y314372D01*
X240656Y314492D01*
X240689Y314544D01*
X240728Y314591D01*
X240809Y314733D01*
X240898Y314872D01*
X240921Y314929D01*
X240951Y314982D01*
X241006Y315136D01*
X241069Y315289D01*
X241082Y315348D01*
X241102Y315406D01*
X241129Y315568D01*
X241163Y315729D01*
X241168Y315806D01*
X241176Y315850D01*
X241175Y315911D01*
X241183Y316041D01*
X241183Y319584D01*
X241168Y319747D01*
X241161Y319912D01*
X241148Y319971D01*
X241143Y320032D01*
X241099Y320191D01*
X241064Y320351D01*
X241040Y320408D01*
X241024Y320467D01*
X240954Y320615D01*
X240890Y320767D01*
X240857Y320818D01*
X240831Y320873D01*
X240735Y321007D01*
X240646Y321145D01*
X240595Y321203D01*
X240569Y321239D01*
X240525Y321282D01*
X240439Y321379D01*
X240031Y321787D01*
X240004Y321810D01*
X239982Y321835D01*
X239833Y321953D01*
X239686Y322076D01*
X239655Y322093D01*
X239628Y322115D01*
X239460Y322205D01*
X239295Y322299D01*
X239262Y322311D01*
X239232Y322327D01*
X239050Y322386D01*
X238870Y322450D01*
X238836Y322456D01*
X238803Y322467D01*
X238615Y322493D01*
X238426Y322524D01*
X238392Y322523D01*
X238357Y322528D01*
X238167Y322520D01*
X237976Y322518D01*
X237942Y322511D01*
X237907Y322510D01*
X237721Y322468D01*
X237534Y322432D01*
X237502Y322420D01*
X237468Y322412D01*
X237292Y322339D01*
X237114Y322270D01*
X237084Y322252D01*
X237052Y322238D01*
X236892Y322135D01*
X236729Y322036D01*
X236703Y322013D01*
X236674Y321994D01*
X236440Y321787D01*
X232697Y318044D01*
X231554Y318044D01*
X231554Y326934D01*
X231554Y326935D01*
X231554Y335825D01*
X232697Y335825D01*
X236314Y332209D01*
X236340Y332186D01*
X236363Y332160D01*
X236512Y332043D01*
X236659Y331920D01*
X236689Y331902D01*
X236716Y331881D01*
X236884Y331791D01*
X237050Y331696D01*
X237083Y331685D01*
X237113Y331668D01*
X237294Y331609D01*
X237474Y331546D01*
X237509Y331540D01*
X237541Y331529D01*
X237730Y331503D01*
X237918Y331472D01*
X237953Y331473D01*
X237987Y331468D01*
X238178Y331476D01*
X238369Y331478D01*
X238403Y331485D01*
X238437Y331486D01*
X238623Y331527D01*
X238811Y331564D01*
X238843Y331576D01*
X238877Y331584D01*
X239052Y331657D01*
X239231Y331726D01*
X239260Y331744D01*
X239292Y331757D01*
X239452Y331861D01*
X239615Y331960D01*
X239641Y331983D01*
X239671Y332002D01*
X239905Y332209D01*
X247204Y339508D01*
X257515Y339508D01*
X264806Y332217D01*
X264806Y321905D01*
X264280Y321379D01*
X264174Y321253D01*
X264063Y321132D01*
X264030Y321081D01*
X263991Y321034D01*
X263909Y320891D01*
X263821Y320752D01*
X263798Y320696D01*
X263768Y320643D01*
X263713Y320488D01*
X263650Y320336D01*
X263637Y320276D01*
X263617Y320219D01*
X263590Y320056D01*
X263555Y319896D01*
X263551Y319818D01*
X263543Y319774D01*
X263544Y319714D01*
X263536Y319584D01*
X263536Y308136D01*
X261835Y304028D01*
X245331Y287525D01*
X241223Y285823D01*
X211777Y285823D01*
X207669Y287525D01*
X172114Y323080D01*
X171988Y323185D01*
X171867Y323297D01*
X171816Y323329D01*
X171769Y323368D01*
X171626Y323450D01*
X171487Y323538D01*
X171431Y323562D01*
X171378Y323592D01*
X171223Y323647D01*
X171071Y323709D01*
X171011Y323722D01*
X170954Y323743D01*
X170791Y323769D01*
X170631Y323804D01*
X170554Y323809D01*
X170509Y323816D01*
X170448Y323815D01*
X170319Y323823D01*
X153530Y323823D01*
X153400Y323812D01*
X153270Y323810D01*
X153177Y323792D01*
X153081Y323783D01*
X152956Y323749D01*
X152828Y323724D01*
X152739Y323690D01*
X152647Y323665D01*
X152530Y323609D01*
X152408Y323562D01*
X152326Y323512D01*
X152240Y323471D01*
X152135Y323396D01*
X152023Y323328D01*
X151952Y323265D01*
X151874Y323209D01*
X151783Y323116D01*
X151686Y323030D01*
X151627Y322955D01*
X151560Y322887D01*
X151487Y322779D01*
X151407Y322677D01*
X151362Y322593D01*
X151308Y322514D01*
X151255Y322395D01*
X151194Y322280D01*
X151165Y322189D01*
X151126Y322102D01*
X151095Y321975D01*
X151055Y321852D01*
X151042Y321757D01*
X151019Y321664D01*
X151011Y321535D01*
X150993Y321406D01*
X150997Y321310D01*
X150992Y321215D01*
X151007Y321086D01*
X151012Y320956D01*
X151033Y320863D01*
X151044Y320768D01*
X151081Y320643D01*
X151109Y320516D01*
X151146Y320428D01*
X151174Y320337D01*
X151233Y320221D01*
X151283Y320101D01*
X151335Y320021D01*
X151378Y319935D01*
X151457Y319832D01*
X151527Y319723D01*
X151614Y319625D01*
X151650Y319577D01*
X151683Y319546D01*
X151734Y319488D01*
X159306Y311917D01*
X159306Y301605D01*
X152015Y294314D01*
X141704Y294314D01*
X134531Y301487D01*
X134504Y301510D01*
X134482Y301535D01*
X134333Y301653D01*
X134186Y301776D01*
X134155Y301793D01*
X134128Y301815D01*
X133961Y301905D01*
X133795Y301999D01*
X133762Y302011D01*
X133732Y302027D01*
X133550Y302086D01*
X133370Y302150D01*
X133336Y302156D01*
X133303Y302167D01*
X133114Y302193D01*
X132926Y302224D01*
X132892Y302223D01*
X132857Y302228D01*
X132666Y302220D01*
X132476Y302218D01*
X132442Y302211D01*
X132407Y302210D01*
X132221Y302168D01*
X132034Y302132D01*
X132002Y302120D01*
X131968Y302112D01*
X131792Y302038D01*
X131614Y301970D01*
X131584Y301952D01*
X131552Y301938D01*
X131392Y301835D01*
X131229Y301736D01*
X131203Y301713D01*
X131174Y301694D01*
X130940Y301487D01*
X127197Y297744D01*
X126054Y297744D01*
X126054Y306634D01*
X126054Y306635D01*
X126054Y315525D01*
X127197Y315525D01*
X130814Y311909D01*
X130840Y311886D01*
X130863Y311860D01*
X131012Y311743D01*
X131159Y311620D01*
X131189Y311602D01*
X131216Y311581D01*
X131384Y311491D01*
X131550Y311396D01*
X131583Y311385D01*
X131613Y311368D01*
X131794Y311309D01*
X131974Y311246D01*
X132009Y311240D01*
X132041Y311229D01*
X132230Y311203D01*
X132418Y311172D01*
X132453Y311173D01*
X132487Y311168D01*
X132678Y311176D01*
X132869Y311178D01*
X132903Y311185D01*
X132937Y311186D01*
X133123Y311227D01*
X133311Y311264D01*
X133343Y311276D01*
X133377Y311284D01*
X133553Y311357D01*
X133731Y311426D01*
X133760Y311444D01*
X133792Y311457D01*
X133953Y311561D01*
X134115Y311660D01*
X134141Y311683D01*
X134171Y311702D01*
X134405Y311909D01*
X141985Y319488D01*
X142068Y319588D01*
X142159Y319681D01*
X142212Y319761D01*
X142273Y319834D01*
X142338Y319947D01*
X142411Y320054D01*
X142449Y320142D01*
X142497Y320225D01*
X142540Y320347D01*
X142593Y320466D01*
X142616Y320559D01*
X142648Y320649D01*
X142669Y320778D01*
X142700Y320904D01*
X142706Y320999D01*
X142721Y321093D01*
X142719Y321224D01*
X142727Y321353D01*
X142716Y321448D01*
X142715Y321544D01*
X142690Y321671D01*
X142675Y321800D01*
X142648Y321892D01*
X142629Y321986D01*
X142583Y322107D01*
X142545Y322231D01*
X142502Y322316D01*
X142467Y322406D01*
X142400Y322517D01*
X142341Y322633D01*
X142283Y322709D01*
X142233Y322790D01*
X142147Y322888D01*
X142069Y322991D01*
X141998Y323056D01*
X141935Y323128D01*
X141833Y323208D01*
X141737Y323297D01*
X141657Y323348D01*
X141582Y323407D01*
X141468Y323468D01*
X141358Y323538D01*
X141269Y323575D01*
X141185Y323620D01*
X141061Y323660D01*
X140941Y323709D01*
X140848Y323729D01*
X140757Y323759D01*
X140628Y323777D01*
X140501Y323804D01*
X140371Y323812D01*
X140311Y323820D01*
X140266Y323819D01*
X140189Y323823D01*
X121681Y323823D01*
X121518Y323809D01*
X121353Y323802D01*
X121294Y323789D01*
X121233Y323783D01*
X121074Y323740D01*
X120914Y323704D01*
X120857Y323681D01*
X120798Y323665D01*
X120650Y323594D01*
X120498Y323531D01*
X120447Y323498D01*
X120392Y323471D01*
X120258Y323376D01*
X120120Y323286D01*
X120062Y323235D01*
X120026Y323209D01*
X119983Y323166D01*
X119886Y323080D01*
X94331Y297525D01*
X90223Y295823D01*
X84675Y295823D01*
X84641Y295820D01*
X84606Y295822D01*
X84417Y295800D01*
X84227Y295783D01*
X84194Y295774D01*
X84159Y295770D01*
X83976Y295715D01*
X83793Y295665D01*
X83761Y295650D01*
X83728Y295640D01*
X83558Y295553D01*
X83386Y295471D01*
X83358Y295451D01*
X83327Y295436D01*
X83175Y295320D01*
X83020Y295209D01*
X82996Y295184D01*
X82968Y295164D01*
X82839Y295024D01*
X82706Y294887D01*
X82686Y294858D01*
X82663Y294832D01*
X82560Y294671D01*
X82454Y294514D01*
X82440Y294482D01*
X82421Y294453D01*
X82349Y294276D01*
X82271Y294102D01*
X82263Y294068D01*
X82250Y294036D01*
X82210Y293849D01*
X82165Y293664D01*
X82163Y293630D01*
X82155Y293596D01*
X82136Y293284D01*
X82136Y276149D01*
X82151Y275985D01*
X82157Y275821D01*
X82171Y275761D01*
X82176Y275700D01*
X82219Y275541D01*
X82255Y275381D01*
X82279Y275325D01*
X82295Y275266D01*
X82365Y275118D01*
X82429Y274966D01*
X82462Y274914D01*
X82488Y274859D01*
X82584Y274726D01*
X82673Y274587D01*
X82724Y274530D01*
X82750Y274493D01*
X82794Y274451D01*
X82880Y274353D01*
X150193Y207041D01*
X150319Y206935D01*
X150440Y206824D01*
X150491Y206791D01*
X150538Y206752D01*
X150681Y206670D01*
X150819Y206582D01*
X150876Y206559D01*
X150929Y206528D01*
X151084Y206473D01*
X151236Y206411D01*
X151296Y206398D01*
X151353Y206378D01*
X151516Y206351D01*
X151676Y206316D01*
X151753Y206311D01*
X151797Y206304D01*
X151858Y206305D01*
X151988Y206297D01*
X161430Y206297D01*
X172324Y195403D01*
X172324Y181935D01*
X172338Y181771D01*
X172345Y181606D01*
X172358Y181547D01*
X172363Y181486D01*
X172407Y181327D01*
X172442Y181167D01*
X172466Y181111D01*
X172482Y181052D01*
X172552Y180904D01*
X172616Y180751D01*
X172649Y180700D01*
X172675Y180645D01*
X172771Y180512D01*
X172860Y180373D01*
X172911Y180315D01*
X172937Y180279D01*
X172981Y180236D01*
X173067Y180139D01*
X194284Y158922D01*
X194348Y158869D01*
X194405Y158809D01*
X194520Y158725D01*
X194630Y158633D01*
X194701Y158592D01*
X194768Y158543D01*
X194897Y158480D01*
X195021Y158410D01*
X195098Y158382D01*
X195172Y158346D01*
X195310Y158307D01*
X195445Y158259D01*
X195526Y158245D01*
X195606Y158223D01*
X195748Y158209D01*
X195889Y158185D01*
X195972Y158186D01*
X196054Y158178D01*
X196196Y158189D01*
G37*
G36*
X32547Y10776D02*
X32547Y10776D01*
X32629Y10783D01*
X32711Y10781D01*
X32852Y10803D01*
X32996Y10816D01*
X33075Y10837D01*
X33155Y10850D01*
X33291Y10897D01*
X33430Y10935D01*
X33504Y10970D01*
X33581Y10996D01*
X33707Y11066D01*
X33837Y11128D01*
X33903Y11176D01*
X33975Y11216D01*
X34086Y11307D01*
X34203Y11391D01*
X34260Y11449D01*
X34323Y11501D01*
X34416Y11610D01*
X34517Y11713D01*
X34562Y11781D01*
X34615Y11843D01*
X34688Y11967D01*
X34768Y12087D01*
X34801Y12161D01*
X34843Y12232D01*
X34892Y12367D01*
X34950Y12498D01*
X34970Y12578D01*
X34998Y12655D01*
X35023Y12796D01*
X35057Y12936D01*
X35062Y13018D01*
X35076Y13098D01*
X35076Y13242D01*
X35084Y13385D01*
X35075Y13467D01*
X35075Y13548D01*
X35049Y13690D01*
X35032Y13833D01*
X35008Y13911D01*
X34994Y13991D01*
X34913Y14227D01*
X34901Y14264D01*
X34897Y14273D01*
X34892Y14287D01*
X34602Y14986D01*
X34602Y33414D01*
X35530Y35655D01*
X37245Y37370D01*
X39486Y38298D01*
X57914Y38298D01*
X60213Y37345D01*
X60350Y37231D01*
X60382Y37212D01*
X60412Y37189D01*
X60578Y37100D01*
X60741Y37007D01*
X60776Y36995D01*
X60809Y36977D01*
X60988Y36919D01*
X61165Y36857D01*
X61202Y36850D01*
X61238Y36839D01*
X61423Y36814D01*
X61609Y36783D01*
X61647Y36784D01*
X61684Y36779D01*
X61871Y36787D01*
X62060Y36789D01*
X62096Y36796D01*
X62134Y36798D01*
X62316Y36839D01*
X62502Y36875D01*
X62537Y36888D01*
X62573Y36896D01*
X62692Y36946D01*
X62779Y36976D01*
X65486Y38098D01*
X83914Y38098D01*
X86155Y37170D01*
X88179Y35145D01*
X88297Y35047D01*
X88408Y34942D01*
X88469Y34902D01*
X88525Y34856D01*
X88657Y34780D01*
X88786Y34697D01*
X88853Y34669D01*
X88915Y34633D01*
X89060Y34581D01*
X89201Y34522D01*
X89271Y34506D01*
X89340Y34482D01*
X89491Y34457D01*
X89640Y34423D01*
X89712Y34420D01*
X89784Y34408D01*
X89937Y34410D01*
X90090Y34404D01*
X90162Y34413D01*
X90234Y34414D01*
X90385Y34444D01*
X90536Y34464D01*
X90605Y34486D01*
X90676Y34500D01*
X90819Y34555D01*
X90965Y34602D01*
X91048Y34644D01*
X91096Y34662D01*
X91098Y34663D01*
X91764Y34842D01*
X97561Y34842D01*
X97561Y24300D01*
X97564Y24266D01*
X97562Y24231D01*
X97584Y24042D01*
X97600Y23852D01*
X97610Y23818D01*
X97614Y23784D01*
X97669Y23601D01*
X97719Y23417D01*
X97734Y23386D01*
X97744Y23353D01*
X97831Y23182D01*
X97912Y23011D01*
X97933Y22983D01*
X97948Y22952D01*
X98063Y22800D01*
X98175Y22645D01*
X98199Y22621D01*
X98220Y22593D01*
X98360Y22464D01*
X98497Y22331D01*
X98526Y22311D01*
X98551Y22288D01*
X98712Y22185D01*
X98870Y22079D01*
X98902Y22065D01*
X98931Y22046D01*
X99108Y21974D01*
X99282Y21896D01*
X99316Y21888D01*
X99348Y21875D01*
X99534Y21835D01*
X99719Y21790D01*
X99754Y21788D01*
X99788Y21780D01*
X100100Y21761D01*
X100135Y21764D01*
X100169Y21762D01*
X100359Y21784D01*
X100549Y21801D01*
X100582Y21810D01*
X100616Y21814D01*
X100799Y21869D01*
X100983Y21920D01*
X101014Y21934D01*
X101047Y21944D01*
X101218Y22031D01*
X101390Y22113D01*
X101418Y22133D01*
X101449Y22149D01*
X101601Y22264D01*
X101756Y22375D01*
X101780Y22400D01*
X101807Y22421D01*
X101937Y22561D01*
X102070Y22698D01*
X102089Y22726D01*
X102113Y22752D01*
X102215Y22913D01*
X102322Y23071D01*
X102336Y23102D01*
X102354Y23132D01*
X102427Y23308D01*
X102504Y23483D01*
X102512Y23516D01*
X102525Y23548D01*
X102566Y23735D01*
X102611Y23920D01*
X102613Y23954D01*
X102620Y23988D01*
X102639Y24300D01*
X102639Y34842D01*
X108436Y34842D01*
X109180Y34642D01*
X109273Y34626D01*
X109364Y34600D01*
X109494Y34587D01*
X109624Y34565D01*
X109718Y34565D01*
X109812Y34556D01*
X109942Y34566D01*
X110074Y34567D01*
X110167Y34584D01*
X110261Y34591D01*
X110387Y34624D01*
X110517Y34648D01*
X110605Y34681D01*
X110696Y34705D01*
X110815Y34761D01*
X110938Y34807D01*
X111019Y34855D01*
X111105Y34895D01*
X111212Y34970D01*
X111325Y35037D01*
X111396Y35099D01*
X111473Y35153D01*
X111566Y35246D01*
X111665Y35332D01*
X111724Y35406D01*
X111791Y35473D01*
X111865Y35581D01*
X111901Y35625D01*
X113745Y37470D01*
X115986Y38398D01*
X134414Y38398D01*
X136919Y37360D01*
X137122Y37296D01*
X137323Y37231D01*
X137336Y37229D01*
X137349Y37225D01*
X137560Y37198D01*
X137769Y37170D01*
X137782Y37170D01*
X137795Y37168D01*
X138006Y37179D01*
X138219Y37188D01*
X138232Y37191D01*
X138245Y37192D01*
X138450Y37239D01*
X138659Y37286D01*
X138671Y37291D01*
X138684Y37294D01*
X138863Y37371D01*
X138879Y37376D01*
X141586Y38498D01*
X154901Y38498D01*
X155030Y38509D01*
X155160Y38511D01*
X155254Y38529D01*
X155349Y38538D01*
X155475Y38572D01*
X155602Y38597D01*
X155691Y38631D01*
X155784Y38656D01*
X155901Y38712D01*
X156022Y38759D01*
X156104Y38809D01*
X156190Y38850D01*
X156296Y38925D01*
X156407Y38993D01*
X156479Y39056D01*
X156556Y39112D01*
X156647Y39205D01*
X156744Y39291D01*
X156803Y39366D01*
X156870Y39434D01*
X156943Y39542D01*
X157024Y39644D01*
X157069Y39728D01*
X157122Y39807D01*
X157175Y39926D01*
X157236Y40041D01*
X157266Y40132D01*
X157305Y40219D01*
X157335Y40346D01*
X157376Y40469D01*
X157389Y40564D01*
X157411Y40657D01*
X157419Y40786D01*
X157437Y40915D01*
X157433Y41011D01*
X157439Y41106D01*
X157424Y41235D01*
X157419Y41365D01*
X157398Y41458D01*
X157387Y41553D01*
X157349Y41678D01*
X157321Y41805D01*
X157284Y41893D01*
X157257Y41984D01*
X157198Y42100D01*
X157147Y42220D01*
X157096Y42301D01*
X157052Y42386D01*
X156974Y42489D01*
X156903Y42598D01*
X156817Y42696D01*
X156780Y42744D01*
X156747Y42775D01*
X156696Y42833D01*
X145069Y54460D01*
X144943Y54565D01*
X144822Y54677D01*
X144770Y54709D01*
X144724Y54749D01*
X144581Y54830D01*
X144442Y54918D01*
X144386Y54942D01*
X144333Y54972D01*
X144178Y55027D01*
X144026Y55089D01*
X143966Y55102D01*
X143908Y55123D01*
X143746Y55150D01*
X143585Y55184D01*
X143508Y55189D01*
X143464Y55196D01*
X143403Y55195D01*
X143273Y55203D01*
X142453Y55203D01*
X128630Y69026D01*
X128630Y88574D01*
X142453Y102397D01*
X162001Y102397D01*
X175824Y88574D01*
X175824Y71700D01*
X175826Y71669D01*
X175824Y71640D01*
X175839Y71517D01*
X175845Y71371D01*
X175858Y71312D01*
X175863Y71251D01*
X175875Y71210D01*
X175877Y71193D01*
X175904Y71102D01*
X175907Y71092D01*
X175942Y70932D01*
X175966Y70876D01*
X175982Y70817D01*
X176005Y70768D01*
X176007Y70762D01*
X176023Y70730D01*
X176052Y70669D01*
X176116Y70516D01*
X176149Y70465D01*
X176175Y70410D01*
X176271Y70277D01*
X176360Y70138D01*
X176411Y70080D01*
X176437Y70044D01*
X176481Y70002D01*
X176567Y69904D01*
X207061Y39410D01*
X207188Y39304D01*
X207309Y39193D01*
X207360Y39160D01*
X207407Y39121D01*
X207549Y39039D01*
X207688Y38951D01*
X207745Y38928D01*
X207798Y38898D01*
X207953Y38843D01*
X208105Y38780D01*
X208164Y38767D01*
X208222Y38747D01*
X208384Y38720D01*
X208545Y38685D01*
X208622Y38681D01*
X208666Y38673D01*
X208727Y38674D01*
X208857Y38666D01*
X244732Y38666D01*
X244767Y38669D01*
X244801Y38667D01*
X244990Y38689D01*
X245181Y38706D01*
X245214Y38715D01*
X245248Y38719D01*
X245431Y38775D01*
X245615Y38825D01*
X245646Y38839D01*
X245679Y38849D01*
X245850Y38936D01*
X246022Y39018D01*
X246050Y39038D01*
X246081Y39054D01*
X246233Y39169D01*
X246388Y39280D01*
X246412Y39305D01*
X246439Y39326D01*
X246568Y39466D01*
X246702Y39603D01*
X246721Y39632D01*
X246745Y39657D01*
X246847Y39818D01*
X246954Y39976D01*
X246968Y40008D01*
X246986Y40037D01*
X247059Y40213D01*
X247136Y40388D01*
X247144Y40421D01*
X247157Y40453D01*
X247197Y40640D01*
X247243Y40825D01*
X247245Y40860D01*
X247252Y40894D01*
X247271Y41205D01*
X247271Y46014D01*
X248057Y47909D01*
X248079Y47982D01*
X248104Y48038D01*
X248108Y48052D01*
X248122Y48085D01*
X248152Y48213D01*
X248191Y48339D01*
X248203Y48432D01*
X248225Y48524D01*
X248231Y48655D01*
X248248Y48786D01*
X248243Y48880D01*
X248248Y48973D01*
X248232Y49104D01*
X248225Y49235D01*
X248204Y49327D01*
X248192Y49420D01*
X248153Y49546D01*
X248123Y49674D01*
X248086Y49760D01*
X248058Y49850D01*
X247997Y49967D01*
X247945Y50088D01*
X247893Y50166D01*
X247850Y50249D01*
X247769Y50354D01*
X247697Y50463D01*
X247632Y50531D01*
X247574Y50606D01*
X247477Y50694D01*
X247386Y50789D01*
X247310Y50845D01*
X247241Y50908D01*
X247067Y51023D01*
X247023Y51055D01*
X247005Y51064D01*
X246980Y51080D01*
X246893Y51131D01*
X246420Y51604D01*
X246085Y52183D01*
X245992Y52530D01*
X245988Y52541D01*
X245986Y52553D01*
X245911Y52753D01*
X245838Y52953D01*
X245832Y52963D01*
X245828Y52974D01*
X245719Y53157D01*
X245611Y53342D01*
X245603Y53351D01*
X245597Y53361D01*
X245458Y53522D01*
X245319Y53685D01*
X245310Y53692D01*
X245302Y53701D01*
X245136Y53835D01*
X244971Y53971D01*
X244961Y53976D01*
X244952Y53984D01*
X244764Y54086D01*
X244578Y54190D01*
X244567Y54194D01*
X244557Y54200D01*
X244354Y54268D01*
X244152Y54337D01*
X244141Y54339D01*
X244130Y54343D01*
X243917Y54374D01*
X243707Y54407D01*
X243696Y54407D01*
X243684Y54408D01*
X243471Y54401D01*
X243257Y54397D01*
X243246Y54394D01*
X243234Y54394D01*
X243025Y54349D01*
X242816Y54307D01*
X242805Y54303D01*
X242794Y54300D01*
X242596Y54220D01*
X242397Y54141D01*
X242387Y54135D01*
X242377Y54131D01*
X242196Y54016D01*
X242015Y53904D01*
X242006Y53896D01*
X241996Y53890D01*
X241838Y53745D01*
X241680Y53602D01*
X241673Y53593D01*
X241664Y53585D01*
X241535Y53416D01*
X241404Y53247D01*
X241399Y53237D01*
X241392Y53227D01*
X241294Y53037D01*
X241195Y52848D01*
X241191Y52837D01*
X241186Y52827D01*
X241087Y52530D01*
X241021Y52283D01*
X240686Y51704D01*
X240213Y51230D01*
X239634Y50896D01*
X238988Y50723D01*
X236692Y50723D01*
X236692Y57263D01*
X236689Y57298D01*
X236691Y57332D01*
X236669Y57522D01*
X236652Y57712D01*
X236643Y57745D01*
X236639Y57780D01*
X236584Y57963D01*
X236534Y58146D01*
X236519Y58177D01*
X236509Y58211D01*
X236422Y58381D01*
X236341Y58553D01*
X236320Y58581D01*
X236305Y58612D01*
X236189Y58764D01*
X236078Y58919D01*
X236054Y58943D01*
X236033Y58971D01*
X235893Y59100D01*
X235756Y59233D01*
X235727Y59252D01*
X235702Y59276D01*
X235541Y59378D01*
X235383Y59485D01*
X235351Y59499D01*
X235322Y59518D01*
X235145Y59590D01*
X234971Y59667D01*
X234937Y59675D01*
X234905Y59689D01*
X234719Y59729D01*
X234533Y59774D01*
X234499Y59776D01*
X234465Y59783D01*
X234153Y59803D01*
X234118Y59799D01*
X234084Y59802D01*
X233894Y59780D01*
X233704Y59763D01*
X233671Y59754D01*
X233636Y59750D01*
X233454Y59694D01*
X233270Y59644D01*
X233239Y59629D01*
X233205Y59619D01*
X233035Y59532D01*
X232863Y59451D01*
X232835Y59431D01*
X232804Y59415D01*
X232652Y59300D01*
X232497Y59189D01*
X232473Y59164D01*
X232445Y59143D01*
X232316Y59003D01*
X232183Y58866D01*
X232164Y58837D01*
X232140Y58812D01*
X232038Y58651D01*
X231931Y58493D01*
X231917Y58461D01*
X231898Y58432D01*
X231826Y58256D01*
X231749Y58081D01*
X231741Y58047D01*
X231727Y58015D01*
X231687Y57829D01*
X231642Y57644D01*
X231640Y57609D01*
X231633Y57575D01*
X231614Y57263D01*
X231614Y50723D01*
X229318Y50723D01*
X228672Y50896D01*
X228093Y51230D01*
X227620Y51704D01*
X227285Y52283D01*
X227112Y52929D01*
X227112Y56471D01*
X227101Y56600D01*
X227099Y56730D01*
X227081Y56824D01*
X227072Y56919D01*
X227038Y57045D01*
X227013Y57172D01*
X226979Y57261D01*
X226954Y57353D01*
X226898Y57471D01*
X226851Y57592D01*
X226801Y57674D01*
X226760Y57760D01*
X226685Y57866D01*
X226617Y57977D01*
X226554Y58048D01*
X226498Y58126D01*
X226405Y58217D01*
X226319Y58314D01*
X226244Y58374D01*
X226176Y58440D01*
X226068Y58513D01*
X225966Y58594D01*
X225882Y58639D01*
X225803Y58692D01*
X225684Y58745D01*
X225569Y58806D01*
X225478Y58836D01*
X225391Y58875D01*
X225264Y58905D01*
X225141Y58946D01*
X225046Y58959D01*
X224953Y58981D01*
X224824Y58989D01*
X224695Y59007D01*
X224599Y59003D01*
X224504Y59009D01*
X224375Y58994D01*
X224245Y58989D01*
X224152Y58968D01*
X224057Y58957D01*
X223932Y58919D01*
X223805Y58891D01*
X223717Y58854D01*
X223626Y58826D01*
X223510Y58767D01*
X223390Y58717D01*
X223310Y58665D01*
X223224Y58622D01*
X223121Y58544D01*
X223012Y58473D01*
X222914Y58387D01*
X222866Y58350D01*
X222835Y58317D01*
X222777Y58266D01*
X222106Y57595D01*
X219866Y56667D01*
X208440Y56667D01*
X206199Y57595D01*
X204484Y59310D01*
X203556Y61551D01*
X203556Y64508D01*
X203546Y64625D01*
X203545Y64741D01*
X203526Y64848D01*
X203516Y64957D01*
X203485Y65070D01*
X203465Y65184D01*
X203439Y65258D01*
X203439Y80226D01*
X203425Y80390D01*
X203418Y80554D01*
X203405Y80614D01*
X203399Y80674D01*
X203356Y80833D01*
X203320Y80994D01*
X203297Y81050D01*
X203281Y81109D01*
X203210Y81257D01*
X203147Y81409D01*
X203114Y81461D01*
X203087Y81515D01*
X202992Y81649D01*
X202902Y81787D01*
X202851Y81845D01*
X202825Y81881D01*
X202782Y81924D01*
X202696Y82021D01*
X202061Y82656D01*
X201971Y82731D01*
X201888Y82813D01*
X201799Y82875D01*
X201716Y82945D01*
X201614Y83003D01*
X201518Y83069D01*
X201379Y83137D01*
X201325Y83168D01*
X201290Y83180D01*
X201237Y83207D01*
X198296Y84425D01*
X156761Y125960D01*
X156635Y126065D01*
X156514Y126177D01*
X156462Y126209D01*
X156416Y126249D01*
X156273Y126330D01*
X156134Y126418D01*
X156078Y126442D01*
X156025Y126472D01*
X155870Y126527D01*
X155718Y126589D01*
X155658Y126602D01*
X155600Y126623D01*
X155438Y126650D01*
X155277Y126684D01*
X155200Y126689D01*
X155156Y126696D01*
X155095Y126695D01*
X154965Y126703D01*
X145524Y126703D01*
X134630Y137597D01*
X134630Y147039D01*
X134615Y147202D01*
X134609Y147367D01*
X134596Y147426D01*
X134590Y147487D01*
X134547Y147646D01*
X134511Y147806D01*
X134488Y147863D01*
X134472Y147922D01*
X134401Y148070D01*
X134338Y148222D01*
X134304Y148273D01*
X134278Y148328D01*
X134183Y148462D01*
X134093Y148600D01*
X134042Y148658D01*
X134016Y148694D01*
X133972Y148737D01*
X133886Y148834D01*
X63658Y219062D01*
X63559Y219146D01*
X63465Y219236D01*
X63386Y219290D01*
X63313Y219351D01*
X63200Y219416D01*
X63092Y219489D01*
X63005Y219527D01*
X62922Y219575D01*
X62800Y219618D01*
X62681Y219671D01*
X62588Y219693D01*
X62498Y219725D01*
X62369Y219747D01*
X62243Y219777D01*
X62148Y219783D01*
X62053Y219799D01*
X61923Y219797D01*
X61794Y219805D01*
X61699Y219794D01*
X61603Y219793D01*
X61476Y219768D01*
X61346Y219753D01*
X61255Y219725D01*
X61161Y219707D01*
X61040Y219660D01*
X60915Y219623D01*
X60830Y219579D01*
X60741Y219545D01*
X60630Y219477D01*
X60514Y219418D01*
X60438Y219361D01*
X60356Y219311D01*
X60259Y219225D01*
X60155Y219146D01*
X60091Y219076D01*
X60019Y219013D01*
X59939Y218911D01*
X59850Y218815D01*
X59799Y218734D01*
X59740Y218660D01*
X59678Y218545D01*
X59608Y218435D01*
X59572Y218347D01*
X59527Y218263D01*
X59487Y218139D01*
X59437Y218019D01*
X59417Y217925D01*
X59388Y217835D01*
X59370Y217706D01*
X59343Y217579D01*
X59335Y217449D01*
X59326Y217389D01*
X59328Y217344D01*
X59324Y217267D01*
X59324Y204926D01*
X45501Y191103D01*
X25953Y191103D01*
X18579Y198477D01*
X18477Y198563D01*
X18381Y198655D01*
X18305Y198707D01*
X18234Y198766D01*
X18118Y198832D01*
X18007Y198906D01*
X17923Y198944D01*
X17843Y198989D01*
X17717Y199034D01*
X17595Y199088D01*
X17505Y199109D01*
X17419Y199140D01*
X17287Y199162D01*
X17157Y199193D01*
X17065Y199199D01*
X16974Y199214D01*
X16841Y199212D01*
X16708Y199220D01*
X16616Y199209D01*
X16524Y199207D01*
X16393Y199182D01*
X16261Y199166D01*
X16172Y199139D01*
X16082Y199122D01*
X15958Y199074D01*
X15830Y199035D01*
X15748Y198993D01*
X15662Y198960D01*
X15548Y198890D01*
X15429Y198830D01*
X15356Y198774D01*
X15277Y198726D01*
X15177Y198638D01*
X15071Y198557D01*
X15009Y198489D01*
X14940Y198428D01*
X14857Y198323D01*
X14767Y198225D01*
X14718Y198147D01*
X14660Y198074D01*
X14597Y197957D01*
X14526Y197844D01*
X14491Y197759D01*
X14448Y197678D01*
X14407Y197551D01*
X14356Y197427D01*
X14337Y197337D01*
X14309Y197249D01*
X14290Y197117D01*
X14263Y196987D01*
X14255Y196863D01*
X14247Y196803D01*
X14249Y196756D01*
X14244Y196675D01*
X14449Y118817D01*
X14461Y118691D01*
X14463Y118564D01*
X14481Y118467D01*
X14491Y118369D01*
X14524Y118247D01*
X14548Y118122D01*
X14584Y118030D01*
X14610Y117935D01*
X14665Y117820D01*
X14711Y117702D01*
X14762Y117618D01*
X14805Y117529D01*
X14879Y117426D01*
X14944Y117317D01*
X15010Y117243D01*
X15068Y117163D01*
X15159Y117075D01*
X15243Y116980D01*
X15320Y116919D01*
X15391Y116850D01*
X15497Y116779D01*
X15596Y116701D01*
X15683Y116654D01*
X15765Y116599D01*
X15881Y116548D01*
X15993Y116488D01*
X16087Y116457D01*
X16177Y116418D01*
X16300Y116388D01*
X16421Y116349D01*
X16519Y116335D01*
X16615Y116312D01*
X16741Y116305D01*
X16867Y116287D01*
X16966Y116291D01*
X17064Y116286D01*
X17190Y116301D01*
X17317Y116306D01*
X17413Y116327D01*
X17512Y116339D01*
X17633Y116376D01*
X17756Y116403D01*
X17848Y116442D01*
X17942Y116470D01*
X18055Y116528D01*
X18172Y116577D01*
X18255Y116631D01*
X18343Y116676D01*
X18444Y116753D01*
X18550Y116821D01*
X18652Y116911D01*
X18701Y116949D01*
X18730Y116980D01*
X18784Y117028D01*
X25953Y124197D01*
X45501Y124197D01*
X59324Y110374D01*
X59324Y90826D01*
X45501Y77003D01*
X25953Y77003D01*
X18880Y84076D01*
X18778Y84161D01*
X18682Y84254D01*
X18606Y84305D01*
X18535Y84365D01*
X18419Y84431D01*
X18309Y84505D01*
X18224Y84542D01*
X18144Y84588D01*
X18018Y84633D01*
X17896Y84686D01*
X17807Y84708D01*
X17720Y84739D01*
X17588Y84761D01*
X17459Y84792D01*
X17366Y84797D01*
X17276Y84812D01*
X17142Y84810D01*
X17009Y84818D01*
X16918Y84807D01*
X16825Y84806D01*
X16694Y84781D01*
X16562Y84765D01*
X16474Y84738D01*
X16383Y84721D01*
X16259Y84673D01*
X16131Y84634D01*
X16049Y84592D01*
X15963Y84558D01*
X15849Y84489D01*
X15731Y84428D01*
X15657Y84372D01*
X15579Y84324D01*
X15479Y84236D01*
X15373Y84155D01*
X15310Y84087D01*
X15241Y84026D01*
X15158Y83922D01*
X15068Y83823D01*
X15019Y83746D01*
X14962Y83673D01*
X14899Y83555D01*
X14827Y83443D01*
X14793Y83358D01*
X14749Y83276D01*
X14708Y83149D01*
X14658Y83026D01*
X14638Y82936D01*
X14610Y82848D01*
X14592Y82716D01*
X14564Y82585D01*
X14557Y82461D01*
X14549Y82402D01*
X14550Y82355D01*
X14546Y82274D01*
X14727Y13300D01*
X14730Y13268D01*
X14728Y13236D01*
X14751Y13044D01*
X14768Y12852D01*
X14777Y12821D01*
X14781Y12789D01*
X14837Y12604D01*
X14888Y12418D01*
X14902Y12389D01*
X14911Y12358D01*
X14999Y12187D01*
X15082Y12011D01*
X15101Y11985D01*
X15116Y11957D01*
X15232Y11803D01*
X15346Y11646D01*
X15369Y11624D01*
X15388Y11598D01*
X15530Y11468D01*
X15669Y11333D01*
X15696Y11315D01*
X15719Y11293D01*
X15882Y11190D01*
X16043Y11082D01*
X16072Y11069D01*
X16099Y11052D01*
X16278Y10978D01*
X16455Y10901D01*
X16486Y10893D01*
X16516Y10881D01*
X16705Y10840D01*
X16893Y10795D01*
X16925Y10793D01*
X16956Y10787D01*
X17268Y10768D01*
X32547Y10776D01*
G37*
G36*
X525665Y71180D02*
X525665Y71180D01*
X525876Y71196D01*
X525888Y71199D01*
X525902Y71201D01*
X526107Y71257D01*
X526311Y71310D01*
X526323Y71316D01*
X526336Y71319D01*
X526527Y71410D01*
X526720Y71499D01*
X526731Y71507D01*
X526743Y71513D01*
X526915Y71636D01*
X527089Y71758D01*
X527098Y71767D01*
X527109Y71775D01*
X527257Y71927D01*
X527406Y72077D01*
X527414Y72088D01*
X527423Y72097D01*
X527542Y72273D01*
X527662Y72447D01*
X527669Y72462D01*
X527675Y72470D01*
X527691Y72507D01*
X527799Y72728D01*
X528075Y73395D01*
X528125Y73552D01*
X528181Y73706D01*
X528192Y73767D01*
X528210Y73825D01*
X528231Y73988D01*
X528259Y74150D01*
X528259Y74211D01*
X528267Y74271D01*
X528259Y74436D01*
X528258Y74600D01*
X528247Y74660D01*
X528244Y74721D01*
X528207Y74881D01*
X528177Y75043D01*
X528152Y75116D01*
X528142Y75160D01*
X528118Y75216D01*
X528075Y75339D01*
X527531Y76654D01*
X527531Y89080D01*
X528459Y91320D01*
X530174Y93035D01*
X532415Y93964D01*
X534803Y93964D01*
X534966Y93978D01*
X535131Y93985D01*
X535190Y93998D01*
X535251Y94004D01*
X535410Y94047D01*
X535570Y94082D01*
X535627Y94106D01*
X535686Y94122D01*
X535834Y94192D01*
X535986Y94256D01*
X536037Y94289D01*
X536092Y94315D01*
X536226Y94411D01*
X536364Y94500D01*
X536422Y94551D01*
X536458Y94578D01*
X536501Y94621D01*
X536598Y94707D01*
X541960Y100069D01*
X542065Y100195D01*
X542177Y100316D01*
X542209Y100367D01*
X542248Y100414D01*
X542330Y100557D01*
X542418Y100695D01*
X542442Y100752D01*
X542472Y100805D01*
X542527Y100960D01*
X542589Y101112D01*
X542602Y101172D01*
X542623Y101229D01*
X542649Y101392D01*
X542684Y101552D01*
X542689Y101629D01*
X542696Y101673D01*
X542695Y101734D01*
X542703Y101864D01*
X542703Y121513D01*
X543631Y123754D01*
X545346Y125469D01*
X547587Y126397D01*
X568013Y126397D01*
X568116Y126354D01*
X568227Y126319D01*
X568335Y126275D01*
X568442Y126252D01*
X568545Y126219D01*
X568661Y126205D01*
X568776Y126180D01*
X568929Y126170D01*
X568992Y126163D01*
X569028Y126164D01*
X569088Y126161D01*
X570393Y126161D01*
X570570Y126176D01*
X570747Y126186D01*
X570794Y126196D01*
X570841Y126201D01*
X571013Y126247D01*
X571186Y126288D01*
X571230Y126307D01*
X571276Y126319D01*
X571436Y126395D01*
X571599Y126466D01*
X571639Y126492D01*
X571682Y126513D01*
X571827Y126616D01*
X571975Y126714D01*
X572010Y126747D01*
X572049Y126775D01*
X572173Y126902D01*
X572301Y127025D01*
X572329Y127063D01*
X572363Y127097D01*
X572462Y127245D01*
X572567Y127388D01*
X572588Y127431D01*
X572615Y127470D01*
X572687Y127633D01*
X572765Y127792D01*
X572778Y127838D01*
X572797Y127882D01*
X572839Y128055D01*
X572888Y128226D01*
X572892Y128273D01*
X572904Y128320D01*
X572914Y128497D01*
X572932Y128674D01*
X572928Y128721D01*
X572931Y128769D01*
X572911Y128946D01*
X572897Y129123D01*
X572885Y129169D01*
X572879Y129216D01*
X572828Y129387D01*
X572783Y129558D01*
X572763Y129601D01*
X572749Y129647D01*
X572668Y129806D01*
X572594Y129967D01*
X572566Y130006D01*
X572545Y130049D01*
X572437Y130190D01*
X572335Y130336D01*
X572301Y130369D01*
X572273Y130407D01*
X572142Y130528D01*
X572016Y130653D01*
X571977Y130680D01*
X571941Y130712D01*
X571791Y130808D01*
X571645Y130909D01*
X571592Y130935D01*
X571562Y130954D01*
X571503Y130978D01*
X571365Y131046D01*
X567696Y132566D01*
X564565Y135696D01*
X563791Y137566D01*
X563737Y137670D01*
X563692Y137778D01*
X563633Y137869D01*
X563582Y137965D01*
X563511Y138058D01*
X563447Y138156D01*
X563345Y138272D01*
X563307Y138321D01*
X563280Y138346D01*
X563240Y138390D01*
X558602Y143029D01*
X555386Y146244D01*
X553839Y149979D01*
X553839Y213435D01*
X553836Y213470D01*
X553838Y213504D01*
X553816Y213694D01*
X553799Y213884D01*
X553790Y213917D01*
X553786Y213952D01*
X553731Y214135D01*
X553681Y214318D01*
X553666Y214349D01*
X553656Y214383D01*
X553569Y214553D01*
X553487Y214725D01*
X553467Y214753D01*
X553452Y214784D01*
X553336Y214936D01*
X553225Y215091D01*
X553200Y215115D01*
X553180Y215143D01*
X553040Y215272D01*
X552903Y215405D01*
X552874Y215424D01*
X552848Y215448D01*
X552687Y215550D01*
X552530Y215657D01*
X552498Y215671D01*
X552469Y215690D01*
X552292Y215762D01*
X552118Y215839D01*
X552084Y215847D01*
X552052Y215861D01*
X551865Y215901D01*
X551680Y215946D01*
X551646Y215948D01*
X551612Y215955D01*
X551300Y215975D01*
X551125Y215975D01*
X551125Y224865D01*
X551122Y224899D01*
X551124Y224934D01*
X551102Y225123D01*
X551085Y225313D01*
X551076Y225347D01*
X551072Y225381D01*
X551017Y225564D01*
X550967Y225748D01*
X550952Y225779D01*
X550942Y225812D01*
X550855Y225983D01*
X550773Y226154D01*
X550753Y226183D01*
X550738Y226213D01*
X550622Y226365D01*
X550511Y226521D01*
X550486Y226545D01*
X550466Y226572D01*
X550325Y226701D01*
X550189Y226835D01*
X550160Y226854D01*
X550134Y226877D01*
X549973Y226980D01*
X549816Y227087D01*
X549784Y227101D01*
X549755Y227119D01*
X549578Y227192D01*
X549404Y227269D01*
X549370Y227277D01*
X549338Y227290D01*
X549151Y227330D01*
X548966Y227376D01*
X548932Y227378D01*
X548898Y227385D01*
X548586Y227404D01*
X548551Y227401D01*
X548517Y227403D01*
X548327Y227381D01*
X548137Y227364D01*
X548104Y227355D01*
X548069Y227351D01*
X547886Y227296D01*
X547703Y227246D01*
X547672Y227231D01*
X547638Y227221D01*
X547468Y227134D01*
X547296Y227052D01*
X547268Y227032D01*
X547237Y227017D01*
X547085Y226901D01*
X546930Y226790D01*
X546906Y226765D01*
X546878Y226745D01*
X546749Y226604D01*
X546616Y226468D01*
X546597Y226439D01*
X546573Y226413D01*
X546471Y226252D01*
X546364Y226094D01*
X546350Y226063D01*
X546331Y226034D01*
X546259Y225857D01*
X546182Y225683D01*
X546173Y225649D01*
X546160Y225617D01*
X546120Y225430D01*
X546075Y225245D01*
X546073Y225211D01*
X546066Y225177D01*
X546046Y224865D01*
X546046Y215975D01*
X544903Y215975D01*
X541286Y219591D01*
X541260Y219614D01*
X541237Y219640D01*
X541088Y219757D01*
X540941Y219880D01*
X540911Y219898D01*
X540884Y219919D01*
X540716Y220009D01*
X540550Y220104D01*
X540517Y220115D01*
X540487Y220132D01*
X540306Y220191D01*
X540126Y220254D01*
X540091Y220260D01*
X540059Y220271D01*
X539870Y220297D01*
X539682Y220328D01*
X539647Y220327D01*
X539613Y220332D01*
X539422Y220324D01*
X539231Y220322D01*
X539197Y220315D01*
X539163Y220314D01*
X538977Y220273D01*
X538789Y220236D01*
X538757Y220224D01*
X538723Y220216D01*
X538548Y220143D01*
X538369Y220074D01*
X538340Y220056D01*
X538308Y220043D01*
X538148Y219939D01*
X537985Y219840D01*
X537959Y219817D01*
X537929Y219798D01*
X537695Y219591D01*
X530396Y212292D01*
X520085Y212292D01*
X518543Y213834D01*
X518416Y213940D01*
X518296Y214051D01*
X518244Y214084D01*
X518197Y214123D01*
X518055Y214205D01*
X517916Y214293D01*
X517859Y214317D01*
X517806Y214347D01*
X517652Y214402D01*
X517499Y214464D01*
X517440Y214477D01*
X517382Y214498D01*
X517220Y214524D01*
X517059Y214559D01*
X516982Y214564D01*
X516938Y214571D01*
X516877Y214570D01*
X516747Y214578D01*
X460999Y214578D01*
X460836Y214564D01*
X460671Y214557D01*
X460612Y214544D01*
X460551Y214538D01*
X460392Y214495D01*
X460232Y214459D01*
X460175Y214436D01*
X460117Y214420D01*
X459968Y214349D01*
X459816Y214286D01*
X459765Y214252D01*
X459710Y214226D01*
X459576Y214131D01*
X459438Y214041D01*
X459380Y213990D01*
X459344Y213964D01*
X459301Y213921D01*
X459204Y213834D01*
X447904Y202535D01*
X447799Y202409D01*
X447687Y202288D01*
X447655Y202236D01*
X447616Y202190D01*
X447534Y202047D01*
X447446Y201908D01*
X447422Y201852D01*
X447392Y201799D01*
X447337Y201644D01*
X447275Y201492D01*
X447262Y201432D01*
X447241Y201374D01*
X447215Y201212D01*
X447180Y201051D01*
X447175Y200974D01*
X447168Y200930D01*
X447169Y200869D01*
X447161Y200739D01*
X447161Y152979D01*
X445557Y149108D01*
X445533Y149029D01*
X445499Y148954D01*
X445465Y148815D01*
X445422Y148678D01*
X445412Y148596D01*
X445393Y148516D01*
X445384Y148374D01*
X445366Y148231D01*
X445370Y148149D01*
X445365Y148067D01*
X445381Y147925D01*
X445389Y147782D01*
X445407Y147702D01*
X445417Y147620D01*
X445458Y147482D01*
X445491Y147343D01*
X445523Y147268D01*
X445547Y147189D01*
X445612Y147061D01*
X445669Y146930D01*
X445714Y146861D01*
X445752Y146787D01*
X445838Y146673D01*
X445917Y146554D01*
X445974Y146494D01*
X446024Y146429D01*
X446129Y146332D01*
X446228Y146228D01*
X446294Y146179D01*
X446355Y146123D01*
X446476Y146046D01*
X446591Y145962D01*
X446665Y145926D01*
X446735Y145882D01*
X446867Y145827D01*
X446996Y145764D01*
X447075Y145742D01*
X447151Y145711D01*
X447291Y145681D01*
X447429Y145641D01*
X447511Y145633D01*
X447591Y145616D01*
X447837Y145601D01*
X447877Y145597D01*
X447887Y145598D01*
X447903Y145597D01*
X450546Y145597D01*
X450628Y145604D01*
X450710Y145602D01*
X450852Y145624D01*
X450994Y145637D01*
X451074Y145658D01*
X451155Y145671D01*
X451291Y145717D01*
X451429Y145755D01*
X451503Y145790D01*
X451581Y145817D01*
X451706Y145887D01*
X451835Y145949D01*
X451902Y145996D01*
X451974Y146037D01*
X452085Y146127D01*
X452202Y146211D01*
X452259Y146270D01*
X452323Y146322D01*
X452416Y146431D01*
X452516Y146533D01*
X452562Y146602D01*
X452615Y146664D01*
X452687Y146788D01*
X452768Y146906D01*
X452801Y146982D01*
X452843Y147053D01*
X452892Y147187D01*
X452950Y147318D01*
X452969Y147398D01*
X452998Y147476D01*
X453023Y147617D01*
X453057Y147756D01*
X453062Y147838D01*
X453076Y147919D01*
X453075Y148062D01*
X453084Y148205D01*
X453075Y148287D01*
X453074Y148369D01*
X453049Y148510D01*
X453032Y148652D01*
X453008Y148731D01*
X452993Y148812D01*
X452913Y149045D01*
X452902Y149083D01*
X452897Y149093D01*
X452892Y149108D01*
X452403Y150287D01*
X452403Y162713D01*
X453331Y164954D01*
X455216Y166838D01*
X455321Y166964D01*
X455433Y167085D01*
X455465Y167136D01*
X455504Y167183D01*
X455586Y167326D01*
X455674Y167464D01*
X455698Y167521D01*
X455728Y167574D01*
X455783Y167729D01*
X455845Y167881D01*
X455858Y167941D01*
X455879Y167998D01*
X455905Y168161D01*
X455940Y168321D01*
X455945Y168398D01*
X455952Y168442D01*
X455951Y168504D01*
X455959Y168633D01*
X455959Y170961D01*
X464000Y170961D01*
X464034Y170964D01*
X464069Y170962D01*
X464258Y170984D01*
X464448Y171000D01*
X464482Y171010D01*
X464516Y171014D01*
X464699Y171069D01*
X464883Y171119D01*
X464914Y171134D01*
X464947Y171144D01*
X465118Y171231D01*
X465289Y171312D01*
X465317Y171333D01*
X465348Y171348D01*
X465500Y171463D01*
X465655Y171575D01*
X465679Y171599D01*
X465707Y171620D01*
X465836Y171760D01*
X465969Y171897D01*
X465989Y171926D01*
X466012Y171951D01*
X466115Y172112D01*
X466221Y172270D01*
X466235Y172302D01*
X466254Y172331D01*
X466326Y172508D01*
X466404Y172682D01*
X466412Y172716D01*
X466425Y172748D01*
X466465Y172934D01*
X466510Y173119D01*
X466512Y173154D01*
X466520Y173188D01*
X466539Y173500D01*
X466536Y173535D01*
X466538Y173569D01*
X466516Y173759D01*
X466499Y173949D01*
X466490Y173982D01*
X466486Y174016D01*
X466431Y174199D01*
X466380Y174383D01*
X466366Y174414D01*
X466356Y174447D01*
X466269Y174618D01*
X466187Y174790D01*
X466167Y174818D01*
X466151Y174849D01*
X466036Y175001D01*
X465925Y175156D01*
X465900Y175180D01*
X465879Y175207D01*
X465739Y175337D01*
X465602Y175470D01*
X465574Y175489D01*
X465548Y175513D01*
X465387Y175615D01*
X465229Y175722D01*
X465198Y175736D01*
X465168Y175754D01*
X464992Y175827D01*
X464817Y175904D01*
X464784Y175912D01*
X464752Y175925D01*
X464565Y175966D01*
X464380Y176011D01*
X464346Y176013D01*
X464312Y176020D01*
X464000Y176039D01*
X455959Y176039D01*
X455959Y178835D01*
X456132Y179481D01*
X456467Y180060D01*
X456940Y180533D01*
X457567Y180895D01*
X457631Y180914D01*
X457707Y180951D01*
X457785Y180980D01*
X457907Y181051D01*
X458034Y181115D01*
X458102Y181165D01*
X458174Y181207D01*
X458282Y181299D01*
X458396Y181383D01*
X458453Y181444D01*
X458517Y181499D01*
X458607Y181608D01*
X458704Y181712D01*
X458750Y181782D01*
X458803Y181847D01*
X458872Y181970D01*
X458949Y182089D01*
X458982Y182167D01*
X459023Y182240D01*
X459069Y182374D01*
X459124Y182504D01*
X459142Y182586D01*
X459170Y182665D01*
X459191Y182805D01*
X459223Y182944D01*
X459226Y183027D01*
X459239Y183110D01*
X459236Y183252D01*
X459242Y183393D01*
X459231Y183477D01*
X459229Y183560D01*
X459201Y183699D01*
X459182Y183840D01*
X459156Y183920D01*
X459140Y184002D01*
X459087Y184133D01*
X459044Y184268D01*
X458994Y184368D01*
X458973Y184420D01*
X458946Y184464D01*
X458905Y184548D01*
X458632Y185019D01*
X458459Y185665D01*
X458459Y188461D01*
X466500Y188461D01*
X466534Y188464D01*
X466569Y188462D01*
X466758Y188484D01*
X466948Y188500D01*
X466982Y188510D01*
X467016Y188514D01*
X467199Y188569D01*
X467383Y188619D01*
X467414Y188634D01*
X467447Y188644D01*
X467618Y188731D01*
X467789Y188812D01*
X467817Y188833D01*
X467848Y188848D01*
X468000Y188963D01*
X468155Y189075D01*
X468179Y189099D01*
X468207Y189120D01*
X468207Y189121D01*
X468336Y189260D01*
X468469Y189397D01*
X468470Y189398D01*
X468489Y189426D01*
X468513Y189452D01*
X468615Y189613D01*
X468722Y189771D01*
X468736Y189802D01*
X468754Y189832D01*
X468827Y190008D01*
X468904Y190183D01*
X468912Y190216D01*
X468925Y190248D01*
X468966Y190435D01*
X469011Y190620D01*
X469013Y190654D01*
X469020Y190688D01*
X469039Y191000D01*
X469039Y198541D01*
X470867Y198541D01*
X471031Y198555D01*
X471195Y198562D01*
X471255Y198575D01*
X471315Y198581D01*
X471474Y198624D01*
X471635Y198660D01*
X471691Y198683D01*
X471750Y198699D01*
X471898Y198770D01*
X472050Y198833D01*
X472101Y198866D01*
X472156Y198893D01*
X472290Y198988D01*
X472428Y199078D01*
X472486Y199129D01*
X472522Y199155D01*
X472565Y199198D01*
X472662Y199284D01*
X474546Y201169D01*
X476787Y202097D01*
X490213Y202097D01*
X492454Y201169D01*
X493624Y199998D01*
X493724Y199914D01*
X493817Y199823D01*
X493897Y199770D01*
X493970Y199709D01*
X494083Y199644D01*
X494190Y199571D01*
X494278Y199533D01*
X494361Y199485D01*
X494483Y199442D01*
X494602Y199389D01*
X494695Y199367D01*
X494785Y199334D01*
X494913Y199313D01*
X495040Y199282D01*
X495135Y199277D01*
X495229Y199261D01*
X495359Y199263D01*
X495489Y199255D01*
X495584Y199266D01*
X495680Y199267D01*
X495807Y199292D01*
X495936Y199307D01*
X496028Y199335D01*
X496122Y199353D01*
X496243Y199399D01*
X496367Y199437D01*
X496453Y199481D01*
X496542Y199515D01*
X496653Y199582D01*
X496769Y199642D01*
X496845Y199699D01*
X496926Y199749D01*
X497024Y199835D01*
X497127Y199914D01*
X497171Y199961D01*
X505000Y199961D01*
X505034Y199964D01*
X505069Y199962D01*
X505258Y199984D01*
X505448Y200000D01*
X505482Y200010D01*
X505516Y200014D01*
X505699Y200069D01*
X505883Y200119D01*
X505914Y200134D01*
X505947Y200144D01*
X506118Y200231D01*
X506289Y200312D01*
X506317Y200333D01*
X506348Y200348D01*
X506500Y200463D01*
X506655Y200575D01*
X506679Y200599D01*
X506707Y200620D01*
X506707Y200621D01*
X506836Y200760D01*
X506969Y200897D01*
X506970Y200898D01*
X506989Y200926D01*
X507013Y200952D01*
X507115Y201113D01*
X507222Y201271D01*
X507236Y201302D01*
X507254Y201332D01*
X507327Y201508D01*
X507404Y201683D01*
X507412Y201716D01*
X507425Y201748D01*
X507466Y201935D01*
X507511Y202120D01*
X507513Y202154D01*
X507520Y202188D01*
X507539Y202500D01*
X507539Y209041D01*
X509835Y209041D01*
X510481Y208868D01*
X511060Y208533D01*
X511533Y208060D01*
X511868Y207481D01*
X512041Y206835D01*
X512041Y203293D01*
X512052Y203163D01*
X512054Y203034D01*
X512072Y202940D01*
X512081Y202845D01*
X512115Y202719D01*
X512140Y202591D01*
X512174Y202502D01*
X512199Y202410D01*
X512255Y202293D01*
X512302Y202171D01*
X512352Y202090D01*
X512393Y202004D01*
X512468Y201898D01*
X512536Y201787D01*
X512599Y201715D01*
X512655Y201637D01*
X512748Y201547D01*
X512834Y201449D01*
X512909Y201390D01*
X512977Y201323D01*
X513085Y201251D01*
X513187Y201170D01*
X513271Y201125D01*
X513350Y201071D01*
X513469Y201019D01*
X513584Y200957D01*
X513675Y200928D01*
X513762Y200889D01*
X513889Y200858D01*
X514012Y200818D01*
X514107Y200805D01*
X514200Y200782D01*
X514329Y200774D01*
X514458Y200757D01*
X514554Y200761D01*
X514649Y200755D01*
X514778Y200770D01*
X514908Y200775D01*
X515001Y200796D01*
X515096Y200807D01*
X515221Y200845D01*
X515348Y200873D01*
X515436Y200909D01*
X515527Y200937D01*
X515643Y200996D01*
X515763Y201046D01*
X515843Y201098D01*
X515929Y201142D01*
X516032Y201220D01*
X516141Y201291D01*
X516239Y201377D01*
X516287Y201414D01*
X516318Y201446D01*
X516376Y201498D01*
X517047Y202169D01*
X519287Y203097D01*
X522319Y203097D01*
X522436Y203107D01*
X522553Y203107D01*
X522659Y203127D01*
X522768Y203137D01*
X522856Y203161D01*
X527121Y203161D01*
X527139Y203155D01*
X527254Y203141D01*
X527369Y203116D01*
X527523Y203106D01*
X527585Y203099D01*
X527622Y203100D01*
X527681Y203097D01*
X530713Y203097D01*
X532954Y202169D01*
X534669Y200454D01*
X535597Y198213D01*
X535597Y187787D01*
X535354Y187201D01*
X535319Y187090D01*
X535275Y186982D01*
X535252Y186876D01*
X535219Y186772D01*
X535205Y186656D01*
X535180Y186542D01*
X535170Y186388D01*
X535163Y186325D01*
X535164Y186289D01*
X535161Y186230D01*
X535161Y166479D01*
X533614Y162744D01*
X533340Y162471D01*
X533235Y162345D01*
X533123Y162224D01*
X533091Y162172D01*
X533052Y162126D01*
X532970Y161983D01*
X532882Y161844D01*
X532858Y161788D01*
X532828Y161735D01*
X532773Y161580D01*
X532711Y161428D01*
X532698Y161368D01*
X532677Y161310D01*
X532651Y161148D01*
X532616Y160987D01*
X532611Y160910D01*
X532604Y160866D01*
X532605Y160805D01*
X532597Y160675D01*
X532597Y158287D01*
X532052Y156972D01*
X532002Y156814D01*
X531946Y156660D01*
X531935Y156600D01*
X531917Y156542D01*
X531896Y156379D01*
X531868Y156217D01*
X531868Y156156D01*
X531860Y156095D01*
X531869Y155931D01*
X531869Y155767D01*
X531880Y155707D01*
X531883Y155646D01*
X531921Y155486D01*
X531950Y155324D01*
X531975Y155251D01*
X531985Y155207D01*
X532010Y155151D01*
X532052Y155028D01*
X532597Y153713D01*
X532597Y141287D01*
X531669Y139046D01*
X530499Y137877D01*
X530424Y137788D01*
X530342Y137705D01*
X530280Y137615D01*
X530211Y137532D01*
X530153Y137430D01*
X530086Y137334D01*
X530019Y137196D01*
X529987Y137141D01*
X529975Y137107D01*
X529949Y137054D01*
X529614Y136244D01*
X520545Y127175D01*
X520461Y127076D01*
X520371Y126983D01*
X520317Y126904D01*
X520256Y126830D01*
X520191Y126717D01*
X520119Y126609D01*
X520080Y126522D01*
X520033Y126439D01*
X519989Y126317D01*
X519936Y126198D01*
X519914Y126105D01*
X519882Y126015D01*
X519861Y125886D01*
X519830Y125760D01*
X519824Y125665D01*
X519808Y125571D01*
X519810Y125440D01*
X519802Y125311D01*
X519813Y125216D01*
X519814Y125120D01*
X519839Y124993D01*
X519854Y124864D01*
X519882Y124772D01*
X519900Y124678D01*
X519947Y124557D01*
X519985Y124433D01*
X520028Y124348D01*
X520062Y124258D01*
X520130Y124147D01*
X520189Y124031D01*
X520247Y123955D01*
X520296Y123874D01*
X520382Y123776D01*
X520461Y123673D01*
X520531Y123608D01*
X520594Y123536D01*
X520696Y123456D01*
X520792Y123367D01*
X520873Y123316D01*
X520948Y123257D01*
X521062Y123195D01*
X521172Y123126D01*
X521260Y123089D01*
X521344Y123044D01*
X521468Y123004D01*
X521588Y122955D01*
X521682Y122935D01*
X521773Y122905D01*
X521901Y122887D01*
X522029Y122860D01*
X522158Y122852D01*
X522219Y122844D01*
X522264Y122845D01*
X522340Y122841D01*
X526135Y122841D01*
X526781Y122668D01*
X527360Y122333D01*
X527833Y121860D01*
X528168Y121281D01*
X528341Y120635D01*
X528341Y116049D01*
X518510Y116049D01*
X518476Y116046D01*
X518441Y116048D01*
X518252Y116026D01*
X518062Y116009D01*
X518028Y116000D01*
X517994Y115996D01*
X517811Y115941D01*
X517627Y115891D01*
X517596Y115876D01*
X517563Y115866D01*
X517392Y115779D01*
X517221Y115697D01*
X517193Y115677D01*
X517162Y115662D01*
X517010Y115546D01*
X516855Y115435D01*
X516830Y115410D01*
X516803Y115390D01*
X516794Y115380D01*
X516692Y115480D01*
X516664Y115499D01*
X516638Y115523D01*
X516477Y115625D01*
X516319Y115732D01*
X516288Y115746D01*
X516258Y115764D01*
X516082Y115837D01*
X515908Y115914D01*
X515874Y115922D01*
X515842Y115935D01*
X515655Y115975D01*
X515470Y116021D01*
X515436Y116023D01*
X515402Y116030D01*
X515090Y116049D01*
X504975Y116049D01*
X504969Y116061D01*
X504907Y116190D01*
X504860Y116257D01*
X504819Y116329D01*
X504729Y116440D01*
X504645Y116556D01*
X504586Y116614D01*
X504534Y116677D01*
X504425Y116770D01*
X504323Y116870D01*
X504254Y116916D01*
X504192Y116970D01*
X504068Y117042D01*
X503950Y117122D01*
X503874Y117156D01*
X503803Y117197D01*
X503669Y117247D01*
X503538Y117304D01*
X503458Y117324D01*
X503380Y117352D01*
X503239Y117377D01*
X503100Y117411D01*
X503018Y117416D01*
X502937Y117430D01*
X502794Y117430D01*
X502651Y117439D01*
X502569Y117429D01*
X502487Y117429D01*
X502346Y117403D01*
X502204Y117387D01*
X502125Y117363D01*
X502044Y117348D01*
X501811Y117268D01*
X501773Y117256D01*
X501763Y117252D01*
X501748Y117246D01*
X499713Y116403D01*
X479287Y116403D01*
X477046Y117331D01*
X475331Y119046D01*
X474403Y121287D01*
X474403Y140713D01*
X474865Y141828D01*
X474890Y141907D01*
X474923Y141982D01*
X474957Y142121D01*
X475000Y142258D01*
X475011Y142340D01*
X475030Y142420D01*
X475039Y142562D01*
X475057Y142705D01*
X475053Y142787D01*
X475058Y142869D01*
X475041Y143011D01*
X475034Y143154D01*
X475015Y143234D01*
X475006Y143316D01*
X474964Y143454D01*
X474932Y143593D01*
X474899Y143668D01*
X474875Y143747D01*
X474810Y143875D01*
X474754Y144006D01*
X474708Y144075D01*
X474671Y144149D01*
X474584Y144263D01*
X474506Y144382D01*
X474449Y144442D01*
X474399Y144507D01*
X474294Y144604D01*
X474195Y144708D01*
X474128Y144757D01*
X474068Y144813D01*
X473947Y144890D01*
X473832Y144974D01*
X473758Y145010D01*
X473688Y145054D01*
X473556Y145109D01*
X473427Y145172D01*
X473348Y145194D01*
X473271Y145225D01*
X473132Y145255D01*
X472994Y145295D01*
X472912Y145303D01*
X472831Y145320D01*
X472585Y145335D01*
X472546Y145339D01*
X472535Y145338D01*
X472519Y145339D01*
X465481Y145339D01*
X465398Y145332D01*
X465316Y145334D01*
X465175Y145312D01*
X465032Y145299D01*
X464952Y145278D01*
X464871Y145265D01*
X464736Y145219D01*
X464598Y145181D01*
X464523Y145145D01*
X464445Y145119D01*
X464320Y145049D01*
X464191Y144987D01*
X464124Y144940D01*
X464052Y144899D01*
X463941Y144809D01*
X463825Y144725D01*
X463768Y144666D01*
X463704Y144614D01*
X463611Y144505D01*
X463511Y144403D01*
X463465Y144334D01*
X463411Y144272D01*
X463339Y144148D01*
X463259Y144030D01*
X463226Y143954D01*
X463184Y143883D01*
X463135Y143749D01*
X463077Y143618D01*
X463057Y143538D01*
X463029Y143460D01*
X463004Y143319D01*
X462970Y143180D01*
X462965Y143098D01*
X462951Y143017D01*
X462951Y142874D01*
X462942Y142731D01*
X462952Y142649D01*
X462952Y142567D01*
X462978Y142426D01*
X462994Y142284D01*
X463018Y142205D01*
X463033Y142124D01*
X463113Y141890D01*
X463125Y141853D01*
X463129Y141843D01*
X463135Y141828D01*
X463597Y140713D01*
X463597Y121287D01*
X462669Y119046D01*
X460953Y117331D01*
X460741Y117244D01*
X460626Y117183D01*
X460507Y117132D01*
X460427Y117079D01*
X460342Y117035D01*
X460240Y116955D01*
X460131Y116884D01*
X460062Y116818D01*
X459986Y116759D01*
X459899Y116663D01*
X459805Y116573D01*
X459749Y116496D01*
X459685Y116425D01*
X459616Y116315D01*
X459539Y116210D01*
X459497Y116124D01*
X459447Y116043D01*
X459399Y115922D01*
X459342Y115805D01*
X459316Y115713D01*
X459280Y115625D01*
X459254Y115497D01*
X459219Y115372D01*
X459209Y115277D01*
X459190Y115183D01*
X459187Y115053D01*
X459174Y114924D01*
X459182Y114829D01*
X459179Y114733D01*
X459199Y114605D01*
X459209Y114475D01*
X459233Y114383D01*
X459248Y114288D01*
X459290Y114165D01*
X459323Y114040D01*
X459363Y113953D01*
X459395Y113862D01*
X459458Y113749D01*
X459512Y113631D01*
X459567Y113553D01*
X459614Y113469D01*
X459696Y113369D01*
X459771Y113262D01*
X459839Y113195D01*
X459899Y113121D01*
X459998Y113036D01*
X460090Y112945D01*
X460169Y112891D01*
X460241Y112828D01*
X460354Y112763D01*
X460461Y112689D01*
X460577Y112632D01*
X460630Y112601D01*
X460672Y112586D01*
X460741Y112552D01*
X463006Y111614D01*
X487475Y87144D01*
X487601Y87039D01*
X487722Y86927D01*
X487774Y86895D01*
X487820Y86856D01*
X487963Y86774D01*
X488102Y86686D01*
X488158Y86662D01*
X488211Y86632D01*
X488366Y86577D01*
X488518Y86515D01*
X488578Y86502D01*
X488636Y86481D01*
X488798Y86455D01*
X488959Y86420D01*
X489036Y86415D01*
X489080Y86408D01*
X489141Y86409D01*
X489271Y86401D01*
X491811Y86401D01*
X492120Y86091D01*
X492220Y86008D01*
X492313Y85917D01*
X492393Y85863D01*
X492466Y85802D01*
X492579Y85738D01*
X492686Y85665D01*
X492774Y85626D01*
X492857Y85579D01*
X492979Y85535D01*
X493098Y85483D01*
X493191Y85460D01*
X493281Y85428D01*
X493409Y85407D01*
X493536Y85376D01*
X493631Y85370D01*
X493725Y85354D01*
X493855Y85356D01*
X493985Y85348D01*
X494080Y85359D01*
X494175Y85361D01*
X494303Y85385D01*
X494432Y85400D01*
X494524Y85428D01*
X494618Y85446D01*
X494739Y85493D01*
X494863Y85531D01*
X494949Y85574D01*
X495038Y85608D01*
X495149Y85676D01*
X495265Y85735D01*
X495341Y85793D01*
X495422Y85842D01*
X495520Y85928D01*
X495623Y86007D01*
X495688Y86077D01*
X495760Y86141D01*
X495840Y86242D01*
X495929Y86338D01*
X495980Y86419D01*
X496039Y86494D01*
X496100Y86608D01*
X496170Y86718D01*
X496207Y86806D01*
X496252Y86890D01*
X496292Y87014D01*
X496341Y87134D01*
X496361Y87228D01*
X496391Y87319D01*
X496409Y87447D01*
X496436Y87575D01*
X496444Y87705D01*
X496452Y87765D01*
X496451Y87809D01*
X496455Y87887D01*
X496455Y90188D01*
X501812Y95545D01*
X503061Y95545D01*
X503061Y86400D01*
X503064Y86366D01*
X503062Y86331D01*
X503084Y86142D01*
X503100Y85952D01*
X503110Y85918D01*
X503114Y85884D01*
X503169Y85701D01*
X503219Y85517D01*
X503234Y85486D01*
X503244Y85453D01*
X503331Y85282D01*
X503412Y85111D01*
X503433Y85083D01*
X503448Y85052D01*
X503563Y84900D01*
X503675Y84745D01*
X503699Y84721D01*
X503699Y84720D01*
X503720Y84693D01*
X503721Y84693D01*
X503721Y84692D01*
X503861Y84563D01*
X503998Y84430D01*
X504026Y84411D01*
X504052Y84387D01*
X504213Y84285D01*
X504371Y84178D01*
X504402Y84164D01*
X504432Y84145D01*
X504608Y84073D01*
X504783Y83996D01*
X504816Y83988D01*
X504848Y83975D01*
X505035Y83934D01*
X505220Y83889D01*
X505254Y83887D01*
X505288Y83880D01*
X505600Y83861D01*
X514745Y83861D01*
X514745Y82612D01*
X510143Y78010D01*
X510120Y77983D01*
X510094Y77961D01*
X509976Y77811D01*
X509854Y77665D01*
X509837Y77635D01*
X509815Y77607D01*
X509725Y77439D01*
X509630Y77274D01*
X509619Y77241D01*
X509602Y77211D01*
X509543Y77029D01*
X509480Y76849D01*
X509474Y76815D01*
X509463Y76782D01*
X509437Y76593D01*
X509406Y76405D01*
X509407Y76371D01*
X509402Y76336D01*
X509410Y76145D01*
X509412Y75955D01*
X509419Y75921D01*
X509420Y75886D01*
X509461Y75700D01*
X509498Y75513D01*
X509510Y75481D01*
X509518Y75447D01*
X509591Y75271D01*
X509660Y75093D01*
X509678Y75063D01*
X509691Y75031D01*
X509795Y74871D01*
X509894Y74708D01*
X509917Y74682D01*
X509936Y74653D01*
X510143Y74419D01*
X512657Y71904D01*
X512783Y71799D01*
X512904Y71687D01*
X512956Y71655D01*
X513002Y71616D01*
X513145Y71534D01*
X513284Y71446D01*
X513340Y71422D01*
X513393Y71392D01*
X513548Y71337D01*
X513700Y71275D01*
X513760Y71262D01*
X513818Y71241D01*
X513980Y71215D01*
X514141Y71180D01*
X514218Y71175D01*
X514262Y71168D01*
X514323Y71169D01*
X514453Y71161D01*
X525453Y71161D01*
X525665Y71180D01*
G37*
G36*
X390255Y149815D02*
X390255Y149815D01*
X390290Y149813D01*
X390479Y149835D01*
X390669Y149852D01*
X390702Y149861D01*
X390737Y149865D01*
X390920Y149920D01*
X391103Y149970D01*
X391134Y149985D01*
X391168Y149995D01*
X391338Y150082D01*
X391510Y150163D01*
X391538Y150184D01*
X391569Y150199D01*
X391721Y150315D01*
X391876Y150426D01*
X391900Y150450D01*
X391928Y150471D01*
X392057Y150611D01*
X392190Y150748D01*
X392209Y150777D01*
X392233Y150802D01*
X392335Y150963D01*
X392442Y151121D01*
X392456Y151153D01*
X392475Y151182D01*
X392547Y151359D01*
X392624Y151533D01*
X392633Y151567D01*
X392646Y151599D01*
X392686Y151785D01*
X392731Y151971D01*
X392733Y152005D01*
X392740Y152039D01*
X392760Y152351D01*
X392760Y152778D01*
X393688Y155018D01*
X395572Y156902D01*
X395678Y157029D01*
X395789Y157150D01*
X395822Y157201D01*
X395861Y157248D01*
X395942Y157391D01*
X396031Y157529D01*
X396054Y157586D01*
X396084Y157639D01*
X396139Y157794D01*
X396202Y157946D01*
X396215Y158006D01*
X396235Y158063D01*
X396262Y158225D01*
X396296Y158386D01*
X396301Y158463D01*
X396309Y158507D01*
X396308Y158568D01*
X396316Y158698D01*
X396316Y160525D01*
X403856Y160525D01*
X403857Y160525D01*
X411397Y160525D01*
X411397Y158765D01*
X411400Y158730D01*
X411398Y158696D01*
X411420Y158506D01*
X411437Y158316D01*
X411446Y158283D01*
X411450Y158249D01*
X411506Y158066D01*
X411556Y157882D01*
X411570Y157851D01*
X411580Y157818D01*
X411667Y157647D01*
X411749Y157475D01*
X411769Y157447D01*
X411785Y157416D01*
X411900Y157264D01*
X412011Y157109D01*
X412036Y157085D01*
X412057Y157058D01*
X412197Y156928D01*
X412334Y156795D01*
X412363Y156776D01*
X412388Y156752D01*
X412549Y156650D01*
X412707Y156543D01*
X412739Y156529D01*
X412768Y156511D01*
X412944Y156438D01*
X413119Y156361D01*
X413152Y156353D01*
X413184Y156340D01*
X413371Y156299D01*
X413556Y156254D01*
X413591Y156252D01*
X413625Y156245D01*
X413936Y156226D01*
X422804Y156226D01*
X422968Y156240D01*
X423132Y156247D01*
X423192Y156260D01*
X423253Y156266D01*
X423412Y156309D01*
X423572Y156344D01*
X423628Y156368D01*
X423687Y156384D01*
X423835Y156454D01*
X423988Y156518D01*
X424039Y156551D01*
X424094Y156577D01*
X424227Y156673D01*
X424366Y156762D01*
X424424Y156813D01*
X424460Y156840D01*
X424502Y156883D01*
X424600Y156969D01*
X426096Y158465D01*
X426201Y158591D01*
X426313Y158712D01*
X426345Y158764D01*
X426384Y158810D01*
X426466Y158953D01*
X426554Y159092D01*
X426578Y159148D01*
X426608Y159201D01*
X426663Y159356D01*
X426725Y159508D01*
X426738Y159568D01*
X426759Y159626D01*
X426785Y159788D01*
X426820Y159949D01*
X426825Y160026D01*
X426832Y160070D01*
X426831Y160131D01*
X426839Y160261D01*
X426839Y208021D01*
X428386Y211756D01*
X448499Y231868D01*
X448583Y231968D01*
X448673Y232061D01*
X448727Y232141D01*
X448788Y232214D01*
X448852Y232327D01*
X448925Y232434D01*
X448964Y232522D01*
X449011Y232605D01*
X449055Y232727D01*
X449108Y232846D01*
X449130Y232939D01*
X449162Y233029D01*
X449183Y233158D01*
X449214Y233284D01*
X449220Y233379D01*
X449236Y233473D01*
X449234Y233604D01*
X449242Y233733D01*
X449231Y233828D01*
X449230Y233924D01*
X449205Y234051D01*
X449190Y234180D01*
X449162Y234272D01*
X449144Y234366D01*
X449097Y234487D01*
X449059Y234611D01*
X449016Y234696D01*
X448982Y234786D01*
X448914Y234897D01*
X448855Y235013D01*
X448797Y235089D01*
X448748Y235170D01*
X448662Y235268D01*
X448583Y235371D01*
X448513Y235436D01*
X448450Y235508D01*
X448348Y235588D01*
X448252Y235677D01*
X448171Y235728D01*
X448096Y235787D01*
X447982Y235848D01*
X447872Y235918D01*
X447784Y235955D01*
X447700Y236000D01*
X447576Y236040D01*
X447456Y236089D01*
X447362Y236109D01*
X447271Y236139D01*
X447143Y236157D01*
X447015Y236184D01*
X446886Y236192D01*
X446825Y236200D01*
X446780Y236199D01*
X446704Y236203D01*
X320121Y236203D01*
X319980Y236191D01*
X319838Y236188D01*
X319756Y236171D01*
X319672Y236163D01*
X319536Y236126D01*
X319397Y236098D01*
X319319Y236067D01*
X319238Y236045D01*
X319110Y235984D01*
X318979Y235932D01*
X318907Y235887D01*
X318831Y235851D01*
X318716Y235769D01*
X318596Y235694D01*
X318534Y235638D01*
X318465Y235589D01*
X318366Y235488D01*
X318261Y235393D01*
X318210Y235327D01*
X318151Y235267D01*
X318072Y235149D01*
X317985Y235038D01*
X317946Y234963D01*
X317899Y234894D01*
X317842Y234764D01*
X317776Y234639D01*
X317751Y234559D01*
X317717Y234482D01*
X317683Y234344D01*
X317641Y234209D01*
X317630Y234126D01*
X317610Y234044D01*
X317602Y233903D01*
X317584Y233763D01*
X317588Y233679D01*
X317583Y233595D01*
X317599Y233454D01*
X317606Y233313D01*
X317628Y233204D01*
X317635Y233148D01*
X317650Y233098D01*
X317668Y233007D01*
X317923Y232056D01*
X317923Y228761D01*
X310383Y228761D01*
X310382Y228761D01*
X300462Y228761D01*
X300428Y228758D01*
X300393Y228760D01*
X300204Y228738D01*
X300014Y228721D01*
X299980Y228712D01*
X299946Y228708D01*
X299763Y228652D01*
X299579Y228602D01*
X299548Y228588D01*
X299515Y228577D01*
X299344Y228491D01*
X299173Y228409D01*
X299145Y228389D01*
X299114Y228373D01*
X298962Y228258D01*
X298807Y228147D01*
X298782Y228122D01*
X298755Y228101D01*
X298626Y227961D01*
X298493Y227824D01*
X298473Y227795D01*
X298450Y227770D01*
X298347Y227609D01*
X298241Y227451D01*
X298227Y227419D01*
X298208Y227390D01*
X298136Y227214D01*
X298058Y227039D01*
X298050Y227006D01*
X298037Y226974D01*
X297997Y226787D01*
X297952Y226602D01*
X297950Y226567D01*
X297942Y226533D01*
X297923Y226222D01*
X297923Y226221D01*
X297926Y226187D01*
X297924Y226152D01*
X297946Y225963D01*
X297963Y225773D01*
X297972Y225739D01*
X297976Y225705D01*
X298031Y225522D01*
X298081Y225338D01*
X298096Y225307D01*
X298106Y225274D01*
X298193Y225103D01*
X298275Y224932D01*
X298295Y224904D01*
X298311Y224873D01*
X298426Y224721D01*
X298537Y224566D01*
X298562Y224541D01*
X298583Y224514D01*
X298723Y224385D01*
X298860Y224252D01*
X298888Y224232D01*
X298914Y224209D01*
X299075Y224106D01*
X299233Y223999D01*
X299264Y223985D01*
X299294Y223967D01*
X299470Y223894D01*
X299644Y223817D01*
X299678Y223809D01*
X299710Y223796D01*
X299897Y223756D01*
X300082Y223711D01*
X300116Y223708D01*
X300150Y223701D01*
X300462Y223682D01*
X310382Y223682D01*
X310383Y223682D01*
X317923Y223682D01*
X317923Y221855D01*
X317938Y221691D01*
X317944Y221526D01*
X317958Y221467D01*
X317963Y221406D01*
X318006Y221247D01*
X318042Y221087D01*
X318065Y221030D01*
X318081Y220972D01*
X318152Y220824D01*
X318215Y220671D01*
X318249Y220620D01*
X318275Y220565D01*
X318370Y220432D01*
X318460Y220293D01*
X318511Y220235D01*
X318537Y220199D01*
X318581Y220156D01*
X318667Y220059D01*
X320551Y218175D01*
X320716Y217777D01*
X320814Y217589D01*
X320910Y217400D01*
X320918Y217390D01*
X320924Y217378D01*
X321054Y217210D01*
X321182Y217042D01*
X321192Y217033D01*
X321200Y217022D01*
X321357Y216880D01*
X321513Y216736D01*
X321524Y216729D01*
X321534Y216720D01*
X321714Y216608D01*
X321893Y216495D01*
X321905Y216490D01*
X321916Y216483D01*
X322114Y216404D01*
X322309Y216324D01*
X322322Y216321D01*
X322335Y216316D01*
X322542Y216274D01*
X322750Y216229D01*
X322765Y216228D01*
X322776Y216226D01*
X322815Y216225D01*
X323062Y216210D01*
X335827Y216210D01*
X335991Y216224D01*
X336155Y216231D01*
X336215Y216244D01*
X336276Y216250D01*
X336435Y216293D01*
X336595Y216328D01*
X336651Y216352D01*
X336710Y216368D01*
X336858Y216438D01*
X337010Y216502D01*
X337062Y216535D01*
X337117Y216561D01*
X337250Y216657D01*
X337389Y216746D01*
X337446Y216797D01*
X337483Y216824D01*
X337525Y216867D01*
X337623Y216953D01*
X338403Y217733D01*
X340644Y218662D01*
X353069Y218662D01*
X354385Y218117D01*
X354542Y218067D01*
X354696Y218011D01*
X354756Y218000D01*
X354814Y217982D01*
X354978Y217961D01*
X355139Y217933D01*
X355200Y217933D01*
X355261Y217925D01*
X355425Y217934D01*
X355590Y217934D01*
X355650Y217945D01*
X355711Y217948D01*
X355871Y217985D01*
X356033Y218015D01*
X356106Y218040D01*
X356149Y218050D01*
X356205Y218074D01*
X356328Y218117D01*
X357644Y218662D01*
X370069Y218662D01*
X372310Y217733D01*
X372994Y217049D01*
X373129Y216936D01*
X373259Y216818D01*
X373301Y216792D01*
X373340Y216760D01*
X373492Y216673D01*
X373641Y216580D01*
X373687Y216561D01*
X373731Y216537D01*
X373896Y216478D01*
X374059Y216413D01*
X374108Y216403D01*
X374155Y216386D01*
X374328Y216357D01*
X374500Y216322D01*
X374562Y216318D01*
X374599Y216312D01*
X374662Y216313D01*
X374812Y216305D01*
X375753Y216313D01*
X375906Y216328D01*
X376059Y216335D01*
X376130Y216350D01*
X376201Y216357D01*
X376349Y216399D01*
X376499Y216432D01*
X376565Y216460D01*
X376635Y216479D01*
X376773Y216547D01*
X376914Y216606D01*
X376975Y216645D01*
X377040Y216676D01*
X377163Y216767D01*
X377292Y216850D01*
X377362Y216912D01*
X377403Y216942D01*
X377443Y216983D01*
X377527Y217057D01*
X378403Y217933D01*
X380644Y218862D01*
X393069Y218862D01*
X395310Y217933D01*
X397194Y216049D01*
X397320Y215944D01*
X397441Y215832D01*
X397493Y215800D01*
X397539Y215760D01*
X397682Y215679D01*
X397821Y215591D01*
X397877Y215567D01*
X397930Y215537D01*
X398085Y215482D01*
X398237Y215420D01*
X398297Y215407D01*
X398355Y215386D01*
X398517Y215359D01*
X398678Y215325D01*
X398755Y215320D01*
X398799Y215313D01*
X398860Y215314D01*
X398990Y215306D01*
X401317Y215306D01*
X401317Y207265D01*
X401317Y199224D01*
X398990Y199224D01*
X398826Y199210D01*
X398661Y199203D01*
X398602Y199190D01*
X398541Y199184D01*
X398382Y199141D01*
X398222Y199105D01*
X398166Y199082D01*
X398107Y199066D01*
X397959Y198995D01*
X397806Y198932D01*
X397755Y198898D01*
X397700Y198872D01*
X397567Y198777D01*
X397428Y198687D01*
X397370Y198636D01*
X397334Y198610D01*
X397291Y198567D01*
X397194Y198480D01*
X395310Y196596D01*
X393069Y195668D01*
X380456Y195668D01*
X380422Y195665D01*
X380387Y195667D01*
X380198Y195645D01*
X380008Y195628D01*
X379975Y195619D01*
X379940Y195615D01*
X379757Y195560D01*
X379574Y195510D01*
X379542Y195495D01*
X379509Y195485D01*
X379339Y195398D01*
X379167Y195316D01*
X379139Y195296D01*
X379108Y195280D01*
X378956Y195165D01*
X378801Y195054D01*
X378777Y195029D01*
X378749Y195008D01*
X378620Y194868D01*
X378487Y194732D01*
X378467Y194703D01*
X378444Y194677D01*
X378341Y194516D01*
X378235Y194358D01*
X378221Y194327D01*
X378202Y194298D01*
X378130Y194121D01*
X378052Y193947D01*
X378044Y193913D01*
X378031Y193881D01*
X377991Y193694D01*
X377946Y193509D01*
X377944Y193475D01*
X377936Y193441D01*
X377917Y193129D01*
X377917Y178570D01*
X376989Y176329D01*
X376777Y176117D01*
X376755Y176091D01*
X376729Y176068D01*
X376611Y175919D01*
X376488Y175772D01*
X376471Y175742D01*
X376449Y175715D01*
X376359Y175547D01*
X376265Y175381D01*
X376253Y175349D01*
X376237Y175318D01*
X376178Y175136D01*
X376114Y174957D01*
X376108Y174923D01*
X376098Y174890D01*
X376072Y174700D01*
X376040Y174513D01*
X376041Y174478D01*
X376036Y174444D01*
X376044Y174252D01*
X376047Y174062D01*
X376053Y174028D01*
X376055Y173994D01*
X376096Y173808D01*
X376132Y173620D01*
X376145Y173588D01*
X376152Y173554D01*
X376226Y173378D01*
X376294Y173200D01*
X376312Y173171D01*
X376326Y173139D01*
X376429Y172979D01*
X376528Y172816D01*
X376551Y172790D01*
X376570Y172761D01*
X376777Y172526D01*
X376989Y172314D01*
X377917Y170074D01*
X377917Y155456D01*
X377033Y153323D01*
X377009Y153244D01*
X376975Y153169D01*
X376942Y153030D01*
X376899Y152893D01*
X376888Y152811D01*
X376869Y152731D01*
X376860Y152589D01*
X376842Y152446D01*
X376846Y152364D01*
X376841Y152282D01*
X376858Y152139D01*
X376865Y151997D01*
X376884Y151917D01*
X376893Y151835D01*
X376935Y151697D01*
X376967Y151558D01*
X377000Y151483D01*
X377023Y151404D01*
X377088Y151276D01*
X377145Y151144D01*
X377190Y151076D01*
X377228Y151002D01*
X377314Y150888D01*
X377393Y150769D01*
X377450Y150709D01*
X377500Y150644D01*
X377605Y150546D01*
X377704Y150443D01*
X377770Y150394D01*
X377831Y150338D01*
X377952Y150261D01*
X378067Y150177D01*
X378141Y150141D01*
X378211Y150097D01*
X378343Y150042D01*
X378472Y149979D01*
X378551Y149957D01*
X378627Y149926D01*
X378767Y149895D01*
X378905Y149856D01*
X378987Y149848D01*
X379067Y149831D01*
X379313Y149816D01*
X379353Y149812D01*
X379364Y149813D01*
X379379Y149812D01*
X390220Y149812D01*
X390255Y149815D01*
G37*
%LPC*%
G36*
X180000Y390039D02*
X180000Y390039D01*
X162521Y390039D01*
X162964Y391400D01*
X163690Y392825D01*
X164630Y394119D01*
X165761Y395250D01*
X166953Y396116D01*
X166996Y396154D01*
X167043Y396185D01*
X167165Y396301D01*
X167292Y396412D01*
X167328Y396456D01*
X167369Y396495D01*
X167468Y396631D01*
X167574Y396764D01*
X167601Y396813D01*
X167634Y396859D01*
X167708Y397010D01*
X167790Y397159D01*
X167807Y397213D01*
X167832Y397263D01*
X167878Y397426D01*
X167932Y397586D01*
X167940Y397642D01*
X167955Y397696D01*
X167972Y397865D01*
X167996Y398032D01*
X167994Y398088D01*
X168000Y398144D01*
X167986Y398313D01*
X167981Y398482D01*
X167969Y398537D01*
X167964Y398593D01*
X167922Y398756D01*
X167886Y398922D01*
X167865Y398974D01*
X167850Y399029D01*
X167779Y399182D01*
X167715Y399339D01*
X167685Y399386D01*
X167661Y399438D01*
X167564Y399576D01*
X167473Y399719D01*
X167435Y399760D01*
X167403Y399806D01*
X167283Y399925D01*
X167168Y400050D01*
X167123Y400084D01*
X167084Y400124D01*
X166944Y400220D01*
X166810Y400322D01*
X166760Y400347D01*
X166713Y400380D01*
X166432Y400517D01*
X164610Y401271D01*
X160751Y405130D01*
X158663Y410172D01*
X158663Y415628D01*
X160751Y420670D01*
X164610Y424529D01*
X169652Y426617D01*
X190348Y426617D01*
X195390Y424529D01*
X199249Y420670D01*
X201337Y415628D01*
X201337Y410172D01*
X199249Y405130D01*
X195390Y401271D01*
X193568Y400517D01*
X193518Y400491D01*
X193465Y400471D01*
X193318Y400386D01*
X193169Y400308D01*
X193124Y400274D01*
X193075Y400245D01*
X192946Y400136D01*
X192813Y400032D01*
X192775Y399991D01*
X192732Y399954D01*
X192624Y399824D01*
X192511Y399698D01*
X192481Y399650D01*
X192445Y399607D01*
X192362Y399459D01*
X192273Y399316D01*
X192252Y399264D01*
X192225Y399214D01*
X192169Y399055D01*
X192106Y398898D01*
X192095Y398842D01*
X192077Y398789D01*
X192050Y398622D01*
X192016Y398456D01*
X192015Y398400D01*
X192006Y398344D01*
X192010Y398175D01*
X192006Y398006D01*
X192014Y397951D01*
X192015Y397894D01*
X192048Y397729D01*
X192074Y397561D01*
X192093Y397508D01*
X192104Y397453D01*
X192166Y397296D01*
X192221Y397136D01*
X192248Y397086D01*
X192269Y397034D01*
X192358Y396890D01*
X192440Y396742D01*
X192476Y396699D01*
X192505Y396651D01*
X192618Y396525D01*
X192725Y396394D01*
X192768Y396357D01*
X192806Y396315D01*
X193047Y396116D01*
X194239Y395250D01*
X195370Y394119D01*
X196310Y392825D01*
X197036Y391400D01*
X197479Y390039D01*
X180000Y390039D01*
X180000Y390039D01*
G37*
%LPD*%
%LPC*%
G36*
X335872Y352273D02*
X335872Y352273D01*
X330830Y354361D01*
X326971Y358220D01*
X324883Y363262D01*
X324883Y383958D01*
X326971Y389000D01*
X330830Y392859D01*
X335872Y394947D01*
X341328Y394947D01*
X346370Y392859D01*
X350229Y389000D01*
X352317Y383958D01*
X352317Y363262D01*
X350229Y358220D01*
X346370Y354361D01*
X341328Y352273D01*
X335872Y352273D01*
G37*
%LPD*%
%LPC*%
G36*
X86503Y387621D02*
X86503Y387621D01*
X78021Y396103D01*
X78021Y408097D01*
X86503Y416579D01*
X98497Y416579D01*
X106979Y408097D01*
X106979Y396103D01*
X98497Y387621D01*
X86503Y387621D01*
G37*
%LPD*%
%LPC*%
G36*
X467003Y383921D02*
X467003Y383921D01*
X458521Y392403D01*
X458521Y404397D01*
X467003Y412879D01*
X478997Y412879D01*
X487479Y404397D01*
X487479Y392403D01*
X478997Y383921D01*
X467003Y383921D01*
G37*
%LPD*%
%LPC*%
G36*
X526403Y366621D02*
X526403Y366621D01*
X517921Y375103D01*
X517921Y387097D01*
X526403Y395579D01*
X538397Y395579D01*
X546879Y387097D01*
X546879Y375103D01*
X538397Y366621D01*
X526403Y366621D01*
G37*
%LPD*%
G36*
X268407Y51348D02*
X268407Y51348D01*
X268442Y51346D01*
X268631Y51368D01*
X268821Y51385D01*
X268855Y51394D01*
X268889Y51398D01*
X269072Y51453D01*
X269256Y51503D01*
X269287Y51518D01*
X269320Y51528D01*
X269491Y51615D01*
X269662Y51697D01*
X269691Y51717D01*
X269722Y51732D01*
X269874Y51848D01*
X270029Y51959D01*
X270053Y51984D01*
X270080Y52004D01*
X270209Y52144D01*
X270343Y52281D01*
X270362Y52310D01*
X270385Y52336D01*
X270488Y52497D01*
X270595Y52654D01*
X270609Y52686D01*
X270627Y52715D01*
X270700Y52892D01*
X270777Y53066D01*
X270785Y53100D01*
X270798Y53132D01*
X270838Y53319D01*
X270884Y53504D01*
X270886Y53538D01*
X270893Y53572D01*
X270912Y53884D01*
X270912Y53924D01*
X278453Y53924D01*
X278487Y53927D01*
X278522Y53925D01*
X278711Y53947D01*
X278901Y53964D01*
X278935Y53973D01*
X278969Y53977D01*
X279152Y54033D01*
X279336Y54083D01*
X279367Y54097D01*
X279400Y54108D01*
X279571Y54194D01*
X279742Y54276D01*
X279770Y54296D01*
X279801Y54312D01*
X279953Y54427D01*
X280108Y54538D01*
X280132Y54563D01*
X280160Y54584D01*
X280289Y54724D01*
X280422Y54861D01*
X280442Y54890D01*
X280465Y54915D01*
X280568Y55076D01*
X280674Y55234D01*
X280688Y55266D01*
X280707Y55295D01*
X280779Y55471D01*
X280857Y55646D01*
X280865Y55679D01*
X280878Y55711D01*
X280918Y55898D01*
X280963Y56083D01*
X280965Y56118D01*
X280973Y56152D01*
X280992Y56463D01*
X280992Y56464D01*
X280989Y56498D01*
X280991Y56533D01*
X280969Y56722D01*
X280952Y56912D01*
X280943Y56946D01*
X280939Y56980D01*
X280884Y57163D01*
X280833Y57347D01*
X280819Y57378D01*
X280809Y57411D01*
X280722Y57582D01*
X280640Y57753D01*
X280620Y57781D01*
X280604Y57812D01*
X280489Y57964D01*
X280378Y58119D01*
X280353Y58144D01*
X280332Y58171D01*
X280192Y58300D01*
X280055Y58433D01*
X280027Y58453D01*
X280001Y58476D01*
X279840Y58579D01*
X279682Y58685D01*
X279651Y58699D01*
X279621Y58718D01*
X279445Y58791D01*
X279270Y58868D01*
X279237Y58876D01*
X279205Y58889D01*
X279018Y58929D01*
X278833Y58974D01*
X278799Y58976D01*
X278765Y58984D01*
X278453Y59003D01*
X270912Y59003D01*
X270912Y62298D01*
X271121Y63078D01*
X271140Y63118D01*
X271146Y63140D01*
X271155Y63162D01*
X271203Y63357D01*
X271254Y63553D01*
X271256Y63577D01*
X271262Y63599D01*
X271274Y63800D01*
X271290Y64002D01*
X271288Y64025D01*
X271289Y64049D01*
X271266Y64250D01*
X271246Y64450D01*
X271240Y64472D01*
X271237Y64496D01*
X271179Y64690D01*
X271124Y64883D01*
X271114Y64904D01*
X271107Y64927D01*
X271015Y65107D01*
X270927Y65288D01*
X270913Y65307D01*
X270903Y65328D01*
X270781Y65489D01*
X270662Y65652D01*
X270645Y65668D01*
X270631Y65687D01*
X270482Y65824D01*
X270336Y65963D01*
X270317Y65976D01*
X270300Y65992D01*
X270129Y66101D01*
X269961Y66212D01*
X269940Y66221D01*
X269920Y66234D01*
X269733Y66311D01*
X269548Y66391D01*
X269525Y66396D01*
X269503Y66405D01*
X269306Y66447D01*
X269110Y66493D01*
X269086Y66495D01*
X269063Y66500D01*
X268751Y66519D01*
X264482Y66519D01*
X264318Y66504D01*
X264154Y66498D01*
X264094Y66484D01*
X264034Y66479D01*
X263875Y66436D01*
X263714Y66400D01*
X263658Y66376D01*
X263599Y66360D01*
X263451Y66290D01*
X263299Y66226D01*
X263248Y66193D01*
X263193Y66167D01*
X263059Y66071D01*
X262921Y65982D01*
X262863Y65931D01*
X262826Y65905D01*
X262784Y65861D01*
X262687Y65775D01*
X261737Y64826D01*
X261632Y64700D01*
X261520Y64579D01*
X261488Y64527D01*
X261449Y64481D01*
X261367Y64338D01*
X261279Y64199D01*
X261255Y64143D01*
X261225Y64090D01*
X261170Y63935D01*
X261108Y63783D01*
X261095Y63723D01*
X261074Y63665D01*
X261048Y63503D01*
X261013Y63342D01*
X261008Y63265D01*
X261001Y63221D01*
X261002Y63160D01*
X260994Y63030D01*
X260994Y61203D01*
X253453Y61203D01*
X253419Y61200D01*
X253384Y61202D01*
X253195Y61180D01*
X253005Y61163D01*
X252971Y61154D01*
X252937Y61150D01*
X252754Y61095D01*
X252570Y61045D01*
X252539Y61030D01*
X252506Y61020D01*
X252335Y60933D01*
X252164Y60851D01*
X252136Y60831D01*
X252105Y60815D01*
X251953Y60700D01*
X251798Y60589D01*
X251774Y60564D01*
X251746Y60543D01*
X251617Y60403D01*
X251484Y60266D01*
X251464Y60238D01*
X251441Y60212D01*
X251338Y60051D01*
X251232Y59893D01*
X251218Y59862D01*
X251199Y59832D01*
X251127Y59656D01*
X251049Y59482D01*
X251041Y59448D01*
X251028Y59416D01*
X250988Y59229D01*
X250943Y59044D01*
X250941Y59010D01*
X250933Y58976D01*
X250914Y58664D01*
X250914Y58663D01*
X250917Y58629D01*
X250915Y58595D01*
X250915Y58594D01*
X250937Y58405D01*
X250954Y58215D01*
X250963Y58182D01*
X250967Y58147D01*
X251022Y57964D01*
X251072Y57781D01*
X251087Y57749D01*
X251097Y57716D01*
X251184Y57546D01*
X251266Y57374D01*
X251286Y57346D01*
X251302Y57315D01*
X251417Y57163D01*
X251528Y57008D01*
X251553Y56984D01*
X251574Y56956D01*
X251714Y56827D01*
X251851Y56694D01*
X251879Y56674D01*
X251905Y56651D01*
X252066Y56548D01*
X252224Y56442D01*
X252255Y56428D01*
X252285Y56409D01*
X252461Y56337D01*
X252636Y56259D01*
X252669Y56251D01*
X252701Y56238D01*
X252888Y56198D01*
X253073Y56153D01*
X253107Y56151D01*
X253141Y56143D01*
X253453Y56124D01*
X261023Y56124D01*
X261029Y56045D01*
X261032Y56033D01*
X261034Y56019D01*
X261044Y55982D01*
X261047Y55958D01*
X261085Y55830D01*
X261090Y55814D01*
X261143Y55610D01*
X261149Y55598D01*
X261152Y55585D01*
X261172Y55543D01*
X261177Y55527D01*
X261221Y55440D01*
X261243Y55394D01*
X261332Y55201D01*
X261340Y55190D01*
X261346Y55178D01*
X261376Y55136D01*
X261381Y55125D01*
X261419Y55076D01*
X261468Y55007D01*
X261591Y54832D01*
X261600Y54823D01*
X261608Y54812D01*
X261650Y54771D01*
X261653Y54767D01*
X261677Y54745D01*
X261760Y54664D01*
X261910Y54515D01*
X261921Y54508D01*
X261930Y54498D01*
X261983Y54462D01*
X261985Y54461D01*
X261991Y54457D01*
X262106Y54379D01*
X262280Y54259D01*
X262295Y54252D01*
X262303Y54246D01*
X262339Y54230D01*
X262561Y54122D01*
X264704Y53235D01*
X265850Y52088D01*
X265976Y51983D01*
X266097Y51871D01*
X266148Y51839D01*
X266195Y51800D01*
X266338Y51718D01*
X266477Y51630D01*
X266533Y51606D01*
X266586Y51576D01*
X266741Y51521D01*
X266893Y51459D01*
X266953Y51446D01*
X267011Y51425D01*
X267173Y51399D01*
X267334Y51364D01*
X267411Y51359D01*
X267455Y51352D01*
X267516Y51353D01*
X267645Y51345D01*
X268373Y51345D01*
X268407Y51348D01*
G37*
%LPC*%
G36*
X264939Y393929D02*
X264939Y393929D01*
X264939Y408869D01*
X266300Y408426D01*
X267725Y407700D01*
X269019Y406760D01*
X270150Y405629D01*
X271090Y404335D01*
X271816Y402910D01*
X272311Y401389D01*
X272561Y399810D01*
X272561Y393929D01*
X264939Y393929D01*
G37*
%LPD*%
%LPC*%
G36*
X264939Y388851D02*
X264939Y388851D01*
X272561Y388851D01*
X272561Y382970D01*
X272311Y381391D01*
X271816Y379870D01*
X271090Y378445D01*
X270150Y377151D01*
X269019Y376020D01*
X267725Y375080D01*
X266300Y374354D01*
X264939Y373911D01*
X264939Y388851D01*
G37*
%LPD*%
%LPC*%
G36*
X252239Y393929D02*
X252239Y393929D01*
X252239Y399810D01*
X252489Y401389D01*
X252984Y402910D01*
X253710Y404335D01*
X254650Y405629D01*
X255781Y406760D01*
X257075Y407700D01*
X258500Y408426D01*
X259861Y408869D01*
X259861Y393929D01*
X252239Y393929D01*
G37*
%LPD*%
%LPC*%
G36*
X258500Y374354D02*
X258500Y374354D01*
X257075Y375080D01*
X255781Y376020D01*
X254650Y377151D01*
X253710Y378445D01*
X252984Y379870D01*
X252489Y381391D01*
X252239Y382970D01*
X252239Y388851D01*
X259861Y388851D01*
X259861Y373911D01*
X258500Y374354D01*
G37*
%LPD*%
%LPC*%
G36*
X585739Y383639D02*
X585739Y383639D01*
X585739Y392023D01*
X587724Y392023D01*
X594123Y385624D01*
X594123Y383639D01*
X585739Y383639D01*
G37*
%LPD*%
%LPC*%
G36*
X95039Y353839D02*
X95039Y353839D01*
X95039Y362223D01*
X97024Y362223D01*
X103423Y355824D01*
X103423Y353839D01*
X95039Y353839D01*
G37*
%LPD*%
%LPC*%
G36*
X475539Y350139D02*
X475539Y350139D01*
X475539Y358523D01*
X477524Y358523D01*
X483923Y352124D01*
X483923Y350139D01*
X475539Y350139D01*
G37*
%LPD*%
%LPC*%
G36*
X572277Y383639D02*
X572277Y383639D01*
X572277Y385624D01*
X578676Y392023D01*
X580661Y392023D01*
X580661Y383639D01*
X572277Y383639D01*
G37*
%LPD*%
%LPC*%
G36*
X585739Y370177D02*
X585739Y370177D01*
X585739Y378561D01*
X594123Y378561D01*
X594123Y376576D01*
X587724Y370177D01*
X585739Y370177D01*
G37*
%LPD*%
%LPC*%
G36*
X81577Y353839D02*
X81577Y353839D01*
X81577Y355824D01*
X87976Y362223D01*
X89961Y362223D01*
X89961Y353839D01*
X81577Y353839D01*
G37*
%LPD*%
%LPC*%
G36*
X475539Y336677D02*
X475539Y336677D01*
X475539Y345061D01*
X483923Y345061D01*
X483923Y343076D01*
X477524Y336677D01*
X475539Y336677D01*
G37*
%LPD*%
%LPC*%
G36*
X462077Y350139D02*
X462077Y350139D01*
X462077Y352124D01*
X468476Y358523D01*
X470461Y358523D01*
X470461Y350139D01*
X462077Y350139D01*
G37*
%LPD*%
%LPC*%
G36*
X95039Y340377D02*
X95039Y340377D01*
X95039Y348761D01*
X103423Y348761D01*
X103423Y346776D01*
X97024Y340377D01*
X95039Y340377D01*
G37*
%LPD*%
%LPC*%
G36*
X578676Y370177D02*
X578676Y370177D01*
X572277Y376576D01*
X572277Y378561D01*
X580661Y378561D01*
X580661Y370177D01*
X578676Y370177D01*
G37*
%LPD*%
%LPC*%
G36*
X468476Y336677D02*
X468476Y336677D01*
X462077Y343076D01*
X462077Y345061D01*
X470461Y345061D01*
X470461Y336677D01*
X468476Y336677D01*
G37*
%LPD*%
%LPC*%
G36*
X87976Y340377D02*
X87976Y340377D01*
X81577Y346776D01*
X81577Y348761D01*
X89961Y348761D01*
X89961Y340377D01*
X87976Y340377D01*
G37*
%LPD*%
%LPC*%
G36*
X521049Y100759D02*
X521049Y100759D01*
X521049Y107551D01*
X528341Y107551D01*
X528341Y102965D01*
X528168Y102319D01*
X527833Y101740D01*
X527360Y101267D01*
X526781Y100932D01*
X526135Y100759D01*
X521049Y100759D01*
G37*
%LPD*%
%LPC*%
G36*
X507465Y100759D02*
X507465Y100759D01*
X506819Y100932D01*
X506240Y101267D01*
X505767Y101740D01*
X505432Y102319D01*
X505259Y102965D01*
X505259Y107551D01*
X512551Y107551D01*
X512551Y100759D01*
X507465Y100759D01*
G37*
%LPD*%
%LPC*%
G36*
X508139Y88939D02*
X508139Y88939D01*
X508139Y95545D01*
X509388Y95545D01*
X514745Y90188D01*
X514745Y88939D01*
X508139Y88939D01*
G37*
%LPD*%
%LPC*%
G36*
X220123Y329474D02*
X220123Y329474D01*
X220123Y330617D01*
X225332Y335825D01*
X226475Y335825D01*
X226475Y329474D01*
X220123Y329474D01*
G37*
%LPD*%
%LPC*%
G36*
X114623Y309174D02*
X114623Y309174D01*
X114623Y310317D01*
X119832Y315525D01*
X120975Y315525D01*
X120975Y309174D01*
X114623Y309174D01*
G37*
%LPD*%
%LPC*%
G36*
X225332Y318044D02*
X225332Y318044D01*
X220123Y323252D01*
X220123Y324395D01*
X226475Y324395D01*
X226475Y318044D01*
X225332Y318044D01*
G37*
%LPD*%
%LPC*%
G36*
X119832Y297744D02*
X119832Y297744D01*
X114623Y302952D01*
X114623Y304095D01*
X120975Y304095D01*
X120975Y297744D01*
X119832Y297744D01*
G37*
%LPD*%
%LPC*%
G36*
X406396Y209804D02*
X406396Y209804D01*
X406396Y215306D01*
X409191Y215306D01*
X409837Y215132D01*
X410416Y214798D01*
X410890Y214325D01*
X411224Y213746D01*
X411397Y213099D01*
X411397Y209804D01*
X406396Y209804D01*
G37*
%LPD*%
%LPC*%
G36*
X406396Y165604D02*
X406396Y165604D01*
X406396Y171106D01*
X409191Y171106D01*
X409837Y170932D01*
X410416Y170598D01*
X410890Y170125D01*
X411224Y169546D01*
X411397Y168899D01*
X411397Y165604D01*
X406396Y165604D01*
G37*
%LPD*%
%LPC*%
G36*
X406396Y199224D02*
X406396Y199224D01*
X406396Y204725D01*
X411397Y204725D01*
X411397Y201430D01*
X411224Y200784D01*
X410890Y200205D01*
X410416Y199732D01*
X409837Y199397D01*
X409191Y199224D01*
X406396Y199224D01*
G37*
%LPD*%
%LPC*%
G36*
X458459Y193539D02*
X458459Y193539D01*
X458459Y196335D01*
X458632Y196981D01*
X458967Y197560D01*
X459440Y198033D01*
X460019Y198368D01*
X460665Y198541D01*
X463961Y198541D01*
X463961Y193539D01*
X458459Y193539D01*
G37*
%LPD*%
%LPC*%
G36*
X396316Y165604D02*
X396316Y165604D01*
X396316Y168899D01*
X396489Y169546D01*
X396823Y170125D01*
X397296Y170598D01*
X397876Y170932D01*
X398522Y171106D01*
X401317Y171106D01*
X401317Y165604D01*
X396316Y165604D01*
G37*
%LPD*%
%LPC*%
G36*
X497959Y205039D02*
X497959Y205039D01*
X497959Y206835D01*
X498132Y207481D01*
X498467Y208060D01*
X498940Y208533D01*
X499519Y208868D01*
X500165Y209041D01*
X502461Y209041D01*
X502461Y205039D01*
X497959Y205039D01*
G37*
%LPD*%
D10*
X668173Y454655D02*
X3400Y456200D01*
X4600Y600D01*
X668600Y1600D02*
X668173Y454655D01*
X666573Y955D02*
X4600Y600D01*
D11*
X253453Y58664D03*
X253453Y75664D03*
X403856Y163065D03*
X403856Y146065D03*
X310382Y226221D03*
X310382Y209221D03*
X290382Y226201D03*
X290382Y209201D03*
X268834Y226229D03*
X268834Y209229D03*
D12*
X525241Y224739D03*
D13*
X548586Y224865D03*
X252359Y327061D03*
D12*
X229014Y326935D03*
D14*
X215049Y95791D03*
X215049Y136791D03*
D15*
X360644Y185879D03*
X360644Y162765D03*
X360644Y139651D03*
D16*
X298666Y162765D03*
D17*
X234153Y76264D03*
X234153Y57264D03*
X214153Y66764D03*
D18*
X539127Y82867D03*
X539127Y65867D03*
D11*
X403856Y207265D03*
X386856Y207265D03*
X363856Y207065D03*
X346856Y207065D03*
X278453Y56464D03*
X295453Y56464D03*
X278753Y77664D03*
X295753Y77664D03*
D19*
X592544Y168038D03*
X639823Y246856D03*
X640407Y358307D03*
X592655Y90724D03*
X639854Y419530D03*
X592261Y215381D03*
X640075Y191512D03*
X639072Y68226D03*
D20*
X505600Y86400D03*
X486550Y73700D03*
X505600Y61000D03*
D21*
X175627Y241200D03*
D22*
X153227Y145300D03*
D21*
X35727Y100600D03*
X152227Y78800D03*
X35727Y214700D03*
D22*
X153727Y187700D03*
D23*
X516800Y111800D03*
X557800Y111800D03*
D24*
X74700Y24000D03*
X48700Y24200D03*
X150800Y24400D03*
X100100Y24300D03*
X125200Y24300D03*
D25*
X262400Y383770D02*
X262400Y399010D01*
X338600Y381230D02*
X338600Y365990D01*
D13*
X70959Y305261D03*
D12*
X47614Y305135D03*
D26*
X532400Y381100D03*
X583200Y381100D03*
D25*
X187620Y412900D02*
X172380Y412900D01*
X172380Y387500D02*
X187620Y387500D01*
X187620Y362100D02*
X172380Y362100D01*
D27*
X92500Y402100D03*
X92500Y351300D03*
D13*
X146859Y306761D03*
D12*
X123514Y306635D03*
D27*
X473000Y398400D03*
X473000Y347600D03*
D28*
X492050Y300604D02*
X492050Y287396D01*
X453950Y287396D02*
X453950Y300604D01*
D23*
X388500Y74000D03*
X429500Y74000D03*
X385500Y103000D03*
X426500Y103000D03*
X448500Y131000D03*
X489500Y131000D03*
D18*
X487000Y172500D03*
X487000Y155500D03*
X464000Y173500D03*
X464000Y156500D03*
X466500Y191000D03*
X483500Y191000D03*
D17*
X505000Y183500D03*
X505000Y202500D03*
X525000Y193000D03*
D18*
X521000Y147500D03*
X521000Y164500D03*
D19*
X638000Y134000D03*
D29*
X252053Y57264D02*
X234153Y57264D01*
X252053Y57264D02*
X253453Y58664D01*
X255653Y56464D02*
X278453Y56464D01*
X255653Y56464D02*
X253453Y58664D01*
X290382Y226201D02*
X309403Y226221D01*
X289862Y226201D02*
X268834Y226229D01*
D30*
X208600Y53700D03*
X422600Y160700D03*
D29*
X234153Y57264D02*
X234153Y57253D01*
X230600Y53700D01*
X208600Y53700D01*
X310382Y226221D02*
X393579Y226221D01*
X403400Y216400D01*
X403400Y207721D01*
X403856Y207265D01*
X329362Y226201D02*
X290382Y226201D01*
X310382Y226221D02*
X329362Y226201D01*
X309354Y226229D02*
X268834Y226229D01*
X290382Y226201D02*
X309354Y226229D01*
D31*
X227100Y219300D03*
D29*
X227100Y187920D01*
X227060Y185340D01*
D31*
X227060Y185340D03*
D32*
X215800Y208000D02*
X227100Y219300D01*
X215800Y208000D02*
X167000Y208000D01*
X123514Y251486D01*
X123514Y306635D01*
D33*
X473000Y347600D02*
X549700Y347600D01*
X583200Y381100D01*
D29*
X268834Y226229D02*
X234029Y226229D01*
X227100Y219300D01*
D32*
X403856Y207265D02*
X403856Y202444D01*
X403856Y207265D02*
X403856Y163065D01*
X420235Y163065D01*
X422600Y160700D01*
X502500Y202500D02*
X505000Y202500D01*
X502500Y202500D02*
X494000Y211000D01*
X474000Y211000D01*
X466000Y203000D01*
X466500Y202500D01*
X466500Y191000D01*
X464000Y188500D02*
X464000Y173500D01*
X464000Y188500D02*
X466500Y191000D01*
X512500Y210000D02*
X538000Y210000D01*
X512500Y210000D02*
X505000Y202500D01*
X505600Y100600D02*
X505600Y86400D01*
X505600Y100600D02*
X516800Y111800D01*
D34*
X516800Y112800D01*
D32*
X538000Y210000D02*
X548586Y220586D01*
X548586Y224865D01*
X548586Y143586D01*
X516800Y111800D01*
D30*
X345062Y45162D03*
X289600Y193700D03*
D29*
X330600Y193700D01*
X337600Y185700D01*
D30*
X337600Y185700D03*
D29*
X298666Y168200D02*
X298666Y162765D01*
X298666Y168200D02*
X298666Y184634D01*
X289600Y193700D01*
X309403Y209221D02*
X310382Y209221D01*
D30*
X248600Y109700D03*
D29*
X244600Y113700D01*
X244600Y138700D01*
X240600Y142700D01*
D30*
X240600Y142700D03*
X209500Y157400D03*
X258400Y43800D03*
D29*
X341900Y45325D02*
X345062Y45162D01*
X297166Y166700D02*
X298666Y168200D01*
X328600Y44000D02*
X328800Y44000D01*
X328600Y44000D02*
X326800Y42200D01*
X260000Y42200D01*
X258400Y43800D01*
X295231Y166200D02*
X294531Y166900D01*
X295231Y166200D02*
X298666Y162765D01*
X295231Y166200D02*
X295231Y167569D01*
X291900Y170900D01*
X216400Y170900D01*
X210800Y165300D01*
X210800Y158700D01*
X209500Y157400D01*
X329962Y45162D02*
X345062Y45162D01*
X329962Y45162D02*
X328800Y44000D01*
X312539Y207065D02*
X346856Y207065D01*
X312539Y207065D02*
X310382Y209221D01*
X310362Y209201D01*
X290382Y209201D01*
X289806Y209201D01*
X268862Y209201D01*
X268834Y209229D01*
X289600Y208995D02*
X289600Y193700D01*
X289600Y208995D02*
X289806Y209201D01*
D34*
X153727Y187700D02*
X153727Y183673D01*
X201600Y135800D01*
X214039Y135800D01*
X215049Y136791D01*
X70959Y270467D02*
X70959Y305261D01*
X70959Y270467D02*
X153727Y187700D01*
X252359Y310359D02*
X252359Y327061D01*
X252359Y310359D02*
X239000Y297000D01*
X214000Y297000D01*
X176000Y335000D01*
X116000Y335000D01*
X88000Y307000D01*
X72698Y307000D01*
X70959Y305261D01*
D29*
X360644Y185879D02*
X362556Y187791D01*
X363856Y207065D02*
X386856Y207265D01*
X362556Y205765D02*
X362556Y187791D01*
X362556Y205765D02*
X363856Y207065D01*
X277853Y75664D02*
X253453Y75664D01*
X277853Y75664D02*
X278753Y77664D01*
X253453Y75664D02*
X234753Y75664D01*
X234153Y76264D01*
D32*
X457250Y103000D02*
X486550Y73700D01*
X457250Y103000D02*
X426500Y103000D01*
X505600Y61000D02*
X534260Y61000D01*
X539127Y65867D01*
D35*
X152227Y70773D02*
X152227Y78800D01*
X152227Y70773D02*
X200931Y22069D01*
X551069Y22069D01*
X592655Y63655D02*
X592655Y90724D01*
X592655Y63655D02*
X551069Y22069D01*
D30*
X574000Y142000D03*
D36*
X547050Y264950D02*
X640407Y358307D01*
X547050Y264950D02*
X537100Y255000D01*
X189427Y255000D02*
X175627Y241200D01*
X189427Y255000D02*
X537100Y255000D01*
D32*
X554000Y260000D02*
X564000Y250000D01*
X554000Y260000D02*
X552000Y260000D01*
X547050Y264950D01*
X564000Y152000D02*
X574000Y142000D01*
X564000Y152000D02*
X564000Y250000D01*
X557800Y101540D02*
X539127Y82867D01*
X557800Y101540D02*
X557800Y111800D01*
X592544Y125544D02*
X592544Y168038D01*
X592544Y125544D02*
X583000Y116000D01*
X562000Y116000D01*
X557800Y111800D01*
D29*
X214153Y66764D02*
X213600Y67317D01*
D32*
X213600Y92342D01*
D29*
X215049Y95791D01*
D34*
X214939Y93900D01*
X204627Y93900D01*
X153227Y145300D01*
X47614Y250913D02*
X47614Y305135D01*
X47614Y250913D02*
X153227Y145300D01*
D32*
X525241Y224739D02*
X525241Y227859D01*
X397442Y139651D02*
X360644Y139651D01*
X397442Y139651D02*
X403856Y146065D01*
X428065Y146065D01*
X437000Y155000D01*
X437000Y206000D01*
X455739Y224739D02*
X525241Y224739D01*
X455739Y224739D02*
X437000Y206000D01*
D29*
X295453Y76264D02*
X295453Y56464D01*
X295453Y76264D02*
X295753Y77664D01*
X429500Y74000D02*
X429500Y63500D01*
X422000Y56000D01*
X295917Y56000D01*
X295453Y56464D01*
X366500Y84000D02*
X385500Y103000D01*
X366500Y84000D02*
X360000Y84000D01*
D30*
X360000Y84000D03*
D32*
X384500Y70000D02*
X388500Y74000D01*
X384500Y70000D02*
X316000Y70000D01*
X309000Y77000D01*
X309000Y95000D02*
X304000Y100000D01*
X309000Y95000D02*
X309000Y77000D01*
D30*
X304000Y100000D03*
D32*
X436000Y131000D02*
X448500Y131000D01*
X436000Y131000D02*
X428000Y123000D01*
X376000Y123000D01*
X357000Y104000D02*
X327000Y104000D01*
X357000Y104000D02*
X376000Y123000D01*
D30*
X327000Y104000D03*
D32*
X487000Y133500D02*
X487000Y155500D01*
X487000Y133500D02*
X489500Y131000D01*
X465000Y155500D02*
X464000Y156500D01*
X465000Y155500D02*
X487000Y155500D01*
X487000Y172500D02*
X487000Y183000D01*
X487000Y187500D01*
X483500Y191000D01*
X487500Y183500D02*
X505000Y183500D01*
X487500Y183500D02*
X487000Y183000D01*
X521000Y147500D02*
X521000Y142000D01*
X509000Y130000D01*
D30*
X509000Y130000D03*
D32*
X521000Y164500D02*
X525000Y168500D01*
X525000Y193000D01*
M02*
