G75*
%MOIN*%
%OFA0B0*%
%FSLAX25Y25*%
%IPPOS*%
%LPD*%
%AMOC8*
5,1,8,0,0,1.08239X$1,22.5*
%
%ADD10C,0.00000*%
%ADD11C,0.00200*%
%ADD12C,0.00600*%
%ADD13C,0.01000*%
%ADD14C,0.00100*%
%ADD15C,0.00500*%
%ADD16C,0.00787*%
%ADD17C,0.00800*%
%ADD18C,0.00400*%
D10*
X0046060Y0028618D02*
X0306285Y0028364D01*
X0305902Y0028618D02*
X0306285Y0138640D01*
X0046060Y0138894D01*
X0046060Y0028618D01*
D11*
X0128819Y0067273D02*
X0129186Y0066906D01*
X0129920Y0066906D01*
X0130287Y0067273D01*
X0131029Y0066906D02*
X0132497Y0068374D01*
X0132497Y0068741D01*
X0132130Y0069108D01*
X0131396Y0069108D01*
X0131029Y0068741D01*
X0130287Y0068741D02*
X0129920Y0069108D01*
X0129186Y0069108D01*
X0128819Y0068741D01*
X0128819Y0067273D01*
X0131029Y0066906D02*
X0132497Y0066906D01*
X0133085Y0066559D02*
X0137676Y0066559D01*
X0137676Y0054961D01*
X0133085Y0054961D01*
X0133085Y0066559D01*
X0145390Y0070102D02*
X0146124Y0070102D01*
X0145757Y0070102D02*
X0145757Y0072304D01*
X0145390Y0072304D02*
X0146124Y0072304D01*
X0146863Y0071937D02*
X0147230Y0072304D01*
X0147964Y0072304D01*
X0148331Y0071937D01*
X0149073Y0071570D02*
X0149807Y0072304D01*
X0149807Y0070102D01*
X0149073Y0070102D02*
X0150541Y0070102D01*
X0148331Y0070469D02*
X0147964Y0070102D01*
X0147230Y0070102D01*
X0146863Y0070469D01*
X0146863Y0071937D01*
X0173366Y0085007D02*
X0173366Y0096606D01*
X0178744Y0096606D01*
X0178744Y0085007D01*
X0173366Y0085007D01*
X0165546Y0090589D02*
X0165546Y0090956D01*
X0167014Y0092424D01*
X0167014Y0092791D01*
X0165546Y0092791D01*
X0166899Y0093216D02*
X0166899Y0098594D01*
X0155300Y0098594D01*
X0155300Y0093216D01*
X0166899Y0093216D01*
X0164070Y0092791D02*
X0163336Y0092057D01*
X0162594Y0092424D02*
X0162594Y0091690D01*
X0162227Y0091323D01*
X0161126Y0091323D01*
X0161126Y0090589D02*
X0161126Y0092791D01*
X0162227Y0092791D01*
X0162594Y0092424D01*
X0161860Y0091323D02*
X0162594Y0090589D01*
X0163336Y0090589D02*
X0164804Y0090589D01*
X0164070Y0090589D02*
X0164070Y0092791D01*
X0179169Y0091934D02*
X0179536Y0092301D01*
X0180270Y0092301D01*
X0180637Y0091934D01*
X0180637Y0090833D01*
X0181371Y0090833D02*
X0179169Y0090833D01*
X0179169Y0091934D01*
X0179903Y0093043D02*
X0179169Y0093777D01*
X0181371Y0093777D01*
X0181371Y0093043D02*
X0181371Y0094511D01*
X0181004Y0095253D02*
X0181371Y0095620D01*
X0181371Y0096354D01*
X0181004Y0096720D01*
X0180270Y0096720D01*
X0179903Y0096354D01*
X0179903Y0095987D01*
X0180270Y0095253D01*
X0179169Y0095253D01*
X0179169Y0096720D01*
X0181371Y0092301D02*
X0180637Y0091567D01*
X0172149Y0103282D02*
X0160550Y0103282D01*
X0160550Y0108660D01*
X0172149Y0108660D01*
X0172149Y0103282D01*
X0165781Y0109453D02*
X0165781Y0109820D01*
X0165414Y0110187D01*
X0164313Y0110187D01*
X0164313Y0109453D01*
X0164680Y0109086D01*
X0165414Y0109086D01*
X0165781Y0109453D01*
X0165047Y0110921D02*
X0164313Y0110187D01*
X0165047Y0110921D02*
X0165781Y0111288D01*
X0162837Y0111288D02*
X0162103Y0110554D01*
X0161361Y0110187D02*
X0160994Y0109820D01*
X0159893Y0109820D01*
X0159893Y0109086D02*
X0159893Y0111288D01*
X0160994Y0111288D01*
X0161361Y0110921D01*
X0161361Y0110187D01*
X0160627Y0109820D02*
X0161361Y0109086D01*
X0162103Y0109086D02*
X0163571Y0109086D01*
X0162837Y0109086D02*
X0162837Y0111288D01*
X0204283Y0111161D02*
X0204283Y0110427D01*
X0204650Y0110060D01*
X0204650Y0109318D02*
X0204283Y0108951D01*
X0204283Y0108217D01*
X0204650Y0107850D01*
X0206118Y0107850D01*
X0206485Y0108217D01*
X0206485Y0108951D01*
X0206118Y0109318D01*
X0206118Y0110060D02*
X0206485Y0110427D01*
X0206485Y0111161D01*
X0206118Y0111528D01*
X0205751Y0111528D01*
X0205384Y0111161D01*
X0205384Y0110794D01*
X0205384Y0111161D02*
X0205017Y0111528D01*
X0204650Y0111528D01*
X0204283Y0111161D01*
X0204283Y0107110D02*
X0204283Y0106377D01*
X0204283Y0106743D02*
X0206485Y0106743D01*
X0206485Y0106377D02*
X0206485Y0107110D01*
X0225816Y0105692D02*
X0225816Y0111069D01*
X0237415Y0111069D01*
X0237415Y0105692D01*
X0225816Y0105692D01*
X0233852Y0105267D02*
X0233852Y0103065D01*
X0233852Y0103799D02*
X0234953Y0103799D01*
X0235320Y0104166D01*
X0235320Y0104900D01*
X0234953Y0105267D01*
X0233852Y0105267D01*
X0234586Y0103799D02*
X0235320Y0103065D01*
X0236062Y0103065D02*
X0237530Y0103065D01*
X0236796Y0103065D02*
X0236796Y0105267D01*
X0236062Y0104533D01*
X0237398Y0100915D02*
X0237398Y0095537D01*
X0225800Y0095537D01*
X0225800Y0100915D01*
X0237398Y0100915D01*
X0249136Y0096717D02*
X0249136Y0095249D01*
X0249503Y0094882D01*
X0250237Y0094882D01*
X0250604Y0095249D01*
X0251346Y0095249D02*
X0251346Y0094882D01*
X0251346Y0095249D02*
X0252813Y0096717D01*
X0252813Y0097084D01*
X0251346Y0097084D01*
X0250604Y0096717D02*
X0250237Y0097084D01*
X0249503Y0097084D01*
X0249136Y0096717D01*
X0237513Y0094745D02*
X0237146Y0095112D01*
X0236412Y0095112D01*
X0236045Y0094745D01*
X0235303Y0094745D02*
X0235303Y0094011D01*
X0234936Y0093644D01*
X0233835Y0093644D01*
X0233835Y0092910D02*
X0233835Y0095112D01*
X0234936Y0095112D01*
X0235303Y0094745D01*
X0234569Y0093644D02*
X0235303Y0092910D01*
X0236045Y0092910D02*
X0237513Y0094378D01*
X0237513Y0094745D01*
X0237513Y0092910D02*
X0236045Y0092910D01*
X0237471Y0090926D02*
X0237471Y0085548D01*
X0225872Y0085548D01*
X0225872Y0090926D01*
X0237471Y0090926D01*
X0237219Y0085123D02*
X0237586Y0084756D01*
X0237586Y0084389D01*
X0237219Y0084022D01*
X0237586Y0083655D01*
X0237586Y0083288D01*
X0237219Y0082921D01*
X0236485Y0082921D01*
X0236118Y0083288D01*
X0235376Y0082921D02*
X0234642Y0083655D01*
X0235009Y0083655D02*
X0233908Y0083655D01*
X0233908Y0082921D02*
X0233908Y0085123D01*
X0235009Y0085123D01*
X0235376Y0084756D01*
X0235376Y0084022D01*
X0235009Y0083655D01*
X0236118Y0084756D02*
X0236485Y0085123D01*
X0237219Y0085123D01*
X0237219Y0084022D02*
X0236852Y0084022D01*
X0237487Y0080670D02*
X0225889Y0080670D01*
X0225889Y0075292D01*
X0237487Y0075292D01*
X0237487Y0080670D01*
X0237235Y0074867D02*
X0236134Y0073766D01*
X0237602Y0073766D01*
X0237235Y0072665D02*
X0237235Y0074867D01*
X0235392Y0074500D02*
X0235392Y0073766D01*
X0235025Y0073399D01*
X0233924Y0073399D01*
X0233924Y0072665D02*
X0233924Y0074867D01*
X0235025Y0074867D01*
X0235392Y0074500D01*
X0234658Y0073399D02*
X0235392Y0072665D01*
X0249096Y0070024D02*
X0249096Y0068556D01*
X0249463Y0068189D01*
X0250197Y0068189D01*
X0250564Y0068556D01*
X0251306Y0068556D02*
X0251673Y0068189D01*
X0252407Y0068189D01*
X0252774Y0068556D01*
X0252774Y0070024D01*
X0252407Y0070391D01*
X0251673Y0070391D01*
X0251306Y0070024D01*
X0251306Y0069657D01*
X0251673Y0069290D01*
X0252774Y0069290D01*
X0250564Y0070024D02*
X0250197Y0070391D01*
X0249463Y0070391D01*
X0249096Y0070024D01*
X0222097Y0060412D02*
X0222097Y0058944D01*
X0222097Y0059678D02*
X0219895Y0059678D01*
X0220629Y0058944D01*
X0219895Y0058202D02*
X0219895Y0056735D01*
X0219895Y0057469D02*
X0222097Y0057469D01*
X0195213Y0052001D02*
X0195213Y0046623D01*
X0183614Y0046623D01*
X0183614Y0052001D01*
X0195213Y0052001D01*
X0188845Y0053528D02*
X0187377Y0053528D01*
X0188478Y0054629D01*
X0188478Y0052427D01*
X0186635Y0052427D02*
X0185168Y0052427D01*
X0185901Y0052427D02*
X0185901Y0054629D01*
X0185168Y0053895D01*
X0184426Y0053528D02*
X0184059Y0053161D01*
X0182958Y0053161D01*
X0183692Y0053161D02*
X0184426Y0052427D01*
X0184426Y0053528D02*
X0184426Y0054262D01*
X0184059Y0054629D01*
X0182958Y0054629D01*
X0182958Y0052427D01*
X0176689Y0049073D02*
X0176689Y0048339D01*
X0176322Y0047972D01*
X0174854Y0049440D01*
X0176322Y0049440D01*
X0176689Y0049073D01*
X0176322Y0047972D02*
X0174854Y0047972D01*
X0174487Y0048339D01*
X0174487Y0049073D01*
X0174854Y0049440D01*
X0176689Y0047230D02*
X0176689Y0045763D01*
X0176689Y0046497D02*
X0174487Y0046497D01*
X0175221Y0045763D01*
X0174854Y0045021D02*
X0174487Y0044654D01*
X0174487Y0043920D01*
X0174854Y0043553D01*
X0176322Y0043553D01*
X0176689Y0043920D01*
X0176689Y0044654D01*
X0176322Y0045021D01*
X0174142Y0045717D02*
X0174142Y0041126D01*
X0162544Y0041126D01*
X0162544Y0045717D01*
X0174142Y0045717D01*
X0161495Y0045847D02*
X0161495Y0051225D01*
X0149896Y0051225D01*
X0149896Y0045847D01*
X0161495Y0045847D01*
X0152917Y0052018D02*
X0152550Y0051652D01*
X0151816Y0051652D01*
X0151449Y0052018D01*
X0151816Y0052752D02*
X0152917Y0052752D01*
X0152917Y0052018D02*
X0152917Y0053486D01*
X0152550Y0053853D01*
X0151816Y0053853D01*
X0151449Y0053486D01*
X0151449Y0053119D01*
X0151816Y0052752D01*
X0150707Y0052752D02*
X0150707Y0053486D01*
X0150340Y0053853D01*
X0149239Y0053853D01*
X0149239Y0051652D01*
X0149239Y0052385D02*
X0150340Y0052385D01*
X0150707Y0052752D01*
X0149973Y0052385D02*
X0150707Y0051652D01*
X0178577Y0061944D02*
X0178577Y0063045D01*
X0178944Y0063412D01*
X0179678Y0063412D01*
X0180045Y0063045D01*
X0180045Y0061944D01*
X0180045Y0062678D02*
X0180779Y0063412D01*
X0180412Y0064154D02*
X0180045Y0064154D01*
X0179678Y0064520D01*
X0179678Y0065254D01*
X0180045Y0065621D01*
X0180412Y0065621D01*
X0180779Y0065254D01*
X0180779Y0064520D01*
X0180412Y0064154D01*
X0179678Y0064520D02*
X0179311Y0064154D01*
X0178944Y0064154D01*
X0178577Y0064520D01*
X0178577Y0065254D01*
X0178944Y0065621D01*
X0179311Y0065621D01*
X0179678Y0065254D01*
X0181206Y0062600D02*
X0186584Y0062600D01*
X0186584Y0074199D01*
X0181206Y0074199D01*
X0181206Y0062600D01*
X0180779Y0061944D02*
X0178577Y0061944D01*
X0270841Y0055640D02*
X0270841Y0053438D01*
X0270841Y0054172D02*
X0271942Y0054172D01*
X0272309Y0054539D01*
X0272309Y0055273D01*
X0271942Y0055640D01*
X0270841Y0055640D01*
X0273051Y0054906D02*
X0273051Y0053438D01*
X0273051Y0054539D02*
X0274518Y0054539D01*
X0274518Y0054906D02*
X0274518Y0053438D01*
X0275260Y0053438D02*
X0276361Y0053438D01*
X0276728Y0053805D01*
X0276728Y0055273D01*
X0276361Y0055640D01*
X0275260Y0055640D01*
X0275260Y0053438D01*
X0274518Y0054906D02*
X0273785Y0055640D01*
X0273051Y0054906D01*
X0277470Y0053071D02*
X0278938Y0053071D01*
X0279680Y0053805D02*
X0280047Y0053438D01*
X0280781Y0053438D01*
X0281148Y0053805D01*
X0281148Y0054172D01*
X0280781Y0054539D01*
X0280414Y0054539D01*
X0280781Y0054539D02*
X0281148Y0054906D01*
X0281148Y0055273D01*
X0280781Y0055640D01*
X0280047Y0055640D01*
X0279680Y0055273D01*
X0289115Y0046782D02*
X0290216Y0046782D01*
X0290583Y0046415D01*
X0290583Y0045681D01*
X0290216Y0045314D01*
X0289115Y0045314D01*
X0289115Y0044580D02*
X0289115Y0046782D01*
X0291325Y0046048D02*
X0292059Y0046782D01*
X0292793Y0046048D01*
X0292793Y0044580D01*
X0293535Y0044580D02*
X0294636Y0044580D01*
X0295003Y0044947D01*
X0295003Y0046415D01*
X0294636Y0046782D01*
X0293535Y0046782D01*
X0293535Y0044580D01*
X0292793Y0045681D02*
X0291325Y0045681D01*
X0291325Y0046048D02*
X0291325Y0044580D01*
X0295745Y0044213D02*
X0297212Y0044213D01*
X0297954Y0044947D02*
X0298321Y0044580D01*
X0299055Y0044580D01*
X0299422Y0044947D01*
X0299422Y0045314D01*
X0299055Y0045681D01*
X0297954Y0045681D01*
X0297954Y0044947D01*
X0297954Y0045681D02*
X0298688Y0046415D01*
X0299422Y0046782D01*
X0280532Y0034500D02*
X0279798Y0033766D01*
X0280532Y0034500D02*
X0280532Y0032299D01*
X0279798Y0032299D02*
X0281266Y0032299D01*
X0279056Y0031932D02*
X0277588Y0031932D01*
X0276846Y0032666D02*
X0276846Y0034133D01*
X0276479Y0034500D01*
X0275378Y0034500D01*
X0275378Y0032299D01*
X0276479Y0032299D01*
X0276846Y0032666D01*
X0274636Y0032299D02*
X0274636Y0033766D01*
X0273902Y0034500D01*
X0273168Y0033766D01*
X0273168Y0032299D01*
X0273168Y0033400D02*
X0274636Y0033400D01*
X0272426Y0033400D02*
X0272059Y0033033D01*
X0270958Y0033033D01*
X0270958Y0032299D02*
X0270958Y0034500D01*
X0272059Y0034500D01*
X0272426Y0034133D01*
X0272426Y0033400D01*
X0295877Y0074560D02*
X0297344Y0074560D01*
X0298086Y0074927D02*
X0298086Y0075294D01*
X0299554Y0076762D01*
X0299554Y0077129D01*
X0298086Y0077129D01*
X0295135Y0076762D02*
X0295135Y0075294D01*
X0294768Y0074927D01*
X0293667Y0074927D01*
X0293667Y0077129D01*
X0294768Y0077129D01*
X0295135Y0076762D01*
X0292925Y0076395D02*
X0292925Y0074927D01*
X0292925Y0076028D02*
X0291457Y0076028D01*
X0291457Y0076395D02*
X0291457Y0074927D01*
X0290715Y0076028D02*
X0290348Y0075661D01*
X0289247Y0075661D01*
X0289247Y0074927D02*
X0289247Y0077129D01*
X0290348Y0077129D01*
X0290715Y0076762D01*
X0290715Y0076028D01*
X0291457Y0076395D02*
X0292191Y0077129D01*
X0292925Y0076395D01*
X0280737Y0083876D02*
X0280737Y0086078D01*
X0279636Y0084977D01*
X0281104Y0084977D01*
X0278894Y0083509D02*
X0277426Y0083509D01*
X0276684Y0084243D02*
X0276684Y0085711D01*
X0276317Y0086078D01*
X0275217Y0086078D01*
X0275217Y0083876D01*
X0276317Y0083876D01*
X0276684Y0084243D01*
X0274475Y0083876D02*
X0274475Y0085344D01*
X0273741Y0086078D01*
X0273007Y0085344D01*
X0273007Y0083876D01*
X0273007Y0084977D02*
X0274475Y0084977D01*
X0272265Y0084977D02*
X0272265Y0085711D01*
X0271898Y0086078D01*
X0270797Y0086078D01*
X0270797Y0083876D01*
X0270797Y0084610D02*
X0271898Y0084610D01*
X0272265Y0084977D01*
X0289510Y0093118D02*
X0289510Y0095320D01*
X0290611Y0095320D01*
X0290978Y0094953D01*
X0290978Y0094219D01*
X0290611Y0093852D01*
X0289510Y0093852D01*
X0291720Y0094219D02*
X0293188Y0094219D01*
X0293188Y0094586D02*
X0293188Y0093118D01*
X0293930Y0093118D02*
X0295031Y0093118D01*
X0295398Y0093485D01*
X0295398Y0094953D01*
X0295031Y0095320D01*
X0293930Y0095320D01*
X0293930Y0093118D01*
X0293188Y0094586D02*
X0292454Y0095320D01*
X0291720Y0094586D01*
X0291720Y0093118D01*
X0296139Y0092751D02*
X0297607Y0092751D01*
X0298349Y0093485D02*
X0298716Y0093118D01*
X0299450Y0093118D01*
X0299817Y0093485D01*
X0299817Y0094219D01*
X0299450Y0094586D01*
X0299083Y0094586D01*
X0298349Y0094219D01*
X0298349Y0095320D01*
X0299817Y0095320D01*
X0280993Y0102515D02*
X0279525Y0102515D01*
X0280993Y0103983D01*
X0280993Y0104350D01*
X0280626Y0104717D01*
X0279892Y0104717D01*
X0279525Y0104350D01*
X0276573Y0104350D02*
X0276573Y0102882D01*
X0276206Y0102515D01*
X0275105Y0102515D01*
X0275105Y0104717D01*
X0276206Y0104717D01*
X0276573Y0104350D01*
X0274363Y0103983D02*
X0274363Y0102515D01*
X0274363Y0103616D02*
X0272895Y0103616D01*
X0272895Y0103983D02*
X0272895Y0102515D01*
X0272153Y0103616D02*
X0271787Y0103249D01*
X0270686Y0103249D01*
X0270686Y0102515D02*
X0270686Y0104717D01*
X0271787Y0104717D01*
X0272153Y0104350D01*
X0272153Y0103616D01*
X0272895Y0103983D02*
X0273629Y0104717D01*
X0274363Y0103983D01*
X0277315Y0102148D02*
X0278783Y0102148D01*
X0289411Y0114907D02*
X0289411Y0117109D01*
X0290512Y0117109D01*
X0290879Y0116742D01*
X0290879Y0116008D01*
X0290512Y0115641D01*
X0289411Y0115641D01*
X0291621Y0116008D02*
X0293088Y0116008D01*
X0293088Y0116375D02*
X0293088Y0114907D01*
X0293830Y0114907D02*
X0294931Y0114907D01*
X0295298Y0115274D01*
X0295298Y0116742D01*
X0294931Y0117109D01*
X0293830Y0117109D01*
X0293830Y0114907D01*
X0293088Y0116375D02*
X0292355Y0117109D01*
X0291621Y0116375D01*
X0291621Y0114907D01*
X0296040Y0114540D02*
X0297508Y0114540D01*
X0298250Y0115274D02*
X0298617Y0114907D01*
X0299351Y0114907D01*
X0299718Y0115274D01*
X0299718Y0115641D01*
X0299351Y0116008D01*
X0298617Y0116008D01*
X0298250Y0116375D01*
X0298250Y0116742D01*
X0298617Y0117109D01*
X0299351Y0117109D01*
X0299718Y0116742D01*
X0299718Y0116375D01*
X0299351Y0116008D01*
X0298617Y0116008D02*
X0298250Y0115641D01*
X0298250Y0115274D01*
X0285359Y0124018D02*
X0284992Y0123651D01*
X0284258Y0123651D01*
X0283891Y0124018D01*
X0283149Y0124018D02*
X0282782Y0123651D01*
X0281681Y0123651D01*
X0281681Y0125853D01*
X0282782Y0125853D01*
X0283149Y0125486D01*
X0283149Y0124018D01*
X0283891Y0125486D02*
X0284258Y0125853D01*
X0284992Y0125853D01*
X0285359Y0125486D01*
X0285359Y0125119D01*
X0284992Y0124752D01*
X0285359Y0124385D01*
X0285359Y0124018D01*
X0284992Y0124752D02*
X0284625Y0124752D01*
X0252617Y0121520D02*
X0252617Y0121153D01*
X0252250Y0120786D01*
X0251516Y0120786D01*
X0251149Y0121153D01*
X0251149Y0121520D01*
X0251516Y0121887D01*
X0252250Y0121887D01*
X0252617Y0121520D01*
X0252250Y0120786D02*
X0252617Y0120419D01*
X0252617Y0120052D01*
X0252250Y0119685D01*
X0251516Y0119685D01*
X0251149Y0120052D01*
X0251149Y0120419D01*
X0251516Y0120786D01*
X0250407Y0120052D02*
X0250040Y0119685D01*
X0249306Y0119685D01*
X0248939Y0120052D01*
X0248939Y0121520D01*
X0249306Y0121887D01*
X0250040Y0121887D01*
X0250407Y0121520D01*
X0243198Y0128291D02*
X0243198Y0136031D01*
X0231599Y0136031D01*
X0231599Y0128291D01*
X0243198Y0128291D01*
D12*
X0270454Y0116996D02*
X0270454Y0115390D01*
X0270454Y0116996D02*
X0272060Y0116996D01*
X0281210Y0116996D02*
X0282816Y0116996D01*
X0282816Y0115390D01*
X0289179Y0117026D02*
X0289179Y0118632D01*
X0289179Y0117026D02*
X0290785Y0117026D01*
X0299935Y0117026D02*
X0301541Y0117026D01*
X0301541Y0118632D01*
X0301541Y0127782D02*
X0301541Y0129388D01*
X0299935Y0129388D01*
X0290785Y0129388D02*
X0289179Y0129388D01*
X0289179Y0127782D01*
X0256379Y0114524D02*
X0255879Y0114524D01*
X0253879Y0114524D02*
X0253379Y0114524D01*
X0270454Y0106240D02*
X0270454Y0104634D01*
X0272060Y0104634D01*
X0281210Y0104634D02*
X0282816Y0104634D01*
X0282816Y0106240D01*
X0289278Y0105993D02*
X0289278Y0107599D01*
X0290884Y0107599D01*
X0300034Y0107599D02*
X0301640Y0107599D01*
X0301640Y0105993D01*
X0301640Y0096843D02*
X0301640Y0095237D01*
X0300034Y0095237D01*
X0290884Y0095237D02*
X0289278Y0095237D01*
X0289278Y0096843D01*
X0282927Y0096751D02*
X0282927Y0098358D01*
X0281321Y0098358D01*
X0272171Y0098358D02*
X0270565Y0098358D01*
X0270565Y0096751D01*
X0256575Y0089720D02*
X0256075Y0089720D01*
X0254075Y0089720D02*
X0253575Y0089720D01*
X0270565Y0087602D02*
X0270565Y0085995D01*
X0272171Y0085995D01*
X0281321Y0085995D02*
X0282927Y0085995D01*
X0282927Y0087602D01*
X0289015Y0087802D02*
X0289015Y0089408D01*
X0290622Y0089408D01*
X0299771Y0089408D02*
X0301377Y0089408D01*
X0301377Y0087802D01*
X0301377Y0078652D02*
X0301377Y0077046D01*
X0299771Y0077046D01*
X0290622Y0077046D02*
X0289015Y0077046D01*
X0289015Y0078652D01*
X0282971Y0067919D02*
X0281365Y0067919D01*
X0282971Y0067919D02*
X0282971Y0066313D01*
X0272215Y0067919D02*
X0270609Y0067919D01*
X0270609Y0066313D01*
X0256536Y0063028D02*
X0256036Y0063028D01*
X0254036Y0063028D02*
X0253536Y0063028D01*
X0270609Y0057163D02*
X0270609Y0055557D01*
X0272215Y0055557D01*
X0281365Y0055557D02*
X0282971Y0055557D01*
X0282971Y0057163D01*
X0288883Y0057455D02*
X0288883Y0059061D01*
X0290490Y0059061D01*
X0299639Y0059061D02*
X0301245Y0059061D01*
X0301245Y0057455D01*
X0301245Y0048306D02*
X0301245Y0046699D01*
X0299639Y0046699D01*
X0290490Y0046699D02*
X0288883Y0046699D01*
X0288883Y0048306D01*
X0283089Y0046780D02*
X0283089Y0045173D01*
X0283089Y0046780D02*
X0281483Y0046780D01*
X0272333Y0046780D02*
X0270727Y0046780D01*
X0270727Y0045173D01*
X0270727Y0036024D02*
X0270727Y0034417D01*
X0272333Y0034417D01*
X0281483Y0034417D02*
X0283089Y0034417D01*
X0283089Y0036024D01*
X0122581Y0037173D02*
X0122581Y0038240D01*
X0121513Y0039308D01*
X0119378Y0039308D01*
X0118311Y0038240D01*
X0116135Y0039308D02*
X0111865Y0035038D01*
X0112933Y0036105D02*
X0116135Y0032902D01*
X0118311Y0032902D02*
X0122581Y0037173D01*
X0122581Y0032902D02*
X0118311Y0032902D01*
X0111865Y0032902D02*
X0111865Y0039308D01*
X0105831Y0038626D02*
X0104831Y0038626D01*
X0105831Y0038626D02*
X0105831Y0037626D01*
X0100831Y0038626D02*
X0099831Y0038626D01*
X0099831Y0037626D01*
X0095753Y0037587D02*
X0095753Y0038587D01*
X0094753Y0038587D01*
X0090753Y0038587D02*
X0089753Y0038587D01*
X0089753Y0037587D01*
X0085871Y0037587D02*
X0085871Y0038587D01*
X0084871Y0038587D01*
X0080871Y0038587D02*
X0079871Y0038587D01*
X0079871Y0037587D01*
X0075871Y0037469D02*
X0075871Y0038469D01*
X0074871Y0038469D01*
X0070871Y0038469D02*
X0069871Y0038469D01*
X0069871Y0037469D01*
X0065635Y0037547D02*
X0065635Y0038547D01*
X0064635Y0038547D01*
X0060635Y0038547D02*
X0059635Y0038547D01*
X0059635Y0037547D01*
X0059635Y0033547D02*
X0059635Y0032547D01*
X0060635Y0032547D01*
X0064635Y0032547D02*
X0065635Y0032547D01*
X0065635Y0033547D01*
X0069871Y0033469D02*
X0069871Y0032469D01*
X0070871Y0032469D01*
X0074871Y0032469D02*
X0075871Y0032469D01*
X0075871Y0033469D01*
X0079871Y0033587D02*
X0079871Y0032587D01*
X0080871Y0032587D01*
X0084871Y0032587D02*
X0085871Y0032587D01*
X0085871Y0033587D01*
X0089753Y0033587D02*
X0089753Y0032587D01*
X0090753Y0032587D01*
X0094753Y0032587D02*
X0095753Y0032587D01*
X0095753Y0033587D01*
X0099831Y0033626D02*
X0099831Y0032626D01*
X0100831Y0032626D01*
X0104831Y0032626D02*
X0105831Y0032626D01*
X0105831Y0033626D01*
D13*
X0254036Y0060028D02*
X0254036Y0063028D01*
X0254036Y0066028D01*
X0256036Y0066028D02*
X0256036Y0063028D01*
X0256036Y0060028D01*
X0256075Y0086720D02*
X0256075Y0089720D01*
X0256075Y0092720D01*
X0254075Y0092720D02*
X0254075Y0089720D01*
X0254075Y0086720D01*
X0253879Y0111524D02*
X0253879Y0114524D01*
X0253879Y0117524D01*
X0255879Y0117524D02*
X0255879Y0114524D01*
X0255879Y0111524D01*
D14*
X0246286Y0118110D02*
X0246249Y0118110D01*
X0246448Y0126363D02*
X0244947Y0126363D01*
X0244947Y0127364D01*
X0244947Y0127836D02*
X0246448Y0127836D01*
X0246448Y0128837D01*
X0246448Y0129309D02*
X0244947Y0129309D01*
X0244947Y0130060D01*
X0245197Y0130310D01*
X0245698Y0130310D01*
X0245948Y0130060D01*
X0245948Y0129309D01*
X0245948Y0129810D02*
X0246448Y0130310D01*
X0246448Y0130783D02*
X0246448Y0131283D01*
X0246448Y0131033D02*
X0244947Y0131033D01*
X0244947Y0130783D02*
X0244947Y0131283D01*
X0244947Y0131765D02*
X0244947Y0132766D01*
X0244947Y0133238D02*
X0246448Y0133238D01*
X0246448Y0134239D01*
X0245698Y0133739D02*
X0245698Y0133238D01*
X0244947Y0133238D02*
X0244947Y0134239D01*
X0244947Y0132265D02*
X0246448Y0132265D01*
X0244947Y0128837D02*
X0244947Y0127836D01*
X0245698Y0127836D02*
X0245698Y0128337D01*
X0245698Y0126863D02*
X0245698Y0126363D01*
X0246446Y0093307D02*
X0246483Y0093307D01*
X0246444Y0066614D02*
X0246406Y0066614D01*
D15*
X0248461Y0067280D02*
X0261650Y0067280D01*
X0261778Y0067279D01*
X0261906Y0067275D01*
X0262033Y0067267D01*
X0262161Y0067256D01*
X0262288Y0067240D01*
X0262414Y0067220D01*
X0262540Y0067197D01*
X0262665Y0067170D01*
X0262789Y0067139D01*
X0262912Y0067104D01*
X0263034Y0067065D01*
X0263154Y0067023D01*
X0263274Y0066977D01*
X0263392Y0066928D01*
X0263508Y0066874D01*
X0263623Y0066818D01*
X0263736Y0066758D01*
X0263847Y0066694D01*
X0263956Y0066627D01*
X0264062Y0066557D01*
X0264167Y0066484D01*
X0264270Y0066407D01*
X0264370Y0066328D01*
X0264467Y0066245D01*
X0264562Y0066159D01*
X0264655Y0066071D01*
X0264744Y0065980D01*
X0264831Y0065886D01*
X0264915Y0065789D01*
X0264996Y0065690D01*
X0265074Y0065589D01*
X0265149Y0065485D01*
X0265220Y0065379D01*
X0265288Y0065271D01*
X0265353Y0065161D01*
X0265415Y0065049D01*
X0265473Y0064935D01*
X0265528Y0064819D01*
X0265579Y0064702D01*
X0265626Y0064583D01*
X0265670Y0064463D01*
X0265710Y0064341D01*
X0265746Y0064219D01*
X0265779Y0064095D01*
X0265808Y0063971D01*
X0265833Y0063845D01*
X0265854Y0063719D01*
X0265871Y0063592D01*
X0265885Y0063465D01*
X0265894Y0063338D01*
X0265900Y0063210D01*
X0265902Y0063082D01*
X0265900Y0062954D01*
X0265894Y0062826D01*
X0265884Y0062699D01*
X0265870Y0062572D01*
X0265853Y0062445D01*
X0265831Y0062319D01*
X0265806Y0062194D01*
X0265777Y0062069D01*
X0265744Y0061946D01*
X0265707Y0061823D01*
X0265667Y0061702D01*
X0265623Y0061582D01*
X0265575Y0061463D01*
X0265523Y0061346D01*
X0265469Y0061230D01*
X0265410Y0061117D01*
X0265348Y0061005D01*
X0265283Y0060895D01*
X0265215Y0060787D01*
X0265143Y0060681D01*
X0265068Y0060577D01*
X0264990Y0060476D01*
X0264909Y0060377D01*
X0264825Y0060281D01*
X0264738Y0060187D01*
X0264648Y0060096D01*
X0264555Y0060008D01*
X0264460Y0059923D01*
X0264362Y0059840D01*
X0264262Y0059761D01*
X0264159Y0059684D01*
X0264054Y0059611D01*
X0263947Y0059541D01*
X0263838Y0059475D01*
X0263727Y0059412D01*
X0263614Y0059352D01*
X0263499Y0059295D01*
X0263383Y0059243D01*
X0263265Y0059193D01*
X0263145Y0059148D01*
X0263024Y0059106D01*
X0262902Y0059067D01*
X0262779Y0059033D01*
X0262655Y0059002D01*
X0262530Y0058975D01*
X0262404Y0058952D01*
X0262278Y0058933D01*
X0262151Y0058917D01*
X0262024Y0058906D01*
X0261896Y0058898D01*
X0261768Y0058894D01*
X0248579Y0058894D01*
X0248451Y0058895D01*
X0248323Y0058899D01*
X0248196Y0058907D01*
X0248068Y0058918D01*
X0247941Y0058934D01*
X0247815Y0058954D01*
X0247689Y0058977D01*
X0247564Y0059004D01*
X0247440Y0059035D01*
X0247317Y0059070D01*
X0247195Y0059109D01*
X0247075Y0059151D01*
X0246955Y0059197D01*
X0246837Y0059246D01*
X0246721Y0059300D01*
X0246606Y0059356D01*
X0246493Y0059416D01*
X0246382Y0059480D01*
X0246273Y0059547D01*
X0246167Y0059617D01*
X0246062Y0059690D01*
X0245959Y0059767D01*
X0245859Y0059846D01*
X0245762Y0059929D01*
X0245667Y0060015D01*
X0245574Y0060103D01*
X0245485Y0060194D01*
X0245398Y0060288D01*
X0245314Y0060385D01*
X0245233Y0060484D01*
X0245155Y0060585D01*
X0245080Y0060689D01*
X0245009Y0060795D01*
X0244941Y0060903D01*
X0244876Y0061013D01*
X0244814Y0061125D01*
X0244756Y0061239D01*
X0244701Y0061355D01*
X0244650Y0061472D01*
X0244603Y0061591D01*
X0244559Y0061711D01*
X0244519Y0061833D01*
X0244483Y0061955D01*
X0244450Y0062079D01*
X0244421Y0062203D01*
X0244396Y0062329D01*
X0244375Y0062455D01*
X0244358Y0062582D01*
X0244344Y0062709D01*
X0244335Y0062836D01*
X0244329Y0062964D01*
X0244327Y0063092D01*
X0244329Y0063220D01*
X0244335Y0063348D01*
X0244345Y0063475D01*
X0244359Y0063602D01*
X0244376Y0063729D01*
X0244398Y0063855D01*
X0244423Y0063980D01*
X0244452Y0064105D01*
X0244485Y0064228D01*
X0244522Y0064351D01*
X0244562Y0064472D01*
X0244606Y0064592D01*
X0244654Y0064711D01*
X0244706Y0064828D01*
X0244760Y0064944D01*
X0244819Y0065057D01*
X0244881Y0065169D01*
X0244946Y0065279D01*
X0245014Y0065387D01*
X0245086Y0065493D01*
X0245161Y0065597D01*
X0245239Y0065698D01*
X0245320Y0065797D01*
X0245404Y0065893D01*
X0245491Y0065987D01*
X0245581Y0066078D01*
X0245674Y0066166D01*
X0245769Y0066251D01*
X0245867Y0066334D01*
X0245967Y0066413D01*
X0246070Y0066490D01*
X0246175Y0066563D01*
X0246282Y0066633D01*
X0246391Y0066699D01*
X0246502Y0066762D01*
X0246615Y0066822D01*
X0246730Y0066879D01*
X0246846Y0066931D01*
X0246964Y0066981D01*
X0247084Y0067026D01*
X0247205Y0067068D01*
X0247327Y0067107D01*
X0247450Y0067141D01*
X0247574Y0067172D01*
X0247699Y0067199D01*
X0247825Y0067222D01*
X0247951Y0067241D01*
X0248078Y0067257D01*
X0248205Y0067268D01*
X0248333Y0067276D01*
X0248461Y0067280D01*
X0245036Y0063028D02*
X0245039Y0063273D01*
X0245048Y0063519D01*
X0245063Y0063764D01*
X0245084Y0064008D01*
X0245111Y0064252D01*
X0245144Y0064495D01*
X0245183Y0064738D01*
X0245228Y0064979D01*
X0245279Y0065219D01*
X0245336Y0065458D01*
X0245398Y0065695D01*
X0245467Y0065931D01*
X0245541Y0066165D01*
X0245621Y0066397D01*
X0245706Y0066627D01*
X0245797Y0066855D01*
X0245894Y0067080D01*
X0245996Y0067304D01*
X0246104Y0067524D01*
X0246217Y0067742D01*
X0246335Y0067957D01*
X0246459Y0068169D01*
X0246587Y0068378D01*
X0246721Y0068584D01*
X0246860Y0068786D01*
X0247004Y0068985D01*
X0247153Y0069180D01*
X0247306Y0069372D01*
X0247464Y0069560D01*
X0247626Y0069744D01*
X0247794Y0069923D01*
X0247965Y0070099D01*
X0248141Y0070270D01*
X0248320Y0070438D01*
X0248504Y0070600D01*
X0248692Y0070758D01*
X0248884Y0070911D01*
X0249079Y0071060D01*
X0249278Y0071204D01*
X0249480Y0071343D01*
X0249686Y0071477D01*
X0249895Y0071605D01*
X0250107Y0071729D01*
X0250322Y0071847D01*
X0250540Y0071960D01*
X0250760Y0072068D01*
X0250984Y0072170D01*
X0251209Y0072267D01*
X0251437Y0072358D01*
X0251667Y0072443D01*
X0251899Y0072523D01*
X0252133Y0072597D01*
X0252369Y0072666D01*
X0252606Y0072728D01*
X0252845Y0072785D01*
X0253085Y0072836D01*
X0253326Y0072881D01*
X0253569Y0072920D01*
X0253812Y0072953D01*
X0254056Y0072980D01*
X0254300Y0073001D01*
X0254545Y0073016D01*
X0254791Y0073025D01*
X0255036Y0073028D01*
X0255281Y0073025D01*
X0255527Y0073016D01*
X0255772Y0073001D01*
X0256016Y0072980D01*
X0256260Y0072953D01*
X0256503Y0072920D01*
X0256746Y0072881D01*
X0256987Y0072836D01*
X0257227Y0072785D01*
X0257466Y0072728D01*
X0257703Y0072666D01*
X0257939Y0072597D01*
X0258173Y0072523D01*
X0258405Y0072443D01*
X0258635Y0072358D01*
X0258863Y0072267D01*
X0259088Y0072170D01*
X0259312Y0072068D01*
X0259532Y0071960D01*
X0259750Y0071847D01*
X0259965Y0071729D01*
X0260177Y0071605D01*
X0260386Y0071477D01*
X0260592Y0071343D01*
X0260794Y0071204D01*
X0260993Y0071060D01*
X0261188Y0070911D01*
X0261380Y0070758D01*
X0261568Y0070600D01*
X0261752Y0070438D01*
X0261931Y0070270D01*
X0262107Y0070099D01*
X0262278Y0069923D01*
X0262446Y0069744D01*
X0262608Y0069560D01*
X0262766Y0069372D01*
X0262919Y0069180D01*
X0263068Y0068985D01*
X0263212Y0068786D01*
X0263351Y0068584D01*
X0263485Y0068378D01*
X0263613Y0068169D01*
X0263737Y0067957D01*
X0263855Y0067742D01*
X0263968Y0067524D01*
X0264076Y0067304D01*
X0264178Y0067080D01*
X0264275Y0066855D01*
X0264366Y0066627D01*
X0264451Y0066397D01*
X0264531Y0066165D01*
X0264605Y0065931D01*
X0264674Y0065695D01*
X0264736Y0065458D01*
X0264793Y0065219D01*
X0264844Y0064979D01*
X0264889Y0064738D01*
X0264928Y0064495D01*
X0264961Y0064252D01*
X0264988Y0064008D01*
X0265009Y0063764D01*
X0265024Y0063519D01*
X0265033Y0063273D01*
X0265036Y0063028D01*
X0265033Y0062783D01*
X0265024Y0062537D01*
X0265009Y0062292D01*
X0264988Y0062048D01*
X0264961Y0061804D01*
X0264928Y0061561D01*
X0264889Y0061318D01*
X0264844Y0061077D01*
X0264793Y0060837D01*
X0264736Y0060598D01*
X0264674Y0060361D01*
X0264605Y0060125D01*
X0264531Y0059891D01*
X0264451Y0059659D01*
X0264366Y0059429D01*
X0264275Y0059201D01*
X0264178Y0058976D01*
X0264076Y0058752D01*
X0263968Y0058532D01*
X0263855Y0058314D01*
X0263737Y0058099D01*
X0263613Y0057887D01*
X0263485Y0057678D01*
X0263351Y0057472D01*
X0263212Y0057270D01*
X0263068Y0057071D01*
X0262919Y0056876D01*
X0262766Y0056684D01*
X0262608Y0056496D01*
X0262446Y0056312D01*
X0262278Y0056133D01*
X0262107Y0055957D01*
X0261931Y0055786D01*
X0261752Y0055618D01*
X0261568Y0055456D01*
X0261380Y0055298D01*
X0261188Y0055145D01*
X0260993Y0054996D01*
X0260794Y0054852D01*
X0260592Y0054713D01*
X0260386Y0054579D01*
X0260177Y0054451D01*
X0259965Y0054327D01*
X0259750Y0054209D01*
X0259532Y0054096D01*
X0259312Y0053988D01*
X0259088Y0053886D01*
X0258863Y0053789D01*
X0258635Y0053698D01*
X0258405Y0053613D01*
X0258173Y0053533D01*
X0257939Y0053459D01*
X0257703Y0053390D01*
X0257466Y0053328D01*
X0257227Y0053271D01*
X0256987Y0053220D01*
X0256746Y0053175D01*
X0256503Y0053136D01*
X0256260Y0053103D01*
X0256016Y0053076D01*
X0255772Y0053055D01*
X0255527Y0053040D01*
X0255281Y0053031D01*
X0255036Y0053028D01*
X0254791Y0053031D01*
X0254545Y0053040D01*
X0254300Y0053055D01*
X0254056Y0053076D01*
X0253812Y0053103D01*
X0253569Y0053136D01*
X0253326Y0053175D01*
X0253085Y0053220D01*
X0252845Y0053271D01*
X0252606Y0053328D01*
X0252369Y0053390D01*
X0252133Y0053459D01*
X0251899Y0053533D01*
X0251667Y0053613D01*
X0251437Y0053698D01*
X0251209Y0053789D01*
X0250984Y0053886D01*
X0250760Y0053988D01*
X0250540Y0054096D01*
X0250322Y0054209D01*
X0250107Y0054327D01*
X0249895Y0054451D01*
X0249686Y0054579D01*
X0249480Y0054713D01*
X0249278Y0054852D01*
X0249079Y0054996D01*
X0248884Y0055145D01*
X0248692Y0055298D01*
X0248504Y0055456D01*
X0248320Y0055618D01*
X0248141Y0055786D01*
X0247965Y0055957D01*
X0247794Y0056133D01*
X0247626Y0056312D01*
X0247464Y0056496D01*
X0247306Y0056684D01*
X0247153Y0056876D01*
X0247004Y0057071D01*
X0246860Y0057270D01*
X0246721Y0057472D01*
X0246587Y0057678D01*
X0246459Y0057887D01*
X0246335Y0058099D01*
X0246217Y0058314D01*
X0246104Y0058532D01*
X0245996Y0058752D01*
X0245894Y0058976D01*
X0245797Y0059201D01*
X0245706Y0059429D01*
X0245621Y0059659D01*
X0245541Y0059891D01*
X0245467Y0060125D01*
X0245398Y0060361D01*
X0245336Y0060598D01*
X0245279Y0060837D01*
X0245228Y0061077D01*
X0245183Y0061318D01*
X0245144Y0061561D01*
X0245111Y0061804D01*
X0245084Y0062048D01*
X0245063Y0062292D01*
X0245048Y0062537D01*
X0245039Y0062783D01*
X0245036Y0063028D01*
X0223426Y0070762D02*
X0223426Y0054270D01*
X0224012Y0051492D02*
X0205115Y0051492D01*
X0205115Y0073539D01*
X0224012Y0073539D01*
X0224012Y0051492D01*
X0217926Y0052063D02*
X0217926Y0053643D01*
X0217926Y0061389D02*
X0217926Y0063643D01*
X0223426Y0054270D02*
X0223227Y0054117D01*
X0223025Y0053969D01*
X0222820Y0053826D01*
X0222611Y0053688D01*
X0222399Y0053555D01*
X0222184Y0053427D01*
X0221966Y0053305D01*
X0221745Y0053187D01*
X0221521Y0053075D01*
X0221295Y0052968D01*
X0221066Y0052867D01*
X0220835Y0052771D01*
X0220601Y0052680D01*
X0220366Y0052595D01*
X0220128Y0052516D01*
X0219889Y0052443D01*
X0219648Y0052375D01*
X0219406Y0052313D01*
X0219162Y0052257D01*
X0218916Y0052206D01*
X0218670Y0052162D01*
X0218423Y0052123D01*
X0218175Y0052091D01*
X0217926Y0052064D01*
X0206893Y0065612D02*
X0206971Y0065854D01*
X0207055Y0066094D01*
X0207144Y0066332D01*
X0207240Y0066568D01*
X0207341Y0066802D01*
X0207447Y0067033D01*
X0207560Y0067261D01*
X0207677Y0067487D01*
X0207800Y0067710D01*
X0207929Y0067929D01*
X0208063Y0068146D01*
X0208202Y0068359D01*
X0208346Y0068569D01*
X0208495Y0068775D01*
X0208649Y0068977D01*
X0208808Y0069176D01*
X0208972Y0069371D01*
X0209141Y0069562D01*
X0209314Y0069748D01*
X0209491Y0069931D01*
X0209673Y0070109D01*
X0209859Y0070282D01*
X0210050Y0070451D01*
X0210244Y0070615D01*
X0210442Y0070775D01*
X0210644Y0070930D01*
X0210850Y0071079D01*
X0211059Y0071224D01*
X0211272Y0071364D01*
X0211488Y0071498D01*
X0211708Y0071627D01*
X0211930Y0071751D01*
X0212155Y0071870D01*
X0212383Y0071982D01*
X0212614Y0072090D01*
X0212847Y0072191D01*
X0213083Y0072287D01*
X0213321Y0072378D01*
X0213561Y0072462D01*
X0213803Y0072541D01*
X0214047Y0072614D01*
X0214293Y0072680D01*
X0214540Y0072741D01*
X0214788Y0072796D01*
X0215038Y0072845D01*
X0215289Y0072888D01*
X0215541Y0072924D01*
X0215793Y0072955D01*
X0216047Y0072979D01*
X0216300Y0072997D01*
X0216555Y0073009D01*
X0216809Y0073015D01*
X0217064Y0073015D01*
X0217318Y0073009D01*
X0217572Y0072996D01*
X0217826Y0072977D01*
X0218079Y0072952D01*
X0218332Y0072921D01*
X0218584Y0072884D01*
X0218834Y0072841D01*
X0219084Y0072792D01*
X0219333Y0072737D01*
X0219580Y0072675D01*
X0219825Y0072608D01*
X0220069Y0072535D01*
X0220311Y0072456D01*
X0220550Y0072371D01*
X0220788Y0072280D01*
X0221024Y0072183D01*
X0221257Y0072081D01*
X0221487Y0071973D01*
X0221715Y0071860D01*
X0221940Y0071741D01*
X0222162Y0071617D01*
X0222381Y0071488D01*
X0222597Y0071353D01*
X0222810Y0071213D01*
X0223019Y0071067D01*
X0223224Y0070917D01*
X0223426Y0070762D01*
X0217926Y0071389D02*
X0217926Y0072968D01*
X0221434Y0075306D02*
X0221434Y0116251D01*
X0189938Y0116251D01*
X0189938Y0075306D01*
X0221434Y0075306D01*
X0206893Y0059420D02*
X0206971Y0059176D01*
X0207056Y0058934D01*
X0207146Y0058695D01*
X0207242Y0058457D01*
X0207344Y0058222D01*
X0207452Y0057989D01*
X0207565Y0057759D01*
X0207684Y0057532D01*
X0207808Y0057308D01*
X0207938Y0057087D01*
X0208073Y0056870D01*
X0208214Y0056655D01*
X0208360Y0056444D01*
X0208510Y0056237D01*
X0208666Y0056034D01*
X0208827Y0055834D01*
X0208992Y0055638D01*
X0209162Y0055447D01*
X0209337Y0055259D01*
X0209517Y0055076D01*
X0209700Y0054898D01*
X0209889Y0054723D01*
X0210081Y0054554D01*
X0210277Y0054389D01*
X0210478Y0054229D01*
X0210682Y0054075D01*
X0210890Y0053925D01*
X0211101Y0053780D01*
X0211316Y0053640D01*
X0211534Y0053506D01*
X0211756Y0053377D01*
X0211980Y0053254D01*
X0212208Y0053136D01*
X0212438Y0053023D01*
X0212671Y0052917D01*
X0212907Y0052816D01*
X0213145Y0052720D01*
X0213385Y0052631D01*
X0213627Y0052548D01*
X0213872Y0052470D01*
X0214118Y0052399D01*
X0214366Y0052333D01*
X0214615Y0052274D01*
X0214865Y0052220D01*
X0215117Y0052173D01*
X0215370Y0052132D01*
X0215624Y0052097D01*
X0215879Y0052068D01*
X0216134Y0052046D01*
X0216390Y0052030D01*
X0216646Y0052020D01*
X0216902Y0052016D01*
X0217159Y0052019D01*
X0217415Y0052027D01*
X0217671Y0052042D01*
X0217926Y0052064D01*
X0270491Y0055439D02*
X0270491Y0068037D01*
X0283089Y0068037D01*
X0283089Y0055439D01*
X0270491Y0055439D01*
X0270609Y0046898D02*
X0283207Y0046898D01*
X0283207Y0034299D01*
X0270609Y0034299D01*
X0270609Y0046898D01*
X0288765Y0046581D02*
X0288765Y0059180D01*
X0301364Y0059180D01*
X0301364Y0046581D01*
X0288765Y0046581D01*
X0288897Y0076928D02*
X0288897Y0089526D01*
X0301496Y0089526D01*
X0301496Y0076928D01*
X0288897Y0076928D01*
X0283045Y0085877D02*
X0270447Y0085877D01*
X0270447Y0098476D01*
X0283045Y0098476D01*
X0283045Y0085877D01*
X0289160Y0095119D02*
X0289160Y0107717D01*
X0301758Y0107717D01*
X0301758Y0095119D01*
X0289160Y0095119D01*
X0282934Y0104516D02*
X0270336Y0104516D01*
X0270336Y0117114D01*
X0282934Y0117114D01*
X0282934Y0104516D01*
X0261611Y0110390D02*
X0248422Y0110390D01*
X0248294Y0110391D01*
X0248166Y0110395D01*
X0248039Y0110403D01*
X0247911Y0110414D01*
X0247784Y0110430D01*
X0247658Y0110450D01*
X0247532Y0110473D01*
X0247407Y0110500D01*
X0247283Y0110531D01*
X0247160Y0110566D01*
X0247038Y0110605D01*
X0246918Y0110647D01*
X0246798Y0110693D01*
X0246680Y0110742D01*
X0246564Y0110796D01*
X0246449Y0110852D01*
X0246336Y0110912D01*
X0246225Y0110976D01*
X0246116Y0111043D01*
X0246010Y0111113D01*
X0245905Y0111186D01*
X0245802Y0111263D01*
X0245702Y0111342D01*
X0245605Y0111425D01*
X0245510Y0111511D01*
X0245417Y0111599D01*
X0245328Y0111690D01*
X0245241Y0111784D01*
X0245157Y0111881D01*
X0245076Y0111980D01*
X0244998Y0112081D01*
X0244923Y0112185D01*
X0244852Y0112291D01*
X0244784Y0112399D01*
X0244719Y0112509D01*
X0244657Y0112621D01*
X0244599Y0112735D01*
X0244544Y0112851D01*
X0244493Y0112968D01*
X0244446Y0113087D01*
X0244402Y0113207D01*
X0244362Y0113329D01*
X0244326Y0113451D01*
X0244293Y0113575D01*
X0244264Y0113699D01*
X0244239Y0113825D01*
X0244218Y0113951D01*
X0244201Y0114078D01*
X0244187Y0114205D01*
X0244178Y0114332D01*
X0244172Y0114460D01*
X0244170Y0114588D01*
X0244172Y0114716D01*
X0244178Y0114844D01*
X0244188Y0114971D01*
X0244202Y0115098D01*
X0244219Y0115225D01*
X0244241Y0115351D01*
X0244266Y0115476D01*
X0244295Y0115601D01*
X0244328Y0115724D01*
X0244365Y0115847D01*
X0244405Y0115968D01*
X0244449Y0116088D01*
X0244497Y0116207D01*
X0244549Y0116324D01*
X0244603Y0116440D01*
X0244662Y0116553D01*
X0244724Y0116665D01*
X0244789Y0116775D01*
X0244857Y0116883D01*
X0244929Y0116989D01*
X0245004Y0117093D01*
X0245082Y0117194D01*
X0245163Y0117293D01*
X0245247Y0117389D01*
X0245334Y0117483D01*
X0245424Y0117574D01*
X0245517Y0117662D01*
X0245612Y0117747D01*
X0245710Y0117830D01*
X0245810Y0117909D01*
X0245913Y0117986D01*
X0246018Y0118059D01*
X0246125Y0118129D01*
X0246234Y0118195D01*
X0246345Y0118258D01*
X0246458Y0118318D01*
X0246573Y0118375D01*
X0246689Y0118427D01*
X0246807Y0118477D01*
X0246927Y0118522D01*
X0247048Y0118564D01*
X0247170Y0118603D01*
X0247293Y0118637D01*
X0247417Y0118668D01*
X0247542Y0118695D01*
X0247668Y0118718D01*
X0247794Y0118737D01*
X0247921Y0118753D01*
X0248048Y0118764D01*
X0248176Y0118772D01*
X0248304Y0118776D01*
X0261493Y0118776D01*
X0261621Y0118775D01*
X0261749Y0118771D01*
X0261876Y0118763D01*
X0262004Y0118752D01*
X0262131Y0118736D01*
X0262257Y0118716D01*
X0262383Y0118693D01*
X0262508Y0118666D01*
X0262632Y0118635D01*
X0262755Y0118600D01*
X0262877Y0118561D01*
X0262997Y0118519D01*
X0263117Y0118473D01*
X0263235Y0118424D01*
X0263351Y0118370D01*
X0263466Y0118314D01*
X0263579Y0118254D01*
X0263690Y0118190D01*
X0263799Y0118123D01*
X0263905Y0118053D01*
X0264010Y0117980D01*
X0264113Y0117903D01*
X0264213Y0117824D01*
X0264310Y0117741D01*
X0264405Y0117655D01*
X0264498Y0117567D01*
X0264587Y0117476D01*
X0264674Y0117382D01*
X0264758Y0117285D01*
X0264839Y0117186D01*
X0264917Y0117085D01*
X0264992Y0116981D01*
X0265063Y0116875D01*
X0265131Y0116767D01*
X0265196Y0116657D01*
X0265258Y0116545D01*
X0265316Y0116431D01*
X0265371Y0116315D01*
X0265422Y0116198D01*
X0265469Y0116079D01*
X0265513Y0115959D01*
X0265553Y0115837D01*
X0265589Y0115715D01*
X0265622Y0115591D01*
X0265651Y0115467D01*
X0265676Y0115341D01*
X0265697Y0115215D01*
X0265714Y0115088D01*
X0265728Y0114961D01*
X0265737Y0114834D01*
X0265743Y0114706D01*
X0265745Y0114578D01*
X0265743Y0114450D01*
X0265737Y0114322D01*
X0265727Y0114195D01*
X0265713Y0114068D01*
X0265696Y0113941D01*
X0265674Y0113815D01*
X0265649Y0113690D01*
X0265620Y0113565D01*
X0265587Y0113442D01*
X0265550Y0113319D01*
X0265510Y0113198D01*
X0265466Y0113078D01*
X0265418Y0112959D01*
X0265366Y0112842D01*
X0265312Y0112726D01*
X0265253Y0112613D01*
X0265191Y0112501D01*
X0265126Y0112391D01*
X0265058Y0112283D01*
X0264986Y0112177D01*
X0264911Y0112073D01*
X0264833Y0111972D01*
X0264752Y0111873D01*
X0264668Y0111777D01*
X0264581Y0111683D01*
X0264491Y0111592D01*
X0264398Y0111504D01*
X0264303Y0111419D01*
X0264205Y0111336D01*
X0264105Y0111257D01*
X0264002Y0111180D01*
X0263897Y0111107D01*
X0263790Y0111037D01*
X0263681Y0110971D01*
X0263570Y0110908D01*
X0263457Y0110848D01*
X0263342Y0110791D01*
X0263226Y0110739D01*
X0263108Y0110689D01*
X0262988Y0110644D01*
X0262867Y0110602D01*
X0262745Y0110563D01*
X0262622Y0110529D01*
X0262498Y0110498D01*
X0262373Y0110471D01*
X0262247Y0110448D01*
X0262121Y0110429D01*
X0261994Y0110413D01*
X0261867Y0110402D01*
X0261739Y0110394D01*
X0261611Y0110390D01*
X0244879Y0114524D02*
X0244882Y0114769D01*
X0244891Y0115015D01*
X0244906Y0115260D01*
X0244927Y0115504D01*
X0244954Y0115748D01*
X0244987Y0115991D01*
X0245026Y0116234D01*
X0245071Y0116475D01*
X0245122Y0116715D01*
X0245179Y0116954D01*
X0245241Y0117191D01*
X0245310Y0117427D01*
X0245384Y0117661D01*
X0245464Y0117893D01*
X0245549Y0118123D01*
X0245640Y0118351D01*
X0245737Y0118576D01*
X0245839Y0118800D01*
X0245947Y0119020D01*
X0246060Y0119238D01*
X0246178Y0119453D01*
X0246302Y0119665D01*
X0246430Y0119874D01*
X0246564Y0120080D01*
X0246703Y0120282D01*
X0246847Y0120481D01*
X0246996Y0120676D01*
X0247149Y0120868D01*
X0247307Y0121056D01*
X0247469Y0121240D01*
X0247637Y0121419D01*
X0247808Y0121595D01*
X0247984Y0121766D01*
X0248163Y0121934D01*
X0248347Y0122096D01*
X0248535Y0122254D01*
X0248727Y0122407D01*
X0248922Y0122556D01*
X0249121Y0122700D01*
X0249323Y0122839D01*
X0249529Y0122973D01*
X0249738Y0123101D01*
X0249950Y0123225D01*
X0250165Y0123343D01*
X0250383Y0123456D01*
X0250603Y0123564D01*
X0250827Y0123666D01*
X0251052Y0123763D01*
X0251280Y0123854D01*
X0251510Y0123939D01*
X0251742Y0124019D01*
X0251976Y0124093D01*
X0252212Y0124162D01*
X0252449Y0124224D01*
X0252688Y0124281D01*
X0252928Y0124332D01*
X0253169Y0124377D01*
X0253412Y0124416D01*
X0253655Y0124449D01*
X0253899Y0124476D01*
X0254143Y0124497D01*
X0254388Y0124512D01*
X0254634Y0124521D01*
X0254879Y0124524D01*
X0255124Y0124521D01*
X0255370Y0124512D01*
X0255615Y0124497D01*
X0255859Y0124476D01*
X0256103Y0124449D01*
X0256346Y0124416D01*
X0256589Y0124377D01*
X0256830Y0124332D01*
X0257070Y0124281D01*
X0257309Y0124224D01*
X0257546Y0124162D01*
X0257782Y0124093D01*
X0258016Y0124019D01*
X0258248Y0123939D01*
X0258478Y0123854D01*
X0258706Y0123763D01*
X0258931Y0123666D01*
X0259155Y0123564D01*
X0259375Y0123456D01*
X0259593Y0123343D01*
X0259808Y0123225D01*
X0260020Y0123101D01*
X0260229Y0122973D01*
X0260435Y0122839D01*
X0260637Y0122700D01*
X0260836Y0122556D01*
X0261031Y0122407D01*
X0261223Y0122254D01*
X0261411Y0122096D01*
X0261595Y0121934D01*
X0261774Y0121766D01*
X0261950Y0121595D01*
X0262121Y0121419D01*
X0262289Y0121240D01*
X0262451Y0121056D01*
X0262609Y0120868D01*
X0262762Y0120676D01*
X0262911Y0120481D01*
X0263055Y0120282D01*
X0263194Y0120080D01*
X0263328Y0119874D01*
X0263456Y0119665D01*
X0263580Y0119453D01*
X0263698Y0119238D01*
X0263811Y0119020D01*
X0263919Y0118800D01*
X0264021Y0118576D01*
X0264118Y0118351D01*
X0264209Y0118123D01*
X0264294Y0117893D01*
X0264374Y0117661D01*
X0264448Y0117427D01*
X0264517Y0117191D01*
X0264579Y0116954D01*
X0264636Y0116715D01*
X0264687Y0116475D01*
X0264732Y0116234D01*
X0264771Y0115991D01*
X0264804Y0115748D01*
X0264831Y0115504D01*
X0264852Y0115260D01*
X0264867Y0115015D01*
X0264876Y0114769D01*
X0264879Y0114524D01*
X0264876Y0114279D01*
X0264867Y0114033D01*
X0264852Y0113788D01*
X0264831Y0113544D01*
X0264804Y0113300D01*
X0264771Y0113057D01*
X0264732Y0112814D01*
X0264687Y0112573D01*
X0264636Y0112333D01*
X0264579Y0112094D01*
X0264517Y0111857D01*
X0264448Y0111621D01*
X0264374Y0111387D01*
X0264294Y0111155D01*
X0264209Y0110925D01*
X0264118Y0110697D01*
X0264021Y0110472D01*
X0263919Y0110248D01*
X0263811Y0110028D01*
X0263698Y0109810D01*
X0263580Y0109595D01*
X0263456Y0109383D01*
X0263328Y0109174D01*
X0263194Y0108968D01*
X0263055Y0108766D01*
X0262911Y0108567D01*
X0262762Y0108372D01*
X0262609Y0108180D01*
X0262451Y0107992D01*
X0262289Y0107808D01*
X0262121Y0107629D01*
X0261950Y0107453D01*
X0261774Y0107282D01*
X0261595Y0107114D01*
X0261411Y0106952D01*
X0261223Y0106794D01*
X0261031Y0106641D01*
X0260836Y0106492D01*
X0260637Y0106348D01*
X0260435Y0106209D01*
X0260229Y0106075D01*
X0260020Y0105947D01*
X0259808Y0105823D01*
X0259593Y0105705D01*
X0259375Y0105592D01*
X0259155Y0105484D01*
X0258931Y0105382D01*
X0258706Y0105285D01*
X0258478Y0105194D01*
X0258248Y0105109D01*
X0258016Y0105029D01*
X0257782Y0104955D01*
X0257546Y0104886D01*
X0257309Y0104824D01*
X0257070Y0104767D01*
X0256830Y0104716D01*
X0256589Y0104671D01*
X0256346Y0104632D01*
X0256103Y0104599D01*
X0255859Y0104572D01*
X0255615Y0104551D01*
X0255370Y0104536D01*
X0255124Y0104527D01*
X0254879Y0104524D01*
X0254634Y0104527D01*
X0254388Y0104536D01*
X0254143Y0104551D01*
X0253899Y0104572D01*
X0253655Y0104599D01*
X0253412Y0104632D01*
X0253169Y0104671D01*
X0252928Y0104716D01*
X0252688Y0104767D01*
X0252449Y0104824D01*
X0252212Y0104886D01*
X0251976Y0104955D01*
X0251742Y0105029D01*
X0251510Y0105109D01*
X0251280Y0105194D01*
X0251052Y0105285D01*
X0250827Y0105382D01*
X0250603Y0105484D01*
X0250383Y0105592D01*
X0250165Y0105705D01*
X0249950Y0105823D01*
X0249738Y0105947D01*
X0249529Y0106075D01*
X0249323Y0106209D01*
X0249121Y0106348D01*
X0248922Y0106492D01*
X0248727Y0106641D01*
X0248535Y0106794D01*
X0248347Y0106952D01*
X0248163Y0107114D01*
X0247984Y0107282D01*
X0247808Y0107453D01*
X0247637Y0107629D01*
X0247469Y0107808D01*
X0247307Y0107992D01*
X0247149Y0108180D01*
X0246996Y0108372D01*
X0246847Y0108567D01*
X0246703Y0108766D01*
X0246564Y0108968D01*
X0246430Y0109174D01*
X0246302Y0109383D01*
X0246178Y0109595D01*
X0246060Y0109810D01*
X0245947Y0110028D01*
X0245839Y0110248D01*
X0245737Y0110472D01*
X0245640Y0110697D01*
X0245549Y0110925D01*
X0245464Y0111155D01*
X0245384Y0111387D01*
X0245310Y0111621D01*
X0245241Y0111857D01*
X0245179Y0112094D01*
X0245122Y0112333D01*
X0245071Y0112573D01*
X0245026Y0112814D01*
X0244987Y0113057D01*
X0244954Y0113300D01*
X0244927Y0113544D01*
X0244906Y0113788D01*
X0244891Y0114033D01*
X0244882Y0114279D01*
X0244879Y0114524D01*
X0229642Y0116413D02*
X0197359Y0116413D01*
X0197359Y0132161D01*
X0229642Y0132161D01*
X0229642Y0116413D01*
X0260863Y0126361D02*
X0260863Y0134786D01*
X0286138Y0134786D01*
X0286138Y0126361D01*
X0260863Y0126361D01*
X0269125Y0130573D02*
X0272251Y0130573D01*
X0272251Y0132448D01*
X0272251Y0130573D02*
X0272251Y0128698D01*
X0272251Y0130573D02*
X0274751Y0132448D01*
X0274751Y0130573D01*
X0277876Y0130573D01*
X0274751Y0130573D02*
X0274751Y0128698D01*
X0272251Y0130573D01*
X0289061Y0129506D02*
X0301659Y0129506D01*
X0301659Y0116908D01*
X0289061Y0116908D01*
X0289061Y0129506D01*
X0261690Y0093972D02*
X0248501Y0093972D01*
X0248501Y0093973D02*
X0248373Y0093969D01*
X0248245Y0093961D01*
X0248118Y0093950D01*
X0247991Y0093934D01*
X0247865Y0093915D01*
X0247739Y0093892D01*
X0247614Y0093865D01*
X0247490Y0093834D01*
X0247367Y0093800D01*
X0247245Y0093761D01*
X0247124Y0093719D01*
X0247004Y0093674D01*
X0246886Y0093624D01*
X0246770Y0093572D01*
X0246655Y0093515D01*
X0246542Y0093455D01*
X0246431Y0093392D01*
X0246322Y0093326D01*
X0246215Y0093256D01*
X0246110Y0093183D01*
X0246007Y0093106D01*
X0245907Y0093027D01*
X0245809Y0092944D01*
X0245714Y0092859D01*
X0245621Y0092771D01*
X0245531Y0092680D01*
X0245444Y0092586D01*
X0245360Y0092490D01*
X0245279Y0092391D01*
X0245201Y0092290D01*
X0245126Y0092186D01*
X0245054Y0092080D01*
X0244986Y0091972D01*
X0244921Y0091862D01*
X0244859Y0091750D01*
X0244800Y0091637D01*
X0244746Y0091521D01*
X0244694Y0091404D01*
X0244646Y0091285D01*
X0244602Y0091165D01*
X0244562Y0091044D01*
X0244525Y0090921D01*
X0244492Y0090798D01*
X0244463Y0090673D01*
X0244438Y0090548D01*
X0244416Y0090422D01*
X0244399Y0090295D01*
X0244385Y0090168D01*
X0244375Y0090041D01*
X0244369Y0089913D01*
X0244367Y0089785D01*
X0244369Y0089657D01*
X0244375Y0089529D01*
X0244384Y0089402D01*
X0244398Y0089275D01*
X0244415Y0089148D01*
X0244436Y0089022D01*
X0244461Y0088896D01*
X0244490Y0088772D01*
X0244523Y0088648D01*
X0244559Y0088526D01*
X0244599Y0088404D01*
X0244643Y0088284D01*
X0244690Y0088165D01*
X0244741Y0088048D01*
X0244796Y0087932D01*
X0244854Y0087818D01*
X0244916Y0087706D01*
X0244981Y0087596D01*
X0245049Y0087488D01*
X0245120Y0087382D01*
X0245195Y0087278D01*
X0245273Y0087177D01*
X0245354Y0087078D01*
X0245438Y0086981D01*
X0245525Y0086887D01*
X0245614Y0086796D01*
X0245707Y0086708D01*
X0245802Y0086622D01*
X0245899Y0086539D01*
X0245999Y0086460D01*
X0246102Y0086383D01*
X0246207Y0086310D01*
X0246313Y0086240D01*
X0246422Y0086173D01*
X0246533Y0086109D01*
X0246646Y0086049D01*
X0246761Y0085993D01*
X0246877Y0085939D01*
X0246995Y0085890D01*
X0247115Y0085844D01*
X0247235Y0085802D01*
X0247357Y0085763D01*
X0247480Y0085728D01*
X0247604Y0085697D01*
X0247729Y0085670D01*
X0247855Y0085647D01*
X0247981Y0085627D01*
X0248108Y0085611D01*
X0248236Y0085600D01*
X0248363Y0085592D01*
X0248491Y0085588D01*
X0248619Y0085587D01*
X0261808Y0085587D01*
X0261936Y0085591D01*
X0262064Y0085599D01*
X0262191Y0085610D01*
X0262318Y0085626D01*
X0262444Y0085645D01*
X0262570Y0085668D01*
X0262695Y0085695D01*
X0262819Y0085726D01*
X0262942Y0085760D01*
X0263064Y0085799D01*
X0263185Y0085841D01*
X0263305Y0085886D01*
X0263423Y0085936D01*
X0263539Y0085988D01*
X0263654Y0086045D01*
X0263767Y0086105D01*
X0263878Y0086168D01*
X0263987Y0086234D01*
X0264094Y0086304D01*
X0264199Y0086377D01*
X0264302Y0086454D01*
X0264402Y0086533D01*
X0264500Y0086616D01*
X0264595Y0086701D01*
X0264688Y0086789D01*
X0264778Y0086880D01*
X0264865Y0086974D01*
X0264949Y0087070D01*
X0265030Y0087169D01*
X0265108Y0087270D01*
X0265183Y0087374D01*
X0265255Y0087480D01*
X0265323Y0087588D01*
X0265388Y0087698D01*
X0265450Y0087810D01*
X0265509Y0087923D01*
X0265563Y0088039D01*
X0265615Y0088156D01*
X0265663Y0088275D01*
X0265707Y0088395D01*
X0265747Y0088516D01*
X0265784Y0088639D01*
X0265817Y0088762D01*
X0265846Y0088887D01*
X0265871Y0089012D01*
X0265893Y0089138D01*
X0265910Y0089265D01*
X0265924Y0089392D01*
X0265934Y0089519D01*
X0265940Y0089647D01*
X0265942Y0089775D01*
X0265940Y0089903D01*
X0265934Y0090031D01*
X0265925Y0090158D01*
X0265911Y0090285D01*
X0265894Y0090412D01*
X0265873Y0090538D01*
X0265848Y0090664D01*
X0265819Y0090788D01*
X0265786Y0090912D01*
X0265750Y0091034D01*
X0265710Y0091156D01*
X0265666Y0091276D01*
X0265619Y0091395D01*
X0265568Y0091512D01*
X0265513Y0091628D01*
X0265455Y0091742D01*
X0265393Y0091854D01*
X0265328Y0091964D01*
X0265260Y0092072D01*
X0265189Y0092178D01*
X0265114Y0092282D01*
X0265036Y0092383D01*
X0264955Y0092482D01*
X0264871Y0092579D01*
X0264784Y0092673D01*
X0264695Y0092764D01*
X0264602Y0092852D01*
X0264507Y0092938D01*
X0264410Y0093021D01*
X0264310Y0093100D01*
X0264207Y0093177D01*
X0264102Y0093250D01*
X0263996Y0093320D01*
X0263887Y0093387D01*
X0263776Y0093451D01*
X0263663Y0093511D01*
X0263548Y0093567D01*
X0263432Y0093621D01*
X0263314Y0093670D01*
X0263194Y0093716D01*
X0263074Y0093758D01*
X0262952Y0093797D01*
X0262829Y0093832D01*
X0262705Y0093863D01*
X0262580Y0093890D01*
X0262454Y0093913D01*
X0262328Y0093933D01*
X0262201Y0093949D01*
X0262073Y0093960D01*
X0261946Y0093968D01*
X0261818Y0093972D01*
X0261690Y0093973D01*
X0245075Y0089720D02*
X0245078Y0089965D01*
X0245087Y0090211D01*
X0245102Y0090456D01*
X0245123Y0090700D01*
X0245150Y0090944D01*
X0245183Y0091187D01*
X0245222Y0091430D01*
X0245267Y0091671D01*
X0245318Y0091911D01*
X0245375Y0092150D01*
X0245437Y0092387D01*
X0245506Y0092623D01*
X0245580Y0092857D01*
X0245660Y0093089D01*
X0245745Y0093319D01*
X0245836Y0093547D01*
X0245933Y0093772D01*
X0246035Y0093996D01*
X0246143Y0094216D01*
X0246256Y0094434D01*
X0246374Y0094649D01*
X0246498Y0094861D01*
X0246626Y0095070D01*
X0246760Y0095276D01*
X0246899Y0095478D01*
X0247043Y0095677D01*
X0247192Y0095872D01*
X0247345Y0096064D01*
X0247503Y0096252D01*
X0247665Y0096436D01*
X0247833Y0096615D01*
X0248004Y0096791D01*
X0248180Y0096962D01*
X0248359Y0097130D01*
X0248543Y0097292D01*
X0248731Y0097450D01*
X0248923Y0097603D01*
X0249118Y0097752D01*
X0249317Y0097896D01*
X0249519Y0098035D01*
X0249725Y0098169D01*
X0249934Y0098297D01*
X0250146Y0098421D01*
X0250361Y0098539D01*
X0250579Y0098652D01*
X0250799Y0098760D01*
X0251023Y0098862D01*
X0251248Y0098959D01*
X0251476Y0099050D01*
X0251706Y0099135D01*
X0251938Y0099215D01*
X0252172Y0099289D01*
X0252408Y0099358D01*
X0252645Y0099420D01*
X0252884Y0099477D01*
X0253124Y0099528D01*
X0253365Y0099573D01*
X0253608Y0099612D01*
X0253851Y0099645D01*
X0254095Y0099672D01*
X0254339Y0099693D01*
X0254584Y0099708D01*
X0254830Y0099717D01*
X0255075Y0099720D01*
X0255320Y0099717D01*
X0255566Y0099708D01*
X0255811Y0099693D01*
X0256055Y0099672D01*
X0256299Y0099645D01*
X0256542Y0099612D01*
X0256785Y0099573D01*
X0257026Y0099528D01*
X0257266Y0099477D01*
X0257505Y0099420D01*
X0257742Y0099358D01*
X0257978Y0099289D01*
X0258212Y0099215D01*
X0258444Y0099135D01*
X0258674Y0099050D01*
X0258902Y0098959D01*
X0259127Y0098862D01*
X0259351Y0098760D01*
X0259571Y0098652D01*
X0259789Y0098539D01*
X0260004Y0098421D01*
X0260216Y0098297D01*
X0260425Y0098169D01*
X0260631Y0098035D01*
X0260833Y0097896D01*
X0261032Y0097752D01*
X0261227Y0097603D01*
X0261419Y0097450D01*
X0261607Y0097292D01*
X0261791Y0097130D01*
X0261970Y0096962D01*
X0262146Y0096791D01*
X0262317Y0096615D01*
X0262485Y0096436D01*
X0262647Y0096252D01*
X0262805Y0096064D01*
X0262958Y0095872D01*
X0263107Y0095677D01*
X0263251Y0095478D01*
X0263390Y0095276D01*
X0263524Y0095070D01*
X0263652Y0094861D01*
X0263776Y0094649D01*
X0263894Y0094434D01*
X0264007Y0094216D01*
X0264115Y0093996D01*
X0264217Y0093772D01*
X0264314Y0093547D01*
X0264405Y0093319D01*
X0264490Y0093089D01*
X0264570Y0092857D01*
X0264644Y0092623D01*
X0264713Y0092387D01*
X0264775Y0092150D01*
X0264832Y0091911D01*
X0264883Y0091671D01*
X0264928Y0091430D01*
X0264967Y0091187D01*
X0265000Y0090944D01*
X0265027Y0090700D01*
X0265048Y0090456D01*
X0265063Y0090211D01*
X0265072Y0089965D01*
X0265075Y0089720D01*
X0265072Y0089475D01*
X0265063Y0089229D01*
X0265048Y0088984D01*
X0265027Y0088740D01*
X0265000Y0088496D01*
X0264967Y0088253D01*
X0264928Y0088010D01*
X0264883Y0087769D01*
X0264832Y0087529D01*
X0264775Y0087290D01*
X0264713Y0087053D01*
X0264644Y0086817D01*
X0264570Y0086583D01*
X0264490Y0086351D01*
X0264405Y0086121D01*
X0264314Y0085893D01*
X0264217Y0085668D01*
X0264115Y0085444D01*
X0264007Y0085224D01*
X0263894Y0085006D01*
X0263776Y0084791D01*
X0263652Y0084579D01*
X0263524Y0084370D01*
X0263390Y0084164D01*
X0263251Y0083962D01*
X0263107Y0083763D01*
X0262958Y0083568D01*
X0262805Y0083376D01*
X0262647Y0083188D01*
X0262485Y0083004D01*
X0262317Y0082825D01*
X0262146Y0082649D01*
X0261970Y0082478D01*
X0261791Y0082310D01*
X0261607Y0082148D01*
X0261419Y0081990D01*
X0261227Y0081837D01*
X0261032Y0081688D01*
X0260833Y0081544D01*
X0260631Y0081405D01*
X0260425Y0081271D01*
X0260216Y0081143D01*
X0260004Y0081019D01*
X0259789Y0080901D01*
X0259571Y0080788D01*
X0259351Y0080680D01*
X0259127Y0080578D01*
X0258902Y0080481D01*
X0258674Y0080390D01*
X0258444Y0080305D01*
X0258212Y0080225D01*
X0257978Y0080151D01*
X0257742Y0080082D01*
X0257505Y0080020D01*
X0257266Y0079963D01*
X0257026Y0079912D01*
X0256785Y0079867D01*
X0256542Y0079828D01*
X0256299Y0079795D01*
X0256055Y0079768D01*
X0255811Y0079747D01*
X0255566Y0079732D01*
X0255320Y0079723D01*
X0255075Y0079720D01*
X0254830Y0079723D01*
X0254584Y0079732D01*
X0254339Y0079747D01*
X0254095Y0079768D01*
X0253851Y0079795D01*
X0253608Y0079828D01*
X0253365Y0079867D01*
X0253124Y0079912D01*
X0252884Y0079963D01*
X0252645Y0080020D01*
X0252408Y0080082D01*
X0252172Y0080151D01*
X0251938Y0080225D01*
X0251706Y0080305D01*
X0251476Y0080390D01*
X0251248Y0080481D01*
X0251023Y0080578D01*
X0250799Y0080680D01*
X0250579Y0080788D01*
X0250361Y0080901D01*
X0250146Y0081019D01*
X0249934Y0081143D01*
X0249725Y0081271D01*
X0249519Y0081405D01*
X0249317Y0081544D01*
X0249118Y0081688D01*
X0248923Y0081837D01*
X0248731Y0081990D01*
X0248543Y0082148D01*
X0248359Y0082310D01*
X0248180Y0082478D01*
X0248004Y0082649D01*
X0247833Y0082825D01*
X0247665Y0083004D01*
X0247503Y0083188D01*
X0247345Y0083376D01*
X0247192Y0083568D01*
X0247043Y0083763D01*
X0246899Y0083962D01*
X0246760Y0084164D01*
X0246626Y0084370D01*
X0246498Y0084579D01*
X0246374Y0084791D01*
X0246256Y0085006D01*
X0246143Y0085224D01*
X0246035Y0085444D01*
X0245933Y0085668D01*
X0245836Y0085893D01*
X0245745Y0086121D01*
X0245660Y0086351D01*
X0245580Y0086583D01*
X0245506Y0086817D01*
X0245437Y0087053D01*
X0245375Y0087290D01*
X0245318Y0087529D01*
X0245267Y0087769D01*
X0245222Y0088010D01*
X0245183Y0088253D01*
X0245150Y0088496D01*
X0245123Y0088740D01*
X0245102Y0088984D01*
X0245087Y0089229D01*
X0245078Y0089475D01*
X0245075Y0089720D01*
X0144637Y0064861D02*
X0144639Y0064920D01*
X0144645Y0064978D01*
X0144655Y0065036D01*
X0144668Y0065093D01*
X0144686Y0065150D01*
X0144707Y0065205D01*
X0144732Y0065258D01*
X0144760Y0065309D01*
X0144791Y0065359D01*
X0144826Y0065406D01*
X0144864Y0065451D01*
X0144905Y0065494D01*
X0144949Y0065533D01*
X0144995Y0065569D01*
X0145043Y0065603D01*
X0145094Y0065633D01*
X0145147Y0065659D01*
X0145201Y0065682D01*
X0145256Y0065701D01*
X0145313Y0065717D01*
X0145371Y0065729D01*
X0145429Y0065737D01*
X0145488Y0065741D01*
X0145546Y0065741D01*
X0145605Y0065737D01*
X0145663Y0065729D01*
X0145721Y0065717D01*
X0145778Y0065701D01*
X0145833Y0065682D01*
X0145887Y0065659D01*
X0145940Y0065633D01*
X0145991Y0065603D01*
X0146039Y0065569D01*
X0146085Y0065533D01*
X0146129Y0065494D01*
X0146170Y0065451D01*
X0146208Y0065406D01*
X0146243Y0065359D01*
X0146274Y0065309D01*
X0146302Y0065258D01*
X0146327Y0065205D01*
X0146348Y0065150D01*
X0146366Y0065093D01*
X0146379Y0065036D01*
X0146389Y0064978D01*
X0146395Y0064920D01*
X0146397Y0064861D01*
X0146395Y0064802D01*
X0146389Y0064744D01*
X0146379Y0064686D01*
X0146366Y0064629D01*
X0146348Y0064572D01*
X0146327Y0064517D01*
X0146302Y0064464D01*
X0146274Y0064413D01*
X0146243Y0064363D01*
X0146208Y0064316D01*
X0146170Y0064271D01*
X0146129Y0064228D01*
X0146085Y0064189D01*
X0146039Y0064153D01*
X0145991Y0064119D01*
X0145940Y0064089D01*
X0145887Y0064063D01*
X0145833Y0064040D01*
X0145778Y0064021D01*
X0145721Y0064005D01*
X0145663Y0063993D01*
X0145605Y0063985D01*
X0145546Y0063981D01*
X0145488Y0063981D01*
X0145429Y0063985D01*
X0145371Y0063993D01*
X0145313Y0064005D01*
X0145256Y0064021D01*
X0145201Y0064040D01*
X0145147Y0064063D01*
X0145094Y0064089D01*
X0145043Y0064119D01*
X0144995Y0064153D01*
X0144949Y0064189D01*
X0144905Y0064228D01*
X0144864Y0064271D01*
X0144826Y0064316D01*
X0144791Y0064363D01*
X0144760Y0064413D01*
X0144732Y0064464D01*
X0144707Y0064517D01*
X0144686Y0064572D01*
X0144668Y0064629D01*
X0144655Y0064686D01*
X0144645Y0064744D01*
X0144639Y0064802D01*
X0144637Y0064861D01*
X0105117Y0051142D02*
X0103616Y0049641D01*
X0103616Y0050391D02*
X0103616Y0048139D01*
X0105117Y0048139D02*
X0100613Y0048139D01*
X0100613Y0050391D01*
X0101364Y0051142D01*
X0102865Y0051142D01*
X0103616Y0050391D01*
X0105117Y0046538D02*
X0105117Y0043535D01*
X0100613Y0043535D01*
X0101364Y0041934D02*
X0100613Y0041183D01*
X0100613Y0039682D01*
X0101364Y0038931D01*
X0104366Y0038931D01*
X0105117Y0039682D01*
X0105117Y0041183D01*
X0104366Y0041934D01*
X0106375Y0039169D02*
X0099288Y0039169D01*
X0099288Y0032083D01*
X0106375Y0032083D01*
X0106375Y0039169D01*
X0096296Y0039130D02*
X0096296Y0032043D01*
X0089209Y0032043D01*
X0089209Y0039130D01*
X0096296Y0039130D01*
X0095038Y0040393D02*
X0093537Y0038892D01*
X0090534Y0038892D01*
X0086414Y0039130D02*
X0086414Y0032043D01*
X0079327Y0032043D01*
X0079327Y0039130D01*
X0086414Y0039130D01*
X0085156Y0039643D02*
X0084406Y0038892D01*
X0081403Y0038892D01*
X0080652Y0039643D01*
X0080652Y0041144D01*
X0081403Y0041895D01*
X0082904Y0041895D02*
X0082904Y0040393D01*
X0082904Y0041895D02*
X0084406Y0041895D01*
X0085156Y0041144D01*
X0085156Y0039643D01*
X0090534Y0041895D02*
X0093537Y0041895D01*
X0095038Y0040393D01*
X0094288Y0043496D02*
X0091285Y0043496D01*
X0090534Y0044247D01*
X0090534Y0045748D01*
X0091285Y0046499D01*
X0091285Y0048100D02*
X0094288Y0048100D01*
X0095038Y0048851D01*
X0095038Y0050352D01*
X0094288Y0051102D01*
X0091285Y0051102D02*
X0090534Y0050352D01*
X0090534Y0048851D01*
X0091285Y0048100D01*
X0094288Y0046499D02*
X0095038Y0045748D01*
X0095038Y0044247D01*
X0094288Y0043496D01*
X0085156Y0043496D02*
X0080652Y0043496D01*
X0085156Y0046499D01*
X0080652Y0046499D01*
X0080652Y0048100D02*
X0080652Y0050352D01*
X0081403Y0051102D01*
X0084406Y0051102D01*
X0085156Y0050352D01*
X0085156Y0048100D01*
X0080652Y0048100D01*
X0075156Y0049483D02*
X0070652Y0049483D01*
X0070652Y0047982D02*
X0070652Y0050984D01*
X0064920Y0051063D02*
X0062668Y0048811D01*
X0063419Y0048061D02*
X0060416Y0051063D01*
X0060416Y0048061D02*
X0064920Y0048061D01*
X0064920Y0046459D02*
X0064920Y0043457D01*
X0060416Y0043457D01*
X0061167Y0041855D02*
X0060416Y0041105D01*
X0060416Y0039603D01*
X0061167Y0038853D01*
X0064169Y0038853D01*
X0064920Y0039603D01*
X0064920Y0041105D01*
X0064169Y0041855D01*
X0066178Y0039091D02*
X0059091Y0039091D01*
X0059091Y0032004D01*
X0066178Y0032004D01*
X0066178Y0039091D01*
X0069327Y0039012D02*
X0069327Y0031925D01*
X0076414Y0031925D01*
X0076414Y0039012D01*
X0069327Y0039012D01*
X0070652Y0038774D02*
X0070652Y0041026D01*
X0071403Y0041776D01*
X0074406Y0041776D01*
X0075156Y0041026D01*
X0075156Y0038774D01*
X0070652Y0038774D01*
X0072154Y0043378D02*
X0070652Y0044879D01*
X0072154Y0046380D01*
X0075156Y0046380D01*
X0072904Y0046380D02*
X0072904Y0043378D01*
X0072154Y0043378D02*
X0075156Y0043378D01*
X0047320Y0044366D02*
X0122516Y0044366D01*
X0122516Y0134524D01*
X0047320Y0134524D01*
X0047320Y0044366D01*
D16*
X0140812Y0053050D02*
X0140812Y0083759D01*
X0179355Y0083759D01*
X0179355Y0053050D01*
X0140812Y0053050D01*
D17*
X0143135Y0060924D02*
X0143135Y0062892D01*
X0177032Y0062892D01*
X0177032Y0060924D01*
X0143135Y0060924D01*
X0143135Y0062892D02*
X0143135Y0075885D01*
X0177032Y0075885D01*
X0177032Y0062892D01*
X0197478Y0076178D02*
X0213894Y0076178D01*
X0213894Y0115378D01*
X0197478Y0115378D01*
X0197478Y0076178D01*
X0197734Y0116746D02*
X0197734Y0117965D01*
X0197738Y0117201D02*
X0197738Y0131374D01*
X0197703Y0131820D02*
X0197703Y0130662D01*
X0197703Y0131820D02*
X0229152Y0131825D01*
X0229172Y0130719D01*
X0229192Y0131071D02*
X0229192Y0116897D01*
X0229192Y0116789D02*
X0229192Y0118449D01*
X0229192Y0116789D02*
X0197734Y0116746D01*
D18*
X0193261Y0117990D02*
X0193261Y0114920D01*
X0188657Y0114920D01*
X0190192Y0119524D02*
X0188657Y0121059D01*
X0193261Y0121059D01*
X0193261Y0119524D02*
X0193261Y0122594D01*
X0209426Y0079385D02*
X0209428Y0079457D01*
X0209434Y0079529D01*
X0209444Y0079600D01*
X0209457Y0079671D01*
X0209475Y0079741D01*
X0209496Y0079810D01*
X0209521Y0079877D01*
X0209550Y0079943D01*
X0209582Y0080008D01*
X0209618Y0080070D01*
X0209657Y0080131D01*
X0209699Y0080189D01*
X0209745Y0080245D01*
X0209793Y0080298D01*
X0209845Y0080349D01*
X0209899Y0080397D01*
X0209955Y0080441D01*
X0210014Y0080483D01*
X0210075Y0080521D01*
X0210138Y0080556D01*
X0210203Y0080588D01*
X0210270Y0080615D01*
X0210337Y0080639D01*
X0210407Y0080660D01*
X0210477Y0080676D01*
X0210548Y0080689D01*
X0210619Y0080698D01*
X0210691Y0080703D01*
X0210763Y0080704D01*
X0210835Y0080701D01*
X0210907Y0080694D01*
X0210978Y0080683D01*
X0211049Y0080669D01*
X0211118Y0080650D01*
X0211187Y0080628D01*
X0211254Y0080602D01*
X0211320Y0080572D01*
X0211384Y0080539D01*
X0211446Y0080503D01*
X0211506Y0080463D01*
X0211563Y0080419D01*
X0211619Y0080373D01*
X0211671Y0080324D01*
X0211721Y0080272D01*
X0211768Y0080217D01*
X0211812Y0080160D01*
X0211853Y0080101D01*
X0211890Y0080039D01*
X0211924Y0079976D01*
X0211955Y0079910D01*
X0211982Y0079844D01*
X0212005Y0079775D01*
X0212024Y0079706D01*
X0212040Y0079636D01*
X0212052Y0079565D01*
X0212060Y0079493D01*
X0212064Y0079421D01*
X0212064Y0079349D01*
X0212060Y0079277D01*
X0212052Y0079205D01*
X0212040Y0079134D01*
X0212024Y0079064D01*
X0212005Y0078995D01*
X0211982Y0078926D01*
X0211955Y0078860D01*
X0211924Y0078794D01*
X0211890Y0078731D01*
X0211853Y0078669D01*
X0211812Y0078610D01*
X0211768Y0078553D01*
X0211721Y0078498D01*
X0211671Y0078446D01*
X0211619Y0078397D01*
X0211563Y0078351D01*
X0211506Y0078307D01*
X0211446Y0078267D01*
X0211384Y0078231D01*
X0211320Y0078198D01*
X0211254Y0078168D01*
X0211187Y0078142D01*
X0211118Y0078120D01*
X0211049Y0078101D01*
X0210978Y0078087D01*
X0210907Y0078076D01*
X0210835Y0078069D01*
X0210763Y0078066D01*
X0210691Y0078067D01*
X0210619Y0078072D01*
X0210548Y0078081D01*
X0210477Y0078094D01*
X0210407Y0078110D01*
X0210337Y0078131D01*
X0210270Y0078155D01*
X0210203Y0078182D01*
X0210138Y0078214D01*
X0210075Y0078249D01*
X0210014Y0078287D01*
X0209955Y0078329D01*
X0209899Y0078373D01*
X0209845Y0078421D01*
X0209793Y0078472D01*
X0209745Y0078525D01*
X0209699Y0078581D01*
X0209657Y0078639D01*
X0209618Y0078700D01*
X0209582Y0078762D01*
X0209550Y0078827D01*
X0209521Y0078893D01*
X0209496Y0078960D01*
X0209475Y0079029D01*
X0209457Y0079099D01*
X0209444Y0079170D01*
X0209434Y0079241D01*
X0209428Y0079313D01*
X0209426Y0079385D01*
M02*
