G75*
%MOIN*%
%OFA0B0*%
%FSLAX25Y25*%
%IPPOS*%
%LPD*%
%AMOC8*
5,1,8,0,0,1.08239X$1,22.5*
%
%ADD10C,0.00000*%
%ADD11C,0.00200*%
%ADD12C,0.00600*%
%ADD13C,0.01000*%
%ADD14C,0.00100*%
%ADD15C,0.00500*%
%ADD16C,0.00800*%
%ADD17C,0.00400*%
D10*
X0046060Y0028618D02*
X0306285Y0028364D01*
X0305902Y0028618D02*
X0306285Y0138640D01*
X0046060Y0138894D01*
X0046060Y0028618D01*
D11*
X0110136Y0037302D02*
X0110136Y0039504D01*
X0110503Y0038403D02*
X0111604Y0037302D01*
X0112346Y0037302D02*
X0113814Y0038770D01*
X0113814Y0039137D01*
X0113447Y0039504D01*
X0112713Y0039504D01*
X0112346Y0039137D01*
X0111604Y0039504D02*
X0110136Y0038036D01*
X0112346Y0037302D02*
X0113814Y0037302D01*
X0149459Y0052863D02*
X0149459Y0055064D01*
X0150560Y0055064D01*
X0150927Y0054697D01*
X0150927Y0053964D01*
X0150560Y0053597D01*
X0149459Y0053597D01*
X0150193Y0053597D02*
X0150927Y0052863D01*
X0151669Y0053230D02*
X0152036Y0052863D01*
X0152770Y0052863D01*
X0153137Y0053230D01*
X0153137Y0054697D01*
X0152770Y0055064D01*
X0152036Y0055064D01*
X0151669Y0054697D01*
X0151669Y0054330D01*
X0152036Y0053964D01*
X0153137Y0053964D01*
X0167962Y0049547D02*
X0167962Y0048079D01*
X0168329Y0047712D01*
X0169063Y0047712D01*
X0169430Y0048079D01*
X0170172Y0047712D02*
X0171639Y0047712D01*
X0170905Y0047712D02*
X0170905Y0049914D01*
X0170172Y0049180D01*
X0169430Y0049547D02*
X0169063Y0049914D01*
X0168329Y0049914D01*
X0167962Y0049547D01*
X0172381Y0049547D02*
X0172381Y0048079D01*
X0173849Y0049547D01*
X0173849Y0048079D01*
X0173482Y0047712D01*
X0172748Y0047712D01*
X0172381Y0048079D01*
X0172381Y0049547D02*
X0172748Y0049914D01*
X0173482Y0049914D01*
X0173849Y0049547D01*
X0183177Y0053638D02*
X0183177Y0055840D01*
X0184278Y0055840D01*
X0184645Y0055473D01*
X0184645Y0054739D01*
X0184278Y0054372D01*
X0183177Y0054372D01*
X0183911Y0054372D02*
X0184645Y0053638D01*
X0185387Y0053638D02*
X0186855Y0053638D01*
X0186121Y0053638D02*
X0186121Y0055840D01*
X0185387Y0055106D01*
X0187597Y0054739D02*
X0189065Y0054739D01*
X0188698Y0053638D02*
X0188698Y0055840D01*
X0187597Y0054739D01*
X0179568Y0062163D02*
X0177366Y0062163D01*
X0177366Y0063264D01*
X0177733Y0063631D01*
X0178467Y0063631D01*
X0178834Y0063264D01*
X0178834Y0062163D01*
X0178834Y0062897D02*
X0179568Y0063631D01*
X0179201Y0064373D02*
X0178834Y0064373D01*
X0178467Y0064740D01*
X0178467Y0065474D01*
X0178834Y0065841D01*
X0179201Y0065841D01*
X0179568Y0065474D01*
X0179568Y0064740D01*
X0179201Y0064373D01*
X0178467Y0064740D02*
X0178100Y0064373D01*
X0177733Y0064373D01*
X0177366Y0064740D01*
X0177366Y0065474D01*
X0177733Y0065841D01*
X0178100Y0065841D01*
X0178467Y0065474D01*
X0150541Y0070102D02*
X0149073Y0070102D01*
X0149807Y0070102D02*
X0149807Y0072304D01*
X0149073Y0071570D01*
X0148331Y0071937D02*
X0147964Y0072304D01*
X0147230Y0072304D01*
X0146863Y0071937D01*
X0146863Y0070469D01*
X0147230Y0070102D01*
X0147964Y0070102D01*
X0148331Y0070469D01*
X0146124Y0070102D02*
X0145390Y0070102D01*
X0145757Y0070102D02*
X0145757Y0072304D01*
X0145390Y0072304D02*
X0146124Y0072304D01*
X0131090Y0066266D02*
X0131090Y0064798D01*
X0129622Y0066266D01*
X0129255Y0066266D01*
X0128888Y0065899D01*
X0128888Y0065165D01*
X0129255Y0064798D01*
X0129255Y0064056D02*
X0128888Y0063689D01*
X0128888Y0062955D01*
X0129255Y0062588D01*
X0130723Y0062588D01*
X0131090Y0062955D01*
X0131090Y0063689D01*
X0130723Y0064056D01*
X0160906Y0089378D02*
X0160906Y0091580D01*
X0162007Y0091580D01*
X0162374Y0091213D01*
X0162374Y0090479D01*
X0162007Y0090112D01*
X0160906Y0090112D01*
X0161640Y0090112D02*
X0162374Y0089378D01*
X0163116Y0089378D02*
X0164584Y0089378D01*
X0163850Y0089378D02*
X0163850Y0091580D01*
X0163116Y0090846D01*
X0165326Y0091580D02*
X0166794Y0091580D01*
X0166794Y0091213D01*
X0165326Y0089745D01*
X0165326Y0089378D01*
X0180380Y0090613D02*
X0180380Y0091714D01*
X0180747Y0092081D01*
X0181481Y0092081D01*
X0181848Y0091714D01*
X0181848Y0090613D01*
X0182582Y0090613D02*
X0180380Y0090613D01*
X0181848Y0091347D02*
X0182582Y0092081D01*
X0182582Y0092823D02*
X0182582Y0094291D01*
X0182582Y0093557D02*
X0180380Y0093557D01*
X0181114Y0092823D01*
X0181481Y0095033D02*
X0181114Y0095767D01*
X0181114Y0096134D01*
X0181481Y0096501D01*
X0182215Y0096501D01*
X0182582Y0096134D01*
X0182582Y0095400D01*
X0182215Y0095033D01*
X0181481Y0095033D02*
X0180380Y0095033D01*
X0180380Y0096501D01*
X0204283Y0106377D02*
X0204283Y0107110D01*
X0204283Y0106743D02*
X0206485Y0106743D01*
X0206485Y0106377D02*
X0206485Y0107110D01*
X0206118Y0107850D02*
X0206485Y0108217D01*
X0206485Y0108951D01*
X0206118Y0109318D01*
X0206118Y0110060D02*
X0206485Y0110427D01*
X0206485Y0111161D01*
X0206118Y0111528D01*
X0205751Y0111528D01*
X0205384Y0111161D01*
X0205384Y0110794D01*
X0205384Y0111161D02*
X0205017Y0111528D01*
X0204650Y0111528D01*
X0204283Y0111161D01*
X0204283Y0110427D01*
X0204650Y0110060D01*
X0204650Y0109318D02*
X0204283Y0108951D01*
X0204283Y0108217D01*
X0204650Y0107850D01*
X0206118Y0107850D01*
X0233632Y0104056D02*
X0233632Y0101854D01*
X0233632Y0102588D02*
X0234733Y0102588D01*
X0235100Y0102955D01*
X0235100Y0103689D01*
X0234733Y0104056D01*
X0233632Y0104056D01*
X0234366Y0102588D02*
X0235100Y0101854D01*
X0235842Y0101854D02*
X0237310Y0101854D01*
X0236576Y0101854D02*
X0236576Y0104056D01*
X0235842Y0103322D01*
X0249136Y0096717D02*
X0249136Y0095249D01*
X0249503Y0094882D01*
X0250237Y0094882D01*
X0250604Y0095249D01*
X0251346Y0095249D02*
X0251346Y0094882D01*
X0251346Y0095249D02*
X0252813Y0096717D01*
X0252813Y0097084D01*
X0251346Y0097084D01*
X0250604Y0096717D02*
X0250237Y0097084D01*
X0249503Y0097084D01*
X0249136Y0096717D01*
X0237294Y0093534D02*
X0236927Y0093901D01*
X0236193Y0093901D01*
X0235826Y0093534D01*
X0235084Y0093534D02*
X0235084Y0092800D01*
X0234717Y0092433D01*
X0233616Y0092433D01*
X0233616Y0091699D02*
X0233616Y0093901D01*
X0234717Y0093901D01*
X0235084Y0093534D01*
X0234350Y0092433D02*
X0235084Y0091699D01*
X0235826Y0091699D02*
X0237294Y0093167D01*
X0237294Y0093534D01*
X0237294Y0091699D02*
X0235826Y0091699D01*
X0236265Y0083912D02*
X0236999Y0083912D01*
X0237366Y0083545D01*
X0237366Y0083178D01*
X0236999Y0082811D01*
X0237366Y0082444D01*
X0237366Y0082077D01*
X0236999Y0081710D01*
X0236265Y0081710D01*
X0235898Y0082077D01*
X0235156Y0081710D02*
X0234422Y0082444D01*
X0234789Y0082444D02*
X0233688Y0082444D01*
X0233688Y0081710D02*
X0233688Y0083912D01*
X0234789Y0083912D01*
X0235156Y0083545D01*
X0235156Y0082811D01*
X0234789Y0082444D01*
X0235898Y0083545D02*
X0236265Y0083912D01*
X0236632Y0082811D02*
X0236999Y0082811D01*
X0237016Y0073656D02*
X0235915Y0072555D01*
X0237383Y0072555D01*
X0237016Y0071454D02*
X0237016Y0073656D01*
X0235173Y0073289D02*
X0234806Y0073656D01*
X0233705Y0073656D01*
X0233705Y0071454D01*
X0233705Y0072188D02*
X0234806Y0072188D01*
X0235173Y0072555D01*
X0235173Y0073289D01*
X0234439Y0072188D02*
X0235173Y0071454D01*
X0248899Y0072966D02*
X0249266Y0072599D01*
X0250000Y0072599D01*
X0250367Y0072966D01*
X0251109Y0072966D02*
X0251476Y0072599D01*
X0252210Y0072599D01*
X0252577Y0072966D01*
X0252577Y0074434D01*
X0252210Y0074801D01*
X0251476Y0074801D01*
X0251109Y0074434D01*
X0251109Y0074067D01*
X0251476Y0073700D01*
X0252577Y0073700D01*
X0250367Y0074434D02*
X0250000Y0074801D01*
X0249266Y0074801D01*
X0248899Y0074434D01*
X0248899Y0072966D01*
X0270797Y0083876D02*
X0270797Y0086078D01*
X0271898Y0086078D01*
X0272265Y0085711D01*
X0272265Y0084977D01*
X0271898Y0084610D01*
X0270797Y0084610D01*
X0273007Y0084977D02*
X0274475Y0084977D01*
X0274475Y0085344D02*
X0274475Y0083876D01*
X0275217Y0083876D02*
X0276317Y0083876D01*
X0276684Y0084243D01*
X0276684Y0085711D01*
X0276317Y0086078D01*
X0275217Y0086078D01*
X0275217Y0083876D01*
X0274475Y0085344D02*
X0273741Y0086078D01*
X0273007Y0085344D01*
X0273007Y0083876D01*
X0277426Y0083509D02*
X0278894Y0083509D01*
X0279636Y0084977D02*
X0281104Y0084977D01*
X0280737Y0083876D02*
X0280737Y0086078D01*
X0279636Y0084977D01*
X0289247Y0077129D02*
X0290348Y0077129D01*
X0290715Y0076762D01*
X0290715Y0076028D01*
X0290348Y0075661D01*
X0289247Y0075661D01*
X0289247Y0074927D02*
X0289247Y0077129D01*
X0291457Y0076395D02*
X0291457Y0074927D01*
X0291457Y0076028D02*
X0292925Y0076028D01*
X0292925Y0076395D02*
X0292925Y0074927D01*
X0293667Y0074927D02*
X0294768Y0074927D01*
X0295135Y0075294D01*
X0295135Y0076762D01*
X0294768Y0077129D01*
X0293667Y0077129D01*
X0293667Y0074927D01*
X0292925Y0076395D02*
X0292191Y0077129D01*
X0291457Y0076395D01*
X0295877Y0074560D02*
X0297344Y0074560D01*
X0298086Y0074927D02*
X0298086Y0075294D01*
X0299554Y0076762D01*
X0299554Y0077129D01*
X0298086Y0077129D01*
X0297607Y0092751D02*
X0296139Y0092751D01*
X0295398Y0093485D02*
X0295398Y0094953D01*
X0295031Y0095320D01*
X0293930Y0095320D01*
X0293930Y0093118D01*
X0295031Y0093118D01*
X0295398Y0093485D01*
X0293188Y0093118D02*
X0293188Y0094586D01*
X0292454Y0095320D01*
X0291720Y0094586D01*
X0291720Y0093118D01*
X0291720Y0094219D02*
X0293188Y0094219D01*
X0290978Y0094219D02*
X0290611Y0093852D01*
X0289510Y0093852D01*
X0289510Y0093118D02*
X0289510Y0095320D01*
X0290611Y0095320D01*
X0290978Y0094953D01*
X0290978Y0094219D01*
X0298349Y0094219D02*
X0299083Y0094586D01*
X0299450Y0094586D01*
X0299817Y0094219D01*
X0299817Y0093485D01*
X0299450Y0093118D01*
X0298716Y0093118D01*
X0298349Y0093485D01*
X0298349Y0094219D02*
X0298349Y0095320D01*
X0299817Y0095320D01*
X0280993Y0102515D02*
X0279525Y0102515D01*
X0280993Y0103983D01*
X0280993Y0104350D01*
X0280626Y0104717D01*
X0279892Y0104717D01*
X0279525Y0104350D01*
X0276573Y0104350D02*
X0276573Y0102882D01*
X0276206Y0102515D01*
X0275105Y0102515D01*
X0275105Y0104717D01*
X0276206Y0104717D01*
X0276573Y0104350D01*
X0274363Y0103983D02*
X0274363Y0102515D01*
X0274363Y0103616D02*
X0272895Y0103616D01*
X0272895Y0103983D02*
X0272895Y0102515D01*
X0272153Y0103616D02*
X0271787Y0103249D01*
X0270686Y0103249D01*
X0270686Y0102515D02*
X0270686Y0104717D01*
X0271787Y0104717D01*
X0272153Y0104350D01*
X0272153Y0103616D01*
X0272895Y0103983D02*
X0273629Y0104717D01*
X0274363Y0103983D01*
X0277315Y0102148D02*
X0278783Y0102148D01*
X0289411Y0114907D02*
X0289411Y0117109D01*
X0290512Y0117109D01*
X0290879Y0116742D01*
X0290879Y0116008D01*
X0290512Y0115641D01*
X0289411Y0115641D01*
X0291621Y0116008D02*
X0293088Y0116008D01*
X0293088Y0116375D02*
X0293088Y0114907D01*
X0293830Y0114907D02*
X0294931Y0114907D01*
X0295298Y0115274D01*
X0295298Y0116742D01*
X0294931Y0117109D01*
X0293830Y0117109D01*
X0293830Y0114907D01*
X0293088Y0116375D02*
X0292355Y0117109D01*
X0291621Y0116375D01*
X0291621Y0114907D01*
X0296040Y0114540D02*
X0297508Y0114540D01*
X0298250Y0115274D02*
X0298617Y0114907D01*
X0299351Y0114907D01*
X0299718Y0115274D01*
X0299718Y0115641D01*
X0299351Y0116008D01*
X0298617Y0116008D01*
X0298250Y0116375D01*
X0298250Y0116742D01*
X0298617Y0117109D01*
X0299351Y0117109D01*
X0299718Y0116742D01*
X0299718Y0116375D01*
X0299351Y0116008D01*
X0298617Y0116008D02*
X0298250Y0115641D01*
X0298250Y0115274D01*
X0285241Y0124004D02*
X0284874Y0123637D01*
X0284140Y0123637D01*
X0283773Y0124004D01*
X0283031Y0124004D02*
X0282664Y0123637D01*
X0281563Y0123637D01*
X0281563Y0125839D01*
X0282664Y0125839D01*
X0283031Y0125472D01*
X0283031Y0124004D01*
X0283773Y0125472D02*
X0284140Y0125839D01*
X0284874Y0125839D01*
X0285241Y0125472D01*
X0285241Y0125105D01*
X0284874Y0124738D01*
X0285241Y0124371D01*
X0285241Y0124004D01*
X0284874Y0124738D02*
X0284507Y0124738D01*
X0252617Y0121520D02*
X0252617Y0121153D01*
X0252250Y0120786D01*
X0251516Y0120786D01*
X0251149Y0121153D01*
X0251149Y0121520D01*
X0251516Y0121887D01*
X0252250Y0121887D01*
X0252617Y0121520D01*
X0252250Y0120786D02*
X0252617Y0120419D01*
X0252617Y0120052D01*
X0252250Y0119685D01*
X0251516Y0119685D01*
X0251149Y0120052D01*
X0251149Y0120419D01*
X0251516Y0120786D01*
X0250407Y0120052D02*
X0250040Y0119685D01*
X0249306Y0119685D01*
X0248939Y0120052D01*
X0248939Y0121520D01*
X0249306Y0121887D01*
X0250040Y0121887D01*
X0250407Y0121520D01*
X0166001Y0112499D02*
X0165267Y0112132D01*
X0164533Y0111398D01*
X0165634Y0111398D01*
X0166001Y0111031D01*
X0166001Y0110664D01*
X0165634Y0110297D01*
X0164900Y0110297D01*
X0164533Y0110664D01*
X0164533Y0111398D01*
X0163791Y0110297D02*
X0162323Y0110297D01*
X0163057Y0110297D02*
X0163057Y0112499D01*
X0162323Y0111765D01*
X0161581Y0111398D02*
X0161214Y0111031D01*
X0160113Y0111031D01*
X0160113Y0110297D02*
X0160113Y0112499D01*
X0161214Y0112499D01*
X0161581Y0112132D01*
X0161581Y0111398D01*
X0160847Y0111031D02*
X0161581Y0110297D01*
X0219895Y0059678D02*
X0222097Y0059678D01*
X0222097Y0058944D02*
X0222097Y0060412D01*
X0220629Y0058944D02*
X0219895Y0059678D01*
X0219895Y0058202D02*
X0219895Y0056735D01*
X0219895Y0057469D02*
X0222097Y0057469D01*
X0270841Y0055640D02*
X0270841Y0053438D01*
X0270841Y0054172D02*
X0271942Y0054172D01*
X0272309Y0054539D01*
X0272309Y0055273D01*
X0271942Y0055640D01*
X0270841Y0055640D01*
X0273051Y0054906D02*
X0273051Y0053438D01*
X0273051Y0054539D02*
X0274518Y0054539D01*
X0274518Y0054906D02*
X0274518Y0053438D01*
X0275260Y0053438D02*
X0276361Y0053438D01*
X0276728Y0053805D01*
X0276728Y0055273D01*
X0276361Y0055640D01*
X0275260Y0055640D01*
X0275260Y0053438D01*
X0274518Y0054906D02*
X0273785Y0055640D01*
X0273051Y0054906D01*
X0277470Y0053071D02*
X0278938Y0053071D01*
X0279680Y0053805D02*
X0280047Y0053438D01*
X0280781Y0053438D01*
X0281148Y0053805D01*
X0281148Y0054172D01*
X0280781Y0054539D01*
X0280414Y0054539D01*
X0280781Y0054539D02*
X0281148Y0054906D01*
X0281148Y0055273D01*
X0280781Y0055640D01*
X0280047Y0055640D01*
X0279680Y0055273D01*
X0289115Y0046782D02*
X0290216Y0046782D01*
X0290583Y0046415D01*
X0290583Y0045681D01*
X0290216Y0045314D01*
X0289115Y0045314D01*
X0289115Y0044580D02*
X0289115Y0046782D01*
X0291325Y0046048D02*
X0292059Y0046782D01*
X0292793Y0046048D01*
X0292793Y0044580D01*
X0293535Y0044580D02*
X0294636Y0044580D01*
X0295003Y0044947D01*
X0295003Y0046415D01*
X0294636Y0046782D01*
X0293535Y0046782D01*
X0293535Y0044580D01*
X0292793Y0045681D02*
X0291325Y0045681D01*
X0291325Y0046048D02*
X0291325Y0044580D01*
X0295745Y0044213D02*
X0297212Y0044213D01*
X0297954Y0044947D02*
X0298321Y0044580D01*
X0299055Y0044580D01*
X0299422Y0044947D01*
X0299422Y0045314D01*
X0299055Y0045681D01*
X0297954Y0045681D01*
X0297954Y0044947D01*
X0297954Y0045681D02*
X0298688Y0046415D01*
X0299422Y0046782D01*
X0280532Y0034500D02*
X0279798Y0033766D01*
X0280532Y0034500D02*
X0280532Y0032299D01*
X0279798Y0032299D02*
X0281266Y0032299D01*
X0279056Y0031932D02*
X0277588Y0031932D01*
X0276846Y0032666D02*
X0276846Y0034133D01*
X0276479Y0034500D01*
X0275378Y0034500D01*
X0275378Y0032299D01*
X0276479Y0032299D01*
X0276846Y0032666D01*
X0274636Y0032299D02*
X0274636Y0033766D01*
X0273902Y0034500D01*
X0273168Y0033766D01*
X0273168Y0032299D01*
X0273168Y0033400D02*
X0274636Y0033400D01*
X0272426Y0033400D02*
X0272059Y0033033D01*
X0270958Y0033033D01*
X0270958Y0032299D02*
X0270958Y0034500D01*
X0272059Y0034500D01*
X0272426Y0034133D01*
X0272426Y0033400D01*
D12*
X0271908Y0035599D02*
X0273908Y0035599D01*
X0271908Y0035599D02*
X0271908Y0037599D01*
X0279908Y0035599D02*
X0281908Y0035599D01*
X0281908Y0037599D01*
X0281908Y0043599D02*
X0281908Y0045599D01*
X0279908Y0045599D01*
X0273908Y0045599D02*
X0271908Y0045599D01*
X0271908Y0043599D01*
X0290064Y0047880D02*
X0292064Y0047880D01*
X0290064Y0047880D02*
X0290064Y0049880D01*
X0298064Y0047880D02*
X0300064Y0047880D01*
X0300064Y0049880D01*
X0300064Y0055880D02*
X0300064Y0057880D01*
X0298064Y0057880D01*
X0292064Y0057880D02*
X0290064Y0057880D01*
X0290064Y0055880D01*
X0281790Y0056738D02*
X0279790Y0056738D01*
X0281790Y0056738D02*
X0281790Y0058738D01*
X0273790Y0056738D02*
X0271790Y0056738D01*
X0271790Y0058738D01*
X0271790Y0064738D02*
X0271790Y0066738D01*
X0273790Y0066738D01*
X0279790Y0066738D02*
X0281790Y0066738D01*
X0281790Y0064738D01*
X0256339Y0067437D02*
X0255839Y0067437D01*
X0253839Y0067437D02*
X0253339Y0067437D01*
X0290196Y0078227D02*
X0292196Y0078227D01*
X0290196Y0078227D02*
X0290196Y0080227D01*
X0298196Y0078227D02*
X0300196Y0078227D01*
X0300196Y0080227D01*
X0300196Y0086227D02*
X0300196Y0088227D01*
X0298196Y0088227D01*
X0292196Y0088227D02*
X0290196Y0088227D01*
X0290196Y0086227D01*
X0281746Y0087176D02*
X0279746Y0087176D01*
X0281746Y0087176D02*
X0281746Y0089176D01*
X0273746Y0087176D02*
X0271746Y0087176D01*
X0271746Y0089176D01*
X0271746Y0095176D02*
X0271746Y0097176D01*
X0273746Y0097176D01*
X0279746Y0097176D02*
X0281746Y0097176D01*
X0281746Y0095176D01*
X0290459Y0096418D02*
X0292459Y0096418D01*
X0290459Y0096418D02*
X0290459Y0098418D01*
X0298459Y0096418D02*
X0300459Y0096418D01*
X0300459Y0098418D01*
X0300459Y0104418D02*
X0300459Y0106418D01*
X0298459Y0106418D01*
X0292459Y0106418D02*
X0290459Y0106418D01*
X0290459Y0104418D01*
X0281635Y0105815D02*
X0279635Y0105815D01*
X0281635Y0105815D02*
X0281635Y0107815D01*
X0273635Y0105815D02*
X0271635Y0105815D01*
X0271635Y0107815D01*
X0271635Y0113815D02*
X0271635Y0115815D01*
X0273635Y0115815D01*
X0279635Y0115815D02*
X0281635Y0115815D01*
X0281635Y0113815D01*
X0290360Y0118207D02*
X0292360Y0118207D01*
X0290360Y0118207D02*
X0290360Y0120207D01*
X0298360Y0118207D02*
X0300360Y0118207D01*
X0300360Y0120207D01*
X0300360Y0126207D02*
X0300360Y0128207D01*
X0298360Y0128207D01*
X0292360Y0128207D02*
X0290360Y0128207D01*
X0290360Y0126207D01*
X0256379Y0114524D02*
X0255879Y0114524D01*
X0253879Y0114524D02*
X0253379Y0114524D01*
X0253575Y0089720D02*
X0254075Y0089720D01*
X0256075Y0089720D02*
X0256575Y0089720D01*
X0105831Y0038626D02*
X0104831Y0038626D01*
X0105831Y0038626D02*
X0105831Y0037626D01*
X0100831Y0038626D02*
X0099831Y0038626D01*
X0099831Y0037626D01*
X0095753Y0037587D02*
X0095753Y0038587D01*
X0094753Y0038587D01*
X0090753Y0038587D02*
X0089753Y0038587D01*
X0089753Y0037587D01*
X0085871Y0037587D02*
X0085871Y0038587D01*
X0084871Y0038587D01*
X0080871Y0038587D02*
X0079871Y0038587D01*
X0079871Y0037587D01*
X0075871Y0037469D02*
X0075871Y0038469D01*
X0074871Y0038469D01*
X0070871Y0038469D02*
X0069871Y0038469D01*
X0069871Y0037469D01*
X0065635Y0037547D02*
X0065635Y0038547D01*
X0064635Y0038547D01*
X0060635Y0038547D02*
X0059635Y0038547D01*
X0059635Y0037547D01*
X0059635Y0033547D02*
X0059635Y0032547D01*
X0060635Y0032547D01*
X0064635Y0032547D02*
X0065635Y0032547D01*
X0065635Y0033547D01*
X0069871Y0033469D02*
X0069871Y0032469D01*
X0070871Y0032469D01*
X0074871Y0032469D02*
X0075871Y0032469D01*
X0075871Y0033469D01*
X0079871Y0033587D02*
X0079871Y0032587D01*
X0080871Y0032587D01*
X0084871Y0032587D02*
X0085871Y0032587D01*
X0085871Y0033587D01*
X0089753Y0033587D02*
X0089753Y0032587D01*
X0090753Y0032587D01*
X0094753Y0032587D02*
X0095753Y0032587D01*
X0095753Y0033587D01*
X0099831Y0033626D02*
X0099831Y0032626D01*
X0100831Y0032626D01*
X0104831Y0032626D02*
X0105831Y0032626D01*
X0105831Y0033626D01*
D13*
X0253839Y0064437D02*
X0253839Y0067437D01*
X0253839Y0070437D01*
X0255839Y0070437D02*
X0255839Y0067437D01*
X0255839Y0064437D01*
X0256075Y0086720D02*
X0256075Y0089720D01*
X0256075Y0092720D01*
X0254075Y0092720D02*
X0254075Y0089720D01*
X0254075Y0086720D01*
X0253879Y0111524D02*
X0253879Y0114524D01*
X0253879Y0117524D01*
X0255879Y0117524D02*
X0255879Y0114524D01*
X0255879Y0111524D01*
D14*
X0246286Y0118110D02*
X0246249Y0118110D01*
X0246446Y0093307D02*
X0246483Y0093307D01*
X0246247Y0071023D02*
X0246209Y0071023D01*
D15*
X0248264Y0071689D02*
X0261453Y0071689D01*
X0261581Y0071688D01*
X0261709Y0071684D01*
X0261836Y0071676D01*
X0261964Y0071665D01*
X0262091Y0071649D01*
X0262217Y0071629D01*
X0262343Y0071606D01*
X0262468Y0071579D01*
X0262592Y0071548D01*
X0262715Y0071513D01*
X0262837Y0071474D01*
X0262957Y0071432D01*
X0263077Y0071386D01*
X0263195Y0071337D01*
X0263311Y0071283D01*
X0263426Y0071227D01*
X0263539Y0071167D01*
X0263650Y0071103D01*
X0263759Y0071036D01*
X0263865Y0070966D01*
X0263970Y0070893D01*
X0264073Y0070816D01*
X0264173Y0070737D01*
X0264270Y0070654D01*
X0264365Y0070568D01*
X0264458Y0070480D01*
X0264547Y0070389D01*
X0264634Y0070295D01*
X0264718Y0070198D01*
X0264799Y0070099D01*
X0264877Y0069998D01*
X0264952Y0069894D01*
X0265023Y0069788D01*
X0265091Y0069680D01*
X0265156Y0069570D01*
X0265218Y0069458D01*
X0265276Y0069344D01*
X0265331Y0069228D01*
X0265382Y0069111D01*
X0265429Y0068992D01*
X0265473Y0068872D01*
X0265513Y0068750D01*
X0265549Y0068628D01*
X0265582Y0068504D01*
X0265611Y0068380D01*
X0265636Y0068254D01*
X0265657Y0068128D01*
X0265674Y0068001D01*
X0265688Y0067874D01*
X0265697Y0067747D01*
X0265703Y0067619D01*
X0265705Y0067491D01*
X0265703Y0067363D01*
X0265697Y0067235D01*
X0265687Y0067108D01*
X0265673Y0066981D01*
X0265656Y0066854D01*
X0265634Y0066728D01*
X0265609Y0066603D01*
X0265580Y0066478D01*
X0265547Y0066355D01*
X0265510Y0066232D01*
X0265470Y0066111D01*
X0265426Y0065991D01*
X0265378Y0065872D01*
X0265326Y0065755D01*
X0265272Y0065639D01*
X0265213Y0065526D01*
X0265151Y0065414D01*
X0265086Y0065304D01*
X0265018Y0065196D01*
X0264946Y0065090D01*
X0264871Y0064986D01*
X0264793Y0064885D01*
X0264712Y0064786D01*
X0264628Y0064690D01*
X0264541Y0064596D01*
X0264451Y0064505D01*
X0264358Y0064417D01*
X0264263Y0064332D01*
X0264165Y0064249D01*
X0264065Y0064170D01*
X0263962Y0064093D01*
X0263857Y0064020D01*
X0263750Y0063950D01*
X0263641Y0063884D01*
X0263530Y0063821D01*
X0263417Y0063761D01*
X0263302Y0063704D01*
X0263186Y0063652D01*
X0263068Y0063602D01*
X0262948Y0063557D01*
X0262827Y0063515D01*
X0262705Y0063476D01*
X0262582Y0063442D01*
X0262458Y0063411D01*
X0262333Y0063384D01*
X0262207Y0063361D01*
X0262081Y0063342D01*
X0261954Y0063326D01*
X0261827Y0063315D01*
X0261699Y0063307D01*
X0261571Y0063303D01*
X0261572Y0063303D02*
X0248383Y0063303D01*
X0248382Y0063303D02*
X0248254Y0063304D01*
X0248126Y0063308D01*
X0247999Y0063316D01*
X0247871Y0063327D01*
X0247744Y0063343D01*
X0247618Y0063363D01*
X0247492Y0063386D01*
X0247367Y0063413D01*
X0247243Y0063444D01*
X0247120Y0063479D01*
X0246998Y0063518D01*
X0246878Y0063560D01*
X0246758Y0063606D01*
X0246640Y0063655D01*
X0246524Y0063709D01*
X0246409Y0063765D01*
X0246296Y0063825D01*
X0246185Y0063889D01*
X0246076Y0063956D01*
X0245970Y0064026D01*
X0245865Y0064099D01*
X0245762Y0064176D01*
X0245662Y0064255D01*
X0245565Y0064338D01*
X0245470Y0064424D01*
X0245377Y0064512D01*
X0245288Y0064603D01*
X0245201Y0064697D01*
X0245117Y0064794D01*
X0245036Y0064893D01*
X0244958Y0064994D01*
X0244883Y0065098D01*
X0244812Y0065204D01*
X0244744Y0065312D01*
X0244679Y0065422D01*
X0244617Y0065534D01*
X0244559Y0065648D01*
X0244504Y0065764D01*
X0244453Y0065881D01*
X0244406Y0066000D01*
X0244362Y0066120D01*
X0244322Y0066242D01*
X0244286Y0066364D01*
X0244253Y0066488D01*
X0244224Y0066612D01*
X0244199Y0066738D01*
X0244178Y0066864D01*
X0244161Y0066991D01*
X0244147Y0067118D01*
X0244138Y0067245D01*
X0244132Y0067373D01*
X0244130Y0067501D01*
X0244132Y0067629D01*
X0244138Y0067757D01*
X0244148Y0067884D01*
X0244162Y0068011D01*
X0244179Y0068138D01*
X0244201Y0068264D01*
X0244226Y0068389D01*
X0244255Y0068514D01*
X0244288Y0068637D01*
X0244325Y0068760D01*
X0244365Y0068881D01*
X0244409Y0069001D01*
X0244457Y0069120D01*
X0244509Y0069237D01*
X0244563Y0069353D01*
X0244622Y0069466D01*
X0244684Y0069578D01*
X0244749Y0069688D01*
X0244817Y0069796D01*
X0244889Y0069902D01*
X0244964Y0070006D01*
X0245042Y0070107D01*
X0245123Y0070206D01*
X0245207Y0070302D01*
X0245294Y0070396D01*
X0245384Y0070487D01*
X0245477Y0070575D01*
X0245572Y0070660D01*
X0245670Y0070743D01*
X0245770Y0070822D01*
X0245873Y0070899D01*
X0245978Y0070972D01*
X0246085Y0071042D01*
X0246194Y0071108D01*
X0246305Y0071171D01*
X0246418Y0071231D01*
X0246533Y0071288D01*
X0246649Y0071340D01*
X0246767Y0071390D01*
X0246887Y0071435D01*
X0247008Y0071477D01*
X0247130Y0071516D01*
X0247253Y0071550D01*
X0247377Y0071581D01*
X0247502Y0071608D01*
X0247628Y0071631D01*
X0247754Y0071650D01*
X0247881Y0071666D01*
X0248008Y0071677D01*
X0248136Y0071685D01*
X0248264Y0071689D01*
X0223426Y0070762D02*
X0223426Y0054270D01*
X0217926Y0053643D02*
X0217926Y0052063D01*
X0217926Y0061389D02*
X0217926Y0063643D01*
X0223426Y0054270D02*
X0223227Y0054117D01*
X0223025Y0053969D01*
X0222820Y0053826D01*
X0222611Y0053688D01*
X0222399Y0053555D01*
X0222184Y0053427D01*
X0221966Y0053305D01*
X0221745Y0053187D01*
X0221521Y0053075D01*
X0221295Y0052968D01*
X0221066Y0052867D01*
X0220835Y0052771D01*
X0220601Y0052680D01*
X0220366Y0052595D01*
X0220128Y0052516D01*
X0219889Y0052443D01*
X0219648Y0052375D01*
X0219406Y0052313D01*
X0219162Y0052257D01*
X0218916Y0052206D01*
X0218670Y0052162D01*
X0218423Y0052123D01*
X0218175Y0052091D01*
X0217926Y0052064D01*
X0206893Y0065612D02*
X0206971Y0065854D01*
X0207055Y0066094D01*
X0207144Y0066332D01*
X0207240Y0066568D01*
X0207341Y0066802D01*
X0207447Y0067033D01*
X0207560Y0067261D01*
X0207677Y0067487D01*
X0207800Y0067710D01*
X0207929Y0067929D01*
X0208063Y0068146D01*
X0208202Y0068359D01*
X0208346Y0068569D01*
X0208495Y0068775D01*
X0208649Y0068977D01*
X0208808Y0069176D01*
X0208972Y0069371D01*
X0209141Y0069562D01*
X0209314Y0069748D01*
X0209491Y0069931D01*
X0209673Y0070109D01*
X0209859Y0070282D01*
X0210050Y0070451D01*
X0210244Y0070615D01*
X0210442Y0070775D01*
X0210644Y0070930D01*
X0210850Y0071079D01*
X0211059Y0071224D01*
X0211272Y0071364D01*
X0211488Y0071498D01*
X0211708Y0071627D01*
X0211930Y0071751D01*
X0212155Y0071870D01*
X0212383Y0071982D01*
X0212614Y0072090D01*
X0212847Y0072191D01*
X0213083Y0072287D01*
X0213321Y0072378D01*
X0213561Y0072462D01*
X0213803Y0072541D01*
X0214047Y0072614D01*
X0214293Y0072680D01*
X0214540Y0072741D01*
X0214788Y0072796D01*
X0215038Y0072845D01*
X0215289Y0072888D01*
X0215541Y0072924D01*
X0215793Y0072955D01*
X0216047Y0072979D01*
X0216300Y0072997D01*
X0216555Y0073009D01*
X0216809Y0073015D01*
X0217064Y0073015D01*
X0217318Y0073009D01*
X0217572Y0072996D01*
X0217826Y0072977D01*
X0218079Y0072952D01*
X0218332Y0072921D01*
X0218584Y0072884D01*
X0218834Y0072841D01*
X0219084Y0072792D01*
X0219333Y0072737D01*
X0219580Y0072675D01*
X0219825Y0072608D01*
X0220069Y0072535D01*
X0220311Y0072456D01*
X0220550Y0072371D01*
X0220788Y0072280D01*
X0221024Y0072183D01*
X0221257Y0072081D01*
X0221487Y0071973D01*
X0221715Y0071860D01*
X0221940Y0071741D01*
X0222162Y0071617D01*
X0222381Y0071488D01*
X0222597Y0071353D01*
X0222810Y0071213D01*
X0223019Y0071067D01*
X0223224Y0070917D01*
X0223426Y0070762D01*
X0217926Y0071389D02*
X0217926Y0072968D01*
X0206893Y0059420D02*
X0206971Y0059176D01*
X0207056Y0058934D01*
X0207146Y0058695D01*
X0207242Y0058457D01*
X0207344Y0058222D01*
X0207452Y0057989D01*
X0207565Y0057759D01*
X0207684Y0057532D01*
X0207808Y0057308D01*
X0207938Y0057087D01*
X0208073Y0056870D01*
X0208214Y0056655D01*
X0208360Y0056444D01*
X0208510Y0056237D01*
X0208666Y0056034D01*
X0208827Y0055834D01*
X0208992Y0055638D01*
X0209162Y0055447D01*
X0209337Y0055259D01*
X0209517Y0055076D01*
X0209700Y0054898D01*
X0209889Y0054723D01*
X0210081Y0054554D01*
X0210277Y0054389D01*
X0210478Y0054229D01*
X0210682Y0054075D01*
X0210890Y0053925D01*
X0211101Y0053780D01*
X0211316Y0053640D01*
X0211534Y0053506D01*
X0211756Y0053377D01*
X0211980Y0053254D01*
X0212208Y0053136D01*
X0212438Y0053023D01*
X0212671Y0052917D01*
X0212907Y0052816D01*
X0213145Y0052720D01*
X0213385Y0052631D01*
X0213627Y0052548D01*
X0213872Y0052470D01*
X0214118Y0052399D01*
X0214366Y0052333D01*
X0214615Y0052274D01*
X0214865Y0052220D01*
X0215117Y0052173D01*
X0215370Y0052132D01*
X0215624Y0052097D01*
X0215879Y0052068D01*
X0216134Y0052046D01*
X0216390Y0052030D01*
X0216646Y0052020D01*
X0216902Y0052016D01*
X0217159Y0052019D01*
X0217415Y0052027D01*
X0217671Y0052042D01*
X0217926Y0052064D01*
X0248619Y0085587D02*
X0261808Y0085587D01*
X0261936Y0085591D01*
X0262064Y0085599D01*
X0262191Y0085610D01*
X0262318Y0085626D01*
X0262444Y0085645D01*
X0262570Y0085668D01*
X0262695Y0085695D01*
X0262819Y0085726D01*
X0262942Y0085760D01*
X0263064Y0085799D01*
X0263185Y0085841D01*
X0263305Y0085886D01*
X0263423Y0085936D01*
X0263539Y0085988D01*
X0263654Y0086045D01*
X0263767Y0086105D01*
X0263878Y0086168D01*
X0263987Y0086234D01*
X0264094Y0086304D01*
X0264199Y0086377D01*
X0264302Y0086454D01*
X0264402Y0086533D01*
X0264500Y0086616D01*
X0264595Y0086701D01*
X0264688Y0086789D01*
X0264778Y0086880D01*
X0264865Y0086974D01*
X0264949Y0087070D01*
X0265030Y0087169D01*
X0265108Y0087270D01*
X0265183Y0087374D01*
X0265255Y0087480D01*
X0265323Y0087588D01*
X0265388Y0087698D01*
X0265450Y0087810D01*
X0265509Y0087923D01*
X0265563Y0088039D01*
X0265615Y0088156D01*
X0265663Y0088275D01*
X0265707Y0088395D01*
X0265747Y0088516D01*
X0265784Y0088639D01*
X0265817Y0088762D01*
X0265846Y0088887D01*
X0265871Y0089012D01*
X0265893Y0089138D01*
X0265910Y0089265D01*
X0265924Y0089392D01*
X0265934Y0089519D01*
X0265940Y0089647D01*
X0265942Y0089775D01*
X0265940Y0089903D01*
X0265934Y0090031D01*
X0265925Y0090158D01*
X0265911Y0090285D01*
X0265894Y0090412D01*
X0265873Y0090538D01*
X0265848Y0090664D01*
X0265819Y0090788D01*
X0265786Y0090912D01*
X0265750Y0091034D01*
X0265710Y0091156D01*
X0265666Y0091276D01*
X0265619Y0091395D01*
X0265568Y0091512D01*
X0265513Y0091628D01*
X0265455Y0091742D01*
X0265393Y0091854D01*
X0265328Y0091964D01*
X0265260Y0092072D01*
X0265189Y0092178D01*
X0265114Y0092282D01*
X0265036Y0092383D01*
X0264955Y0092482D01*
X0264871Y0092579D01*
X0264784Y0092673D01*
X0264695Y0092764D01*
X0264602Y0092852D01*
X0264507Y0092938D01*
X0264410Y0093021D01*
X0264310Y0093100D01*
X0264207Y0093177D01*
X0264102Y0093250D01*
X0263996Y0093320D01*
X0263887Y0093387D01*
X0263776Y0093451D01*
X0263663Y0093511D01*
X0263548Y0093567D01*
X0263432Y0093621D01*
X0263314Y0093670D01*
X0263194Y0093716D01*
X0263074Y0093758D01*
X0262952Y0093797D01*
X0262829Y0093832D01*
X0262705Y0093863D01*
X0262580Y0093890D01*
X0262454Y0093913D01*
X0262328Y0093933D01*
X0262201Y0093949D01*
X0262073Y0093960D01*
X0261946Y0093968D01*
X0261818Y0093972D01*
X0261690Y0093973D01*
X0261690Y0093972D02*
X0248501Y0093972D01*
X0248501Y0093973D02*
X0248373Y0093969D01*
X0248245Y0093961D01*
X0248118Y0093950D01*
X0247991Y0093934D01*
X0247865Y0093915D01*
X0247739Y0093892D01*
X0247614Y0093865D01*
X0247490Y0093834D01*
X0247367Y0093800D01*
X0247245Y0093761D01*
X0247124Y0093719D01*
X0247004Y0093674D01*
X0246886Y0093624D01*
X0246770Y0093572D01*
X0246655Y0093515D01*
X0246542Y0093455D01*
X0246431Y0093392D01*
X0246322Y0093326D01*
X0246215Y0093256D01*
X0246110Y0093183D01*
X0246007Y0093106D01*
X0245907Y0093027D01*
X0245809Y0092944D01*
X0245714Y0092859D01*
X0245621Y0092771D01*
X0245531Y0092680D01*
X0245444Y0092586D01*
X0245360Y0092490D01*
X0245279Y0092391D01*
X0245201Y0092290D01*
X0245126Y0092186D01*
X0245054Y0092080D01*
X0244986Y0091972D01*
X0244921Y0091862D01*
X0244859Y0091750D01*
X0244800Y0091637D01*
X0244746Y0091521D01*
X0244694Y0091404D01*
X0244646Y0091285D01*
X0244602Y0091165D01*
X0244562Y0091044D01*
X0244525Y0090921D01*
X0244492Y0090798D01*
X0244463Y0090673D01*
X0244438Y0090548D01*
X0244416Y0090422D01*
X0244399Y0090295D01*
X0244385Y0090168D01*
X0244375Y0090041D01*
X0244369Y0089913D01*
X0244367Y0089785D01*
X0244369Y0089657D01*
X0244375Y0089529D01*
X0244384Y0089402D01*
X0244398Y0089275D01*
X0244415Y0089148D01*
X0244436Y0089022D01*
X0244461Y0088896D01*
X0244490Y0088772D01*
X0244523Y0088648D01*
X0244559Y0088526D01*
X0244599Y0088404D01*
X0244643Y0088284D01*
X0244690Y0088165D01*
X0244741Y0088048D01*
X0244796Y0087932D01*
X0244854Y0087818D01*
X0244916Y0087706D01*
X0244981Y0087596D01*
X0245049Y0087488D01*
X0245120Y0087382D01*
X0245195Y0087278D01*
X0245273Y0087177D01*
X0245354Y0087078D01*
X0245438Y0086981D01*
X0245525Y0086887D01*
X0245614Y0086796D01*
X0245707Y0086708D01*
X0245802Y0086622D01*
X0245899Y0086539D01*
X0245999Y0086460D01*
X0246102Y0086383D01*
X0246207Y0086310D01*
X0246313Y0086240D01*
X0246422Y0086173D01*
X0246533Y0086109D01*
X0246646Y0086049D01*
X0246761Y0085993D01*
X0246877Y0085939D01*
X0246995Y0085890D01*
X0247115Y0085844D01*
X0247235Y0085802D01*
X0247357Y0085763D01*
X0247480Y0085728D01*
X0247604Y0085697D01*
X0247729Y0085670D01*
X0247855Y0085647D01*
X0247981Y0085627D01*
X0248108Y0085611D01*
X0248236Y0085600D01*
X0248363Y0085592D01*
X0248491Y0085588D01*
X0248619Y0085587D01*
X0248422Y0110390D02*
X0261611Y0110390D01*
X0261739Y0110394D01*
X0261867Y0110402D01*
X0261994Y0110413D01*
X0262121Y0110429D01*
X0262247Y0110448D01*
X0262373Y0110471D01*
X0262498Y0110498D01*
X0262622Y0110529D01*
X0262745Y0110563D01*
X0262867Y0110602D01*
X0262988Y0110644D01*
X0263108Y0110689D01*
X0263226Y0110739D01*
X0263342Y0110791D01*
X0263457Y0110848D01*
X0263570Y0110908D01*
X0263681Y0110971D01*
X0263790Y0111037D01*
X0263897Y0111107D01*
X0264002Y0111180D01*
X0264105Y0111257D01*
X0264205Y0111336D01*
X0264303Y0111419D01*
X0264398Y0111504D01*
X0264491Y0111592D01*
X0264581Y0111683D01*
X0264668Y0111777D01*
X0264752Y0111873D01*
X0264833Y0111972D01*
X0264911Y0112073D01*
X0264986Y0112177D01*
X0265058Y0112283D01*
X0265126Y0112391D01*
X0265191Y0112501D01*
X0265253Y0112613D01*
X0265312Y0112726D01*
X0265366Y0112842D01*
X0265418Y0112959D01*
X0265466Y0113078D01*
X0265510Y0113198D01*
X0265550Y0113319D01*
X0265587Y0113442D01*
X0265620Y0113565D01*
X0265649Y0113690D01*
X0265674Y0113815D01*
X0265696Y0113941D01*
X0265713Y0114068D01*
X0265727Y0114195D01*
X0265737Y0114322D01*
X0265743Y0114450D01*
X0265745Y0114578D01*
X0265743Y0114706D01*
X0265737Y0114834D01*
X0265728Y0114961D01*
X0265714Y0115088D01*
X0265697Y0115215D01*
X0265676Y0115341D01*
X0265651Y0115467D01*
X0265622Y0115591D01*
X0265589Y0115715D01*
X0265553Y0115837D01*
X0265513Y0115959D01*
X0265469Y0116079D01*
X0265422Y0116198D01*
X0265371Y0116315D01*
X0265316Y0116431D01*
X0265258Y0116545D01*
X0265196Y0116657D01*
X0265131Y0116767D01*
X0265063Y0116875D01*
X0264992Y0116981D01*
X0264917Y0117085D01*
X0264839Y0117186D01*
X0264758Y0117285D01*
X0264674Y0117382D01*
X0264587Y0117476D01*
X0264498Y0117567D01*
X0264405Y0117655D01*
X0264310Y0117741D01*
X0264213Y0117824D01*
X0264113Y0117903D01*
X0264010Y0117980D01*
X0263905Y0118053D01*
X0263799Y0118123D01*
X0263690Y0118190D01*
X0263579Y0118254D01*
X0263466Y0118314D01*
X0263351Y0118370D01*
X0263235Y0118424D01*
X0263117Y0118473D01*
X0262997Y0118519D01*
X0262877Y0118561D01*
X0262755Y0118600D01*
X0262632Y0118635D01*
X0262508Y0118666D01*
X0262383Y0118693D01*
X0262257Y0118716D01*
X0262131Y0118736D01*
X0262004Y0118752D01*
X0261876Y0118763D01*
X0261749Y0118771D01*
X0261621Y0118775D01*
X0261493Y0118776D01*
X0248304Y0118776D01*
X0248176Y0118772D01*
X0248048Y0118764D01*
X0247921Y0118753D01*
X0247794Y0118737D01*
X0247668Y0118718D01*
X0247542Y0118695D01*
X0247417Y0118668D01*
X0247293Y0118637D01*
X0247170Y0118603D01*
X0247048Y0118564D01*
X0246927Y0118522D01*
X0246807Y0118477D01*
X0246689Y0118427D01*
X0246573Y0118375D01*
X0246458Y0118318D01*
X0246345Y0118258D01*
X0246234Y0118195D01*
X0246125Y0118129D01*
X0246018Y0118059D01*
X0245913Y0117986D01*
X0245810Y0117909D01*
X0245710Y0117830D01*
X0245612Y0117747D01*
X0245517Y0117662D01*
X0245424Y0117574D01*
X0245334Y0117483D01*
X0245247Y0117389D01*
X0245163Y0117293D01*
X0245082Y0117194D01*
X0245004Y0117093D01*
X0244929Y0116989D01*
X0244857Y0116883D01*
X0244789Y0116775D01*
X0244724Y0116665D01*
X0244662Y0116553D01*
X0244603Y0116440D01*
X0244549Y0116324D01*
X0244497Y0116207D01*
X0244449Y0116088D01*
X0244405Y0115968D01*
X0244365Y0115847D01*
X0244328Y0115724D01*
X0244295Y0115601D01*
X0244266Y0115476D01*
X0244241Y0115351D01*
X0244219Y0115225D01*
X0244202Y0115098D01*
X0244188Y0114971D01*
X0244178Y0114844D01*
X0244172Y0114716D01*
X0244170Y0114588D01*
X0244172Y0114460D01*
X0244178Y0114332D01*
X0244187Y0114205D01*
X0244201Y0114078D01*
X0244218Y0113951D01*
X0244239Y0113825D01*
X0244264Y0113699D01*
X0244293Y0113575D01*
X0244326Y0113451D01*
X0244362Y0113329D01*
X0244402Y0113207D01*
X0244446Y0113087D01*
X0244493Y0112968D01*
X0244544Y0112851D01*
X0244599Y0112735D01*
X0244657Y0112621D01*
X0244719Y0112509D01*
X0244784Y0112399D01*
X0244852Y0112291D01*
X0244923Y0112185D01*
X0244998Y0112081D01*
X0245076Y0111980D01*
X0245157Y0111881D01*
X0245241Y0111784D01*
X0245328Y0111690D01*
X0245417Y0111599D01*
X0245510Y0111511D01*
X0245605Y0111425D01*
X0245702Y0111342D01*
X0245802Y0111263D01*
X0245905Y0111186D01*
X0246010Y0111113D01*
X0246116Y0111043D01*
X0246225Y0110976D01*
X0246336Y0110912D01*
X0246449Y0110852D01*
X0246564Y0110796D01*
X0246680Y0110742D01*
X0246798Y0110693D01*
X0246918Y0110647D01*
X0247038Y0110605D01*
X0247160Y0110566D01*
X0247283Y0110531D01*
X0247407Y0110500D01*
X0247532Y0110473D01*
X0247658Y0110450D01*
X0247784Y0110430D01*
X0247911Y0110414D01*
X0248039Y0110403D01*
X0248166Y0110395D01*
X0248294Y0110391D01*
X0248422Y0110390D01*
X0272133Y0130312D02*
X0272133Y0132187D01*
X0269007Y0132187D01*
X0272133Y0132187D02*
X0272133Y0134062D01*
X0272133Y0132187D02*
X0274633Y0134062D01*
X0274633Y0132187D01*
X0277758Y0132187D01*
X0274633Y0132187D02*
X0274633Y0130312D01*
X0272133Y0132187D01*
X0105117Y0051142D02*
X0103616Y0049641D01*
X0103616Y0050391D02*
X0103616Y0048139D01*
X0105117Y0048139D02*
X0100613Y0048139D01*
X0100613Y0050391D01*
X0101364Y0051142D01*
X0102865Y0051142D01*
X0103616Y0050391D01*
X0105117Y0046538D02*
X0105117Y0043535D01*
X0100613Y0043535D01*
X0101364Y0041934D02*
X0100613Y0041183D01*
X0100613Y0039682D01*
X0101364Y0038931D01*
X0104366Y0038931D01*
X0105117Y0039682D01*
X0105117Y0041183D01*
X0104366Y0041934D01*
X0095038Y0040393D02*
X0093537Y0038892D01*
X0090534Y0038892D01*
X0093537Y0041895D02*
X0095038Y0040393D01*
X0093537Y0041895D02*
X0090534Y0041895D01*
X0091285Y0043496D02*
X0094288Y0043496D01*
X0095038Y0044247D01*
X0095038Y0045748D01*
X0094288Y0046499D01*
X0094288Y0048100D02*
X0091285Y0048100D01*
X0090534Y0048851D01*
X0090534Y0050352D01*
X0091285Y0051102D01*
X0094288Y0051102D02*
X0095038Y0050352D01*
X0095038Y0048851D01*
X0094288Y0048100D01*
X0091285Y0046499D02*
X0090534Y0045748D01*
X0090534Y0044247D01*
X0091285Y0043496D01*
X0085156Y0043496D02*
X0080652Y0043496D01*
X0085156Y0046499D01*
X0080652Y0046499D01*
X0080652Y0048100D02*
X0080652Y0050352D01*
X0081403Y0051102D01*
X0084406Y0051102D01*
X0085156Y0050352D01*
X0085156Y0048100D01*
X0080652Y0048100D01*
X0075156Y0049483D02*
X0070652Y0049483D01*
X0070652Y0047982D02*
X0070652Y0050984D01*
X0064920Y0051063D02*
X0062668Y0048811D01*
X0063419Y0048061D02*
X0060416Y0051063D01*
X0060416Y0048061D02*
X0064920Y0048061D01*
X0064920Y0046459D02*
X0064920Y0043457D01*
X0060416Y0043457D01*
X0061167Y0041855D02*
X0060416Y0041105D01*
X0060416Y0039603D01*
X0061167Y0038853D01*
X0064169Y0038853D01*
X0064920Y0039603D01*
X0064920Y0041105D01*
X0064169Y0041855D01*
X0070652Y0041026D02*
X0070652Y0038774D01*
X0075156Y0038774D01*
X0075156Y0041026D01*
X0074406Y0041776D01*
X0071403Y0041776D01*
X0070652Y0041026D01*
X0072154Y0043378D02*
X0070652Y0044879D01*
X0072154Y0046380D01*
X0075156Y0046380D01*
X0072904Y0046380D02*
X0072904Y0043378D01*
X0072154Y0043378D02*
X0075156Y0043378D01*
X0080652Y0041144D02*
X0080652Y0039643D01*
X0081403Y0038892D01*
X0084406Y0038892D01*
X0085156Y0039643D01*
X0085156Y0041144D01*
X0084406Y0041895D01*
X0082904Y0041895D01*
X0082904Y0040393D01*
X0081403Y0041895D02*
X0080652Y0041144D01*
D16*
X0197478Y0076178D02*
X0213894Y0076178D01*
X0213894Y0115378D01*
X0197478Y0115378D01*
X0197478Y0076178D01*
D17*
X0209426Y0079385D02*
X0209428Y0079457D01*
X0209434Y0079529D01*
X0209444Y0079600D01*
X0209457Y0079671D01*
X0209475Y0079741D01*
X0209496Y0079810D01*
X0209521Y0079877D01*
X0209550Y0079943D01*
X0209582Y0080008D01*
X0209618Y0080070D01*
X0209657Y0080131D01*
X0209699Y0080189D01*
X0209745Y0080245D01*
X0209793Y0080298D01*
X0209845Y0080349D01*
X0209899Y0080397D01*
X0209955Y0080441D01*
X0210014Y0080483D01*
X0210075Y0080521D01*
X0210138Y0080556D01*
X0210203Y0080588D01*
X0210270Y0080615D01*
X0210337Y0080639D01*
X0210407Y0080660D01*
X0210477Y0080676D01*
X0210548Y0080689D01*
X0210619Y0080698D01*
X0210691Y0080703D01*
X0210763Y0080704D01*
X0210835Y0080701D01*
X0210907Y0080694D01*
X0210978Y0080683D01*
X0211049Y0080669D01*
X0211118Y0080650D01*
X0211187Y0080628D01*
X0211254Y0080602D01*
X0211320Y0080572D01*
X0211384Y0080539D01*
X0211446Y0080503D01*
X0211506Y0080463D01*
X0211563Y0080419D01*
X0211619Y0080373D01*
X0211671Y0080324D01*
X0211721Y0080272D01*
X0211768Y0080217D01*
X0211812Y0080160D01*
X0211853Y0080101D01*
X0211890Y0080039D01*
X0211924Y0079976D01*
X0211955Y0079910D01*
X0211982Y0079844D01*
X0212005Y0079775D01*
X0212024Y0079706D01*
X0212040Y0079636D01*
X0212052Y0079565D01*
X0212060Y0079493D01*
X0212064Y0079421D01*
X0212064Y0079349D01*
X0212060Y0079277D01*
X0212052Y0079205D01*
X0212040Y0079134D01*
X0212024Y0079064D01*
X0212005Y0078995D01*
X0211982Y0078926D01*
X0211955Y0078860D01*
X0211924Y0078794D01*
X0211890Y0078731D01*
X0211853Y0078669D01*
X0211812Y0078610D01*
X0211768Y0078553D01*
X0211721Y0078498D01*
X0211671Y0078446D01*
X0211619Y0078397D01*
X0211563Y0078351D01*
X0211506Y0078307D01*
X0211446Y0078267D01*
X0211384Y0078231D01*
X0211320Y0078198D01*
X0211254Y0078168D01*
X0211187Y0078142D01*
X0211118Y0078120D01*
X0211049Y0078101D01*
X0210978Y0078087D01*
X0210907Y0078076D01*
X0210835Y0078069D01*
X0210763Y0078066D01*
X0210691Y0078067D01*
X0210619Y0078072D01*
X0210548Y0078081D01*
X0210477Y0078094D01*
X0210407Y0078110D01*
X0210337Y0078131D01*
X0210270Y0078155D01*
X0210203Y0078182D01*
X0210138Y0078214D01*
X0210075Y0078249D01*
X0210014Y0078287D01*
X0209955Y0078329D01*
X0209899Y0078373D01*
X0209845Y0078421D01*
X0209793Y0078472D01*
X0209745Y0078525D01*
X0209699Y0078581D01*
X0209657Y0078639D01*
X0209618Y0078700D01*
X0209582Y0078762D01*
X0209550Y0078827D01*
X0209521Y0078893D01*
X0209496Y0078960D01*
X0209475Y0079029D01*
X0209457Y0079099D01*
X0209444Y0079170D01*
X0209434Y0079241D01*
X0209428Y0079313D01*
X0209426Y0079385D01*
M02*
