G04 EAGLE Gerber X2 export*
%TF.Part,Single*%
%TF.FileFunction,Other,Silk screen CMP*%
%TF.FilePolarity,Positive*%
%TF.GenerationSoftware,Autodesk,EAGLE,9.0.0*%
%TF.CreationDate,2018-05-29T16:10:46Z*%
G75*
%MOMM*%
%FSLAX34Y34*%
%LPD*%
%AMOC8*
5,1,8,0,0,1.08239X$1,22.5*%
G01*
%ADD10C,0.000000*%
%ADD11C,0.050800*%
%ADD12C,0.152400*%
%ADD13C,0.254000*%
%ADD14C,0.025400*%
%ADD15C,0.127000*%
%ADD16C,0.199800*%
%ADD17C,0.203200*%
%ADD18C,0.101600*%
%ADD19C,0.304800*%
%ADD20R,10.668000X0.762000*%
%ADD21R,1.905000X0.508000*%
%ADD22R,0.762000X0.508000*%
%ADD23C,0.406400*%


D10*
X668173Y451655D02*
X3400Y453200D01*
X5600Y1600D01*
X665600Y1600D02*
X668173Y451655D01*
X666573Y955D02*
X5600Y1600D01*
D11*
X238304Y68511D02*
X238304Y97971D01*
X238304Y68511D02*
X226644Y68511D01*
X226644Y97971D01*
X238304Y97971D01*
X240192Y92039D02*
X239260Y91107D01*
X239260Y89243D01*
X240192Y88311D01*
X243921Y88311D01*
X244853Y89243D01*
X244853Y91107D01*
X243921Y92039D01*
X244853Y93924D02*
X244853Y97652D01*
X244853Y93924D02*
X241124Y97652D01*
X240192Y97652D01*
X239260Y96720D01*
X239260Y94856D01*
X240192Y93924D01*
D12*
X539040Y156800D02*
X540310Y156800D01*
D13*
X539040Y156800D02*
X539040Y164420D01*
X539040Y156800D02*
X539040Y149180D01*
X533960Y156800D02*
X533960Y164420D01*
X533960Y156800D02*
X533960Y149180D01*
D12*
X533960Y156800D02*
X532690Y156800D01*
D11*
X525141Y174572D02*
X524209Y175504D01*
X522345Y175504D01*
X521413Y174572D01*
X521413Y170843D01*
X522345Y169911D01*
X524209Y169911D01*
X525141Y170843D01*
X527026Y175504D02*
X530755Y175504D01*
X530755Y174572D01*
X527026Y170843D01*
X527026Y169911D01*
D14*
X514675Y165909D02*
X514580Y165909D01*
D15*
X519800Y167600D02*
X519541Y167593D01*
X519282Y167580D01*
X519023Y167561D01*
X518765Y167535D01*
X518508Y167503D01*
X518251Y167465D01*
X517995Y167420D01*
X517741Y167369D01*
X517488Y167313D01*
X517236Y167250D01*
X516986Y167180D01*
X516738Y167105D01*
X516492Y167024D01*
X516247Y166937D01*
X516005Y166844D01*
X515766Y166745D01*
X515528Y166640D01*
X515294Y166529D01*
X515062Y166413D01*
X514833Y166291D01*
X514607Y166164D01*
X514384Y166031D01*
X514165Y165893D01*
X513949Y165749D01*
X513736Y165601D01*
X513527Y165447D01*
X513322Y165288D01*
X513121Y165124D01*
X512924Y164955D01*
X512731Y164782D01*
X512543Y164604D01*
X512359Y164421D01*
X512179Y164234D01*
X512004Y164042D01*
X511834Y163847D01*
X511668Y163647D01*
X511507Y163444D01*
X511352Y163236D01*
X511201Y163025D01*
X511056Y162810D01*
X510916Y162592D01*
X510781Y162370D01*
X510652Y162145D01*
X510528Y161917D01*
X510410Y161686D01*
X510297Y161452D01*
X510191Y161216D01*
X510090Y160977D01*
X509995Y160736D01*
X509905Y160492D01*
X509822Y160247D01*
X509745Y159999D01*
X509674Y159750D01*
X509608Y159499D01*
X509549Y159246D01*
X509497Y158992D01*
X509450Y158737D01*
X509410Y158481D01*
X509375Y158224D01*
X509348Y157966D01*
X509326Y157707D01*
X509311Y157448D01*
X509302Y157189D01*
X509299Y156930D01*
X509303Y156670D01*
X509313Y156411D01*
X509329Y156152D01*
X509351Y155894D01*
X509380Y155636D01*
X509415Y155379D01*
X509457Y155123D01*
X509504Y154868D01*
X509558Y154614D01*
X509618Y154362D01*
X509684Y154111D01*
X509756Y153862D01*
X509835Y153615D01*
X509919Y153369D01*
X510009Y153126D01*
X510105Y152885D01*
X510207Y152647D01*
X510315Y152411D01*
X510428Y152177D01*
X510547Y151947D01*
X510672Y151720D01*
X510802Y151495D01*
X510937Y151274D01*
X511078Y151056D01*
X511224Y150842D01*
X511376Y150631D01*
X511532Y150424D01*
X511694Y150221D01*
X511860Y150022D01*
X512031Y149827D01*
X512207Y149637D01*
X512387Y149450D01*
X512572Y149268D01*
X512761Y149091D01*
X512955Y148918D01*
X513152Y148750D01*
X513354Y148587D01*
X513560Y148429D01*
X513769Y148276D01*
X513982Y148128D01*
X514199Y147985D01*
X514419Y147848D01*
X514642Y147716D01*
X514869Y147589D01*
X515098Y147468D01*
X515330Y147353D01*
X515565Y147243D01*
X515803Y147139D01*
X516043Y147041D01*
X516286Y146949D01*
X516530Y146863D01*
X516777Y146783D01*
X517025Y146708D01*
X517276Y146640D01*
X517528Y146578D01*
X517781Y146522D01*
X518035Y146473D01*
X518291Y146429D01*
X518548Y146392D01*
X518805Y146361D01*
X519063Y146336D01*
X519322Y146318D01*
X519581Y146305D01*
X519841Y146300D01*
X520100Y146300D01*
X553600Y146300D02*
X553859Y146307D01*
X554118Y146320D01*
X554377Y146339D01*
X554635Y146365D01*
X554892Y146397D01*
X555149Y146435D01*
X555405Y146480D01*
X555659Y146531D01*
X555912Y146587D01*
X556164Y146650D01*
X556414Y146720D01*
X556662Y146795D01*
X556908Y146876D01*
X557153Y146963D01*
X557395Y147056D01*
X557634Y147155D01*
X557872Y147260D01*
X558106Y147371D01*
X558338Y147487D01*
X558567Y147609D01*
X558793Y147736D01*
X559016Y147869D01*
X559235Y148007D01*
X559451Y148151D01*
X559664Y148299D01*
X559873Y148453D01*
X560078Y148612D01*
X560279Y148776D01*
X560476Y148945D01*
X560669Y149118D01*
X560857Y149296D01*
X561041Y149479D01*
X561221Y149666D01*
X561396Y149858D01*
X561566Y150053D01*
X561732Y150253D01*
X561893Y150456D01*
X562048Y150664D01*
X562199Y150875D01*
X562344Y151090D01*
X562484Y151308D01*
X562619Y151530D01*
X562748Y151755D01*
X562872Y151983D01*
X562990Y152214D01*
X563103Y152448D01*
X563209Y152684D01*
X563310Y152923D01*
X563405Y153164D01*
X563495Y153408D01*
X563578Y153653D01*
X563655Y153901D01*
X563726Y154150D01*
X563792Y154401D01*
X563851Y154654D01*
X563903Y154908D01*
X563950Y155163D01*
X563990Y155419D01*
X564025Y155676D01*
X564052Y155934D01*
X564074Y156193D01*
X564089Y156452D01*
X564098Y156711D01*
X564101Y156970D01*
X564097Y157230D01*
X564087Y157489D01*
X564071Y157748D01*
X564049Y158006D01*
X564020Y158264D01*
X563985Y158521D01*
X563943Y158777D01*
X563896Y159032D01*
X563842Y159286D01*
X563782Y159538D01*
X563716Y159789D01*
X563644Y160038D01*
X563565Y160285D01*
X563481Y160531D01*
X563391Y160774D01*
X563295Y161015D01*
X563193Y161253D01*
X563085Y161489D01*
X562972Y161723D01*
X562853Y161953D01*
X562728Y162180D01*
X562598Y162405D01*
X562463Y162626D01*
X562322Y162844D01*
X562176Y163058D01*
X562024Y163269D01*
X561868Y163476D01*
X561706Y163679D01*
X561540Y163878D01*
X561369Y164073D01*
X561193Y164263D01*
X561013Y164450D01*
X560828Y164632D01*
X560639Y164809D01*
X560445Y164982D01*
X560248Y165150D01*
X560046Y165313D01*
X559840Y165471D01*
X559631Y165624D01*
X559418Y165772D01*
X559201Y165915D01*
X558981Y166052D01*
X558758Y166184D01*
X558531Y166311D01*
X558302Y166432D01*
X558070Y166547D01*
X557835Y166657D01*
X557597Y166761D01*
X557357Y166859D01*
X557114Y166951D01*
X556870Y167037D01*
X556623Y167117D01*
X556375Y167192D01*
X556124Y167260D01*
X555872Y167322D01*
X555619Y167378D01*
X555365Y167427D01*
X555109Y167471D01*
X554852Y167508D01*
X554595Y167539D01*
X554337Y167564D01*
X554078Y167582D01*
X553819Y167595D01*
X553559Y167600D01*
X553300Y167600D01*
X519800Y167600D01*
X520100Y146300D02*
X553600Y146300D01*
X511100Y156800D02*
X511108Y157423D01*
X511131Y158046D01*
X511169Y158669D01*
X511222Y159290D01*
X511291Y159909D01*
X511375Y160527D01*
X511474Y161142D01*
X511588Y161755D01*
X511717Y162365D01*
X511861Y162972D01*
X512020Y163575D01*
X512194Y164173D01*
X512382Y164768D01*
X512585Y165357D01*
X512802Y165941D01*
X513033Y166520D01*
X513279Y167093D01*
X513539Y167660D01*
X513812Y168220D01*
X514099Y168773D01*
X514400Y169320D01*
X514714Y169858D01*
X515041Y170389D01*
X515381Y170911D01*
X515733Y171426D01*
X516099Y171931D01*
X516476Y172427D01*
X516866Y172914D01*
X517267Y173391D01*
X517680Y173858D01*
X518104Y174314D01*
X518539Y174761D01*
X518986Y175196D01*
X519442Y175620D01*
X519909Y176033D01*
X520386Y176434D01*
X520873Y176824D01*
X521369Y177201D01*
X521874Y177567D01*
X522389Y177919D01*
X522911Y178259D01*
X523442Y178586D01*
X523980Y178900D01*
X524527Y179201D01*
X525080Y179488D01*
X525640Y179761D01*
X526207Y180021D01*
X526780Y180267D01*
X527359Y180498D01*
X527943Y180715D01*
X528532Y180918D01*
X529127Y181106D01*
X529725Y181280D01*
X530328Y181439D01*
X530935Y181583D01*
X531545Y181712D01*
X532158Y181826D01*
X532773Y181925D01*
X533391Y182009D01*
X534010Y182078D01*
X534631Y182131D01*
X535254Y182169D01*
X535877Y182192D01*
X536500Y182200D01*
X537123Y182192D01*
X537746Y182169D01*
X538369Y182131D01*
X538990Y182078D01*
X539609Y182009D01*
X540227Y181925D01*
X540842Y181826D01*
X541455Y181712D01*
X542065Y181583D01*
X542672Y181439D01*
X543275Y181280D01*
X543873Y181106D01*
X544468Y180918D01*
X545057Y180715D01*
X545641Y180498D01*
X546220Y180267D01*
X546793Y180021D01*
X547360Y179761D01*
X547920Y179488D01*
X548473Y179201D01*
X549020Y178900D01*
X549558Y178586D01*
X550089Y178259D01*
X550611Y177919D01*
X551126Y177567D01*
X551631Y177201D01*
X552127Y176824D01*
X552614Y176434D01*
X553091Y176033D01*
X553558Y175620D01*
X554014Y175196D01*
X554461Y174761D01*
X554896Y174314D01*
X555320Y173858D01*
X555733Y173391D01*
X556134Y172914D01*
X556524Y172427D01*
X556901Y171931D01*
X557267Y171426D01*
X557619Y170911D01*
X557959Y170389D01*
X558286Y169858D01*
X558600Y169320D01*
X558901Y168773D01*
X559188Y168220D01*
X559461Y167660D01*
X559721Y167093D01*
X559967Y166520D01*
X560198Y165941D01*
X560415Y165357D01*
X560618Y164768D01*
X560806Y164173D01*
X560980Y163575D01*
X561139Y162972D01*
X561283Y162365D01*
X561412Y161755D01*
X561526Y161142D01*
X561625Y160527D01*
X561709Y159909D01*
X561778Y159290D01*
X561831Y158669D01*
X561869Y158046D01*
X561892Y157423D01*
X561900Y156800D01*
X561892Y156177D01*
X561869Y155554D01*
X561831Y154931D01*
X561778Y154310D01*
X561709Y153691D01*
X561625Y153073D01*
X561526Y152458D01*
X561412Y151845D01*
X561283Y151235D01*
X561139Y150628D01*
X560980Y150025D01*
X560806Y149427D01*
X560618Y148832D01*
X560415Y148243D01*
X560198Y147659D01*
X559967Y147080D01*
X559721Y146507D01*
X559461Y145940D01*
X559188Y145380D01*
X558901Y144827D01*
X558600Y144280D01*
X558286Y143742D01*
X557959Y143211D01*
X557619Y142689D01*
X557267Y142174D01*
X556901Y141669D01*
X556524Y141173D01*
X556134Y140686D01*
X555733Y140209D01*
X555320Y139742D01*
X554896Y139286D01*
X554461Y138839D01*
X554014Y138404D01*
X553558Y137980D01*
X553091Y137567D01*
X552614Y137166D01*
X552127Y136776D01*
X551631Y136399D01*
X551126Y136033D01*
X550611Y135681D01*
X550089Y135341D01*
X549558Y135014D01*
X549020Y134700D01*
X548473Y134399D01*
X547920Y134112D01*
X547360Y133839D01*
X546793Y133579D01*
X546220Y133333D01*
X545641Y133102D01*
X545057Y132885D01*
X544468Y132682D01*
X543873Y132494D01*
X543275Y132320D01*
X542672Y132161D01*
X542065Y132017D01*
X541455Y131888D01*
X540842Y131774D01*
X540227Y131675D01*
X539609Y131591D01*
X538990Y131522D01*
X538369Y131469D01*
X537746Y131431D01*
X537123Y131408D01*
X536500Y131400D01*
X535877Y131408D01*
X535254Y131431D01*
X534631Y131469D01*
X534010Y131522D01*
X533391Y131591D01*
X532773Y131675D01*
X532158Y131774D01*
X531545Y131888D01*
X530935Y132017D01*
X530328Y132161D01*
X529725Y132320D01*
X529127Y132494D01*
X528532Y132682D01*
X527943Y132885D01*
X527359Y133102D01*
X526780Y133333D01*
X526207Y133579D01*
X525640Y133839D01*
X525080Y134112D01*
X524527Y134399D01*
X523980Y134700D01*
X523442Y135014D01*
X522911Y135341D01*
X522389Y135681D01*
X521874Y136033D01*
X521369Y136399D01*
X520873Y136776D01*
X520386Y137166D01*
X519909Y137567D01*
X519442Y137980D01*
X518986Y138404D01*
X518539Y138839D01*
X518104Y139286D01*
X517680Y139742D01*
X517267Y140209D01*
X516866Y140686D01*
X516476Y141173D01*
X516099Y141669D01*
X515733Y142174D01*
X515381Y142689D01*
X515041Y143211D01*
X514714Y143742D01*
X514400Y144280D01*
X514099Y144827D01*
X513812Y145380D01*
X513539Y145940D01*
X513279Y146507D01*
X513033Y147080D01*
X512802Y147659D01*
X512585Y148243D01*
X512382Y148832D01*
X512194Y149427D01*
X512020Y150025D01*
X511861Y150628D01*
X511717Y151235D01*
X511588Y151845D01*
X511474Y152458D01*
X511375Y153073D01*
X511291Y153691D01*
X511222Y154310D01*
X511169Y154931D01*
X511131Y155554D01*
X511108Y156177D01*
X511100Y156800D01*
D12*
X538540Y219800D02*
X539810Y219800D01*
D13*
X538540Y219800D02*
X538540Y227420D01*
X538540Y219800D02*
X538540Y212180D01*
X533460Y219800D02*
X533460Y227420D01*
X533460Y219800D02*
X533460Y212180D01*
D12*
X533460Y219800D02*
X532190Y219800D01*
D11*
X524641Y237572D02*
X523709Y238504D01*
X521845Y238504D01*
X520913Y237572D01*
X520913Y233843D01*
X521845Y232911D01*
X523709Y232911D01*
X524641Y233843D01*
X526526Y237572D02*
X527458Y238504D01*
X529322Y238504D01*
X530255Y237572D01*
X530255Y236640D01*
X529322Y235708D01*
X530255Y234775D01*
X530255Y233843D01*
X529322Y232911D01*
X527458Y232911D01*
X526526Y233843D01*
X526526Y234775D01*
X527458Y235708D01*
X526526Y236640D01*
X526526Y237572D01*
X527458Y235708D02*
X529322Y235708D01*
D14*
X514175Y228909D02*
X514080Y228909D01*
D15*
X519300Y230600D02*
X519041Y230593D01*
X518782Y230580D01*
X518523Y230561D01*
X518265Y230535D01*
X518008Y230503D01*
X517751Y230465D01*
X517495Y230420D01*
X517241Y230369D01*
X516988Y230313D01*
X516736Y230250D01*
X516486Y230180D01*
X516238Y230105D01*
X515992Y230024D01*
X515747Y229937D01*
X515505Y229844D01*
X515266Y229745D01*
X515028Y229640D01*
X514794Y229529D01*
X514562Y229413D01*
X514333Y229291D01*
X514107Y229164D01*
X513884Y229031D01*
X513665Y228893D01*
X513449Y228749D01*
X513236Y228601D01*
X513027Y228447D01*
X512822Y228288D01*
X512621Y228124D01*
X512424Y227955D01*
X512231Y227782D01*
X512043Y227604D01*
X511859Y227421D01*
X511679Y227234D01*
X511504Y227042D01*
X511334Y226847D01*
X511168Y226647D01*
X511007Y226444D01*
X510852Y226236D01*
X510701Y226025D01*
X510556Y225810D01*
X510416Y225592D01*
X510281Y225370D01*
X510152Y225145D01*
X510028Y224917D01*
X509910Y224686D01*
X509797Y224452D01*
X509691Y224216D01*
X509590Y223977D01*
X509495Y223736D01*
X509405Y223492D01*
X509322Y223247D01*
X509245Y222999D01*
X509174Y222750D01*
X509108Y222499D01*
X509049Y222246D01*
X508997Y221992D01*
X508950Y221737D01*
X508910Y221481D01*
X508875Y221224D01*
X508848Y220966D01*
X508826Y220707D01*
X508811Y220448D01*
X508802Y220189D01*
X508799Y219930D01*
X508803Y219670D01*
X508813Y219411D01*
X508829Y219152D01*
X508851Y218894D01*
X508880Y218636D01*
X508915Y218379D01*
X508957Y218123D01*
X509004Y217868D01*
X509058Y217614D01*
X509118Y217362D01*
X509184Y217111D01*
X509256Y216862D01*
X509335Y216615D01*
X509419Y216369D01*
X509509Y216126D01*
X509605Y215885D01*
X509707Y215647D01*
X509815Y215411D01*
X509928Y215177D01*
X510047Y214947D01*
X510172Y214720D01*
X510302Y214495D01*
X510437Y214274D01*
X510578Y214056D01*
X510724Y213842D01*
X510876Y213631D01*
X511032Y213424D01*
X511194Y213221D01*
X511360Y213022D01*
X511531Y212827D01*
X511707Y212637D01*
X511887Y212450D01*
X512072Y212268D01*
X512261Y212091D01*
X512455Y211918D01*
X512652Y211750D01*
X512854Y211587D01*
X513060Y211429D01*
X513269Y211276D01*
X513482Y211128D01*
X513699Y210985D01*
X513919Y210848D01*
X514142Y210716D01*
X514369Y210589D01*
X514598Y210468D01*
X514830Y210353D01*
X515065Y210243D01*
X515303Y210139D01*
X515543Y210041D01*
X515786Y209949D01*
X516030Y209863D01*
X516277Y209783D01*
X516525Y209708D01*
X516776Y209640D01*
X517028Y209578D01*
X517281Y209522D01*
X517535Y209473D01*
X517791Y209429D01*
X518048Y209392D01*
X518305Y209361D01*
X518563Y209336D01*
X518822Y209318D01*
X519081Y209305D01*
X519341Y209300D01*
X519600Y209300D01*
X553100Y209300D02*
X553359Y209307D01*
X553618Y209320D01*
X553877Y209339D01*
X554135Y209365D01*
X554392Y209397D01*
X554649Y209435D01*
X554905Y209480D01*
X555159Y209531D01*
X555412Y209587D01*
X555664Y209650D01*
X555914Y209720D01*
X556162Y209795D01*
X556408Y209876D01*
X556653Y209963D01*
X556895Y210056D01*
X557134Y210155D01*
X557372Y210260D01*
X557606Y210371D01*
X557838Y210487D01*
X558067Y210609D01*
X558293Y210736D01*
X558516Y210869D01*
X558735Y211007D01*
X558951Y211151D01*
X559164Y211299D01*
X559373Y211453D01*
X559578Y211612D01*
X559779Y211776D01*
X559976Y211945D01*
X560169Y212118D01*
X560357Y212296D01*
X560541Y212479D01*
X560721Y212666D01*
X560896Y212858D01*
X561066Y213053D01*
X561232Y213253D01*
X561393Y213456D01*
X561548Y213664D01*
X561699Y213875D01*
X561844Y214090D01*
X561984Y214308D01*
X562119Y214530D01*
X562248Y214755D01*
X562372Y214983D01*
X562490Y215214D01*
X562603Y215448D01*
X562709Y215684D01*
X562810Y215923D01*
X562905Y216164D01*
X562995Y216408D01*
X563078Y216653D01*
X563155Y216901D01*
X563226Y217150D01*
X563292Y217401D01*
X563351Y217654D01*
X563403Y217908D01*
X563450Y218163D01*
X563490Y218419D01*
X563525Y218676D01*
X563552Y218934D01*
X563574Y219193D01*
X563589Y219452D01*
X563598Y219711D01*
X563601Y219970D01*
X563597Y220230D01*
X563587Y220489D01*
X563571Y220748D01*
X563549Y221006D01*
X563520Y221264D01*
X563485Y221521D01*
X563443Y221777D01*
X563396Y222032D01*
X563342Y222286D01*
X563282Y222538D01*
X563216Y222789D01*
X563144Y223038D01*
X563065Y223285D01*
X562981Y223531D01*
X562891Y223774D01*
X562795Y224015D01*
X562693Y224253D01*
X562585Y224489D01*
X562472Y224723D01*
X562353Y224953D01*
X562228Y225180D01*
X562098Y225405D01*
X561963Y225626D01*
X561822Y225844D01*
X561676Y226058D01*
X561524Y226269D01*
X561368Y226476D01*
X561206Y226679D01*
X561040Y226878D01*
X560869Y227073D01*
X560693Y227263D01*
X560513Y227450D01*
X560328Y227632D01*
X560139Y227809D01*
X559945Y227982D01*
X559748Y228150D01*
X559546Y228313D01*
X559340Y228471D01*
X559131Y228624D01*
X558918Y228772D01*
X558701Y228915D01*
X558481Y229052D01*
X558258Y229184D01*
X558031Y229311D01*
X557802Y229432D01*
X557570Y229547D01*
X557335Y229657D01*
X557097Y229761D01*
X556857Y229859D01*
X556614Y229951D01*
X556370Y230037D01*
X556123Y230117D01*
X555875Y230192D01*
X555624Y230260D01*
X555372Y230322D01*
X555119Y230378D01*
X554865Y230427D01*
X554609Y230471D01*
X554352Y230508D01*
X554095Y230539D01*
X553837Y230564D01*
X553578Y230582D01*
X553319Y230595D01*
X553059Y230600D01*
X552800Y230600D01*
X519300Y230600D01*
X519600Y209300D02*
X553100Y209300D01*
X510600Y219800D02*
X510608Y220423D01*
X510631Y221046D01*
X510669Y221669D01*
X510722Y222290D01*
X510791Y222909D01*
X510875Y223527D01*
X510974Y224142D01*
X511088Y224755D01*
X511217Y225365D01*
X511361Y225972D01*
X511520Y226575D01*
X511694Y227173D01*
X511882Y227768D01*
X512085Y228357D01*
X512302Y228941D01*
X512533Y229520D01*
X512779Y230093D01*
X513039Y230660D01*
X513312Y231220D01*
X513599Y231773D01*
X513900Y232320D01*
X514214Y232858D01*
X514541Y233389D01*
X514881Y233911D01*
X515233Y234426D01*
X515599Y234931D01*
X515976Y235427D01*
X516366Y235914D01*
X516767Y236391D01*
X517180Y236858D01*
X517604Y237314D01*
X518039Y237761D01*
X518486Y238196D01*
X518942Y238620D01*
X519409Y239033D01*
X519886Y239434D01*
X520373Y239824D01*
X520869Y240201D01*
X521374Y240567D01*
X521889Y240919D01*
X522411Y241259D01*
X522942Y241586D01*
X523480Y241900D01*
X524027Y242201D01*
X524580Y242488D01*
X525140Y242761D01*
X525707Y243021D01*
X526280Y243267D01*
X526859Y243498D01*
X527443Y243715D01*
X528032Y243918D01*
X528627Y244106D01*
X529225Y244280D01*
X529828Y244439D01*
X530435Y244583D01*
X531045Y244712D01*
X531658Y244826D01*
X532273Y244925D01*
X532891Y245009D01*
X533510Y245078D01*
X534131Y245131D01*
X534754Y245169D01*
X535377Y245192D01*
X536000Y245200D01*
X536623Y245192D01*
X537246Y245169D01*
X537869Y245131D01*
X538490Y245078D01*
X539109Y245009D01*
X539727Y244925D01*
X540342Y244826D01*
X540955Y244712D01*
X541565Y244583D01*
X542172Y244439D01*
X542775Y244280D01*
X543373Y244106D01*
X543968Y243918D01*
X544557Y243715D01*
X545141Y243498D01*
X545720Y243267D01*
X546293Y243021D01*
X546860Y242761D01*
X547420Y242488D01*
X547973Y242201D01*
X548520Y241900D01*
X549058Y241586D01*
X549589Y241259D01*
X550111Y240919D01*
X550626Y240567D01*
X551131Y240201D01*
X551627Y239824D01*
X552114Y239434D01*
X552591Y239033D01*
X553058Y238620D01*
X553514Y238196D01*
X553961Y237761D01*
X554396Y237314D01*
X554820Y236858D01*
X555233Y236391D01*
X555634Y235914D01*
X556024Y235427D01*
X556401Y234931D01*
X556767Y234426D01*
X557119Y233911D01*
X557459Y233389D01*
X557786Y232858D01*
X558100Y232320D01*
X558401Y231773D01*
X558688Y231220D01*
X558961Y230660D01*
X559221Y230093D01*
X559467Y229520D01*
X559698Y228941D01*
X559915Y228357D01*
X560118Y227768D01*
X560306Y227173D01*
X560480Y226575D01*
X560639Y225972D01*
X560783Y225365D01*
X560912Y224755D01*
X561026Y224142D01*
X561125Y223527D01*
X561209Y222909D01*
X561278Y222290D01*
X561331Y221669D01*
X561369Y221046D01*
X561392Y220423D01*
X561400Y219800D01*
X561392Y219177D01*
X561369Y218554D01*
X561331Y217931D01*
X561278Y217310D01*
X561209Y216691D01*
X561125Y216073D01*
X561026Y215458D01*
X560912Y214845D01*
X560783Y214235D01*
X560639Y213628D01*
X560480Y213025D01*
X560306Y212427D01*
X560118Y211832D01*
X559915Y211243D01*
X559698Y210659D01*
X559467Y210080D01*
X559221Y209507D01*
X558961Y208940D01*
X558688Y208380D01*
X558401Y207827D01*
X558100Y207280D01*
X557786Y206742D01*
X557459Y206211D01*
X557119Y205689D01*
X556767Y205174D01*
X556401Y204669D01*
X556024Y204173D01*
X555634Y203686D01*
X555233Y203209D01*
X554820Y202742D01*
X554396Y202286D01*
X553961Y201839D01*
X553514Y201404D01*
X553058Y200980D01*
X552591Y200567D01*
X552114Y200166D01*
X551627Y199776D01*
X551131Y199399D01*
X550626Y199033D01*
X550111Y198681D01*
X549589Y198341D01*
X549058Y198014D01*
X548520Y197700D01*
X547973Y197399D01*
X547420Y197112D01*
X546860Y196839D01*
X546293Y196579D01*
X545720Y196333D01*
X545141Y196102D01*
X544557Y195885D01*
X543968Y195682D01*
X543373Y195494D01*
X542775Y195320D01*
X542172Y195161D01*
X541565Y195017D01*
X540955Y194888D01*
X540342Y194774D01*
X539727Y194675D01*
X539109Y194591D01*
X538490Y194522D01*
X537869Y194469D01*
X537246Y194431D01*
X536623Y194408D01*
X536000Y194400D01*
X535377Y194408D01*
X534754Y194431D01*
X534131Y194469D01*
X533510Y194522D01*
X532891Y194591D01*
X532273Y194675D01*
X531658Y194774D01*
X531045Y194888D01*
X530435Y195017D01*
X529828Y195161D01*
X529225Y195320D01*
X528627Y195494D01*
X528032Y195682D01*
X527443Y195885D01*
X526859Y196102D01*
X526280Y196333D01*
X525707Y196579D01*
X525140Y196839D01*
X524580Y197112D01*
X524027Y197399D01*
X523480Y197700D01*
X522942Y198014D01*
X522411Y198341D01*
X521889Y198681D01*
X521374Y199033D01*
X520869Y199399D01*
X520373Y199776D01*
X519886Y200166D01*
X519409Y200567D01*
X518942Y200980D01*
X518486Y201404D01*
X518039Y201839D01*
X517604Y202286D01*
X517180Y202742D01*
X516767Y203209D01*
X516366Y203686D01*
X515976Y204173D01*
X515599Y204669D01*
X515233Y205174D01*
X514881Y205689D01*
X514541Y206211D01*
X514214Y206742D01*
X513900Y207280D01*
X513599Y207827D01*
X513312Y208380D01*
X513039Y208940D01*
X512779Y209507D01*
X512533Y210080D01*
X512302Y210659D01*
X512085Y211243D01*
X511882Y211832D01*
X511694Y212427D01*
X511520Y213025D01*
X511361Y213628D01*
X511217Y214235D01*
X511088Y214845D01*
X510974Y215458D01*
X510875Y216073D01*
X510791Y216691D01*
X510722Y217310D01*
X510669Y217931D01*
X510631Y218554D01*
X510608Y219177D01*
X510600Y219800D01*
D12*
X538940Y89000D02*
X540210Y89000D01*
D13*
X538940Y89000D02*
X538940Y96620D01*
X538940Y89000D02*
X538940Y81380D01*
X533860Y89000D02*
X533860Y96620D01*
X533860Y89000D02*
X533860Y81380D01*
D12*
X533860Y89000D02*
X532590Y89000D01*
D11*
X525041Y106772D02*
X524109Y107704D01*
X522245Y107704D01*
X521313Y106772D01*
X521313Y103043D01*
X522245Y102111D01*
X524109Y102111D01*
X525041Y103043D01*
X526926Y103043D02*
X527858Y102111D01*
X529722Y102111D01*
X530655Y103043D01*
X530655Y106772D01*
X529722Y107704D01*
X527858Y107704D01*
X526926Y106772D01*
X526926Y105840D01*
X527858Y104908D01*
X530655Y104908D01*
D14*
X514575Y98109D02*
X514480Y98109D01*
D15*
X519700Y99800D02*
X519441Y99793D01*
X519182Y99780D01*
X518923Y99761D01*
X518665Y99735D01*
X518408Y99703D01*
X518151Y99665D01*
X517895Y99620D01*
X517641Y99569D01*
X517388Y99513D01*
X517136Y99450D01*
X516886Y99380D01*
X516638Y99305D01*
X516392Y99224D01*
X516147Y99137D01*
X515905Y99044D01*
X515666Y98945D01*
X515428Y98840D01*
X515194Y98729D01*
X514962Y98613D01*
X514733Y98491D01*
X514507Y98364D01*
X514284Y98231D01*
X514065Y98093D01*
X513849Y97949D01*
X513636Y97801D01*
X513427Y97647D01*
X513222Y97488D01*
X513021Y97324D01*
X512824Y97155D01*
X512631Y96982D01*
X512443Y96804D01*
X512259Y96621D01*
X512079Y96434D01*
X511904Y96242D01*
X511734Y96047D01*
X511568Y95847D01*
X511407Y95644D01*
X511252Y95436D01*
X511101Y95225D01*
X510956Y95010D01*
X510816Y94792D01*
X510681Y94570D01*
X510552Y94345D01*
X510428Y94117D01*
X510310Y93886D01*
X510197Y93652D01*
X510091Y93416D01*
X509990Y93177D01*
X509895Y92936D01*
X509805Y92692D01*
X509722Y92447D01*
X509645Y92199D01*
X509574Y91950D01*
X509508Y91699D01*
X509449Y91446D01*
X509397Y91192D01*
X509350Y90937D01*
X509310Y90681D01*
X509275Y90424D01*
X509248Y90166D01*
X509226Y89907D01*
X509211Y89648D01*
X509202Y89389D01*
X509199Y89130D01*
X509203Y88870D01*
X509213Y88611D01*
X509229Y88352D01*
X509251Y88094D01*
X509280Y87836D01*
X509315Y87579D01*
X509357Y87323D01*
X509404Y87068D01*
X509458Y86814D01*
X509518Y86562D01*
X509584Y86311D01*
X509656Y86062D01*
X509735Y85815D01*
X509819Y85569D01*
X509909Y85326D01*
X510005Y85085D01*
X510107Y84847D01*
X510215Y84611D01*
X510328Y84377D01*
X510447Y84147D01*
X510572Y83920D01*
X510702Y83695D01*
X510837Y83474D01*
X510978Y83256D01*
X511124Y83042D01*
X511276Y82831D01*
X511432Y82624D01*
X511594Y82421D01*
X511760Y82222D01*
X511931Y82027D01*
X512107Y81837D01*
X512287Y81650D01*
X512472Y81468D01*
X512661Y81291D01*
X512855Y81118D01*
X513052Y80950D01*
X513254Y80787D01*
X513460Y80629D01*
X513669Y80476D01*
X513882Y80328D01*
X514099Y80185D01*
X514319Y80048D01*
X514542Y79916D01*
X514769Y79789D01*
X514998Y79668D01*
X515230Y79553D01*
X515465Y79443D01*
X515703Y79339D01*
X515943Y79241D01*
X516186Y79149D01*
X516430Y79063D01*
X516677Y78983D01*
X516925Y78908D01*
X517176Y78840D01*
X517428Y78778D01*
X517681Y78722D01*
X517935Y78673D01*
X518191Y78629D01*
X518448Y78592D01*
X518705Y78561D01*
X518963Y78536D01*
X519222Y78518D01*
X519481Y78505D01*
X519741Y78500D01*
X520000Y78500D01*
X553500Y78500D02*
X553759Y78507D01*
X554018Y78520D01*
X554277Y78539D01*
X554535Y78565D01*
X554792Y78597D01*
X555049Y78635D01*
X555305Y78680D01*
X555559Y78731D01*
X555812Y78787D01*
X556064Y78850D01*
X556314Y78920D01*
X556562Y78995D01*
X556808Y79076D01*
X557053Y79163D01*
X557295Y79256D01*
X557534Y79355D01*
X557772Y79460D01*
X558006Y79571D01*
X558238Y79687D01*
X558467Y79809D01*
X558693Y79936D01*
X558916Y80069D01*
X559135Y80207D01*
X559351Y80351D01*
X559564Y80499D01*
X559773Y80653D01*
X559978Y80812D01*
X560179Y80976D01*
X560376Y81145D01*
X560569Y81318D01*
X560757Y81496D01*
X560941Y81679D01*
X561121Y81866D01*
X561296Y82058D01*
X561466Y82253D01*
X561632Y82453D01*
X561793Y82656D01*
X561948Y82864D01*
X562099Y83075D01*
X562244Y83290D01*
X562384Y83508D01*
X562519Y83730D01*
X562648Y83955D01*
X562772Y84183D01*
X562890Y84414D01*
X563003Y84648D01*
X563109Y84884D01*
X563210Y85123D01*
X563305Y85364D01*
X563395Y85608D01*
X563478Y85853D01*
X563555Y86101D01*
X563626Y86350D01*
X563692Y86601D01*
X563751Y86854D01*
X563803Y87108D01*
X563850Y87363D01*
X563890Y87619D01*
X563925Y87876D01*
X563952Y88134D01*
X563974Y88393D01*
X563989Y88652D01*
X563998Y88911D01*
X564001Y89170D01*
X563997Y89430D01*
X563987Y89689D01*
X563971Y89948D01*
X563949Y90206D01*
X563920Y90464D01*
X563885Y90721D01*
X563843Y90977D01*
X563796Y91232D01*
X563742Y91486D01*
X563682Y91738D01*
X563616Y91989D01*
X563544Y92238D01*
X563465Y92485D01*
X563381Y92731D01*
X563291Y92974D01*
X563195Y93215D01*
X563093Y93453D01*
X562985Y93689D01*
X562872Y93923D01*
X562753Y94153D01*
X562628Y94380D01*
X562498Y94605D01*
X562363Y94826D01*
X562222Y95044D01*
X562076Y95258D01*
X561924Y95469D01*
X561768Y95676D01*
X561606Y95879D01*
X561440Y96078D01*
X561269Y96273D01*
X561093Y96463D01*
X560913Y96650D01*
X560728Y96832D01*
X560539Y97009D01*
X560345Y97182D01*
X560148Y97350D01*
X559946Y97513D01*
X559740Y97671D01*
X559531Y97824D01*
X559318Y97972D01*
X559101Y98115D01*
X558881Y98252D01*
X558658Y98384D01*
X558431Y98511D01*
X558202Y98632D01*
X557970Y98747D01*
X557735Y98857D01*
X557497Y98961D01*
X557257Y99059D01*
X557014Y99151D01*
X556770Y99237D01*
X556523Y99317D01*
X556275Y99392D01*
X556024Y99460D01*
X555772Y99522D01*
X555519Y99578D01*
X555265Y99627D01*
X555009Y99671D01*
X554752Y99708D01*
X554495Y99739D01*
X554237Y99764D01*
X553978Y99782D01*
X553719Y99795D01*
X553459Y99800D01*
X553200Y99800D01*
X519700Y99800D01*
X520000Y78500D02*
X553500Y78500D01*
X511000Y89000D02*
X511008Y89623D01*
X511031Y90246D01*
X511069Y90869D01*
X511122Y91490D01*
X511191Y92109D01*
X511275Y92727D01*
X511374Y93342D01*
X511488Y93955D01*
X511617Y94565D01*
X511761Y95172D01*
X511920Y95775D01*
X512094Y96373D01*
X512282Y96968D01*
X512485Y97557D01*
X512702Y98141D01*
X512933Y98720D01*
X513179Y99293D01*
X513439Y99860D01*
X513712Y100420D01*
X513999Y100973D01*
X514300Y101520D01*
X514614Y102058D01*
X514941Y102589D01*
X515281Y103111D01*
X515633Y103626D01*
X515999Y104131D01*
X516376Y104627D01*
X516766Y105114D01*
X517167Y105591D01*
X517580Y106058D01*
X518004Y106514D01*
X518439Y106961D01*
X518886Y107396D01*
X519342Y107820D01*
X519809Y108233D01*
X520286Y108634D01*
X520773Y109024D01*
X521269Y109401D01*
X521774Y109767D01*
X522289Y110119D01*
X522811Y110459D01*
X523342Y110786D01*
X523880Y111100D01*
X524427Y111401D01*
X524980Y111688D01*
X525540Y111961D01*
X526107Y112221D01*
X526680Y112467D01*
X527259Y112698D01*
X527843Y112915D01*
X528432Y113118D01*
X529027Y113306D01*
X529625Y113480D01*
X530228Y113639D01*
X530835Y113783D01*
X531445Y113912D01*
X532058Y114026D01*
X532673Y114125D01*
X533291Y114209D01*
X533910Y114278D01*
X534531Y114331D01*
X535154Y114369D01*
X535777Y114392D01*
X536400Y114400D01*
X537023Y114392D01*
X537646Y114369D01*
X538269Y114331D01*
X538890Y114278D01*
X539509Y114209D01*
X540127Y114125D01*
X540742Y114026D01*
X541355Y113912D01*
X541965Y113783D01*
X542572Y113639D01*
X543175Y113480D01*
X543773Y113306D01*
X544368Y113118D01*
X544957Y112915D01*
X545541Y112698D01*
X546120Y112467D01*
X546693Y112221D01*
X547260Y111961D01*
X547820Y111688D01*
X548373Y111401D01*
X548920Y111100D01*
X549458Y110786D01*
X549989Y110459D01*
X550511Y110119D01*
X551026Y109767D01*
X551531Y109401D01*
X552027Y109024D01*
X552514Y108634D01*
X552991Y108233D01*
X553458Y107820D01*
X553914Y107396D01*
X554361Y106961D01*
X554796Y106514D01*
X555220Y106058D01*
X555633Y105591D01*
X556034Y105114D01*
X556424Y104627D01*
X556801Y104131D01*
X557167Y103626D01*
X557519Y103111D01*
X557859Y102589D01*
X558186Y102058D01*
X558500Y101520D01*
X558801Y100973D01*
X559088Y100420D01*
X559361Y99860D01*
X559621Y99293D01*
X559867Y98720D01*
X560098Y98141D01*
X560315Y97557D01*
X560518Y96968D01*
X560706Y96373D01*
X560880Y95775D01*
X561039Y95172D01*
X561183Y94565D01*
X561312Y93955D01*
X561426Y93342D01*
X561525Y92727D01*
X561609Y92109D01*
X561678Y91490D01*
X561731Y90869D01*
X561769Y90246D01*
X561792Y89623D01*
X561800Y89000D01*
X561792Y88377D01*
X561769Y87754D01*
X561731Y87131D01*
X561678Y86510D01*
X561609Y85891D01*
X561525Y85273D01*
X561426Y84658D01*
X561312Y84045D01*
X561183Y83435D01*
X561039Y82828D01*
X560880Y82225D01*
X560706Y81627D01*
X560518Y81032D01*
X560315Y80443D01*
X560098Y79859D01*
X559867Y79280D01*
X559621Y78707D01*
X559361Y78140D01*
X559088Y77580D01*
X558801Y77027D01*
X558500Y76480D01*
X558186Y75942D01*
X557859Y75411D01*
X557519Y74889D01*
X557167Y74374D01*
X556801Y73869D01*
X556424Y73373D01*
X556034Y72886D01*
X555633Y72409D01*
X555220Y71942D01*
X554796Y71486D01*
X554361Y71039D01*
X553914Y70604D01*
X553458Y70180D01*
X552991Y69767D01*
X552514Y69366D01*
X552027Y68976D01*
X551531Y68599D01*
X551026Y68233D01*
X550511Y67881D01*
X549989Y67541D01*
X549458Y67214D01*
X548920Y66900D01*
X548373Y66599D01*
X547820Y66312D01*
X547260Y66039D01*
X546693Y65779D01*
X546120Y65533D01*
X545541Y65302D01*
X544957Y65085D01*
X544368Y64882D01*
X543773Y64694D01*
X543175Y64520D01*
X542572Y64361D01*
X541965Y64217D01*
X541355Y64088D01*
X540742Y63974D01*
X540127Y63875D01*
X539509Y63791D01*
X538890Y63722D01*
X538269Y63669D01*
X537646Y63631D01*
X537023Y63608D01*
X536400Y63600D01*
X535777Y63608D01*
X535154Y63631D01*
X534531Y63669D01*
X533910Y63722D01*
X533291Y63791D01*
X532673Y63875D01*
X532058Y63974D01*
X531445Y64088D01*
X530835Y64217D01*
X530228Y64361D01*
X529625Y64520D01*
X529027Y64694D01*
X528432Y64882D01*
X527843Y65085D01*
X527259Y65302D01*
X526680Y65533D01*
X526107Y65779D01*
X525540Y66039D01*
X524980Y66312D01*
X524427Y66599D01*
X523880Y66900D01*
X523342Y67214D01*
X522811Y67541D01*
X522289Y67881D01*
X521774Y68233D01*
X521269Y68599D01*
X520773Y68976D01*
X520286Y69366D01*
X519809Y69767D01*
X519342Y70180D01*
X518886Y70604D01*
X518439Y71039D01*
X518004Y71486D01*
X517580Y71942D01*
X517167Y72409D01*
X516766Y72886D01*
X516376Y73373D01*
X515999Y73869D01*
X515633Y74374D01*
X515281Y74889D01*
X514941Y75411D01*
X514614Y75942D01*
X514300Y76480D01*
X513999Y77027D01*
X513712Y77580D01*
X513439Y78140D01*
X513179Y78707D01*
X512933Y79280D01*
X512702Y79859D01*
X512485Y80443D01*
X512282Y81032D01*
X512094Y81627D01*
X511920Y82225D01*
X511761Y82828D01*
X511617Y83435D01*
X511488Y84045D01*
X511374Y84658D01*
X511275Y85273D01*
X511191Y85891D01*
X511122Y86510D01*
X511069Y87131D01*
X511031Y87754D01*
X511008Y88377D01*
X511000Y89000D01*
X586475Y255803D02*
X580125Y260566D01*
X586475Y260566D02*
X586475Y255803D01*
X586475Y260566D02*
X586475Y265329D01*
X580125Y260566D01*
X580125Y255803D01*
X580125Y260566D02*
X580125Y265329D01*
X586475Y260566D02*
X594413Y260566D01*
X580125Y260566D02*
X572187Y260566D01*
D11*
X604078Y248576D02*
X604078Y242984D01*
X606874Y242984D01*
X607806Y243916D01*
X607806Y247644D01*
X606874Y248576D01*
X604078Y248576D01*
X609691Y247644D02*
X610623Y248576D01*
X612487Y248576D01*
X613419Y247644D01*
X613419Y246712D01*
X612487Y245780D01*
X611555Y245780D01*
X612487Y245780D02*
X613419Y244848D01*
X613419Y243916D01*
X612487Y242984D01*
X610623Y242984D01*
X609691Y243916D01*
D15*
X615400Y249866D02*
X551200Y249866D01*
X551200Y271266D01*
X615400Y271266D01*
X615400Y249866D01*
D16*
X344171Y141657D02*
X246271Y141657D01*
X246271Y63657D02*
X344171Y63657D01*
X246271Y63657D02*
X246271Y141657D01*
D17*
X252171Y83657D02*
X338271Y83657D01*
X252171Y83657D02*
X252171Y88657D01*
X252171Y121657D01*
X252171Y88657D02*
X338271Y88657D01*
X338271Y121657D01*
X338271Y88657D02*
X338271Y83657D01*
D16*
X344171Y63657D02*
X344171Y141657D01*
D17*
X338271Y121657D02*
X252171Y121657D01*
D11*
X257899Y106968D02*
X259763Y106968D01*
X258831Y106968D02*
X258831Y112561D01*
X257899Y112561D02*
X259763Y112561D01*
X264437Y112561D02*
X265369Y111629D01*
X264437Y112561D02*
X262573Y112561D01*
X261641Y111629D01*
X261641Y107901D01*
X262573Y106968D01*
X264437Y106968D01*
X265369Y107901D01*
X267254Y110697D02*
X269118Y112561D01*
X269118Y106968D01*
X267254Y106968D02*
X270982Y106968D01*
D15*
X255985Y93657D02*
X255987Y93751D01*
X255993Y93845D01*
X256003Y93939D01*
X256017Y94032D01*
X256035Y94125D01*
X256056Y94217D01*
X256082Y94307D01*
X256111Y94397D01*
X256144Y94485D01*
X256181Y94572D01*
X256221Y94657D01*
X256265Y94741D01*
X256313Y94822D01*
X256363Y94902D01*
X256418Y94979D01*
X256475Y95054D01*
X256535Y95126D01*
X256599Y95196D01*
X256665Y95263D01*
X256734Y95327D01*
X256806Y95388D01*
X256880Y95446D01*
X256957Y95501D01*
X257036Y95553D01*
X257117Y95601D01*
X257200Y95646D01*
X257284Y95687D01*
X257371Y95725D01*
X257459Y95759D01*
X257548Y95789D01*
X257638Y95816D01*
X257730Y95838D01*
X257822Y95857D01*
X257916Y95872D01*
X258009Y95883D01*
X258103Y95890D01*
X258197Y95893D01*
X258292Y95892D01*
X258386Y95887D01*
X258480Y95878D01*
X258573Y95865D01*
X258666Y95848D01*
X258758Y95828D01*
X258849Y95803D01*
X258939Y95775D01*
X259027Y95743D01*
X259115Y95707D01*
X259200Y95667D01*
X259284Y95624D01*
X259366Y95578D01*
X259446Y95528D01*
X259524Y95474D01*
X259599Y95418D01*
X259672Y95358D01*
X259743Y95295D01*
X259810Y95230D01*
X259875Y95161D01*
X259937Y95090D01*
X259996Y95017D01*
X260052Y94941D01*
X260104Y94862D01*
X260153Y94782D01*
X260199Y94699D01*
X260241Y94615D01*
X260280Y94529D01*
X260315Y94441D01*
X260346Y94352D01*
X260374Y94262D01*
X260397Y94171D01*
X260417Y94079D01*
X260433Y93986D01*
X260445Y93892D01*
X260453Y93798D01*
X260457Y93704D01*
X260457Y93610D01*
X260453Y93516D01*
X260445Y93422D01*
X260433Y93328D01*
X260417Y93235D01*
X260397Y93143D01*
X260374Y93052D01*
X260346Y92962D01*
X260315Y92873D01*
X260280Y92785D01*
X260241Y92699D01*
X260199Y92615D01*
X260153Y92532D01*
X260104Y92452D01*
X260052Y92373D01*
X259996Y92297D01*
X259937Y92224D01*
X259875Y92153D01*
X259810Y92084D01*
X259743Y92019D01*
X259672Y91956D01*
X259599Y91896D01*
X259524Y91840D01*
X259446Y91786D01*
X259366Y91736D01*
X259284Y91690D01*
X259200Y91647D01*
X259115Y91607D01*
X259027Y91571D01*
X258939Y91539D01*
X258849Y91511D01*
X258758Y91486D01*
X258666Y91466D01*
X258573Y91449D01*
X258480Y91436D01*
X258386Y91427D01*
X258292Y91422D01*
X258197Y91421D01*
X258103Y91424D01*
X258009Y91431D01*
X257916Y91442D01*
X257822Y91457D01*
X257730Y91476D01*
X257638Y91498D01*
X257548Y91525D01*
X257459Y91555D01*
X257371Y91589D01*
X257284Y91627D01*
X257200Y91668D01*
X257117Y91713D01*
X257036Y91761D01*
X256957Y91813D01*
X256880Y91868D01*
X256806Y91926D01*
X256734Y91987D01*
X256665Y92051D01*
X256599Y92118D01*
X256535Y92188D01*
X256475Y92260D01*
X256418Y92335D01*
X256363Y92412D01*
X256313Y92492D01*
X256265Y92573D01*
X256221Y92657D01*
X256181Y92742D01*
X256144Y92829D01*
X256111Y92917D01*
X256082Y93007D01*
X256056Y93097D01*
X256035Y93189D01*
X256017Y93282D01*
X256003Y93375D01*
X255993Y93469D01*
X255987Y93563D01*
X255985Y93657D01*
D17*
X390202Y221971D02*
X431900Y221971D01*
X390202Y221971D02*
X390202Y122403D01*
X431900Y122403D01*
X431900Y221971D01*
D18*
X420552Y130547D02*
X420554Y130663D01*
X420560Y130778D01*
X420570Y130893D01*
X420584Y131008D01*
X420602Y131122D01*
X420624Y131236D01*
X420649Y131348D01*
X420679Y131460D01*
X420712Y131571D01*
X420750Y131680D01*
X420791Y131788D01*
X420835Y131895D01*
X420884Y132000D01*
X420936Y132103D01*
X420991Y132205D01*
X421050Y132304D01*
X421112Y132402D01*
X421178Y132497D01*
X421247Y132590D01*
X421319Y132680D01*
X421394Y132768D01*
X421472Y132853D01*
X421553Y132935D01*
X421637Y133015D01*
X421724Y133092D01*
X421813Y133165D01*
X421905Y133236D01*
X421999Y133303D01*
X422095Y133367D01*
X422193Y133428D01*
X422294Y133485D01*
X422396Y133539D01*
X422500Y133589D01*
X422606Y133636D01*
X422713Y133678D01*
X422822Y133717D01*
X422932Y133753D01*
X423044Y133784D01*
X423156Y133812D01*
X423269Y133836D01*
X423383Y133856D01*
X423497Y133872D01*
X423612Y133884D01*
X423728Y133892D01*
X423843Y133896D01*
X423959Y133896D01*
X424074Y133892D01*
X424190Y133884D01*
X424305Y133872D01*
X424419Y133856D01*
X424533Y133836D01*
X424646Y133812D01*
X424758Y133784D01*
X424870Y133753D01*
X424980Y133717D01*
X425089Y133678D01*
X425196Y133636D01*
X425302Y133589D01*
X425406Y133539D01*
X425508Y133485D01*
X425609Y133428D01*
X425707Y133367D01*
X425803Y133303D01*
X425897Y133236D01*
X425989Y133165D01*
X426078Y133092D01*
X426165Y133015D01*
X426249Y132935D01*
X426330Y132853D01*
X426408Y132768D01*
X426483Y132680D01*
X426555Y132590D01*
X426624Y132497D01*
X426690Y132402D01*
X426752Y132304D01*
X426811Y132205D01*
X426866Y132103D01*
X426918Y132000D01*
X426967Y131895D01*
X427011Y131788D01*
X427052Y131680D01*
X427090Y131571D01*
X427123Y131460D01*
X427153Y131348D01*
X427178Y131236D01*
X427200Y131122D01*
X427218Y131008D01*
X427232Y130893D01*
X427242Y130778D01*
X427248Y130663D01*
X427250Y130547D01*
X427248Y130431D01*
X427242Y130316D01*
X427232Y130201D01*
X427218Y130086D01*
X427200Y129972D01*
X427178Y129858D01*
X427153Y129746D01*
X427123Y129634D01*
X427090Y129523D01*
X427052Y129414D01*
X427011Y129306D01*
X426967Y129199D01*
X426918Y129094D01*
X426866Y128991D01*
X426811Y128889D01*
X426752Y128790D01*
X426690Y128692D01*
X426624Y128597D01*
X426555Y128504D01*
X426483Y128414D01*
X426408Y128326D01*
X426330Y128241D01*
X426249Y128159D01*
X426165Y128079D01*
X426078Y128002D01*
X425989Y127929D01*
X425897Y127858D01*
X425803Y127791D01*
X425707Y127727D01*
X425609Y127666D01*
X425508Y127609D01*
X425406Y127555D01*
X425302Y127505D01*
X425196Y127458D01*
X425089Y127416D01*
X424980Y127377D01*
X424870Y127341D01*
X424758Y127310D01*
X424646Y127282D01*
X424533Y127258D01*
X424419Y127238D01*
X424305Y127222D01*
X424190Y127210D01*
X424074Y127202D01*
X423959Y127198D01*
X423843Y127198D01*
X423728Y127202D01*
X423612Y127210D01*
X423497Y127222D01*
X423383Y127238D01*
X423269Y127258D01*
X423156Y127282D01*
X423044Y127310D01*
X422932Y127341D01*
X422822Y127377D01*
X422713Y127416D01*
X422606Y127458D01*
X422500Y127505D01*
X422396Y127555D01*
X422294Y127609D01*
X422193Y127666D01*
X422095Y127727D01*
X421999Y127791D01*
X421905Y127858D01*
X421813Y127929D01*
X421724Y128002D01*
X421637Y128079D01*
X421553Y128159D01*
X421472Y128241D01*
X421394Y128326D01*
X421319Y128414D01*
X421247Y128504D01*
X421178Y128597D01*
X421112Y128692D01*
X421050Y128790D01*
X420991Y128889D01*
X420936Y128991D01*
X420884Y129094D01*
X420835Y129199D01*
X420791Y129306D01*
X420750Y129414D01*
X420712Y129523D01*
X420679Y129634D01*
X420649Y129746D01*
X420624Y129858D01*
X420602Y129972D01*
X420584Y130086D01*
X420570Y130201D01*
X420560Y130316D01*
X420554Y130431D01*
X420552Y130547D01*
D11*
X413081Y199106D02*
X413081Y200971D01*
X413081Y200038D02*
X407488Y200038D01*
X407488Y199106D02*
X407488Y200971D01*
X407488Y205645D02*
X408420Y206577D01*
X407488Y205645D02*
X407488Y203781D01*
X408420Y202848D01*
X412148Y202848D01*
X413081Y203781D01*
X413081Y205645D01*
X412148Y206577D01*
X408420Y208462D02*
X407488Y209394D01*
X407488Y211258D01*
X408420Y212190D01*
X409352Y212190D01*
X410284Y211258D01*
X410284Y210326D01*
X410284Y211258D02*
X411216Y212190D01*
X412148Y212190D01*
X413081Y211258D01*
X413081Y209394D01*
X412148Y208462D01*
D15*
X451051Y120187D02*
X371051Y120187D01*
X371051Y224187D01*
X451051Y224187D01*
X451051Y120187D01*
D11*
X462182Y197367D02*
X491642Y197367D01*
X462182Y197367D02*
X462182Y211027D01*
X491642Y211027D01*
X491642Y197367D01*
X482592Y196288D02*
X482592Y190695D01*
X482592Y196288D02*
X485389Y196288D01*
X486321Y195356D01*
X486321Y193492D01*
X485389Y192560D01*
X482592Y192560D01*
X484456Y192560D02*
X486321Y190695D01*
X488205Y194424D02*
X490070Y196288D01*
X490070Y190695D01*
X491934Y190695D02*
X488205Y190695D01*
X384449Y60992D02*
X354989Y60992D01*
X384449Y60992D02*
X384449Y47332D01*
X354989Y47332D01*
X354989Y60992D01*
X353321Y62076D02*
X353321Y67668D01*
X356117Y67668D01*
X357049Y66736D01*
X357049Y64872D01*
X356117Y63940D01*
X353321Y63940D01*
X355185Y63940D02*
X357049Y62076D01*
X358934Y65804D02*
X360798Y67668D01*
X360798Y62076D01*
X358934Y62076D02*
X362662Y62076D01*
X367343Y62076D02*
X367343Y67668D01*
X364547Y64872D01*
X368275Y64872D01*
X342618Y144828D02*
X342618Y174288D01*
X342618Y144828D02*
X328958Y144828D01*
X328958Y174288D01*
X342618Y174288D01*
X343697Y159625D02*
X349289Y159625D01*
X343697Y159625D02*
X343697Y162422D01*
X344629Y163354D01*
X346493Y163354D01*
X347425Y162422D01*
X347425Y159625D01*
X347425Y161490D02*
X349289Y163354D01*
X345561Y165238D02*
X343697Y167103D01*
X349289Y167103D01*
X349289Y168967D02*
X349289Y165238D01*
X343697Y170852D02*
X343697Y174580D01*
X343697Y170852D02*
X346493Y170852D01*
X345561Y172716D01*
X345561Y173648D01*
X346493Y174580D01*
X348357Y174580D01*
X349289Y173648D01*
X349289Y171784D01*
X348357Y170852D01*
X325866Y204906D02*
X296406Y204906D01*
X325866Y204906D02*
X325866Y191246D01*
X296406Y191246D01*
X296406Y204906D01*
X294738Y205989D02*
X294738Y211582D01*
X297534Y211582D01*
X298466Y210649D01*
X298466Y208785D01*
X297534Y207853D01*
X294738Y207853D01*
X296602Y207853D02*
X298466Y205989D01*
X300351Y209717D02*
X302215Y211582D01*
X302215Y205989D01*
X300351Y205989D02*
X304079Y205989D01*
X307828Y210649D02*
X309692Y211582D01*
X307828Y210649D02*
X305964Y208785D01*
X305964Y206921D01*
X306896Y205989D01*
X308760Y205989D01*
X309692Y206921D01*
X309692Y207853D01*
X308760Y208785D01*
X305964Y208785D01*
X312531Y165678D02*
X283071Y165678D01*
X283071Y179338D01*
X312531Y179338D01*
X312531Y165678D01*
X297868Y164599D02*
X297868Y159007D01*
X297868Y164599D02*
X300664Y164599D01*
X301597Y163667D01*
X301597Y161803D01*
X300664Y160871D01*
X297868Y160871D01*
X299732Y160871D02*
X301597Y159007D01*
X303481Y162735D02*
X305345Y164599D01*
X305345Y159007D01*
X303481Y159007D02*
X307210Y159007D01*
X309094Y164599D02*
X312823Y164599D01*
X312823Y163667D01*
X309094Y159939D01*
X309094Y159007D01*
X462140Y171574D02*
X491600Y171574D01*
X462140Y171574D02*
X462140Y185234D01*
X491600Y185234D01*
X491600Y171574D01*
X482551Y170495D02*
X482551Y164903D01*
X482551Y170495D02*
X485347Y170495D01*
X486279Y169563D01*
X486279Y167699D01*
X485347Y166767D01*
X482551Y166767D01*
X484415Y166767D02*
X486279Y164903D01*
X488164Y164903D02*
X491892Y164903D01*
X488164Y164903D02*
X491892Y168631D01*
X491892Y169563D01*
X490960Y170495D01*
X489096Y170495D01*
X488164Y169563D01*
X491784Y146202D02*
X462324Y146202D01*
X462324Y159862D01*
X491784Y159862D01*
X491784Y146202D01*
X482734Y145123D02*
X482734Y139531D01*
X482734Y145123D02*
X485530Y145123D01*
X486463Y144191D01*
X486463Y142327D01*
X485530Y141395D01*
X482734Y141395D01*
X484598Y141395D02*
X486463Y139531D01*
X488347Y144191D02*
X489279Y145123D01*
X491144Y145123D01*
X492076Y144191D01*
X492076Y143259D01*
X491144Y142327D01*
X490211Y142327D01*
X491144Y142327D02*
X492076Y141395D01*
X492076Y140463D01*
X491144Y139531D01*
X489279Y139531D01*
X488347Y140463D01*
X491826Y120151D02*
X462366Y120151D01*
X462366Y133811D01*
X491826Y133811D01*
X491826Y120151D01*
X482776Y119072D02*
X482776Y113480D01*
X482776Y119072D02*
X485572Y119072D01*
X486504Y118140D01*
X486504Y116276D01*
X485572Y115344D01*
X482776Y115344D01*
X484640Y115344D02*
X486504Y113480D01*
X491185Y113480D02*
X491185Y119072D01*
X488389Y116276D01*
X492118Y116276D01*
X348871Y117375D02*
X348871Y87915D01*
X348871Y117375D02*
X362531Y117375D01*
X362531Y87915D01*
X348871Y87915D01*
X347787Y86247D02*
X342195Y86247D01*
X342195Y89043D01*
X343127Y89975D01*
X344991Y89975D01*
X345923Y89043D01*
X345923Y86247D01*
X345923Y88111D02*
X347787Y89975D01*
X343127Y91860D02*
X342195Y92792D01*
X342195Y94656D01*
X343127Y95588D01*
X344059Y95588D01*
X344991Y94656D01*
X345923Y95588D01*
X346855Y95588D01*
X347787Y94656D01*
X347787Y92792D01*
X346855Y91860D01*
X345923Y91860D01*
X344991Y92792D01*
X344059Y91860D01*
X343127Y91860D01*
X344991Y92792D02*
X344991Y94656D01*
X298805Y59022D02*
X269345Y59022D01*
X298805Y59022D02*
X298805Y45362D01*
X269345Y45362D01*
X269345Y59022D01*
X267676Y60105D02*
X267676Y65698D01*
X270473Y65698D01*
X271405Y64765D01*
X271405Y62901D01*
X270473Y61969D01*
X267676Y61969D01*
X269541Y61969D02*
X271405Y60105D01*
X273290Y61037D02*
X274222Y60105D01*
X276086Y60105D01*
X277018Y61037D01*
X277018Y64765D01*
X276086Y65698D01*
X274222Y65698D01*
X273290Y64765D01*
X273290Y63833D01*
X274222Y62901D01*
X277018Y62901D01*
D12*
X575844Y147338D02*
X575844Y151418D01*
X575844Y147338D02*
X579924Y147338D01*
X607244Y147338D02*
X607244Y151418D01*
X607244Y147338D02*
X603164Y147338D01*
X607244Y174658D02*
X607244Y178738D01*
X603164Y178738D01*
X579924Y178738D02*
X575844Y178738D01*
X575844Y174658D01*
D11*
X581261Y145182D02*
X581261Y139590D01*
X581261Y145182D02*
X584058Y145182D01*
X584990Y144250D01*
X584990Y142386D01*
X584058Y141454D01*
X581261Y141454D01*
X586874Y139590D02*
X586874Y143318D01*
X588739Y145182D01*
X590603Y143318D01*
X590603Y139590D01*
X590603Y142386D02*
X586874Y142386D01*
X592487Y145182D02*
X592487Y139590D01*
X595284Y139590D01*
X596216Y140522D01*
X596216Y144250D01*
X595284Y145182D01*
X592487Y145182D01*
X598101Y138658D02*
X601829Y138658D01*
X606510Y139590D02*
X606510Y145182D01*
X603714Y142386D01*
X607442Y142386D01*
D15*
X607544Y147038D02*
X575544Y147038D01*
X575544Y179038D01*
X607544Y179038D01*
X607544Y147038D01*
D12*
X623123Y226156D02*
X623123Y230236D01*
X623123Y226156D02*
X627203Y226156D01*
X654523Y226156D02*
X654523Y230236D01*
X654523Y226156D02*
X650443Y226156D01*
X654523Y253476D02*
X654523Y257556D01*
X650443Y257556D01*
X627203Y257556D02*
X623123Y257556D01*
X623123Y253476D01*
D11*
X628541Y224000D02*
X628541Y218408D01*
X628541Y224000D02*
X631337Y224000D01*
X632269Y223068D01*
X632269Y221204D01*
X631337Y220272D01*
X628541Y220272D01*
X634154Y218408D02*
X634154Y222136D01*
X636018Y224000D01*
X637882Y222136D01*
X637882Y218408D01*
X637882Y221204D02*
X634154Y221204D01*
X639767Y224000D02*
X639767Y218408D01*
X642563Y218408D01*
X643495Y219340D01*
X643495Y223068D01*
X642563Y224000D01*
X639767Y224000D01*
X645380Y217475D02*
X649108Y217475D01*
X650993Y223068D02*
X651925Y224000D01*
X653789Y224000D01*
X654721Y223068D01*
X654721Y222136D01*
X653789Y221204D01*
X654721Y220272D01*
X654721Y219340D01*
X653789Y218408D01*
X651925Y218408D01*
X650993Y219340D01*
X650993Y220272D01*
X651925Y221204D01*
X650993Y222136D01*
X650993Y223068D01*
X651925Y221204D02*
X653789Y221204D01*
D15*
X654823Y225856D02*
X622823Y225856D01*
X622823Y257856D01*
X654823Y257856D01*
X654823Y225856D01*
D12*
X622707Y128687D02*
X622707Y124607D01*
X626787Y124607D01*
X654107Y124607D02*
X654107Y128687D01*
X654107Y124607D02*
X650027Y124607D01*
X654107Y151927D02*
X654107Y156007D01*
X650027Y156007D01*
X626787Y156007D02*
X622707Y156007D01*
X622707Y151927D01*
D11*
X628125Y122451D02*
X628125Y116858D01*
X628125Y122451D02*
X630921Y122451D01*
X631853Y121519D01*
X631853Y119655D01*
X630921Y118722D01*
X628125Y118722D01*
X633738Y116858D02*
X633738Y120587D01*
X635602Y122451D01*
X637466Y120587D01*
X637466Y116858D01*
X637466Y119655D02*
X633738Y119655D01*
X639351Y122451D02*
X639351Y116858D01*
X642147Y116858D01*
X643079Y117790D01*
X643079Y121519D01*
X642147Y122451D01*
X639351Y122451D01*
X644964Y115926D02*
X648692Y115926D01*
X650577Y122451D02*
X654305Y122451D01*
X654305Y121519D01*
X650577Y117790D01*
X650577Y116858D01*
D15*
X654407Y124307D02*
X622407Y124307D01*
X622407Y156307D01*
X654407Y156307D01*
X654407Y124307D01*
D12*
X575955Y74104D02*
X575955Y70024D01*
X580035Y70024D01*
X607355Y70024D02*
X607355Y74104D01*
X607355Y70024D02*
X603275Y70024D01*
X607355Y97344D02*
X607355Y101424D01*
X603275Y101424D01*
X580035Y101424D02*
X575955Y101424D01*
X575955Y97344D01*
D11*
X581373Y67868D02*
X581373Y62276D01*
X581373Y67868D02*
X584169Y67868D01*
X585101Y66936D01*
X585101Y65072D01*
X584169Y64140D01*
X581373Y64140D01*
X586986Y62276D02*
X586986Y66004D01*
X588850Y67868D01*
X590714Y66004D01*
X590714Y62276D01*
X590714Y65072D02*
X586986Y65072D01*
X592599Y67868D02*
X592599Y62276D01*
X595395Y62276D01*
X596328Y63208D01*
X596328Y66936D01*
X595395Y67868D01*
X592599Y67868D01*
X598212Y61344D02*
X601941Y61344D01*
X603825Y66936D02*
X604757Y67868D01*
X606622Y67868D01*
X607554Y66936D01*
X607554Y66004D01*
X606622Y65072D01*
X605689Y65072D01*
X606622Y65072D02*
X607554Y64140D01*
X607554Y63208D01*
X606622Y62276D01*
X604757Y62276D01*
X603825Y63208D01*
D15*
X607655Y69724D02*
X575655Y69724D01*
X575655Y101724D01*
X607655Y101724D01*
X607655Y69724D01*
D12*
X623154Y398830D02*
X623154Y402910D01*
X623154Y398830D02*
X627234Y398830D01*
X654554Y398830D02*
X654554Y402910D01*
X654554Y398830D02*
X650474Y398830D01*
X654554Y426150D02*
X654554Y430230D01*
X650474Y430230D01*
X627234Y430230D02*
X623154Y430230D01*
X623154Y426150D01*
D11*
X628572Y396675D02*
X628572Y391082D01*
X628572Y396675D02*
X631368Y396675D01*
X632301Y395743D01*
X632301Y393878D01*
X631368Y392946D01*
X628572Y392946D01*
X634185Y391082D02*
X634185Y394811D01*
X636049Y396675D01*
X637914Y394811D01*
X637914Y391082D01*
X637914Y393878D02*
X634185Y393878D01*
X639798Y391082D02*
X639798Y396675D01*
X639798Y391082D02*
X642595Y391082D01*
X643527Y392014D01*
X643527Y395743D01*
X642595Y396675D01*
X639798Y396675D01*
X645411Y390150D02*
X649140Y390150D01*
X651024Y394811D02*
X652889Y396675D01*
X652889Y391082D01*
X654753Y391082D02*
X651024Y391082D01*
D15*
X654854Y398530D02*
X622854Y398530D01*
X622854Y430530D01*
X654854Y430530D01*
X654854Y398530D01*
D12*
X575561Y198761D02*
X575561Y194681D01*
X579641Y194681D01*
X606961Y194681D02*
X606961Y198761D01*
X606961Y194681D02*
X602881Y194681D01*
X606961Y222001D02*
X606961Y226081D01*
X602881Y226081D01*
X579641Y226081D02*
X575561Y226081D01*
X575561Y222001D01*
D11*
X580979Y192525D02*
X580979Y186932D01*
X580979Y192525D02*
X583775Y192525D01*
X584707Y191593D01*
X584707Y189729D01*
X583775Y188797D01*
X580979Y188797D01*
X586592Y186932D02*
X586592Y190661D01*
X588456Y192525D01*
X590320Y190661D01*
X590320Y186932D01*
X590320Y189729D02*
X586592Y189729D01*
X592205Y192525D02*
X592205Y186932D01*
X595001Y186932D01*
X595934Y187864D01*
X595934Y191593D01*
X595001Y192525D01*
X592205Y192525D01*
X597818Y186000D02*
X601547Y186000D01*
X603431Y186932D02*
X607160Y186932D01*
X603431Y186932D02*
X607160Y190661D01*
X607160Y191593D01*
X606228Y192525D01*
X604363Y192525D01*
X603431Y191593D01*
D15*
X607261Y194381D02*
X575261Y194381D01*
X575261Y226381D01*
X607261Y226381D01*
X607261Y194381D01*
D12*
X623375Y174892D02*
X623375Y170812D01*
X627455Y170812D01*
X654775Y170812D02*
X654775Y174892D01*
X654775Y170812D02*
X650695Y170812D01*
X654775Y198132D02*
X654775Y202212D01*
X650695Y202212D01*
X627455Y202212D02*
X623375Y202212D01*
X623375Y198132D01*
D11*
X628792Y168656D02*
X628792Y163063D01*
X628792Y168656D02*
X631589Y168656D01*
X632521Y167724D01*
X632521Y165860D01*
X631589Y164927D01*
X628792Y164927D01*
X634406Y163063D02*
X634406Y166792D01*
X636270Y168656D01*
X638134Y166792D01*
X638134Y163063D01*
X638134Y165860D02*
X634406Y165860D01*
X640019Y168656D02*
X640019Y163063D01*
X642815Y163063D01*
X643747Y163995D01*
X643747Y167724D01*
X642815Y168656D01*
X640019Y168656D01*
X645632Y162131D02*
X649360Y162131D01*
X651245Y168656D02*
X654973Y168656D01*
X651245Y168656D02*
X651245Y165860D01*
X653109Y166792D01*
X654041Y166792D01*
X654973Y165860D01*
X654973Y163995D01*
X654041Y163063D01*
X652177Y163063D01*
X651245Y163995D01*
D15*
X655075Y170512D02*
X623075Y170512D01*
X623075Y202512D01*
X655075Y202512D01*
X655075Y170512D01*
D12*
X622372Y51606D02*
X622372Y47526D01*
X626452Y47526D01*
X653772Y47526D02*
X653772Y51606D01*
X653772Y47526D02*
X649692Y47526D01*
X653772Y74846D02*
X653772Y78926D01*
X649692Y78926D01*
X626452Y78926D02*
X622372Y78926D01*
X622372Y74846D01*
D11*
X627789Y45370D02*
X627789Y39778D01*
X627789Y45370D02*
X630586Y45370D01*
X631518Y44438D01*
X631518Y42574D01*
X630586Y41642D01*
X627789Y41642D01*
X633402Y39778D02*
X633402Y43506D01*
X635267Y45370D01*
X637131Y43506D01*
X637131Y39778D01*
X637131Y42574D02*
X633402Y42574D01*
X639016Y45370D02*
X639016Y39778D01*
X641812Y39778D01*
X642744Y40710D01*
X642744Y44438D01*
X641812Y45370D01*
X639016Y45370D01*
X644629Y38846D02*
X648357Y38846D01*
X652106Y44438D02*
X653970Y45370D01*
X652106Y44438D02*
X650242Y42574D01*
X650242Y40710D01*
X651174Y39778D01*
X653038Y39778D01*
X653970Y40710D01*
X653970Y41642D01*
X653038Y42574D01*
X650242Y42574D01*
D15*
X654072Y47226D02*
X622072Y47226D01*
X622072Y79226D01*
X654072Y79226D01*
X654072Y47226D01*
X456110Y66754D02*
X455606Y66367D01*
X455093Y65991D01*
X454571Y65628D01*
X454041Y65277D01*
X453503Y64940D01*
X452956Y64615D01*
X452402Y64303D01*
X451841Y64004D01*
X451272Y63719D01*
X450697Y63448D01*
X450116Y63190D01*
X449529Y62947D01*
X448936Y62717D01*
X448338Y62502D01*
X447735Y62301D01*
X447127Y62114D01*
X446515Y61942D01*
X445899Y61784D01*
X445279Y61642D01*
X444657Y61514D01*
X444031Y61401D01*
X443403Y61302D01*
X442773Y61219D01*
X442140Y61151D01*
X441491Y61097D01*
X440842Y61059D01*
X440191Y61037D01*
X439540Y61030D01*
X438889Y61039D01*
X438239Y61065D01*
X437589Y61106D01*
X436941Y61163D01*
X436294Y61236D01*
X435649Y61324D01*
X435006Y61429D01*
X434366Y61549D01*
X433730Y61684D01*
X433096Y61835D01*
X432467Y62002D01*
X431842Y62183D01*
X431221Y62380D01*
X430606Y62592D01*
X429996Y62819D01*
X429391Y63061D01*
X428793Y63318D01*
X428201Y63589D01*
X427616Y63874D01*
X427038Y64174D01*
X426468Y64487D01*
X425905Y64815D01*
X425351Y65156D01*
X424805Y65510D01*
X424268Y65878D01*
X423739Y66259D01*
X423221Y66652D01*
X422712Y67058D01*
X422213Y67476D01*
X421725Y67907D01*
X421247Y68349D01*
X420780Y68803D01*
X420325Y69268D01*
X419881Y69744D01*
X419448Y70230D01*
X419028Y70727D01*
X418620Y71234D01*
X418224Y71751D01*
X417841Y72278D01*
X417471Y72814D01*
X417114Y73358D01*
X416771Y73911D01*
X416441Y74472D01*
X416125Y75042D01*
X415823Y75618D01*
X415536Y76202D01*
X415262Y76793D01*
X415003Y77390D01*
X414759Y77994D01*
X414529Y78603D01*
X414315Y79217D01*
X414115Y79837D01*
X414115Y95563D02*
X414314Y96178D01*
X414526Y96789D01*
X414754Y97394D01*
X414996Y97993D01*
X415253Y98586D01*
X415524Y99173D01*
X415809Y99753D01*
X416108Y100326D01*
X416421Y100892D01*
X416748Y101450D01*
X417088Y102000D01*
X417441Y102541D01*
X417807Y103074D01*
X418186Y103597D01*
X418578Y104112D01*
X418982Y104616D01*
X419398Y105111D01*
X419825Y105596D01*
X420265Y106070D01*
X420716Y106533D01*
X421178Y106985D01*
X421651Y107426D01*
X422134Y107855D01*
X422628Y108272D01*
X423131Y108678D01*
X423644Y109071D01*
X424167Y109451D01*
X424699Y109819D01*
X425239Y110173D01*
X425788Y110515D01*
X426345Y110843D01*
X426910Y111157D01*
X427482Y111458D01*
X428061Y111745D01*
X428648Y112017D01*
X429240Y112276D01*
X429839Y112520D01*
X430443Y112749D01*
X431053Y112963D01*
X431668Y113163D01*
X432287Y113348D01*
X432911Y113518D01*
X433539Y113672D01*
X434170Y113811D01*
X434804Y113935D01*
X435441Y114044D01*
X436081Y114137D01*
X436723Y114214D01*
X437366Y114276D01*
X438011Y114323D01*
X438657Y114353D01*
X439303Y114368D01*
X439949Y114368D01*
X440596Y114351D01*
X441241Y114319D01*
X441886Y114272D01*
X442529Y114209D01*
X443171Y114130D01*
X443810Y114036D01*
X444447Y113926D01*
X445082Y113801D01*
X445713Y113660D01*
X446340Y113504D01*
X446963Y113333D01*
X447582Y113147D01*
X448197Y112946D01*
X448806Y112731D01*
X449410Y112500D01*
X450008Y112255D01*
X450600Y111996D01*
X451186Y111722D01*
X451765Y111434D01*
X452336Y111132D01*
X452900Y110817D01*
X453457Y110488D01*
X454005Y110145D01*
X454545Y109789D01*
X455076Y109421D01*
X455598Y109039D01*
X456110Y108645D01*
X456110Y66755D01*
X442140Y65163D02*
X442140Y61151D01*
X442140Y84837D02*
X442140Y90563D01*
X442140Y110237D02*
X442140Y114249D01*
D11*
X447143Y74880D02*
X452735Y74880D01*
X447143Y73016D02*
X447143Y76744D01*
X449007Y78629D02*
X447143Y80493D01*
X452735Y80493D01*
X452735Y78629D02*
X452735Y82357D01*
D15*
X409600Y59700D02*
X409600Y115700D01*
X457600Y115700D01*
X457600Y59700D01*
X409600Y59700D01*
D12*
X169171Y36540D02*
X169171Y20270D01*
X169171Y25693D02*
X180018Y36540D01*
X171883Y28405D02*
X180018Y20270D01*
X185543Y20270D02*
X196390Y20270D01*
X196390Y31116D02*
X185543Y20270D01*
X196390Y31116D02*
X196390Y33828D01*
X193678Y36540D01*
X188255Y36540D01*
X185543Y33828D01*
D15*
X8800Y41600D02*
X8800Y270600D01*
X8800Y41600D02*
X199800Y41600D01*
X199800Y270600D01*
X8800Y270600D01*
D11*
X301470Y33370D02*
X330930Y33370D01*
X301470Y33370D02*
X301470Y45030D01*
X330930Y45030D01*
X330930Y33370D01*
X319385Y31482D02*
X318453Y32414D01*
X316589Y32414D01*
X315657Y31482D01*
X315657Y27754D01*
X316589Y26822D01*
X318453Y26822D01*
X319385Y27754D01*
X321270Y30550D02*
X323134Y32414D01*
X323134Y26822D01*
X321270Y26822D02*
X324998Y26822D01*
X326883Y27754D02*
X326883Y31482D01*
X327815Y32414D01*
X329679Y32414D01*
X330611Y31482D01*
X330611Y27754D01*
X329679Y26822D01*
X327815Y26822D01*
X326883Y27754D01*
X330611Y31482D01*
D12*
X68620Y26620D02*
X66080Y26620D01*
X66080Y24080D01*
X81320Y24080D02*
X81320Y26620D01*
X78780Y26620D01*
X81320Y13920D02*
X81320Y11380D01*
X78780Y11380D01*
X68620Y11380D02*
X66080Y11380D01*
X66080Y13920D01*
D15*
X68066Y27396D02*
X79505Y27396D01*
X79505Y33116D01*
X77599Y35022D01*
X69972Y35022D01*
X68066Y33116D01*
X68066Y27396D01*
X71879Y39090D02*
X79505Y39090D01*
X71879Y39090D02*
X68066Y42903D01*
X71879Y46716D01*
X79505Y46716D01*
X73785Y46716D02*
X73785Y39090D01*
X68066Y54597D02*
X79505Y54597D01*
X68066Y50784D02*
X68066Y58410D01*
X64700Y28000D02*
X82700Y28000D01*
X82700Y10000D01*
X64700Y10000D01*
X64700Y28000D01*
D12*
X42620Y26820D02*
X40080Y26820D01*
X40080Y24280D01*
X55320Y24280D02*
X55320Y26820D01*
X52780Y26820D01*
X55320Y14120D02*
X55320Y11580D01*
X52780Y11580D01*
X42620Y11580D02*
X40080Y11580D01*
X40080Y14120D01*
D15*
X42066Y33316D02*
X43972Y35222D01*
X42066Y33316D02*
X42066Y29502D01*
X43972Y27596D01*
X51599Y27596D01*
X53505Y29502D01*
X53505Y33316D01*
X51599Y35222D01*
X53505Y39290D02*
X42066Y39290D01*
X53505Y39290D02*
X53505Y46916D01*
X53505Y50984D02*
X42066Y50984D01*
X49692Y50984D02*
X42066Y58610D01*
X47785Y52890D02*
X53505Y58610D01*
X56700Y28200D02*
X38700Y28200D01*
X56700Y28200D02*
X56700Y10200D01*
X38700Y10200D01*
X38700Y28200D01*
D12*
X142180Y27020D02*
X144720Y27020D01*
X142180Y27020D02*
X142180Y24480D01*
X157420Y24480D02*
X157420Y27020D01*
X154880Y27020D01*
X157420Y14320D02*
X157420Y11780D01*
X154880Y11780D01*
X144720Y11780D02*
X142180Y11780D01*
X142180Y14320D01*
D15*
X144166Y33516D02*
X146072Y35422D01*
X144166Y33516D02*
X144166Y29702D01*
X146072Y27796D01*
X153699Y27796D01*
X155605Y29702D01*
X155605Y33516D01*
X153699Y35422D01*
X155605Y39490D02*
X144166Y39490D01*
X155605Y39490D02*
X155605Y47116D01*
X155605Y51184D02*
X144166Y51184D01*
X144166Y56904D01*
X146072Y58810D01*
X149885Y58810D01*
X151792Y56904D01*
X151792Y51184D01*
X151792Y54997D02*
X155605Y58810D01*
X158800Y28400D02*
X140800Y28400D01*
X158800Y28400D02*
X158800Y10400D01*
X140800Y10400D01*
X140800Y28400D01*
D12*
X94020Y26920D02*
X91480Y26920D01*
X91480Y24380D01*
X106720Y24380D02*
X106720Y26920D01*
X104180Y26920D01*
X106720Y14220D02*
X106720Y11680D01*
X104180Y11680D01*
X94020Y11680D02*
X91480Y11680D01*
X91480Y14220D01*
D15*
X93466Y33416D02*
X95372Y35322D01*
X93466Y33416D02*
X93466Y29602D01*
X95372Y27696D01*
X102999Y27696D01*
X104905Y29602D01*
X104905Y33416D01*
X102999Y35322D01*
X99185Y35322D01*
X99185Y31509D01*
X104905Y39390D02*
X93466Y39390D01*
X104905Y47016D01*
X93466Y47016D01*
X93466Y51084D02*
X104905Y51084D01*
X104905Y56804D01*
X102999Y58710D01*
X95372Y58710D01*
X93466Y56804D01*
X93466Y51084D01*
X90100Y28300D02*
X108100Y28300D01*
X108100Y10300D01*
X90100Y10300D01*
X90100Y28300D01*
D12*
X116580Y26920D02*
X119120Y26920D01*
X116580Y26920D02*
X116580Y24380D01*
X131820Y24380D02*
X131820Y26920D01*
X129280Y26920D01*
X131820Y14220D02*
X131820Y11680D01*
X129280Y11680D01*
X119120Y11680D02*
X116580Y11680D01*
X116580Y14220D01*
D15*
X118566Y27696D02*
X126192Y27696D01*
X130005Y31509D01*
X126192Y35322D01*
X118566Y35322D01*
X118566Y45110D02*
X120472Y47016D01*
X118566Y45110D02*
X118566Y41296D01*
X120472Y39390D01*
X128099Y39390D01*
X130005Y41296D01*
X130005Y45110D01*
X128099Y47016D01*
X118566Y56804D02*
X120472Y58710D01*
X118566Y56804D02*
X118566Y52990D01*
X120472Y51084D01*
X128099Y51084D01*
X130005Y52990D01*
X130005Y56804D01*
X128099Y58710D01*
X133200Y28300D02*
X115200Y28300D01*
X133200Y28300D02*
X133200Y10300D01*
X115200Y10300D01*
X115200Y28300D01*
D17*
X354552Y228545D02*
X459457Y228654D01*
X459354Y283845D02*
X354473Y283833D01*
X354473Y227893D01*
X459406Y228036D02*
X459354Y283845D01*
D18*
X347192Y222908D02*
X335498Y222908D01*
X335498Y228755D01*
X337447Y230704D01*
X341345Y230704D01*
X343294Y228755D01*
X343294Y222908D01*
X343294Y226806D02*
X347192Y230704D01*
X347192Y234602D02*
X347192Y242398D01*
X347192Y234602D02*
X339396Y242398D01*
X337447Y242398D01*
X335498Y240449D01*
X335498Y236551D01*
X337447Y234602D01*
X337447Y246296D02*
X345243Y246296D01*
X337447Y246296D02*
X335498Y248245D01*
X335498Y252143D01*
X337447Y254092D01*
X345243Y254092D01*
X347192Y252143D01*
X347192Y248245D01*
X345243Y246296D01*
X337447Y254092D01*
D15*
X353600Y284700D02*
X459600Y284700D01*
X459600Y227700D01*
X353600Y227700D01*
X353600Y284700D01*
D11*
X499770Y254070D02*
X529230Y254070D01*
X499770Y254070D02*
X499770Y273730D01*
X529230Y273730D01*
X529230Y254070D01*
D14*
X533674Y249172D02*
X537487Y249172D01*
X533674Y249172D02*
X533674Y251714D01*
X535580Y250443D02*
X535580Y249172D01*
X533674Y252914D02*
X533674Y255456D01*
X533674Y252914D02*
X537487Y252914D01*
X537487Y255456D01*
X535580Y254185D02*
X535580Y252914D01*
X537487Y256656D02*
X533674Y256656D01*
X533674Y258563D01*
X534309Y259198D01*
X535580Y259198D01*
X536216Y258563D01*
X536216Y256656D01*
X536216Y257927D02*
X537487Y259198D01*
X537487Y260398D02*
X537487Y261669D01*
X537487Y261034D02*
X533674Y261034D01*
X533674Y261669D02*
X533674Y260398D01*
X533674Y264164D02*
X537487Y264164D01*
X533674Y262893D02*
X533674Y265435D01*
X533674Y266635D02*
X533674Y269177D01*
X533674Y266635D02*
X537487Y266635D01*
X537487Y269177D01*
X535580Y267906D02*
X535580Y266635D01*
D12*
X566050Y363340D02*
X566050Y383660D01*
D11*
X553350Y384930D02*
X483500Y384930D01*
X483500Y362070D02*
X413650Y362070D01*
X458100Y365880D02*
X483500Y365880D01*
X483500Y381120D02*
X508900Y381120D01*
D12*
X520330Y350640D02*
X464450Y350640D01*
X446670Y396360D02*
X502550Y396360D01*
X502708Y396358D01*
X502867Y396352D01*
X503025Y396342D01*
X503182Y396328D01*
X503340Y396311D01*
X503496Y396289D01*
X503653Y396264D01*
X503808Y396234D01*
X503963Y396201D01*
X504117Y396164D01*
X504270Y396123D01*
X504422Y396078D01*
X504572Y396029D01*
X504722Y395977D01*
X504870Y395921D01*
X505017Y395861D01*
X505162Y395798D01*
X505305Y395731D01*
X505447Y395661D01*
X505587Y395587D01*
X505725Y395509D01*
X505861Y395428D01*
X505995Y395344D01*
X506127Y395257D01*
X506257Y395166D01*
X506384Y395072D01*
X506509Y394975D01*
X506632Y394874D01*
X506752Y394771D01*
X506869Y394665D01*
X506984Y394556D01*
X507096Y394444D01*
X507205Y394329D01*
X507311Y394212D01*
X507414Y394092D01*
X507515Y393969D01*
X507612Y393844D01*
X507706Y393717D01*
X507797Y393587D01*
X507884Y393455D01*
X507968Y393321D01*
X508049Y393185D01*
X508127Y393047D01*
X508201Y392907D01*
X508271Y392765D01*
X508338Y392622D01*
X508401Y392477D01*
X508461Y392330D01*
X508517Y392182D01*
X508569Y392032D01*
X508618Y391882D01*
X508663Y391730D01*
X508704Y391577D01*
X508741Y391423D01*
X508774Y391268D01*
X508804Y391113D01*
X508829Y390956D01*
X508851Y390800D01*
X508868Y390642D01*
X508882Y390485D01*
X508892Y390327D01*
X508898Y390168D01*
X508900Y390010D01*
X464450Y350640D02*
X464292Y350642D01*
X464133Y350648D01*
X463975Y350658D01*
X463818Y350672D01*
X463660Y350689D01*
X463504Y350711D01*
X463347Y350736D01*
X463192Y350766D01*
X463037Y350799D01*
X462883Y350836D01*
X462730Y350877D01*
X462578Y350922D01*
X462428Y350971D01*
X462278Y351023D01*
X462130Y351079D01*
X461983Y351139D01*
X461838Y351202D01*
X461695Y351269D01*
X461553Y351339D01*
X461413Y351413D01*
X461275Y351491D01*
X461139Y351572D01*
X461005Y351656D01*
X460873Y351743D01*
X460743Y351834D01*
X460616Y351928D01*
X460491Y352025D01*
X460368Y352126D01*
X460248Y352229D01*
X460131Y352335D01*
X460016Y352444D01*
X459904Y352556D01*
X459795Y352671D01*
X459689Y352788D01*
X459586Y352908D01*
X459485Y353031D01*
X459388Y353156D01*
X459294Y353283D01*
X459203Y353413D01*
X459116Y353545D01*
X459032Y353679D01*
X458951Y353815D01*
X458873Y353953D01*
X458799Y354093D01*
X458729Y354235D01*
X458662Y354378D01*
X458599Y354523D01*
X458539Y354670D01*
X458483Y354818D01*
X458431Y354968D01*
X458382Y355118D01*
X458337Y355270D01*
X458296Y355423D01*
X458259Y355577D01*
X458226Y355732D01*
X458196Y355887D01*
X458171Y356044D01*
X458149Y356200D01*
X458132Y356358D01*
X458118Y356515D01*
X458108Y356673D01*
X458102Y356832D01*
X458100Y356990D01*
X407300Y356990D02*
X510170Y356990D01*
X559700Y390010D02*
X456830Y390010D01*
X407300Y356990D02*
X407142Y356992D01*
X406983Y356998D01*
X406825Y357008D01*
X406668Y357022D01*
X406510Y357039D01*
X406354Y357061D01*
X406197Y357086D01*
X406042Y357116D01*
X405887Y357149D01*
X405733Y357186D01*
X405580Y357227D01*
X405428Y357272D01*
X405278Y357321D01*
X405128Y357373D01*
X404980Y357429D01*
X404833Y357489D01*
X404688Y357552D01*
X404545Y357619D01*
X404403Y357689D01*
X404263Y357763D01*
X404125Y357841D01*
X403989Y357922D01*
X403855Y358006D01*
X403723Y358093D01*
X403593Y358184D01*
X403466Y358278D01*
X403341Y358375D01*
X403218Y358476D01*
X403098Y358579D01*
X402981Y358685D01*
X402866Y358794D01*
X402754Y358906D01*
X402645Y359021D01*
X402539Y359138D01*
X402436Y359258D01*
X402335Y359381D01*
X402238Y359506D01*
X402144Y359633D01*
X402053Y359763D01*
X401966Y359895D01*
X401882Y360029D01*
X401801Y360165D01*
X401723Y360303D01*
X401649Y360443D01*
X401579Y360585D01*
X401512Y360728D01*
X401449Y360873D01*
X401389Y361020D01*
X401333Y361168D01*
X401281Y361318D01*
X401232Y361468D01*
X401187Y361620D01*
X401146Y361773D01*
X401109Y361927D01*
X401076Y362082D01*
X401046Y362237D01*
X401021Y362394D01*
X400999Y362550D01*
X400982Y362708D01*
X400968Y362865D01*
X400958Y363023D01*
X400952Y363182D01*
X400950Y363340D01*
X400950Y383660D02*
X400952Y383818D01*
X400958Y383977D01*
X400968Y384135D01*
X400982Y384292D01*
X400999Y384450D01*
X401021Y384606D01*
X401046Y384763D01*
X401076Y384918D01*
X401109Y385073D01*
X401146Y385227D01*
X401187Y385380D01*
X401232Y385532D01*
X401281Y385682D01*
X401333Y385832D01*
X401389Y385980D01*
X401449Y386127D01*
X401512Y386272D01*
X401579Y386415D01*
X401649Y386557D01*
X401723Y386697D01*
X401801Y386835D01*
X401882Y386971D01*
X401966Y387105D01*
X402053Y387237D01*
X402144Y387367D01*
X402238Y387494D01*
X402335Y387619D01*
X402436Y387742D01*
X402539Y387862D01*
X402645Y387979D01*
X402754Y388094D01*
X402866Y388206D01*
X402981Y388315D01*
X403098Y388421D01*
X403218Y388524D01*
X403341Y388625D01*
X403466Y388722D01*
X403593Y388816D01*
X403723Y388907D01*
X403855Y388994D01*
X403989Y389078D01*
X404125Y389159D01*
X404263Y389237D01*
X404403Y389311D01*
X404545Y389381D01*
X404688Y389448D01*
X404833Y389511D01*
X404980Y389571D01*
X405128Y389627D01*
X405278Y389679D01*
X405428Y389728D01*
X405580Y389773D01*
X405733Y389814D01*
X405887Y389851D01*
X406042Y389884D01*
X406197Y389914D01*
X406354Y389939D01*
X406510Y389961D01*
X406668Y389978D01*
X406825Y389992D01*
X406983Y390002D01*
X407142Y390008D01*
X407300Y390010D01*
X559700Y390010D02*
X559858Y390008D01*
X560017Y390002D01*
X560175Y389992D01*
X560332Y389978D01*
X560490Y389961D01*
X560646Y389939D01*
X560803Y389914D01*
X560958Y389884D01*
X561113Y389851D01*
X561267Y389814D01*
X561420Y389773D01*
X561572Y389728D01*
X561722Y389679D01*
X561872Y389627D01*
X562020Y389571D01*
X562167Y389511D01*
X562312Y389448D01*
X562455Y389381D01*
X562597Y389311D01*
X562737Y389237D01*
X562875Y389159D01*
X563011Y389078D01*
X563145Y388994D01*
X563277Y388907D01*
X563407Y388816D01*
X563534Y388722D01*
X563659Y388625D01*
X563782Y388524D01*
X563902Y388421D01*
X564019Y388315D01*
X564134Y388206D01*
X564246Y388094D01*
X564355Y387979D01*
X564461Y387862D01*
X564564Y387742D01*
X564665Y387619D01*
X564762Y387494D01*
X564856Y387367D01*
X564947Y387237D01*
X565034Y387105D01*
X565118Y386971D01*
X565199Y386835D01*
X565277Y386697D01*
X565351Y386557D01*
X565421Y386415D01*
X565488Y386272D01*
X565551Y386127D01*
X565611Y385980D01*
X565667Y385832D01*
X565719Y385682D01*
X565768Y385532D01*
X565813Y385380D01*
X565854Y385227D01*
X565891Y385073D01*
X565924Y384918D01*
X565954Y384763D01*
X565979Y384606D01*
X566001Y384450D01*
X566018Y384292D01*
X566032Y384135D01*
X566042Y383977D01*
X566048Y383818D01*
X566050Y383660D01*
X566050Y363340D02*
X566048Y363182D01*
X566042Y363023D01*
X566032Y362865D01*
X566018Y362708D01*
X566001Y362550D01*
X565979Y362394D01*
X565954Y362237D01*
X565924Y362082D01*
X565891Y361927D01*
X565854Y361773D01*
X565813Y361620D01*
X565768Y361468D01*
X565719Y361318D01*
X565667Y361168D01*
X565611Y361020D01*
X565551Y360873D01*
X565488Y360728D01*
X565421Y360585D01*
X565351Y360443D01*
X565277Y360303D01*
X565199Y360165D01*
X565118Y360029D01*
X565034Y359895D01*
X564947Y359763D01*
X564856Y359633D01*
X564762Y359506D01*
X564665Y359381D01*
X564564Y359258D01*
X564461Y359138D01*
X564355Y359021D01*
X564246Y358906D01*
X564134Y358794D01*
X564019Y358685D01*
X563902Y358579D01*
X563782Y358476D01*
X563659Y358375D01*
X563534Y358278D01*
X563407Y358184D01*
X563277Y358093D01*
X563145Y358006D01*
X563011Y357922D01*
X562875Y357841D01*
X562737Y357763D01*
X562597Y357689D01*
X562455Y357619D01*
X562312Y357552D01*
X562167Y357489D01*
X562020Y357429D01*
X561872Y357373D01*
X561722Y357321D01*
X561572Y357272D01*
X561420Y357227D01*
X561267Y357186D01*
X561113Y357149D01*
X560958Y357116D01*
X560803Y357086D01*
X560646Y357061D01*
X560490Y357039D01*
X560332Y357022D01*
X560175Y357008D01*
X560017Y356998D01*
X559858Y356992D01*
X559700Y356990D01*
X400950Y363340D02*
X400950Y383660D01*
X533030Y356990D02*
X559700Y356990D01*
X433970Y390010D02*
X407300Y390010D01*
D15*
X420635Y400805D02*
X420635Y412245D01*
X426355Y412245D01*
X428262Y410338D01*
X428262Y406525D01*
X426355Y404618D01*
X420635Y404618D01*
X424448Y404618D02*
X428262Y400805D01*
X432329Y408432D02*
X436142Y412245D01*
X436142Y400805D01*
X432329Y400805D02*
X439955Y400805D01*
X444023Y402712D02*
X444023Y410338D01*
X445930Y412245D01*
X449743Y412245D01*
X451649Y410338D01*
X451649Y402712D01*
X449743Y400805D01*
X445930Y400805D01*
X444023Y402712D01*
X451649Y410338D01*
D12*
X566950Y316260D02*
X566950Y295940D01*
D11*
X554250Y317530D02*
X484400Y317530D01*
X484400Y294670D02*
X414550Y294670D01*
X459000Y298480D02*
X484400Y298480D01*
X484400Y313720D02*
X509800Y313720D01*
D12*
X521230Y283240D02*
X465350Y283240D01*
X447570Y328960D02*
X503450Y328960D01*
X503608Y328958D01*
X503767Y328952D01*
X503925Y328942D01*
X504082Y328928D01*
X504240Y328911D01*
X504396Y328889D01*
X504553Y328864D01*
X504708Y328834D01*
X504863Y328801D01*
X505017Y328764D01*
X505170Y328723D01*
X505322Y328678D01*
X505472Y328629D01*
X505622Y328577D01*
X505770Y328521D01*
X505917Y328461D01*
X506062Y328398D01*
X506205Y328331D01*
X506347Y328261D01*
X506487Y328187D01*
X506625Y328109D01*
X506761Y328028D01*
X506895Y327944D01*
X507027Y327857D01*
X507157Y327766D01*
X507284Y327672D01*
X507409Y327575D01*
X507532Y327474D01*
X507652Y327371D01*
X507769Y327265D01*
X507884Y327156D01*
X507996Y327044D01*
X508105Y326929D01*
X508211Y326812D01*
X508314Y326692D01*
X508415Y326569D01*
X508512Y326444D01*
X508606Y326317D01*
X508697Y326187D01*
X508784Y326055D01*
X508868Y325921D01*
X508949Y325785D01*
X509027Y325647D01*
X509101Y325507D01*
X509171Y325365D01*
X509238Y325222D01*
X509301Y325077D01*
X509361Y324930D01*
X509417Y324782D01*
X509469Y324632D01*
X509518Y324482D01*
X509563Y324330D01*
X509604Y324177D01*
X509641Y324023D01*
X509674Y323868D01*
X509704Y323713D01*
X509729Y323556D01*
X509751Y323400D01*
X509768Y323242D01*
X509782Y323085D01*
X509792Y322927D01*
X509798Y322768D01*
X509800Y322610D01*
X465350Y283240D02*
X465192Y283242D01*
X465033Y283248D01*
X464875Y283258D01*
X464718Y283272D01*
X464560Y283289D01*
X464404Y283311D01*
X464247Y283336D01*
X464092Y283366D01*
X463937Y283399D01*
X463783Y283436D01*
X463630Y283477D01*
X463478Y283522D01*
X463328Y283571D01*
X463178Y283623D01*
X463030Y283679D01*
X462883Y283739D01*
X462738Y283802D01*
X462595Y283869D01*
X462453Y283939D01*
X462313Y284013D01*
X462175Y284091D01*
X462039Y284172D01*
X461905Y284256D01*
X461773Y284343D01*
X461643Y284434D01*
X461516Y284528D01*
X461391Y284625D01*
X461268Y284726D01*
X461148Y284829D01*
X461031Y284935D01*
X460916Y285044D01*
X460804Y285156D01*
X460695Y285271D01*
X460589Y285388D01*
X460486Y285508D01*
X460385Y285631D01*
X460288Y285756D01*
X460194Y285883D01*
X460103Y286013D01*
X460016Y286145D01*
X459932Y286279D01*
X459851Y286415D01*
X459773Y286553D01*
X459699Y286693D01*
X459629Y286835D01*
X459562Y286978D01*
X459499Y287123D01*
X459439Y287270D01*
X459383Y287418D01*
X459331Y287568D01*
X459282Y287718D01*
X459237Y287870D01*
X459196Y288023D01*
X459159Y288177D01*
X459126Y288332D01*
X459096Y288487D01*
X459071Y288644D01*
X459049Y288800D01*
X459032Y288958D01*
X459018Y289115D01*
X459008Y289273D01*
X459002Y289432D01*
X459000Y289590D01*
X408200Y289590D02*
X511070Y289590D01*
X560600Y322610D02*
X457730Y322610D01*
X408200Y289590D02*
X408042Y289592D01*
X407883Y289598D01*
X407725Y289608D01*
X407568Y289622D01*
X407410Y289639D01*
X407254Y289661D01*
X407097Y289686D01*
X406942Y289716D01*
X406787Y289749D01*
X406633Y289786D01*
X406480Y289827D01*
X406328Y289872D01*
X406178Y289921D01*
X406028Y289973D01*
X405880Y290029D01*
X405733Y290089D01*
X405588Y290152D01*
X405445Y290219D01*
X405303Y290289D01*
X405163Y290363D01*
X405025Y290441D01*
X404889Y290522D01*
X404755Y290606D01*
X404623Y290693D01*
X404493Y290784D01*
X404366Y290878D01*
X404241Y290975D01*
X404118Y291076D01*
X403998Y291179D01*
X403881Y291285D01*
X403766Y291394D01*
X403654Y291506D01*
X403545Y291621D01*
X403439Y291738D01*
X403336Y291858D01*
X403235Y291981D01*
X403138Y292106D01*
X403044Y292233D01*
X402953Y292363D01*
X402866Y292495D01*
X402782Y292629D01*
X402701Y292765D01*
X402623Y292903D01*
X402549Y293043D01*
X402479Y293185D01*
X402412Y293328D01*
X402349Y293473D01*
X402289Y293620D01*
X402233Y293768D01*
X402181Y293918D01*
X402132Y294068D01*
X402087Y294220D01*
X402046Y294373D01*
X402009Y294527D01*
X401976Y294682D01*
X401946Y294837D01*
X401921Y294994D01*
X401899Y295150D01*
X401882Y295308D01*
X401868Y295465D01*
X401858Y295623D01*
X401852Y295782D01*
X401850Y295940D01*
X401850Y316260D02*
X401852Y316418D01*
X401858Y316577D01*
X401868Y316735D01*
X401882Y316892D01*
X401899Y317050D01*
X401921Y317206D01*
X401946Y317363D01*
X401976Y317518D01*
X402009Y317673D01*
X402046Y317827D01*
X402087Y317980D01*
X402132Y318132D01*
X402181Y318282D01*
X402233Y318432D01*
X402289Y318580D01*
X402349Y318727D01*
X402412Y318872D01*
X402479Y319015D01*
X402549Y319157D01*
X402623Y319297D01*
X402701Y319435D01*
X402782Y319571D01*
X402866Y319705D01*
X402953Y319837D01*
X403044Y319967D01*
X403138Y320094D01*
X403235Y320219D01*
X403336Y320342D01*
X403439Y320462D01*
X403545Y320579D01*
X403654Y320694D01*
X403766Y320806D01*
X403881Y320915D01*
X403998Y321021D01*
X404118Y321124D01*
X404241Y321225D01*
X404366Y321322D01*
X404493Y321416D01*
X404623Y321507D01*
X404755Y321594D01*
X404889Y321678D01*
X405025Y321759D01*
X405163Y321837D01*
X405303Y321911D01*
X405445Y321981D01*
X405588Y322048D01*
X405733Y322111D01*
X405880Y322171D01*
X406028Y322227D01*
X406178Y322279D01*
X406328Y322328D01*
X406480Y322373D01*
X406633Y322414D01*
X406787Y322451D01*
X406942Y322484D01*
X407097Y322514D01*
X407254Y322539D01*
X407410Y322561D01*
X407568Y322578D01*
X407725Y322592D01*
X407883Y322602D01*
X408042Y322608D01*
X408200Y322610D01*
X560600Y322610D02*
X560758Y322608D01*
X560917Y322602D01*
X561075Y322592D01*
X561232Y322578D01*
X561390Y322561D01*
X561546Y322539D01*
X561703Y322514D01*
X561858Y322484D01*
X562013Y322451D01*
X562167Y322414D01*
X562320Y322373D01*
X562472Y322328D01*
X562622Y322279D01*
X562772Y322227D01*
X562920Y322171D01*
X563067Y322111D01*
X563212Y322048D01*
X563355Y321981D01*
X563497Y321911D01*
X563637Y321837D01*
X563775Y321759D01*
X563911Y321678D01*
X564045Y321594D01*
X564177Y321507D01*
X564307Y321416D01*
X564434Y321322D01*
X564559Y321225D01*
X564682Y321124D01*
X564802Y321021D01*
X564919Y320915D01*
X565034Y320806D01*
X565146Y320694D01*
X565255Y320579D01*
X565361Y320462D01*
X565464Y320342D01*
X565565Y320219D01*
X565662Y320094D01*
X565756Y319967D01*
X565847Y319837D01*
X565934Y319705D01*
X566018Y319571D01*
X566099Y319435D01*
X566177Y319297D01*
X566251Y319157D01*
X566321Y319015D01*
X566388Y318872D01*
X566451Y318727D01*
X566511Y318580D01*
X566567Y318432D01*
X566619Y318282D01*
X566668Y318132D01*
X566713Y317980D01*
X566754Y317827D01*
X566791Y317673D01*
X566824Y317518D01*
X566854Y317363D01*
X566879Y317206D01*
X566901Y317050D01*
X566918Y316892D01*
X566932Y316735D01*
X566942Y316577D01*
X566948Y316418D01*
X566950Y316260D01*
X566950Y295940D02*
X566948Y295782D01*
X566942Y295623D01*
X566932Y295465D01*
X566918Y295308D01*
X566901Y295150D01*
X566879Y294994D01*
X566854Y294837D01*
X566824Y294682D01*
X566791Y294527D01*
X566754Y294373D01*
X566713Y294220D01*
X566668Y294068D01*
X566619Y293918D01*
X566567Y293768D01*
X566511Y293620D01*
X566451Y293473D01*
X566388Y293328D01*
X566321Y293185D01*
X566251Y293043D01*
X566177Y292903D01*
X566099Y292765D01*
X566018Y292629D01*
X565934Y292495D01*
X565847Y292363D01*
X565756Y292233D01*
X565662Y292106D01*
X565565Y291981D01*
X565464Y291858D01*
X565361Y291738D01*
X565255Y291621D01*
X565146Y291506D01*
X565034Y291394D01*
X564919Y291285D01*
X564802Y291179D01*
X564682Y291076D01*
X564559Y290975D01*
X564434Y290878D01*
X564307Y290784D01*
X564177Y290693D01*
X564045Y290606D01*
X563911Y290522D01*
X563775Y290441D01*
X563637Y290363D01*
X563497Y290289D01*
X563355Y290219D01*
X563212Y290152D01*
X563067Y290089D01*
X562920Y290029D01*
X562772Y289973D01*
X562622Y289921D01*
X562472Y289872D01*
X562320Y289827D01*
X562167Y289786D01*
X562013Y289749D01*
X561858Y289716D01*
X561703Y289686D01*
X561546Y289661D01*
X561390Y289639D01*
X561232Y289622D01*
X561075Y289608D01*
X560917Y289598D01*
X560758Y289592D01*
X560600Y289590D01*
X401850Y295940D02*
X401850Y316260D01*
X533930Y289590D02*
X560600Y289590D01*
X434870Y322610D02*
X408200Y322610D01*
D15*
X421535Y333405D02*
X421535Y344845D01*
X427255Y344845D01*
X429162Y342938D01*
X429162Y339125D01*
X427255Y337218D01*
X421535Y337218D01*
X425348Y337218D02*
X429162Y333405D01*
X433229Y341032D02*
X437042Y344845D01*
X437042Y333405D01*
X433229Y333405D02*
X440855Y333405D01*
X444923Y335312D02*
X446830Y333405D01*
X450643Y333405D01*
X452549Y335312D01*
X452549Y342938D01*
X450643Y344845D01*
X446830Y344845D01*
X444923Y342938D01*
X444923Y341032D01*
X446830Y339125D01*
X452549Y339125D01*
D12*
X55660Y300200D02*
X54390Y300200D01*
D13*
X55660Y300200D02*
X55660Y292580D01*
X55660Y300200D02*
X55660Y307820D01*
X60740Y300200D02*
X60740Y292580D01*
X60740Y300200D02*
X60740Y307820D01*
D12*
X60740Y300200D02*
X62010Y300200D01*
D11*
X59752Y287094D02*
X60684Y286161D01*
X59752Y287094D02*
X57888Y287094D01*
X56956Y286161D01*
X56956Y282433D01*
X57888Y281501D01*
X59752Y281501D01*
X60684Y282433D01*
X62569Y285229D02*
X64433Y287094D01*
X64433Y281501D01*
X62569Y281501D02*
X66297Y281501D01*
X68182Y285229D02*
X70046Y287094D01*
X70046Y281501D01*
X68182Y281501D02*
X71910Y281501D01*
D14*
X80025Y291091D02*
X80120Y291091D01*
D15*
X74900Y289400D02*
X75159Y289407D01*
X75418Y289420D01*
X75677Y289439D01*
X75935Y289465D01*
X76192Y289497D01*
X76449Y289535D01*
X76705Y289580D01*
X76959Y289631D01*
X77212Y289687D01*
X77464Y289750D01*
X77714Y289820D01*
X77962Y289895D01*
X78208Y289976D01*
X78453Y290063D01*
X78695Y290156D01*
X78934Y290255D01*
X79172Y290360D01*
X79406Y290471D01*
X79638Y290587D01*
X79867Y290709D01*
X80093Y290836D01*
X80316Y290969D01*
X80535Y291107D01*
X80751Y291251D01*
X80964Y291399D01*
X81173Y291553D01*
X81378Y291712D01*
X81579Y291876D01*
X81776Y292045D01*
X81969Y292218D01*
X82157Y292396D01*
X82341Y292579D01*
X82521Y292766D01*
X82696Y292958D01*
X82866Y293153D01*
X83032Y293353D01*
X83193Y293556D01*
X83348Y293764D01*
X83499Y293975D01*
X83644Y294190D01*
X83784Y294408D01*
X83919Y294630D01*
X84048Y294855D01*
X84172Y295083D01*
X84290Y295314D01*
X84403Y295548D01*
X84509Y295784D01*
X84610Y296023D01*
X84705Y296264D01*
X84795Y296508D01*
X84878Y296753D01*
X84955Y297001D01*
X85026Y297250D01*
X85092Y297501D01*
X85151Y297754D01*
X85203Y298008D01*
X85250Y298263D01*
X85290Y298519D01*
X85325Y298776D01*
X85352Y299034D01*
X85374Y299293D01*
X85389Y299552D01*
X85398Y299811D01*
X85401Y300070D01*
X85397Y300330D01*
X85387Y300589D01*
X85371Y300848D01*
X85349Y301106D01*
X85320Y301364D01*
X85285Y301621D01*
X85243Y301877D01*
X85196Y302132D01*
X85142Y302386D01*
X85082Y302638D01*
X85016Y302889D01*
X84944Y303138D01*
X84865Y303385D01*
X84781Y303631D01*
X84691Y303874D01*
X84595Y304115D01*
X84493Y304353D01*
X84385Y304589D01*
X84272Y304823D01*
X84153Y305053D01*
X84028Y305280D01*
X83898Y305505D01*
X83763Y305726D01*
X83622Y305944D01*
X83476Y306158D01*
X83324Y306369D01*
X83168Y306576D01*
X83006Y306779D01*
X82840Y306978D01*
X82669Y307173D01*
X82493Y307363D01*
X82313Y307550D01*
X82128Y307732D01*
X81939Y307909D01*
X81745Y308082D01*
X81548Y308250D01*
X81346Y308413D01*
X81140Y308571D01*
X80931Y308724D01*
X80718Y308872D01*
X80501Y309015D01*
X80281Y309152D01*
X80058Y309284D01*
X79831Y309411D01*
X79602Y309532D01*
X79370Y309647D01*
X79135Y309757D01*
X78897Y309861D01*
X78657Y309959D01*
X78414Y310051D01*
X78170Y310137D01*
X77923Y310217D01*
X77675Y310292D01*
X77424Y310360D01*
X77172Y310422D01*
X76919Y310478D01*
X76665Y310527D01*
X76409Y310571D01*
X76152Y310608D01*
X75895Y310639D01*
X75637Y310664D01*
X75378Y310682D01*
X75119Y310695D01*
X74859Y310700D01*
X74600Y310700D01*
X41100Y310700D02*
X40841Y310693D01*
X40582Y310680D01*
X40323Y310661D01*
X40065Y310635D01*
X39808Y310603D01*
X39551Y310565D01*
X39295Y310520D01*
X39041Y310469D01*
X38788Y310413D01*
X38536Y310350D01*
X38286Y310280D01*
X38038Y310205D01*
X37792Y310124D01*
X37547Y310037D01*
X37305Y309944D01*
X37066Y309845D01*
X36828Y309740D01*
X36594Y309629D01*
X36362Y309513D01*
X36133Y309391D01*
X35907Y309264D01*
X35684Y309131D01*
X35465Y308993D01*
X35249Y308849D01*
X35036Y308701D01*
X34827Y308547D01*
X34622Y308388D01*
X34421Y308224D01*
X34224Y308055D01*
X34031Y307882D01*
X33843Y307704D01*
X33659Y307521D01*
X33479Y307334D01*
X33304Y307142D01*
X33134Y306947D01*
X32968Y306747D01*
X32807Y306544D01*
X32652Y306336D01*
X32501Y306125D01*
X32356Y305910D01*
X32216Y305692D01*
X32081Y305470D01*
X31952Y305245D01*
X31828Y305017D01*
X31710Y304786D01*
X31597Y304552D01*
X31491Y304316D01*
X31390Y304077D01*
X31295Y303836D01*
X31205Y303592D01*
X31122Y303347D01*
X31045Y303099D01*
X30974Y302850D01*
X30908Y302599D01*
X30849Y302346D01*
X30797Y302092D01*
X30750Y301837D01*
X30710Y301581D01*
X30675Y301324D01*
X30648Y301066D01*
X30626Y300807D01*
X30611Y300548D01*
X30602Y300289D01*
X30599Y300030D01*
X30603Y299770D01*
X30613Y299511D01*
X30629Y299252D01*
X30651Y298994D01*
X30680Y298736D01*
X30715Y298479D01*
X30757Y298223D01*
X30804Y297968D01*
X30858Y297714D01*
X30918Y297462D01*
X30984Y297211D01*
X31056Y296962D01*
X31135Y296715D01*
X31219Y296469D01*
X31309Y296226D01*
X31405Y295985D01*
X31507Y295747D01*
X31615Y295511D01*
X31728Y295277D01*
X31847Y295047D01*
X31972Y294820D01*
X32102Y294595D01*
X32237Y294374D01*
X32378Y294156D01*
X32524Y293942D01*
X32676Y293731D01*
X32832Y293524D01*
X32994Y293321D01*
X33160Y293122D01*
X33331Y292927D01*
X33507Y292737D01*
X33687Y292550D01*
X33872Y292368D01*
X34061Y292191D01*
X34255Y292018D01*
X34452Y291850D01*
X34654Y291687D01*
X34860Y291529D01*
X35069Y291376D01*
X35282Y291228D01*
X35499Y291085D01*
X35719Y290948D01*
X35942Y290816D01*
X36169Y290689D01*
X36398Y290568D01*
X36630Y290453D01*
X36865Y290343D01*
X37103Y290239D01*
X37343Y290141D01*
X37586Y290049D01*
X37830Y289963D01*
X38077Y289883D01*
X38325Y289808D01*
X38576Y289740D01*
X38828Y289678D01*
X39081Y289622D01*
X39335Y289573D01*
X39591Y289529D01*
X39848Y289492D01*
X40105Y289461D01*
X40363Y289436D01*
X40622Y289418D01*
X40881Y289405D01*
X41141Y289400D01*
X41400Y289400D01*
X74900Y289400D01*
X74600Y310700D02*
X41100Y310700D01*
X32800Y300200D02*
X32808Y300823D01*
X32831Y301446D01*
X32869Y302069D01*
X32922Y302690D01*
X32991Y303309D01*
X33075Y303927D01*
X33174Y304542D01*
X33288Y305155D01*
X33417Y305765D01*
X33561Y306372D01*
X33720Y306975D01*
X33894Y307573D01*
X34082Y308168D01*
X34285Y308757D01*
X34502Y309341D01*
X34733Y309920D01*
X34979Y310493D01*
X35239Y311060D01*
X35512Y311620D01*
X35799Y312173D01*
X36100Y312720D01*
X36414Y313258D01*
X36741Y313789D01*
X37081Y314311D01*
X37433Y314826D01*
X37799Y315331D01*
X38176Y315827D01*
X38566Y316314D01*
X38967Y316791D01*
X39380Y317258D01*
X39804Y317714D01*
X40239Y318161D01*
X40686Y318596D01*
X41142Y319020D01*
X41609Y319433D01*
X42086Y319834D01*
X42573Y320224D01*
X43069Y320601D01*
X43574Y320967D01*
X44089Y321319D01*
X44611Y321659D01*
X45142Y321986D01*
X45680Y322300D01*
X46227Y322601D01*
X46780Y322888D01*
X47340Y323161D01*
X47907Y323421D01*
X48480Y323667D01*
X49059Y323898D01*
X49643Y324115D01*
X50232Y324318D01*
X50827Y324506D01*
X51425Y324680D01*
X52028Y324839D01*
X52635Y324983D01*
X53245Y325112D01*
X53858Y325226D01*
X54473Y325325D01*
X55091Y325409D01*
X55710Y325478D01*
X56331Y325531D01*
X56954Y325569D01*
X57577Y325592D01*
X58200Y325600D01*
X58823Y325592D01*
X59446Y325569D01*
X60069Y325531D01*
X60690Y325478D01*
X61309Y325409D01*
X61927Y325325D01*
X62542Y325226D01*
X63155Y325112D01*
X63765Y324983D01*
X64372Y324839D01*
X64975Y324680D01*
X65573Y324506D01*
X66168Y324318D01*
X66757Y324115D01*
X67341Y323898D01*
X67920Y323667D01*
X68493Y323421D01*
X69060Y323161D01*
X69620Y322888D01*
X70173Y322601D01*
X70720Y322300D01*
X71258Y321986D01*
X71789Y321659D01*
X72311Y321319D01*
X72826Y320967D01*
X73331Y320601D01*
X73827Y320224D01*
X74314Y319834D01*
X74791Y319433D01*
X75258Y319020D01*
X75714Y318596D01*
X76161Y318161D01*
X76596Y317714D01*
X77020Y317258D01*
X77433Y316791D01*
X77834Y316314D01*
X78224Y315827D01*
X78601Y315331D01*
X78967Y314826D01*
X79319Y314311D01*
X79659Y313789D01*
X79986Y313258D01*
X80300Y312720D01*
X80601Y312173D01*
X80888Y311620D01*
X81161Y311060D01*
X81421Y310493D01*
X81667Y309920D01*
X81898Y309341D01*
X82115Y308757D01*
X82318Y308168D01*
X82506Y307573D01*
X82680Y306975D01*
X82839Y306372D01*
X82983Y305765D01*
X83112Y305155D01*
X83226Y304542D01*
X83325Y303927D01*
X83409Y303309D01*
X83478Y302690D01*
X83531Y302069D01*
X83569Y301446D01*
X83592Y300823D01*
X83600Y300200D01*
X83592Y299577D01*
X83569Y298954D01*
X83531Y298331D01*
X83478Y297710D01*
X83409Y297091D01*
X83325Y296473D01*
X83226Y295858D01*
X83112Y295245D01*
X82983Y294635D01*
X82839Y294028D01*
X82680Y293425D01*
X82506Y292827D01*
X82318Y292232D01*
X82115Y291643D01*
X81898Y291059D01*
X81667Y290480D01*
X81421Y289907D01*
X81161Y289340D01*
X80888Y288780D01*
X80601Y288227D01*
X80300Y287680D01*
X79986Y287142D01*
X79659Y286611D01*
X79319Y286089D01*
X78967Y285574D01*
X78601Y285069D01*
X78224Y284573D01*
X77834Y284086D01*
X77433Y283609D01*
X77020Y283142D01*
X76596Y282686D01*
X76161Y282239D01*
X75714Y281804D01*
X75258Y281380D01*
X74791Y280967D01*
X74314Y280566D01*
X73827Y280176D01*
X73331Y279799D01*
X72826Y279433D01*
X72311Y279081D01*
X71789Y278741D01*
X71258Y278414D01*
X70720Y278100D01*
X70173Y277799D01*
X69620Y277512D01*
X69060Y277239D01*
X68493Y276979D01*
X67920Y276733D01*
X67341Y276502D01*
X66757Y276285D01*
X66168Y276082D01*
X65573Y275894D01*
X64975Y275720D01*
X64372Y275561D01*
X63765Y275417D01*
X63155Y275288D01*
X62542Y275174D01*
X61927Y275075D01*
X61309Y274991D01*
X60690Y274922D01*
X60069Y274869D01*
X59446Y274831D01*
X58823Y274808D01*
X58200Y274800D01*
X57577Y274808D01*
X56954Y274831D01*
X56331Y274869D01*
X55710Y274922D01*
X55091Y274991D01*
X54473Y275075D01*
X53858Y275174D01*
X53245Y275288D01*
X52635Y275417D01*
X52028Y275561D01*
X51425Y275720D01*
X50827Y275894D01*
X50232Y276082D01*
X49643Y276285D01*
X49059Y276502D01*
X48480Y276733D01*
X47907Y276979D01*
X47340Y277239D01*
X46780Y277512D01*
X46227Y277799D01*
X45680Y278100D01*
X45142Y278414D01*
X44611Y278741D01*
X44089Y279081D01*
X43574Y279433D01*
X43069Y279799D01*
X42573Y280176D01*
X42086Y280566D01*
X41609Y280967D01*
X41142Y281380D01*
X40686Y281804D01*
X40239Y282239D01*
X39804Y282686D01*
X39380Y283142D01*
X38967Y283609D01*
X38566Y284086D01*
X38176Y284573D01*
X37799Y285069D01*
X37433Y285574D01*
X37081Y286089D01*
X36741Y286611D01*
X36414Y287142D01*
X36100Y287680D01*
X35799Y288227D01*
X35512Y288780D01*
X35239Y289340D01*
X34979Y289907D01*
X34733Y290480D01*
X34502Y291059D01*
X34285Y291643D01*
X34082Y292232D01*
X33894Y292827D01*
X33720Y293425D01*
X33561Y294028D01*
X33417Y294635D01*
X33288Y295245D01*
X33174Y295858D01*
X33075Y296473D01*
X32991Y297091D01*
X32922Y297710D01*
X32869Y298331D01*
X32831Y298954D01*
X32808Y299577D01*
X32800Y300200D01*
D19*
X599100Y354248D02*
X605450Y354248D01*
X599100Y354248D02*
X592750Y354248D01*
D12*
X599100Y354248D02*
X599100Y366440D01*
D19*
X599100Y347898D02*
X605450Y347898D01*
X599100Y347898D02*
X592750Y347898D01*
D12*
X599100Y347898D02*
X599100Y335960D01*
X619420Y388030D02*
X578780Y388030D01*
X576240Y385490D02*
X576240Y316910D01*
X578780Y314370D02*
X619420Y314370D01*
X621960Y316910D02*
X621960Y385490D01*
X621960Y316910D02*
X621958Y316810D01*
X621952Y316711D01*
X621942Y316611D01*
X621929Y316513D01*
X621911Y316414D01*
X621890Y316317D01*
X621865Y316221D01*
X621836Y316125D01*
X621803Y316031D01*
X621767Y315938D01*
X621727Y315847D01*
X621683Y315757D01*
X621636Y315669D01*
X621586Y315583D01*
X621532Y315499D01*
X621475Y315417D01*
X621415Y315338D01*
X621351Y315260D01*
X621285Y315186D01*
X621216Y315114D01*
X621144Y315045D01*
X621070Y314979D01*
X620992Y314915D01*
X620913Y314855D01*
X620831Y314798D01*
X620747Y314744D01*
X620661Y314694D01*
X620573Y314647D01*
X620483Y314603D01*
X620392Y314563D01*
X620299Y314527D01*
X620205Y314494D01*
X620109Y314465D01*
X620013Y314440D01*
X619916Y314419D01*
X619817Y314401D01*
X619719Y314388D01*
X619619Y314378D01*
X619520Y314372D01*
X619420Y314370D01*
X578780Y314370D02*
X578680Y314372D01*
X578581Y314378D01*
X578481Y314388D01*
X578383Y314401D01*
X578284Y314419D01*
X578187Y314440D01*
X578091Y314465D01*
X577995Y314494D01*
X577901Y314527D01*
X577808Y314563D01*
X577717Y314603D01*
X577627Y314647D01*
X577539Y314694D01*
X577453Y314744D01*
X577369Y314798D01*
X577287Y314855D01*
X577208Y314915D01*
X577130Y314979D01*
X577056Y315045D01*
X576984Y315114D01*
X576915Y315186D01*
X576849Y315260D01*
X576785Y315338D01*
X576725Y315417D01*
X576668Y315499D01*
X576614Y315583D01*
X576564Y315669D01*
X576517Y315757D01*
X576473Y315847D01*
X576433Y315938D01*
X576397Y316031D01*
X576364Y316125D01*
X576335Y316221D01*
X576310Y316317D01*
X576289Y316414D01*
X576271Y316513D01*
X576258Y316611D01*
X576248Y316711D01*
X576242Y316810D01*
X576240Y316910D01*
X576240Y385490D02*
X576242Y385590D01*
X576248Y385689D01*
X576258Y385789D01*
X576271Y385887D01*
X576289Y385986D01*
X576310Y386083D01*
X576335Y386179D01*
X576364Y386275D01*
X576397Y386369D01*
X576433Y386462D01*
X576473Y386553D01*
X576517Y386643D01*
X576564Y386731D01*
X576614Y386817D01*
X576668Y386901D01*
X576725Y386983D01*
X576785Y387062D01*
X576849Y387140D01*
X576915Y387214D01*
X576984Y387286D01*
X577056Y387355D01*
X577130Y387421D01*
X577208Y387485D01*
X577287Y387545D01*
X577369Y387602D01*
X577453Y387656D01*
X577539Y387706D01*
X577627Y387753D01*
X577717Y387797D01*
X577808Y387837D01*
X577901Y387873D01*
X577995Y387906D01*
X578091Y387935D01*
X578187Y387960D01*
X578284Y387981D01*
X578383Y387999D01*
X578481Y388012D01*
X578581Y388022D01*
X578680Y388028D01*
X578780Y388030D01*
X619420Y388030D02*
X619520Y388028D01*
X619619Y388022D01*
X619719Y388012D01*
X619817Y387999D01*
X619916Y387981D01*
X620013Y387960D01*
X620109Y387935D01*
X620205Y387906D01*
X620299Y387873D01*
X620392Y387837D01*
X620483Y387797D01*
X620573Y387753D01*
X620661Y387706D01*
X620747Y387656D01*
X620831Y387602D01*
X620913Y387545D01*
X620992Y387485D01*
X621070Y387421D01*
X621144Y387355D01*
X621216Y387286D01*
X621285Y387214D01*
X621351Y387140D01*
X621415Y387062D01*
X621475Y386983D01*
X621532Y386901D01*
X621586Y386817D01*
X621636Y386731D01*
X621683Y386643D01*
X621727Y386553D01*
X621767Y386462D01*
X621803Y386369D01*
X621836Y386275D01*
X621865Y386179D01*
X621890Y386083D01*
X621911Y385986D01*
X621929Y385887D01*
X621942Y385789D01*
X621952Y385689D01*
X621958Y385590D01*
X621960Y385490D01*
D15*
X628302Y359940D02*
X626395Y358033D01*
X626395Y354220D01*
X628302Y352313D01*
X635928Y352313D01*
X637835Y354220D01*
X637835Y358033D01*
X635928Y359940D01*
X630209Y364007D02*
X626395Y367820D01*
X637835Y367820D01*
X637835Y364007D02*
X637835Y371634D01*
X637835Y375701D02*
X637835Y383327D01*
X637835Y375701D02*
X630209Y383327D01*
X628302Y383327D01*
X626395Y381421D01*
X626395Y377608D01*
X628302Y375701D01*
X280300Y367970D02*
X279030Y338760D01*
X276490Y336220D01*
X182510Y336220D01*
X179970Y338760D01*
X178700Y367970D01*
X182002Y342316D02*
X182004Y342416D01*
X182010Y342517D01*
X182020Y342616D01*
X182034Y342716D01*
X182051Y342815D01*
X182073Y342913D01*
X182099Y343010D01*
X182128Y343106D01*
X182161Y343200D01*
X182198Y343294D01*
X182238Y343386D01*
X182282Y343476D01*
X182330Y343564D01*
X182381Y343651D01*
X182435Y343735D01*
X182493Y343817D01*
X182554Y343897D01*
X182618Y343974D01*
X182685Y344049D01*
X182755Y344121D01*
X182828Y344190D01*
X182903Y344256D01*
X182981Y344320D01*
X183061Y344380D01*
X183144Y344437D01*
X183229Y344490D01*
X183316Y344540D01*
X183405Y344587D01*
X183495Y344630D01*
X183587Y344670D01*
X183681Y344706D01*
X183776Y344738D01*
X183872Y344766D01*
X183970Y344791D01*
X184068Y344811D01*
X184167Y344828D01*
X184267Y344841D01*
X184366Y344850D01*
X184467Y344855D01*
X184567Y344856D01*
X184667Y344853D01*
X184768Y344846D01*
X184867Y344835D01*
X184967Y344820D01*
X185065Y344802D01*
X185163Y344779D01*
X185260Y344752D01*
X185355Y344722D01*
X185450Y344688D01*
X185543Y344650D01*
X185634Y344609D01*
X185724Y344564D01*
X185812Y344516D01*
X185898Y344464D01*
X185982Y344409D01*
X186063Y344350D01*
X186142Y344288D01*
X186219Y344224D01*
X186293Y344156D01*
X186364Y344085D01*
X186433Y344012D01*
X186498Y343936D01*
X186561Y343857D01*
X186620Y343776D01*
X186676Y343693D01*
X186729Y343608D01*
X186778Y343520D01*
X186824Y343431D01*
X186866Y343340D01*
X186905Y343247D01*
X186940Y343153D01*
X186971Y343058D01*
X186999Y342961D01*
X187022Y342864D01*
X187042Y342765D01*
X187058Y342666D01*
X187070Y342567D01*
X187078Y342466D01*
X187082Y342366D01*
X187082Y342266D01*
X187078Y342166D01*
X187070Y342065D01*
X187058Y341966D01*
X187042Y341867D01*
X187022Y341768D01*
X186999Y341671D01*
X186971Y341574D01*
X186940Y341479D01*
X186905Y341385D01*
X186866Y341292D01*
X186824Y341201D01*
X186778Y341112D01*
X186729Y341024D01*
X186676Y340939D01*
X186620Y340856D01*
X186561Y340775D01*
X186498Y340696D01*
X186433Y340620D01*
X186364Y340547D01*
X186293Y340476D01*
X186219Y340408D01*
X186142Y340344D01*
X186063Y340282D01*
X185982Y340223D01*
X185898Y340168D01*
X185812Y340116D01*
X185724Y340068D01*
X185634Y340023D01*
X185543Y339982D01*
X185450Y339944D01*
X185355Y339910D01*
X185260Y339880D01*
X185163Y339853D01*
X185065Y339830D01*
X184967Y339812D01*
X184867Y339797D01*
X184768Y339786D01*
X184667Y339779D01*
X184567Y339776D01*
X184467Y339777D01*
X184366Y339782D01*
X184267Y339791D01*
X184167Y339804D01*
X184068Y339821D01*
X183970Y339841D01*
X183872Y339866D01*
X183776Y339894D01*
X183681Y339926D01*
X183587Y339962D01*
X183495Y340002D01*
X183405Y340045D01*
X183316Y340092D01*
X183229Y340142D01*
X183144Y340195D01*
X183061Y340252D01*
X182981Y340312D01*
X182903Y340376D01*
X182828Y340442D01*
X182755Y340511D01*
X182685Y340583D01*
X182618Y340658D01*
X182554Y340735D01*
X182493Y340815D01*
X182435Y340897D01*
X182381Y340981D01*
X182330Y341068D01*
X182282Y341156D01*
X182238Y341246D01*
X182198Y341338D01*
X182161Y341432D01*
X182128Y341526D01*
X182099Y341622D01*
X182073Y341719D01*
X182051Y341817D01*
X182034Y341916D01*
X182020Y342016D01*
X182010Y342115D01*
X182004Y342216D01*
X182002Y342316D01*
X183148Y319583D02*
X179335Y319583D01*
X181242Y319583D02*
X181242Y331023D01*
X183148Y331023D02*
X179335Y331023D01*
X192851Y331023D02*
X194757Y329116D01*
X192851Y331023D02*
X189038Y331023D01*
X187131Y329116D01*
X187131Y321490D01*
X189038Y319583D01*
X192851Y319583D01*
X194757Y321490D01*
X198825Y331023D02*
X206451Y331023D01*
X198825Y331023D02*
X198825Y325303D01*
X202638Y327210D01*
X204545Y327210D01*
X206451Y325303D01*
X206451Y321490D01*
X204545Y319583D01*
X200732Y319583D01*
X198825Y321490D01*
D20*
X229500Y375590D03*
D21*
X185685Y369240D03*
D22*
X216800Y369240D03*
X242200Y369240D03*
D21*
X273315Y369240D03*
D12*
X123500Y371940D02*
X123500Y361272D01*
D23*
X131120Y361272D01*
X123500Y361272D02*
X115880Y361272D01*
X123500Y352382D02*
X131120Y352382D01*
D12*
X123500Y352382D02*
X123500Y341460D01*
D23*
X123500Y352382D02*
X115880Y352382D01*
D15*
X164765Y362263D02*
X166672Y364170D01*
X164765Y362263D02*
X164765Y358450D01*
X166672Y356543D01*
X174298Y356543D01*
X176205Y358450D01*
X176205Y362263D01*
X174298Y364170D01*
X168579Y368237D02*
X164765Y372050D01*
X176205Y372050D01*
X176205Y368237D02*
X176205Y375864D01*
X176205Y385651D02*
X164765Y385651D01*
X170485Y379931D01*
X170485Y387557D01*
X85400Y356700D02*
X85411Y357635D01*
X85446Y358569D01*
X85503Y359503D01*
X85583Y360434D01*
X85687Y361364D01*
X85812Y362290D01*
X85961Y363214D01*
X86132Y364133D01*
X86326Y365048D01*
X86542Y365958D01*
X86780Y366862D01*
X87041Y367760D01*
X87323Y368651D01*
X87627Y369536D01*
X87953Y370412D01*
X88300Y371280D01*
X88669Y372140D01*
X89058Y372990D01*
X89468Y373830D01*
X89899Y374660D01*
X90350Y375479D01*
X90821Y376287D01*
X91311Y377083D01*
X91821Y377867D01*
X92350Y378638D01*
X92898Y379396D01*
X93464Y380140D01*
X94048Y380870D01*
X94650Y381586D01*
X95270Y382286D01*
X95906Y382971D01*
X96559Y383641D01*
X97229Y384294D01*
X97914Y384930D01*
X98614Y385550D01*
X99330Y386152D01*
X100060Y386736D01*
X100804Y387302D01*
X101562Y387850D01*
X102333Y388379D01*
X103117Y388889D01*
X103913Y389379D01*
X104721Y389850D01*
X105540Y390301D01*
X106370Y390732D01*
X107210Y391142D01*
X108060Y391531D01*
X108920Y391900D01*
X109788Y392247D01*
X110664Y392573D01*
X111549Y392877D01*
X112440Y393159D01*
X113338Y393420D01*
X114242Y393658D01*
X115152Y393874D01*
X116067Y394068D01*
X116986Y394239D01*
X117910Y394388D01*
X118836Y394513D01*
X119766Y394617D01*
X120697Y394697D01*
X121631Y394754D01*
X122565Y394789D01*
X123500Y394800D01*
X124435Y394789D01*
X125369Y394754D01*
X126303Y394697D01*
X127234Y394617D01*
X128164Y394513D01*
X129090Y394388D01*
X130014Y394239D01*
X130933Y394068D01*
X131848Y393874D01*
X132758Y393658D01*
X133662Y393420D01*
X134560Y393159D01*
X135451Y392877D01*
X136336Y392573D01*
X137212Y392247D01*
X138080Y391900D01*
X138940Y391531D01*
X139790Y391142D01*
X140630Y390732D01*
X141460Y390301D01*
X142279Y389850D01*
X143087Y389379D01*
X143883Y388889D01*
X144667Y388379D01*
X145438Y387850D01*
X146196Y387302D01*
X146940Y386736D01*
X147670Y386152D01*
X148386Y385550D01*
X149086Y384930D01*
X149771Y384294D01*
X150441Y383641D01*
X151094Y382971D01*
X151730Y382286D01*
X152350Y381586D01*
X152952Y380870D01*
X153536Y380140D01*
X154102Y379396D01*
X154650Y378638D01*
X155179Y377867D01*
X155689Y377083D01*
X156179Y376287D01*
X156650Y375479D01*
X157101Y374660D01*
X157532Y373830D01*
X157942Y372990D01*
X158331Y372140D01*
X158700Y371280D01*
X159047Y370412D01*
X159373Y369536D01*
X159677Y368651D01*
X159959Y367760D01*
X160220Y366862D01*
X160458Y365958D01*
X160674Y365048D01*
X160868Y364133D01*
X161039Y363214D01*
X161188Y362290D01*
X161313Y361364D01*
X161417Y360434D01*
X161497Y359503D01*
X161554Y358569D01*
X161589Y357635D01*
X161600Y356700D01*
X161589Y355765D01*
X161554Y354831D01*
X161497Y353897D01*
X161417Y352966D01*
X161313Y352036D01*
X161188Y351110D01*
X161039Y350186D01*
X160868Y349267D01*
X160674Y348352D01*
X160458Y347442D01*
X160220Y346538D01*
X159959Y345640D01*
X159677Y344749D01*
X159373Y343864D01*
X159047Y342988D01*
X158700Y342120D01*
X158331Y341260D01*
X157942Y340410D01*
X157532Y339570D01*
X157101Y338740D01*
X156650Y337921D01*
X156179Y337113D01*
X155689Y336317D01*
X155179Y335533D01*
X154650Y334762D01*
X154102Y334004D01*
X153536Y333260D01*
X152952Y332530D01*
X152350Y331814D01*
X151730Y331114D01*
X151094Y330429D01*
X150441Y329759D01*
X149771Y329106D01*
X149086Y328470D01*
X148386Y327850D01*
X147670Y327248D01*
X146940Y326664D01*
X146196Y326098D01*
X145438Y325550D01*
X144667Y325021D01*
X143883Y324511D01*
X143087Y324021D01*
X142279Y323550D01*
X141460Y323099D01*
X140630Y322668D01*
X139790Y322258D01*
X138940Y321869D01*
X138080Y321500D01*
X137212Y321153D01*
X136336Y320827D01*
X135451Y320523D01*
X134560Y320241D01*
X133662Y319980D01*
X132758Y319742D01*
X131848Y319526D01*
X130933Y319332D01*
X130014Y319161D01*
X129090Y319012D01*
X128164Y318887D01*
X127234Y318783D01*
X126303Y318703D01*
X125369Y318646D01*
X124435Y318611D01*
X123500Y318600D01*
X122565Y318611D01*
X121631Y318646D01*
X120697Y318703D01*
X119766Y318783D01*
X118836Y318887D01*
X117910Y319012D01*
X116986Y319161D01*
X116067Y319332D01*
X115152Y319526D01*
X114242Y319742D01*
X113338Y319980D01*
X112440Y320241D01*
X111549Y320523D01*
X110664Y320827D01*
X109788Y321153D01*
X108920Y321500D01*
X108060Y321869D01*
X107210Y322258D01*
X106370Y322668D01*
X105540Y323099D01*
X104721Y323550D01*
X103913Y324021D01*
X103117Y324511D01*
X102333Y325021D01*
X101562Y325550D01*
X100804Y326098D01*
X100060Y326664D01*
X99330Y327248D01*
X98614Y327850D01*
X97914Y328470D01*
X97229Y329106D01*
X96559Y329759D01*
X95906Y330429D01*
X95270Y331114D01*
X94650Y331814D01*
X94048Y332530D01*
X93464Y333260D01*
X92898Y334004D01*
X92350Y334762D01*
X91821Y335533D01*
X91311Y336317D01*
X90821Y337113D01*
X90350Y337921D01*
X89899Y338740D01*
X89468Y339570D01*
X89058Y340410D01*
X88669Y341260D01*
X88300Y342120D01*
X87953Y342988D01*
X87627Y343864D01*
X87323Y344749D01*
X87041Y345640D01*
X86780Y346538D01*
X86542Y347442D01*
X86326Y348352D01*
X86132Y349267D01*
X85961Y350186D01*
X85812Y351110D01*
X85687Y352036D01*
X85583Y352966D01*
X85503Y353897D01*
X85446Y354831D01*
X85411Y355765D01*
X85400Y356700D01*
X326125Y407100D02*
X332475Y402337D01*
X332475Y407100D01*
X332475Y411863D01*
X326125Y407100D01*
X326125Y402337D01*
X326125Y407100D02*
X326125Y411863D01*
X332475Y407100D02*
X340413Y407100D01*
X326125Y407100D02*
X318187Y407100D01*
D11*
X350078Y395111D02*
X350078Y389518D01*
X352874Y389518D01*
X353806Y390450D01*
X353806Y394179D01*
X352874Y395111D01*
X350078Y395111D01*
X355691Y395111D02*
X359419Y395111D01*
X355691Y395111D02*
X355691Y392314D01*
X357555Y393246D01*
X358487Y393246D01*
X359419Y392314D01*
X359419Y390450D01*
X358487Y389518D01*
X356623Y389518D01*
X355691Y390450D01*
D15*
X361400Y396400D02*
X297200Y396400D01*
X297200Y417800D01*
X361400Y417800D01*
X361400Y396400D01*
D12*
X305300Y313560D02*
X305300Y312290D01*
D13*
X305300Y313560D02*
X312920Y313560D01*
X305300Y313560D02*
X297680Y313560D01*
X305300Y318640D02*
X312920Y318640D01*
X305300Y318640D02*
X297680Y318640D01*
D12*
X305300Y318640D02*
X305300Y319910D01*
D11*
X318406Y317652D02*
X319339Y318584D01*
X318406Y317652D02*
X318406Y315788D01*
X319339Y314856D01*
X323067Y314856D01*
X323999Y315788D01*
X323999Y317652D01*
X323067Y318584D01*
X320271Y320469D02*
X318406Y322333D01*
X323999Y322333D01*
X323999Y320469D02*
X323999Y324197D01*
X319339Y326082D02*
X318406Y327014D01*
X318406Y328878D01*
X319339Y329810D01*
X320271Y329810D01*
X321203Y328878D01*
X321203Y327946D01*
X321203Y328878D02*
X322135Y329810D01*
X323067Y329810D01*
X323999Y328878D01*
X323999Y327014D01*
X323067Y326082D01*
D14*
X314409Y337925D02*
X314409Y338020D01*
D15*
X316100Y332800D02*
X316093Y333059D01*
X316080Y333318D01*
X316061Y333577D01*
X316035Y333835D01*
X316003Y334092D01*
X315965Y334349D01*
X315920Y334605D01*
X315869Y334859D01*
X315813Y335112D01*
X315750Y335364D01*
X315680Y335614D01*
X315605Y335862D01*
X315524Y336108D01*
X315437Y336353D01*
X315344Y336595D01*
X315245Y336834D01*
X315140Y337072D01*
X315029Y337306D01*
X314913Y337538D01*
X314791Y337767D01*
X314664Y337993D01*
X314531Y338216D01*
X314393Y338435D01*
X314249Y338651D01*
X314101Y338864D01*
X313947Y339073D01*
X313788Y339278D01*
X313624Y339479D01*
X313455Y339676D01*
X313282Y339869D01*
X313104Y340057D01*
X312921Y340241D01*
X312734Y340421D01*
X312542Y340596D01*
X312347Y340766D01*
X312147Y340932D01*
X311944Y341093D01*
X311736Y341248D01*
X311525Y341399D01*
X311310Y341544D01*
X311092Y341684D01*
X310870Y341819D01*
X310645Y341948D01*
X310417Y342072D01*
X310186Y342190D01*
X309952Y342303D01*
X309716Y342409D01*
X309477Y342510D01*
X309236Y342605D01*
X308992Y342695D01*
X308747Y342778D01*
X308499Y342855D01*
X308250Y342926D01*
X307999Y342992D01*
X307746Y343051D01*
X307492Y343103D01*
X307237Y343150D01*
X306981Y343190D01*
X306724Y343225D01*
X306466Y343252D01*
X306207Y343274D01*
X305948Y343289D01*
X305689Y343298D01*
X305430Y343301D01*
X305170Y343297D01*
X304911Y343287D01*
X304652Y343271D01*
X304394Y343249D01*
X304136Y343220D01*
X303879Y343185D01*
X303623Y343143D01*
X303368Y343096D01*
X303114Y343042D01*
X302862Y342982D01*
X302611Y342916D01*
X302362Y342844D01*
X302115Y342765D01*
X301869Y342681D01*
X301626Y342591D01*
X301385Y342495D01*
X301147Y342393D01*
X300911Y342285D01*
X300677Y342172D01*
X300447Y342053D01*
X300220Y341928D01*
X299995Y341798D01*
X299774Y341663D01*
X299556Y341522D01*
X299342Y341376D01*
X299131Y341224D01*
X298924Y341068D01*
X298721Y340906D01*
X298522Y340740D01*
X298327Y340569D01*
X298137Y340393D01*
X297950Y340213D01*
X297768Y340028D01*
X297591Y339839D01*
X297418Y339645D01*
X297250Y339448D01*
X297087Y339246D01*
X296929Y339040D01*
X296776Y338831D01*
X296628Y338618D01*
X296485Y338401D01*
X296348Y338181D01*
X296216Y337958D01*
X296089Y337731D01*
X295968Y337502D01*
X295853Y337270D01*
X295743Y337035D01*
X295639Y336797D01*
X295541Y336557D01*
X295449Y336314D01*
X295363Y336070D01*
X295283Y335823D01*
X295208Y335575D01*
X295140Y335324D01*
X295078Y335072D01*
X295022Y334819D01*
X294973Y334565D01*
X294929Y334309D01*
X294892Y334052D01*
X294861Y333795D01*
X294836Y333537D01*
X294818Y333278D01*
X294805Y333019D01*
X294800Y332759D01*
X294800Y332500D01*
X294800Y299000D02*
X294807Y298739D01*
X294820Y298478D01*
X294840Y298217D01*
X294866Y297957D01*
X294899Y297697D01*
X294937Y297439D01*
X294982Y297181D01*
X295034Y296925D01*
X295092Y296670D01*
X295156Y296417D01*
X295226Y296165D01*
X295302Y295915D01*
X295385Y295667D01*
X295473Y295421D01*
X295568Y295177D01*
X295668Y294936D01*
X295775Y294697D01*
X295887Y294461D01*
X296005Y294228D01*
X296128Y293997D01*
X296258Y293770D01*
X296392Y293546D01*
X296533Y293326D01*
X296678Y293108D01*
X296829Y292895D01*
X296985Y292685D01*
X297146Y292480D01*
X297313Y292278D01*
X297484Y292080D01*
X297660Y291887D01*
X297840Y291698D01*
X298025Y291513D01*
X298215Y291333D01*
X298409Y291158D01*
X298607Y290988D01*
X298810Y290822D01*
X299016Y290662D01*
X299226Y290507D01*
X299440Y290356D01*
X299658Y290212D01*
X299879Y290072D01*
X300103Y289938D01*
X300331Y289810D01*
X300562Y289687D01*
X300796Y289570D01*
X301032Y289458D01*
X301271Y289353D01*
X301513Y289253D01*
X301757Y289160D01*
X302003Y289072D01*
X302252Y288991D01*
X302502Y288915D01*
X302754Y288846D01*
X303008Y288783D01*
X303263Y288726D01*
X303519Y288675D01*
X303777Y288631D01*
X304036Y288593D01*
X304295Y288562D01*
X304555Y288537D01*
X304816Y288518D01*
X305077Y288506D01*
X305339Y288500D01*
X305600Y288500D01*
X305861Y288507D01*
X306122Y288520D01*
X306383Y288540D01*
X306643Y288566D01*
X306903Y288599D01*
X307161Y288637D01*
X307419Y288682D01*
X307675Y288734D01*
X307930Y288792D01*
X308183Y288856D01*
X308435Y288926D01*
X308685Y289002D01*
X308933Y289085D01*
X309179Y289173D01*
X309423Y289268D01*
X309664Y289368D01*
X309903Y289475D01*
X310139Y289587D01*
X310372Y289705D01*
X310603Y289828D01*
X310830Y289958D01*
X311054Y290092D01*
X311274Y290233D01*
X311492Y290378D01*
X311705Y290529D01*
X311915Y290685D01*
X312120Y290846D01*
X312322Y291013D01*
X312520Y291184D01*
X312713Y291360D01*
X312902Y291540D01*
X313087Y291725D01*
X313267Y291915D01*
X313442Y292109D01*
X313612Y292307D01*
X313778Y292510D01*
X313938Y292716D01*
X314093Y292926D01*
X314244Y293140D01*
X314388Y293358D01*
X314528Y293579D01*
X314662Y293803D01*
X314790Y294031D01*
X314913Y294262D01*
X315030Y294496D01*
X315142Y294732D01*
X315247Y294971D01*
X315347Y295213D01*
X315440Y295457D01*
X315528Y295703D01*
X315609Y295952D01*
X315685Y296202D01*
X315754Y296454D01*
X315817Y296708D01*
X315874Y296963D01*
X315925Y297219D01*
X315969Y297477D01*
X316007Y297736D01*
X316038Y297995D01*
X316063Y298255D01*
X316082Y298516D01*
X316094Y298777D01*
X316100Y299039D01*
X316100Y299300D01*
X316100Y332800D01*
X294800Y332500D02*
X294800Y299000D01*
X279900Y316100D02*
X279908Y316723D01*
X279931Y317346D01*
X279969Y317969D01*
X280022Y318590D01*
X280091Y319209D01*
X280175Y319827D01*
X280274Y320442D01*
X280388Y321055D01*
X280517Y321665D01*
X280661Y322272D01*
X280820Y322875D01*
X280994Y323473D01*
X281182Y324068D01*
X281385Y324657D01*
X281602Y325241D01*
X281833Y325820D01*
X282079Y326393D01*
X282339Y326960D01*
X282612Y327520D01*
X282899Y328073D01*
X283200Y328620D01*
X283514Y329158D01*
X283841Y329689D01*
X284181Y330211D01*
X284533Y330726D01*
X284899Y331231D01*
X285276Y331727D01*
X285666Y332214D01*
X286067Y332691D01*
X286480Y333158D01*
X286904Y333614D01*
X287339Y334061D01*
X287786Y334496D01*
X288242Y334920D01*
X288709Y335333D01*
X289186Y335734D01*
X289673Y336124D01*
X290169Y336501D01*
X290674Y336867D01*
X291189Y337219D01*
X291711Y337559D01*
X292242Y337886D01*
X292780Y338200D01*
X293327Y338501D01*
X293880Y338788D01*
X294440Y339061D01*
X295007Y339321D01*
X295580Y339567D01*
X296159Y339798D01*
X296743Y340015D01*
X297332Y340218D01*
X297927Y340406D01*
X298525Y340580D01*
X299128Y340739D01*
X299735Y340883D01*
X300345Y341012D01*
X300958Y341126D01*
X301573Y341225D01*
X302191Y341309D01*
X302810Y341378D01*
X303431Y341431D01*
X304054Y341469D01*
X304677Y341492D01*
X305300Y341500D01*
X305923Y341492D01*
X306546Y341469D01*
X307169Y341431D01*
X307790Y341378D01*
X308409Y341309D01*
X309027Y341225D01*
X309642Y341126D01*
X310255Y341012D01*
X310865Y340883D01*
X311472Y340739D01*
X312075Y340580D01*
X312673Y340406D01*
X313268Y340218D01*
X313857Y340015D01*
X314441Y339798D01*
X315020Y339567D01*
X315593Y339321D01*
X316160Y339061D01*
X316720Y338788D01*
X317273Y338501D01*
X317820Y338200D01*
X318358Y337886D01*
X318889Y337559D01*
X319411Y337219D01*
X319926Y336867D01*
X320431Y336501D01*
X320927Y336124D01*
X321414Y335734D01*
X321891Y335333D01*
X322358Y334920D01*
X322814Y334496D01*
X323261Y334061D01*
X323696Y333614D01*
X324120Y333158D01*
X324533Y332691D01*
X324934Y332214D01*
X325324Y331727D01*
X325701Y331231D01*
X326067Y330726D01*
X326419Y330211D01*
X326759Y329689D01*
X327086Y329158D01*
X327400Y328620D01*
X327701Y328073D01*
X327988Y327520D01*
X328261Y326960D01*
X328521Y326393D01*
X328767Y325820D01*
X328998Y325241D01*
X329215Y324657D01*
X329418Y324068D01*
X329606Y323473D01*
X329780Y322875D01*
X329939Y322272D01*
X330083Y321665D01*
X330212Y321055D01*
X330326Y320442D01*
X330425Y319827D01*
X330509Y319209D01*
X330578Y318590D01*
X330631Y317969D01*
X330669Y317346D01*
X330692Y316723D01*
X330700Y316100D01*
X330692Y315477D01*
X330669Y314854D01*
X330631Y314231D01*
X330578Y313610D01*
X330509Y312991D01*
X330425Y312373D01*
X330326Y311758D01*
X330212Y311145D01*
X330083Y310535D01*
X329939Y309928D01*
X329780Y309325D01*
X329606Y308727D01*
X329418Y308132D01*
X329215Y307543D01*
X328998Y306959D01*
X328767Y306380D01*
X328521Y305807D01*
X328261Y305240D01*
X327988Y304680D01*
X327701Y304127D01*
X327400Y303580D01*
X327086Y303042D01*
X326759Y302511D01*
X326419Y301989D01*
X326067Y301474D01*
X325701Y300969D01*
X325324Y300473D01*
X324934Y299986D01*
X324533Y299509D01*
X324120Y299042D01*
X323696Y298586D01*
X323261Y298139D01*
X322814Y297704D01*
X322358Y297280D01*
X321891Y296867D01*
X321414Y296466D01*
X320927Y296076D01*
X320431Y295699D01*
X319926Y295333D01*
X319411Y294981D01*
X318889Y294641D01*
X318358Y294314D01*
X317820Y294000D01*
X317273Y293699D01*
X316720Y293412D01*
X316160Y293139D01*
X315593Y292879D01*
X315020Y292633D01*
X314441Y292402D01*
X313857Y292185D01*
X313268Y291982D01*
X312673Y291794D01*
X312075Y291620D01*
X311472Y291461D01*
X310865Y291317D01*
X310255Y291188D01*
X309642Y291074D01*
X309027Y290975D01*
X308409Y290891D01*
X307790Y290822D01*
X307169Y290769D01*
X306546Y290731D01*
X305923Y290708D01*
X305300Y290700D01*
X304677Y290708D01*
X304054Y290731D01*
X303431Y290769D01*
X302810Y290822D01*
X302191Y290891D01*
X301573Y290975D01*
X300958Y291074D01*
X300345Y291188D01*
X299735Y291317D01*
X299128Y291461D01*
X298525Y291620D01*
X297927Y291794D01*
X297332Y291982D01*
X296743Y292185D01*
X296159Y292402D01*
X295580Y292633D01*
X295007Y292879D01*
X294440Y293139D01*
X293880Y293412D01*
X293327Y293699D01*
X292780Y294000D01*
X292242Y294314D01*
X291711Y294641D01*
X291189Y294981D01*
X290674Y295333D01*
X290169Y295699D01*
X289673Y296076D01*
X289186Y296466D01*
X288709Y296867D01*
X288242Y297280D01*
X287786Y297704D01*
X287339Y298139D01*
X286904Y298586D01*
X286480Y299042D01*
X286067Y299509D01*
X285666Y299986D01*
X285276Y300473D01*
X284899Y300969D01*
X284533Y301474D01*
X284181Y301989D01*
X283841Y302511D01*
X283514Y303042D01*
X283200Y303580D01*
X282899Y304127D01*
X282612Y304680D01*
X282339Y305240D01*
X282079Y305807D01*
X281833Y306380D01*
X281602Y306959D01*
X281385Y307543D01*
X281182Y308132D01*
X280994Y308727D01*
X280820Y309325D01*
X280661Y309928D01*
X280517Y310535D01*
X280388Y311145D01*
X280274Y311758D01*
X280175Y312373D01*
X280091Y312991D01*
X280022Y313610D01*
X279969Y314231D01*
X279931Y314854D01*
X279908Y315477D01*
X279900Y316100D01*
M02*
