G04 EAGLE Gerber X2 export*
%TF.Part,Single*%
%TF.FileFunction,Other,Component side*%
%TF.FilePolarity,Positive*%
%TF.GenerationSoftware,Autodesk,EAGLE,9.0.0*%
%TF.CreationDate,2018-05-29T16:10:46Z*%
G75*
%MOMM*%
%FSLAX34Y34*%
%LPD*%
%AMOC8*
5,1,8,0,0,1.08239X$1,22.5*%
G01*
%ADD10C,0.000000*%
%ADD11R,1.000000X1.100000*%
%ADD12P,1.374635X8X202.500000*%
%ADD13P,1.374635X8X22.500000*%
%ADD14R,1.800000X1.700000*%
%ADD15R,0.600000X2.200000*%
%ADD16R,1.200000X0.560000*%
%ADD17R,1.100000X1.000000*%
%ADD18R,3.000000X3.000000*%
%ADD19P,1.429621X8X112.500000*%
%ADD20P,3.788365X8X202.500000*%
%ADD21P,2.705975X8X202.500000*%
%ADD22R,1.600200X1.600200*%
%ADD23R,2.000000X2.000000*%
%ADD24C,1.524000*%
%ADD25P,1.814519X8X292.500000*%
%ADD26P,1.374635X8X112.500000*%
%ADD27P,1.374635X8X292.500000*%
%ADD28C,0.609600*%
%ADD29C,1.006400*%
%ADD30P,1.089317X8X22.500000*%
%ADD31C,0.406400*%
%ADD32C,1.016000*%
%ADD33C,1.930400*%

G36*
X652995Y11132D02*
X652995Y11132D01*
X653023Y11130D01*
X653219Y11151D01*
X653415Y11169D01*
X653442Y11176D01*
X653471Y11179D01*
X653660Y11235D01*
X653849Y11287D01*
X653875Y11299D01*
X653903Y11307D01*
X654079Y11395D01*
X654256Y11480D01*
X654279Y11496D01*
X654305Y11509D01*
X654463Y11627D01*
X654623Y11741D01*
X654642Y11762D01*
X654665Y11779D01*
X654799Y11923D01*
X654937Y12064D01*
X654953Y12088D01*
X654972Y12108D01*
X655079Y12273D01*
X655189Y12437D01*
X655201Y12463D01*
X655216Y12487D01*
X655292Y12668D01*
X655372Y12848D01*
X655379Y12876D01*
X655390Y12902D01*
X655432Y13095D01*
X655479Y13286D01*
X655481Y13314D01*
X655487Y13342D01*
X655508Y13654D01*
X655656Y39576D01*
X655653Y39617D01*
X655655Y39659D01*
X655634Y39842D01*
X655619Y40024D01*
X655608Y40065D01*
X655603Y40106D01*
X655550Y40283D01*
X655503Y40459D01*
X655485Y40497D01*
X655473Y40537D01*
X655389Y40701D01*
X655312Y40867D01*
X655288Y40901D01*
X655269Y40939D01*
X655158Y41085D01*
X655052Y41235D01*
X655022Y41264D01*
X654997Y41297D01*
X654862Y41422D01*
X654731Y41550D01*
X654696Y41574D01*
X654665Y41603D01*
X654511Y41701D01*
X654359Y41805D01*
X654321Y41822D01*
X654286Y41844D01*
X654116Y41914D01*
X653949Y41989D01*
X653908Y41999D01*
X653869Y42015D01*
X653689Y42054D01*
X653512Y42098D01*
X653470Y42101D01*
X653429Y42110D01*
X653117Y42129D01*
X621859Y42129D01*
X619618Y43057D01*
X617903Y44773D01*
X616975Y47013D01*
X616975Y66941D01*
X616959Y67118D01*
X616950Y67295D01*
X616939Y67342D01*
X616935Y67390D01*
X616888Y67561D01*
X616848Y67734D01*
X616829Y67778D01*
X616817Y67824D01*
X616741Y67984D01*
X616670Y68148D01*
X616644Y68188D01*
X616623Y68231D01*
X616520Y68375D01*
X616422Y68523D01*
X616389Y68558D01*
X616361Y68597D01*
X616234Y68721D01*
X616111Y68849D01*
X616073Y68877D01*
X616038Y68911D01*
X615891Y69010D01*
X615748Y69115D01*
X615705Y69136D01*
X615665Y69163D01*
X615503Y69235D01*
X615343Y69313D01*
X615297Y69326D01*
X615254Y69345D01*
X615081Y69387D01*
X614910Y69436D01*
X614863Y69440D01*
X614816Y69452D01*
X614639Y69463D01*
X614462Y69480D01*
X614414Y69477D01*
X614367Y69479D01*
X614190Y69459D01*
X614013Y69445D01*
X613967Y69433D01*
X613920Y69427D01*
X613749Y69376D01*
X613578Y69331D01*
X613534Y69311D01*
X613489Y69297D01*
X613330Y69216D01*
X613169Y69142D01*
X613130Y69114D01*
X613087Y69093D01*
X612946Y68986D01*
X612800Y68884D01*
X612766Y68850D01*
X612728Y68821D01*
X612608Y68690D01*
X612483Y68564D01*
X612456Y68525D01*
X612423Y68490D01*
X612328Y68339D01*
X612227Y68194D01*
X612201Y68140D01*
X612181Y68110D01*
X612157Y68051D01*
X612090Y67913D01*
X611824Y67271D01*
X610109Y65555D01*
X607868Y64627D01*
X575443Y64627D01*
X573202Y65555D01*
X571487Y67271D01*
X570559Y69511D01*
X570559Y99516D01*
X570555Y99551D01*
X570558Y99585D01*
X570536Y99774D01*
X570519Y99965D01*
X570509Y99998D01*
X570505Y100032D01*
X570450Y100215D01*
X570400Y100399D01*
X570385Y100430D01*
X570375Y100463D01*
X570288Y100634D01*
X570207Y100806D01*
X570187Y100834D01*
X570171Y100865D01*
X570056Y101017D01*
X569945Y101172D01*
X569920Y101196D01*
X569899Y101223D01*
X569759Y101352D01*
X569622Y101486D01*
X569593Y101505D01*
X569568Y101529D01*
X569407Y101631D01*
X569249Y101738D01*
X569217Y101752D01*
X569188Y101770D01*
X569011Y101843D01*
X568837Y101920D01*
X568803Y101928D01*
X568771Y101941D01*
X568585Y101981D01*
X568400Y102027D01*
X568365Y102029D01*
X568331Y102036D01*
X568019Y102055D01*
X535257Y102055D01*
X535127Y102044D01*
X534997Y102042D01*
X534904Y102024D01*
X534808Y102015D01*
X534683Y101981D01*
X534555Y101956D01*
X534466Y101922D01*
X534374Y101897D01*
X534257Y101841D01*
X534135Y101794D01*
X534053Y101744D01*
X533967Y101703D01*
X533862Y101628D01*
X533750Y101560D01*
X533679Y101497D01*
X533601Y101441D01*
X533511Y101348D01*
X533413Y101262D01*
X533354Y101187D01*
X533287Y101119D01*
X533214Y101011D01*
X533134Y100909D01*
X533089Y100825D01*
X533035Y100746D01*
X532982Y100627D01*
X532921Y100512D01*
X532892Y100421D01*
X532853Y100334D01*
X532822Y100207D01*
X532782Y100084D01*
X532769Y99989D01*
X532746Y99896D01*
X532738Y99767D01*
X532720Y99638D01*
X532724Y99542D01*
X532719Y99447D01*
X532734Y99318D01*
X532739Y99188D01*
X532760Y99095D01*
X532771Y99000D01*
X532808Y98875D01*
X532836Y98748D01*
X532873Y98660D01*
X532901Y98569D01*
X532960Y98453D01*
X533010Y98333D01*
X533062Y98253D01*
X533105Y98167D01*
X533184Y98064D01*
X533254Y97955D01*
X533340Y97857D01*
X533377Y97809D01*
X533410Y97778D01*
X533461Y97720D01*
X537087Y94095D01*
X537087Y83783D01*
X529796Y76492D01*
X519485Y76492D01*
X512194Y83783D01*
X512194Y94095D01*
X515820Y97720D01*
X515903Y97820D01*
X515994Y97913D01*
X516048Y97993D01*
X516109Y98066D01*
X516173Y98179D01*
X516246Y98286D01*
X516285Y98374D01*
X516332Y98457D01*
X516376Y98579D01*
X516428Y98698D01*
X516451Y98791D01*
X516483Y98881D01*
X516504Y99009D01*
X516535Y99136D01*
X516541Y99231D01*
X516556Y99325D01*
X516555Y99455D01*
X516563Y99585D01*
X516552Y99680D01*
X516550Y99776D01*
X516526Y99903D01*
X516511Y100032D01*
X516483Y100124D01*
X516465Y100218D01*
X516418Y100339D01*
X516380Y100463D01*
X516337Y100548D01*
X516302Y100638D01*
X516235Y100749D01*
X516176Y100865D01*
X516118Y100941D01*
X516069Y101022D01*
X515982Y101120D01*
X515904Y101223D01*
X515834Y101288D01*
X515770Y101360D01*
X515668Y101440D01*
X515573Y101529D01*
X515492Y101580D01*
X515417Y101639D01*
X515303Y101700D01*
X515193Y101770D01*
X515105Y101807D01*
X515020Y101852D01*
X514897Y101892D01*
X514776Y101941D01*
X514683Y101961D01*
X514592Y101991D01*
X514463Y102009D01*
X514336Y102036D01*
X514207Y102044D01*
X514146Y102052D01*
X514101Y102051D01*
X514024Y102055D01*
X499558Y102055D01*
X496197Y103447D01*
X493267Y106377D01*
X485004Y114640D01*
X484877Y114746D01*
X484757Y114857D01*
X484705Y114890D01*
X484658Y114929D01*
X484516Y115011D01*
X484377Y115099D01*
X484320Y115123D01*
X484267Y115153D01*
X484112Y115208D01*
X483960Y115270D01*
X483901Y115283D01*
X483843Y115304D01*
X483681Y115330D01*
X483520Y115365D01*
X483443Y115370D01*
X483399Y115377D01*
X483338Y115376D01*
X483208Y115384D01*
X479383Y115384D01*
X478068Y115929D01*
X477911Y115978D01*
X477756Y116035D01*
X477696Y116046D01*
X477638Y116064D01*
X477475Y116085D01*
X477313Y116113D01*
X477252Y116113D01*
X477191Y116121D01*
X477027Y116112D01*
X476863Y116112D01*
X476802Y116101D01*
X476742Y116098D01*
X476582Y116060D01*
X476420Y116031D01*
X476346Y116006D01*
X476303Y115995D01*
X476247Y115972D01*
X476124Y115929D01*
X474808Y115384D01*
X462383Y115384D01*
X460142Y116312D01*
X458606Y117848D01*
X458480Y117954D01*
X458359Y118065D01*
X458308Y118098D01*
X458261Y118137D01*
X458118Y118219D01*
X457979Y118307D01*
X457923Y118331D01*
X457870Y118361D01*
X457715Y118416D01*
X457563Y118478D01*
X457503Y118491D01*
X457446Y118512D01*
X457283Y118538D01*
X457123Y118573D01*
X457046Y118578D01*
X457001Y118585D01*
X456940Y118584D01*
X456811Y118592D01*
X441632Y118592D01*
X441500Y118647D01*
X441389Y118682D01*
X441281Y118726D01*
X441174Y118749D01*
X441071Y118782D01*
X440955Y118796D01*
X440840Y118821D01*
X440687Y118830D01*
X440624Y118838D01*
X440588Y118837D01*
X440528Y118840D01*
X436239Y118840D01*
X433998Y119768D01*
X432283Y121483D01*
X431355Y123724D01*
X431355Y131750D01*
X432283Y133990D01*
X433998Y135705D01*
X436239Y136634D01*
X440528Y136634D01*
X440645Y136644D01*
X440762Y136644D01*
X440868Y136664D01*
X440977Y136674D01*
X441090Y136704D01*
X441205Y136725D01*
X441351Y136776D01*
X441411Y136792D01*
X441444Y136808D01*
X441500Y136827D01*
X441632Y136882D01*
X458323Y136882D01*
X458486Y136896D01*
X458651Y136903D01*
X458710Y136916D01*
X458771Y136922D01*
X458930Y136965D01*
X459090Y137001D01*
X459147Y137024D01*
X459206Y137040D01*
X459354Y137111D01*
X459506Y137174D01*
X459557Y137207D01*
X459612Y137233D01*
X459746Y137329D01*
X459884Y137418D01*
X459942Y137470D01*
X459978Y137496D01*
X460021Y137539D01*
X460118Y137625D01*
X460142Y137649D01*
X460148Y137652D01*
X460263Y137712D01*
X460382Y137763D01*
X460462Y137816D01*
X460547Y137860D01*
X460650Y137940D01*
X460758Y138012D01*
X460827Y138077D01*
X460903Y138136D01*
X460990Y138233D01*
X461084Y138322D01*
X461141Y138399D01*
X461204Y138470D01*
X461273Y138580D01*
X461350Y138686D01*
X461392Y138772D01*
X461442Y138852D01*
X461490Y138973D01*
X461548Y139090D01*
X461574Y139182D01*
X461609Y139271D01*
X461635Y139398D01*
X461671Y139523D01*
X461680Y139619D01*
X461699Y139712D01*
X461702Y139842D01*
X461715Y139971D01*
X461708Y140067D01*
X461710Y140162D01*
X461690Y140290D01*
X461680Y140420D01*
X461656Y140513D01*
X461641Y140607D01*
X461599Y140730D01*
X461566Y140856D01*
X461526Y140943D01*
X461495Y141033D01*
X461431Y141146D01*
X461377Y141265D01*
X461322Y141343D01*
X461275Y141426D01*
X461193Y141527D01*
X461118Y141633D01*
X461051Y141701D01*
X460990Y141774D01*
X460891Y141859D01*
X460799Y141951D01*
X460720Y142005D01*
X460648Y142067D01*
X460535Y142133D01*
X460428Y142207D01*
X460312Y142264D01*
X460259Y142294D01*
X460217Y142310D01*
X460148Y142344D01*
X460100Y142363D01*
X459215Y143248D01*
X459089Y143354D01*
X458968Y143465D01*
X458917Y143498D01*
X458870Y143537D01*
X458727Y143619D01*
X458588Y143707D01*
X458532Y143731D01*
X458479Y143761D01*
X458324Y143816D01*
X458172Y143878D01*
X458112Y143891D01*
X458055Y143912D01*
X457892Y143938D01*
X457732Y143973D01*
X457655Y143978D01*
X457610Y143985D01*
X457549Y143984D01*
X457420Y143992D01*
X441632Y143992D01*
X441500Y144047D01*
X441389Y144082D01*
X441281Y144126D01*
X441174Y144149D01*
X441071Y144182D01*
X440955Y144196D01*
X440840Y144221D01*
X440687Y144230D01*
X440624Y144238D01*
X440588Y144237D01*
X440528Y144240D01*
X436239Y144240D01*
X433998Y145168D01*
X432283Y146883D01*
X431355Y149124D01*
X431355Y157150D01*
X432283Y159390D01*
X433998Y161105D01*
X436239Y162034D01*
X440528Y162034D01*
X440645Y162044D01*
X440762Y162044D01*
X440868Y162064D01*
X440977Y162074D01*
X441090Y162104D01*
X441205Y162125D01*
X441351Y162176D01*
X441411Y162192D01*
X441444Y162208D01*
X441500Y162227D01*
X441632Y162282D01*
X457630Y162282D01*
X457794Y162296D01*
X457958Y162303D01*
X458018Y162316D01*
X458078Y162322D01*
X458237Y162365D01*
X458398Y162400D01*
X458454Y162424D01*
X458513Y162440D01*
X458661Y162511D01*
X458813Y162574D01*
X458864Y162607D01*
X458919Y162633D01*
X459053Y162729D01*
X459191Y162818D01*
X459249Y162870D01*
X459286Y162896D01*
X459328Y162939D01*
X459425Y163025D01*
X460231Y163830D01*
X460253Y163857D01*
X460279Y163880D01*
X460397Y164029D01*
X460519Y164176D01*
X460537Y164206D01*
X460558Y164233D01*
X460648Y164401D01*
X460743Y164567D01*
X460754Y164599D01*
X460771Y164630D01*
X460830Y164811D01*
X460894Y164991D01*
X460899Y165025D01*
X460910Y165058D01*
X460936Y165248D01*
X460967Y165435D01*
X460967Y165470D01*
X460971Y165504D01*
X460964Y165695D01*
X460961Y165885D01*
X460954Y165919D01*
X460953Y165954D01*
X460912Y166140D01*
X460875Y166328D01*
X460863Y166360D01*
X460855Y166394D01*
X460782Y166570D01*
X460713Y166748D01*
X460695Y166777D01*
X460682Y166809D01*
X460578Y166969D01*
X460479Y167132D01*
X460456Y167158D01*
X460437Y167187D01*
X460231Y167422D01*
X459004Y168648D01*
X458877Y168754D01*
X458756Y168865D01*
X458705Y168898D01*
X458658Y168937D01*
X458516Y169019D01*
X458377Y169107D01*
X458320Y169131D01*
X458267Y169161D01*
X458112Y169216D01*
X457960Y169278D01*
X457901Y169291D01*
X457843Y169312D01*
X457681Y169338D01*
X457520Y169373D01*
X457443Y169378D01*
X457399Y169385D01*
X457338Y169384D01*
X457208Y169392D01*
X441632Y169392D01*
X441500Y169447D01*
X441389Y169482D01*
X441281Y169526D01*
X441174Y169549D01*
X441071Y169582D01*
X440955Y169596D01*
X440840Y169621D01*
X440687Y169630D01*
X440624Y169638D01*
X440588Y169637D01*
X440528Y169640D01*
X436239Y169640D01*
X433998Y170568D01*
X432283Y172283D01*
X431355Y174524D01*
X431355Y182550D01*
X432283Y184790D01*
X433998Y186505D01*
X436239Y187434D01*
X440528Y187434D01*
X440645Y187444D01*
X440762Y187444D01*
X440868Y187464D01*
X440977Y187474D01*
X441090Y187504D01*
X441205Y187525D01*
X441351Y187576D01*
X441411Y187592D01*
X441444Y187608D01*
X441500Y187627D01*
X441632Y187682D01*
X457474Y187682D01*
X457638Y187696D01*
X457803Y187703D01*
X457862Y187716D01*
X457923Y187722D01*
X458082Y187765D01*
X458242Y187801D01*
X458299Y187824D01*
X458357Y187840D01*
X458506Y187911D01*
X458658Y187974D01*
X458709Y188007D01*
X458764Y188033D01*
X458898Y188129D01*
X459036Y188218D01*
X459094Y188270D01*
X459130Y188296D01*
X459173Y188339D01*
X459270Y188425D01*
X459977Y189132D01*
X460051Y189171D01*
X460154Y189251D01*
X460263Y189323D01*
X460332Y189388D01*
X460407Y189447D01*
X460495Y189543D01*
X460589Y189633D01*
X460645Y189710D01*
X460709Y189781D01*
X460778Y189892D01*
X460855Y189997D01*
X460897Y190082D01*
X460947Y190163D01*
X460995Y190284D01*
X461052Y190401D01*
X461078Y190493D01*
X461114Y190582D01*
X461140Y190709D01*
X461175Y190834D01*
X461185Y190929D01*
X461204Y191023D01*
X461207Y191153D01*
X461220Y191282D01*
X461212Y191378D01*
X461215Y191473D01*
X461195Y191601D01*
X461185Y191731D01*
X461161Y191824D01*
X461146Y191918D01*
X461104Y192041D01*
X461071Y192167D01*
X461031Y192253D01*
X461000Y192344D01*
X460936Y192457D01*
X460882Y192575D01*
X460827Y192654D01*
X460780Y192737D01*
X460698Y192838D01*
X460623Y192944D01*
X460556Y193011D01*
X460495Y193085D01*
X460396Y193170D01*
X460304Y193262D01*
X460225Y193316D01*
X460153Y193378D01*
X460046Y193440D01*
X459438Y194048D01*
X459312Y194154D01*
X459191Y194265D01*
X459140Y194298D01*
X459093Y194337D01*
X458950Y194419D01*
X458811Y194507D01*
X458755Y194531D01*
X458702Y194561D01*
X458547Y194616D01*
X458395Y194678D01*
X458335Y194691D01*
X458277Y194712D01*
X458115Y194738D01*
X457954Y194773D01*
X457877Y194778D01*
X457833Y194785D01*
X457772Y194784D01*
X457643Y194792D01*
X441632Y194792D01*
X441500Y194847D01*
X441389Y194882D01*
X441281Y194926D01*
X441174Y194949D01*
X441071Y194982D01*
X440955Y194996D01*
X440840Y195021D01*
X440687Y195030D01*
X440624Y195038D01*
X440588Y195037D01*
X440528Y195040D01*
X436239Y195040D01*
X433998Y195968D01*
X432283Y197683D01*
X431355Y199924D01*
X431355Y207950D01*
X432283Y210190D01*
X433998Y211905D01*
X436239Y212834D01*
X440528Y212834D01*
X440645Y212844D01*
X440762Y212844D01*
X440868Y212864D01*
X440977Y212874D01*
X441090Y212904D01*
X441205Y212925D01*
X441351Y212976D01*
X441411Y212992D01*
X441444Y213008D01*
X441500Y213027D01*
X441632Y213082D01*
X457123Y213082D01*
X457287Y213096D01*
X457452Y213103D01*
X457511Y213116D01*
X457572Y213122D01*
X457731Y213165D01*
X457891Y213201D01*
X457947Y213224D01*
X458006Y213240D01*
X458154Y213311D01*
X458307Y213374D01*
X458358Y213407D01*
X458413Y213433D01*
X458546Y213529D01*
X458685Y213618D01*
X458743Y213670D01*
X458779Y213696D01*
X458821Y213739D01*
X458919Y213825D01*
X459959Y214865D01*
X462199Y215793D01*
X472144Y215793D01*
X472274Y215805D01*
X472403Y215807D01*
X472497Y215825D01*
X472592Y215833D01*
X472718Y215867D01*
X472845Y215892D01*
X472935Y215927D01*
X473027Y215952D01*
X473144Y216007D01*
X473265Y216054D01*
X473347Y216104D01*
X473433Y216145D01*
X473539Y216221D01*
X473650Y216288D01*
X473722Y216352D01*
X473799Y216407D01*
X473890Y216500D01*
X473988Y216586D01*
X474047Y216661D01*
X474114Y216730D01*
X474186Y216838D01*
X474267Y216940D01*
X474312Y217024D01*
X474366Y217103D01*
X474418Y217222D01*
X474480Y217336D01*
X474509Y217427D01*
X474548Y217515D01*
X474579Y217641D01*
X474619Y217765D01*
X474632Y217859D01*
X474654Y217952D01*
X474662Y218082D01*
X474680Y218211D01*
X474676Y218306D01*
X474682Y218402D01*
X474667Y218531D01*
X474662Y218661D01*
X474641Y218754D01*
X474630Y218849D01*
X474592Y218973D01*
X474564Y219100D01*
X474528Y219188D01*
X474500Y219280D01*
X474441Y219396D01*
X474391Y219516D01*
X474339Y219596D01*
X474295Y219681D01*
X474217Y219785D01*
X474146Y219894D01*
X474060Y219991D01*
X474023Y220040D01*
X473990Y220070D01*
X473939Y220128D01*
X470056Y224012D01*
X469930Y224117D01*
X469809Y224229D01*
X469757Y224261D01*
X469710Y224300D01*
X469568Y224382D01*
X469429Y224470D01*
X469372Y224494D01*
X469320Y224524D01*
X469165Y224579D01*
X469012Y224641D01*
X468953Y224654D01*
X468895Y224675D01*
X468733Y224701D01*
X468572Y224736D01*
X468495Y224741D01*
X468451Y224748D01*
X468390Y224747D01*
X468260Y224755D01*
X349181Y224755D01*
X345820Y226147D01*
X325647Y246320D01*
X324255Y249681D01*
X324255Y312360D01*
X324241Y312524D01*
X324234Y312688D01*
X324221Y312748D01*
X324215Y312809D01*
X324172Y312968D01*
X324136Y313128D01*
X324113Y313184D01*
X324097Y313243D01*
X324026Y313391D01*
X323963Y313543D01*
X323930Y313595D01*
X323903Y313650D01*
X323808Y313783D01*
X323718Y313922D01*
X323667Y313979D01*
X323641Y314016D01*
X323598Y314058D01*
X323512Y314156D01*
X319696Y317971D01*
X319570Y318077D01*
X319449Y318188D01*
X319398Y318221D01*
X319351Y318260D01*
X319208Y318341D01*
X319070Y318430D01*
X319013Y318453D01*
X318960Y318483D01*
X318805Y318538D01*
X318653Y318601D01*
X318593Y318614D01*
X318536Y318634D01*
X318373Y318661D01*
X318213Y318695D01*
X318136Y318700D01*
X318092Y318708D01*
X318031Y318707D01*
X317901Y318715D01*
X314748Y318715D01*
X314585Y318700D01*
X314420Y318693D01*
X314361Y318680D01*
X314300Y318675D01*
X314141Y318631D01*
X313981Y318596D01*
X313924Y318572D01*
X313865Y318556D01*
X313717Y318486D01*
X313565Y318422D01*
X313514Y318389D01*
X313459Y318363D01*
X313325Y318267D01*
X313187Y318178D01*
X313129Y318127D01*
X313093Y318101D01*
X313050Y318057D01*
X312953Y317971D01*
X310395Y315413D01*
X300083Y315413D01*
X292792Y322704D01*
X292792Y323448D01*
X292778Y323612D01*
X292771Y323776D01*
X292758Y323836D01*
X292752Y323897D01*
X292709Y324055D01*
X292673Y324216D01*
X292650Y324272D01*
X292634Y324331D01*
X292602Y324397D01*
X292600Y324404D01*
X292583Y324439D01*
X292563Y324479D01*
X292500Y324631D01*
X292466Y324683D01*
X292440Y324738D01*
X292405Y324787D01*
X292396Y324805D01*
X292338Y324881D01*
X292255Y325009D01*
X292204Y325067D01*
X292178Y325104D01*
X292145Y325136D01*
X292124Y325164D01*
X292096Y325189D01*
X292048Y325244D01*
X275213Y342080D01*
X275086Y342185D01*
X274965Y342297D01*
X274914Y342329D01*
X274867Y342368D01*
X274724Y342450D01*
X274586Y342538D01*
X274529Y342562D01*
X274476Y342592D01*
X274321Y342647D01*
X274169Y342709D01*
X274109Y342722D01*
X274052Y342743D01*
X273890Y342769D01*
X273729Y342804D01*
X273652Y342809D01*
X273608Y342816D01*
X273547Y342815D01*
X273417Y342823D01*
X269970Y342823D01*
X269759Y342804D01*
X269548Y342788D01*
X269535Y342785D01*
X269522Y342783D01*
X269317Y342727D01*
X269112Y342674D01*
X269100Y342668D01*
X269087Y342665D01*
X268898Y342575D01*
X268704Y342485D01*
X268693Y342477D01*
X268681Y342471D01*
X268509Y342349D01*
X268335Y342226D01*
X268325Y342217D01*
X268315Y342209D01*
X268167Y342057D01*
X268017Y341907D01*
X268010Y341896D01*
X268001Y341887D01*
X267882Y341711D01*
X267761Y341537D01*
X267755Y341522D01*
X267749Y341514D01*
X267733Y341477D01*
X267624Y341256D01*
X266528Y338610D01*
X262670Y334751D01*
X257628Y332663D01*
X252172Y332663D01*
X247130Y334751D01*
X243271Y338610D01*
X241183Y343652D01*
X241183Y364348D01*
X243271Y369390D01*
X247130Y373249D01*
X252172Y375337D01*
X257628Y375337D01*
X262670Y373249D01*
X266528Y369390D01*
X267624Y366744D01*
X267723Y366556D01*
X267819Y366367D01*
X267827Y366357D01*
X267833Y366345D01*
X267963Y366177D01*
X268091Y366009D01*
X268100Y366000D01*
X268109Y365989D01*
X268266Y365847D01*
X268422Y365703D01*
X268433Y365696D01*
X268443Y365688D01*
X268622Y365576D01*
X268802Y365462D01*
X268814Y365457D01*
X268825Y365450D01*
X269021Y365372D01*
X269218Y365291D01*
X269231Y365288D01*
X269243Y365283D01*
X269450Y365241D01*
X269658Y365196D01*
X269674Y365195D01*
X269685Y365193D01*
X269724Y365192D01*
X269970Y365177D01*
X281322Y365177D01*
X285429Y363475D01*
X307855Y341050D01*
X307981Y340944D01*
X308102Y340833D01*
X308153Y340800D01*
X308200Y340761D01*
X308343Y340679D01*
X308482Y340591D01*
X308538Y340568D01*
X308591Y340538D01*
X308746Y340483D01*
X308898Y340420D01*
X308958Y340407D01*
X309015Y340387D01*
X309178Y340360D01*
X309338Y340325D01*
X309415Y340321D01*
X309460Y340313D01*
X309521Y340314D01*
X309650Y340306D01*
X310395Y340306D01*
X312953Y337748D01*
X313079Y337642D01*
X313200Y337531D01*
X313251Y337498D01*
X313298Y337459D01*
X313441Y337377D01*
X313580Y337289D01*
X313636Y337266D01*
X313689Y337236D01*
X313844Y337181D01*
X313996Y337118D01*
X314056Y337105D01*
X314113Y337085D01*
X314276Y337058D01*
X314436Y337023D01*
X314513Y337019D01*
X314558Y337011D01*
X314619Y337012D01*
X314748Y337004D01*
X324560Y337004D01*
X327921Y335612D01*
X341153Y322380D01*
X342545Y319019D01*
X342545Y256340D01*
X342559Y256176D01*
X342566Y256012D01*
X342579Y255952D01*
X342585Y255891D01*
X342628Y255733D01*
X342664Y255572D01*
X342687Y255516D01*
X342703Y255457D01*
X342774Y255309D01*
X342837Y255157D01*
X342870Y255105D01*
X342897Y255050D01*
X342992Y254917D01*
X343081Y254778D01*
X343133Y254721D01*
X343159Y254684D01*
X343202Y254641D01*
X343288Y254544D01*
X344418Y253414D01*
X344518Y253331D01*
X344611Y253240D01*
X344691Y253186D01*
X344764Y253125D01*
X344877Y253061D01*
X344984Y252988D01*
X345072Y252949D01*
X345155Y252902D01*
X345277Y252858D01*
X345396Y252806D01*
X345489Y252783D01*
X345579Y252751D01*
X345707Y252730D01*
X345834Y252699D01*
X345929Y252693D01*
X346023Y252678D01*
X346153Y252679D01*
X346283Y252671D01*
X346378Y252682D01*
X346473Y252684D01*
X346601Y252708D01*
X346730Y252723D01*
X346822Y252751D01*
X346916Y252769D01*
X347037Y252816D01*
X347161Y252854D01*
X347247Y252897D01*
X347336Y252931D01*
X347447Y252999D01*
X347563Y253058D01*
X347639Y253116D01*
X347720Y253165D01*
X347818Y253251D01*
X347921Y253330D01*
X347986Y253400D01*
X348058Y253464D01*
X348138Y253566D01*
X348227Y253661D01*
X348278Y253742D01*
X348337Y253817D01*
X348398Y253931D01*
X348468Y254041D01*
X348505Y254129D01*
X348550Y254214D01*
X348590Y254337D01*
X348639Y254458D01*
X348659Y254551D01*
X348689Y254642D01*
X348707Y254770D01*
X348734Y254898D01*
X348742Y255028D01*
X348750Y255088D01*
X348749Y255132D01*
X348753Y255210D01*
X348753Y266913D01*
X349681Y269154D01*
X351396Y270869D01*
X353637Y271797D01*
X361839Y271797D01*
X362002Y271811D01*
X362167Y271818D01*
X362226Y271831D01*
X362287Y271837D01*
X362446Y271880D01*
X362606Y271916D01*
X362663Y271939D01*
X362722Y271955D01*
X362870Y272026D01*
X363022Y272089D01*
X363073Y272122D01*
X363128Y272149D01*
X363262Y272244D01*
X363400Y272334D01*
X363458Y272385D01*
X363494Y272411D01*
X363537Y272454D01*
X363634Y272540D01*
X373368Y282274D01*
X376869Y285775D01*
X380977Y287477D01*
X495823Y287477D01*
X499931Y285775D01*
X506784Y278922D01*
X506920Y278808D01*
X507052Y278689D01*
X507093Y278664D01*
X507130Y278633D01*
X507283Y278545D01*
X507435Y278451D01*
X507479Y278434D01*
X507520Y278410D01*
X507688Y278350D01*
X507853Y278285D01*
X507900Y278275D01*
X507945Y278259D01*
X508120Y278230D01*
X508294Y278194D01*
X508342Y278193D01*
X508389Y278186D01*
X508566Y278188D01*
X508744Y278184D01*
X508791Y278191D01*
X508839Y278192D01*
X509014Y278225D01*
X509189Y278253D01*
X509234Y278268D01*
X509281Y278277D01*
X509447Y278341D01*
X509615Y278399D01*
X509657Y278422D01*
X509701Y278439D01*
X509853Y278532D01*
X510008Y278618D01*
X510045Y278649D01*
X510086Y278673D01*
X510219Y278791D01*
X510356Y278904D01*
X510388Y278940D01*
X510423Y278972D01*
X510534Y279111D01*
X510649Y279246D01*
X510673Y279287D01*
X510703Y279325D01*
X510787Y279482D01*
X510876Y279635D01*
X510893Y279679D01*
X510915Y279722D01*
X510970Y279890D01*
X511032Y280057D01*
X511040Y280104D01*
X511055Y280150D01*
X511079Y280325D01*
X511110Y280501D01*
X511110Y280548D01*
X511116Y280596D01*
X511109Y280774D01*
X511108Y280951D01*
X511100Y280998D01*
X511098Y281046D01*
X511059Y281219D01*
X511027Y281394D01*
X511008Y281450D01*
X511000Y281485D01*
X510976Y281543D01*
X510926Y281689D01*
X508783Y286862D01*
X508783Y288667D01*
X508773Y288783D01*
X508773Y288900D01*
X508753Y289007D01*
X508743Y289115D01*
X508713Y289228D01*
X508692Y289343D01*
X508641Y289489D01*
X508625Y289549D01*
X508609Y289582D01*
X508590Y289638D01*
X506751Y294077D01*
X506751Y300343D01*
X508590Y304782D01*
X508610Y304844D01*
X508618Y304864D01*
X508626Y304897D01*
X508669Y305001D01*
X508692Y305108D01*
X508725Y305211D01*
X508739Y305327D01*
X508764Y305441D01*
X508774Y305595D01*
X508781Y305658D01*
X508780Y305694D01*
X508783Y305753D01*
X508783Y307558D01*
X510871Y312600D01*
X514730Y316459D01*
X519772Y318547D01*
X525228Y318547D01*
X530270Y316458D01*
X533026Y313702D01*
X533152Y313597D01*
X533273Y313485D01*
X533325Y313453D01*
X533371Y313414D01*
X533514Y313332D01*
X533653Y313244D01*
X533709Y313220D01*
X533762Y313190D01*
X533917Y313135D01*
X534069Y313073D01*
X534129Y313060D01*
X534187Y313039D01*
X534349Y313013D01*
X534510Y312978D01*
X534587Y312973D01*
X534631Y312966D01*
X534691Y312967D01*
X534821Y312959D01*
X586602Y312959D01*
X592390Y310561D01*
X639255Y263696D01*
X639381Y263591D01*
X639502Y263479D01*
X639553Y263447D01*
X639600Y263407D01*
X639743Y263326D01*
X639882Y263238D01*
X639938Y263214D01*
X639991Y263184D01*
X640146Y263129D01*
X640298Y263067D01*
X640358Y263054D01*
X640415Y263033D01*
X640578Y263006D01*
X640738Y262972D01*
X640815Y262967D01*
X640859Y262960D01*
X640921Y262961D01*
X641050Y262953D01*
X654408Y262953D01*
X654436Y262955D01*
X654463Y262953D01*
X654659Y262975D01*
X654857Y262993D01*
X654883Y263000D01*
X654910Y263003D01*
X655101Y263059D01*
X655291Y263111D01*
X655316Y263123D01*
X655342Y263131D01*
X655520Y263220D01*
X655698Y263304D01*
X655720Y263320D01*
X655745Y263333D01*
X655903Y263451D01*
X656064Y263567D01*
X656083Y263586D01*
X656105Y263603D01*
X656239Y263747D01*
X656378Y263889D01*
X656393Y263912D01*
X656412Y263932D01*
X656519Y264098D01*
X656630Y264262D01*
X656641Y264287D01*
X656656Y264310D01*
X656732Y264493D01*
X656812Y264674D01*
X656819Y264701D01*
X656829Y264726D01*
X656872Y264919D01*
X656919Y265112D01*
X656921Y265139D01*
X656926Y265166D01*
X656948Y265477D01*
X657664Y390880D01*
X657661Y390922D01*
X657663Y390963D01*
X657642Y391146D01*
X657627Y391329D01*
X657616Y391369D01*
X657611Y391411D01*
X657558Y391587D01*
X657511Y391764D01*
X657493Y391801D01*
X657481Y391842D01*
X657398Y392006D01*
X657320Y392171D01*
X657296Y392206D01*
X657277Y392243D01*
X657166Y392389D01*
X657060Y392539D01*
X657030Y392568D01*
X657005Y392602D01*
X656870Y392726D01*
X656739Y392855D01*
X656704Y392878D01*
X656674Y392907D01*
X656519Y393005D01*
X656367Y393109D01*
X656329Y393126D01*
X656294Y393149D01*
X656124Y393218D01*
X655957Y393294D01*
X655916Y393304D01*
X655877Y393320D01*
X655698Y393358D01*
X655520Y393403D01*
X655478Y393406D01*
X655437Y393414D01*
X655125Y393434D01*
X622642Y393434D01*
X620401Y394362D01*
X618686Y396077D01*
X617758Y398318D01*
X617758Y400084D01*
X617755Y400119D01*
X617757Y400153D01*
X617735Y400342D01*
X617718Y400533D01*
X617709Y400566D01*
X617705Y400600D01*
X617649Y400783D01*
X617599Y400967D01*
X617584Y400998D01*
X617574Y401031D01*
X617488Y401202D01*
X617406Y401374D01*
X617386Y401402D01*
X617370Y401433D01*
X617255Y401585D01*
X617144Y401740D01*
X617119Y401764D01*
X617098Y401791D01*
X616958Y401920D01*
X616821Y402054D01*
X616792Y402073D01*
X616767Y402097D01*
X616606Y402199D01*
X616448Y402306D01*
X616416Y402320D01*
X616387Y402338D01*
X616211Y402411D01*
X616036Y402488D01*
X616003Y402496D01*
X615971Y402509D01*
X615784Y402549D01*
X615599Y402595D01*
X615564Y402597D01*
X615530Y402604D01*
X615218Y402623D01*
X436981Y402623D01*
X436818Y402609D01*
X436653Y402602D01*
X436594Y402589D01*
X436533Y402583D01*
X436374Y402540D01*
X436214Y402504D01*
X436157Y402481D01*
X436098Y402465D01*
X435950Y402394D01*
X435798Y402331D01*
X435747Y402298D01*
X435692Y402271D01*
X435558Y402176D01*
X435420Y402086D01*
X435362Y402035D01*
X435326Y402009D01*
X435283Y401966D01*
X435186Y401880D01*
X430931Y397625D01*
X426823Y395923D01*
X365797Y395923D01*
X365633Y395909D01*
X365469Y395902D01*
X365409Y395889D01*
X365349Y395883D01*
X365190Y395840D01*
X365029Y395804D01*
X364973Y395781D01*
X364914Y395765D01*
X364766Y395694D01*
X364614Y395631D01*
X364563Y395598D01*
X364508Y395571D01*
X364374Y395476D01*
X364236Y395386D01*
X364178Y395335D01*
X364142Y395309D01*
X364099Y395266D01*
X364002Y395180D01*
X362254Y393431D01*
X360013Y392503D01*
X339587Y392503D01*
X337346Y393431D01*
X335631Y395146D01*
X334703Y397387D01*
X334703Y416813D01*
X335631Y419054D01*
X337346Y420769D01*
X339587Y421697D01*
X360013Y421697D01*
X362254Y420769D01*
X364002Y419020D01*
X364128Y418915D01*
X364249Y418803D01*
X364300Y418771D01*
X364347Y418732D01*
X364490Y418650D01*
X364628Y418562D01*
X364685Y418538D01*
X364738Y418508D01*
X364893Y418453D01*
X365045Y418391D01*
X365105Y418378D01*
X365162Y418357D01*
X365324Y418331D01*
X365485Y418296D01*
X365562Y418291D01*
X365606Y418284D01*
X365667Y418285D01*
X365797Y418277D01*
X418919Y418277D01*
X419082Y418291D01*
X419247Y418298D01*
X419306Y418311D01*
X419367Y418317D01*
X419526Y418360D01*
X419686Y418396D01*
X419743Y418419D01*
X419802Y418435D01*
X419950Y418506D01*
X420102Y418569D01*
X420153Y418602D01*
X420208Y418629D01*
X420342Y418724D01*
X420480Y418814D01*
X420538Y418865D01*
X420574Y418891D01*
X420617Y418934D01*
X420714Y419020D01*
X424969Y423275D01*
X429077Y424977D01*
X615218Y424977D01*
X615253Y424980D01*
X615288Y424978D01*
X615477Y425000D01*
X615667Y425017D01*
X615700Y425026D01*
X615735Y425030D01*
X615918Y425085D01*
X616101Y425135D01*
X616132Y425150D01*
X616166Y425160D01*
X616336Y425247D01*
X616508Y425329D01*
X616536Y425349D01*
X616567Y425364D01*
X616719Y425480D01*
X616874Y425591D01*
X616898Y425616D01*
X616926Y425636D01*
X617055Y425776D01*
X617188Y425913D01*
X617207Y425942D01*
X617231Y425968D01*
X617333Y426129D01*
X617440Y426286D01*
X617454Y426318D01*
X617473Y426347D01*
X617545Y426524D01*
X617622Y426698D01*
X617631Y426732D01*
X617644Y426764D01*
X617684Y426951D01*
X617729Y427136D01*
X617731Y427170D01*
X617738Y427204D01*
X617758Y427516D01*
X617758Y430743D01*
X618686Y432984D01*
X620401Y434699D01*
X622642Y435627D01*
X655395Y435627D01*
X655423Y435630D01*
X655450Y435628D01*
X655646Y435649D01*
X655844Y435667D01*
X655870Y435674D01*
X655897Y435677D01*
X656087Y435733D01*
X656278Y435786D01*
X656303Y435797D01*
X656329Y435805D01*
X656507Y435894D01*
X656685Y435979D01*
X656707Y435995D01*
X656732Y436007D01*
X656890Y436126D01*
X657051Y436241D01*
X657070Y436261D01*
X657092Y436277D01*
X657227Y436422D01*
X657365Y436564D01*
X657380Y436586D01*
X657399Y436606D01*
X657506Y436773D01*
X657617Y436937D01*
X657628Y436962D01*
X657643Y436985D01*
X657719Y437168D01*
X657799Y437349D01*
X657806Y437375D01*
X657816Y437400D01*
X657859Y437594D01*
X657906Y437786D01*
X657908Y437813D01*
X657914Y437840D01*
X657935Y438152D01*
X657939Y438970D01*
X657936Y439009D01*
X657938Y439048D01*
X657917Y439234D01*
X657902Y439419D01*
X657892Y439456D01*
X657887Y439495D01*
X657834Y439674D01*
X657786Y439854D01*
X657769Y439889D01*
X657758Y439927D01*
X657674Y440093D01*
X657595Y440262D01*
X657572Y440294D01*
X657555Y440328D01*
X657443Y440477D01*
X657335Y440629D01*
X657307Y440657D01*
X657284Y440688D01*
X657147Y440814D01*
X657014Y440945D01*
X656982Y440967D01*
X656953Y440994D01*
X656796Y441094D01*
X656642Y441199D01*
X656607Y441215D01*
X656574Y441236D01*
X656402Y441308D01*
X656232Y441384D01*
X656194Y441393D01*
X656158Y441408D01*
X655975Y441448D01*
X655795Y441493D01*
X655756Y441496D01*
X655718Y441504D01*
X655406Y441524D01*
X16168Y443010D01*
X16124Y443006D01*
X16081Y443008D01*
X15901Y442986D01*
X15719Y442971D01*
X15677Y442959D01*
X15634Y442954D01*
X15460Y442901D01*
X15285Y442853D01*
X15245Y442834D01*
X15203Y442822D01*
X15042Y442738D01*
X14878Y442661D01*
X14842Y442635D01*
X14803Y442615D01*
X14659Y442505D01*
X14511Y442399D01*
X14480Y442368D01*
X14446Y442342D01*
X14323Y442208D01*
X14196Y442078D01*
X14172Y442041D01*
X14142Y442009D01*
X14045Y441855D01*
X13943Y441705D01*
X13925Y441665D01*
X13902Y441628D01*
X13834Y441460D01*
X13760Y441294D01*
X13750Y441251D01*
X13733Y441211D01*
X13696Y441033D01*
X13652Y440857D01*
X13650Y440813D01*
X13641Y440770D01*
X13623Y440458D01*
X14652Y229114D01*
X14664Y228991D01*
X14666Y228867D01*
X14685Y228768D01*
X14695Y228666D01*
X14728Y228547D01*
X14751Y228425D01*
X14788Y228330D01*
X14815Y228232D01*
X14869Y228121D01*
X14914Y228005D01*
X14966Y227918D01*
X15011Y227827D01*
X15083Y227726D01*
X15148Y227621D01*
X15215Y227544D01*
X15274Y227462D01*
X15364Y227376D01*
X15446Y227283D01*
X15525Y227220D01*
X15599Y227149D01*
X15702Y227081D01*
X15799Y227004D01*
X15888Y226956D01*
X15973Y226899D01*
X16087Y226850D01*
X16196Y226791D01*
X16292Y226760D01*
X16386Y226719D01*
X16506Y226690D01*
X16624Y226652D01*
X16725Y226638D01*
X16824Y226614D01*
X16947Y226607D01*
X17070Y226591D01*
X17172Y226595D01*
X17273Y226589D01*
X17396Y226604D01*
X17520Y226609D01*
X17619Y226631D01*
X17720Y226643D01*
X17838Y226680D01*
X17959Y226706D01*
X18053Y226746D01*
X18150Y226776D01*
X18261Y226832D01*
X18375Y226880D01*
X18460Y226935D01*
X18551Y226982D01*
X18649Y227057D01*
X18753Y227124D01*
X18859Y227218D01*
X18908Y227256D01*
X18936Y227286D01*
X18987Y227331D01*
X24953Y233297D01*
X44501Y233297D01*
X58324Y219474D01*
X58324Y199926D01*
X44501Y186103D01*
X24953Y186103D01*
X19177Y191879D01*
X19073Y191966D01*
X18975Y192061D01*
X18901Y192110D01*
X18832Y192168D01*
X18714Y192235D01*
X18601Y192311D01*
X18519Y192347D01*
X18441Y192391D01*
X18313Y192437D01*
X18188Y192491D01*
X18101Y192512D01*
X18017Y192542D01*
X17883Y192564D01*
X17750Y192596D01*
X17661Y192601D01*
X17573Y192615D01*
X17437Y192613D01*
X17300Y192621D01*
X17212Y192610D01*
X17122Y192609D01*
X16989Y192583D01*
X16854Y192567D01*
X16768Y192541D01*
X16680Y192524D01*
X16553Y192474D01*
X16423Y192434D01*
X16344Y192394D01*
X16260Y192361D01*
X16144Y192290D01*
X16023Y192228D01*
X15952Y192174D01*
X15876Y192127D01*
X15774Y192037D01*
X15665Y191954D01*
X15605Y191888D01*
X15538Y191829D01*
X15454Y191722D01*
X15362Y191622D01*
X15314Y191546D01*
X15259Y191476D01*
X15194Y191356D01*
X15122Y191241D01*
X15088Y191158D01*
X15046Y191079D01*
X15004Y190950D01*
X14953Y190823D01*
X14935Y190736D01*
X14907Y190651D01*
X14888Y190516D01*
X14860Y190383D01*
X14854Y190264D01*
X14846Y190205D01*
X14848Y190156D01*
X14843Y190071D01*
X15206Y115568D01*
X15217Y115444D01*
X15219Y115320D01*
X15238Y115221D01*
X15248Y115119D01*
X15281Y115000D01*
X15304Y114878D01*
X15341Y114784D01*
X15368Y114686D01*
X15422Y114574D01*
X15467Y114458D01*
X15520Y114372D01*
X15564Y114280D01*
X15636Y114179D01*
X15701Y114074D01*
X15768Y113998D01*
X15828Y113915D01*
X15917Y113829D01*
X15999Y113736D01*
X16079Y113673D01*
X16152Y113603D01*
X16255Y113534D01*
X16352Y113457D01*
X16442Y113409D01*
X16526Y113352D01*
X16640Y113303D01*
X16749Y113244D01*
X16846Y113213D01*
X16939Y113172D01*
X17059Y113143D01*
X17177Y113105D01*
X17278Y113091D01*
X17377Y113068D01*
X17500Y113061D01*
X17623Y113044D01*
X17725Y113048D01*
X17826Y113042D01*
X17949Y113057D01*
X18073Y113062D01*
X18172Y113084D01*
X18273Y113096D01*
X18392Y113133D01*
X18513Y113160D01*
X18606Y113199D01*
X18704Y113229D01*
X18814Y113286D01*
X18928Y113333D01*
X19013Y113388D01*
X19104Y113435D01*
X19202Y113510D01*
X19306Y113578D01*
X19412Y113671D01*
X19461Y113709D01*
X19489Y113739D01*
X19540Y113784D01*
X24953Y119197D01*
X44501Y119197D01*
X57537Y106161D01*
X57564Y106138D01*
X57587Y106112D01*
X57735Y105995D01*
X57882Y105872D01*
X57913Y105854D01*
X57940Y105833D01*
X58108Y105743D01*
X58273Y105648D01*
X58306Y105637D01*
X58337Y105620D01*
X58518Y105562D01*
X58698Y105498D01*
X58732Y105492D01*
X58765Y105481D01*
X58953Y105455D01*
X59142Y105424D01*
X59176Y105425D01*
X59211Y105420D01*
X59401Y105428D01*
X59592Y105430D01*
X59626Y105437D01*
X59661Y105438D01*
X59847Y105479D01*
X60034Y105516D01*
X60067Y105528D01*
X60100Y105536D01*
X60276Y105609D01*
X60454Y105678D01*
X60484Y105696D01*
X60516Y105709D01*
X60676Y105813D01*
X60839Y105912D01*
X60865Y105935D01*
X60894Y105954D01*
X61128Y106161D01*
X93220Y138253D01*
X96581Y139645D01*
X115560Y139645D01*
X115724Y139659D01*
X115888Y139666D01*
X115948Y139679D01*
X116009Y139685D01*
X116168Y139728D01*
X116328Y139764D01*
X116384Y139787D01*
X116443Y139803D01*
X116591Y139874D01*
X116743Y139937D01*
X116795Y139970D01*
X116850Y139997D01*
X116983Y140092D01*
X117122Y140182D01*
X117179Y140233D01*
X117216Y140259D01*
X117258Y140302D01*
X117356Y140388D01*
X117512Y140544D01*
X117617Y140670D01*
X117729Y140791D01*
X117761Y140843D01*
X117800Y140890D01*
X117882Y141032D01*
X117970Y141171D01*
X117994Y141228D01*
X118024Y141280D01*
X118079Y141435D01*
X118141Y141588D01*
X118154Y141647D01*
X118175Y141705D01*
X118201Y141867D01*
X118236Y142028D01*
X118241Y142105D01*
X118248Y142149D01*
X118247Y142210D01*
X118255Y142340D01*
X118255Y194019D01*
X119647Y197380D01*
X131620Y209353D01*
X134981Y210745D01*
X160581Y210745D01*
X160710Y210756D01*
X160841Y210758D01*
X160934Y210776D01*
X161030Y210785D01*
X161155Y210819D01*
X161283Y210844D01*
X161372Y210878D01*
X161464Y210903D01*
X161581Y210959D01*
X161703Y211006D01*
X161785Y211056D01*
X161871Y211097D01*
X161976Y211172D01*
X162087Y211240D01*
X162159Y211303D01*
X162237Y211359D01*
X162328Y211452D01*
X162425Y211538D01*
X162484Y211613D01*
X162551Y211681D01*
X162624Y211789D01*
X162704Y211891D01*
X162749Y211975D01*
X162803Y212054D01*
X162855Y212173D01*
X162917Y212288D01*
X162946Y212379D01*
X162985Y212466D01*
X163016Y212593D01*
X163056Y212716D01*
X163069Y212811D01*
X163092Y212904D01*
X163100Y213033D01*
X163117Y213162D01*
X163114Y213258D01*
X163119Y213353D01*
X163104Y213482D01*
X163099Y213612D01*
X163078Y213705D01*
X163067Y213800D01*
X163030Y213925D01*
X163002Y214052D01*
X162965Y214140D01*
X162937Y214231D01*
X162878Y214347D01*
X162828Y214467D01*
X162776Y214548D01*
X162733Y214633D01*
X162654Y214736D01*
X162584Y214845D01*
X162497Y214943D01*
X162461Y214991D01*
X162428Y215022D01*
X162377Y215080D01*
X151030Y226426D01*
X151030Y245974D01*
X164853Y259797D01*
X184401Y259797D01*
X198224Y245974D01*
X198224Y226426D01*
X186877Y215080D01*
X186793Y214980D01*
X186703Y214887D01*
X186649Y214807D01*
X186588Y214734D01*
X186523Y214621D01*
X186451Y214514D01*
X186412Y214426D01*
X186365Y214343D01*
X186321Y214221D01*
X186268Y214102D01*
X186246Y214009D01*
X186214Y213919D01*
X186193Y213790D01*
X186162Y213664D01*
X186156Y213569D01*
X186140Y213475D01*
X186142Y213344D01*
X186134Y213215D01*
X186145Y213120D01*
X186146Y213024D01*
X186171Y212897D01*
X186186Y212768D01*
X186214Y212676D01*
X186232Y212582D01*
X186279Y212461D01*
X186317Y212337D01*
X186360Y212252D01*
X186394Y212162D01*
X186462Y212051D01*
X186521Y211935D01*
X186579Y211859D01*
X186628Y211778D01*
X186714Y211680D01*
X186793Y211577D01*
X186863Y211512D01*
X186926Y211440D01*
X187028Y211360D01*
X187124Y211271D01*
X187205Y211220D01*
X187280Y211161D01*
X187394Y211100D01*
X187504Y211030D01*
X187592Y210993D01*
X187676Y210948D01*
X187800Y210908D01*
X187920Y210859D01*
X188014Y210839D01*
X188105Y210809D01*
X188233Y210791D01*
X188361Y210764D01*
X188490Y210756D01*
X188551Y210748D01*
X188596Y210749D01*
X188672Y210745D01*
X249719Y210745D01*
X253080Y209353D01*
X262024Y200409D01*
X262087Y200356D01*
X262144Y200296D01*
X262259Y200212D01*
X262369Y200120D01*
X262441Y200079D01*
X262507Y200031D01*
X262636Y199968D01*
X262760Y199897D01*
X262838Y199869D01*
X262912Y199833D01*
X263049Y199794D01*
X263184Y199746D01*
X263266Y199732D01*
X263345Y199710D01*
X263487Y199696D01*
X263628Y199672D01*
X263711Y199674D01*
X263793Y199665D01*
X263935Y199677D01*
X264079Y199679D01*
X264160Y199694D01*
X264242Y199701D01*
X264380Y199737D01*
X264521Y199764D01*
X264598Y199794D01*
X264677Y199815D01*
X264807Y199875D01*
X264941Y199926D01*
X265011Y199969D01*
X265086Y200004D01*
X265203Y200086D01*
X265325Y200160D01*
X265387Y200215D01*
X265455Y200262D01*
X265556Y200364D01*
X265663Y200458D01*
X265714Y200523D01*
X265772Y200582D01*
X265854Y200699D01*
X265942Y200812D01*
X265981Y200884D01*
X266028Y200952D01*
X266136Y201174D01*
X266155Y201208D01*
X266158Y201219D01*
X266165Y201233D01*
X266847Y202880D01*
X289420Y225453D01*
X292781Y226845D01*
X330419Y226845D01*
X333780Y225453D01*
X345407Y213825D01*
X345534Y213720D01*
X345654Y213608D01*
X345706Y213576D01*
X345753Y213536D01*
X345895Y213455D01*
X346034Y213367D01*
X346091Y213343D01*
X346144Y213313D01*
X346298Y213258D01*
X346451Y213196D01*
X346510Y213183D01*
X346568Y213162D01*
X346730Y213135D01*
X346891Y213101D01*
X346968Y213096D01*
X347012Y213089D01*
X347073Y213090D01*
X347203Y213082D01*
X380470Y213082D01*
X380602Y213027D01*
X380714Y212992D01*
X380822Y212948D01*
X380928Y212925D01*
X381032Y212892D01*
X381148Y212877D01*
X381262Y212853D01*
X381416Y212843D01*
X381479Y212835D01*
X381515Y212837D01*
X381574Y212834D01*
X385864Y212834D01*
X388105Y211905D01*
X389820Y210190D01*
X390748Y207950D01*
X390748Y199924D01*
X389820Y197683D01*
X388105Y195968D01*
X385864Y195040D01*
X381574Y195040D01*
X381458Y195030D01*
X381341Y195029D01*
X381234Y195010D01*
X381126Y195000D01*
X381013Y194970D01*
X380898Y194949D01*
X380752Y194898D01*
X380691Y194882D01*
X380659Y194866D01*
X380602Y194847D01*
X380470Y194792D01*
X371671Y194792D01*
X371541Y194781D01*
X371411Y194779D01*
X371318Y194761D01*
X371222Y194752D01*
X371097Y194718D01*
X370969Y194693D01*
X370880Y194659D01*
X370788Y194634D01*
X370671Y194578D01*
X370549Y194531D01*
X370467Y194481D01*
X370381Y194440D01*
X370276Y194365D01*
X370164Y194297D01*
X370093Y194234D01*
X370015Y194178D01*
X369924Y194085D01*
X369827Y193999D01*
X369768Y193924D01*
X369701Y193856D01*
X369628Y193748D01*
X369548Y193646D01*
X369502Y193562D01*
X369449Y193482D01*
X369396Y193364D01*
X369335Y193249D01*
X369305Y193158D01*
X369267Y193071D01*
X369236Y192944D01*
X369196Y192821D01*
X369183Y192726D01*
X369160Y192633D01*
X369152Y192504D01*
X369134Y192375D01*
X369138Y192279D01*
X369132Y192184D01*
X369147Y192055D01*
X369153Y191925D01*
X369173Y191832D01*
X369184Y191737D01*
X369222Y191612D01*
X369250Y191485D01*
X369287Y191397D01*
X369315Y191306D01*
X369374Y191190D01*
X369424Y191070D01*
X369476Y190990D01*
X369519Y190904D01*
X369598Y190801D01*
X369668Y190692D01*
X369754Y190594D01*
X369791Y190546D01*
X369824Y190515D01*
X369875Y190457D01*
X371907Y188425D01*
X372033Y188320D01*
X372154Y188208D01*
X372206Y188176D01*
X372253Y188136D01*
X372395Y188055D01*
X372534Y187967D01*
X372591Y187943D01*
X372644Y187913D01*
X372798Y187858D01*
X372951Y187796D01*
X373010Y187783D01*
X373068Y187762D01*
X373230Y187735D01*
X373391Y187701D01*
X373468Y187696D01*
X373512Y187689D01*
X373573Y187690D01*
X373703Y187682D01*
X380470Y187682D01*
X380602Y187627D01*
X380714Y187592D01*
X380822Y187548D01*
X380928Y187525D01*
X381032Y187492D01*
X381148Y187478D01*
X381262Y187453D01*
X381416Y187443D01*
X381479Y187435D01*
X381515Y187437D01*
X381574Y187434D01*
X385864Y187434D01*
X388105Y186505D01*
X389820Y184790D01*
X390748Y182550D01*
X390748Y174524D01*
X389820Y172283D01*
X388105Y170568D01*
X385864Y169640D01*
X381574Y169640D01*
X381458Y169630D01*
X381341Y169629D01*
X381234Y169610D01*
X381126Y169600D01*
X381013Y169569D01*
X380898Y169548D01*
X380752Y169498D01*
X380691Y169482D01*
X380658Y169466D01*
X380602Y169447D01*
X380470Y169392D01*
X367044Y169392D01*
X363683Y170784D01*
X352656Y181812D01*
X352530Y181917D01*
X352409Y182029D01*
X352357Y182061D01*
X352310Y182100D01*
X352168Y182182D01*
X352029Y182270D01*
X351972Y182294D01*
X351920Y182324D01*
X351765Y182379D01*
X351612Y182441D01*
X351553Y182454D01*
X351495Y182475D01*
X351333Y182501D01*
X351172Y182536D01*
X351095Y182541D01*
X351051Y182548D01*
X350990Y182547D01*
X350860Y182555D01*
X350268Y182555D01*
X350233Y182552D01*
X350199Y182554D01*
X350010Y182532D01*
X349819Y182515D01*
X349786Y182506D01*
X349752Y182502D01*
X349569Y182447D01*
X349385Y182397D01*
X349354Y182382D01*
X349321Y182372D01*
X349150Y182285D01*
X348978Y182203D01*
X348950Y182183D01*
X348919Y182168D01*
X348767Y182052D01*
X348612Y181941D01*
X348588Y181916D01*
X348561Y181896D01*
X348432Y181756D01*
X348298Y181619D01*
X348279Y181590D01*
X348255Y181564D01*
X348153Y181403D01*
X348046Y181246D01*
X348032Y181214D01*
X348014Y181185D01*
X347941Y181008D01*
X347864Y180834D01*
X347856Y180800D01*
X347843Y180768D01*
X347803Y180581D01*
X347757Y180396D01*
X347755Y180362D01*
X347748Y180328D01*
X347729Y180016D01*
X347729Y178486D01*
X347086Y176936D01*
X347037Y176779D01*
X346980Y176624D01*
X346970Y176564D01*
X346952Y176506D01*
X346931Y176342D01*
X346902Y176181D01*
X346903Y176120D01*
X346895Y176059D01*
X346903Y175895D01*
X346904Y175730D01*
X346915Y175670D01*
X346918Y175610D01*
X346955Y175449D01*
X346985Y175288D01*
X347010Y175215D01*
X347020Y175171D01*
X347044Y175115D01*
X347086Y174992D01*
X347385Y174271D01*
X347385Y164821D01*
X347388Y164786D01*
X347386Y164752D01*
X347408Y164562D01*
X347425Y164372D01*
X347434Y164339D01*
X347438Y164305D01*
X347493Y164122D01*
X347543Y163938D01*
X347558Y163907D01*
X347568Y163874D01*
X347655Y163703D01*
X347737Y163531D01*
X347757Y163503D01*
X347773Y163472D01*
X347888Y163320D01*
X347999Y163165D01*
X348024Y163141D01*
X348045Y163114D01*
X348185Y162985D01*
X348322Y162851D01*
X348350Y162832D01*
X348376Y162808D01*
X348537Y162706D01*
X348695Y162599D01*
X348726Y162585D01*
X348756Y162567D01*
X348932Y162494D01*
X349106Y162417D01*
X349140Y162409D01*
X349172Y162396D01*
X349359Y162355D01*
X349544Y162310D01*
X349578Y162308D01*
X349612Y162301D01*
X349924Y162282D01*
X380470Y162282D01*
X380602Y162227D01*
X380714Y162192D01*
X380822Y162148D01*
X380928Y162125D01*
X381032Y162092D01*
X381148Y162077D01*
X381262Y162053D01*
X381416Y162043D01*
X381479Y162035D01*
X381515Y162037D01*
X381574Y162034D01*
X385864Y162034D01*
X388105Y161105D01*
X389820Y159390D01*
X390748Y157150D01*
X390748Y149124D01*
X389820Y146883D01*
X388105Y145168D01*
X385864Y144240D01*
X381574Y144240D01*
X381458Y144230D01*
X381341Y144229D01*
X381234Y144210D01*
X381126Y144200D01*
X381013Y144170D01*
X380898Y144149D01*
X380752Y144098D01*
X380691Y144082D01*
X380659Y144066D01*
X380602Y144047D01*
X380470Y143992D01*
X348728Y143992D01*
X348517Y143973D01*
X348306Y143957D01*
X348293Y143953D01*
X348280Y143952D01*
X348074Y143896D01*
X347870Y143843D01*
X347858Y143837D01*
X347845Y143834D01*
X347655Y143743D01*
X347461Y143654D01*
X347450Y143646D01*
X347439Y143640D01*
X347267Y143517D01*
X347093Y143395D01*
X347083Y143386D01*
X347073Y143378D01*
X346924Y143225D01*
X346775Y143076D01*
X346768Y143065D01*
X346759Y143056D01*
X346640Y142880D01*
X346519Y142705D01*
X346512Y142691D01*
X346506Y142682D01*
X346490Y142646D01*
X346483Y142631D01*
X344742Y140890D01*
X344501Y140790D01*
X344312Y140692D01*
X344124Y140595D01*
X344113Y140588D01*
X344101Y140581D01*
X343933Y140451D01*
X343765Y140323D01*
X343756Y140314D01*
X343745Y140306D01*
X343603Y140148D01*
X343460Y139992D01*
X343453Y139981D01*
X343444Y139971D01*
X343333Y139793D01*
X343218Y139613D01*
X343213Y139600D01*
X343206Y139589D01*
X343127Y139392D01*
X343047Y139196D01*
X343044Y139183D01*
X343039Y139171D01*
X342997Y138963D01*
X342952Y138756D01*
X342951Y138740D01*
X342949Y138730D01*
X342948Y138690D01*
X342933Y138444D01*
X342933Y126838D01*
X342611Y126060D01*
X342576Y125948D01*
X342531Y125840D01*
X342508Y125734D01*
X342476Y125630D01*
X342461Y125514D01*
X342437Y125400D01*
X342427Y125246D01*
X342419Y125183D01*
X342421Y125147D01*
X342417Y125088D01*
X342417Y123114D01*
X342429Y122985D01*
X342431Y122855D01*
X342449Y122761D01*
X342457Y122666D01*
X342492Y122540D01*
X342516Y122413D01*
X342551Y122323D01*
X342576Y122231D01*
X342632Y122114D01*
X342679Y121993D01*
X342728Y121911D01*
X342769Y121825D01*
X342845Y121719D01*
X342912Y121608D01*
X342976Y121536D01*
X343031Y121459D01*
X343125Y121368D01*
X343211Y121270D01*
X343285Y121211D01*
X343354Y121145D01*
X343462Y121072D01*
X343564Y120991D01*
X343648Y120946D01*
X343727Y120893D01*
X343846Y120840D01*
X343961Y120778D01*
X344051Y120749D01*
X344139Y120710D01*
X344265Y120679D01*
X344389Y120639D01*
X344484Y120626D01*
X344576Y120604D01*
X344706Y120596D01*
X344835Y120578D01*
X344930Y120582D01*
X345026Y120576D01*
X345155Y120591D01*
X345285Y120596D01*
X345378Y120617D01*
X345473Y120628D01*
X345598Y120666D01*
X345724Y120694D01*
X345812Y120731D01*
X345904Y120758D01*
X346020Y120817D01*
X346140Y120868D01*
X346220Y120919D01*
X346305Y120963D01*
X346409Y121041D01*
X346518Y121112D01*
X346615Y121198D01*
X346664Y121235D01*
X346694Y121268D01*
X346746Y121313D01*
X348988Y122242D01*
X362413Y122242D01*
X363043Y121981D01*
X363122Y121956D01*
X363197Y121923D01*
X363337Y121889D01*
X363473Y121846D01*
X363555Y121836D01*
X363635Y121816D01*
X363778Y121807D01*
X363920Y121789D01*
X364002Y121794D01*
X364084Y121789D01*
X364226Y121805D01*
X364369Y121812D01*
X364450Y121831D01*
X364532Y121841D01*
X364669Y121882D01*
X364808Y121914D01*
X364884Y121947D01*
X364963Y121971D01*
X365090Y122036D01*
X365222Y122092D01*
X365290Y122138D01*
X365364Y122175D01*
X365478Y122262D01*
X365597Y122341D01*
X365657Y122397D01*
X365723Y122447D01*
X365820Y122553D01*
X365923Y122651D01*
X365972Y122718D01*
X366028Y122778D01*
X366105Y122899D01*
X366189Y123015D01*
X366225Y123089D01*
X366270Y123158D01*
X366324Y123291D01*
X366387Y123419D01*
X366409Y123498D01*
X366441Y123575D01*
X366471Y123715D01*
X366510Y123852D01*
X366518Y123934D01*
X366535Y124015D01*
X366550Y124261D01*
X366554Y124300D01*
X366554Y124311D01*
X366555Y124327D01*
X366555Y131750D01*
X367483Y133990D01*
X369198Y135705D01*
X371439Y136634D01*
X375728Y136634D01*
X375845Y136644D01*
X375962Y136644D01*
X376068Y136664D01*
X376177Y136674D01*
X376290Y136704D01*
X376405Y136725D01*
X376551Y136776D01*
X376611Y136792D01*
X376644Y136808D01*
X376700Y136827D01*
X376832Y136882D01*
X380470Y136882D01*
X380602Y136827D01*
X380714Y136792D01*
X380822Y136748D01*
X380928Y136725D01*
X381032Y136692D01*
X381148Y136677D01*
X381262Y136653D01*
X381416Y136643D01*
X381479Y136635D01*
X381515Y136637D01*
X381574Y136634D01*
X385864Y136634D01*
X388105Y135705D01*
X389820Y133990D01*
X390748Y131750D01*
X390748Y123724D01*
X389820Y121483D01*
X388540Y120203D01*
X388434Y120077D01*
X388323Y119956D01*
X388290Y119905D01*
X388251Y119858D01*
X388169Y119715D01*
X388081Y119576D01*
X388058Y119520D01*
X388027Y119467D01*
X387972Y119312D01*
X387910Y119160D01*
X387897Y119100D01*
X387877Y119043D01*
X387850Y118880D01*
X387815Y118720D01*
X387810Y118643D01*
X387803Y118599D01*
X387804Y118537D01*
X387796Y118408D01*
X387796Y70932D01*
X386845Y68636D01*
X386795Y68479D01*
X386739Y68324D01*
X386728Y68264D01*
X386710Y68206D01*
X386689Y68043D01*
X386661Y67881D01*
X386661Y67820D01*
X386653Y67759D01*
X386662Y67595D01*
X386662Y67430D01*
X386673Y67370D01*
X386676Y67310D01*
X386713Y67150D01*
X386743Y66988D01*
X386768Y66914D01*
X386778Y66871D01*
X386802Y66815D01*
X386845Y66692D01*
X387773Y64450D01*
X387779Y64423D01*
X387785Y64362D01*
X387828Y64203D01*
X387864Y64043D01*
X387887Y63986D01*
X387903Y63928D01*
X387974Y63780D01*
X388037Y63627D01*
X388070Y63576D01*
X388097Y63521D01*
X388192Y63388D01*
X388282Y63249D01*
X388333Y63191D01*
X388359Y63155D01*
X388380Y63134D01*
X389316Y60875D01*
X389316Y47450D01*
X388388Y45209D01*
X386673Y43494D01*
X384432Y42566D01*
X372006Y42566D01*
X370691Y43111D01*
X370534Y43160D01*
X370379Y43217D01*
X370319Y43227D01*
X370261Y43245D01*
X370098Y43266D01*
X369936Y43295D01*
X369875Y43294D01*
X369814Y43302D01*
X369650Y43294D01*
X369486Y43293D01*
X369426Y43282D01*
X369365Y43279D01*
X369205Y43242D01*
X369043Y43212D01*
X368970Y43187D01*
X368926Y43177D01*
X368870Y43153D01*
X368747Y43111D01*
X367432Y42566D01*
X355006Y42566D01*
X352766Y43494D01*
X351985Y44274D01*
X351859Y44380D01*
X351738Y44491D01*
X351687Y44524D01*
X351640Y44563D01*
X351497Y44644D01*
X351359Y44733D01*
X351302Y44756D01*
X351249Y44786D01*
X351094Y44841D01*
X350942Y44904D01*
X350882Y44917D01*
X350825Y44937D01*
X350663Y44964D01*
X350502Y44998D01*
X350425Y45003D01*
X350381Y45011D01*
X350320Y45010D01*
X350190Y45018D01*
X342571Y45018D01*
X342454Y45007D01*
X342338Y45007D01*
X342231Y44987D01*
X342122Y44978D01*
X342010Y44947D01*
X341895Y44926D01*
X341749Y44876D01*
X341688Y44859D01*
X341655Y44844D01*
X341599Y44824D01*
X337276Y43034D01*
X332849Y43034D01*
X328759Y44728D01*
X325628Y47859D01*
X323934Y51949D01*
X323934Y56484D01*
X323943Y56560D01*
X323963Y56640D01*
X323972Y56783D01*
X323990Y56925D01*
X323985Y57007D01*
X323991Y57090D01*
X323974Y57232D01*
X323967Y57375D01*
X323948Y57455D01*
X323938Y57537D01*
X323897Y57674D01*
X323865Y57813D01*
X323832Y57889D01*
X323808Y57968D01*
X323743Y58096D01*
X323687Y58227D01*
X323641Y58296D01*
X323604Y58369D01*
X323517Y58483D01*
X323439Y58603D01*
X323382Y58662D01*
X323332Y58728D01*
X323227Y58825D01*
X323128Y58929D01*
X323061Y58977D01*
X323001Y59033D01*
X322880Y59110D01*
X322765Y59195D01*
X322690Y59231D01*
X322621Y59275D01*
X322488Y59329D01*
X322360Y59392D01*
X322281Y59415D01*
X322204Y59446D01*
X322064Y59476D01*
X321927Y59515D01*
X321845Y59523D01*
X321764Y59541D01*
X321518Y59556D01*
X321479Y59560D01*
X321468Y59559D01*
X321452Y59560D01*
X316408Y59560D01*
X315242Y60043D01*
X315086Y60092D01*
X314931Y60149D01*
X314871Y60159D01*
X314813Y60178D01*
X314650Y60198D01*
X314488Y60227D01*
X314427Y60227D01*
X314366Y60234D01*
X314201Y60226D01*
X314037Y60225D01*
X313977Y60214D01*
X313916Y60211D01*
X313756Y60174D01*
X313594Y60144D01*
X313522Y60119D01*
X313478Y60109D01*
X313422Y60085D01*
X313299Y60043D01*
X312133Y59560D01*
X306905Y59560D01*
X306870Y59557D01*
X306836Y59559D01*
X306646Y59537D01*
X306456Y59520D01*
X306423Y59511D01*
X306388Y59507D01*
X306205Y59452D01*
X306022Y59402D01*
X305991Y59387D01*
X305957Y59377D01*
X305787Y59290D01*
X305615Y59208D01*
X305587Y59188D01*
X305556Y59172D01*
X305404Y59057D01*
X305249Y58946D01*
X305225Y58921D01*
X305197Y58900D01*
X305068Y58760D01*
X304935Y58623D01*
X304916Y58595D01*
X304892Y58569D01*
X304790Y58408D01*
X304683Y58250D01*
X304669Y58219D01*
X304650Y58189D01*
X304578Y58013D01*
X304501Y57839D01*
X304492Y57805D01*
X304479Y57773D01*
X304439Y57586D01*
X304394Y57401D01*
X304392Y57367D01*
X304385Y57333D01*
X304365Y57021D01*
X304365Y52836D01*
X304368Y52801D01*
X304366Y52767D01*
X304388Y52578D01*
X304405Y52387D01*
X304414Y52354D01*
X304418Y52320D01*
X304474Y52137D01*
X304524Y51953D01*
X304539Y51922D01*
X304549Y51889D01*
X304636Y51718D01*
X304717Y51546D01*
X304737Y51518D01*
X304753Y51487D01*
X304868Y51335D01*
X304979Y51180D01*
X305004Y51156D01*
X305025Y51129D01*
X305165Y51000D01*
X305302Y50866D01*
X305331Y50847D01*
X305356Y50823D01*
X305517Y50721D01*
X305675Y50614D01*
X305707Y50600D01*
X305736Y50582D01*
X305912Y50509D01*
X306087Y50432D01*
X306120Y50424D01*
X306152Y50411D01*
X306339Y50371D01*
X306524Y50325D01*
X306559Y50323D01*
X306593Y50316D01*
X306905Y50297D01*
X314413Y50297D01*
X316654Y49369D01*
X318369Y47654D01*
X319297Y45413D01*
X319297Y32987D01*
X318369Y30746D01*
X316654Y29031D01*
X314413Y28103D01*
X302792Y28103D01*
X302629Y28089D01*
X302464Y28082D01*
X302405Y28069D01*
X302344Y28063D01*
X302185Y28020D01*
X302025Y27984D01*
X301968Y27961D01*
X301909Y27945D01*
X301761Y27874D01*
X301609Y27811D01*
X301558Y27778D01*
X301503Y27751D01*
X301369Y27656D01*
X301231Y27566D01*
X301173Y27515D01*
X301137Y27489D01*
X301094Y27446D01*
X300997Y27360D01*
X289454Y15817D01*
X289371Y15718D01*
X289282Y15626D01*
X289227Y15546D01*
X289165Y15471D01*
X289101Y15360D01*
X289029Y15253D01*
X288990Y15164D01*
X288942Y15080D01*
X288899Y14959D01*
X288846Y14841D01*
X288823Y14747D01*
X288791Y14656D01*
X288770Y14529D01*
X288739Y14404D01*
X288733Y14308D01*
X288717Y14212D01*
X288719Y14083D01*
X288711Y13955D01*
X288722Y13859D01*
X288724Y13762D01*
X288748Y13635D01*
X288763Y13507D01*
X288791Y13415D01*
X288809Y13320D01*
X288856Y13200D01*
X288893Y13076D01*
X288937Y12990D01*
X288971Y12900D01*
X289038Y12790D01*
X289097Y12675D01*
X289155Y12598D01*
X289205Y12515D01*
X289291Y12419D01*
X289368Y12316D01*
X289440Y12250D01*
X289504Y12178D01*
X289604Y12098D01*
X289699Y12010D01*
X289781Y11958D01*
X289857Y11898D01*
X289970Y11837D01*
X290079Y11768D01*
X290168Y11731D01*
X290254Y11686D01*
X290376Y11646D01*
X290495Y11597D01*
X290590Y11576D01*
X290682Y11546D01*
X290809Y11529D01*
X290935Y11502D01*
X291067Y11493D01*
X291128Y11485D01*
X291172Y11487D01*
X291247Y11482D01*
X652966Y11129D01*
X652995Y11132D01*
G37*
G36*
X107596Y11664D02*
X107596Y11664D01*
X107632Y11662D01*
X107821Y11684D01*
X108009Y11701D01*
X108044Y11710D01*
X108079Y11714D01*
X108261Y11769D01*
X108444Y11819D01*
X108476Y11834D01*
X108510Y11845D01*
X108679Y11931D01*
X108850Y12012D01*
X108880Y12033D01*
X108912Y12049D01*
X109062Y12163D01*
X109217Y12274D01*
X109242Y12299D01*
X109270Y12321D01*
X109399Y12460D01*
X109531Y12596D01*
X109551Y12626D01*
X109576Y12652D01*
X109677Y12812D01*
X109784Y12969D01*
X109798Y13002D01*
X109817Y13032D01*
X109889Y13207D01*
X109966Y13380D01*
X109975Y13415D01*
X109988Y13448D01*
X110028Y13634D01*
X110073Y13818D01*
X110075Y13853D01*
X110083Y13889D01*
X110102Y14201D01*
X110102Y28514D01*
X111030Y30755D01*
X112745Y32470D01*
X114986Y33398D01*
X115513Y33398D01*
X115677Y33412D01*
X115842Y33419D01*
X115901Y33432D01*
X115962Y33438D01*
X116121Y33481D01*
X116281Y33517D01*
X116337Y33540D01*
X116396Y33556D01*
X116545Y33627D01*
X116697Y33690D01*
X116748Y33723D01*
X116803Y33750D01*
X116936Y33845D01*
X117075Y33935D01*
X117132Y33986D01*
X117169Y34012D01*
X117212Y34055D01*
X117309Y34141D01*
X119477Y36309D01*
X119477Y36310D01*
X126520Y43353D01*
X129881Y44745D01*
X167619Y44745D01*
X170980Y43353D01*
X173644Y40688D01*
X173770Y40583D01*
X173891Y40471D01*
X173943Y40439D01*
X173990Y40400D01*
X174132Y40318D01*
X174271Y40230D01*
X174328Y40206D01*
X174380Y40176D01*
X174535Y40121D01*
X174688Y40059D01*
X174747Y40046D01*
X174805Y40025D01*
X174967Y39999D01*
X175128Y39964D01*
X175205Y39959D01*
X175249Y39952D01*
X175310Y39953D01*
X175440Y39945D01*
X243160Y39945D01*
X243324Y39959D01*
X243488Y39966D01*
X243548Y39979D01*
X243609Y39985D01*
X243767Y40028D01*
X243928Y40064D01*
X243984Y40087D01*
X244043Y40103D01*
X244191Y40174D01*
X244343Y40237D01*
X244395Y40270D01*
X244450Y40297D01*
X244583Y40392D01*
X244722Y40481D01*
X244779Y40533D01*
X244816Y40559D01*
X244859Y40602D01*
X244956Y40688D01*
X246614Y42347D01*
X246689Y42436D01*
X246772Y42519D01*
X246779Y42531D01*
X246785Y42537D01*
X246837Y42613D01*
X246903Y42692D01*
X246961Y42794D01*
X247028Y42890D01*
X247037Y42909D01*
X247037Y42910D01*
X247038Y42912D01*
X247095Y43028D01*
X247127Y43083D01*
X247139Y43117D01*
X247165Y43171D01*
X247966Y45104D01*
X251096Y48235D01*
X251712Y48490D01*
X251785Y48528D01*
X251862Y48558D01*
X251985Y48632D01*
X252111Y48698D01*
X252177Y48749D01*
X252247Y48792D01*
X252354Y48886D01*
X252467Y48974D01*
X252523Y49035D01*
X252584Y49090D01*
X252673Y49202D01*
X252769Y49308D01*
X252813Y49378D01*
X252864Y49443D01*
X252931Y49569D01*
X253007Y49691D01*
X253037Y49767D01*
X253076Y49840D01*
X253121Y49976D01*
X253174Y50109D01*
X253190Y50190D01*
X253216Y50268D01*
X253235Y50410D01*
X253264Y50550D01*
X253266Y50632D01*
X253277Y50714D01*
X253271Y50857D01*
X253275Y51000D01*
X253262Y51082D01*
X253259Y51164D01*
X253228Y51303D01*
X253206Y51445D01*
X253179Y51523D01*
X253161Y51603D01*
X253106Y51736D01*
X253059Y51871D01*
X253019Y51943D01*
X252987Y52019D01*
X252910Y52139D01*
X252840Y52264D01*
X252788Y52328D01*
X252743Y52397D01*
X252580Y52582D01*
X252555Y52613D01*
X252547Y52619D01*
X252536Y52631D01*
X252126Y53041D01*
X249196Y55971D01*
X247804Y59332D01*
X247804Y63057D01*
X247801Y63091D01*
X247803Y63126D01*
X247781Y63315D01*
X247764Y63505D01*
X247755Y63539D01*
X247751Y63573D01*
X247696Y63756D01*
X247646Y63940D01*
X247631Y63971D01*
X247621Y64004D01*
X247534Y64175D01*
X247452Y64346D01*
X247432Y64374D01*
X247417Y64405D01*
X247301Y64557D01*
X247190Y64712D01*
X247165Y64737D01*
X247145Y64764D01*
X247005Y64893D01*
X246868Y65026D01*
X246839Y65046D01*
X246813Y65069D01*
X246652Y65172D01*
X246495Y65278D01*
X246463Y65292D01*
X246434Y65311D01*
X246257Y65383D01*
X246083Y65461D01*
X246049Y65469D01*
X246017Y65482D01*
X245830Y65522D01*
X245645Y65567D01*
X245611Y65569D01*
X245577Y65577D01*
X245265Y65596D01*
X243504Y65596D01*
X243340Y65581D01*
X243175Y65575D01*
X243116Y65561D01*
X243055Y65556D01*
X242896Y65513D01*
X242736Y65477D01*
X242679Y65454D01*
X242621Y65438D01*
X242473Y65367D01*
X242320Y65303D01*
X242269Y65270D01*
X242214Y65244D01*
X242080Y65148D01*
X241942Y65059D01*
X241884Y65008D01*
X241848Y64982D01*
X241805Y64938D01*
X241708Y64852D01*
X240928Y64072D01*
X238687Y63144D01*
X226262Y63144D01*
X224021Y64072D01*
X222306Y65787D01*
X221378Y68028D01*
X221378Y81453D01*
X222306Y83694D01*
X224021Y85409D01*
X226262Y86337D01*
X238687Y86337D01*
X240928Y85409D01*
X241708Y84629D01*
X241834Y84524D01*
X241955Y84412D01*
X242007Y84379D01*
X242053Y84340D01*
X242196Y84259D01*
X242335Y84170D01*
X242391Y84147D01*
X242444Y84117D01*
X242599Y84062D01*
X242751Y83999D01*
X242811Y83987D01*
X242869Y83966D01*
X243030Y83939D01*
X243192Y83905D01*
X243269Y83900D01*
X243313Y83893D01*
X243374Y83893D01*
X243504Y83885D01*
X245437Y83885D01*
X245471Y83889D01*
X245506Y83886D01*
X245695Y83908D01*
X245885Y83925D01*
X245919Y83934D01*
X245953Y83938D01*
X246136Y83994D01*
X246319Y84044D01*
X246351Y84059D01*
X246384Y84069D01*
X246554Y84156D01*
X246726Y84237D01*
X246754Y84257D01*
X246785Y84273D01*
X246937Y84388D01*
X247092Y84499D01*
X247116Y84524D01*
X247144Y84545D01*
X247273Y84685D01*
X247406Y84822D01*
X247426Y84851D01*
X247449Y84876D01*
X247552Y85037D01*
X247658Y85195D01*
X247672Y85227D01*
X247691Y85256D01*
X247763Y85432D01*
X247841Y85607D01*
X247849Y85641D01*
X247862Y85673D01*
X247902Y85859D01*
X247947Y86044D01*
X247949Y86079D01*
X247957Y86113D01*
X247976Y86425D01*
X247976Y90340D01*
X247961Y90504D01*
X247955Y90668D01*
X247941Y90727D01*
X247936Y90788D01*
X247893Y90947D01*
X247857Y91107D01*
X247833Y91164D01*
X247817Y91223D01*
X247747Y91371D01*
X247683Y91523D01*
X247650Y91574D01*
X247624Y91629D01*
X247528Y91763D01*
X247439Y91901D01*
X247388Y91959D01*
X247362Y91995D01*
X247318Y92038D01*
X247232Y92135D01*
X246443Y92924D01*
X246353Y92999D01*
X246270Y93082D01*
X246181Y93144D01*
X246098Y93213D01*
X245996Y93271D01*
X245900Y93338D01*
X245762Y93405D01*
X245707Y93437D01*
X245672Y93449D01*
X245619Y93475D01*
X241296Y95265D01*
X238165Y98396D01*
X236471Y102486D01*
X236471Y106914D01*
X238165Y111004D01*
X241296Y114135D01*
X245386Y115829D01*
X249814Y115829D01*
X253904Y114135D01*
X257035Y111004D01*
X258825Y106681D01*
X258879Y106577D01*
X258924Y106469D01*
X258983Y106378D01*
X259034Y106282D01*
X259105Y106189D01*
X259169Y106091D01*
X259271Y105976D01*
X259309Y105926D01*
X259336Y105901D01*
X259376Y105857D01*
X264873Y100359D01*
X266265Y96998D01*
X266265Y96293D01*
X266268Y96258D01*
X266266Y96224D01*
X266288Y96034D01*
X266305Y95844D01*
X266314Y95811D01*
X266318Y95776D01*
X266374Y95593D01*
X266424Y95410D01*
X266439Y95379D01*
X266449Y95345D01*
X266536Y95175D01*
X266617Y95003D01*
X266637Y94975D01*
X266653Y94944D01*
X266768Y94792D01*
X266879Y94637D01*
X266904Y94613D01*
X266925Y94585D01*
X267065Y94456D01*
X267202Y94323D01*
X267231Y94304D01*
X267256Y94280D01*
X267417Y94178D01*
X267575Y94071D01*
X267607Y94057D01*
X267636Y94038D01*
X267812Y93966D01*
X267987Y93889D01*
X268020Y93881D01*
X268052Y93867D01*
X268239Y93827D01*
X268424Y93782D01*
X268459Y93780D01*
X268493Y93773D01*
X268805Y93753D01*
X274033Y93753D01*
X275199Y93271D01*
X275355Y93222D01*
X275510Y93165D01*
X275570Y93154D01*
X275628Y93136D01*
X275791Y93115D01*
X275954Y93087D01*
X276015Y93087D01*
X276075Y93079D01*
X276240Y93088D01*
X276404Y93088D01*
X276464Y93099D01*
X276525Y93102D01*
X276685Y93140D01*
X276847Y93169D01*
X276920Y93194D01*
X276963Y93204D01*
X277020Y93228D01*
X277142Y93271D01*
X278308Y93753D01*
X286733Y93753D01*
X287899Y93271D01*
X288055Y93222D01*
X288210Y93165D01*
X288270Y93154D01*
X288328Y93136D01*
X288491Y93115D01*
X288654Y93087D01*
X288715Y93087D01*
X288775Y93079D01*
X288940Y93088D01*
X289104Y93088D01*
X289164Y93099D01*
X289225Y93102D01*
X289385Y93140D01*
X289547Y93169D01*
X289620Y93194D01*
X289663Y93204D01*
X289720Y93228D01*
X289842Y93271D01*
X291008Y93753D01*
X299433Y93753D01*
X300599Y93271D01*
X300755Y93222D01*
X300910Y93165D01*
X300970Y93154D01*
X301028Y93136D01*
X301191Y93115D01*
X301354Y93087D01*
X301415Y93087D01*
X301475Y93079D01*
X301640Y93088D01*
X301804Y93088D01*
X301864Y93099D01*
X301925Y93102D01*
X302085Y93140D01*
X302247Y93169D01*
X302320Y93194D01*
X302363Y93204D01*
X302420Y93228D01*
X302542Y93271D01*
X303708Y93753D01*
X306932Y93753D01*
X306967Y93757D01*
X307001Y93754D01*
X307190Y93776D01*
X307381Y93793D01*
X307414Y93803D01*
X307448Y93807D01*
X307631Y93862D01*
X307815Y93912D01*
X307846Y93927D01*
X307879Y93937D01*
X308050Y94024D01*
X308222Y94105D01*
X308250Y94125D01*
X308281Y94141D01*
X308433Y94256D01*
X308588Y94367D01*
X308612Y94392D01*
X308639Y94413D01*
X308768Y94553D01*
X308902Y94690D01*
X308921Y94719D01*
X308945Y94744D01*
X309047Y94905D01*
X309154Y95063D01*
X309168Y95095D01*
X309186Y95124D01*
X309259Y95301D01*
X309336Y95475D01*
X309344Y95509D01*
X309357Y95541D01*
X309397Y95727D01*
X309443Y95912D01*
X309445Y95947D01*
X309452Y95981D01*
X309471Y96293D01*
X309471Y99241D01*
X309487Y99366D01*
X309483Y99448D01*
X309488Y99530D01*
X309471Y99673D01*
X309464Y99815D01*
X309445Y99896D01*
X309436Y99978D01*
X309394Y100115D01*
X309362Y100254D01*
X309329Y100329D01*
X309306Y100409D01*
X309241Y100536D01*
X309184Y100667D01*
X309139Y100736D01*
X309101Y100810D01*
X309015Y100924D01*
X308936Y101043D01*
X308879Y101103D01*
X308829Y101169D01*
X308724Y101266D01*
X308625Y101369D01*
X308559Y101418D01*
X308498Y101474D01*
X308377Y101551D01*
X308262Y101635D01*
X308188Y101671D01*
X308118Y101716D01*
X307986Y101770D01*
X307857Y101833D01*
X307778Y101855D01*
X307702Y101887D01*
X307562Y101917D01*
X307424Y101956D01*
X307342Y101964D01*
X307262Y101981D01*
X307016Y101996D01*
X306976Y102000D01*
X306965Y101999D01*
X306950Y102000D01*
X300336Y102000D01*
X296975Y103393D01*
X290777Y109590D01*
X289400Y110968D01*
X289238Y111103D01*
X289076Y111242D01*
X289064Y111248D01*
X289054Y111257D01*
X288871Y111362D01*
X288687Y111469D01*
X288675Y111474D01*
X288663Y111480D01*
X288464Y111551D01*
X288264Y111624D01*
X288252Y111626D01*
X288239Y111631D01*
X288029Y111666D01*
X287821Y111702D01*
X287808Y111702D01*
X287795Y111704D01*
X287583Y111701D01*
X287371Y111701D01*
X287358Y111698D01*
X287345Y111698D01*
X287135Y111658D01*
X286928Y111620D01*
X286913Y111615D01*
X286903Y111613D01*
X286866Y111598D01*
X286754Y111560D01*
X278308Y111560D01*
X277142Y112043D01*
X276985Y112092D01*
X276831Y112149D01*
X276771Y112159D01*
X276713Y112178D01*
X276549Y112198D01*
X276388Y112227D01*
X276327Y112227D01*
X276266Y112234D01*
X276102Y112226D01*
X275937Y112225D01*
X275877Y112214D01*
X275816Y112211D01*
X275656Y112174D01*
X275494Y112144D01*
X275421Y112119D01*
X275378Y112109D01*
X275322Y112085D01*
X275199Y112043D01*
X274033Y111560D01*
X265608Y111560D01*
X263367Y112488D01*
X261652Y114203D01*
X260724Y116444D01*
X260724Y126217D01*
X260713Y126333D01*
X260713Y126450D01*
X260694Y126557D01*
X260684Y126665D01*
X260676Y126695D01*
X260676Y130638D01*
X260680Y130670D01*
X260705Y130785D01*
X260714Y130939D01*
X260722Y131001D01*
X260720Y131038D01*
X260724Y131097D01*
X260724Y136492D01*
X260709Y136655D01*
X260703Y136820D01*
X260689Y136879D01*
X260684Y136940D01*
X260641Y137099D01*
X260605Y137259D01*
X260582Y137316D01*
X260565Y137375D01*
X260495Y137523D01*
X260431Y137675D01*
X260398Y137726D01*
X260372Y137781D01*
X260277Y137915D01*
X260187Y138053D01*
X260136Y138111D01*
X260110Y138147D01*
X260066Y138190D01*
X259980Y138287D01*
X254364Y143904D01*
X254228Y144018D01*
X254096Y144137D01*
X254055Y144162D01*
X254018Y144193D01*
X253865Y144280D01*
X253713Y144375D01*
X253669Y144392D01*
X253627Y144416D01*
X253460Y144475D01*
X253295Y144541D01*
X253248Y144551D01*
X253203Y144567D01*
X253028Y144596D01*
X252854Y144631D01*
X252806Y144632D01*
X252759Y144640D01*
X252581Y144638D01*
X252404Y144642D01*
X252357Y144635D01*
X252309Y144634D01*
X252134Y144600D01*
X251959Y144573D01*
X251914Y144558D01*
X251867Y144549D01*
X251701Y144485D01*
X251533Y144427D01*
X251491Y144404D01*
X251447Y144386D01*
X251295Y144294D01*
X251140Y144208D01*
X251103Y144177D01*
X251062Y144152D01*
X250929Y144035D01*
X250791Y143922D01*
X250760Y143886D01*
X250724Y143854D01*
X250614Y143715D01*
X250499Y143580D01*
X250475Y143539D01*
X250445Y143501D01*
X250361Y143345D01*
X250271Y143191D01*
X250255Y143146D01*
X250232Y143104D01*
X250178Y142936D01*
X250116Y142769D01*
X250108Y142721D01*
X250093Y142676D01*
X250069Y142500D01*
X250038Y142325D01*
X250038Y142277D01*
X250032Y142230D01*
X250039Y142052D01*
X250040Y141875D01*
X250048Y141828D01*
X250050Y141780D01*
X250089Y141607D01*
X250121Y141432D01*
X250140Y141376D01*
X250148Y141341D01*
X250172Y141283D01*
X250222Y141136D01*
X250729Y139914D01*
X250729Y135486D01*
X249035Y131396D01*
X245904Y128265D01*
X241814Y126571D01*
X237386Y126571D01*
X233296Y128265D01*
X232150Y129412D01*
X232024Y129517D01*
X231903Y129629D01*
X231852Y129661D01*
X231805Y129700D01*
X231662Y129782D01*
X231523Y129870D01*
X231467Y129894D01*
X231414Y129924D01*
X231259Y129979D01*
X231107Y130041D01*
X231047Y130054D01*
X230989Y130075D01*
X230827Y130101D01*
X230666Y130136D01*
X230589Y130141D01*
X230545Y130148D01*
X230484Y130147D01*
X230355Y130155D01*
X219781Y130155D01*
X216420Y131547D01*
X207343Y140624D01*
X207253Y140699D01*
X207170Y140782D01*
X207081Y140844D01*
X206998Y140913D01*
X206896Y140971D01*
X206800Y141038D01*
X206661Y141105D01*
X206607Y141137D01*
X206573Y141149D01*
X206519Y141175D01*
X202196Y142966D01*
X199480Y145682D01*
X199380Y145765D01*
X199287Y145856D01*
X199207Y145910D01*
X199134Y145971D01*
X199021Y146035D01*
X198914Y146108D01*
X198826Y146147D01*
X198743Y146194D01*
X198621Y146238D01*
X198502Y146291D01*
X198409Y146313D01*
X198319Y146345D01*
X198191Y146366D01*
X198064Y146397D01*
X197969Y146403D01*
X197875Y146419D01*
X197745Y146417D01*
X197615Y146425D01*
X197520Y146414D01*
X197424Y146413D01*
X197297Y146388D01*
X197168Y146373D01*
X197076Y146345D01*
X196982Y146327D01*
X196861Y146280D01*
X196737Y146243D01*
X196651Y146199D01*
X196562Y146165D01*
X196451Y146097D01*
X196335Y146038D01*
X196259Y145980D01*
X196178Y145931D01*
X196080Y145845D01*
X195977Y145766D01*
X195912Y145696D01*
X195840Y145633D01*
X195760Y145531D01*
X195671Y145435D01*
X195620Y145354D01*
X195561Y145280D01*
X195500Y145165D01*
X195430Y145055D01*
X195393Y144967D01*
X195348Y144883D01*
X195308Y144759D01*
X195259Y144639D01*
X195239Y144545D01*
X195209Y144454D01*
X195191Y144326D01*
X195164Y144198D01*
X195156Y144069D01*
X195148Y144008D01*
X195149Y143963D01*
X195145Y143887D01*
X195145Y133481D01*
X193753Y130120D01*
X173880Y110247D01*
X170519Y108855D01*
X111340Y108855D01*
X111176Y108841D01*
X111012Y108834D01*
X110952Y108821D01*
X110891Y108815D01*
X110732Y108772D01*
X110572Y108736D01*
X110516Y108713D01*
X110457Y108697D01*
X110309Y108626D01*
X110157Y108563D01*
X110105Y108530D01*
X110050Y108503D01*
X109917Y108408D01*
X109778Y108318D01*
X109721Y108267D01*
X109684Y108241D01*
X109642Y108198D01*
X109544Y108112D01*
X90088Y88656D01*
X89983Y88530D01*
X89871Y88409D01*
X89839Y88357D01*
X89800Y88310D01*
X89718Y88168D01*
X89630Y88029D01*
X89606Y87972D01*
X89576Y87920D01*
X89521Y87765D01*
X89459Y87612D01*
X89446Y87553D01*
X89425Y87495D01*
X89399Y87333D01*
X89364Y87172D01*
X89359Y87095D01*
X89352Y87051D01*
X89353Y86990D01*
X89345Y86860D01*
X89345Y50481D01*
X87953Y47120D01*
X82988Y42156D01*
X82883Y42030D01*
X82771Y41909D01*
X82739Y41857D01*
X82700Y41810D01*
X82618Y41668D01*
X82530Y41529D01*
X82506Y41472D01*
X82476Y41420D01*
X82421Y41265D01*
X82359Y41112D01*
X82346Y41053D01*
X82325Y40995D01*
X82299Y40833D01*
X82264Y40672D01*
X82259Y40595D01*
X82252Y40551D01*
X82253Y40490D01*
X82245Y40360D01*
X82245Y35072D01*
X82264Y34860D01*
X82280Y34649D01*
X82283Y34636D01*
X82285Y34623D01*
X82340Y34418D01*
X82394Y34213D01*
X82400Y34201D01*
X82403Y34189D01*
X82493Y33999D01*
X82583Y33805D01*
X82591Y33794D01*
X82597Y33782D01*
X82720Y33609D01*
X82842Y33436D01*
X82851Y33427D01*
X82859Y33416D01*
X83012Y33267D01*
X83161Y33119D01*
X83172Y33111D01*
X83181Y33102D01*
X83357Y32983D01*
X83531Y32863D01*
X83546Y32856D01*
X83554Y32850D01*
X83590Y32834D01*
X83812Y32726D01*
X85155Y32170D01*
X86870Y30455D01*
X87798Y28214D01*
X87798Y14217D01*
X87801Y14184D01*
X87799Y14151D01*
X87821Y13960D01*
X87838Y13769D01*
X87846Y13737D01*
X87850Y13703D01*
X87906Y13519D01*
X87956Y13334D01*
X87970Y13304D01*
X87980Y13272D01*
X88067Y13101D01*
X88150Y12928D01*
X88169Y12901D01*
X88184Y12871D01*
X88300Y12718D01*
X88412Y12562D01*
X88436Y12538D01*
X88456Y12512D01*
X88597Y12382D01*
X88734Y12248D01*
X88762Y12229D01*
X88787Y12206D01*
X88948Y12103D01*
X89107Y11996D01*
X89138Y11982D01*
X89166Y11964D01*
X89344Y11891D01*
X89519Y11813D01*
X89552Y11805D01*
X89583Y11793D01*
X89771Y11752D01*
X89957Y11707D01*
X89990Y11705D01*
X90023Y11698D01*
X90335Y11678D01*
X107561Y11661D01*
X107596Y11664D01*
G37*
G36*
X653415Y84325D02*
X653415Y84325D01*
X653442Y84323D01*
X653638Y84345D01*
X653836Y84363D01*
X653862Y84370D01*
X653889Y84373D01*
X654080Y84429D01*
X654270Y84481D01*
X654295Y84493D01*
X654321Y84501D01*
X654499Y84590D01*
X654677Y84675D01*
X654699Y84690D01*
X654723Y84703D01*
X654882Y84822D01*
X655043Y84937D01*
X655062Y84956D01*
X655084Y84973D01*
X655218Y85117D01*
X655357Y85259D01*
X655372Y85282D01*
X655391Y85302D01*
X655498Y85468D01*
X655609Y85632D01*
X655620Y85658D01*
X655635Y85681D01*
X655711Y85863D01*
X655791Y86044D01*
X655798Y86071D01*
X655808Y86096D01*
X655851Y86289D01*
X655898Y86482D01*
X655899Y86509D01*
X655905Y86536D01*
X655926Y86848D01*
X656361Y162861D01*
X656357Y162903D01*
X656360Y162945D01*
X656339Y163127D01*
X656324Y163310D01*
X656313Y163350D01*
X656308Y163392D01*
X656255Y163568D01*
X656208Y163745D01*
X656190Y163783D01*
X656178Y163823D01*
X656094Y163987D01*
X656016Y164153D01*
X655992Y164187D01*
X655973Y164224D01*
X655862Y164370D01*
X655756Y164520D01*
X655727Y164549D01*
X655701Y164583D01*
X655566Y164707D01*
X655436Y164836D01*
X655401Y164860D01*
X655370Y164888D01*
X655215Y164987D01*
X655064Y165090D01*
X655026Y165107D01*
X654990Y165130D01*
X654821Y165200D01*
X654653Y165275D01*
X654613Y165285D01*
X654574Y165301D01*
X654394Y165340D01*
X654216Y165384D01*
X654175Y165387D01*
X654134Y165396D01*
X653822Y165415D01*
X622862Y165415D01*
X620621Y166343D01*
X618906Y168058D01*
X617978Y170299D01*
X617978Y174828D01*
X617975Y174862D01*
X617977Y174897D01*
X617955Y175086D01*
X617938Y175276D01*
X617929Y175309D01*
X617925Y175344D01*
X617870Y175527D01*
X617820Y175710D01*
X617805Y175742D01*
X617795Y175775D01*
X617708Y175945D01*
X617626Y176117D01*
X617606Y176145D01*
X617590Y176176D01*
X617475Y176328D01*
X617364Y176483D01*
X617339Y176507D01*
X617318Y176535D01*
X617178Y176664D01*
X617042Y176797D01*
X617013Y176817D01*
X616987Y176840D01*
X616826Y176943D01*
X616668Y177049D01*
X616637Y177063D01*
X616608Y177082D01*
X616431Y177154D01*
X616257Y177232D01*
X616223Y177240D01*
X616191Y177253D01*
X616004Y177293D01*
X615819Y177338D01*
X615785Y177340D01*
X615751Y177348D01*
X615439Y177367D01*
X615180Y177367D01*
X615145Y177364D01*
X615111Y177366D01*
X614921Y177344D01*
X614731Y177327D01*
X614698Y177318D01*
X614663Y177314D01*
X614480Y177258D01*
X614297Y177208D01*
X614266Y177194D01*
X614232Y177183D01*
X614062Y177097D01*
X613890Y177015D01*
X613862Y176995D01*
X613831Y176979D01*
X613679Y176864D01*
X613524Y176753D01*
X613500Y176728D01*
X613472Y176707D01*
X613343Y176567D01*
X613210Y176430D01*
X613191Y176401D01*
X613167Y176376D01*
X613065Y176215D01*
X612958Y176057D01*
X612944Y176025D01*
X612925Y175996D01*
X612853Y175820D01*
X612776Y175645D01*
X612768Y175612D01*
X612754Y175580D01*
X612714Y175393D01*
X612669Y175208D01*
X612667Y175173D01*
X612660Y175139D01*
X612640Y174828D01*
X612640Y146825D01*
X611712Y144585D01*
X609997Y142870D01*
X607756Y141941D01*
X575331Y141941D01*
X573090Y142870D01*
X571375Y144585D01*
X570447Y146825D01*
X570447Y170484D01*
X570435Y170614D01*
X570434Y170744D01*
X570416Y170837D01*
X570407Y170933D01*
X570373Y171058D01*
X570348Y171186D01*
X570314Y171275D01*
X570289Y171367D01*
X570233Y171484D01*
X570186Y171606D01*
X570136Y171688D01*
X570095Y171774D01*
X570020Y171879D01*
X569952Y171990D01*
X569889Y172062D01*
X569833Y172140D01*
X569740Y172230D01*
X569654Y172328D01*
X569579Y172387D01*
X569510Y172454D01*
X569403Y172527D01*
X569301Y172607D01*
X569216Y172652D01*
X569137Y172706D01*
X569018Y172758D01*
X568904Y172820D01*
X568813Y172849D01*
X568726Y172888D01*
X568599Y172919D01*
X568475Y172959D01*
X568381Y172972D01*
X568288Y172995D01*
X568158Y173003D01*
X568029Y173020D01*
X567934Y173017D01*
X567839Y173022D01*
X567709Y173007D01*
X567580Y173002D01*
X567486Y172981D01*
X567391Y172970D01*
X567267Y172933D01*
X567140Y172905D01*
X567052Y172868D01*
X566960Y172840D01*
X566844Y172781D01*
X566725Y172731D01*
X566644Y172679D01*
X566559Y172636D01*
X566456Y172557D01*
X566346Y172487D01*
X566249Y172400D01*
X566200Y172364D01*
X566170Y172331D01*
X566112Y172280D01*
X565610Y171777D01*
X562680Y168847D01*
X559319Y167455D01*
X537757Y167455D01*
X537627Y167444D01*
X537497Y167442D01*
X537404Y167424D01*
X537308Y167415D01*
X537183Y167381D01*
X537055Y167356D01*
X536966Y167322D01*
X536874Y167297D01*
X536757Y167241D01*
X536635Y167194D01*
X536553Y167144D01*
X536467Y167103D01*
X536362Y167028D01*
X536250Y166960D01*
X536179Y166897D01*
X536101Y166841D01*
X536011Y166748D01*
X535913Y166662D01*
X535854Y166587D01*
X535787Y166519D01*
X535714Y166411D01*
X535634Y166309D01*
X535589Y166225D01*
X535535Y166146D01*
X535482Y166027D01*
X535421Y165912D01*
X535392Y165821D01*
X535353Y165734D01*
X535322Y165607D01*
X535282Y165484D01*
X535269Y165389D01*
X535246Y165296D01*
X535238Y165167D01*
X535220Y165038D01*
X535224Y164942D01*
X535219Y164847D01*
X535234Y164718D01*
X535239Y164588D01*
X535260Y164495D01*
X535271Y164400D01*
X535308Y164275D01*
X535336Y164148D01*
X535373Y164060D01*
X535401Y163969D01*
X535460Y163853D01*
X535510Y163733D01*
X535562Y163653D01*
X535605Y163567D01*
X535684Y163464D01*
X535754Y163355D01*
X535841Y163257D01*
X535877Y163209D01*
X535910Y163178D01*
X535961Y163120D01*
X537187Y161895D01*
X537187Y151583D01*
X529896Y144292D01*
X519585Y144292D01*
X512294Y151583D01*
X512294Y160709D01*
X512282Y160838D01*
X512281Y160968D01*
X512262Y161062D01*
X512254Y161157D01*
X512220Y161283D01*
X512195Y161410D01*
X512161Y161500D01*
X512135Y161592D01*
X512080Y161709D01*
X512033Y161830D01*
X511983Y161912D01*
X511942Y161998D01*
X511866Y162104D01*
X511799Y162215D01*
X511736Y162287D01*
X511680Y162364D01*
X511587Y162455D01*
X511501Y162553D01*
X511426Y162612D01*
X511357Y162678D01*
X511249Y162751D01*
X511147Y162832D01*
X511063Y162877D01*
X510984Y162931D01*
X510865Y162983D01*
X510751Y163045D01*
X510660Y163074D01*
X510572Y163113D01*
X510446Y163144D01*
X510322Y163184D01*
X510228Y163197D01*
X510135Y163219D01*
X510005Y163227D01*
X509876Y163245D01*
X509781Y163241D01*
X509686Y163247D01*
X509556Y163232D01*
X509426Y163227D01*
X509333Y163206D01*
X509238Y163195D01*
X509114Y163157D01*
X508987Y163129D01*
X508899Y163092D01*
X508807Y163065D01*
X508691Y163006D01*
X508571Y162956D01*
X508491Y162904D01*
X508406Y162860D01*
X508303Y162782D01*
X508193Y162711D01*
X508096Y162625D01*
X508047Y162588D01*
X508017Y162556D01*
X507959Y162504D01*
X497394Y151940D01*
X497289Y151813D01*
X497177Y151693D01*
X497145Y151641D01*
X497105Y151594D01*
X497024Y151452D01*
X496936Y151313D01*
X496912Y151256D01*
X496882Y151203D01*
X496827Y151049D01*
X496765Y150896D01*
X496752Y150837D01*
X496731Y150779D01*
X496704Y150617D01*
X496670Y150456D01*
X496665Y150379D01*
X496658Y150335D01*
X496659Y150274D01*
X496651Y150144D01*
X496651Y146319D01*
X495722Y144078D01*
X494007Y142363D01*
X494002Y142361D01*
X493887Y142301D01*
X493767Y142249D01*
X493688Y142197D01*
X493603Y142153D01*
X493500Y142073D01*
X493392Y142001D01*
X493323Y141935D01*
X493247Y141877D01*
X493160Y141780D01*
X493066Y141690D01*
X493009Y141613D01*
X492945Y141543D01*
X492877Y141432D01*
X492800Y141327D01*
X492758Y141241D01*
X492707Y141160D01*
X492659Y141040D01*
X492602Y140923D01*
X492576Y140831D01*
X492541Y140742D01*
X492515Y140615D01*
X492479Y140489D01*
X492470Y140394D01*
X492451Y140301D01*
X492447Y140171D01*
X492435Y140041D01*
X492442Y139946D01*
X492440Y139851D01*
X492460Y139722D01*
X492470Y139592D01*
X492494Y139500D01*
X492509Y139406D01*
X492551Y139283D01*
X492584Y139157D01*
X492624Y139070D01*
X492655Y138980D01*
X492718Y138866D01*
X492773Y138748D01*
X492828Y138670D01*
X492874Y138587D01*
X492957Y138486D01*
X493031Y138379D01*
X493099Y138312D01*
X493160Y138238D01*
X493258Y138154D01*
X493351Y138062D01*
X493429Y138008D01*
X493502Y137946D01*
X493614Y137880D01*
X493721Y137806D01*
X493838Y137749D01*
X493890Y137718D01*
X493933Y137703D01*
X494002Y137669D01*
X494049Y137649D01*
X495764Y135934D01*
X496693Y133694D01*
X496693Y129869D01*
X496707Y129705D01*
X496714Y129540D01*
X496727Y129481D01*
X496732Y129420D01*
X496776Y129261D01*
X496811Y129101D01*
X496835Y129045D01*
X496851Y128986D01*
X496921Y128838D01*
X496985Y128685D01*
X497018Y128634D01*
X497044Y128579D01*
X497140Y128446D01*
X497229Y128307D01*
X497280Y128249D01*
X497306Y128213D01*
X497350Y128170D01*
X497436Y128073D01*
X504421Y121088D01*
X504547Y120983D01*
X504668Y120871D01*
X504719Y120839D01*
X504766Y120800D01*
X504909Y120718D01*
X505048Y120630D01*
X505104Y120606D01*
X505157Y120576D01*
X505312Y120521D01*
X505464Y120459D01*
X505524Y120446D01*
X505581Y120425D01*
X505744Y120399D01*
X505904Y120364D01*
X505981Y120359D01*
X506026Y120352D01*
X506087Y120353D01*
X506216Y120345D01*
X611819Y120345D01*
X615180Y118953D01*
X646253Y87880D01*
X647077Y85890D01*
X647175Y85702D01*
X647271Y85513D01*
X647279Y85503D01*
X647285Y85491D01*
X647415Y85323D01*
X647543Y85155D01*
X647553Y85146D01*
X647561Y85135D01*
X647719Y84993D01*
X647874Y84850D01*
X647885Y84842D01*
X647895Y84834D01*
X648074Y84722D01*
X648254Y84608D01*
X648266Y84603D01*
X648278Y84596D01*
X648474Y84517D01*
X648671Y84437D01*
X648683Y84434D01*
X648696Y84429D01*
X648904Y84387D01*
X649111Y84342D01*
X649127Y84341D01*
X649137Y84339D01*
X649176Y84338D01*
X649423Y84323D01*
X653387Y84323D01*
X653415Y84325D01*
G37*
%LPC*%
G36*
X201372Y332663D02*
X201372Y332663D01*
X196330Y334751D01*
X192471Y338610D01*
X190383Y343652D01*
X190383Y350859D01*
X190369Y351022D01*
X190362Y351187D01*
X190349Y351246D01*
X190343Y351307D01*
X190300Y351466D01*
X190264Y351626D01*
X190241Y351683D01*
X190225Y351742D01*
X190154Y351890D01*
X190091Y352042D01*
X190058Y352093D01*
X190031Y352148D01*
X189936Y352282D01*
X189846Y352420D01*
X189795Y352478D01*
X189769Y352514D01*
X189726Y352557D01*
X189640Y352654D01*
X172114Y370180D01*
X171988Y370285D01*
X171867Y370397D01*
X171816Y370429D01*
X171769Y370468D01*
X171626Y370550D01*
X171487Y370638D01*
X171431Y370662D01*
X171378Y370692D01*
X171223Y370747D01*
X171071Y370809D01*
X171011Y370822D01*
X170954Y370843D01*
X170791Y370869D01*
X170631Y370904D01*
X170554Y370909D01*
X170509Y370916D01*
X170448Y370915D01*
X170319Y370923D01*
X133851Y370923D01*
X133687Y370909D01*
X133523Y370902D01*
X133463Y370889D01*
X133403Y370883D01*
X133244Y370840D01*
X133083Y370804D01*
X133027Y370781D01*
X132968Y370765D01*
X132820Y370694D01*
X132668Y370631D01*
X132617Y370598D01*
X132562Y370571D01*
X132428Y370476D01*
X132290Y370386D01*
X132232Y370335D01*
X132195Y370309D01*
X132153Y370266D01*
X132056Y370180D01*
X129497Y367621D01*
X117503Y367621D01*
X109021Y376103D01*
X109021Y388097D01*
X117503Y396579D01*
X129497Y396579D01*
X132056Y394020D01*
X132181Y393915D01*
X132303Y393803D01*
X132354Y393771D01*
X132401Y393732D01*
X132543Y393650D01*
X132682Y393562D01*
X132739Y393538D01*
X132792Y393508D01*
X132947Y393453D01*
X133099Y393391D01*
X133159Y393378D01*
X133216Y393357D01*
X133378Y393331D01*
X133539Y393296D01*
X133616Y393291D01*
X133660Y393284D01*
X133721Y393285D01*
X133851Y393277D01*
X178223Y393277D01*
X182331Y391575D01*
X187688Y386218D01*
X187788Y386134D01*
X187881Y386044D01*
X187961Y385990D01*
X188034Y385929D01*
X188147Y385864D01*
X188254Y385792D01*
X188342Y385753D01*
X188425Y385706D01*
X188547Y385662D01*
X188666Y385609D01*
X188759Y385587D01*
X188849Y385555D01*
X188977Y385533D01*
X189104Y385503D01*
X189199Y385497D01*
X189293Y385481D01*
X189423Y385483D01*
X189553Y385475D01*
X189648Y385486D01*
X189744Y385487D01*
X189871Y385512D01*
X190000Y385527D01*
X190092Y385555D01*
X190186Y385573D01*
X190307Y385620D01*
X190431Y385657D01*
X190516Y385701D01*
X190606Y385735D01*
X190717Y385803D01*
X190833Y385862D01*
X190909Y385919D01*
X190990Y385969D01*
X191088Y386055D01*
X191191Y386134D01*
X191256Y386204D01*
X191328Y386267D01*
X191408Y386369D01*
X191497Y386465D01*
X191548Y386545D01*
X191607Y386620D01*
X191668Y386735D01*
X191738Y386845D01*
X191775Y386933D01*
X191820Y387017D01*
X191860Y387141D01*
X191909Y387261D01*
X191929Y387355D01*
X191959Y387445D01*
X191977Y387574D01*
X192004Y387701D01*
X192012Y387831D01*
X192020Y387892D01*
X192019Y387936D01*
X192023Y388013D01*
X192023Y392623D01*
X193725Y396731D01*
X213569Y416575D01*
X217677Y418277D01*
X292803Y418277D01*
X292967Y418291D01*
X293131Y418298D01*
X293191Y418311D01*
X293251Y418317D01*
X293410Y418360D01*
X293571Y418396D01*
X293627Y418419D01*
X293686Y418435D01*
X293834Y418506D01*
X293986Y418569D01*
X294037Y418602D01*
X294092Y418629D01*
X294226Y418724D01*
X294364Y418814D01*
X294422Y418865D01*
X294458Y418891D01*
X294501Y418934D01*
X294598Y419020D01*
X296346Y420769D01*
X298587Y421697D01*
X319013Y421697D01*
X321254Y420769D01*
X322969Y419054D01*
X323897Y416813D01*
X323897Y397387D01*
X322969Y395146D01*
X321254Y393431D01*
X319013Y392503D01*
X298587Y392503D01*
X296346Y393431D01*
X294598Y395180D01*
X294472Y395285D01*
X294351Y395397D01*
X294300Y395429D01*
X294253Y395468D01*
X294110Y395550D01*
X293972Y395638D01*
X293915Y395662D01*
X293862Y395692D01*
X293707Y395747D01*
X293555Y395809D01*
X293495Y395822D01*
X293438Y395843D01*
X293275Y395869D01*
X293115Y395904D01*
X293038Y395909D01*
X292994Y395916D01*
X292932Y395915D01*
X292803Y395923D01*
X225581Y395923D01*
X225418Y395909D01*
X225253Y395902D01*
X225194Y395889D01*
X225133Y395883D01*
X224974Y395840D01*
X224814Y395804D01*
X224757Y395781D01*
X224698Y395765D01*
X224550Y395694D01*
X224398Y395631D01*
X224347Y395598D01*
X224292Y395571D01*
X224158Y395476D01*
X224020Y395386D01*
X223962Y395335D01*
X223926Y395309D01*
X223883Y395266D01*
X223786Y395180D01*
X215120Y386514D01*
X215015Y386388D01*
X214903Y386267D01*
X214871Y386216D01*
X214832Y386169D01*
X214750Y386026D01*
X214662Y385887D01*
X214638Y385831D01*
X214608Y385778D01*
X214553Y385623D01*
X214491Y385471D01*
X214478Y385411D01*
X214457Y385354D01*
X214431Y385191D01*
X214396Y385031D01*
X214391Y384954D01*
X214384Y384909D01*
X214385Y384848D01*
X214377Y384719D01*
X214377Y371793D01*
X214391Y371630D01*
X214398Y371465D01*
X214411Y371406D01*
X214417Y371345D01*
X214460Y371186D01*
X214496Y371026D01*
X214519Y370969D01*
X214535Y370911D01*
X214606Y370762D01*
X214669Y370610D01*
X214702Y370559D01*
X214729Y370504D01*
X214824Y370370D01*
X214914Y370232D01*
X214965Y370174D01*
X214991Y370138D01*
X215034Y370095D01*
X215120Y369998D01*
X215729Y369390D01*
X217817Y364348D01*
X217817Y343652D01*
X215729Y338610D01*
X211870Y334751D01*
X206828Y332663D01*
X201372Y332663D01*
G37*
%LPD*%
G36*
X615473Y195659D02*
X615473Y195659D01*
X615508Y195657D01*
X615697Y195679D01*
X615887Y195696D01*
X615921Y195705D01*
X615955Y195709D01*
X616138Y195765D01*
X616322Y195815D01*
X616353Y195830D01*
X616386Y195840D01*
X616557Y195926D01*
X616728Y196008D01*
X616757Y196028D01*
X616787Y196044D01*
X616939Y196159D01*
X617095Y196270D01*
X617119Y196295D01*
X617146Y196316D01*
X617275Y196456D01*
X617409Y196593D01*
X617428Y196622D01*
X617451Y196647D01*
X617554Y196808D01*
X617661Y196966D01*
X617675Y196998D01*
X617693Y197027D01*
X617766Y197203D01*
X617843Y197378D01*
X617851Y197411D01*
X617864Y197443D01*
X617904Y197630D01*
X617950Y197815D01*
X617952Y197850D01*
X617959Y197884D01*
X617978Y198196D01*
X617978Y202724D01*
X618906Y204965D01*
X620621Y206680D01*
X622862Y207608D01*
X654092Y207608D01*
X654119Y207611D01*
X654146Y207609D01*
X654343Y207631D01*
X654540Y207648D01*
X654567Y207655D01*
X654594Y207658D01*
X654784Y207715D01*
X654975Y207767D01*
X654999Y207778D01*
X655026Y207786D01*
X655204Y207876D01*
X655381Y207960D01*
X655404Y207976D01*
X655428Y207988D01*
X655587Y208107D01*
X655748Y208222D01*
X655767Y208242D01*
X655789Y208258D01*
X655923Y208403D01*
X656062Y208545D01*
X656077Y208568D01*
X656096Y208588D01*
X656203Y208754D01*
X656314Y208918D01*
X656325Y208943D01*
X656340Y208966D01*
X656415Y209148D01*
X656496Y209330D01*
X656502Y209356D01*
X656513Y209382D01*
X656556Y209575D01*
X656603Y209767D01*
X656604Y209794D01*
X656610Y209821D01*
X656631Y210133D01*
X656677Y218205D01*
X656674Y218247D01*
X656676Y218289D01*
X656655Y218472D01*
X656640Y218654D01*
X656629Y218694D01*
X656624Y218736D01*
X656571Y218912D01*
X656524Y219089D01*
X656506Y219127D01*
X656494Y219167D01*
X656411Y219331D01*
X656333Y219497D01*
X656309Y219531D01*
X656290Y219568D01*
X656179Y219714D01*
X656073Y219865D01*
X656043Y219894D01*
X656018Y219927D01*
X655883Y220052D01*
X655752Y220180D01*
X655717Y220204D01*
X655687Y220232D01*
X655532Y220331D01*
X655380Y220435D01*
X655342Y220452D01*
X655307Y220474D01*
X655137Y220544D01*
X654970Y220619D01*
X654929Y220629D01*
X654890Y220645D01*
X654711Y220684D01*
X654533Y220728D01*
X654491Y220731D01*
X654450Y220740D01*
X654138Y220759D01*
X622610Y220759D01*
X620370Y221687D01*
X618654Y223402D01*
X617726Y225643D01*
X617726Y239629D01*
X617712Y239792D01*
X617705Y239957D01*
X617692Y240016D01*
X617686Y240077D01*
X617643Y240236D01*
X617607Y240397D01*
X617584Y240453D01*
X617568Y240512D01*
X617497Y240660D01*
X617434Y240812D01*
X617401Y240863D01*
X617374Y240918D01*
X617279Y241052D01*
X617190Y241190D01*
X617138Y241248D01*
X617112Y241284D01*
X617069Y241327D01*
X617048Y241351D01*
X617034Y241369D01*
X617022Y241380D01*
X616983Y241424D01*
X613182Y245225D01*
X613055Y245331D01*
X612935Y245442D01*
X612883Y245475D01*
X612836Y245514D01*
X612694Y245596D01*
X612555Y245684D01*
X612498Y245707D01*
X612445Y245737D01*
X612290Y245793D01*
X612138Y245855D01*
X612079Y245868D01*
X612021Y245888D01*
X611859Y245915D01*
X611698Y245950D01*
X611621Y245954D01*
X611577Y245962D01*
X611516Y245961D01*
X611386Y245969D01*
X593587Y245969D01*
X591346Y246897D01*
X589631Y248612D01*
X588703Y250853D01*
X588703Y268652D01*
X588689Y268816D01*
X588682Y268980D01*
X588669Y269039D01*
X588663Y269100D01*
X588620Y269259D01*
X588584Y269420D01*
X588561Y269476D01*
X588545Y269535D01*
X588474Y269683D01*
X588411Y269835D01*
X588378Y269886D01*
X588351Y269941D01*
X588256Y270075D01*
X588166Y270213D01*
X588115Y270271D01*
X588089Y270307D01*
X588046Y270350D01*
X587960Y270447D01*
X577689Y280718D01*
X577563Y280823D01*
X577442Y280935D01*
X577391Y280967D01*
X577344Y281006D01*
X577201Y281088D01*
X577062Y281176D01*
X577006Y281200D01*
X576953Y281230D01*
X576798Y281285D01*
X576646Y281347D01*
X576586Y281360D01*
X576529Y281381D01*
X576366Y281407D01*
X576206Y281442D01*
X576129Y281447D01*
X576085Y281454D01*
X576023Y281453D01*
X575894Y281461D01*
X534821Y281461D01*
X534658Y281447D01*
X534493Y281440D01*
X534434Y281427D01*
X534373Y281421D01*
X534214Y281378D01*
X534054Y281342D01*
X533997Y281319D01*
X533939Y281303D01*
X533790Y281232D01*
X533638Y281169D01*
X533587Y281136D01*
X533532Y281109D01*
X533398Y281014D01*
X533260Y280924D01*
X533202Y280873D01*
X533166Y280847D01*
X533123Y280804D01*
X533026Y280718D01*
X531932Y279624D01*
X531833Y279505D01*
X531727Y279392D01*
X531689Y279333D01*
X531644Y279279D01*
X531567Y279144D01*
X531483Y279014D01*
X531455Y278949D01*
X531420Y278888D01*
X531368Y278742D01*
X531309Y278599D01*
X531293Y278530D01*
X531269Y278464D01*
X531244Y278311D01*
X531210Y278160D01*
X531207Y278089D01*
X531196Y278019D01*
X531198Y277864D01*
X531192Y277710D01*
X531201Y277640D01*
X531202Y277569D01*
X531232Y277417D01*
X531252Y277264D01*
X531274Y277196D01*
X531288Y277127D01*
X531343Y276983D01*
X531391Y276835D01*
X531424Y276773D01*
X531450Y276707D01*
X531530Y276574D01*
X531603Y276438D01*
X531647Y276383D01*
X531684Y276322D01*
X531786Y276206D01*
X531882Y276085D01*
X531935Y276038D01*
X531982Y275985D01*
X532103Y275889D01*
X532219Y275786D01*
X532280Y275749D01*
X532335Y275705D01*
X532471Y275633D01*
X532604Y275552D01*
X532670Y275526D01*
X532732Y275493D01*
X532879Y275445D01*
X533024Y275389D01*
X533093Y275375D01*
X533160Y275354D01*
X533313Y275333D01*
X533465Y275303D01*
X533556Y275299D01*
X533606Y275292D01*
X533664Y275295D01*
X533778Y275290D01*
X555958Y275724D01*
X556050Y275734D01*
X556142Y275734D01*
X556274Y275758D01*
X556406Y275773D01*
X556420Y275777D01*
X558632Y275777D01*
X558652Y275778D01*
X558682Y275777D01*
X560884Y275820D01*
X562005Y275356D01*
X562117Y275321D01*
X562225Y275276D01*
X562331Y275254D01*
X562435Y275221D01*
X562551Y275206D01*
X562665Y275182D01*
X562819Y275172D01*
X562882Y275164D01*
X562918Y275166D01*
X562977Y275162D01*
X573013Y275162D01*
X575254Y274234D01*
X576969Y272519D01*
X577897Y270278D01*
X577897Y250853D01*
X576969Y248612D01*
X575254Y246897D01*
X573013Y245969D01*
X552587Y245969D01*
X550346Y246897D01*
X548631Y248612D01*
X547676Y250918D01*
X547663Y251064D01*
X547648Y251121D01*
X547640Y251180D01*
X547588Y251338D01*
X547545Y251498D01*
X547519Y251552D01*
X547501Y251608D01*
X547423Y251755D01*
X547351Y251905D01*
X547317Y251953D01*
X547289Y252006D01*
X547186Y252136D01*
X547089Y252271D01*
X547047Y252312D01*
X547010Y252359D01*
X546886Y252469D01*
X546767Y252585D01*
X546717Y252618D01*
X546673Y252658D01*
X546531Y252744D01*
X546394Y252837D01*
X546339Y252861D01*
X546288Y252892D01*
X546134Y252952D01*
X545982Y253019D01*
X545924Y253033D01*
X545869Y253055D01*
X545705Y253087D01*
X545544Y253126D01*
X545485Y253129D01*
X545427Y253141D01*
X545114Y253154D01*
X535618Y252968D01*
X535514Y252957D01*
X535408Y252955D01*
X535290Y252932D01*
X535171Y252919D01*
X535070Y252890D01*
X534966Y252870D01*
X534854Y252826D01*
X534739Y252792D01*
X534644Y252745D01*
X534546Y252707D01*
X534443Y252645D01*
X534336Y252591D01*
X534252Y252528D01*
X534162Y252473D01*
X534071Y252394D01*
X533975Y252322D01*
X533903Y252245D01*
X533824Y252175D01*
X533750Y252081D01*
X533667Y251993D01*
X533610Y251905D01*
X533545Y251822D01*
X533488Y251716D01*
X533423Y251615D01*
X533382Y251518D01*
X533332Y251425D01*
X533295Y251311D01*
X533248Y251200D01*
X533226Y251097D01*
X533193Y250997D01*
X533177Y250878D01*
X533150Y250760D01*
X533146Y250655D01*
X533132Y250551D01*
X533137Y250431D01*
X533132Y250311D01*
X533146Y250206D01*
X533150Y250101D01*
X533176Y249984D01*
X533192Y249864D01*
X533225Y249764D01*
X533248Y249661D01*
X533294Y249551D01*
X533331Y249436D01*
X533381Y249343D01*
X533421Y249246D01*
X533487Y249145D01*
X533543Y249039D01*
X533608Y248956D01*
X533666Y248868D01*
X533700Y248829D01*
X535417Y244683D01*
X535417Y227216D01*
X535432Y227053D01*
X535439Y226888D01*
X535452Y226829D01*
X535457Y226768D01*
X535501Y226609D01*
X535536Y226449D01*
X535560Y226392D01*
X535576Y226333D01*
X535646Y226185D01*
X535710Y226033D01*
X535743Y225982D01*
X535769Y225927D01*
X535865Y225793D01*
X535954Y225655D01*
X536005Y225597D01*
X536031Y225561D01*
X536075Y225518D01*
X536161Y225421D01*
X536687Y224895D01*
X536687Y214583D01*
X529396Y207292D01*
X519085Y207292D01*
X511794Y214583D01*
X511794Y224895D01*
X512320Y225421D01*
X512426Y225547D01*
X512537Y225668D01*
X512570Y225719D01*
X512609Y225766D01*
X512691Y225909D01*
X512779Y226048D01*
X512802Y226104D01*
X512832Y226157D01*
X512887Y226312D01*
X512950Y226464D01*
X512963Y226524D01*
X512983Y226581D01*
X513010Y226744D01*
X513045Y226904D01*
X513049Y226982D01*
X513057Y227026D01*
X513056Y227086D01*
X513064Y227216D01*
X513064Y233084D01*
X513061Y233119D01*
X513063Y233153D01*
X513041Y233342D01*
X513024Y233533D01*
X513015Y233566D01*
X513011Y233600D01*
X512955Y233783D01*
X512905Y233967D01*
X512891Y233998D01*
X512881Y234031D01*
X512794Y234202D01*
X512712Y234374D01*
X512692Y234402D01*
X512676Y234433D01*
X512561Y234585D01*
X512450Y234740D01*
X512425Y234764D01*
X512404Y234791D01*
X512264Y234920D01*
X512127Y235054D01*
X512098Y235073D01*
X512073Y235097D01*
X511912Y235199D01*
X511754Y235306D01*
X511722Y235320D01*
X511693Y235338D01*
X511517Y235411D01*
X511342Y235488D01*
X511309Y235496D01*
X511277Y235509D01*
X511090Y235549D01*
X510905Y235595D01*
X510870Y235597D01*
X510836Y235604D01*
X510525Y235623D01*
X492677Y235623D01*
X490187Y236655D01*
X490017Y236708D01*
X489850Y236767D01*
X489803Y236775D01*
X489757Y236790D01*
X489581Y236812D01*
X489406Y236841D01*
X489358Y236840D01*
X489310Y236846D01*
X489133Y236837D01*
X488955Y236835D01*
X488908Y236826D01*
X488861Y236823D01*
X488688Y236783D01*
X488513Y236749D01*
X488469Y236732D01*
X488422Y236721D01*
X488259Y236651D01*
X488093Y236587D01*
X488052Y236562D01*
X488008Y236543D01*
X487860Y236445D01*
X487708Y236353D01*
X487673Y236321D01*
X487633Y236295D01*
X487504Y236173D01*
X487371Y236055D01*
X487341Y236017D01*
X487307Y235984D01*
X487202Y235841D01*
X487092Y235702D01*
X487069Y235660D01*
X487041Y235621D01*
X486963Y235461D01*
X486879Y235305D01*
X486864Y235259D01*
X486843Y235216D01*
X486795Y235045D01*
X486740Y234877D01*
X486733Y234829D01*
X486720Y234783D01*
X486703Y234607D01*
X486678Y234431D01*
X486680Y234383D01*
X486676Y234335D01*
X486690Y234158D01*
X486697Y233981D01*
X486707Y233934D01*
X486711Y233886D01*
X486756Y233715D01*
X486794Y233541D01*
X486813Y233497D01*
X486825Y233451D01*
X486900Y233289D01*
X486968Y233126D01*
X486994Y233086D01*
X487014Y233042D01*
X487116Y232896D01*
X487212Y232747D01*
X487252Y232703D01*
X487272Y232673D01*
X487317Y232629D01*
X487419Y232513D01*
X490323Y229610D01*
X493253Y226680D01*
X494645Y223319D01*
X494645Y215138D01*
X494659Y214974D01*
X494666Y214810D01*
X494679Y214750D01*
X494685Y214689D01*
X494728Y214530D01*
X494764Y214370D01*
X494787Y214314D01*
X494803Y214255D01*
X494874Y214107D01*
X494937Y213955D01*
X494970Y213903D01*
X494997Y213848D01*
X495092Y213715D01*
X495182Y213576D01*
X495233Y213519D01*
X495259Y213482D01*
X495302Y213440D01*
X495388Y213342D01*
X495581Y213150D01*
X496509Y210909D01*
X496509Y202633D01*
X496516Y202551D01*
X496514Y202468D01*
X496536Y202327D01*
X496549Y202184D01*
X496570Y202105D01*
X496583Y202023D01*
X496630Y201888D01*
X496667Y201750D01*
X496703Y201676D01*
X496729Y201598D01*
X496799Y201472D01*
X496861Y201343D01*
X496909Y201276D01*
X496949Y201204D01*
X497039Y201094D01*
X497123Y200977D01*
X497182Y200920D01*
X497234Y200856D01*
X497343Y200763D01*
X497445Y200663D01*
X497514Y200617D01*
X497576Y200563D01*
X497700Y200491D01*
X497819Y200411D01*
X497894Y200378D01*
X497965Y200336D01*
X498099Y200287D01*
X498230Y200229D01*
X498310Y200209D01*
X498388Y200181D01*
X498529Y200156D01*
X498668Y200122D01*
X498750Y200117D01*
X498831Y200103D01*
X498974Y200103D01*
X499117Y200094D01*
X499199Y200104D01*
X499281Y200104D01*
X499422Y200130D01*
X499564Y200147D01*
X499643Y200170D01*
X499724Y200185D01*
X499958Y200265D01*
X499995Y200277D01*
X500005Y200282D01*
X500020Y200287D01*
X503781Y201845D01*
X553760Y201845D01*
X553924Y201859D01*
X554088Y201866D01*
X554148Y201879D01*
X554209Y201885D01*
X554368Y201928D01*
X554528Y201964D01*
X554584Y201987D01*
X554643Y202003D01*
X554791Y202074D01*
X554943Y202137D01*
X554995Y202170D01*
X555050Y202197D01*
X555183Y202292D01*
X555322Y202382D01*
X555379Y202433D01*
X555416Y202459D01*
X555458Y202502D01*
X555556Y202588D01*
X569421Y216453D01*
X569526Y216580D01*
X569638Y216700D01*
X569671Y216752D01*
X569710Y216799D01*
X569791Y216941D01*
X569880Y217080D01*
X569903Y217137D01*
X569933Y217190D01*
X569988Y217345D01*
X570051Y217497D01*
X570063Y217556D01*
X570084Y217614D01*
X570111Y217776D01*
X570145Y217937D01*
X570150Y218014D01*
X570157Y218058D01*
X570157Y218119D01*
X570165Y218249D01*
X570165Y226593D01*
X571093Y228834D01*
X572808Y230549D01*
X575049Y231477D01*
X607474Y231477D01*
X609715Y230549D01*
X611430Y228834D01*
X612358Y226593D01*
X612358Y198196D01*
X612361Y198161D01*
X612359Y198126D01*
X612381Y197937D01*
X612398Y197747D01*
X612407Y197714D01*
X612411Y197679D01*
X612466Y197496D01*
X612516Y197313D01*
X612531Y197281D01*
X612541Y197248D01*
X612628Y197078D01*
X612710Y196906D01*
X612730Y196878D01*
X612746Y196847D01*
X612861Y196695D01*
X612972Y196540D01*
X612997Y196516D01*
X613018Y196488D01*
X613158Y196359D01*
X613295Y196226D01*
X613323Y196206D01*
X613349Y196183D01*
X613510Y196080D01*
X613668Y195974D01*
X613699Y195960D01*
X613729Y195941D01*
X613905Y195869D01*
X614079Y195792D01*
X614113Y195783D01*
X614145Y195770D01*
X614332Y195730D01*
X614517Y195685D01*
X614551Y195683D01*
X614585Y195675D01*
X614897Y195656D01*
X615439Y195656D01*
X615473Y195659D01*
G37*
%LPC*%
G36*
X141453Y50203D02*
X141453Y50203D01*
X127630Y64026D01*
X127630Y83574D01*
X141453Y97397D01*
X161001Y97397D01*
X174824Y83574D01*
X174824Y64026D01*
X161001Y50203D01*
X141453Y50203D01*
G37*
%LPD*%
G36*
X244090Y148140D02*
X244090Y148140D01*
X244268Y148142D01*
X244315Y148151D01*
X244362Y148154D01*
X244535Y148194D01*
X244710Y148228D01*
X244754Y148245D01*
X244801Y148256D01*
X244964Y148326D01*
X245130Y148390D01*
X245171Y148415D01*
X245215Y148434D01*
X245363Y148532D01*
X245515Y148624D01*
X245550Y148656D01*
X245590Y148682D01*
X245719Y148804D01*
X245852Y148922D01*
X245882Y148960D01*
X245916Y148993D01*
X246021Y149136D01*
X246131Y149275D01*
X246154Y149317D01*
X246182Y149356D01*
X246260Y149516D01*
X246344Y149672D01*
X246359Y149718D01*
X246380Y149761D01*
X246428Y149932D01*
X246483Y150100D01*
X246490Y150148D01*
X246503Y150194D01*
X246520Y150370D01*
X246545Y150546D01*
X246543Y150594D01*
X246547Y150642D01*
X246533Y150819D01*
X246526Y150996D01*
X246516Y151043D01*
X246512Y151091D01*
X246467Y151262D01*
X246429Y151436D01*
X246410Y151480D01*
X246398Y151526D01*
X246323Y151688D01*
X246255Y151851D01*
X246229Y151891D01*
X246209Y151935D01*
X246107Y152080D01*
X246011Y152230D01*
X245971Y152274D01*
X245951Y152304D01*
X245906Y152348D01*
X245804Y152464D01*
X240647Y157620D01*
X239255Y160981D01*
X239255Y179460D01*
X239241Y179624D01*
X239234Y179788D01*
X239221Y179848D01*
X239215Y179909D01*
X239172Y180067D01*
X239136Y180228D01*
X239113Y180284D01*
X239097Y180343D01*
X239026Y180491D01*
X238963Y180643D01*
X238930Y180695D01*
X238903Y180750D01*
X238808Y180883D01*
X238719Y181022D01*
X238667Y181079D01*
X238641Y181116D01*
X238598Y181159D01*
X238512Y181256D01*
X237056Y182712D01*
X236930Y182817D01*
X236809Y182929D01*
X236757Y182961D01*
X236711Y183000D01*
X236568Y183082D01*
X236429Y183170D01*
X236373Y183194D01*
X236320Y183224D01*
X236164Y183279D01*
X236012Y183341D01*
X235953Y183354D01*
X235895Y183375D01*
X235733Y183401D01*
X235572Y183436D01*
X235495Y183441D01*
X235451Y183448D01*
X235390Y183447D01*
X235260Y183455D01*
X215740Y183455D01*
X215576Y183441D01*
X215412Y183434D01*
X215352Y183421D01*
X215291Y183415D01*
X215132Y183372D01*
X214972Y183336D01*
X214916Y183313D01*
X214857Y183297D01*
X214709Y183226D01*
X214556Y183163D01*
X214505Y183130D01*
X214450Y183103D01*
X214317Y183008D01*
X214178Y182918D01*
X214120Y182867D01*
X214084Y182841D01*
X214042Y182798D01*
X213944Y182712D01*
X207680Y176448D01*
X207605Y176358D01*
X207523Y176275D01*
X207461Y176186D01*
X207391Y176102D01*
X207333Y176001D01*
X204661Y173328D01*
X204594Y173300D01*
X204503Y173241D01*
X204406Y173191D01*
X204314Y173119D01*
X204216Y173056D01*
X204100Y172954D01*
X204050Y172915D01*
X204026Y172888D01*
X203981Y172849D01*
X195888Y164756D01*
X195783Y164630D01*
X195671Y164509D01*
X195639Y164457D01*
X195600Y164410D01*
X195518Y164268D01*
X195430Y164129D01*
X195406Y164072D01*
X195376Y164020D01*
X195321Y163864D01*
X195259Y163712D01*
X195246Y163653D01*
X195225Y163595D01*
X195199Y163433D01*
X195164Y163272D01*
X195159Y163195D01*
X195152Y163151D01*
X195153Y163090D01*
X195145Y162960D01*
X195145Y160913D01*
X195147Y160892D01*
X195146Y160876D01*
X195156Y160788D01*
X195156Y160784D01*
X195158Y160654D01*
X195176Y160560D01*
X195185Y160465D01*
X195219Y160339D01*
X195244Y160212D01*
X195278Y160123D01*
X195303Y160031D01*
X195359Y159913D01*
X195406Y159792D01*
X195456Y159710D01*
X195497Y159624D01*
X195572Y159518D01*
X195640Y159407D01*
X195703Y159336D01*
X195759Y159258D01*
X195852Y159167D01*
X195938Y159070D01*
X196013Y159010D01*
X196081Y158944D01*
X196189Y158871D01*
X196291Y158790D01*
X196375Y158745D01*
X196454Y158692D01*
X196573Y158639D01*
X196688Y158578D01*
X196779Y158548D01*
X196866Y158509D01*
X196993Y158479D01*
X197116Y158438D01*
X197211Y158425D01*
X197304Y158403D01*
X197433Y158395D01*
X197562Y158377D01*
X197658Y158381D01*
X197753Y158375D01*
X197882Y158390D01*
X198012Y158395D01*
X198105Y158416D01*
X198200Y158427D01*
X198325Y158465D01*
X198452Y158493D01*
X198540Y158530D01*
X198631Y158557D01*
X198747Y158617D01*
X198867Y158667D01*
X198947Y158718D01*
X199033Y158762D01*
X199136Y158840D01*
X199245Y158911D01*
X199343Y158997D01*
X199391Y159034D01*
X199422Y159067D01*
X199480Y159118D01*
X202196Y161834D01*
X206286Y163529D01*
X210714Y163529D01*
X214804Y161835D01*
X217935Y158704D01*
X219725Y154381D01*
X219779Y154277D01*
X219824Y154169D01*
X219883Y154078D01*
X219934Y153982D01*
X220005Y153889D01*
X220069Y153791D01*
X220171Y153676D01*
X220209Y153626D01*
X220236Y153601D01*
X220276Y153557D01*
X224644Y149188D01*
X224770Y149083D01*
X224891Y148971D01*
X224943Y148939D01*
X224990Y148900D01*
X225132Y148818D01*
X225271Y148730D01*
X225328Y148706D01*
X225380Y148676D01*
X225535Y148621D01*
X225688Y148559D01*
X225747Y148546D01*
X225805Y148525D01*
X225967Y148499D01*
X226128Y148464D01*
X226205Y148459D01*
X226249Y148452D01*
X226310Y148453D01*
X226440Y148445D01*
X235954Y148445D01*
X236071Y148455D01*
X236187Y148455D01*
X236294Y148475D01*
X236403Y148485D01*
X236516Y148515D01*
X236630Y148536D01*
X236776Y148587D01*
X236837Y148603D01*
X236870Y148619D01*
X236926Y148638D01*
X237386Y148829D01*
X241814Y148829D01*
X243036Y148322D01*
X243206Y148269D01*
X243373Y148210D01*
X243420Y148202D01*
X243466Y148187D01*
X243642Y148165D01*
X243818Y148136D01*
X243865Y148137D01*
X243913Y148131D01*
X244090Y148140D01*
G37*
%LPC*%
G36*
X434339Y62299D02*
X434339Y62299D01*
X426899Y69739D01*
X426899Y72460D01*
X426896Y72495D01*
X426898Y72529D01*
X426876Y72718D01*
X426859Y72909D01*
X426850Y72942D01*
X426846Y72976D01*
X426791Y73159D01*
X426741Y73343D01*
X426726Y73374D01*
X426716Y73407D01*
X426629Y73578D01*
X426547Y73750D01*
X426527Y73778D01*
X426512Y73809D01*
X426396Y73961D01*
X426285Y74116D01*
X426260Y74140D01*
X426240Y74167D01*
X426100Y74296D01*
X425963Y74430D01*
X425934Y74449D01*
X425908Y74473D01*
X425747Y74575D01*
X425590Y74682D01*
X425558Y74696D01*
X425529Y74714D01*
X425352Y74787D01*
X425178Y74864D01*
X425144Y74872D01*
X425112Y74885D01*
X424925Y74925D01*
X424740Y74971D01*
X424706Y74973D01*
X424672Y74980D01*
X424360Y74999D01*
X415289Y74999D01*
X407849Y82439D01*
X407849Y92961D01*
X415289Y100401D01*
X425811Y100401D01*
X433251Y92961D01*
X433251Y90240D01*
X433254Y90205D01*
X433252Y90171D01*
X433274Y89982D01*
X433291Y89791D01*
X433300Y89758D01*
X433304Y89724D01*
X433359Y89541D01*
X433409Y89357D01*
X433424Y89326D01*
X433434Y89293D01*
X433521Y89122D01*
X433603Y88950D01*
X433623Y88922D01*
X433638Y88891D01*
X433754Y88739D01*
X433865Y88584D01*
X433890Y88560D01*
X433910Y88533D01*
X434050Y88404D01*
X434187Y88270D01*
X434216Y88251D01*
X434242Y88227D01*
X434403Y88125D01*
X434560Y88018D01*
X434592Y88004D01*
X434621Y87986D01*
X434798Y87913D01*
X434972Y87836D01*
X435006Y87828D01*
X435038Y87815D01*
X435225Y87775D01*
X435410Y87729D01*
X435444Y87727D01*
X435478Y87720D01*
X435790Y87701D01*
X444861Y87701D01*
X452301Y80261D01*
X452301Y69739D01*
X444861Y62299D01*
X434339Y62299D01*
G37*
%LPD*%
%LPC*%
G36*
X518872Y343273D02*
X518872Y343273D01*
X513830Y345361D01*
X509971Y349220D01*
X507883Y354262D01*
X507883Y374958D01*
X509971Y380000D01*
X513830Y383859D01*
X518872Y385947D01*
X524328Y385947D01*
X529370Y383859D01*
X533229Y380000D01*
X535317Y374958D01*
X535317Y354262D01*
X533229Y349220D01*
X529370Y345361D01*
X524328Y343273D01*
X518872Y343273D01*
G37*
%LPD*%
%LPC*%
G36*
X41459Y287688D02*
X41459Y287688D01*
X34167Y294979D01*
X34167Y305290D01*
X41459Y312581D01*
X51770Y312581D01*
X56428Y307923D01*
X56455Y307901D01*
X56478Y307875D01*
X56627Y307757D01*
X56773Y307634D01*
X56804Y307617D01*
X56831Y307596D01*
X56999Y307506D01*
X57164Y307411D01*
X57197Y307399D01*
X57228Y307383D01*
X57409Y307324D01*
X57589Y307260D01*
X57623Y307254D01*
X57656Y307244D01*
X57844Y307218D01*
X58033Y307187D01*
X58068Y307187D01*
X58102Y307182D01*
X58292Y307190D01*
X58483Y307193D01*
X58517Y307199D01*
X58552Y307201D01*
X58738Y307242D01*
X58925Y307278D01*
X58958Y307291D01*
X58991Y307298D01*
X59167Y307372D01*
X59345Y307440D01*
X59375Y307459D01*
X59407Y307472D01*
X59567Y307575D01*
X59730Y307674D01*
X59756Y307697D01*
X59785Y307716D01*
X60019Y307923D01*
X64804Y312708D01*
X75115Y312708D01*
X82406Y305417D01*
X82406Y295105D01*
X75115Y287814D01*
X64804Y287814D01*
X60146Y292473D01*
X60119Y292495D01*
X60096Y292521D01*
X59947Y292639D01*
X59800Y292762D01*
X59770Y292779D01*
X59743Y292800D01*
X59575Y292890D01*
X59409Y292985D01*
X59377Y292997D01*
X59346Y293013D01*
X59165Y293072D01*
X58985Y293136D01*
X58951Y293141D01*
X58918Y293152D01*
X58729Y293178D01*
X58541Y293209D01*
X58506Y293209D01*
X58472Y293214D01*
X58281Y293206D01*
X58090Y293203D01*
X58056Y293197D01*
X58022Y293195D01*
X57836Y293154D01*
X57648Y293118D01*
X57616Y293105D01*
X57582Y293098D01*
X57406Y293024D01*
X57228Y292955D01*
X57199Y292937D01*
X57167Y292924D01*
X57007Y292820D01*
X56844Y292721D01*
X56818Y292698D01*
X56789Y292680D01*
X56554Y292473D01*
X51770Y287688D01*
X41459Y287688D01*
G37*
%LPD*%
%LPC*%
G36*
X593103Y362121D02*
X593103Y362121D01*
X584621Y370603D01*
X584621Y382597D01*
X593103Y391079D01*
X605097Y391079D01*
X613579Y382597D01*
X613579Y370603D01*
X605097Y362121D01*
X593103Y362121D01*
G37*
%LPD*%
D10*
X668173Y451655D02*
X3400Y453200D01*
X5600Y1600D01*
X665600Y1600D02*
X668173Y451655D01*
X666573Y955D02*
X5600Y1600D01*
D11*
X232474Y91741D03*
X232474Y74741D03*
D12*
X524741Y156739D03*
D13*
X548086Y156865D03*
D12*
X524241Y219739D03*
D13*
X547586Y219865D03*
D12*
X524641Y88939D03*
D13*
X547986Y89065D03*
D14*
X603800Y260566D03*
X562800Y260566D03*
D15*
X269821Y76657D03*
X269821Y128657D03*
X257121Y76657D03*
X282521Y76657D03*
X295221Y76657D03*
X257121Y128657D03*
X282521Y128657D03*
X295221Y128657D03*
X320621Y76657D03*
X320621Y128657D03*
X307921Y76657D03*
X333321Y76657D03*
X307921Y128657D03*
X333321Y128657D03*
D16*
X443451Y127737D03*
X443451Y140437D03*
X443451Y153137D03*
X443451Y165837D03*
X443451Y178537D03*
X443451Y191237D03*
X443451Y203937D03*
X443451Y216637D03*
X378651Y216637D03*
X378651Y203937D03*
X378651Y191237D03*
X378651Y178537D03*
X378651Y165837D03*
X378651Y153137D03*
X378651Y140437D03*
X378651Y127737D03*
D11*
X485412Y204197D03*
X468412Y204197D03*
X361219Y54162D03*
X378219Y54162D03*
D17*
X335788Y168058D03*
X335788Y151058D03*
D11*
X302636Y198076D03*
X319636Y198076D03*
X306301Y172508D03*
X289301Y172508D03*
X485370Y178404D03*
X468370Y178404D03*
X485554Y153032D03*
X468554Y153032D03*
X485596Y126981D03*
X468596Y126981D03*
D17*
X355701Y94145D03*
X355701Y111145D03*
D11*
X275575Y52192D03*
X292575Y52192D03*
D18*
X591544Y163038D03*
X638823Y241856D03*
X638407Y140307D03*
X591655Y85724D03*
X638854Y414530D03*
X591261Y210381D03*
X639075Y186512D03*
X638072Y63226D03*
D19*
X439600Y100400D03*
X420550Y87700D03*
X439600Y75000D03*
D20*
X174627Y236200D03*
D21*
X152227Y140300D03*
D20*
X34727Y95600D03*
X151227Y73800D03*
X34727Y209700D03*
D21*
X152727Y182700D03*
D17*
X324700Y39200D03*
X307700Y39200D03*
D22*
X73700Y19000D03*
X47700Y19200D03*
X149800Y19400D03*
X99100Y19300D03*
X124200Y19300D03*
D23*
X364850Y255700D03*
X448350Y255700D03*
D11*
X523000Y263900D03*
X506000Y263900D03*
D24*
X445400Y374770D02*
X445400Y390010D01*
X521600Y372230D02*
X521600Y356990D01*
X446300Y322610D02*
X446300Y307370D01*
X522500Y304830D02*
X522500Y289590D01*
D13*
X69959Y300261D03*
D12*
X46614Y300135D03*
D25*
X599100Y376600D03*
X599100Y325800D03*
D24*
X204100Y346380D02*
X204100Y361620D01*
X229500Y361620D02*
X229500Y346380D01*
X254900Y346380D02*
X254900Y361620D01*
D25*
X123500Y382100D03*
X123500Y331300D03*
D14*
X349800Y407100D03*
X308800Y407100D03*
D26*
X305239Y327859D03*
D27*
X305365Y304514D03*
D28*
X410000Y216637D02*
X443451Y216637D01*
X402019Y191237D02*
X378651Y191237D01*
X402019Y191237D02*
X410000Y199218D01*
X410369Y199587D02*
X410369Y213200D01*
X410369Y216268D01*
X410000Y216637D01*
X418719Y191237D02*
X443451Y191237D01*
X418719Y191237D02*
X410369Y199587D01*
X421600Y165837D02*
X443451Y165837D01*
X421600Y165837D02*
X417557Y165837D01*
X411476Y171918D01*
X411476Y172472D01*
X410384Y173563D01*
X410000Y173947D01*
X410000Y199218D01*
X410369Y199587D01*
X401890Y165837D02*
X378651Y165837D01*
X401890Y165837D02*
X410000Y173947D01*
X416597Y140437D02*
X443451Y140437D01*
X416597Y140437D02*
X409762Y147272D01*
X409762Y172940D02*
X410384Y173563D01*
X402927Y140437D02*
X378651Y140437D01*
X232474Y91741D02*
X222641Y91741D01*
X208600Y77700D01*
X207600Y48700D01*
D29*
X207600Y48700D03*
D28*
X409762Y147272D02*
X409762Y172940D01*
X409762Y147272D02*
X402927Y140437D01*
X421600Y155700D02*
X421600Y165837D01*
D29*
X421600Y155700D03*
D28*
X249164Y120700D02*
X241600Y120700D01*
X232600Y111700D01*
X232600Y91866D01*
X232474Y91741D01*
X416597Y110703D02*
X416597Y140437D01*
X416597Y110703D02*
X416600Y110700D01*
D29*
X416600Y110700D03*
D28*
X385600Y39100D02*
X324700Y39200D01*
X385600Y39100D02*
X400700Y52600D01*
X400700Y94800D01*
X416600Y110700D01*
X208600Y77700D02*
X196300Y90000D01*
D30*
X226100Y214300D03*
D28*
X226000Y167160D02*
X256460Y139241D01*
X226000Y167160D02*
X226000Y180280D01*
X226060Y180340D01*
D30*
X226060Y180340D03*
D28*
X97800Y82100D02*
X97800Y20600D01*
X99100Y19300D01*
X196300Y90000D02*
X196300Y90400D01*
X184700Y102000D01*
X117700Y102000D01*
X97800Y82100D01*
X378651Y216637D02*
X410369Y216637D01*
D31*
X410369Y213200D01*
D28*
X257121Y128657D02*
X249164Y120700D01*
X256460Y129318D02*
X256460Y139241D01*
X256460Y129318D02*
X257121Y128657D01*
X344363Y216637D02*
X378651Y216637D01*
X344363Y216637D02*
X331800Y229200D01*
X241000Y229200D01*
X226100Y214300D01*
D32*
X127100Y331300D02*
X123500Y331300D01*
X127100Y331300D02*
X143600Y314800D01*
X220600Y314800D01*
X228300Y322500D01*
X229600Y323800D01*
X246286Y304514D02*
X305365Y304514D01*
X246286Y304514D02*
X228300Y322500D01*
D33*
X548086Y156865D02*
X548086Y140814D01*
X558700Y130200D01*
X628300Y130200D01*
X638407Y140307D01*
D32*
X229500Y354000D02*
X229500Y382200D01*
X235100Y387800D01*
X287300Y387800D01*
X300500Y374600D01*
X300500Y359000D01*
X307100Y352400D01*
X425300Y352400D01*
X446300Y331400D01*
X446300Y314990D01*
X229600Y323800D02*
X229600Y353900D01*
X229500Y354000D01*
D28*
X232474Y74741D02*
X255205Y74741D01*
X256949Y76485D01*
X275575Y52192D02*
X275262Y51879D01*
X256949Y76485D02*
X257121Y76657D01*
X275575Y52192D02*
X275600Y52166D01*
D29*
X335062Y54162D03*
X288600Y188700D03*
X336600Y180700D03*
D28*
X336600Y168870D01*
X335788Y168058D01*
X289224Y188076D02*
X288600Y188700D01*
X257121Y95179D02*
X257121Y76657D01*
X257121Y95179D02*
X247600Y104700D01*
D29*
X247600Y104700D03*
X239600Y137700D03*
X208500Y152400D03*
D28*
X335062Y54162D02*
X335138Y54162D01*
X335062Y54162D02*
X361219Y54162D01*
X289301Y172508D02*
X289301Y187999D01*
X288600Y188700D01*
X297976Y198076D02*
X302636Y198076D01*
X297976Y198076D02*
X288600Y188700D01*
X256949Y76485D02*
X256949Y61151D01*
X266300Y51800D01*
X275183Y51800D01*
X275575Y52192D01*
X275575Y52075D01*
X275475Y52075D01*
D29*
X257400Y38800D03*
D28*
X275475Y41404D02*
X275475Y52075D01*
X275475Y41404D02*
X272915Y38844D01*
X257444Y38844D01*
X257400Y38800D01*
X239600Y137700D02*
X239200Y138100D01*
X239600Y137700D02*
X238000Y139300D01*
X221600Y139300D01*
X208500Y152400D01*
X256044Y38844D02*
X257444Y38844D01*
X256044Y38844D02*
X248000Y30800D01*
X170600Y30800D01*
X165800Y35600D01*
X131700Y35600D01*
X124300Y28200D01*
X124300Y19400D01*
X124200Y19300D01*
D32*
X524241Y219739D02*
X524241Y242459D01*
X519900Y246800D01*
X494900Y246800D01*
X483600Y258100D01*
X450750Y258100D01*
X448350Y255700D01*
D28*
X320621Y96679D02*
X320621Y76657D01*
X320621Y96679D02*
X320600Y96700D01*
D29*
X320600Y96700D03*
D28*
X485596Y126981D02*
X486877Y125700D01*
X638072Y63226D02*
X638500Y63654D01*
X638500Y82700D01*
X610000Y111200D01*
X501377Y111200D01*
X485596Y126981D01*
X467840Y127737D02*
X443451Y127737D01*
X467840Y127737D02*
X468596Y126981D01*
X485554Y153032D02*
X509222Y176700D01*
X567412Y186512D02*
X639075Y186512D01*
X567412Y186512D02*
X557500Y176600D01*
X509322Y176600D01*
X509222Y176700D01*
X468449Y153137D02*
X443451Y153137D01*
X468449Y153137D02*
X468554Y153032D01*
X485370Y178404D02*
X485667Y178700D01*
X491304Y178404D02*
X505600Y192700D01*
X491304Y178404D02*
X485370Y178404D01*
X576600Y210700D02*
X590942Y210700D01*
X591261Y210381D01*
X558600Y192700D02*
X505600Y192700D01*
X558600Y192700D02*
X576600Y210700D01*
X468237Y178537D02*
X443451Y178537D01*
X468237Y178537D02*
X468370Y178404D01*
X468153Y203937D02*
X443451Y203937D01*
X468153Y203937D02*
X468412Y204197D01*
X333788Y128657D02*
X333321Y128657D01*
X335788Y151058D02*
X335710Y153137D01*
X337867Y153137D02*
X378651Y153137D01*
X337867Y153137D02*
X335788Y151058D01*
X333788Y149058D02*
X333788Y128657D01*
X333788Y149058D02*
X335788Y151058D01*
X378651Y127737D02*
X378651Y72751D01*
X333321Y76657D02*
X333321Y76979D01*
X333321Y84421D01*
X333321Y76979D02*
X342600Y67700D01*
X373600Y67700D01*
X378600Y62700D01*
X378600Y54543D01*
X378219Y54162D01*
X373600Y67700D02*
X378651Y72751D01*
X320621Y128657D02*
X319976Y128657D01*
X320621Y128657D02*
X320621Y188060D01*
X319636Y198076D01*
X324260Y191700D01*
X368863Y178537D02*
X378651Y178537D01*
X368863Y178537D02*
X355700Y191700D01*
X324260Y191700D01*
X295221Y76657D02*
X295221Y54837D01*
X292575Y52192D01*
X299459Y38755D02*
X307700Y39200D01*
X299459Y38755D02*
X296600Y38600D01*
X292100Y43800D01*
X292100Y51717D02*
X292575Y52192D01*
X292100Y51717D02*
X292100Y43800D01*
X299459Y38755D02*
X280105Y19400D01*
X149800Y19400D01*
X302155Y111145D02*
X355701Y111145D01*
X302155Y111145D02*
X295600Y117700D01*
X295600Y128277D01*
X295221Y128657D01*
D29*
X354600Y78700D03*
D28*
X354600Y94045D02*
X355701Y94145D01*
X354600Y94045D02*
X354600Y78700D01*
D32*
X603800Y260566D02*
X620113Y260566D01*
X638823Y241856D01*
D33*
X583469Y297210D02*
X522500Y297210D01*
X583469Y297210D02*
X638823Y241856D01*
D28*
X307921Y128657D02*
X307600Y128977D01*
X307600Y154200D01*
X307600Y171209D01*
X306301Y172508D01*
X342363Y203937D02*
X378651Y203937D01*
X342363Y203937D02*
X328600Y217700D01*
X294600Y217700D01*
X274600Y197700D01*
X274600Y161900D01*
X282500Y154000D01*
X307400Y154000D01*
X307600Y154200D01*
X199500Y181100D02*
X199500Y181200D01*
X210900Y192600D01*
X240100Y192600D02*
X248400Y184300D01*
X248400Y162800D01*
X270200Y141000D01*
X270200Y129036D01*
X269821Y128657D01*
X240100Y192600D02*
X210900Y192600D01*
X199500Y181200D02*
X199400Y181200D01*
X186000Y167800D01*
X186000Y135300D01*
X168700Y118000D01*
X106500Y118000D01*
X80200Y91700D01*
X80200Y52300D01*
X73100Y45200D01*
X73100Y19600D01*
X73700Y19000D01*
X282521Y128657D02*
X282521Y140879D01*
X270700Y152700D01*
X270700Y153000D01*
X265800Y157900D01*
X265800Y158100D01*
X259700Y164200D01*
X259700Y189800D01*
X247900Y201600D01*
X64600Y68100D02*
X46200Y49700D01*
X46200Y20700D01*
X47700Y19200D01*
X136800Y201600D02*
X247900Y201600D01*
X136800Y201600D02*
X127400Y192200D01*
X127400Y137500D01*
X120400Y130500D01*
X98400Y130500D01*
X64600Y96700D01*
X64600Y68100D01*
D32*
X523000Y263900D02*
X558766Y264600D01*
X562800Y260566D01*
X364850Y257950D02*
X364850Y255700D01*
X364850Y257950D02*
X383200Y276300D01*
X493600Y276300D01*
X506000Y263900D01*
X308800Y407100D02*
X219900Y407100D01*
X203200Y390400D01*
X203200Y354900D01*
X204100Y354000D01*
X176000Y382100D02*
X123500Y382100D01*
X176000Y382100D02*
X204100Y354000D01*
X302500Y330598D02*
X305239Y327859D01*
D28*
X322741Y327859D01*
X333400Y317200D01*
X333400Y251500D01*
X351000Y233900D01*
X473100Y233900D01*
X485500Y221500D01*
X485500Y204284D01*
X485412Y204197D01*
D32*
X279098Y354000D02*
X254900Y354000D01*
X279098Y354000D02*
X305239Y327859D01*
X349800Y407100D02*
X424600Y407100D01*
X431300Y413800D01*
X638124Y413800D01*
X638854Y414530D01*
M02*
