%
M48
M72
T01C0.0236
T02C0.0300
T03C0.0320
T04C0.0591
T05C0.0709
T06C0.0787
%
T01
X20787Y7157
X18346Y5897
X17008Y6606
X14134Y6921
X13819Y8220
X12594Y8799
X13285Y9899
X15748Y10228
X17637Y9913
X20984Y8929
X24212Y7196
X24134Y10858
X13287Y11236
X17577Y4931
X14519Y4326
X12559Y4716
T02
X25041Y6300
X25960Y6305
X25944Y11455
X25025Y11450
X25964Y8975
X25045Y8970
T03
X6263Y3555
X7287Y3547
X8287Y3559
X9275Y3559
X10283Y3563
X20943Y6252
X21693Y6752
X21693Y5752
T04
X10379Y8322
X10398Y9992
T05
X27679Y6174
X29506Y5288
X27691Y4060
X29520Y8323
X27675Y9218
X29546Y10142
X27664Y11082
X29536Y12321
T06
X10339Y5704
X5753Y6563
X5753Y11055
X11261Y12098
M30
