G04 EAGLE Gerber X2 export*
%TF.Part,Single*%
%TF.FileFunction,Other,Solder side*%
%TF.FilePolarity,Positive*%
%TF.GenerationSoftware,Autodesk,EAGLE,9.0.0*%
%TF.CreationDate,2018-05-29T16:10:46Z*%
G75*
%MOMM*%
%FSLAX34Y34*%
%LPD*%
%AMOC8*
5,1,8,0,0,1.08239X$1,22.5*%
G01*
%ADD10C,0.000000*%
%ADD11R,1.000000X1.100000*%
%ADD12P,1.374635X8X202.500000*%
%ADD13P,1.374635X8X22.500000*%
%ADD14R,1.700000X1.800000*%
%ADD15R,2.235200X1.219200*%
%ADD16R,2.200000X3.600000*%
%ADD17R,0.900000X0.800000*%
%ADD18R,1.100000X1.000000*%
%ADD19R,3.000000X3.000000*%
%ADD20P,1.429621X8X112.500000*%
%ADD21P,3.788365X8X202.500000*%
%ADD22P,2.705975X8X202.500000*%
%ADD23R,1.520000X1.780000*%
%ADD24R,1.800000X1.700000*%
%ADD25R,1.600200X1.600200*%
%ADD26C,1.524000*%
%ADD27P,1.814519X8X292.500000*%
%ADD28P,1.374635X8X112.500000*%
%ADD29P,1.374635X8X292.500000*%
%ADD30C,0.609600*%
%ADD31C,0.812800*%
%ADD32C,1.006400*%
%ADD33P,1.089317X8X22.500000*%
%ADD34C,1.930400*%
%ADD35C,1.016000*%

G36*
X615313Y79474D02*
X615313Y79474D01*
X615360Y79471D01*
X615537Y79491D01*
X615714Y79505D01*
X615760Y79517D01*
X615808Y79523D01*
X615978Y79574D01*
X616149Y79619D01*
X616193Y79639D01*
X616239Y79653D01*
X616397Y79734D01*
X616558Y79808D01*
X616597Y79836D01*
X616640Y79857D01*
X616781Y79964D01*
X616927Y80067D01*
X616961Y80101D01*
X616999Y80129D01*
X617119Y80260D01*
X617244Y80386D01*
X617271Y80425D01*
X617304Y80460D01*
X617399Y80611D01*
X617500Y80756D01*
X617526Y80810D01*
X617546Y80840D01*
X617570Y80899D01*
X617637Y81037D01*
X617903Y81680D01*
X619618Y83395D01*
X621859Y84323D01*
X653387Y84323D01*
X653415Y84325D01*
X653442Y84323D01*
X653638Y84345D01*
X653836Y84363D01*
X653862Y84370D01*
X653889Y84373D01*
X654080Y84429D01*
X654270Y84481D01*
X654295Y84493D01*
X654321Y84501D01*
X654499Y84590D01*
X654677Y84675D01*
X654699Y84690D01*
X654723Y84703D01*
X654882Y84822D01*
X655043Y84937D01*
X655062Y84956D01*
X655084Y84973D01*
X655218Y85117D01*
X655357Y85259D01*
X655372Y85282D01*
X655391Y85302D01*
X655498Y85468D01*
X655609Y85632D01*
X655620Y85658D01*
X655635Y85681D01*
X655711Y85863D01*
X655791Y86044D01*
X655798Y86071D01*
X655808Y86096D01*
X655851Y86289D01*
X655898Y86482D01*
X655899Y86509D01*
X655905Y86536D01*
X655926Y86848D01*
X656117Y120212D01*
X656114Y120254D01*
X656116Y120296D01*
X656095Y120478D01*
X656080Y120661D01*
X656069Y120701D01*
X656064Y120743D01*
X656011Y120919D01*
X655964Y121096D01*
X655946Y121134D01*
X655934Y121174D01*
X655850Y121338D01*
X655773Y121504D01*
X655748Y121538D01*
X655729Y121575D01*
X655619Y121721D01*
X655513Y121871D01*
X655483Y121900D01*
X655457Y121934D01*
X655322Y122058D01*
X655192Y122187D01*
X655157Y122211D01*
X655126Y122239D01*
X654972Y122338D01*
X654820Y122441D01*
X654782Y122458D01*
X654747Y122481D01*
X654577Y122551D01*
X654409Y122626D01*
X654369Y122636D01*
X654330Y122652D01*
X654150Y122691D01*
X653973Y122735D01*
X653931Y122738D01*
X653890Y122747D01*
X653578Y122766D01*
X642906Y122766D01*
X642906Y138346D01*
X642903Y138381D01*
X642905Y138415D01*
X642883Y138605D01*
X642866Y138795D01*
X642857Y138828D01*
X642853Y138863D01*
X642798Y139046D01*
X642748Y139229D01*
X642733Y139260D01*
X642723Y139294D01*
X642636Y139464D01*
X642554Y139636D01*
X642534Y139664D01*
X642519Y139695D01*
X642403Y139847D01*
X642292Y140002D01*
X642267Y140026D01*
X642247Y140054D01*
X642107Y140183D01*
X641977Y140309D01*
X642023Y140341D01*
X642047Y140366D01*
X642074Y140387D01*
X642203Y140527D01*
X642337Y140664D01*
X642356Y140693D01*
X642380Y140718D01*
X642482Y140879D01*
X642589Y141037D01*
X642603Y141069D01*
X642621Y141098D01*
X642694Y141275D01*
X642771Y141449D01*
X642779Y141483D01*
X642792Y141515D01*
X642832Y141701D01*
X642878Y141886D01*
X642880Y141921D01*
X642887Y141955D01*
X642906Y142267D01*
X642906Y157847D01*
X653807Y157847D01*
X653835Y157850D01*
X653862Y157848D01*
X654058Y157870D01*
X654256Y157887D01*
X654282Y157894D01*
X654310Y157897D01*
X654499Y157954D01*
X654690Y158006D01*
X654715Y158017D01*
X654741Y158025D01*
X654918Y158114D01*
X655097Y158199D01*
X655119Y158215D01*
X655144Y158227D01*
X655302Y158346D01*
X655463Y158461D01*
X655482Y158481D01*
X655504Y158497D01*
X655639Y158642D01*
X655777Y158784D01*
X655792Y158807D01*
X655811Y158827D01*
X655918Y158993D01*
X656029Y159157D01*
X656040Y159182D01*
X656055Y159205D01*
X656131Y159386D01*
X656211Y159569D01*
X656218Y159595D01*
X656228Y159621D01*
X656271Y159813D01*
X656318Y160006D01*
X656320Y160034D01*
X656326Y160060D01*
X656347Y160372D01*
X656361Y162861D01*
X656357Y162903D01*
X656360Y162945D01*
X656339Y163127D01*
X656324Y163310D01*
X656313Y163350D01*
X656308Y163392D01*
X656255Y163568D01*
X656208Y163745D01*
X656190Y163783D01*
X656178Y163823D01*
X656094Y163987D01*
X656016Y164153D01*
X655992Y164187D01*
X655973Y164224D01*
X655862Y164370D01*
X655756Y164520D01*
X655727Y164549D01*
X655701Y164583D01*
X655566Y164707D01*
X655436Y164836D01*
X655401Y164860D01*
X655370Y164888D01*
X655215Y164987D01*
X655064Y165090D01*
X655026Y165107D01*
X654990Y165130D01*
X654821Y165200D01*
X654653Y165275D01*
X654613Y165285D01*
X654574Y165301D01*
X654394Y165340D01*
X654216Y165384D01*
X654175Y165387D01*
X654134Y165396D01*
X653822Y165415D01*
X622862Y165415D01*
X620621Y166343D01*
X618906Y168058D01*
X617978Y170299D01*
X617978Y202724D01*
X618906Y204965D01*
X620621Y206680D01*
X622862Y207608D01*
X654092Y207608D01*
X654119Y207611D01*
X654146Y207609D01*
X654343Y207631D01*
X654540Y207648D01*
X654567Y207655D01*
X654594Y207658D01*
X654784Y207715D01*
X654975Y207767D01*
X654999Y207778D01*
X655026Y207786D01*
X655204Y207876D01*
X655381Y207960D01*
X655404Y207976D01*
X655428Y207988D01*
X655587Y208107D01*
X655748Y208222D01*
X655767Y208242D01*
X655789Y208258D01*
X655923Y208403D01*
X656062Y208545D01*
X656077Y208568D01*
X656096Y208588D01*
X656203Y208754D01*
X656314Y208918D01*
X656325Y208943D01*
X656340Y208966D01*
X656416Y209148D01*
X656496Y209330D01*
X656502Y209356D01*
X656513Y209382D01*
X656556Y209575D01*
X656603Y209767D01*
X656604Y209794D01*
X656610Y209821D01*
X656631Y210133D01*
X656677Y218205D01*
X656674Y218247D01*
X656676Y218289D01*
X656655Y218472D01*
X656640Y218654D01*
X656629Y218694D01*
X656624Y218736D01*
X656571Y218912D01*
X656524Y219089D01*
X656506Y219127D01*
X656494Y219167D01*
X656411Y219331D01*
X656333Y219497D01*
X656309Y219531D01*
X656290Y219568D01*
X656179Y219714D01*
X656073Y219865D01*
X656043Y219894D01*
X656018Y219927D01*
X655883Y220052D01*
X655752Y220180D01*
X655717Y220204D01*
X655687Y220232D01*
X655532Y220331D01*
X655380Y220435D01*
X655342Y220452D01*
X655307Y220474D01*
X655137Y220544D01*
X654970Y220619D01*
X654929Y220629D01*
X654890Y220645D01*
X654711Y220684D01*
X654533Y220728D01*
X654491Y220731D01*
X654450Y220740D01*
X654138Y220759D01*
X622610Y220759D01*
X620370Y221687D01*
X618654Y223402D01*
X617726Y225643D01*
X617726Y258069D01*
X618654Y260309D01*
X620370Y262024D01*
X622610Y262953D01*
X654408Y262953D01*
X654436Y262955D01*
X654463Y262953D01*
X654659Y262975D01*
X654857Y262993D01*
X654883Y263000D01*
X654910Y263003D01*
X655101Y263059D01*
X655291Y263111D01*
X655316Y263123D01*
X655342Y263131D01*
X655520Y263220D01*
X655698Y263304D01*
X655720Y263320D01*
X655745Y263333D01*
X655903Y263452D01*
X656064Y263567D01*
X656083Y263586D01*
X656105Y263603D01*
X656239Y263747D01*
X656378Y263889D01*
X656393Y263912D01*
X656412Y263932D01*
X656519Y264098D01*
X656630Y264262D01*
X656641Y264287D01*
X656656Y264310D01*
X656732Y264493D01*
X656812Y264674D01*
X656819Y264701D01*
X656829Y264726D01*
X656872Y264919D01*
X656919Y265112D01*
X656921Y265139D01*
X656926Y265166D01*
X656948Y265477D01*
X657664Y390880D01*
X657661Y390922D01*
X657663Y390963D01*
X657642Y391146D01*
X657627Y391329D01*
X657616Y391369D01*
X657611Y391411D01*
X657558Y391587D01*
X657511Y391764D01*
X657493Y391801D01*
X657481Y391842D01*
X657398Y392006D01*
X657320Y392171D01*
X657296Y392206D01*
X657277Y392243D01*
X657166Y392389D01*
X657060Y392539D01*
X657030Y392568D01*
X657005Y392602D01*
X656870Y392726D01*
X656739Y392855D01*
X656704Y392878D01*
X656674Y392907D01*
X656519Y393005D01*
X656367Y393109D01*
X656329Y393126D01*
X656294Y393149D01*
X656124Y393218D01*
X655957Y393294D01*
X655916Y393304D01*
X655877Y393320D01*
X655698Y393358D01*
X655520Y393403D01*
X655478Y393406D01*
X655437Y393414D01*
X655125Y393434D01*
X622642Y393434D01*
X620401Y394362D01*
X618686Y396077D01*
X617758Y398318D01*
X617758Y430743D01*
X618686Y432984D01*
X620401Y434699D01*
X622642Y435627D01*
X655395Y435627D01*
X655423Y435630D01*
X655450Y435628D01*
X655646Y435649D01*
X655844Y435667D01*
X655870Y435674D01*
X655897Y435677D01*
X656087Y435733D01*
X656278Y435786D01*
X656303Y435797D01*
X656329Y435805D01*
X656507Y435894D01*
X656685Y435979D01*
X656707Y435995D01*
X656732Y436007D01*
X656890Y436126D01*
X657051Y436241D01*
X657070Y436261D01*
X657092Y436277D01*
X657227Y436422D01*
X657365Y436564D01*
X657380Y436586D01*
X657399Y436606D01*
X657506Y436773D01*
X657617Y436937D01*
X657628Y436962D01*
X657643Y436985D01*
X657719Y437168D01*
X657799Y437349D01*
X657806Y437375D01*
X657816Y437400D01*
X657859Y437594D01*
X657906Y437786D01*
X657908Y437813D01*
X657914Y437840D01*
X657935Y438152D01*
X657939Y438970D01*
X657936Y439009D01*
X657938Y439048D01*
X657917Y439234D01*
X657902Y439419D01*
X657892Y439456D01*
X657887Y439495D01*
X657834Y439674D01*
X657786Y439854D01*
X657769Y439889D01*
X657758Y439927D01*
X657674Y440093D01*
X657595Y440262D01*
X657572Y440294D01*
X657555Y440328D01*
X657443Y440477D01*
X657335Y440629D01*
X657307Y440657D01*
X657284Y440688D01*
X657147Y440814D01*
X657014Y440945D01*
X656982Y440967D01*
X656953Y440994D01*
X656796Y441094D01*
X656642Y441199D01*
X656607Y441215D01*
X656574Y441236D01*
X656402Y441308D01*
X656232Y441384D01*
X656194Y441393D01*
X656158Y441408D01*
X655975Y441448D01*
X655795Y441493D01*
X655756Y441496D01*
X655718Y441504D01*
X655406Y441524D01*
X16168Y443010D01*
X16124Y443006D01*
X16081Y443008D01*
X15901Y442986D01*
X15719Y442971D01*
X15677Y442959D01*
X15634Y442954D01*
X15460Y442901D01*
X15285Y442853D01*
X15245Y442834D01*
X15203Y442822D01*
X15042Y442738D01*
X14878Y442661D01*
X14842Y442635D01*
X14803Y442615D01*
X14659Y442505D01*
X14511Y442399D01*
X14480Y442368D01*
X14446Y442342D01*
X14323Y442208D01*
X14196Y442078D01*
X14172Y442041D01*
X14142Y442009D01*
X14045Y441855D01*
X13943Y441705D01*
X13925Y441665D01*
X13902Y441628D01*
X13834Y441460D01*
X13760Y441294D01*
X13750Y441251D01*
X13733Y441211D01*
X13696Y441033D01*
X13652Y440857D01*
X13650Y440813D01*
X13641Y440770D01*
X13623Y440458D01*
X14652Y229114D01*
X14664Y228991D01*
X14666Y228867D01*
X14685Y228768D01*
X14695Y228666D01*
X14728Y228547D01*
X14751Y228425D01*
X14788Y228330D01*
X14815Y228232D01*
X14869Y228121D01*
X14914Y228005D01*
X14966Y227918D01*
X15011Y227827D01*
X15083Y227726D01*
X15148Y227621D01*
X15215Y227544D01*
X15274Y227462D01*
X15364Y227376D01*
X15446Y227283D01*
X15525Y227220D01*
X15599Y227149D01*
X15702Y227081D01*
X15799Y227004D01*
X15888Y226956D01*
X15973Y226899D01*
X16087Y226850D01*
X16196Y226791D01*
X16292Y226760D01*
X16386Y226719D01*
X16506Y226690D01*
X16624Y226652D01*
X16725Y226638D01*
X16824Y226614D01*
X16947Y226607D01*
X17070Y226591D01*
X17172Y226595D01*
X17273Y226589D01*
X17396Y226604D01*
X17520Y226609D01*
X17619Y226631D01*
X17720Y226643D01*
X17838Y226680D01*
X17959Y226706D01*
X18053Y226746D01*
X18150Y226776D01*
X18261Y226832D01*
X18375Y226880D01*
X18460Y226935D01*
X18551Y226982D01*
X18649Y227057D01*
X18753Y227124D01*
X18859Y227218D01*
X18908Y227256D01*
X18936Y227286D01*
X18987Y227331D01*
X24953Y233297D01*
X37293Y233297D01*
X37423Y233308D01*
X37553Y233310D01*
X37647Y233328D01*
X37742Y233337D01*
X37868Y233371D01*
X37995Y233396D01*
X38084Y233430D01*
X38176Y233455D01*
X38294Y233511D01*
X38415Y233558D01*
X38497Y233608D01*
X38583Y233649D01*
X38689Y233724D01*
X38800Y233792D01*
X38871Y233855D01*
X38949Y233911D01*
X39040Y234004D01*
X39137Y234090D01*
X39196Y234165D01*
X39263Y234233D01*
X39336Y234341D01*
X39417Y234443D01*
X39462Y234527D01*
X39515Y234607D01*
X39568Y234726D01*
X39629Y234840D01*
X39659Y234931D01*
X39697Y235018D01*
X39728Y235145D01*
X39768Y235268D01*
X39781Y235363D01*
X39804Y235456D01*
X39812Y235585D01*
X39830Y235714D01*
X39826Y235810D01*
X39832Y235905D01*
X39817Y236034D01*
X39811Y236164D01*
X39791Y236258D01*
X39780Y236352D01*
X39742Y236477D01*
X39714Y236604D01*
X39677Y236692D01*
X39649Y236783D01*
X39590Y236899D01*
X39540Y237019D01*
X39488Y237099D01*
X39445Y237185D01*
X39367Y237288D01*
X39296Y237397D01*
X39210Y237495D01*
X39173Y237543D01*
X39140Y237574D01*
X39089Y237632D01*
X37139Y239582D01*
X35437Y243690D01*
X35437Y292657D01*
X35423Y292821D01*
X35416Y292985D01*
X35403Y293045D01*
X35398Y293106D01*
X35354Y293265D01*
X35319Y293425D01*
X35295Y293481D01*
X35279Y293540D01*
X35209Y293688D01*
X35145Y293840D01*
X35112Y293892D01*
X35086Y293947D01*
X34990Y294080D01*
X34901Y294219D01*
X34850Y294276D01*
X34823Y294313D01*
X34780Y294355D01*
X34694Y294453D01*
X34167Y294979D01*
X34167Y305290D01*
X41459Y312581D01*
X51770Y312581D01*
X56428Y307923D01*
X56455Y307901D01*
X56478Y307875D01*
X56627Y307757D01*
X56773Y307634D01*
X56804Y307617D01*
X56831Y307596D01*
X56999Y307506D01*
X57164Y307411D01*
X57197Y307399D01*
X57228Y307383D01*
X57409Y307324D01*
X57589Y307260D01*
X57623Y307254D01*
X57656Y307244D01*
X57844Y307218D01*
X58033Y307187D01*
X58068Y307187D01*
X58102Y307182D01*
X58292Y307190D01*
X58483Y307193D01*
X58517Y307199D01*
X58552Y307201D01*
X58738Y307242D01*
X58925Y307278D01*
X58958Y307291D01*
X58991Y307298D01*
X59167Y307372D01*
X59345Y307440D01*
X59375Y307459D01*
X59407Y307472D01*
X59567Y307575D01*
X59730Y307674D01*
X59756Y307697D01*
X59785Y307716D01*
X60019Y307923D01*
X64804Y312708D01*
X75115Y312708D01*
X82406Y305417D01*
X82406Y295105D01*
X81880Y294579D01*
X81774Y294453D01*
X81663Y294332D01*
X81630Y294281D01*
X81591Y294234D01*
X81509Y294091D01*
X81421Y293952D01*
X81398Y293896D01*
X81368Y293843D01*
X81313Y293688D01*
X81250Y293536D01*
X81237Y293476D01*
X81217Y293419D01*
X81190Y293256D01*
X81155Y293096D01*
X81151Y293019D01*
X81143Y292974D01*
X81144Y292913D01*
X81136Y292784D01*
X81136Y271149D01*
X81151Y270985D01*
X81157Y270821D01*
X81171Y270761D01*
X81176Y270700D01*
X81219Y270541D01*
X81255Y270381D01*
X81279Y270325D01*
X81295Y270266D01*
X81365Y270118D01*
X81429Y269966D01*
X81462Y269914D01*
X81488Y269859D01*
X81584Y269726D01*
X81673Y269587D01*
X81724Y269530D01*
X81750Y269493D01*
X81794Y269451D01*
X81880Y269353D01*
X149193Y202041D01*
X149319Y201935D01*
X149440Y201824D01*
X149491Y201791D01*
X149538Y201752D01*
X149681Y201670D01*
X149819Y201582D01*
X149876Y201559D01*
X149929Y201528D01*
X150084Y201473D01*
X150236Y201411D01*
X150296Y201398D01*
X150353Y201378D01*
X150516Y201351D01*
X150676Y201316D01*
X150753Y201311D01*
X150797Y201304D01*
X150859Y201305D01*
X150988Y201297D01*
X160430Y201297D01*
X171324Y190403D01*
X171324Y176935D01*
X171338Y176771D01*
X171345Y176606D01*
X171358Y176547D01*
X171363Y176486D01*
X171407Y176327D01*
X171442Y176167D01*
X171466Y176111D01*
X171482Y176052D01*
X171552Y175904D01*
X171616Y175751D01*
X171649Y175700D01*
X171675Y175645D01*
X171771Y175512D01*
X171860Y175373D01*
X171911Y175315D01*
X171937Y175279D01*
X171981Y175236D01*
X172067Y175139D01*
X193284Y153922D01*
X193348Y153869D01*
X193404Y153809D01*
X193520Y153725D01*
X193630Y153633D01*
X193701Y153592D01*
X193768Y153543D01*
X193896Y153481D01*
X194021Y153410D01*
X194098Y153382D01*
X194172Y153346D01*
X194310Y153307D01*
X194445Y153259D01*
X194526Y153245D01*
X194606Y153223D01*
X194748Y153209D01*
X194889Y153185D01*
X194972Y153186D01*
X195054Y153178D01*
X195196Y153189D01*
X195340Y153191D01*
X195421Y153207D01*
X195503Y153214D01*
X195641Y153250D01*
X195782Y153277D01*
X195859Y153307D01*
X195938Y153328D01*
X196068Y153388D01*
X196202Y153439D01*
X196272Y153482D01*
X196347Y153517D01*
X196464Y153599D01*
X196586Y153673D01*
X196648Y153728D01*
X196716Y153775D01*
X196817Y153877D01*
X196924Y153971D01*
X196975Y154036D01*
X197033Y154094D01*
X197114Y154212D01*
X197203Y154324D01*
X197242Y154397D01*
X197289Y154465D01*
X197397Y154687D01*
X197416Y154721D01*
X197419Y154731D01*
X197426Y154746D01*
X199065Y158704D01*
X199912Y159550D01*
X200017Y159676D01*
X200129Y159797D01*
X200161Y159848D01*
X200200Y159895D01*
X200282Y160038D01*
X200370Y160177D01*
X200394Y160233D01*
X200424Y160286D01*
X200479Y160441D01*
X200541Y160593D01*
X200554Y160653D01*
X200575Y160711D01*
X200601Y160873D01*
X200636Y161034D01*
X200641Y161111D01*
X200648Y161155D01*
X200647Y161216D01*
X200655Y161345D01*
X200655Y162119D01*
X202047Y165480D01*
X210220Y173653D01*
X213581Y175045D01*
X278072Y175045D01*
X278284Y175064D01*
X278495Y175080D01*
X278508Y175083D01*
X278521Y175085D01*
X278726Y175141D01*
X278931Y175194D01*
X278943Y175200D01*
X278955Y175203D01*
X279146Y175294D01*
X279339Y175383D01*
X279350Y175391D01*
X279362Y175397D01*
X279534Y175520D01*
X279708Y175642D01*
X279717Y175651D01*
X279728Y175659D01*
X279876Y175811D01*
X280025Y175961D01*
X280033Y175972D01*
X280042Y175981D01*
X280161Y176157D01*
X280281Y176331D01*
X280288Y176346D01*
X280294Y176354D01*
X280310Y176391D01*
X280418Y176612D01*
X281096Y178249D01*
X281159Y178450D01*
X281225Y178653D01*
X281227Y178666D01*
X281231Y178678D01*
X281258Y178888D01*
X281287Y179099D01*
X281286Y179112D01*
X281288Y179125D01*
X281277Y179335D01*
X281268Y179548D01*
X281265Y179562D01*
X281265Y179575D01*
X281217Y179780D01*
X281171Y179988D01*
X281166Y180000D01*
X281163Y180013D01*
X281079Y180208D01*
X280997Y180403D01*
X280990Y180415D01*
X280985Y180427D01*
X280868Y180603D01*
X280753Y180782D01*
X280742Y180794D01*
X280736Y180802D01*
X280710Y180831D01*
X280546Y181016D01*
X279166Y182396D01*
X277471Y186486D01*
X277471Y190914D01*
X278569Y193564D01*
X278618Y193721D01*
X278675Y193876D01*
X278686Y193936D01*
X278704Y193994D01*
X278725Y194157D01*
X278753Y194319D01*
X278753Y194380D01*
X278761Y194441D01*
X278752Y194605D01*
X278752Y194769D01*
X278741Y194829D01*
X278738Y194890D01*
X278704Y195036D01*
X278699Y195078D01*
X278690Y195107D01*
X278671Y195212D01*
X278646Y195285D01*
X278636Y195329D01*
X278612Y195385D01*
X278569Y195508D01*
X277737Y197516D01*
X277737Y210941D01*
X278666Y213182D01*
X280550Y215066D01*
X280655Y215193D01*
X280767Y215313D01*
X280799Y215365D01*
X280839Y215412D01*
X280920Y215554D01*
X281008Y215693D01*
X281032Y215750D01*
X281062Y215803D01*
X281117Y215958D01*
X281179Y216110D01*
X281192Y216169D01*
X281213Y216227D01*
X281240Y216389D01*
X281274Y216550D01*
X281279Y216627D01*
X281286Y216671D01*
X281285Y216732D01*
X281293Y216862D01*
X281293Y218689D01*
X288834Y218689D01*
X288868Y218692D01*
X288903Y218690D01*
X289092Y218712D01*
X289282Y218729D01*
X289316Y218738D01*
X289350Y218742D01*
X289533Y218798D01*
X289717Y218848D01*
X289748Y218863D01*
X289781Y218873D01*
X289952Y218960D01*
X290123Y219041D01*
X290151Y219061D01*
X290182Y219077D01*
X290334Y219192D01*
X290489Y219303D01*
X290514Y219328D01*
X290541Y219349D01*
X290542Y219350D01*
X290670Y219489D01*
X290803Y219626D01*
X290804Y219626D01*
X290823Y219655D01*
X290847Y219681D01*
X290949Y219842D01*
X291056Y220000D01*
X291070Y220031D01*
X291089Y220060D01*
X291161Y220237D01*
X291238Y220411D01*
X291246Y220445D01*
X291260Y220477D01*
X291300Y220664D01*
X291345Y220849D01*
X291347Y220883D01*
X291354Y220917D01*
X291374Y221229D01*
X291374Y229270D01*
X294169Y229270D01*
X294815Y229096D01*
X295394Y228762D01*
X295867Y228289D01*
X296244Y227636D01*
X296314Y227445D01*
X296320Y227435D01*
X296324Y227424D01*
X296433Y227242D01*
X296541Y227056D01*
X296548Y227047D01*
X296554Y227038D01*
X296695Y226876D01*
X296833Y226714D01*
X296841Y226706D01*
X296849Y226697D01*
X297017Y226562D01*
X297181Y226428D01*
X297191Y226422D01*
X297200Y226415D01*
X297387Y226312D01*
X297573Y226208D01*
X297585Y226204D01*
X297595Y226199D01*
X297796Y226131D01*
X297999Y226061D01*
X298011Y226059D01*
X298022Y226056D01*
X298233Y226024D01*
X298444Y225991D01*
X298456Y225992D01*
X298467Y225990D01*
X298681Y225997D01*
X298894Y226002D01*
X298905Y226004D01*
X298917Y226004D01*
X299126Y226049D01*
X299335Y226091D01*
X299346Y226095D01*
X299358Y226098D01*
X299556Y226179D01*
X299754Y226257D01*
X299764Y226263D01*
X299775Y226268D01*
X299954Y226381D01*
X300137Y226495D01*
X300145Y226502D01*
X300155Y226509D01*
X300313Y226653D01*
X300471Y226796D01*
X300478Y226805D01*
X300487Y226813D01*
X300618Y226984D01*
X300747Y227151D01*
X300753Y227162D01*
X300760Y227171D01*
X300857Y227361D01*
X300957Y227550D01*
X300960Y227561D01*
X300965Y227572D01*
X300985Y227630D01*
X301349Y228261D01*
X301822Y228734D01*
X302402Y229068D01*
X303048Y229241D01*
X305843Y229241D01*
X305843Y221201D01*
X305846Y221167D01*
X305844Y221132D01*
X305866Y220943D01*
X305883Y220753D01*
X305892Y220719D01*
X305896Y220685D01*
X305951Y220502D01*
X306001Y220318D01*
X306016Y220287D01*
X306026Y220254D01*
X306113Y220083D01*
X306195Y219912D01*
X306215Y219883D01*
X306231Y219852D01*
X306346Y219700D01*
X306457Y219545D01*
X306482Y219521D01*
X306503Y219494D01*
X306643Y219365D01*
X306779Y219231D01*
X306808Y219212D01*
X306834Y219189D01*
X306995Y219086D01*
X307153Y218979D01*
X307184Y218965D01*
X307213Y218947D01*
X307390Y218874D01*
X307564Y218797D01*
X307598Y218789D01*
X307630Y218776D01*
X307817Y218736D01*
X308002Y218690D01*
X308036Y218688D01*
X308070Y218681D01*
X308382Y218662D01*
X308417Y218665D01*
X308451Y218663D01*
X308641Y218685D01*
X308831Y218702D01*
X308864Y218711D01*
X308899Y218715D01*
X309082Y218770D01*
X309265Y218820D01*
X309296Y218835D01*
X309330Y218845D01*
X309500Y218932D01*
X309672Y219014D01*
X309700Y219034D01*
X309731Y219049D01*
X309883Y219165D01*
X310038Y219276D01*
X310062Y219301D01*
X310090Y219321D01*
X310219Y219462D01*
X310352Y219598D01*
X310371Y219627D01*
X310395Y219653D01*
X310497Y219814D01*
X310604Y219971D01*
X310618Y220003D01*
X310637Y220032D01*
X310709Y220209D01*
X310786Y220383D01*
X310795Y220417D01*
X310808Y220449D01*
X310848Y220636D01*
X310893Y220821D01*
X310895Y220855D01*
X310902Y220889D01*
X310922Y221201D01*
X310922Y229241D01*
X313717Y229241D01*
X314363Y229068D01*
X314942Y228734D01*
X315415Y228261D01*
X315750Y227681D01*
X315927Y227021D01*
X315931Y227010D01*
X315933Y226999D01*
X316009Y226798D01*
X316081Y226598D01*
X316087Y226588D01*
X316091Y226577D01*
X316201Y226394D01*
X316308Y226209D01*
X316316Y226200D01*
X316322Y226191D01*
X316461Y226030D01*
X316600Y225867D01*
X316609Y225859D01*
X316617Y225850D01*
X316783Y225717D01*
X316948Y225581D01*
X316958Y225575D01*
X316967Y225568D01*
X317155Y225465D01*
X317341Y225361D01*
X317352Y225357D01*
X317362Y225352D01*
X317565Y225284D01*
X317767Y225214D01*
X317778Y225212D01*
X317789Y225209D01*
X318002Y225177D01*
X318212Y225145D01*
X318223Y225145D01*
X318235Y225143D01*
X318448Y225150D01*
X318662Y225155D01*
X318673Y225157D01*
X318685Y225157D01*
X318895Y225202D01*
X319103Y225244D01*
X319114Y225249D01*
X319125Y225251D01*
X319324Y225332D01*
X319522Y225410D01*
X319532Y225417D01*
X319542Y225421D01*
X319722Y225535D01*
X319904Y225648D01*
X319913Y225656D01*
X319923Y225662D01*
X320081Y225807D01*
X320239Y225949D01*
X320246Y225958D01*
X320255Y225966D01*
X320385Y226137D01*
X320515Y226305D01*
X320520Y226315D01*
X320528Y226324D01*
X320625Y226514D01*
X320724Y226703D01*
X320728Y226715D01*
X320733Y226725D01*
X320832Y227021D01*
X321015Y227702D01*
X321349Y228281D01*
X321822Y228755D01*
X322402Y229089D01*
X323048Y229262D01*
X325843Y229262D01*
X325843Y221222D01*
X325846Y221187D01*
X325844Y221153D01*
X325866Y220963D01*
X325883Y220773D01*
X325892Y220740D01*
X325896Y220705D01*
X325951Y220522D01*
X326001Y220339D01*
X326016Y220308D01*
X326026Y220274D01*
X326113Y220104D01*
X326195Y219932D01*
X326215Y219904D01*
X326231Y219873D01*
X326346Y219721D01*
X326457Y219566D01*
X326478Y219545D01*
X326482Y219542D01*
X326503Y219514D01*
X326643Y219385D01*
X326780Y219252D01*
X326809Y219232D01*
X326834Y219209D01*
X326995Y219106D01*
X327153Y218999D01*
X327185Y218985D01*
X327214Y218967D01*
X327390Y218894D01*
X327565Y218817D01*
X327599Y218809D01*
X327631Y218796D01*
X327817Y218756D01*
X328002Y218711D01*
X328037Y218708D01*
X328071Y218701D01*
X328383Y218682D01*
X335923Y218682D01*
X335923Y216855D01*
X335938Y216691D01*
X335944Y216526D01*
X335958Y216467D01*
X335963Y216406D01*
X336006Y216247D01*
X336042Y216087D01*
X336065Y216030D01*
X336081Y215972D01*
X336152Y215824D01*
X336215Y215671D01*
X336249Y215620D01*
X336275Y215565D01*
X336370Y215432D01*
X336460Y215293D01*
X336511Y215235D01*
X336537Y215199D01*
X336581Y215156D01*
X336667Y215059D01*
X337327Y214399D01*
X337492Y214261D01*
X337653Y214124D01*
X337663Y214118D01*
X337672Y214110D01*
X337857Y214004D01*
X338041Y213897D01*
X338053Y213892D01*
X338063Y213886D01*
X338264Y213815D01*
X338464Y213742D01*
X338476Y213740D01*
X338488Y213736D01*
X338699Y213701D01*
X338908Y213664D01*
X338920Y213664D01*
X338932Y213662D01*
X339095Y213664D01*
X339139Y213662D01*
X352069Y213662D01*
X353385Y213117D01*
X353542Y213067D01*
X353696Y213011D01*
X353756Y213000D01*
X353814Y212982D01*
X353978Y212961D01*
X354139Y212933D01*
X354200Y212933D01*
X354261Y212925D01*
X354425Y212934D01*
X354590Y212934D01*
X354650Y212945D01*
X354711Y212948D01*
X354871Y212985D01*
X355033Y213015D01*
X355106Y213040D01*
X355149Y213050D01*
X355205Y213074D01*
X355328Y213117D01*
X356644Y213662D01*
X369069Y213662D01*
X371310Y212733D01*
X371994Y212049D01*
X372129Y211936D01*
X372259Y211818D01*
X372301Y211792D01*
X372340Y211760D01*
X372492Y211673D01*
X372641Y211580D01*
X372687Y211561D01*
X372731Y211537D01*
X372896Y211478D01*
X373059Y211413D01*
X373108Y211403D01*
X373155Y211386D01*
X373328Y211357D01*
X373500Y211322D01*
X373562Y211318D01*
X373599Y211312D01*
X373662Y211313D01*
X373812Y211305D01*
X374753Y211313D01*
X374906Y211328D01*
X375059Y211335D01*
X375130Y211350D01*
X375201Y211357D01*
X375349Y211399D01*
X375499Y211432D01*
X375565Y211460D01*
X375635Y211479D01*
X375773Y211547D01*
X375914Y211606D01*
X375975Y211645D01*
X376040Y211676D01*
X376163Y211767D01*
X376292Y211850D01*
X376362Y211912D01*
X376403Y211942D01*
X376443Y211983D01*
X376527Y212057D01*
X377403Y212933D01*
X379644Y213862D01*
X392069Y213862D01*
X394310Y212933D01*
X396194Y211049D01*
X396320Y210944D01*
X396441Y210832D01*
X396493Y210800D01*
X396539Y210760D01*
X396682Y210679D01*
X396821Y210591D01*
X396877Y210567D01*
X396930Y210537D01*
X397085Y210482D01*
X397237Y210420D01*
X397297Y210407D01*
X397355Y210386D01*
X397517Y210359D01*
X397678Y210325D01*
X397755Y210320D01*
X397799Y210313D01*
X397860Y210314D01*
X397990Y210306D01*
X400317Y210306D01*
X400317Y202265D01*
X400317Y193999D01*
X400229Y193954D01*
X400057Y193872D01*
X400029Y193852D01*
X399998Y193836D01*
X399846Y193721D01*
X399691Y193610D01*
X399667Y193585D01*
X399639Y193564D01*
X399510Y193424D01*
X399377Y193288D01*
X399357Y193259D01*
X399334Y193233D01*
X399231Y193072D01*
X399125Y192914D01*
X399111Y192883D01*
X399092Y192854D01*
X399020Y192677D01*
X398942Y192503D01*
X398934Y192469D01*
X398921Y192437D01*
X398881Y192250D01*
X398836Y192065D01*
X398834Y192031D01*
X398826Y191997D01*
X398807Y191685D01*
X398807Y185814D01*
X392016Y185814D01*
X392016Y188129D01*
X392013Y188163D01*
X392015Y188198D01*
X391993Y188387D01*
X391976Y188577D01*
X391967Y188611D01*
X391963Y188645D01*
X391907Y188828D01*
X391857Y189012D01*
X391842Y189043D01*
X391832Y189076D01*
X391746Y189247D01*
X391664Y189418D01*
X391644Y189446D01*
X391628Y189477D01*
X391513Y189629D01*
X391402Y189784D01*
X391377Y189809D01*
X391356Y189836D01*
X391216Y189965D01*
X391079Y190099D01*
X391050Y190118D01*
X391025Y190141D01*
X390864Y190244D01*
X390706Y190351D01*
X390674Y190365D01*
X390645Y190383D01*
X390469Y190456D01*
X390294Y190533D01*
X390261Y190541D01*
X390229Y190554D01*
X390042Y190594D01*
X389857Y190639D01*
X389822Y190642D01*
X389788Y190649D01*
X389476Y190668D01*
X379456Y190668D01*
X379422Y190665D01*
X379387Y190667D01*
X379198Y190645D01*
X379008Y190628D01*
X378975Y190619D01*
X378940Y190615D01*
X378757Y190560D01*
X378574Y190510D01*
X378542Y190495D01*
X378509Y190485D01*
X378339Y190398D01*
X378167Y190316D01*
X378139Y190296D01*
X378108Y190280D01*
X377956Y190165D01*
X377801Y190054D01*
X377777Y190029D01*
X377749Y190008D01*
X377620Y189868D01*
X377487Y189732D01*
X377467Y189703D01*
X377444Y189677D01*
X377341Y189516D01*
X377235Y189358D01*
X377221Y189327D01*
X377202Y189298D01*
X377130Y189121D01*
X377052Y188947D01*
X377044Y188913D01*
X377031Y188881D01*
X376991Y188694D01*
X376946Y188509D01*
X376944Y188475D01*
X376936Y188441D01*
X376917Y188129D01*
X376917Y173570D01*
X375989Y171329D01*
X375777Y171117D01*
X375755Y171091D01*
X375729Y171068D01*
X375610Y170918D01*
X375488Y170772D01*
X375471Y170742D01*
X375449Y170715D01*
X375359Y170547D01*
X375265Y170381D01*
X375253Y170349D01*
X375237Y170318D01*
X375178Y170136D01*
X375114Y169957D01*
X375108Y169923D01*
X375098Y169890D01*
X375072Y169700D01*
X375040Y169513D01*
X375041Y169478D01*
X375036Y169444D01*
X375044Y169253D01*
X375047Y169062D01*
X375053Y169028D01*
X375055Y168994D01*
X375096Y168808D01*
X375132Y168620D01*
X375145Y168588D01*
X375152Y168554D01*
X375226Y168378D01*
X375294Y168200D01*
X375312Y168171D01*
X375326Y168139D01*
X375429Y167979D01*
X375528Y167816D01*
X375551Y167790D01*
X375570Y167761D01*
X375777Y167526D01*
X375989Y167314D01*
X376917Y165074D01*
X376917Y150456D01*
X376033Y148323D01*
X376009Y148244D01*
X375975Y148169D01*
X375942Y148030D01*
X375899Y147893D01*
X375888Y147811D01*
X375869Y147731D01*
X375860Y147589D01*
X375842Y147446D01*
X375846Y147364D01*
X375841Y147282D01*
X375858Y147139D01*
X375865Y146997D01*
X375884Y146917D01*
X375893Y146835D01*
X375935Y146697D01*
X375967Y146558D01*
X376000Y146483D01*
X376023Y146404D01*
X376088Y146276D01*
X376145Y146144D01*
X376190Y146076D01*
X376228Y146002D01*
X376314Y145888D01*
X376393Y145769D01*
X376450Y145709D01*
X376500Y145644D01*
X376605Y145546D01*
X376704Y145443D01*
X376770Y145394D01*
X376831Y145338D01*
X376952Y145261D01*
X377067Y145177D01*
X377141Y145141D01*
X377211Y145097D01*
X377343Y145042D01*
X377472Y144979D01*
X377551Y144957D01*
X377627Y144926D01*
X377767Y144895D01*
X377905Y144856D01*
X377987Y144848D01*
X378067Y144831D01*
X378313Y144816D01*
X378353Y144812D01*
X378364Y144813D01*
X378379Y144812D01*
X385920Y144812D01*
X385955Y144815D01*
X385990Y144813D01*
X386179Y144835D01*
X386369Y144852D01*
X386402Y144861D01*
X386437Y144865D01*
X386620Y144920D01*
X386803Y144970D01*
X386834Y144985D01*
X386868Y144995D01*
X387038Y145082D01*
X387210Y145163D01*
X387238Y145184D01*
X387269Y145199D01*
X387421Y145315D01*
X387576Y145426D01*
X387600Y145450D01*
X387628Y145471D01*
X387757Y145611D01*
X387890Y145748D01*
X387909Y145777D01*
X387933Y145802D01*
X388035Y145963D01*
X388142Y146121D01*
X388156Y146153D01*
X388175Y146182D01*
X388247Y146359D01*
X388324Y146533D01*
X388333Y146567D01*
X388346Y146599D01*
X388386Y146785D01*
X388431Y146971D01*
X388433Y147005D01*
X388440Y147039D01*
X388460Y147351D01*
X388460Y150778D01*
X389388Y153018D01*
X391103Y154733D01*
X393344Y155662D01*
X412769Y155662D01*
X415010Y154733D01*
X416725Y153018D01*
X417801Y150420D01*
X417812Y150382D01*
X417826Y150351D01*
X417836Y150318D01*
X417923Y150147D01*
X418005Y149975D01*
X418025Y149947D01*
X418041Y149916D01*
X418156Y149764D01*
X418267Y149609D01*
X418292Y149585D01*
X418313Y149558D01*
X418453Y149428D01*
X418590Y149295D01*
X418619Y149276D01*
X418644Y149252D01*
X418805Y149150D01*
X418963Y149043D01*
X418995Y149029D01*
X419024Y149011D01*
X419200Y148938D01*
X419375Y148861D01*
X419408Y148853D01*
X419440Y148840D01*
X419627Y148799D01*
X419812Y148754D01*
X419847Y148752D01*
X419881Y148745D01*
X420192Y148726D01*
X427776Y148726D01*
X427811Y148729D01*
X427846Y148727D01*
X428035Y148749D01*
X428225Y148766D01*
X428258Y148775D01*
X428293Y148779D01*
X428476Y148834D01*
X428659Y148884D01*
X428690Y148899D01*
X428724Y148909D01*
X428894Y148996D01*
X429066Y149077D01*
X429094Y149098D01*
X429125Y149113D01*
X429277Y149229D01*
X429432Y149340D01*
X429456Y149364D01*
X429484Y149385D01*
X429613Y149525D01*
X429746Y149662D01*
X429765Y149691D01*
X429789Y149716D01*
X429891Y149877D01*
X429998Y150035D01*
X430012Y150067D01*
X430031Y150096D01*
X430103Y150273D01*
X430180Y150447D01*
X430189Y150481D01*
X430202Y150513D01*
X430242Y150699D01*
X430287Y150885D01*
X430289Y150919D01*
X430296Y150953D01*
X430316Y151265D01*
X430316Y151525D01*
X437856Y151525D01*
X437891Y151529D01*
X437925Y151526D01*
X438115Y151548D01*
X438305Y151565D01*
X438338Y151574D01*
X438372Y151578D01*
X438555Y151634D01*
X438739Y151684D01*
X438770Y151699D01*
X438803Y151709D01*
X438974Y151796D01*
X439146Y151877D01*
X439174Y151897D01*
X439205Y151913D01*
X439357Y152028D01*
X439512Y152139D01*
X439536Y152164D01*
X439563Y152185D01*
X439564Y152186D01*
X439693Y152325D01*
X439826Y152462D01*
X439826Y152463D01*
X439846Y152491D01*
X439869Y152517D01*
X439972Y152678D01*
X440078Y152836D01*
X440092Y152867D01*
X440111Y152897D01*
X440183Y153073D01*
X440261Y153247D01*
X440269Y153281D01*
X440282Y153313D01*
X440322Y153500D01*
X440367Y153685D01*
X440369Y153719D01*
X440377Y153753D01*
X440396Y154065D01*
X440396Y162971D01*
X440397Y162974D01*
X440464Y163042D01*
X440537Y163150D01*
X440618Y163252D01*
X440663Y163336D01*
X440716Y163415D01*
X440769Y163534D01*
X440830Y163649D01*
X440860Y163740D01*
X440899Y163827D01*
X440929Y163954D01*
X440970Y164077D01*
X440983Y164172D01*
X441005Y164265D01*
X441013Y164394D01*
X441031Y164523D01*
X441027Y164619D01*
X441033Y164714D01*
X441018Y164843D01*
X441013Y164973D01*
X440992Y165066D01*
X440981Y165161D01*
X440943Y165286D01*
X440915Y165413D01*
X440878Y165501D01*
X440851Y165592D01*
X440792Y165708D01*
X440741Y165828D01*
X440690Y165908D01*
X440646Y165993D01*
X440568Y166097D01*
X440497Y166206D01*
X440411Y166304D01*
X440374Y166352D01*
X440341Y166382D01*
X440290Y166440D01*
X418432Y188299D01*
X418332Y188382D01*
X418239Y188473D01*
X418160Y188526D01*
X418087Y188588D01*
X417974Y188652D01*
X417866Y188725D01*
X417779Y188764D01*
X417696Y188811D01*
X417573Y188854D01*
X417454Y188907D01*
X417361Y188930D01*
X417271Y188962D01*
X417143Y188983D01*
X417017Y189014D01*
X416922Y189020D01*
X416827Y189035D01*
X416697Y189033D01*
X416567Y189041D01*
X416473Y189030D01*
X416377Y189029D01*
X416249Y189004D01*
X416120Y188989D01*
X416029Y188962D01*
X415935Y188944D01*
X415814Y188897D01*
X415689Y188859D01*
X415604Y188816D01*
X415515Y188781D01*
X415404Y188714D01*
X415288Y188655D01*
X415212Y188597D01*
X415130Y188547D01*
X415033Y188461D01*
X414929Y188383D01*
X414864Y188312D01*
X414793Y188249D01*
X414712Y188147D01*
X414624Y188052D01*
X414572Y187971D01*
X414513Y187896D01*
X414452Y187782D01*
X414382Y187672D01*
X414346Y187583D01*
X414301Y187499D01*
X414260Y187376D01*
X414211Y187255D01*
X414191Y187162D01*
X414161Y187071D01*
X414144Y186942D01*
X414116Y186815D01*
X414108Y186685D01*
X414100Y186625D01*
X414102Y186580D01*
X414097Y186503D01*
X414097Y185814D01*
X407306Y185814D01*
X407306Y191685D01*
X407303Y191719D01*
X407305Y191754D01*
X407283Y191943D01*
X407266Y192133D01*
X407257Y192167D01*
X407253Y192201D01*
X407197Y192384D01*
X407147Y192568D01*
X407132Y192599D01*
X407122Y192632D01*
X407036Y192803D01*
X406954Y192974D01*
X406934Y193002D01*
X406918Y193033D01*
X406803Y193185D01*
X406692Y193340D01*
X406667Y193365D01*
X406646Y193392D01*
X406506Y193521D01*
X406369Y193655D01*
X406340Y193674D01*
X406315Y193697D01*
X406154Y193800D01*
X405996Y193907D01*
X405964Y193921D01*
X405935Y193939D01*
X405759Y194012D01*
X405584Y194089D01*
X405551Y194097D01*
X405519Y194110D01*
X405396Y194137D01*
X405396Y202265D01*
X405396Y210310D01*
X405558Y210329D01*
X405749Y210346D01*
X405782Y210355D01*
X405816Y210359D01*
X405999Y210414D01*
X406183Y210464D01*
X406214Y210479D01*
X406247Y210489D01*
X406418Y210576D01*
X406590Y210657D01*
X406618Y210678D01*
X406649Y210693D01*
X406801Y210809D01*
X406956Y210920D01*
X406980Y210944D01*
X407007Y210965D01*
X407136Y211105D01*
X407270Y211242D01*
X407289Y211271D01*
X407313Y211296D01*
X407415Y211457D01*
X407522Y211615D01*
X407536Y211647D01*
X407554Y211676D01*
X407627Y211853D01*
X407704Y212027D01*
X407712Y212061D01*
X407725Y212093D01*
X407765Y212279D01*
X407811Y212465D01*
X407813Y212499D01*
X407820Y212533D01*
X407839Y212845D01*
X407839Y227921D01*
X409386Y231656D01*
X418944Y241214D01*
X422679Y242761D01*
X426721Y242761D01*
X426737Y242754D01*
X426849Y242719D01*
X426957Y242675D01*
X427063Y242652D01*
X427167Y242619D01*
X427283Y242605D01*
X427397Y242580D01*
X427551Y242570D01*
X427614Y242563D01*
X427650Y242564D01*
X427709Y242561D01*
X516721Y242561D01*
X520456Y241014D01*
X528540Y232929D01*
X528666Y232824D01*
X528787Y232712D01*
X528839Y232680D01*
X528885Y232640D01*
X529016Y232566D01*
X536569Y225013D01*
X536596Y224990D01*
X536618Y224965D01*
X536767Y224847D01*
X536914Y224724D01*
X536945Y224707D01*
X536972Y224685D01*
X537139Y224595D01*
X537305Y224501D01*
X537338Y224489D01*
X537368Y224473D01*
X537550Y224414D01*
X537730Y224350D01*
X537764Y224344D01*
X537797Y224333D01*
X537986Y224307D01*
X538174Y224276D01*
X538208Y224277D01*
X538243Y224272D01*
X538434Y224280D01*
X538624Y224282D01*
X538658Y224289D01*
X538693Y224290D01*
X538879Y224332D01*
X539066Y224368D01*
X539098Y224380D01*
X539132Y224388D01*
X539308Y224462D01*
X539486Y224530D01*
X539516Y224548D01*
X539548Y224562D01*
X539708Y224665D01*
X539871Y224764D01*
X539897Y224787D01*
X539926Y224806D01*
X540160Y225013D01*
X543903Y228756D01*
X545046Y228756D01*
X545046Y219866D01*
X545046Y219865D01*
X545046Y210975D01*
X543903Y210975D01*
X540286Y214591D01*
X540260Y214614D01*
X540237Y214640D01*
X540088Y214757D01*
X539941Y214880D01*
X539911Y214898D01*
X539884Y214919D01*
X539716Y215009D01*
X539550Y215104D01*
X539517Y215115D01*
X539487Y215132D01*
X539306Y215191D01*
X539126Y215254D01*
X539091Y215260D01*
X539059Y215271D01*
X538870Y215297D01*
X538682Y215328D01*
X538647Y215327D01*
X538613Y215332D01*
X538422Y215324D01*
X538231Y215322D01*
X538197Y215315D01*
X538163Y215314D01*
X537977Y215273D01*
X537789Y215236D01*
X537757Y215224D01*
X537723Y215216D01*
X537547Y215143D01*
X537369Y215074D01*
X537340Y215056D01*
X537308Y215043D01*
X537147Y214939D01*
X536985Y214840D01*
X536959Y214817D01*
X536929Y214798D01*
X536695Y214591D01*
X535145Y213041D01*
X535039Y212915D01*
X534928Y212794D01*
X534895Y212743D01*
X534856Y212696D01*
X534775Y212553D01*
X534686Y212414D01*
X534663Y212358D01*
X534633Y212305D01*
X534578Y212150D01*
X534515Y211998D01*
X534502Y211938D01*
X534482Y211881D01*
X534455Y211718D01*
X534421Y211557D01*
X534416Y211481D01*
X534408Y211436D01*
X534409Y211375D01*
X534401Y211246D01*
X534401Y165732D01*
X534416Y165569D01*
X534423Y165404D01*
X534436Y165345D01*
X534441Y165284D01*
X534484Y165125D01*
X534520Y164965D01*
X534544Y164908D01*
X534560Y164849D01*
X534630Y164701D01*
X534694Y164549D01*
X534727Y164498D01*
X534753Y164443D01*
X534849Y164309D01*
X534938Y164171D01*
X534989Y164113D01*
X535015Y164077D01*
X535059Y164034D01*
X535145Y163937D01*
X537069Y162013D01*
X537096Y161991D01*
X537118Y161965D01*
X537268Y161847D01*
X537414Y161724D01*
X537444Y161707D01*
X537472Y161685D01*
X537639Y161595D01*
X537805Y161501D01*
X537838Y161489D01*
X537868Y161473D01*
X538049Y161414D01*
X538230Y161350D01*
X538264Y161344D01*
X538297Y161333D01*
X538486Y161307D01*
X538674Y161276D01*
X538708Y161277D01*
X538743Y161272D01*
X538934Y161280D01*
X539124Y161282D01*
X539158Y161289D01*
X539193Y161290D01*
X539379Y161332D01*
X539566Y161368D01*
X539598Y161380D01*
X539632Y161388D01*
X539808Y161462D01*
X539986Y161530D01*
X540016Y161548D01*
X540048Y161562D01*
X540208Y161665D01*
X540371Y161764D01*
X540397Y161787D01*
X540426Y161806D01*
X540660Y162013D01*
X544403Y165756D01*
X545546Y165756D01*
X545546Y156866D01*
X545546Y156865D01*
X545546Y147975D01*
X544403Y147975D01*
X540786Y151591D01*
X540760Y151614D01*
X540737Y151640D01*
X540587Y151758D01*
X540441Y151880D01*
X540411Y151897D01*
X540384Y151919D01*
X540215Y152009D01*
X540050Y152104D01*
X540017Y152115D01*
X539987Y152132D01*
X539805Y152191D01*
X539626Y152254D01*
X539592Y152260D01*
X539559Y152271D01*
X539370Y152297D01*
X539182Y152328D01*
X539147Y152327D01*
X539113Y152332D01*
X538922Y152324D01*
X538731Y152322D01*
X538697Y152315D01*
X538663Y152314D01*
X538477Y152273D01*
X538289Y152236D01*
X538257Y152224D01*
X538223Y152216D01*
X538048Y152143D01*
X537869Y152074D01*
X537840Y152056D01*
X537808Y152043D01*
X537648Y151939D01*
X537485Y151840D01*
X537459Y151817D01*
X537429Y151798D01*
X537195Y151591D01*
X535645Y150041D01*
X535540Y149915D01*
X535428Y149794D01*
X535395Y149742D01*
X535356Y149696D01*
X535275Y149553D01*
X535186Y149414D01*
X535163Y149358D01*
X535133Y149305D01*
X535078Y149150D01*
X535015Y148998D01*
X535002Y148938D01*
X534982Y148880D01*
X534955Y148718D01*
X534921Y148557D01*
X534916Y148480D01*
X534908Y148436D01*
X534909Y148375D01*
X534901Y148246D01*
X534901Y97332D01*
X534916Y97169D01*
X534923Y97004D01*
X534936Y96945D01*
X534941Y96884D01*
X534985Y96725D01*
X535020Y96565D01*
X535044Y96508D01*
X535060Y96449D01*
X535130Y96301D01*
X535194Y96149D01*
X535227Y96098D01*
X535253Y96043D01*
X535349Y95909D01*
X535438Y95771D01*
X535489Y95713D01*
X535515Y95677D01*
X535559Y95634D01*
X535645Y95537D01*
X536969Y94213D01*
X536996Y94190D01*
X537018Y94165D01*
X537167Y94047D01*
X537314Y93924D01*
X537345Y93907D01*
X537372Y93885D01*
X537540Y93795D01*
X537705Y93701D01*
X537738Y93689D01*
X537768Y93673D01*
X537950Y93614D01*
X538130Y93550D01*
X538164Y93544D01*
X538197Y93533D01*
X538385Y93507D01*
X538574Y93476D01*
X538608Y93477D01*
X538643Y93472D01*
X538833Y93480D01*
X539024Y93482D01*
X539058Y93489D01*
X539093Y93490D01*
X539279Y93532D01*
X539466Y93568D01*
X539498Y93580D01*
X539532Y93588D01*
X539708Y93661D01*
X539886Y93730D01*
X539916Y93748D01*
X539948Y93762D01*
X540108Y93865D01*
X540271Y93964D01*
X540297Y93987D01*
X540326Y94006D01*
X540560Y94213D01*
X544303Y97956D01*
X545446Y97956D01*
X545446Y89066D01*
X545449Y89031D01*
X545447Y88997D01*
X545469Y88807D01*
X545486Y88617D01*
X545495Y88584D01*
X545499Y88549D01*
X545555Y88366D01*
X545605Y88183D01*
X545620Y88152D01*
X545630Y88118D01*
X545717Y87948D01*
X545798Y87776D01*
X545818Y87748D01*
X545834Y87717D01*
X545949Y87565D01*
X546060Y87410D01*
X546085Y87386D01*
X546106Y87358D01*
X546246Y87229D01*
X546383Y87096D01*
X546412Y87077D01*
X546437Y87053D01*
X546598Y86951D01*
X546756Y86844D01*
X546788Y86830D01*
X546817Y86811D01*
X546993Y86739D01*
X547168Y86662D01*
X547202Y86653D01*
X547234Y86640D01*
X547420Y86600D01*
X547605Y86555D01*
X547640Y86553D01*
X547674Y86546D01*
X547986Y86526D01*
X548020Y86529D01*
X548055Y86527D01*
X548244Y86549D01*
X548434Y86566D01*
X548468Y86575D01*
X548502Y86579D01*
X548685Y86635D01*
X548869Y86685D01*
X548900Y86700D01*
X548933Y86710D01*
X549104Y86797D01*
X549275Y86878D01*
X549304Y86898D01*
X549335Y86914D01*
X549487Y87029D01*
X549642Y87140D01*
X549666Y87165D01*
X549693Y87186D01*
X549822Y87326D01*
X549956Y87463D01*
X549975Y87492D01*
X549998Y87517D01*
X550101Y87678D01*
X550208Y87836D01*
X550222Y87868D01*
X550240Y87897D01*
X550313Y88073D01*
X550390Y88248D01*
X550398Y88282D01*
X550411Y88314D01*
X550451Y88500D01*
X550497Y88685D01*
X550499Y88720D01*
X550506Y88754D01*
X550525Y89066D01*
X550525Y97956D01*
X551669Y97956D01*
X553104Y96520D01*
X553204Y96437D01*
X553297Y96346D01*
X553377Y96292D01*
X553450Y96231D01*
X553563Y96167D01*
X553670Y96094D01*
X553758Y96055D01*
X553841Y96008D01*
X553963Y95964D01*
X554082Y95912D01*
X554175Y95889D01*
X554265Y95857D01*
X554393Y95836D01*
X554520Y95805D01*
X554615Y95799D01*
X554709Y95783D01*
X554839Y95785D01*
X554969Y95777D01*
X555064Y95788D01*
X555160Y95790D01*
X555287Y95814D01*
X555416Y95829D01*
X555508Y95857D01*
X555602Y95875D01*
X555723Y95922D01*
X555847Y95960D01*
X555933Y96003D01*
X556022Y96037D01*
X556133Y96105D01*
X556249Y96164D01*
X556325Y96222D01*
X556406Y96271D01*
X556504Y96357D01*
X556607Y96436D01*
X556672Y96506D01*
X556744Y96569D01*
X556824Y96671D01*
X556913Y96767D01*
X556964Y96848D01*
X557023Y96923D01*
X557085Y97037D01*
X557154Y97147D01*
X557191Y97235D01*
X557236Y97319D01*
X557276Y97443D01*
X557325Y97563D01*
X557345Y97657D01*
X557375Y97748D01*
X557393Y97876D01*
X557420Y98004D01*
X557428Y98133D01*
X557436Y98194D01*
X557435Y98239D01*
X557439Y98316D01*
X557439Y109664D01*
X557436Y109699D01*
X557438Y109733D01*
X557416Y109922D01*
X557399Y110113D01*
X557390Y110146D01*
X557386Y110180D01*
X557331Y110363D01*
X557281Y110547D01*
X557266Y110578D01*
X557256Y110611D01*
X557169Y110782D01*
X557087Y110954D01*
X557067Y110982D01*
X557052Y111013D01*
X556936Y111165D01*
X556825Y111320D01*
X556800Y111344D01*
X556780Y111371D01*
X556640Y111500D01*
X556503Y111634D01*
X556474Y111653D01*
X556448Y111677D01*
X556287Y111779D01*
X556130Y111886D01*
X556098Y111900D01*
X556069Y111918D01*
X555892Y111991D01*
X555718Y112068D01*
X555684Y112076D01*
X555652Y112089D01*
X555465Y112129D01*
X555280Y112175D01*
X555246Y112177D01*
X555212Y112184D01*
X554900Y112203D01*
X554587Y112203D01*
X552346Y113131D01*
X550631Y114846D01*
X549703Y117087D01*
X549703Y136513D01*
X550631Y138754D01*
X552346Y140469D01*
X554616Y141409D01*
X554645Y141411D01*
X554809Y141418D01*
X554869Y141431D01*
X554930Y141437D01*
X555089Y141480D01*
X555249Y141516D01*
X555305Y141539D01*
X555364Y141555D01*
X555512Y141626D01*
X555664Y141689D01*
X555716Y141722D01*
X555771Y141749D01*
X555904Y141844D01*
X556043Y141934D01*
X556100Y141985D01*
X556137Y142011D01*
X556179Y142054D01*
X556277Y142140D01*
X562201Y148065D01*
X562202Y148065D01*
X569703Y155567D01*
X569809Y155693D01*
X569920Y155814D01*
X569953Y155866D01*
X569992Y155912D01*
X570074Y156055D01*
X570162Y156194D01*
X570185Y156250D01*
X570216Y156303D01*
X570271Y156458D01*
X570333Y156610D01*
X570346Y156670D01*
X570366Y156728D01*
X570393Y156890D01*
X570428Y157051D01*
X570433Y157128D01*
X570440Y157172D01*
X570439Y157233D01*
X570447Y157363D01*
X570447Y179251D01*
X571375Y181492D01*
X573090Y183207D01*
X575331Y184135D01*
X607756Y184135D01*
X609997Y183207D01*
X611712Y181492D01*
X612640Y179251D01*
X612640Y146825D01*
X611712Y144585D01*
X609997Y142870D01*
X609651Y142726D01*
X609493Y142644D01*
X609333Y142567D01*
X609294Y142540D01*
X609252Y142517D01*
X609111Y142409D01*
X608967Y142305D01*
X608933Y142271D01*
X608896Y142242D01*
X608776Y142110D01*
X608653Y141983D01*
X608626Y141943D01*
X608594Y141907D01*
X608500Y141757D01*
X608401Y141609D01*
X608381Y141566D01*
X608356Y141525D01*
X608290Y141360D01*
X608218Y141198D01*
X608207Y141151D01*
X608189Y141107D01*
X608154Y140933D01*
X608112Y140760D01*
X608109Y140713D01*
X608099Y140666D01*
X608095Y140488D01*
X608084Y140311D01*
X608090Y140263D01*
X608088Y140216D01*
X608116Y140040D01*
X608136Y139864D01*
X608150Y139818D01*
X608157Y139771D01*
X608215Y139602D01*
X608266Y139433D01*
X608288Y139390D01*
X608304Y139345D01*
X608390Y139190D01*
X608471Y139031D01*
X608500Y138993D01*
X608523Y138952D01*
X608635Y138814D01*
X608743Y138673D01*
X608778Y138640D01*
X608808Y138603D01*
X608943Y138488D01*
X609074Y138367D01*
X609114Y138342D01*
X609151Y138311D01*
X609304Y138221D01*
X609454Y138126D01*
X609498Y138107D01*
X609539Y138083D01*
X609706Y138022D01*
X609870Y137955D01*
X609917Y137945D01*
X609962Y137928D01*
X610137Y137897D01*
X610310Y137860D01*
X610370Y137856D01*
X610405Y137850D01*
X610468Y137850D01*
X610622Y137841D01*
X615135Y137841D01*
X615781Y137668D01*
X616360Y137333D01*
X616924Y136769D01*
X616967Y136708D01*
X617000Y136676D01*
X617027Y136639D01*
X617159Y136518D01*
X617287Y136391D01*
X617325Y136365D01*
X617359Y136334D01*
X617510Y136237D01*
X617657Y136136D01*
X617699Y136117D01*
X617738Y136092D01*
X617904Y136024D01*
X618067Y135950D01*
X618112Y135939D01*
X618155Y135921D01*
X618330Y135883D01*
X618504Y135839D01*
X618550Y135836D01*
X618595Y135826D01*
X618907Y135807D01*
X633908Y135807D01*
X633908Y122766D01*
X623072Y122766D01*
X622426Y122939D01*
X621847Y123273D01*
X621676Y123445D01*
X621576Y123528D01*
X621483Y123619D01*
X621403Y123672D01*
X621330Y123734D01*
X621217Y123798D01*
X621110Y123871D01*
X621022Y123910D01*
X620939Y123957D01*
X620817Y124001D01*
X620698Y124053D01*
X620605Y124076D01*
X620515Y124108D01*
X620387Y124129D01*
X620260Y124160D01*
X620165Y124166D01*
X620071Y124181D01*
X619941Y124180D01*
X619811Y124188D01*
X619716Y124177D01*
X619621Y124175D01*
X619493Y124151D01*
X619364Y124136D01*
X619272Y124108D01*
X619178Y124090D01*
X619057Y124043D01*
X618933Y124005D01*
X618847Y123962D01*
X618758Y123928D01*
X618647Y123860D01*
X618531Y123801D01*
X618455Y123743D01*
X618374Y123694D01*
X618276Y123608D01*
X618173Y123529D01*
X618108Y123459D01*
X618036Y123395D01*
X617956Y123293D01*
X617867Y123198D01*
X617816Y123117D01*
X617757Y123042D01*
X617695Y122928D01*
X617626Y122818D01*
X617589Y122730D01*
X617544Y122646D01*
X617504Y122522D01*
X617455Y122401D01*
X617435Y122308D01*
X617405Y122217D01*
X617387Y122089D01*
X617360Y121961D01*
X617352Y121831D01*
X617344Y121771D01*
X617345Y121727D01*
X617341Y121649D01*
X617341Y117965D01*
X617168Y117319D01*
X616833Y116740D01*
X616360Y116267D01*
X615781Y115932D01*
X615135Y115759D01*
X610049Y115759D01*
X610049Y125090D01*
X610046Y125124D01*
X610048Y125159D01*
X610026Y125348D01*
X610009Y125538D01*
X610000Y125572D01*
X609996Y125606D01*
X609941Y125789D01*
X609891Y125973D01*
X609876Y126004D01*
X609866Y126037D01*
X609779Y126208D01*
X609697Y126379D01*
X609677Y126407D01*
X609662Y126438D01*
X609546Y126590D01*
X609435Y126745D01*
X609410Y126770D01*
X609390Y126797D01*
X609250Y126926D01*
X609113Y127059D01*
X609084Y127079D01*
X609058Y127102D01*
X608897Y127205D01*
X608740Y127312D01*
X608708Y127326D01*
X608679Y127344D01*
X608502Y127417D01*
X608328Y127494D01*
X608294Y127502D01*
X608262Y127515D01*
X608075Y127555D01*
X607890Y127600D01*
X607856Y127603D01*
X607822Y127610D01*
X607510Y127629D01*
X606629Y127629D01*
X606629Y128510D01*
X606626Y128545D01*
X606628Y128579D01*
X606606Y128768D01*
X606589Y128959D01*
X606580Y128992D01*
X606576Y129026D01*
X606521Y129209D01*
X606471Y129393D01*
X606456Y129424D01*
X606446Y129457D01*
X606359Y129628D01*
X606277Y129800D01*
X606257Y129828D01*
X606241Y129859D01*
X606126Y130011D01*
X606015Y130166D01*
X605990Y130190D01*
X605969Y130217D01*
X605829Y130346D01*
X605692Y130480D01*
X605664Y130499D01*
X605638Y130523D01*
X605477Y130625D01*
X605319Y130732D01*
X605288Y130746D01*
X605258Y130764D01*
X605082Y130837D01*
X604908Y130914D01*
X604874Y130922D01*
X604842Y130935D01*
X604655Y130975D01*
X604470Y131021D01*
X604436Y131023D01*
X604402Y131030D01*
X604090Y131049D01*
X594259Y131049D01*
X594259Y135635D01*
X594432Y136281D01*
X594767Y136860D01*
X595334Y137428D01*
X595382Y137461D01*
X595391Y137470D01*
X595401Y137477D01*
X595549Y137630D01*
X595699Y137781D01*
X595706Y137791D01*
X595715Y137799D01*
X595834Y137976D01*
X595955Y138152D01*
X595960Y138163D01*
X595967Y138173D01*
X596053Y138367D01*
X596141Y138562D01*
X596144Y138573D01*
X596149Y138584D01*
X596199Y138791D01*
X596252Y138998D01*
X596253Y139010D01*
X596256Y139022D01*
X596269Y139234D01*
X596284Y139447D01*
X596283Y139459D01*
X596283Y139471D01*
X596259Y139684D01*
X596236Y139895D01*
X596233Y139906D01*
X596231Y139918D01*
X596169Y140124D01*
X596110Y140327D01*
X596105Y140338D01*
X596101Y140349D01*
X596004Y140540D01*
X595909Y140730D01*
X595902Y140740D01*
X595897Y140751D01*
X595768Y140920D01*
X595641Y141092D01*
X595632Y141100D01*
X595625Y141109D01*
X595468Y141254D01*
X595312Y141400D01*
X595302Y141406D01*
X595293Y141415D01*
X595113Y141529D01*
X594935Y141645D01*
X594924Y141650D01*
X594914Y141656D01*
X594716Y141737D01*
X594520Y141820D01*
X594508Y141823D01*
X594497Y141827D01*
X594288Y141872D01*
X594081Y141919D01*
X594069Y141920D01*
X594057Y141922D01*
X593745Y141941D01*
X585868Y141941D01*
X585705Y141927D01*
X585540Y141920D01*
X585481Y141907D01*
X585420Y141901D01*
X585261Y141858D01*
X585100Y141822D01*
X585044Y141799D01*
X584985Y141783D01*
X584837Y141712D01*
X584685Y141649D01*
X584634Y141616D01*
X584579Y141590D01*
X584445Y141494D01*
X584307Y141405D01*
X584249Y141353D01*
X584213Y141327D01*
X584170Y141284D01*
X584073Y141198D01*
X580640Y137765D01*
X580535Y137639D01*
X580423Y137518D01*
X580391Y137467D01*
X580352Y137420D01*
X580270Y137277D01*
X580182Y137139D01*
X580158Y137082D01*
X580128Y137029D01*
X580073Y136874D01*
X580011Y136722D01*
X579998Y136662D01*
X579977Y136605D01*
X579951Y136442D01*
X579916Y136282D01*
X579911Y136205D01*
X579904Y136161D01*
X579905Y136099D01*
X579897Y135970D01*
X579897Y117087D01*
X578969Y114846D01*
X578504Y114382D01*
X578399Y114256D01*
X578287Y114135D01*
X578255Y114084D01*
X578216Y114037D01*
X578134Y113894D01*
X578046Y113756D01*
X578022Y113699D01*
X577992Y113646D01*
X577937Y113491D01*
X577875Y113339D01*
X577862Y113279D01*
X577841Y113222D01*
X577815Y113059D01*
X577780Y112899D01*
X577775Y112822D01*
X577768Y112778D01*
X577769Y112716D01*
X577761Y112587D01*
X577761Y109360D01*
X577764Y109326D01*
X577762Y109291D01*
X577784Y109102D01*
X577801Y108912D01*
X577810Y108878D01*
X577814Y108844D01*
X577869Y108661D01*
X577919Y108477D01*
X577934Y108446D01*
X577944Y108413D01*
X578031Y108242D01*
X578113Y108071D01*
X578133Y108042D01*
X578148Y108011D01*
X578264Y107859D01*
X578375Y107704D01*
X578400Y107680D01*
X578420Y107653D01*
X578560Y107524D01*
X578697Y107390D01*
X578726Y107371D01*
X578752Y107348D01*
X578913Y107245D01*
X579070Y107138D01*
X579102Y107124D01*
X579131Y107106D01*
X579308Y107033D01*
X579482Y106956D01*
X579516Y106948D01*
X579548Y106935D01*
X579735Y106895D01*
X579920Y106849D01*
X579954Y106847D01*
X579988Y106840D01*
X580300Y106821D01*
X607868Y106821D01*
X610109Y105893D01*
X611824Y104178D01*
X612752Y101937D01*
X612752Y82009D01*
X612768Y81832D01*
X612777Y81655D01*
X612788Y81608D01*
X612792Y81560D01*
X612839Y81389D01*
X612879Y81216D01*
X612898Y81172D01*
X612910Y81126D01*
X612986Y80966D01*
X613057Y80802D01*
X613083Y80763D01*
X613104Y80719D01*
X613207Y80575D01*
X613305Y80427D01*
X613338Y80392D01*
X613366Y80353D01*
X613493Y80229D01*
X613616Y80101D01*
X613654Y80073D01*
X613689Y80039D01*
X613836Y79940D01*
X613979Y79835D01*
X614022Y79814D01*
X614062Y79787D01*
X614224Y79715D01*
X614384Y79637D01*
X614430Y79624D01*
X614473Y79605D01*
X614646Y79563D01*
X614817Y79514D01*
X614864Y79510D01*
X614911Y79498D01*
X615088Y79487D01*
X615265Y79470D01*
X615313Y79474D01*
G37*
%LPC*%
G36*
X164853Y212603D02*
X164853Y212603D01*
X151030Y226426D01*
X151030Y245974D01*
X164853Y259797D01*
X180873Y259797D01*
X181037Y259811D01*
X181201Y259818D01*
X181261Y259831D01*
X181321Y259837D01*
X181480Y259880D01*
X181641Y259916D01*
X181697Y259939D01*
X181756Y259955D01*
X181904Y260026D01*
X182056Y260089D01*
X182108Y260123D01*
X182162Y260149D01*
X182296Y260244D01*
X182434Y260334D01*
X182492Y260385D01*
X182529Y260411D01*
X182571Y260454D01*
X182669Y260541D01*
X194979Y272851D01*
X195537Y273082D01*
X195640Y273136D01*
X195748Y273181D01*
X195839Y273240D01*
X195936Y273291D01*
X196028Y273362D01*
X196126Y273426D01*
X196242Y273528D01*
X196292Y273566D01*
X196316Y273593D01*
X196360Y273633D01*
X199679Y276951D01*
X205467Y279349D01*
X342925Y279349D01*
X343089Y279363D01*
X343253Y279370D01*
X343313Y279383D01*
X343373Y279389D01*
X343532Y279432D01*
X343693Y279468D01*
X343749Y279491D01*
X343808Y279507D01*
X343956Y279578D01*
X344108Y279641D01*
X344159Y279674D01*
X344214Y279701D01*
X344348Y279796D01*
X344486Y279886D01*
X344544Y279937D01*
X344580Y279963D01*
X344623Y280006D01*
X344720Y280092D01*
X371808Y307180D01*
X371913Y307306D01*
X372025Y307427D01*
X372057Y307478D01*
X372096Y307525D01*
X372178Y307668D01*
X372266Y307806D01*
X372290Y307863D01*
X372320Y307916D01*
X372375Y308071D01*
X372437Y308223D01*
X372450Y308283D01*
X372471Y308340D01*
X372497Y308503D01*
X372532Y308663D01*
X372537Y308740D01*
X372544Y308784D01*
X372543Y308846D01*
X372551Y308975D01*
X372551Y393233D01*
X374949Y399021D01*
X398479Y422551D01*
X399720Y423065D01*
X399823Y423119D01*
X399931Y423164D01*
X400022Y423223D01*
X400119Y423273D01*
X400211Y423345D01*
X400309Y423408D01*
X400425Y423511D01*
X400475Y423549D01*
X400499Y423576D01*
X400543Y423615D01*
X401991Y425064D01*
X401992Y425064D01*
X406779Y429851D01*
X412567Y432249D01*
X512833Y432249D01*
X518621Y429851D01*
X535851Y412621D01*
X538249Y406833D01*
X538249Y394888D01*
X538252Y394853D01*
X538250Y394819D01*
X538272Y394630D01*
X538289Y394439D01*
X538298Y394406D01*
X538302Y394372D01*
X538357Y394188D01*
X538407Y394005D01*
X538422Y393974D01*
X538432Y393941D01*
X538519Y393770D01*
X538601Y393598D01*
X538621Y393570D01*
X538636Y393539D01*
X538752Y393387D01*
X538863Y393232D01*
X538888Y393208D01*
X538908Y393181D01*
X539048Y393052D01*
X539185Y392918D01*
X539214Y392899D01*
X539240Y392875D01*
X539401Y392773D01*
X539558Y392666D01*
X539590Y392652D01*
X539619Y392634D01*
X539796Y392561D01*
X539970Y392484D01*
X540004Y392476D01*
X540036Y392463D01*
X540223Y392423D01*
X540408Y392377D01*
X540442Y392375D01*
X540476Y392368D01*
X540788Y392349D01*
X602233Y392349D01*
X604832Y391272D01*
X604944Y391237D01*
X605052Y391193D01*
X605123Y391177D01*
X605141Y391165D01*
X605280Y391097D01*
X605334Y391066D01*
X605368Y391054D01*
X605421Y391028D01*
X608021Y389951D01*
X612451Y385521D01*
X613528Y382921D01*
X613582Y382818D01*
X613627Y382710D01*
X613667Y382649D01*
X613670Y382628D01*
X613721Y382482D01*
X613737Y382421D01*
X613753Y382388D01*
X613772Y382332D01*
X614849Y379733D01*
X614849Y373467D01*
X613772Y370868D01*
X613737Y370756D01*
X613693Y370648D01*
X613677Y370577D01*
X613665Y370559D01*
X613597Y370420D01*
X613566Y370366D01*
X613554Y370332D01*
X613528Y370279D01*
X612451Y367679D01*
X608021Y363249D01*
X605421Y362172D01*
X605318Y362118D01*
X605210Y362073D01*
X605149Y362033D01*
X605128Y362030D01*
X604982Y361979D01*
X604921Y361963D01*
X604888Y361947D01*
X604832Y361928D01*
X602233Y360851D01*
X541165Y360851D01*
X541001Y360837D01*
X540837Y360830D01*
X540777Y360817D01*
X540717Y360811D01*
X540558Y360768D01*
X540397Y360732D01*
X540341Y360709D01*
X540282Y360693D01*
X540134Y360622D01*
X539982Y360559D01*
X539931Y360526D01*
X539876Y360499D01*
X539742Y360404D01*
X539604Y360314D01*
X539546Y360263D01*
X539510Y360237D01*
X539467Y360194D01*
X539370Y360108D01*
X538092Y358830D01*
X538003Y358723D01*
X537957Y358677D01*
X537946Y358660D01*
X537875Y358583D01*
X537843Y358532D01*
X537804Y358485D01*
X537722Y358342D01*
X537634Y358204D01*
X537610Y358147D01*
X537580Y358094D01*
X537525Y357939D01*
X537463Y357787D01*
X537450Y357727D01*
X537429Y357670D01*
X537403Y357507D01*
X537368Y357347D01*
X537363Y357270D01*
X537356Y357226D01*
X537357Y357164D01*
X537349Y357035D01*
X537349Y303021D01*
X537359Y302904D01*
X537359Y302787D01*
X537379Y302680D01*
X537389Y302572D01*
X537419Y302459D01*
X537440Y302344D01*
X537491Y302198D01*
X537507Y302138D01*
X537523Y302105D01*
X537542Y302049D01*
X538249Y300343D01*
X538249Y294077D01*
X536410Y289638D01*
X536375Y289527D01*
X536331Y289419D01*
X536308Y289312D01*
X536275Y289209D01*
X536261Y289093D01*
X536236Y288979D01*
X536226Y288825D01*
X536219Y288762D01*
X536220Y288726D01*
X536217Y288667D01*
X536217Y286862D01*
X534129Y281820D01*
X530270Y277961D01*
X525228Y275873D01*
X519772Y275873D01*
X514730Y277961D01*
X510871Y281820D01*
X508783Y286862D01*
X508783Y287603D01*
X508769Y287767D01*
X508762Y287931D01*
X508749Y287991D01*
X508743Y288051D01*
X508700Y288210D01*
X508664Y288371D01*
X508641Y288427D01*
X508625Y288486D01*
X508554Y288634D01*
X508491Y288786D01*
X508458Y288837D01*
X508431Y288892D01*
X508336Y289026D01*
X508282Y289110D01*
X505851Y294977D01*
X505851Y367743D01*
X506558Y369449D01*
X506593Y369560D01*
X506637Y369668D01*
X506660Y369775D01*
X506693Y369878D01*
X506707Y369994D01*
X506732Y370109D01*
X506742Y370262D01*
X506749Y370325D01*
X506748Y370361D01*
X506751Y370421D01*
X506751Y396125D01*
X506737Y396289D01*
X506730Y396453D01*
X506717Y396513D01*
X506711Y396573D01*
X506668Y396732D01*
X506632Y396893D01*
X506609Y396949D01*
X506593Y397008D01*
X506522Y397156D01*
X506459Y397308D01*
X506426Y397359D01*
X506399Y397414D01*
X506304Y397548D01*
X506214Y397686D01*
X506163Y397744D01*
X506137Y397780D01*
X506094Y397823D01*
X506008Y397920D01*
X503920Y400008D01*
X503794Y400113D01*
X503673Y400225D01*
X503622Y400257D01*
X503575Y400296D01*
X503432Y400378D01*
X503294Y400466D01*
X503237Y400490D01*
X503184Y400520D01*
X503029Y400575D01*
X502877Y400637D01*
X502817Y400650D01*
X502760Y400671D01*
X502597Y400697D01*
X502437Y400732D01*
X502360Y400737D01*
X502316Y400744D01*
X502254Y400743D01*
X502125Y400751D01*
X455139Y400751D01*
X454983Y400737D01*
X454828Y400732D01*
X454760Y400718D01*
X454690Y400711D01*
X454540Y400670D01*
X454387Y400638D01*
X454323Y400611D01*
X454256Y400593D01*
X454115Y400526D01*
X453971Y400467D01*
X453912Y400429D01*
X453849Y400399D01*
X453723Y400309D01*
X453591Y400225D01*
X453540Y400178D01*
X453483Y400137D01*
X453375Y400026D01*
X453260Y399920D01*
X453218Y399864D01*
X453169Y399815D01*
X453082Y399685D01*
X452988Y399561D01*
X452956Y399499D01*
X452917Y399442D01*
X452854Y399299D01*
X452783Y399160D01*
X452763Y399093D01*
X452735Y399030D01*
X452698Y398878D01*
X452653Y398729D01*
X452645Y398660D01*
X452628Y398592D01*
X452619Y398437D01*
X452601Y398282D01*
X452605Y398212D01*
X452601Y398143D01*
X452619Y397988D01*
X452628Y397832D01*
X452645Y397765D01*
X452653Y397696D01*
X452698Y397546D01*
X452735Y397395D01*
X452763Y397331D01*
X452783Y397265D01*
X452854Y397126D01*
X452917Y396983D01*
X452965Y396908D01*
X452987Y396863D01*
X453022Y396817D01*
X453085Y396719D01*
X454090Y395335D01*
X454816Y393910D01*
X455311Y392389D01*
X455561Y390810D01*
X455561Y384929D01*
X445400Y384929D01*
X435239Y384929D01*
X435239Y390810D01*
X435489Y392389D01*
X435984Y393910D01*
X436710Y395335D01*
X437715Y396719D01*
X437796Y396853D01*
X437883Y396982D01*
X437911Y397046D01*
X437947Y397106D01*
X438002Y397252D01*
X438065Y397394D01*
X438082Y397462D01*
X438106Y397527D01*
X438135Y397680D01*
X438172Y397832D01*
X438176Y397901D01*
X438189Y397969D01*
X438190Y398125D01*
X438199Y398281D01*
X438191Y398350D01*
X438192Y398420D01*
X438165Y398573D01*
X438147Y398728D01*
X438127Y398795D01*
X438115Y398863D01*
X438062Y399010D01*
X438017Y399159D01*
X437985Y399221D01*
X437962Y399287D01*
X437883Y399422D01*
X437813Y399561D01*
X437771Y399616D01*
X437736Y399676D01*
X437635Y399795D01*
X437541Y399919D01*
X437490Y399966D01*
X437445Y400020D01*
X437324Y400119D01*
X437210Y400225D01*
X437151Y400262D01*
X437097Y400306D01*
X436961Y400383D01*
X436830Y400466D01*
X436765Y400493D01*
X436705Y400527D01*
X436558Y400578D01*
X436413Y400637D01*
X436345Y400652D01*
X436279Y400675D01*
X436126Y400699D01*
X435973Y400732D01*
X435884Y400738D01*
X435835Y400745D01*
X435777Y400744D01*
X435661Y400751D01*
X423275Y400751D01*
X423111Y400737D01*
X422947Y400730D01*
X422887Y400717D01*
X422827Y400711D01*
X422668Y400668D01*
X422507Y400632D01*
X422451Y400609D01*
X422392Y400593D01*
X422244Y400522D01*
X422092Y400459D01*
X422041Y400426D01*
X421986Y400399D01*
X421852Y400304D01*
X421714Y400214D01*
X421656Y400163D01*
X421620Y400137D01*
X421577Y400094D01*
X421480Y400008D01*
X417321Y395849D01*
X416080Y395335D01*
X415977Y395281D01*
X415869Y395236D01*
X415778Y395177D01*
X415681Y395127D01*
X415589Y395055D01*
X415491Y394992D01*
X415375Y394889D01*
X415325Y394851D01*
X415301Y394824D01*
X415257Y394785D01*
X404792Y384320D01*
X404687Y384194D01*
X404575Y384073D01*
X404543Y384022D01*
X404504Y383975D01*
X404422Y383832D01*
X404334Y383694D01*
X404310Y383637D01*
X404280Y383584D01*
X404225Y383429D01*
X404163Y383277D01*
X404150Y383217D01*
X404129Y383160D01*
X404103Y382997D01*
X404068Y382837D01*
X404063Y382760D01*
X404056Y382716D01*
X404057Y382654D01*
X404049Y382525D01*
X404049Y298267D01*
X401651Y292479D01*
X359421Y250249D01*
X353633Y247851D01*
X216175Y247851D01*
X216011Y247837D01*
X215847Y247830D01*
X215787Y247817D01*
X215727Y247811D01*
X215568Y247768D01*
X215407Y247732D01*
X215351Y247709D01*
X215292Y247693D01*
X215144Y247622D01*
X214992Y247559D01*
X214941Y247526D01*
X214886Y247499D01*
X214752Y247404D01*
X214614Y247314D01*
X214556Y247263D01*
X214520Y247237D01*
X214477Y247194D01*
X214380Y247108D01*
X213421Y246149D01*
X212863Y245918D01*
X212760Y245864D01*
X212652Y245819D01*
X212560Y245760D01*
X212464Y245709D01*
X212372Y245638D01*
X212274Y245574D01*
X212158Y245472D01*
X212108Y245434D01*
X212084Y245407D01*
X212040Y245367D01*
X198967Y232295D01*
X198862Y232169D01*
X198750Y232048D01*
X198718Y231997D01*
X198678Y231950D01*
X198597Y231807D01*
X198508Y231668D01*
X198485Y231612D01*
X198455Y231559D01*
X198400Y231404D01*
X198337Y231252D01*
X198325Y231192D01*
X198304Y231135D01*
X198277Y230972D01*
X198243Y230812D01*
X198238Y230735D01*
X198231Y230690D01*
X198232Y230629D01*
X198224Y230500D01*
X198224Y226426D01*
X184401Y212603D01*
X164853Y212603D01*
G37*
%LPD*%
G36*
X31096Y11739D02*
X31096Y11739D01*
X31132Y11737D01*
X31321Y11759D01*
X31509Y11775D01*
X31544Y11785D01*
X31579Y11789D01*
X31761Y11844D01*
X31944Y11893D01*
X31976Y11909D01*
X32010Y11919D01*
X32179Y12005D01*
X32350Y12086D01*
X32380Y12107D01*
X32412Y12124D01*
X32562Y12238D01*
X32717Y12348D01*
X32742Y12374D01*
X32770Y12396D01*
X32899Y12535D01*
X33031Y12671D01*
X33051Y12700D01*
X33076Y12727D01*
X33177Y12887D01*
X33284Y13043D01*
X33298Y13076D01*
X33317Y13106D01*
X33389Y13282D01*
X33466Y13455D01*
X33475Y13490D01*
X33488Y13523D01*
X33528Y13709D01*
X33573Y13892D01*
X33575Y13928D01*
X33583Y13963D01*
X33602Y14275D01*
X33602Y28414D01*
X34530Y30655D01*
X36245Y32370D01*
X38486Y33298D01*
X56914Y33298D01*
X59213Y32345D01*
X59350Y32231D01*
X59382Y32212D01*
X59412Y32189D01*
X59578Y32100D01*
X59741Y32007D01*
X59776Y31995D01*
X59809Y31977D01*
X59988Y31919D01*
X60165Y31857D01*
X60202Y31850D01*
X60238Y31839D01*
X60423Y31814D01*
X60609Y31783D01*
X60647Y31784D01*
X60684Y31779D01*
X60871Y31787D01*
X61060Y31789D01*
X61096Y31796D01*
X61134Y31798D01*
X61316Y31839D01*
X61502Y31875D01*
X61537Y31888D01*
X61573Y31896D01*
X61692Y31946D01*
X61779Y31976D01*
X64486Y33098D01*
X82914Y33098D01*
X85155Y32170D01*
X87179Y30145D01*
X87297Y30047D01*
X87408Y29942D01*
X87469Y29902D01*
X87525Y29856D01*
X87657Y29780D01*
X87786Y29697D01*
X87853Y29669D01*
X87915Y29633D01*
X88060Y29581D01*
X88201Y29522D01*
X88271Y29506D01*
X88340Y29482D01*
X88491Y29457D01*
X88640Y29423D01*
X88712Y29420D01*
X88784Y29408D01*
X88937Y29410D01*
X89090Y29404D01*
X89162Y29413D01*
X89234Y29414D01*
X89385Y29444D01*
X89536Y29464D01*
X89605Y29486D01*
X89676Y29500D01*
X89819Y29555D01*
X89965Y29602D01*
X90048Y29644D01*
X90096Y29662D01*
X90098Y29663D01*
X90764Y29842D01*
X96561Y29842D01*
X96561Y19300D01*
X96562Y19288D01*
X96562Y19285D01*
X96563Y19268D01*
X96564Y19266D01*
X96562Y19231D01*
X96584Y19042D01*
X96600Y18852D01*
X96610Y18818D01*
X96614Y18784D01*
X96669Y18601D01*
X96719Y18417D01*
X96734Y18386D01*
X96744Y18353D01*
X96831Y18182D01*
X96912Y18011D01*
X96933Y17983D01*
X96948Y17952D01*
X97063Y17800D01*
X97175Y17645D01*
X97199Y17621D01*
X97220Y17593D01*
X97360Y17464D01*
X97497Y17331D01*
X97526Y17311D01*
X97551Y17288D01*
X97712Y17185D01*
X97870Y17079D01*
X97902Y17065D01*
X97931Y17046D01*
X98108Y16974D01*
X98282Y16896D01*
X98316Y16888D01*
X98348Y16875D01*
X98534Y16835D01*
X98719Y16790D01*
X98754Y16788D01*
X98788Y16780D01*
X99100Y16761D01*
X99135Y16764D01*
X99169Y16762D01*
X99359Y16784D01*
X99549Y16801D01*
X99582Y16810D01*
X99616Y16814D01*
X99799Y16869D01*
X99983Y16920D01*
X100014Y16934D01*
X100047Y16944D01*
X100218Y17031D01*
X100390Y17113D01*
X100418Y17133D01*
X100449Y17149D01*
X100601Y17264D01*
X100756Y17375D01*
X100780Y17400D01*
X100807Y17421D01*
X100937Y17561D01*
X101070Y17698D01*
X101089Y17726D01*
X101113Y17752D01*
X101215Y17913D01*
X101322Y18071D01*
X101336Y18102D01*
X101354Y18132D01*
X101427Y18308D01*
X101504Y18483D01*
X101512Y18516D01*
X101525Y18548D01*
X101566Y18735D01*
X101611Y18920D01*
X101613Y18954D01*
X101620Y18988D01*
X101639Y19300D01*
X101639Y29842D01*
X107435Y29842D01*
X108180Y29642D01*
X108273Y29626D01*
X108363Y29600D01*
X108494Y29587D01*
X108623Y29565D01*
X108717Y29565D01*
X108811Y29556D01*
X108942Y29566D01*
X109074Y29567D01*
X109166Y29584D01*
X109260Y29591D01*
X109387Y29624D01*
X109517Y29648D01*
X109605Y29681D01*
X109695Y29705D01*
X109815Y29760D01*
X109938Y29807D01*
X110019Y29855D01*
X110104Y29894D01*
X110212Y29970D01*
X110325Y30037D01*
X110396Y30099D01*
X110473Y30153D01*
X110566Y30246D01*
X110665Y30332D01*
X110724Y30405D01*
X110790Y30472D01*
X110865Y30580D01*
X110901Y30625D01*
X112745Y32470D01*
X114986Y33398D01*
X133414Y33398D01*
X135919Y32360D01*
X136125Y32296D01*
X136325Y32230D01*
X136337Y32229D01*
X136349Y32225D01*
X136562Y32198D01*
X136772Y32169D01*
X136783Y32170D01*
X136795Y32168D01*
X137008Y32179D01*
X137221Y32188D01*
X137233Y32191D01*
X137245Y32192D01*
X137451Y32239D01*
X137661Y32286D01*
X137672Y32291D01*
X137684Y32294D01*
X137863Y32371D01*
X137879Y32376D01*
X140586Y33498D01*
X153171Y33498D01*
X153388Y33517D01*
X153603Y33535D01*
X153611Y33537D01*
X153619Y33538D01*
X153828Y33595D01*
X154038Y33650D01*
X154046Y33654D01*
X154054Y33656D01*
X154248Y33748D01*
X154446Y33841D01*
X154453Y33846D01*
X154460Y33850D01*
X154637Y33976D01*
X154814Y34101D01*
X154819Y34107D01*
X154826Y34112D01*
X154977Y34267D01*
X155130Y34422D01*
X155135Y34428D01*
X155140Y34434D01*
X155261Y34613D01*
X155384Y34793D01*
X155388Y34801D01*
X155392Y34807D01*
X155480Y35004D01*
X155569Y35204D01*
X155571Y35212D01*
X155575Y35219D01*
X155625Y35426D01*
X155679Y35640D01*
X155679Y35649D01*
X155681Y35657D01*
X155694Y35871D01*
X155709Y36090D01*
X155708Y36098D01*
X155709Y36106D01*
X155684Y36321D01*
X155660Y36537D01*
X155658Y36545D01*
X155657Y36553D01*
X155594Y36762D01*
X155533Y36969D01*
X155529Y36976D01*
X155527Y36984D01*
X155428Y37178D01*
X155331Y37372D01*
X155325Y37380D01*
X155322Y37386D01*
X155305Y37408D01*
X155151Y37627D01*
X145814Y49254D01*
X145761Y49310D01*
X145714Y49371D01*
X145605Y49472D01*
X145503Y49579D01*
X145440Y49624D01*
X145383Y49677D01*
X145258Y49756D01*
X145138Y49843D01*
X145068Y49877D01*
X145003Y49918D01*
X144866Y49975D01*
X144733Y50039D01*
X144658Y50060D01*
X144587Y50089D01*
X144442Y50121D01*
X144299Y50161D01*
X144222Y50168D01*
X144146Y50184D01*
X143879Y50201D01*
X143851Y50203D01*
X143844Y50203D01*
X143835Y50203D01*
X141453Y50203D01*
X127630Y64026D01*
X127630Y83574D01*
X141453Y97397D01*
X161001Y97397D01*
X174824Y83574D01*
X174824Y64327D01*
X174826Y64301D01*
X174824Y64274D01*
X174846Y64076D01*
X174863Y63878D01*
X174870Y63853D01*
X174873Y63827D01*
X174930Y63636D01*
X174982Y63444D01*
X174993Y63420D01*
X175001Y63395D01*
X175090Y63217D01*
X175175Y63037D01*
X175191Y63016D01*
X175203Y62992D01*
X175383Y62737D01*
X195889Y37198D01*
X195943Y37142D01*
X195990Y37081D01*
X196099Y36980D01*
X196201Y36873D01*
X196264Y36828D01*
X196321Y36775D01*
X196446Y36696D01*
X196566Y36609D01*
X196635Y36575D01*
X196701Y36534D01*
X196838Y36477D01*
X196971Y36413D01*
X197046Y36392D01*
X197117Y36363D01*
X197262Y36332D01*
X197405Y36292D01*
X197482Y36284D01*
X197558Y36268D01*
X197825Y36251D01*
X197853Y36249D01*
X197860Y36249D01*
X197869Y36249D01*
X243732Y36249D01*
X243767Y36252D01*
X243801Y36250D01*
X243990Y36272D01*
X244181Y36289D01*
X244214Y36298D01*
X244248Y36302D01*
X244431Y36357D01*
X244615Y36407D01*
X244646Y36422D01*
X244679Y36432D01*
X244850Y36519D01*
X245022Y36601D01*
X245050Y36621D01*
X245081Y36636D01*
X245233Y36752D01*
X245388Y36863D01*
X245412Y36888D01*
X245439Y36908D01*
X245568Y37048D01*
X245702Y37185D01*
X245721Y37214D01*
X245745Y37240D01*
X245847Y37401D01*
X245954Y37558D01*
X245968Y37590D01*
X245986Y37619D01*
X246059Y37796D01*
X246136Y37970D01*
X246144Y38004D01*
X246157Y38036D01*
X246197Y38223D01*
X246243Y38408D01*
X246245Y38442D01*
X246252Y38476D01*
X246271Y38788D01*
X246271Y41014D01*
X247057Y42909D01*
X247085Y42999D01*
X247122Y43085D01*
X247152Y43213D01*
X247191Y43339D01*
X247203Y43432D01*
X247225Y43524D01*
X247231Y43655D01*
X247248Y43786D01*
X247243Y43880D01*
X247248Y43973D01*
X247232Y44104D01*
X247225Y44235D01*
X247204Y44327D01*
X247192Y44420D01*
X247153Y44546D01*
X247123Y44674D01*
X247086Y44760D01*
X247058Y44850D01*
X246997Y44967D01*
X246945Y45088D01*
X246893Y45166D01*
X246850Y45249D01*
X246769Y45354D01*
X246697Y45463D01*
X246632Y45531D01*
X246574Y45606D01*
X246477Y45694D01*
X246386Y45789D01*
X246310Y45845D01*
X246241Y45908D01*
X246067Y46023D01*
X246023Y46055D01*
X246005Y46064D01*
X245980Y46080D01*
X245893Y46131D01*
X245420Y46604D01*
X245085Y47183D01*
X244992Y47530D01*
X244988Y47541D01*
X244986Y47553D01*
X244911Y47753D01*
X244838Y47953D01*
X244832Y47963D01*
X244828Y47974D01*
X244719Y48157D01*
X244611Y48342D01*
X244603Y48351D01*
X244597Y48361D01*
X244458Y48522D01*
X244319Y48685D01*
X244310Y48692D01*
X244302Y48701D01*
X244136Y48835D01*
X243971Y48971D01*
X243961Y48976D01*
X243952Y48984D01*
X243764Y49086D01*
X243578Y49190D01*
X243567Y49194D01*
X243557Y49200D01*
X243354Y49268D01*
X243152Y49337D01*
X243141Y49339D01*
X243130Y49343D01*
X242917Y49374D01*
X242707Y49407D01*
X242696Y49407D01*
X242684Y49408D01*
X242471Y49401D01*
X242257Y49397D01*
X242246Y49394D01*
X242234Y49394D01*
X242025Y49349D01*
X241816Y49307D01*
X241805Y49303D01*
X241794Y49300D01*
X241596Y49220D01*
X241397Y49141D01*
X241387Y49135D01*
X241377Y49131D01*
X241196Y49016D01*
X241015Y48904D01*
X241006Y48896D01*
X240996Y48890D01*
X240838Y48745D01*
X240680Y48602D01*
X240673Y48593D01*
X240664Y48585D01*
X240535Y48416D01*
X240404Y48247D01*
X240399Y48237D01*
X240392Y48227D01*
X240294Y48037D01*
X240195Y47848D01*
X240191Y47837D01*
X240186Y47827D01*
X240087Y47530D01*
X240021Y47283D01*
X239686Y46704D01*
X239213Y46230D01*
X238634Y45896D01*
X237988Y45723D01*
X235692Y45723D01*
X235692Y52263D01*
X235689Y52298D01*
X235691Y52332D01*
X235669Y52522D01*
X235652Y52712D01*
X235643Y52745D01*
X235639Y52780D01*
X235584Y52963D01*
X235534Y53146D01*
X235519Y53177D01*
X235509Y53211D01*
X235422Y53381D01*
X235341Y53553D01*
X235320Y53581D01*
X235305Y53612D01*
X235189Y53764D01*
X235078Y53919D01*
X235054Y53943D01*
X235033Y53971D01*
X234893Y54100D01*
X234756Y54233D01*
X234727Y54252D01*
X234702Y54276D01*
X234541Y54378D01*
X234383Y54485D01*
X234351Y54499D01*
X234322Y54518D01*
X234145Y54590D01*
X233971Y54667D01*
X233937Y54675D01*
X233905Y54689D01*
X233719Y54729D01*
X233533Y54774D01*
X233499Y54776D01*
X233465Y54783D01*
X233153Y54803D01*
X233118Y54799D01*
X233084Y54802D01*
X232894Y54780D01*
X232704Y54763D01*
X232671Y54754D01*
X232636Y54750D01*
X232454Y54694D01*
X232270Y54644D01*
X232239Y54629D01*
X232205Y54619D01*
X232035Y54532D01*
X231863Y54451D01*
X231835Y54431D01*
X231804Y54415D01*
X231652Y54300D01*
X231497Y54189D01*
X231473Y54164D01*
X231445Y54143D01*
X231316Y54003D01*
X231183Y53866D01*
X231164Y53837D01*
X231140Y53812D01*
X231038Y53651D01*
X230931Y53493D01*
X230917Y53461D01*
X230898Y53432D01*
X230826Y53256D01*
X230749Y53081D01*
X230741Y53047D01*
X230727Y53015D01*
X230687Y52829D01*
X230642Y52644D01*
X230640Y52609D01*
X230633Y52575D01*
X230614Y52263D01*
X230614Y45723D01*
X228318Y45723D01*
X227672Y45896D01*
X227093Y46230D01*
X226620Y46704D01*
X226285Y47283D01*
X226112Y47929D01*
X226112Y51471D01*
X226101Y51600D01*
X226099Y51730D01*
X226081Y51824D01*
X226072Y51919D01*
X226038Y52045D01*
X226013Y52172D01*
X225979Y52261D01*
X225954Y52353D01*
X225898Y52471D01*
X225851Y52592D01*
X225801Y52674D01*
X225760Y52760D01*
X225685Y52866D01*
X225617Y52977D01*
X225554Y53048D01*
X225498Y53126D01*
X225405Y53217D01*
X225319Y53314D01*
X225244Y53374D01*
X225176Y53440D01*
X225068Y53513D01*
X224966Y53594D01*
X224882Y53639D01*
X224803Y53692D01*
X224684Y53745D01*
X224569Y53806D01*
X224478Y53836D01*
X224391Y53875D01*
X224264Y53905D01*
X224141Y53946D01*
X224046Y53959D01*
X223953Y53981D01*
X223824Y53989D01*
X223695Y54007D01*
X223599Y54003D01*
X223504Y54009D01*
X223375Y53994D01*
X223245Y53989D01*
X223152Y53968D01*
X223057Y53957D01*
X222932Y53919D01*
X222805Y53891D01*
X222717Y53854D01*
X222626Y53826D01*
X222510Y53767D01*
X222390Y53717D01*
X222310Y53665D01*
X222224Y53622D01*
X222121Y53544D01*
X222012Y53473D01*
X221914Y53387D01*
X221866Y53350D01*
X221835Y53317D01*
X221777Y53266D01*
X221106Y52595D01*
X218866Y51667D01*
X207440Y51667D01*
X205199Y52595D01*
X203484Y54310D01*
X202556Y56551D01*
X202556Y59508D01*
X202546Y59625D01*
X202545Y59741D01*
X202526Y59848D01*
X202516Y59957D01*
X202486Y60069D01*
X202465Y60184D01*
X202439Y60258D01*
X202439Y73226D01*
X202425Y73390D01*
X202418Y73554D01*
X202405Y73614D01*
X202399Y73674D01*
X202356Y73833D01*
X202320Y73994D01*
X202297Y74050D01*
X202281Y74109D01*
X202210Y74257D01*
X202147Y74409D01*
X202114Y74460D01*
X202087Y74515D01*
X201992Y74649D01*
X201902Y74787D01*
X201851Y74845D01*
X201825Y74881D01*
X201782Y74924D01*
X201696Y75021D01*
X200380Y76337D01*
X199877Y77551D01*
X199801Y77696D01*
X199732Y77846D01*
X199697Y77896D01*
X199669Y77950D01*
X199568Y78080D01*
X199474Y78214D01*
X199430Y78257D01*
X199393Y78306D01*
X199271Y78416D01*
X199154Y78532D01*
X199104Y78566D01*
X199059Y78607D01*
X198919Y78694D01*
X198784Y78788D01*
X198714Y78822D01*
X198677Y78845D01*
X198620Y78868D01*
X198503Y78925D01*
X197296Y79425D01*
X155761Y120960D01*
X155635Y121065D01*
X155514Y121177D01*
X155462Y121209D01*
X155416Y121249D01*
X155273Y121330D01*
X155134Y121418D01*
X155078Y121442D01*
X155025Y121472D01*
X154870Y121527D01*
X154718Y121589D01*
X154658Y121602D01*
X154600Y121623D01*
X154438Y121650D01*
X154277Y121684D01*
X154200Y121689D01*
X154156Y121696D01*
X154095Y121695D01*
X153965Y121703D01*
X144524Y121703D01*
X133630Y132597D01*
X133630Y142039D01*
X133615Y142202D01*
X133609Y142367D01*
X133596Y142426D01*
X133590Y142487D01*
X133547Y142646D01*
X133511Y142806D01*
X133488Y142863D01*
X133472Y142922D01*
X133401Y143070D01*
X133338Y143222D01*
X133304Y143273D01*
X133278Y143328D01*
X133183Y143462D01*
X133093Y143600D01*
X133042Y143658D01*
X133016Y143694D01*
X132972Y143737D01*
X132886Y143834D01*
X62658Y214062D01*
X62559Y214146D01*
X62465Y214236D01*
X62386Y214290D01*
X62313Y214351D01*
X62200Y214416D01*
X62092Y214489D01*
X62005Y214527D01*
X61922Y214575D01*
X61800Y214618D01*
X61681Y214671D01*
X61588Y214693D01*
X61498Y214725D01*
X61369Y214747D01*
X61243Y214777D01*
X61148Y214783D01*
X61053Y214799D01*
X60923Y214797D01*
X60794Y214805D01*
X60699Y214794D01*
X60603Y214793D01*
X60476Y214768D01*
X60346Y214753D01*
X60255Y214725D01*
X60161Y214707D01*
X60040Y214660D01*
X59915Y214623D01*
X59830Y214579D01*
X59741Y214545D01*
X59630Y214477D01*
X59514Y214418D01*
X59438Y214361D01*
X59356Y214311D01*
X59259Y214225D01*
X59155Y214146D01*
X59091Y214076D01*
X59019Y214013D01*
X58939Y213911D01*
X58850Y213815D01*
X58799Y213734D01*
X58740Y213660D01*
X58678Y213545D01*
X58608Y213435D01*
X58572Y213347D01*
X58527Y213263D01*
X58487Y213139D01*
X58437Y213019D01*
X58417Y212925D01*
X58388Y212835D01*
X58370Y212706D01*
X58343Y212579D01*
X58335Y212449D01*
X58326Y212389D01*
X58328Y212344D01*
X58324Y212267D01*
X58324Y199926D01*
X44501Y186103D01*
X24953Y186103D01*
X19177Y191879D01*
X19073Y191966D01*
X18975Y192061D01*
X18901Y192110D01*
X18832Y192168D01*
X18714Y192235D01*
X18601Y192311D01*
X18519Y192347D01*
X18441Y192391D01*
X18313Y192437D01*
X18188Y192491D01*
X18101Y192512D01*
X18017Y192542D01*
X17883Y192564D01*
X17750Y192596D01*
X17661Y192601D01*
X17573Y192615D01*
X17437Y192613D01*
X17300Y192621D01*
X17212Y192610D01*
X17122Y192609D01*
X16989Y192583D01*
X16854Y192567D01*
X16768Y192541D01*
X16680Y192524D01*
X16553Y192474D01*
X16423Y192434D01*
X16344Y192394D01*
X16260Y192361D01*
X16144Y192290D01*
X16023Y192228D01*
X15952Y192174D01*
X15876Y192127D01*
X15774Y192037D01*
X15665Y191954D01*
X15605Y191888D01*
X15538Y191829D01*
X15454Y191722D01*
X15362Y191622D01*
X15314Y191546D01*
X15259Y191476D01*
X15194Y191356D01*
X15122Y191241D01*
X15088Y191158D01*
X15046Y191079D01*
X15004Y190950D01*
X14953Y190823D01*
X14935Y190736D01*
X14907Y190651D01*
X14888Y190516D01*
X14860Y190383D01*
X14854Y190264D01*
X14846Y190205D01*
X14848Y190156D01*
X14843Y190071D01*
X15206Y115568D01*
X15217Y115444D01*
X15219Y115320D01*
X15238Y115221D01*
X15248Y115119D01*
X15281Y115000D01*
X15304Y114878D01*
X15341Y114784D01*
X15368Y114686D01*
X15422Y114574D01*
X15467Y114458D01*
X15520Y114372D01*
X15564Y114280D01*
X15636Y114179D01*
X15701Y114074D01*
X15768Y113998D01*
X15828Y113915D01*
X15917Y113829D01*
X15999Y113736D01*
X16079Y113673D01*
X16152Y113603D01*
X16255Y113534D01*
X16352Y113457D01*
X16442Y113409D01*
X16526Y113352D01*
X16640Y113303D01*
X16749Y113244D01*
X16846Y113213D01*
X16939Y113172D01*
X17059Y113143D01*
X17177Y113105D01*
X17278Y113091D01*
X17377Y113068D01*
X17500Y113061D01*
X17623Y113044D01*
X17725Y113048D01*
X17826Y113042D01*
X17949Y113057D01*
X18073Y113062D01*
X18172Y113084D01*
X18273Y113096D01*
X18392Y113133D01*
X18513Y113160D01*
X18606Y113199D01*
X18704Y113229D01*
X18814Y113286D01*
X18928Y113333D01*
X19013Y113388D01*
X19104Y113435D01*
X19202Y113510D01*
X19306Y113578D01*
X19412Y113671D01*
X19461Y113709D01*
X19489Y113739D01*
X19540Y113784D01*
X24953Y119197D01*
X44501Y119197D01*
X58324Y105374D01*
X58324Y85826D01*
X44501Y72003D01*
X24953Y72003D01*
X19736Y77220D01*
X19632Y77308D01*
X19533Y77402D01*
X19459Y77452D01*
X19391Y77509D01*
X19273Y77577D01*
X19159Y77652D01*
X19077Y77688D01*
X19000Y77732D01*
X18871Y77778D01*
X18747Y77833D01*
X18660Y77853D01*
X18575Y77883D01*
X18441Y77905D01*
X18309Y77937D01*
X18219Y77942D01*
X18131Y77957D01*
X17995Y77955D01*
X17859Y77963D01*
X17770Y77952D01*
X17681Y77951D01*
X17547Y77925D01*
X17412Y77908D01*
X17327Y77882D01*
X17239Y77865D01*
X17112Y77816D01*
X16982Y77776D01*
X16902Y77735D01*
X16819Y77703D01*
X16702Y77632D01*
X16581Y77570D01*
X16511Y77515D01*
X16434Y77469D01*
X16332Y77379D01*
X16224Y77296D01*
X16164Y77230D01*
X16097Y77171D01*
X16012Y77064D01*
X15920Y76963D01*
X15873Y76888D01*
X15817Y76818D01*
X15753Y76697D01*
X15680Y76582D01*
X15647Y76499D01*
X15605Y76421D01*
X15563Y76291D01*
X15512Y76165D01*
X15493Y76077D01*
X15466Y75992D01*
X15447Y75857D01*
X15419Y75724D01*
X15412Y75605D01*
X15404Y75546D01*
X15406Y75498D01*
X15401Y75412D01*
X15699Y14275D01*
X15702Y14248D01*
X15700Y14221D01*
X15723Y14024D01*
X15741Y13827D01*
X15748Y13801D01*
X15752Y13774D01*
X15809Y13584D01*
X15862Y13393D01*
X15874Y13369D01*
X15881Y13343D01*
X15971Y13166D01*
X16057Y12987D01*
X16073Y12965D01*
X16085Y12941D01*
X16205Y12784D01*
X16321Y12623D01*
X16341Y12604D01*
X16357Y12582D01*
X16503Y12448D01*
X16645Y12310D01*
X16668Y12295D01*
X16688Y12277D01*
X16855Y12170D01*
X17020Y12060D01*
X17044Y12049D01*
X17067Y12034D01*
X17252Y11959D01*
X17432Y11880D01*
X17459Y11873D01*
X17484Y11863D01*
X17678Y11821D01*
X17870Y11775D01*
X17897Y11774D01*
X17924Y11768D01*
X18236Y11748D01*
X31061Y11736D01*
X31096Y11739D01*
G37*
G36*
X521265Y36264D02*
X521265Y36264D01*
X521433Y36271D01*
X521489Y36284D01*
X521547Y36289D01*
X521709Y36333D01*
X521872Y36369D01*
X521926Y36392D01*
X521981Y36407D01*
X522133Y36479D01*
X522287Y36544D01*
X522336Y36576D01*
X522388Y36601D01*
X522524Y36698D01*
X522665Y36789D01*
X522719Y36838D01*
X522754Y36863D01*
X522797Y36907D01*
X522898Y36997D01*
X528257Y42382D01*
X528338Y42479D01*
X528427Y42570D01*
X528482Y42652D01*
X528545Y42728D01*
X528608Y42838D01*
X528679Y42943D01*
X528719Y43034D01*
X528767Y43119D01*
X528809Y43239D01*
X528861Y43355D01*
X528884Y43451D01*
X528917Y43544D01*
X528937Y43669D01*
X528968Y43792D01*
X528974Y43891D01*
X528989Y43988D01*
X528987Y44115D01*
X528995Y44242D01*
X528984Y44340D01*
X528982Y44438D01*
X528958Y44563D01*
X528943Y44689D01*
X528915Y44784D01*
X528896Y44880D01*
X528850Y44999D01*
X528813Y45120D01*
X528768Y45208D01*
X528732Y45300D01*
X528666Y45408D01*
X528608Y45521D01*
X528549Y45600D01*
X528497Y45684D01*
X528413Y45779D01*
X528336Y45880D01*
X528264Y45947D01*
X528198Y46021D01*
X528099Y46099D01*
X528005Y46185D01*
X527922Y46238D01*
X527845Y46299D01*
X527733Y46359D01*
X527626Y46427D01*
X527534Y46465D01*
X527447Y46511D01*
X527326Y46550D01*
X527209Y46598D01*
X527113Y46619D01*
X527019Y46649D01*
X526893Y46666D01*
X526769Y46693D01*
X526634Y46701D01*
X526572Y46709D01*
X526530Y46708D01*
X526457Y46712D01*
X524880Y46712D01*
X524716Y46697D01*
X524552Y46691D01*
X524492Y46678D01*
X524432Y46672D01*
X524273Y46629D01*
X524112Y46593D01*
X524056Y46570D01*
X523997Y46554D01*
X523849Y46483D01*
X523697Y46420D01*
X523645Y46386D01*
X523591Y46360D01*
X523457Y46265D01*
X523441Y46254D01*
X521080Y45276D01*
X508654Y45276D01*
X507339Y45821D01*
X507182Y45870D01*
X507027Y45927D01*
X506967Y45937D01*
X506909Y45956D01*
X506746Y45976D01*
X506584Y46005D01*
X506523Y46005D01*
X506462Y46012D01*
X506298Y46004D01*
X506134Y46003D01*
X506074Y45993D01*
X506013Y45989D01*
X505853Y45952D01*
X505691Y45923D01*
X505617Y45897D01*
X505574Y45887D01*
X505518Y45863D01*
X505395Y45821D01*
X504080Y45276D01*
X491654Y45276D01*
X489413Y46204D01*
X488690Y46927D01*
X488664Y46950D01*
X488641Y46975D01*
X488491Y47094D01*
X488345Y47216D01*
X488315Y47233D01*
X488288Y47255D01*
X488119Y47345D01*
X487954Y47439D01*
X487921Y47451D01*
X487891Y47467D01*
X487710Y47526D01*
X487530Y47590D01*
X487495Y47596D01*
X487463Y47607D01*
X487274Y47633D01*
X487086Y47664D01*
X487051Y47663D01*
X487017Y47668D01*
X486826Y47660D01*
X486635Y47658D01*
X486601Y47651D01*
X486567Y47650D01*
X486381Y47608D01*
X486193Y47572D01*
X486161Y47560D01*
X486127Y47552D01*
X485952Y47479D01*
X485773Y47410D01*
X485744Y47392D01*
X485712Y47378D01*
X485552Y47275D01*
X485388Y47176D01*
X485363Y47153D01*
X485333Y47134D01*
X485099Y46927D01*
X483504Y45331D01*
X481263Y44403D01*
X463637Y44403D01*
X461396Y45331D01*
X459681Y47046D01*
X458753Y49287D01*
X458753Y63136D01*
X458746Y63218D01*
X458748Y63301D01*
X458726Y63442D01*
X458713Y63585D01*
X458692Y63664D01*
X458679Y63746D01*
X458632Y63881D01*
X458595Y64019D01*
X458559Y64093D01*
X458533Y64171D01*
X458463Y64296D01*
X458401Y64426D01*
X458353Y64493D01*
X458313Y64565D01*
X458223Y64675D01*
X458139Y64792D01*
X458080Y64849D01*
X458028Y64913D01*
X457919Y65006D01*
X457817Y65106D01*
X457748Y65152D01*
X457686Y65205D01*
X457562Y65278D01*
X457444Y65358D01*
X457368Y65391D01*
X457297Y65433D01*
X457163Y65482D01*
X457032Y65540D01*
X456952Y65560D01*
X456874Y65588D01*
X456733Y65613D01*
X456594Y65647D01*
X456512Y65652D01*
X456431Y65666D01*
X456288Y65666D01*
X456145Y65674D01*
X456063Y65665D01*
X455981Y65665D01*
X455840Y65639D01*
X455698Y65622D01*
X455619Y65598D01*
X455538Y65584D01*
X455455Y65555D01*
X449169Y65555D01*
X449005Y65541D01*
X448840Y65534D01*
X448781Y65521D01*
X448720Y65515D01*
X448561Y65472D01*
X448401Y65436D01*
X448345Y65413D01*
X448286Y65397D01*
X448137Y65326D01*
X447985Y65263D01*
X447934Y65230D01*
X447879Y65203D01*
X447745Y65108D01*
X447607Y65018D01*
X447549Y64967D01*
X447513Y64941D01*
X447470Y64898D01*
X447373Y64812D01*
X444861Y62299D01*
X434339Y62299D01*
X426674Y69964D01*
X426638Y70058D01*
X426588Y70140D01*
X426547Y70226D01*
X426472Y70331D01*
X426404Y70443D01*
X426341Y70514D01*
X426285Y70592D01*
X426192Y70683D01*
X426106Y70780D01*
X426031Y70839D01*
X425963Y70906D01*
X425855Y70979D01*
X425753Y71059D01*
X425669Y71105D01*
X425590Y71158D01*
X425471Y71211D01*
X425356Y71272D01*
X425265Y71302D01*
X425178Y71340D01*
X425051Y71371D01*
X424928Y71411D01*
X424833Y71424D01*
X424740Y71447D01*
X424611Y71455D01*
X424482Y71473D01*
X424386Y71469D01*
X424291Y71475D01*
X424162Y71460D01*
X424032Y71454D01*
X423939Y71434D01*
X423844Y71423D01*
X423719Y71385D01*
X423592Y71357D01*
X423504Y71320D01*
X423413Y71292D01*
X423297Y71233D01*
X423177Y71183D01*
X423096Y71131D01*
X423011Y71088D01*
X422908Y71009D01*
X422799Y70939D01*
X422701Y70853D01*
X422653Y70816D01*
X422622Y70783D01*
X422564Y70732D01*
X403780Y51947D01*
X400419Y50555D01*
X395469Y50555D01*
X395257Y50536D01*
X395046Y50520D01*
X395033Y50517D01*
X395020Y50515D01*
X394814Y50459D01*
X394610Y50406D01*
X394598Y50400D01*
X394586Y50397D01*
X394395Y50306D01*
X394202Y50217D01*
X394191Y50209D01*
X394179Y50203D01*
X394007Y50081D01*
X393833Y49958D01*
X393824Y49949D01*
X393813Y49941D01*
X393664Y49789D01*
X393516Y49639D01*
X393508Y49628D01*
X393499Y49619D01*
X393380Y49443D01*
X393260Y49269D01*
X393253Y49254D01*
X393247Y49246D01*
X393231Y49209D01*
X393123Y48988D01*
X392319Y47047D01*
X390604Y45331D01*
X388363Y44403D01*
X370737Y44403D01*
X368496Y45331D01*
X366781Y47046D01*
X365853Y49287D01*
X365853Y53462D01*
X365839Y53626D01*
X365832Y53790D01*
X365819Y53850D01*
X365813Y53911D01*
X365770Y54070D01*
X365734Y54230D01*
X365711Y54286D01*
X365695Y54345D01*
X365624Y54493D01*
X365561Y54645D01*
X365528Y54697D01*
X365501Y54752D01*
X365406Y54885D01*
X365316Y55024D01*
X365265Y55081D01*
X365239Y55118D01*
X365196Y55160D01*
X365110Y55258D01*
X353443Y66924D01*
X353353Y66999D01*
X353270Y67082D01*
X353181Y67144D01*
X353098Y67213D01*
X352996Y67271D01*
X352900Y67338D01*
X352761Y67405D01*
X352707Y67437D01*
X352673Y67449D01*
X352619Y67475D01*
X348296Y69265D01*
X345165Y72396D01*
X343471Y76486D01*
X343471Y80914D01*
X345165Y85004D01*
X348296Y88135D01*
X352386Y89829D01*
X356814Y89829D01*
X360904Y88135D01*
X364035Y85004D01*
X365043Y82568D01*
X365141Y82381D01*
X365238Y82191D01*
X365246Y82181D01*
X365252Y82169D01*
X365382Y82002D01*
X365510Y81833D01*
X365520Y81824D01*
X365528Y81813D01*
X365685Y81671D01*
X365841Y81527D01*
X365852Y81520D01*
X365862Y81511D01*
X366042Y81400D01*
X366221Y81286D01*
X366233Y81281D01*
X366244Y81274D01*
X366441Y81195D01*
X366637Y81115D01*
X366650Y81112D01*
X366662Y81107D01*
X366870Y81064D01*
X367077Y81020D01*
X367093Y81019D01*
X367104Y81017D01*
X367143Y81016D01*
X367389Y81001D01*
X378290Y81001D01*
X378324Y81004D01*
X378359Y81002D01*
X378548Y81024D01*
X378738Y81041D01*
X378772Y81050D01*
X378806Y81054D01*
X378989Y81109D01*
X379173Y81159D01*
X379204Y81174D01*
X379237Y81184D01*
X379408Y81271D01*
X379550Y81339D01*
X379581Y81318D01*
X379612Y81304D01*
X379642Y81286D01*
X379818Y81213D01*
X379992Y81136D01*
X380026Y81128D01*
X380058Y81115D01*
X380245Y81074D01*
X380430Y81029D01*
X380464Y81027D01*
X380498Y81020D01*
X380810Y81001D01*
X389691Y81001D01*
X389691Y75433D01*
X389705Y75269D01*
X389712Y75105D01*
X389725Y75045D01*
X389731Y74985D01*
X389774Y74826D01*
X389810Y74665D01*
X389833Y74609D01*
X389849Y74550D01*
X389920Y74402D01*
X389983Y74250D01*
X390016Y74199D01*
X390043Y74144D01*
X390138Y74010D01*
X390228Y73872D01*
X390279Y73814D01*
X390305Y73778D01*
X390348Y73735D01*
X390434Y73638D01*
X392319Y71754D01*
X392447Y71445D01*
X392485Y71371D01*
X392514Y71295D01*
X392589Y71172D01*
X392655Y71045D01*
X392705Y70980D01*
X392748Y70910D01*
X392843Y70803D01*
X392931Y70689D01*
X392992Y70634D01*
X393047Y70572D01*
X393159Y70484D01*
X393265Y70388D01*
X393335Y70344D01*
X393400Y70293D01*
X393526Y70226D01*
X393647Y70150D01*
X393724Y70119D01*
X393796Y70080D01*
X393933Y70036D01*
X394066Y69983D01*
X394146Y69967D01*
X394225Y69941D01*
X394366Y69922D01*
X394507Y69893D01*
X394589Y69891D01*
X394671Y69880D01*
X394814Y69886D01*
X394957Y69882D01*
X395038Y69895D01*
X395121Y69898D01*
X395260Y69929D01*
X395402Y69951D01*
X395480Y69978D01*
X395560Y69996D01*
X395692Y70051D01*
X395828Y70097D01*
X395899Y70138D01*
X395976Y70169D01*
X396096Y70247D01*
X396221Y70317D01*
X396285Y70369D01*
X396354Y70414D01*
X396539Y70577D01*
X396569Y70602D01*
X396576Y70610D01*
X396588Y70621D01*
X407106Y81138D01*
X407211Y81264D01*
X407323Y81385D01*
X407355Y81437D01*
X407394Y81484D01*
X407476Y81626D01*
X407564Y81765D01*
X407588Y81822D01*
X407618Y81874D01*
X407673Y82029D01*
X407735Y82182D01*
X407748Y82241D01*
X407769Y82299D01*
X407795Y82461D01*
X407830Y82622D01*
X407835Y82699D01*
X407842Y82743D01*
X407841Y82804D01*
X407849Y82934D01*
X407849Y92961D01*
X415289Y100401D01*
X425811Y100401D01*
X426120Y100091D01*
X426220Y100008D01*
X426313Y99917D01*
X426393Y99863D01*
X426466Y99802D01*
X426579Y99738D01*
X426686Y99665D01*
X426774Y99626D01*
X426857Y99579D01*
X426979Y99535D01*
X427098Y99483D01*
X427191Y99460D01*
X427281Y99428D01*
X427409Y99407D01*
X427536Y99376D01*
X427631Y99370D01*
X427725Y99354D01*
X427855Y99356D01*
X427985Y99348D01*
X428080Y99359D01*
X428175Y99361D01*
X428303Y99385D01*
X428432Y99400D01*
X428524Y99428D01*
X428618Y99446D01*
X428739Y99493D01*
X428863Y99531D01*
X428949Y99574D01*
X429038Y99608D01*
X429149Y99676D01*
X429265Y99735D01*
X429341Y99793D01*
X429422Y99842D01*
X429520Y99928D01*
X429623Y100007D01*
X429688Y100077D01*
X429760Y100141D01*
X429840Y100242D01*
X429929Y100338D01*
X429980Y100419D01*
X430039Y100494D01*
X430100Y100608D01*
X430170Y100718D01*
X430207Y100806D01*
X430252Y100890D01*
X430292Y101014D01*
X430341Y101134D01*
X430361Y101228D01*
X430391Y101319D01*
X430409Y101447D01*
X430436Y101575D01*
X430444Y101705D01*
X430452Y101765D01*
X430451Y101809D01*
X430455Y101887D01*
X430455Y104188D01*
X435812Y109545D01*
X437061Y109545D01*
X437061Y100400D01*
X437064Y100366D01*
X437062Y100331D01*
X437084Y100142D01*
X437100Y99952D01*
X437110Y99918D01*
X437114Y99884D01*
X437169Y99701D01*
X437219Y99517D01*
X437234Y99486D01*
X437244Y99453D01*
X437331Y99282D01*
X437412Y99111D01*
X437433Y99083D01*
X437448Y99052D01*
X437563Y98900D01*
X437675Y98745D01*
X437675Y98744D01*
X437699Y98720D01*
X437720Y98693D01*
X437721Y98693D01*
X437721Y98692D01*
X437861Y98563D01*
X437998Y98430D01*
X438026Y98411D01*
X438052Y98387D01*
X438213Y98285D01*
X438371Y98178D01*
X438402Y98164D01*
X438432Y98145D01*
X438608Y98073D01*
X438783Y97996D01*
X438816Y97988D01*
X438848Y97975D01*
X439035Y97934D01*
X439220Y97889D01*
X439254Y97887D01*
X439288Y97880D01*
X439600Y97861D01*
X448745Y97861D01*
X448745Y96612D01*
X444143Y92010D01*
X444120Y91983D01*
X444094Y91960D01*
X443977Y91812D01*
X443854Y91665D01*
X443836Y91634D01*
X443815Y91607D01*
X443725Y91439D01*
X443630Y91274D01*
X443619Y91241D01*
X443602Y91210D01*
X443543Y91029D01*
X443480Y90849D01*
X443474Y90815D01*
X443463Y90782D01*
X443437Y90594D01*
X443406Y90405D01*
X443406Y90371D01*
X443402Y90336D01*
X443410Y90146D01*
X443412Y89955D01*
X443419Y89921D01*
X443420Y89886D01*
X443461Y89700D01*
X443498Y89513D01*
X443510Y89480D01*
X443518Y89447D01*
X443591Y89271D01*
X443660Y89093D01*
X443678Y89063D01*
X443691Y89031D01*
X443795Y88871D01*
X443894Y88708D01*
X443917Y88682D01*
X443936Y88653D01*
X444143Y88419D01*
X447469Y85093D01*
X447496Y85070D01*
X447518Y85044D01*
X447668Y84926D01*
X447814Y84804D01*
X447844Y84786D01*
X447872Y84765D01*
X448040Y84675D01*
X448205Y84580D01*
X448238Y84569D01*
X448268Y84552D01*
X448450Y84493D01*
X448630Y84430D01*
X448664Y84424D01*
X448697Y84413D01*
X448885Y84387D01*
X449074Y84356D01*
X449108Y84356D01*
X449143Y84352D01*
X449333Y84360D01*
X449524Y84362D01*
X449558Y84369D01*
X449593Y84370D01*
X449778Y84411D01*
X449966Y84448D01*
X449998Y84460D01*
X450032Y84468D01*
X450208Y84541D01*
X450386Y84610D01*
X450416Y84628D01*
X450448Y84641D01*
X450608Y84745D01*
X450771Y84844D01*
X450797Y84867D01*
X450826Y84886D01*
X451060Y85093D01*
X455490Y89523D01*
X458010Y92042D01*
X458115Y92168D01*
X458227Y92289D01*
X458259Y92341D01*
X458298Y92387D01*
X458380Y92530D01*
X458468Y92669D01*
X458492Y92725D01*
X458522Y92778D01*
X458577Y92933D01*
X458639Y93086D01*
X458652Y93145D01*
X458673Y93203D01*
X458699Y93365D01*
X458734Y93526D01*
X458739Y93603D01*
X458746Y93647D01*
X458745Y93708D01*
X458753Y93838D01*
X458753Y94913D01*
X459681Y97154D01*
X461566Y99038D01*
X461671Y99164D01*
X461783Y99285D01*
X461815Y99336D01*
X461854Y99383D01*
X461936Y99526D01*
X462024Y99664D01*
X462048Y99721D01*
X462078Y99774D01*
X462133Y99929D01*
X462195Y100081D01*
X462208Y100141D01*
X462229Y100198D01*
X462255Y100361D01*
X462290Y100521D01*
X462295Y100598D01*
X462302Y100642D01*
X462301Y100704D01*
X462309Y100833D01*
X462309Y106401D01*
X471190Y106401D01*
X471224Y106404D01*
X471259Y106402D01*
X471448Y106424D01*
X471638Y106441D01*
X471672Y106450D01*
X471706Y106454D01*
X471889Y106509D01*
X472073Y106559D01*
X472104Y106574D01*
X472137Y106584D01*
X472308Y106671D01*
X472450Y106739D01*
X472481Y106718D01*
X472512Y106704D01*
X472542Y106686D01*
X472718Y106613D01*
X472892Y106536D01*
X472926Y106528D01*
X472958Y106515D01*
X473145Y106474D01*
X473330Y106429D01*
X473364Y106427D01*
X473398Y106420D01*
X473710Y106401D01*
X482591Y106401D01*
X482591Y100833D01*
X482605Y100669D01*
X482612Y100505D01*
X482625Y100445D01*
X482631Y100385D01*
X482674Y100226D01*
X482710Y100065D01*
X482733Y100009D01*
X482749Y99950D01*
X482820Y99802D01*
X482883Y99650D01*
X482916Y99599D01*
X482943Y99544D01*
X483038Y99410D01*
X483128Y99272D01*
X483179Y99214D01*
X483205Y99178D01*
X483248Y99135D01*
X483334Y99038D01*
X485219Y97154D01*
X486147Y94913D01*
X486147Y92438D01*
X486161Y92274D01*
X486168Y92110D01*
X486181Y92050D01*
X486187Y91989D01*
X486230Y91830D01*
X486266Y91670D01*
X486289Y91614D01*
X486305Y91555D01*
X486376Y91407D01*
X486439Y91254D01*
X486472Y91203D01*
X486499Y91148D01*
X486594Y91015D01*
X486684Y90876D01*
X486735Y90818D01*
X486761Y90782D01*
X486804Y90740D01*
X486890Y90642D01*
X501823Y75710D01*
X504753Y72780D01*
X505889Y70037D01*
X505987Y69849D01*
X506083Y69660D01*
X506091Y69650D01*
X506097Y69638D01*
X506227Y69470D01*
X506355Y69301D01*
X506365Y69292D01*
X506373Y69282D01*
X506531Y69140D01*
X506686Y68996D01*
X506697Y68989D01*
X506707Y68980D01*
X506887Y68868D01*
X507066Y68754D01*
X507078Y68749D01*
X507090Y68742D01*
X507286Y68664D01*
X507483Y68583D01*
X507495Y68581D01*
X507508Y68576D01*
X507716Y68533D01*
X507923Y68489D01*
X507939Y68488D01*
X507949Y68486D01*
X507988Y68485D01*
X508235Y68469D01*
X521080Y68469D01*
X523412Y67503D01*
X523430Y67488D01*
X523573Y67407D01*
X523711Y67318D01*
X523768Y67295D01*
X523821Y67265D01*
X523976Y67210D01*
X524128Y67147D01*
X524188Y67135D01*
X524245Y67114D01*
X524407Y67087D01*
X524568Y67053D01*
X524645Y67048D01*
X524689Y67041D01*
X524750Y67041D01*
X524880Y67033D01*
X530512Y67033D01*
X530676Y67048D01*
X530840Y67055D01*
X530900Y67068D01*
X530961Y67073D01*
X531120Y67117D01*
X531280Y67152D01*
X531336Y67176D01*
X531395Y67192D01*
X531543Y67262D01*
X531695Y67326D01*
X531747Y67359D01*
X531802Y67385D01*
X531935Y67481D01*
X532074Y67570D01*
X532131Y67621D01*
X532168Y67647D01*
X532210Y67691D01*
X532308Y67777D01*
X542709Y78178D01*
X542731Y78205D01*
X542757Y78228D01*
X542875Y78376D01*
X542998Y78523D01*
X543015Y78554D01*
X543036Y78581D01*
X543126Y78749D01*
X543221Y78914D01*
X543232Y78947D01*
X543249Y78978D01*
X543308Y79159D01*
X543372Y79339D01*
X543377Y79373D01*
X543388Y79406D01*
X543414Y79594D01*
X543445Y79783D01*
X543445Y79818D01*
X543449Y79852D01*
X543442Y80042D01*
X543439Y80233D01*
X543432Y80267D01*
X543431Y80302D01*
X543390Y80488D01*
X543354Y80675D01*
X543341Y80708D01*
X543334Y80741D01*
X543260Y80917D01*
X543191Y81095D01*
X543173Y81125D01*
X543160Y81157D01*
X543056Y81317D01*
X542957Y81480D01*
X542934Y81506D01*
X542916Y81535D01*
X542709Y81769D01*
X540686Y83791D01*
X540660Y83814D01*
X540637Y83840D01*
X540488Y83957D01*
X540341Y84080D01*
X540311Y84098D01*
X540284Y84119D01*
X540116Y84209D01*
X539950Y84304D01*
X539917Y84315D01*
X539887Y84332D01*
X539706Y84391D01*
X539526Y84454D01*
X539491Y84460D01*
X539459Y84471D01*
X539270Y84497D01*
X539082Y84528D01*
X539047Y84527D01*
X539013Y84532D01*
X538822Y84524D01*
X538631Y84522D01*
X538597Y84515D01*
X538563Y84514D01*
X538377Y84473D01*
X538189Y84436D01*
X538157Y84424D01*
X538123Y84416D01*
X537948Y84343D01*
X537769Y84274D01*
X537740Y84256D01*
X537708Y84243D01*
X537548Y84139D01*
X537385Y84040D01*
X537359Y84017D01*
X537329Y83998D01*
X537095Y83791D01*
X529796Y76492D01*
X519485Y76492D01*
X512194Y83783D01*
X512194Y94095D01*
X513836Y95737D01*
X513942Y95863D01*
X514053Y95984D01*
X514086Y96035D01*
X514125Y96082D01*
X514207Y96225D01*
X514295Y96364D01*
X514318Y96420D01*
X514348Y96473D01*
X514403Y96628D01*
X514466Y96780D01*
X514479Y96840D01*
X514499Y96897D01*
X514526Y97059D01*
X514561Y97220D01*
X514565Y97298D01*
X514573Y97342D01*
X514572Y97402D01*
X514580Y97532D01*
X514580Y148246D01*
X514565Y148409D01*
X514559Y148574D01*
X514545Y148633D01*
X514540Y148694D01*
X514497Y148853D01*
X514461Y149013D01*
X514437Y149070D01*
X514421Y149128D01*
X514351Y149277D01*
X514287Y149429D01*
X514254Y149480D01*
X514228Y149535D01*
X514132Y149669D01*
X514043Y149807D01*
X513992Y149865D01*
X513966Y149901D01*
X513922Y149944D01*
X513836Y150041D01*
X512294Y151583D01*
X512294Y161895D01*
X513336Y162937D01*
X513442Y163063D01*
X513553Y163184D01*
X513586Y163235D01*
X513625Y163282D01*
X513707Y163425D01*
X513795Y163564D01*
X513818Y163620D01*
X513848Y163673D01*
X513903Y163828D01*
X513966Y163980D01*
X513979Y164040D01*
X513999Y164097D01*
X514026Y164260D01*
X514061Y164420D01*
X514065Y164497D01*
X514073Y164542D01*
X514072Y164603D01*
X514080Y164732D01*
X514080Y211246D01*
X514065Y211409D01*
X514059Y211574D01*
X514045Y211633D01*
X514040Y211694D01*
X513997Y211853D01*
X513961Y212013D01*
X513937Y212070D01*
X513921Y212128D01*
X513851Y212277D01*
X513787Y212429D01*
X513754Y212480D01*
X513728Y212535D01*
X513632Y212669D01*
X513543Y212807D01*
X513492Y212865D01*
X513466Y212901D01*
X513422Y212944D01*
X513336Y213041D01*
X511794Y214583D01*
X511794Y219700D01*
X511791Y219735D01*
X511793Y219769D01*
X511771Y219958D01*
X511754Y220149D01*
X511745Y220182D01*
X511741Y220216D01*
X511685Y220399D01*
X511635Y220583D01*
X511621Y220614D01*
X511611Y220647D01*
X511524Y220818D01*
X511442Y220990D01*
X511422Y221018D01*
X511406Y221049D01*
X511291Y221201D01*
X511180Y221356D01*
X511155Y221380D01*
X511134Y221407D01*
X510994Y221536D01*
X510857Y221670D01*
X510828Y221689D01*
X510803Y221713D01*
X510642Y221815D01*
X510484Y221922D01*
X510452Y221936D01*
X510423Y221954D01*
X510247Y222027D01*
X510072Y222104D01*
X510039Y222112D01*
X510007Y222125D01*
X509820Y222165D01*
X509635Y222211D01*
X509600Y222213D01*
X509566Y222220D01*
X509255Y222239D01*
X430700Y222239D01*
X430665Y222236D01*
X430631Y222238D01*
X430442Y222216D01*
X430251Y222199D01*
X430218Y222190D01*
X430184Y222186D01*
X430001Y222131D01*
X429817Y222081D01*
X429786Y222066D01*
X429753Y222056D01*
X429582Y221969D01*
X429410Y221887D01*
X429382Y221867D01*
X429351Y221852D01*
X429199Y221736D01*
X429044Y221625D01*
X429020Y221600D01*
X428993Y221580D01*
X428864Y221440D01*
X428730Y221303D01*
X428711Y221274D01*
X428687Y221248D01*
X428585Y221087D01*
X428478Y220930D01*
X428464Y220898D01*
X428446Y220869D01*
X428373Y220692D01*
X428296Y220518D01*
X428288Y220484D01*
X428275Y220452D01*
X428235Y220265D01*
X428189Y220080D01*
X428187Y220046D01*
X428180Y220012D01*
X428161Y219700D01*
X428161Y208361D01*
X428175Y208197D01*
X428182Y208032D01*
X428195Y207973D01*
X428201Y207912D01*
X428244Y207753D01*
X428280Y207593D01*
X428303Y207536D01*
X428319Y207478D01*
X428390Y207330D01*
X428453Y207177D01*
X428486Y207126D01*
X428513Y207071D01*
X428608Y206938D01*
X428698Y206799D01*
X428749Y206741D01*
X428775Y206705D01*
X428818Y206662D01*
X428904Y206565D01*
X462714Y172756D01*
X464261Y169021D01*
X464261Y137979D01*
X462714Y134244D01*
X458420Y129951D01*
X454686Y128404D01*
X449370Y128404D01*
X449206Y128390D01*
X449041Y128383D01*
X448982Y128370D01*
X448921Y128364D01*
X448762Y128321D01*
X448602Y128285D01*
X448546Y128262D01*
X448487Y128246D01*
X448339Y128175D01*
X448186Y128112D01*
X448135Y128078D01*
X448080Y128052D01*
X447947Y127957D01*
X447808Y127867D01*
X447750Y127816D01*
X447714Y127790D01*
X447671Y127747D01*
X447574Y127660D01*
X446310Y126396D01*
X444069Y125468D01*
X431644Y125468D01*
X429403Y126396D01*
X428139Y127660D01*
X428013Y127766D01*
X427892Y127877D01*
X427840Y127910D01*
X427794Y127949D01*
X427651Y128031D01*
X427512Y128119D01*
X427456Y128142D01*
X427403Y128173D01*
X427247Y128228D01*
X427095Y128290D01*
X427036Y128303D01*
X426978Y128323D01*
X426816Y128350D01*
X426655Y128385D01*
X426578Y128390D01*
X426534Y128397D01*
X426473Y128396D01*
X426343Y128404D01*
X418070Y128404D01*
X417906Y128390D01*
X417741Y128383D01*
X417682Y128370D01*
X417621Y128364D01*
X417462Y128321D01*
X417302Y128285D01*
X417246Y128262D01*
X417187Y128246D01*
X417039Y128175D01*
X416886Y128112D01*
X416835Y128078D01*
X416780Y128052D01*
X416647Y127957D01*
X416508Y127867D01*
X416450Y127816D01*
X416414Y127790D01*
X416371Y127747D01*
X416274Y127660D01*
X415010Y126396D01*
X412769Y125468D01*
X405030Y125468D01*
X404913Y125458D01*
X404796Y125457D01*
X404690Y125438D01*
X404581Y125428D01*
X404468Y125397D01*
X404353Y125376D01*
X404207Y125326D01*
X404147Y125310D01*
X404114Y125294D01*
X404058Y125275D01*
X402164Y124490D01*
X395317Y124490D01*
X395234Y124483D01*
X395152Y124485D01*
X395011Y124463D01*
X394868Y124450D01*
X394788Y124428D01*
X394707Y124416D01*
X394572Y124369D01*
X394434Y124332D01*
X394360Y124296D01*
X394281Y124270D01*
X394156Y124200D01*
X394027Y124138D01*
X393960Y124090D01*
X393888Y124050D01*
X393777Y123960D01*
X393661Y123876D01*
X393604Y123817D01*
X393540Y123765D01*
X393447Y123656D01*
X393347Y123554D01*
X393301Y123485D01*
X393247Y123423D01*
X393175Y123299D01*
X393095Y123180D01*
X393062Y123105D01*
X393020Y123034D01*
X392971Y122900D01*
X392913Y122769D01*
X392893Y122689D01*
X392865Y122611D01*
X392840Y122470D01*
X392806Y122331D01*
X392801Y122249D01*
X392787Y122168D01*
X392787Y122025D01*
X392778Y121882D01*
X392788Y121800D01*
X392788Y121718D01*
X392814Y121577D01*
X392830Y121435D01*
X392854Y121356D01*
X392869Y121275D01*
X392949Y121042D01*
X392961Y121004D01*
X392966Y120994D01*
X392971Y120979D01*
X393247Y120313D01*
X393247Y100087D01*
X392319Y97846D01*
X390434Y95962D01*
X390329Y95836D01*
X390217Y95715D01*
X390185Y95664D01*
X390146Y95617D01*
X390064Y95474D01*
X389976Y95336D01*
X389952Y95279D01*
X389922Y95226D01*
X389867Y95071D01*
X389805Y94919D01*
X389792Y94859D01*
X389771Y94802D01*
X389745Y94639D01*
X389710Y94479D01*
X389705Y94402D01*
X389698Y94358D01*
X389699Y94296D01*
X389691Y94167D01*
X389691Y88599D01*
X380810Y88599D01*
X380776Y88596D01*
X380741Y88598D01*
X380552Y88576D01*
X380362Y88559D01*
X380328Y88550D01*
X380294Y88546D01*
X380111Y88491D01*
X379927Y88441D01*
X379896Y88426D01*
X379863Y88416D01*
X379692Y88329D01*
X379550Y88261D01*
X379519Y88282D01*
X379488Y88296D01*
X379458Y88314D01*
X379282Y88387D01*
X379108Y88464D01*
X379074Y88472D01*
X379042Y88485D01*
X378855Y88525D01*
X378670Y88571D01*
X378636Y88573D01*
X378602Y88580D01*
X378290Y88599D01*
X369409Y88599D01*
X369409Y94167D01*
X369395Y94331D01*
X369388Y94495D01*
X369375Y94555D01*
X369369Y94615D01*
X369326Y94774D01*
X369290Y94935D01*
X369267Y94991D01*
X369251Y95050D01*
X369180Y95198D01*
X369117Y95350D01*
X369084Y95401D01*
X369057Y95456D01*
X368962Y95590D01*
X368872Y95728D01*
X368821Y95786D01*
X368795Y95822D01*
X368752Y95865D01*
X368666Y95962D01*
X366781Y97846D01*
X365853Y100087D01*
X365853Y111454D01*
X365842Y111583D01*
X365840Y111713D01*
X365822Y111807D01*
X365813Y111902D01*
X365779Y112027D01*
X365754Y112155D01*
X365720Y112244D01*
X365695Y112336D01*
X365639Y112454D01*
X365592Y112575D01*
X365542Y112657D01*
X365501Y112743D01*
X365426Y112849D01*
X365358Y112960D01*
X365295Y113031D01*
X365239Y113109D01*
X365146Y113200D01*
X365060Y113297D01*
X364985Y113356D01*
X364917Y113423D01*
X364809Y113496D01*
X364707Y113577D01*
X364623Y113622D01*
X364544Y113675D01*
X364425Y113728D01*
X364310Y113789D01*
X364219Y113819D01*
X364132Y113858D01*
X364005Y113888D01*
X363882Y113928D01*
X363787Y113942D01*
X363694Y113964D01*
X363565Y113972D01*
X363436Y113990D01*
X363340Y113986D01*
X363245Y113992D01*
X363116Y113977D01*
X362986Y113972D01*
X362893Y113951D01*
X362798Y113940D01*
X362673Y113902D01*
X362546Y113874D01*
X362458Y113837D01*
X362367Y113809D01*
X362251Y113751D01*
X362131Y113700D01*
X362050Y113648D01*
X361965Y113605D01*
X361862Y113527D01*
X361753Y113456D01*
X361655Y113370D01*
X361607Y113333D01*
X361576Y113300D01*
X361518Y113249D01*
X356271Y108002D01*
X356271Y108001D01*
X353056Y104786D01*
X349321Y103239D01*
X333737Y103239D01*
X333655Y103232D01*
X333573Y103234D01*
X333432Y103212D01*
X333289Y103199D01*
X333209Y103178D01*
X333128Y103165D01*
X332992Y103119D01*
X332854Y103081D01*
X332780Y103046D01*
X332702Y103019D01*
X332577Y102949D01*
X332448Y102887D01*
X332381Y102840D01*
X332309Y102799D01*
X332198Y102709D01*
X332082Y102625D01*
X332024Y102566D01*
X331960Y102514D01*
X331868Y102405D01*
X331768Y102303D01*
X331721Y102234D01*
X331668Y102172D01*
X331596Y102048D01*
X331516Y101930D01*
X331482Y101854D01*
X331441Y101783D01*
X331391Y101649D01*
X331333Y101518D01*
X331314Y101438D01*
X331285Y101360D01*
X331261Y101219D01*
X331227Y101080D01*
X331222Y100998D01*
X331207Y100917D01*
X331208Y100774D01*
X331199Y100631D01*
X331208Y100549D01*
X331209Y100467D01*
X331234Y100326D01*
X331251Y100184D01*
X331275Y100105D01*
X331290Y100024D01*
X331370Y99791D01*
X331381Y99753D01*
X331386Y99743D01*
X331391Y99728D01*
X331729Y98914D01*
X331729Y94486D01*
X330035Y90396D01*
X327541Y87903D01*
X327436Y87777D01*
X327324Y87656D01*
X327292Y87604D01*
X327253Y87558D01*
X327171Y87415D01*
X327083Y87276D01*
X327059Y87220D01*
X327029Y87167D01*
X326974Y87012D01*
X326912Y86860D01*
X326899Y86800D01*
X326878Y86742D01*
X326851Y86580D01*
X326817Y86419D01*
X326812Y86342D01*
X326805Y86298D01*
X326806Y86237D01*
X326798Y86107D01*
X326798Y82593D01*
X326812Y82429D01*
X326819Y82265D01*
X326832Y82205D01*
X326838Y82144D01*
X326881Y81985D01*
X326917Y81825D01*
X326940Y81769D01*
X326956Y81710D01*
X327027Y81562D01*
X327090Y81410D01*
X327123Y81358D01*
X327150Y81303D01*
X327245Y81170D01*
X327334Y81031D01*
X327386Y80974D01*
X327412Y80937D01*
X327455Y80895D01*
X327541Y80797D01*
X328322Y80017D01*
X329250Y77776D01*
X329250Y67601D01*
X329257Y67518D01*
X329255Y67436D01*
X329277Y67295D01*
X329290Y67152D01*
X329311Y67072D01*
X329324Y66991D01*
X329370Y66856D01*
X329408Y66718D01*
X329443Y66643D01*
X329470Y66565D01*
X329540Y66440D01*
X329602Y66311D01*
X329649Y66244D01*
X329690Y66172D01*
X329780Y66061D01*
X329864Y65945D01*
X329923Y65887D01*
X329975Y65824D01*
X330084Y65731D01*
X330186Y65631D01*
X330255Y65585D01*
X330317Y65531D01*
X330441Y65459D01*
X330559Y65379D01*
X330635Y65346D01*
X330706Y65304D01*
X330840Y65255D01*
X330971Y65197D01*
X331051Y65177D01*
X331129Y65149D01*
X331270Y65124D01*
X331409Y65090D01*
X331491Y65085D01*
X331572Y65071D01*
X331715Y65071D01*
X331858Y65062D01*
X331940Y65072D01*
X332022Y65072D01*
X332163Y65098D01*
X332305Y65114D01*
X332384Y65138D01*
X332465Y65153D01*
X332698Y65233D01*
X332736Y65245D01*
X332746Y65250D01*
X332761Y65255D01*
X332849Y65291D01*
X337276Y65291D01*
X341366Y63597D01*
X344497Y60466D01*
X346191Y56376D01*
X346191Y51949D01*
X345238Y49648D01*
X345203Y49536D01*
X345159Y49428D01*
X345136Y49322D01*
X345103Y49218D01*
X345089Y49102D01*
X345064Y48988D01*
X345054Y48834D01*
X345047Y48771D01*
X345048Y48735D01*
X345045Y48676D01*
X345045Y45281D01*
X343653Y41920D01*
X342316Y40584D01*
X342233Y40484D01*
X342142Y40391D01*
X342088Y40311D01*
X342027Y40238D01*
X341963Y40125D01*
X341890Y40018D01*
X341851Y39930D01*
X341804Y39847D01*
X341760Y39725D01*
X341708Y39606D01*
X341685Y39513D01*
X341653Y39423D01*
X341632Y39295D01*
X341601Y39168D01*
X341595Y39073D01*
X341580Y38979D01*
X341581Y38849D01*
X341573Y38719D01*
X341584Y38624D01*
X341586Y38528D01*
X341610Y38401D01*
X341625Y38272D01*
X341653Y38180D01*
X341671Y38086D01*
X341718Y37965D01*
X341756Y37841D01*
X341799Y37755D01*
X341833Y37666D01*
X341901Y37555D01*
X341960Y37439D01*
X342018Y37363D01*
X342067Y37282D01*
X342154Y37184D01*
X342232Y37081D01*
X342302Y37016D01*
X342366Y36944D01*
X342468Y36864D01*
X342563Y36775D01*
X342644Y36724D01*
X342719Y36665D01*
X342833Y36603D01*
X342943Y36534D01*
X343031Y36497D01*
X343116Y36452D01*
X343239Y36412D01*
X343360Y36363D01*
X343453Y36343D01*
X343544Y36313D01*
X343672Y36295D01*
X343800Y36268D01*
X343930Y36260D01*
X343990Y36252D01*
X344034Y36253D01*
X344112Y36249D01*
X521099Y36249D01*
X521265Y36264D01*
G37*
%LPC*%
G36*
X575049Y189284D02*
X575049Y189284D01*
X572808Y190212D01*
X571093Y191927D01*
X570165Y194168D01*
X570165Y226593D01*
X571093Y228834D01*
X572808Y230549D01*
X575049Y231477D01*
X607474Y231477D01*
X609715Y230549D01*
X611430Y228834D01*
X612358Y226593D01*
X612358Y194168D01*
X611430Y191927D01*
X609715Y190212D01*
X607474Y189284D01*
X575049Y189284D01*
G37*
%LPD*%
%LPC*%
G36*
X252172Y332663D02*
X252172Y332663D01*
X247130Y334751D01*
X243271Y338610D01*
X242517Y340432D01*
X242491Y340482D01*
X242471Y340535D01*
X242386Y340682D01*
X242308Y340831D01*
X242274Y340876D01*
X242245Y340925D01*
X242136Y341054D01*
X242032Y341187D01*
X241991Y341225D01*
X241954Y341268D01*
X241824Y341376D01*
X241698Y341489D01*
X241650Y341519D01*
X241607Y341555D01*
X241459Y341638D01*
X241316Y341727D01*
X241264Y341748D01*
X241214Y341775D01*
X241055Y341831D01*
X240898Y341894D01*
X240842Y341905D01*
X240789Y341923D01*
X240622Y341950D01*
X240456Y341984D01*
X240400Y341985D01*
X240344Y341994D01*
X240175Y341990D01*
X240006Y341994D01*
X239951Y341986D01*
X239894Y341985D01*
X239729Y341952D01*
X239561Y341926D01*
X239508Y341907D01*
X239453Y341896D01*
X239296Y341834D01*
X239136Y341779D01*
X239086Y341752D01*
X239034Y341731D01*
X238890Y341642D01*
X238742Y341560D01*
X238699Y341524D01*
X238651Y341495D01*
X238525Y341382D01*
X238394Y341275D01*
X238357Y341232D01*
X238315Y341194D01*
X238116Y340953D01*
X237250Y339761D01*
X236119Y338630D01*
X234825Y337690D01*
X233400Y336964D01*
X232039Y336521D01*
X232039Y354000D01*
X232039Y371479D01*
X233400Y371036D01*
X234825Y370310D01*
X236119Y369370D01*
X237250Y368239D01*
X238116Y367047D01*
X238154Y367004D01*
X238185Y366957D01*
X238301Y366835D01*
X238412Y366708D01*
X238456Y366672D01*
X238495Y366631D01*
X238631Y366532D01*
X238764Y366426D01*
X238813Y366399D01*
X238859Y366366D01*
X239010Y366292D01*
X239159Y366210D01*
X239213Y366193D01*
X239263Y366168D01*
X239426Y366122D01*
X239586Y366068D01*
X239642Y366060D01*
X239696Y366045D01*
X239865Y366028D01*
X240032Y366004D01*
X240088Y366006D01*
X240144Y366000D01*
X240313Y366014D01*
X240482Y366019D01*
X240537Y366031D01*
X240593Y366036D01*
X240757Y366078D01*
X240922Y366114D01*
X240974Y366135D01*
X241029Y366150D01*
X241182Y366221D01*
X241339Y366285D01*
X241386Y366315D01*
X241438Y366339D01*
X241576Y366436D01*
X241719Y366527D01*
X241760Y366565D01*
X241806Y366597D01*
X241925Y366717D01*
X242050Y366832D01*
X242084Y366877D01*
X242124Y366916D01*
X242220Y367056D01*
X242322Y367190D01*
X242347Y367240D01*
X242380Y367287D01*
X242517Y367568D01*
X243271Y369390D01*
X247130Y373249D01*
X252172Y375337D01*
X257628Y375337D01*
X262670Y373249D01*
X266529Y369390D01*
X268617Y364348D01*
X268617Y343652D01*
X266529Y338610D01*
X262670Y334751D01*
X257628Y332663D01*
X252172Y332663D01*
G37*
%LPD*%
%LPC*%
G36*
X201372Y332663D02*
X201372Y332663D01*
X196330Y334751D01*
X192471Y338610D01*
X190383Y343652D01*
X190383Y364348D01*
X192471Y369390D01*
X196330Y373249D01*
X201372Y375337D01*
X206828Y375337D01*
X211870Y373249D01*
X215729Y369390D01*
X216483Y367568D01*
X216509Y367518D01*
X216529Y367465D01*
X216614Y367318D01*
X216692Y367169D01*
X216726Y367124D01*
X216755Y367075D01*
X216864Y366946D01*
X216968Y366813D01*
X217009Y366775D01*
X217046Y366732D01*
X217176Y366624D01*
X217302Y366511D01*
X217350Y366481D01*
X217393Y366445D01*
X217541Y366362D01*
X217684Y366273D01*
X217736Y366252D01*
X217786Y366225D01*
X217945Y366169D01*
X218102Y366106D01*
X218158Y366095D01*
X218211Y366077D01*
X218378Y366050D01*
X218544Y366016D01*
X218600Y366015D01*
X218656Y366006D01*
X218825Y366010D01*
X218994Y366006D01*
X219049Y366014D01*
X219106Y366015D01*
X219271Y366048D01*
X219439Y366074D01*
X219492Y366093D01*
X219547Y366104D01*
X219704Y366166D01*
X219864Y366221D01*
X219914Y366248D01*
X219966Y366269D01*
X220110Y366358D01*
X220258Y366440D01*
X220301Y366476D01*
X220349Y366505D01*
X220475Y366618D01*
X220606Y366725D01*
X220643Y366768D01*
X220685Y366806D01*
X220884Y367047D01*
X221750Y368239D01*
X222881Y369370D01*
X224175Y370310D01*
X225600Y371036D01*
X226961Y371479D01*
X226961Y354000D01*
X226961Y336521D01*
X225600Y336964D01*
X224175Y337690D01*
X222881Y338630D01*
X221750Y339761D01*
X220884Y340953D01*
X220846Y340996D01*
X220815Y341043D01*
X220699Y341165D01*
X220588Y341292D01*
X220544Y341328D01*
X220505Y341369D01*
X220369Y341468D01*
X220236Y341574D01*
X220187Y341601D01*
X220141Y341634D01*
X219990Y341708D01*
X219841Y341790D01*
X219787Y341807D01*
X219737Y341832D01*
X219574Y341878D01*
X219414Y341932D01*
X219358Y341940D01*
X219304Y341955D01*
X219135Y341972D01*
X218968Y341996D01*
X218912Y341994D01*
X218856Y342000D01*
X218687Y341986D01*
X218518Y341981D01*
X218463Y341969D01*
X218407Y341964D01*
X218243Y341922D01*
X218078Y341886D01*
X218026Y341865D01*
X217971Y341850D01*
X217818Y341779D01*
X217661Y341715D01*
X217614Y341685D01*
X217562Y341661D01*
X217424Y341564D01*
X217281Y341473D01*
X217240Y341435D01*
X217194Y341403D01*
X217075Y341283D01*
X216950Y341168D01*
X216916Y341123D01*
X216876Y341084D01*
X216780Y340944D01*
X216678Y340810D01*
X216653Y340760D01*
X216620Y340713D01*
X216483Y340432D01*
X215729Y338610D01*
X211870Y334751D01*
X206828Y332663D01*
X201372Y332663D01*
G37*
%LPD*%
%LPC*%
G36*
X117503Y367621D02*
X117503Y367621D01*
X109021Y376103D01*
X109021Y388097D01*
X117503Y396579D01*
X129497Y396579D01*
X137979Y388097D01*
X137979Y376103D01*
X129497Y367621D01*
X117503Y367621D01*
G37*
%LPD*%
%LPC*%
G36*
X305365Y307054D02*
X305365Y307054D01*
X296475Y307054D01*
X296475Y308197D01*
X300091Y311814D01*
X300114Y311840D01*
X300140Y311863D01*
X300257Y312012D01*
X300380Y312159D01*
X300398Y312189D01*
X300419Y312216D01*
X300509Y312384D01*
X300604Y312550D01*
X300615Y312583D01*
X300632Y312613D01*
X300691Y312794D01*
X300754Y312974D01*
X300760Y313009D01*
X300771Y313041D01*
X300797Y313230D01*
X300828Y313418D01*
X300827Y313453D01*
X300832Y313487D01*
X300824Y313678D01*
X300822Y313869D01*
X300815Y313903D01*
X300814Y313937D01*
X300773Y314123D01*
X300736Y314311D01*
X300724Y314343D01*
X300716Y314377D01*
X300643Y314552D01*
X300574Y314731D01*
X300556Y314760D01*
X300543Y314792D01*
X300439Y314952D01*
X300340Y315115D01*
X300317Y315141D01*
X300298Y315171D01*
X300091Y315405D01*
X292792Y322704D01*
X292792Y333015D01*
X300083Y340306D01*
X310395Y340306D01*
X317686Y333015D01*
X317686Y322704D01*
X310513Y315531D01*
X310490Y315504D01*
X310465Y315482D01*
X310347Y315333D01*
X310224Y315186D01*
X310207Y315155D01*
X310185Y315128D01*
X310095Y314961D01*
X310001Y314795D01*
X309989Y314762D01*
X309973Y314732D01*
X309914Y314550D01*
X309850Y314370D01*
X309844Y314336D01*
X309833Y314303D01*
X309807Y314114D01*
X309776Y313926D01*
X309777Y313892D01*
X309772Y313857D01*
X309780Y313666D01*
X309782Y313476D01*
X309789Y313442D01*
X309790Y313407D01*
X309832Y313221D01*
X309868Y313034D01*
X309880Y313002D01*
X309888Y312968D01*
X309962Y312792D01*
X310030Y312614D01*
X310048Y312584D01*
X310062Y312552D01*
X310165Y312392D01*
X310264Y312229D01*
X310287Y312203D01*
X310306Y312174D01*
X310513Y311940D01*
X314256Y308197D01*
X314256Y307054D01*
X305366Y307054D01*
X305365Y307054D01*
X305365Y307054D01*
G37*
%LPD*%
G36*
X267407Y46348D02*
X267407Y46348D01*
X267442Y46346D01*
X267631Y46368D01*
X267821Y46385D01*
X267855Y46394D01*
X267889Y46398D01*
X268072Y46453D01*
X268256Y46503D01*
X268287Y46518D01*
X268320Y46528D01*
X268491Y46615D01*
X268662Y46697D01*
X268691Y46717D01*
X268722Y46732D01*
X268874Y46848D01*
X269029Y46959D01*
X269053Y46984D01*
X269080Y47004D01*
X269209Y47144D01*
X269343Y47281D01*
X269362Y47310D01*
X269385Y47336D01*
X269488Y47497D01*
X269595Y47654D01*
X269609Y47686D01*
X269627Y47715D01*
X269700Y47892D01*
X269777Y48066D01*
X269785Y48100D01*
X269798Y48132D01*
X269838Y48319D01*
X269884Y48504D01*
X269886Y48538D01*
X269893Y48572D01*
X269912Y48884D01*
X269912Y48924D01*
X277453Y48924D01*
X277487Y48927D01*
X277522Y48925D01*
X277711Y48947D01*
X277901Y48964D01*
X277935Y48973D01*
X277969Y48977D01*
X278152Y49033D01*
X278336Y49083D01*
X278367Y49097D01*
X278400Y49108D01*
X278571Y49194D01*
X278742Y49276D01*
X278770Y49296D01*
X278801Y49312D01*
X278953Y49427D01*
X279108Y49538D01*
X279132Y49563D01*
X279160Y49584D01*
X279289Y49724D01*
X279422Y49861D01*
X279442Y49890D01*
X279465Y49915D01*
X279568Y50076D01*
X279674Y50234D01*
X279688Y50266D01*
X279707Y50295D01*
X279779Y50471D01*
X279857Y50646D01*
X279865Y50679D01*
X279878Y50711D01*
X279918Y50898D01*
X279963Y51083D01*
X279965Y51118D01*
X279973Y51152D01*
X279992Y51463D01*
X279992Y51464D01*
X279989Y51498D01*
X279991Y51533D01*
X279969Y51722D01*
X279952Y51912D01*
X279943Y51946D01*
X279939Y51980D01*
X279884Y52163D01*
X279833Y52347D01*
X279819Y52378D01*
X279809Y52411D01*
X279722Y52582D01*
X279640Y52753D01*
X279620Y52781D01*
X279604Y52812D01*
X279489Y52964D01*
X279378Y53119D01*
X279353Y53144D01*
X279332Y53171D01*
X279192Y53300D01*
X279055Y53433D01*
X279027Y53453D01*
X279001Y53476D01*
X278840Y53579D01*
X278682Y53685D01*
X278651Y53699D01*
X278621Y53718D01*
X278445Y53791D01*
X278270Y53868D01*
X278237Y53876D01*
X278205Y53889D01*
X278018Y53929D01*
X277833Y53974D01*
X277799Y53976D01*
X277765Y53984D01*
X277453Y54003D01*
X269912Y54003D01*
X269912Y57298D01*
X270121Y58078D01*
X270140Y58118D01*
X270146Y58140D01*
X270155Y58162D01*
X270203Y58357D01*
X270254Y58553D01*
X270256Y58577D01*
X270262Y58599D01*
X270274Y58800D01*
X270290Y59002D01*
X270288Y59025D01*
X270289Y59049D01*
X270266Y59250D01*
X270246Y59450D01*
X270240Y59472D01*
X270237Y59496D01*
X270179Y59690D01*
X270124Y59883D01*
X270114Y59904D01*
X270107Y59927D01*
X270015Y60107D01*
X269927Y60288D01*
X269913Y60307D01*
X269903Y60328D01*
X269781Y60489D01*
X269662Y60652D01*
X269645Y60668D01*
X269631Y60687D01*
X269482Y60824D01*
X269336Y60963D01*
X269317Y60976D01*
X269300Y60992D01*
X269129Y61101D01*
X268961Y61212D01*
X268940Y61221D01*
X268920Y61234D01*
X268733Y61311D01*
X268548Y61391D01*
X268525Y61396D01*
X268503Y61405D01*
X268306Y61447D01*
X268110Y61493D01*
X268086Y61495D01*
X268063Y61500D01*
X267751Y61519D01*
X263482Y61519D01*
X263318Y61504D01*
X263154Y61498D01*
X263094Y61484D01*
X263034Y61479D01*
X262875Y61436D01*
X262714Y61400D01*
X262658Y61376D01*
X262599Y61360D01*
X262451Y61290D01*
X262299Y61226D01*
X262248Y61193D01*
X262193Y61167D01*
X262059Y61071D01*
X261921Y60982D01*
X261863Y60931D01*
X261826Y60905D01*
X261784Y60861D01*
X261687Y60775D01*
X260737Y59826D01*
X260632Y59700D01*
X260520Y59579D01*
X260488Y59527D01*
X260449Y59481D01*
X260367Y59338D01*
X260279Y59199D01*
X260255Y59143D01*
X260225Y59090D01*
X260170Y58935D01*
X260108Y58783D01*
X260095Y58723D01*
X260074Y58665D01*
X260048Y58503D01*
X260013Y58342D01*
X260008Y58265D01*
X260001Y58221D01*
X260002Y58160D01*
X259994Y58030D01*
X259994Y56203D01*
X252453Y56203D01*
X252419Y56200D01*
X252384Y56202D01*
X252195Y56180D01*
X252005Y56163D01*
X251971Y56154D01*
X251937Y56150D01*
X251754Y56095D01*
X251570Y56045D01*
X251539Y56030D01*
X251506Y56020D01*
X251335Y55933D01*
X251164Y55851D01*
X251136Y55831D01*
X251105Y55815D01*
X250953Y55700D01*
X250798Y55589D01*
X250774Y55564D01*
X250746Y55543D01*
X250617Y55403D01*
X250484Y55266D01*
X250464Y55238D01*
X250441Y55212D01*
X250338Y55051D01*
X250232Y54893D01*
X250218Y54862D01*
X250199Y54832D01*
X250127Y54656D01*
X250049Y54482D01*
X250041Y54448D01*
X250028Y54416D01*
X249988Y54229D01*
X249943Y54044D01*
X249941Y54010D01*
X249933Y53976D01*
X249914Y53664D01*
X249914Y53663D01*
X249917Y53629D01*
X249915Y53595D01*
X249915Y53594D01*
X249937Y53405D01*
X249954Y53215D01*
X249963Y53182D01*
X249967Y53147D01*
X250022Y52964D01*
X250072Y52781D01*
X250087Y52749D01*
X250097Y52716D01*
X250184Y52546D01*
X250266Y52374D01*
X250286Y52346D01*
X250302Y52315D01*
X250417Y52163D01*
X250528Y52008D01*
X250553Y51984D01*
X250574Y51956D01*
X250714Y51827D01*
X250851Y51694D01*
X250879Y51674D01*
X250905Y51651D01*
X251066Y51548D01*
X251224Y51442D01*
X251255Y51428D01*
X251285Y51409D01*
X251461Y51337D01*
X251636Y51259D01*
X251669Y51251D01*
X251701Y51238D01*
X251888Y51198D01*
X252073Y51153D01*
X252107Y51151D01*
X252141Y51143D01*
X252453Y51124D01*
X260023Y51124D01*
X260029Y51045D01*
X260032Y51033D01*
X260034Y51019D01*
X260090Y50814D01*
X260143Y50610D01*
X260149Y50598D01*
X260152Y50585D01*
X260243Y50394D01*
X260332Y50201D01*
X260340Y50190D01*
X260346Y50178D01*
X260468Y50007D01*
X260591Y49832D01*
X260600Y49823D01*
X260608Y49812D01*
X260760Y49664D01*
X260910Y49515D01*
X260921Y49508D01*
X260930Y49498D01*
X261106Y49379D01*
X261280Y49259D01*
X261295Y49252D01*
X261303Y49246D01*
X261339Y49230D01*
X261561Y49122D01*
X263704Y48235D01*
X264850Y47088D01*
X264976Y46983D01*
X265097Y46871D01*
X265148Y46839D01*
X265195Y46800D01*
X265338Y46718D01*
X265477Y46630D01*
X265533Y46606D01*
X265586Y46576D01*
X265741Y46521D01*
X265893Y46459D01*
X265953Y46446D01*
X266011Y46425D01*
X266173Y46399D01*
X266334Y46364D01*
X266411Y46359D01*
X266455Y46352D01*
X266516Y46353D01*
X266645Y46345D01*
X267373Y46345D01*
X267407Y46348D01*
G37*
%LPC*%
G36*
X620866Y144806D02*
X620866Y144806D01*
X620866Y155641D01*
X621039Y156287D01*
X621374Y156867D01*
X621847Y157340D01*
X622426Y157674D01*
X623072Y157847D01*
X633908Y157847D01*
X633908Y144806D01*
X620866Y144806D01*
G37*
%LPD*%
%LPC*%
G36*
X448839Y317529D02*
X448839Y317529D01*
X448839Y332469D01*
X450200Y332026D01*
X451625Y331300D01*
X452919Y330360D01*
X454050Y329229D01*
X454990Y327935D01*
X455716Y326510D01*
X456211Y324989D01*
X456461Y323410D01*
X456461Y317529D01*
X448839Y317529D01*
G37*
%LPD*%
%LPC*%
G36*
X447939Y379851D02*
X447939Y379851D01*
X455561Y379851D01*
X455561Y373970D01*
X455311Y372391D01*
X454816Y370870D01*
X454090Y369445D01*
X453150Y368151D01*
X452019Y367020D01*
X450725Y366080D01*
X449300Y365354D01*
X447939Y364911D01*
X447939Y379851D01*
G37*
%LPD*%
%LPC*%
G36*
X448839Y312451D02*
X448839Y312451D01*
X456461Y312451D01*
X456461Y306570D01*
X456211Y304991D01*
X455716Y303470D01*
X454990Y302045D01*
X454050Y300751D01*
X452919Y299620D01*
X451625Y298680D01*
X450200Y297954D01*
X448839Y297511D01*
X448839Y312451D01*
G37*
%LPD*%
%LPC*%
G36*
X436139Y317529D02*
X436139Y317529D01*
X436139Y323410D01*
X436389Y324989D01*
X436884Y326510D01*
X437610Y327935D01*
X438550Y329229D01*
X439681Y330360D01*
X440975Y331300D01*
X442400Y332026D01*
X443761Y332469D01*
X443761Y317529D01*
X436139Y317529D01*
G37*
%LPD*%
%LPC*%
G36*
X441500Y365354D02*
X441500Y365354D01*
X440075Y366080D01*
X438781Y367020D01*
X437650Y368151D01*
X436710Y369445D01*
X435984Y370870D01*
X435489Y372391D01*
X435239Y373970D01*
X435239Y379851D01*
X442861Y379851D01*
X442861Y364911D01*
X441500Y365354D01*
G37*
%LPD*%
%LPC*%
G36*
X442400Y297954D02*
X442400Y297954D01*
X440975Y298680D01*
X439681Y299620D01*
X438550Y300751D01*
X437610Y302045D01*
X436884Y303470D01*
X436389Y304991D01*
X436139Y306570D01*
X436139Y312451D01*
X443761Y312451D01*
X443761Y297511D01*
X442400Y297954D01*
G37*
%LPD*%
%LPC*%
G36*
X126039Y333839D02*
X126039Y333839D01*
X126039Y342223D01*
X128024Y342223D01*
X134423Y335824D01*
X134423Y333839D01*
X126039Y333839D01*
G37*
%LPD*%
%LPC*%
G36*
X601639Y328339D02*
X601639Y328339D01*
X601639Y336723D01*
X603624Y336723D01*
X610023Y330324D01*
X610023Y328339D01*
X601639Y328339D01*
G37*
%LPD*%
%LPC*%
G36*
X112577Y333839D02*
X112577Y333839D01*
X112577Y335824D01*
X118976Y342223D01*
X120961Y342223D01*
X120961Y333839D01*
X112577Y333839D01*
G37*
%LPD*%
%LPC*%
G36*
X588177Y328339D02*
X588177Y328339D01*
X588177Y330324D01*
X594576Y336723D01*
X596561Y336723D01*
X596561Y328339D01*
X588177Y328339D01*
G37*
%LPD*%
%LPC*%
G36*
X126039Y320377D02*
X126039Y320377D01*
X126039Y328761D01*
X134423Y328761D01*
X134423Y326776D01*
X128024Y320377D01*
X126039Y320377D01*
G37*
%LPD*%
%LPC*%
G36*
X601639Y314877D02*
X601639Y314877D01*
X601639Y323261D01*
X610023Y323261D01*
X610023Y321276D01*
X603624Y314877D01*
X601639Y314877D01*
G37*
%LPD*%
%LPC*%
G36*
X118976Y320377D02*
X118976Y320377D01*
X112577Y326776D01*
X112577Y328761D01*
X120961Y328761D01*
X120961Y320377D01*
X118976Y320377D01*
G37*
%LPD*%
%LPC*%
G36*
X594576Y314877D02*
X594576Y314877D01*
X588177Y321276D01*
X588177Y323261D01*
X596561Y323261D01*
X596561Y314877D01*
X594576Y314877D01*
G37*
%LPD*%
%LPC*%
G36*
X407306Y177316D02*
X407306Y177316D01*
X414097Y177316D01*
X414097Y172230D01*
X413924Y171584D01*
X413590Y171005D01*
X413116Y170532D01*
X412537Y170197D01*
X411891Y170024D01*
X407306Y170024D01*
X407306Y177316D01*
G37*
%LPD*%
%LPC*%
G36*
X394222Y170024D02*
X394222Y170024D01*
X393576Y170197D01*
X392996Y170532D01*
X392523Y171005D01*
X392189Y171584D01*
X392016Y172230D01*
X392016Y177316D01*
X398807Y177316D01*
X398807Y170024D01*
X394222Y170024D01*
G37*
%LPD*%
%LPC*%
G36*
X596465Y115759D02*
X596465Y115759D01*
X595819Y115932D01*
X595240Y116267D01*
X594767Y116740D01*
X594432Y117319D01*
X594259Y117965D01*
X594259Y122551D01*
X601551Y122551D01*
X601551Y115759D01*
X596465Y115759D01*
G37*
%LPD*%
%LPC*%
G36*
X476249Y113999D02*
X476249Y113999D01*
X476249Y121641D01*
X480385Y121641D01*
X481031Y121468D01*
X481610Y121133D01*
X482083Y120660D01*
X482418Y120081D01*
X482591Y119435D01*
X482591Y113999D01*
X476249Y113999D01*
G37*
%LPD*%
%LPC*%
G36*
X462309Y113999D02*
X462309Y113999D01*
X462309Y119435D01*
X462482Y120081D01*
X462817Y120660D01*
X463290Y121133D01*
X463869Y121468D01*
X464515Y121641D01*
X468651Y121641D01*
X468651Y113999D01*
X462309Y113999D01*
G37*
%LPD*%
%LPC*%
G36*
X442139Y102939D02*
X442139Y102939D01*
X442139Y109545D01*
X443388Y109545D01*
X448745Y104188D01*
X448745Y102939D01*
X442139Y102939D01*
G37*
%LPD*%
%LPC*%
G36*
X550125Y222405D02*
X550125Y222405D01*
X550125Y228756D01*
X551268Y228756D01*
X556477Y223548D01*
X556477Y222405D01*
X550125Y222405D01*
G37*
%LPD*%
%LPC*%
G36*
X550625Y159405D02*
X550625Y159405D01*
X550625Y165756D01*
X551768Y165756D01*
X556977Y160548D01*
X556977Y159405D01*
X550625Y159405D01*
G37*
%LPD*%
%LPC*%
G36*
X307905Y295623D02*
X307905Y295623D01*
X307905Y301975D01*
X314256Y301975D01*
X314256Y300832D01*
X309048Y295623D01*
X307905Y295623D01*
G37*
%LPD*%
%LPC*%
G36*
X550125Y210975D02*
X550125Y210975D01*
X550125Y217326D01*
X556477Y217326D01*
X556477Y216183D01*
X551268Y210975D01*
X550125Y210975D01*
G37*
%LPD*%
%LPC*%
G36*
X550625Y147975D02*
X550625Y147975D01*
X550625Y154326D01*
X556977Y154326D01*
X556977Y153183D01*
X551768Y147975D01*
X550625Y147975D01*
G37*
%LPD*%
%LPC*%
G36*
X301683Y295623D02*
X301683Y295623D01*
X296475Y300832D01*
X296475Y301975D01*
X302826Y301975D01*
X302826Y295623D01*
X301683Y295623D01*
G37*
%LPD*%
%LPC*%
G36*
X330922Y223761D02*
X330922Y223761D01*
X330922Y229262D01*
X333717Y229262D01*
X334363Y229089D01*
X334942Y228755D01*
X335415Y228281D01*
X335750Y227702D01*
X335923Y227056D01*
X335923Y223761D01*
X330922Y223761D01*
G37*
%LPD*%
%LPC*%
G36*
X281293Y223768D02*
X281293Y223768D01*
X281293Y227063D01*
X281467Y227709D01*
X281801Y228289D01*
X282274Y228762D01*
X282853Y229096D01*
X283500Y229270D01*
X286295Y229270D01*
X286295Y223768D01*
X281293Y223768D01*
G37*
%LPD*%
%LPC*%
G36*
X430316Y156604D02*
X430316Y156604D01*
X430316Y159899D01*
X430489Y160546D01*
X430823Y161125D01*
X431296Y161598D01*
X431876Y161932D01*
X432522Y162106D01*
X435317Y162106D01*
X435317Y156604D01*
X430316Y156604D01*
G37*
%LPD*%
D10*
X668173Y451655D02*
X3400Y453200D01*
X5600Y1600D01*
X665600Y1600D02*
X668173Y451655D01*
X666573Y955D02*
X5600Y1600D01*
D11*
X252453Y53664D03*
X252453Y70664D03*
X437856Y154065D03*
X437856Y137065D03*
X328382Y221221D03*
X328382Y204221D03*
X308382Y221201D03*
X308382Y204201D03*
X288834Y221229D03*
X288834Y204229D03*
D12*
X524741Y156739D03*
D13*
X548086Y156865D03*
D12*
X524241Y219739D03*
D13*
X547586Y219865D03*
D12*
X524641Y88939D03*
D13*
X547986Y89065D03*
D14*
X214049Y88791D03*
X214049Y129791D03*
X403056Y181565D03*
X403056Y140565D03*
D15*
X359644Y180879D03*
X359644Y157765D03*
X359644Y134651D03*
D16*
X297666Y157765D03*
D17*
X233153Y71264D03*
X233153Y52264D03*
X213153Y61764D03*
D11*
X514867Y56873D03*
X497867Y56873D03*
X402856Y202265D03*
X385856Y202265D03*
X362856Y202065D03*
X345856Y202065D03*
X277453Y51464D03*
X294453Y51464D03*
X277753Y72664D03*
X294753Y72664D03*
D18*
X317653Y71564D03*
X317653Y54564D03*
D19*
X591544Y163038D03*
X638823Y241856D03*
X638407Y140307D03*
X591655Y85724D03*
X638854Y414530D03*
X591261Y210381D03*
X639075Y186512D03*
X638072Y63226D03*
D20*
X439600Y100400D03*
X420550Y87700D03*
X439600Y75000D03*
D21*
X174627Y236200D03*
D22*
X152227Y140300D03*
D21*
X34727Y95600D03*
X151227Y73800D03*
X34727Y209700D03*
D22*
X152727Y182700D03*
D23*
X379550Y59400D03*
X379550Y84800D03*
X379550Y110200D03*
X472450Y110200D03*
X472450Y84800D03*
X472450Y59400D03*
D24*
X605800Y126800D03*
X564800Y126800D03*
D25*
X73700Y19000D03*
X47700Y19200D03*
X149800Y19400D03*
X99100Y19300D03*
X124200Y19300D03*
D26*
X445400Y374770D02*
X445400Y390010D01*
X521600Y372230D02*
X521600Y356990D01*
X446300Y322610D02*
X446300Y307370D01*
X522500Y304830D02*
X522500Y289590D01*
D13*
X69959Y300261D03*
D12*
X46614Y300135D03*
D27*
X599100Y376600D03*
X599100Y325800D03*
D26*
X204100Y346380D02*
X204100Y361620D01*
X229500Y361620D02*
X229500Y346380D01*
X254900Y346380D02*
X254900Y361620D01*
D27*
X123500Y382100D03*
X123500Y331300D03*
D28*
X305239Y327859D03*
D29*
X305365Y304514D03*
D30*
X251053Y52264D02*
X233153Y52264D01*
X251053Y52264D02*
X252453Y53664D01*
X254653Y51464D02*
X277453Y51464D01*
X254653Y51464D02*
X252453Y53664D01*
X308382Y221201D02*
X308403Y221221D01*
X288862Y221201D02*
X288834Y221229D01*
D31*
X417600Y182700D02*
X437856Y162444D01*
X404921Y178700D02*
X403056Y181565D01*
X403156Y180465D02*
X402856Y202265D01*
X403056Y181565D02*
X403156Y180465D01*
D32*
X207600Y48700D03*
D31*
X437856Y154065D02*
X437856Y162444D01*
D30*
X431113Y155700D01*
X421600Y155700D01*
D32*
X421600Y155700D03*
D31*
X417600Y182700D02*
X404192Y182700D01*
X403056Y181565D01*
D30*
X233153Y52264D02*
X233153Y52253D01*
X229600Y48700D01*
X207600Y48700D01*
X390600Y84700D02*
X416600Y110700D01*
X438600Y110700D01*
X473800Y110700D01*
X475450Y110700D01*
X439600Y109700D02*
X439600Y100400D01*
X439600Y109700D02*
X438600Y110700D01*
D32*
X416600Y110700D03*
D30*
X390600Y84700D02*
X379550Y84700D01*
X379550Y84800D01*
X472450Y110100D02*
X472450Y110200D01*
D31*
X605800Y126800D02*
X624900Y126800D01*
X438321Y153600D02*
X437856Y154065D01*
D30*
X475450Y110700D02*
X475450Y106250D01*
X500200Y81500D01*
X473300Y110200D02*
X472450Y110200D01*
X473300Y110200D02*
X473800Y110700D01*
X392579Y221221D02*
X328382Y221221D01*
X392579Y221221D02*
X402400Y211400D01*
X402400Y202721D01*
X402856Y202265D01*
X328362Y221201D02*
X308382Y221201D01*
X328362Y221201D02*
X328382Y221221D01*
X308354Y221229D02*
X288834Y221229D01*
X308354Y221229D02*
X308382Y221201D01*
D33*
X226100Y214300D03*
D30*
X226100Y182920D01*
X226060Y180340D01*
D33*
X226060Y180340D03*
D30*
X500200Y81500D02*
X500300Y81500D01*
X509900Y71900D01*
X530821Y71900D01*
X547986Y89065D01*
X547986Y156765D02*
X548086Y156865D01*
D31*
X547986Y156765D02*
X547986Y89065D01*
D34*
X560700Y258900D02*
X456400Y258900D01*
X446300Y269000D01*
X446300Y314990D01*
X446300Y381490D01*
X445400Y382390D01*
X599100Y325800D02*
X599100Y297300D01*
X560700Y258900D01*
D31*
X638407Y140307D02*
X624900Y126800D01*
D34*
X548086Y156865D02*
X548086Y219365D01*
X547586Y219865D01*
X547586Y245786D01*
X560700Y258900D01*
D30*
X308354Y204229D02*
X288834Y204229D01*
X308354Y204229D02*
X308382Y204201D01*
X288600Y203995D02*
X288600Y188700D01*
X288600Y203995D02*
X288834Y204229D01*
X328362Y204201D02*
X328382Y204221D01*
X328362Y204201D02*
X340892Y204201D01*
X345856Y202065D01*
D32*
X335062Y54162D03*
D30*
X318054Y54162D01*
X317653Y54564D01*
D32*
X288600Y188700D03*
D30*
X329600Y188700D01*
X336600Y180700D01*
D32*
X336600Y180700D03*
D30*
X297666Y163200D02*
X297666Y157765D01*
X297666Y163200D02*
X297666Y179634D01*
X288600Y188700D01*
X308403Y204221D02*
X328382Y204221D01*
X308403Y204221D02*
X308382Y204201D01*
D32*
X247600Y104700D03*
D30*
X243600Y108700D01*
X243600Y133700D01*
X239600Y137700D01*
D32*
X239600Y137700D03*
X208500Y152400D03*
X257400Y38800D03*
D30*
X327800Y39000D02*
X335900Y47100D01*
X335900Y53325D01*
X335062Y54162D01*
X296166Y161700D02*
X297666Y163200D01*
X327600Y39000D02*
X327800Y39000D01*
X327600Y39000D02*
X325800Y37200D01*
X259000Y37200D01*
X257400Y38800D01*
X294231Y161200D02*
X293531Y161900D01*
X294231Y161200D02*
X297666Y157765D01*
X294231Y161200D02*
X294231Y162569D01*
X290900Y165900D01*
X215400Y165900D01*
X209800Y160300D01*
X209800Y153700D01*
X208500Y152400D01*
X400142Y134651D02*
X403056Y140565D01*
D31*
X437856Y137065D02*
X438492Y137700D01*
X359644Y134651D02*
X359644Y125744D01*
X347300Y113400D01*
X403056Y140565D02*
X405056Y138565D01*
X400142Y134651D02*
X359644Y134651D01*
X437856Y137065D02*
X438621Y136300D01*
X438321Y136600D02*
X437856Y137065D01*
X436356Y138565D02*
X452665Y138565D01*
X454100Y140000D01*
X454100Y167000D01*
X418000Y203100D01*
X405056Y138565D02*
X436356Y138565D01*
X437856Y137065D01*
X418000Y203100D02*
X418000Y225900D01*
X424700Y232600D01*
X524241Y219739D02*
X524241Y157239D01*
X524741Y156739D01*
X524241Y219739D02*
X524241Y222859D01*
X514700Y232400D01*
X424900Y232400D01*
X424700Y232600D01*
X524741Y156739D02*
X524741Y89039D01*
X524641Y88939D01*
X347300Y113400D02*
X295100Y113400D01*
D35*
X152727Y178673D02*
X152727Y182700D01*
X152727Y178673D02*
X200600Y130800D01*
X213039Y130800D01*
X214049Y129791D01*
D31*
X214049Y135549D01*
X230200Y151700D01*
X256800Y151700D01*
X295100Y113400D01*
D35*
X69959Y265467D02*
X69959Y300261D01*
X69959Y265467D02*
X152727Y182700D01*
D30*
X359644Y180879D02*
X361556Y182791D01*
X362856Y202065D02*
X385856Y202265D01*
X361556Y200765D02*
X361556Y182791D01*
X361556Y200765D02*
X362856Y202065D01*
X276853Y70664D02*
X252453Y70664D01*
X276853Y70664D02*
X277753Y72664D01*
X252453Y70664D02*
X233753Y70664D01*
X233153Y71264D01*
X294453Y71264D02*
X294453Y51464D01*
X294453Y71264D02*
X294753Y72664D01*
X317553Y71464D02*
X317653Y71564D01*
X317653Y93753D01*
X320600Y96700D01*
D32*
X320600Y96700D03*
D30*
X316553Y72664D02*
X294753Y72664D01*
X316553Y72664D02*
X317653Y71564D01*
D32*
X354600Y78700D03*
D30*
X355600Y77700D01*
X381100Y61150D02*
X383150Y61150D01*
X381100Y61150D02*
X372150Y61150D01*
X354600Y78700D01*
X381100Y59700D02*
X398600Y59700D01*
X420550Y81650D02*
X420550Y87700D01*
X420550Y81650D02*
X398600Y59700D01*
X379550Y59700D02*
X379550Y59400D01*
X379550Y59700D02*
X381100Y59700D01*
X381100Y61150D01*
X497867Y56873D02*
X499600Y58606D01*
X463600Y84700D02*
X453600Y74700D01*
X439900Y74700D01*
X439600Y75000D01*
X463600Y84700D02*
X472450Y84700D01*
X472450Y84800D01*
X472450Y84700D02*
X479900Y84700D01*
X497000Y67600D01*
X497000Y57740D01*
X497867Y56873D01*
D34*
X528700Y20500D02*
X189100Y20500D01*
X589600Y83669D02*
X591655Y85724D01*
X189100Y20500D02*
X156500Y61100D01*
X156500Y67673D01*
X151227Y73800D01*
X156627Y69000D01*
X589600Y81700D02*
X589600Y83669D01*
X589600Y81700D02*
X528700Y20500D01*
X178627Y234227D02*
X174627Y236200D01*
X178627Y234227D02*
X203900Y259500D01*
X204500Y259500D01*
X208600Y263600D01*
X350500Y263600D01*
X388300Y301400D01*
X388300Y390100D01*
X407400Y409200D01*
X408400Y409200D01*
X415700Y416500D01*
X509700Y416500D01*
X522500Y403700D01*
X522500Y365510D01*
X521600Y364610D01*
X521600Y298110D01*
X522500Y297210D01*
X533590Y376600D02*
X599100Y376600D01*
X533590Y376600D02*
X521600Y364610D01*
D31*
X514867Y56873D02*
X535773Y56873D01*
X567600Y88700D01*
X567600Y139094D01*
X591544Y163038D01*
X564800Y136294D02*
X564800Y126800D01*
X564800Y136294D02*
X567600Y139094D01*
D30*
X213153Y61764D02*
X212600Y62317D01*
D31*
X212600Y87342D01*
D30*
X214049Y88791D01*
D35*
X213939Y88900D01*
X203627Y88900D01*
X152227Y140300D01*
X46614Y245913D02*
X46614Y300135D01*
X46614Y245913D02*
X152227Y140300D01*
M02*
