M48
;GenerationSoftware,Autodesk,EAGLE,9.0.0*%
;CreationDate,2018-05-29T16:11:04Z*%
FMAT,2
ICI,OFF
METRIC,TZ,000.000
T7C0.600
T6C0.762
T5C0.813
T4C1.016
T3C1.500
T2C1.800
T1C2.000
%
G90
M71
T1
X3473Y20970
X15123Y7380
X3473Y9560
X17463Y23620
T2
X63841Y14031
X59166Y8572
X63885Y41453
X59126Y21038
X63907Y18651
X63807Y6323
X63882Y24186
X59154Y16304
T3
X15273Y18270
X15223Y14030
T4
X25490Y35400
X22950Y35400
X20410Y35400
X52250Y29721
X44630Y31499
X52160Y36461
X44540Y38239
T5
X4770Y1920
X14980Y1940
X9910Y1930
X12420Y1930
X59910Y37660
X12350Y38210
X12350Y33130
X59910Y32580
X42055Y8770
X43960Y7500
X43960Y10040
X7370Y1900
T6
X52474Y15674
X54799Y8907
X54809Y15687
X6996Y30026
X4661Y30013
X52464Y8894
X54759Y21987
X52424Y21974
X30524Y32786
X30537Y30451
T7
X42160Y15570
X41660Y11070
X22610Y21430
X22606Y18034
X33506Y5416
X28860Y18870
X33660Y18070
X35460Y7870
X32060Y9670
X25740Y3880
X20760Y4870
X20850Y15240
X23960Y13770
X24760Y10470
M30