G04 EAGLE Gerber X2 export*
%TF.Part,Single*%
%TF.FileFunction,Other,Solder stop mask SOL*%
%TF.FilePolarity,Positive*%
%TF.GenerationSoftware,Autodesk,EAGLE,9.0.0*%
%TF.CreationDate,2018-05-29T16:10:46Z*%
G75*
%MOMM*%
%FSLAX34Y34*%
%LPD*%
%AMOC8*
5,1,8,0,0,1.08239X$1,22.5*%
G01*
%ADD10C,0.000000*%
%ADD11R,1.203200X1.303200*%
%ADD12P,1.594577X8X202.500000*%
%ADD13P,1.594577X8X22.500000*%
%ADD14R,1.903200X2.003200*%
%ADD15R,2.438400X1.422400*%
%ADD16R,2.403200X3.803200*%
%ADD17R,1.103200X1.003200*%
%ADD18R,1.303200X1.203200*%
%ADD19R,3.203200X3.203200*%
%ADD20P,1.649562X8X112.500000*%
%ADD21P,4.008307X8X202.500000*%
%ADD22P,2.925917X8X202.500000*%
%ADD23R,1.723200X1.983200*%
%ADD24R,2.003200X1.903200*%
%ADD25R,1.803400X1.803400*%
%ADD26C,1.727200*%
%ADD27P,2.034460X8X292.500000*%
%ADD28P,1.594577X8X112.500000*%
%ADD29P,1.594577X8X292.500000*%
%ADD30C,1.209600*%
%ADD31P,1.309259X8X22.500000*%


D10*
X668173Y451655D02*
X3400Y453200D01*
X5600Y1600D01*
X665600Y1600D02*
X668173Y451655D01*
X666573Y955D02*
X5600Y1600D01*
D11*
X252453Y53664D03*
X252453Y70664D03*
X437856Y154065D03*
X437856Y137065D03*
X328382Y221221D03*
X328382Y204221D03*
X308382Y221201D03*
X308382Y204201D03*
X288834Y221229D03*
X288834Y204229D03*
D12*
X524741Y156739D03*
D13*
X548086Y156865D03*
D12*
X524241Y219739D03*
D13*
X547586Y219865D03*
D12*
X524641Y88939D03*
D13*
X547986Y89065D03*
D14*
X214049Y88791D03*
X214049Y129791D03*
X403056Y181565D03*
X403056Y140565D03*
D15*
X359644Y180879D03*
X359644Y157765D03*
X359644Y134651D03*
D16*
X297666Y157765D03*
D17*
X233153Y71264D03*
X233153Y52264D03*
X213153Y61764D03*
D11*
X514867Y56873D03*
X497867Y56873D03*
X402856Y202265D03*
X385856Y202265D03*
X362856Y202065D03*
X345856Y202065D03*
X277453Y51464D03*
X294453Y51464D03*
X277753Y72664D03*
X294753Y72664D03*
D18*
X317653Y71564D03*
X317653Y54564D03*
D19*
X591544Y163038D03*
X638823Y241856D03*
X638407Y140307D03*
X591655Y85724D03*
X638854Y414530D03*
X591261Y210381D03*
X639075Y186512D03*
X638072Y63226D03*
D20*
X439600Y100400D03*
X420550Y87700D03*
X439600Y75000D03*
D21*
X174627Y236200D03*
D22*
X152227Y140300D03*
D21*
X34727Y95600D03*
X151227Y73800D03*
X34727Y209700D03*
D22*
X152727Y182700D03*
D23*
X379550Y59400D03*
X379550Y84800D03*
X379550Y110200D03*
X472450Y110200D03*
X472450Y84800D03*
X472450Y59400D03*
D24*
X605800Y126800D03*
X564800Y126800D03*
D25*
X73700Y19000D03*
X47700Y19200D03*
X149800Y19400D03*
X99100Y19300D03*
X124200Y19300D03*
D26*
X445400Y374770D02*
X445400Y390010D01*
X521600Y372230D02*
X521600Y356990D01*
X446300Y322610D02*
X446300Y307370D01*
X522500Y304830D02*
X522500Y289590D01*
D13*
X69959Y300261D03*
D12*
X46614Y300135D03*
D27*
X599100Y376600D03*
X599100Y325800D03*
D26*
X204100Y346380D02*
X204100Y361620D01*
X229500Y361620D02*
X229500Y346380D01*
X254900Y346380D02*
X254900Y361620D01*
D27*
X123500Y382100D03*
X123500Y331300D03*
D28*
X305239Y327859D03*
D29*
X305365Y304514D03*
D30*
X207600Y48700D03*
X421600Y155700D03*
X416600Y110700D03*
D31*
X226100Y214300D03*
X226060Y180340D03*
D30*
X335062Y54162D03*
X288600Y188700D03*
X336600Y180700D03*
X247600Y104700D03*
X239600Y137700D03*
X208500Y152400D03*
X257400Y38800D03*
X320600Y96700D03*
X354600Y78700D03*
M02*
