G04 EAGLE Gerber X2 export*
%TF.Part,Single*%
%TF.FileFunction,Other,Solder stop mask SOL*%
%TF.FilePolarity,Positive*%
%TF.GenerationSoftware,Autodesk,EAGLE,9.0.1*%
%TF.CreationDate,2018-09-16T06:03:57Z*%
G75*
%MOMM*%
%FSLAX34Y34*%
%LPD*%
%AMOC8*
5,1,8,0,0,1.08239X$1,22.5*%
G01*
%ADD10C,0.000000*%
%ADD11R,1.203200X1.303200*%
%ADD12R,1.303200X1.203200*%
%ADD13P,1.594577X8X202.500000*%
%ADD14P,1.594577X8X22.500000*%
%ADD15R,1.903200X2.003200*%
%ADD16R,1.103200X1.003200*%
%ADD17R,3.203200X3.203200*%
%ADD18P,1.649562X8X112.500000*%
%ADD19P,4.008307X8X202.500000*%
%ADD20P,2.925917X8X202.500000*%
%ADD21R,2.003200X1.903200*%
%ADD22R,1.803400X1.803400*%
%ADD23C,1.727200*%
%ADD24P,2.034460X8X22.500000*%
%ADD25P,2.034460X8X292.500000*%
%ADD26R,1.703200X0.803200*%
%ADD27R,1.803200X2.003200*%
%ADD28P,1.594577X8X112.500000*%
%ADD29P,1.594577X8X292.500000*%
%ADD30C,1.524000*%
%ADD31C,1.209600*%
%ADD32P,1.309259X8X22.500000*%


D10*
X668173Y454655D02*
X3400Y456200D01*
X5600Y1600D01*
X665600Y1600D02*
X668173Y454655D01*
X666573Y955D02*
X5600Y1600D01*
D11*
X252453Y58664D03*
X252453Y75664D03*
D12*
X442065Y263144D03*
X425065Y263144D03*
D13*
X524241Y224739D03*
D14*
X547586Y224865D03*
D15*
X214049Y95791D03*
X214049Y136791D03*
D16*
X233153Y76264D03*
X233153Y57264D03*
X213153Y66764D03*
D11*
X466867Y54873D03*
X449867Y54873D03*
X277453Y56464D03*
X294453Y56464D03*
X277753Y77664D03*
X294753Y77664D03*
D17*
X591544Y168038D03*
X638823Y246856D03*
X639407Y358307D03*
X591655Y90724D03*
X638854Y419530D03*
X591261Y215381D03*
X639075Y191512D03*
X638072Y68226D03*
D18*
X449600Y103400D03*
X430550Y90700D03*
X449600Y78000D03*
D19*
X174627Y241200D03*
D20*
X152227Y145300D03*
D19*
X34727Y100600D03*
X151227Y78800D03*
X34727Y214700D03*
D20*
X152727Y187700D03*
D21*
X481800Y82800D03*
X522800Y82800D03*
D22*
X73700Y24000D03*
X47700Y24200D03*
X149800Y24400D03*
X99100Y24300D03*
X124200Y24300D03*
D23*
X261400Y383770D02*
X261400Y399010D01*
X337600Y381230D02*
X337600Y365990D01*
D14*
X69959Y305261D03*
D13*
X46614Y305135D03*
D24*
X531400Y381100D03*
X582200Y381100D03*
D23*
X186620Y412900D02*
X171380Y412900D01*
X171380Y387500D02*
X186620Y387500D01*
X186620Y362100D02*
X171380Y362100D01*
D25*
X91500Y402100D03*
X91500Y351300D03*
D14*
X145859Y306761D03*
D13*
X122514Y306635D03*
D24*
X451600Y380000D03*
X502400Y380000D03*
D15*
X403000Y109500D03*
X403000Y68500D03*
D21*
X302500Y126000D03*
X343500Y126000D03*
D26*
X348500Y250650D03*
X403500Y250650D03*
X348500Y237950D03*
X348500Y263350D03*
X348500Y276050D03*
X403500Y237950D03*
X403500Y263350D03*
X403500Y276050D03*
D12*
X300500Y257000D03*
X317500Y257000D03*
D21*
X264500Y234000D03*
X305500Y234000D03*
D27*
X381000Y202000D03*
X409000Y202000D03*
D12*
X390000Y312500D03*
X390000Y295500D03*
D11*
X424500Y285000D03*
X441500Y285000D03*
D28*
X297939Y305759D03*
D29*
X298065Y282414D03*
D30*
X246604Y297050D02*
X233396Y297050D01*
X233396Y258950D02*
X246604Y258950D01*
D11*
X366000Y295500D03*
X366000Y312500D03*
D30*
X461950Y313604D02*
X461950Y300396D01*
X500050Y300396D02*
X500050Y313604D01*
D16*
X494000Y177500D03*
X494000Y196500D03*
X514000Y187000D03*
D11*
X473000Y192500D03*
X473000Y175500D03*
D12*
X454000Y191500D03*
X454000Y174500D03*
D11*
X471500Y156000D03*
X454500Y156000D03*
D21*
X384500Y161000D03*
X425500Y161000D03*
D11*
X517500Y156000D03*
X500500Y156000D03*
D17*
X640000Y136000D03*
D15*
X540000Y134500D03*
X540000Y175500D03*
D31*
X207600Y53700D03*
D32*
X226100Y219300D03*
X226060Y185340D03*
D31*
X320062Y58162D03*
X257400Y43800D03*
X104000Y154000D03*
X292280Y192720D03*
X352000Y172000D03*
X278000Y112000D03*
X365000Y76000D03*
X305000Y102000D03*
X321000Y102000D03*
X564000Y140000D03*
M02*
