G04 EAGLE Gerber X2 export*
%TF.Part,Single*%
%TF.FileFunction,Other,Solder side*%
%TF.FilePolarity,Positive*%
%TF.GenerationSoftware,Autodesk,EAGLE,9.0.1*%
%TF.CreationDate,2018-09-16T06:03:57Z*%
G75*
%MOMM*%
%FSLAX34Y34*%
%LPD*%
%AMOC8*
5,1,8,0,0,1.08239X$1,22.5*%
G01*
%ADD10C,0.000000*%
%ADD11R,1.000000X1.100000*%
%ADD12R,1.100000X1.000000*%
%ADD13P,1.374635X8X202.500000*%
%ADD14P,1.374635X8X22.500000*%
%ADD15R,1.700000X1.800000*%
%ADD16R,0.900000X0.800000*%
%ADD17R,3.000000X3.000000*%
%ADD18P,1.429621X8X112.500000*%
%ADD19P,3.788365X8X202.500000*%
%ADD20P,2.705975X8X202.500000*%
%ADD21R,1.800000X1.700000*%
%ADD22R,1.600200X1.600200*%
%ADD23C,1.524000*%
%ADD24P,1.814519X8X22.500000*%
%ADD25P,1.814519X8X292.500000*%
%ADD26R,1.500000X0.600000*%
%ADD27R,1.600000X1.800000*%
%ADD28P,1.374635X8X112.500000*%
%ADD29P,1.374635X8X292.500000*%
%ADD30C,1.320800*%
%ADD31C,0.609600*%
%ADD32C,1.006400*%
%ADD33P,1.089317X8X22.500000*%
%ADD34C,0.812800*%
%ADD35C,1.016000*%
%ADD36C,1.930400*%
%ADD37C,2.200000*%
%ADD38C,2.540000*%
%ADD39C,1.270000*%

G36*
X202114Y151177D02*
X202114Y151177D01*
X202325Y151177D01*
X202338Y151180D01*
X202351Y151180D01*
X202561Y151221D01*
X202768Y151258D01*
X202782Y151264D01*
X202793Y151266D01*
X202830Y151280D01*
X203063Y151360D01*
X204336Y151887D01*
X214186Y151887D01*
X214317Y151899D01*
X214448Y151901D01*
X214540Y151919D01*
X214635Y151927D01*
X214761Y151962D01*
X214890Y151987D01*
X214978Y152021D01*
X215069Y152046D01*
X215187Y152102D01*
X215310Y152149D01*
X215391Y152199D01*
X215476Y152239D01*
X215582Y152315D01*
X215694Y152384D01*
X215792Y152466D01*
X215842Y152501D01*
X215873Y152534D01*
X215934Y152584D01*
X242048Y177357D01*
X242178Y177505D01*
X242313Y177651D01*
X242327Y177674D01*
X242346Y177695D01*
X242448Y177864D01*
X242554Y178031D01*
X242565Y178056D01*
X242579Y178080D01*
X242650Y178264D01*
X242725Y178447D01*
X242731Y178474D01*
X242741Y178500D01*
X242778Y178694D01*
X242820Y178888D01*
X242822Y178921D01*
X242826Y178942D01*
X242827Y178999D01*
X242839Y179200D01*
X242839Y199021D01*
X244386Y202756D01*
X257244Y215614D01*
X260979Y217161D01*
X290087Y217161D01*
X290217Y217172D01*
X290346Y217174D01*
X290440Y217192D01*
X290535Y217201D01*
X290661Y217235D01*
X290789Y217260D01*
X290878Y217294D01*
X290970Y217319D01*
X291087Y217375D01*
X291209Y217422D01*
X291290Y217472D01*
X291376Y217513D01*
X291482Y217588D01*
X291593Y217656D01*
X291665Y217719D01*
X291743Y217775D01*
X291833Y217868D01*
X291931Y217954D01*
X291990Y218029D01*
X292057Y218097D01*
X292129Y218205D01*
X292210Y218307D01*
X292255Y218391D01*
X292309Y218470D01*
X292361Y218589D01*
X292423Y218704D01*
X292452Y218795D01*
X292491Y218882D01*
X292522Y219009D01*
X292562Y219132D01*
X292575Y219227D01*
X292598Y219320D01*
X292606Y219449D01*
X292623Y219578D01*
X292619Y219674D01*
X292625Y219769D01*
X292610Y219898D01*
X292605Y220028D01*
X292584Y220121D01*
X292573Y220216D01*
X292535Y220341D01*
X292507Y220468D01*
X292471Y220556D01*
X292443Y220647D01*
X292384Y220763D01*
X292334Y220883D01*
X292282Y220963D01*
X292238Y221049D01*
X292160Y221152D01*
X292089Y221261D01*
X292003Y221359D01*
X291966Y221407D01*
X291934Y221438D01*
X291882Y221496D01*
X291331Y222047D01*
X290403Y224287D01*
X290403Y226612D01*
X290389Y226776D01*
X290382Y226941D01*
X290369Y227000D01*
X290363Y227061D01*
X290320Y227220D01*
X290284Y227380D01*
X290261Y227436D01*
X290245Y227495D01*
X290174Y227643D01*
X290111Y227796D01*
X290078Y227847D01*
X290051Y227902D01*
X289956Y228035D01*
X289866Y228174D01*
X289815Y228232D01*
X289789Y228268D01*
X289746Y228310D01*
X289660Y228408D01*
X288890Y229177D01*
X280376Y237692D01*
X280276Y237775D01*
X280183Y237866D01*
X280103Y237919D01*
X280030Y237981D01*
X279917Y238045D01*
X279810Y238118D01*
X279722Y238157D01*
X279639Y238204D01*
X279517Y238248D01*
X279398Y238300D01*
X279305Y238323D01*
X279215Y238355D01*
X279087Y238376D01*
X278960Y238407D01*
X278865Y238413D01*
X278771Y238428D01*
X278641Y238427D01*
X278511Y238435D01*
X278416Y238424D01*
X278320Y238422D01*
X278193Y238398D01*
X278064Y238383D01*
X277972Y238355D01*
X277878Y238337D01*
X277757Y238290D01*
X277633Y238252D01*
X277627Y238249D01*
X266210Y238249D01*
X266176Y238246D01*
X266141Y238248D01*
X265952Y238226D01*
X265762Y238209D01*
X265728Y238200D01*
X265694Y238196D01*
X265511Y238141D01*
X265327Y238091D01*
X265296Y238076D01*
X265263Y238066D01*
X265092Y237979D01*
X264921Y237897D01*
X264893Y237877D01*
X264862Y237862D01*
X264710Y237746D01*
X264555Y237635D01*
X264530Y237610D01*
X264503Y237590D01*
X264494Y237580D01*
X264392Y237680D01*
X264364Y237699D01*
X264338Y237723D01*
X264177Y237825D01*
X264019Y237932D01*
X263988Y237946D01*
X263958Y237964D01*
X263782Y238037D01*
X263608Y238114D01*
X263574Y238122D01*
X263542Y238135D01*
X263355Y238175D01*
X263170Y238221D01*
X263136Y238223D01*
X263102Y238230D01*
X262790Y238249D01*
X252959Y238249D01*
X252959Y239316D01*
X252956Y239351D01*
X252958Y239385D01*
X252936Y239574D01*
X252919Y239765D01*
X252910Y239798D01*
X252906Y239832D01*
X252851Y240015D01*
X252801Y240199D01*
X252786Y240230D01*
X252776Y240263D01*
X252689Y240434D01*
X252607Y240606D01*
X252587Y240634D01*
X252572Y240665D01*
X252456Y240817D01*
X252345Y240972D01*
X252320Y240996D01*
X252300Y241023D01*
X252160Y241152D01*
X252023Y241286D01*
X251994Y241305D01*
X251968Y241329D01*
X251807Y241431D01*
X251650Y241538D01*
X251618Y241552D01*
X251589Y241570D01*
X251412Y241643D01*
X251238Y241720D01*
X251204Y241728D01*
X251172Y241741D01*
X250985Y241781D01*
X250800Y241827D01*
X250766Y241829D01*
X250732Y241836D01*
X250420Y241855D01*
X246131Y241855D01*
X242770Y243247D01*
X240512Y245506D01*
X240386Y245611D01*
X240265Y245723D01*
X240213Y245755D01*
X240167Y245794D01*
X240024Y245876D01*
X239885Y245964D01*
X239829Y245988D01*
X239776Y246018D01*
X239621Y246073D01*
X239468Y246135D01*
X239409Y246148D01*
X239351Y246169D01*
X239189Y246195D01*
X239028Y246230D01*
X238951Y246235D01*
X238907Y246242D01*
X238846Y246241D01*
X238716Y246249D01*
X230870Y246249D01*
X226202Y248183D01*
X222629Y251756D01*
X220695Y256424D01*
X220695Y261476D01*
X222629Y266144D01*
X226202Y269717D01*
X230870Y271651D01*
X249130Y271651D01*
X253798Y269717D01*
X257371Y266144D01*
X259207Y261712D01*
X259305Y261525D01*
X259401Y261335D01*
X259409Y261325D01*
X259416Y261313D01*
X259545Y261146D01*
X259673Y260977D01*
X259683Y260968D01*
X259691Y260957D01*
X259849Y260815D01*
X260005Y260671D01*
X260016Y260664D01*
X260025Y260656D01*
X260205Y260544D01*
X260384Y260430D01*
X260397Y260425D01*
X260408Y260418D01*
X260605Y260339D01*
X260801Y260259D01*
X260814Y260256D01*
X260826Y260251D01*
X261034Y260209D01*
X261241Y260164D01*
X261257Y260163D01*
X261267Y260161D01*
X261307Y260160D01*
X261553Y260145D01*
X281819Y260145D01*
X285180Y258753D01*
X288124Y255808D01*
X288224Y255725D01*
X288317Y255634D01*
X288397Y255580D01*
X288470Y255519D01*
X288583Y255455D01*
X288690Y255382D01*
X288778Y255343D01*
X288861Y255296D01*
X288983Y255252D01*
X289102Y255200D01*
X289195Y255177D01*
X289285Y255145D01*
X289413Y255124D01*
X289540Y255093D01*
X289635Y255087D01*
X289729Y255072D01*
X289859Y255073D01*
X289989Y255065D01*
X290084Y255076D01*
X290180Y255078D01*
X290307Y255102D01*
X290436Y255117D01*
X290528Y255145D01*
X290622Y255163D01*
X290743Y255210D01*
X290867Y255248D01*
X290953Y255291D01*
X291042Y255325D01*
X291153Y255393D01*
X291269Y255452D01*
X291345Y255510D01*
X291426Y255559D01*
X291524Y255646D01*
X291627Y255724D01*
X291692Y255794D01*
X291764Y255858D01*
X291844Y255960D01*
X291933Y256055D01*
X291984Y256136D01*
X292043Y256211D01*
X292104Y256325D01*
X292174Y256435D01*
X292211Y256523D01*
X292256Y256608D01*
X292296Y256731D01*
X292345Y256852D01*
X292365Y256945D01*
X292395Y257036D01*
X292413Y257164D01*
X292440Y257292D01*
X292448Y257421D01*
X292456Y257482D01*
X292455Y257527D01*
X292459Y257604D01*
X292459Y262335D01*
X292632Y262981D01*
X292967Y263560D01*
X293440Y264033D01*
X294019Y264368D01*
X294665Y264541D01*
X297961Y264541D01*
X297961Y257000D01*
X297964Y256966D01*
X297962Y256931D01*
X297984Y256742D01*
X298000Y256552D01*
X298010Y256518D01*
X298014Y256484D01*
X298069Y256301D01*
X298119Y256117D01*
X298134Y256086D01*
X298144Y256053D01*
X298231Y255882D01*
X298312Y255711D01*
X298333Y255683D01*
X298348Y255652D01*
X298463Y255500D01*
X298575Y255345D01*
X298599Y255321D01*
X298620Y255293D01*
X298760Y255164D01*
X298897Y255031D01*
X298926Y255011D01*
X298951Y254988D01*
X299112Y254885D01*
X299270Y254779D01*
X299302Y254765D01*
X299331Y254746D01*
X299508Y254674D01*
X299682Y254596D01*
X299716Y254588D01*
X299748Y254575D01*
X299934Y254535D01*
X300119Y254490D01*
X300154Y254488D01*
X300188Y254480D01*
X300500Y254461D01*
X300535Y254464D01*
X300569Y254462D01*
X300759Y254484D01*
X300949Y254501D01*
X300982Y254510D01*
X301016Y254514D01*
X301199Y254569D01*
X301383Y254620D01*
X301414Y254634D01*
X301447Y254644D01*
X301618Y254731D01*
X301790Y254813D01*
X301818Y254833D01*
X301849Y254849D01*
X302001Y254964D01*
X302156Y255075D01*
X302180Y255100D01*
X302207Y255121D01*
X302337Y255261D01*
X302470Y255398D01*
X302489Y255426D01*
X302513Y255452D01*
X302615Y255613D01*
X302722Y255771D01*
X302736Y255802D01*
X302754Y255832D01*
X302827Y256008D01*
X302904Y256183D01*
X302912Y256216D01*
X302925Y256248D01*
X302966Y256435D01*
X303011Y256620D01*
X303013Y256654D01*
X303020Y256688D01*
X303039Y257000D01*
X303039Y264541D01*
X304867Y264541D01*
X305031Y264555D01*
X305195Y264562D01*
X305255Y264575D01*
X305315Y264581D01*
X305474Y264624D01*
X305635Y264660D01*
X305691Y264683D01*
X305750Y264699D01*
X305898Y264770D01*
X306050Y264833D01*
X306101Y264866D01*
X306156Y264893D01*
X306290Y264988D01*
X306428Y265078D01*
X306486Y265129D01*
X306522Y265155D01*
X306565Y265198D01*
X306662Y265284D01*
X308546Y267169D01*
X310787Y268097D01*
X323112Y268097D01*
X323276Y268111D01*
X323441Y268118D01*
X323500Y268131D01*
X323561Y268137D01*
X323720Y268180D01*
X323880Y268216D01*
X323936Y268239D01*
X323995Y268255D01*
X324144Y268326D01*
X324296Y268389D01*
X324347Y268422D01*
X324402Y268449D01*
X324535Y268544D01*
X324674Y268634D01*
X324731Y268685D01*
X324768Y268711D01*
X324811Y268754D01*
X324908Y268840D01*
X327170Y271103D01*
X330531Y272495D01*
X335920Y272495D01*
X335955Y272498D01*
X335989Y272496D01*
X336178Y272518D01*
X336369Y272535D01*
X336402Y272544D01*
X336436Y272548D01*
X336619Y272603D01*
X336803Y272653D01*
X336834Y272668D01*
X336867Y272678D01*
X337038Y272765D01*
X337210Y272847D01*
X337238Y272867D01*
X337269Y272882D01*
X337421Y272998D01*
X337576Y273109D01*
X337600Y273134D01*
X337627Y273154D01*
X337756Y273294D01*
X337890Y273431D01*
X337909Y273460D01*
X337933Y273486D01*
X337948Y273511D01*
X348500Y273511D01*
X358541Y273511D01*
X358541Y273483D01*
X358555Y273319D01*
X358562Y273155D01*
X358575Y273095D01*
X358581Y273035D01*
X358624Y272876D01*
X358660Y272715D01*
X358683Y272659D01*
X358699Y272600D01*
X358770Y272452D01*
X358833Y272300D01*
X358866Y272249D01*
X358893Y272194D01*
X358988Y272060D01*
X359078Y271922D01*
X359129Y271864D01*
X359155Y271828D01*
X359198Y271785D01*
X359284Y271688D01*
X361169Y269804D01*
X362097Y267563D01*
X362097Y259137D01*
X361614Y257972D01*
X361565Y257815D01*
X361508Y257660D01*
X361497Y257600D01*
X361479Y257542D01*
X361458Y257379D01*
X361430Y257217D01*
X361430Y257156D01*
X361422Y257095D01*
X361431Y256931D01*
X361431Y256767D01*
X361442Y256707D01*
X361445Y256646D01*
X361483Y256486D01*
X361512Y256324D01*
X361537Y256251D01*
X361548Y256207D01*
X361572Y256151D01*
X361614Y256028D01*
X362097Y254863D01*
X362097Y249634D01*
X362100Y249599D01*
X362098Y249565D01*
X362120Y249376D01*
X362137Y249185D01*
X362146Y249152D01*
X362150Y249118D01*
X362205Y248935D01*
X362255Y248751D01*
X362270Y248720D01*
X362280Y248687D01*
X362367Y248516D01*
X362449Y248344D01*
X362469Y248316D01*
X362484Y248285D01*
X362600Y248133D01*
X362711Y247978D01*
X362736Y247954D01*
X362756Y247927D01*
X362896Y247798D01*
X363033Y247664D01*
X363062Y247645D01*
X363088Y247621D01*
X363249Y247519D01*
X363406Y247412D01*
X363438Y247398D01*
X363467Y247380D01*
X363644Y247307D01*
X363818Y247230D01*
X363852Y247222D01*
X363884Y247209D01*
X364071Y247169D01*
X364256Y247123D01*
X364290Y247121D01*
X364324Y247114D01*
X364636Y247095D01*
X387364Y247095D01*
X387399Y247098D01*
X387433Y247096D01*
X387622Y247118D01*
X387813Y247135D01*
X387846Y247144D01*
X387880Y247148D01*
X388063Y247203D01*
X388247Y247253D01*
X388278Y247268D01*
X388311Y247278D01*
X388482Y247365D01*
X388654Y247447D01*
X388682Y247467D01*
X388713Y247482D01*
X388865Y247598D01*
X389020Y247709D01*
X389044Y247734D01*
X389071Y247754D01*
X389200Y247894D01*
X389334Y248031D01*
X389353Y248060D01*
X389377Y248086D01*
X389479Y248247D01*
X389586Y248404D01*
X389600Y248436D01*
X389618Y248465D01*
X389691Y248642D01*
X389768Y248816D01*
X389776Y248850D01*
X389789Y248882D01*
X389829Y249069D01*
X389875Y249254D01*
X389877Y249288D01*
X389884Y249322D01*
X389903Y249634D01*
X389903Y254863D01*
X390386Y256028D01*
X390435Y256185D01*
X390492Y256340D01*
X390503Y256400D01*
X390521Y256458D01*
X390542Y256621D01*
X390570Y256783D01*
X390570Y256844D01*
X390578Y256905D01*
X390569Y257069D01*
X390569Y257233D01*
X390558Y257293D01*
X390555Y257354D01*
X390517Y257515D01*
X390488Y257676D01*
X390463Y257749D01*
X390452Y257793D01*
X390428Y257849D01*
X390386Y257972D01*
X389903Y259137D01*
X389903Y267563D01*
X390386Y268728D01*
X390435Y268885D01*
X390492Y269040D01*
X390503Y269100D01*
X390521Y269158D01*
X390542Y269321D01*
X390570Y269483D01*
X390570Y269544D01*
X390578Y269605D01*
X390569Y269769D01*
X390569Y269933D01*
X390558Y269993D01*
X390555Y270054D01*
X390517Y270215D01*
X390488Y270376D01*
X390463Y270449D01*
X390452Y270493D01*
X390428Y270549D01*
X390386Y270672D01*
X389903Y271837D01*
X389903Y280263D01*
X389957Y280393D01*
X390021Y280595D01*
X390086Y280797D01*
X390088Y280810D01*
X390092Y280823D01*
X390119Y281032D01*
X390148Y281243D01*
X390147Y281257D01*
X390149Y281269D01*
X390138Y281481D01*
X390129Y281693D01*
X390127Y281706D01*
X390126Y281719D01*
X390078Y281924D01*
X390032Y282133D01*
X390027Y282145D01*
X390024Y282158D01*
X389941Y282351D01*
X389858Y282548D01*
X389851Y282559D01*
X389846Y282571D01*
X389729Y282748D01*
X389614Y282926D01*
X389603Y282938D01*
X389598Y282947D01*
X389571Y282975D01*
X389407Y283161D01*
X388908Y283660D01*
X388782Y283765D01*
X388661Y283877D01*
X388609Y283909D01*
X388562Y283948D01*
X388420Y284030D01*
X388281Y284118D01*
X388224Y284142D01*
X388171Y284172D01*
X388017Y284227D01*
X387864Y284289D01*
X387805Y284302D01*
X387747Y284323D01*
X387585Y284349D01*
X387424Y284384D01*
X387347Y284389D01*
X387303Y284396D01*
X387242Y284395D01*
X387112Y284403D01*
X383287Y284403D01*
X381046Y285331D01*
X379331Y287047D01*
X378252Y289653D01*
X378219Y289716D01*
X378194Y289782D01*
X378115Y289915D01*
X378043Y290052D01*
X378000Y290108D01*
X377964Y290169D01*
X377862Y290286D01*
X377768Y290408D01*
X377715Y290456D01*
X377668Y290509D01*
X377548Y290606D01*
X377433Y290710D01*
X377373Y290747D01*
X377318Y290792D01*
X377182Y290866D01*
X377051Y290948D01*
X376985Y290974D01*
X376923Y291008D01*
X376776Y291057D01*
X376633Y291114D01*
X376563Y291129D01*
X376496Y291151D01*
X376343Y291173D01*
X376192Y291204D01*
X376121Y291206D01*
X376051Y291216D01*
X375896Y291212D01*
X375741Y291215D01*
X375671Y291204D01*
X375600Y291202D01*
X375450Y291170D01*
X375296Y291146D01*
X375229Y291123D01*
X375160Y291109D01*
X375017Y291050D01*
X374871Y291000D01*
X374809Y290965D01*
X374743Y290939D01*
X374613Y290856D01*
X374477Y290781D01*
X374422Y290736D01*
X374363Y290698D01*
X374249Y290593D01*
X374129Y290495D01*
X374083Y290441D01*
X374031Y290394D01*
X373937Y290270D01*
X373837Y290153D01*
X373801Y290092D01*
X373758Y290035D01*
X373687Y289898D01*
X373609Y289764D01*
X373585Y289698D01*
X373552Y289635D01*
X373456Y289348D01*
X373454Y289342D01*
X373454Y289341D01*
X373453Y289338D01*
X373368Y289019D01*
X373033Y288440D01*
X372560Y287967D01*
X371981Y287632D01*
X371335Y287459D01*
X368539Y287459D01*
X368539Y295500D01*
X368536Y295534D01*
X368538Y295569D01*
X368516Y295758D01*
X368499Y295948D01*
X368490Y295982D01*
X368486Y296016D01*
X368431Y296199D01*
X368381Y296383D01*
X368366Y296414D01*
X368356Y296447D01*
X368269Y296618D01*
X368188Y296789D01*
X368167Y296817D01*
X368152Y296848D01*
X368036Y297000D01*
X367925Y297155D01*
X367925Y297156D01*
X367901Y297180D01*
X367880Y297207D01*
X367879Y297207D01*
X367739Y297337D01*
X367602Y297470D01*
X367574Y297489D01*
X367548Y297513D01*
X367387Y297615D01*
X367229Y297722D01*
X367198Y297736D01*
X367168Y297754D01*
X366992Y297827D01*
X366817Y297904D01*
X366784Y297912D01*
X366752Y297925D01*
X366565Y297966D01*
X366380Y298011D01*
X366346Y298013D01*
X366312Y298020D01*
X366000Y298039D01*
X358459Y298039D01*
X358459Y299800D01*
X358456Y299835D01*
X358458Y299869D01*
X358436Y300058D01*
X358419Y300249D01*
X358410Y300282D01*
X358406Y300316D01*
X358351Y300499D01*
X358301Y300683D01*
X358286Y300714D01*
X358276Y300747D01*
X358189Y300918D01*
X358107Y301090D01*
X358087Y301118D01*
X358072Y301149D01*
X357956Y301300D01*
X357845Y301456D01*
X357820Y301480D01*
X357800Y301507D01*
X357660Y301636D01*
X357523Y301770D01*
X357494Y301789D01*
X357468Y301813D01*
X357307Y301915D01*
X357150Y302022D01*
X357118Y302036D01*
X357089Y302054D01*
X356912Y302127D01*
X356738Y302204D01*
X356704Y302212D01*
X356672Y302225D01*
X356485Y302265D01*
X356300Y302311D01*
X356266Y302313D01*
X356232Y302320D01*
X355920Y302339D01*
X312925Y302339D01*
X312890Y302336D01*
X312856Y302338D01*
X312666Y302316D01*
X312476Y302299D01*
X312443Y302290D01*
X312409Y302286D01*
X312226Y302231D01*
X312042Y302181D01*
X312011Y302166D01*
X311978Y302156D01*
X311807Y302069D01*
X311635Y301987D01*
X311607Y301967D01*
X311576Y301952D01*
X311424Y301836D01*
X311269Y301725D01*
X311245Y301700D01*
X311218Y301680D01*
X311089Y301540D01*
X310955Y301403D01*
X310936Y301374D01*
X310912Y301348D01*
X310810Y301187D01*
X310703Y301030D01*
X310689Y300998D01*
X310671Y300969D01*
X310615Y300833D01*
X303213Y293431D01*
X303190Y293404D01*
X303165Y293382D01*
X303047Y293233D01*
X302924Y293086D01*
X302907Y293055D01*
X302885Y293028D01*
X302795Y292861D01*
X302701Y292695D01*
X302689Y292662D01*
X302673Y292632D01*
X302614Y292450D01*
X302550Y292270D01*
X302544Y292236D01*
X302533Y292203D01*
X302507Y292014D01*
X302476Y291826D01*
X302477Y291792D01*
X302472Y291757D01*
X302480Y291566D01*
X302482Y291376D01*
X302489Y291342D01*
X302490Y291307D01*
X302532Y291121D01*
X302568Y290934D01*
X302580Y290902D01*
X302588Y290868D01*
X302662Y290692D01*
X302730Y290514D01*
X302748Y290484D01*
X302762Y290452D01*
X302865Y290292D01*
X302964Y290129D01*
X302987Y290103D01*
X303006Y290074D01*
X303213Y289840D01*
X306956Y286097D01*
X306956Y284954D01*
X298066Y284954D01*
X298065Y284954D01*
X289175Y284954D01*
X289175Y286097D01*
X292791Y289714D01*
X292814Y289740D01*
X292840Y289763D01*
X292957Y289912D01*
X293080Y290059D01*
X293098Y290089D01*
X293119Y290116D01*
X293209Y290284D01*
X293304Y290450D01*
X293315Y290483D01*
X293332Y290513D01*
X293391Y290694D01*
X293454Y290874D01*
X293460Y290909D01*
X293471Y290941D01*
X293497Y291130D01*
X293528Y291318D01*
X293527Y291353D01*
X293532Y291387D01*
X293524Y291578D01*
X293522Y291769D01*
X293515Y291803D01*
X293514Y291837D01*
X293473Y292023D01*
X293436Y292211D01*
X293424Y292243D01*
X293416Y292277D01*
X293343Y292452D01*
X293274Y292631D01*
X293256Y292660D01*
X293243Y292692D01*
X293139Y292852D01*
X293040Y293015D01*
X293017Y293041D01*
X292998Y293071D01*
X292791Y293305D01*
X285492Y300604D01*
X285492Y310915D01*
X292783Y318206D01*
X294964Y318206D01*
X295128Y318221D01*
X295293Y318227D01*
X295352Y318241D01*
X295413Y318246D01*
X295572Y318289D01*
X295732Y318325D01*
X295788Y318349D01*
X295847Y318365D01*
X295996Y318435D01*
X296148Y318499D01*
X296199Y318532D01*
X296254Y318558D01*
X296388Y318654D01*
X296526Y318743D01*
X296584Y318794D01*
X296620Y318820D01*
X296662Y318864D01*
X296760Y318950D01*
X297679Y319868D01*
X297762Y319968D01*
X297853Y320061D01*
X297906Y320141D01*
X297967Y320214D01*
X298032Y320327D01*
X298105Y320434D01*
X298143Y320522D01*
X298191Y320605D01*
X298234Y320727D01*
X298287Y320846D01*
X298310Y320939D01*
X298342Y321029D01*
X298363Y321157D01*
X298394Y321284D01*
X298400Y321379D01*
X298415Y321473D01*
X298413Y321603D01*
X298421Y321733D01*
X298410Y321828D01*
X298409Y321923D01*
X298384Y322051D01*
X298369Y322180D01*
X298342Y322272D01*
X298323Y322366D01*
X298277Y322487D01*
X298239Y322611D01*
X298196Y322697D01*
X298161Y322786D01*
X298094Y322897D01*
X298035Y323013D01*
X297977Y323089D01*
X297927Y323170D01*
X297841Y323268D01*
X297763Y323371D01*
X297692Y323436D01*
X297629Y323508D01*
X297527Y323588D01*
X297431Y323677D01*
X297351Y323728D01*
X297276Y323787D01*
X297162Y323848D01*
X297052Y323918D01*
X296963Y323955D01*
X296879Y324000D01*
X296756Y324040D01*
X296635Y324089D01*
X296542Y324109D01*
X296451Y324139D01*
X296322Y324157D01*
X296195Y324184D01*
X296065Y324192D01*
X296005Y324200D01*
X295960Y324199D01*
X295883Y324203D01*
X231838Y324203D01*
X231674Y324189D01*
X231510Y324182D01*
X231450Y324169D01*
X231389Y324163D01*
X231230Y324120D01*
X231070Y324084D01*
X231014Y324061D01*
X230955Y324045D01*
X230807Y323974D01*
X230654Y323911D01*
X230603Y323878D01*
X230548Y323851D01*
X230415Y323756D01*
X230276Y323666D01*
X230218Y323615D01*
X230182Y323589D01*
X230140Y323546D01*
X230042Y323460D01*
X194167Y287585D01*
X194062Y287458D01*
X193950Y287338D01*
X193918Y287286D01*
X193878Y287239D01*
X193797Y287097D01*
X193708Y286958D01*
X193685Y286901D01*
X193655Y286848D01*
X193600Y286693D01*
X193537Y286541D01*
X193525Y286482D01*
X193504Y286424D01*
X193477Y286262D01*
X193443Y286101D01*
X193438Y286024D01*
X193431Y285980D01*
X193432Y285919D01*
X193424Y285789D01*
X193424Y256826D01*
X193438Y256662D01*
X193445Y256498D01*
X193458Y256438D01*
X193463Y256377D01*
X193507Y256219D01*
X193542Y256058D01*
X193566Y256002D01*
X193582Y255943D01*
X193652Y255795D01*
X193716Y255643D01*
X193749Y255591D01*
X193775Y255536D01*
X193871Y255403D01*
X193960Y255265D01*
X194011Y255207D01*
X194037Y255170D01*
X194081Y255128D01*
X194167Y255030D01*
X198224Y250974D01*
X198224Y231426D01*
X184401Y217603D01*
X164853Y217603D01*
X151030Y231426D01*
X151030Y250974D01*
X155086Y255030D01*
X155192Y255157D01*
X155303Y255278D01*
X155336Y255329D01*
X155375Y255376D01*
X155457Y255519D01*
X155545Y255657D01*
X155568Y255714D01*
X155599Y255767D01*
X155654Y255922D01*
X155716Y256074D01*
X155729Y256134D01*
X155749Y256191D01*
X155776Y256353D01*
X155811Y256514D01*
X155816Y256591D01*
X155823Y256635D01*
X155822Y256696D01*
X155830Y256826D01*
X155830Y292999D01*
X155819Y293129D01*
X155817Y293259D01*
X155799Y293352D01*
X155790Y293448D01*
X155756Y293573D01*
X155731Y293701D01*
X155697Y293790D01*
X155672Y293882D01*
X155616Y293999D01*
X155569Y294121D01*
X155519Y294202D01*
X155478Y294289D01*
X155403Y294394D01*
X155335Y294505D01*
X155272Y294577D01*
X155216Y294655D01*
X155123Y294745D01*
X155037Y294843D01*
X154962Y294902D01*
X154893Y294969D01*
X154786Y295041D01*
X154684Y295122D01*
X154599Y295167D01*
X154520Y295221D01*
X154401Y295273D01*
X154287Y295335D01*
X154196Y295364D01*
X154109Y295403D01*
X153982Y295434D01*
X153859Y295474D01*
X153764Y295487D01*
X153671Y295510D01*
X153542Y295518D01*
X153413Y295535D01*
X153317Y295532D01*
X153222Y295537D01*
X153093Y295522D01*
X152963Y295517D01*
X152869Y295496D01*
X152774Y295485D01*
X152650Y295448D01*
X152523Y295419D01*
X152435Y295383D01*
X152343Y295355D01*
X152227Y295296D01*
X152108Y295246D01*
X152027Y295194D01*
X151942Y295151D01*
X151839Y295072D01*
X151729Y295002D01*
X151632Y294915D01*
X151583Y294879D01*
X151553Y294846D01*
X151495Y294795D01*
X151015Y294314D01*
X140704Y294314D01*
X133531Y301487D01*
X133504Y301510D01*
X133482Y301535D01*
X133333Y301653D01*
X133186Y301776D01*
X133155Y301793D01*
X133128Y301815D01*
X132961Y301905D01*
X132795Y301999D01*
X132762Y302011D01*
X132732Y302027D01*
X132550Y302086D01*
X132370Y302150D01*
X132336Y302156D01*
X132303Y302167D01*
X132114Y302193D01*
X131926Y302224D01*
X131892Y302223D01*
X131857Y302228D01*
X131666Y302220D01*
X131476Y302218D01*
X131442Y302211D01*
X131407Y302210D01*
X131221Y302168D01*
X131034Y302132D01*
X131002Y302120D01*
X130968Y302112D01*
X130792Y302038D01*
X130614Y301970D01*
X130584Y301952D01*
X130552Y301938D01*
X130392Y301835D01*
X130229Y301736D01*
X130203Y301713D01*
X130174Y301694D01*
X129940Y301487D01*
X126197Y297744D01*
X125054Y297744D01*
X125054Y306634D01*
X125054Y306635D01*
X125054Y315525D01*
X126197Y315525D01*
X129814Y311909D01*
X129840Y311886D01*
X129863Y311860D01*
X130012Y311743D01*
X130159Y311620D01*
X130189Y311602D01*
X130216Y311581D01*
X130384Y311491D01*
X130550Y311396D01*
X130583Y311385D01*
X130613Y311368D01*
X130794Y311309D01*
X130974Y311246D01*
X131009Y311240D01*
X131041Y311229D01*
X131230Y311203D01*
X131418Y311172D01*
X131453Y311173D01*
X131487Y311168D01*
X131678Y311176D01*
X131869Y311178D01*
X131903Y311185D01*
X131937Y311186D01*
X132123Y311227D01*
X132311Y311264D01*
X132343Y311276D01*
X132377Y311284D01*
X132552Y311357D01*
X132731Y311426D01*
X132760Y311444D01*
X132792Y311457D01*
X132952Y311561D01*
X133115Y311660D01*
X133141Y311683D01*
X133171Y311702D01*
X133405Y311909D01*
X140704Y319208D01*
X151015Y319208D01*
X158306Y311917D01*
X158306Y311019D01*
X158318Y310890D01*
X158319Y310759D01*
X158338Y310666D01*
X158346Y310571D01*
X158380Y310445D01*
X158405Y310317D01*
X158439Y310228D01*
X158465Y310136D01*
X158520Y310019D01*
X158567Y309897D01*
X158617Y309816D01*
X158658Y309730D01*
X158734Y309624D01*
X158801Y309513D01*
X158864Y309441D01*
X158920Y309363D01*
X159013Y309273D01*
X159099Y309175D01*
X159174Y309116D01*
X159243Y309049D01*
X159351Y308976D01*
X159453Y308896D01*
X159537Y308851D01*
X159616Y308797D01*
X159735Y308745D01*
X159849Y308683D01*
X159940Y308654D01*
X160028Y308615D01*
X160154Y308584D01*
X160278Y308544D01*
X160372Y308531D01*
X160465Y308508D01*
X160595Y308500D01*
X160724Y308483D01*
X160819Y308487D01*
X160914Y308481D01*
X161044Y308496D01*
X161174Y308501D01*
X161267Y308522D01*
X161362Y308533D01*
X161486Y308570D01*
X161613Y308599D01*
X161701Y308635D01*
X161793Y308663D01*
X161909Y308722D01*
X162029Y308772D01*
X162109Y308824D01*
X162194Y308867D01*
X162297Y308946D01*
X162407Y309017D01*
X162504Y309103D01*
X162553Y309139D01*
X162583Y309172D01*
X162641Y309223D01*
X206708Y353290D01*
X212353Y358935D01*
X219261Y361797D01*
X321344Y361797D01*
X321379Y361800D01*
X321413Y361798D01*
X321602Y361820D01*
X321793Y361837D01*
X321826Y361846D01*
X321860Y361850D01*
X322043Y361905D01*
X322227Y361955D01*
X322258Y361970D01*
X322291Y361980D01*
X322462Y362067D01*
X322634Y362149D01*
X322662Y362169D01*
X322693Y362184D01*
X322845Y362300D01*
X323000Y362411D01*
X323024Y362436D01*
X323051Y362456D01*
X323180Y362596D01*
X323314Y362733D01*
X323333Y362762D01*
X323357Y362788D01*
X323459Y362949D01*
X323566Y363106D01*
X323580Y363138D01*
X323598Y363167D01*
X323670Y363343D01*
X323748Y363518D01*
X323756Y363552D01*
X323769Y363584D01*
X323809Y363771D01*
X323855Y363956D01*
X323857Y363990D01*
X323864Y364024D01*
X323883Y364336D01*
X323883Y383958D01*
X325971Y389000D01*
X329830Y392859D01*
X334872Y394947D01*
X340328Y394947D01*
X345644Y392745D01*
X345665Y392732D01*
X345721Y392709D01*
X345773Y392679D01*
X345928Y392623D01*
X346081Y392561D01*
X346140Y392548D01*
X346197Y392528D01*
X346360Y392501D01*
X346522Y392466D01*
X346597Y392461D01*
X346641Y392454D01*
X346702Y392455D01*
X346833Y392447D01*
X437014Y392447D01*
X437049Y392450D01*
X437083Y392448D01*
X437272Y392470D01*
X437463Y392487D01*
X437496Y392496D01*
X437530Y392500D01*
X437713Y392555D01*
X437897Y392605D01*
X437928Y392620D01*
X437961Y392630D01*
X438132Y392717D01*
X438304Y392799D01*
X438332Y392819D01*
X438363Y392834D01*
X438515Y392950D01*
X438670Y393061D01*
X438694Y393086D01*
X438721Y393106D01*
X438850Y393246D01*
X438984Y393383D01*
X439003Y393412D01*
X439027Y393438D01*
X439129Y393599D01*
X439236Y393756D01*
X439250Y393788D01*
X439268Y393817D01*
X439341Y393994D01*
X439418Y394168D01*
X439426Y394202D01*
X439439Y394234D01*
X439479Y394421D01*
X439525Y394606D01*
X439527Y394640D01*
X439534Y394674D01*
X439553Y394986D01*
X439553Y396476D01*
X441448Y401050D01*
X457950Y417552D01*
X462524Y419447D01*
X524476Y419447D01*
X529050Y417552D01*
X541952Y404650D01*
X543847Y400076D01*
X543847Y390181D01*
X543861Y390017D01*
X543868Y389853D01*
X543881Y389793D01*
X543887Y389733D01*
X543930Y389574D01*
X543966Y389413D01*
X543989Y389357D01*
X544005Y389298D01*
X544076Y389150D01*
X544139Y388998D01*
X544172Y388946D01*
X544199Y388892D01*
X544294Y388758D01*
X544384Y388620D01*
X544435Y388562D01*
X544461Y388525D01*
X544504Y388483D01*
X544590Y388386D01*
X545879Y387097D01*
X545879Y375103D01*
X536907Y366132D01*
X536824Y366032D01*
X536733Y365939D01*
X536680Y365859D01*
X536619Y365786D01*
X536554Y365673D01*
X536481Y365566D01*
X536443Y365478D01*
X536395Y365395D01*
X536352Y365273D01*
X536299Y365154D01*
X536276Y365061D01*
X536244Y364971D01*
X536223Y364843D01*
X536192Y364716D01*
X536187Y364621D01*
X536171Y364527D01*
X536173Y364397D01*
X536165Y364267D01*
X536176Y364172D01*
X536177Y364076D01*
X536202Y363949D01*
X536217Y363820D01*
X536244Y363728D01*
X536263Y363634D01*
X536309Y363513D01*
X536347Y363389D01*
X536390Y363304D01*
X536425Y363214D01*
X536492Y363103D01*
X536551Y362987D01*
X536609Y362911D01*
X536659Y362830D01*
X536745Y362732D01*
X536823Y362629D01*
X536894Y362564D01*
X536957Y362492D01*
X537059Y362412D01*
X537155Y362323D01*
X537235Y362272D01*
X537310Y362213D01*
X537425Y362152D01*
X537534Y362082D01*
X537623Y362045D01*
X537707Y362000D01*
X537831Y361960D01*
X537951Y361911D01*
X538044Y361891D01*
X538135Y361861D01*
X538264Y361843D01*
X538391Y361816D01*
X538521Y361808D01*
X538581Y361800D01*
X538626Y361801D01*
X538703Y361797D01*
X615263Y361797D01*
X615426Y361811D01*
X615591Y361818D01*
X615650Y361831D01*
X615711Y361837D01*
X615870Y361880D01*
X616031Y361916D01*
X616087Y361939D01*
X616146Y361955D01*
X616294Y362026D01*
X616446Y362089D01*
X616497Y362122D01*
X616552Y362149D01*
X616686Y362244D01*
X616824Y362334D01*
X616882Y362385D01*
X616918Y362411D01*
X616961Y362454D01*
X617058Y362540D01*
X617567Y363049D01*
X617672Y363175D01*
X617784Y363296D01*
X617816Y363347D01*
X617855Y363394D01*
X617937Y363537D01*
X618025Y363676D01*
X618049Y363732D01*
X618079Y363785D01*
X618134Y363940D01*
X618196Y364092D01*
X618209Y364152D01*
X618230Y364209D01*
X618256Y364372D01*
X618291Y364532D01*
X618296Y364609D01*
X618303Y364653D01*
X618302Y364715D01*
X618310Y364844D01*
X618310Y374519D01*
X619238Y376760D01*
X620953Y378475D01*
X623194Y379403D01*
X655060Y379403D01*
X655087Y379406D01*
X655114Y379404D01*
X655310Y379426D01*
X655508Y379443D01*
X655535Y379450D01*
X655562Y379453D01*
X655751Y379510D01*
X655942Y379562D01*
X655967Y379574D01*
X655993Y379581D01*
X656171Y379670D01*
X656349Y379755D01*
X656371Y379771D01*
X656396Y379783D01*
X656555Y379902D01*
X656715Y380017D01*
X656734Y380037D01*
X656756Y380053D01*
X656891Y380198D01*
X657029Y380340D01*
X657045Y380363D01*
X657063Y380383D01*
X657170Y380549D01*
X657281Y380713D01*
X657292Y380738D01*
X657307Y380761D01*
X657383Y380944D01*
X657464Y381125D01*
X657470Y381151D01*
X657481Y381177D01*
X657523Y381370D01*
X657570Y381562D01*
X657572Y381589D01*
X657578Y381616D01*
X657599Y381928D01*
X657678Y395880D01*
X657675Y395922D01*
X657677Y395963D01*
X657656Y396146D01*
X657641Y396329D01*
X657630Y396369D01*
X657625Y396411D01*
X657572Y396587D01*
X657525Y396764D01*
X657507Y396801D01*
X657495Y396842D01*
X657411Y397005D01*
X657334Y397171D01*
X657309Y397206D01*
X657290Y397243D01*
X657179Y397389D01*
X657073Y397539D01*
X657044Y397568D01*
X657018Y397602D01*
X656883Y397726D01*
X656753Y397855D01*
X656718Y397879D01*
X656687Y397907D01*
X656532Y398006D01*
X656381Y398109D01*
X656343Y398126D01*
X656307Y398149D01*
X656138Y398218D01*
X655970Y398294D01*
X655930Y398304D01*
X655891Y398320D01*
X655711Y398358D01*
X655533Y398403D01*
X655492Y398406D01*
X655451Y398414D01*
X655139Y398434D01*
X622642Y398434D01*
X620401Y399362D01*
X618686Y401077D01*
X617758Y403318D01*
X617758Y435743D01*
X618686Y437984D01*
X620401Y439699D01*
X620457Y439722D01*
X620612Y439803D01*
X620770Y439878D01*
X620811Y439907D01*
X620856Y439931D01*
X620994Y440038D01*
X621137Y440139D01*
X621172Y440175D01*
X621212Y440206D01*
X621329Y440336D01*
X621451Y440461D01*
X621480Y440503D01*
X621514Y440541D01*
X621606Y440689D01*
X621704Y440834D01*
X621725Y440880D01*
X621752Y440923D01*
X621817Y441085D01*
X621888Y441245D01*
X621900Y441294D01*
X621919Y441341D01*
X621953Y441512D01*
X621995Y441682D01*
X621999Y441733D01*
X622009Y441782D01*
X622013Y441957D01*
X622024Y442131D01*
X622018Y442182D01*
X622019Y442233D01*
X621993Y442405D01*
X621973Y442579D01*
X621958Y442627D01*
X621951Y442678D01*
X621894Y442843D01*
X621844Y443010D01*
X621821Y443055D01*
X621804Y443103D01*
X621719Y443256D01*
X621640Y443412D01*
X621610Y443452D01*
X621585Y443497D01*
X621474Y443632D01*
X621369Y443771D01*
X621332Y443806D01*
X621300Y443845D01*
X621167Y443958D01*
X621039Y444077D01*
X620996Y444104D01*
X620957Y444137D01*
X620806Y444226D01*
X620659Y444320D01*
X620612Y444339D01*
X620569Y444365D01*
X620405Y444425D01*
X620243Y444492D01*
X620194Y444503D01*
X620146Y444520D01*
X619974Y444550D01*
X619803Y444588D01*
X619740Y444592D01*
X619703Y444598D01*
X619640Y444598D01*
X619491Y444607D01*
X16168Y446010D01*
X16124Y446006D01*
X16080Y446008D01*
X15900Y445986D01*
X15719Y445971D01*
X15677Y445959D01*
X15633Y445954D01*
X15460Y445901D01*
X15284Y445853D01*
X15245Y445835D01*
X15203Y445822D01*
X15042Y445738D01*
X14877Y445661D01*
X14842Y445635D01*
X14803Y445615D01*
X14659Y445505D01*
X14511Y445399D01*
X14480Y445368D01*
X14445Y445342D01*
X14323Y445207D01*
X14196Y445078D01*
X14171Y445041D01*
X14142Y445009D01*
X14045Y444855D01*
X13943Y444705D01*
X13925Y444665D01*
X13902Y444628D01*
X13834Y444460D01*
X13760Y444294D01*
X13749Y444251D01*
X13733Y444211D01*
X13695Y444033D01*
X13652Y443857D01*
X13649Y443813D01*
X13640Y443770D01*
X13623Y443458D01*
X14636Y234098D01*
X14647Y233975D01*
X14649Y233851D01*
X14668Y233751D01*
X14678Y233649D01*
X14711Y233530D01*
X14734Y233408D01*
X14771Y233314D01*
X14798Y233216D01*
X14852Y233104D01*
X14897Y232988D01*
X14950Y232902D01*
X14994Y232810D01*
X15066Y232710D01*
X15131Y232604D01*
X15198Y232528D01*
X15258Y232445D01*
X15347Y232359D01*
X15429Y232266D01*
X15509Y232203D01*
X15582Y232133D01*
X15685Y232064D01*
X15782Y231987D01*
X15871Y231939D01*
X15956Y231882D01*
X16070Y231833D01*
X16179Y231774D01*
X16276Y231743D01*
X16369Y231702D01*
X16489Y231673D01*
X16607Y231635D01*
X16708Y231621D01*
X16807Y231598D01*
X16930Y231591D01*
X17053Y231574D01*
X17155Y231578D01*
X17256Y231572D01*
X17379Y231587D01*
X17503Y231592D01*
X17602Y231614D01*
X17703Y231626D01*
X17822Y231663D01*
X17943Y231690D01*
X18036Y231729D01*
X18134Y231759D01*
X18244Y231815D01*
X18358Y231863D01*
X18444Y231919D01*
X18534Y231965D01*
X18632Y232040D01*
X18736Y232108D01*
X18842Y232201D01*
X18891Y232239D01*
X18919Y232269D01*
X18970Y232315D01*
X24953Y238297D01*
X37293Y238297D01*
X37423Y238308D01*
X37553Y238310D01*
X37647Y238328D01*
X37742Y238337D01*
X37868Y238371D01*
X37995Y238396D01*
X38084Y238430D01*
X38176Y238455D01*
X38294Y238511D01*
X38415Y238558D01*
X38497Y238608D01*
X38583Y238649D01*
X38689Y238724D01*
X38800Y238792D01*
X38871Y238855D01*
X38949Y238911D01*
X39040Y239004D01*
X39137Y239090D01*
X39196Y239165D01*
X39263Y239233D01*
X39336Y239341D01*
X39417Y239443D01*
X39462Y239527D01*
X39515Y239607D01*
X39568Y239726D01*
X39629Y239840D01*
X39659Y239931D01*
X39697Y240018D01*
X39728Y240145D01*
X39768Y240268D01*
X39781Y240363D01*
X39804Y240456D01*
X39812Y240585D01*
X39830Y240714D01*
X39826Y240810D01*
X39832Y240905D01*
X39817Y241034D01*
X39811Y241164D01*
X39791Y241258D01*
X39780Y241352D01*
X39742Y241477D01*
X39714Y241604D01*
X39677Y241692D01*
X39649Y241783D01*
X39590Y241899D01*
X39540Y242019D01*
X39488Y242099D01*
X39445Y242185D01*
X39367Y242288D01*
X39296Y242397D01*
X39210Y242495D01*
X39173Y242543D01*
X39140Y242574D01*
X39089Y242632D01*
X37139Y244582D01*
X35437Y248690D01*
X35437Y297657D01*
X35423Y297821D01*
X35416Y297986D01*
X35403Y298045D01*
X35398Y298106D01*
X35354Y298265D01*
X35319Y298425D01*
X35295Y298481D01*
X35279Y298540D01*
X35208Y298689D01*
X35145Y298841D01*
X35112Y298892D01*
X35086Y298947D01*
X34990Y299080D01*
X34901Y299219D01*
X34850Y299277D01*
X34823Y299313D01*
X34780Y299355D01*
X34694Y299453D01*
X34167Y299979D01*
X34167Y310290D01*
X41459Y317581D01*
X51770Y317581D01*
X56428Y312923D01*
X56455Y312901D01*
X56478Y312875D01*
X56627Y312757D01*
X56773Y312634D01*
X56804Y312617D01*
X56831Y312596D01*
X56999Y312506D01*
X57164Y312411D01*
X57197Y312399D01*
X57228Y312383D01*
X57409Y312324D01*
X57589Y312260D01*
X57623Y312254D01*
X57656Y312244D01*
X57844Y312218D01*
X58033Y312187D01*
X58068Y312187D01*
X58102Y312182D01*
X58292Y312190D01*
X58483Y312193D01*
X58517Y312199D01*
X58552Y312201D01*
X58738Y312242D01*
X58925Y312278D01*
X58958Y312291D01*
X58991Y312298D01*
X59167Y312372D01*
X59345Y312440D01*
X59375Y312459D01*
X59407Y312472D01*
X59567Y312575D01*
X59730Y312674D01*
X59756Y312697D01*
X59785Y312716D01*
X60019Y312923D01*
X64804Y317708D01*
X75115Y317708D01*
X82406Y310417D01*
X82406Y300105D01*
X81880Y299579D01*
X81774Y299453D01*
X81663Y299332D01*
X81630Y299281D01*
X81591Y299234D01*
X81509Y299091D01*
X81421Y298952D01*
X81398Y298896D01*
X81368Y298843D01*
X81313Y298688D01*
X81250Y298536D01*
X81237Y298476D01*
X81217Y298419D01*
X81190Y298256D01*
X81155Y298096D01*
X81151Y298019D01*
X81143Y297974D01*
X81144Y297913D01*
X81136Y297784D01*
X81136Y276149D01*
X81151Y275985D01*
X81157Y275821D01*
X81171Y275761D01*
X81176Y275700D01*
X81219Y275541D01*
X81255Y275381D01*
X81279Y275325D01*
X81295Y275266D01*
X81365Y275118D01*
X81429Y274966D01*
X81462Y274914D01*
X81488Y274859D01*
X81584Y274726D01*
X81673Y274587D01*
X81724Y274530D01*
X81750Y274493D01*
X81794Y274451D01*
X81880Y274353D01*
X149193Y207041D01*
X149319Y206935D01*
X149440Y206824D01*
X149491Y206791D01*
X149538Y206752D01*
X149681Y206670D01*
X149819Y206582D01*
X149876Y206559D01*
X149929Y206528D01*
X150084Y206473D01*
X150236Y206411D01*
X150296Y206398D01*
X150353Y206378D01*
X150516Y206351D01*
X150676Y206316D01*
X150753Y206311D01*
X150797Y206304D01*
X150858Y206305D01*
X150988Y206297D01*
X160430Y206297D01*
X171324Y195403D01*
X171324Y181935D01*
X171338Y181771D01*
X171345Y181606D01*
X171358Y181547D01*
X171363Y181486D01*
X171407Y181327D01*
X171442Y181167D01*
X171466Y181111D01*
X171482Y181052D01*
X171552Y180904D01*
X171616Y180751D01*
X171649Y180700D01*
X171675Y180645D01*
X171771Y180512D01*
X171860Y180373D01*
X171911Y180315D01*
X171937Y180279D01*
X171981Y180236D01*
X172067Y180139D01*
X200296Y151910D01*
X200459Y151774D01*
X200620Y151637D01*
X200631Y151630D01*
X200641Y151622D01*
X200825Y151516D01*
X201008Y151409D01*
X201021Y151405D01*
X201032Y151398D01*
X201232Y151327D01*
X201431Y151254D01*
X201444Y151252D01*
X201456Y151247D01*
X201667Y151213D01*
X201874Y151176D01*
X201888Y151176D01*
X201901Y151174D01*
X202114Y151177D01*
G37*
G36*
X503776Y65048D02*
X503776Y65048D01*
X503940Y65055D01*
X504000Y65068D01*
X504061Y65073D01*
X504220Y65117D01*
X504380Y65152D01*
X504436Y65176D01*
X504495Y65192D01*
X504643Y65262D01*
X504795Y65326D01*
X504847Y65359D01*
X504902Y65385D01*
X505035Y65481D01*
X505174Y65570D01*
X505231Y65621D01*
X505268Y65647D01*
X505292Y65672D01*
X505294Y65674D01*
X505316Y65696D01*
X505408Y65777D01*
X507972Y68342D01*
X508067Y68455D01*
X508146Y68536D01*
X508186Y68595D01*
X508246Y68666D01*
X508253Y68677D01*
X508261Y68687D01*
X508334Y68814D01*
X508398Y68909D01*
X508427Y68975D01*
X508473Y69054D01*
X508478Y69067D01*
X508485Y69078D01*
X508533Y69214D01*
X508580Y69321D01*
X508598Y69392D01*
X508629Y69477D01*
X508631Y69490D01*
X508635Y69502D01*
X508658Y69642D01*
X508687Y69758D01*
X508691Y69833D01*
X508707Y69920D01*
X508707Y69934D01*
X508709Y69947D01*
X508707Y70085D01*
X508715Y70208D01*
X508706Y70285D01*
X508705Y70371D01*
X508703Y70383D01*
X508703Y70397D01*
X508677Y70530D01*
X508662Y70655D01*
X508639Y70731D01*
X508624Y70813D01*
X508619Y70828D01*
X508617Y70839D01*
X508603Y70875D01*
X508543Y71050D01*
X508532Y71086D01*
X508528Y71095D01*
X508523Y71109D01*
X507703Y73087D01*
X507703Y92513D01*
X508631Y94754D01*
X510346Y96469D01*
X512587Y97397D01*
X533013Y97397D01*
X535698Y96284D01*
X535902Y96220D01*
X536102Y96155D01*
X536115Y96154D01*
X536128Y96150D01*
X536339Y96123D01*
X536548Y96094D01*
X536561Y96095D01*
X536574Y96093D01*
X536785Y96104D01*
X536998Y96112D01*
X537011Y96115D01*
X537024Y96116D01*
X537230Y96164D01*
X537438Y96210D01*
X537450Y96215D01*
X537463Y96218D01*
X537657Y96302D01*
X537853Y96384D01*
X537864Y96391D01*
X537876Y96396D01*
X538053Y96513D01*
X538231Y96628D01*
X538243Y96638D01*
X538252Y96644D01*
X538280Y96671D01*
X538465Y96835D01*
X566167Y124536D01*
X566251Y124636D01*
X566341Y124729D01*
X566395Y124809D01*
X566456Y124882D01*
X566520Y124995D01*
X566593Y125102D01*
X566632Y125190D01*
X566679Y125273D01*
X566723Y125395D01*
X566776Y125514D01*
X566798Y125607D01*
X566830Y125697D01*
X566851Y125826D01*
X566882Y125952D01*
X566888Y126047D01*
X566904Y126141D01*
X566902Y126272D01*
X566910Y126401D01*
X566899Y126496D01*
X566898Y126592D01*
X566873Y126719D01*
X566858Y126848D01*
X566830Y126940D01*
X566812Y127034D01*
X566765Y127155D01*
X566727Y127279D01*
X566684Y127364D01*
X566650Y127454D01*
X566582Y127565D01*
X566523Y127681D01*
X566465Y127757D01*
X566416Y127838D01*
X566330Y127936D01*
X566251Y128039D01*
X566181Y128104D01*
X566118Y128176D01*
X566016Y128256D01*
X565920Y128345D01*
X565839Y128396D01*
X565764Y128455D01*
X565650Y128516D01*
X565540Y128586D01*
X565452Y128623D01*
X565368Y128668D01*
X565244Y128708D01*
X565124Y128757D01*
X565030Y128777D01*
X564939Y128807D01*
X564811Y128825D01*
X564683Y128852D01*
X564554Y128860D01*
X564493Y128868D01*
X564448Y128867D01*
X564372Y128871D01*
X561786Y128871D01*
X559916Y129646D01*
X559804Y129681D01*
X559696Y129725D01*
X559590Y129748D01*
X559486Y129781D01*
X559370Y129795D01*
X559256Y129820D01*
X559102Y129830D01*
X559040Y129837D01*
X559003Y129836D01*
X558944Y129839D01*
X557136Y129839D01*
X557101Y129836D01*
X557067Y129838D01*
X556878Y129816D01*
X556687Y129799D01*
X556654Y129790D01*
X556620Y129786D01*
X556437Y129731D01*
X556253Y129681D01*
X556222Y129666D01*
X556189Y129656D01*
X556018Y129569D01*
X555846Y129487D01*
X555818Y129467D01*
X555787Y129452D01*
X555635Y129336D01*
X555480Y129225D01*
X555456Y129200D01*
X555429Y129180D01*
X555300Y129040D01*
X555166Y128903D01*
X555147Y128874D01*
X555123Y128848D01*
X555021Y128687D01*
X554914Y128530D01*
X554900Y128498D01*
X554882Y128469D01*
X554809Y128292D01*
X554732Y128118D01*
X554724Y128084D01*
X554711Y128052D01*
X554671Y127865D01*
X554625Y127680D01*
X554623Y127646D01*
X554616Y127612D01*
X554597Y127300D01*
X554597Y124287D01*
X553669Y122046D01*
X551954Y120331D01*
X549713Y119403D01*
X530287Y119403D01*
X528046Y120331D01*
X526331Y122046D01*
X525403Y124287D01*
X525403Y132676D01*
X525389Y132839D01*
X525382Y133004D01*
X525369Y133063D01*
X525363Y133124D01*
X525320Y133283D01*
X525284Y133443D01*
X525261Y133500D01*
X525245Y133558D01*
X525174Y133706D01*
X525111Y133859D01*
X525078Y133910D01*
X525051Y133965D01*
X524956Y134098D01*
X524866Y134237D01*
X524815Y134295D01*
X524789Y134331D01*
X524746Y134374D01*
X524660Y134471D01*
X515471Y143660D01*
X515345Y143765D01*
X515224Y143877D01*
X515173Y143909D01*
X515126Y143948D01*
X514983Y144030D01*
X514844Y144118D01*
X514788Y144142D01*
X514735Y144172D01*
X514580Y144227D01*
X514428Y144289D01*
X514368Y144302D01*
X514310Y144323D01*
X514148Y144349D01*
X513987Y144384D01*
X513910Y144389D01*
X513866Y144396D01*
X513805Y144395D01*
X513676Y144403D01*
X511287Y144403D01*
X509972Y144948D01*
X509815Y144997D01*
X509660Y145054D01*
X509600Y145065D01*
X509542Y145083D01*
X509379Y145104D01*
X509217Y145132D01*
X509156Y145132D01*
X509095Y145140D01*
X508931Y145131D01*
X508767Y145131D01*
X508707Y145120D01*
X508646Y145117D01*
X508486Y145079D01*
X508324Y145050D01*
X508251Y145025D01*
X508207Y145015D01*
X508152Y144991D01*
X508028Y144948D01*
X506713Y144403D01*
X494287Y144403D01*
X492046Y145331D01*
X490331Y147046D01*
X489403Y149287D01*
X489403Y162713D01*
X489865Y163828D01*
X489890Y163907D01*
X489923Y163982D01*
X489957Y164121D01*
X490000Y164258D01*
X490011Y164340D01*
X490030Y164420D01*
X490039Y164562D01*
X490057Y164705D01*
X490053Y164787D01*
X490058Y164869D01*
X490041Y165011D01*
X490034Y165154D01*
X490015Y165234D01*
X490006Y165316D01*
X489964Y165454D01*
X489932Y165593D01*
X489899Y165668D01*
X489875Y165747D01*
X489810Y165875D01*
X489754Y166006D01*
X489708Y166075D01*
X489671Y166149D01*
X489584Y166263D01*
X489506Y166382D01*
X489449Y166442D01*
X489399Y166507D01*
X489294Y166604D01*
X489195Y166708D01*
X489128Y166757D01*
X489068Y166813D01*
X488947Y166890D01*
X488832Y166974D01*
X488758Y167010D01*
X488688Y167054D01*
X488556Y167109D01*
X488427Y167172D01*
X488348Y167194D01*
X488271Y167225D01*
X488132Y167255D01*
X487994Y167295D01*
X487912Y167303D01*
X487831Y167320D01*
X487585Y167335D01*
X487546Y167339D01*
X487535Y167338D01*
X487519Y167339D01*
X485013Y167339D01*
X484849Y167325D01*
X484685Y167318D01*
X484625Y167305D01*
X484565Y167299D01*
X484406Y167256D01*
X484245Y167220D01*
X484189Y167197D01*
X484130Y167181D01*
X483982Y167110D01*
X483830Y167047D01*
X483778Y167014D01*
X483724Y166987D01*
X483590Y166892D01*
X483452Y166802D01*
X483394Y166751D01*
X483358Y166725D01*
X483315Y166682D01*
X483218Y166596D01*
X482841Y166219D01*
X482704Y166055D01*
X482567Y165895D01*
X482561Y165884D01*
X482552Y165874D01*
X482447Y165690D01*
X482340Y165507D01*
X482335Y165494D01*
X482329Y165483D01*
X482258Y165284D01*
X482185Y165084D01*
X482182Y165071D01*
X482178Y165058D01*
X482143Y164849D01*
X482107Y164640D01*
X482107Y164627D01*
X482104Y164614D01*
X482107Y164400D01*
X482108Y164190D01*
X482110Y164177D01*
X482111Y164164D01*
X482151Y163955D01*
X482189Y163747D01*
X482194Y163732D01*
X482196Y163722D01*
X482211Y163685D01*
X482291Y163452D01*
X482597Y162713D01*
X482597Y149287D01*
X481669Y147046D01*
X479954Y145331D01*
X477713Y144403D01*
X465287Y144403D01*
X463972Y144948D01*
X463815Y144997D01*
X463660Y145054D01*
X463600Y145065D01*
X463542Y145083D01*
X463379Y145104D01*
X463217Y145132D01*
X463156Y145132D01*
X463095Y145140D01*
X462931Y145131D01*
X462767Y145131D01*
X462707Y145120D01*
X462646Y145117D01*
X462486Y145079D01*
X462324Y145050D01*
X462251Y145025D01*
X462207Y145015D01*
X462152Y144991D01*
X462028Y144948D01*
X460713Y144403D01*
X448287Y144403D01*
X445955Y145369D01*
X445937Y145384D01*
X445794Y145466D01*
X445656Y145554D01*
X445599Y145577D01*
X445546Y145608D01*
X445391Y145663D01*
X445239Y145725D01*
X445179Y145738D01*
X445122Y145759D01*
X444960Y145785D01*
X444799Y145820D01*
X444722Y145825D01*
X444678Y145832D01*
X444617Y145831D01*
X444487Y145839D01*
X428479Y145839D01*
X427584Y146210D01*
X427472Y146245D01*
X427364Y146289D01*
X427258Y146312D01*
X427154Y146345D01*
X427038Y146359D01*
X426924Y146384D01*
X426770Y146394D01*
X426708Y146401D01*
X426671Y146400D01*
X426612Y146403D01*
X415287Y146403D01*
X413046Y147331D01*
X411331Y149046D01*
X410403Y151287D01*
X410403Y170713D01*
X411331Y172954D01*
X413046Y174669D01*
X415287Y175597D01*
X435713Y175597D01*
X437953Y174669D01*
X438068Y174554D01*
X438168Y174470D01*
X438261Y174379D01*
X438341Y174326D01*
X438414Y174265D01*
X438527Y174200D01*
X438634Y174127D01*
X438722Y174089D01*
X438805Y174041D01*
X438927Y173998D01*
X439046Y173945D01*
X439139Y173922D01*
X439229Y173891D01*
X439357Y173869D01*
X439484Y173838D01*
X439579Y173833D01*
X439673Y173817D01*
X439803Y173819D01*
X439933Y173811D01*
X440028Y173822D01*
X440123Y173823D01*
X440251Y173848D01*
X440380Y173863D01*
X440472Y173891D01*
X440566Y173909D01*
X440687Y173955D01*
X440811Y173993D01*
X440897Y174037D01*
X440986Y174071D01*
X441097Y174138D01*
X441213Y174198D01*
X441289Y174255D01*
X441370Y174305D01*
X441468Y174391D01*
X441571Y174470D01*
X441636Y174540D01*
X441708Y174603D01*
X441788Y174705D01*
X441877Y174801D01*
X441928Y174881D01*
X441987Y174956D01*
X442049Y175071D01*
X442118Y175180D01*
X442155Y175269D01*
X442200Y175353D01*
X442240Y175477D01*
X442289Y175597D01*
X442309Y175690D01*
X442339Y175781D01*
X442357Y175910D01*
X442384Y176037D01*
X442392Y176167D01*
X442400Y176227D01*
X442399Y176272D01*
X442403Y176349D01*
X442403Y180713D01*
X443331Y182954D01*
X445216Y184838D01*
X445321Y184964D01*
X445433Y185085D01*
X445465Y185136D01*
X445504Y185183D01*
X445586Y185326D01*
X445674Y185464D01*
X445698Y185521D01*
X445728Y185574D01*
X445783Y185729D01*
X445845Y185881D01*
X445858Y185941D01*
X445879Y185998D01*
X445905Y186161D01*
X445940Y186321D01*
X445945Y186398D01*
X445952Y186442D01*
X445951Y186504D01*
X445959Y186633D01*
X445959Y188961D01*
X454000Y188961D01*
X454034Y188964D01*
X454069Y188962D01*
X454258Y188984D01*
X454448Y189000D01*
X454482Y189010D01*
X454516Y189014D01*
X454699Y189069D01*
X454883Y189119D01*
X454914Y189134D01*
X454947Y189144D01*
X455118Y189231D01*
X455289Y189312D01*
X455317Y189333D01*
X455348Y189348D01*
X455500Y189463D01*
X455655Y189575D01*
X455679Y189599D01*
X455707Y189620D01*
X455707Y189621D01*
X455836Y189760D01*
X455969Y189897D01*
X455970Y189898D01*
X455989Y189926D01*
X456013Y189952D01*
X456115Y190113D01*
X456222Y190271D01*
X456236Y190302D01*
X456254Y190332D01*
X456327Y190508D01*
X456404Y190683D01*
X456412Y190716D01*
X456425Y190748D01*
X456466Y190935D01*
X456511Y191120D01*
X456513Y191154D01*
X456520Y191188D01*
X456539Y191500D01*
X456539Y199041D01*
X459835Y199041D01*
X460481Y198868D01*
X461060Y198533D01*
X461462Y198132D01*
X461480Y198116D01*
X461496Y198098D01*
X461653Y197972D01*
X461807Y197843D01*
X461828Y197831D01*
X461846Y197816D01*
X462024Y197719D01*
X462198Y197619D01*
X462220Y197611D01*
X462241Y197600D01*
X462433Y197536D01*
X462622Y197468D01*
X462646Y197465D01*
X462668Y197457D01*
X462868Y197428D01*
X463066Y197395D01*
X463090Y197395D01*
X463114Y197392D01*
X463315Y197398D01*
X463517Y197401D01*
X463540Y197406D01*
X463564Y197406D01*
X463761Y197448D01*
X463959Y197487D01*
X463981Y197495D01*
X464004Y197500D01*
X464191Y197576D01*
X464379Y197649D01*
X464399Y197661D01*
X464421Y197670D01*
X464591Y197778D01*
X464763Y197883D01*
X464781Y197899D01*
X464801Y197911D01*
X464950Y198047D01*
X465101Y198181D01*
X465116Y198200D01*
X465133Y198216D01*
X465255Y198376D01*
X465380Y198534D01*
X465391Y198555D01*
X465406Y198574D01*
X465471Y198701D01*
X465967Y199560D01*
X466440Y200033D01*
X467019Y200368D01*
X467665Y200541D01*
X470461Y200541D01*
X470461Y192500D01*
X470464Y192466D01*
X470462Y192431D01*
X470484Y192242D01*
X470500Y192052D01*
X470510Y192018D01*
X470514Y191984D01*
X470569Y191801D01*
X470619Y191617D01*
X470634Y191586D01*
X470644Y191553D01*
X470731Y191382D01*
X470812Y191211D01*
X470833Y191183D01*
X470848Y191152D01*
X470963Y191000D01*
X471075Y190845D01*
X471075Y190844D01*
X471099Y190820D01*
X471120Y190793D01*
X471121Y190793D01*
X471121Y190792D01*
X471261Y190663D01*
X471398Y190530D01*
X471426Y190511D01*
X471452Y190487D01*
X471613Y190385D01*
X471771Y190278D01*
X471802Y190264D01*
X471832Y190245D01*
X472008Y190173D01*
X472183Y190096D01*
X472216Y190088D01*
X472248Y190075D01*
X472435Y190034D01*
X472620Y189989D01*
X472654Y189987D01*
X472688Y189980D01*
X473000Y189961D01*
X480562Y189961D01*
X480564Y189942D01*
X480581Y189751D01*
X480590Y189718D01*
X480594Y189684D01*
X480649Y189501D01*
X480699Y189317D01*
X480714Y189286D01*
X480724Y189253D01*
X480811Y189082D01*
X480893Y188910D01*
X480913Y188882D01*
X480928Y188851D01*
X481044Y188699D01*
X481155Y188544D01*
X481180Y188520D01*
X481200Y188493D01*
X481340Y188364D01*
X481477Y188230D01*
X481506Y188211D01*
X481532Y188187D01*
X481693Y188085D01*
X481850Y187978D01*
X481882Y187964D01*
X481911Y187946D01*
X482088Y187873D01*
X482262Y187796D01*
X482296Y187788D01*
X482328Y187775D01*
X482515Y187735D01*
X482700Y187689D01*
X482734Y187687D01*
X482768Y187680D01*
X483080Y187661D01*
X484962Y187661D01*
X484985Y187663D01*
X485008Y187661D01*
X485209Y187683D01*
X485411Y187701D01*
X485433Y187707D01*
X485456Y187709D01*
X485650Y187766D01*
X485845Y187819D01*
X485866Y187829D01*
X485888Y187836D01*
X486070Y187926D01*
X486252Y188013D01*
X486270Y188026D01*
X486291Y188036D01*
X486454Y188157D01*
X486618Y188275D01*
X486634Y188291D01*
X486652Y188305D01*
X486790Y188452D01*
X486932Y188597D01*
X486945Y188617D01*
X486960Y188633D01*
X487071Y188803D01*
X487184Y188970D01*
X487193Y188991D01*
X487206Y189011D01*
X487284Y189197D01*
X487366Y189382D01*
X487371Y189405D01*
X487380Y189426D01*
X487425Y189623D01*
X487473Y189820D01*
X487474Y189843D01*
X487479Y189865D01*
X487488Y190068D01*
X487500Y190269D01*
X487498Y190292D01*
X487499Y190315D01*
X487472Y190515D01*
X487448Y190716D01*
X487442Y190738D01*
X487438Y190761D01*
X487377Y190954D01*
X487318Y191147D01*
X487308Y191168D01*
X487300Y191190D01*
X487161Y191470D01*
X487132Y191519D01*
X486959Y192165D01*
X486959Y193961D01*
X494000Y193961D01*
X494034Y193964D01*
X494069Y193962D01*
X494258Y193984D01*
X494448Y194000D01*
X494482Y194010D01*
X494516Y194014D01*
X494699Y194069D01*
X494883Y194119D01*
X494914Y194134D01*
X494947Y194144D01*
X495118Y194231D01*
X495289Y194312D01*
X495317Y194333D01*
X495348Y194348D01*
X495500Y194463D01*
X495655Y194575D01*
X495679Y194599D01*
X495707Y194620D01*
X495707Y194621D01*
X495836Y194760D01*
X495969Y194897D01*
X495970Y194898D01*
X495989Y194926D01*
X496013Y194952D01*
X496115Y195113D01*
X496222Y195271D01*
X496236Y195302D01*
X496254Y195332D01*
X496327Y195508D01*
X496404Y195683D01*
X496412Y195716D01*
X496425Y195748D01*
X496466Y195935D01*
X496511Y196120D01*
X496513Y196154D01*
X496520Y196188D01*
X496539Y196500D01*
X496539Y203041D01*
X498835Y203041D01*
X499481Y202868D01*
X500060Y202533D01*
X500533Y202060D01*
X500868Y201481D01*
X501041Y200835D01*
X501041Y197293D01*
X501052Y197163D01*
X501054Y197034D01*
X501072Y196940D01*
X501081Y196845D01*
X501115Y196719D01*
X501140Y196591D01*
X501174Y196502D01*
X501199Y196410D01*
X501255Y196293D01*
X501302Y196171D01*
X501352Y196090D01*
X501393Y196004D01*
X501468Y195898D01*
X501536Y195787D01*
X501599Y195715D01*
X501655Y195637D01*
X501748Y195547D01*
X501834Y195449D01*
X501909Y195390D01*
X501977Y195323D01*
X502085Y195251D01*
X502187Y195170D01*
X502271Y195125D01*
X502350Y195071D01*
X502469Y195019D01*
X502584Y194957D01*
X502675Y194928D01*
X502762Y194889D01*
X502889Y194858D01*
X503012Y194818D01*
X503107Y194805D01*
X503200Y194782D01*
X503329Y194774D01*
X503458Y194757D01*
X503554Y194761D01*
X503649Y194755D01*
X503778Y194770D01*
X503908Y194775D01*
X504001Y194796D01*
X504096Y194807D01*
X504221Y194845D01*
X504348Y194873D01*
X504436Y194909D01*
X504527Y194937D01*
X504643Y194996D01*
X504763Y195046D01*
X504843Y195098D01*
X504929Y195142D01*
X505032Y195220D01*
X505141Y195291D01*
X505239Y195377D01*
X505287Y195414D01*
X505318Y195446D01*
X505376Y195498D01*
X506047Y196169D01*
X508287Y197097D01*
X511319Y197097D01*
X511436Y197107D01*
X511553Y197107D01*
X511659Y197127D01*
X511768Y197137D01*
X511856Y197161D01*
X516121Y197161D01*
X516139Y197155D01*
X516254Y197141D01*
X516369Y197116D01*
X516523Y197106D01*
X516585Y197099D01*
X516622Y197100D01*
X516681Y197097D01*
X519713Y197097D01*
X521954Y196169D01*
X523669Y194454D01*
X524597Y192213D01*
X524597Y192040D01*
X524604Y191958D01*
X524602Y191875D01*
X524624Y191734D01*
X524637Y191591D01*
X524658Y191512D01*
X524671Y191430D01*
X524717Y191295D01*
X524755Y191157D01*
X524790Y191083D01*
X524817Y191005D01*
X524887Y190879D01*
X524949Y190750D01*
X524996Y190683D01*
X525037Y190611D01*
X525127Y190501D01*
X525211Y190384D01*
X525270Y190327D01*
X525322Y190263D01*
X525431Y190170D01*
X525533Y190070D01*
X525602Y190024D01*
X525664Y189971D01*
X525788Y189898D01*
X525906Y189818D01*
X525982Y189785D01*
X526053Y189743D01*
X526187Y189694D01*
X526318Y189636D01*
X526398Y189616D01*
X526476Y189588D01*
X526617Y189563D01*
X526756Y189529D01*
X526838Y189524D01*
X526919Y189510D01*
X527062Y189510D01*
X527205Y189502D01*
X527287Y189511D01*
X527369Y189511D01*
X527510Y189537D01*
X527652Y189554D01*
X527731Y189577D01*
X527812Y189592D01*
X528045Y189672D01*
X528083Y189684D01*
X528093Y189689D01*
X528108Y189694D01*
X530287Y190597D01*
X539676Y190597D01*
X539839Y190611D01*
X540004Y190618D01*
X540063Y190631D01*
X540124Y190637D01*
X540283Y190680D01*
X540443Y190716D01*
X540500Y190739D01*
X540558Y190755D01*
X540706Y190826D01*
X540859Y190889D01*
X540910Y190922D01*
X540965Y190949D01*
X541098Y191044D01*
X541237Y191134D01*
X541295Y191185D01*
X541331Y191211D01*
X541374Y191254D01*
X541471Y191340D01*
X552096Y201965D01*
X552201Y202091D01*
X552313Y202212D01*
X552345Y202264D01*
X552384Y202310D01*
X552466Y202453D01*
X552554Y202592D01*
X552578Y202648D01*
X552608Y202701D01*
X552663Y202856D01*
X552725Y203008D01*
X552738Y203068D01*
X552759Y203126D01*
X552785Y203288D01*
X552820Y203449D01*
X552825Y203526D01*
X552832Y203570D01*
X552831Y203631D01*
X552839Y203761D01*
X552839Y213435D01*
X552836Y213470D01*
X552838Y213504D01*
X552816Y213694D01*
X552799Y213884D01*
X552790Y213917D01*
X552786Y213952D01*
X552731Y214135D01*
X552681Y214318D01*
X552666Y214349D01*
X552656Y214383D01*
X552569Y214553D01*
X552487Y214725D01*
X552467Y214753D01*
X552452Y214784D01*
X552336Y214936D01*
X552225Y215091D01*
X552200Y215115D01*
X552180Y215143D01*
X552040Y215272D01*
X551903Y215405D01*
X551874Y215424D01*
X551848Y215448D01*
X551687Y215550D01*
X551530Y215657D01*
X551498Y215671D01*
X551469Y215690D01*
X551292Y215762D01*
X551118Y215839D01*
X551084Y215847D01*
X551052Y215861D01*
X550865Y215901D01*
X550680Y215946D01*
X550646Y215948D01*
X550612Y215955D01*
X550300Y215975D01*
X550125Y215975D01*
X550125Y224865D01*
X550125Y224866D01*
X550125Y233756D01*
X550300Y233756D01*
X550335Y233759D01*
X550369Y233757D01*
X550558Y233779D01*
X550749Y233796D01*
X550782Y233805D01*
X550816Y233809D01*
X550999Y233864D01*
X551183Y233914D01*
X551214Y233929D01*
X551247Y233939D01*
X551418Y234026D01*
X551590Y234108D01*
X551618Y234128D01*
X551649Y234144D01*
X551801Y234259D01*
X551956Y234370D01*
X551980Y234395D01*
X552007Y234416D01*
X552136Y234556D01*
X552270Y234693D01*
X552289Y234721D01*
X552313Y234747D01*
X552415Y234908D01*
X552522Y235066D01*
X552536Y235097D01*
X552554Y235127D01*
X552627Y235303D01*
X552704Y235477D01*
X552712Y235511D01*
X552725Y235543D01*
X552765Y235730D01*
X552811Y235915D01*
X552813Y235949D01*
X552820Y235983D01*
X552839Y236295D01*
X552839Y283921D01*
X554386Y287655D01*
X557602Y290871D01*
X586600Y319868D01*
X586683Y319968D01*
X586774Y320061D01*
X586827Y320141D01*
X586888Y320214D01*
X586953Y320327D01*
X587026Y320434D01*
X587064Y320522D01*
X587112Y320605D01*
X587155Y320727D01*
X587208Y320846D01*
X587231Y320939D01*
X587263Y321029D01*
X587284Y321158D01*
X587315Y321284D01*
X587320Y321379D01*
X587336Y321473D01*
X587334Y321604D01*
X587342Y321733D01*
X587331Y321828D01*
X587330Y321924D01*
X587305Y322051D01*
X587290Y322180D01*
X587263Y322272D01*
X587244Y322366D01*
X587198Y322487D01*
X587160Y322611D01*
X587117Y322696D01*
X587082Y322786D01*
X587015Y322897D01*
X586956Y323013D01*
X586898Y323089D01*
X586848Y323170D01*
X586762Y323268D01*
X586684Y323371D01*
X586613Y323436D01*
X586550Y323508D01*
X586448Y323588D01*
X586352Y323677D01*
X586272Y323728D01*
X586197Y323787D01*
X586082Y323848D01*
X585973Y323918D01*
X585884Y323955D01*
X585800Y324000D01*
X585676Y324040D01*
X585556Y324089D01*
X585463Y324109D01*
X585372Y324139D01*
X585243Y324157D01*
X585116Y324184D01*
X584986Y324192D01*
X584926Y324200D01*
X584881Y324199D01*
X584804Y324203D01*
X513207Y324203D01*
X513125Y324196D01*
X513043Y324198D01*
X512902Y324176D01*
X512759Y324163D01*
X512679Y324142D01*
X512598Y324129D01*
X512462Y324083D01*
X512324Y324045D01*
X512250Y324009D01*
X512172Y323983D01*
X512047Y323913D01*
X511918Y323851D01*
X511851Y323804D01*
X511779Y323763D01*
X511668Y323673D01*
X511551Y323589D01*
X511494Y323530D01*
X511430Y323478D01*
X511337Y323369D01*
X511237Y323267D01*
X511191Y323198D01*
X511138Y323136D01*
X511065Y323012D01*
X510985Y322894D01*
X510952Y322818D01*
X510910Y322747D01*
X510861Y322613D01*
X510803Y322482D01*
X510784Y322402D01*
X510755Y322324D01*
X510730Y322183D01*
X510696Y322044D01*
X510691Y321962D01*
X510677Y321881D01*
X510678Y321738D01*
X510669Y321595D01*
X510678Y321513D01*
X510679Y321431D01*
X510704Y321290D01*
X510721Y321148D01*
X510745Y321069D01*
X510759Y320988D01*
X510840Y320754D01*
X510851Y320717D01*
X510856Y320707D01*
X510861Y320692D01*
X512751Y316130D01*
X512751Y297870D01*
X510817Y293202D01*
X507244Y289629D01*
X502576Y287695D01*
X497524Y287695D01*
X492856Y289629D01*
X489283Y293202D01*
X487349Y297870D01*
X487349Y316130D01*
X489239Y320692D01*
X489264Y320771D01*
X489297Y320846D01*
X489331Y320985D01*
X489374Y321122D01*
X489384Y321204D01*
X489404Y321284D01*
X489412Y321426D01*
X489430Y321569D01*
X489426Y321651D01*
X489431Y321733D01*
X489415Y321875D01*
X489407Y322018D01*
X489389Y322098D01*
X489379Y322180D01*
X489338Y322318D01*
X489305Y322457D01*
X489273Y322532D01*
X489249Y322611D01*
X489184Y322739D01*
X489127Y322870D01*
X489082Y322939D01*
X489045Y323013D01*
X488958Y323127D01*
X488879Y323246D01*
X488822Y323306D01*
X488773Y323371D01*
X488667Y323468D01*
X488568Y323572D01*
X488502Y323621D01*
X488441Y323677D01*
X488320Y323754D01*
X488205Y323838D01*
X488131Y323874D01*
X488062Y323918D01*
X487929Y323973D01*
X487801Y324036D01*
X487721Y324058D01*
X487645Y324089D01*
X487505Y324119D01*
X487367Y324159D01*
X487285Y324167D01*
X487205Y324184D01*
X486959Y324199D01*
X486919Y324203D01*
X486909Y324202D01*
X486893Y324203D01*
X475107Y324203D01*
X475025Y324196D01*
X474943Y324198D01*
X474802Y324176D01*
X474659Y324163D01*
X474579Y324142D01*
X474498Y324129D01*
X474362Y324083D01*
X474224Y324045D01*
X474150Y324009D01*
X474072Y323983D01*
X473947Y323913D01*
X473818Y323851D01*
X473751Y323804D01*
X473679Y323763D01*
X473568Y323673D01*
X473451Y323589D01*
X473394Y323530D01*
X473330Y323478D01*
X473237Y323369D01*
X473137Y323267D01*
X473091Y323198D01*
X473038Y323136D01*
X472965Y323012D01*
X472885Y322894D01*
X472852Y322818D01*
X472810Y322747D01*
X472761Y322613D01*
X472703Y322482D01*
X472684Y322402D01*
X472655Y322324D01*
X472630Y322183D01*
X472596Y322044D01*
X472591Y321962D01*
X472577Y321881D01*
X472578Y321738D01*
X472569Y321595D01*
X472578Y321513D01*
X472579Y321431D01*
X472604Y321290D01*
X472621Y321148D01*
X472645Y321069D01*
X472659Y320988D01*
X472740Y320754D01*
X472751Y320717D01*
X472756Y320707D01*
X472761Y320692D01*
X474651Y316130D01*
X474651Y297870D01*
X472717Y293202D01*
X469144Y289629D01*
X464476Y287695D01*
X459424Y287695D01*
X454756Y289629D01*
X453376Y291009D01*
X453276Y291092D01*
X453183Y291183D01*
X453103Y291237D01*
X453030Y291298D01*
X452917Y291362D01*
X452810Y291435D01*
X452722Y291474D01*
X452639Y291521D01*
X452517Y291565D01*
X452398Y291617D01*
X452305Y291640D01*
X452215Y291672D01*
X452087Y291693D01*
X451960Y291724D01*
X451865Y291730D01*
X451771Y291746D01*
X451641Y291744D01*
X451511Y291752D01*
X451416Y291741D01*
X451320Y291739D01*
X451193Y291715D01*
X451064Y291700D01*
X450972Y291672D01*
X450878Y291654D01*
X450757Y291607D01*
X450633Y291569D01*
X450547Y291526D01*
X450458Y291492D01*
X450347Y291424D01*
X450231Y291365D01*
X450155Y291307D01*
X450074Y291258D01*
X449976Y291172D01*
X449873Y291093D01*
X449808Y291023D01*
X449736Y290959D01*
X449656Y290858D01*
X449567Y290762D01*
X449516Y290681D01*
X449457Y290606D01*
X449395Y290492D01*
X449326Y290382D01*
X449289Y290294D01*
X449244Y290210D01*
X449204Y290086D01*
X449155Y289966D01*
X449135Y289872D01*
X449105Y289781D01*
X449087Y289653D01*
X449060Y289525D01*
X449052Y289395D01*
X449044Y289335D01*
X449045Y289291D01*
X449041Y289213D01*
X449041Y287539D01*
X444039Y287539D01*
X444039Y293041D01*
X446838Y293041D01*
X447013Y293010D01*
X447199Y292972D01*
X447235Y292971D01*
X447271Y292965D01*
X447460Y292966D01*
X447649Y292962D01*
X447684Y292967D01*
X447721Y292967D01*
X447907Y293002D01*
X448094Y293030D01*
X448128Y293042D01*
X448164Y293049D01*
X448341Y293115D01*
X448519Y293177D01*
X448551Y293194D01*
X448585Y293207D01*
X448748Y293304D01*
X448913Y293396D01*
X448941Y293419D01*
X448972Y293438D01*
X449115Y293562D01*
X449261Y293681D01*
X449285Y293709D01*
X449312Y293733D01*
X449431Y293880D01*
X449554Y294024D01*
X449572Y294055D01*
X449595Y294083D01*
X449686Y294249D01*
X449781Y294412D01*
X449793Y294446D01*
X449811Y294478D01*
X449871Y294658D01*
X449936Y294835D01*
X449942Y294871D01*
X449954Y294905D01*
X449981Y295092D01*
X450014Y295279D01*
X450014Y295315D01*
X450019Y295351D01*
X450013Y295540D01*
X450013Y295729D01*
X450006Y295764D01*
X450005Y295801D01*
X449966Y295986D01*
X449932Y296172D01*
X449917Y296214D01*
X449912Y296241D01*
X449888Y296298D01*
X449830Y296467D01*
X449249Y297870D01*
X449249Y316130D01*
X451139Y320692D01*
X451164Y320771D01*
X451197Y320846D01*
X451231Y320985D01*
X451274Y321122D01*
X451284Y321204D01*
X451304Y321284D01*
X451312Y321426D01*
X451330Y321569D01*
X451326Y321651D01*
X451331Y321733D01*
X451315Y321875D01*
X451307Y322018D01*
X451289Y322098D01*
X451279Y322180D01*
X451238Y322318D01*
X451205Y322457D01*
X451173Y322532D01*
X451149Y322611D01*
X451084Y322739D01*
X451027Y322870D01*
X450982Y322939D01*
X450945Y323013D01*
X450858Y323127D01*
X450779Y323246D01*
X450722Y323306D01*
X450673Y323371D01*
X450567Y323468D01*
X450468Y323572D01*
X450402Y323621D01*
X450341Y323677D01*
X450220Y323754D01*
X450105Y323838D01*
X450031Y323874D01*
X449962Y323918D01*
X449829Y323973D01*
X449701Y324036D01*
X449621Y324058D01*
X449545Y324089D01*
X449405Y324119D01*
X449267Y324159D01*
X449185Y324167D01*
X449105Y324184D01*
X448859Y324199D01*
X448819Y324203D01*
X448809Y324202D01*
X448793Y324203D01*
X403123Y324203D01*
X403041Y324196D01*
X402958Y324198D01*
X402817Y324176D01*
X402674Y324163D01*
X402595Y324142D01*
X402513Y324129D01*
X402378Y324083D01*
X402240Y324045D01*
X402166Y324010D01*
X402087Y323983D01*
X401962Y323913D01*
X401833Y323851D01*
X401766Y323804D01*
X401694Y323763D01*
X401584Y323673D01*
X401467Y323589D01*
X401410Y323530D01*
X401346Y323478D01*
X401253Y323369D01*
X401153Y323267D01*
X401107Y323198D01*
X401053Y323136D01*
X400981Y323012D01*
X400901Y322894D01*
X400868Y322818D01*
X400826Y322747D01*
X400777Y322613D01*
X400719Y322482D01*
X400699Y322402D01*
X400671Y322324D01*
X400646Y322183D01*
X400612Y322044D01*
X400607Y321962D01*
X400593Y321881D01*
X400593Y321738D01*
X400584Y321595D01*
X400594Y321513D01*
X400594Y321431D01*
X400620Y321290D01*
X400636Y321148D01*
X400660Y321069D01*
X400675Y320988D01*
X400755Y320755D01*
X400767Y320717D01*
X400772Y320707D01*
X400777Y320692D01*
X401597Y318713D01*
X401597Y306287D01*
X401052Y304972D01*
X401003Y304815D01*
X400946Y304660D01*
X400935Y304600D01*
X400917Y304542D01*
X400896Y304379D01*
X400868Y304217D01*
X400868Y304156D01*
X400860Y304095D01*
X400869Y303931D01*
X400869Y303767D01*
X400880Y303707D01*
X400883Y303646D01*
X400921Y303486D01*
X400950Y303324D01*
X400975Y303251D01*
X400985Y303207D01*
X401009Y303152D01*
X401052Y303028D01*
X401597Y301713D01*
X401597Y297888D01*
X401611Y297724D01*
X401618Y297560D01*
X401631Y297500D01*
X401637Y297439D01*
X401680Y297280D01*
X401716Y297120D01*
X401739Y297064D01*
X401755Y297005D01*
X401826Y296857D01*
X401889Y296705D01*
X401922Y296653D01*
X401949Y296598D01*
X402044Y296465D01*
X402134Y296326D01*
X402185Y296269D01*
X402211Y296232D01*
X402254Y296190D01*
X402340Y296092D01*
X408323Y290110D01*
X409068Y289364D01*
X409168Y289281D01*
X409261Y289190D01*
X409340Y289137D01*
X409414Y289075D01*
X409527Y289011D01*
X409634Y288938D01*
X409722Y288899D01*
X409805Y288852D01*
X409927Y288808D01*
X410046Y288756D01*
X410139Y288733D01*
X410229Y288701D01*
X410357Y288680D01*
X410484Y288649D01*
X410579Y288643D01*
X410673Y288628D01*
X410803Y288629D01*
X410933Y288621D01*
X411028Y288632D01*
X411123Y288634D01*
X411251Y288658D01*
X411380Y288673D01*
X411472Y288701D01*
X411566Y288719D01*
X411687Y288766D01*
X411811Y288804D01*
X411896Y288847D01*
X411986Y288881D01*
X412097Y288949D01*
X412213Y289008D01*
X412289Y289066D01*
X412370Y289115D01*
X412468Y289202D01*
X412571Y289280D01*
X412636Y289350D01*
X412708Y289414D01*
X412788Y289516D01*
X412877Y289611D01*
X412928Y289692D01*
X412987Y289767D01*
X413048Y289881D01*
X413118Y289991D01*
X413155Y290079D01*
X413200Y290164D01*
X413240Y290287D01*
X413289Y290408D01*
X413309Y290501D01*
X413339Y290592D01*
X413357Y290720D01*
X413384Y290848D01*
X413392Y290978D01*
X413400Y291038D01*
X413399Y291082D01*
X413403Y291160D01*
X413403Y291713D01*
X414331Y293954D01*
X416046Y295669D01*
X418287Y296597D01*
X430713Y296597D01*
X432954Y295669D01*
X434838Y293784D01*
X434964Y293679D01*
X435085Y293567D01*
X435136Y293535D01*
X435183Y293496D01*
X435326Y293414D01*
X435464Y293326D01*
X435521Y293302D01*
X435574Y293272D01*
X435729Y293217D01*
X435881Y293155D01*
X435941Y293142D01*
X435998Y293121D01*
X436160Y293095D01*
X436321Y293060D01*
X436398Y293055D01*
X436442Y293048D01*
X436503Y293049D01*
X436633Y293041D01*
X438961Y293041D01*
X438961Y285000D01*
X438961Y276959D01*
X436633Y276959D01*
X436470Y276945D01*
X436306Y276938D01*
X436246Y276925D01*
X436185Y276919D01*
X436026Y276876D01*
X435866Y276841D01*
X435809Y276817D01*
X435750Y276801D01*
X435602Y276730D01*
X435451Y276667D01*
X435399Y276634D01*
X435344Y276607D01*
X435210Y276512D01*
X435072Y276423D01*
X435014Y276372D01*
X434978Y276345D01*
X434935Y276302D01*
X434838Y276216D01*
X434772Y276150D01*
X434750Y276123D01*
X434724Y276100D01*
X434606Y275951D01*
X434483Y275805D01*
X434466Y275774D01*
X434444Y275747D01*
X434354Y275579D01*
X434260Y275414D01*
X434248Y275381D01*
X434232Y275350D01*
X434173Y275169D01*
X434109Y274990D01*
X434103Y274955D01*
X434092Y274922D01*
X434066Y274733D01*
X434035Y274546D01*
X434036Y274511D01*
X434031Y274476D01*
X434039Y274285D01*
X434041Y274095D01*
X434048Y274061D01*
X434049Y274026D01*
X434091Y273840D01*
X434127Y273653D01*
X434139Y273621D01*
X434147Y273587D01*
X434221Y273410D01*
X434289Y273233D01*
X434307Y273204D01*
X434321Y273171D01*
X434424Y273011D01*
X434523Y272848D01*
X434546Y272822D01*
X434565Y272793D01*
X434772Y272559D01*
X435902Y271428D01*
X436029Y271322D01*
X436150Y271211D01*
X436201Y271178D01*
X436248Y271139D01*
X436391Y271058D01*
X436529Y270969D01*
X436586Y270946D01*
X436639Y270916D01*
X436794Y270861D01*
X436946Y270798D01*
X437006Y270785D01*
X437063Y270765D01*
X437225Y270738D01*
X437386Y270704D01*
X437463Y270699D01*
X437507Y270691D01*
X437568Y270692D01*
X437698Y270684D01*
X439525Y270684D01*
X439525Y263144D01*
X439525Y263143D01*
X439525Y255603D01*
X437765Y255603D01*
X437730Y255600D01*
X437696Y255602D01*
X437506Y255580D01*
X437316Y255563D01*
X437283Y255554D01*
X437249Y255550D01*
X437066Y255494D01*
X436882Y255444D01*
X436851Y255430D01*
X436818Y255420D01*
X436647Y255333D01*
X436475Y255251D01*
X436447Y255231D01*
X436416Y255215D01*
X436264Y255100D01*
X436109Y254989D01*
X436085Y254964D01*
X436058Y254943D01*
X435928Y254803D01*
X435795Y254666D01*
X435776Y254637D01*
X435752Y254612D01*
X435650Y254451D01*
X435543Y254293D01*
X435529Y254261D01*
X435511Y254232D01*
X435438Y254056D01*
X435361Y253881D01*
X435353Y253848D01*
X435340Y253816D01*
X435299Y253629D01*
X435254Y253444D01*
X435252Y253409D01*
X435245Y253375D01*
X435226Y253064D01*
X435226Y237439D01*
X435229Y237404D01*
X435227Y237370D01*
X435249Y237180D01*
X435266Y236990D01*
X435275Y236957D01*
X435279Y236923D01*
X435334Y236740D01*
X435384Y236556D01*
X435399Y236525D01*
X435409Y236492D01*
X435496Y236321D01*
X435577Y236149D01*
X435598Y236121D01*
X435613Y236090D01*
X435729Y235938D01*
X435840Y235783D01*
X435864Y235759D01*
X435885Y235732D01*
X436025Y235603D01*
X436162Y235469D01*
X436191Y235450D01*
X436216Y235426D01*
X436377Y235324D01*
X436535Y235217D01*
X436567Y235203D01*
X436596Y235185D01*
X436773Y235112D01*
X436947Y235035D01*
X436981Y235027D01*
X437013Y235014D01*
X437199Y234973D01*
X437385Y234928D01*
X437419Y234926D01*
X437453Y234919D01*
X437765Y234900D01*
X515747Y234900D01*
X515911Y234914D01*
X516075Y234921D01*
X516135Y234934D01*
X516196Y234940D01*
X516355Y234983D01*
X516515Y235019D01*
X516571Y235042D01*
X516630Y235058D01*
X516778Y235129D01*
X516930Y235192D01*
X516982Y235225D01*
X517037Y235251D01*
X517170Y235347D01*
X517309Y235436D01*
X517366Y235488D01*
X517403Y235514D01*
X517445Y235557D01*
X517543Y235643D01*
X519085Y237186D01*
X529396Y237186D01*
X536569Y230013D01*
X536596Y229990D01*
X536618Y229965D01*
X536767Y229847D01*
X536914Y229724D01*
X536945Y229707D01*
X536972Y229685D01*
X537139Y229595D01*
X537305Y229501D01*
X537338Y229489D01*
X537368Y229473D01*
X537550Y229414D01*
X537730Y229350D01*
X537764Y229344D01*
X537797Y229333D01*
X537986Y229307D01*
X538174Y229276D01*
X538208Y229277D01*
X538243Y229272D01*
X538434Y229280D01*
X538624Y229282D01*
X538658Y229289D01*
X538693Y229290D01*
X538879Y229332D01*
X539066Y229368D01*
X539098Y229380D01*
X539132Y229388D01*
X539308Y229462D01*
X539486Y229530D01*
X539516Y229548D01*
X539548Y229562D01*
X539708Y229665D01*
X539871Y229764D01*
X539897Y229787D01*
X539926Y229806D01*
X540160Y230013D01*
X543903Y233756D01*
X545046Y233756D01*
X545046Y224866D01*
X545046Y224865D01*
X545046Y215975D01*
X543903Y215975D01*
X540286Y219591D01*
X540260Y219614D01*
X540237Y219640D01*
X540088Y219757D01*
X539941Y219880D01*
X539911Y219898D01*
X539884Y219919D01*
X539716Y220009D01*
X539550Y220104D01*
X539517Y220115D01*
X539487Y220132D01*
X539306Y220191D01*
X539126Y220254D01*
X539091Y220260D01*
X539059Y220271D01*
X538870Y220297D01*
X538682Y220328D01*
X538647Y220327D01*
X538613Y220332D01*
X538422Y220324D01*
X538231Y220322D01*
X538197Y220315D01*
X538163Y220314D01*
X537977Y220273D01*
X537789Y220236D01*
X537757Y220224D01*
X537723Y220216D01*
X537548Y220143D01*
X537369Y220074D01*
X537340Y220056D01*
X537308Y220043D01*
X537148Y219939D01*
X536985Y219840D01*
X536959Y219817D01*
X536929Y219798D01*
X536695Y219591D01*
X529396Y212292D01*
X519085Y212292D01*
X517543Y213834D01*
X517416Y213940D01*
X517296Y214051D01*
X517244Y214084D01*
X517197Y214123D01*
X517055Y214205D01*
X516916Y214293D01*
X516859Y214317D01*
X516806Y214347D01*
X516652Y214402D01*
X516499Y214464D01*
X516440Y214477D01*
X516382Y214498D01*
X516220Y214524D01*
X516059Y214559D01*
X515982Y214564D01*
X515938Y214571D01*
X515877Y214570D01*
X515747Y214578D01*
X436315Y214578D01*
X436104Y214559D01*
X435893Y214543D01*
X435880Y214539D01*
X435867Y214538D01*
X435662Y214482D01*
X435457Y214429D01*
X435445Y214423D01*
X435432Y214420D01*
X435242Y214329D01*
X435048Y214240D01*
X435038Y214232D01*
X435026Y214226D01*
X434854Y214103D01*
X434680Y213981D01*
X434670Y213972D01*
X434660Y213964D01*
X434511Y213812D01*
X434362Y213662D01*
X434355Y213651D01*
X434346Y213642D01*
X434226Y213465D01*
X434106Y213291D01*
X434099Y213277D01*
X434093Y213268D01*
X434077Y213232D01*
X433969Y213011D01*
X433679Y212309D01*
X423840Y202471D01*
X423735Y202345D01*
X423623Y202224D01*
X423591Y202172D01*
X423552Y202126D01*
X423470Y201983D01*
X423382Y201844D01*
X423358Y201788D01*
X423328Y201735D01*
X423273Y201580D01*
X423211Y201428D01*
X423198Y201368D01*
X423177Y201310D01*
X423151Y201148D01*
X423116Y200987D01*
X423111Y200910D01*
X423104Y200866D01*
X423105Y200805D01*
X423097Y200675D01*
X423097Y191787D01*
X422169Y189546D01*
X420454Y187831D01*
X418213Y186903D01*
X414325Y186903D01*
X414161Y186889D01*
X413996Y186882D01*
X413937Y186869D01*
X413876Y186863D01*
X413717Y186820D01*
X413557Y186784D01*
X413500Y186761D01*
X413442Y186745D01*
X413294Y186674D01*
X413141Y186611D01*
X413090Y186578D01*
X413035Y186551D01*
X412902Y186456D01*
X412763Y186366D01*
X412705Y186315D01*
X412669Y186289D01*
X412626Y186246D01*
X412529Y186160D01*
X400060Y173691D01*
X399923Y173527D01*
X399786Y173367D01*
X399780Y173355D01*
X399771Y173345D01*
X399666Y173161D01*
X399559Y172978D01*
X399554Y172966D01*
X399548Y172954D01*
X399477Y172755D01*
X399404Y172555D01*
X399401Y172542D01*
X399397Y172530D01*
X399362Y172320D01*
X399326Y172112D01*
X399326Y172099D01*
X399323Y172086D01*
X399326Y171872D01*
X399327Y171662D01*
X399329Y171649D01*
X399330Y171635D01*
X399370Y171425D01*
X399408Y171219D01*
X399413Y171204D01*
X399415Y171193D01*
X399429Y171156D01*
X399510Y170923D01*
X399597Y170713D01*
X399597Y151287D01*
X398669Y149046D01*
X396954Y147331D01*
X394713Y146403D01*
X374287Y146403D01*
X372046Y147331D01*
X370451Y148927D01*
X370424Y148949D01*
X370401Y148975D01*
X370252Y149093D01*
X370105Y149216D01*
X370075Y149233D01*
X370048Y149255D01*
X369880Y149345D01*
X369714Y149439D01*
X369682Y149451D01*
X369651Y149467D01*
X369470Y149526D01*
X369290Y149590D01*
X369256Y149596D01*
X369223Y149607D01*
X369034Y149633D01*
X368846Y149664D01*
X368812Y149663D01*
X368777Y149668D01*
X368586Y149660D01*
X368396Y149658D01*
X368362Y149651D01*
X368327Y149650D01*
X368141Y149608D01*
X367954Y149572D01*
X367921Y149560D01*
X367888Y149552D01*
X367711Y149478D01*
X367534Y149410D01*
X367504Y149392D01*
X367472Y149378D01*
X367312Y149275D01*
X367149Y149176D01*
X367123Y149153D01*
X367094Y149134D01*
X366860Y148927D01*
X358346Y140414D01*
X358211Y140252D01*
X358072Y140090D01*
X358066Y140078D01*
X358057Y140068D01*
X357953Y139886D01*
X357845Y139701D01*
X357840Y139689D01*
X357834Y139677D01*
X357763Y139479D01*
X357690Y139279D01*
X357688Y139265D01*
X357683Y139253D01*
X357648Y139043D01*
X357612Y138835D01*
X357612Y138822D01*
X357610Y138809D01*
X357613Y138595D01*
X357613Y138385D01*
X357616Y138372D01*
X357616Y138359D01*
X357656Y138150D01*
X357694Y137942D01*
X357699Y137927D01*
X357701Y137917D01*
X357716Y137880D01*
X357796Y137646D01*
X358597Y135713D01*
X358597Y116287D01*
X357669Y114046D01*
X355953Y112331D01*
X354212Y111610D01*
X354024Y111512D01*
X353835Y111416D01*
X353825Y111408D01*
X353813Y111402D01*
X353644Y111271D01*
X353477Y111144D01*
X353468Y111134D01*
X353457Y111126D01*
X353315Y110968D01*
X353171Y110813D01*
X353164Y110801D01*
X353156Y110792D01*
X353044Y110613D01*
X352930Y110433D01*
X352925Y110421D01*
X352918Y110409D01*
X352839Y110212D01*
X352759Y110016D01*
X352756Y110004D01*
X352751Y109991D01*
X352708Y109783D01*
X352664Y109576D01*
X352663Y109560D01*
X352661Y109550D01*
X352660Y109511D01*
X352645Y109264D01*
X352645Y85513D01*
X352656Y85384D01*
X352658Y85254D01*
X352676Y85160D01*
X352685Y85065D01*
X352719Y84939D01*
X352744Y84812D01*
X352778Y84723D01*
X352803Y84631D01*
X352859Y84513D01*
X352906Y84392D01*
X352956Y84310D01*
X352997Y84224D01*
X353072Y84118D01*
X353140Y84007D01*
X353203Y83936D01*
X353259Y83858D01*
X353352Y83767D01*
X353438Y83670D01*
X353513Y83610D01*
X353581Y83544D01*
X353689Y83471D01*
X353791Y83390D01*
X353875Y83345D01*
X353954Y83292D01*
X354073Y83239D01*
X354188Y83178D01*
X354279Y83148D01*
X354366Y83109D01*
X354493Y83079D01*
X354616Y83038D01*
X354711Y83025D01*
X354804Y83003D01*
X354933Y82995D01*
X355062Y82977D01*
X355158Y82981D01*
X355253Y82975D01*
X355382Y82990D01*
X355512Y82995D01*
X355605Y83016D01*
X355700Y83027D01*
X355825Y83065D01*
X355952Y83093D01*
X356040Y83130D01*
X356131Y83157D01*
X356247Y83217D01*
X356367Y83267D01*
X356447Y83318D01*
X356533Y83362D01*
X356636Y83440D01*
X356745Y83511D01*
X356843Y83597D01*
X356891Y83634D01*
X356922Y83667D01*
X356980Y83718D01*
X358696Y85434D01*
X362786Y87129D01*
X366644Y87129D01*
X366808Y87143D01*
X366972Y87150D01*
X367032Y87163D01*
X367093Y87169D01*
X367252Y87212D01*
X367412Y87248D01*
X367468Y87271D01*
X367527Y87287D01*
X367675Y87358D01*
X367827Y87421D01*
X367879Y87454D01*
X367934Y87481D01*
X368067Y87576D01*
X368206Y87666D01*
X368263Y87717D01*
X368300Y87743D01*
X368342Y87786D01*
X368440Y87872D01*
X387660Y107092D01*
X387765Y107218D01*
X387877Y107339D01*
X387909Y107391D01*
X387948Y107438D01*
X388030Y107580D01*
X388118Y107719D01*
X388142Y107776D01*
X388172Y107828D01*
X388227Y107983D01*
X388289Y108136D01*
X388302Y108195D01*
X388323Y108253D01*
X388349Y108415D01*
X388384Y108576D01*
X388389Y108653D01*
X388396Y108697D01*
X388395Y108758D01*
X388403Y108888D01*
X388403Y119713D01*
X389331Y121954D01*
X391046Y123669D01*
X393287Y124597D01*
X412713Y124597D01*
X414954Y123669D01*
X416669Y121954D01*
X417597Y119713D01*
X417597Y101839D01*
X417608Y101709D01*
X417610Y101579D01*
X417628Y101485D01*
X417637Y101390D01*
X417671Y101264D01*
X417696Y101137D01*
X417730Y101048D01*
X417755Y100956D01*
X417811Y100838D01*
X417858Y100717D01*
X417908Y100635D01*
X417949Y100549D01*
X418024Y100443D01*
X418092Y100332D01*
X418155Y100261D01*
X418211Y100183D01*
X418304Y100092D01*
X418390Y99995D01*
X418465Y99936D01*
X418533Y99869D01*
X418641Y99796D01*
X418743Y99715D01*
X418827Y99670D01*
X418906Y99617D01*
X419025Y99564D01*
X419140Y99503D01*
X419231Y99473D01*
X419318Y99435D01*
X419445Y99404D01*
X419568Y99364D01*
X419663Y99351D01*
X419756Y99328D01*
X419885Y99320D01*
X420014Y99302D01*
X420110Y99306D01*
X420205Y99300D01*
X420334Y99315D01*
X420464Y99321D01*
X420557Y99341D01*
X420652Y99352D01*
X420777Y99390D01*
X420904Y99418D01*
X420992Y99455D01*
X421083Y99483D01*
X421199Y99542D01*
X421319Y99592D01*
X421399Y99644D01*
X421485Y99687D01*
X421588Y99766D01*
X421697Y99836D01*
X421795Y99922D01*
X421843Y99959D01*
X421874Y99992D01*
X421932Y100043D01*
X425289Y103401D01*
X435811Y103401D01*
X436120Y103091D01*
X436220Y103008D01*
X436313Y102917D01*
X436393Y102863D01*
X436466Y102802D01*
X436579Y102738D01*
X436686Y102665D01*
X436774Y102626D01*
X436857Y102579D01*
X436979Y102535D01*
X437098Y102483D01*
X437191Y102460D01*
X437281Y102428D01*
X437409Y102407D01*
X437536Y102376D01*
X437631Y102370D01*
X437725Y102354D01*
X437855Y102356D01*
X437985Y102348D01*
X438080Y102359D01*
X438175Y102361D01*
X438303Y102385D01*
X438432Y102400D01*
X438524Y102428D01*
X438618Y102446D01*
X438739Y102493D01*
X438863Y102531D01*
X438949Y102574D01*
X439038Y102608D01*
X439149Y102676D01*
X439265Y102735D01*
X439341Y102793D01*
X439422Y102842D01*
X439520Y102928D01*
X439623Y103007D01*
X439688Y103077D01*
X439760Y103141D01*
X439840Y103242D01*
X439929Y103338D01*
X439980Y103419D01*
X440039Y103494D01*
X440100Y103608D01*
X440170Y103718D01*
X440207Y103806D01*
X440252Y103890D01*
X440292Y104014D01*
X440341Y104134D01*
X440361Y104228D01*
X440391Y104319D01*
X440409Y104447D01*
X440436Y104575D01*
X440444Y104705D01*
X440452Y104765D01*
X440451Y104809D01*
X440455Y104887D01*
X440455Y107188D01*
X445812Y112545D01*
X447061Y112545D01*
X447061Y103400D01*
X447064Y103366D01*
X447062Y103331D01*
X447084Y103142D01*
X447100Y102952D01*
X447110Y102918D01*
X447114Y102884D01*
X447169Y102701D01*
X447219Y102517D01*
X447234Y102486D01*
X447244Y102453D01*
X447331Y102282D01*
X447412Y102111D01*
X447433Y102083D01*
X447448Y102052D01*
X447563Y101900D01*
X447675Y101745D01*
X447699Y101721D01*
X447720Y101693D01*
X447721Y101693D01*
X447721Y101692D01*
X447861Y101563D01*
X447998Y101430D01*
X448026Y101411D01*
X448052Y101387D01*
X448213Y101285D01*
X448371Y101178D01*
X448402Y101164D01*
X448432Y101145D01*
X448608Y101073D01*
X448783Y100996D01*
X448816Y100988D01*
X448848Y100975D01*
X449035Y100934D01*
X449220Y100889D01*
X449254Y100887D01*
X449288Y100880D01*
X449600Y100861D01*
X458745Y100861D01*
X458745Y99612D01*
X454143Y95010D01*
X454120Y94983D01*
X454094Y94960D01*
X453976Y94811D01*
X453854Y94665D01*
X453837Y94635D01*
X453815Y94607D01*
X453725Y94439D01*
X453630Y94274D01*
X453619Y94241D01*
X453602Y94211D01*
X453543Y94029D01*
X453480Y93849D01*
X453474Y93815D01*
X453463Y93782D01*
X453437Y93593D01*
X453406Y93405D01*
X453407Y93371D01*
X453402Y93336D01*
X453410Y93145D01*
X453412Y92955D01*
X453419Y92921D01*
X453420Y92886D01*
X453461Y92700D01*
X453498Y92513D01*
X453510Y92481D01*
X453518Y92447D01*
X453591Y92271D01*
X453660Y92093D01*
X453678Y92063D01*
X453691Y92031D01*
X453795Y91871D01*
X453894Y91708D01*
X453917Y91682D01*
X453936Y91653D01*
X454143Y91419D01*
X462301Y83261D01*
X462301Y72739D01*
X460771Y71210D01*
X460666Y71084D01*
X460554Y70963D01*
X460522Y70911D01*
X460482Y70864D01*
X460401Y70722D01*
X460313Y70583D01*
X460289Y70526D01*
X460259Y70474D01*
X460204Y70318D01*
X460142Y70166D01*
X460129Y70107D01*
X460108Y70049D01*
X460081Y69887D01*
X460047Y69726D01*
X460042Y69649D01*
X460035Y69605D01*
X460036Y69544D01*
X460028Y69414D01*
X460028Y69009D01*
X460031Y68974D01*
X460029Y68940D01*
X460051Y68750D01*
X460068Y68560D01*
X460077Y68527D01*
X460081Y68492D01*
X460136Y68309D01*
X460186Y68126D01*
X460201Y68095D01*
X460211Y68061D01*
X460298Y67891D01*
X460379Y67719D01*
X460400Y67691D01*
X460415Y67660D01*
X460531Y67508D01*
X460642Y67353D01*
X460666Y67329D01*
X460687Y67301D01*
X460827Y67172D01*
X460964Y67039D01*
X460993Y67020D01*
X461018Y66996D01*
X461179Y66894D01*
X461337Y66787D01*
X461369Y66773D01*
X461398Y66754D01*
X461575Y66682D01*
X461749Y66605D01*
X461783Y66597D01*
X461815Y66583D01*
X462001Y66543D01*
X462187Y66498D01*
X462221Y66496D01*
X462255Y66489D01*
X462567Y66469D01*
X473080Y66469D01*
X475412Y65503D01*
X475430Y65488D01*
X475573Y65407D01*
X475711Y65318D01*
X475768Y65295D01*
X475821Y65265D01*
X475976Y65210D01*
X476128Y65147D01*
X476188Y65135D01*
X476245Y65114D01*
X476407Y65087D01*
X476568Y65053D01*
X476645Y65048D01*
X476689Y65041D01*
X476750Y65041D01*
X476880Y65033D01*
X503612Y65033D01*
X503776Y65048D01*
G37*
G36*
X31229Y11743D02*
X31229Y11743D01*
X31313Y11741D01*
X31453Y11763D01*
X31594Y11775D01*
X31675Y11797D01*
X31758Y11810D01*
X31892Y11856D01*
X32029Y11893D01*
X32105Y11929D01*
X32184Y11956D01*
X32307Y12025D01*
X32436Y12086D01*
X32504Y12135D01*
X32577Y12176D01*
X32687Y12266D01*
X32802Y12348D01*
X32860Y12408D01*
X32925Y12461D01*
X33017Y12569D01*
X33116Y12671D01*
X33163Y12740D01*
X33218Y12803D01*
X33289Y12926D01*
X33369Y13043D01*
X33403Y13120D01*
X33445Y13192D01*
X33494Y13325D01*
X33552Y13455D01*
X33571Y13536D01*
X33600Y13615D01*
X33625Y13755D01*
X33659Y13892D01*
X33664Y13976D01*
X33678Y14058D01*
X33678Y14200D01*
X33687Y14342D01*
X33677Y14425D01*
X33677Y14508D01*
X33651Y14648D01*
X33635Y14789D01*
X33611Y14869D01*
X33602Y14917D01*
X33602Y33414D01*
X34530Y35655D01*
X36245Y37370D01*
X38486Y38298D01*
X56914Y38298D01*
X59213Y37345D01*
X59350Y37231D01*
X59382Y37212D01*
X59412Y37189D01*
X59578Y37100D01*
X59741Y37007D01*
X59776Y36995D01*
X59809Y36977D01*
X59988Y36919D01*
X60165Y36857D01*
X60202Y36850D01*
X60238Y36839D01*
X60423Y36814D01*
X60609Y36783D01*
X60647Y36784D01*
X60684Y36779D01*
X60871Y36787D01*
X61060Y36789D01*
X61096Y36796D01*
X61134Y36798D01*
X61316Y36839D01*
X61502Y36875D01*
X61537Y36888D01*
X61573Y36896D01*
X61692Y36946D01*
X61779Y36976D01*
X64486Y38098D01*
X82914Y38098D01*
X85155Y37170D01*
X87179Y35145D01*
X87297Y35047D01*
X87408Y34942D01*
X87469Y34902D01*
X87525Y34856D01*
X87657Y34780D01*
X87786Y34697D01*
X87853Y34669D01*
X87915Y34633D01*
X88060Y34581D01*
X88201Y34522D01*
X88271Y34506D01*
X88340Y34482D01*
X88491Y34457D01*
X88640Y34423D01*
X88712Y34420D01*
X88784Y34408D01*
X88937Y34410D01*
X89090Y34404D01*
X89162Y34413D01*
X89234Y34414D01*
X89385Y34444D01*
X89536Y34464D01*
X89605Y34486D01*
X89676Y34500D01*
X89819Y34555D01*
X89965Y34602D01*
X90048Y34644D01*
X90096Y34662D01*
X90098Y34663D01*
X90764Y34842D01*
X96561Y34842D01*
X96561Y24300D01*
X96564Y24266D01*
X96562Y24231D01*
X96584Y24042D01*
X96600Y23852D01*
X96610Y23818D01*
X96614Y23784D01*
X96669Y23601D01*
X96719Y23417D01*
X96734Y23386D01*
X96744Y23353D01*
X96831Y23182D01*
X96912Y23011D01*
X96933Y22983D01*
X96948Y22952D01*
X97063Y22800D01*
X97175Y22645D01*
X97199Y22621D01*
X97220Y22593D01*
X97360Y22464D01*
X97497Y22331D01*
X97526Y22311D01*
X97551Y22288D01*
X97712Y22185D01*
X97870Y22079D01*
X97902Y22065D01*
X97931Y22046D01*
X98108Y21974D01*
X98282Y21896D01*
X98316Y21888D01*
X98348Y21875D01*
X98534Y21835D01*
X98719Y21790D01*
X98754Y21788D01*
X98788Y21780D01*
X99100Y21761D01*
X99135Y21764D01*
X99169Y21762D01*
X99359Y21784D01*
X99549Y21801D01*
X99582Y21810D01*
X99616Y21814D01*
X99799Y21869D01*
X99983Y21920D01*
X100014Y21934D01*
X100047Y21944D01*
X100218Y22031D01*
X100390Y22113D01*
X100418Y22133D01*
X100449Y22149D01*
X100601Y22264D01*
X100756Y22375D01*
X100780Y22400D01*
X100807Y22421D01*
X100937Y22561D01*
X101070Y22698D01*
X101089Y22726D01*
X101113Y22752D01*
X101215Y22913D01*
X101322Y23071D01*
X101336Y23102D01*
X101354Y23132D01*
X101427Y23308D01*
X101504Y23483D01*
X101512Y23516D01*
X101525Y23548D01*
X101566Y23735D01*
X101611Y23920D01*
X101613Y23954D01*
X101620Y23988D01*
X101639Y24300D01*
X101639Y34842D01*
X107436Y34842D01*
X108180Y34642D01*
X108273Y34626D01*
X108364Y34600D01*
X108494Y34587D01*
X108624Y34565D01*
X108718Y34565D01*
X108812Y34556D01*
X108942Y34566D01*
X109074Y34567D01*
X109167Y34584D01*
X109261Y34591D01*
X109387Y34624D01*
X109517Y34648D01*
X109605Y34681D01*
X109696Y34705D01*
X109815Y34761D01*
X109938Y34807D01*
X110019Y34855D01*
X110105Y34895D01*
X110212Y34970D01*
X110325Y35037D01*
X110396Y35099D01*
X110473Y35153D01*
X110566Y35246D01*
X110665Y35332D01*
X110724Y35406D01*
X110791Y35473D01*
X110865Y35581D01*
X110901Y35625D01*
X112804Y37528D01*
X112849Y37551D01*
X112859Y37558D01*
X112871Y37564D01*
X113038Y37694D01*
X113207Y37823D01*
X113216Y37832D01*
X113227Y37840D01*
X113368Y37997D01*
X113513Y38154D01*
X113520Y38165D01*
X113528Y38174D01*
X113640Y38354D01*
X113754Y38533D01*
X113759Y38546D01*
X113766Y38557D01*
X113845Y38754D01*
X113925Y38950D01*
X113928Y38963D01*
X113933Y38975D01*
X113975Y39183D01*
X114020Y39390D01*
X114021Y39406D01*
X114023Y39416D01*
X114024Y39455D01*
X114039Y39702D01*
X114039Y50539D01*
X114025Y50703D01*
X114018Y50868D01*
X114005Y50927D01*
X113999Y50988D01*
X113956Y51147D01*
X113920Y51307D01*
X113897Y51364D01*
X113881Y51422D01*
X113810Y51570D01*
X113747Y51723D01*
X113714Y51774D01*
X113687Y51829D01*
X113592Y51962D01*
X113502Y52101D01*
X113451Y52159D01*
X113425Y52195D01*
X113382Y52238D01*
X113296Y52335D01*
X95386Y70244D01*
X93839Y73979D01*
X93839Y148944D01*
X93829Y149061D01*
X93829Y149178D01*
X93809Y149284D01*
X93799Y149393D01*
X93769Y149506D01*
X93748Y149621D01*
X93697Y149767D01*
X93681Y149827D01*
X93665Y149860D01*
X93646Y149916D01*
X92871Y151786D01*
X92871Y156214D01*
X94565Y160304D01*
X97696Y163435D01*
X101786Y165129D01*
X106214Y165129D01*
X110304Y163435D01*
X113435Y160304D01*
X115129Y156214D01*
X115129Y151786D01*
X114354Y149916D01*
X114319Y149804D01*
X114275Y149696D01*
X114252Y149590D01*
X114219Y149486D01*
X114205Y149370D01*
X114180Y149256D01*
X114170Y149102D01*
X114163Y149040D01*
X114164Y149003D01*
X114161Y148944D01*
X114161Y81261D01*
X114175Y81097D01*
X114182Y80932D01*
X114195Y80873D01*
X114201Y80812D01*
X114244Y80653D01*
X114280Y80493D01*
X114303Y80437D01*
X114319Y80378D01*
X114390Y80229D01*
X114453Y80077D01*
X114486Y80026D01*
X114513Y79971D01*
X114608Y79837D01*
X114698Y79699D01*
X114749Y79641D01*
X114775Y79605D01*
X114818Y79562D01*
X114904Y79465D01*
X123295Y71074D01*
X123395Y70991D01*
X123488Y70900D01*
X123567Y70847D01*
X123641Y70785D01*
X123754Y70721D01*
X123861Y70648D01*
X123949Y70609D01*
X124032Y70562D01*
X124154Y70518D01*
X124273Y70466D01*
X124366Y70443D01*
X124456Y70411D01*
X124584Y70390D01*
X124710Y70359D01*
X124806Y70353D01*
X124900Y70338D01*
X125030Y70339D01*
X125160Y70331D01*
X125255Y70342D01*
X125350Y70344D01*
X125478Y70368D01*
X125607Y70383D01*
X125699Y70411D01*
X125792Y70429D01*
X125913Y70476D01*
X126038Y70514D01*
X126123Y70557D01*
X126212Y70592D01*
X126324Y70659D01*
X126439Y70718D01*
X126515Y70776D01*
X126597Y70825D01*
X126695Y70912D01*
X126798Y70990D01*
X126863Y71060D01*
X126934Y71124D01*
X127015Y71226D01*
X127103Y71321D01*
X127155Y71402D01*
X127214Y71477D01*
X127275Y71591D01*
X127345Y71701D01*
X127381Y71789D01*
X127427Y71874D01*
X127467Y71997D01*
X127516Y72118D01*
X127536Y72211D01*
X127566Y72302D01*
X127583Y72431D01*
X127611Y72558D01*
X127619Y72687D01*
X127627Y72748D01*
X127625Y72793D01*
X127630Y72870D01*
X127630Y88574D01*
X141453Y102397D01*
X161001Y102397D01*
X174824Y88574D01*
X174824Y69026D01*
X173283Y67486D01*
X173261Y67459D01*
X173235Y67436D01*
X173117Y67287D01*
X172995Y67141D01*
X172977Y67110D01*
X172956Y67083D01*
X172866Y66916D01*
X172771Y66750D01*
X172760Y66717D01*
X172743Y66687D01*
X172684Y66506D01*
X172620Y66325D01*
X172615Y66291D01*
X172604Y66258D01*
X172578Y66069D01*
X172547Y65881D01*
X172547Y65847D01*
X172543Y65812D01*
X172550Y65621D01*
X172553Y65431D01*
X172560Y65397D01*
X172561Y65362D01*
X172602Y65176D01*
X172639Y64989D01*
X172651Y64957D01*
X172659Y64923D01*
X172732Y64746D01*
X172801Y64569D01*
X172819Y64539D01*
X172832Y64507D01*
X172936Y64347D01*
X173035Y64184D01*
X173058Y64158D01*
X173076Y64129D01*
X173283Y63895D01*
X195338Y41840D01*
X195464Y41735D01*
X195585Y41623D01*
X195636Y41591D01*
X195683Y41552D01*
X195826Y41470D01*
X195965Y41382D01*
X196021Y41358D01*
X196074Y41328D01*
X196229Y41273D01*
X196381Y41211D01*
X196441Y41198D01*
X196499Y41177D01*
X196661Y41151D01*
X196822Y41116D01*
X196899Y41111D01*
X196943Y41104D01*
X197004Y41105D01*
X197133Y41097D01*
X243732Y41097D01*
X243767Y41100D01*
X243801Y41098D01*
X243990Y41120D01*
X244181Y41137D01*
X244214Y41146D01*
X244248Y41150D01*
X244431Y41205D01*
X244615Y41255D01*
X244646Y41270D01*
X244679Y41280D01*
X244850Y41367D01*
X245022Y41449D01*
X245050Y41469D01*
X245081Y41484D01*
X245233Y41600D01*
X245388Y41711D01*
X245412Y41736D01*
X245439Y41756D01*
X245568Y41896D01*
X245702Y42033D01*
X245721Y42062D01*
X245745Y42088D01*
X245847Y42249D01*
X245954Y42406D01*
X245968Y42438D01*
X245986Y42467D01*
X246059Y42644D01*
X246136Y42818D01*
X246144Y42852D01*
X246157Y42884D01*
X246197Y43071D01*
X246243Y43256D01*
X246245Y43290D01*
X246252Y43324D01*
X246271Y43636D01*
X246271Y46014D01*
X247057Y47909D01*
X247085Y47999D01*
X247122Y48085D01*
X247152Y48213D01*
X247191Y48339D01*
X247203Y48432D01*
X247225Y48524D01*
X247231Y48655D01*
X247248Y48786D01*
X247243Y48880D01*
X247248Y48973D01*
X247232Y49104D01*
X247225Y49235D01*
X247204Y49327D01*
X247192Y49420D01*
X247153Y49546D01*
X247123Y49674D01*
X247086Y49760D01*
X247058Y49850D01*
X246997Y49967D01*
X246945Y50088D01*
X246893Y50166D01*
X246850Y50249D01*
X246769Y50354D01*
X246697Y50463D01*
X246632Y50531D01*
X246574Y50606D01*
X246477Y50694D01*
X246386Y50789D01*
X246310Y50845D01*
X246241Y50908D01*
X246067Y51023D01*
X246023Y51055D01*
X246005Y51064D01*
X245980Y51080D01*
X245893Y51131D01*
X245420Y51604D01*
X245085Y52183D01*
X244992Y52530D01*
X244988Y52541D01*
X244986Y52553D01*
X244911Y52753D01*
X244838Y52953D01*
X244832Y52963D01*
X244828Y52974D01*
X244719Y53157D01*
X244611Y53342D01*
X244603Y53351D01*
X244597Y53361D01*
X244458Y53522D01*
X244319Y53685D01*
X244310Y53692D01*
X244302Y53701D01*
X244136Y53835D01*
X243971Y53971D01*
X243961Y53976D01*
X243952Y53984D01*
X243764Y54086D01*
X243578Y54190D01*
X243567Y54194D01*
X243557Y54200D01*
X243354Y54268D01*
X243152Y54337D01*
X243141Y54339D01*
X243130Y54343D01*
X242917Y54374D01*
X242707Y54407D01*
X242696Y54407D01*
X242684Y54408D01*
X242471Y54401D01*
X242257Y54397D01*
X242246Y54394D01*
X242234Y54394D01*
X242025Y54349D01*
X241816Y54307D01*
X241805Y54303D01*
X241794Y54300D01*
X241596Y54220D01*
X241397Y54141D01*
X241387Y54135D01*
X241377Y54131D01*
X241196Y54016D01*
X241015Y53904D01*
X241006Y53896D01*
X240996Y53890D01*
X240838Y53745D01*
X240680Y53602D01*
X240673Y53593D01*
X240664Y53585D01*
X240535Y53416D01*
X240404Y53247D01*
X240399Y53237D01*
X240392Y53227D01*
X240294Y53037D01*
X240195Y52848D01*
X240191Y52837D01*
X240186Y52827D01*
X240087Y52530D01*
X240021Y52283D01*
X239686Y51704D01*
X239213Y51230D01*
X238634Y50896D01*
X237988Y50723D01*
X235692Y50723D01*
X235692Y57263D01*
X235689Y57298D01*
X235691Y57332D01*
X235669Y57522D01*
X235652Y57712D01*
X235643Y57745D01*
X235639Y57780D01*
X235584Y57963D01*
X235534Y58146D01*
X235519Y58177D01*
X235509Y58211D01*
X235422Y58381D01*
X235341Y58553D01*
X235320Y58581D01*
X235305Y58612D01*
X235189Y58764D01*
X235078Y58919D01*
X235054Y58943D01*
X235033Y58971D01*
X234893Y59100D01*
X234756Y59233D01*
X234727Y59252D01*
X234702Y59276D01*
X234541Y59378D01*
X234383Y59485D01*
X234351Y59499D01*
X234322Y59518D01*
X234145Y59590D01*
X233971Y59667D01*
X233937Y59675D01*
X233905Y59689D01*
X233719Y59729D01*
X233533Y59774D01*
X233499Y59776D01*
X233465Y59783D01*
X233153Y59803D01*
X233118Y59799D01*
X233084Y59802D01*
X232894Y59780D01*
X232704Y59763D01*
X232671Y59754D01*
X232636Y59750D01*
X232454Y59694D01*
X232270Y59644D01*
X232239Y59629D01*
X232205Y59619D01*
X232035Y59532D01*
X231863Y59451D01*
X231835Y59431D01*
X231804Y59415D01*
X231652Y59300D01*
X231497Y59189D01*
X231473Y59164D01*
X231445Y59143D01*
X231316Y59003D01*
X231183Y58866D01*
X231164Y58837D01*
X231140Y58812D01*
X231038Y58651D01*
X230931Y58493D01*
X230917Y58461D01*
X230898Y58432D01*
X230826Y58256D01*
X230749Y58081D01*
X230741Y58047D01*
X230727Y58015D01*
X230687Y57829D01*
X230642Y57644D01*
X230640Y57609D01*
X230633Y57575D01*
X230614Y57263D01*
X230614Y50723D01*
X228318Y50723D01*
X227672Y50896D01*
X227093Y51230D01*
X226620Y51704D01*
X226285Y52283D01*
X226112Y52929D01*
X226112Y56471D01*
X226101Y56600D01*
X226099Y56730D01*
X226081Y56824D01*
X226072Y56919D01*
X226038Y57045D01*
X226013Y57172D01*
X225979Y57261D01*
X225954Y57353D01*
X225898Y57471D01*
X225851Y57592D01*
X225801Y57674D01*
X225760Y57760D01*
X225685Y57866D01*
X225617Y57977D01*
X225554Y58048D01*
X225498Y58126D01*
X225405Y58217D01*
X225319Y58314D01*
X225244Y58374D01*
X225176Y58440D01*
X225068Y58513D01*
X224966Y58594D01*
X224882Y58639D01*
X224803Y58692D01*
X224684Y58745D01*
X224569Y58806D01*
X224478Y58836D01*
X224391Y58875D01*
X224264Y58905D01*
X224141Y58946D01*
X224046Y58959D01*
X223953Y58981D01*
X223824Y58989D01*
X223695Y59007D01*
X223599Y59003D01*
X223504Y59009D01*
X223375Y58994D01*
X223245Y58989D01*
X223152Y58968D01*
X223057Y58957D01*
X222932Y58919D01*
X222805Y58891D01*
X222717Y58854D01*
X222626Y58826D01*
X222510Y58767D01*
X222390Y58717D01*
X222310Y58665D01*
X222224Y58622D01*
X222121Y58544D01*
X222012Y58473D01*
X221914Y58387D01*
X221866Y58350D01*
X221835Y58317D01*
X221777Y58266D01*
X221106Y57595D01*
X218866Y56667D01*
X207440Y56667D01*
X205199Y57595D01*
X203484Y59310D01*
X202556Y61551D01*
X202556Y71976D01*
X203484Y74217D01*
X204160Y74893D01*
X204266Y75019D01*
X204377Y75140D01*
X204410Y75191D01*
X204449Y75238D01*
X204530Y75381D01*
X204619Y75520D01*
X204642Y75576D01*
X204672Y75629D01*
X204727Y75784D01*
X204790Y75936D01*
X204803Y75996D01*
X204823Y76053D01*
X204850Y76216D01*
X204885Y76376D01*
X204889Y76453D01*
X204897Y76498D01*
X204896Y76559D01*
X204904Y76688D01*
X204904Y78762D01*
X204885Y78974D01*
X204868Y79184D01*
X204865Y79197D01*
X204864Y79210D01*
X204808Y79416D01*
X204754Y79620D01*
X204749Y79632D01*
X204745Y79645D01*
X204655Y79835D01*
X204565Y80029D01*
X204558Y80040D01*
X204552Y80051D01*
X204429Y80223D01*
X204307Y80397D01*
X204298Y80407D01*
X204290Y80417D01*
X204137Y80566D01*
X203987Y80715D01*
X203977Y80722D01*
X203967Y80731D01*
X203791Y80850D01*
X203617Y80971D01*
X203603Y80978D01*
X203594Y80984D01*
X203558Y80999D01*
X203336Y81108D01*
X202095Y81622D01*
X201061Y82656D01*
X200971Y82731D01*
X200888Y82813D01*
X200799Y82875D01*
X200716Y82945D01*
X200614Y83003D01*
X200518Y83069D01*
X200379Y83137D01*
X200325Y83168D01*
X200290Y83180D01*
X200237Y83207D01*
X197296Y84425D01*
X155761Y125960D01*
X155635Y126065D01*
X155514Y126177D01*
X155462Y126209D01*
X155416Y126249D01*
X155273Y126330D01*
X155134Y126418D01*
X155078Y126442D01*
X155025Y126472D01*
X154870Y126527D01*
X154718Y126589D01*
X154658Y126602D01*
X154600Y126623D01*
X154438Y126650D01*
X154277Y126684D01*
X154200Y126689D01*
X154156Y126696D01*
X154095Y126695D01*
X153965Y126703D01*
X144524Y126703D01*
X133630Y137597D01*
X133630Y147039D01*
X133615Y147202D01*
X133609Y147367D01*
X133596Y147426D01*
X133590Y147487D01*
X133547Y147646D01*
X133511Y147806D01*
X133488Y147863D01*
X133472Y147922D01*
X133401Y148070D01*
X133338Y148222D01*
X133304Y148273D01*
X133278Y148328D01*
X133183Y148462D01*
X133093Y148600D01*
X133042Y148658D01*
X133016Y148694D01*
X132972Y148737D01*
X132886Y148834D01*
X62658Y219062D01*
X62559Y219146D01*
X62465Y219236D01*
X62386Y219290D01*
X62313Y219351D01*
X62200Y219416D01*
X62092Y219489D01*
X62005Y219527D01*
X61922Y219575D01*
X61800Y219618D01*
X61681Y219671D01*
X61588Y219693D01*
X61498Y219725D01*
X61369Y219747D01*
X61243Y219777D01*
X61148Y219783D01*
X61053Y219799D01*
X60923Y219797D01*
X60794Y219805D01*
X60699Y219794D01*
X60603Y219793D01*
X60476Y219768D01*
X60346Y219753D01*
X60255Y219725D01*
X60161Y219707D01*
X60040Y219660D01*
X59915Y219623D01*
X59830Y219579D01*
X59741Y219545D01*
X59630Y219477D01*
X59514Y219418D01*
X59438Y219361D01*
X59356Y219311D01*
X59259Y219225D01*
X59155Y219146D01*
X59091Y219076D01*
X59019Y219013D01*
X58939Y218911D01*
X58850Y218815D01*
X58799Y218734D01*
X58740Y218660D01*
X58678Y218545D01*
X58608Y218435D01*
X58572Y218347D01*
X58527Y218263D01*
X58487Y218139D01*
X58437Y218019D01*
X58417Y217925D01*
X58388Y217835D01*
X58370Y217706D01*
X58343Y217579D01*
X58335Y217449D01*
X58326Y217389D01*
X58328Y217344D01*
X58324Y217267D01*
X58324Y204926D01*
X44501Y191103D01*
X24953Y191103D01*
X19159Y196897D01*
X19055Y196984D01*
X18957Y197079D01*
X18882Y197128D01*
X18814Y197186D01*
X18696Y197253D01*
X18582Y197329D01*
X18500Y197365D01*
X18423Y197409D01*
X18295Y197455D01*
X18170Y197509D01*
X18083Y197530D01*
X17999Y197560D01*
X17864Y197582D01*
X17732Y197614D01*
X17643Y197619D01*
X17554Y197633D01*
X17418Y197632D01*
X17282Y197639D01*
X17194Y197629D01*
X17104Y197627D01*
X16970Y197602D01*
X16835Y197585D01*
X16750Y197559D01*
X16662Y197542D01*
X16535Y197493D01*
X16405Y197453D01*
X16326Y197412D01*
X16242Y197380D01*
X16126Y197309D01*
X16005Y197246D01*
X15934Y197192D01*
X15857Y197146D01*
X15755Y197055D01*
X15647Y196973D01*
X15587Y196907D01*
X15520Y196847D01*
X15436Y196741D01*
X15344Y196640D01*
X15296Y196564D01*
X15241Y196494D01*
X15176Y196374D01*
X15104Y196259D01*
X15070Y196176D01*
X15028Y196097D01*
X14986Y195968D01*
X14935Y195842D01*
X14916Y195754D01*
X14889Y195669D01*
X14870Y195534D01*
X14842Y195401D01*
X14835Y195282D01*
X14827Y195223D01*
X14829Y195175D01*
X14824Y195089D01*
X15185Y120547D01*
X15197Y120424D01*
X15198Y120300D01*
X15218Y120200D01*
X15227Y120099D01*
X15260Y119980D01*
X15284Y119858D01*
X15321Y119763D01*
X15348Y119665D01*
X15402Y119553D01*
X15446Y119438D01*
X15499Y119351D01*
X15543Y119259D01*
X15616Y119159D01*
X15680Y119053D01*
X15747Y118977D01*
X15807Y118895D01*
X15896Y118809D01*
X15978Y118716D01*
X16058Y118653D01*
X16131Y118582D01*
X16234Y118513D01*
X16332Y118436D01*
X16421Y118389D01*
X16506Y118332D01*
X16619Y118282D01*
X16728Y118224D01*
X16825Y118192D01*
X16918Y118152D01*
X17039Y118123D01*
X17157Y118085D01*
X17257Y118071D01*
X17356Y118047D01*
X17480Y118040D01*
X17603Y118023D01*
X17704Y118027D01*
X17806Y118022D01*
X17929Y118037D01*
X18053Y118042D01*
X18152Y118064D01*
X18253Y118076D01*
X18371Y118112D01*
X18492Y118139D01*
X18586Y118178D01*
X18683Y118208D01*
X18793Y118265D01*
X18908Y118313D01*
X18993Y118368D01*
X19083Y118415D01*
X19182Y118490D01*
X19286Y118557D01*
X19391Y118650D01*
X19441Y118688D01*
X19468Y118719D01*
X19520Y118764D01*
X24953Y124197D01*
X44501Y124197D01*
X58324Y110374D01*
X58324Y90826D01*
X44501Y77003D01*
X24953Y77003D01*
X19714Y82242D01*
X19610Y82329D01*
X19512Y82424D01*
X19437Y82474D01*
X19369Y82531D01*
X19251Y82598D01*
X19137Y82674D01*
X19055Y82710D01*
X18978Y82754D01*
X18849Y82800D01*
X18725Y82854D01*
X18638Y82875D01*
X18553Y82905D01*
X18419Y82927D01*
X18287Y82959D01*
X18197Y82964D01*
X18109Y82979D01*
X17973Y82977D01*
X17837Y82984D01*
X17749Y82974D01*
X17659Y82973D01*
X17525Y82947D01*
X17390Y82930D01*
X17305Y82904D01*
X17217Y82887D01*
X17090Y82838D01*
X16960Y82798D01*
X16880Y82757D01*
X16797Y82725D01*
X16680Y82654D01*
X16560Y82592D01*
X16489Y82537D01*
X16412Y82491D01*
X16310Y82401D01*
X16202Y82318D01*
X16142Y82252D01*
X16075Y82193D01*
X15990Y82086D01*
X15899Y81985D01*
X15851Y81910D01*
X15795Y81839D01*
X15731Y81719D01*
X15659Y81604D01*
X15625Y81521D01*
X15583Y81443D01*
X15541Y81313D01*
X15490Y81187D01*
X15471Y81099D01*
X15444Y81014D01*
X15425Y80880D01*
X15397Y80746D01*
X15390Y80627D01*
X15382Y80568D01*
X15384Y80520D01*
X15379Y80434D01*
X15699Y14275D01*
X15702Y14248D01*
X15700Y14221D01*
X15723Y14024D01*
X15742Y13827D01*
X15749Y13801D01*
X15752Y13774D01*
X15809Y13584D01*
X15862Y13393D01*
X15874Y13369D01*
X15882Y13343D01*
X15971Y13166D01*
X16058Y12988D01*
X16074Y12965D01*
X16086Y12941D01*
X16205Y12784D01*
X16321Y12623D01*
X16341Y12604D01*
X16357Y12582D01*
X16503Y12448D01*
X16646Y12310D01*
X16668Y12295D01*
X16688Y12277D01*
X16855Y12170D01*
X17020Y12060D01*
X17045Y12049D01*
X17068Y12034D01*
X17250Y11959D01*
X17433Y11880D01*
X17459Y11873D01*
X17484Y11863D01*
X17678Y11821D01*
X17871Y11775D01*
X17898Y11774D01*
X17924Y11768D01*
X18236Y11748D01*
X31146Y11736D01*
X31229Y11743D01*
G37*
G36*
X524226Y361808D02*
X524226Y361808D01*
X524357Y361810D01*
X524450Y361828D01*
X524545Y361837D01*
X524671Y361871D01*
X524799Y361896D01*
X524888Y361930D01*
X524980Y361955D01*
X525097Y362011D01*
X525219Y362058D01*
X525300Y362108D01*
X525386Y362149D01*
X525492Y362224D01*
X525603Y362292D01*
X525675Y362355D01*
X525753Y362411D01*
X525843Y362504D01*
X525941Y362590D01*
X526000Y362665D01*
X526067Y362733D01*
X526140Y362841D01*
X526220Y362943D01*
X526265Y363027D01*
X526319Y363106D01*
X526371Y363225D01*
X526433Y363340D01*
X526462Y363431D01*
X526501Y363518D01*
X526532Y363645D01*
X526572Y363768D01*
X526585Y363863D01*
X526608Y363956D01*
X526616Y364085D01*
X526633Y364214D01*
X526629Y364310D01*
X526635Y364405D01*
X526620Y364534D01*
X526615Y364664D01*
X526594Y364757D01*
X526583Y364852D01*
X526546Y364977D01*
X526517Y365104D01*
X526481Y365192D01*
X526453Y365283D01*
X526394Y365399D01*
X526344Y365519D01*
X526292Y365600D01*
X526249Y365685D01*
X526170Y365788D01*
X526099Y365897D01*
X526013Y365995D01*
X525977Y366043D01*
X525944Y366074D01*
X525893Y366132D01*
X516731Y375293D01*
X516704Y375315D01*
X516682Y375341D01*
X516532Y375459D01*
X516386Y375582D01*
X516355Y375599D01*
X516328Y375621D01*
X516160Y375711D01*
X515995Y375805D01*
X515962Y375817D01*
X515932Y375833D01*
X515750Y375892D01*
X515570Y375956D01*
X515536Y375962D01*
X515503Y375972D01*
X515315Y375998D01*
X515126Y376030D01*
X515092Y376029D01*
X515057Y376034D01*
X514867Y376026D01*
X514676Y376023D01*
X514642Y376017D01*
X514607Y376015D01*
X514421Y375974D01*
X514234Y375938D01*
X514202Y375925D01*
X514168Y375918D01*
X513992Y375844D01*
X513814Y375776D01*
X513784Y375757D01*
X513752Y375744D01*
X513592Y375641D01*
X513429Y375542D01*
X513403Y375519D01*
X513374Y375500D01*
X513140Y375293D01*
X506924Y369077D01*
X504939Y369077D01*
X504939Y380000D01*
X504936Y380034D01*
X504938Y380069D01*
X504916Y380258D01*
X504899Y380448D01*
X504890Y380482D01*
X504886Y380516D01*
X504831Y380699D01*
X504781Y380883D01*
X504766Y380914D01*
X504756Y380947D01*
X504669Y381118D01*
X504588Y381289D01*
X504567Y381317D01*
X504552Y381348D01*
X504436Y381500D01*
X504325Y381655D01*
X504325Y381656D01*
X504301Y381680D01*
X504280Y381707D01*
X504279Y381707D01*
X504139Y381837D01*
X504002Y381970D01*
X503974Y381989D01*
X503948Y382013D01*
X503787Y382115D01*
X503629Y382222D01*
X503598Y382236D01*
X503568Y382254D01*
X503392Y382327D01*
X503217Y382404D01*
X503184Y382412D01*
X503152Y382425D01*
X502965Y382466D01*
X502780Y382511D01*
X502746Y382513D01*
X502712Y382520D01*
X502400Y382539D01*
X491477Y382539D01*
X491477Y384524D01*
X497171Y390218D01*
X497255Y390318D01*
X497346Y390411D01*
X497399Y390491D01*
X497460Y390564D01*
X497525Y390677D01*
X497598Y390784D01*
X497636Y390872D01*
X497684Y390955D01*
X497727Y391077D01*
X497780Y391196D01*
X497803Y391289D01*
X497835Y391379D01*
X497856Y391507D01*
X497887Y391634D01*
X497892Y391729D01*
X497908Y391823D01*
X497906Y391953D01*
X497914Y392083D01*
X497903Y392178D01*
X497902Y392274D01*
X497877Y392401D01*
X497862Y392530D01*
X497834Y392622D01*
X497816Y392716D01*
X497770Y392837D01*
X497732Y392961D01*
X497688Y393046D01*
X497654Y393136D01*
X497586Y393247D01*
X497527Y393363D01*
X497470Y393439D01*
X497420Y393520D01*
X497334Y393618D01*
X497255Y393721D01*
X497185Y393786D01*
X497122Y393858D01*
X497020Y393938D01*
X496924Y394027D01*
X496844Y394078D01*
X496769Y394137D01*
X496654Y394198D01*
X496545Y394268D01*
X496456Y394305D01*
X496372Y394350D01*
X496248Y394390D01*
X496128Y394439D01*
X496035Y394459D01*
X495944Y394489D01*
X495815Y394507D01*
X495688Y394534D01*
X495558Y394542D01*
X495498Y394550D01*
X495453Y394549D01*
X495376Y394553D01*
X471207Y394553D01*
X471044Y394539D01*
X470879Y394532D01*
X470820Y394519D01*
X470759Y394513D01*
X470600Y394470D01*
X470440Y394434D01*
X470383Y394411D01*
X470325Y394395D01*
X470176Y394324D01*
X470024Y394261D01*
X469973Y394228D01*
X469918Y394201D01*
X469784Y394106D01*
X469646Y394016D01*
X469588Y393965D01*
X469552Y393939D01*
X469509Y393896D01*
X469412Y393810D01*
X465635Y390032D01*
X465613Y390006D01*
X465586Y389983D01*
X465468Y389833D01*
X465346Y389687D01*
X465329Y389657D01*
X465307Y389630D01*
X465217Y389461D01*
X465122Y389296D01*
X465111Y389263D01*
X465094Y389233D01*
X465036Y389052D01*
X464972Y388872D01*
X464966Y388838D01*
X464955Y388805D01*
X464929Y388615D01*
X464898Y388428D01*
X464899Y388393D01*
X464894Y388359D01*
X464902Y388168D01*
X464904Y387977D01*
X464911Y387943D01*
X464912Y387909D01*
X464954Y387722D01*
X464990Y387535D01*
X465002Y387503D01*
X465010Y387469D01*
X465083Y387293D01*
X465152Y387115D01*
X465170Y387086D01*
X465183Y387054D01*
X465287Y386894D01*
X465386Y386731D01*
X465409Y386704D01*
X465428Y386675D01*
X465635Y386441D01*
X466079Y385997D01*
X466079Y374003D01*
X458207Y366132D01*
X458124Y366032D01*
X458033Y365939D01*
X457980Y365859D01*
X457919Y365786D01*
X457854Y365673D01*
X457781Y365566D01*
X457743Y365478D01*
X457695Y365395D01*
X457652Y365273D01*
X457599Y365154D01*
X457576Y365061D01*
X457544Y364971D01*
X457523Y364843D01*
X457492Y364716D01*
X457487Y364621D01*
X457471Y364527D01*
X457473Y364397D01*
X457465Y364267D01*
X457476Y364172D01*
X457477Y364076D01*
X457502Y363949D01*
X457517Y363820D01*
X457544Y363728D01*
X457563Y363634D01*
X457609Y363513D01*
X457647Y363389D01*
X457690Y363304D01*
X457725Y363214D01*
X457792Y363103D01*
X457851Y362987D01*
X457909Y362911D01*
X457959Y362830D01*
X458045Y362732D01*
X458123Y362629D01*
X458194Y362564D01*
X458257Y362492D01*
X458359Y362412D01*
X458455Y362323D01*
X458535Y362272D01*
X458610Y362213D01*
X458725Y362152D01*
X458834Y362082D01*
X458923Y362045D01*
X459007Y362000D01*
X459131Y361960D01*
X459251Y361911D01*
X459344Y361891D01*
X459435Y361861D01*
X459564Y361843D01*
X459691Y361816D01*
X459821Y361808D01*
X459881Y361800D01*
X459926Y361801D01*
X460003Y361797D01*
X524097Y361797D01*
X524226Y361808D01*
G37*
%LPC*%
G36*
X179000Y390039D02*
X179000Y390039D01*
X161521Y390039D01*
X161964Y391400D01*
X162690Y392825D01*
X163630Y394119D01*
X164761Y395250D01*
X165953Y396116D01*
X165996Y396154D01*
X166043Y396185D01*
X166165Y396301D01*
X166292Y396412D01*
X166328Y396456D01*
X166369Y396495D01*
X166468Y396631D01*
X166574Y396764D01*
X166601Y396813D01*
X166634Y396859D01*
X166708Y397010D01*
X166790Y397159D01*
X166807Y397213D01*
X166832Y397263D01*
X166878Y397426D01*
X166932Y397586D01*
X166940Y397642D01*
X166955Y397696D01*
X166972Y397865D01*
X166996Y398032D01*
X166994Y398088D01*
X167000Y398144D01*
X166986Y398313D01*
X166981Y398482D01*
X166969Y398537D01*
X166964Y398593D01*
X166922Y398757D01*
X166886Y398922D01*
X166865Y398974D01*
X166850Y399029D01*
X166779Y399182D01*
X166715Y399339D01*
X166685Y399386D01*
X166661Y399438D01*
X166564Y399576D01*
X166473Y399719D01*
X166435Y399760D01*
X166403Y399806D01*
X166283Y399925D01*
X166168Y400050D01*
X166123Y400084D01*
X166084Y400124D01*
X165944Y400220D01*
X165810Y400322D01*
X165760Y400347D01*
X165713Y400380D01*
X165432Y400517D01*
X163610Y401271D01*
X159751Y405130D01*
X157663Y410172D01*
X157663Y415628D01*
X159751Y420670D01*
X163610Y424529D01*
X168652Y426617D01*
X189348Y426617D01*
X194390Y424529D01*
X198249Y420670D01*
X200337Y415628D01*
X200337Y410172D01*
X198249Y405130D01*
X194390Y401271D01*
X192568Y400517D01*
X192518Y400491D01*
X192465Y400471D01*
X192318Y400386D01*
X192169Y400308D01*
X192124Y400274D01*
X192075Y400245D01*
X191946Y400136D01*
X191813Y400032D01*
X191775Y399991D01*
X191732Y399954D01*
X191624Y399824D01*
X191511Y399698D01*
X191481Y399650D01*
X191445Y399607D01*
X191362Y399459D01*
X191273Y399316D01*
X191252Y399264D01*
X191225Y399214D01*
X191169Y399055D01*
X191106Y398898D01*
X191095Y398842D01*
X191077Y398789D01*
X191050Y398622D01*
X191016Y398456D01*
X191015Y398400D01*
X191006Y398344D01*
X191010Y398175D01*
X191006Y398006D01*
X191014Y397951D01*
X191015Y397894D01*
X191048Y397729D01*
X191074Y397561D01*
X191093Y397508D01*
X191104Y397453D01*
X191166Y397296D01*
X191221Y397136D01*
X191248Y397086D01*
X191269Y397034D01*
X191358Y396890D01*
X191440Y396742D01*
X191476Y396699D01*
X191505Y396651D01*
X191618Y396525D01*
X191725Y396394D01*
X191768Y396357D01*
X191806Y396315D01*
X192047Y396116D01*
X193239Y395250D01*
X194370Y394119D01*
X195310Y392825D01*
X196036Y391400D01*
X196479Y390039D01*
X179000Y390039D01*
X179000Y390039D01*
G37*
%LPD*%
%LPC*%
G36*
X168652Y348383D02*
X168652Y348383D01*
X163610Y350471D01*
X159751Y354330D01*
X157663Y359372D01*
X157663Y364828D01*
X159751Y369870D01*
X163610Y373729D01*
X165432Y374483D01*
X165482Y374509D01*
X165535Y374529D01*
X165682Y374614D01*
X165831Y374692D01*
X165876Y374726D01*
X165925Y374755D01*
X166054Y374864D01*
X166187Y374968D01*
X166225Y375009D01*
X166268Y375046D01*
X166376Y375176D01*
X166489Y375302D01*
X166519Y375350D01*
X166555Y375393D01*
X166638Y375541D01*
X166727Y375684D01*
X166748Y375736D01*
X166775Y375786D01*
X166831Y375945D01*
X166894Y376102D01*
X166905Y376158D01*
X166923Y376211D01*
X166950Y376378D01*
X166984Y376544D01*
X166985Y376600D01*
X166994Y376656D01*
X166990Y376825D01*
X166994Y376994D01*
X166986Y377049D01*
X166985Y377106D01*
X166952Y377271D01*
X166926Y377439D01*
X166907Y377492D01*
X166896Y377547D01*
X166834Y377704D01*
X166779Y377864D01*
X166752Y377914D01*
X166731Y377966D01*
X166642Y378110D01*
X166560Y378258D01*
X166524Y378301D01*
X166495Y378349D01*
X166382Y378475D01*
X166275Y378606D01*
X166232Y378643D01*
X166194Y378685D01*
X165953Y378884D01*
X164761Y379750D01*
X163630Y380881D01*
X162690Y382175D01*
X161964Y383600D01*
X161521Y384961D01*
X179000Y384961D01*
X196479Y384961D01*
X196036Y383600D01*
X195310Y382175D01*
X194370Y380881D01*
X193239Y379750D01*
X192047Y378884D01*
X192004Y378846D01*
X191957Y378815D01*
X191835Y378699D01*
X191708Y378588D01*
X191672Y378544D01*
X191631Y378505D01*
X191532Y378369D01*
X191426Y378236D01*
X191399Y378187D01*
X191366Y378141D01*
X191292Y377990D01*
X191210Y377841D01*
X191193Y377787D01*
X191168Y377737D01*
X191122Y377574D01*
X191068Y377414D01*
X191060Y377358D01*
X191045Y377304D01*
X191028Y377135D01*
X191004Y376968D01*
X191006Y376912D01*
X191000Y376856D01*
X191014Y376687D01*
X191019Y376518D01*
X191031Y376463D01*
X191036Y376407D01*
X191078Y376243D01*
X191114Y376078D01*
X191135Y376026D01*
X191150Y375971D01*
X191221Y375818D01*
X191285Y375661D01*
X191315Y375614D01*
X191339Y375562D01*
X191436Y375424D01*
X191527Y375281D01*
X191565Y375240D01*
X191597Y375194D01*
X191717Y375075D01*
X191832Y374950D01*
X191877Y374916D01*
X191916Y374876D01*
X192056Y374780D01*
X192190Y374678D01*
X192240Y374653D01*
X192287Y374620D01*
X192568Y374483D01*
X194390Y373729D01*
X198249Y369870D01*
X200337Y364828D01*
X200337Y359372D01*
X198249Y354330D01*
X194390Y350471D01*
X189348Y348383D01*
X168652Y348383D01*
G37*
%LPD*%
%LPC*%
G36*
X230870Y284349D02*
X230870Y284349D01*
X226202Y286283D01*
X222629Y289856D01*
X220695Y294524D01*
X220695Y299576D01*
X222629Y304244D01*
X226202Y307817D01*
X230870Y309751D01*
X249130Y309751D01*
X253798Y307817D01*
X257371Y304244D01*
X259305Y299576D01*
X259305Y294524D01*
X257371Y289856D01*
X253798Y286283D01*
X249130Y284349D01*
X230870Y284349D01*
G37*
%LPD*%
%LPC*%
G36*
X85503Y387621D02*
X85503Y387621D01*
X77021Y396103D01*
X77021Y408097D01*
X85503Y416579D01*
X97497Y416579D01*
X105979Y408097D01*
X105979Y396103D01*
X97497Y387621D01*
X85503Y387621D01*
G37*
%LPD*%
G36*
X267407Y52948D02*
X267407Y52948D01*
X267442Y52946D01*
X267631Y52968D01*
X267821Y52985D01*
X267855Y52994D01*
X267889Y52998D01*
X268072Y53053D01*
X268256Y53103D01*
X268287Y53118D01*
X268320Y53128D01*
X268491Y53215D01*
X268662Y53297D01*
X268691Y53317D01*
X268722Y53332D01*
X268874Y53448D01*
X269029Y53559D01*
X269053Y53584D01*
X269080Y53604D01*
X269209Y53744D01*
X269343Y53881D01*
X269362Y53910D01*
X269375Y53924D01*
X277453Y53924D01*
X277487Y53927D01*
X277522Y53925D01*
X277711Y53947D01*
X277901Y53964D01*
X277935Y53973D01*
X277969Y53977D01*
X278152Y54033D01*
X278336Y54083D01*
X278367Y54097D01*
X278400Y54108D01*
X278571Y54194D01*
X278742Y54276D01*
X278770Y54296D01*
X278801Y54312D01*
X278953Y54427D01*
X279108Y54538D01*
X279132Y54563D01*
X279160Y54584D01*
X279289Y54724D01*
X279422Y54861D01*
X279442Y54890D01*
X279465Y54915D01*
X279568Y55076D01*
X279674Y55234D01*
X279688Y55266D01*
X279707Y55295D01*
X279779Y55471D01*
X279857Y55646D01*
X279865Y55679D01*
X279878Y55711D01*
X279918Y55898D01*
X279963Y56083D01*
X279965Y56118D01*
X279973Y56152D01*
X279992Y56463D01*
X279992Y56464D01*
X279989Y56498D01*
X279991Y56533D01*
X279969Y56722D01*
X279952Y56912D01*
X279943Y56946D01*
X279939Y56980D01*
X279884Y57163D01*
X279833Y57347D01*
X279819Y57378D01*
X279809Y57411D01*
X279722Y57582D01*
X279640Y57753D01*
X279620Y57781D01*
X279604Y57812D01*
X279489Y57964D01*
X279378Y58119D01*
X279353Y58144D01*
X279332Y58171D01*
X279192Y58300D01*
X279055Y58433D01*
X279027Y58453D01*
X279001Y58476D01*
X278840Y58579D01*
X278682Y58685D01*
X278651Y58699D01*
X278621Y58718D01*
X278445Y58791D01*
X278270Y58868D01*
X278237Y58876D01*
X278205Y58889D01*
X278018Y58929D01*
X277833Y58974D01*
X277799Y58976D01*
X277765Y58984D01*
X277453Y59003D01*
X269912Y59003D01*
X269912Y62298D01*
X270121Y63078D01*
X270140Y63118D01*
X270146Y63140D01*
X270155Y63162D01*
X270203Y63357D01*
X270254Y63553D01*
X270256Y63577D01*
X270262Y63599D01*
X270274Y63800D01*
X270290Y64002D01*
X270288Y64025D01*
X270289Y64049D01*
X270266Y64250D01*
X270246Y64450D01*
X270240Y64472D01*
X270237Y64496D01*
X270179Y64690D01*
X270124Y64883D01*
X270114Y64904D01*
X270107Y64927D01*
X270015Y65107D01*
X269927Y65288D01*
X269913Y65307D01*
X269903Y65328D01*
X269781Y65489D01*
X269662Y65652D01*
X269645Y65668D01*
X269631Y65687D01*
X269482Y65824D01*
X269336Y65963D01*
X269317Y65976D01*
X269300Y65992D01*
X269129Y66101D01*
X268961Y66212D01*
X268940Y66221D01*
X268920Y66234D01*
X268733Y66311D01*
X268548Y66391D01*
X268525Y66396D01*
X268503Y66405D01*
X268306Y66447D01*
X268110Y66493D01*
X268086Y66495D01*
X268063Y66500D01*
X267751Y66519D01*
X263482Y66519D01*
X263318Y66504D01*
X263154Y66498D01*
X263094Y66484D01*
X263034Y66479D01*
X262875Y66436D01*
X262714Y66400D01*
X262658Y66376D01*
X262599Y66360D01*
X262451Y66290D01*
X262299Y66226D01*
X262248Y66193D01*
X262193Y66167D01*
X262059Y66071D01*
X261921Y65982D01*
X261863Y65931D01*
X261826Y65905D01*
X261784Y65861D01*
X261687Y65775D01*
X260737Y64826D01*
X260632Y64700D01*
X260520Y64579D01*
X260488Y64527D01*
X260449Y64481D01*
X260367Y64338D01*
X260279Y64199D01*
X260255Y64143D01*
X260225Y64090D01*
X260170Y63935D01*
X260108Y63783D01*
X260095Y63723D01*
X260074Y63665D01*
X260048Y63503D01*
X260013Y63342D01*
X260008Y63265D01*
X260001Y63221D01*
X260002Y63160D01*
X259994Y63030D01*
X259994Y61203D01*
X252453Y61203D01*
X252419Y61200D01*
X252384Y61202D01*
X252195Y61180D01*
X252005Y61163D01*
X251971Y61154D01*
X251937Y61150D01*
X251754Y61095D01*
X251570Y61045D01*
X251539Y61030D01*
X251506Y61020D01*
X251335Y60933D01*
X251164Y60851D01*
X251136Y60831D01*
X251105Y60815D01*
X250953Y60700D01*
X250798Y60589D01*
X250774Y60564D01*
X250746Y60543D01*
X250617Y60403D01*
X250484Y60266D01*
X250464Y60238D01*
X250441Y60212D01*
X250338Y60051D01*
X250232Y59893D01*
X250218Y59862D01*
X250199Y59832D01*
X250127Y59656D01*
X250049Y59482D01*
X250041Y59448D01*
X250028Y59416D01*
X249988Y59229D01*
X249943Y59044D01*
X249941Y59010D01*
X249933Y58976D01*
X249914Y58664D01*
X249914Y58663D01*
X249917Y58629D01*
X249915Y58595D01*
X249915Y58594D01*
X249937Y58405D01*
X249954Y58215D01*
X249963Y58182D01*
X249967Y58147D01*
X250022Y57964D01*
X250072Y57781D01*
X250087Y57749D01*
X250097Y57716D01*
X250184Y57546D01*
X250266Y57374D01*
X250286Y57346D01*
X250302Y57315D01*
X250417Y57163D01*
X250528Y57008D01*
X250553Y56984D01*
X250574Y56956D01*
X250714Y56827D01*
X250851Y56694D01*
X250879Y56674D01*
X250905Y56651D01*
X251066Y56548D01*
X251224Y56442D01*
X251255Y56428D01*
X251285Y56409D01*
X251461Y56337D01*
X251636Y56259D01*
X251669Y56251D01*
X251701Y56238D01*
X251888Y56198D01*
X252073Y56153D01*
X252107Y56151D01*
X252141Y56143D01*
X252453Y56124D01*
X260023Y56124D01*
X260029Y56045D01*
X260032Y56033D01*
X260034Y56019D01*
X260090Y55814D01*
X260143Y55610D01*
X260149Y55598D01*
X260152Y55585D01*
X260243Y55394D01*
X260332Y55201D01*
X260340Y55190D01*
X260346Y55178D01*
X260468Y55007D01*
X260591Y54832D01*
X260600Y54823D01*
X260608Y54812D01*
X260760Y54665D01*
X260910Y54515D01*
X260921Y54508D01*
X260930Y54498D01*
X261105Y54380D01*
X261280Y54259D01*
X261295Y54252D01*
X261303Y54246D01*
X261339Y54230D01*
X261561Y54122D01*
X263937Y53138D01*
X264048Y53103D01*
X264156Y53059D01*
X264263Y53036D01*
X264366Y53003D01*
X264482Y52989D01*
X264597Y52964D01*
X264751Y52954D01*
X264813Y52947D01*
X264849Y52948D01*
X264909Y52945D01*
X267373Y52945D01*
X267407Y52948D01*
G37*
%LPC*%
G36*
X263939Y393929D02*
X263939Y393929D01*
X263939Y408869D01*
X265300Y408426D01*
X266725Y407700D01*
X268019Y406760D01*
X269150Y405629D01*
X270090Y404335D01*
X270816Y402910D01*
X271311Y401389D01*
X271561Y399810D01*
X271561Y393929D01*
X263939Y393929D01*
G37*
%LPD*%
%LPC*%
G36*
X263939Y388851D02*
X263939Y388851D01*
X271561Y388851D01*
X271561Y382970D01*
X271311Y381391D01*
X270816Y379870D01*
X270090Y378445D01*
X269150Y377151D01*
X268019Y376020D01*
X266725Y375080D01*
X265300Y374354D01*
X263939Y373911D01*
X263939Y388851D01*
G37*
%LPD*%
%LPC*%
G36*
X251239Y393929D02*
X251239Y393929D01*
X251239Y399810D01*
X251489Y401389D01*
X251984Y402910D01*
X252710Y404335D01*
X253650Y405629D01*
X254781Y406760D01*
X256075Y407700D01*
X257500Y408426D01*
X258861Y408869D01*
X258861Y393929D01*
X251239Y393929D01*
G37*
%LPD*%
%LPC*%
G36*
X257500Y374354D02*
X257500Y374354D01*
X256075Y375080D01*
X254781Y376020D01*
X253650Y377151D01*
X252710Y378445D01*
X251984Y379870D01*
X251489Y381391D01*
X251239Y382970D01*
X251239Y388851D01*
X258861Y388851D01*
X258861Y373911D01*
X257500Y374354D01*
G37*
%LPD*%
%LPC*%
G36*
X584739Y383639D02*
X584739Y383639D01*
X584739Y392023D01*
X586724Y392023D01*
X593123Y385624D01*
X593123Y383639D01*
X584739Y383639D01*
G37*
%LPD*%
%LPC*%
G36*
X94039Y353839D02*
X94039Y353839D01*
X94039Y362223D01*
X96024Y362223D01*
X102423Y355824D01*
X102423Y353839D01*
X94039Y353839D01*
G37*
%LPD*%
%LPC*%
G36*
X571277Y383639D02*
X571277Y383639D01*
X571277Y385624D01*
X577676Y392023D01*
X579661Y392023D01*
X579661Y383639D01*
X571277Y383639D01*
G37*
%LPD*%
%LPC*%
G36*
X584739Y370177D02*
X584739Y370177D01*
X584739Y378561D01*
X593123Y378561D01*
X593123Y376576D01*
X586724Y370177D01*
X584739Y370177D01*
G37*
%LPD*%
%LPC*%
G36*
X80577Y353839D02*
X80577Y353839D01*
X80577Y355824D01*
X86976Y362223D01*
X88961Y362223D01*
X88961Y353839D01*
X80577Y353839D01*
G37*
%LPD*%
%LPC*%
G36*
X94039Y340377D02*
X94039Y340377D01*
X94039Y348761D01*
X102423Y348761D01*
X102423Y346776D01*
X96024Y340377D01*
X94039Y340377D01*
G37*
%LPD*%
%LPC*%
G36*
X577676Y370177D02*
X577676Y370177D01*
X571277Y376576D01*
X571277Y378561D01*
X579661Y378561D01*
X579661Y370177D01*
X577676Y370177D01*
G37*
%LPD*%
%LPC*%
G36*
X497876Y369077D02*
X497876Y369077D01*
X491477Y375476D01*
X491477Y377461D01*
X499861Y377461D01*
X499861Y369077D01*
X497876Y369077D01*
G37*
%LPD*%
%LPC*%
G36*
X86976Y340377D02*
X86976Y340377D01*
X80577Y346776D01*
X80577Y348761D01*
X88961Y348761D01*
X88961Y340377D01*
X86976Y340377D01*
G37*
%LPD*%
%LPC*%
G36*
X486049Y87049D02*
X486049Y87049D01*
X486049Y93841D01*
X491135Y93841D01*
X491781Y93668D01*
X492360Y93333D01*
X492833Y92860D01*
X493168Y92281D01*
X493341Y91635D01*
X493341Y87049D01*
X486049Y87049D01*
G37*
%LPD*%
%LPC*%
G36*
X470259Y87049D02*
X470259Y87049D01*
X470259Y91635D01*
X470432Y92281D01*
X470767Y92860D01*
X471240Y93333D01*
X471819Y93668D01*
X472465Y93841D01*
X477551Y93841D01*
X477551Y87049D01*
X470259Y87049D01*
G37*
%LPD*%
%LPC*%
G36*
X486049Y71759D02*
X486049Y71759D01*
X486049Y78551D01*
X493341Y78551D01*
X493341Y73965D01*
X493168Y73319D01*
X492833Y72740D01*
X492360Y72267D01*
X491781Y71932D01*
X491135Y71759D01*
X486049Y71759D01*
G37*
%LPD*%
%LPC*%
G36*
X268749Y222959D02*
X268749Y222959D01*
X268749Y229751D01*
X276041Y229751D01*
X276041Y225165D01*
X275868Y224519D01*
X275533Y223940D01*
X275060Y223467D01*
X274481Y223132D01*
X273835Y222959D01*
X268749Y222959D01*
G37*
%LPD*%
%LPC*%
G36*
X255165Y222959D02*
X255165Y222959D01*
X254519Y223132D01*
X253940Y223467D01*
X253467Y223940D01*
X253132Y224519D01*
X252959Y225165D01*
X252959Y229751D01*
X260251Y229751D01*
X260251Y222959D01*
X255165Y222959D01*
G37*
%LPD*%
%LPC*%
G36*
X472465Y71759D02*
X472465Y71759D01*
X471819Y71932D01*
X471240Y72267D01*
X470767Y72740D01*
X470432Y73319D01*
X470259Y73965D01*
X470259Y78551D01*
X477551Y78551D01*
X477551Y71759D01*
X472465Y71759D01*
G37*
%LPD*%
%LPC*%
G36*
X452139Y105939D02*
X452139Y105939D01*
X452139Y112545D01*
X453388Y112545D01*
X458745Y107188D01*
X458745Y105939D01*
X452139Y105939D01*
G37*
%LPD*%
%LPC*%
G36*
X113623Y309174D02*
X113623Y309174D01*
X113623Y310317D01*
X118832Y315525D01*
X119975Y315525D01*
X119975Y309174D01*
X113623Y309174D01*
G37*
%LPD*%
%LPC*%
G36*
X300605Y273523D02*
X300605Y273523D01*
X300605Y279875D01*
X306956Y279875D01*
X306956Y278732D01*
X301748Y273523D01*
X300605Y273523D01*
G37*
%LPD*%
%LPC*%
G36*
X294383Y273523D02*
X294383Y273523D01*
X289175Y278732D01*
X289175Y279875D01*
X295526Y279875D01*
X295526Y273523D01*
X294383Y273523D01*
G37*
%LPD*%
%LPC*%
G36*
X118832Y297744D02*
X118832Y297744D01*
X113623Y302952D01*
X113623Y304095D01*
X119975Y304095D01*
X119975Y297744D01*
X118832Y297744D01*
G37*
%LPD*%
%LPC*%
G36*
X444604Y265683D02*
X444604Y265683D01*
X444604Y270684D01*
X447899Y270684D01*
X448546Y270511D01*
X449125Y270177D01*
X449598Y269704D01*
X449932Y269124D01*
X450106Y268478D01*
X450106Y265683D01*
X444604Y265683D01*
G37*
%LPD*%
%LPC*%
G36*
X475539Y195039D02*
X475539Y195039D01*
X475539Y200541D01*
X478335Y200541D01*
X478981Y200368D01*
X479560Y200033D01*
X480033Y199560D01*
X480368Y198981D01*
X480541Y198335D01*
X480541Y195039D01*
X475539Y195039D01*
G37*
%LPD*%
%LPC*%
G36*
X444039Y276959D02*
X444039Y276959D01*
X444039Y282461D01*
X449041Y282461D01*
X449041Y279165D01*
X448868Y278519D01*
X448533Y277940D01*
X448060Y277467D01*
X447481Y277132D01*
X446835Y276959D01*
X444039Y276959D01*
G37*
%LPD*%
%LPC*%
G36*
X445959Y194039D02*
X445959Y194039D01*
X445959Y196835D01*
X446132Y197481D01*
X446467Y198060D01*
X446940Y198533D01*
X447519Y198868D01*
X448165Y199041D01*
X451461Y199041D01*
X451461Y194039D01*
X445959Y194039D01*
G37*
%LPD*%
%LPC*%
G36*
X444604Y255603D02*
X444604Y255603D01*
X444604Y260604D01*
X450106Y260604D01*
X450106Y257809D01*
X449932Y257163D01*
X449598Y256584D01*
X449125Y256110D01*
X448546Y255776D01*
X447899Y255603D01*
X444604Y255603D01*
G37*
%LPD*%
%LPC*%
G36*
X360665Y287459D02*
X360665Y287459D01*
X360019Y287632D01*
X359440Y287967D01*
X358967Y288440D01*
X358632Y289019D01*
X358459Y289665D01*
X358459Y292961D01*
X363461Y292961D01*
X363461Y287459D01*
X360665Y287459D01*
G37*
%LPD*%
%LPC*%
G36*
X351039Y278589D02*
X351039Y278589D01*
X351039Y281591D01*
X356335Y281591D01*
X356981Y281418D01*
X357560Y281083D01*
X358033Y280610D01*
X358368Y280031D01*
X358541Y279385D01*
X358541Y278589D01*
X351039Y278589D01*
G37*
%LPD*%
%LPC*%
G36*
X338459Y278589D02*
X338459Y278589D01*
X338459Y279385D01*
X338632Y280031D01*
X338967Y280610D01*
X339440Y281083D01*
X340019Y281418D01*
X340665Y281591D01*
X345961Y281591D01*
X345961Y278589D01*
X338459Y278589D01*
G37*
%LPD*%
%LPC*%
G36*
X486959Y199039D02*
X486959Y199039D01*
X486959Y200835D01*
X487132Y201481D01*
X487467Y202060D01*
X487940Y202533D01*
X488519Y202868D01*
X489165Y203041D01*
X491461Y203041D01*
X491461Y199039D01*
X486959Y199039D01*
G37*
%LPD*%
D10*
X668173Y454655D02*
X3400Y456200D01*
X5600Y1600D01*
X665600Y1600D02*
X668173Y454655D01*
X666573Y955D02*
X5600Y1600D01*
D11*
X252453Y58664D03*
X252453Y75664D03*
D12*
X442065Y263144D03*
X425065Y263144D03*
D13*
X524241Y224739D03*
D14*
X547586Y224865D03*
D15*
X214049Y95791D03*
X214049Y136791D03*
D16*
X233153Y76264D03*
X233153Y57264D03*
X213153Y66764D03*
D11*
X466867Y54873D03*
X449867Y54873D03*
X277453Y56464D03*
X294453Y56464D03*
X277753Y77664D03*
X294753Y77664D03*
D17*
X591544Y168038D03*
X638823Y246856D03*
X639407Y358307D03*
X591655Y90724D03*
X638854Y419530D03*
X591261Y215381D03*
X639075Y191512D03*
X638072Y68226D03*
D18*
X449600Y103400D03*
X430550Y90700D03*
X449600Y78000D03*
D19*
X174627Y241200D03*
D20*
X152227Y145300D03*
D19*
X34727Y100600D03*
X151227Y78800D03*
X34727Y214700D03*
D20*
X152727Y187700D03*
D21*
X481800Y82800D03*
X522800Y82800D03*
D22*
X73700Y24000D03*
X47700Y24200D03*
X149800Y24400D03*
X99100Y24300D03*
X124200Y24300D03*
D23*
X261400Y383770D02*
X261400Y399010D01*
X337600Y381230D02*
X337600Y365990D01*
D14*
X69959Y305261D03*
D13*
X46614Y305135D03*
D24*
X531400Y381100D03*
X582200Y381100D03*
D23*
X186620Y412900D02*
X171380Y412900D01*
X171380Y387500D02*
X186620Y387500D01*
X186620Y362100D02*
X171380Y362100D01*
D25*
X91500Y402100D03*
X91500Y351300D03*
D14*
X145859Y306761D03*
D13*
X122514Y306635D03*
D24*
X451600Y380000D03*
X502400Y380000D03*
D15*
X403000Y109500D03*
X403000Y68500D03*
D21*
X302500Y126000D03*
X343500Y126000D03*
D26*
X348500Y250650D03*
X403500Y250650D03*
X348500Y237950D03*
X348500Y263350D03*
X348500Y276050D03*
X403500Y237950D03*
X403500Y263350D03*
X403500Y276050D03*
D12*
X300500Y257000D03*
X317500Y257000D03*
D21*
X264500Y234000D03*
X305500Y234000D03*
D27*
X381000Y202000D03*
X409000Y202000D03*
D12*
X390000Y312500D03*
X390000Y295500D03*
D11*
X424500Y285000D03*
X441500Y285000D03*
D28*
X297939Y305759D03*
D29*
X298065Y282414D03*
D30*
X246604Y297050D02*
X233396Y297050D01*
X233396Y258950D02*
X246604Y258950D01*
D11*
X366000Y295500D03*
X366000Y312500D03*
D30*
X461950Y313604D02*
X461950Y300396D01*
X500050Y300396D02*
X500050Y313604D01*
D16*
X494000Y177500D03*
X494000Y196500D03*
X514000Y187000D03*
D11*
X473000Y192500D03*
X473000Y175500D03*
D12*
X454000Y191500D03*
X454000Y174500D03*
D11*
X471500Y156000D03*
X454500Y156000D03*
D21*
X384500Y161000D03*
X425500Y161000D03*
D11*
X517500Y156000D03*
X500500Y156000D03*
D17*
X640000Y136000D03*
D15*
X540000Y134500D03*
X540000Y175500D03*
D31*
X251053Y57264D02*
X233153Y57264D01*
X251053Y57264D02*
X252453Y58664D01*
X254653Y56464D02*
X277453Y56464D01*
X254653Y56464D02*
X252453Y58664D01*
D32*
X207600Y53700D03*
D31*
X233153Y57253D02*
X233153Y57264D01*
X233153Y57253D02*
X229600Y53700D01*
X207600Y53700D01*
D33*
X226100Y219300D03*
D31*
X226100Y187920D01*
X226060Y185340D01*
D33*
X226060Y185340D03*
D34*
X214800Y208000D02*
X226100Y219300D01*
X214800Y208000D02*
X166000Y208000D01*
X122514Y251486D01*
X122514Y306635D01*
D31*
X249800Y219300D02*
X264500Y234000D01*
X249800Y219300D02*
X226100Y219300D01*
D34*
X449600Y103400D02*
X461200Y103400D01*
X481800Y82800D01*
X442065Y284435D02*
X441500Y285000D01*
X442065Y284435D02*
X442065Y263144D01*
D31*
X300500Y257000D02*
X300500Y279979D01*
X298065Y282414D01*
X366000Y293550D02*
X366000Y295500D01*
X366000Y293550D02*
X348500Y276050D01*
D34*
X304429Y276050D01*
X300500Y279979D01*
X528856Y263144D02*
X548000Y244000D01*
X547586Y243586D01*
X547586Y224865D01*
X528856Y263144D02*
X442065Y263144D01*
X473000Y192500D02*
X472000Y191500D01*
X454000Y191500D01*
X477000Y196500D02*
X494000Y196500D01*
X477000Y196500D02*
X473000Y192500D01*
X532721Y210000D02*
X547586Y224865D01*
X532721Y210000D02*
X497000Y210000D01*
X494000Y207000D01*
X494000Y196500D01*
D32*
X320062Y58162D03*
X257400Y43800D03*
D31*
X259000Y42200D01*
D32*
X104000Y154000D03*
X292280Y192720D03*
D31*
X295000Y190000D01*
X336000Y190000D02*
X352000Y172000D01*
X336000Y190000D02*
X295000Y190000D01*
D32*
X352000Y172000D03*
D31*
X292280Y192720D02*
X278000Y178440D01*
X278000Y112000D01*
X278000Y111000D01*
D32*
X278000Y112000D03*
D34*
X104000Y76000D02*
X104000Y154000D01*
X124200Y55800D02*
X124200Y24300D01*
X124200Y55800D02*
X104000Y76000D01*
D31*
X366000Y312500D02*
X390000Y312500D01*
D34*
X366000Y312500D02*
X304680Y312500D01*
X297939Y305759D01*
D31*
X320062Y58162D02*
X305700Y43800D01*
X257400Y43800D01*
D35*
X152727Y183673D02*
X152727Y187700D01*
X152727Y183673D02*
X200600Y135800D01*
X213039Y135800D01*
X214049Y136791D01*
X69959Y270467D02*
X69959Y305261D01*
X69959Y270467D02*
X152727Y187700D01*
D31*
X403500Y263350D02*
X403706Y263144D01*
X425065Y263144D01*
D34*
X253000Y173742D02*
X214049Y136791D01*
X253000Y173742D02*
X253000Y197000D01*
X263000Y207000D01*
X338000Y207000D01*
X425065Y227000D02*
X425065Y263144D01*
X425065Y227000D02*
X425065Y218065D01*
X409000Y202000D01*
X427326Y224739D02*
X524241Y224739D01*
X427326Y224739D02*
X425065Y227000D01*
X363000Y182000D02*
X338000Y207000D01*
X363000Y182000D02*
X394000Y182000D01*
X409000Y197000D01*
X409000Y202000D01*
D31*
X276853Y75664D02*
X252453Y75664D01*
X276853Y75664D02*
X277753Y77664D01*
X252453Y75664D02*
X233753Y75664D01*
X233153Y76264D01*
X294453Y76264D02*
X294453Y56464D01*
X294453Y76264D02*
X294753Y77664D01*
X343500Y87500D02*
X343500Y126000D01*
X343500Y87500D02*
X334000Y78000D01*
X295089Y78000D01*
X294753Y77664D01*
D34*
X449867Y77733D02*
X449867Y54873D01*
X449867Y77733D02*
X449600Y78000D01*
D36*
X589600Y88669D02*
X591655Y90724D01*
X589600Y88669D02*
X589600Y86700D01*
D37*
X589600Y88669D02*
X524931Y24000D01*
X189000Y24000D01*
X151227Y61773D02*
X151227Y78800D01*
X151227Y61773D02*
X189000Y24000D01*
D38*
X174627Y241200D02*
X174627Y294627D01*
X624100Y343000D02*
X639407Y358307D01*
X223000Y343000D02*
X174627Y294627D01*
X223000Y343000D02*
X624100Y343000D01*
D34*
X563000Y281900D01*
X563000Y198500D01*
X540000Y175500D01*
X508873Y54873D02*
X466867Y54873D01*
X508873Y54873D02*
X525000Y71000D01*
X522800Y73200D01*
X522800Y82800D01*
X591544Y135544D02*
X591544Y168038D01*
X538800Y82800D02*
X522800Y82800D01*
X538800Y82800D02*
X591544Y135544D01*
D31*
X213153Y66764D02*
X212600Y67317D01*
X212600Y92342D02*
X214049Y95791D01*
D35*
X213939Y93900D01*
X203627Y93900D01*
X152227Y145300D01*
X46614Y250913D02*
X46614Y305135D01*
X46614Y250913D02*
X152227Y145300D01*
D31*
X214049Y68765D02*
X212600Y67317D01*
X214049Y68765D02*
X214049Y95791D01*
D32*
X365000Y76000D03*
D31*
X369500Y76000D02*
X403000Y109500D01*
X369500Y76000D02*
X365000Y76000D01*
D34*
X403000Y68500D02*
X408350Y68500D01*
X430550Y90700D01*
D31*
X403500Y237950D02*
X403500Y250650D01*
X381000Y215450D02*
X381000Y202000D01*
X381000Y215450D02*
X403500Y237950D01*
X348500Y237950D01*
X348500Y263350D02*
X332350Y263350D01*
X327500Y258500D01*
X319000Y258500D01*
X317500Y257000D01*
X318000Y234000D02*
X305500Y234000D01*
X334650Y250650D02*
X348500Y250650D01*
X334650Y250650D02*
X318000Y234000D01*
X247950Y251000D02*
X240000Y258950D01*
X247950Y251000D02*
X280000Y251000D01*
X297000Y234000D01*
X305500Y234000D01*
X415550Y276050D02*
X424500Y285000D01*
X415550Y276050D02*
X403500Y276050D01*
X403500Y282000D02*
X390000Y295500D01*
X403500Y282000D02*
X403500Y276050D01*
X302500Y126000D02*
X302500Y105500D01*
X305000Y102000D01*
D32*
X305000Y102000D03*
D34*
X475000Y177500D02*
X494000Y177500D01*
X475000Y177500D02*
X473000Y175500D01*
X471500Y174000D02*
X471500Y156000D01*
X471500Y174000D02*
X473000Y175500D01*
X430500Y156000D02*
X425500Y161000D01*
X430500Y156000D02*
X454500Y156000D01*
X454000Y156500D02*
X454000Y174500D01*
X454000Y156500D02*
X454500Y156000D01*
X384500Y161000D02*
X380500Y157000D01*
D31*
X384500Y161000D02*
X366000Y161000D01*
X349000Y144000D01*
X331000Y144000D02*
X325000Y138000D01*
X325000Y107000D01*
X321000Y102000D01*
X331000Y144000D02*
X349000Y144000D01*
D32*
X321000Y102000D03*
D34*
X514000Y179000D02*
X514000Y187000D01*
X500500Y165500D02*
X500500Y156000D01*
X500500Y165500D02*
X514000Y179000D01*
X517500Y156000D02*
X539000Y134500D01*
X540000Y134500D01*
X545500Y140000D01*
X564000Y140000D01*
D32*
X564000Y140000D03*
D39*
X531400Y381100D02*
X531400Y397600D01*
X522000Y407000D01*
X465000Y407000D01*
X452000Y394000D01*
X452000Y380400D01*
X451600Y380000D01*
X343990Y380000D01*
X337600Y373610D01*
M02*
