G75*
%MOIN*%
%OFA0B0*%
%FSLAX25Y25*%
%IPPOS*%
%LPD*%
%AMOC8*
5,1,8,0,0,1.08239X$1,22.5*
%
%ADD10C,0.00000*%
%ADD11C,0.00200*%
%ADD12C,0.00600*%
%ADD13C,0.01000*%
%ADD14C,0.00100*%
%ADD15C,0.00800*%
%ADD16C,0.00400*%
%ADD17C,0.00500*%
D10*
X0046060Y0028618D02*
X0306285Y0028364D01*
X0305902Y0028618D02*
X0306285Y0139782D01*
X0046060Y0140035D01*
X0046060Y0028618D01*
D11*
X0112105Y0033562D02*
X0112105Y0035764D01*
X0112472Y0034663D02*
X0113573Y0033562D01*
X0114315Y0033562D02*
X0115783Y0035030D01*
X0115783Y0035397D01*
X0115416Y0035764D01*
X0114682Y0035764D01*
X0114315Y0035397D01*
X0113573Y0035764D02*
X0112105Y0034296D01*
X0114315Y0033562D02*
X0115783Y0033562D01*
X0149459Y0054004D02*
X0149459Y0056206D01*
X0150560Y0056206D01*
X0150927Y0055839D01*
X0150927Y0055105D01*
X0150560Y0054738D01*
X0149459Y0054738D01*
X0150193Y0054738D02*
X0150927Y0054004D01*
X0151669Y0054371D02*
X0152036Y0054004D01*
X0152770Y0054004D01*
X0153137Y0054371D01*
X0153137Y0055839D01*
X0152770Y0056206D01*
X0152036Y0056206D01*
X0151669Y0055839D01*
X0151669Y0055472D01*
X0152036Y0055105D01*
X0153137Y0055105D01*
X0131090Y0064097D02*
X0131090Y0064831D01*
X0130723Y0065198D01*
X0131090Y0065940D02*
X0129622Y0067408D01*
X0129255Y0067408D01*
X0128888Y0067041D01*
X0128888Y0066307D01*
X0129255Y0065940D01*
X0129255Y0065198D02*
X0128888Y0064831D01*
X0128888Y0064097D01*
X0129255Y0063730D01*
X0130723Y0063730D01*
X0131090Y0064097D01*
X0131090Y0065940D02*
X0131090Y0067408D01*
X0145390Y0071243D02*
X0146124Y0071243D01*
X0145757Y0071243D02*
X0145757Y0073445D01*
X0145390Y0073445D02*
X0146124Y0073445D01*
X0146863Y0073078D02*
X0146863Y0071610D01*
X0147230Y0071243D01*
X0147964Y0071243D01*
X0148331Y0071610D01*
X0149073Y0071243D02*
X0150541Y0071243D01*
X0149807Y0071243D02*
X0149807Y0073445D01*
X0149073Y0072711D01*
X0148331Y0073078D02*
X0147964Y0073445D01*
X0147230Y0073445D01*
X0146863Y0073078D01*
X0177366Y0066616D02*
X0177733Y0066983D01*
X0178100Y0066983D01*
X0178467Y0066616D01*
X0178467Y0065882D01*
X0178100Y0065515D01*
X0177733Y0065515D01*
X0177366Y0065882D01*
X0177366Y0066616D01*
X0178467Y0066616D02*
X0178834Y0066983D01*
X0179201Y0066983D01*
X0179568Y0066616D01*
X0179568Y0065882D01*
X0179201Y0065515D01*
X0178834Y0065515D01*
X0178467Y0065882D01*
X0178467Y0064773D02*
X0178834Y0064406D01*
X0178834Y0063305D01*
X0178834Y0064039D02*
X0179568Y0064773D01*
X0178467Y0064773D02*
X0177733Y0064773D01*
X0177366Y0064406D01*
X0177366Y0063305D01*
X0179568Y0063305D01*
X0183177Y0056982D02*
X0184278Y0056982D01*
X0184645Y0056615D01*
X0184645Y0055881D01*
X0184278Y0055514D01*
X0183177Y0055514D01*
X0183177Y0054780D02*
X0183177Y0056982D01*
X0183911Y0055514D02*
X0184645Y0054780D01*
X0185387Y0054780D02*
X0186855Y0054780D01*
X0186121Y0054780D02*
X0186121Y0056982D01*
X0185387Y0056248D01*
X0187597Y0055881D02*
X0189065Y0055881D01*
X0188698Y0054780D02*
X0188698Y0056982D01*
X0187597Y0055881D01*
X0219895Y0057876D02*
X0219895Y0059344D01*
X0219895Y0058610D02*
X0222097Y0058610D01*
X0222097Y0060086D02*
X0222097Y0061554D01*
X0222097Y0060820D02*
X0219895Y0060820D01*
X0220629Y0060086D01*
X0233705Y0072596D02*
X0233705Y0074798D01*
X0234806Y0074798D01*
X0235173Y0074431D01*
X0235173Y0073697D01*
X0234806Y0073330D01*
X0233705Y0073330D01*
X0234439Y0073330D02*
X0235173Y0072596D01*
X0235915Y0073697D02*
X0237383Y0073697D01*
X0237016Y0074798D02*
X0235915Y0073697D01*
X0237016Y0072596D02*
X0237016Y0074798D01*
X0246569Y0075282D02*
X0246936Y0074915D01*
X0247670Y0074915D01*
X0248037Y0075282D01*
X0248779Y0075282D02*
X0249146Y0074915D01*
X0249880Y0074915D01*
X0250247Y0075282D01*
X0250247Y0076750D01*
X0249880Y0077117D01*
X0249146Y0077117D01*
X0248779Y0076750D01*
X0248779Y0076383D01*
X0249146Y0076016D01*
X0250247Y0076016D01*
X0248037Y0076750D02*
X0247670Y0077117D01*
X0246936Y0077117D01*
X0246569Y0076750D01*
X0246569Y0075282D01*
X0237366Y0083219D02*
X0236999Y0082852D01*
X0236265Y0082852D01*
X0235898Y0083219D01*
X0235156Y0082852D02*
X0234422Y0083586D01*
X0234789Y0083586D02*
X0233688Y0083586D01*
X0233688Y0082852D02*
X0233688Y0085054D01*
X0234789Y0085054D01*
X0235156Y0084687D01*
X0235156Y0083953D01*
X0234789Y0083586D01*
X0235898Y0084687D02*
X0236265Y0085054D01*
X0236999Y0085054D01*
X0237366Y0084687D01*
X0237366Y0084320D01*
X0236999Y0083953D01*
X0237366Y0083586D01*
X0237366Y0083219D01*
X0236999Y0083953D02*
X0236632Y0083953D01*
X0237294Y0092841D02*
X0235826Y0092841D01*
X0237294Y0094309D01*
X0237294Y0094676D01*
X0236927Y0095043D01*
X0236193Y0095043D01*
X0235826Y0094676D01*
X0235084Y0094676D02*
X0235084Y0093942D01*
X0234717Y0093575D01*
X0233616Y0093575D01*
X0233616Y0092841D02*
X0233616Y0095043D01*
X0234717Y0095043D01*
X0235084Y0094676D01*
X0234350Y0093575D02*
X0235084Y0092841D01*
X0246175Y0097329D02*
X0246542Y0096962D01*
X0247276Y0096962D01*
X0247643Y0097329D01*
X0248385Y0097329D02*
X0248385Y0096962D01*
X0248385Y0097329D02*
X0249853Y0098797D01*
X0249853Y0099164D01*
X0248385Y0099164D01*
X0247643Y0098797D02*
X0247276Y0099164D01*
X0246542Y0099164D01*
X0246175Y0098797D01*
X0246175Y0097329D01*
X0237310Y0102996D02*
X0235842Y0102996D01*
X0236576Y0102996D02*
X0236576Y0105198D01*
X0235842Y0104464D01*
X0235100Y0104831D02*
X0235100Y0104097D01*
X0234733Y0103730D01*
X0233632Y0103730D01*
X0233632Y0102996D02*
X0233632Y0105198D01*
X0234733Y0105198D01*
X0235100Y0104831D01*
X0234366Y0103730D02*
X0235100Y0102996D01*
X0206485Y0107518D02*
X0206485Y0108252D01*
X0206485Y0107885D02*
X0204283Y0107885D01*
X0204283Y0107518D02*
X0204283Y0108252D01*
X0204650Y0108991D02*
X0206118Y0108991D01*
X0206485Y0109358D01*
X0206485Y0110092D01*
X0206118Y0110459D01*
X0206118Y0111201D02*
X0206485Y0111568D01*
X0206485Y0112302D01*
X0206118Y0112669D01*
X0205751Y0112669D01*
X0205384Y0112302D01*
X0205384Y0111935D01*
X0205384Y0112302D02*
X0205017Y0112669D01*
X0204650Y0112669D01*
X0204283Y0112302D01*
X0204283Y0111568D01*
X0204650Y0111201D01*
X0204650Y0110459D02*
X0204283Y0110092D01*
X0204283Y0109358D01*
X0204650Y0108991D01*
X0182582Y0097276D02*
X0182582Y0096542D01*
X0182215Y0096175D01*
X0181481Y0096175D02*
X0181114Y0096909D01*
X0181114Y0097276D01*
X0181481Y0097643D01*
X0182215Y0097643D01*
X0182582Y0097276D01*
X0181481Y0096175D02*
X0180380Y0096175D01*
X0180380Y0097643D01*
X0182582Y0095433D02*
X0182582Y0093965D01*
X0182582Y0094699D02*
X0180380Y0094699D01*
X0181114Y0093965D01*
X0181481Y0093223D02*
X0181848Y0092856D01*
X0181848Y0091755D01*
X0182582Y0091755D02*
X0180380Y0091755D01*
X0180380Y0092856D01*
X0180747Y0093223D01*
X0181481Y0093223D01*
X0181848Y0092489D02*
X0182582Y0093223D01*
X0166794Y0092722D02*
X0166794Y0092355D01*
X0165326Y0090887D01*
X0165326Y0090520D01*
X0164584Y0090520D02*
X0163116Y0090520D01*
X0163850Y0090520D02*
X0163850Y0092722D01*
X0163116Y0091988D01*
X0162374Y0092355D02*
X0162374Y0091621D01*
X0162007Y0091254D01*
X0160906Y0091254D01*
X0160906Y0090520D02*
X0160906Y0092722D01*
X0162007Y0092722D01*
X0162374Y0092355D01*
X0161640Y0091254D02*
X0162374Y0090520D01*
X0165326Y0092722D02*
X0166794Y0092722D01*
X0165634Y0111439D02*
X0166001Y0111806D01*
X0166001Y0112173D01*
X0165634Y0112540D01*
X0164533Y0112540D01*
X0164533Y0111806D01*
X0164900Y0111439D01*
X0165634Y0111439D01*
X0164533Y0112540D02*
X0165267Y0113274D01*
X0166001Y0113641D01*
X0163057Y0113641D02*
X0162323Y0112907D01*
X0161581Y0113274D02*
X0161581Y0112540D01*
X0161214Y0112173D01*
X0160113Y0112173D01*
X0160847Y0112173D02*
X0161581Y0111439D01*
X0162323Y0111439D02*
X0163791Y0111439D01*
X0163057Y0111439D02*
X0163057Y0113641D01*
X0161581Y0113274D02*
X0161214Y0113641D01*
X0160113Y0113641D01*
X0160113Y0111439D01*
X0245979Y0122132D02*
X0246346Y0121765D01*
X0247080Y0121765D01*
X0247447Y0122132D01*
X0248188Y0122132D02*
X0248188Y0122499D01*
X0248555Y0122866D01*
X0249289Y0122866D01*
X0249656Y0122499D01*
X0249656Y0122132D01*
X0249289Y0121765D01*
X0248555Y0121765D01*
X0248188Y0122132D01*
X0248555Y0122866D02*
X0248188Y0123233D01*
X0248188Y0123600D01*
X0248555Y0123967D01*
X0249289Y0123967D01*
X0249656Y0123600D01*
X0249656Y0123233D01*
X0249289Y0122866D01*
X0247447Y0123600D02*
X0247080Y0123967D01*
X0246346Y0123967D01*
X0245979Y0123600D01*
X0245979Y0122132D01*
X0270686Y0105859D02*
X0271787Y0105859D01*
X0272153Y0105492D01*
X0272153Y0104758D01*
X0271787Y0104391D01*
X0270686Y0104391D01*
X0270686Y0103657D02*
X0270686Y0105859D01*
X0272895Y0105125D02*
X0272895Y0103657D01*
X0272895Y0104758D02*
X0274363Y0104758D01*
X0274363Y0105125D02*
X0274363Y0103657D01*
X0275105Y0103657D02*
X0276206Y0103657D01*
X0276573Y0104024D01*
X0276573Y0105492D01*
X0276206Y0105859D01*
X0275105Y0105859D01*
X0275105Y0103657D01*
X0274363Y0105125D02*
X0273629Y0105859D01*
X0272895Y0105125D01*
X0277315Y0103290D02*
X0278783Y0103290D01*
X0279525Y0103657D02*
X0280993Y0105125D01*
X0280993Y0105492D01*
X0280626Y0105859D01*
X0279892Y0105859D01*
X0279525Y0105492D01*
X0279525Y0103657D02*
X0280993Y0103657D01*
X0289510Y0096462D02*
X0290611Y0096462D01*
X0290978Y0096095D01*
X0290978Y0095361D01*
X0290611Y0094994D01*
X0289510Y0094994D01*
X0289510Y0094260D02*
X0289510Y0096462D01*
X0291720Y0095728D02*
X0292454Y0096462D01*
X0293188Y0095728D01*
X0293188Y0094260D01*
X0293930Y0094260D02*
X0295031Y0094260D01*
X0295398Y0094627D01*
X0295398Y0096095D01*
X0295031Y0096462D01*
X0293930Y0096462D01*
X0293930Y0094260D01*
X0293188Y0095361D02*
X0291720Y0095361D01*
X0291720Y0095728D02*
X0291720Y0094260D01*
X0296139Y0093893D02*
X0297607Y0093893D01*
X0298349Y0094627D02*
X0298716Y0094260D01*
X0299450Y0094260D01*
X0299817Y0094627D01*
X0299817Y0095361D01*
X0299450Y0095728D01*
X0299083Y0095728D01*
X0298349Y0095361D01*
X0298349Y0096462D01*
X0299817Y0096462D01*
X0280737Y0087220D02*
X0279636Y0086119D01*
X0281104Y0086119D01*
X0280737Y0085018D02*
X0280737Y0087220D01*
X0278894Y0084651D02*
X0277426Y0084651D01*
X0276684Y0085385D02*
X0276684Y0086853D01*
X0276317Y0087220D01*
X0275217Y0087220D01*
X0275217Y0085018D01*
X0276317Y0085018D01*
X0276684Y0085385D01*
X0274475Y0085018D02*
X0274475Y0086486D01*
X0273741Y0087220D01*
X0273007Y0086486D01*
X0273007Y0085018D01*
X0273007Y0086119D02*
X0274475Y0086119D01*
X0272265Y0086119D02*
X0272265Y0086853D01*
X0271898Y0087220D01*
X0270797Y0087220D01*
X0270797Y0085018D01*
X0270797Y0085752D02*
X0271898Y0085752D01*
X0272265Y0086119D01*
X0289247Y0078271D02*
X0290348Y0078271D01*
X0290715Y0077904D01*
X0290715Y0077170D01*
X0290348Y0076803D01*
X0289247Y0076803D01*
X0289247Y0076069D02*
X0289247Y0078271D01*
X0291457Y0077537D02*
X0292191Y0078271D01*
X0292925Y0077537D01*
X0292925Y0076069D01*
X0293667Y0076069D02*
X0294768Y0076069D01*
X0295135Y0076436D01*
X0295135Y0077904D01*
X0294768Y0078271D01*
X0293667Y0078271D01*
X0293667Y0076069D01*
X0292925Y0077170D02*
X0291457Y0077170D01*
X0291457Y0077537D02*
X0291457Y0076069D01*
X0295877Y0075702D02*
X0297344Y0075702D01*
X0298086Y0076069D02*
X0298086Y0076436D01*
X0299554Y0077904D01*
X0299554Y0078271D01*
X0298086Y0078271D01*
X0280781Y0056781D02*
X0280047Y0056781D01*
X0279680Y0056414D01*
X0280414Y0055680D02*
X0280781Y0055680D01*
X0281148Y0055313D01*
X0281148Y0054947D01*
X0280781Y0054580D01*
X0280047Y0054580D01*
X0279680Y0054947D01*
X0278938Y0054213D02*
X0277470Y0054213D01*
X0276728Y0054947D02*
X0276728Y0056414D01*
X0276361Y0056781D01*
X0275260Y0056781D01*
X0275260Y0054580D01*
X0276361Y0054580D01*
X0276728Y0054947D01*
X0274518Y0054580D02*
X0274518Y0056047D01*
X0273785Y0056781D01*
X0273051Y0056047D01*
X0273051Y0054580D01*
X0273051Y0055680D02*
X0274518Y0055680D01*
X0272309Y0055680D02*
X0271942Y0055313D01*
X0270841Y0055313D01*
X0270841Y0054580D02*
X0270841Y0056781D01*
X0271942Y0056781D01*
X0272309Y0056414D01*
X0272309Y0055680D01*
X0280781Y0055680D02*
X0281148Y0056047D01*
X0281148Y0056414D01*
X0280781Y0056781D01*
X0289115Y0047924D02*
X0290216Y0047924D01*
X0290583Y0047557D01*
X0290583Y0046823D01*
X0290216Y0046456D01*
X0289115Y0046456D01*
X0289115Y0045722D02*
X0289115Y0047924D01*
X0291325Y0047190D02*
X0291325Y0045722D01*
X0291325Y0046823D02*
X0292793Y0046823D01*
X0292793Y0047190D02*
X0292793Y0045722D01*
X0293535Y0045722D02*
X0294636Y0045722D01*
X0295003Y0046089D01*
X0295003Y0047557D01*
X0294636Y0047924D01*
X0293535Y0047924D01*
X0293535Y0045722D01*
X0292793Y0047190D02*
X0292059Y0047924D01*
X0291325Y0047190D01*
X0295745Y0045355D02*
X0297212Y0045355D01*
X0297954Y0046089D02*
X0298321Y0045722D01*
X0299055Y0045722D01*
X0299422Y0046089D01*
X0299422Y0046456D01*
X0299055Y0046823D01*
X0297954Y0046823D01*
X0297954Y0046089D01*
X0297954Y0046823D02*
X0298688Y0047557D01*
X0299422Y0047924D01*
X0280532Y0035642D02*
X0280532Y0033440D01*
X0279798Y0033440D02*
X0281266Y0033440D01*
X0279798Y0034908D02*
X0280532Y0035642D01*
X0279056Y0033073D02*
X0277588Y0033073D01*
X0276846Y0033807D02*
X0276846Y0035275D01*
X0276479Y0035642D01*
X0275378Y0035642D01*
X0275378Y0033440D01*
X0276479Y0033440D01*
X0276846Y0033807D01*
X0274636Y0033440D02*
X0274636Y0034908D01*
X0273902Y0035642D01*
X0273168Y0034908D01*
X0273168Y0033440D01*
X0273168Y0034541D02*
X0274636Y0034541D01*
X0272426Y0034541D02*
X0272059Y0034174D01*
X0270958Y0034174D01*
X0270958Y0033440D02*
X0270958Y0035642D01*
X0272059Y0035642D01*
X0272426Y0035275D01*
X0272426Y0034541D01*
X0289411Y0116049D02*
X0289411Y0118251D01*
X0290512Y0118251D01*
X0290879Y0117884D01*
X0290879Y0117150D01*
X0290512Y0116783D01*
X0289411Y0116783D01*
X0291621Y0117150D02*
X0293088Y0117150D01*
X0293088Y0117517D02*
X0293088Y0116049D01*
X0293830Y0116049D02*
X0294931Y0116049D01*
X0295298Y0116416D01*
X0295298Y0117884D01*
X0294931Y0118251D01*
X0293830Y0118251D01*
X0293830Y0116049D01*
X0293088Y0117517D02*
X0292355Y0118251D01*
X0291621Y0117517D01*
X0291621Y0116049D01*
X0296040Y0115682D02*
X0297508Y0115682D01*
X0298250Y0116416D02*
X0298617Y0116049D01*
X0299351Y0116049D01*
X0299718Y0116416D01*
X0299718Y0116783D01*
X0299351Y0117150D01*
X0298617Y0117150D01*
X0298250Y0117517D01*
X0298250Y0117884D01*
X0298617Y0118251D01*
X0299351Y0118251D01*
X0299718Y0117884D01*
X0299718Y0117517D01*
X0299351Y0117150D01*
X0298617Y0117150D02*
X0298250Y0116783D01*
X0298250Y0116416D01*
D12*
X0298360Y0119349D02*
X0300360Y0119349D01*
X0300360Y0121349D01*
X0292360Y0119349D02*
X0290360Y0119349D01*
X0290360Y0121349D01*
X0281635Y0116957D02*
X0279635Y0116957D01*
X0281635Y0116957D02*
X0281635Y0114957D01*
X0273635Y0116957D02*
X0271635Y0116957D01*
X0271635Y0114957D01*
X0264379Y0111665D02*
X0264379Y0119665D01*
X0264377Y0119725D01*
X0264372Y0119786D01*
X0264363Y0119845D01*
X0264350Y0119904D01*
X0264334Y0119963D01*
X0264314Y0120020D01*
X0264291Y0120075D01*
X0264264Y0120130D01*
X0264235Y0120182D01*
X0264202Y0120233D01*
X0264166Y0120282D01*
X0264128Y0120328D01*
X0264086Y0120372D01*
X0264042Y0120414D01*
X0263996Y0120452D01*
X0263947Y0120488D01*
X0263896Y0120521D01*
X0263844Y0120550D01*
X0263789Y0120577D01*
X0263734Y0120600D01*
X0263677Y0120620D01*
X0263618Y0120636D01*
X0263559Y0120649D01*
X0263500Y0120658D01*
X0263439Y0120663D01*
X0263379Y0120665D01*
X0246379Y0120665D01*
X0246319Y0120663D01*
X0246258Y0120658D01*
X0246199Y0120649D01*
X0246140Y0120636D01*
X0246081Y0120620D01*
X0246024Y0120600D01*
X0245969Y0120577D01*
X0245914Y0120550D01*
X0245862Y0120521D01*
X0245811Y0120488D01*
X0245762Y0120452D01*
X0245716Y0120414D01*
X0245672Y0120372D01*
X0245630Y0120328D01*
X0245592Y0120282D01*
X0245556Y0120233D01*
X0245523Y0120182D01*
X0245494Y0120130D01*
X0245467Y0120075D01*
X0245444Y0120020D01*
X0245424Y0119963D01*
X0245408Y0119904D01*
X0245395Y0119845D01*
X0245386Y0119786D01*
X0245381Y0119725D01*
X0245379Y0119665D01*
X0245379Y0111665D01*
X0245381Y0111605D01*
X0245386Y0111544D01*
X0245395Y0111485D01*
X0245408Y0111426D01*
X0245424Y0111367D01*
X0245444Y0111310D01*
X0245467Y0111255D01*
X0245494Y0111200D01*
X0245523Y0111148D01*
X0245556Y0111097D01*
X0245592Y0111048D01*
X0245630Y0111002D01*
X0245672Y0110958D01*
X0245716Y0110916D01*
X0245762Y0110878D01*
X0245811Y0110842D01*
X0245862Y0110809D01*
X0245914Y0110780D01*
X0245969Y0110753D01*
X0246024Y0110730D01*
X0246081Y0110710D01*
X0246140Y0110694D01*
X0246199Y0110681D01*
X0246258Y0110672D01*
X0246319Y0110667D01*
X0246379Y0110665D01*
X0263379Y0110665D01*
X0263439Y0110667D01*
X0263500Y0110672D01*
X0263559Y0110681D01*
X0263618Y0110694D01*
X0263677Y0110710D01*
X0263734Y0110730D01*
X0263789Y0110753D01*
X0263844Y0110780D01*
X0263896Y0110809D01*
X0263947Y0110842D01*
X0263996Y0110878D01*
X0264042Y0110916D01*
X0264086Y0110958D01*
X0264128Y0111002D01*
X0264166Y0111048D01*
X0264202Y0111097D01*
X0264235Y0111148D01*
X0264264Y0111200D01*
X0264291Y0111255D01*
X0264314Y0111310D01*
X0264334Y0111367D01*
X0264350Y0111426D01*
X0264363Y0111485D01*
X0264372Y0111544D01*
X0264377Y0111605D01*
X0264379Y0111665D01*
X0271635Y0108957D02*
X0271635Y0106957D01*
X0273635Y0106957D01*
X0279635Y0106957D02*
X0281635Y0106957D01*
X0281635Y0108957D01*
X0290459Y0107560D02*
X0290459Y0105560D01*
X0290459Y0107560D02*
X0292459Y0107560D01*
X0298459Y0107560D02*
X0300459Y0107560D01*
X0300459Y0105560D01*
X0300459Y0099560D02*
X0300459Y0097560D01*
X0298459Y0097560D01*
X0292459Y0097560D02*
X0290459Y0097560D01*
X0290459Y0099560D01*
X0281746Y0098318D02*
X0281746Y0096318D01*
X0281746Y0098318D02*
X0279746Y0098318D01*
X0273746Y0098318D02*
X0271746Y0098318D01*
X0271746Y0096318D01*
X0264575Y0094862D02*
X0264575Y0086862D01*
X0264573Y0086802D01*
X0264568Y0086741D01*
X0264559Y0086682D01*
X0264546Y0086623D01*
X0264530Y0086564D01*
X0264510Y0086507D01*
X0264487Y0086452D01*
X0264460Y0086397D01*
X0264431Y0086345D01*
X0264398Y0086294D01*
X0264362Y0086245D01*
X0264324Y0086199D01*
X0264282Y0086155D01*
X0264238Y0086113D01*
X0264192Y0086075D01*
X0264143Y0086039D01*
X0264092Y0086006D01*
X0264040Y0085977D01*
X0263985Y0085950D01*
X0263930Y0085927D01*
X0263873Y0085907D01*
X0263814Y0085891D01*
X0263755Y0085878D01*
X0263696Y0085869D01*
X0263635Y0085864D01*
X0263575Y0085862D01*
X0246575Y0085862D01*
X0246515Y0085864D01*
X0246454Y0085869D01*
X0246395Y0085878D01*
X0246336Y0085891D01*
X0246277Y0085907D01*
X0246220Y0085927D01*
X0246165Y0085950D01*
X0246110Y0085977D01*
X0246058Y0086006D01*
X0246007Y0086039D01*
X0245958Y0086075D01*
X0245912Y0086113D01*
X0245868Y0086155D01*
X0245826Y0086199D01*
X0245788Y0086245D01*
X0245752Y0086294D01*
X0245719Y0086345D01*
X0245690Y0086397D01*
X0245663Y0086452D01*
X0245640Y0086507D01*
X0245620Y0086564D01*
X0245604Y0086623D01*
X0245591Y0086682D01*
X0245582Y0086741D01*
X0245577Y0086802D01*
X0245575Y0086862D01*
X0245575Y0094862D01*
X0245577Y0094922D01*
X0245582Y0094983D01*
X0245591Y0095042D01*
X0245604Y0095101D01*
X0245620Y0095160D01*
X0245640Y0095217D01*
X0245663Y0095272D01*
X0245690Y0095327D01*
X0245719Y0095379D01*
X0245752Y0095430D01*
X0245788Y0095479D01*
X0245826Y0095525D01*
X0245868Y0095569D01*
X0245912Y0095611D01*
X0245958Y0095649D01*
X0246007Y0095685D01*
X0246058Y0095718D01*
X0246110Y0095747D01*
X0246165Y0095774D01*
X0246220Y0095797D01*
X0246277Y0095817D01*
X0246336Y0095833D01*
X0246395Y0095846D01*
X0246454Y0095855D01*
X0246515Y0095860D01*
X0246575Y0095862D01*
X0263575Y0095862D01*
X0263635Y0095860D01*
X0263696Y0095855D01*
X0263755Y0095846D01*
X0263814Y0095833D01*
X0263873Y0095817D01*
X0263930Y0095797D01*
X0263985Y0095774D01*
X0264040Y0095747D01*
X0264092Y0095718D01*
X0264143Y0095685D01*
X0264192Y0095649D01*
X0264238Y0095611D01*
X0264282Y0095569D01*
X0264324Y0095525D01*
X0264362Y0095479D01*
X0264398Y0095430D01*
X0264431Y0095379D01*
X0264460Y0095327D01*
X0264487Y0095272D01*
X0264510Y0095217D01*
X0264530Y0095160D01*
X0264546Y0095101D01*
X0264559Y0095042D01*
X0264568Y0094983D01*
X0264573Y0094922D01*
X0264575Y0094862D01*
X0256575Y0090862D02*
X0256075Y0090862D01*
X0254075Y0090862D02*
X0253575Y0090862D01*
X0271746Y0090318D02*
X0271746Y0088318D01*
X0273746Y0088318D01*
X0279746Y0088318D02*
X0281746Y0088318D01*
X0281746Y0090318D01*
X0290196Y0089369D02*
X0290196Y0087369D01*
X0290196Y0089369D02*
X0292196Y0089369D01*
X0298196Y0089369D02*
X0300196Y0089369D01*
X0300196Y0087369D01*
X0300196Y0081369D02*
X0300196Y0079369D01*
X0298196Y0079369D01*
X0292196Y0079369D02*
X0290196Y0079369D01*
X0290196Y0081369D01*
X0264969Y0072815D02*
X0264969Y0064815D01*
X0264967Y0064755D01*
X0264962Y0064694D01*
X0264953Y0064635D01*
X0264940Y0064576D01*
X0264924Y0064517D01*
X0264904Y0064460D01*
X0264881Y0064405D01*
X0264854Y0064350D01*
X0264825Y0064298D01*
X0264792Y0064247D01*
X0264756Y0064198D01*
X0264718Y0064152D01*
X0264676Y0064108D01*
X0264632Y0064066D01*
X0264586Y0064028D01*
X0264537Y0063992D01*
X0264486Y0063959D01*
X0264434Y0063930D01*
X0264379Y0063903D01*
X0264324Y0063880D01*
X0264267Y0063860D01*
X0264208Y0063844D01*
X0264149Y0063831D01*
X0264090Y0063822D01*
X0264029Y0063817D01*
X0263969Y0063815D01*
X0246969Y0063815D01*
X0246909Y0063817D01*
X0246848Y0063822D01*
X0246789Y0063831D01*
X0246730Y0063844D01*
X0246671Y0063860D01*
X0246614Y0063880D01*
X0246559Y0063903D01*
X0246504Y0063930D01*
X0246452Y0063959D01*
X0246401Y0063992D01*
X0246352Y0064028D01*
X0246306Y0064066D01*
X0246262Y0064108D01*
X0246220Y0064152D01*
X0246182Y0064198D01*
X0246146Y0064247D01*
X0246113Y0064298D01*
X0246084Y0064350D01*
X0246057Y0064405D01*
X0246034Y0064460D01*
X0246014Y0064517D01*
X0245998Y0064576D01*
X0245985Y0064635D01*
X0245976Y0064694D01*
X0245971Y0064755D01*
X0245969Y0064815D01*
X0245969Y0072815D01*
X0245971Y0072875D01*
X0245976Y0072936D01*
X0245985Y0072995D01*
X0245998Y0073054D01*
X0246014Y0073113D01*
X0246034Y0073170D01*
X0246057Y0073225D01*
X0246084Y0073280D01*
X0246113Y0073332D01*
X0246146Y0073383D01*
X0246182Y0073432D01*
X0246220Y0073478D01*
X0246262Y0073522D01*
X0246306Y0073564D01*
X0246352Y0073602D01*
X0246401Y0073638D01*
X0246452Y0073671D01*
X0246504Y0073700D01*
X0246559Y0073727D01*
X0246614Y0073750D01*
X0246671Y0073770D01*
X0246730Y0073786D01*
X0246789Y0073799D01*
X0246848Y0073808D01*
X0246909Y0073813D01*
X0246969Y0073815D01*
X0263969Y0073815D01*
X0264029Y0073813D01*
X0264090Y0073808D01*
X0264149Y0073799D01*
X0264208Y0073786D01*
X0264267Y0073770D01*
X0264324Y0073750D01*
X0264379Y0073727D01*
X0264434Y0073700D01*
X0264486Y0073671D01*
X0264537Y0073638D01*
X0264586Y0073602D01*
X0264632Y0073564D01*
X0264676Y0073522D01*
X0264718Y0073478D01*
X0264756Y0073432D01*
X0264792Y0073383D01*
X0264825Y0073332D01*
X0264854Y0073280D01*
X0264881Y0073225D01*
X0264904Y0073170D01*
X0264924Y0073113D01*
X0264940Y0073054D01*
X0264953Y0072995D01*
X0264962Y0072936D01*
X0264967Y0072875D01*
X0264969Y0072815D01*
X0256969Y0068815D02*
X0256469Y0068815D01*
X0254469Y0068815D02*
X0253969Y0068815D01*
X0271790Y0067880D02*
X0271790Y0065880D01*
X0271790Y0067880D02*
X0273790Y0067880D01*
X0279790Y0067880D02*
X0281790Y0067880D01*
X0281790Y0065880D01*
X0281790Y0059880D02*
X0281790Y0057880D01*
X0279790Y0057880D01*
X0273790Y0057880D02*
X0271790Y0057880D01*
X0271790Y0059880D01*
X0290064Y0059022D02*
X0290064Y0057022D01*
X0290064Y0059022D02*
X0292064Y0059022D01*
X0298064Y0059022D02*
X0300064Y0059022D01*
X0300064Y0057022D01*
X0300064Y0051022D02*
X0300064Y0049022D01*
X0298064Y0049022D01*
X0292064Y0049022D02*
X0290064Y0049022D01*
X0290064Y0051022D01*
X0281908Y0046740D02*
X0279908Y0046740D01*
X0281908Y0046740D02*
X0281908Y0044740D01*
X0273908Y0046740D02*
X0271908Y0046740D01*
X0271908Y0044740D01*
X0271908Y0038740D02*
X0271908Y0036740D01*
X0273908Y0036740D01*
X0279908Y0036740D02*
X0281908Y0036740D01*
X0281908Y0038740D01*
X0256379Y0115665D02*
X0255879Y0115665D01*
X0253879Y0115665D02*
X0253379Y0115665D01*
X0290360Y0127349D02*
X0290360Y0129349D01*
X0292360Y0129349D01*
X0298360Y0129349D02*
X0300360Y0129349D01*
X0300360Y0127349D01*
D13*
X0255879Y0118665D02*
X0255879Y0115665D01*
X0255879Y0112665D01*
X0253879Y0112665D02*
X0253879Y0115665D01*
X0253879Y0118665D01*
X0254075Y0093862D02*
X0254075Y0090862D01*
X0254075Y0087862D01*
X0256075Y0087862D02*
X0256075Y0090862D01*
X0256075Y0093862D01*
X0256469Y0071815D02*
X0256469Y0068815D01*
X0256469Y0065815D01*
X0254469Y0065815D02*
X0254469Y0068815D01*
X0254469Y0071815D01*
D14*
X0246877Y0072401D02*
X0246839Y0072401D01*
X0246483Y0094448D02*
X0246446Y0094448D01*
X0246286Y0119252D02*
X0246249Y0119252D01*
D15*
X0213894Y0116520D02*
X0213894Y0077320D01*
X0197478Y0077320D01*
X0197478Y0116520D01*
X0213894Y0116520D01*
D16*
X0209426Y0080526D02*
X0209428Y0080598D01*
X0209434Y0080670D01*
X0209444Y0080741D01*
X0209457Y0080812D01*
X0209475Y0080882D01*
X0209496Y0080951D01*
X0209521Y0081018D01*
X0209550Y0081084D01*
X0209582Y0081149D01*
X0209618Y0081211D01*
X0209657Y0081272D01*
X0209699Y0081330D01*
X0209745Y0081386D01*
X0209793Y0081439D01*
X0209845Y0081490D01*
X0209899Y0081538D01*
X0209955Y0081582D01*
X0210014Y0081624D01*
X0210075Y0081662D01*
X0210138Y0081697D01*
X0210203Y0081729D01*
X0210270Y0081756D01*
X0210337Y0081780D01*
X0210407Y0081801D01*
X0210477Y0081817D01*
X0210548Y0081830D01*
X0210619Y0081839D01*
X0210691Y0081844D01*
X0210763Y0081845D01*
X0210835Y0081842D01*
X0210907Y0081835D01*
X0210978Y0081824D01*
X0211049Y0081810D01*
X0211118Y0081791D01*
X0211187Y0081769D01*
X0211254Y0081743D01*
X0211320Y0081713D01*
X0211384Y0081680D01*
X0211446Y0081644D01*
X0211506Y0081604D01*
X0211563Y0081560D01*
X0211619Y0081514D01*
X0211671Y0081465D01*
X0211721Y0081413D01*
X0211768Y0081358D01*
X0211812Y0081301D01*
X0211853Y0081242D01*
X0211890Y0081180D01*
X0211924Y0081117D01*
X0211955Y0081051D01*
X0211982Y0080985D01*
X0212005Y0080916D01*
X0212024Y0080847D01*
X0212040Y0080777D01*
X0212052Y0080706D01*
X0212060Y0080634D01*
X0212064Y0080562D01*
X0212064Y0080490D01*
X0212060Y0080418D01*
X0212052Y0080346D01*
X0212040Y0080275D01*
X0212024Y0080205D01*
X0212005Y0080136D01*
X0211982Y0080067D01*
X0211955Y0080001D01*
X0211924Y0079935D01*
X0211890Y0079872D01*
X0211853Y0079810D01*
X0211812Y0079751D01*
X0211768Y0079694D01*
X0211721Y0079639D01*
X0211671Y0079587D01*
X0211619Y0079538D01*
X0211563Y0079492D01*
X0211506Y0079448D01*
X0211446Y0079408D01*
X0211384Y0079372D01*
X0211320Y0079339D01*
X0211254Y0079309D01*
X0211187Y0079283D01*
X0211118Y0079261D01*
X0211049Y0079242D01*
X0210978Y0079228D01*
X0210907Y0079217D01*
X0210835Y0079210D01*
X0210763Y0079207D01*
X0210691Y0079208D01*
X0210619Y0079213D01*
X0210548Y0079222D01*
X0210477Y0079235D01*
X0210407Y0079251D01*
X0210337Y0079272D01*
X0210270Y0079296D01*
X0210203Y0079323D01*
X0210138Y0079355D01*
X0210075Y0079390D01*
X0210014Y0079428D01*
X0209955Y0079470D01*
X0209899Y0079514D01*
X0209845Y0079562D01*
X0209793Y0079613D01*
X0209745Y0079666D01*
X0209699Y0079722D01*
X0209657Y0079780D01*
X0209618Y0079841D01*
X0209582Y0079903D01*
X0209550Y0079968D01*
X0209521Y0080034D01*
X0209496Y0080101D01*
X0209475Y0080170D01*
X0209457Y0080240D01*
X0209444Y0080311D01*
X0209434Y0080382D01*
X0209428Y0080454D01*
X0209426Y0080526D01*
D17*
X0217926Y0074110D02*
X0217926Y0072530D01*
X0223426Y0071904D02*
X0223426Y0055411D01*
X0217926Y0054785D02*
X0217926Y0053205D01*
X0217926Y0062530D02*
X0217926Y0064785D01*
X0223426Y0055411D02*
X0223227Y0055258D01*
X0223025Y0055110D01*
X0222820Y0054967D01*
X0222611Y0054829D01*
X0222399Y0054696D01*
X0222184Y0054568D01*
X0221966Y0054446D01*
X0221745Y0054328D01*
X0221521Y0054216D01*
X0221295Y0054109D01*
X0221066Y0054008D01*
X0220835Y0053912D01*
X0220601Y0053821D01*
X0220366Y0053736D01*
X0220128Y0053657D01*
X0219889Y0053584D01*
X0219648Y0053516D01*
X0219406Y0053454D01*
X0219162Y0053398D01*
X0218916Y0053347D01*
X0218670Y0053303D01*
X0218423Y0053264D01*
X0218175Y0053232D01*
X0217926Y0053205D01*
X0206893Y0066753D02*
X0206971Y0066995D01*
X0207055Y0067235D01*
X0207144Y0067473D01*
X0207240Y0067709D01*
X0207341Y0067943D01*
X0207447Y0068174D01*
X0207560Y0068402D01*
X0207677Y0068628D01*
X0207800Y0068851D01*
X0207929Y0069070D01*
X0208063Y0069287D01*
X0208202Y0069500D01*
X0208346Y0069710D01*
X0208495Y0069916D01*
X0208649Y0070118D01*
X0208808Y0070317D01*
X0208972Y0070512D01*
X0209141Y0070703D01*
X0209314Y0070889D01*
X0209491Y0071072D01*
X0209673Y0071250D01*
X0209859Y0071423D01*
X0210050Y0071592D01*
X0210244Y0071756D01*
X0210442Y0071916D01*
X0210644Y0072071D01*
X0210850Y0072220D01*
X0211059Y0072365D01*
X0211272Y0072505D01*
X0211488Y0072639D01*
X0211708Y0072768D01*
X0211930Y0072892D01*
X0212155Y0073011D01*
X0212383Y0073123D01*
X0212614Y0073231D01*
X0212847Y0073332D01*
X0213083Y0073428D01*
X0213321Y0073519D01*
X0213561Y0073603D01*
X0213803Y0073682D01*
X0214047Y0073755D01*
X0214293Y0073821D01*
X0214540Y0073882D01*
X0214788Y0073937D01*
X0215038Y0073986D01*
X0215289Y0074029D01*
X0215541Y0074065D01*
X0215793Y0074096D01*
X0216047Y0074120D01*
X0216300Y0074138D01*
X0216555Y0074150D01*
X0216809Y0074156D01*
X0217064Y0074156D01*
X0217318Y0074150D01*
X0217572Y0074137D01*
X0217826Y0074118D01*
X0218079Y0074093D01*
X0218332Y0074062D01*
X0218584Y0074025D01*
X0218834Y0073982D01*
X0219084Y0073933D01*
X0219333Y0073878D01*
X0219580Y0073816D01*
X0219825Y0073749D01*
X0220069Y0073676D01*
X0220311Y0073597D01*
X0220550Y0073512D01*
X0220788Y0073421D01*
X0221024Y0073324D01*
X0221257Y0073222D01*
X0221487Y0073114D01*
X0221715Y0073001D01*
X0221940Y0072882D01*
X0222162Y0072758D01*
X0222381Y0072629D01*
X0222597Y0072494D01*
X0222810Y0072354D01*
X0223019Y0072208D01*
X0223224Y0072058D01*
X0223426Y0071903D01*
X0217926Y0053205D02*
X0217671Y0053183D01*
X0217415Y0053168D01*
X0217159Y0053160D01*
X0216902Y0053157D01*
X0216646Y0053161D01*
X0216390Y0053171D01*
X0216134Y0053187D01*
X0215879Y0053209D01*
X0215624Y0053238D01*
X0215370Y0053273D01*
X0215117Y0053314D01*
X0214865Y0053361D01*
X0214615Y0053415D01*
X0214366Y0053474D01*
X0214118Y0053540D01*
X0213872Y0053611D01*
X0213627Y0053689D01*
X0213385Y0053772D01*
X0213145Y0053861D01*
X0212907Y0053957D01*
X0212671Y0054058D01*
X0212438Y0054164D01*
X0212208Y0054277D01*
X0211980Y0054395D01*
X0211756Y0054518D01*
X0211534Y0054647D01*
X0211316Y0054781D01*
X0211101Y0054921D01*
X0210890Y0055066D01*
X0210682Y0055216D01*
X0210478Y0055370D01*
X0210277Y0055530D01*
X0210081Y0055695D01*
X0209889Y0055864D01*
X0209700Y0056039D01*
X0209517Y0056217D01*
X0209337Y0056400D01*
X0209162Y0056588D01*
X0208992Y0056779D01*
X0208827Y0056975D01*
X0208666Y0057175D01*
X0208510Y0057378D01*
X0208360Y0057585D01*
X0208214Y0057796D01*
X0208073Y0058011D01*
X0207938Y0058228D01*
X0207808Y0058449D01*
X0207684Y0058673D01*
X0207565Y0058900D01*
X0207452Y0059130D01*
X0207344Y0059363D01*
X0207242Y0059598D01*
X0207146Y0059836D01*
X0207056Y0060075D01*
X0206971Y0060317D01*
X0206893Y0060561D01*
M02*
