%
M48
M72
T01C0.02362
T02C0.03200
T03C0.03937
T04C0.04400
%
T01
X218501Y48697
X183461Y60114
X170075Y67201
X141335Y70350
X138186Y83343
X148422Y88067
X153540Y88067
X139367Y98697
X157477Y103421
X176375Y100272
X209839Y90429
X207871Y72713
X242123Y73106
X241335Y109720
X151572Y117252
X175769Y50454
X125587Y48303
T02
X209426Y63657
X216926Y58657
X216926Y68657
X250469Y68815
X260469Y68815
X260075Y90862
X250075Y90862
X259879Y115665
X249879Y115665
T03
X105755Y56059
X58117Y66807
X105755Y81847
X105952Y98539
X114220Y120902
X58117Y110154
T04
X295360Y124349
X276635Y111957
X276746Y93318
X276790Y62880
X295064Y54022
X276908Y41740
X295196Y84369
X295459Y102560
M30
