G75*
%MOIN*%
%OFA0B0*%
%FSLAX25Y25*%
%IPPOS*%
%LPD*%
%AMOC8*
5,1,8,0,0,1.08239X$1,22.5*
%
%ADD10C,0.06600*%
%ADD11C,0.05200*%
%ADD12C,0.07800*%
%ADD13OC8,0.05200*%
%ADD14C,0.04400*%
%ADD15C,0.05937*%
%ADD16C,0.07050*%
%ADD17C,0.06600*%
%ADD18OC8,0.06300*%
%ADD19R,0.06496X0.06496*%
%ADD20R,0.07677X0.07677*%
%ADD21R,0.08268X0.08268*%
%ADD22OC8,0.15024*%
D10*
X0401800Y0229800D03*
X0401800Y0269800D03*
X0401800Y0339800D03*
X0401800Y0379800D03*
X0486800Y0184800D03*
X0486800Y0144800D03*
X0589784Y0667776D03*
X0599784Y0667776D03*
X0609784Y0667776D03*
X0619784Y0667776D03*
X0629784Y0667776D03*
X0639784Y0667776D03*
X0649784Y0667776D03*
X0659784Y0667776D03*
X0669784Y0667776D03*
X0679784Y0667776D03*
X0689784Y0667776D03*
X0699784Y0667776D03*
X0709784Y0667776D03*
X0719784Y0667776D03*
X0729784Y0667776D03*
X0739784Y0667776D03*
D11*
X0658800Y0711200D02*
X0658800Y0716400D01*
X0648800Y0716400D02*
X0648800Y0711200D01*
X0638800Y0711200D02*
X0638800Y0716400D01*
X0628800Y0716400D02*
X0628800Y0711200D01*
X0618800Y0711200D02*
X0618800Y0716400D01*
X0608800Y0716400D02*
X0608800Y0711200D01*
X0598800Y0711200D02*
X0598800Y0716400D01*
X0588800Y0716400D02*
X0588800Y0711200D01*
X0588800Y0741200D02*
X0588800Y0746400D01*
X0598800Y0746400D02*
X0598800Y0741200D01*
X0608800Y0741200D02*
X0608800Y0746400D01*
X0618800Y0746400D02*
X0618800Y0741200D01*
X0628800Y0741200D02*
X0628800Y0746400D01*
X0638800Y0746400D02*
X0638800Y0741200D01*
X0648800Y0741200D02*
X0648800Y0746400D01*
X0658800Y0746400D02*
X0658800Y0741200D01*
X0364400Y0369800D02*
X0359200Y0369800D01*
X0359200Y0359800D02*
X0364400Y0359800D01*
X0364400Y0349800D02*
X0359200Y0349800D01*
X0359200Y0259800D02*
X0364400Y0259800D01*
X0364400Y0249800D02*
X0359200Y0249800D01*
X0359200Y0239800D02*
X0364400Y0239800D01*
X0259400Y0239800D02*
X0254200Y0239800D01*
X0254200Y0249800D02*
X0259400Y0249800D01*
X0259400Y0259800D02*
X0254200Y0259800D01*
X0254200Y0269800D02*
X0259400Y0269800D01*
X0259400Y0279800D02*
X0254200Y0279800D01*
X0229400Y0279800D02*
X0224200Y0279800D01*
X0224200Y0269800D02*
X0229400Y0269800D01*
X0229400Y0259800D02*
X0224200Y0259800D01*
X0224200Y0249800D02*
X0229400Y0249800D01*
X0229400Y0239800D02*
X0224200Y0239800D01*
X0224200Y0229800D02*
X0229400Y0229800D01*
X0229400Y0219800D02*
X0224200Y0219800D01*
X0254200Y0219800D02*
X0259400Y0219800D01*
X0259400Y0229800D02*
X0254200Y0229800D01*
D12*
X0430400Y0249800D02*
X0438200Y0249800D01*
X0438400Y0226300D02*
X0446200Y0226300D01*
X0486400Y0226300D02*
X0494200Y0226300D01*
X0494200Y0273300D02*
X0486400Y0273300D01*
X0446200Y0273300D02*
X0438400Y0273300D01*
X0438400Y0336300D02*
X0446200Y0336300D01*
X0438200Y0359800D02*
X0430400Y0359800D01*
X0438400Y0383300D02*
X0446200Y0383300D01*
X0486400Y0383300D02*
X0494200Y0383300D01*
X0494200Y0336300D02*
X0486400Y0336300D01*
D13*
X0536800Y0294800D03*
X0536800Y0284800D03*
X0506800Y0184800D03*
X0506800Y0144800D03*
X0526800Y0139800D03*
X0536800Y0139800D03*
X0536800Y0099800D03*
X0526800Y0099800D03*
X0506800Y0079800D03*
X0546800Y0079800D03*
X0657800Y0092800D03*
X0682800Y0107800D03*
X0682800Y0117800D03*
X0707800Y0092800D03*
X0707800Y0082800D03*
X0732800Y0107800D03*
X0732800Y0117800D03*
X0707800Y0147800D03*
X0707800Y0162800D03*
X0682800Y0177800D03*
X0682800Y0187800D03*
X0657800Y0162800D03*
X0707800Y0217800D03*
X0707800Y0232800D03*
X0682800Y0247800D03*
X0682800Y0257800D03*
X0657800Y0232800D03*
X0707800Y0287800D03*
X0707800Y0302800D03*
X0682800Y0317800D03*
X0682800Y0327800D03*
X0657800Y0302800D03*
X0707800Y0357800D03*
X0707800Y0372800D03*
X0682800Y0387800D03*
X0682800Y0397800D03*
X0657800Y0372800D03*
X0707800Y0427800D03*
X0707800Y0442800D03*
X0682800Y0457800D03*
X0682800Y0467800D03*
X0657800Y0442800D03*
X0732800Y0457800D03*
X0732800Y0467800D03*
X0757800Y0427800D03*
X0732800Y0397800D03*
X0732800Y0387800D03*
X0757800Y0357800D03*
X0732800Y0327800D03*
X0732800Y0317800D03*
X0757800Y0287800D03*
X0732800Y0257800D03*
X0732800Y0247800D03*
X0757800Y0217800D03*
X0732800Y0187800D03*
X0732800Y0177800D03*
X0757800Y0147800D03*
X0757800Y0082800D03*
X0536800Y0394800D03*
X0536800Y0404800D03*
X0381800Y0379800D03*
X0381800Y0339800D03*
X0341800Y0349800D03*
X0341800Y0389800D03*
X0286800Y0314800D03*
X0246800Y0314800D03*
X0231800Y0334800D03*
X0231800Y0294800D03*
X0286800Y0254800D03*
X0286800Y0214800D03*
X0286800Y0164800D03*
X0246800Y0164800D03*
X0236800Y0164800D03*
X0196800Y0164800D03*
X0341800Y0229800D03*
X0341800Y0269800D03*
X0381800Y0269800D03*
X0381800Y0229800D03*
X0258800Y0634800D03*
X0258800Y0664800D03*
X0258800Y0677300D03*
X0253800Y0684800D03*
X0263800Y0684800D03*
X0233800Y0684800D03*
X0228800Y0677300D03*
X0223800Y0684800D03*
X0203800Y0684800D03*
X0198800Y0677300D03*
X0193800Y0684800D03*
X0198800Y0664800D03*
X0198800Y0634800D03*
X0228800Y0634800D03*
X0228800Y0664800D03*
X0168800Y0684800D03*
X0163800Y0677300D03*
X0158800Y0684800D03*
X0163800Y0664800D03*
X0163800Y0634800D03*
X0123800Y0634800D03*
X0123800Y0664800D03*
X0123800Y0677300D03*
X0118800Y0684800D03*
X0128800Y0684800D03*
X0088800Y0684800D03*
X0083800Y0677300D03*
X0078800Y0684800D03*
X0083800Y0664800D03*
X0083800Y0634800D03*
X0043800Y0634800D03*
X0043800Y0664800D03*
X0043800Y0677300D03*
X0038800Y0684800D03*
X0048800Y0684800D03*
X0028800Y0749800D03*
X0028800Y0779800D03*
X0068800Y0779800D03*
X0068800Y0749800D03*
X0108800Y0749800D03*
X0108800Y0779800D03*
X0148800Y0779800D03*
X0148800Y0749800D03*
X0188800Y0749800D03*
X0188800Y0779800D03*
X0228800Y0779800D03*
X0228800Y0749800D03*
X0268800Y0749800D03*
X0268800Y0779800D03*
X0483800Y0673800D03*
X0523800Y0673800D03*
D14*
X0723800Y0638800D03*
X0733800Y0638800D03*
X0743800Y0638800D03*
D15*
X0707800Y0490769D02*
X0707800Y0484831D01*
X0697800Y0484831D02*
X0697800Y0490769D01*
X0539769Y0369800D02*
X0533831Y0369800D01*
X0533831Y0359800D02*
X0539769Y0359800D01*
X0539769Y0349800D02*
X0533831Y0349800D01*
X0533831Y0339800D02*
X0539769Y0339800D01*
X0539769Y0269800D02*
X0533831Y0269800D01*
X0533831Y0259800D02*
X0539769Y0259800D01*
X0539769Y0249800D02*
X0533831Y0249800D01*
X0533831Y0239800D02*
X0539769Y0239800D01*
X0534769Y0169800D02*
X0528831Y0169800D01*
X0528831Y0159800D02*
X0534769Y0159800D01*
X0179769Y0224800D02*
X0173831Y0224800D01*
X0173831Y0234800D02*
X0179769Y0234800D01*
X0179769Y0244800D02*
X0173831Y0244800D01*
X0173831Y0254800D02*
X0179769Y0254800D01*
X0179769Y0264800D02*
X0173831Y0264800D01*
X0173800Y0596831D02*
X0173800Y0602769D01*
X0163800Y0602769D02*
X0163800Y0596831D01*
X0153800Y0596831D02*
X0153800Y0602769D01*
X0143800Y0602769D02*
X0143800Y0596831D01*
X0133800Y0596831D02*
X0133800Y0602769D01*
X0183800Y0602769D02*
X0183800Y0596831D01*
X0193800Y0596831D02*
X0193800Y0602769D01*
X0285831Y0679800D02*
X0291769Y0679800D01*
X0291769Y0689800D02*
X0285831Y0689800D01*
X0288800Y0776831D02*
X0288800Y0782769D01*
X0298800Y0782769D02*
X0298800Y0776831D01*
X0253800Y0776831D02*
X0253800Y0782769D01*
X0243800Y0782769D02*
X0243800Y0776831D01*
X0213800Y0776831D02*
X0213800Y0782769D01*
X0203800Y0782769D02*
X0203800Y0776831D01*
X0173800Y0776831D02*
X0173800Y0782769D01*
X0163800Y0782769D02*
X0163800Y0776831D01*
X0133800Y0776831D02*
X0133800Y0782769D01*
X0123800Y0782769D02*
X0123800Y0776831D01*
X0093800Y0776831D02*
X0093800Y0782769D01*
X0083800Y0782769D02*
X0083800Y0776831D01*
X0053800Y0776831D02*
X0053800Y0782769D01*
X0043800Y0782769D02*
X0043800Y0776831D01*
X0483800Y0641769D02*
X0483800Y0635831D01*
X0493800Y0635831D02*
X0493800Y0641769D01*
X0503800Y0641769D02*
X0503800Y0635831D01*
X0513800Y0635831D02*
X0513800Y0641769D01*
X0523800Y0641769D02*
X0523800Y0635831D01*
D16*
X0075725Y0065000D02*
X0068675Y0065000D01*
X0068675Y0084600D02*
X0075725Y0084600D01*
X0117875Y0084600D02*
X0124925Y0084600D01*
X0124925Y0065000D02*
X0117875Y0065000D01*
X0373675Y0065000D02*
X0380725Y0065000D01*
X0380725Y0084600D02*
X0373675Y0084600D01*
X0422875Y0084600D02*
X0429925Y0084600D01*
X0429925Y0065000D02*
X0422875Y0065000D01*
X0269925Y0390000D02*
X0262875Y0390000D01*
X0262875Y0409600D02*
X0269925Y0409600D01*
X0220725Y0409600D02*
X0213675Y0409600D01*
X0213675Y0390000D02*
X0220725Y0390000D01*
X0220725Y0510000D02*
X0213675Y0510000D01*
X0213675Y0529600D02*
X0220725Y0529600D01*
X0262875Y0529600D02*
X0269925Y0529600D01*
X0269925Y0510000D02*
X0262875Y0510000D01*
D17*
X0378500Y0169800D02*
X0385100Y0169800D01*
X0385100Y0159800D02*
X0378500Y0159800D01*
X0378500Y0149800D02*
X0385100Y0149800D01*
D18*
X0351800Y0149800D03*
X0351800Y0139800D03*
X0351800Y0174800D03*
X0351800Y0184800D03*
D19*
X0196800Y0224800D03*
X0196800Y0254800D03*
X0296800Y0424800D03*
X0553800Y0668800D03*
X0553800Y0688800D03*
X0678800Y0693800D03*
X0723800Y0693800D03*
D20*
X0311800Y0314800D03*
X0296800Y0384800D03*
X0296800Y0424800D03*
X0311800Y0229800D03*
X0306800Y0204800D03*
X0261800Y0189800D03*
X0221800Y0204800D03*
D21*
X0221800Y0189800D03*
X0286800Y0139800D03*
X0326800Y0139800D03*
D22*
X0637800Y0147800D03*
X0637800Y0117800D03*
X0637800Y0087800D03*
X0637800Y0057800D03*
X0637800Y0027800D03*
X0677800Y0027800D03*
X0707800Y0027800D03*
X0737800Y0027800D03*
X0777800Y0027800D03*
X0777800Y0057800D03*
X0777800Y0087800D03*
X0777800Y0117800D03*
X0777800Y0147800D03*
X0777800Y0177800D03*
X0777800Y0207800D03*
X0777800Y0237800D03*
X0777800Y0267800D03*
X0777800Y0297800D03*
X0777800Y0327800D03*
X0777800Y0357800D03*
X0777800Y0387800D03*
X0777800Y0417800D03*
X0777800Y0447800D03*
X0777800Y0477800D03*
X0777800Y0507800D03*
X0777800Y0537800D03*
X0737800Y0537800D03*
X0707800Y0537800D03*
X0677800Y0537800D03*
X0637800Y0537800D03*
X0637800Y0507800D03*
X0637800Y0477800D03*
X0637800Y0447800D03*
X0637800Y0417800D03*
X0637800Y0387800D03*
X0637800Y0357800D03*
X0637800Y0327800D03*
X0637800Y0297800D03*
X0637800Y0267800D03*
X0637800Y0237800D03*
X0637800Y0207800D03*
X0637800Y0177800D03*
M02*
