%
M48
M72
T01C0.02400
T02C0.03200
T03C0.03937
T04C0.04331
T05C0.04400
T06C0.04700
T07C0.05118
T08C0.05200
T09C0.05512
T10C0.07100
T11C0.09843
T12C0.11024
T13C0.13000
%
T01
X723800Y638800
X733800Y638800
X743800Y638800
T02
X658800Y713800
X648800Y713800
X638800Y713800
X628800Y713800
X618800Y713800
X608800Y713800
X598800Y713800
X588800Y713800
X588800Y743800
X598800Y743800
X608800Y743800
X618800Y743800
X628800Y743800
X638800Y743800
X648800Y743800
X658800Y743800
X523800Y673800
X483800Y673800
X682800Y467800
X682800Y457800
X657800Y442800
X682800Y397800
X682800Y387800
X657800Y372800
X707800Y372800
X707800Y357800
X682800Y327800
X682800Y317800
X657800Y302800
X682800Y257800
X682800Y247800
X657800Y232800
X707800Y232800
X707800Y217800
X682800Y187800
X682800Y177800
X657800Y162800
X682800Y117800
X682800Y107800
X657800Y92800
X707800Y92800
X707800Y82800
X732800Y107800
X732800Y117800
X707800Y147800
X707800Y162800
X732800Y177800
X732800Y187800
X757800Y217800
X732800Y247800
X732800Y257800
X707800Y287800
X707800Y302800
X732800Y317800
X732800Y327800
X757800Y357800
X732800Y387800
X732800Y397800
X707800Y427800
X707800Y442800
X732800Y457800
X732800Y467800
X757800Y427800
X757800Y287800
X757800Y147800
X757800Y82800
X546800Y79800
X536800Y99800
X526800Y99800
X506800Y79800
X526800Y139800
X536800Y139800
X506800Y144800
X506800Y184800
X536800Y284800
X536800Y294800
X536800Y394800
X536800Y404800
X381800Y379800
X361800Y369800
X361800Y359800
X361800Y349800
X381800Y339800
X341800Y349800
X341800Y389800
X286800Y314800
X246800Y314800
X231800Y334800
X231800Y294800
X226800Y279800
X226800Y269800
X226800Y259800
X226800Y249800
X226800Y239800
X226800Y229800
X226800Y219800
X256800Y219800
X256800Y229800
X256800Y239800
X256800Y249800
X256800Y259800
X256800Y269800
X256800Y279800
X286800Y254800
X286800Y214800
X286800Y164800
X246800Y164800
X236800Y164800
X196800Y164800
X341800Y229800
X361800Y239800
X361800Y249800
X361800Y259800
X381800Y269800
X381800Y229800
X351800Y184800
X351800Y174800
X351800Y149800
X351800Y139800
X341800Y269800
X258800Y634800
X258800Y664800
X258800Y677300
X253800Y684800
X263800Y684800
X233800Y684800
X228800Y677300
X223800Y684800
X203800Y684800
X198800Y677300
X193800Y684800
X198800Y664800
X198800Y634800
X228800Y634800
X228800Y664800
X168800Y684800
X163800Y677300
X158800Y684800
X163800Y664800
X163800Y634800
X123800Y634800
X123800Y664800
X123800Y677300
X118800Y684800
X128800Y684800
X88800Y684800
X83800Y677300
X78800Y684800
X83800Y664800
X83800Y634800
X43800Y634800
X43800Y664800
X43800Y677300
X38800Y684800
X48800Y684800
X28800Y749800
X28800Y779800
X68800Y779800
X68800Y749800
X108800Y749800
X108800Y779800
X148800Y779800
X148800Y749800
X188800Y749800
X188800Y779800
X228800Y779800
X228800Y749800
X268800Y749800
X268800Y779800
T03
X253800Y779800
X243800Y779800
X213800Y779800
X203800Y779800
X173800Y779800
X163800Y779800
X133800Y779800
X123800Y779800
X93800Y779800
X83800Y779800
X53800Y779800
X43800Y779800
X133800Y599800
X143800Y599800
X153800Y599800
X163800Y599800
X173800Y599800
X183800Y599800
X193800Y599800
X288800Y679800
X288800Y689800
X288800Y779800
X298800Y779800
X483800Y638800
X493800Y638800
X503800Y638800
X513800Y638800
X523800Y638800
X589784Y667776
X599784Y667776
X609784Y667776
X619784Y667776
X629784Y667776
X639784Y667776
X649784Y667776
X659784Y667776
X669784Y667776
X679784Y667776
X689784Y667776
X699784Y667776
X709784Y667776
X719784Y667776
X729784Y667776
X739784Y667776
X707800Y487800
X697800Y487800
X536800Y369800
X536800Y359800
X536800Y349800
X536800Y339800
X536800Y269800
X536800Y259800
X536800Y249800
X536800Y239800
X531800Y169800
X531800Y159800
X176800Y224800
X176800Y234800
X176800Y244800
X176800Y254800
X176800Y264800
T04
X196800Y254800
X196800Y224800
X296800Y424800
X553800Y668800
X553800Y688800
X678800Y693800
X723800Y693800
T05
X401800Y379800
X401800Y339800
X401800Y269800
X401800Y229800
X381800Y169800
X381800Y159800
X381800Y149800
X486800Y144800
X486800Y184800
T06
X426400Y84600
X426400Y65000
X377200Y65000
X377200Y84600
X121400Y84600
X121400Y65000
X72200Y65000
X72200Y84600
X217200Y390000
X217200Y409600
X266400Y409600
X266400Y390000
X266400Y510000
X266400Y529600
X217200Y529600
X217200Y510000
T07
X296800Y424800
X296800Y384800
X311800Y314800
X311800Y229800
X306800Y204800
X261800Y189800
X221800Y204800
T08
X434300Y249800
X442300Y226300
X442300Y273300
X490300Y273300
X490300Y226300
X490300Y336300
X490300Y383300
X442300Y383300
X434300Y359800
X442300Y336300
T09
X326800Y139800
X286800Y139800
X221800Y189800
T10
X96800Y92500
X96800Y57100
X401800Y57100
X401800Y92500
X241800Y382100
X241800Y417500
X241800Y502100
X241800Y537500
T11
X466162Y667776
X466162Y789824
X761438Y789824
X761438Y667776
T12
X41800Y39800
X96800Y204800
X96800Y319800
X161800Y459800
X51800Y514800
X28800Y609800
X23800Y799800
X308800Y609800
X458800Y623800
X526800Y514800
X637800Y507800
X637800Y477800
X637800Y447800
X637800Y417800
X637800Y387800
X637800Y357800
X637800Y327800
X637800Y297800
X637800Y267800
X637800Y237800
X637800Y207800
X637800Y177800
X637800Y147800
X637800Y117800
X637800Y87800
X637800Y57800
X637800Y27800
X677800Y27800
X707800Y27800
X737800Y27800
X777800Y27800
X777800Y57800
X777800Y87800
X777800Y117800
X777800Y147800
X777800Y177800
X777800Y207800
X777800Y237800
X777800Y267800
X777800Y297800
X777800Y327800
X777800Y357800
X777800Y387800
X777800Y417800
X777800Y447800
X777800Y477800
X777800Y507800
X777800Y537800
X737800Y537800
X707800Y537800
X677800Y537800
X637800Y537800
X773800Y613800
X618800Y798800
X313800Y799800
X381800Y459800
X381800Y309800
X531800Y39800
T13
X440800Y159800
M30
