G75*
%MOMM*%
%FSLAX34Y34*%
%LPD*%
%AMOC8*
5,1,8,0,0,1.08239X$1,22.5*%
G01*
%ADD10C,0.000000*%
%ADD11R,1.100000X1.000000*%
%ADD12P,1.374635X8X22.500000*%
%ADD13P,1.374635X8X202.500000*%
%ADD14R,1.800000X1.700000*%
%ADD15R,0.800000X0.900000*%
%ADD16R,1.000000X1.100000*%
%ADD17R,3.000000X3.000000*%
%ADD18R,3.500000X3.500000*%
%ADD19R,2.500000X2.500000*%
%ADD20R,2.850000X2.850000*%
%ADD21R,1.700000X1.800000*%
%ADD22R,1.600200X1.600200*%
%ADD23C,1.524000*%
%ADD24P,1.374635X8X292.500000*%
%ADD25P,1.374635X8X112.500000*%
%ADD26P,1.814519X8X292.500000*%
%ADD27P,1.814519X8X22.500000*%
%ADD28R,1.500000X0.600000*%
%ADD29R,1.800000X2.700000*%
%ADD30C,1.320800*%
%ADD31R,0.900000X0.800000*%
%ADD32P,1.429621X8X292.500000*%
%ADD33C,1.270000*%
%ADD34C,0.812800*%
%ADD35C,0.609600*%
%ADD36C,1.006400*%

G36*
X175470Y11607D02*
X175470Y11607D01*
X175602Y11608D01*
X175694Y11626D01*
X175788Y11635D01*
X175915Y11669D01*
X176044Y11694D01*
X176132Y11728D01*
X176223Y11753D01*
X176341Y11809D01*
X176464Y11856D01*
X176544Y11905D01*
X176629Y11946D01*
X176736Y12022D01*
X176848Y12090D01*
X176919Y12153D01*
X176996Y12207D01*
X177087Y12301D01*
X177186Y12388D01*
X177244Y12462D01*
X177310Y12530D01*
X177384Y12639D01*
X177465Y12741D01*
X177510Y12824D01*
X177563Y12903D01*
X177616Y13023D01*
X177678Y13138D01*
X177707Y13228D01*
X177745Y13314D01*
X177776Y13442D01*
X177817Y13567D01*
X177830Y13660D01*
X177852Y13752D01*
X177860Y13882D01*
X177878Y14013D01*
X177874Y14107D01*
X177880Y14201D01*
X177865Y14331D01*
X177860Y14462D01*
X177840Y14555D01*
X177829Y14648D01*
X177791Y14774D01*
X177762Y14902D01*
X177726Y14989D01*
X177699Y15079D01*
X177639Y15196D01*
X177589Y15318D01*
X177538Y15397D01*
X177495Y15481D01*
X177416Y15585D01*
X177344Y15696D01*
X177260Y15792D01*
X177223Y15840D01*
X177190Y15871D01*
X177138Y15930D01*
X139247Y53820D01*
X137855Y57181D01*
X137855Y151491D01*
X137845Y151608D01*
X137845Y151725D01*
X137825Y151831D01*
X137815Y151940D01*
X137785Y152053D01*
X137764Y152168D01*
X137713Y152314D01*
X137697Y152374D01*
X137681Y152407D01*
X137662Y152463D01*
X135871Y156786D01*
X135871Y161214D01*
X137565Y165304D01*
X140696Y168435D01*
X144786Y170129D01*
X149214Y170129D01*
X153304Y168435D01*
X156435Y165304D01*
X158129Y161214D01*
X158129Y156786D01*
X156338Y152463D01*
X156303Y152352D01*
X156259Y152244D01*
X156236Y152137D01*
X156203Y152034D01*
X156189Y151918D01*
X156164Y151803D01*
X156154Y151649D01*
X156147Y151587D01*
X156148Y151551D01*
X156145Y151491D01*
X156145Y63840D01*
X156159Y63676D01*
X156166Y63512D01*
X156179Y63452D01*
X156185Y63391D01*
X156228Y63232D01*
X156264Y63072D01*
X156287Y63016D01*
X156303Y62957D01*
X156374Y62809D01*
X156437Y62657D01*
X156470Y62605D01*
X156497Y62550D01*
X156592Y62417D01*
X156682Y62278D01*
X156733Y62221D01*
X156759Y62184D01*
X156802Y62142D01*
X156888Y62044D01*
X185044Y33888D01*
X185170Y33783D01*
X185291Y33671D01*
X185343Y33639D01*
X185390Y33600D01*
X185532Y33518D01*
X185671Y33430D01*
X185728Y33406D01*
X185780Y33376D01*
X185935Y33321D01*
X186088Y33259D01*
X186147Y33246D01*
X186205Y33225D01*
X186367Y33199D01*
X186528Y33164D01*
X186605Y33159D01*
X186649Y33152D01*
X186710Y33153D01*
X186840Y33145D01*
X217994Y33145D01*
X218076Y33152D01*
X218158Y33150D01*
X218299Y33172D01*
X218442Y33185D01*
X218522Y33206D01*
X218603Y33219D01*
X218738Y33265D01*
X218877Y33303D01*
X218951Y33339D01*
X219029Y33365D01*
X219154Y33435D01*
X219283Y33497D01*
X219350Y33544D01*
X219422Y33585D01*
X219533Y33675D01*
X219649Y33759D01*
X219707Y33818D01*
X219770Y33870D01*
X219863Y33979D01*
X219963Y34081D01*
X220009Y34150D01*
X220063Y34212D01*
X220135Y34336D01*
X220215Y34454D01*
X220249Y34530D01*
X220290Y34601D01*
X220340Y34735D01*
X220398Y34866D01*
X220417Y34946D01*
X220446Y35024D01*
X220470Y35165D01*
X220504Y35304D01*
X220509Y35386D01*
X220524Y35467D01*
X220523Y35610D01*
X220532Y35753D01*
X220522Y35835D01*
X220522Y35917D01*
X220496Y36058D01*
X220480Y36200D01*
X220456Y36279D01*
X220441Y36360D01*
X220361Y36594D01*
X220350Y36631D01*
X220345Y36641D01*
X220340Y36656D01*
X219871Y37786D01*
X219871Y42214D01*
X221662Y46537D01*
X221697Y46648D01*
X221741Y46756D01*
X221764Y46863D01*
X221797Y46966D01*
X221811Y47082D01*
X221836Y47197D01*
X221846Y47351D01*
X221853Y47413D01*
X221852Y47449D01*
X221855Y47509D01*
X221855Y115788D01*
X221840Y115965D01*
X221830Y116142D01*
X221820Y116188D01*
X221815Y116236D01*
X221769Y116408D01*
X221728Y116581D01*
X221709Y116625D01*
X221697Y116671D01*
X221621Y116830D01*
X221550Y116994D01*
X221524Y117034D01*
X221503Y117077D01*
X221400Y117221D01*
X221302Y117370D01*
X221269Y117404D01*
X221241Y117443D01*
X221114Y117567D01*
X220991Y117696D01*
X220953Y117724D01*
X220919Y117757D01*
X220771Y117857D01*
X220628Y117962D01*
X220585Y117983D01*
X220546Y118009D01*
X220383Y118081D01*
X220224Y118159D01*
X220177Y118172D01*
X220134Y118192D01*
X219961Y118234D01*
X219790Y118282D01*
X219743Y118287D01*
X219696Y118298D01*
X219520Y118309D01*
X219342Y118327D01*
X219295Y118323D01*
X219247Y118326D01*
X219071Y118305D01*
X218893Y118292D01*
X218847Y118279D01*
X218800Y118274D01*
X218630Y118222D01*
X218458Y118178D01*
X218414Y118157D01*
X218369Y118144D01*
X218210Y118063D01*
X218049Y117988D01*
X218010Y117961D01*
X217967Y117939D01*
X217826Y117832D01*
X217680Y117730D01*
X217647Y117696D01*
X217609Y117667D01*
X217488Y117537D01*
X217363Y117411D01*
X217336Y117371D01*
X217304Y117336D01*
X217208Y117186D01*
X217107Y117040D01*
X217081Y116987D01*
X217062Y116956D01*
X217038Y116898D01*
X216970Y116759D01*
X216597Y115858D01*
X213466Y112728D01*
X209376Y111034D01*
X204949Y111034D01*
X200859Y112728D01*
X197728Y115859D01*
X196034Y119949D01*
X196034Y124642D01*
X196041Y124764D01*
X196049Y124827D01*
X196047Y124863D01*
X196051Y124923D01*
X196051Y146733D01*
X196041Y146849D01*
X196040Y146966D01*
X196021Y147073D01*
X196011Y147181D01*
X195980Y147294D01*
X195959Y147409D01*
X195909Y147555D01*
X195893Y147615D01*
X195877Y147648D01*
X195858Y147704D01*
X195083Y149575D01*
X195083Y149992D01*
X195073Y150109D01*
X195072Y150226D01*
X195053Y150332D01*
X195043Y150441D01*
X195012Y150554D01*
X194991Y150669D01*
X194941Y150814D01*
X194925Y150875D01*
X194915Y150896D01*
X194915Y175020D01*
X194905Y175136D01*
X194904Y175253D01*
X194885Y175360D01*
X194875Y175468D01*
X194844Y175581D01*
X194823Y175696D01*
X194773Y175842D01*
X194756Y175903D01*
X194741Y175935D01*
X194722Y175992D01*
X193947Y177862D01*
X193947Y182289D01*
X194722Y184160D01*
X194757Y184271D01*
X194801Y184379D01*
X194824Y184485D01*
X194856Y184589D01*
X194871Y184705D01*
X194896Y184819D01*
X194905Y184973D01*
X194913Y185036D01*
X194911Y185072D01*
X194915Y185131D01*
X194915Y190614D01*
X194900Y190778D01*
X194894Y190942D01*
X194880Y191002D01*
X194875Y191062D01*
X194832Y191221D01*
X194796Y191382D01*
X194773Y191438D01*
X194756Y191497D01*
X194686Y191645D01*
X194622Y191797D01*
X194589Y191848D01*
X194563Y191903D01*
X194468Y192037D01*
X194378Y192175D01*
X194327Y192233D01*
X194301Y192269D01*
X194257Y192312D01*
X194171Y192409D01*
X192796Y193785D01*
X192769Y193807D01*
X192746Y193833D01*
X192597Y193951D01*
X192450Y194074D01*
X192420Y194091D01*
X192393Y194113D01*
X192225Y194203D01*
X192059Y194297D01*
X192027Y194309D01*
X191996Y194325D01*
X191815Y194384D01*
X191635Y194448D01*
X191601Y194454D01*
X191568Y194464D01*
X191379Y194490D01*
X191191Y194522D01*
X191156Y194521D01*
X191122Y194526D01*
X190931Y194518D01*
X190740Y194515D01*
X190706Y194509D01*
X190672Y194507D01*
X190486Y194466D01*
X190298Y194430D01*
X190266Y194417D01*
X190232Y194410D01*
X190056Y194336D01*
X189878Y194268D01*
X189849Y194250D01*
X189817Y194236D01*
X189657Y194133D01*
X189494Y194034D01*
X189468Y194011D01*
X189439Y193992D01*
X189204Y193785D01*
X174806Y179386D01*
X171071Y177839D01*
X142260Y177839D01*
X142097Y177825D01*
X141932Y177818D01*
X141873Y177805D01*
X141812Y177799D01*
X141653Y177756D01*
X141493Y177720D01*
X141436Y177697D01*
X141378Y177681D01*
X141230Y177610D01*
X141077Y177547D01*
X141026Y177514D01*
X140971Y177487D01*
X140838Y177392D01*
X140699Y177302D01*
X140641Y177251D01*
X140605Y177225D01*
X140562Y177182D01*
X140465Y177096D01*
X123256Y159886D01*
X119521Y158339D01*
X114013Y158339D01*
X113849Y158325D01*
X113685Y158318D01*
X113625Y158305D01*
X113565Y158299D01*
X113406Y158256D01*
X113245Y158220D01*
X113189Y158197D01*
X113130Y158181D01*
X112982Y158110D01*
X112830Y158047D01*
X112779Y158014D01*
X112724Y157987D01*
X112590Y157892D01*
X112574Y157881D01*
X110213Y156903D01*
X97787Y156903D01*
X95455Y157869D01*
X95437Y157884D01*
X95294Y157966D01*
X95156Y158054D01*
X95099Y158078D01*
X95046Y158108D01*
X94891Y158163D01*
X94739Y158225D01*
X94679Y158238D01*
X94622Y158259D01*
X94459Y158285D01*
X94299Y158320D01*
X94222Y158325D01*
X94178Y158332D01*
X94116Y158331D01*
X93987Y158339D01*
X89477Y158339D01*
X89361Y158329D01*
X89244Y158329D01*
X89137Y158309D01*
X89029Y158299D01*
X88916Y158269D01*
X88801Y158248D01*
X88655Y158197D01*
X88595Y158181D01*
X88562Y158165D01*
X88506Y158146D01*
X86713Y157403D01*
X73287Y157403D01*
X72554Y157707D01*
X72442Y157742D01*
X72334Y157786D01*
X72228Y157809D01*
X72124Y157842D01*
X72008Y157857D01*
X71894Y157881D01*
X71740Y157891D01*
X71678Y157899D01*
X71641Y157897D01*
X71582Y157900D01*
X57738Y157900D01*
X54004Y159447D01*
X51580Y161871D01*
X51455Y161976D01*
X51333Y162088D01*
X51282Y162120D01*
X51235Y162159D01*
X51093Y162241D01*
X50954Y162329D01*
X50897Y162353D01*
X50844Y162383D01*
X50689Y162438D01*
X50537Y162500D01*
X50477Y162513D01*
X50420Y162534D01*
X50258Y162560D01*
X50097Y162595D01*
X50020Y162600D01*
X49976Y162607D01*
X49915Y162606D01*
X49785Y162614D01*
X47604Y162614D01*
X40431Y169787D01*
X40404Y169810D01*
X40382Y169835D01*
X40233Y169953D01*
X40086Y170076D01*
X40055Y170093D01*
X40028Y170115D01*
X39861Y170205D01*
X39695Y170299D01*
X39662Y170311D01*
X39632Y170327D01*
X39450Y170386D01*
X39270Y170450D01*
X39236Y170456D01*
X39203Y170467D01*
X39014Y170493D01*
X38826Y170524D01*
X38792Y170523D01*
X38757Y170528D01*
X38566Y170520D01*
X38376Y170518D01*
X38342Y170511D01*
X38307Y170510D01*
X38121Y170468D01*
X37934Y170432D01*
X37902Y170420D01*
X37868Y170412D01*
X37692Y170338D01*
X37514Y170270D01*
X37484Y170252D01*
X37452Y170238D01*
X37292Y170135D01*
X37129Y170036D01*
X37103Y170013D01*
X37074Y169994D01*
X36840Y169787D01*
X33097Y166044D01*
X31954Y166044D01*
X31954Y174934D01*
X31950Y174969D01*
X31953Y175003D01*
X31931Y175193D01*
X31914Y175383D01*
X31905Y175416D01*
X31901Y175451D01*
X31845Y175634D01*
X31795Y175817D01*
X31780Y175848D01*
X31770Y175882D01*
X31683Y176052D01*
X31602Y176224D01*
X31582Y176252D01*
X31566Y176283D01*
X31451Y176435D01*
X31340Y176590D01*
X31339Y176590D01*
X31315Y176614D01*
X31294Y176642D01*
X31293Y176642D01*
X31153Y176771D01*
X31016Y176904D01*
X30988Y176924D01*
X30962Y176947D01*
X30801Y177050D01*
X30643Y177157D01*
X30612Y177171D01*
X30582Y177189D01*
X30406Y177261D01*
X30232Y177339D01*
X30198Y177347D01*
X30166Y177360D01*
X29979Y177400D01*
X29794Y177445D01*
X29760Y177448D01*
X29726Y177455D01*
X29414Y177474D01*
X20523Y177474D01*
X20523Y178617D01*
X25531Y183624D01*
X25614Y183724D01*
X25705Y183817D01*
X25758Y183897D01*
X25819Y183970D01*
X25884Y184083D01*
X25957Y184190D01*
X25995Y184278D01*
X26043Y184361D01*
X26086Y184483D01*
X26139Y184602D01*
X26162Y184695D01*
X26194Y184785D01*
X26215Y184913D01*
X26246Y185040D01*
X26252Y185135D01*
X26267Y185229D01*
X26265Y185359D01*
X26273Y185489D01*
X26262Y185584D01*
X26261Y185680D01*
X26236Y185807D01*
X26221Y185936D01*
X26194Y186028D01*
X26175Y186122D01*
X26129Y186243D01*
X26091Y186367D01*
X26048Y186452D01*
X26013Y186542D01*
X25946Y186653D01*
X25887Y186769D01*
X25829Y186845D01*
X25779Y186926D01*
X25693Y187024D01*
X25615Y187127D01*
X25544Y187192D01*
X25481Y187264D01*
X25379Y187344D01*
X25283Y187433D01*
X25203Y187484D01*
X25128Y187543D01*
X25013Y187604D01*
X24904Y187674D01*
X24815Y187711D01*
X24731Y187756D01*
X24607Y187796D01*
X24487Y187845D01*
X24394Y187865D01*
X24303Y187895D01*
X24174Y187913D01*
X24047Y187940D01*
X23917Y187948D01*
X23857Y187956D01*
X23812Y187955D01*
X23735Y187959D01*
X23165Y187959D01*
X22519Y188132D01*
X21940Y188467D01*
X21467Y188940D01*
X21132Y189519D01*
X20959Y190165D01*
X20959Y193461D01*
X28500Y193461D01*
X28534Y193464D01*
X28569Y193462D01*
X28758Y193484D01*
X28948Y193500D01*
X28982Y193510D01*
X29016Y193514D01*
X29199Y193569D01*
X29383Y193619D01*
X29414Y193634D01*
X29447Y193644D01*
X29618Y193731D01*
X29789Y193812D01*
X29817Y193833D01*
X29848Y193848D01*
X30000Y193963D01*
X30155Y194075D01*
X30179Y194099D01*
X30207Y194120D01*
X30207Y194121D01*
X30336Y194260D01*
X30469Y194397D01*
X30470Y194398D01*
X30489Y194426D01*
X30513Y194452D01*
X30615Y194613D01*
X30722Y194771D01*
X30736Y194802D01*
X30754Y194832D01*
X30827Y195008D01*
X30904Y195183D01*
X30912Y195216D01*
X30925Y195248D01*
X30966Y195435D01*
X31011Y195620D01*
X31013Y195654D01*
X31020Y195688D01*
X31039Y196000D01*
X31039Y204041D01*
X33367Y204041D01*
X33530Y204055D01*
X33694Y204062D01*
X33754Y204075D01*
X33815Y204081D01*
X33974Y204124D01*
X34134Y204159D01*
X34191Y204183D01*
X34250Y204199D01*
X34398Y204270D01*
X34549Y204333D01*
X34601Y204366D01*
X34656Y204393D01*
X34790Y204488D01*
X34928Y204577D01*
X34986Y204628D01*
X35022Y204655D01*
X35065Y204698D01*
X35162Y204784D01*
X35228Y204850D01*
X35250Y204877D01*
X35276Y204900D01*
X35394Y205049D01*
X35517Y205195D01*
X35534Y205226D01*
X35556Y205253D01*
X35646Y205420D01*
X35740Y205586D01*
X35752Y205619D01*
X35768Y205650D01*
X35827Y205831D01*
X35891Y206010D01*
X35897Y206045D01*
X35908Y206078D01*
X35934Y206267D01*
X35965Y206454D01*
X35964Y206489D01*
X35969Y206524D01*
X35961Y206715D01*
X35959Y206905D01*
X35952Y206939D01*
X35951Y206974D01*
X35909Y207160D01*
X35873Y207347D01*
X35861Y207379D01*
X35853Y207413D01*
X35779Y207590D01*
X35711Y207767D01*
X35693Y207796D01*
X35679Y207829D01*
X35576Y207989D01*
X35477Y208152D01*
X35454Y208178D01*
X35435Y208207D01*
X35228Y208441D01*
X34098Y209572D01*
X33971Y209678D01*
X33850Y209789D01*
X33799Y209822D01*
X33752Y209861D01*
X33609Y209942D01*
X33471Y210031D01*
X33414Y210054D01*
X33361Y210084D01*
X33206Y210139D01*
X33054Y210202D01*
X32994Y210215D01*
X32937Y210235D01*
X32775Y210262D01*
X32614Y210296D01*
X32537Y210301D01*
X32493Y210309D01*
X32432Y210308D01*
X32302Y210316D01*
X30475Y210316D01*
X30475Y217856D01*
X30474Y217856D01*
X30475Y217857D01*
X30475Y225397D01*
X32235Y225397D01*
X32270Y225400D01*
X32304Y225398D01*
X32494Y225420D01*
X32684Y225437D01*
X32717Y225446D01*
X32751Y225450D01*
X32934Y225506D01*
X33118Y225556D01*
X33149Y225570D01*
X33182Y225580D01*
X33353Y225667D01*
X33525Y225749D01*
X33553Y225769D01*
X33584Y225785D01*
X33736Y225900D01*
X33891Y226011D01*
X33915Y226036D01*
X33942Y226057D01*
X34072Y226197D01*
X34205Y226334D01*
X34224Y226363D01*
X34248Y226388D01*
X34350Y226549D01*
X34457Y226707D01*
X34471Y226739D01*
X34489Y226768D01*
X34562Y226944D01*
X34639Y227119D01*
X34647Y227152D01*
X34660Y227184D01*
X34701Y227371D01*
X34746Y227556D01*
X34748Y227591D01*
X34755Y227625D01*
X34774Y227936D01*
X34774Y281984D01*
X34789Y282020D01*
X34812Y282126D01*
X34845Y282230D01*
X34859Y282346D01*
X34884Y282461D01*
X34894Y282614D01*
X34901Y282677D01*
X34900Y282713D01*
X34903Y282772D01*
X34903Y299713D01*
X35831Y301954D01*
X37546Y303669D01*
X39787Y304597D01*
X60213Y304597D01*
X62454Y303669D01*
X64169Y301954D01*
X65097Y299713D01*
X65097Y272700D01*
X65100Y272665D01*
X65098Y272631D01*
X65120Y272442D01*
X65137Y272251D01*
X65146Y272218D01*
X65150Y272184D01*
X65205Y272001D01*
X65255Y271817D01*
X65270Y271786D01*
X65280Y271753D01*
X65367Y271582D01*
X65449Y271410D01*
X65469Y271382D01*
X65484Y271351D01*
X65600Y271199D01*
X65711Y271044D01*
X65736Y271020D01*
X65756Y270993D01*
X65896Y270864D01*
X66033Y270730D01*
X66062Y270711D01*
X66088Y270687D01*
X66249Y270585D01*
X66406Y270478D01*
X66438Y270464D01*
X66467Y270446D01*
X66644Y270373D01*
X66818Y270296D01*
X66852Y270288D01*
X66884Y270275D01*
X67071Y270235D01*
X67256Y270189D01*
X67290Y270187D01*
X67324Y270180D01*
X67636Y270161D01*
X76364Y270161D01*
X76399Y270164D01*
X76433Y270162D01*
X76622Y270184D01*
X76813Y270201D01*
X76846Y270210D01*
X76880Y270214D01*
X77063Y270269D01*
X77247Y270319D01*
X77278Y270334D01*
X77311Y270344D01*
X77482Y270431D01*
X77654Y270513D01*
X77682Y270533D01*
X77713Y270548D01*
X77865Y270664D01*
X78020Y270775D01*
X78044Y270800D01*
X78071Y270820D01*
X78200Y270960D01*
X78334Y271097D01*
X78353Y271126D01*
X78377Y271152D01*
X78479Y271313D01*
X78586Y271470D01*
X78600Y271502D01*
X78618Y271531D01*
X78691Y271708D01*
X78768Y271882D01*
X78776Y271916D01*
X78789Y271948D01*
X78829Y272135D01*
X78875Y272320D01*
X78877Y272354D01*
X78884Y272388D01*
X78903Y272700D01*
X78903Y299713D01*
X79831Y301954D01*
X81546Y303669D01*
X83787Y304597D01*
X98397Y304597D01*
X98527Y304608D01*
X98657Y304610D01*
X98750Y304628D01*
X98845Y304637D01*
X98971Y304671D01*
X99099Y304696D01*
X99188Y304730D01*
X99280Y304755D01*
X99397Y304811D01*
X99519Y304858D01*
X99600Y304908D01*
X99686Y304949D01*
X99792Y305024D01*
X99903Y305092D01*
X99975Y305155D01*
X100053Y305211D01*
X100143Y305304D01*
X100241Y305390D01*
X100300Y305465D01*
X100367Y305533D01*
X100440Y305641D01*
X100520Y305743D01*
X100565Y305827D01*
X100619Y305906D01*
X100671Y306025D01*
X100733Y306140D01*
X100762Y306231D01*
X100801Y306318D01*
X100832Y306445D01*
X100872Y306568D01*
X100885Y306663D01*
X100908Y306756D01*
X100916Y306885D01*
X100933Y307014D01*
X100929Y307110D01*
X100935Y307205D01*
X100920Y307334D01*
X100915Y307464D01*
X100894Y307557D01*
X100883Y307652D01*
X100846Y307777D01*
X100817Y307904D01*
X100781Y307992D01*
X100753Y308083D01*
X100694Y308199D01*
X100644Y308319D01*
X100592Y308399D01*
X100549Y308485D01*
X100470Y308588D01*
X100399Y308697D01*
X100313Y308795D01*
X100277Y308843D01*
X100244Y308874D01*
X100192Y308932D01*
X97121Y312003D01*
X97121Y323997D01*
X105603Y332479D01*
X117597Y332479D01*
X126079Y323997D01*
X126079Y312003D01*
X117597Y303521D01*
X111319Y303521D01*
X111237Y303514D01*
X111155Y303516D01*
X111014Y303494D01*
X110871Y303481D01*
X110791Y303460D01*
X110710Y303447D01*
X110575Y303401D01*
X110437Y303363D01*
X110362Y303327D01*
X110284Y303301D01*
X110159Y303231D01*
X110030Y303169D01*
X109963Y303121D01*
X109891Y303081D01*
X109780Y302991D01*
X109664Y302907D01*
X109606Y302848D01*
X109543Y302796D01*
X109450Y302687D01*
X109350Y302585D01*
X109304Y302516D01*
X109250Y302454D01*
X109178Y302330D01*
X109098Y302212D01*
X109064Y302136D01*
X109023Y302065D01*
X108973Y301931D01*
X108915Y301800D01*
X108896Y301720D01*
X108868Y301642D01*
X108843Y301501D01*
X108809Y301362D01*
X108804Y301280D01*
X108789Y301199D01*
X108790Y301056D01*
X108781Y300913D01*
X108791Y300831D01*
X108791Y300749D01*
X108817Y300608D01*
X108833Y300466D01*
X108857Y300387D01*
X108872Y300306D01*
X108952Y300073D01*
X108963Y300035D01*
X108968Y300025D01*
X108973Y300010D01*
X109097Y299713D01*
X109097Y285325D01*
X109111Y285161D01*
X109118Y284996D01*
X109131Y284937D01*
X109137Y284876D01*
X109180Y284717D01*
X109216Y284557D01*
X109239Y284500D01*
X109255Y284442D01*
X109326Y284294D01*
X109389Y284141D01*
X109422Y284090D01*
X109449Y284035D01*
X109544Y283902D01*
X109634Y283763D01*
X109685Y283705D01*
X109711Y283669D01*
X109754Y283626D01*
X109840Y283529D01*
X130114Y263256D01*
X130862Y261449D01*
X130900Y261376D01*
X130930Y261299D01*
X131004Y261177D01*
X131071Y261050D01*
X131121Y260985D01*
X131164Y260915D01*
X131259Y260807D01*
X131346Y260694D01*
X131407Y260639D01*
X131462Y260577D01*
X131574Y260489D01*
X131681Y260393D01*
X131750Y260349D01*
X131815Y260298D01*
X131941Y260230D01*
X132063Y260155D01*
X132139Y260124D01*
X132212Y260085D01*
X132348Y260041D01*
X132481Y259988D01*
X132562Y259972D01*
X132640Y259946D01*
X132782Y259927D01*
X132922Y259898D01*
X133005Y259896D01*
X133086Y259885D01*
X133230Y259891D01*
X133372Y259887D01*
X133454Y259900D01*
X133536Y259903D01*
X133676Y259934D01*
X133817Y259956D01*
X133895Y259983D01*
X133976Y260001D01*
X134108Y260056D01*
X134243Y260102D01*
X134315Y260143D01*
X134391Y260174D01*
X134511Y260252D01*
X134636Y260322D01*
X134700Y260374D01*
X134769Y260419D01*
X134954Y260582D01*
X134985Y260607D01*
X134992Y260615D01*
X135004Y260626D01*
X137046Y262669D01*
X139287Y263597D01*
X158713Y263597D01*
X160954Y262669D01*
X162669Y260953D01*
X163155Y259778D01*
X163253Y259591D01*
X163350Y259401D01*
X163358Y259391D01*
X163364Y259379D01*
X163494Y259212D01*
X163622Y259043D01*
X163632Y259034D01*
X163640Y259023D01*
X163796Y258882D01*
X163953Y258737D01*
X163964Y258730D01*
X163974Y258722D01*
X164153Y258610D01*
X164333Y258496D01*
X164345Y258491D01*
X164356Y258484D01*
X164553Y258405D01*
X164749Y258325D01*
X164762Y258322D01*
X164774Y258317D01*
X164982Y258275D01*
X165189Y258230D01*
X165205Y258229D01*
X165216Y258227D01*
X165255Y258226D01*
X165501Y258211D01*
X175543Y258211D01*
X175707Y258225D01*
X175872Y258232D01*
X175931Y258245D01*
X175992Y258251D01*
X176151Y258294D01*
X176311Y258330D01*
X176367Y258353D01*
X176426Y258369D01*
X176574Y258440D01*
X176727Y258503D01*
X176778Y258536D01*
X176833Y258563D01*
X176966Y258658D01*
X177105Y258748D01*
X177163Y258799D01*
X177170Y258804D01*
X181870Y260751D01*
X200130Y260751D01*
X204798Y258817D01*
X208371Y255244D01*
X210305Y250576D01*
X210305Y245524D01*
X208371Y240856D01*
X204798Y237283D01*
X200130Y235349D01*
X181870Y235349D01*
X177159Y237300D01*
X177092Y237363D01*
X177040Y237395D01*
X176994Y237434D01*
X176851Y237516D01*
X176712Y237604D01*
X176655Y237628D01*
X176603Y237658D01*
X176448Y237713D01*
X176295Y237775D01*
X176236Y237788D01*
X176178Y237809D01*
X176016Y237835D01*
X175855Y237870D01*
X175778Y237875D01*
X175734Y237882D01*
X175673Y237881D01*
X175543Y237889D01*
X165129Y237889D01*
X164917Y237870D01*
X164706Y237854D01*
X164693Y237851D01*
X164680Y237849D01*
X164476Y237794D01*
X164270Y237740D01*
X164258Y237734D01*
X164246Y237731D01*
X164056Y237641D01*
X163862Y237551D01*
X163851Y237543D01*
X163839Y237537D01*
X163668Y237415D01*
X163493Y237292D01*
X163484Y237283D01*
X163473Y237275D01*
X163325Y237123D01*
X163176Y236973D01*
X163168Y236962D01*
X163159Y236953D01*
X163040Y236777D01*
X162920Y236602D01*
X162913Y236588D01*
X162907Y236580D01*
X162891Y236544D01*
X162783Y236322D01*
X162669Y236046D01*
X160907Y234285D01*
X160895Y234278D01*
X160768Y234212D01*
X160703Y234161D01*
X160633Y234118D01*
X160526Y234024D01*
X160412Y233936D01*
X160357Y233874D01*
X160295Y233820D01*
X160207Y233708D01*
X160111Y233602D01*
X160067Y233531D01*
X160016Y233467D01*
X159948Y233341D01*
X159873Y233219D01*
X159842Y233143D01*
X159803Y233070D01*
X159759Y232934D01*
X159706Y232801D01*
X159690Y232720D01*
X159664Y232642D01*
X159645Y232500D01*
X159616Y232360D01*
X159614Y232277D01*
X159603Y232196D01*
X159609Y232053D01*
X159605Y231910D01*
X159618Y231828D01*
X159621Y231746D01*
X159652Y231606D01*
X159674Y231465D01*
X159701Y231387D01*
X159719Y231306D01*
X159774Y231174D01*
X159820Y231039D01*
X159861Y230967D01*
X159892Y230891D01*
X159970Y230771D01*
X160040Y230646D01*
X160092Y230582D01*
X160137Y230512D01*
X160151Y230497D01*
X161097Y228213D01*
X161097Y214787D01*
X160169Y212546D01*
X158284Y210662D01*
X158179Y210536D01*
X158067Y210415D01*
X158035Y210364D01*
X157996Y210317D01*
X157914Y210174D01*
X157826Y210036D01*
X157802Y209979D01*
X157772Y209926D01*
X157717Y209771D01*
X157655Y209619D01*
X157642Y209559D01*
X157621Y209502D01*
X157595Y209340D01*
X157560Y209179D01*
X157555Y209102D01*
X157548Y209058D01*
X157549Y208997D01*
X157541Y208867D01*
X157541Y207039D01*
X150000Y207039D01*
X141348Y207039D01*
X141307Y207065D01*
X141150Y207172D01*
X141118Y207186D01*
X141089Y207204D01*
X140912Y207277D01*
X140738Y207354D01*
X140704Y207362D01*
X140672Y207375D01*
X140485Y207415D01*
X140300Y207461D01*
X140266Y207463D01*
X140232Y207470D01*
X139920Y207489D01*
X121500Y207489D01*
X118976Y207489D01*
X118974Y207489D01*
X111459Y207489D01*
X111459Y207517D01*
X111445Y207681D01*
X111438Y207845D01*
X111425Y207905D01*
X111419Y207965D01*
X111376Y208124D01*
X111340Y208285D01*
X111317Y208341D01*
X111301Y208400D01*
X111230Y208548D01*
X111167Y208700D01*
X111134Y208751D01*
X111107Y208806D01*
X111012Y208940D01*
X110922Y209078D01*
X110871Y209136D01*
X110845Y209172D01*
X110802Y209215D01*
X110716Y209312D01*
X108831Y211196D01*
X107903Y213437D01*
X107903Y221863D01*
X108386Y223028D01*
X108435Y223185D01*
X108492Y223340D01*
X108503Y223400D01*
X108521Y223458D01*
X108542Y223621D01*
X108570Y223783D01*
X108570Y223844D01*
X108578Y223905D01*
X108569Y224069D01*
X108569Y224233D01*
X108558Y224293D01*
X108555Y224354D01*
X108517Y224514D01*
X108488Y224676D01*
X108463Y224749D01*
X108452Y224793D01*
X108428Y224849D01*
X108386Y224972D01*
X107903Y226137D01*
X107903Y230350D01*
X107900Y230385D01*
X107902Y230419D01*
X107880Y230608D01*
X107863Y230799D01*
X107854Y230832D01*
X107850Y230866D01*
X107795Y231049D01*
X107745Y231233D01*
X107730Y231264D01*
X107720Y231297D01*
X107633Y231468D01*
X107551Y231640D01*
X107531Y231668D01*
X107516Y231699D01*
X107400Y231851D01*
X107289Y232006D01*
X107264Y232030D01*
X107244Y232057D01*
X107104Y232186D01*
X106967Y232320D01*
X106938Y232339D01*
X106912Y232363D01*
X106751Y232465D01*
X106594Y232572D01*
X106562Y232586D01*
X106533Y232604D01*
X106356Y232677D01*
X106182Y232754D01*
X106148Y232762D01*
X106116Y232775D01*
X105929Y232815D01*
X105744Y232861D01*
X105710Y232863D01*
X105676Y232870D01*
X105364Y232889D01*
X82636Y232889D01*
X82601Y232886D01*
X82567Y232888D01*
X82378Y232866D01*
X82187Y232849D01*
X82154Y232840D01*
X82120Y232836D01*
X81937Y232781D01*
X81753Y232731D01*
X81722Y232716D01*
X81689Y232706D01*
X81518Y232619D01*
X81346Y232537D01*
X81318Y232517D01*
X81287Y232502D01*
X81135Y232386D01*
X80980Y232275D01*
X80956Y232250D01*
X80929Y232230D01*
X80800Y232090D01*
X80666Y231953D01*
X80647Y231924D01*
X80623Y231898D01*
X80521Y231737D01*
X80414Y231580D01*
X80400Y231548D01*
X80382Y231519D01*
X80309Y231342D01*
X80232Y231168D01*
X80224Y231134D01*
X80211Y231102D01*
X80171Y230915D01*
X80125Y230730D01*
X80123Y230696D01*
X80116Y230662D01*
X80097Y230350D01*
X80097Y226137D01*
X79614Y224972D01*
X79565Y224815D01*
X79508Y224660D01*
X79497Y224600D01*
X79479Y224542D01*
X79458Y224379D01*
X79430Y224217D01*
X79430Y224156D01*
X79422Y224095D01*
X79431Y223931D01*
X79431Y223767D01*
X79442Y223707D01*
X79445Y223646D01*
X79483Y223485D01*
X79512Y223324D01*
X79537Y223251D01*
X79548Y223207D01*
X79572Y223151D01*
X79614Y223028D01*
X80097Y221863D01*
X80097Y213437D01*
X79614Y212272D01*
X79565Y212115D01*
X79508Y211960D01*
X79497Y211900D01*
X79479Y211842D01*
X79458Y211679D01*
X79430Y211517D01*
X79430Y211456D01*
X79422Y211395D01*
X79431Y211231D01*
X79431Y211067D01*
X79442Y211007D01*
X79445Y210946D01*
X79483Y210785D01*
X79512Y210624D01*
X79537Y210551D01*
X79548Y210507D01*
X79572Y210451D01*
X79614Y210328D01*
X80097Y209163D01*
X80097Y200825D01*
X80111Y200661D01*
X80118Y200496D01*
X80131Y200437D01*
X80137Y200376D01*
X80180Y200217D01*
X80216Y200057D01*
X80239Y200000D01*
X80255Y199942D01*
X80326Y199794D01*
X80389Y199641D01*
X80422Y199590D01*
X80449Y199535D01*
X80544Y199402D01*
X80634Y199263D01*
X80685Y199205D01*
X80711Y199169D01*
X80754Y199126D01*
X80840Y199029D01*
X82529Y197340D01*
X82655Y197235D01*
X82776Y197123D01*
X82828Y197091D01*
X82874Y197052D01*
X83017Y196970D01*
X83156Y196882D01*
X83212Y196858D01*
X83265Y196828D01*
X83420Y196773D01*
X83572Y196711D01*
X83632Y196698D01*
X83690Y196677D01*
X83852Y196651D01*
X84013Y196616D01*
X84090Y196611D01*
X84134Y196604D01*
X84195Y196605D01*
X84325Y196597D01*
X86713Y196597D01*
X88954Y195669D01*
X90669Y193953D01*
X91748Y191347D01*
X91781Y191284D01*
X91806Y191218D01*
X91885Y191085D01*
X91957Y190948D01*
X92000Y190892D01*
X92036Y190831D01*
X92138Y190714D01*
X92232Y190592D01*
X92285Y190544D01*
X92332Y190491D01*
X92452Y190394D01*
X92567Y190290D01*
X92627Y190253D01*
X92682Y190208D01*
X92818Y190134D01*
X92949Y190052D01*
X93015Y190026D01*
X93077Y189992D01*
X93224Y189943D01*
X93367Y189886D01*
X93437Y189872D01*
X93504Y189849D01*
X93657Y189827D01*
X93808Y189796D01*
X93879Y189794D01*
X93949Y189784D01*
X94104Y189789D01*
X94259Y189785D01*
X94329Y189796D01*
X94399Y189798D01*
X94551Y189830D01*
X94704Y189854D01*
X94770Y189877D01*
X94840Y189891D01*
X94983Y189950D01*
X95129Y190000D01*
X95191Y190035D01*
X95257Y190061D01*
X95387Y190144D01*
X95523Y190219D01*
X95577Y190264D01*
X95637Y190302D01*
X95751Y190407D01*
X95871Y190505D01*
X95917Y190559D01*
X95969Y190606D01*
X96063Y190730D01*
X96163Y190847D01*
X96199Y190908D01*
X96242Y190965D01*
X96313Y191102D01*
X96391Y191236D01*
X96415Y191302D01*
X96448Y191365D01*
X96544Y191651D01*
X96546Y191658D01*
X96546Y191660D01*
X96547Y191662D01*
X96632Y191981D01*
X96967Y192560D01*
X97440Y193033D01*
X98019Y193368D01*
X98665Y193541D01*
X101461Y193541D01*
X101461Y185500D01*
X101464Y185466D01*
X101462Y185431D01*
X101484Y185242D01*
X101500Y185052D01*
X101510Y185018D01*
X101514Y184984D01*
X101569Y184801D01*
X101619Y184617D01*
X101634Y184586D01*
X101644Y184553D01*
X101731Y184382D01*
X101812Y184211D01*
X101833Y184183D01*
X101848Y184152D01*
X101963Y184000D01*
X102075Y183845D01*
X102075Y183844D01*
X102099Y183820D01*
X102120Y183793D01*
X102121Y183793D01*
X102121Y183792D01*
X102261Y183663D01*
X102398Y183530D01*
X102426Y183511D01*
X102452Y183487D01*
X102613Y183385D01*
X102771Y183278D01*
X102802Y183264D01*
X102832Y183245D01*
X103008Y183173D01*
X103183Y183096D01*
X103216Y183088D01*
X103248Y183075D01*
X103435Y183034D01*
X103620Y182989D01*
X103654Y182987D01*
X103688Y182980D01*
X104000Y182961D01*
X111548Y182961D01*
X111552Y182911D01*
X111554Y182781D01*
X111572Y182687D01*
X111581Y182592D01*
X111615Y182467D01*
X111640Y182339D01*
X111674Y182250D01*
X111699Y182158D01*
X111755Y182040D01*
X111802Y181919D01*
X111852Y181837D01*
X111893Y181751D01*
X111968Y181645D01*
X112036Y181534D01*
X112099Y181463D01*
X112155Y181385D01*
X112248Y181294D01*
X112334Y181197D01*
X112409Y181138D01*
X112477Y181071D01*
X112585Y180998D01*
X112687Y180917D01*
X112771Y180872D01*
X112850Y180819D01*
X112969Y180766D01*
X113084Y180705D01*
X113175Y180675D01*
X113262Y180636D01*
X113389Y180606D01*
X113512Y180566D01*
X113607Y180552D01*
X113700Y180530D01*
X113829Y180522D01*
X113958Y180504D01*
X114054Y180508D01*
X114149Y180502D01*
X114278Y180517D01*
X114408Y180522D01*
X114501Y180543D01*
X114596Y180554D01*
X114721Y180592D01*
X114848Y180620D01*
X114936Y180657D01*
X115027Y180685D01*
X115143Y180743D01*
X115263Y180794D01*
X115344Y180846D01*
X115429Y180889D01*
X115532Y180967D01*
X115641Y181038D01*
X115739Y181124D01*
X115787Y181161D01*
X115818Y181194D01*
X115876Y181245D01*
X128029Y193398D01*
X128029Y193399D01*
X129705Y195074D01*
X129788Y195174D01*
X129879Y195267D01*
X129933Y195347D01*
X129994Y195420D01*
X130058Y195533D01*
X130131Y195640D01*
X130170Y195728D01*
X130217Y195811D01*
X130261Y195933D01*
X130314Y196052D01*
X130336Y196145D01*
X130368Y196235D01*
X130389Y196363D01*
X130420Y196490D01*
X130426Y196585D01*
X130442Y196679D01*
X130440Y196809D01*
X130448Y196939D01*
X130437Y197034D01*
X130436Y197130D01*
X130411Y197257D01*
X130396Y197386D01*
X130368Y197478D01*
X130350Y197572D01*
X130303Y197693D01*
X130265Y197817D01*
X130222Y197903D01*
X130188Y197992D01*
X130120Y198103D01*
X130061Y198219D01*
X130003Y198295D01*
X129954Y198376D01*
X129868Y198474D01*
X129789Y198577D01*
X129719Y198642D01*
X129656Y198714D01*
X129554Y198794D01*
X129458Y198883D01*
X129377Y198934D01*
X129302Y198993D01*
X129188Y199055D01*
X129078Y199124D01*
X128990Y199161D01*
X128906Y199206D01*
X128782Y199246D01*
X128662Y199295D01*
X128568Y199315D01*
X128477Y199345D01*
X128349Y199363D01*
X128221Y199390D01*
X128091Y199398D01*
X128031Y199406D01*
X127987Y199405D01*
X127910Y199409D01*
X124039Y199409D01*
X124039Y202411D01*
X131541Y202411D01*
X131541Y201616D01*
X131403Y201101D01*
X131370Y200915D01*
X131332Y200730D01*
X131332Y200693D01*
X131325Y200658D01*
X131326Y200468D01*
X131322Y200279D01*
X131327Y200244D01*
X131327Y200207D01*
X131362Y200021D01*
X131391Y199834D01*
X131402Y199800D01*
X131409Y199765D01*
X131475Y199588D01*
X131537Y199409D01*
X131555Y199377D01*
X131567Y199343D01*
X131664Y199181D01*
X131756Y199015D01*
X131779Y198987D01*
X131798Y198956D01*
X131921Y198814D01*
X132042Y198667D01*
X132069Y198643D01*
X132093Y198616D01*
X132240Y198498D01*
X132384Y198375D01*
X132415Y198356D01*
X132443Y198334D01*
X132609Y198243D01*
X132773Y198147D01*
X132807Y198135D01*
X132838Y198117D01*
X133017Y198057D01*
X133195Y197992D01*
X133231Y197986D01*
X133265Y197974D01*
X133452Y197947D01*
X133639Y197914D01*
X133675Y197914D01*
X133711Y197909D01*
X133900Y197915D01*
X134089Y197915D01*
X134125Y197922D01*
X134161Y197923D01*
X134346Y197962D01*
X134532Y197996D01*
X134574Y198011D01*
X134601Y198017D01*
X134658Y198040D01*
X134827Y198098D01*
X134979Y198161D01*
X139920Y198161D01*
X139955Y198164D01*
X139989Y198162D01*
X140178Y198184D01*
X140369Y198201D01*
X140402Y198210D01*
X140436Y198214D01*
X140619Y198269D01*
X140803Y198319D01*
X140834Y198334D01*
X140867Y198344D01*
X141038Y198431D01*
X141210Y198513D01*
X141238Y198533D01*
X141269Y198548D01*
X141421Y198664D01*
X141576Y198775D01*
X141600Y198800D01*
X141627Y198820D01*
X141756Y198960D01*
X141890Y199097D01*
X141909Y199126D01*
X141933Y199152D01*
X142035Y199313D01*
X142142Y199470D01*
X142156Y199502D01*
X142174Y199531D01*
X142247Y199708D01*
X142324Y199882D01*
X142332Y199916D01*
X142345Y199948D01*
X142385Y200135D01*
X142431Y200320D01*
X142433Y200354D01*
X142440Y200388D01*
X142459Y200700D01*
X142459Y201961D01*
X150000Y201961D01*
X157541Y201961D01*
X157541Y200700D01*
X157544Y200665D01*
X157542Y200631D01*
X157564Y200442D01*
X157581Y200251D01*
X157590Y200218D01*
X157594Y200184D01*
X157649Y200001D01*
X157699Y199817D01*
X157714Y199786D01*
X157724Y199753D01*
X157811Y199582D01*
X157893Y199410D01*
X157913Y199382D01*
X157928Y199351D01*
X158044Y199199D01*
X158155Y199044D01*
X158180Y199020D01*
X158200Y198993D01*
X158340Y198864D01*
X158477Y198730D01*
X158506Y198711D01*
X158532Y198687D01*
X158693Y198585D01*
X158850Y198478D01*
X158882Y198464D01*
X158911Y198446D01*
X159088Y198373D01*
X159262Y198296D01*
X159296Y198288D01*
X159328Y198275D01*
X159515Y198235D01*
X159700Y198189D01*
X159734Y198187D01*
X159768Y198180D01*
X160080Y198161D01*
X163789Y198161D01*
X163953Y198175D01*
X164118Y198182D01*
X164177Y198195D01*
X164238Y198201D01*
X164397Y198244D01*
X164557Y198280D01*
X164613Y198303D01*
X164672Y198319D01*
X164821Y198390D01*
X164973Y198453D01*
X165024Y198486D01*
X165079Y198513D01*
X165213Y198608D01*
X165351Y198698D01*
X165409Y198749D01*
X165445Y198775D01*
X165488Y198818D01*
X165585Y198904D01*
X171201Y204521D01*
X171337Y204683D01*
X171475Y204844D01*
X171482Y204856D01*
X171490Y204866D01*
X171595Y205050D01*
X171702Y205233D01*
X171707Y205245D01*
X171713Y205257D01*
X171785Y205458D01*
X171857Y205656D01*
X171860Y205669D01*
X171864Y205681D01*
X171899Y205891D01*
X171936Y206099D01*
X171936Y206112D01*
X171938Y206125D01*
X171935Y206337D01*
X171934Y206549D01*
X171932Y206562D01*
X171932Y206576D01*
X171891Y206784D01*
X171853Y206992D01*
X171848Y207007D01*
X171846Y207018D01*
X171832Y207054D01*
X171752Y207288D01*
X171695Y207424D01*
X171695Y212476D01*
X173629Y217144D01*
X177202Y220717D01*
X181870Y222651D01*
X200130Y222651D01*
X204798Y220717D01*
X208371Y217144D01*
X210305Y212476D01*
X210305Y207424D01*
X210248Y207288D01*
X210185Y207085D01*
X210119Y206884D01*
X210118Y206871D01*
X210114Y206858D01*
X210087Y206649D01*
X210058Y206438D01*
X210059Y206425D01*
X210057Y206412D01*
X210068Y206202D01*
X210076Y205988D01*
X210079Y205975D01*
X210080Y205962D01*
X210128Y205756D01*
X210174Y205548D01*
X210179Y205536D01*
X210182Y205523D01*
X210266Y205328D01*
X210348Y205133D01*
X210355Y205122D01*
X210360Y205110D01*
X210477Y204933D01*
X210592Y204755D01*
X210602Y204743D01*
X210608Y204734D01*
X210635Y204705D01*
X210799Y204521D01*
X213689Y201630D01*
X215236Y197895D01*
X215236Y185131D01*
X215247Y185015D01*
X215247Y184898D01*
X215267Y184791D01*
X215276Y184683D01*
X215307Y184570D01*
X215328Y184455D01*
X215378Y184309D01*
X215395Y184248D01*
X215410Y184216D01*
X215430Y184160D01*
X216204Y182289D01*
X216204Y177862D01*
X215430Y175992D01*
X215395Y175880D01*
X215350Y175772D01*
X215327Y175666D01*
X215295Y175562D01*
X215280Y175446D01*
X215256Y175332D01*
X215246Y175178D01*
X215238Y175115D01*
X215240Y175079D01*
X215236Y175020D01*
X215236Y159554D01*
X215251Y159390D01*
X215258Y159226D01*
X215271Y159166D01*
X215276Y159105D01*
X215320Y158947D01*
X215355Y158786D01*
X215379Y158730D01*
X215395Y158671D01*
X215465Y158523D01*
X215529Y158371D01*
X215535Y158362D01*
X217340Y154002D01*
X217340Y149575D01*
X216566Y147704D01*
X216531Y147593D01*
X216486Y147485D01*
X216464Y147378D01*
X216431Y147275D01*
X216416Y147159D01*
X216392Y147044D01*
X216382Y146891D01*
X216374Y146828D01*
X216376Y146792D01*
X216372Y146733D01*
X216372Y129513D01*
X216383Y129397D01*
X216383Y129280D01*
X216403Y129173D01*
X216412Y129065D01*
X216443Y128952D01*
X216464Y128837D01*
X216514Y128691D01*
X216531Y128630D01*
X216546Y128598D01*
X216566Y128542D01*
X216970Y127565D01*
X217052Y127408D01*
X217129Y127248D01*
X217156Y127209D01*
X217179Y127166D01*
X217287Y127026D01*
X217391Y126882D01*
X217425Y126848D01*
X217454Y126810D01*
X217586Y126692D01*
X217713Y126567D01*
X217753Y126541D01*
X217788Y126509D01*
X217939Y126415D01*
X218086Y126315D01*
X218130Y126296D01*
X218171Y126271D01*
X218336Y126205D01*
X218498Y126133D01*
X218545Y126122D01*
X218589Y126104D01*
X218763Y126069D01*
X218936Y126027D01*
X218983Y126024D01*
X219030Y126014D01*
X219208Y126010D01*
X219385Y125999D01*
X219433Y126004D01*
X219480Y126003D01*
X219656Y126030D01*
X219832Y126051D01*
X219878Y126065D01*
X219925Y126072D01*
X220093Y126130D01*
X220263Y126181D01*
X220306Y126203D01*
X220351Y126218D01*
X220506Y126305D01*
X220665Y126386D01*
X220703Y126414D01*
X220744Y126438D01*
X220882Y126550D01*
X221023Y126658D01*
X221056Y126693D01*
X221093Y126723D01*
X221208Y126858D01*
X221329Y126989D01*
X221354Y127029D01*
X221385Y127065D01*
X221475Y127218D01*
X221570Y127368D01*
X221589Y127413D01*
X221613Y127454D01*
X221674Y127620D01*
X221741Y127785D01*
X221751Y127832D01*
X221768Y127877D01*
X221799Y128052D01*
X221836Y128225D01*
X221840Y128284D01*
X221846Y128320D01*
X221846Y128383D01*
X221855Y128537D01*
X221855Y137819D01*
X223247Y141180D01*
X248820Y166753D01*
X252181Y168145D01*
X319660Y168145D01*
X319824Y168159D01*
X319988Y168166D01*
X320048Y168179D01*
X320109Y168185D01*
X320268Y168228D01*
X320428Y168264D01*
X320484Y168287D01*
X320543Y168303D01*
X320691Y168374D01*
X320843Y168437D01*
X320895Y168470D01*
X320950Y168497D01*
X321083Y168592D01*
X321222Y168682D01*
X321279Y168733D01*
X321316Y168759D01*
X321358Y168802D01*
X321456Y168888D01*
X378660Y226092D01*
X378765Y226218D01*
X378877Y226339D01*
X378909Y226391D01*
X378948Y226438D01*
X379030Y226580D01*
X379118Y226719D01*
X379142Y226776D01*
X379172Y226828D01*
X379227Y226983D01*
X379289Y227136D01*
X379302Y227195D01*
X379323Y227253D01*
X379349Y227415D01*
X379384Y227576D01*
X379389Y227653D01*
X379396Y227697D01*
X379395Y227758D01*
X379403Y227888D01*
X379403Y238713D01*
X380331Y240954D01*
X382046Y242669D01*
X384287Y243597D01*
X384535Y243597D01*
X384664Y243608D01*
X384794Y243610D01*
X384888Y243628D01*
X384983Y243637D01*
X385109Y243671D01*
X385236Y243696D01*
X385325Y243730D01*
X385417Y243755D01*
X385535Y243811D01*
X385656Y243858D01*
X385738Y243908D01*
X385824Y243949D01*
X385930Y244024D01*
X386041Y244092D01*
X386113Y244155D01*
X386190Y244211D01*
X386281Y244304D01*
X386379Y244390D01*
X386438Y244465D01*
X386504Y244533D01*
X386577Y244641D01*
X386658Y244743D01*
X386703Y244827D01*
X386756Y244906D01*
X386809Y245026D01*
X386870Y245140D01*
X386900Y245231D01*
X386939Y245318D01*
X386969Y245445D01*
X387010Y245568D01*
X387023Y245663D01*
X387045Y245756D01*
X387053Y245885D01*
X387071Y246015D01*
X387067Y246110D01*
X387073Y246205D01*
X387058Y246335D01*
X387052Y246464D01*
X387032Y246557D01*
X387021Y246652D01*
X386983Y246777D01*
X386955Y246904D01*
X386918Y246992D01*
X386891Y247083D01*
X386831Y247199D01*
X386781Y247319D01*
X386729Y247400D01*
X386686Y247485D01*
X386613Y247581D01*
X384871Y251786D01*
X384871Y256214D01*
X386565Y260304D01*
X389696Y263435D01*
X393786Y265129D01*
X398214Y265129D01*
X402304Y263434D01*
X405269Y260470D01*
X405368Y260387D01*
X405462Y260296D01*
X405541Y260242D01*
X405614Y260181D01*
X405727Y260116D01*
X405835Y260044D01*
X405922Y260005D01*
X406005Y259958D01*
X406127Y259914D01*
X406246Y259861D01*
X406339Y259839D01*
X406429Y259807D01*
X406558Y259785D01*
X406684Y259755D01*
X406779Y259749D01*
X406873Y259733D01*
X407003Y259735D01*
X407133Y259727D01*
X407228Y259738D01*
X407324Y259739D01*
X407451Y259764D01*
X407580Y259779D01*
X407672Y259807D01*
X407766Y259825D01*
X407887Y259872D01*
X408011Y259909D01*
X408097Y259953D01*
X408186Y259987D01*
X408297Y260055D01*
X408413Y260114D01*
X408489Y260171D01*
X408570Y260221D01*
X408668Y260307D01*
X408771Y260386D01*
X408836Y260456D01*
X408908Y260519D01*
X408989Y260621D01*
X409077Y260717D01*
X409128Y260797D01*
X409187Y260872D01*
X409249Y260987D01*
X409318Y261097D01*
X409355Y261185D01*
X409400Y261269D01*
X409440Y261393D01*
X409489Y261513D01*
X409510Y261607D01*
X409539Y261697D01*
X409557Y261826D01*
X409584Y261953D01*
X409592Y262083D01*
X409600Y262144D01*
X409599Y262188D01*
X409603Y262265D01*
X409603Y279339D01*
X410532Y281580D01*
X412247Y283295D01*
X414487Y284224D01*
X451913Y284224D01*
X454154Y283295D01*
X456088Y281361D01*
X456188Y281278D01*
X456281Y281187D01*
X456360Y281133D01*
X456433Y281072D01*
X456546Y281007D01*
X456654Y280935D01*
X456741Y280896D01*
X456824Y280849D01*
X456947Y280805D01*
X457066Y280752D01*
X457159Y280730D01*
X457249Y280698D01*
X457377Y280677D01*
X457503Y280646D01*
X457599Y280640D01*
X457693Y280624D01*
X457823Y280626D01*
X457953Y280618D01*
X458048Y280629D01*
X458143Y280630D01*
X458271Y280655D01*
X458400Y280670D01*
X458492Y280698D01*
X458585Y280716D01*
X458706Y280763D01*
X458831Y280800D01*
X458916Y280844D01*
X459005Y280878D01*
X459116Y280946D01*
X459232Y281005D01*
X459308Y281062D01*
X459390Y281112D01*
X459487Y281198D01*
X459591Y281277D01*
X459656Y281347D01*
X459727Y281410D01*
X459808Y281512D01*
X459896Y281608D01*
X459947Y281689D01*
X460007Y281763D01*
X460068Y281878D01*
X460138Y281988D01*
X460174Y282076D01*
X460219Y282160D01*
X460260Y282284D01*
X460309Y282404D01*
X460329Y282498D01*
X460359Y282589D01*
X460376Y282717D01*
X460404Y282844D01*
X460412Y282974D01*
X460420Y283035D01*
X460418Y283079D01*
X460423Y283156D01*
X460423Y285008D01*
X468463Y285008D01*
X468498Y285011D01*
X468532Y285009D01*
X468722Y285031D01*
X468912Y285048D01*
X468945Y285057D01*
X468980Y285061D01*
X469163Y285116D01*
X469346Y285166D01*
X469377Y285181D01*
X469411Y285191D01*
X469581Y285278D01*
X469753Y285359D01*
X469781Y285380D01*
X469812Y285395D01*
X469964Y285511D01*
X470119Y285622D01*
X470143Y285646D01*
X470171Y285667D01*
X470171Y285668D01*
X470300Y285808D01*
X470433Y285944D01*
X470433Y285945D01*
X470453Y285973D01*
X470476Y285999D01*
X470579Y286160D01*
X470685Y286318D01*
X470699Y286349D01*
X470718Y286379D01*
X470791Y286555D01*
X470868Y286730D01*
X470876Y286763D01*
X470889Y286795D01*
X470929Y286982D01*
X470974Y287167D01*
X470976Y287201D01*
X470984Y287235D01*
X471003Y287547D01*
X471003Y295117D01*
X471126Y295128D01*
X471160Y295137D01*
X471194Y295141D01*
X471377Y295196D01*
X471561Y295246D01*
X471592Y295261D01*
X471625Y295271D01*
X471796Y295358D01*
X471967Y295440D01*
X471995Y295460D01*
X472026Y295475D01*
X472178Y295591D01*
X472333Y295702D01*
X472357Y295727D01*
X472385Y295747D01*
X472514Y295888D01*
X472647Y296024D01*
X472667Y296053D01*
X472690Y296079D01*
X472793Y296240D01*
X472899Y296397D01*
X472913Y296429D01*
X472932Y296458D01*
X473004Y296635D01*
X473082Y296809D01*
X473090Y296843D01*
X473103Y296875D01*
X473143Y297062D01*
X473188Y297247D01*
X473190Y297281D01*
X473198Y297315D01*
X473217Y297627D01*
X473217Y304467D01*
X473214Y304502D01*
X473216Y304536D01*
X473194Y304725D01*
X473177Y304916D01*
X473168Y304949D01*
X473164Y304983D01*
X473109Y305166D01*
X473058Y305350D01*
X473044Y305381D01*
X473034Y305414D01*
X472947Y305585D01*
X472865Y305757D01*
X472845Y305785D01*
X472829Y305816D01*
X472714Y305968D01*
X472603Y306123D01*
X472578Y306147D01*
X472557Y306174D01*
X472417Y306303D01*
X472280Y306437D01*
X472252Y306456D01*
X472226Y306480D01*
X472065Y306582D01*
X471907Y306689D01*
X471876Y306703D01*
X471846Y306721D01*
X471670Y306794D01*
X471495Y306871D01*
X471462Y306879D01*
X471430Y306892D01*
X471243Y306933D01*
X471058Y306978D01*
X471024Y306980D01*
X470990Y306987D01*
X470678Y307006D01*
X469203Y307006D01*
X469203Y314547D01*
X469203Y322088D01*
X470278Y322088D01*
X470312Y322091D01*
X470347Y322089D01*
X470536Y322111D01*
X470726Y322128D01*
X470760Y322137D01*
X470794Y322141D01*
X470977Y322196D01*
X471161Y322246D01*
X471192Y322261D01*
X471225Y322271D01*
X471396Y322358D01*
X471567Y322440D01*
X471595Y322460D01*
X471626Y322475D01*
X471778Y322591D01*
X471933Y322702D01*
X471957Y322727D01*
X471985Y322747D01*
X472114Y322888D01*
X472247Y323024D01*
X472267Y323053D01*
X472290Y323079D01*
X472393Y323240D01*
X472499Y323397D01*
X472513Y323429D01*
X472532Y323458D01*
X472604Y323635D01*
X472682Y323809D01*
X472690Y323843D01*
X472703Y323875D01*
X472743Y324062D01*
X472788Y324247D01*
X472790Y324281D01*
X472798Y324315D01*
X472817Y324627D01*
X472817Y326267D01*
X472814Y326302D01*
X472816Y326336D01*
X472794Y326525D01*
X472777Y326716D01*
X472768Y326749D01*
X472764Y326783D01*
X472709Y326966D01*
X472658Y327150D01*
X472644Y327181D01*
X472634Y327214D01*
X472547Y327385D01*
X472465Y327557D01*
X472445Y327585D01*
X472429Y327616D01*
X472314Y327768D01*
X472203Y327923D01*
X472178Y327947D01*
X472157Y327974D01*
X472017Y328103D01*
X471880Y328237D01*
X471852Y328256D01*
X471826Y328280D01*
X471665Y328382D01*
X471507Y328489D01*
X471476Y328503D01*
X471446Y328521D01*
X471270Y328594D01*
X471095Y328671D01*
X471062Y328679D01*
X471030Y328692D01*
X470843Y328733D01*
X470658Y328778D01*
X470624Y328780D01*
X470590Y328787D01*
X470278Y328806D01*
X468803Y328806D01*
X468803Y335847D01*
X468800Y335881D01*
X468802Y335916D01*
X468780Y336105D01*
X468763Y336295D01*
X468754Y336329D01*
X468750Y336363D01*
X468695Y336546D01*
X468645Y336730D01*
X468630Y336761D01*
X468620Y336794D01*
X468533Y336965D01*
X468451Y337136D01*
X468431Y337164D01*
X468415Y337195D01*
X468300Y337347D01*
X468189Y337502D01*
X468164Y337526D01*
X468143Y337554D01*
X468003Y337683D01*
X467866Y337816D01*
X467838Y337836D01*
X467812Y337859D01*
X467651Y337962D01*
X467493Y338068D01*
X467462Y338082D01*
X467432Y338101D01*
X467256Y338173D01*
X467082Y338251D01*
X467048Y338259D01*
X467016Y338272D01*
X466829Y338312D01*
X466644Y338357D01*
X466610Y338359D01*
X466576Y338367D01*
X466264Y338386D01*
X466263Y338386D01*
X466229Y338383D01*
X466195Y338385D01*
X466194Y338385D01*
X466005Y338363D01*
X465815Y338346D01*
X465782Y338337D01*
X465747Y338333D01*
X465564Y338278D01*
X465381Y338228D01*
X465349Y338213D01*
X465316Y338203D01*
X465146Y338116D01*
X464974Y338034D01*
X464946Y338014D01*
X464915Y337998D01*
X464763Y337883D01*
X464608Y337772D01*
X464584Y337747D01*
X464556Y337726D01*
X464427Y337586D01*
X464294Y337449D01*
X464274Y337421D01*
X464251Y337395D01*
X464148Y337234D01*
X464042Y337076D01*
X464028Y337045D01*
X464009Y337015D01*
X463936Y336838D01*
X463859Y336664D01*
X463851Y336631D01*
X463838Y336599D01*
X463798Y336412D01*
X463753Y336227D01*
X463751Y336193D01*
X463743Y336159D01*
X463724Y335847D01*
X463724Y328806D01*
X461929Y328806D01*
X461283Y328979D01*
X460704Y329314D01*
X460230Y329787D01*
X459896Y330366D01*
X459723Y331012D01*
X459723Y332990D01*
X459711Y333120D01*
X459710Y333250D01*
X459691Y333344D01*
X459683Y333439D01*
X459649Y333564D01*
X459624Y333692D01*
X459590Y333781D01*
X459564Y333873D01*
X459509Y333990D01*
X459462Y334112D01*
X459412Y334194D01*
X459371Y334280D01*
X459296Y334385D01*
X459228Y334497D01*
X459165Y334568D01*
X459109Y334646D01*
X459016Y334737D01*
X458930Y334834D01*
X458855Y334893D01*
X458786Y334960D01*
X458678Y335033D01*
X458577Y335113D01*
X458492Y335158D01*
X458413Y335212D01*
X458294Y335265D01*
X458180Y335326D01*
X458089Y335356D01*
X458001Y335394D01*
X457875Y335425D01*
X457751Y335465D01*
X457657Y335478D01*
X457564Y335501D01*
X457434Y335509D01*
X457305Y335527D01*
X457210Y335523D01*
X457115Y335529D01*
X456985Y335514D01*
X456856Y335508D01*
X456762Y335488D01*
X456667Y335476D01*
X456543Y335439D01*
X456416Y335411D01*
X456328Y335374D01*
X456236Y335346D01*
X456121Y335287D01*
X456000Y335237D01*
X455920Y335185D01*
X455835Y335142D01*
X455732Y335063D01*
X455622Y334993D01*
X455525Y334907D01*
X455476Y334870D01*
X455446Y334837D01*
X455388Y334786D01*
X442050Y321448D01*
X437476Y319553D01*
X393207Y319553D01*
X393044Y319539D01*
X392879Y319532D01*
X392820Y319519D01*
X392759Y319513D01*
X392600Y319470D01*
X392440Y319434D01*
X392383Y319411D01*
X392325Y319395D01*
X392176Y319324D01*
X392024Y319261D01*
X391973Y319228D01*
X391918Y319201D01*
X391784Y319106D01*
X391646Y319016D01*
X391588Y318965D01*
X391552Y318939D01*
X391509Y318896D01*
X391412Y318810D01*
X376436Y303834D01*
X371862Y301939D01*
X344095Y301939D01*
X343965Y301928D01*
X343836Y301926D01*
X343742Y301908D01*
X343647Y301899D01*
X343521Y301865D01*
X343394Y301840D01*
X343304Y301806D01*
X343212Y301781D01*
X343095Y301725D01*
X342974Y301678D01*
X342892Y301628D01*
X342806Y301587D01*
X342700Y301512D01*
X342589Y301444D01*
X342517Y301381D01*
X342440Y301325D01*
X342349Y301232D01*
X342251Y301146D01*
X342192Y301071D01*
X342125Y301002D01*
X342053Y300895D01*
X341972Y300793D01*
X341927Y300708D01*
X341873Y300629D01*
X341821Y300510D01*
X341759Y300396D01*
X341730Y300305D01*
X341691Y300218D01*
X341660Y300091D01*
X341620Y299968D01*
X341607Y299873D01*
X341585Y299780D01*
X341577Y299651D01*
X341559Y299522D01*
X341563Y299426D01*
X341557Y299331D01*
X341572Y299202D01*
X341577Y299072D01*
X341598Y298978D01*
X341609Y298884D01*
X341647Y298759D01*
X341675Y298632D01*
X341711Y298544D01*
X341739Y298453D01*
X341798Y298337D01*
X341848Y298217D01*
X341900Y298136D01*
X341944Y298051D01*
X342022Y297948D01*
X342093Y297838D01*
X342179Y297741D01*
X342216Y297693D01*
X342249Y297662D01*
X342300Y297604D01*
X343708Y296196D01*
X343708Y285885D01*
X342170Y284347D01*
X337955Y280132D01*
X337954Y280132D01*
X336417Y278594D01*
X294504Y278594D01*
X289929Y280489D01*
X273851Y296567D01*
X273850Y296568D01*
X272431Y297987D01*
X272404Y298010D01*
X272382Y298035D01*
X272233Y298153D01*
X272086Y298276D01*
X272055Y298293D01*
X272028Y298315D01*
X271860Y298405D01*
X271695Y298499D01*
X271662Y298511D01*
X271632Y298527D01*
X271450Y298586D01*
X271270Y298650D01*
X271236Y298656D01*
X271203Y298667D01*
X271015Y298693D01*
X270826Y298724D01*
X270792Y298723D01*
X270757Y298728D01*
X270567Y298720D01*
X270376Y298718D01*
X270342Y298711D01*
X270307Y298710D01*
X270121Y298668D01*
X269934Y298632D01*
X269902Y298620D01*
X269868Y298612D01*
X269692Y298539D01*
X269514Y298470D01*
X269484Y298452D01*
X269452Y298438D01*
X269292Y298335D01*
X269129Y298236D01*
X269103Y298213D01*
X269074Y298194D01*
X268840Y297987D01*
X265097Y294244D01*
X263954Y294244D01*
X263954Y303134D01*
X263954Y303135D01*
X263954Y312025D01*
X265097Y312025D01*
X267978Y309144D01*
X268077Y309061D01*
X268171Y308970D01*
X268250Y308917D01*
X268323Y308855D01*
X268436Y308791D01*
X268544Y308718D01*
X268631Y308679D01*
X268714Y308632D01*
X268837Y308589D01*
X268956Y308536D01*
X269048Y308513D01*
X269139Y308481D01*
X269267Y308460D01*
X269393Y308429D01*
X269489Y308423D01*
X269583Y308408D01*
X269713Y308410D01*
X269843Y308402D01*
X269937Y308413D01*
X270033Y308414D01*
X270161Y308439D01*
X270290Y308454D01*
X270381Y308481D01*
X270475Y308499D01*
X270596Y308546D01*
X270721Y308584D01*
X270806Y308627D01*
X270895Y308662D01*
X271006Y308729D01*
X271122Y308788D01*
X271198Y308846D01*
X271280Y308896D01*
X271377Y308982D01*
X271481Y309060D01*
X271546Y309130D01*
X271617Y309194D01*
X271698Y309296D01*
X271786Y309391D01*
X271837Y309472D01*
X271897Y309547D01*
X271958Y309661D01*
X272028Y309771D01*
X272064Y309860D01*
X272109Y309944D01*
X272149Y310067D01*
X272199Y310188D01*
X272219Y310281D01*
X272248Y310372D01*
X272266Y310501D01*
X272293Y310628D01*
X272301Y310758D01*
X272310Y310818D01*
X272308Y310863D01*
X272313Y310940D01*
X272313Y321235D01*
X274208Y325810D01*
X311950Y363552D01*
X316524Y365447D01*
X385514Y365447D01*
X385549Y365450D01*
X385583Y365448D01*
X385773Y365470D01*
X385963Y365487D01*
X385996Y365496D01*
X386030Y365500D01*
X386213Y365555D01*
X386397Y365605D01*
X386428Y365620D01*
X386461Y365630D01*
X386632Y365717D01*
X386804Y365799D01*
X386832Y365819D01*
X386863Y365834D01*
X387015Y365950D01*
X387170Y366061D01*
X387194Y366086D01*
X387221Y366106D01*
X387351Y366246D01*
X387484Y366383D01*
X387503Y366412D01*
X387527Y366438D01*
X387629Y366599D01*
X387736Y366756D01*
X387750Y366788D01*
X387768Y366817D01*
X387841Y366994D01*
X387918Y367168D01*
X387926Y367202D01*
X387939Y367234D01*
X387980Y367421D01*
X388025Y367606D01*
X388027Y367640D01*
X388034Y367674D01*
X388053Y367986D01*
X388053Y395590D01*
X388081Y395655D01*
X388130Y395812D01*
X388186Y395966D01*
X388197Y396027D01*
X388215Y396085D01*
X388236Y396248D01*
X388265Y396410D01*
X388264Y396471D01*
X388272Y396531D01*
X388264Y396696D01*
X388263Y396860D01*
X388252Y396920D01*
X388249Y396981D01*
X388212Y397142D01*
X388182Y397303D01*
X388157Y397376D01*
X388147Y397420D01*
X388123Y397476D01*
X388081Y397598D01*
X388053Y397664D01*
X388053Y428589D01*
X388982Y430830D01*
X390697Y432545D01*
X392937Y433474D01*
X423863Y433474D01*
X426104Y432545D01*
X427819Y430830D01*
X428747Y428589D01*
X428747Y397664D01*
X428720Y397598D01*
X428670Y397441D01*
X428614Y397287D01*
X428603Y397227D01*
X428585Y397169D01*
X428564Y397006D01*
X428536Y396844D01*
X428536Y396783D01*
X428528Y396722D01*
X428537Y396558D01*
X428537Y396393D01*
X428548Y396333D01*
X428551Y396273D01*
X428589Y396112D01*
X428618Y395951D01*
X428643Y395878D01*
X428653Y395834D01*
X428678Y395778D01*
X428720Y395655D01*
X428747Y395590D01*
X428747Y379479D01*
X428758Y379350D01*
X428760Y379220D01*
X428778Y379126D01*
X428787Y379031D01*
X428821Y378906D01*
X428846Y378778D01*
X428880Y378689D01*
X428905Y378597D01*
X428961Y378479D01*
X429008Y378358D01*
X429058Y378276D01*
X429099Y378190D01*
X429174Y378084D01*
X429242Y377973D01*
X429305Y377902D01*
X429361Y377824D01*
X429454Y377733D01*
X429540Y377636D01*
X429615Y377577D01*
X429683Y377510D01*
X429791Y377437D01*
X429893Y377356D01*
X429977Y377311D01*
X430057Y377258D01*
X430176Y377205D01*
X430290Y377144D01*
X430381Y377114D01*
X430468Y377076D01*
X430595Y377045D01*
X430718Y377005D01*
X430813Y376992D01*
X430906Y376969D01*
X431035Y376961D01*
X431164Y376943D01*
X431260Y376947D01*
X431355Y376941D01*
X431484Y376956D01*
X431614Y376962D01*
X431707Y376982D01*
X431802Y376993D01*
X431927Y377031D01*
X432054Y377059D01*
X432142Y377096D01*
X432233Y377124D01*
X432349Y377183D01*
X432469Y377233D01*
X432550Y377285D01*
X432635Y377328D01*
X432738Y377406D01*
X432847Y377477D01*
X432945Y377563D01*
X432993Y377600D01*
X433024Y377633D01*
X433082Y377684D01*
X443218Y387820D01*
X447076Y391679D01*
X452041Y393735D01*
X452187Y393811D01*
X452336Y393880D01*
X452386Y393915D01*
X452440Y393944D01*
X452570Y394044D01*
X452705Y394139D01*
X452748Y394182D01*
X452796Y394219D01*
X452906Y394341D01*
X453022Y394458D01*
X453057Y394508D01*
X453098Y394554D01*
X453184Y394693D01*
X453278Y394828D01*
X453312Y394898D01*
X453336Y394936D01*
X453358Y394992D01*
X453415Y395109D01*
X454232Y397080D01*
X455947Y398795D01*
X456701Y399108D01*
X456732Y399124D01*
X456765Y399135D01*
X456931Y399228D01*
X457100Y399316D01*
X457128Y399338D01*
X457158Y399355D01*
X457305Y399475D01*
X457456Y399592D01*
X457480Y399618D01*
X457506Y399640D01*
X457630Y399785D01*
X457758Y399926D01*
X457776Y399956D01*
X457799Y399982D01*
X457895Y400147D01*
X457996Y400309D01*
X458009Y400341D01*
X458026Y400371D01*
X458092Y400550D01*
X458163Y400727D01*
X458169Y400761D01*
X458181Y400793D01*
X458215Y400981D01*
X458253Y401168D01*
X458254Y401203D01*
X458260Y401237D01*
X458259Y401427D01*
X458264Y401618D01*
X458258Y401653D01*
X458258Y401687D01*
X458224Y401874D01*
X458195Y402063D01*
X458183Y402096D01*
X458177Y402130D01*
X458113Y402317D01*
X458113Y421761D01*
X459041Y424002D01*
X460756Y425717D01*
X462997Y426645D01*
X483422Y426645D01*
X485663Y425717D01*
X487378Y424002D01*
X488306Y421761D01*
X488306Y402336D01*
X487786Y401080D01*
X487722Y400876D01*
X487657Y400676D01*
X487655Y400663D01*
X487651Y400650D01*
X487630Y400486D01*
X487629Y400481D01*
X487628Y400471D01*
X487624Y400439D01*
X487596Y400230D01*
X487596Y400217D01*
X487594Y400204D01*
X487602Y400049D01*
X487601Y400031D01*
X487605Y400001D01*
X487605Y399993D01*
X487614Y399780D01*
X487617Y399767D01*
X487618Y399754D01*
X487650Y399615D01*
X487653Y399584D01*
X487669Y399534D01*
X487712Y399340D01*
X487717Y399328D01*
X487720Y399315D01*
X487770Y399198D01*
X487784Y399153D01*
X487818Y399086D01*
X487885Y398925D01*
X487892Y398914D01*
X487898Y398902D01*
X487960Y398808D01*
X487988Y398752D01*
X488048Y398673D01*
X488129Y398547D01*
X488140Y398535D01*
X488146Y398526D01*
X488173Y398498D01*
X488229Y398434D01*
X488260Y398393D01*
X488288Y398367D01*
X488336Y398313D01*
X489569Y397080D01*
X490358Y395175D01*
X490418Y395060D01*
X490469Y394941D01*
X490522Y394861D01*
X490566Y394776D01*
X490646Y394674D01*
X490718Y394565D01*
X490783Y394496D01*
X490842Y394420D01*
X490938Y394333D01*
X491028Y394239D01*
X491105Y394183D01*
X491176Y394119D01*
X491286Y394050D01*
X491392Y393973D01*
X491477Y393931D01*
X491558Y393881D01*
X491679Y393833D01*
X491796Y393776D01*
X491888Y393749D01*
X491977Y393714D01*
X492104Y393688D01*
X492229Y393653D01*
X492324Y393643D01*
X492418Y393624D01*
X492548Y393621D01*
X492677Y393608D01*
X492773Y393615D01*
X492868Y393613D01*
X492997Y393633D01*
X493126Y393643D01*
X493218Y393667D01*
X493313Y393682D01*
X493436Y393724D01*
X493562Y393757D01*
X493648Y393797D01*
X493739Y393828D01*
X493852Y393892D01*
X493970Y393946D01*
X494049Y394001D01*
X494132Y394048D01*
X494233Y394130D01*
X494339Y394205D01*
X494407Y394273D01*
X494480Y394333D01*
X494565Y394432D01*
X494657Y394524D01*
X494711Y394603D01*
X494773Y394675D01*
X494839Y394788D01*
X494913Y394895D01*
X494970Y395011D01*
X495000Y395064D01*
X495016Y395106D01*
X495050Y395175D01*
X495632Y396580D01*
X497347Y398295D01*
X497937Y398540D01*
X497967Y398556D01*
X498000Y398567D01*
X498167Y398660D01*
X498336Y398748D01*
X498363Y398769D01*
X498393Y398786D01*
X498541Y398907D01*
X498692Y399024D01*
X498715Y399050D01*
X498742Y399072D01*
X498866Y399217D01*
X498993Y399358D01*
X499012Y399388D01*
X499034Y399414D01*
X499130Y399578D01*
X499231Y399740D01*
X499244Y399773D01*
X499262Y399803D01*
X499327Y399982D01*
X499398Y400159D01*
X499405Y400193D01*
X499417Y400225D01*
X499450Y400413D01*
X499488Y400600D01*
X499489Y400635D01*
X499495Y400669D01*
X499494Y400859D01*
X499499Y401050D01*
X499494Y401084D01*
X499493Y401119D01*
X499459Y401306D01*
X499430Y401495D01*
X499419Y401528D01*
X499412Y401562D01*
X499311Y401857D01*
X499113Y402336D01*
X499113Y421761D01*
X500041Y424002D01*
X501756Y425717D01*
X503997Y426645D01*
X524422Y426645D01*
X526663Y425717D01*
X528378Y424002D01*
X529306Y421761D01*
X529306Y402336D01*
X528757Y401009D01*
X528736Y400945D01*
X528725Y400918D01*
X528713Y400869D01*
X528693Y400807D01*
X528628Y400605D01*
X528626Y400592D01*
X528622Y400579D01*
X528595Y400369D01*
X528566Y400159D01*
X528567Y400146D01*
X528565Y400133D01*
X528576Y399921D01*
X528585Y399709D01*
X528588Y399696D01*
X528588Y399683D01*
X528636Y399477D01*
X528682Y399270D01*
X528687Y399257D01*
X528690Y399245D01*
X528774Y399050D01*
X528856Y398854D01*
X528863Y398843D01*
X528868Y398831D01*
X528986Y398652D01*
X529100Y398476D01*
X529111Y398464D01*
X529116Y398455D01*
X529144Y398427D01*
X529307Y398242D01*
X530969Y396580D01*
X531897Y394339D01*
X531897Y366914D01*
X530969Y364673D01*
X529254Y362958D01*
X527013Y362030D01*
X524684Y362030D01*
X524521Y362015D01*
X524356Y362009D01*
X524297Y361996D01*
X524236Y361990D01*
X524077Y361947D01*
X523916Y361911D01*
X523860Y361888D01*
X523801Y361872D01*
X523653Y361801D01*
X523501Y361738D01*
X523450Y361704D01*
X523395Y361678D01*
X523261Y361583D01*
X523123Y361493D01*
X523065Y361442D01*
X523029Y361416D01*
X523012Y361399D01*
X523010Y361398D01*
X522983Y361369D01*
X522889Y361286D01*
X506898Y345295D01*
X502323Y343400D01*
X499407Y343400D01*
X499325Y343393D01*
X499243Y343395D01*
X499102Y343373D01*
X498959Y343360D01*
X498879Y343339D01*
X498798Y343326D01*
X498663Y343280D01*
X498525Y343242D01*
X498450Y343207D01*
X498372Y343180D01*
X498247Y343110D01*
X498118Y343048D01*
X498051Y343001D01*
X497979Y342960D01*
X497868Y342870D01*
X497752Y342786D01*
X497694Y342727D01*
X497631Y342675D01*
X497538Y342566D01*
X497438Y342464D01*
X497392Y342395D01*
X497338Y342333D01*
X497266Y342209D01*
X497186Y342091D01*
X497152Y342015D01*
X497111Y341944D01*
X497061Y341810D01*
X497003Y341679D01*
X496984Y341599D01*
X496956Y341521D01*
X496931Y341380D01*
X496897Y341241D01*
X496892Y341159D01*
X496877Y341078D01*
X496878Y340935D01*
X496869Y340792D01*
X496879Y340710D01*
X496879Y340628D01*
X496905Y340487D01*
X496921Y340345D01*
X496945Y340266D01*
X496960Y340185D01*
X497040Y339952D01*
X497052Y339914D01*
X497056Y339904D01*
X497062Y339889D01*
X497710Y338323D01*
X497710Y316494D01*
X497721Y316377D01*
X497721Y316260D01*
X497741Y316154D01*
X497750Y316045D01*
X497781Y315932D01*
X497802Y315817D01*
X497852Y315671D01*
X497869Y315611D01*
X497884Y315578D01*
X497904Y315522D01*
X498110Y315023D01*
X498110Y285771D01*
X497454Y284186D01*
X497435Y284125D01*
X497429Y284113D01*
X497424Y284090D01*
X497419Y284074D01*
X497374Y283966D01*
X497351Y283860D01*
X497319Y283756D01*
X497304Y283640D01*
X497280Y283526D01*
X497270Y283372D01*
X497262Y283309D01*
X497264Y283273D01*
X497260Y283214D01*
X497260Y282034D01*
X496715Y280719D01*
X496666Y280562D01*
X496610Y280407D01*
X496599Y280347D01*
X496581Y280289D01*
X496560Y280126D01*
X496531Y279964D01*
X496532Y279903D01*
X496524Y279842D01*
X496532Y279678D01*
X496533Y279514D01*
X496544Y279454D01*
X496547Y279393D01*
X496584Y279233D01*
X496614Y279071D01*
X496639Y278998D01*
X496649Y278954D01*
X496673Y278899D01*
X496715Y278775D01*
X497260Y277460D01*
X497260Y276280D01*
X497271Y276164D01*
X497271Y276047D01*
X497291Y275940D01*
X497300Y275832D01*
X497331Y275719D01*
X497352Y275604D01*
X497402Y275458D01*
X497419Y275397D01*
X497434Y275365D01*
X497454Y275308D01*
X498110Y273723D01*
X498110Y268771D01*
X497454Y267186D01*
X497419Y267074D01*
X497374Y266966D01*
X497351Y266860D01*
X497319Y266756D01*
X497304Y266640D01*
X497280Y266526D01*
X497270Y266372D01*
X497262Y266309D01*
X497264Y266273D01*
X497260Y266214D01*
X497260Y265034D01*
X496332Y262794D01*
X494617Y261078D01*
X492376Y260150D01*
X491904Y260150D01*
X491787Y260140D01*
X491670Y260140D01*
X491564Y260120D01*
X491455Y260110D01*
X491342Y260080D01*
X491228Y260059D01*
X491081Y260008D01*
X491021Y259992D01*
X490988Y259976D01*
X490932Y259957D01*
X488139Y258800D01*
X483450Y258800D01*
X483415Y258797D01*
X483381Y258799D01*
X483191Y258777D01*
X483001Y258760D01*
X482968Y258751D01*
X482933Y258747D01*
X482750Y258692D01*
X482567Y258642D01*
X482536Y258627D01*
X482502Y258617D01*
X482332Y258530D01*
X482160Y258448D01*
X482132Y258428D01*
X482101Y258413D01*
X481949Y258297D01*
X481794Y258186D01*
X481770Y258161D01*
X481742Y258141D01*
X481613Y258001D01*
X481480Y257864D01*
X481461Y257835D01*
X481437Y257809D01*
X481335Y257648D01*
X481228Y257491D01*
X481214Y257459D01*
X481195Y257430D01*
X481123Y257253D01*
X481046Y257079D01*
X481037Y257045D01*
X481024Y257013D01*
X480984Y256827D01*
X480939Y256641D01*
X480937Y256607D01*
X480930Y256573D01*
X480910Y256261D01*
X480910Y241988D01*
X479015Y237413D01*
X475157Y233555D01*
X466978Y225376D01*
X466894Y225276D01*
X466804Y225183D01*
X466750Y225103D01*
X466689Y225030D01*
X466624Y224917D01*
X466552Y224810D01*
X466513Y224722D01*
X466466Y224639D01*
X466422Y224517D01*
X466369Y224398D01*
X466347Y224305D01*
X466315Y224215D01*
X466294Y224087D01*
X466263Y223960D01*
X466257Y223865D01*
X466241Y223771D01*
X466243Y223641D01*
X466235Y223511D01*
X466246Y223416D01*
X466247Y223320D01*
X466272Y223193D01*
X466287Y223064D01*
X466315Y222972D01*
X466333Y222878D01*
X466380Y222757D01*
X466417Y222633D01*
X466461Y222548D01*
X466495Y222458D01*
X466563Y222347D01*
X466622Y222231D01*
X466679Y222155D01*
X466729Y222074D01*
X466815Y221976D01*
X466894Y221873D01*
X466964Y221808D01*
X467027Y221736D01*
X467129Y221656D01*
X467225Y221567D01*
X467306Y221516D01*
X467380Y221457D01*
X467495Y221396D01*
X467605Y221326D01*
X467693Y221289D01*
X467777Y221244D01*
X467901Y221204D01*
X468021Y221155D01*
X468115Y221135D01*
X468206Y221105D01*
X468334Y221087D01*
X468461Y221060D01*
X468591Y221052D01*
X468652Y221044D01*
X468696Y221045D01*
X468773Y221041D01*
X471835Y221041D01*
X472481Y220868D01*
X473060Y220533D01*
X473533Y220060D01*
X473965Y219311D01*
X474040Y219205D01*
X474107Y219093D01*
X474169Y219021D01*
X474224Y218943D01*
X474317Y218851D01*
X474402Y218753D01*
X474476Y218693D01*
X474544Y218626D01*
X474651Y218552D01*
X474752Y218471D01*
X474836Y218425D01*
X474915Y218370D01*
X475033Y218317D01*
X475147Y218254D01*
X475238Y218224D01*
X475325Y218185D01*
X475451Y218153D01*
X475574Y218111D01*
X475669Y218097D01*
X475761Y218074D01*
X475891Y218065D01*
X476020Y218046D01*
X476115Y218049D01*
X476210Y218042D01*
X476340Y218056D01*
X476470Y218060D01*
X476563Y218080D01*
X476658Y218090D01*
X476783Y218127D01*
X476910Y218154D01*
X476999Y218190D01*
X477090Y218216D01*
X477207Y218274D01*
X477327Y218324D01*
X477408Y218375D01*
X477493Y218417D01*
X477598Y218495D01*
X477708Y218564D01*
X477778Y218629D01*
X477855Y218686D01*
X477944Y218781D01*
X478040Y218869D01*
X478097Y218945D01*
X478163Y219014D01*
X478234Y219123D01*
X478312Y219227D01*
X478356Y219312D01*
X478408Y219392D01*
X478459Y219512D01*
X478518Y219627D01*
X478559Y219751D01*
X478583Y219807D01*
X478593Y219850D01*
X478617Y219924D01*
X478632Y219981D01*
X478967Y220560D01*
X479440Y221033D01*
X480019Y221368D01*
X480665Y221541D01*
X483461Y221541D01*
X483461Y216039D01*
X466000Y216039D01*
X456948Y216039D01*
X456807Y216129D01*
X456650Y216236D01*
X456618Y216250D01*
X456589Y216268D01*
X456412Y216341D01*
X456238Y216418D01*
X456204Y216426D01*
X456172Y216439D01*
X455985Y216479D01*
X455800Y216525D01*
X455766Y216527D01*
X455732Y216534D01*
X455420Y216553D01*
X450227Y216553D01*
X450063Y216539D01*
X449899Y216532D01*
X449839Y216519D01*
X449779Y216513D01*
X449620Y216470D01*
X449459Y216434D01*
X449403Y216411D01*
X449344Y216395D01*
X449196Y216324D01*
X449044Y216261D01*
X448993Y216228D01*
X448938Y216201D01*
X448804Y216106D01*
X448666Y216016D01*
X448608Y215965D01*
X448572Y215939D01*
X448529Y215896D01*
X448432Y215810D01*
X447954Y215331D01*
X445713Y214403D01*
X432668Y214403D01*
X432633Y214400D01*
X432599Y214402D01*
X432410Y214380D01*
X432219Y214363D01*
X432186Y214354D01*
X432152Y214350D01*
X431969Y214295D01*
X431785Y214245D01*
X431754Y214230D01*
X431721Y214220D01*
X431550Y214133D01*
X431378Y214051D01*
X431350Y214031D01*
X431319Y214016D01*
X431167Y213900D01*
X431012Y213789D01*
X430988Y213764D01*
X430961Y213744D01*
X430832Y213604D01*
X430698Y213467D01*
X430679Y213438D01*
X430655Y213412D01*
X430553Y213251D01*
X430446Y213094D01*
X430432Y213062D01*
X430414Y213033D01*
X430341Y212856D01*
X430264Y212682D01*
X430256Y212648D01*
X430243Y212616D01*
X430203Y212429D01*
X430157Y212244D01*
X430155Y212210D01*
X430148Y212176D01*
X430129Y211864D01*
X430129Y210136D01*
X430132Y210101D01*
X430130Y210067D01*
X430152Y209878D01*
X430169Y209687D01*
X430178Y209654D01*
X430182Y209620D01*
X430237Y209437D01*
X430287Y209253D01*
X430302Y209222D01*
X430312Y209189D01*
X430399Y209018D01*
X430481Y208846D01*
X430501Y208818D01*
X430516Y208787D01*
X430632Y208635D01*
X430743Y208480D01*
X430768Y208456D01*
X430788Y208429D01*
X430928Y208300D01*
X431065Y208166D01*
X431094Y208147D01*
X431120Y208123D01*
X431281Y208021D01*
X431438Y207914D01*
X431470Y207900D01*
X431499Y207882D01*
X431676Y207809D01*
X431850Y207732D01*
X431884Y207724D01*
X431916Y207711D01*
X432103Y207671D01*
X432288Y207625D01*
X432322Y207623D01*
X432356Y207616D01*
X432668Y207597D01*
X449713Y207597D01*
X451954Y206669D01*
X452704Y205918D01*
X452731Y205895D01*
X452754Y205869D01*
X452903Y205752D01*
X453050Y205629D01*
X453080Y205611D01*
X453107Y205590D01*
X453275Y205500D01*
X453441Y205405D01*
X453473Y205394D01*
X453504Y205377D01*
X453685Y205318D01*
X453865Y205255D01*
X453899Y205249D01*
X453932Y205238D01*
X454121Y205212D01*
X454309Y205181D01*
X454344Y205181D01*
X454378Y205177D01*
X454569Y205185D01*
X454760Y205187D01*
X454794Y205194D01*
X454828Y205195D01*
X455014Y205236D01*
X455202Y205273D01*
X455234Y205285D01*
X455268Y205293D01*
X455444Y205366D01*
X455622Y205435D01*
X455651Y205453D01*
X455683Y205466D01*
X455843Y205570D01*
X456006Y205669D01*
X456032Y205692D01*
X456061Y205711D01*
X456296Y205918D01*
X457216Y206838D01*
X457321Y206964D01*
X457433Y207085D01*
X457465Y207136D01*
X457504Y207183D01*
X457586Y207326D01*
X457674Y207464D01*
X457698Y207521D01*
X457728Y207574D01*
X457783Y207729D01*
X457845Y207881D01*
X457858Y207941D01*
X457879Y207998D01*
X457905Y208160D01*
X457940Y208321D01*
X457945Y208398D01*
X457952Y208442D01*
X457951Y208503D01*
X457959Y208633D01*
X457959Y210961D01*
X466000Y210961D01*
X486000Y210961D01*
X493541Y210961D01*
X493541Y209133D01*
X493555Y208969D01*
X493562Y208805D01*
X493575Y208745D01*
X493581Y208685D01*
X493624Y208526D01*
X493660Y208365D01*
X493683Y208309D01*
X493699Y208250D01*
X493770Y208102D01*
X493833Y207950D01*
X493866Y207899D01*
X493893Y207844D01*
X493988Y207710D01*
X494078Y207572D01*
X494129Y207514D01*
X494155Y207478D01*
X494198Y207435D01*
X494284Y207338D01*
X496169Y205453D01*
X497260Y202818D01*
X497298Y202746D01*
X497328Y202669D01*
X497402Y202546D01*
X497469Y202419D01*
X497519Y202354D01*
X497562Y202284D01*
X497657Y202177D01*
X497744Y202063D01*
X497805Y202008D01*
X497860Y201947D01*
X497972Y201858D01*
X498079Y201762D01*
X498148Y201718D01*
X498213Y201667D01*
X498339Y201600D01*
X498461Y201524D01*
X498537Y201493D01*
X498610Y201454D01*
X498746Y201410D01*
X498879Y201357D01*
X498960Y201341D01*
X499038Y201315D01*
X499180Y201296D01*
X499320Y201267D01*
X499403Y201265D01*
X499484Y201254D01*
X499627Y201260D01*
X499770Y201256D01*
X499852Y201269D01*
X499934Y201272D01*
X500074Y201303D01*
X500215Y201325D01*
X500293Y201352D01*
X500374Y201370D01*
X500506Y201425D01*
X500641Y201472D01*
X500713Y201512D01*
X500789Y201543D01*
X500910Y201621D01*
X501034Y201691D01*
X501098Y201743D01*
X501167Y201788D01*
X501352Y201951D01*
X501383Y201976D01*
X501390Y201984D01*
X501402Y201995D01*
X501940Y202533D01*
X502519Y202868D01*
X503165Y203041D01*
X505461Y203041D01*
X505461Y196500D01*
X505464Y196466D01*
X505462Y196431D01*
X505484Y196242D01*
X505500Y196052D01*
X505510Y196018D01*
X505514Y195984D01*
X505569Y195801D01*
X505619Y195617D01*
X505634Y195586D01*
X505644Y195553D01*
X505731Y195382D01*
X505812Y195211D01*
X505833Y195183D01*
X505848Y195152D01*
X505963Y195000D01*
X506075Y194845D01*
X506099Y194821D01*
X506120Y194793D01*
X506260Y194664D01*
X506397Y194531D01*
X506426Y194511D01*
X506451Y194488D01*
X506612Y194385D01*
X506770Y194279D01*
X506802Y194265D01*
X506831Y194246D01*
X507008Y194174D01*
X507182Y194096D01*
X507216Y194088D01*
X507248Y194075D01*
X507434Y194035D01*
X507619Y193990D01*
X507654Y193988D01*
X507688Y193980D01*
X508000Y193961D01*
X508035Y193964D01*
X508069Y193962D01*
X508259Y193984D01*
X508449Y194001D01*
X508482Y194010D01*
X508516Y194014D01*
X508699Y194069D01*
X508883Y194120D01*
X508914Y194134D01*
X508947Y194144D01*
X509118Y194231D01*
X509290Y194313D01*
X509318Y194333D01*
X509349Y194349D01*
X509501Y194464D01*
X509656Y194575D01*
X509680Y194600D01*
X509707Y194621D01*
X509837Y194761D01*
X509970Y194898D01*
X509989Y194926D01*
X510013Y194952D01*
X510115Y195113D01*
X510222Y195271D01*
X510236Y195302D01*
X510254Y195332D01*
X510327Y195508D01*
X510404Y195683D01*
X510412Y195716D01*
X510425Y195748D01*
X510466Y195935D01*
X510511Y196120D01*
X510513Y196154D01*
X510520Y196188D01*
X510539Y196500D01*
X510539Y203041D01*
X512835Y203041D01*
X513481Y202868D01*
X514060Y202533D01*
X514533Y202060D01*
X514868Y201481D01*
X515041Y200835D01*
X515041Y197293D01*
X515052Y197163D01*
X515054Y197034D01*
X515072Y196940D01*
X515081Y196845D01*
X515115Y196719D01*
X515140Y196591D01*
X515174Y196502D01*
X515199Y196410D01*
X515255Y196293D01*
X515302Y196171D01*
X515352Y196090D01*
X515393Y196004D01*
X515468Y195898D01*
X515536Y195787D01*
X515599Y195715D01*
X515655Y195637D01*
X515748Y195547D01*
X515834Y195449D01*
X515909Y195390D01*
X515977Y195323D01*
X516085Y195251D01*
X516187Y195170D01*
X516271Y195125D01*
X516350Y195071D01*
X516469Y195019D01*
X516584Y194957D01*
X516675Y194928D01*
X516762Y194889D01*
X516889Y194858D01*
X517012Y194818D01*
X517107Y194805D01*
X517200Y194782D01*
X517329Y194774D01*
X517458Y194757D01*
X517554Y194761D01*
X517649Y194755D01*
X517778Y194770D01*
X517908Y194775D01*
X518001Y194796D01*
X518096Y194807D01*
X518221Y194845D01*
X518348Y194873D01*
X518436Y194909D01*
X518527Y194937D01*
X518643Y194996D01*
X518763Y195046D01*
X518843Y195098D01*
X518929Y195142D01*
X519032Y195220D01*
X519141Y195291D01*
X519239Y195377D01*
X519287Y195414D01*
X519318Y195446D01*
X519376Y195498D01*
X520047Y196169D01*
X522287Y197097D01*
X525319Y197097D01*
X525436Y197107D01*
X525553Y197107D01*
X525660Y197127D01*
X525768Y197137D01*
X525856Y197161D01*
X530121Y197161D01*
X530138Y197155D01*
X530254Y197141D01*
X530369Y197116D01*
X530523Y197106D01*
X530585Y197099D01*
X530621Y197100D01*
X530681Y197097D01*
X533713Y197097D01*
X534892Y196608D01*
X534971Y196584D01*
X535046Y196550D01*
X535186Y196516D01*
X535322Y196473D01*
X535404Y196463D01*
X535484Y196443D01*
X535626Y196435D01*
X535769Y196417D01*
X535851Y196421D01*
X535933Y196416D01*
X536075Y196432D01*
X536218Y196440D01*
X536299Y196458D01*
X536380Y196468D01*
X536517Y196509D01*
X536657Y196542D01*
X536732Y196574D01*
X536811Y196598D01*
X536939Y196663D01*
X537070Y196720D01*
X537139Y196765D01*
X537213Y196803D01*
X537327Y196889D01*
X537446Y196968D01*
X537506Y197025D01*
X537571Y197075D01*
X537668Y197180D01*
X537772Y197279D01*
X537821Y197345D01*
X537877Y197406D01*
X537953Y197526D01*
X538038Y197642D01*
X538074Y197716D01*
X538118Y197785D01*
X538173Y197918D01*
X538236Y198046D01*
X538258Y198126D01*
X538289Y198202D01*
X538319Y198342D01*
X538359Y198480D01*
X538367Y198562D01*
X538384Y198642D01*
X538399Y198888D01*
X538403Y198928D01*
X538402Y198938D01*
X538403Y198954D01*
X538403Y205300D01*
X538400Y205335D01*
X538402Y205369D01*
X538380Y205558D01*
X538363Y205749D01*
X538354Y205782D01*
X538350Y205816D01*
X538295Y205999D01*
X538245Y206183D01*
X538230Y206214D01*
X538220Y206247D01*
X538133Y206418D01*
X538051Y206590D01*
X538031Y206618D01*
X538016Y206649D01*
X537900Y206801D01*
X537789Y206956D01*
X537764Y206980D01*
X537744Y207007D01*
X537604Y207136D01*
X537467Y207270D01*
X537438Y207289D01*
X537412Y207313D01*
X537251Y207415D01*
X537094Y207522D01*
X537062Y207536D01*
X537033Y207554D01*
X536856Y207627D01*
X536682Y207704D01*
X536648Y207712D01*
X536616Y207725D01*
X536429Y207765D01*
X536244Y207811D01*
X536210Y207813D01*
X536176Y207820D01*
X535864Y207839D01*
X527979Y207839D01*
X524244Y209386D01*
X505386Y228244D01*
X503839Y231979D01*
X503839Y317021D01*
X505386Y320756D01*
X531744Y347114D01*
X535479Y348661D01*
X555685Y348661D01*
X555897Y348680D01*
X556108Y348696D01*
X556120Y348699D01*
X556134Y348701D01*
X556339Y348757D01*
X556543Y348810D01*
X556555Y348816D01*
X556568Y348819D01*
X556758Y348909D01*
X556952Y348999D01*
X556963Y349007D01*
X556975Y349013D01*
X557146Y349135D01*
X557321Y349258D01*
X557330Y349267D01*
X557341Y349275D01*
X557489Y349427D01*
X557638Y349577D01*
X557645Y349588D01*
X557655Y349597D01*
X557774Y349774D01*
X557894Y349947D01*
X557901Y349962D01*
X557907Y349970D01*
X557923Y350007D01*
X558031Y350228D01*
X558331Y350953D01*
X560046Y352669D01*
X562287Y353597D01*
X568443Y353597D01*
X568606Y353611D01*
X568771Y353618D01*
X568830Y353631D01*
X568891Y353637D01*
X569050Y353680D01*
X569210Y353716D01*
X569267Y353739D01*
X569325Y353755D01*
X569474Y353826D01*
X569626Y353889D01*
X569677Y353922D01*
X569732Y353949D01*
X569866Y354044D01*
X570004Y354134D01*
X570062Y354185D01*
X570098Y354211D01*
X570141Y354254D01*
X570238Y354340D01*
X589493Y373595D01*
X589576Y373695D01*
X589667Y373788D01*
X589721Y373867D01*
X589782Y373941D01*
X589846Y374054D01*
X589919Y374161D01*
X589958Y374249D01*
X590005Y374332D01*
X590049Y374454D01*
X590101Y374573D01*
X590124Y374666D01*
X590156Y374756D01*
X590177Y374884D01*
X590208Y375010D01*
X590214Y375106D01*
X590230Y375200D01*
X590228Y375330D01*
X590236Y375460D01*
X590225Y375555D01*
X590223Y375650D01*
X590199Y375778D01*
X590184Y375907D01*
X590156Y375999D01*
X590138Y376092D01*
X590091Y376214D01*
X590053Y376338D01*
X590010Y376423D01*
X589976Y376512D01*
X589908Y376624D01*
X589849Y376739D01*
X589791Y376815D01*
X589742Y376897D01*
X589656Y376995D01*
X589577Y377098D01*
X589507Y377163D01*
X589443Y377234D01*
X589342Y377315D01*
X589246Y377403D01*
X589165Y377455D01*
X589090Y377514D01*
X588976Y377575D01*
X588866Y377645D01*
X588778Y377681D01*
X588693Y377727D01*
X588570Y377767D01*
X588450Y377816D01*
X588356Y377836D01*
X588265Y377866D01*
X588137Y377883D01*
X588009Y377911D01*
X587880Y377919D01*
X587819Y377927D01*
X587774Y377925D01*
X587697Y377930D01*
X551087Y377930D01*
X548847Y378858D01*
X547132Y380573D01*
X546203Y382814D01*
X546203Y420239D01*
X547132Y422480D01*
X548847Y424195D01*
X551087Y425124D01*
X588513Y425124D01*
X590754Y424195D01*
X592469Y422480D01*
X593397Y420239D01*
X593397Y383629D01*
X593408Y383500D01*
X593410Y383370D01*
X593428Y383276D01*
X593437Y383181D01*
X593471Y383056D01*
X593496Y382928D01*
X593530Y382839D01*
X593555Y382747D01*
X593611Y382629D01*
X593658Y382508D01*
X593708Y382426D01*
X593749Y382340D01*
X593824Y382234D01*
X593892Y382123D01*
X593955Y382052D01*
X594011Y381974D01*
X594104Y381883D01*
X594190Y381786D01*
X594265Y381727D01*
X594333Y381660D01*
X594441Y381587D01*
X594543Y381506D01*
X594627Y381461D01*
X594707Y381408D01*
X594826Y381355D01*
X594940Y381294D01*
X595031Y381264D01*
X595118Y381226D01*
X595245Y381195D01*
X595368Y381155D01*
X595463Y381142D01*
X595556Y381119D01*
X595685Y381111D01*
X595814Y381093D01*
X595910Y381097D01*
X596005Y381091D01*
X596134Y381106D01*
X596264Y381112D01*
X596357Y381132D01*
X596452Y381143D01*
X596577Y381181D01*
X596704Y381209D01*
X596792Y381246D01*
X596883Y381274D01*
X596999Y381333D01*
X597119Y381383D01*
X597200Y381435D01*
X597285Y381478D01*
X597388Y381556D01*
X597497Y381627D01*
X597595Y381713D01*
X597643Y381750D01*
X597674Y381783D01*
X597732Y381834D01*
X614567Y398669D01*
X614672Y398795D01*
X614784Y398916D01*
X614816Y398967D01*
X614855Y399014D01*
X614937Y399157D01*
X615025Y399296D01*
X615049Y399352D01*
X615079Y399405D01*
X615134Y399560D01*
X615196Y399712D01*
X615209Y399772D01*
X615230Y399829D01*
X615256Y399992D01*
X615291Y400153D01*
X615296Y400229D01*
X615303Y400274D01*
X615302Y400335D01*
X615310Y400464D01*
X615310Y422519D01*
X616238Y424760D01*
X617953Y426475D01*
X620194Y427403D01*
X652620Y427403D01*
X654355Y426684D01*
X654427Y426662D01*
X654495Y426631D01*
X654641Y426595D01*
X654785Y426550D01*
X654859Y426540D01*
X654932Y426522D01*
X655082Y426512D01*
X655231Y426493D01*
X655307Y426497D01*
X655382Y426492D01*
X655531Y426508D01*
X655681Y426516D01*
X655754Y426533D01*
X655829Y426541D01*
X655973Y426584D01*
X656120Y426618D01*
X656189Y426648D01*
X656261Y426669D01*
X656395Y426737D01*
X656533Y426796D01*
X656596Y426837D01*
X656663Y426871D01*
X656784Y426961D01*
X656909Y427044D01*
X656963Y427096D01*
X657024Y427141D01*
X657126Y427251D01*
X657235Y427355D01*
X657279Y427416D01*
X657331Y427471D01*
X657412Y427597D01*
X657501Y427718D01*
X657534Y427786D01*
X657575Y427849D01*
X657632Y427988D01*
X657698Y428123D01*
X657719Y428195D01*
X657748Y428265D01*
X657780Y428411D01*
X657821Y428556D01*
X657829Y428631D01*
X657845Y428704D01*
X657864Y428982D01*
X657866Y429004D01*
X657866Y429009D01*
X657866Y429016D01*
X657940Y441970D01*
X657936Y442009D01*
X657939Y442048D01*
X657918Y442233D01*
X657902Y442419D01*
X657892Y442457D01*
X657888Y442495D01*
X657834Y442674D01*
X657786Y442854D01*
X657770Y442889D01*
X657759Y442927D01*
X657674Y443093D01*
X657595Y443262D01*
X657573Y443294D01*
X657555Y443328D01*
X657443Y443477D01*
X657335Y443629D01*
X657307Y443657D01*
X657284Y443688D01*
X657147Y443814D01*
X657014Y443945D01*
X656982Y443967D01*
X656954Y443994D01*
X656796Y444094D01*
X656643Y444199D01*
X656607Y444215D01*
X656574Y444236D01*
X656402Y444308D01*
X656232Y444384D01*
X656194Y444393D01*
X656158Y444408D01*
X655976Y444448D01*
X655795Y444493D01*
X655756Y444496D01*
X655718Y444504D01*
X655406Y444524D01*
X167655Y445658D01*
X167522Y445646D01*
X167389Y445644D01*
X167298Y445627D01*
X167206Y445619D01*
X167078Y445584D01*
X166947Y445559D01*
X166861Y445525D01*
X166771Y445501D01*
X166651Y445444D01*
X166527Y445396D01*
X166448Y445348D01*
X166364Y445309D01*
X166256Y445232D01*
X166142Y445162D01*
X166073Y445101D01*
X165998Y445047D01*
X165904Y444952D01*
X165805Y444864D01*
X165748Y444792D01*
X165683Y444725D01*
X165608Y444615D01*
X165526Y444511D01*
X165482Y444430D01*
X165430Y444353D01*
X165376Y444232D01*
X165313Y444114D01*
X165284Y444026D01*
X165247Y443942D01*
X165215Y443812D01*
X165174Y443686D01*
X165161Y443595D01*
X165139Y443504D01*
X165131Y443372D01*
X165112Y443240D01*
X165116Y443147D01*
X165110Y443055D01*
X165125Y442923D01*
X165131Y442790D01*
X165151Y442700D01*
X165161Y442608D01*
X165200Y442480D01*
X165228Y442351D01*
X165264Y442265D01*
X165291Y442176D01*
X165351Y442058D01*
X165402Y441935D01*
X165452Y441857D01*
X165494Y441775D01*
X165574Y441669D01*
X165646Y441557D01*
X165729Y441463D01*
X165765Y441415D01*
X165799Y441384D01*
X165853Y441323D01*
X173579Y433597D01*
X173579Y421603D01*
X165097Y413121D01*
X153103Y413121D01*
X144621Y421603D01*
X144621Y433597D01*
X152386Y441362D01*
X152468Y441460D01*
X152557Y441551D01*
X152612Y441632D01*
X152675Y441708D01*
X152738Y441818D01*
X152810Y441923D01*
X152850Y442013D01*
X152899Y442099D01*
X152941Y442218D01*
X152993Y442335D01*
X153017Y442430D01*
X153049Y442523D01*
X153070Y442648D01*
X153101Y442772D01*
X153107Y442870D01*
X153123Y442967D01*
X153121Y443094D01*
X153129Y443221D01*
X153118Y443319D01*
X153117Y443417D01*
X153093Y443542D01*
X153078Y443668D01*
X153050Y443763D01*
X153031Y443859D01*
X152986Y443978D01*
X152949Y444100D01*
X152905Y444188D01*
X152869Y444280D01*
X152803Y444388D01*
X152746Y444501D01*
X152686Y444580D01*
X152635Y444664D01*
X152551Y444760D01*
X152474Y444861D01*
X152402Y444928D01*
X152337Y445002D01*
X152237Y445081D01*
X152144Y445167D01*
X152061Y445220D01*
X151984Y445281D01*
X151872Y445341D01*
X151765Y445410D01*
X151674Y445447D01*
X151587Y445494D01*
X151466Y445533D01*
X151349Y445581D01*
X151252Y445602D01*
X151159Y445633D01*
X151033Y445650D01*
X150909Y445677D01*
X150774Y445686D01*
X150713Y445694D01*
X150670Y445693D01*
X150597Y445697D01*
X16168Y446010D01*
X16124Y446006D01*
X16080Y446008D01*
X15900Y445986D01*
X15719Y445971D01*
X15677Y445959D01*
X15633Y445954D01*
X15460Y445901D01*
X15284Y445853D01*
X15245Y445835D01*
X15203Y445822D01*
X15042Y445738D01*
X14877Y445661D01*
X14842Y445635D01*
X14803Y445615D01*
X14659Y445505D01*
X14511Y445399D01*
X14480Y445368D01*
X14445Y445342D01*
X14323Y445207D01*
X14196Y445078D01*
X14171Y445041D01*
X14142Y445009D01*
X14045Y444855D01*
X13943Y444705D01*
X13925Y444665D01*
X13902Y444628D01*
X13834Y444460D01*
X13760Y444294D01*
X13749Y444251D01*
X13733Y444211D01*
X13695Y444033D01*
X13652Y443857D01*
X13649Y443813D01*
X13640Y443770D01*
X13623Y443458D01*
X15699Y14275D01*
X15702Y14248D01*
X15700Y14221D01*
X15723Y14024D01*
X15742Y13827D01*
X15749Y13801D01*
X15752Y13774D01*
X15809Y13584D01*
X15862Y13393D01*
X15874Y13369D01*
X15882Y13343D01*
X15971Y13166D01*
X16058Y12988D01*
X16073Y12965D01*
X16086Y12941D01*
X16205Y12783D01*
X16321Y12623D01*
X16341Y12604D01*
X16357Y12582D01*
X16503Y12447D01*
X16646Y12310D01*
X16668Y12295D01*
X16688Y12277D01*
X16856Y12170D01*
X17020Y12060D01*
X17045Y12049D01*
X17068Y12034D01*
X17251Y11959D01*
X17433Y11880D01*
X17459Y11873D01*
X17484Y11863D01*
X17678Y11821D01*
X17871Y11775D01*
X17898Y11774D01*
X17924Y11768D01*
X18236Y11748D01*
X23100Y11744D01*
X23230Y11755D01*
X23362Y11757D01*
X23454Y11775D01*
X23548Y11783D01*
X23675Y11818D01*
X23804Y11843D01*
X23892Y11877D01*
X23983Y11901D01*
X24101Y11958D01*
X24224Y12005D01*
X24304Y12054D01*
X24389Y12094D01*
X24496Y12171D01*
X24608Y12239D01*
X24679Y12301D01*
X24756Y12356D01*
X24847Y12450D01*
X24946Y12537D01*
X25004Y12611D01*
X25070Y12678D01*
X25144Y12787D01*
X25225Y12890D01*
X25270Y12973D01*
X25323Y13051D01*
X25376Y13171D01*
X25438Y13287D01*
X25467Y13377D01*
X25505Y13463D01*
X25536Y13590D01*
X25577Y13715D01*
X25590Y13809D01*
X25612Y13900D01*
X25620Y14031D01*
X25638Y14161D01*
X25634Y14256D01*
X25640Y14350D01*
X25625Y14480D01*
X25620Y14611D01*
X25600Y14703D01*
X25589Y14797D01*
X25551Y14923D01*
X25522Y15051D01*
X25486Y15138D01*
X25459Y15228D01*
X25399Y15345D01*
X25349Y15466D01*
X25298Y15545D01*
X25255Y15629D01*
X25176Y15734D01*
X25104Y15844D01*
X25020Y15940D01*
X24983Y15988D01*
X24950Y16019D01*
X24897Y16078D01*
X24230Y16746D01*
X23302Y18986D01*
X23302Y37414D01*
X24340Y39919D01*
X24404Y40125D01*
X24470Y40325D01*
X24471Y40337D01*
X24475Y40349D01*
X24502Y40562D01*
X24531Y40772D01*
X24530Y40783D01*
X24532Y40795D01*
X24521Y41008D01*
X24512Y41221D01*
X24509Y41233D01*
X24508Y41245D01*
X24461Y41451D01*
X24414Y41661D01*
X24409Y41672D01*
X24406Y41684D01*
X24329Y41863D01*
X24324Y41879D01*
X23202Y44586D01*
X23202Y63014D01*
X24130Y65255D01*
X25845Y66970D01*
X25887Y66987D01*
X26065Y67080D01*
X26244Y67169D01*
X26264Y67184D01*
X26286Y67195D01*
X26444Y67318D01*
X26605Y67438D01*
X26622Y67456D01*
X26642Y67471D01*
X26776Y67620D01*
X26913Y67766D01*
X26927Y67787D01*
X26943Y67805D01*
X27050Y67976D01*
X27159Y68144D01*
X27168Y68166D01*
X27181Y68187D01*
X27255Y68374D01*
X27333Y68559D01*
X27339Y68583D01*
X27348Y68606D01*
X27388Y68802D01*
X27432Y68998D01*
X27433Y69022D01*
X27438Y69047D01*
X27443Y69248D01*
X27452Y69448D01*
X27448Y69472D01*
X27449Y69497D01*
X27418Y69695D01*
X27391Y69894D01*
X27384Y69917D01*
X27380Y69942D01*
X27315Y70131D01*
X27253Y70322D01*
X27240Y70349D01*
X27234Y70368D01*
X27207Y70416D01*
X27114Y70602D01*
X26931Y70918D01*
X26758Y71564D01*
X26758Y77361D01*
X37300Y77361D01*
X47842Y77361D01*
X47842Y71564D01*
X47669Y70918D01*
X47486Y70602D01*
X47402Y70421D01*
X47314Y70240D01*
X47307Y70216D01*
X47296Y70194D01*
X47245Y70000D01*
X47191Y69807D01*
X47188Y69782D01*
X47182Y69758D01*
X47166Y69559D01*
X47146Y69359D01*
X47148Y69334D01*
X47146Y69310D01*
X47166Y69110D01*
X47181Y68910D01*
X47188Y68886D01*
X47190Y68861D01*
X47244Y68669D01*
X47295Y68474D01*
X47306Y68452D01*
X47312Y68428D01*
X47400Y68248D01*
X47484Y68066D01*
X47499Y68045D01*
X47509Y68023D01*
X47627Y67862D01*
X47743Y67697D01*
X47760Y67679D01*
X47775Y67660D01*
X47920Y67521D01*
X48062Y67380D01*
X48082Y67366D01*
X48100Y67348D01*
X48268Y67238D01*
X48433Y67124D01*
X48459Y67111D01*
X48476Y67100D01*
X48526Y67078D01*
X48713Y66987D01*
X48755Y66970D01*
X50470Y65255D01*
X51398Y63014D01*
X51398Y44586D01*
X50360Y42081D01*
X50296Y41875D01*
X50230Y41675D01*
X50229Y41663D01*
X50225Y41651D01*
X50198Y41438D01*
X50169Y41228D01*
X50170Y41217D01*
X50168Y41205D01*
X50179Y40992D01*
X50188Y40779D01*
X50191Y40767D01*
X50192Y40755D01*
X50239Y40549D01*
X50286Y40339D01*
X50291Y40328D01*
X50294Y40316D01*
X50371Y40137D01*
X50376Y40121D01*
X51498Y37414D01*
X51498Y18986D01*
X50570Y16746D01*
X49875Y16051D01*
X49792Y15952D01*
X49702Y15860D01*
X49648Y15779D01*
X49586Y15705D01*
X49522Y15593D01*
X49450Y15487D01*
X49410Y15398D01*
X49362Y15314D01*
X49319Y15193D01*
X49267Y15075D01*
X49244Y14981D01*
X49212Y14890D01*
X49191Y14763D01*
X49160Y14638D01*
X49154Y14541D01*
X49138Y14446D01*
X49140Y14317D01*
X49132Y14188D01*
X49143Y14092D01*
X49144Y13996D01*
X49169Y13869D01*
X49183Y13741D01*
X49211Y13648D01*
X49230Y13554D01*
X49276Y13434D01*
X49313Y13310D01*
X49357Y13224D01*
X49392Y13133D01*
X49459Y13023D01*
X49517Y12909D01*
X49576Y12831D01*
X49626Y12749D01*
X49711Y12652D01*
X49789Y12550D01*
X49860Y12484D01*
X49924Y12411D01*
X50025Y12331D01*
X50120Y12244D01*
X50201Y12192D01*
X50277Y12132D01*
X50391Y12071D01*
X50499Y12002D01*
X50589Y11965D01*
X50674Y11919D01*
X50797Y11880D01*
X50916Y11830D01*
X51010Y11810D01*
X51102Y11780D01*
X51230Y11763D01*
X51356Y11735D01*
X51488Y11727D01*
X51548Y11719D01*
X51592Y11721D01*
X51668Y11716D01*
X175340Y11595D01*
X175470Y11607D01*
G37*
G36*
X244754Y34603D02*
X244754Y34603D01*
X244933Y34610D01*
X244979Y34621D01*
X245027Y34624D01*
X245199Y34669D01*
X245372Y34708D01*
X245416Y34726D01*
X245462Y34738D01*
X245623Y34813D01*
X245788Y34881D01*
X245828Y34907D01*
X245871Y34927D01*
X246016Y35029D01*
X246166Y35126D01*
X246210Y35165D01*
X246240Y35185D01*
X246284Y35230D01*
X246400Y35333D01*
X260820Y49753D01*
X264181Y51145D01*
X331849Y51145D01*
X331978Y51156D01*
X332109Y51158D01*
X332202Y51176D01*
X332297Y51185D01*
X332423Y51219D01*
X332551Y51244D01*
X332640Y51278D01*
X332732Y51303D01*
X332849Y51359D01*
X332971Y51406D01*
X333052Y51456D01*
X333138Y51497D01*
X333244Y51572D01*
X333355Y51640D01*
X333427Y51703D01*
X333505Y51759D01*
X333595Y51852D01*
X333693Y51938D01*
X333752Y52013D01*
X333819Y52081D01*
X333892Y52189D01*
X333972Y52291D01*
X334017Y52375D01*
X334071Y52454D01*
X334123Y52573D01*
X334185Y52688D01*
X334214Y52779D01*
X334253Y52866D01*
X334284Y52993D01*
X334324Y53116D01*
X334337Y53211D01*
X334360Y53304D01*
X334368Y53433D01*
X334385Y53562D01*
X334381Y53658D01*
X334387Y53753D01*
X334372Y53882D01*
X334367Y54012D01*
X334346Y54105D01*
X334335Y54200D01*
X334298Y54325D01*
X334269Y54452D01*
X334233Y54540D01*
X334205Y54631D01*
X334146Y54747D01*
X334096Y54867D01*
X334044Y54948D01*
X334001Y55033D01*
X333922Y55136D01*
X333851Y55245D01*
X333765Y55343D01*
X333729Y55391D01*
X333696Y55422D01*
X333645Y55480D01*
X325121Y64003D01*
X325121Y75997D01*
X333603Y84479D01*
X345597Y84479D01*
X354079Y75997D01*
X354079Y69943D01*
X354080Y69931D01*
X354080Y69929D01*
X354081Y69918D01*
X354093Y69779D01*
X354100Y69614D01*
X354113Y69555D01*
X354119Y69494D01*
X354162Y69335D01*
X354198Y69175D01*
X354221Y69118D01*
X354237Y69060D01*
X354308Y68912D01*
X354371Y68759D01*
X354404Y68708D01*
X354431Y68653D01*
X354526Y68520D01*
X354616Y68381D01*
X354667Y68323D01*
X354693Y68287D01*
X354736Y68244D01*
X354822Y68147D01*
X358065Y64904D01*
X358191Y64799D01*
X358312Y64687D01*
X358364Y64655D01*
X358410Y64616D01*
X358553Y64534D01*
X358692Y64446D01*
X358748Y64422D01*
X358801Y64392D01*
X358956Y64337D01*
X359108Y64275D01*
X359168Y64262D01*
X359226Y64241D01*
X359388Y64215D01*
X359549Y64180D01*
X359626Y64175D01*
X359670Y64168D01*
X359731Y64169D01*
X359861Y64161D01*
X376938Y64161D01*
X376973Y64164D01*
X377007Y64162D01*
X377196Y64184D01*
X377387Y64201D01*
X377420Y64210D01*
X377454Y64214D01*
X377637Y64269D01*
X377821Y64319D01*
X377852Y64334D01*
X377885Y64344D01*
X378056Y64431D01*
X378228Y64513D01*
X378256Y64533D01*
X378287Y64548D01*
X378439Y64664D01*
X378594Y64775D01*
X378618Y64800D01*
X378645Y64820D01*
X378774Y64960D01*
X378908Y65097D01*
X378927Y65126D01*
X378951Y65152D01*
X379053Y65313D01*
X379160Y65470D01*
X379174Y65502D01*
X379192Y65531D01*
X379265Y65708D01*
X379342Y65882D01*
X379350Y65916D01*
X379363Y65948D01*
X379403Y66135D01*
X379449Y66320D01*
X379451Y66354D01*
X379458Y66388D01*
X379477Y66700D01*
X379477Y67461D01*
X390400Y67461D01*
X390434Y67464D01*
X390469Y67462D01*
X390658Y67484D01*
X390848Y67500D01*
X390882Y67510D01*
X390916Y67514D01*
X391099Y67569D01*
X391283Y67619D01*
X391314Y67634D01*
X391347Y67644D01*
X391518Y67731D01*
X391689Y67812D01*
X391717Y67833D01*
X391748Y67848D01*
X391900Y67963D01*
X392055Y68075D01*
X392079Y68099D01*
X392107Y68120D01*
X392107Y68121D01*
X392236Y68260D01*
X392369Y68397D01*
X392370Y68398D01*
X392389Y68426D01*
X392413Y68452D01*
X392515Y68613D01*
X392622Y68771D01*
X392636Y68802D01*
X392654Y68832D01*
X392727Y69008D01*
X392804Y69183D01*
X392812Y69216D01*
X392825Y69248D01*
X392866Y69435D01*
X392911Y69620D01*
X392913Y69654D01*
X392920Y69688D01*
X392939Y70000D01*
X392939Y80923D01*
X394924Y80923D01*
X396068Y79779D01*
X396168Y79695D01*
X396261Y79604D01*
X396341Y79551D01*
X396414Y79490D01*
X396527Y79425D01*
X396634Y79352D01*
X396722Y79314D01*
X396805Y79266D01*
X396927Y79223D01*
X397046Y79170D01*
X397139Y79148D01*
X397229Y79115D01*
X397357Y79094D01*
X397484Y79063D01*
X397579Y79058D01*
X397673Y79042D01*
X397803Y79044D01*
X397933Y79036D01*
X398028Y79047D01*
X398124Y79048D01*
X398251Y79073D01*
X398380Y79088D01*
X398472Y79116D01*
X398566Y79134D01*
X398687Y79180D01*
X398811Y79218D01*
X398897Y79262D01*
X398986Y79296D01*
X399097Y79363D01*
X399213Y79423D01*
X399289Y79480D01*
X399370Y79530D01*
X399468Y79616D01*
X399571Y79695D01*
X399636Y79765D01*
X399708Y79828D01*
X399788Y79930D01*
X399877Y80026D01*
X399928Y80106D01*
X399987Y80181D01*
X400049Y80296D01*
X400118Y80405D01*
X400155Y80494D01*
X400200Y80578D01*
X400240Y80702D01*
X400289Y80822D01*
X400309Y80915D01*
X400339Y81006D01*
X400357Y81135D01*
X400384Y81262D01*
X400392Y81392D01*
X400400Y81452D01*
X400399Y81497D01*
X400403Y81574D01*
X400403Y87713D01*
X401331Y89954D01*
X403046Y91669D01*
X405287Y92597D01*
X424073Y92597D01*
X424284Y92616D01*
X424495Y92632D01*
X424508Y92635D01*
X424521Y92637D01*
X424727Y92693D01*
X424931Y92746D01*
X424943Y92752D01*
X424956Y92755D01*
X425146Y92846D01*
X425340Y92935D01*
X425350Y92943D01*
X425362Y92949D01*
X425534Y93071D01*
X425708Y93194D01*
X425718Y93203D01*
X425728Y93211D01*
X425877Y93363D01*
X426026Y93513D01*
X426033Y93524D01*
X426042Y93533D01*
X426161Y93709D01*
X426282Y93883D01*
X426289Y93898D01*
X426294Y93906D01*
X426303Y93925D01*
X428046Y95669D01*
X430287Y96597D01*
X443713Y96597D01*
X445954Y95669D01*
X446234Y95388D01*
X446360Y95283D01*
X446481Y95171D01*
X446532Y95139D01*
X446579Y95100D01*
X446722Y95018D01*
X446860Y94930D01*
X446917Y94906D01*
X446970Y94876D01*
X447125Y94821D01*
X447277Y94759D01*
X447337Y94746D01*
X447394Y94725D01*
X447557Y94699D01*
X447717Y94664D01*
X447794Y94659D01*
X447838Y94652D01*
X447900Y94653D01*
X448029Y94645D01*
X449919Y94645D01*
X452644Y93516D01*
X452723Y93491D01*
X452798Y93458D01*
X452937Y93424D01*
X453074Y93381D01*
X453156Y93371D01*
X453236Y93351D01*
X453378Y93342D01*
X453521Y93324D01*
X453603Y93329D01*
X453685Y93324D01*
X453827Y93340D01*
X453970Y93347D01*
X454050Y93366D01*
X454132Y93376D01*
X454270Y93417D01*
X454409Y93450D01*
X454484Y93482D01*
X454563Y93506D01*
X454691Y93571D01*
X454822Y93627D01*
X454891Y93673D01*
X454965Y93710D01*
X455079Y93797D01*
X455198Y93876D01*
X455258Y93932D01*
X455323Y93982D01*
X455420Y94088D01*
X455524Y94186D01*
X455573Y94253D01*
X455629Y94313D01*
X455706Y94434D01*
X455790Y94550D01*
X455826Y94624D01*
X455870Y94693D01*
X455925Y94826D01*
X455988Y94954D01*
X456010Y95034D01*
X456041Y95110D01*
X456071Y95250D01*
X456111Y95387D01*
X456119Y95469D01*
X456136Y95550D01*
X456151Y95796D01*
X456155Y95835D01*
X456154Y95846D01*
X456155Y95862D01*
X456155Y97488D01*
X459727Y101060D01*
X459749Y101086D01*
X459775Y101109D01*
X459894Y101259D01*
X460016Y101405D01*
X460033Y101435D01*
X460055Y101462D01*
X460145Y101631D01*
X460239Y101796D01*
X460251Y101829D01*
X460267Y101859D01*
X460326Y102041D01*
X460390Y102220D01*
X460396Y102254D01*
X460407Y102287D01*
X460433Y102477D01*
X460464Y102665D01*
X460463Y102699D01*
X460468Y102734D01*
X460460Y102924D01*
X460458Y103115D01*
X460451Y103149D01*
X460450Y103183D01*
X460408Y103370D01*
X460372Y103557D01*
X460360Y103589D01*
X460352Y103623D01*
X460279Y103799D01*
X460210Y103977D01*
X460192Y104007D01*
X460178Y104038D01*
X460075Y104198D01*
X459976Y104362D01*
X459953Y104387D01*
X459934Y104417D01*
X459727Y104651D01*
X458331Y106046D01*
X457366Y108377D01*
X457363Y108409D01*
X457342Y108488D01*
X457329Y108570D01*
X457283Y108705D01*
X457245Y108843D01*
X457210Y108917D01*
X457183Y108995D01*
X457113Y109121D01*
X457051Y109250D01*
X457004Y109317D01*
X456963Y109389D01*
X456873Y109499D01*
X456789Y109616D01*
X456730Y109673D01*
X456678Y109737D01*
X456569Y109830D01*
X456467Y109930D01*
X456398Y109976D01*
X456336Y110029D01*
X456212Y110102D01*
X456094Y110182D01*
X456018Y110215D01*
X455947Y110257D01*
X455813Y110306D01*
X455682Y110364D01*
X455602Y110384D01*
X455524Y110412D01*
X455383Y110437D01*
X455244Y110471D01*
X455162Y110476D01*
X455081Y110490D01*
X454938Y110490D01*
X454795Y110498D01*
X454713Y110489D01*
X454631Y110489D01*
X454490Y110463D01*
X454348Y110446D01*
X454269Y110423D01*
X454188Y110408D01*
X453955Y110328D01*
X453917Y110316D01*
X453907Y110311D01*
X453892Y110306D01*
X451713Y109403D01*
X431287Y109403D01*
X429046Y110331D01*
X427331Y112046D01*
X426403Y114287D01*
X426403Y133713D01*
X427297Y135871D01*
X427336Y135995D01*
X427384Y136116D01*
X427403Y136209D01*
X427432Y136300D01*
X427448Y136430D01*
X427474Y136557D01*
X427477Y136652D01*
X427489Y136747D01*
X427482Y136877D01*
X427485Y137007D01*
X427471Y137101D01*
X427466Y137197D01*
X427436Y137323D01*
X427416Y137452D01*
X427385Y137542D01*
X427364Y137635D01*
X427312Y137755D01*
X427270Y137878D01*
X427223Y137961D01*
X427186Y138049D01*
X427114Y138157D01*
X427051Y138271D01*
X426990Y138345D01*
X426937Y138425D01*
X426848Y138519D01*
X426765Y138619D01*
X426693Y138682D01*
X426627Y138751D01*
X426522Y138827D01*
X426423Y138912D01*
X426340Y138960D01*
X426263Y139016D01*
X426147Y139073D01*
X426034Y139139D01*
X425945Y139172D01*
X425859Y139214D01*
X425734Y139250D01*
X425612Y139294D01*
X425517Y139311D01*
X425426Y139337D01*
X425296Y139350D01*
X425168Y139373D01*
X425073Y139372D01*
X424978Y139382D01*
X424848Y139371D01*
X424718Y139371D01*
X424624Y139354D01*
X424529Y139346D01*
X424403Y139314D01*
X424275Y139290D01*
X424152Y139248D01*
X424093Y139232D01*
X424052Y139214D01*
X423979Y139188D01*
X423214Y138871D01*
X418786Y138871D01*
X418021Y139188D01*
X417897Y139227D01*
X417776Y139276D01*
X417682Y139295D01*
X417591Y139323D01*
X417462Y139340D01*
X417334Y139366D01*
X417239Y139368D01*
X417144Y139380D01*
X417014Y139373D01*
X416884Y139376D01*
X416790Y139362D01*
X416695Y139357D01*
X416568Y139327D01*
X416439Y139308D01*
X416349Y139277D01*
X416256Y139255D01*
X416137Y139204D01*
X416014Y139161D01*
X415930Y139115D01*
X415842Y139077D01*
X415734Y139005D01*
X415620Y138942D01*
X415546Y138881D01*
X415467Y138829D01*
X415373Y138739D01*
X415272Y138657D01*
X415210Y138584D01*
X415141Y138518D01*
X415064Y138413D01*
X414979Y138314D01*
X414931Y138232D01*
X414875Y138155D01*
X414818Y138038D01*
X414752Y137926D01*
X414719Y137836D01*
X414677Y137750D01*
X414642Y137625D01*
X414597Y137503D01*
X414580Y137409D01*
X414554Y137317D01*
X414541Y137188D01*
X414519Y137060D01*
X414519Y136964D01*
X414510Y136869D01*
X414520Y136739D01*
X414520Y136609D01*
X414537Y136515D01*
X414545Y136420D01*
X414578Y136294D01*
X414601Y136166D01*
X414643Y136043D01*
X414659Y135984D01*
X414678Y135944D01*
X414703Y135871D01*
X415597Y133713D01*
X415597Y114287D01*
X414669Y112046D01*
X412954Y110331D01*
X410713Y109403D01*
X390287Y109403D01*
X388046Y110331D01*
X386331Y112047D01*
X385817Y113288D01*
X385719Y113475D01*
X385623Y113665D01*
X385615Y113675D01*
X385609Y113687D01*
X385479Y113854D01*
X385351Y114023D01*
X385341Y114032D01*
X385333Y114043D01*
X385175Y114185D01*
X385020Y114329D01*
X385009Y114336D01*
X384999Y114344D01*
X384819Y114456D01*
X384640Y114570D01*
X384628Y114575D01*
X384617Y114582D01*
X384420Y114661D01*
X384223Y114741D01*
X384211Y114744D01*
X384198Y114749D01*
X383990Y114791D01*
X383783Y114836D01*
X383767Y114837D01*
X383757Y114839D01*
X383718Y114840D01*
X383471Y114855D01*
X285674Y114855D01*
X285540Y114843D01*
X285407Y114841D01*
X285317Y114824D01*
X285225Y114815D01*
X285096Y114780D01*
X284965Y114754D01*
X284879Y114721D01*
X284791Y114697D01*
X284670Y114639D01*
X284546Y114591D01*
X284467Y114543D01*
X284384Y114503D01*
X284276Y114426D01*
X284162Y114356D01*
X284067Y114276D01*
X284018Y114241D01*
X283985Y114208D01*
X283922Y114155D01*
X271644Y102461D01*
X271546Y102350D01*
X271442Y102245D01*
X271398Y102181D01*
X271346Y102123D01*
X271270Y101996D01*
X271186Y101875D01*
X271142Y101783D01*
X271114Y101737D01*
X271094Y101686D01*
X271049Y101594D01*
X269435Y97696D01*
X266304Y94565D01*
X262214Y92871D01*
X257786Y92871D01*
X255656Y93754D01*
X255577Y93779D01*
X255502Y93812D01*
X255363Y93846D01*
X255226Y93889D01*
X255144Y93899D01*
X255064Y93918D01*
X254922Y93927D01*
X254779Y93945D01*
X254697Y93941D01*
X254615Y93946D01*
X254473Y93930D01*
X254330Y93922D01*
X254250Y93904D01*
X254168Y93894D01*
X254030Y93853D01*
X253891Y93820D01*
X253816Y93788D01*
X253737Y93764D01*
X253609Y93699D01*
X253478Y93642D01*
X253409Y93597D01*
X253335Y93559D01*
X253221Y93473D01*
X253102Y93394D01*
X253042Y93337D01*
X252977Y93287D01*
X252880Y93182D01*
X252776Y93083D01*
X252727Y93017D01*
X252671Y92956D01*
X252594Y92835D01*
X252510Y92720D01*
X252474Y92646D01*
X252430Y92577D01*
X252375Y92444D01*
X252312Y92315D01*
X252290Y92236D01*
X252259Y92160D01*
X252229Y92020D01*
X252189Y91882D01*
X252181Y91800D01*
X252164Y91720D01*
X252149Y91474D01*
X252145Y91434D01*
X252146Y91424D01*
X252145Y91408D01*
X252145Y88840D01*
X252159Y88676D01*
X252166Y88512D01*
X252179Y88452D01*
X252185Y88391D01*
X252228Y88232D01*
X252264Y88072D01*
X252287Y88016D01*
X252303Y87957D01*
X252374Y87808D01*
X252437Y87657D01*
X252470Y87605D01*
X252497Y87550D01*
X252592Y87417D01*
X252682Y87278D01*
X252733Y87221D01*
X252759Y87184D01*
X252802Y87142D01*
X252888Y87044D01*
X259157Y80776D01*
X259247Y80701D01*
X259330Y80618D01*
X259419Y80556D01*
X259502Y80487D01*
X259604Y80429D01*
X259700Y80362D01*
X259839Y80295D01*
X259893Y80263D01*
X259927Y80251D01*
X259981Y80225D01*
X264304Y78435D01*
X267435Y75304D01*
X269129Y71214D01*
X269129Y66786D01*
X267435Y62696D01*
X264304Y59565D01*
X260214Y57871D01*
X255786Y57871D01*
X251696Y59565D01*
X248565Y62696D01*
X246775Y67019D01*
X246721Y67123D01*
X246676Y67231D01*
X246617Y67322D01*
X246566Y67418D01*
X246495Y67511D01*
X246431Y67609D01*
X246329Y67724D01*
X246291Y67774D01*
X246264Y67799D01*
X246224Y67843D01*
X244480Y69588D01*
X244380Y69671D01*
X244287Y69762D01*
X244207Y69815D01*
X244134Y69877D01*
X244021Y69941D01*
X243914Y70014D01*
X243826Y70053D01*
X243743Y70100D01*
X243621Y70144D01*
X243502Y70196D01*
X243409Y70219D01*
X243319Y70251D01*
X243190Y70272D01*
X243064Y70303D01*
X242969Y70309D01*
X242875Y70324D01*
X242744Y70323D01*
X242615Y70331D01*
X242520Y70320D01*
X242424Y70318D01*
X242297Y70294D01*
X242168Y70279D01*
X242076Y70251D01*
X241982Y70233D01*
X241861Y70186D01*
X241737Y70148D01*
X241652Y70105D01*
X241562Y70071D01*
X241451Y70003D01*
X241335Y69944D01*
X241259Y69886D01*
X241178Y69837D01*
X241080Y69750D01*
X240977Y69672D01*
X240912Y69602D01*
X240840Y69538D01*
X240760Y69437D01*
X240671Y69341D01*
X240620Y69260D01*
X240561Y69185D01*
X240500Y69071D01*
X240430Y68961D01*
X240393Y68873D01*
X240348Y68788D01*
X240308Y68665D01*
X240259Y68544D01*
X240239Y68451D01*
X240209Y68360D01*
X240191Y68232D01*
X240164Y68104D01*
X240156Y67975D01*
X240148Y67914D01*
X240149Y67869D01*
X240145Y67792D01*
X240145Y47509D01*
X240155Y47392D01*
X240155Y47275D01*
X240175Y47168D01*
X240185Y47060D01*
X240215Y46947D01*
X240236Y46832D01*
X240287Y46686D01*
X240303Y46626D01*
X240319Y46593D01*
X240338Y46537D01*
X242129Y42214D01*
X242129Y37686D01*
X242124Y37671D01*
X242102Y37495D01*
X242072Y37319D01*
X242073Y37271D01*
X242067Y37224D01*
X242076Y37047D01*
X242079Y36869D01*
X242088Y36822D01*
X242090Y36774D01*
X242130Y36601D01*
X242164Y36427D01*
X242181Y36382D01*
X242192Y36336D01*
X242262Y36173D01*
X242326Y36007D01*
X242351Y35966D01*
X242370Y35922D01*
X242468Y35774D01*
X242560Y35622D01*
X242592Y35586D01*
X242618Y35547D01*
X242741Y35418D01*
X242859Y35285D01*
X242896Y35255D01*
X242929Y35221D01*
X243072Y35115D01*
X243212Y35005D01*
X243253Y34983D01*
X243292Y34955D01*
X243452Y34876D01*
X243609Y34792D01*
X243654Y34778D01*
X243697Y34757D01*
X243868Y34708D01*
X244037Y34653D01*
X244084Y34647D01*
X244130Y34634D01*
X244306Y34616D01*
X244483Y34592D01*
X244531Y34594D01*
X244578Y34589D01*
X244754Y34603D01*
G37*
G36*
X520436Y68741D02*
X520436Y68741D01*
X520600Y68742D01*
X520660Y68753D01*
X520721Y68756D01*
X520881Y68793D01*
X521043Y68823D01*
X521116Y68848D01*
X521160Y68858D01*
X521216Y68882D01*
X521339Y68925D01*
X522654Y69469D01*
X535448Y69469D01*
X535612Y69484D01*
X535776Y69491D01*
X535836Y69504D01*
X535897Y69509D01*
X536056Y69553D01*
X536216Y69588D01*
X536272Y69612D01*
X536331Y69628D01*
X536479Y69698D01*
X536631Y69762D01*
X536683Y69795D01*
X536738Y69821D01*
X536871Y69917D01*
X537010Y70006D01*
X537067Y70057D01*
X537104Y70083D01*
X537146Y70127D01*
X537244Y70213D01*
X537860Y70829D01*
X537965Y70955D01*
X538077Y71076D01*
X538109Y71128D01*
X538148Y71174D01*
X538230Y71317D01*
X538318Y71456D01*
X538342Y71512D01*
X538372Y71565D01*
X538427Y71720D01*
X538489Y71872D01*
X538502Y71932D01*
X538523Y71990D01*
X538549Y72152D01*
X538584Y72313D01*
X538589Y72390D01*
X538596Y72434D01*
X538595Y72495D01*
X538603Y72625D01*
X538603Y82013D01*
X539531Y84254D01*
X541246Y85969D01*
X543487Y86897D01*
X552875Y86897D01*
X553039Y86911D01*
X553204Y86918D01*
X553263Y86931D01*
X553324Y86937D01*
X553483Y86980D01*
X553643Y87016D01*
X553699Y87039D01*
X553758Y87055D01*
X553907Y87126D01*
X554059Y87189D01*
X554110Y87222D01*
X554165Y87249D01*
X554299Y87344D01*
X554437Y87434D01*
X554495Y87485D01*
X554531Y87511D01*
X554574Y87554D01*
X554671Y87640D01*
X560399Y93368D01*
X560482Y93468D01*
X560573Y93561D01*
X560627Y93641D01*
X560688Y93714D01*
X560752Y93827D01*
X560825Y93934D01*
X560864Y94022D01*
X560911Y94105D01*
X560955Y94227D01*
X561008Y94346D01*
X561030Y94439D01*
X561062Y94529D01*
X561083Y94657D01*
X561114Y94784D01*
X561120Y94879D01*
X561136Y94973D01*
X561134Y95103D01*
X561142Y95233D01*
X561131Y95328D01*
X561130Y95424D01*
X561105Y95551D01*
X561090Y95680D01*
X561062Y95772D01*
X561044Y95866D01*
X560997Y95987D01*
X560959Y96111D01*
X560916Y96196D01*
X560882Y96286D01*
X560814Y96397D01*
X560755Y96513D01*
X560697Y96589D01*
X560648Y96670D01*
X560562Y96768D01*
X560483Y96871D01*
X560413Y96936D01*
X560350Y97008D01*
X560248Y97088D01*
X560152Y97177D01*
X560071Y97228D01*
X559996Y97287D01*
X559882Y97348D01*
X559772Y97418D01*
X559684Y97455D01*
X559600Y97500D01*
X559476Y97540D01*
X559356Y97589D01*
X559262Y97609D01*
X559171Y97639D01*
X559043Y97657D01*
X558915Y97684D01*
X558786Y97692D01*
X558725Y97700D01*
X558680Y97699D01*
X558604Y97703D01*
X543487Y97703D01*
X541246Y98631D01*
X539531Y100346D01*
X538603Y102587D01*
X538603Y113129D01*
X538596Y113211D01*
X538598Y113293D01*
X538576Y113434D01*
X538563Y113577D01*
X538542Y113657D01*
X538529Y113738D01*
X538483Y113874D01*
X538445Y114012D01*
X538410Y114086D01*
X538383Y114164D01*
X538313Y114289D01*
X538251Y114418D01*
X538204Y114485D01*
X538163Y114557D01*
X538073Y114668D01*
X537989Y114784D01*
X537930Y114842D01*
X537878Y114906D01*
X537769Y114998D01*
X537667Y115098D01*
X537598Y115145D01*
X537536Y115198D01*
X537412Y115270D01*
X537294Y115350D01*
X537218Y115384D01*
X537147Y115425D01*
X537013Y115475D01*
X536882Y115533D01*
X536802Y115552D01*
X536724Y115581D01*
X536583Y115605D01*
X536444Y115639D01*
X536362Y115644D01*
X536281Y115659D01*
X536138Y115658D01*
X535995Y115667D01*
X535913Y115658D01*
X535831Y115657D01*
X535690Y115632D01*
X535548Y115615D01*
X535469Y115591D01*
X535388Y115576D01*
X535155Y115496D01*
X535117Y115485D01*
X535107Y115480D01*
X535092Y115475D01*
X533713Y114903D01*
X530681Y114903D01*
X530564Y114893D01*
X530447Y114893D01*
X530341Y114873D01*
X530232Y114863D01*
X530144Y114839D01*
X525879Y114839D01*
X525861Y114845D01*
X525746Y114859D01*
X525631Y114884D01*
X525477Y114894D01*
X525415Y114901D01*
X525378Y114900D01*
X525319Y114903D01*
X522287Y114903D01*
X522108Y114978D01*
X522029Y115002D01*
X521954Y115036D01*
X521815Y115070D01*
X521678Y115112D01*
X521596Y115123D01*
X521516Y115142D01*
X521373Y115151D01*
X521231Y115169D01*
X521149Y115165D01*
X521067Y115170D01*
X520925Y115153D01*
X520782Y115146D01*
X520702Y115127D01*
X520620Y115118D01*
X520483Y115076D01*
X520343Y115044D01*
X520268Y115012D01*
X520189Y114988D01*
X520061Y114923D01*
X519930Y114866D01*
X519861Y114821D01*
X519787Y114783D01*
X519673Y114697D01*
X519554Y114618D01*
X519494Y114561D01*
X519429Y114511D01*
X519332Y114406D01*
X519228Y114307D01*
X519179Y114241D01*
X519123Y114180D01*
X519047Y114059D01*
X518962Y113944D01*
X518926Y113870D01*
X518882Y113800D01*
X518827Y113668D01*
X518764Y113539D01*
X518742Y113460D01*
X518711Y113384D01*
X518681Y113244D01*
X518641Y113106D01*
X518633Y113024D01*
X518616Y112944D01*
X518601Y112698D01*
X518597Y112658D01*
X518598Y112647D01*
X518597Y112632D01*
X518597Y110287D01*
X517669Y108046D01*
X515954Y106331D01*
X513713Y105403D01*
X510681Y105403D01*
X510564Y105393D01*
X510447Y105393D01*
X510340Y105373D01*
X510232Y105363D01*
X510144Y105339D01*
X496013Y105339D01*
X495849Y105325D01*
X495685Y105318D01*
X495625Y105305D01*
X495565Y105299D01*
X495406Y105256D01*
X495245Y105220D01*
X495189Y105197D01*
X495130Y105181D01*
X494982Y105110D01*
X494830Y105047D01*
X494779Y105014D01*
X494724Y104987D01*
X494590Y104892D01*
X494452Y104802D01*
X494394Y104751D01*
X494358Y104725D01*
X494315Y104682D01*
X494218Y104596D01*
X493954Y104331D01*
X491713Y103403D01*
X479287Y103403D01*
X477972Y103948D01*
X477815Y103997D01*
X477660Y104054D01*
X477600Y104065D01*
X477542Y104083D01*
X477379Y104104D01*
X477217Y104132D01*
X477156Y104132D01*
X477095Y104140D01*
X476931Y104131D01*
X476767Y104131D01*
X476707Y104120D01*
X476646Y104117D01*
X476486Y104079D01*
X476324Y104050D01*
X476251Y104025D01*
X476207Y104015D01*
X476152Y103991D01*
X476028Y103948D01*
X474713Y103403D01*
X474660Y103403D01*
X474530Y103392D01*
X474400Y103390D01*
X474306Y103372D01*
X474211Y103363D01*
X474086Y103329D01*
X473958Y103304D01*
X473869Y103270D01*
X473777Y103245D01*
X473660Y103189D01*
X473538Y103142D01*
X473456Y103092D01*
X473370Y103051D01*
X473265Y102976D01*
X473153Y102908D01*
X473082Y102845D01*
X473004Y102789D01*
X472913Y102696D01*
X472816Y102610D01*
X472757Y102535D01*
X472690Y102467D01*
X472617Y102359D01*
X472536Y102257D01*
X472491Y102173D01*
X472438Y102094D01*
X472385Y101975D01*
X472324Y101860D01*
X472294Y101769D01*
X472256Y101682D01*
X472225Y101555D01*
X472185Y101432D01*
X472172Y101337D01*
X472149Y101244D01*
X472141Y101115D01*
X472123Y100986D01*
X472127Y100890D01*
X472121Y100795D01*
X472136Y100666D01*
X472142Y100536D01*
X472162Y100443D01*
X472173Y100348D01*
X472211Y100223D01*
X472239Y100096D01*
X472276Y100008D01*
X472304Y99917D01*
X472363Y99801D01*
X472413Y99681D01*
X472465Y99601D01*
X472508Y99515D01*
X472587Y99412D01*
X472657Y99303D01*
X472743Y99205D01*
X472780Y99157D01*
X472813Y99126D01*
X472864Y99068D01*
X474445Y97488D01*
X474445Y96239D01*
X465300Y96239D01*
X465266Y96236D01*
X465231Y96238D01*
X465042Y96216D01*
X464852Y96199D01*
X464818Y96190D01*
X464784Y96186D01*
X464601Y96131D01*
X464417Y96081D01*
X464386Y96066D01*
X464353Y96056D01*
X464182Y95969D01*
X464011Y95888D01*
X463983Y95867D01*
X463952Y95852D01*
X463800Y95736D01*
X463645Y95625D01*
X463621Y95601D01*
X463593Y95580D01*
X463464Y95440D01*
X463331Y95303D01*
X463311Y95274D01*
X463288Y95249D01*
X463185Y95088D01*
X463079Y94930D01*
X463065Y94898D01*
X463046Y94869D01*
X462974Y94692D01*
X462896Y94518D01*
X462888Y94484D01*
X462875Y94452D01*
X462835Y94266D01*
X462790Y94080D01*
X462788Y94046D01*
X462780Y94012D01*
X462761Y93700D01*
X462764Y93665D01*
X462762Y93631D01*
X462784Y93441D01*
X462801Y93251D01*
X462810Y93218D01*
X462814Y93184D01*
X462869Y93001D01*
X462920Y92817D01*
X462934Y92786D01*
X462944Y92753D01*
X463031Y92582D01*
X463113Y92410D01*
X463133Y92382D01*
X463149Y92351D01*
X463264Y92199D01*
X463375Y92044D01*
X463400Y92020D01*
X463421Y91992D01*
X463561Y91863D01*
X463698Y91730D01*
X463726Y91711D01*
X463752Y91687D01*
X463913Y91585D01*
X464071Y91478D01*
X464102Y91464D01*
X464132Y91445D01*
X464308Y91373D01*
X464483Y91296D01*
X464516Y91288D01*
X464548Y91275D01*
X464735Y91234D01*
X464920Y91189D01*
X464954Y91187D01*
X464988Y91180D01*
X465300Y91161D01*
X474445Y91161D01*
X474445Y89912D01*
X469843Y85310D01*
X469820Y85283D01*
X469794Y85261D01*
X469676Y85111D01*
X469554Y84965D01*
X469537Y84935D01*
X469515Y84907D01*
X469425Y84739D01*
X469330Y84574D01*
X469319Y84541D01*
X469302Y84511D01*
X469243Y84329D01*
X469180Y84149D01*
X469174Y84115D01*
X469163Y84082D01*
X469137Y83893D01*
X469106Y83705D01*
X469107Y83671D01*
X469102Y83636D01*
X469110Y83445D01*
X469112Y83255D01*
X469119Y83221D01*
X469120Y83186D01*
X469161Y83000D01*
X469198Y82813D01*
X469210Y82781D01*
X469218Y82747D01*
X469291Y82571D01*
X469360Y82393D01*
X469378Y82363D01*
X469391Y82331D01*
X469495Y82171D01*
X469594Y82008D01*
X469617Y81982D01*
X469636Y81953D01*
X469843Y81719D01*
X476204Y75357D01*
X476231Y75335D01*
X476254Y75309D01*
X476403Y75191D01*
X476550Y75068D01*
X476580Y75051D01*
X476607Y75029D01*
X476775Y74939D01*
X476941Y74845D01*
X476973Y74833D01*
X477004Y74817D01*
X477185Y74758D01*
X477365Y74694D01*
X477399Y74688D01*
X477432Y74678D01*
X477621Y74652D01*
X477809Y74621D01*
X477844Y74621D01*
X477878Y74616D01*
X478069Y74624D01*
X478259Y74627D01*
X478294Y74633D01*
X478328Y74635D01*
X478514Y74676D01*
X478702Y74712D01*
X478734Y74725D01*
X478768Y74732D01*
X478944Y74806D01*
X479122Y74874D01*
X479151Y74892D01*
X479183Y74906D01*
X479343Y75009D01*
X479506Y75108D01*
X479532Y75131D01*
X479561Y75150D01*
X479796Y75357D01*
X485439Y81001D01*
X495961Y81001D01*
X498773Y78188D01*
X498899Y78083D01*
X499020Y77971D01*
X499072Y77939D01*
X499118Y77900D01*
X499261Y77818D01*
X499400Y77730D01*
X499457Y77706D01*
X499509Y77676D01*
X499664Y77621D01*
X499817Y77559D01*
X499876Y77546D01*
X499934Y77525D01*
X500096Y77499D01*
X500257Y77464D01*
X500334Y77459D01*
X500378Y77452D01*
X500439Y77453D01*
X500569Y77445D01*
X503259Y77445D01*
X506620Y76053D01*
X512459Y70213D01*
X512585Y70108D01*
X512706Y69996D01*
X512758Y69963D01*
X512804Y69924D01*
X512947Y69843D01*
X513086Y69754D01*
X513142Y69731D01*
X513195Y69701D01*
X513350Y69646D01*
X513502Y69583D01*
X513562Y69571D01*
X513620Y69550D01*
X513782Y69523D01*
X513943Y69489D01*
X514020Y69484D01*
X514064Y69477D01*
X514125Y69477D01*
X514255Y69469D01*
X518080Y69469D01*
X519395Y68925D01*
X519552Y68875D01*
X519706Y68819D01*
X519767Y68808D01*
X519825Y68790D01*
X519988Y68769D01*
X520150Y68741D01*
X520211Y68741D01*
X520271Y68733D01*
X520436Y68741D01*
G37*
%LPC*%
G36*
X37300Y82439D02*
X37300Y82439D01*
X26758Y82439D01*
X26758Y88236D01*
X26946Y88935D01*
X26954Y88980D01*
X26968Y89024D01*
X26992Y89202D01*
X27023Y89378D01*
X27023Y89424D01*
X27029Y89470D01*
X27022Y89649D01*
X27021Y89829D01*
X27013Y89874D01*
X27011Y89920D01*
X26972Y90095D01*
X26940Y90271D01*
X26923Y90315D01*
X26913Y90360D01*
X26844Y90525D01*
X26781Y90693D01*
X26757Y90733D01*
X26740Y90775D01*
X26642Y90926D01*
X26551Y91080D01*
X26520Y91115D01*
X26495Y91153D01*
X26288Y91388D01*
X24830Y92845D01*
X23902Y95086D01*
X23902Y113514D01*
X24855Y115813D01*
X24969Y115950D01*
X24986Y115980D01*
X25008Y116007D01*
X25098Y116175D01*
X25193Y116341D01*
X25204Y116373D01*
X25221Y116404D01*
X25280Y116585D01*
X25343Y116765D01*
X25349Y116799D01*
X25360Y116832D01*
X25386Y117021D01*
X25417Y117209D01*
X25416Y117244D01*
X25421Y117278D01*
X25413Y117469D01*
X25411Y117659D01*
X25404Y117693D01*
X25403Y117728D01*
X25362Y117914D01*
X25325Y118101D01*
X25313Y118134D01*
X25305Y118168D01*
X25255Y118289D01*
X25224Y118379D01*
X24102Y121086D01*
X24102Y139514D01*
X25030Y141755D01*
X26745Y143470D01*
X28986Y144398D01*
X47414Y144398D01*
X49655Y143470D01*
X51370Y141755D01*
X52298Y139514D01*
X52298Y121086D01*
X51345Y118787D01*
X51231Y118650D01*
X51212Y118618D01*
X51189Y118588D01*
X51100Y118422D01*
X51007Y118259D01*
X50995Y118224D01*
X50977Y118191D01*
X50919Y118012D01*
X50857Y117835D01*
X50850Y117798D01*
X50839Y117762D01*
X50814Y117577D01*
X50783Y117391D01*
X50784Y117353D01*
X50779Y117316D01*
X50787Y117129D01*
X50789Y116940D01*
X50796Y116904D01*
X50798Y116866D01*
X50839Y116684D01*
X50875Y116498D01*
X50888Y116463D01*
X50896Y116427D01*
X50946Y116308D01*
X50976Y116221D01*
X52098Y113514D01*
X52098Y95086D01*
X51170Y92845D01*
X49455Y91130D01*
X49362Y91092D01*
X49279Y91049D01*
X49191Y91014D01*
X49080Y90945D01*
X48963Y90884D01*
X48889Y90826D01*
X48809Y90776D01*
X48711Y90689D01*
X48607Y90608D01*
X48544Y90538D01*
X48474Y90475D01*
X48393Y90371D01*
X48305Y90274D01*
X48256Y90194D01*
X48198Y90120D01*
X48137Y90003D01*
X48067Y89891D01*
X48032Y89804D01*
X47989Y89721D01*
X47950Y89596D01*
X47901Y89473D01*
X47882Y89381D01*
X47854Y89291D01*
X47837Y89161D01*
X47811Y89032D01*
X47808Y88938D01*
X47796Y88845D01*
X47803Y88713D01*
X47800Y88582D01*
X47814Y88489D01*
X47819Y88395D01*
X47842Y88282D01*
X47842Y82439D01*
X37300Y82439D01*
X37300Y82439D01*
G37*
%LPD*%
G36*
X454111Y137895D02*
X454111Y137895D01*
X454302Y137905D01*
X454336Y137913D01*
X454370Y137916D01*
X454555Y137964D01*
X454740Y138007D01*
X454772Y138021D01*
X454806Y138030D01*
X454979Y138110D01*
X455154Y138185D01*
X455183Y138204D01*
X455214Y138219D01*
X455370Y138328D01*
X455530Y138433D01*
X455555Y138457D01*
X455583Y138477D01*
X455717Y138612D01*
X455856Y138744D01*
X455876Y138772D01*
X455900Y138797D01*
X456009Y138953D01*
X456121Y139107D01*
X456137Y139138D01*
X456156Y139167D01*
X456294Y139448D01*
X457331Y141953D01*
X459216Y143838D01*
X459321Y143964D01*
X459433Y144085D01*
X459465Y144136D01*
X459504Y144183D01*
X459586Y144326D01*
X459674Y144464D01*
X459698Y144521D01*
X459728Y144574D01*
X459783Y144729D01*
X459845Y144881D01*
X459858Y144941D01*
X459879Y144998D01*
X459905Y145161D01*
X459940Y145321D01*
X459945Y145398D01*
X459952Y145442D01*
X459951Y145504D01*
X459959Y145633D01*
X459959Y147961D01*
X468000Y147961D01*
X468034Y147964D01*
X468069Y147962D01*
X468258Y147984D01*
X468448Y148000D01*
X468482Y148010D01*
X468516Y148014D01*
X468699Y148069D01*
X468883Y148119D01*
X468914Y148134D01*
X468947Y148144D01*
X469118Y148231D01*
X469289Y148312D01*
X469317Y148333D01*
X469348Y148348D01*
X469500Y148463D01*
X469655Y148575D01*
X469679Y148599D01*
X469707Y148620D01*
X469707Y148621D01*
X469836Y148760D01*
X469969Y148897D01*
X469970Y148898D01*
X469989Y148926D01*
X470013Y148952D01*
X470115Y149113D01*
X470222Y149271D01*
X470236Y149302D01*
X470254Y149332D01*
X470327Y149508D01*
X470404Y149683D01*
X470412Y149716D01*
X470425Y149748D01*
X470466Y149935D01*
X470511Y150120D01*
X470513Y150154D01*
X470520Y150188D01*
X470539Y150500D01*
X470539Y158041D01*
X473835Y158041D01*
X474481Y157868D01*
X475060Y157533D01*
X475462Y157132D01*
X475480Y157116D01*
X475496Y157098D01*
X475653Y156972D01*
X475807Y156843D01*
X475828Y156831D01*
X475846Y156816D01*
X476024Y156719D01*
X476198Y156619D01*
X476220Y156611D01*
X476241Y156600D01*
X476433Y156536D01*
X476622Y156468D01*
X476646Y156465D01*
X476668Y156457D01*
X476868Y156428D01*
X477066Y156395D01*
X477090Y156395D01*
X477114Y156392D01*
X477315Y156398D01*
X477517Y156401D01*
X477540Y156406D01*
X477564Y156406D01*
X477761Y156448D01*
X477959Y156487D01*
X477981Y156495D01*
X478004Y156500D01*
X478191Y156576D01*
X478379Y156649D01*
X478399Y156661D01*
X478421Y156670D01*
X478591Y156778D01*
X478763Y156883D01*
X478781Y156899D01*
X478801Y156911D01*
X478950Y157047D01*
X479101Y157181D01*
X479116Y157200D01*
X479133Y157216D01*
X479255Y157376D01*
X479380Y157534D01*
X479391Y157555D01*
X479406Y157574D01*
X479471Y157701D01*
X479967Y158560D01*
X480440Y159033D01*
X481019Y159368D01*
X481182Y159411D01*
X481294Y159452D01*
X481408Y159483D01*
X481505Y159529D01*
X481605Y159566D01*
X481708Y159626D01*
X481815Y159677D01*
X481902Y159739D01*
X481994Y159793D01*
X482084Y159870D01*
X482181Y159939D01*
X482255Y160015D01*
X482337Y160085D01*
X482412Y160176D01*
X482495Y160261D01*
X482555Y160350D01*
X482623Y160433D01*
X482681Y160536D01*
X482747Y160634D01*
X482790Y160732D01*
X482843Y160826D01*
X482881Y160938D01*
X482929Y161046D01*
X482955Y161150D01*
X482990Y161251D01*
X483008Y161369D01*
X483036Y161484D01*
X483042Y161590D01*
X483059Y161696D01*
X483056Y161815D01*
X483064Y161933D01*
X483051Y162040D01*
X483049Y162146D01*
X483025Y162262D01*
X483012Y162380D01*
X482980Y162483D01*
X482959Y162588D01*
X482916Y162697D01*
X482881Y162811D01*
X482833Y162907D01*
X482793Y163006D01*
X482731Y163107D01*
X482677Y163213D01*
X482612Y163298D01*
X482556Y163389D01*
X482476Y163477D01*
X482405Y163571D01*
X482326Y163644D01*
X482255Y163723D01*
X482161Y163796D01*
X482074Y163877D01*
X481983Y163934D01*
X481899Y164000D01*
X481794Y164055D01*
X481694Y164118D01*
X481595Y164159D01*
X481500Y164209D01*
X481387Y164244D01*
X481277Y164289D01*
X481173Y164312D01*
X481071Y164344D01*
X480953Y164359D01*
X480837Y164384D01*
X480686Y164393D01*
X480624Y164401D01*
X480587Y164399D01*
X480525Y164403D01*
X478287Y164403D01*
X476972Y164948D01*
X476815Y164997D01*
X476660Y165054D01*
X476600Y165065D01*
X476542Y165083D01*
X476379Y165104D01*
X476217Y165132D01*
X476156Y165132D01*
X476095Y165140D01*
X475931Y165131D01*
X475767Y165131D01*
X475707Y165120D01*
X475646Y165117D01*
X475486Y165079D01*
X475324Y165050D01*
X475251Y165025D01*
X475207Y165015D01*
X475152Y164991D01*
X475028Y164948D01*
X473713Y164403D01*
X461287Y164403D01*
X459046Y165331D01*
X457331Y167046D01*
X456403Y169287D01*
X456403Y173612D01*
X456393Y173729D01*
X456393Y173845D01*
X456373Y173952D01*
X456363Y174061D01*
X456333Y174173D01*
X456312Y174288D01*
X456261Y174434D01*
X456245Y174495D01*
X456229Y174528D01*
X456210Y174584D01*
X455839Y175479D01*
X455839Y177141D01*
X455832Y177223D01*
X455834Y177305D01*
X455812Y177446D01*
X455799Y177589D01*
X455778Y177669D01*
X455765Y177750D01*
X455719Y177886D01*
X455681Y178024D01*
X455646Y178098D01*
X455619Y178176D01*
X455549Y178301D01*
X455487Y178430D01*
X455440Y178497D01*
X455399Y178569D01*
X455309Y178680D01*
X455225Y178796D01*
X455166Y178854D01*
X455114Y178918D01*
X455005Y179010D01*
X454903Y179110D01*
X454834Y179157D01*
X454772Y179210D01*
X454648Y179282D01*
X454530Y179362D01*
X454454Y179396D01*
X454383Y179437D01*
X454249Y179487D01*
X454118Y179545D01*
X454038Y179564D01*
X453960Y179593D01*
X453819Y179617D01*
X453680Y179651D01*
X453598Y179656D01*
X453517Y179671D01*
X453374Y179670D01*
X453231Y179679D01*
X453149Y179670D01*
X453067Y179669D01*
X452926Y179644D01*
X452784Y179627D01*
X452705Y179603D01*
X452624Y179588D01*
X452391Y179508D01*
X452353Y179497D01*
X452343Y179492D01*
X452328Y179487D01*
X449713Y178403D01*
X433668Y178403D01*
X433633Y178400D01*
X433599Y178402D01*
X433410Y178380D01*
X433219Y178363D01*
X433186Y178354D01*
X433152Y178350D01*
X432969Y178295D01*
X432785Y178245D01*
X432754Y178230D01*
X432721Y178220D01*
X432550Y178133D01*
X432378Y178051D01*
X432350Y178031D01*
X432319Y178016D01*
X432167Y177900D01*
X432012Y177789D01*
X431988Y177764D01*
X431961Y177744D01*
X431832Y177604D01*
X431698Y177467D01*
X431679Y177438D01*
X431655Y177412D01*
X431553Y177251D01*
X431446Y177094D01*
X431432Y177062D01*
X431414Y177033D01*
X431341Y176856D01*
X431264Y176682D01*
X431256Y176648D01*
X431243Y176616D01*
X431203Y176429D01*
X431157Y176244D01*
X431155Y176210D01*
X431148Y176176D01*
X431129Y175864D01*
X431129Y173786D01*
X429338Y169463D01*
X429303Y169352D01*
X429259Y169244D01*
X429236Y169137D01*
X429203Y169034D01*
X429189Y168918D01*
X429164Y168803D01*
X429154Y168649D01*
X429147Y168587D01*
X429148Y168551D01*
X429145Y168491D01*
X429145Y158645D01*
X429159Y158482D01*
X429166Y158317D01*
X429179Y158258D01*
X429185Y158197D01*
X429228Y158038D01*
X429264Y157878D01*
X429287Y157821D01*
X429303Y157763D01*
X429374Y157615D01*
X429437Y157462D01*
X429470Y157411D01*
X429497Y157356D01*
X429592Y157223D01*
X429682Y157084D01*
X429733Y157026D01*
X429759Y156990D01*
X429802Y156947D01*
X429888Y156850D01*
X430435Y156304D01*
X432129Y152214D01*
X432129Y147786D01*
X430434Y143696D01*
X429670Y142932D01*
X429587Y142832D01*
X429496Y142739D01*
X429442Y142659D01*
X429381Y142586D01*
X429317Y142473D01*
X429244Y142366D01*
X429205Y142278D01*
X429158Y142195D01*
X429114Y142073D01*
X429061Y141954D01*
X429039Y141861D01*
X429007Y141771D01*
X428986Y141643D01*
X428955Y141516D01*
X428949Y141421D01*
X428933Y141327D01*
X428935Y141197D01*
X428927Y141067D01*
X428938Y140972D01*
X428939Y140877D01*
X428964Y140749D01*
X428979Y140620D01*
X429007Y140528D01*
X429025Y140434D01*
X429072Y140313D01*
X429109Y140189D01*
X429153Y140103D01*
X429187Y140014D01*
X429255Y139903D01*
X429314Y139787D01*
X429372Y139711D01*
X429421Y139630D01*
X429507Y139532D01*
X429586Y139429D01*
X429656Y139364D01*
X429719Y139292D01*
X429821Y139212D01*
X429917Y139123D01*
X429998Y139072D01*
X430072Y139013D01*
X430187Y138952D01*
X430297Y138882D01*
X430385Y138845D01*
X430469Y138800D01*
X430593Y138760D01*
X430713Y138711D01*
X430807Y138691D01*
X430898Y138661D01*
X431026Y138643D01*
X431154Y138616D01*
X431284Y138608D01*
X431344Y138600D01*
X431388Y138601D01*
X431465Y138597D01*
X451713Y138597D01*
X452976Y138074D01*
X453009Y138063D01*
X453040Y138048D01*
X453224Y137996D01*
X453405Y137939D01*
X453440Y137934D01*
X453473Y137925D01*
X453663Y137906D01*
X453852Y137882D01*
X453887Y137884D01*
X453921Y137880D01*
X454111Y137895D01*
G37*
%LPC*%
G36*
X218042Y386883D02*
X218042Y386883D01*
X213000Y388971D01*
X209141Y392830D01*
X207053Y397872D01*
X207053Y403328D01*
X209141Y408370D01*
X213000Y412229D01*
X218042Y414317D01*
X238738Y414317D01*
X243780Y412229D01*
X247639Y408370D01*
X249727Y403328D01*
X249727Y397872D01*
X247639Y392830D01*
X243780Y388971D01*
X238738Y386883D01*
X218042Y386883D01*
G37*
%LPD*%
%LPC*%
G36*
X106524Y387695D02*
X106524Y387695D01*
X101856Y389629D01*
X98283Y393202D01*
X96349Y397870D01*
X96349Y416130D01*
X98283Y420798D01*
X101856Y424371D01*
X106524Y426305D01*
X111576Y426305D01*
X116244Y424371D01*
X119817Y420798D01*
X121751Y416130D01*
X121751Y397870D01*
X119817Y393202D01*
X116244Y389629D01*
X111576Y387695D01*
X106524Y387695D01*
G37*
%LPD*%
%LPC*%
G36*
X68424Y387695D02*
X68424Y387695D01*
X63756Y389629D01*
X60183Y393202D01*
X58249Y397870D01*
X58249Y416130D01*
X60183Y420798D01*
X63756Y424371D01*
X68424Y426305D01*
X73476Y426305D01*
X78144Y424371D01*
X81717Y420798D01*
X83651Y416130D01*
X83651Y397870D01*
X81717Y393202D01*
X78144Y389629D01*
X73476Y387695D01*
X68424Y387695D01*
G37*
%LPD*%
G36*
X499382Y142516D02*
X499382Y142516D01*
X499430Y142517D01*
X499605Y142551D01*
X499780Y142578D01*
X499825Y142593D01*
X499872Y142602D01*
X500038Y142666D01*
X500206Y142724D01*
X500247Y142747D01*
X500292Y142765D01*
X500444Y142857D01*
X500599Y142944D01*
X500636Y142974D01*
X500677Y142999D01*
X500810Y143116D01*
X500947Y143229D01*
X500978Y143265D01*
X501014Y143297D01*
X501124Y143436D01*
X501240Y143571D01*
X501264Y143612D01*
X501293Y143650D01*
X501377Y143806D01*
X501467Y143960D01*
X501483Y144005D01*
X501506Y144047D01*
X501561Y144216D01*
X501622Y144383D01*
X501630Y144430D01*
X501645Y144475D01*
X501669Y144651D01*
X501700Y144826D01*
X501700Y144874D01*
X501707Y144921D01*
X501699Y145099D01*
X501699Y145276D01*
X501690Y145323D01*
X501688Y145371D01*
X501650Y145544D01*
X501618Y145719D01*
X501599Y145775D01*
X501591Y145811D01*
X501566Y145869D01*
X501516Y146015D01*
X501403Y146287D01*
X501403Y159713D01*
X502487Y162328D01*
X502511Y162407D01*
X502545Y162482D01*
X502579Y162621D01*
X502621Y162758D01*
X502632Y162840D01*
X502651Y162920D01*
X502660Y163062D01*
X502678Y163205D01*
X502674Y163287D01*
X502679Y163369D01*
X502662Y163511D01*
X502655Y163654D01*
X502637Y163734D01*
X502627Y163816D01*
X502585Y163954D01*
X502553Y164093D01*
X502521Y164168D01*
X502497Y164247D01*
X502432Y164375D01*
X502375Y164506D01*
X502330Y164575D01*
X502292Y164649D01*
X502206Y164763D01*
X502127Y164882D01*
X502070Y164942D01*
X502020Y165007D01*
X501915Y165104D01*
X501816Y165208D01*
X501750Y165257D01*
X501689Y165313D01*
X501568Y165389D01*
X501453Y165474D01*
X501379Y165510D01*
X501309Y165554D01*
X501177Y165609D01*
X501048Y165672D01*
X500969Y165694D01*
X500893Y165725D01*
X500753Y165755D01*
X500615Y165795D01*
X500533Y165803D01*
X500453Y165820D01*
X500207Y165835D01*
X500167Y165839D01*
X500156Y165838D01*
X500141Y165839D01*
X494513Y165839D01*
X494349Y165825D01*
X494185Y165818D01*
X494125Y165805D01*
X494065Y165799D01*
X493906Y165756D01*
X493745Y165720D01*
X493689Y165697D01*
X493630Y165681D01*
X493482Y165610D01*
X493330Y165547D01*
X493278Y165513D01*
X493224Y165487D01*
X493090Y165392D01*
X493074Y165381D01*
X490767Y164426D01*
X490610Y164343D01*
X490450Y164267D01*
X490411Y164240D01*
X490368Y164217D01*
X490228Y164109D01*
X490084Y164005D01*
X490050Y163971D01*
X490012Y163942D01*
X489894Y163810D01*
X489770Y163683D01*
X489743Y163643D01*
X489711Y163607D01*
X489617Y163457D01*
X489517Y163310D01*
X489498Y163266D01*
X489473Y163225D01*
X489407Y163060D01*
X489335Y162898D01*
X489324Y162851D01*
X489306Y162807D01*
X489271Y162633D01*
X489229Y162460D01*
X489226Y162413D01*
X489216Y162366D01*
X489212Y162188D01*
X489201Y162011D01*
X489206Y161963D01*
X489205Y161916D01*
X489232Y161740D01*
X489253Y161564D01*
X489267Y161518D01*
X489274Y161471D01*
X489332Y161302D01*
X489383Y161133D01*
X489405Y161090D01*
X489420Y161045D01*
X489507Y160890D01*
X489588Y160731D01*
X489616Y160693D01*
X489640Y160652D01*
X489752Y160514D01*
X489860Y160373D01*
X489895Y160340D01*
X489925Y160303D01*
X490060Y160188D01*
X490191Y160067D01*
X490231Y160042D01*
X490267Y160011D01*
X490421Y159921D01*
X490570Y159826D01*
X490615Y159807D01*
X490656Y159783D01*
X490823Y159722D01*
X490987Y159655D01*
X491034Y159645D01*
X491079Y159628D01*
X491253Y159597D01*
X491427Y159560D01*
X491486Y159556D01*
X491522Y159550D01*
X491585Y159550D01*
X491739Y159541D01*
X492335Y159541D01*
X492981Y159368D01*
X493560Y159033D01*
X494033Y158560D01*
X494368Y157981D01*
X494541Y157335D01*
X494541Y154039D01*
X487000Y154039D01*
X486966Y154036D01*
X486931Y154038D01*
X486742Y154016D01*
X486552Y153999D01*
X486518Y153990D01*
X486484Y153986D01*
X486301Y153931D01*
X486117Y153881D01*
X486086Y153866D01*
X486053Y153856D01*
X485882Y153769D01*
X485711Y153688D01*
X485683Y153667D01*
X485652Y153652D01*
X485500Y153536D01*
X485345Y153425D01*
X485321Y153401D01*
X485293Y153380D01*
X485164Y153240D01*
X485031Y153103D01*
X485011Y153074D01*
X484988Y153049D01*
X484885Y152888D01*
X484779Y152730D01*
X484765Y152698D01*
X484746Y152669D01*
X484674Y152492D01*
X484596Y152318D01*
X484588Y152284D01*
X484575Y152252D01*
X484535Y152066D01*
X484490Y151880D01*
X484488Y151846D01*
X484480Y151812D01*
X484461Y151500D01*
X484464Y151465D01*
X484462Y151431D01*
X484484Y151241D01*
X484501Y151051D01*
X484510Y151018D01*
X484514Y150984D01*
X484569Y150801D01*
X484620Y150617D01*
X484634Y150586D01*
X484644Y150553D01*
X484731Y150382D01*
X484813Y150210D01*
X484833Y150182D01*
X484849Y150151D01*
X484964Y149999D01*
X485075Y149844D01*
X485100Y149820D01*
X485121Y149792D01*
X485261Y149663D01*
X485398Y149530D01*
X485426Y149511D01*
X485452Y149487D01*
X485613Y149385D01*
X485771Y149278D01*
X485802Y149264D01*
X485832Y149245D01*
X486008Y149173D01*
X486183Y149096D01*
X486216Y149088D01*
X486248Y149075D01*
X486435Y149034D01*
X486620Y148989D01*
X486654Y148987D01*
X486688Y148980D01*
X487000Y148961D01*
X494541Y148961D01*
X494541Y147133D01*
X494555Y146969D01*
X494562Y146805D01*
X494575Y146745D01*
X494581Y146685D01*
X494624Y146526D01*
X494660Y146365D01*
X494683Y146309D01*
X494699Y146250D01*
X494770Y146102D01*
X494833Y145950D01*
X494866Y145899D01*
X494893Y145844D01*
X494988Y145710D01*
X495078Y145572D01*
X495129Y145514D01*
X495155Y145478D01*
X495198Y145435D01*
X495284Y145338D01*
X497375Y143247D01*
X497511Y143133D01*
X497643Y143014D01*
X497683Y142989D01*
X497720Y142958D01*
X497874Y142870D01*
X498025Y142776D01*
X498070Y142759D01*
X498111Y142735D01*
X498278Y142676D01*
X498444Y142610D01*
X498490Y142600D01*
X498535Y142584D01*
X498711Y142555D01*
X498885Y142520D01*
X498932Y142519D01*
X498980Y142511D01*
X499158Y142513D01*
X499335Y142509D01*
X499382Y142516D01*
G37*
%LPC*%
G36*
X213149Y326939D02*
X213149Y326939D01*
X213149Y334561D01*
X219030Y334561D01*
X220609Y334311D01*
X222130Y333816D01*
X223555Y333090D01*
X224849Y332150D01*
X225980Y331019D01*
X226920Y329725D01*
X227646Y328300D01*
X228089Y326939D01*
X213149Y326939D01*
G37*
%LPD*%
%LPC*%
G36*
X193131Y326939D02*
X193131Y326939D01*
X193574Y328300D01*
X194300Y329725D01*
X195240Y331019D01*
X196371Y332150D01*
X197665Y333090D01*
X199090Y333816D01*
X200611Y334311D01*
X202190Y334561D01*
X208071Y334561D01*
X208071Y326939D01*
X193131Y326939D01*
G37*
%LPD*%
%LPC*%
G36*
X213149Y321861D02*
X213149Y321861D01*
X228089Y321861D01*
X227646Y320500D01*
X226920Y319075D01*
X225980Y317781D01*
X224849Y316650D01*
X223555Y315710D01*
X222130Y314984D01*
X220609Y314489D01*
X219030Y314239D01*
X213149Y314239D01*
X213149Y321861D01*
G37*
%LPD*%
%LPC*%
G36*
X202190Y314239D02*
X202190Y314239D01*
X200611Y314489D01*
X199090Y314984D01*
X197665Y315710D01*
X196371Y316650D01*
X195240Y317781D01*
X194300Y319075D01*
X193574Y320500D01*
X193131Y321861D01*
X208071Y321861D01*
X208071Y314239D01*
X202190Y314239D01*
G37*
%LPD*%
%LPC*%
G36*
X164939Y320539D02*
X164939Y320539D01*
X164939Y328923D01*
X166924Y328923D01*
X173323Y322524D01*
X173323Y320539D01*
X164939Y320539D01*
G37*
%LPD*%
%LPC*%
G36*
X161639Y379339D02*
X161639Y379339D01*
X161639Y387723D01*
X163624Y387723D01*
X170023Y381324D01*
X170023Y379339D01*
X161639Y379339D01*
G37*
%LPD*%
%LPC*%
G36*
X148177Y379339D02*
X148177Y379339D01*
X148177Y381324D01*
X154576Y387723D01*
X156561Y387723D01*
X156561Y379339D01*
X148177Y379339D01*
G37*
%LPD*%
%LPC*%
G36*
X161639Y365877D02*
X161639Y365877D01*
X161639Y374261D01*
X170023Y374261D01*
X170023Y372276D01*
X163624Y365877D01*
X161639Y365877D01*
G37*
%LPD*%
%LPC*%
G36*
X379477Y72539D02*
X379477Y72539D01*
X379477Y74524D01*
X385876Y80923D01*
X387861Y80923D01*
X387861Y72539D01*
X379477Y72539D01*
G37*
%LPD*%
%LPC*%
G36*
X151477Y320539D02*
X151477Y320539D01*
X151477Y322524D01*
X157876Y328923D01*
X159861Y328923D01*
X159861Y320539D01*
X151477Y320539D01*
G37*
%LPD*%
%LPC*%
G36*
X164939Y307077D02*
X164939Y307077D01*
X164939Y315461D01*
X173323Y315461D01*
X173323Y313476D01*
X166924Y307077D01*
X164939Y307077D01*
G37*
%LPD*%
%LPC*%
G36*
X154576Y365877D02*
X154576Y365877D01*
X148177Y372276D01*
X148177Y374261D01*
X156561Y374261D01*
X156561Y365877D01*
X154576Y365877D01*
G37*
%LPD*%
%LPC*%
G36*
X157876Y307077D02*
X157876Y307077D01*
X151477Y313476D01*
X151477Y315461D01*
X159861Y315461D01*
X159861Y307077D01*
X157876Y307077D01*
G37*
%LPD*%
%LPC*%
G36*
X153249Y293749D02*
X153249Y293749D01*
X153249Y301041D01*
X157835Y301041D01*
X158481Y300868D01*
X159060Y300533D01*
X159533Y300060D01*
X159868Y299481D01*
X160041Y298835D01*
X160041Y293749D01*
X153249Y293749D01*
G37*
%LPD*%
%LPC*%
G36*
X153249Y285251D02*
X153249Y285251D01*
X160041Y285251D01*
X160041Y280165D01*
X159868Y279519D01*
X159533Y278940D01*
X159060Y278467D01*
X158481Y278132D01*
X157835Y277959D01*
X153249Y277959D01*
X153249Y285251D01*
G37*
%LPD*%
%LPC*%
G36*
X137959Y293749D02*
X137959Y293749D01*
X137959Y298835D01*
X138132Y299481D01*
X138467Y300060D01*
X138940Y300533D01*
X139519Y300868D01*
X140165Y301041D01*
X144751Y301041D01*
X144751Y293749D01*
X137959Y293749D01*
G37*
%LPD*%
%LPC*%
G36*
X140165Y277959D02*
X140165Y277959D01*
X139519Y278132D01*
X138940Y278467D01*
X138467Y278940D01*
X138132Y279519D01*
X137959Y280165D01*
X137959Y285251D01*
X144751Y285251D01*
X144751Y277959D01*
X140165Y277959D01*
G37*
%LPD*%
%LPC*%
G36*
X252523Y305674D02*
X252523Y305674D01*
X252523Y306817D01*
X257732Y312025D01*
X258875Y312025D01*
X258875Y305674D01*
X252523Y305674D01*
G37*
%LPD*%
%LPC*%
G36*
X257732Y294244D02*
X257732Y294244D01*
X252523Y299452D01*
X252523Y300595D01*
X258875Y300595D01*
X258875Y294244D01*
X257732Y294244D01*
G37*
%LPD*%
%LPC*%
G36*
X25732Y166044D02*
X25732Y166044D01*
X20523Y171252D01*
X20523Y172395D01*
X26875Y172395D01*
X26875Y166044D01*
X25732Y166044D01*
G37*
%LPD*%
%LPC*%
G36*
X488539Y216039D02*
X488539Y216039D01*
X488539Y221541D01*
X491335Y221541D01*
X491981Y221368D01*
X492560Y221033D01*
X493033Y220560D01*
X493368Y219981D01*
X493541Y219335D01*
X493541Y216039D01*
X488539Y216039D01*
G37*
%LPD*%
%LPC*%
G36*
X106539Y188039D02*
X106539Y188039D01*
X106539Y193541D01*
X109335Y193541D01*
X109981Y193368D01*
X110560Y193033D01*
X111033Y192560D01*
X111368Y191981D01*
X111541Y191335D01*
X111541Y188039D01*
X106539Y188039D01*
G37*
%LPD*%
%LPC*%
G36*
X20959Y198539D02*
X20959Y198539D01*
X20959Y201835D01*
X21132Y202481D01*
X21467Y203060D01*
X21940Y203533D01*
X22519Y203868D01*
X23165Y204041D01*
X25961Y204041D01*
X25961Y198539D01*
X20959Y198539D01*
G37*
%LPD*%
%LPC*%
G36*
X460423Y290086D02*
X460423Y290086D01*
X460423Y292882D01*
X460596Y293528D01*
X460930Y294107D01*
X461404Y294580D01*
X461983Y294915D01*
X462629Y295088D01*
X465924Y295088D01*
X465924Y290086D01*
X460423Y290086D01*
G37*
%LPD*%
%LPC*%
G36*
X19894Y220396D02*
X19894Y220396D01*
X19894Y223191D01*
X20068Y223837D01*
X20402Y224416D01*
X20875Y224890D01*
X21454Y225224D01*
X22101Y225397D01*
X25396Y225397D01*
X25396Y220396D01*
X19894Y220396D01*
G37*
%LPD*%
%LPC*%
G36*
X459959Y153039D02*
X459959Y153039D01*
X459959Y155835D01*
X460132Y156481D01*
X460467Y157060D01*
X460940Y157533D01*
X461519Y157868D01*
X462165Y158041D01*
X465461Y158041D01*
X465461Y153039D01*
X459959Y153039D01*
G37*
%LPD*%
%LPC*%
G36*
X458623Y317086D02*
X458623Y317086D01*
X458623Y319882D01*
X458796Y320528D01*
X459130Y321107D01*
X459604Y321580D01*
X460183Y321915D01*
X460829Y322088D01*
X464124Y322088D01*
X464124Y317086D01*
X458623Y317086D01*
G37*
%LPD*%
%LPC*%
G36*
X22101Y210316D02*
X22101Y210316D01*
X21454Y210489D01*
X20875Y210823D01*
X20402Y211296D01*
X20068Y211876D01*
X19894Y212522D01*
X19894Y215317D01*
X25396Y215317D01*
X25396Y210316D01*
X22101Y210316D01*
G37*
%LPD*%
%LPC*%
G36*
X460829Y307006D02*
X460829Y307006D01*
X460183Y307179D01*
X459604Y307514D01*
X459130Y307987D01*
X458796Y308566D01*
X458623Y309212D01*
X458623Y312008D01*
X464124Y312008D01*
X464124Y307006D01*
X460829Y307006D01*
G37*
%LPD*%
%LPC*%
G36*
X113665Y199409D02*
X113665Y199409D01*
X113019Y199582D01*
X112440Y199917D01*
X111967Y200390D01*
X111632Y200969D01*
X111459Y201615D01*
X111459Y202411D01*
X118961Y202411D01*
X118961Y199409D01*
X113665Y199409D01*
G37*
%LPD*%
D10*
X668173Y454655D02*
X3400Y456200D01*
X5600Y1600D01*
X665600Y1600D02*
X668173Y454655D01*
X666573Y955D02*
X5600Y1600D01*
D11*
X466664Y314547D03*
X483664Y314547D03*
X27935Y217856D03*
X44935Y217856D03*
D12*
X284759Y303261D03*
D13*
X261414Y303135D03*
D14*
X514210Y412049D03*
X473210Y412049D03*
D15*
X485264Y335847D03*
X466264Y335847D03*
X475764Y355847D03*
D16*
X528867Y57873D03*
X511867Y57873D03*
X458404Y32019D03*
X441404Y32019D03*
D11*
X468464Y287547D03*
X468464Y270547D03*
X485664Y288247D03*
X485664Y271247D03*
D17*
X588544Y95038D03*
X637823Y282856D03*
X636407Y406307D03*
X639655Y338724D03*
X588854Y39530D03*
X588261Y149381D03*
X639075Y67512D03*
X637072Y122226D03*
D18*
X569800Y401527D03*
D19*
X471900Y381127D03*
D18*
X433200Y260627D03*
D20*
X408400Y380127D03*
D18*
X543300Y260627D03*
D19*
X513300Y380627D03*
D20*
X408400Y413127D03*
D21*
X553200Y71800D03*
X553200Y112800D03*
D22*
X38000Y104300D03*
X38200Y130300D03*
X37400Y28200D03*
X37300Y79900D03*
X37300Y53800D03*
D23*
X202990Y324400D02*
X218230Y324400D01*
X220770Y400600D02*
X236010Y400600D01*
D24*
X331261Y291041D03*
D25*
X331135Y314386D03*
D26*
X159100Y427600D03*
X159100Y376800D03*
D27*
X111600Y318000D03*
X162400Y318000D03*
D21*
X415000Y36500D03*
X415000Y77500D03*
D14*
X394500Y229000D03*
X435500Y229000D03*
D28*
X121500Y230350D03*
X66500Y230350D03*
X121500Y243050D03*
X121500Y217650D03*
X121500Y204950D03*
X66500Y243050D03*
X66500Y217650D03*
X66500Y204950D03*
D16*
X150000Y204500D03*
X150000Y221500D03*
D21*
X149000Y289500D03*
X149000Y248500D03*
D29*
X94000Y285000D03*
X50000Y285000D03*
D11*
X80000Y168500D03*
X80000Y185500D03*
D16*
X45500Y196000D03*
X28500Y196000D03*
D12*
X52759Y175061D03*
D13*
X29414Y174935D03*
D30*
X184396Y209950D02*
X197604Y209950D01*
X197604Y248050D02*
X184396Y248050D01*
D16*
X104000Y185500D03*
X104000Y168500D03*
D30*
X70950Y400396D02*
X70950Y413604D01*
X109050Y413604D02*
X109050Y400396D01*
D31*
X508000Y115500D03*
X508000Y134500D03*
X528000Y125000D03*
D16*
X487000Y151500D03*
X487000Y134500D03*
D11*
X468000Y150500D03*
X468000Y133500D03*
D16*
X485500Y115000D03*
X468500Y115000D03*
D14*
X400500Y124000D03*
X441500Y124000D03*
D16*
X529500Y153000D03*
X512500Y153000D03*
D17*
X637000Y177000D03*
D21*
X604000Y275500D03*
X604000Y316500D03*
D31*
X508000Y177500D03*
X508000Y196500D03*
X528000Y187000D03*
D16*
X486000Y213500D03*
X486000Y196500D03*
D11*
X466000Y213500D03*
X466000Y196500D03*
D16*
X484500Y176000D03*
X467500Y176000D03*
D14*
X398500Y193000D03*
X439500Y193000D03*
D11*
X550000Y200500D03*
X550000Y183500D03*
D17*
X585000Y203000D03*
D21*
X572000Y297500D03*
X572000Y338500D03*
D27*
X339600Y70000D03*
X390400Y70000D03*
D14*
X528500Y33000D03*
X487500Y33000D03*
D11*
X437000Y68500D03*
X437000Y85500D03*
D32*
X465300Y93700D03*
X465300Y68300D03*
X490700Y68300D03*
D33*
X261414Y287586D02*
X261414Y303135D01*
X261414Y287586D02*
X275000Y274000D01*
X286000Y274000D01*
D34*
X491000Y151500D02*
X508000Y134500D01*
X491000Y151500D02*
X487000Y151500D01*
X486000Y150500D02*
X468000Y150500D01*
X486000Y150500D02*
X487000Y151500D01*
X486000Y213500D02*
X491000Y213500D01*
X508000Y196500D01*
X486000Y213500D02*
X466000Y213500D01*
X149550Y204950D02*
X121500Y204950D01*
X149550Y204950D02*
X150000Y204500D01*
X121500Y204950D02*
X104000Y187450D01*
X104000Y185500D01*
X28500Y196000D02*
X27935Y196565D01*
X27935Y217856D01*
X150000Y204500D02*
X161500Y204500D01*
X149000Y289500D02*
X150500Y291000D01*
X149000Y289500D02*
X162400Y302900D01*
X162400Y318000D01*
X27935Y307935D02*
X27935Y217856D01*
X144400Y336000D02*
X162400Y318000D01*
X56000Y336000D02*
X27935Y307935D01*
X56000Y336000D02*
X144400Y336000D01*
X168000Y211000D02*
X161500Y204500D01*
X168000Y211000D02*
X168000Y225000D01*
X175000Y232000D01*
X204000Y232000D01*
X214000Y274000D02*
X197000Y291000D01*
X214000Y274000D02*
X214000Y242000D01*
X204000Y232000D01*
X197000Y291000D02*
X150500Y291000D01*
D33*
X286000Y274000D02*
X294000Y266000D01*
X353000Y266000D01*
D34*
X28500Y196000D02*
X28500Y175849D01*
X29414Y174935D01*
D35*
X438500Y150500D02*
X468000Y150500D01*
X438500Y150500D02*
X424000Y136000D01*
X486000Y213500D02*
X486000Y227000D01*
X485750Y227250D01*
D36*
X486000Y243000D03*
D35*
X486000Y227500D01*
X485750Y227250D01*
X29414Y174935D02*
X21000Y166521D01*
D36*
X447000Y294000D03*
D33*
X466264Y314947D02*
X466264Y335847D01*
X466264Y314947D02*
X466664Y314547D01*
X466664Y289347D01*
X468464Y287547D01*
X451653Y289347D02*
X447000Y294000D01*
X451653Y289347D02*
X466664Y289347D01*
D35*
X424000Y110000D02*
X418500Y104500D01*
X415000Y101000D01*
X424000Y110000D02*
X424000Y136000D01*
X37300Y79900D02*
X27100Y79900D01*
X21000Y86000D02*
X21000Y166521D01*
X21000Y86000D02*
X27100Y79900D01*
D33*
X431000Y310000D02*
X447000Y294000D01*
X397000Y310000D02*
X353000Y266000D01*
X397000Y310000D02*
X431000Y310000D01*
D35*
X454500Y104500D02*
X465300Y93700D01*
X454500Y104500D02*
X418500Y104500D01*
X415000Y101000D02*
X402000Y101000D01*
X390400Y89400D02*
X390400Y70000D01*
X390400Y89400D02*
X402000Y101000D01*
D34*
X104000Y168500D02*
X80000Y168500D01*
X104000Y168500D02*
X117500Y168500D01*
X137000Y188000D01*
X169050Y188000D01*
X191000Y209950D01*
X80000Y168500D02*
X79561Y168061D01*
X59759Y168061D01*
X52759Y175061D01*
X191000Y209950D02*
X205076Y195874D01*
X205076Y180076D01*
D36*
X205076Y180076D03*
X206212Y151788D03*
D34*
X205076Y152924D02*
X205076Y180076D01*
X205076Y152924D02*
X206212Y151788D01*
X206212Y123113D01*
X207162Y122162D01*
D36*
X207162Y122162D03*
D34*
X66294Y217856D02*
X44935Y217856D01*
X66294Y217856D02*
X66500Y217650D01*
D36*
X85000Y260000D03*
D33*
X296980Y291041D02*
X331261Y291041D01*
X296980Y291041D02*
X284759Y303261D01*
D36*
X420000Y176000D03*
D35*
X420000Y209000D01*
X419000Y210000D01*
D36*
X419000Y210000D03*
D35*
X420000Y176000D02*
X420000Y151000D01*
X421000Y150000D01*
D36*
X421000Y150000D03*
X396000Y254000D03*
D34*
X50000Y285000D02*
X44935Y279935D01*
X44935Y256000D02*
X44935Y217856D01*
X44935Y256000D02*
X44935Y279935D01*
X48935Y260000D02*
X85000Y260000D01*
X48935Y260000D02*
X44935Y256000D01*
D33*
X471900Y407739D02*
X473210Y412049D01*
X471900Y407739D02*
X471900Y381127D01*
X426000Y353000D02*
X319000Y353000D01*
X426000Y353000D02*
X454127Y381127D01*
X471900Y381127D01*
X284759Y318759D02*
X284759Y303261D01*
X284759Y318759D02*
X319000Y353000D01*
D35*
X396000Y254000D02*
X415000Y235000D01*
X415000Y214000D02*
X419000Y210000D01*
X415000Y214000D02*
X415000Y235000D01*
D33*
X485264Y316147D02*
X485264Y335847D01*
X485264Y316147D02*
X483664Y314547D01*
X485664Y312547D01*
X485664Y288247D01*
X453000Y229000D02*
X435500Y229000D01*
X453000Y229000D02*
X468464Y244464D01*
X468464Y270547D01*
X469164Y271247D02*
X485664Y271247D01*
X469164Y271247D02*
X468464Y270547D01*
D34*
X441404Y49596D02*
X441404Y32019D01*
X437000Y54000D02*
X354600Y54000D01*
X437000Y54000D02*
X441404Y49596D01*
X339600Y69000D02*
X339600Y70000D01*
X339600Y69000D02*
X354600Y54000D01*
D35*
X182000Y24000D02*
X147000Y59000D01*
X147000Y159000D01*
D36*
X147000Y159000D03*
D35*
X266000Y42000D02*
X248000Y24000D01*
X182000Y24000D01*
X409500Y42000D02*
X415000Y36500D01*
X409500Y42000D02*
X266000Y42000D01*
D33*
X582000Y338500D02*
X604000Y316500D01*
X582000Y338500D02*
X572000Y338500D01*
X636407Y402907D01*
D34*
X572000Y338500D02*
X537500Y338500D01*
X514000Y315000D01*
X514000Y234000D01*
X530000Y218000D01*
X550000Y218000D01*
X554000Y222000D01*
D36*
X554000Y222000D03*
X560000Y154000D03*
D34*
X553200Y147200D02*
X553200Y112800D01*
X553200Y147200D02*
X560000Y154000D01*
D33*
X636407Y402907D02*
X636407Y406307D01*
X475764Y355847D02*
X463847Y355847D01*
X463694Y356000D02*
X459000Y356000D01*
X463694Y356000D02*
X463847Y355847D01*
X387000Y332000D02*
X369386Y314386D01*
X387000Y332000D02*
X435000Y332000D01*
X369386Y314386D02*
X331135Y314386D01*
X435000Y332000D02*
X459000Y356000D01*
X475764Y355847D02*
X499847Y355847D01*
X513300Y369300D02*
X513300Y380627D01*
X513300Y369300D02*
X499847Y355847D01*
X513300Y408139D02*
X514210Y412049D01*
X513300Y408139D02*
X513300Y380627D01*
D34*
X66500Y243050D02*
X66500Y230350D01*
X66500Y243050D02*
X121500Y243050D01*
X121500Y257500D02*
X94000Y285000D01*
X121500Y257500D02*
X121500Y243050D01*
X121500Y217650D02*
X146150Y217650D01*
X150000Y221500D01*
X130850Y230350D02*
X149000Y248500D01*
X130850Y230350D02*
X121500Y230350D01*
X149450Y248050D02*
X191000Y248050D01*
X149450Y248050D02*
X149000Y248500D01*
X57550Y196000D02*
X45500Y196000D01*
X57550Y196000D02*
X66500Y204950D01*
X66500Y199000D02*
X80000Y185500D01*
X66500Y199000D02*
X66500Y204950D01*
D35*
X324500Y159000D02*
X394500Y229000D01*
X324500Y159000D02*
X254000Y159000D01*
X231000Y136000D01*
X231000Y40000D01*
D36*
X231000Y40000D03*
D34*
X485500Y115000D02*
X487000Y116500D01*
X487000Y134500D01*
X486000Y115500D02*
X508000Y115500D01*
X486000Y115500D02*
X485500Y115000D01*
X468500Y115000D02*
X468500Y124000D01*
X468500Y133000D01*
X468000Y133500D01*
X467500Y133000D01*
D35*
X468500Y124000D02*
X441500Y124000D01*
X398500Y193000D02*
X352500Y147000D01*
X271000Y147000D01*
X243000Y119000D01*
D36*
X258000Y69000D03*
D35*
X243000Y84000D01*
X243000Y119000D01*
D34*
X512500Y148500D02*
X512500Y153000D01*
X512500Y148500D02*
X528000Y133000D01*
X528000Y125000D01*
D33*
X604000Y249000D02*
X604000Y275500D01*
X637000Y216000D02*
X637000Y177000D01*
X637000Y216000D02*
X604000Y249000D01*
D34*
X529500Y158500D02*
X529500Y153000D01*
X635000Y175000D02*
X637000Y177000D01*
X635000Y175000D02*
X567000Y175000D01*
X560500Y168500D01*
X539500Y168500D02*
X529500Y158500D01*
X539500Y168500D02*
X560500Y168500D01*
X486000Y177500D02*
X484500Y176000D01*
X486000Y177500D02*
X486000Y196500D01*
X484500Y176000D02*
X506500Y176000D01*
X508000Y177500D01*
X466000Y177500D02*
X466000Y196500D01*
X466000Y177500D02*
X467500Y176000D01*
X464500Y195000D02*
X466000Y196500D01*
X441500Y195000D02*
X439500Y193000D01*
X456000Y195000D02*
X464500Y195000D01*
X456000Y195000D02*
X441500Y195000D01*
D36*
X260000Y104000D03*
D35*
X281000Y124000D02*
X400500Y124000D01*
X281000Y124000D02*
X260000Y104000D01*
D34*
X528000Y187000D02*
X531500Y183500D01*
X550000Y183500D01*
D33*
X572000Y284000D02*
X572000Y297500D01*
X585000Y271000D02*
X585000Y203000D01*
X585000Y271000D02*
X572000Y284000D01*
D34*
X582500Y200500D02*
X550000Y200500D01*
X582500Y200500D02*
X585000Y203000D01*
X582324Y33000D02*
X528500Y33000D01*
X582324Y33000D02*
X588854Y39530D01*
X486519Y32019D02*
X458404Y32019D01*
X486519Y32019D02*
X487500Y33000D01*
D35*
X490700Y68300D02*
X501440Y68300D01*
X511867Y57873D01*
D34*
X417000Y79500D02*
X415000Y77500D01*
D35*
X424000Y68500D01*
X437000Y68500D01*
D34*
X528867Y57873D02*
X539273Y57873D01*
X553200Y71800D01*
X576438Y95038D02*
X588544Y95038D01*
X576438Y95038D02*
X553200Y71800D01*
D35*
X448100Y85500D02*
X437000Y85500D01*
X448100Y85500D02*
X465300Y68300D01*
M02*
