G04 EAGLE Gerber X2 export*
%TF.Part,Single*%
%TF.FileFunction,Other,Silk screen CMP*%
%TF.FilePolarity,Positive*%
%TF.GenerationSoftware,Autodesk,EAGLE,9.0.1*%
%TF.CreationDate,2019-01-03T14:38:38Z*%
G75*
%MOMM*%
%FSLAX34Y34*%
%LPD*%
%AMOC8*
5,1,8,0,0,1.08239X$1,22.5*%
G01*
%ADD10C,0.000000*%
%ADD11C,0.050800*%
%ADD12C,0.152400*%
%ADD13C,0.254000*%
%ADD14C,0.025400*%
%ADD15C,0.127000*%
%ADD16C,0.199800*%
%ADD17C,0.203200*%
%ADD18C,0.101600*%
%ADD19C,0.304800*%
%ADD20C,0.177800*%
%ADD21C,0.406400*%
%ADD22C,0.812800*%


D10*
X668173Y454655D02*
X3400Y456200D01*
X5600Y1600D01*
X665600Y1600D02*
X668173Y454655D01*
X666573Y955D02*
X5600Y1600D01*
D11*
X104696Y31029D02*
X104696Y60489D01*
X116356Y60489D01*
X116356Y31029D01*
X104696Y31029D01*
X99075Y33700D02*
X98143Y32768D01*
X98143Y30903D01*
X99075Y29971D01*
X102803Y29971D01*
X103735Y30903D01*
X103735Y32768D01*
X102803Y33700D01*
X103735Y35584D02*
X103735Y39313D01*
X100007Y39313D02*
X103735Y35584D01*
X100007Y39313D02*
X99075Y39313D01*
X98143Y38381D01*
X98143Y36516D01*
X99075Y35584D01*
D12*
X269190Y303200D02*
X270460Y303200D01*
D13*
X275540Y303200D02*
X275540Y295580D01*
X275540Y303200D02*
X275540Y310820D01*
D12*
X275540Y303200D02*
X276810Y303200D01*
D11*
X280165Y290094D02*
X281097Y289161D01*
X280165Y290094D02*
X278301Y290094D01*
X277369Y289161D01*
X277369Y285433D01*
X278301Y284501D01*
X280165Y284501D01*
X281097Y285433D01*
X282982Y289161D02*
X283914Y290094D01*
X285778Y290094D01*
X286710Y289161D01*
X286710Y288229D01*
X285778Y287297D01*
X286710Y286365D01*
X286710Y285433D01*
X285778Y284501D01*
X283914Y284501D01*
X282982Y285433D01*
X282982Y286365D01*
X283914Y287297D01*
X282982Y288229D01*
X282982Y289161D01*
X283914Y287297D02*
X285778Y287297D01*
D14*
X294825Y294091D02*
X294920Y294091D01*
D15*
X247600Y303200D02*
X247608Y303823D01*
X247631Y304446D01*
X247669Y305069D01*
X247722Y305690D01*
X247791Y306309D01*
X247875Y306927D01*
X247974Y307542D01*
X248088Y308155D01*
X248217Y308765D01*
X248361Y309372D01*
X248520Y309975D01*
X248694Y310573D01*
X248882Y311168D01*
X249085Y311757D01*
X249302Y312341D01*
X249533Y312920D01*
X249779Y313493D01*
X250039Y314060D01*
X250312Y314620D01*
X250599Y315173D01*
X250900Y315720D01*
X251214Y316258D01*
X251541Y316789D01*
X251881Y317311D01*
X252233Y317826D01*
X252599Y318331D01*
X252976Y318827D01*
X253366Y319314D01*
X253767Y319791D01*
X254180Y320258D01*
X254604Y320714D01*
X255039Y321161D01*
X255486Y321596D01*
X255942Y322020D01*
X256409Y322433D01*
X256886Y322834D01*
X257373Y323224D01*
X257869Y323601D01*
X258374Y323967D01*
X258889Y324319D01*
X259411Y324659D01*
X259942Y324986D01*
X260480Y325300D01*
X261027Y325601D01*
X261580Y325888D01*
X262140Y326161D01*
X262707Y326421D01*
X263280Y326667D01*
X263859Y326898D01*
X264443Y327115D01*
X265032Y327318D01*
X265627Y327506D01*
X266225Y327680D01*
X266828Y327839D01*
X267435Y327983D01*
X268045Y328112D01*
X268658Y328226D01*
X269273Y328325D01*
X269891Y328409D01*
X270510Y328478D01*
X271131Y328531D01*
X271754Y328569D01*
X272377Y328592D01*
X273000Y328600D01*
X273623Y328592D01*
X274246Y328569D01*
X274869Y328531D01*
X275490Y328478D01*
X276109Y328409D01*
X276727Y328325D01*
X277342Y328226D01*
X277955Y328112D01*
X278565Y327983D01*
X279172Y327839D01*
X279775Y327680D01*
X280373Y327506D01*
X280968Y327318D01*
X281557Y327115D01*
X282141Y326898D01*
X282720Y326667D01*
X283293Y326421D01*
X283860Y326161D01*
X284420Y325888D01*
X284973Y325601D01*
X285520Y325300D01*
X286058Y324986D01*
X286589Y324659D01*
X287111Y324319D01*
X287626Y323967D01*
X288131Y323601D01*
X288627Y323224D01*
X289114Y322834D01*
X289591Y322433D01*
X290058Y322020D01*
X290514Y321596D01*
X290961Y321161D01*
X291396Y320714D01*
X291820Y320258D01*
X292233Y319791D01*
X292634Y319314D01*
X293024Y318827D01*
X293401Y318331D01*
X293767Y317826D01*
X294119Y317311D01*
X294459Y316789D01*
X294786Y316258D01*
X295100Y315720D01*
X295401Y315173D01*
X295688Y314620D01*
X295961Y314060D01*
X296221Y313493D01*
X296467Y312920D01*
X296698Y312341D01*
X296915Y311757D01*
X297118Y311168D01*
X297306Y310573D01*
X297480Y309975D01*
X297639Y309372D01*
X297783Y308765D01*
X297912Y308155D01*
X298026Y307542D01*
X298125Y306927D01*
X298209Y306309D01*
X298278Y305690D01*
X298331Y305069D01*
X298369Y304446D01*
X298392Y303823D01*
X298400Y303200D01*
X298392Y302577D01*
X298369Y301954D01*
X298331Y301331D01*
X298278Y300710D01*
X298209Y300091D01*
X298125Y299473D01*
X298026Y298858D01*
X297912Y298245D01*
X297783Y297635D01*
X297639Y297028D01*
X297480Y296425D01*
X297306Y295827D01*
X297118Y295232D01*
X296915Y294643D01*
X296698Y294059D01*
X296467Y293480D01*
X296221Y292907D01*
X295961Y292340D01*
X295688Y291780D01*
X295401Y291227D01*
X295100Y290680D01*
X294786Y290142D01*
X294459Y289611D01*
X294119Y289089D01*
X293767Y288574D01*
X293401Y288069D01*
X293024Y287573D01*
X292634Y287086D01*
X292233Y286609D01*
X291820Y286142D01*
X291396Y285686D01*
X290961Y285239D01*
X290514Y284804D01*
X290058Y284380D01*
X289591Y283967D01*
X289114Y283566D01*
X288627Y283176D01*
X288131Y282799D01*
X287626Y282433D01*
X287111Y282081D01*
X286589Y281741D01*
X286058Y281414D01*
X285520Y281100D01*
X284973Y280799D01*
X284420Y280512D01*
X283860Y280239D01*
X283293Y279979D01*
X282720Y279733D01*
X282141Y279502D01*
X281557Y279285D01*
X280968Y279082D01*
X280373Y278894D01*
X279775Y278720D01*
X279172Y278561D01*
X278565Y278417D01*
X277955Y278288D01*
X277342Y278174D01*
X276727Y278075D01*
X276109Y277991D01*
X275490Y277922D01*
X274869Y277869D01*
X274246Y277831D01*
X273623Y277808D01*
X273000Y277800D01*
X272377Y277808D01*
X271754Y277831D01*
X271131Y277869D01*
X270510Y277922D01*
X269891Y277991D01*
X269273Y278075D01*
X268658Y278174D01*
X268045Y278288D01*
X267435Y278417D01*
X266828Y278561D01*
X266225Y278720D01*
X265627Y278894D01*
X265032Y279082D01*
X264443Y279285D01*
X263859Y279502D01*
X263280Y279733D01*
X262707Y279979D01*
X262140Y280239D01*
X261580Y280512D01*
X261027Y280799D01*
X260480Y281100D01*
X259942Y281414D01*
X259411Y281741D01*
X258889Y282081D01*
X258374Y282433D01*
X257869Y282799D01*
X257373Y283176D01*
X256886Y283566D01*
X256409Y283967D01*
X255942Y284380D01*
X255486Y284804D01*
X255039Y285239D01*
X254604Y285686D01*
X254180Y286142D01*
X253767Y286609D01*
X253366Y287086D01*
X252976Y287573D01*
X252599Y288069D01*
X252233Y288574D01*
X251881Y289089D01*
X251541Y289611D01*
X251214Y290142D01*
X250900Y290680D01*
X250599Y291227D01*
X250312Y291780D01*
X250039Y292340D01*
X249779Y292907D01*
X249533Y293480D01*
X249302Y294059D01*
X249085Y294643D01*
X248882Y295232D01*
X248694Y295827D01*
X248520Y296425D01*
X248361Y297028D01*
X248217Y297635D01*
X248088Y298245D01*
X247974Y298858D01*
X247875Y299473D01*
X247791Y300091D01*
X247722Y300710D01*
X247669Y301331D01*
X247631Y301954D01*
X247608Y302577D01*
X247600Y303200D01*
D13*
X266000Y296200D02*
X266169Y296270D01*
X266337Y296344D01*
X266503Y296422D01*
X266666Y296504D01*
X266828Y296590D01*
X266988Y296680D01*
X267145Y296774D01*
X267300Y296872D01*
X267452Y296973D01*
X267603Y297078D01*
X267750Y297187D01*
X267895Y297299D01*
X268037Y297415D01*
X268176Y297534D01*
X268312Y297657D01*
X268445Y297782D01*
X268575Y297911D01*
X268702Y298043D01*
X268826Y298179D01*
X268946Y298317D01*
X269063Y298458D01*
X269177Y298601D01*
X269287Y298748D01*
X269393Y298897D01*
X269496Y299049D01*
X269595Y299203D01*
X269690Y299359D01*
X269782Y299518D01*
X269869Y299679D01*
X269953Y299842D01*
X270032Y300007D01*
X270108Y300174D01*
X270179Y300342D01*
X270247Y300513D01*
X270310Y300685D01*
X270369Y300858D01*
X270424Y301033D01*
X270474Y301209D01*
X270521Y301386D01*
X270562Y301564D01*
X270600Y301744D01*
X270633Y301924D01*
X270662Y302105D01*
X270686Y302286D01*
X270706Y302468D01*
X270722Y302651D01*
X270733Y302834D01*
X270740Y303017D01*
X270742Y303200D01*
X270740Y303383D01*
X270733Y303566D01*
X270722Y303749D01*
X270706Y303932D01*
X270686Y304114D01*
X270662Y304295D01*
X270633Y304476D01*
X270600Y304656D01*
X270562Y304836D01*
X270521Y305014D01*
X270474Y305191D01*
X270424Y305367D01*
X270369Y305542D01*
X270310Y305715D01*
X270247Y305887D01*
X270179Y306058D01*
X270108Y306226D01*
X270032Y306393D01*
X269953Y306558D01*
X269869Y306721D01*
X269782Y306882D01*
X269690Y307041D01*
X269595Y307197D01*
X269496Y307351D01*
X269393Y307503D01*
X269287Y307652D01*
X269177Y307799D01*
X269063Y307942D01*
X268946Y308083D01*
X268826Y308221D01*
X268702Y308357D01*
X268575Y308489D01*
X268445Y308618D01*
X268312Y308743D01*
X268176Y308866D01*
X268037Y308985D01*
X267895Y309101D01*
X267750Y309213D01*
X267603Y309322D01*
X267452Y309427D01*
X267300Y309528D01*
X267145Y309626D01*
X266988Y309720D01*
X266828Y309810D01*
X266666Y309896D01*
X266503Y309978D01*
X266337Y310056D01*
X266169Y310130D01*
X266000Y310200D01*
D15*
X247600Y303200D02*
X247608Y303823D01*
X247631Y304446D01*
X247669Y305069D01*
X247722Y305690D01*
X247791Y306309D01*
X247875Y306927D01*
X247974Y307542D01*
X248088Y308155D01*
X248217Y308765D01*
X248361Y309372D01*
X248520Y309975D01*
X248694Y310573D01*
X248882Y311168D01*
X249085Y311757D01*
X249302Y312341D01*
X249533Y312920D01*
X249779Y313493D01*
X250039Y314060D01*
X250312Y314620D01*
X250599Y315173D01*
X250900Y315720D01*
X251214Y316258D01*
X251541Y316789D01*
X251881Y317311D01*
X252233Y317826D01*
X252599Y318331D01*
X252976Y318827D01*
X253366Y319314D01*
X253767Y319791D01*
X254180Y320258D01*
X254604Y320714D01*
X255039Y321161D01*
X255486Y321596D01*
X255942Y322020D01*
X256409Y322433D01*
X256886Y322834D01*
X257373Y323224D01*
X257869Y323601D01*
X258374Y323967D01*
X258889Y324319D01*
X259411Y324659D01*
X259942Y324986D01*
X260480Y325300D01*
X261027Y325601D01*
X261580Y325888D01*
X262140Y326161D01*
X262707Y326421D01*
X263280Y326667D01*
X263859Y326898D01*
X264443Y327115D01*
X265032Y327318D01*
X265627Y327506D01*
X266225Y327680D01*
X266828Y327839D01*
X267435Y327983D01*
X268045Y328112D01*
X268658Y328226D01*
X269273Y328325D01*
X269891Y328409D01*
X270510Y328478D01*
X271131Y328531D01*
X271754Y328569D01*
X272377Y328592D01*
X273000Y328600D01*
X273623Y328592D01*
X274246Y328569D01*
X274869Y328531D01*
X275490Y328478D01*
X276109Y328409D01*
X276727Y328325D01*
X277342Y328226D01*
X277955Y328112D01*
X278565Y327983D01*
X279172Y327839D01*
X279775Y327680D01*
X280373Y327506D01*
X280968Y327318D01*
X281557Y327115D01*
X282141Y326898D01*
X282720Y326667D01*
X283293Y326421D01*
X283860Y326161D01*
X284420Y325888D01*
X284973Y325601D01*
X285520Y325300D01*
X286058Y324986D01*
X286589Y324659D01*
X287111Y324319D01*
X287626Y323967D01*
X288131Y323601D01*
X288627Y323224D01*
X289114Y322834D01*
X289591Y322433D01*
X290058Y322020D01*
X290514Y321596D01*
X290961Y321161D01*
X291396Y320714D01*
X291820Y320258D01*
X292233Y319791D01*
X292634Y319314D01*
X293024Y318827D01*
X293401Y318331D01*
X293767Y317826D01*
X294119Y317311D01*
X294459Y316789D01*
X294786Y316258D01*
X295100Y315720D01*
X295401Y315173D01*
X295688Y314620D01*
X295961Y314060D01*
X296221Y313493D01*
X296467Y312920D01*
X296698Y312341D01*
X296915Y311757D01*
X297118Y311168D01*
X297306Y310573D01*
X297480Y309975D01*
X297639Y309372D01*
X297783Y308765D01*
X297912Y308155D01*
X298026Y307542D01*
X298125Y306927D01*
X298209Y306309D01*
X298278Y305690D01*
X298331Y305069D01*
X298369Y304446D01*
X298392Y303823D01*
X298400Y303200D01*
X298392Y302577D01*
X298369Y301954D01*
X298331Y301331D01*
X298278Y300710D01*
X298209Y300091D01*
X298125Y299473D01*
X298026Y298858D01*
X297912Y298245D01*
X297783Y297635D01*
X297639Y297028D01*
X297480Y296425D01*
X297306Y295827D01*
X297118Y295232D01*
X296915Y294643D01*
X296698Y294059D01*
X296467Y293480D01*
X296221Y292907D01*
X295961Y292340D01*
X295688Y291780D01*
X295401Y291227D01*
X295100Y290680D01*
X294786Y290142D01*
X294459Y289611D01*
X294119Y289089D01*
X293767Y288574D01*
X293401Y288069D01*
X293024Y287573D01*
X292634Y287086D01*
X292233Y286609D01*
X291820Y286142D01*
X291396Y285686D01*
X290961Y285239D01*
X290514Y284804D01*
X290058Y284380D01*
X289591Y283967D01*
X289114Y283566D01*
X288627Y283176D01*
X288131Y282799D01*
X287626Y282433D01*
X287111Y282081D01*
X286589Y281741D01*
X286058Y281414D01*
X285520Y281100D01*
X284973Y280799D01*
X284420Y280512D01*
X283860Y280239D01*
X283293Y279979D01*
X282720Y279733D01*
X282141Y279502D01*
X281557Y279285D01*
X280968Y279082D01*
X280373Y278894D01*
X279775Y278720D01*
X279172Y278561D01*
X278565Y278417D01*
X277955Y278288D01*
X277342Y278174D01*
X276727Y278075D01*
X276109Y277991D01*
X275490Y277922D01*
X274869Y277869D01*
X274246Y277831D01*
X273623Y277808D01*
X273000Y277800D01*
X272377Y277808D01*
X271754Y277831D01*
X271131Y277869D01*
X270510Y277922D01*
X269891Y277991D01*
X269273Y278075D01*
X268658Y278174D01*
X268045Y278288D01*
X267435Y278417D01*
X266828Y278561D01*
X266225Y278720D01*
X265627Y278894D01*
X265032Y279082D01*
X264443Y279285D01*
X263859Y279502D01*
X263280Y279733D01*
X262707Y279979D01*
X262140Y280239D01*
X261580Y280512D01*
X261027Y280799D01*
X260480Y281100D01*
X259942Y281414D01*
X259411Y281741D01*
X258889Y282081D01*
X258374Y282433D01*
X257869Y282799D01*
X257373Y283176D01*
X256886Y283566D01*
X256409Y283967D01*
X255942Y284380D01*
X255486Y284804D01*
X255039Y285239D01*
X254604Y285686D01*
X254180Y286142D01*
X253767Y286609D01*
X253366Y287086D01*
X252976Y287573D01*
X252599Y288069D01*
X252233Y288574D01*
X251881Y289089D01*
X251541Y289611D01*
X251214Y290142D01*
X250900Y290680D01*
X250599Y291227D01*
X250312Y291780D01*
X250039Y292340D01*
X249779Y292907D01*
X249533Y293480D01*
X249302Y294059D01*
X249085Y294643D01*
X248882Y295232D01*
X248694Y295827D01*
X248520Y296425D01*
X248361Y297028D01*
X248217Y297635D01*
X248088Y298245D01*
X247974Y298858D01*
X247875Y299473D01*
X247791Y300091D01*
X247722Y300710D01*
X247669Y301331D01*
X247631Y301954D01*
X247608Y302577D01*
X247600Y303200D01*
D11*
X280165Y290094D02*
X281097Y289161D01*
X280165Y290094D02*
X278301Y290094D01*
X277369Y289161D01*
X277369Y285433D01*
X278301Y284501D01*
X280165Y284501D01*
X281097Y285433D01*
X282982Y289161D02*
X283914Y290094D01*
X285778Y290094D01*
X286710Y289161D01*
X286710Y288229D01*
X285778Y287297D01*
X286710Y286365D01*
X286710Y285433D01*
X285778Y284501D01*
X283914Y284501D01*
X282982Y285433D01*
X282982Y286365D01*
X283914Y287297D01*
X282982Y288229D01*
X282982Y289161D01*
X283914Y287297D02*
X285778Y287297D01*
D16*
X196171Y142657D02*
X98271Y142657D01*
X98271Y64657D02*
X196171Y64657D01*
X98271Y64657D02*
X98271Y142657D01*
D17*
X104171Y84657D02*
X190271Y84657D01*
X104171Y84657D02*
X104171Y89657D01*
X104171Y122657D01*
X104171Y89657D02*
X190271Y89657D01*
X190271Y122657D01*
X190271Y89657D02*
X190271Y84657D01*
D16*
X196171Y64657D02*
X196171Y142657D01*
D17*
X190271Y122657D02*
X104171Y122657D01*
D11*
X109899Y107968D02*
X111763Y107968D01*
X110831Y107968D02*
X110831Y113561D01*
X109899Y113561D02*
X111763Y113561D01*
X116437Y113561D02*
X117369Y112629D01*
X116437Y113561D02*
X114573Y113561D01*
X113641Y112629D01*
X113641Y108901D01*
X114573Y107968D01*
X116437Y107968D01*
X117369Y108901D01*
X119254Y111697D02*
X121118Y113561D01*
X121118Y107968D01*
X119254Y107968D02*
X122982Y107968D01*
D15*
X107985Y94657D02*
X107987Y94751D01*
X107993Y94845D01*
X108003Y94939D01*
X108017Y95032D01*
X108035Y95125D01*
X108056Y95217D01*
X108082Y95307D01*
X108111Y95397D01*
X108144Y95485D01*
X108181Y95572D01*
X108221Y95657D01*
X108265Y95741D01*
X108313Y95822D01*
X108363Y95902D01*
X108418Y95979D01*
X108475Y96054D01*
X108535Y96126D01*
X108599Y96196D01*
X108665Y96263D01*
X108734Y96327D01*
X108806Y96388D01*
X108880Y96446D01*
X108957Y96501D01*
X109036Y96553D01*
X109117Y96601D01*
X109200Y96646D01*
X109284Y96687D01*
X109371Y96725D01*
X109459Y96759D01*
X109548Y96789D01*
X109638Y96816D01*
X109730Y96838D01*
X109822Y96857D01*
X109916Y96872D01*
X110009Y96883D01*
X110103Y96890D01*
X110197Y96893D01*
X110292Y96892D01*
X110386Y96887D01*
X110480Y96878D01*
X110573Y96865D01*
X110666Y96848D01*
X110758Y96828D01*
X110849Y96803D01*
X110939Y96775D01*
X111027Y96743D01*
X111115Y96707D01*
X111200Y96667D01*
X111284Y96624D01*
X111366Y96578D01*
X111446Y96528D01*
X111524Y96474D01*
X111599Y96418D01*
X111672Y96358D01*
X111743Y96295D01*
X111810Y96230D01*
X111875Y96161D01*
X111937Y96090D01*
X111996Y96017D01*
X112052Y95941D01*
X112104Y95862D01*
X112153Y95782D01*
X112199Y95699D01*
X112241Y95615D01*
X112280Y95529D01*
X112315Y95441D01*
X112346Y95352D01*
X112374Y95262D01*
X112397Y95171D01*
X112417Y95079D01*
X112433Y94986D01*
X112445Y94892D01*
X112453Y94798D01*
X112457Y94704D01*
X112457Y94610D01*
X112453Y94516D01*
X112445Y94422D01*
X112433Y94328D01*
X112417Y94235D01*
X112397Y94143D01*
X112374Y94052D01*
X112346Y93962D01*
X112315Y93873D01*
X112280Y93785D01*
X112241Y93699D01*
X112199Y93615D01*
X112153Y93532D01*
X112104Y93452D01*
X112052Y93373D01*
X111996Y93297D01*
X111937Y93224D01*
X111875Y93153D01*
X111810Y93084D01*
X111743Y93019D01*
X111672Y92956D01*
X111599Y92896D01*
X111524Y92840D01*
X111446Y92786D01*
X111366Y92736D01*
X111284Y92690D01*
X111200Y92647D01*
X111115Y92607D01*
X111027Y92571D01*
X110939Y92539D01*
X110849Y92511D01*
X110758Y92486D01*
X110666Y92466D01*
X110573Y92449D01*
X110480Y92436D01*
X110386Y92427D01*
X110292Y92422D01*
X110197Y92421D01*
X110103Y92424D01*
X110009Y92431D01*
X109916Y92442D01*
X109822Y92457D01*
X109730Y92476D01*
X109638Y92498D01*
X109548Y92525D01*
X109459Y92555D01*
X109371Y92589D01*
X109284Y92627D01*
X109200Y92668D01*
X109117Y92713D01*
X109036Y92761D01*
X108957Y92813D01*
X108880Y92868D01*
X108806Y92926D01*
X108734Y92987D01*
X108665Y93051D01*
X108599Y93118D01*
X108535Y93188D01*
X108475Y93260D01*
X108418Y93335D01*
X108363Y93412D01*
X108313Y93492D01*
X108265Y93573D01*
X108221Y93657D01*
X108181Y93742D01*
X108144Y93829D01*
X108111Y93917D01*
X108082Y94007D01*
X108056Y94097D01*
X108035Y94189D01*
X108017Y94282D01*
X108003Y94375D01*
X107993Y94469D01*
X107987Y94563D01*
X107985Y94657D01*
D11*
X109899Y107968D02*
X111763Y107968D01*
X110831Y107968D02*
X110831Y113561D01*
X109899Y113561D02*
X111763Y113561D01*
X116437Y113561D02*
X117369Y112629D01*
X116437Y113561D02*
X114573Y113561D01*
X113641Y112629D01*
X113641Y108901D01*
X114573Y107968D01*
X116437Y107968D01*
X117369Y108901D01*
X119254Y111697D02*
X121118Y113561D01*
X121118Y107968D01*
X119254Y107968D02*
X122982Y107968D01*
D17*
X293202Y225971D02*
X334900Y225971D01*
X293202Y225971D02*
X293202Y126403D01*
X334900Y126403D01*
X334900Y225971D01*
D18*
X323552Y134547D02*
X323554Y134663D01*
X323560Y134778D01*
X323570Y134893D01*
X323584Y135008D01*
X323602Y135122D01*
X323624Y135236D01*
X323649Y135348D01*
X323679Y135460D01*
X323712Y135571D01*
X323750Y135680D01*
X323791Y135788D01*
X323835Y135895D01*
X323884Y136000D01*
X323936Y136103D01*
X323991Y136205D01*
X324050Y136304D01*
X324112Y136402D01*
X324178Y136497D01*
X324247Y136590D01*
X324319Y136680D01*
X324394Y136768D01*
X324472Y136853D01*
X324553Y136935D01*
X324637Y137015D01*
X324724Y137092D01*
X324813Y137165D01*
X324905Y137236D01*
X324999Y137303D01*
X325095Y137367D01*
X325193Y137428D01*
X325294Y137485D01*
X325396Y137539D01*
X325500Y137589D01*
X325606Y137636D01*
X325713Y137678D01*
X325822Y137717D01*
X325932Y137753D01*
X326044Y137784D01*
X326156Y137812D01*
X326269Y137836D01*
X326383Y137856D01*
X326497Y137872D01*
X326612Y137884D01*
X326728Y137892D01*
X326843Y137896D01*
X326959Y137896D01*
X327074Y137892D01*
X327190Y137884D01*
X327305Y137872D01*
X327419Y137856D01*
X327533Y137836D01*
X327646Y137812D01*
X327758Y137784D01*
X327870Y137753D01*
X327980Y137717D01*
X328089Y137678D01*
X328196Y137636D01*
X328302Y137589D01*
X328406Y137539D01*
X328508Y137485D01*
X328609Y137428D01*
X328707Y137367D01*
X328803Y137303D01*
X328897Y137236D01*
X328989Y137165D01*
X329078Y137092D01*
X329165Y137015D01*
X329249Y136935D01*
X329330Y136853D01*
X329408Y136768D01*
X329483Y136680D01*
X329555Y136590D01*
X329624Y136497D01*
X329690Y136402D01*
X329752Y136304D01*
X329811Y136205D01*
X329866Y136103D01*
X329918Y136000D01*
X329967Y135895D01*
X330011Y135788D01*
X330052Y135680D01*
X330090Y135571D01*
X330123Y135460D01*
X330153Y135348D01*
X330178Y135236D01*
X330200Y135122D01*
X330218Y135008D01*
X330232Y134893D01*
X330242Y134778D01*
X330248Y134663D01*
X330250Y134547D01*
X330248Y134431D01*
X330242Y134316D01*
X330232Y134201D01*
X330218Y134086D01*
X330200Y133972D01*
X330178Y133858D01*
X330153Y133746D01*
X330123Y133634D01*
X330090Y133523D01*
X330052Y133414D01*
X330011Y133306D01*
X329967Y133199D01*
X329918Y133094D01*
X329866Y132991D01*
X329811Y132889D01*
X329752Y132790D01*
X329690Y132692D01*
X329624Y132597D01*
X329555Y132504D01*
X329483Y132414D01*
X329408Y132326D01*
X329330Y132241D01*
X329249Y132159D01*
X329165Y132079D01*
X329078Y132002D01*
X328989Y131929D01*
X328897Y131858D01*
X328803Y131791D01*
X328707Y131727D01*
X328609Y131666D01*
X328508Y131609D01*
X328406Y131555D01*
X328302Y131505D01*
X328196Y131458D01*
X328089Y131416D01*
X327980Y131377D01*
X327870Y131341D01*
X327758Y131310D01*
X327646Y131282D01*
X327533Y131258D01*
X327419Y131238D01*
X327305Y131222D01*
X327190Y131210D01*
X327074Y131202D01*
X326959Y131198D01*
X326843Y131198D01*
X326728Y131202D01*
X326612Y131210D01*
X326497Y131222D01*
X326383Y131238D01*
X326269Y131258D01*
X326156Y131282D01*
X326044Y131310D01*
X325932Y131341D01*
X325822Y131377D01*
X325713Y131416D01*
X325606Y131458D01*
X325500Y131505D01*
X325396Y131555D01*
X325294Y131609D01*
X325193Y131666D01*
X325095Y131727D01*
X324999Y131791D01*
X324905Y131858D01*
X324813Y131929D01*
X324724Y132002D01*
X324637Y132079D01*
X324553Y132159D01*
X324472Y132241D01*
X324394Y132326D01*
X324319Y132414D01*
X324247Y132504D01*
X324178Y132597D01*
X324112Y132692D01*
X324050Y132790D01*
X323991Y132889D01*
X323936Y132991D01*
X323884Y133094D01*
X323835Y133199D01*
X323791Y133306D01*
X323750Y133414D01*
X323712Y133523D01*
X323679Y133634D01*
X323649Y133746D01*
X323624Y133858D01*
X323602Y133972D01*
X323584Y134086D01*
X323570Y134201D01*
X323560Y134316D01*
X323554Y134431D01*
X323552Y134547D01*
D11*
X316081Y203106D02*
X316081Y204971D01*
X316081Y204038D02*
X310488Y204038D01*
X310488Y203106D02*
X310488Y204971D01*
X310488Y209645D02*
X311420Y210577D01*
X310488Y209645D02*
X310488Y207781D01*
X311420Y206848D01*
X315148Y206848D01*
X316081Y207781D01*
X316081Y209645D01*
X315148Y210577D01*
X311420Y212462D02*
X310488Y213394D01*
X310488Y215258D01*
X311420Y216190D01*
X312352Y216190D01*
X313284Y215258D01*
X313284Y214326D01*
X313284Y215258D02*
X314216Y216190D01*
X315148Y216190D01*
X316081Y215258D01*
X316081Y213394D01*
X315148Y212462D01*
D15*
X354051Y124187D02*
X274051Y124187D01*
X274051Y228187D01*
X354051Y228187D01*
X354051Y124187D01*
D11*
X316081Y203106D02*
X316081Y204971D01*
X316081Y204038D02*
X310488Y204038D01*
X310488Y203106D02*
X310488Y204971D01*
X310488Y209645D02*
X311420Y210577D01*
X310488Y209645D02*
X310488Y207781D01*
X311420Y206848D01*
X315148Y206848D01*
X316081Y207781D01*
X316081Y209645D01*
X315148Y210577D01*
X311420Y212462D02*
X310488Y213394D01*
X310488Y215258D01*
X311420Y216190D01*
X312352Y216190D01*
X313284Y215258D01*
X313284Y214326D01*
X313284Y215258D02*
X314216Y216190D01*
X315148Y216190D01*
X316081Y215258D01*
X316081Y213394D01*
X315148Y212462D01*
X381182Y206367D02*
X410642Y206367D01*
X381182Y206367D02*
X381182Y220027D01*
X410642Y220027D01*
X410642Y206367D01*
X401592Y205288D02*
X401592Y199695D01*
X401592Y205288D02*
X404389Y205288D01*
X405321Y204356D01*
X405321Y202492D01*
X404389Y201560D01*
X401592Y201560D01*
X403456Y201560D02*
X405321Y199695D01*
X407205Y203424D02*
X409070Y205288D01*
X409070Y199695D01*
X410934Y199695D02*
X407205Y199695D01*
X261449Y128992D02*
X231989Y128992D01*
X261449Y128992D02*
X261449Y115332D01*
X231989Y115332D01*
X231989Y128992D01*
X230321Y130076D02*
X230321Y135668D01*
X233117Y135668D01*
X234049Y134736D01*
X234049Y132872D01*
X233117Y131940D01*
X230321Y131940D01*
X232185Y131940D02*
X234049Y130076D01*
X235934Y133804D02*
X237798Y135668D01*
X237798Y130076D01*
X235934Y130076D02*
X239662Y130076D01*
X244343Y130076D02*
X244343Y135668D01*
X241547Y132872D01*
X245275Y132872D01*
X232712Y158618D02*
X262172Y158618D01*
X262172Y144958D01*
X232712Y144958D01*
X232712Y158618D01*
X231043Y159701D02*
X231043Y165294D01*
X233840Y165294D01*
X234772Y164362D01*
X234772Y162498D01*
X233840Y161566D01*
X231043Y161566D01*
X232908Y161566D02*
X234772Y159701D01*
X236656Y163430D02*
X238521Y165294D01*
X238521Y159701D01*
X240385Y159701D02*
X236656Y159701D01*
X242269Y165294D02*
X245998Y165294D01*
X242269Y165294D02*
X242269Y162498D01*
X244134Y163430D01*
X245066Y163430D01*
X245998Y162498D01*
X245998Y160634D01*
X245066Y159701D01*
X243202Y159701D01*
X242269Y160634D01*
X232406Y186906D02*
X261866Y186906D01*
X261866Y173246D01*
X232406Y173246D01*
X232406Y186906D01*
X230738Y187989D02*
X230738Y193582D01*
X233534Y193582D01*
X234466Y192649D01*
X234466Y190785D01*
X233534Y189853D01*
X230738Y189853D01*
X232602Y189853D02*
X234466Y187989D01*
X236351Y191717D02*
X238215Y193582D01*
X238215Y187989D01*
X236351Y187989D02*
X240079Y187989D01*
X243828Y192649D02*
X245692Y193582D01*
X243828Y192649D02*
X241964Y190785D01*
X241964Y188921D01*
X242896Y187989D01*
X244760Y187989D01*
X245692Y188921D01*
X245692Y189853D01*
X244760Y190785D01*
X241964Y190785D01*
X233071Y201678D02*
X262531Y201678D01*
X233071Y201678D02*
X233071Y215338D01*
X262531Y215338D01*
X262531Y201678D01*
X247868Y200599D02*
X247868Y195007D01*
X247868Y200599D02*
X250664Y200599D01*
X251597Y199667D01*
X251597Y197803D01*
X250664Y196871D01*
X247868Y196871D01*
X249732Y196871D02*
X251597Y195007D01*
X253481Y198735D02*
X255345Y200599D01*
X255345Y195007D01*
X253481Y195007D02*
X257210Y195007D01*
X259094Y200599D02*
X262823Y200599D01*
X262823Y199667D01*
X259094Y195939D01*
X259094Y195007D01*
X381140Y169574D02*
X410600Y169574D01*
X381140Y169574D02*
X381140Y183234D01*
X410600Y183234D01*
X410600Y169574D01*
X401551Y168495D02*
X401551Y162903D01*
X401551Y168495D02*
X404347Y168495D01*
X405279Y167563D01*
X405279Y165699D01*
X404347Y164767D01*
X401551Y164767D01*
X403415Y164767D02*
X405279Y162903D01*
X407164Y162903D02*
X410892Y162903D01*
X407164Y162903D02*
X410892Y166631D01*
X410892Y167563D01*
X409960Y168495D01*
X408096Y168495D01*
X407164Y167563D01*
X411784Y140202D02*
X382324Y140202D01*
X382324Y153862D01*
X411784Y153862D01*
X411784Y140202D01*
X402734Y139123D02*
X402734Y133531D01*
X402734Y139123D02*
X405530Y139123D01*
X406463Y138191D01*
X406463Y136327D01*
X405530Y135395D01*
X402734Y135395D01*
X404598Y135395D02*
X406463Y133531D01*
X408347Y138191D02*
X409279Y139123D01*
X411144Y139123D01*
X412076Y138191D01*
X412076Y137259D01*
X411144Y136327D01*
X410211Y136327D01*
X411144Y136327D02*
X412076Y135395D01*
X412076Y134463D01*
X411144Y133531D01*
X409279Y133531D01*
X408347Y134463D01*
X152805Y59022D02*
X123345Y59022D01*
X152805Y59022D02*
X152805Y45362D01*
X123345Y45362D01*
X123345Y59022D01*
X121676Y60105D02*
X121676Y65698D01*
X124473Y65698D01*
X125405Y64765D01*
X125405Y62901D01*
X124473Y61969D01*
X121676Y61969D01*
X123541Y61969D02*
X125405Y60105D01*
X127290Y61037D02*
X128222Y60105D01*
X130086Y60105D01*
X131018Y61037D01*
X131018Y64765D01*
X130086Y65698D01*
X128222Y65698D01*
X127290Y64765D01*
X127290Y63833D01*
X128222Y62901D01*
X131018Y62901D01*
X589488Y71590D02*
X589488Y77182D01*
X592284Y77182D01*
X593216Y76250D01*
X593216Y75318D01*
X592284Y74386D01*
X593216Y73454D01*
X593216Y72522D01*
X592284Y71590D01*
X589488Y71590D01*
X589488Y74386D02*
X592284Y74386D01*
X595101Y72522D02*
X595101Y77182D01*
X595101Y72522D02*
X596033Y71590D01*
X597897Y71590D01*
X598829Y72522D01*
X598829Y77182D01*
X600714Y77182D02*
X604442Y77182D01*
X604442Y76250D01*
X600714Y72522D01*
X600714Y71590D01*
X604442Y71590D01*
D15*
X604544Y79038D02*
X572544Y79038D01*
X572544Y111038D01*
X604544Y111038D01*
X604544Y79038D01*
D11*
X589488Y77182D02*
X589488Y71590D01*
X589488Y77182D02*
X592284Y77182D01*
X593216Y76250D01*
X593216Y75318D01*
X592284Y74386D01*
X593216Y73454D01*
X593216Y72522D01*
X592284Y71590D01*
X589488Y71590D01*
X589488Y74386D02*
X592284Y74386D01*
X595101Y72522D02*
X595101Y77182D01*
X595101Y72522D02*
X596033Y71590D01*
X597897Y71590D01*
X598829Y72522D01*
X598829Y77182D01*
X600714Y77182D02*
X604442Y77182D01*
X604442Y76250D01*
X600714Y72522D01*
X600714Y71590D01*
X604442Y71590D01*
X644380Y260340D02*
X644380Y264068D01*
X645312Y265000D01*
X647176Y265000D01*
X648108Y264068D01*
X648108Y260340D01*
X647176Y259408D01*
X645312Y259408D01*
X644380Y260340D01*
X648108Y264068D01*
X649993Y265000D02*
X649993Y261272D01*
X651857Y259408D01*
X653722Y261272D01*
X653722Y265000D01*
D15*
X653823Y266856D02*
X621823Y266856D01*
X621823Y298856D01*
X653823Y298856D01*
X653823Y266856D01*
D11*
X635466Y385655D02*
X631738Y385655D01*
X633602Y387519D02*
X633602Y383790D01*
X637351Y386587D02*
X639215Y388451D01*
X639215Y382858D01*
X637351Y382858D02*
X641079Y382858D01*
X642964Y382858D02*
X646692Y382858D01*
X642964Y382858D02*
X646692Y386587D01*
X646692Y387519D01*
X645760Y388451D01*
X643896Y388451D01*
X642964Y387519D01*
X648577Y388451D02*
X648577Y384722D01*
X650441Y382858D01*
X652305Y384722D01*
X652305Y388451D01*
D15*
X652407Y390307D02*
X620407Y390307D01*
X620407Y422307D01*
X652407Y422307D01*
X652407Y390307D01*
D11*
X629373Y320868D02*
X629373Y315276D01*
X629373Y320868D02*
X632169Y320868D01*
X633101Y319936D01*
X633101Y318072D01*
X632169Y317140D01*
X629373Y317140D01*
X634986Y315276D02*
X634986Y319004D01*
X636850Y320868D01*
X638714Y319004D01*
X638714Y315276D01*
X638714Y318072D02*
X634986Y318072D01*
X640599Y320868D02*
X640599Y315276D01*
X643395Y315276D01*
X644328Y316208D01*
X644328Y319936D01*
X643395Y320868D01*
X640599Y320868D01*
X646212Y314344D02*
X649941Y314344D01*
X651825Y319936D02*
X652757Y320868D01*
X654622Y320868D01*
X655554Y319936D01*
X655554Y319004D01*
X654622Y318072D01*
X653689Y318072D01*
X654622Y318072D02*
X655554Y317140D01*
X655554Y316208D01*
X654622Y315276D01*
X652757Y315276D01*
X651825Y316208D01*
D15*
X655655Y322724D02*
X623655Y322724D01*
X623655Y354724D01*
X655655Y354724D01*
X655655Y322724D01*
D11*
X582301Y21675D02*
X578572Y21675D01*
X578572Y16082D01*
X582301Y16082D01*
X580436Y18878D02*
X578572Y18878D01*
X584185Y16082D02*
X584185Y21675D01*
X587914Y16082D01*
X587914Y21675D01*
X592595Y21675D02*
X593527Y20743D01*
X592595Y21675D02*
X590730Y21675D01*
X589798Y20743D01*
X589798Y17014D01*
X590730Y16082D01*
X592595Y16082D01*
X593527Y17014D01*
X593527Y18878D01*
X591662Y18878D01*
X595411Y15150D02*
X599140Y15150D01*
X601024Y17014D02*
X601957Y16082D01*
X603821Y16082D01*
X604753Y17014D01*
X604753Y20743D01*
X603821Y21675D01*
X601957Y21675D01*
X601024Y20743D01*
X601024Y19811D01*
X601957Y18878D01*
X604753Y18878D01*
D15*
X604854Y23530D02*
X572854Y23530D01*
X572854Y55530D01*
X604854Y55530D01*
X604854Y23530D01*
D11*
X589205Y125932D02*
X589205Y131525D01*
X592001Y131525D01*
X592934Y130593D01*
X592934Y128729D01*
X592001Y127797D01*
X589205Y127797D01*
X596682Y125932D02*
X596682Y131525D01*
X594818Y131525D02*
X598547Y131525D01*
X601363Y131525D02*
X603228Y131525D01*
X601363Y131525D02*
X600431Y130593D01*
X600431Y126864D01*
X601363Y125932D01*
X603228Y125932D01*
X604160Y126864D01*
X604160Y130593D01*
X603228Y131525D01*
D15*
X604261Y133381D02*
X572261Y133381D01*
X572261Y165381D01*
X604261Y165381D01*
X604261Y133381D01*
D11*
X589205Y131525D02*
X589205Y125932D01*
X589205Y131525D02*
X592001Y131525D01*
X592934Y130593D01*
X592934Y128729D01*
X592001Y127797D01*
X589205Y127797D01*
X596682Y125932D02*
X596682Y131525D01*
X594818Y131525D02*
X598547Y131525D01*
X601363Y131525D02*
X603228Y131525D01*
X601363Y131525D02*
X600431Y130593D01*
X600431Y126864D01*
X601363Y125932D01*
X603228Y125932D01*
X604160Y126864D01*
X604160Y130593D01*
X603228Y131525D01*
X648428Y49656D02*
X649360Y48724D01*
X648428Y49656D02*
X646564Y49656D01*
X645632Y48724D01*
X645632Y47792D01*
X646564Y46860D01*
X648428Y46860D01*
X649360Y45927D01*
X649360Y44995D01*
X648428Y44063D01*
X646564Y44063D01*
X645632Y44995D01*
X654041Y49656D02*
X654973Y48724D01*
X654041Y49656D02*
X652177Y49656D01*
X651245Y48724D01*
X651245Y47792D01*
X652177Y46860D01*
X654041Y46860D01*
X654973Y45927D01*
X654973Y44995D01*
X654041Y44063D01*
X652177Y44063D01*
X651245Y44995D01*
D15*
X655075Y51512D02*
X623075Y51512D01*
X623075Y83512D01*
X655075Y83512D01*
X655075Y51512D01*
D11*
X643629Y98778D02*
X643629Y104370D01*
X643629Y101574D02*
X647357Y101574D01*
X647357Y104370D02*
X647357Y98778D01*
X649242Y98778D02*
X649242Y104370D01*
X652038Y104370D01*
X652970Y103438D01*
X652970Y102506D01*
X652038Y101574D01*
X652970Y100642D01*
X652970Y99710D01*
X652038Y98778D01*
X649242Y98778D01*
X649242Y101574D02*
X652038Y101574D01*
D15*
X653072Y106226D02*
X621072Y106226D01*
X621072Y138226D01*
X653072Y138226D01*
X653072Y106226D01*
D12*
X375126Y367515D02*
X358856Y367515D01*
X369702Y367515D02*
X358856Y378361D01*
X366991Y370226D02*
X375126Y378361D01*
X375126Y383886D02*
X375126Y394733D01*
X375126Y383886D02*
X364279Y394733D01*
X361567Y394733D01*
X358856Y392021D01*
X358856Y386598D01*
X361567Y383886D01*
D15*
X379200Y234700D02*
X608200Y234700D01*
X379200Y234700D02*
X379200Y431700D01*
X608200Y431700D01*
X608200Y234700D01*
D11*
X152530Y40630D02*
X123070Y40630D01*
X152530Y40630D02*
X152530Y28970D01*
X123070Y28970D01*
X123070Y40630D01*
X125740Y46251D02*
X124808Y47183D01*
X122944Y47183D01*
X122012Y46251D01*
X122012Y42522D01*
X122944Y41590D01*
X124808Y41590D01*
X125740Y42522D01*
X127625Y45319D02*
X129489Y47183D01*
X129489Y41590D01*
X127625Y41590D02*
X131353Y41590D01*
X133238Y42522D02*
X133238Y46251D01*
X134170Y47183D01*
X136034Y47183D01*
X136967Y46251D01*
X136967Y42522D01*
X136034Y41590D01*
X134170Y41590D01*
X133238Y42522D01*
X136967Y46251D01*
D12*
X45620Y109380D02*
X45620Y111920D01*
X43080Y111920D01*
X43080Y96680D02*
X45620Y96680D01*
X45620Y99220D01*
X32920Y96680D02*
X30380Y96680D01*
X30380Y99220D01*
X30380Y109380D02*
X30380Y111920D01*
X32920Y111920D01*
D15*
X46396Y109934D02*
X46396Y98495D01*
X52116Y98495D01*
X54022Y100401D01*
X54022Y108028D01*
X52116Y109934D01*
X46396Y109934D01*
X58090Y106121D02*
X58090Y98495D01*
X58090Y106121D02*
X61903Y109934D01*
X65716Y106121D01*
X65716Y98495D01*
X65716Y104215D02*
X58090Y104215D01*
X73597Y109934D02*
X73597Y98495D01*
X69784Y109934D02*
X77410Y109934D01*
X47000Y113300D02*
X47000Y95300D01*
X29000Y95300D01*
X29000Y113300D01*
X47000Y113300D01*
D12*
X45820Y135380D02*
X45820Y137920D01*
X43280Y137920D01*
X43280Y122680D02*
X45820Y122680D01*
X45820Y125220D01*
X33120Y122680D02*
X30580Y122680D01*
X30580Y125220D01*
X30580Y135380D02*
X30580Y137920D01*
X33120Y137920D01*
D15*
X52316Y135934D02*
X54222Y134028D01*
X52316Y135934D02*
X48502Y135934D01*
X46596Y134028D01*
X46596Y126401D01*
X48502Y124495D01*
X52316Y124495D01*
X54222Y126401D01*
X58290Y124495D02*
X58290Y135934D01*
X58290Y124495D02*
X65916Y124495D01*
X69984Y124495D02*
X69984Y135934D01*
X69984Y128308D02*
X77610Y135934D01*
X71890Y130215D02*
X77610Y124495D01*
X47200Y121300D02*
X47200Y139300D01*
X47200Y121300D02*
X29200Y121300D01*
X29200Y139300D01*
X47200Y139300D01*
D12*
X45020Y35820D02*
X45020Y33280D01*
X45020Y35820D02*
X42480Y35820D01*
X42480Y20580D02*
X45020Y20580D01*
X45020Y23120D01*
X32320Y20580D02*
X29780Y20580D01*
X29780Y23120D01*
X29780Y33280D02*
X29780Y35820D01*
X32320Y35820D01*
D15*
X51516Y33834D02*
X53422Y31928D01*
X51516Y33834D02*
X47702Y33834D01*
X45796Y31928D01*
X45796Y24301D01*
X47702Y22395D01*
X51516Y22395D01*
X53422Y24301D01*
X57490Y22395D02*
X57490Y33834D01*
X57490Y22395D02*
X65116Y22395D01*
X69184Y22395D02*
X69184Y33834D01*
X74904Y33834D01*
X76810Y31928D01*
X76810Y28115D01*
X74904Y26208D01*
X69184Y26208D01*
X72997Y26208D02*
X76810Y22395D01*
X46400Y19200D02*
X46400Y37200D01*
X46400Y19200D02*
X28400Y19200D01*
X28400Y37200D01*
X46400Y37200D01*
X51516Y33834D02*
X53422Y31928D01*
X51516Y33834D02*
X47702Y33834D01*
X45796Y31928D01*
X45796Y24301D01*
X47702Y22395D01*
X51516Y22395D01*
X53422Y24301D01*
X57490Y22395D02*
X57490Y33834D01*
X57490Y22395D02*
X65116Y22395D01*
X69184Y22395D02*
X69184Y33834D01*
X74904Y33834D01*
X76810Y31928D01*
X76810Y28115D01*
X74904Y26208D01*
X69184Y26208D01*
X72997Y26208D02*
X76810Y22395D01*
D12*
X44920Y84980D02*
X44920Y87520D01*
X42380Y87520D01*
X42380Y72280D02*
X44920Y72280D01*
X44920Y74820D01*
X32220Y72280D02*
X29680Y72280D01*
X29680Y74820D01*
X29680Y84980D02*
X29680Y87520D01*
X32220Y87520D01*
D15*
X51416Y85534D02*
X53322Y83628D01*
X51416Y85534D02*
X47602Y85534D01*
X45696Y83628D01*
X45696Y76001D01*
X47602Y74095D01*
X51416Y74095D01*
X53322Y76001D01*
X53322Y79815D01*
X49509Y79815D01*
X57390Y74095D02*
X57390Y85534D01*
X65016Y74095D01*
X65016Y85534D01*
X69084Y85534D02*
X69084Y74095D01*
X74804Y74095D01*
X76710Y76001D01*
X76710Y83628D01*
X74804Y85534D01*
X69084Y85534D01*
X46300Y88900D02*
X46300Y70900D01*
X28300Y70900D01*
X28300Y88900D01*
X46300Y88900D01*
D12*
X44920Y61420D02*
X44920Y58880D01*
X44920Y61420D02*
X42380Y61420D01*
X42380Y46180D02*
X44920Y46180D01*
X44920Y48720D01*
X32220Y46180D02*
X29680Y46180D01*
X29680Y48720D01*
X29680Y58880D02*
X29680Y61420D01*
X32220Y61420D01*
D15*
X45696Y59434D02*
X45696Y51808D01*
X49509Y47995D01*
X53322Y51808D01*
X53322Y59434D01*
X63110Y59434D02*
X65016Y57528D01*
X63110Y59434D02*
X59296Y59434D01*
X57390Y57528D01*
X57390Y49901D01*
X59296Y47995D01*
X63110Y47995D01*
X65016Y49901D01*
X74804Y59434D02*
X76710Y57528D01*
X74804Y59434D02*
X70990Y59434D01*
X69084Y57528D01*
X69084Y49901D01*
X70990Y47995D01*
X74804Y47995D01*
X76710Y49901D01*
X46300Y44800D02*
X46300Y62800D01*
X46300Y44800D02*
X28300Y44800D01*
X28300Y62800D01*
X46300Y62800D01*
D17*
X26552Y219545D02*
X131457Y219654D01*
X131354Y274845D02*
X26473Y274833D01*
X26473Y218893D01*
X131406Y219036D02*
X131354Y274845D01*
D18*
X134498Y213908D02*
X146192Y213908D01*
X134498Y213908D02*
X134498Y219755D01*
X136447Y221704D01*
X140345Y221704D01*
X142294Y219755D01*
X142294Y213908D01*
X146192Y225602D02*
X134498Y225602D01*
X134498Y231449D01*
X136447Y233398D01*
X140345Y233398D01*
X142294Y231449D01*
X142294Y225602D01*
X142294Y229500D02*
X146192Y233398D01*
X146192Y237296D02*
X146192Y245092D01*
X146192Y237296D02*
X138396Y245092D01*
X136447Y245092D01*
X134498Y243143D01*
X134498Y239245D01*
X136447Y237296D01*
X136447Y248990D02*
X144243Y248990D01*
X136447Y248990D02*
X134498Y250939D01*
X134498Y254837D01*
X136447Y256786D01*
X144243Y256786D01*
X146192Y254837D01*
X146192Y250939D01*
X144243Y248990D01*
X136447Y256786D01*
D15*
X131600Y275700D02*
X25600Y275700D01*
X131600Y275700D02*
X131600Y218700D01*
X25600Y218700D01*
X25600Y275700D01*
D18*
X134498Y213908D02*
X146192Y213908D01*
X134498Y213908D02*
X134498Y219755D01*
X136447Y221704D01*
X140345Y221704D01*
X142294Y219755D01*
X142294Y213908D01*
X146192Y225602D02*
X134498Y225602D01*
X134498Y231449D01*
X136447Y233398D01*
X140345Y233398D01*
X142294Y231449D01*
X142294Y225602D01*
X142294Y229500D02*
X146192Y233398D01*
X146192Y237296D02*
X146192Y245092D01*
X146192Y237296D02*
X138396Y245092D01*
X136447Y245092D01*
X134498Y243143D01*
X134498Y239245D01*
X136447Y237296D01*
X136447Y248990D02*
X144243Y248990D01*
X136447Y248990D02*
X134498Y250939D01*
X134498Y254837D01*
X136447Y256786D01*
X144243Y256786D01*
X146192Y254837D01*
X146192Y250939D01*
X144243Y248990D01*
X136447Y256786D01*
D11*
X95930Y283770D02*
X95930Y313230D01*
X95930Y283770D02*
X76270Y283770D01*
X76270Y313230D01*
X95930Y313230D01*
D14*
X79877Y317677D02*
X79877Y321490D01*
X82419Y321490D01*
X81148Y319584D02*
X79877Y319584D01*
X83619Y321490D02*
X86161Y321490D01*
X83619Y321490D02*
X83619Y317677D01*
X86161Y317677D01*
X84890Y319584D02*
X83619Y319584D01*
X87361Y317677D02*
X87361Y321490D01*
X89268Y321490D01*
X89903Y320855D01*
X89903Y319584D01*
X89268Y318948D01*
X87361Y318948D01*
X88632Y318948D02*
X89903Y317677D01*
X91103Y317677D02*
X92374Y317677D01*
X91739Y317677D02*
X91739Y321490D01*
X92374Y321490D02*
X91103Y321490D01*
X94869Y321490D02*
X94869Y317677D01*
X93598Y321490D02*
X96140Y321490D01*
X97340Y321490D02*
X99882Y321490D01*
X97340Y321490D02*
X97340Y317677D01*
X99882Y317677D01*
X98611Y319584D02*
X97340Y319584D01*
X79877Y317677D02*
X79877Y321490D01*
X82419Y321490D01*
X81148Y319584D02*
X79877Y319584D01*
X83619Y321490D02*
X86161Y321490D01*
X83619Y321490D02*
X83619Y317677D01*
X86161Y317677D01*
X84890Y319584D02*
X83619Y319584D01*
X87361Y317677D02*
X87361Y321490D01*
X89268Y321490D01*
X89903Y320855D01*
X89903Y319584D01*
X89268Y318948D01*
X87361Y318948D01*
X88632Y318948D02*
X89903Y317677D01*
X91103Y317677D02*
X92374Y317677D01*
X91739Y317677D02*
X91739Y321490D01*
X92374Y321490D02*
X91103Y321490D01*
X94869Y321490D02*
X94869Y317677D01*
X93598Y321490D02*
X96140Y321490D01*
X97340Y321490D02*
X99882Y321490D01*
X97340Y321490D02*
X97340Y317677D01*
X99882Y317677D01*
X98611Y319584D02*
X97340Y319584D01*
D12*
X209340Y445050D02*
X229660Y445050D01*
D11*
X208070Y432350D02*
X208070Y362500D01*
X230930Y362500D02*
X230930Y292650D01*
X227120Y337100D02*
X227120Y362500D01*
X211880Y362500D02*
X211880Y387900D01*
D12*
X242360Y399330D02*
X242360Y343450D01*
X196640Y325670D02*
X196640Y381550D01*
X196642Y381708D01*
X196648Y381867D01*
X196658Y382025D01*
X196672Y382182D01*
X196689Y382340D01*
X196711Y382496D01*
X196736Y382653D01*
X196766Y382808D01*
X196799Y382963D01*
X196836Y383117D01*
X196877Y383270D01*
X196922Y383422D01*
X196971Y383572D01*
X197023Y383722D01*
X197079Y383870D01*
X197139Y384017D01*
X197202Y384162D01*
X197269Y384305D01*
X197339Y384447D01*
X197413Y384587D01*
X197491Y384725D01*
X197572Y384861D01*
X197656Y384995D01*
X197743Y385127D01*
X197834Y385257D01*
X197928Y385384D01*
X198025Y385509D01*
X198126Y385632D01*
X198229Y385752D01*
X198335Y385869D01*
X198444Y385984D01*
X198556Y386096D01*
X198671Y386205D01*
X198788Y386311D01*
X198908Y386414D01*
X199031Y386515D01*
X199156Y386612D01*
X199283Y386706D01*
X199413Y386797D01*
X199545Y386884D01*
X199679Y386968D01*
X199815Y387049D01*
X199953Y387127D01*
X200093Y387201D01*
X200235Y387271D01*
X200378Y387338D01*
X200523Y387401D01*
X200670Y387461D01*
X200818Y387517D01*
X200968Y387569D01*
X201118Y387618D01*
X201270Y387663D01*
X201423Y387704D01*
X201577Y387741D01*
X201732Y387774D01*
X201887Y387804D01*
X202044Y387829D01*
X202200Y387851D01*
X202358Y387868D01*
X202515Y387882D01*
X202673Y387892D01*
X202832Y387898D01*
X202990Y387900D01*
X242360Y343450D02*
X242358Y343292D01*
X242352Y343133D01*
X242342Y342975D01*
X242328Y342818D01*
X242311Y342660D01*
X242289Y342504D01*
X242264Y342347D01*
X242234Y342192D01*
X242201Y342037D01*
X242164Y341883D01*
X242123Y341730D01*
X242078Y341578D01*
X242029Y341428D01*
X241977Y341278D01*
X241921Y341130D01*
X241861Y340983D01*
X241798Y340838D01*
X241731Y340695D01*
X241661Y340553D01*
X241587Y340413D01*
X241509Y340275D01*
X241428Y340139D01*
X241344Y340005D01*
X241257Y339873D01*
X241166Y339743D01*
X241072Y339616D01*
X240975Y339491D01*
X240874Y339368D01*
X240771Y339248D01*
X240665Y339131D01*
X240556Y339016D01*
X240444Y338904D01*
X240329Y338795D01*
X240212Y338689D01*
X240092Y338586D01*
X239969Y338485D01*
X239844Y338388D01*
X239717Y338294D01*
X239587Y338203D01*
X239455Y338116D01*
X239321Y338032D01*
X239185Y337951D01*
X239047Y337873D01*
X238907Y337799D01*
X238765Y337729D01*
X238622Y337662D01*
X238477Y337599D01*
X238330Y337539D01*
X238182Y337483D01*
X238032Y337431D01*
X237882Y337382D01*
X237730Y337337D01*
X237577Y337296D01*
X237423Y337259D01*
X237268Y337226D01*
X237113Y337196D01*
X236956Y337171D01*
X236800Y337149D01*
X236642Y337132D01*
X236485Y337118D01*
X236327Y337108D01*
X236168Y337102D01*
X236010Y337100D01*
X236010Y286300D02*
X236010Y389170D01*
X202990Y438700D02*
X202990Y335830D01*
X236010Y286300D02*
X236008Y286142D01*
X236002Y285983D01*
X235992Y285825D01*
X235978Y285668D01*
X235961Y285510D01*
X235939Y285354D01*
X235914Y285197D01*
X235884Y285042D01*
X235851Y284887D01*
X235814Y284733D01*
X235773Y284580D01*
X235728Y284428D01*
X235679Y284278D01*
X235627Y284128D01*
X235571Y283980D01*
X235511Y283833D01*
X235448Y283688D01*
X235381Y283545D01*
X235311Y283403D01*
X235237Y283263D01*
X235159Y283125D01*
X235078Y282989D01*
X234994Y282855D01*
X234907Y282723D01*
X234816Y282593D01*
X234722Y282466D01*
X234625Y282341D01*
X234524Y282218D01*
X234421Y282098D01*
X234315Y281981D01*
X234206Y281866D01*
X234094Y281754D01*
X233979Y281645D01*
X233862Y281539D01*
X233742Y281436D01*
X233619Y281335D01*
X233494Y281238D01*
X233367Y281144D01*
X233237Y281053D01*
X233105Y280966D01*
X232971Y280882D01*
X232835Y280801D01*
X232697Y280723D01*
X232557Y280649D01*
X232415Y280579D01*
X232272Y280512D01*
X232127Y280449D01*
X231980Y280389D01*
X231832Y280333D01*
X231682Y280281D01*
X231532Y280232D01*
X231380Y280187D01*
X231227Y280146D01*
X231073Y280109D01*
X230918Y280076D01*
X230763Y280046D01*
X230606Y280021D01*
X230450Y279999D01*
X230292Y279982D01*
X230135Y279968D01*
X229977Y279958D01*
X229818Y279952D01*
X229660Y279950D01*
X209340Y279950D02*
X209182Y279952D01*
X209023Y279958D01*
X208865Y279968D01*
X208708Y279982D01*
X208550Y279999D01*
X208394Y280021D01*
X208237Y280046D01*
X208082Y280076D01*
X207927Y280109D01*
X207773Y280146D01*
X207620Y280187D01*
X207468Y280232D01*
X207318Y280281D01*
X207168Y280333D01*
X207020Y280389D01*
X206873Y280449D01*
X206728Y280512D01*
X206585Y280579D01*
X206443Y280649D01*
X206303Y280723D01*
X206165Y280801D01*
X206029Y280882D01*
X205895Y280966D01*
X205763Y281053D01*
X205633Y281144D01*
X205506Y281238D01*
X205381Y281335D01*
X205258Y281436D01*
X205138Y281539D01*
X205021Y281645D01*
X204906Y281754D01*
X204794Y281866D01*
X204685Y281981D01*
X204579Y282098D01*
X204476Y282218D01*
X204375Y282341D01*
X204278Y282466D01*
X204184Y282593D01*
X204093Y282723D01*
X204006Y282855D01*
X203922Y282989D01*
X203841Y283125D01*
X203763Y283263D01*
X203689Y283403D01*
X203619Y283545D01*
X203552Y283688D01*
X203489Y283833D01*
X203429Y283980D01*
X203373Y284128D01*
X203321Y284278D01*
X203272Y284428D01*
X203227Y284580D01*
X203186Y284733D01*
X203149Y284887D01*
X203116Y285042D01*
X203086Y285197D01*
X203061Y285354D01*
X203039Y285510D01*
X203022Y285668D01*
X203008Y285825D01*
X202998Y285983D01*
X202992Y286142D01*
X202990Y286300D01*
X202990Y438700D02*
X202992Y438858D01*
X202998Y439017D01*
X203008Y439175D01*
X203022Y439332D01*
X203039Y439490D01*
X203061Y439646D01*
X203086Y439803D01*
X203116Y439958D01*
X203149Y440113D01*
X203186Y440267D01*
X203227Y440420D01*
X203272Y440572D01*
X203321Y440722D01*
X203373Y440872D01*
X203429Y441020D01*
X203489Y441167D01*
X203552Y441312D01*
X203619Y441455D01*
X203689Y441597D01*
X203763Y441737D01*
X203841Y441875D01*
X203922Y442011D01*
X204006Y442145D01*
X204093Y442277D01*
X204184Y442407D01*
X204278Y442534D01*
X204375Y442659D01*
X204476Y442782D01*
X204579Y442902D01*
X204685Y443019D01*
X204794Y443134D01*
X204906Y443246D01*
X205021Y443355D01*
X205138Y443461D01*
X205258Y443564D01*
X205381Y443665D01*
X205506Y443762D01*
X205633Y443856D01*
X205763Y443947D01*
X205895Y444034D01*
X206029Y444118D01*
X206165Y444199D01*
X206303Y444277D01*
X206443Y444351D01*
X206585Y444421D01*
X206728Y444488D01*
X206873Y444551D01*
X207020Y444611D01*
X207168Y444667D01*
X207318Y444719D01*
X207468Y444768D01*
X207620Y444813D01*
X207773Y444854D01*
X207927Y444891D01*
X208082Y444924D01*
X208237Y444954D01*
X208394Y444979D01*
X208550Y445001D01*
X208708Y445018D01*
X208865Y445032D01*
X209023Y445042D01*
X209182Y445048D01*
X209340Y445050D01*
X229660Y445050D02*
X229818Y445048D01*
X229977Y445042D01*
X230135Y445032D01*
X230292Y445018D01*
X230450Y445001D01*
X230606Y444979D01*
X230763Y444954D01*
X230918Y444924D01*
X231073Y444891D01*
X231227Y444854D01*
X231380Y444813D01*
X231532Y444768D01*
X231682Y444719D01*
X231832Y444667D01*
X231980Y444611D01*
X232127Y444551D01*
X232272Y444488D01*
X232415Y444421D01*
X232557Y444351D01*
X232697Y444277D01*
X232835Y444199D01*
X232971Y444118D01*
X233105Y444034D01*
X233237Y443947D01*
X233367Y443856D01*
X233494Y443762D01*
X233619Y443665D01*
X233742Y443564D01*
X233862Y443461D01*
X233979Y443355D01*
X234094Y443246D01*
X234206Y443134D01*
X234315Y443019D01*
X234421Y442902D01*
X234524Y442782D01*
X234625Y442659D01*
X234722Y442534D01*
X234816Y442407D01*
X234907Y442277D01*
X234994Y442145D01*
X235078Y442011D01*
X235159Y441875D01*
X235237Y441737D01*
X235311Y441597D01*
X235381Y441455D01*
X235448Y441312D01*
X235511Y441167D01*
X235571Y441020D01*
X235627Y440872D01*
X235679Y440722D01*
X235728Y440572D01*
X235773Y440420D01*
X235814Y440267D01*
X235851Y440113D01*
X235884Y439958D01*
X235914Y439803D01*
X235939Y439646D01*
X235961Y439490D01*
X235978Y439332D01*
X235992Y439175D01*
X236002Y439017D01*
X236008Y438858D01*
X236010Y438700D01*
X229660Y279950D02*
X209340Y279950D01*
X236010Y412030D02*
X236010Y438700D01*
X202990Y312970D02*
X202990Y286300D01*
D15*
X192195Y299635D02*
X180755Y299635D01*
X180755Y305355D01*
X182662Y307262D01*
X186475Y307262D01*
X188382Y305355D01*
X188382Y299635D01*
X188382Y303448D02*
X192195Y307262D01*
X184569Y311329D02*
X180755Y315142D01*
X192195Y315142D01*
X192195Y311329D02*
X192195Y318955D01*
X190288Y323023D02*
X182662Y323023D01*
X180755Y324930D01*
X180755Y328743D01*
X182662Y330649D01*
X190288Y330649D01*
X192195Y328743D01*
X192195Y324930D01*
X190288Y323023D01*
X182662Y330649D01*
X180755Y299635D02*
X192195Y299635D01*
X180755Y299635D02*
X180755Y305355D01*
X182662Y307262D01*
X186475Y307262D01*
X188382Y305355D01*
X188382Y299635D01*
X188382Y303448D02*
X192195Y307262D01*
X184569Y311329D02*
X180755Y315142D01*
X192195Y315142D01*
X192195Y311329D02*
X192195Y318955D01*
X190288Y323023D02*
X182662Y323023D01*
X180755Y324930D01*
X180755Y328743D01*
X182662Y330649D01*
X190288Y330649D01*
X192195Y328743D01*
X192195Y324930D01*
X190288Y323023D01*
X182662Y330649D01*
D12*
X331200Y306610D02*
X331200Y305340D01*
D13*
X331200Y300260D02*
X323580Y300260D01*
X331200Y300260D02*
X338820Y300260D01*
D12*
X331200Y300260D02*
X331200Y298990D01*
D11*
X313428Y291441D02*
X312496Y290509D01*
X312496Y288645D01*
X313428Y287713D01*
X317157Y287713D01*
X318089Y288645D01*
X318089Y290509D01*
X317157Y291441D01*
X314360Y293326D02*
X312496Y295190D01*
X318089Y295190D01*
X318089Y293326D02*
X318089Y297055D01*
X314360Y298939D02*
X312496Y300803D01*
X318089Y300803D01*
X318089Y298939D02*
X318089Y302668D01*
D14*
X322091Y280975D02*
X322091Y280880D01*
D15*
X305800Y302800D02*
X305808Y303423D01*
X305831Y304046D01*
X305869Y304669D01*
X305922Y305290D01*
X305991Y305909D01*
X306075Y306527D01*
X306174Y307142D01*
X306288Y307755D01*
X306417Y308365D01*
X306561Y308972D01*
X306720Y309575D01*
X306894Y310173D01*
X307082Y310768D01*
X307285Y311357D01*
X307502Y311941D01*
X307733Y312520D01*
X307979Y313093D01*
X308239Y313660D01*
X308512Y314220D01*
X308799Y314773D01*
X309100Y315320D01*
X309414Y315858D01*
X309741Y316389D01*
X310081Y316911D01*
X310433Y317426D01*
X310799Y317931D01*
X311176Y318427D01*
X311566Y318914D01*
X311967Y319391D01*
X312380Y319858D01*
X312804Y320314D01*
X313239Y320761D01*
X313686Y321196D01*
X314142Y321620D01*
X314609Y322033D01*
X315086Y322434D01*
X315573Y322824D01*
X316069Y323201D01*
X316574Y323567D01*
X317089Y323919D01*
X317611Y324259D01*
X318142Y324586D01*
X318680Y324900D01*
X319227Y325201D01*
X319780Y325488D01*
X320340Y325761D01*
X320907Y326021D01*
X321480Y326267D01*
X322059Y326498D01*
X322643Y326715D01*
X323232Y326918D01*
X323827Y327106D01*
X324425Y327280D01*
X325028Y327439D01*
X325635Y327583D01*
X326245Y327712D01*
X326858Y327826D01*
X327473Y327925D01*
X328091Y328009D01*
X328710Y328078D01*
X329331Y328131D01*
X329954Y328169D01*
X330577Y328192D01*
X331200Y328200D01*
X331823Y328192D01*
X332446Y328169D01*
X333069Y328131D01*
X333690Y328078D01*
X334309Y328009D01*
X334927Y327925D01*
X335542Y327826D01*
X336155Y327712D01*
X336765Y327583D01*
X337372Y327439D01*
X337975Y327280D01*
X338573Y327106D01*
X339168Y326918D01*
X339757Y326715D01*
X340341Y326498D01*
X340920Y326267D01*
X341493Y326021D01*
X342060Y325761D01*
X342620Y325488D01*
X343173Y325201D01*
X343720Y324900D01*
X344258Y324586D01*
X344789Y324259D01*
X345311Y323919D01*
X345826Y323567D01*
X346331Y323201D01*
X346827Y322824D01*
X347314Y322434D01*
X347791Y322033D01*
X348258Y321620D01*
X348714Y321196D01*
X349161Y320761D01*
X349596Y320314D01*
X350020Y319858D01*
X350433Y319391D01*
X350834Y318914D01*
X351224Y318427D01*
X351601Y317931D01*
X351967Y317426D01*
X352319Y316911D01*
X352659Y316389D01*
X352986Y315858D01*
X353300Y315320D01*
X353601Y314773D01*
X353888Y314220D01*
X354161Y313660D01*
X354421Y313093D01*
X354667Y312520D01*
X354898Y311941D01*
X355115Y311357D01*
X355318Y310768D01*
X355506Y310173D01*
X355680Y309575D01*
X355839Y308972D01*
X355983Y308365D01*
X356112Y307755D01*
X356226Y307142D01*
X356325Y306527D01*
X356409Y305909D01*
X356478Y305290D01*
X356531Y304669D01*
X356569Y304046D01*
X356592Y303423D01*
X356600Y302800D01*
X356592Y302177D01*
X356569Y301554D01*
X356531Y300931D01*
X356478Y300310D01*
X356409Y299691D01*
X356325Y299073D01*
X356226Y298458D01*
X356112Y297845D01*
X355983Y297235D01*
X355839Y296628D01*
X355680Y296025D01*
X355506Y295427D01*
X355318Y294832D01*
X355115Y294243D01*
X354898Y293659D01*
X354667Y293080D01*
X354421Y292507D01*
X354161Y291940D01*
X353888Y291380D01*
X353601Y290827D01*
X353300Y290280D01*
X352986Y289742D01*
X352659Y289211D01*
X352319Y288689D01*
X351967Y288174D01*
X351601Y287669D01*
X351224Y287173D01*
X350834Y286686D01*
X350433Y286209D01*
X350020Y285742D01*
X349596Y285286D01*
X349161Y284839D01*
X348714Y284404D01*
X348258Y283980D01*
X347791Y283567D01*
X347314Y283166D01*
X346827Y282776D01*
X346331Y282399D01*
X345826Y282033D01*
X345311Y281681D01*
X344789Y281341D01*
X344258Y281014D01*
X343720Y280700D01*
X343173Y280399D01*
X342620Y280112D01*
X342060Y279839D01*
X341493Y279579D01*
X340920Y279333D01*
X340341Y279102D01*
X339757Y278885D01*
X339168Y278682D01*
X338573Y278494D01*
X337975Y278320D01*
X337372Y278161D01*
X336765Y278017D01*
X336155Y277888D01*
X335542Y277774D01*
X334927Y277675D01*
X334309Y277591D01*
X333690Y277522D01*
X333069Y277469D01*
X332446Y277431D01*
X331823Y277408D01*
X331200Y277400D01*
X330577Y277408D01*
X329954Y277431D01*
X329331Y277469D01*
X328710Y277522D01*
X328091Y277591D01*
X327473Y277675D01*
X326858Y277774D01*
X326245Y277888D01*
X325635Y278017D01*
X325028Y278161D01*
X324425Y278320D01*
X323827Y278494D01*
X323232Y278682D01*
X322643Y278885D01*
X322059Y279102D01*
X321480Y279333D01*
X320907Y279579D01*
X320340Y279839D01*
X319780Y280112D01*
X319227Y280399D01*
X318680Y280700D01*
X318142Y281014D01*
X317611Y281341D01*
X317089Y281681D01*
X316574Y282033D01*
X316069Y282399D01*
X315573Y282776D01*
X315086Y283166D01*
X314609Y283567D01*
X314142Y283980D01*
X313686Y284404D01*
X313239Y284839D01*
X312804Y285286D01*
X312380Y285742D01*
X311967Y286209D01*
X311566Y286686D01*
X311176Y287173D01*
X310799Y287669D01*
X310433Y288174D01*
X310081Y288689D01*
X309741Y289211D01*
X309414Y289742D01*
X309100Y290280D01*
X308799Y290827D01*
X308512Y291380D01*
X308239Y291940D01*
X307979Y292507D01*
X307733Y293080D01*
X307502Y293659D01*
X307285Y294243D01*
X307082Y294832D01*
X306894Y295427D01*
X306720Y296025D01*
X306561Y296628D01*
X306417Y297235D01*
X306288Y297845D01*
X306174Y298458D01*
X306075Y299073D01*
X305991Y299691D01*
X305922Y300310D01*
X305869Y300931D01*
X305831Y301554D01*
X305808Y302177D01*
X305800Y302800D01*
D13*
X324200Y309800D02*
X324270Y309631D01*
X324344Y309463D01*
X324422Y309297D01*
X324504Y309134D01*
X324590Y308972D01*
X324680Y308812D01*
X324774Y308655D01*
X324872Y308500D01*
X324973Y308348D01*
X325078Y308197D01*
X325187Y308050D01*
X325299Y307905D01*
X325415Y307763D01*
X325534Y307624D01*
X325657Y307488D01*
X325782Y307355D01*
X325911Y307225D01*
X326043Y307098D01*
X326179Y306974D01*
X326317Y306854D01*
X326458Y306737D01*
X326601Y306623D01*
X326748Y306513D01*
X326897Y306407D01*
X327049Y306304D01*
X327203Y306205D01*
X327359Y306110D01*
X327518Y306018D01*
X327679Y305931D01*
X327842Y305847D01*
X328007Y305768D01*
X328174Y305692D01*
X328342Y305621D01*
X328513Y305553D01*
X328685Y305490D01*
X328858Y305431D01*
X329033Y305376D01*
X329209Y305326D01*
X329386Y305279D01*
X329564Y305238D01*
X329744Y305200D01*
X329924Y305167D01*
X330105Y305138D01*
X330286Y305114D01*
X330468Y305094D01*
X330651Y305078D01*
X330834Y305067D01*
X331017Y305060D01*
X331200Y305058D01*
X331383Y305060D01*
X331566Y305067D01*
X331749Y305078D01*
X331932Y305094D01*
X332114Y305114D01*
X332295Y305138D01*
X332476Y305167D01*
X332656Y305200D01*
X332836Y305238D01*
X333014Y305279D01*
X333191Y305326D01*
X333367Y305376D01*
X333542Y305431D01*
X333715Y305490D01*
X333887Y305553D01*
X334058Y305621D01*
X334226Y305692D01*
X334393Y305768D01*
X334558Y305847D01*
X334721Y305931D01*
X334882Y306018D01*
X335041Y306110D01*
X335197Y306205D01*
X335351Y306304D01*
X335503Y306407D01*
X335652Y306513D01*
X335799Y306623D01*
X335942Y306737D01*
X336083Y306854D01*
X336221Y306974D01*
X336357Y307098D01*
X336489Y307225D01*
X336618Y307355D01*
X336743Y307488D01*
X336866Y307624D01*
X336985Y307763D01*
X337101Y307905D01*
X337213Y308050D01*
X337322Y308197D01*
X337427Y308348D01*
X337528Y308500D01*
X337626Y308655D01*
X337720Y308812D01*
X337810Y308972D01*
X337896Y309134D01*
X337978Y309297D01*
X338056Y309463D01*
X338130Y309631D01*
X338200Y309800D01*
D15*
X305800Y302800D02*
X305808Y303423D01*
X305831Y304046D01*
X305869Y304669D01*
X305922Y305290D01*
X305991Y305909D01*
X306075Y306527D01*
X306174Y307142D01*
X306288Y307755D01*
X306417Y308365D01*
X306561Y308972D01*
X306720Y309575D01*
X306894Y310173D01*
X307082Y310768D01*
X307285Y311357D01*
X307502Y311941D01*
X307733Y312520D01*
X307979Y313093D01*
X308239Y313660D01*
X308512Y314220D01*
X308799Y314773D01*
X309100Y315320D01*
X309414Y315858D01*
X309741Y316389D01*
X310081Y316911D01*
X310433Y317426D01*
X310799Y317931D01*
X311176Y318427D01*
X311566Y318914D01*
X311967Y319391D01*
X312380Y319858D01*
X312804Y320314D01*
X313239Y320761D01*
X313686Y321196D01*
X314142Y321620D01*
X314609Y322033D01*
X315086Y322434D01*
X315573Y322824D01*
X316069Y323201D01*
X316574Y323567D01*
X317089Y323919D01*
X317611Y324259D01*
X318142Y324586D01*
X318680Y324900D01*
X319227Y325201D01*
X319780Y325488D01*
X320340Y325761D01*
X320907Y326021D01*
X321480Y326267D01*
X322059Y326498D01*
X322643Y326715D01*
X323232Y326918D01*
X323827Y327106D01*
X324425Y327280D01*
X325028Y327439D01*
X325635Y327583D01*
X326245Y327712D01*
X326858Y327826D01*
X327473Y327925D01*
X328091Y328009D01*
X328710Y328078D01*
X329331Y328131D01*
X329954Y328169D01*
X330577Y328192D01*
X331200Y328200D01*
X331823Y328192D01*
X332446Y328169D01*
X333069Y328131D01*
X333690Y328078D01*
X334309Y328009D01*
X334927Y327925D01*
X335542Y327826D01*
X336155Y327712D01*
X336765Y327583D01*
X337372Y327439D01*
X337975Y327280D01*
X338573Y327106D01*
X339168Y326918D01*
X339757Y326715D01*
X340341Y326498D01*
X340920Y326267D01*
X341493Y326021D01*
X342060Y325761D01*
X342620Y325488D01*
X343173Y325201D01*
X343720Y324900D01*
X344258Y324586D01*
X344789Y324259D01*
X345311Y323919D01*
X345826Y323567D01*
X346331Y323201D01*
X346827Y322824D01*
X347314Y322434D01*
X347791Y322033D01*
X348258Y321620D01*
X348714Y321196D01*
X349161Y320761D01*
X349596Y320314D01*
X350020Y319858D01*
X350433Y319391D01*
X350834Y318914D01*
X351224Y318427D01*
X351601Y317931D01*
X351967Y317426D01*
X352319Y316911D01*
X352659Y316389D01*
X352986Y315858D01*
X353300Y315320D01*
X353601Y314773D01*
X353888Y314220D01*
X354161Y313660D01*
X354421Y313093D01*
X354667Y312520D01*
X354898Y311941D01*
X355115Y311357D01*
X355318Y310768D01*
X355506Y310173D01*
X355680Y309575D01*
X355839Y308972D01*
X355983Y308365D01*
X356112Y307755D01*
X356226Y307142D01*
X356325Y306527D01*
X356409Y305909D01*
X356478Y305290D01*
X356531Y304669D01*
X356569Y304046D01*
X356592Y303423D01*
X356600Y302800D01*
X356592Y302177D01*
X356569Y301554D01*
X356531Y300931D01*
X356478Y300310D01*
X356409Y299691D01*
X356325Y299073D01*
X356226Y298458D01*
X356112Y297845D01*
X355983Y297235D01*
X355839Y296628D01*
X355680Y296025D01*
X355506Y295427D01*
X355318Y294832D01*
X355115Y294243D01*
X354898Y293659D01*
X354667Y293080D01*
X354421Y292507D01*
X354161Y291940D01*
X353888Y291380D01*
X353601Y290827D01*
X353300Y290280D01*
X352986Y289742D01*
X352659Y289211D01*
X352319Y288689D01*
X351967Y288174D01*
X351601Y287669D01*
X351224Y287173D01*
X350834Y286686D01*
X350433Y286209D01*
X350020Y285742D01*
X349596Y285286D01*
X349161Y284839D01*
X348714Y284404D01*
X348258Y283980D01*
X347791Y283567D01*
X347314Y283166D01*
X346827Y282776D01*
X346331Y282399D01*
X345826Y282033D01*
X345311Y281681D01*
X344789Y281341D01*
X344258Y281014D01*
X343720Y280700D01*
X343173Y280399D01*
X342620Y280112D01*
X342060Y279839D01*
X341493Y279579D01*
X340920Y279333D01*
X340341Y279102D01*
X339757Y278885D01*
X339168Y278682D01*
X338573Y278494D01*
X337975Y278320D01*
X337372Y278161D01*
X336765Y278017D01*
X336155Y277888D01*
X335542Y277774D01*
X334927Y277675D01*
X334309Y277591D01*
X333690Y277522D01*
X333069Y277469D01*
X332446Y277431D01*
X331823Y277408D01*
X331200Y277400D01*
X330577Y277408D01*
X329954Y277431D01*
X329331Y277469D01*
X328710Y277522D01*
X328091Y277591D01*
X327473Y277675D01*
X326858Y277774D01*
X326245Y277888D01*
X325635Y278017D01*
X325028Y278161D01*
X324425Y278320D01*
X323827Y278494D01*
X323232Y278682D01*
X322643Y278885D01*
X322059Y279102D01*
X321480Y279333D01*
X320907Y279579D01*
X320340Y279839D01*
X319780Y280112D01*
X319227Y280399D01*
X318680Y280700D01*
X318142Y281014D01*
X317611Y281341D01*
X317089Y281681D01*
X316574Y282033D01*
X316069Y282399D01*
X315573Y282776D01*
X315086Y283166D01*
X314609Y283567D01*
X314142Y283980D01*
X313686Y284404D01*
X313239Y284839D01*
X312804Y285286D01*
X312380Y285742D01*
X311967Y286209D01*
X311566Y286686D01*
X311176Y287173D01*
X310799Y287669D01*
X310433Y288174D01*
X310081Y288689D01*
X309741Y289211D01*
X309414Y289742D01*
X309100Y290280D01*
X308799Y290827D01*
X308512Y291380D01*
X308239Y291940D01*
X307979Y292507D01*
X307733Y293080D01*
X307502Y293659D01*
X307285Y294243D01*
X307082Y294832D01*
X306894Y295427D01*
X306720Y296025D01*
X306561Y296628D01*
X306417Y297235D01*
X306288Y297845D01*
X306174Y298458D01*
X306075Y299073D01*
X305991Y299691D01*
X305922Y300310D01*
X305869Y300931D01*
X305831Y301554D01*
X305808Y302177D01*
X305800Y302800D01*
D11*
X313428Y291441D02*
X312496Y290509D01*
X312496Y288645D01*
X313428Y287713D01*
X317157Y287713D01*
X318089Y288645D01*
X318089Y290509D01*
X317157Y291441D01*
X314360Y293326D02*
X312496Y295190D01*
X318089Y295190D01*
X318089Y293326D02*
X318089Y297055D01*
X314360Y298939D02*
X312496Y300803D01*
X318089Y300803D01*
X318089Y298939D02*
X318089Y302668D01*
D19*
X165450Y405248D02*
X159100Y405248D01*
X152750Y405248D01*
D12*
X159100Y405248D02*
X159100Y417440D01*
X159100Y398898D02*
X159100Y386960D01*
X179420Y439030D02*
X138780Y439030D01*
X136240Y436490D02*
X136240Y367910D01*
X138780Y365370D02*
X179420Y365370D01*
X181960Y367910D02*
X181960Y436490D01*
X181960Y367910D02*
X181958Y367810D01*
X181952Y367711D01*
X181942Y367611D01*
X181929Y367513D01*
X181911Y367414D01*
X181890Y367317D01*
X181865Y367221D01*
X181836Y367125D01*
X181803Y367031D01*
X181767Y366938D01*
X181727Y366847D01*
X181683Y366757D01*
X181636Y366669D01*
X181586Y366583D01*
X181532Y366499D01*
X181475Y366417D01*
X181415Y366338D01*
X181351Y366260D01*
X181285Y366186D01*
X181216Y366114D01*
X181144Y366045D01*
X181070Y365979D01*
X180992Y365915D01*
X180913Y365855D01*
X180831Y365798D01*
X180747Y365744D01*
X180661Y365694D01*
X180573Y365647D01*
X180483Y365603D01*
X180392Y365563D01*
X180299Y365527D01*
X180205Y365494D01*
X180109Y365465D01*
X180013Y365440D01*
X179916Y365419D01*
X179817Y365401D01*
X179719Y365388D01*
X179619Y365378D01*
X179520Y365372D01*
X179420Y365370D01*
X138780Y365370D02*
X138680Y365372D01*
X138581Y365378D01*
X138481Y365388D01*
X138383Y365401D01*
X138284Y365419D01*
X138187Y365440D01*
X138091Y365465D01*
X137995Y365494D01*
X137901Y365527D01*
X137808Y365563D01*
X137717Y365603D01*
X137627Y365647D01*
X137539Y365694D01*
X137453Y365744D01*
X137369Y365798D01*
X137287Y365855D01*
X137208Y365915D01*
X137130Y365979D01*
X137056Y366045D01*
X136984Y366114D01*
X136915Y366186D01*
X136849Y366260D01*
X136785Y366338D01*
X136725Y366417D01*
X136668Y366499D01*
X136614Y366583D01*
X136564Y366669D01*
X136517Y366757D01*
X136473Y366847D01*
X136433Y366938D01*
X136397Y367031D01*
X136364Y367125D01*
X136335Y367221D01*
X136310Y367317D01*
X136289Y367414D01*
X136271Y367513D01*
X136258Y367611D01*
X136248Y367711D01*
X136242Y367810D01*
X136240Y367910D01*
X136240Y436490D02*
X136242Y436590D01*
X136248Y436689D01*
X136258Y436789D01*
X136271Y436887D01*
X136289Y436986D01*
X136310Y437083D01*
X136335Y437179D01*
X136364Y437275D01*
X136397Y437369D01*
X136433Y437462D01*
X136473Y437553D01*
X136517Y437643D01*
X136564Y437731D01*
X136614Y437817D01*
X136668Y437901D01*
X136725Y437983D01*
X136785Y438062D01*
X136849Y438140D01*
X136915Y438214D01*
X136984Y438286D01*
X137056Y438355D01*
X137130Y438421D01*
X137208Y438485D01*
X137287Y438545D01*
X137369Y438602D01*
X137453Y438656D01*
X137539Y438706D01*
X137627Y438753D01*
X137717Y438797D01*
X137808Y438837D01*
X137901Y438873D01*
X137995Y438906D01*
X138091Y438935D01*
X138187Y438960D01*
X138284Y438981D01*
X138383Y438999D01*
X138481Y439012D01*
X138581Y439022D01*
X138680Y439028D01*
X138780Y439030D01*
X179420Y439030D02*
X179520Y439028D01*
X179619Y439022D01*
X179719Y439012D01*
X179817Y438999D01*
X179916Y438981D01*
X180013Y438960D01*
X180109Y438935D01*
X180205Y438906D01*
X180299Y438873D01*
X180392Y438837D01*
X180483Y438797D01*
X180573Y438753D01*
X180661Y438706D01*
X180747Y438656D01*
X180831Y438602D01*
X180913Y438545D01*
X180992Y438485D01*
X181070Y438421D01*
X181144Y438355D01*
X181216Y438286D01*
X181285Y438214D01*
X181351Y438140D01*
X181415Y438062D01*
X181475Y437983D01*
X181532Y437901D01*
X181586Y437817D01*
X181636Y437731D01*
X181683Y437643D01*
X181727Y437553D01*
X181767Y437462D01*
X181803Y437369D01*
X181836Y437275D01*
X181865Y437179D01*
X181890Y437083D01*
X181911Y436986D01*
X181929Y436887D01*
X181942Y436789D01*
X181952Y436689D01*
X181958Y436590D01*
X181960Y436490D01*
D15*
X188302Y410940D02*
X186395Y409033D01*
X186395Y405220D01*
X188302Y403313D01*
X195928Y403313D01*
X197835Y405220D01*
X197835Y409033D01*
X195928Y410940D01*
X190209Y415007D02*
X186395Y418820D01*
X197835Y418820D01*
X197835Y415007D02*
X197835Y422634D01*
X197835Y426701D02*
X197835Y434327D01*
X197835Y426701D02*
X190209Y434327D01*
X188302Y434327D01*
X186395Y432421D01*
X186395Y428608D01*
X188302Y426701D01*
D19*
X166100Y396200D02*
X165953Y396357D01*
X165803Y396511D01*
X165649Y396662D01*
X165491Y396808D01*
X165330Y396951D01*
X165165Y397089D01*
X164997Y397224D01*
X164825Y397354D01*
X164651Y397480D01*
X164473Y397602D01*
X164293Y397719D01*
X164110Y397832D01*
X163924Y397941D01*
X163735Y398045D01*
X163544Y398144D01*
X163350Y398238D01*
X163155Y398328D01*
X162957Y398412D01*
X162757Y398492D01*
X162555Y398567D01*
X162352Y398637D01*
X162146Y398702D01*
X161940Y398762D01*
X161731Y398817D01*
X161522Y398867D01*
X161311Y398912D01*
X161100Y398951D01*
X160887Y398985D01*
X160674Y399014D01*
X160460Y399038D01*
X160245Y399056D01*
X160030Y399069D01*
X159815Y399077D01*
X159600Y399080D01*
X159385Y399077D01*
X159170Y399069D01*
X158955Y399056D01*
X158740Y399038D01*
X158526Y399014D01*
X158313Y398985D01*
X158100Y398951D01*
X157889Y398912D01*
X157678Y398867D01*
X157469Y398817D01*
X157260Y398762D01*
X157054Y398702D01*
X156848Y398637D01*
X156645Y398567D01*
X156443Y398492D01*
X156243Y398412D01*
X156045Y398328D01*
X155850Y398238D01*
X155656Y398144D01*
X155465Y398045D01*
X155276Y397941D01*
X155090Y397832D01*
X154907Y397719D01*
X154727Y397602D01*
X154549Y397480D01*
X154375Y397354D01*
X154203Y397224D01*
X154035Y397089D01*
X153870Y396951D01*
X153709Y396808D01*
X153551Y396662D01*
X153397Y396511D01*
X153247Y396357D01*
X153100Y396200D01*
D13*
X339000Y417500D02*
X339000Y336500D01*
X277000Y336500D01*
X277000Y412500D01*
X277000Y417500D01*
X339000Y417500D01*
D18*
X329750Y407750D02*
X329838Y407693D01*
X329924Y407633D01*
X330008Y407569D01*
X330089Y407502D01*
X330168Y407433D01*
X330244Y407360D01*
X330317Y407285D01*
X330388Y407207D01*
X330455Y407126D01*
X330519Y407043D01*
X330580Y406957D01*
X330638Y406869D01*
X330693Y406780D01*
X330744Y406688D01*
X330791Y406594D01*
X330835Y406499D01*
X330876Y406402D01*
X330912Y406303D01*
X330945Y406203D01*
X330975Y406102D01*
X331000Y406000D01*
X331022Y405897D01*
X331039Y405794D01*
X331053Y405690D01*
X331063Y405585D01*
X331069Y405480D01*
X331071Y405375D01*
X331069Y405270D01*
X331063Y405165D01*
X331053Y405060D01*
X331039Y404956D01*
X331022Y404853D01*
X331000Y404750D01*
X330975Y404648D01*
X330945Y404547D01*
X330912Y404447D01*
X330876Y404348D01*
X330835Y404251D01*
X330791Y404156D01*
X330744Y404062D01*
X330693Y403970D01*
X330638Y403881D01*
X330580Y403793D01*
X330519Y403707D01*
X330455Y403624D01*
X330388Y403543D01*
X330317Y403465D01*
X330244Y403390D01*
X330168Y403317D01*
X330089Y403248D01*
X330008Y403181D01*
X329924Y403117D01*
X329838Y403057D01*
X329750Y403000D01*
X329662Y402943D01*
X329576Y402883D01*
X329492Y402819D01*
X329411Y402752D01*
X329332Y402683D01*
X329256Y402610D01*
X329183Y402535D01*
X329112Y402457D01*
X329045Y402376D01*
X328981Y402293D01*
X328920Y402207D01*
X328862Y402119D01*
X328807Y402030D01*
X328756Y401938D01*
X328709Y401844D01*
X328665Y401749D01*
X328624Y401652D01*
X328588Y401553D01*
X328555Y401453D01*
X328525Y401352D01*
X328500Y401250D01*
X328478Y401147D01*
X328461Y401044D01*
X328447Y400940D01*
X328437Y400835D01*
X328431Y400730D01*
X328429Y400625D01*
X328431Y400520D01*
X328437Y400415D01*
X328447Y400310D01*
X328461Y400206D01*
X328478Y400103D01*
X328500Y400000D01*
X328525Y399898D01*
X328555Y399797D01*
X328588Y399697D01*
X328624Y399598D01*
X328665Y399501D01*
X328709Y399406D01*
X328756Y399312D01*
X328807Y399220D01*
X328862Y399131D01*
X328920Y399043D01*
X328981Y398957D01*
X329045Y398874D01*
X329112Y398793D01*
X329183Y398715D01*
X329256Y398640D01*
X329332Y398567D01*
X329411Y398498D01*
X329492Y398431D01*
X329576Y398367D01*
X329662Y398307D01*
X329750Y398250D01*
X329750Y355750D02*
X329838Y355693D01*
X329924Y355633D01*
X330008Y355569D01*
X330089Y355502D01*
X330168Y355433D01*
X330244Y355360D01*
X330317Y355285D01*
X330388Y355207D01*
X330455Y355126D01*
X330519Y355043D01*
X330580Y354957D01*
X330638Y354869D01*
X330693Y354780D01*
X330744Y354688D01*
X330791Y354594D01*
X330835Y354499D01*
X330876Y354402D01*
X330912Y354303D01*
X330945Y354203D01*
X330975Y354102D01*
X331000Y354000D01*
X331022Y353897D01*
X331039Y353794D01*
X331053Y353690D01*
X331063Y353585D01*
X331069Y353480D01*
X331071Y353375D01*
X331069Y353270D01*
X331063Y353165D01*
X331053Y353060D01*
X331039Y352956D01*
X331022Y352853D01*
X331000Y352750D01*
X330975Y352648D01*
X330945Y352547D01*
X330912Y352447D01*
X330876Y352348D01*
X330835Y352251D01*
X330791Y352156D01*
X330744Y352062D01*
X330693Y351970D01*
X330638Y351881D01*
X330580Y351793D01*
X330519Y351707D01*
X330455Y351624D01*
X330388Y351543D01*
X330317Y351465D01*
X330244Y351390D01*
X330168Y351317D01*
X330089Y351248D01*
X330008Y351181D01*
X329924Y351117D01*
X329838Y351057D01*
X329750Y351000D01*
X329662Y350943D01*
X329576Y350883D01*
X329492Y350819D01*
X329411Y350752D01*
X329332Y350683D01*
X329256Y350610D01*
X329183Y350535D01*
X329112Y350457D01*
X329045Y350376D01*
X328981Y350293D01*
X328920Y350207D01*
X328862Y350119D01*
X328807Y350030D01*
X328756Y349938D01*
X328709Y349844D01*
X328665Y349749D01*
X328624Y349652D01*
X328588Y349553D01*
X328555Y349453D01*
X328525Y349352D01*
X328500Y349250D01*
X328478Y349147D01*
X328461Y349044D01*
X328447Y348940D01*
X328437Y348835D01*
X328431Y348730D01*
X328429Y348625D01*
X328431Y348520D01*
X328437Y348415D01*
X328447Y348310D01*
X328461Y348206D01*
X328478Y348103D01*
X328500Y348000D01*
X328525Y347898D01*
X328555Y347797D01*
X328588Y347697D01*
X328624Y347598D01*
X328665Y347501D01*
X328709Y347406D01*
X328756Y347312D01*
X328807Y347220D01*
X328862Y347131D01*
X328920Y347043D01*
X328981Y346957D01*
X329045Y346874D01*
X329112Y346793D01*
X329183Y346715D01*
X329256Y346640D01*
X329332Y346567D01*
X329411Y346498D01*
X329492Y346431D01*
X329576Y346367D01*
X329662Y346307D01*
X329750Y346250D01*
X286250Y398250D02*
X286250Y407750D01*
X286250Y355750D02*
X286250Y346250D01*
X281500Y403000D02*
X291000Y403000D01*
D13*
X277000Y412500D02*
X339000Y412500D01*
D20*
X277139Y422339D02*
X277139Y438355D01*
X285147Y438355D01*
X287816Y435685D01*
X287816Y433016D01*
X285147Y430347D01*
X287816Y427678D01*
X287816Y425008D01*
X285147Y422339D01*
X277139Y422339D01*
X277139Y430347D02*
X285147Y430347D01*
X293511Y433016D02*
X298849Y438355D01*
X298849Y422339D01*
X293511Y422339D02*
X304188Y422339D01*
D12*
X132428Y318000D02*
X121760Y318000D01*
D21*
X132428Y318000D02*
X132428Y325620D01*
X132428Y318000D02*
X132428Y310380D01*
D12*
X141318Y318000D02*
X152240Y318000D01*
D15*
X110972Y364808D02*
X109065Y366715D01*
X105252Y366715D01*
X103345Y364808D01*
X103345Y357182D01*
X105252Y355275D01*
X109065Y355275D01*
X110972Y357182D01*
X115039Y362902D02*
X118852Y366715D01*
X118852Y355275D01*
X115039Y355275D02*
X122665Y355275D01*
X126733Y366715D02*
X134359Y366715D01*
X126733Y366715D02*
X126733Y360995D01*
X130546Y362902D01*
X132453Y362902D01*
X134359Y360995D01*
X134359Y357182D01*
X132453Y355275D01*
X128640Y355275D01*
X126733Y357182D01*
X98900Y318000D02*
X98911Y318935D01*
X98946Y319869D01*
X99003Y320803D01*
X99083Y321734D01*
X99187Y322664D01*
X99312Y323590D01*
X99461Y324514D01*
X99632Y325433D01*
X99826Y326348D01*
X100042Y327258D01*
X100280Y328162D01*
X100541Y329060D01*
X100823Y329951D01*
X101127Y330836D01*
X101453Y331712D01*
X101800Y332580D01*
X102169Y333440D01*
X102558Y334290D01*
X102968Y335130D01*
X103399Y335960D01*
X103850Y336779D01*
X104321Y337587D01*
X104811Y338383D01*
X105321Y339167D01*
X105850Y339938D01*
X106398Y340696D01*
X106964Y341440D01*
X107548Y342170D01*
X108150Y342886D01*
X108770Y343586D01*
X109406Y344271D01*
X110059Y344941D01*
X110729Y345594D01*
X111414Y346230D01*
X112114Y346850D01*
X112830Y347452D01*
X113560Y348036D01*
X114304Y348602D01*
X115062Y349150D01*
X115833Y349679D01*
X116617Y350189D01*
X117413Y350679D01*
X118221Y351150D01*
X119040Y351601D01*
X119870Y352032D01*
X120710Y352442D01*
X121560Y352831D01*
X122420Y353200D01*
X123288Y353547D01*
X124164Y353873D01*
X125049Y354177D01*
X125940Y354459D01*
X126838Y354720D01*
X127742Y354958D01*
X128652Y355174D01*
X129567Y355368D01*
X130486Y355539D01*
X131410Y355688D01*
X132336Y355813D01*
X133266Y355917D01*
X134197Y355997D01*
X135131Y356054D01*
X136065Y356089D01*
X137000Y356100D01*
X137935Y356089D01*
X138869Y356054D01*
X139803Y355997D01*
X140734Y355917D01*
X141664Y355813D01*
X142590Y355688D01*
X143514Y355539D01*
X144433Y355368D01*
X145348Y355174D01*
X146258Y354958D01*
X147162Y354720D01*
X148060Y354459D01*
X148951Y354177D01*
X149836Y353873D01*
X150712Y353547D01*
X151580Y353200D01*
X152440Y352831D01*
X153290Y352442D01*
X154130Y352032D01*
X154960Y351601D01*
X155779Y351150D01*
X156587Y350679D01*
X157383Y350189D01*
X158167Y349679D01*
X158938Y349150D01*
X159696Y348602D01*
X160440Y348036D01*
X161170Y347452D01*
X161886Y346850D01*
X162586Y346230D01*
X163271Y345594D01*
X163941Y344941D01*
X164594Y344271D01*
X165230Y343586D01*
X165850Y342886D01*
X166452Y342170D01*
X167036Y341440D01*
X167602Y340696D01*
X168150Y339938D01*
X168679Y339167D01*
X169189Y338383D01*
X169679Y337587D01*
X170150Y336779D01*
X170601Y335960D01*
X171032Y335130D01*
X171442Y334290D01*
X171831Y333440D01*
X172200Y332580D01*
X172547Y331712D01*
X172873Y330836D01*
X173177Y329951D01*
X173459Y329060D01*
X173720Y328162D01*
X173958Y327258D01*
X174174Y326348D01*
X174368Y325433D01*
X174539Y324514D01*
X174688Y323590D01*
X174813Y322664D01*
X174917Y321734D01*
X174997Y320803D01*
X175054Y319869D01*
X175089Y318935D01*
X175100Y318000D01*
X175089Y317065D01*
X175054Y316131D01*
X174997Y315197D01*
X174917Y314266D01*
X174813Y313336D01*
X174688Y312410D01*
X174539Y311486D01*
X174368Y310567D01*
X174174Y309652D01*
X173958Y308742D01*
X173720Y307838D01*
X173459Y306940D01*
X173177Y306049D01*
X172873Y305164D01*
X172547Y304288D01*
X172200Y303420D01*
X171831Y302560D01*
X171442Y301710D01*
X171032Y300870D01*
X170601Y300040D01*
X170150Y299221D01*
X169679Y298413D01*
X169189Y297617D01*
X168679Y296833D01*
X168150Y296062D01*
X167602Y295304D01*
X167036Y294560D01*
X166452Y293830D01*
X165850Y293114D01*
X165230Y292414D01*
X164594Y291729D01*
X163941Y291059D01*
X163271Y290406D01*
X162586Y289770D01*
X161886Y289150D01*
X161170Y288548D01*
X160440Y287964D01*
X159696Y287398D01*
X158938Y286850D01*
X158167Y286321D01*
X157383Y285811D01*
X156587Y285321D01*
X155779Y284850D01*
X154960Y284399D01*
X154130Y283968D01*
X153290Y283558D01*
X152440Y283169D01*
X151580Y282800D01*
X150712Y282453D01*
X149836Y282127D01*
X148951Y281823D01*
X148060Y281541D01*
X147162Y281280D01*
X146258Y281042D01*
X145348Y280826D01*
X144433Y280632D01*
X143514Y280461D01*
X142590Y280312D01*
X141664Y280187D01*
X140734Y280083D01*
X139803Y280003D01*
X138869Y279946D01*
X137935Y279911D01*
X137000Y279900D01*
X136065Y279911D01*
X135131Y279946D01*
X134197Y280003D01*
X133266Y280083D01*
X132336Y280187D01*
X131410Y280312D01*
X130486Y280461D01*
X129567Y280632D01*
X128652Y280826D01*
X127742Y281042D01*
X126838Y281280D01*
X125940Y281541D01*
X125049Y281823D01*
X124164Y282127D01*
X123288Y282453D01*
X122420Y282800D01*
X121560Y283169D01*
X120710Y283558D01*
X119870Y283968D01*
X119040Y284399D01*
X118221Y284850D01*
X117413Y285321D01*
X116617Y285811D01*
X115833Y286321D01*
X115062Y286850D01*
X114304Y287398D01*
X113560Y287964D01*
X112830Y288548D01*
X112114Y289150D01*
X111414Y289770D01*
X110729Y290406D01*
X110059Y291059D01*
X109406Y291729D01*
X108770Y292414D01*
X108150Y293114D01*
X107548Y293830D01*
X106964Y294560D01*
X106398Y295304D01*
X105850Y296062D01*
X105321Y296833D01*
X104811Y297617D01*
X104321Y298413D01*
X103850Y299221D01*
X103399Y300040D01*
X102968Y300870D01*
X102558Y301710D01*
X102169Y302560D01*
X101800Y303420D01*
X101453Y304288D01*
X101127Y305164D01*
X100823Y306049D01*
X100541Y306940D01*
X100280Y307838D01*
X100042Y308742D01*
X99826Y309652D01*
X99632Y310567D01*
X99461Y311486D01*
X99312Y312410D01*
X99187Y313336D01*
X99083Y314266D01*
X99003Y315197D01*
X98946Y316131D01*
X98911Y317065D01*
X98900Y318000D01*
D13*
X145999Y326000D02*
X145805Y325877D01*
X145613Y325748D01*
X145425Y325615D01*
X145240Y325478D01*
X145059Y325336D01*
X144881Y325189D01*
X144706Y325039D01*
X144535Y324884D01*
X144369Y324725D01*
X144206Y324561D01*
X144047Y324394D01*
X143892Y324223D01*
X143742Y324049D01*
X143596Y323870D01*
X143454Y323688D01*
X143317Y323503D01*
X143185Y323315D01*
X143057Y323123D01*
X142933Y322928D01*
X142815Y322730D01*
X142702Y322529D01*
X142593Y322326D01*
X142490Y322120D01*
X142391Y321912D01*
X142298Y321701D01*
X142210Y321488D01*
X142127Y321273D01*
X142049Y321056D01*
X141977Y320837D01*
X141910Y320616D01*
X141849Y320394D01*
X141793Y320170D01*
X141742Y319945D01*
X141697Y319719D01*
X141658Y319492D01*
X141624Y319264D01*
X141596Y319035D01*
X141574Y318806D01*
X141557Y318576D01*
X141545Y318346D01*
X141540Y318115D01*
X141540Y317885D01*
X141545Y317654D01*
X141557Y317424D01*
X141574Y317194D01*
X141596Y316965D01*
X141624Y316736D01*
X141658Y316508D01*
X141697Y316281D01*
X141742Y316055D01*
X141793Y315830D01*
X141849Y315606D01*
X141910Y315384D01*
X141977Y315163D01*
X142049Y314944D01*
X142127Y314727D01*
X142210Y314512D01*
X142298Y314299D01*
X142391Y314088D01*
X142490Y313880D01*
X142593Y313674D01*
X142702Y313471D01*
X142815Y313270D01*
X142933Y313072D01*
X143057Y312877D01*
X143185Y312685D01*
X143317Y312497D01*
X143454Y312312D01*
X143596Y312130D01*
X143742Y311951D01*
X143892Y311777D01*
X144047Y311606D01*
X144206Y311439D01*
X144369Y311275D01*
X144535Y311116D01*
X144706Y310961D01*
X144881Y310811D01*
X145059Y310664D01*
X145240Y310522D01*
X145425Y310385D01*
X145613Y310252D01*
X145805Y310123D01*
X145999Y310000D01*
D12*
X38460Y175000D02*
X37190Y175000D01*
D13*
X43540Y175000D02*
X43540Y167380D01*
X43540Y175000D02*
X43540Y182620D01*
D12*
X43540Y175000D02*
X44810Y175000D01*
D11*
X48165Y161894D02*
X49097Y160961D01*
X48165Y161894D02*
X46301Y161894D01*
X45369Y160961D01*
X45369Y157233D01*
X46301Y156301D01*
X48165Y156301D01*
X49097Y157233D01*
X50982Y161894D02*
X54710Y161894D01*
X50982Y161894D02*
X50982Y159097D01*
X52846Y160029D01*
X53778Y160029D01*
X54710Y159097D01*
X54710Y157233D01*
X53778Y156301D01*
X51914Y156301D01*
X50982Y157233D01*
D14*
X62825Y165891D02*
X62920Y165891D01*
D15*
X15600Y175000D02*
X15608Y175623D01*
X15631Y176246D01*
X15669Y176869D01*
X15722Y177490D01*
X15791Y178109D01*
X15875Y178727D01*
X15974Y179342D01*
X16088Y179955D01*
X16217Y180565D01*
X16361Y181172D01*
X16520Y181775D01*
X16694Y182373D01*
X16882Y182968D01*
X17085Y183557D01*
X17302Y184141D01*
X17533Y184720D01*
X17779Y185293D01*
X18039Y185860D01*
X18312Y186420D01*
X18599Y186973D01*
X18900Y187520D01*
X19214Y188058D01*
X19541Y188589D01*
X19881Y189111D01*
X20233Y189626D01*
X20599Y190131D01*
X20976Y190627D01*
X21366Y191114D01*
X21767Y191591D01*
X22180Y192058D01*
X22604Y192514D01*
X23039Y192961D01*
X23486Y193396D01*
X23942Y193820D01*
X24409Y194233D01*
X24886Y194634D01*
X25373Y195024D01*
X25869Y195401D01*
X26374Y195767D01*
X26889Y196119D01*
X27411Y196459D01*
X27942Y196786D01*
X28480Y197100D01*
X29027Y197401D01*
X29580Y197688D01*
X30140Y197961D01*
X30707Y198221D01*
X31280Y198467D01*
X31859Y198698D01*
X32443Y198915D01*
X33032Y199118D01*
X33627Y199306D01*
X34225Y199480D01*
X34828Y199639D01*
X35435Y199783D01*
X36045Y199912D01*
X36658Y200026D01*
X37273Y200125D01*
X37891Y200209D01*
X38510Y200278D01*
X39131Y200331D01*
X39754Y200369D01*
X40377Y200392D01*
X41000Y200400D01*
X41623Y200392D01*
X42246Y200369D01*
X42869Y200331D01*
X43490Y200278D01*
X44109Y200209D01*
X44727Y200125D01*
X45342Y200026D01*
X45955Y199912D01*
X46565Y199783D01*
X47172Y199639D01*
X47775Y199480D01*
X48373Y199306D01*
X48968Y199118D01*
X49557Y198915D01*
X50141Y198698D01*
X50720Y198467D01*
X51293Y198221D01*
X51860Y197961D01*
X52420Y197688D01*
X52973Y197401D01*
X53520Y197100D01*
X54058Y196786D01*
X54589Y196459D01*
X55111Y196119D01*
X55626Y195767D01*
X56131Y195401D01*
X56627Y195024D01*
X57114Y194634D01*
X57591Y194233D01*
X58058Y193820D01*
X58514Y193396D01*
X58961Y192961D01*
X59396Y192514D01*
X59820Y192058D01*
X60233Y191591D01*
X60634Y191114D01*
X61024Y190627D01*
X61401Y190131D01*
X61767Y189626D01*
X62119Y189111D01*
X62459Y188589D01*
X62786Y188058D01*
X63100Y187520D01*
X63401Y186973D01*
X63688Y186420D01*
X63961Y185860D01*
X64221Y185293D01*
X64467Y184720D01*
X64698Y184141D01*
X64915Y183557D01*
X65118Y182968D01*
X65306Y182373D01*
X65480Y181775D01*
X65639Y181172D01*
X65783Y180565D01*
X65912Y179955D01*
X66026Y179342D01*
X66125Y178727D01*
X66209Y178109D01*
X66278Y177490D01*
X66331Y176869D01*
X66369Y176246D01*
X66392Y175623D01*
X66400Y175000D01*
X66392Y174377D01*
X66369Y173754D01*
X66331Y173131D01*
X66278Y172510D01*
X66209Y171891D01*
X66125Y171273D01*
X66026Y170658D01*
X65912Y170045D01*
X65783Y169435D01*
X65639Y168828D01*
X65480Y168225D01*
X65306Y167627D01*
X65118Y167032D01*
X64915Y166443D01*
X64698Y165859D01*
X64467Y165280D01*
X64221Y164707D01*
X63961Y164140D01*
X63688Y163580D01*
X63401Y163027D01*
X63100Y162480D01*
X62786Y161942D01*
X62459Y161411D01*
X62119Y160889D01*
X61767Y160374D01*
X61401Y159869D01*
X61024Y159373D01*
X60634Y158886D01*
X60233Y158409D01*
X59820Y157942D01*
X59396Y157486D01*
X58961Y157039D01*
X58514Y156604D01*
X58058Y156180D01*
X57591Y155767D01*
X57114Y155366D01*
X56627Y154976D01*
X56131Y154599D01*
X55626Y154233D01*
X55111Y153881D01*
X54589Y153541D01*
X54058Y153214D01*
X53520Y152900D01*
X52973Y152599D01*
X52420Y152312D01*
X51860Y152039D01*
X51293Y151779D01*
X50720Y151533D01*
X50141Y151302D01*
X49557Y151085D01*
X48968Y150882D01*
X48373Y150694D01*
X47775Y150520D01*
X47172Y150361D01*
X46565Y150217D01*
X45955Y150088D01*
X45342Y149974D01*
X44727Y149875D01*
X44109Y149791D01*
X43490Y149722D01*
X42869Y149669D01*
X42246Y149631D01*
X41623Y149608D01*
X41000Y149600D01*
X40377Y149608D01*
X39754Y149631D01*
X39131Y149669D01*
X38510Y149722D01*
X37891Y149791D01*
X37273Y149875D01*
X36658Y149974D01*
X36045Y150088D01*
X35435Y150217D01*
X34828Y150361D01*
X34225Y150520D01*
X33627Y150694D01*
X33032Y150882D01*
X32443Y151085D01*
X31859Y151302D01*
X31280Y151533D01*
X30707Y151779D01*
X30140Y152039D01*
X29580Y152312D01*
X29027Y152599D01*
X28480Y152900D01*
X27942Y153214D01*
X27411Y153541D01*
X26889Y153881D01*
X26374Y154233D01*
X25869Y154599D01*
X25373Y154976D01*
X24886Y155366D01*
X24409Y155767D01*
X23942Y156180D01*
X23486Y156604D01*
X23039Y157039D01*
X22604Y157486D01*
X22180Y157942D01*
X21767Y158409D01*
X21366Y158886D01*
X20976Y159373D01*
X20599Y159869D01*
X20233Y160374D01*
X19881Y160889D01*
X19541Y161411D01*
X19214Y161942D01*
X18900Y162480D01*
X18599Y163027D01*
X18312Y163580D01*
X18039Y164140D01*
X17779Y164707D01*
X17533Y165280D01*
X17302Y165859D01*
X17085Y166443D01*
X16882Y167032D01*
X16694Y167627D01*
X16520Y168225D01*
X16361Y168828D01*
X16217Y169435D01*
X16088Y170045D01*
X15974Y170658D01*
X15875Y171273D01*
X15791Y171891D01*
X15722Y172510D01*
X15669Y173131D01*
X15631Y173754D01*
X15608Y174377D01*
X15600Y175000D01*
D13*
X34000Y168000D02*
X34169Y168070D01*
X34337Y168144D01*
X34503Y168222D01*
X34666Y168304D01*
X34828Y168390D01*
X34988Y168480D01*
X35145Y168574D01*
X35300Y168672D01*
X35452Y168773D01*
X35603Y168878D01*
X35750Y168987D01*
X35895Y169099D01*
X36037Y169215D01*
X36176Y169334D01*
X36312Y169457D01*
X36445Y169582D01*
X36575Y169711D01*
X36702Y169843D01*
X36826Y169979D01*
X36946Y170117D01*
X37063Y170258D01*
X37177Y170401D01*
X37287Y170548D01*
X37393Y170697D01*
X37496Y170849D01*
X37595Y171003D01*
X37690Y171159D01*
X37782Y171318D01*
X37869Y171479D01*
X37953Y171642D01*
X38032Y171807D01*
X38108Y171974D01*
X38179Y172142D01*
X38247Y172313D01*
X38310Y172485D01*
X38369Y172658D01*
X38424Y172833D01*
X38474Y173009D01*
X38521Y173186D01*
X38562Y173364D01*
X38600Y173544D01*
X38633Y173724D01*
X38662Y173905D01*
X38686Y174086D01*
X38706Y174268D01*
X38722Y174451D01*
X38733Y174634D01*
X38740Y174817D01*
X38742Y175000D01*
X38740Y175183D01*
X38733Y175366D01*
X38722Y175549D01*
X38706Y175732D01*
X38686Y175914D01*
X38662Y176095D01*
X38633Y176276D01*
X38600Y176456D01*
X38562Y176636D01*
X38521Y176814D01*
X38474Y176991D01*
X38424Y177167D01*
X38369Y177342D01*
X38310Y177515D01*
X38247Y177687D01*
X38179Y177858D01*
X38108Y178026D01*
X38032Y178193D01*
X37953Y178358D01*
X37869Y178521D01*
X37782Y178682D01*
X37690Y178841D01*
X37595Y178997D01*
X37496Y179151D01*
X37393Y179303D01*
X37287Y179452D01*
X37177Y179599D01*
X37063Y179742D01*
X36946Y179883D01*
X36826Y180021D01*
X36702Y180157D01*
X36575Y180289D01*
X36445Y180418D01*
X36312Y180543D01*
X36176Y180666D01*
X36037Y180785D01*
X35895Y180901D01*
X35750Y181013D01*
X35603Y181122D01*
X35452Y181227D01*
X35300Y181328D01*
X35145Y181426D01*
X34988Y181520D01*
X34828Y181610D01*
X34666Y181696D01*
X34503Y181778D01*
X34337Y181856D01*
X34169Y181930D01*
X34000Y182000D01*
D15*
X15600Y175000D02*
X15608Y175623D01*
X15631Y176246D01*
X15669Y176869D01*
X15722Y177490D01*
X15791Y178109D01*
X15875Y178727D01*
X15974Y179342D01*
X16088Y179955D01*
X16217Y180565D01*
X16361Y181172D01*
X16520Y181775D01*
X16694Y182373D01*
X16882Y182968D01*
X17085Y183557D01*
X17302Y184141D01*
X17533Y184720D01*
X17779Y185293D01*
X18039Y185860D01*
X18312Y186420D01*
X18599Y186973D01*
X18900Y187520D01*
X19214Y188058D01*
X19541Y188589D01*
X19881Y189111D01*
X20233Y189626D01*
X20599Y190131D01*
X20976Y190627D01*
X21366Y191114D01*
X21767Y191591D01*
X22180Y192058D01*
X22604Y192514D01*
X23039Y192961D01*
X23486Y193396D01*
X23942Y193820D01*
X24409Y194233D01*
X24886Y194634D01*
X25373Y195024D01*
X25869Y195401D01*
X26374Y195767D01*
X26889Y196119D01*
X27411Y196459D01*
X27942Y196786D01*
X28480Y197100D01*
X29027Y197401D01*
X29580Y197688D01*
X30140Y197961D01*
X30707Y198221D01*
X31280Y198467D01*
X31859Y198698D01*
X32443Y198915D01*
X33032Y199118D01*
X33627Y199306D01*
X34225Y199480D01*
X34828Y199639D01*
X35435Y199783D01*
X36045Y199912D01*
X36658Y200026D01*
X37273Y200125D01*
X37891Y200209D01*
X38510Y200278D01*
X39131Y200331D01*
X39754Y200369D01*
X40377Y200392D01*
X41000Y200400D01*
X41623Y200392D01*
X42246Y200369D01*
X42869Y200331D01*
X43490Y200278D01*
X44109Y200209D01*
X44727Y200125D01*
X45342Y200026D01*
X45955Y199912D01*
X46565Y199783D01*
X47172Y199639D01*
X47775Y199480D01*
X48373Y199306D01*
X48968Y199118D01*
X49557Y198915D01*
X50141Y198698D01*
X50720Y198467D01*
X51293Y198221D01*
X51860Y197961D01*
X52420Y197688D01*
X52973Y197401D01*
X53520Y197100D01*
X54058Y196786D01*
X54589Y196459D01*
X55111Y196119D01*
X55626Y195767D01*
X56131Y195401D01*
X56627Y195024D01*
X57114Y194634D01*
X57591Y194233D01*
X58058Y193820D01*
X58514Y193396D01*
X58961Y192961D01*
X59396Y192514D01*
X59820Y192058D01*
X60233Y191591D01*
X60634Y191114D01*
X61024Y190627D01*
X61401Y190131D01*
X61767Y189626D01*
X62119Y189111D01*
X62459Y188589D01*
X62786Y188058D01*
X63100Y187520D01*
X63401Y186973D01*
X63688Y186420D01*
X63961Y185860D01*
X64221Y185293D01*
X64467Y184720D01*
X64698Y184141D01*
X64915Y183557D01*
X65118Y182968D01*
X65306Y182373D01*
X65480Y181775D01*
X65639Y181172D01*
X65783Y180565D01*
X65912Y179955D01*
X66026Y179342D01*
X66125Y178727D01*
X66209Y178109D01*
X66278Y177490D01*
X66331Y176869D01*
X66369Y176246D01*
X66392Y175623D01*
X66400Y175000D01*
X66392Y174377D01*
X66369Y173754D01*
X66331Y173131D01*
X66278Y172510D01*
X66209Y171891D01*
X66125Y171273D01*
X66026Y170658D01*
X65912Y170045D01*
X65783Y169435D01*
X65639Y168828D01*
X65480Y168225D01*
X65306Y167627D01*
X65118Y167032D01*
X64915Y166443D01*
X64698Y165859D01*
X64467Y165280D01*
X64221Y164707D01*
X63961Y164140D01*
X63688Y163580D01*
X63401Y163027D01*
X63100Y162480D01*
X62786Y161942D01*
X62459Y161411D01*
X62119Y160889D01*
X61767Y160374D01*
X61401Y159869D01*
X61024Y159373D01*
X60634Y158886D01*
X60233Y158409D01*
X59820Y157942D01*
X59396Y157486D01*
X58961Y157039D01*
X58514Y156604D01*
X58058Y156180D01*
X57591Y155767D01*
X57114Y155366D01*
X56627Y154976D01*
X56131Y154599D01*
X55626Y154233D01*
X55111Y153881D01*
X54589Y153541D01*
X54058Y153214D01*
X53520Y152900D01*
X52973Y152599D01*
X52420Y152312D01*
X51860Y152039D01*
X51293Y151779D01*
X50720Y151533D01*
X50141Y151302D01*
X49557Y151085D01*
X48968Y150882D01*
X48373Y150694D01*
X47775Y150520D01*
X47172Y150361D01*
X46565Y150217D01*
X45955Y150088D01*
X45342Y149974D01*
X44727Y149875D01*
X44109Y149791D01*
X43490Y149722D01*
X42869Y149669D01*
X42246Y149631D01*
X41623Y149608D01*
X41000Y149600D01*
X40377Y149608D01*
X39754Y149631D01*
X39131Y149669D01*
X38510Y149722D01*
X37891Y149791D01*
X37273Y149875D01*
X36658Y149974D01*
X36045Y150088D01*
X35435Y150217D01*
X34828Y150361D01*
X34225Y150520D01*
X33627Y150694D01*
X33032Y150882D01*
X32443Y151085D01*
X31859Y151302D01*
X31280Y151533D01*
X30707Y151779D01*
X30140Y152039D01*
X29580Y152312D01*
X29027Y152599D01*
X28480Y152900D01*
X27942Y153214D01*
X27411Y153541D01*
X26889Y153881D01*
X26374Y154233D01*
X25869Y154599D01*
X25373Y154976D01*
X24886Y155366D01*
X24409Y155767D01*
X23942Y156180D01*
X23486Y156604D01*
X23039Y157039D01*
X22604Y157486D01*
X22180Y157942D01*
X21767Y158409D01*
X21366Y158886D01*
X20976Y159373D01*
X20599Y159869D01*
X20233Y160374D01*
X19881Y160889D01*
X19541Y161411D01*
X19214Y161942D01*
X18900Y162480D01*
X18599Y163027D01*
X18312Y163580D01*
X18039Y164140D01*
X17779Y164707D01*
X17533Y165280D01*
X17302Y165859D01*
X17085Y166443D01*
X16882Y167032D01*
X16694Y167627D01*
X16520Y168225D01*
X16361Y168828D01*
X16217Y169435D01*
X16088Y170045D01*
X15974Y170658D01*
X15875Y171273D01*
X15791Y171891D01*
X15722Y172510D01*
X15669Y173131D01*
X15631Y173754D01*
X15608Y174377D01*
X15600Y175000D01*
D12*
X168772Y225822D02*
X168679Y225918D01*
X168589Y226017D01*
X168502Y226118D01*
X168418Y226222D01*
X168337Y226328D01*
X168259Y226436D01*
X168184Y226547D01*
X168113Y226660D01*
X168045Y226775D01*
X167981Y226892D01*
X167920Y227011D01*
X167863Y227132D01*
X167809Y227254D01*
X167759Y227378D01*
X167712Y227504D01*
X167670Y227630D01*
X167631Y227758D01*
X167596Y227887D01*
X167565Y228017D01*
X167538Y228148D01*
X167514Y228279D01*
X167495Y228412D01*
X167479Y228544D01*
X167468Y228678D01*
X167460Y228811D01*
X167456Y228945D01*
X167457Y229078D01*
X167461Y229212D01*
X167469Y229345D01*
X167482Y229478D01*
X167498Y229611D01*
X167518Y229743D01*
X167542Y229874D01*
X167570Y230005D01*
X167602Y230135D01*
X167637Y230264D01*
X167677Y230391D01*
X167720Y230518D01*
X167767Y230643D01*
X167818Y230766D01*
X167872Y230888D01*
X167930Y231009D01*
X167992Y231128D01*
X168057Y231244D01*
X168125Y231359D01*
X168197Y231472D01*
X168272Y231582D01*
X168350Y231690D01*
X168432Y231796D01*
X168517Y231900D01*
X168604Y232000D01*
X168695Y232099D01*
X168789Y232194D01*
X168885Y232287D01*
X168984Y232376D01*
X169086Y232463D01*
X169190Y232547D01*
X169297Y232627D01*
X169406Y232704D01*
X169517Y232778D01*
X169630Y232849D01*
X169746Y232916D01*
X169863Y232980D01*
X169982Y233040D01*
X170103Y233097D01*
X170226Y233150D01*
X170350Y233200D01*
X170476Y233245D01*
X170603Y233287D01*
X170731Y233325D01*
X170860Y233360D01*
X170990Y233390D01*
X171121Y233417D01*
X171253Y233440D01*
X171385Y233458D01*
X171518Y233473D01*
X171651Y233484D01*
X171784Y233491D01*
X171918Y233494D01*
X172051Y233493D01*
X172185Y233488D01*
X172318Y233479D01*
X172451Y233466D01*
X172584Y233449D01*
X172716Y233428D01*
X172847Y233404D01*
X172978Y233375D01*
X173107Y233342D01*
X173236Y233306D01*
X173363Y233266D01*
X173490Y233222D01*
X173614Y233174D01*
X173738Y233123D01*
X173860Y233068D01*
X173980Y233010D01*
X174098Y232947D01*
X174214Y232882D01*
X174329Y232813D01*
X174441Y232740D01*
X174551Y232665D01*
X174659Y232586D01*
X174764Y232504D01*
X174867Y232418D01*
X174968Y232330D01*
X175065Y232239D01*
X175160Y232145D01*
X175252Y232048D01*
X206748Y225952D02*
X206840Y225855D01*
X206935Y225761D01*
X207032Y225670D01*
X207133Y225582D01*
X207236Y225496D01*
X207341Y225414D01*
X207449Y225335D01*
X207559Y225260D01*
X207671Y225187D01*
X207786Y225118D01*
X207902Y225053D01*
X208020Y224990D01*
X208140Y224932D01*
X208262Y224877D01*
X208386Y224826D01*
X208510Y224778D01*
X208637Y224734D01*
X208764Y224694D01*
X208893Y224658D01*
X209022Y224625D01*
X209153Y224596D01*
X209284Y224572D01*
X209416Y224551D01*
X209549Y224534D01*
X209682Y224521D01*
X209815Y224512D01*
X209949Y224507D01*
X210082Y224506D01*
X210216Y224509D01*
X210349Y224516D01*
X210482Y224527D01*
X210615Y224542D01*
X210747Y224560D01*
X210879Y224583D01*
X211010Y224610D01*
X211140Y224640D01*
X211269Y224675D01*
X211397Y224713D01*
X211524Y224755D01*
X211650Y224800D01*
X211774Y224850D01*
X211897Y224903D01*
X212018Y224960D01*
X212137Y225020D01*
X212254Y225084D01*
X212370Y225151D01*
X212483Y225222D01*
X212594Y225296D01*
X212703Y225373D01*
X212810Y225453D01*
X212914Y225537D01*
X213016Y225624D01*
X213115Y225713D01*
X213211Y225806D01*
X213305Y225901D01*
X213396Y226000D01*
X213483Y226100D01*
X213568Y226204D01*
X213650Y226310D01*
X213728Y226418D01*
X213803Y226528D01*
X213875Y226641D01*
X213943Y226756D01*
X214008Y226872D01*
X214070Y226991D01*
X214128Y227112D01*
X214182Y227234D01*
X214233Y227357D01*
X214280Y227482D01*
X214323Y227609D01*
X214363Y227736D01*
X214398Y227865D01*
X214430Y227995D01*
X214458Y228126D01*
X214482Y228257D01*
X214502Y228389D01*
X214518Y228522D01*
X214531Y228655D01*
X214539Y228788D01*
X214543Y228922D01*
X214544Y229055D01*
X214540Y229189D01*
X214532Y229322D01*
X214521Y229456D01*
X214505Y229588D01*
X214486Y229721D01*
X214462Y229852D01*
X214435Y229983D01*
X214404Y230113D01*
X214369Y230242D01*
X214330Y230370D01*
X214288Y230496D01*
X214241Y230622D01*
X214191Y230746D01*
X214137Y230868D01*
X214080Y230989D01*
X214019Y231108D01*
X213955Y231225D01*
X213887Y231340D01*
X213816Y231453D01*
X213741Y231564D01*
X213663Y231672D01*
X213582Y231778D01*
X213498Y231882D01*
X213411Y231983D01*
X213321Y232082D01*
X213228Y232178D01*
X206748Y225952D02*
X200398Y232302D01*
X206748Y238652D02*
X213098Y232302D01*
X181348Y225952D02*
X174998Y232302D01*
X168648Y225952D02*
X174998Y219602D01*
D22*
X178300Y222650D02*
X171950Y229000D01*
X203700Y235350D02*
X210050Y229000D01*
X193540Y226460D02*
X188460Y231540D01*
D12*
X159250Y229000D02*
X159260Y229779D01*
X159288Y230558D01*
X159336Y231336D01*
X159403Y232112D01*
X159489Y232887D01*
X159594Y233659D01*
X159717Y234428D01*
X159860Y235194D01*
X160021Y235956D01*
X160202Y236715D01*
X160400Y237468D01*
X160617Y238217D01*
X160852Y238959D01*
X161106Y239696D01*
X161377Y240427D01*
X161667Y241150D01*
X161974Y241866D01*
X162298Y242575D01*
X162640Y243275D01*
X162999Y243967D01*
X163375Y244650D01*
X163767Y245323D01*
X164176Y245986D01*
X164601Y246639D01*
X165042Y247282D01*
X165498Y247913D01*
X165970Y248534D01*
X166457Y249142D01*
X166959Y249738D01*
X167475Y250322D01*
X168005Y250893D01*
X168549Y251451D01*
X169107Y251995D01*
X169678Y252525D01*
X170262Y253041D01*
X170858Y253543D01*
X171466Y254030D01*
X172087Y254502D01*
X172718Y254958D01*
X173361Y255399D01*
X174014Y255824D01*
X174677Y256233D01*
X175350Y256625D01*
X176033Y257001D01*
X176725Y257360D01*
X177425Y257702D01*
X178134Y258026D01*
X178850Y258333D01*
X179573Y258623D01*
X180304Y258894D01*
X181041Y259148D01*
X181783Y259383D01*
X182532Y259600D01*
X183285Y259798D01*
X184044Y259979D01*
X184806Y260140D01*
X185572Y260283D01*
X186341Y260406D01*
X187113Y260511D01*
X187888Y260597D01*
X188664Y260664D01*
X189442Y260712D01*
X190221Y260740D01*
X191000Y260750D01*
X191779Y260740D01*
X192558Y260712D01*
X193336Y260664D01*
X194112Y260597D01*
X194887Y260511D01*
X195659Y260406D01*
X196428Y260283D01*
X197194Y260140D01*
X197956Y259979D01*
X198715Y259798D01*
X199468Y259600D01*
X200217Y259383D01*
X200959Y259148D01*
X201696Y258894D01*
X202427Y258623D01*
X203150Y258333D01*
X203866Y258026D01*
X204575Y257702D01*
X205275Y257360D01*
X205967Y257001D01*
X206650Y256625D01*
X207323Y256233D01*
X207986Y255824D01*
X208639Y255399D01*
X209282Y254958D01*
X209913Y254502D01*
X210534Y254030D01*
X211142Y253543D01*
X211738Y253041D01*
X212322Y252525D01*
X212893Y251995D01*
X213451Y251451D01*
X213995Y250893D01*
X214525Y250322D01*
X215041Y249738D01*
X215543Y249142D01*
X216030Y248534D01*
X216502Y247913D01*
X216958Y247282D01*
X217399Y246639D01*
X217824Y245986D01*
X218233Y245323D01*
X218625Y244650D01*
X219001Y243967D01*
X219360Y243275D01*
X219702Y242575D01*
X220026Y241866D01*
X220333Y241150D01*
X220623Y240427D01*
X220894Y239696D01*
X221148Y238959D01*
X221383Y238217D01*
X221600Y237468D01*
X221798Y236715D01*
X221979Y235956D01*
X222140Y235194D01*
X222283Y234428D01*
X222406Y233659D01*
X222511Y232887D01*
X222597Y232112D01*
X222664Y231336D01*
X222712Y230558D01*
X222740Y229779D01*
X222750Y229000D01*
X222740Y228221D01*
X222712Y227442D01*
X222664Y226664D01*
X222597Y225888D01*
X222511Y225113D01*
X222406Y224341D01*
X222283Y223572D01*
X222140Y222806D01*
X221979Y222044D01*
X221798Y221285D01*
X221600Y220532D01*
X221383Y219783D01*
X221148Y219041D01*
X220894Y218304D01*
X220623Y217573D01*
X220333Y216850D01*
X220026Y216134D01*
X219702Y215425D01*
X219360Y214725D01*
X219001Y214033D01*
X218625Y213350D01*
X218233Y212677D01*
X217824Y212014D01*
X217399Y211361D01*
X216958Y210718D01*
X216502Y210087D01*
X216030Y209466D01*
X215543Y208858D01*
X215041Y208262D01*
X214525Y207678D01*
X213995Y207107D01*
X213451Y206549D01*
X212893Y206005D01*
X212322Y205475D01*
X211738Y204959D01*
X211142Y204457D01*
X210534Y203970D01*
X209913Y203498D01*
X209282Y203042D01*
X208639Y202601D01*
X207986Y202176D01*
X207323Y201767D01*
X206650Y201375D01*
X205967Y200999D01*
X205275Y200640D01*
X204575Y200298D01*
X203866Y199974D01*
X203150Y199667D01*
X202427Y199377D01*
X201696Y199106D01*
X200959Y198852D01*
X200217Y198617D01*
X199468Y198400D01*
X198715Y198202D01*
X197956Y198021D01*
X197194Y197860D01*
X196428Y197717D01*
X195659Y197594D01*
X194887Y197489D01*
X194112Y197403D01*
X193336Y197336D01*
X192558Y197288D01*
X191779Y197260D01*
X191000Y197250D01*
X190221Y197260D01*
X189442Y197288D01*
X188664Y197336D01*
X187888Y197403D01*
X187113Y197489D01*
X186341Y197594D01*
X185572Y197717D01*
X184806Y197860D01*
X184044Y198021D01*
X183285Y198202D01*
X182532Y198400D01*
X181783Y198617D01*
X181041Y198852D01*
X180304Y199106D01*
X179573Y199377D01*
X178850Y199667D01*
X178134Y199974D01*
X177425Y200298D01*
X176725Y200640D01*
X176033Y200999D01*
X175350Y201375D01*
X174677Y201767D01*
X174014Y202176D01*
X173361Y202601D01*
X172718Y203042D01*
X172087Y203498D01*
X171466Y203970D01*
X170858Y204457D01*
X170262Y204959D01*
X169678Y205475D01*
X169107Y206005D01*
X168549Y206549D01*
X168005Y207107D01*
X167475Y207678D01*
X166959Y208262D01*
X166457Y208858D01*
X165970Y209466D01*
X165498Y210087D01*
X165042Y210718D01*
X164601Y211361D01*
X164176Y212014D01*
X163767Y212677D01*
X163375Y213350D01*
X162999Y214033D01*
X162640Y214725D01*
X162298Y215425D01*
X161974Y216134D01*
X161667Y216850D01*
X161377Y217573D01*
X161106Y218304D01*
X160852Y219041D01*
X160617Y219783D01*
X160400Y220532D01*
X160202Y221285D01*
X160021Y222044D01*
X159860Y222806D01*
X159717Y223572D01*
X159594Y224341D01*
X159489Y225113D01*
X159403Y225888D01*
X159336Y226664D01*
X159288Y227442D01*
X159260Y228221D01*
X159250Y229000D01*
D15*
X193647Y194085D02*
X193647Y182645D01*
X201274Y182645D01*
X205341Y190272D02*
X209154Y194085D01*
X209154Y182645D01*
X205341Y182645D02*
X212968Y182645D01*
D12*
X93048Y422748D02*
X93145Y422840D01*
X93239Y422935D01*
X93330Y423032D01*
X93418Y423133D01*
X93504Y423236D01*
X93586Y423341D01*
X93665Y423449D01*
X93740Y423559D01*
X93813Y423671D01*
X93882Y423786D01*
X93947Y423902D01*
X94010Y424020D01*
X94068Y424140D01*
X94123Y424262D01*
X94174Y424386D01*
X94222Y424510D01*
X94266Y424637D01*
X94306Y424764D01*
X94342Y424893D01*
X94375Y425022D01*
X94404Y425153D01*
X94428Y425284D01*
X94449Y425416D01*
X94466Y425549D01*
X94479Y425682D01*
X94488Y425815D01*
X94493Y425949D01*
X94494Y426082D01*
X94491Y426216D01*
X94484Y426349D01*
X94473Y426482D01*
X94458Y426615D01*
X94440Y426747D01*
X94417Y426879D01*
X94390Y427010D01*
X94360Y427140D01*
X94325Y427269D01*
X94287Y427397D01*
X94245Y427524D01*
X94200Y427650D01*
X94150Y427774D01*
X94097Y427897D01*
X94040Y428018D01*
X93980Y428137D01*
X93916Y428254D01*
X93849Y428370D01*
X93778Y428483D01*
X93704Y428594D01*
X93627Y428703D01*
X93547Y428810D01*
X93463Y428914D01*
X93376Y429016D01*
X93287Y429115D01*
X93194Y429211D01*
X93099Y429305D01*
X93000Y429396D01*
X92900Y429483D01*
X92796Y429568D01*
X92690Y429650D01*
X92582Y429728D01*
X92472Y429803D01*
X92359Y429875D01*
X92244Y429943D01*
X92128Y430008D01*
X92009Y430070D01*
X91888Y430128D01*
X91766Y430182D01*
X91643Y430233D01*
X91518Y430280D01*
X91391Y430323D01*
X91264Y430363D01*
X91135Y430398D01*
X91005Y430430D01*
X90874Y430458D01*
X90743Y430482D01*
X90611Y430502D01*
X90478Y430518D01*
X90345Y430531D01*
X90212Y430539D01*
X90078Y430543D01*
X89945Y430544D01*
X89811Y430540D01*
X89678Y430532D01*
X89544Y430521D01*
X89412Y430505D01*
X89279Y430486D01*
X89148Y430462D01*
X89017Y430435D01*
X88887Y430404D01*
X88758Y430369D01*
X88630Y430330D01*
X88504Y430288D01*
X88378Y430241D01*
X88254Y430191D01*
X88132Y430137D01*
X88011Y430080D01*
X87892Y430019D01*
X87775Y429955D01*
X87660Y429887D01*
X87547Y429816D01*
X87436Y429741D01*
X87328Y429663D01*
X87222Y429582D01*
X87118Y429498D01*
X87017Y429411D01*
X86918Y429321D01*
X86822Y429228D01*
X86952Y391252D02*
X86855Y391160D01*
X86761Y391065D01*
X86670Y390968D01*
X86582Y390867D01*
X86496Y390764D01*
X86414Y390659D01*
X86335Y390551D01*
X86260Y390441D01*
X86187Y390329D01*
X86118Y390214D01*
X86053Y390098D01*
X85990Y389980D01*
X85932Y389860D01*
X85877Y389738D01*
X85826Y389614D01*
X85778Y389490D01*
X85734Y389363D01*
X85694Y389236D01*
X85658Y389107D01*
X85625Y388978D01*
X85596Y388847D01*
X85572Y388716D01*
X85551Y388584D01*
X85534Y388451D01*
X85521Y388318D01*
X85512Y388185D01*
X85507Y388051D01*
X85506Y387918D01*
X85509Y387784D01*
X85516Y387651D01*
X85527Y387518D01*
X85542Y387385D01*
X85560Y387253D01*
X85583Y387121D01*
X85610Y386990D01*
X85640Y386860D01*
X85675Y386731D01*
X85713Y386603D01*
X85755Y386476D01*
X85800Y386350D01*
X85850Y386226D01*
X85903Y386103D01*
X85960Y385982D01*
X86020Y385863D01*
X86084Y385746D01*
X86151Y385630D01*
X86222Y385517D01*
X86296Y385406D01*
X86373Y385297D01*
X86453Y385190D01*
X86537Y385086D01*
X86624Y384984D01*
X86713Y384885D01*
X86806Y384789D01*
X86901Y384695D01*
X87000Y384604D01*
X87100Y384517D01*
X87204Y384432D01*
X87310Y384350D01*
X87418Y384272D01*
X87528Y384197D01*
X87641Y384125D01*
X87756Y384057D01*
X87872Y383992D01*
X87991Y383930D01*
X88112Y383872D01*
X88234Y383818D01*
X88357Y383767D01*
X88482Y383720D01*
X88609Y383677D01*
X88736Y383637D01*
X88865Y383602D01*
X88995Y383570D01*
X89126Y383542D01*
X89257Y383518D01*
X89389Y383498D01*
X89522Y383482D01*
X89655Y383469D01*
X89788Y383461D01*
X89922Y383457D01*
X90055Y383456D01*
X90189Y383460D01*
X90322Y383468D01*
X90456Y383479D01*
X90588Y383495D01*
X90721Y383514D01*
X90852Y383538D01*
X90983Y383565D01*
X91113Y383596D01*
X91242Y383631D01*
X91370Y383670D01*
X91496Y383712D01*
X91622Y383759D01*
X91746Y383809D01*
X91868Y383863D01*
X91989Y383920D01*
X92108Y383981D01*
X92225Y384045D01*
X92340Y384113D01*
X92453Y384184D01*
X92564Y384259D01*
X92672Y384337D01*
X92778Y384418D01*
X92882Y384502D01*
X92983Y384589D01*
X93082Y384679D01*
X93178Y384772D01*
X86952Y391252D02*
X93302Y397602D01*
X99652Y391252D02*
X93302Y384902D01*
X86952Y416652D02*
X93302Y423002D01*
X86952Y429352D02*
X80602Y423002D01*
D22*
X83650Y419700D02*
X90000Y426050D01*
X96350Y394300D02*
X90000Y387950D01*
X87460Y404460D02*
X92540Y409540D01*
D12*
X58250Y407000D02*
X58260Y407779D01*
X58288Y408558D01*
X58336Y409336D01*
X58403Y410112D01*
X58489Y410887D01*
X58594Y411659D01*
X58717Y412428D01*
X58860Y413194D01*
X59021Y413956D01*
X59202Y414715D01*
X59400Y415468D01*
X59617Y416217D01*
X59852Y416959D01*
X60106Y417696D01*
X60377Y418427D01*
X60667Y419150D01*
X60974Y419866D01*
X61298Y420575D01*
X61640Y421275D01*
X61999Y421967D01*
X62375Y422650D01*
X62767Y423323D01*
X63176Y423986D01*
X63601Y424639D01*
X64042Y425282D01*
X64498Y425913D01*
X64970Y426534D01*
X65457Y427142D01*
X65959Y427738D01*
X66475Y428322D01*
X67005Y428893D01*
X67549Y429451D01*
X68107Y429995D01*
X68678Y430525D01*
X69262Y431041D01*
X69858Y431543D01*
X70466Y432030D01*
X71087Y432502D01*
X71718Y432958D01*
X72361Y433399D01*
X73014Y433824D01*
X73677Y434233D01*
X74350Y434625D01*
X75033Y435001D01*
X75725Y435360D01*
X76425Y435702D01*
X77134Y436026D01*
X77850Y436333D01*
X78573Y436623D01*
X79304Y436894D01*
X80041Y437148D01*
X80783Y437383D01*
X81532Y437600D01*
X82285Y437798D01*
X83044Y437979D01*
X83806Y438140D01*
X84572Y438283D01*
X85341Y438406D01*
X86113Y438511D01*
X86888Y438597D01*
X87664Y438664D01*
X88442Y438712D01*
X89221Y438740D01*
X90000Y438750D01*
X90779Y438740D01*
X91558Y438712D01*
X92336Y438664D01*
X93112Y438597D01*
X93887Y438511D01*
X94659Y438406D01*
X95428Y438283D01*
X96194Y438140D01*
X96956Y437979D01*
X97715Y437798D01*
X98468Y437600D01*
X99217Y437383D01*
X99959Y437148D01*
X100696Y436894D01*
X101427Y436623D01*
X102150Y436333D01*
X102866Y436026D01*
X103575Y435702D01*
X104275Y435360D01*
X104967Y435001D01*
X105650Y434625D01*
X106323Y434233D01*
X106986Y433824D01*
X107639Y433399D01*
X108282Y432958D01*
X108913Y432502D01*
X109534Y432030D01*
X110142Y431543D01*
X110738Y431041D01*
X111322Y430525D01*
X111893Y429995D01*
X112451Y429451D01*
X112995Y428893D01*
X113525Y428322D01*
X114041Y427738D01*
X114543Y427142D01*
X115030Y426534D01*
X115502Y425913D01*
X115958Y425282D01*
X116399Y424639D01*
X116824Y423986D01*
X117233Y423323D01*
X117625Y422650D01*
X118001Y421967D01*
X118360Y421275D01*
X118702Y420575D01*
X119026Y419866D01*
X119333Y419150D01*
X119623Y418427D01*
X119894Y417696D01*
X120148Y416959D01*
X120383Y416217D01*
X120600Y415468D01*
X120798Y414715D01*
X120979Y413956D01*
X121140Y413194D01*
X121283Y412428D01*
X121406Y411659D01*
X121511Y410887D01*
X121597Y410112D01*
X121664Y409336D01*
X121712Y408558D01*
X121740Y407779D01*
X121750Y407000D01*
X121740Y406221D01*
X121712Y405442D01*
X121664Y404664D01*
X121597Y403888D01*
X121511Y403113D01*
X121406Y402341D01*
X121283Y401572D01*
X121140Y400806D01*
X120979Y400044D01*
X120798Y399285D01*
X120600Y398532D01*
X120383Y397783D01*
X120148Y397041D01*
X119894Y396304D01*
X119623Y395573D01*
X119333Y394850D01*
X119026Y394134D01*
X118702Y393425D01*
X118360Y392725D01*
X118001Y392033D01*
X117625Y391350D01*
X117233Y390677D01*
X116824Y390014D01*
X116399Y389361D01*
X115958Y388718D01*
X115502Y388087D01*
X115030Y387466D01*
X114543Y386858D01*
X114041Y386262D01*
X113525Y385678D01*
X112995Y385107D01*
X112451Y384549D01*
X111893Y384005D01*
X111322Y383475D01*
X110738Y382959D01*
X110142Y382457D01*
X109534Y381970D01*
X108913Y381498D01*
X108282Y381042D01*
X107639Y380601D01*
X106986Y380176D01*
X106323Y379767D01*
X105650Y379375D01*
X104967Y378999D01*
X104275Y378640D01*
X103575Y378298D01*
X102866Y377974D01*
X102150Y377667D01*
X101427Y377377D01*
X100696Y377106D01*
X99959Y376852D01*
X99217Y376617D01*
X98468Y376400D01*
X97715Y376202D01*
X96956Y376021D01*
X96194Y375860D01*
X95428Y375717D01*
X94659Y375594D01*
X93887Y375489D01*
X93112Y375403D01*
X92336Y375336D01*
X91558Y375288D01*
X90779Y375260D01*
X90000Y375250D01*
X89221Y375260D01*
X88442Y375288D01*
X87664Y375336D01*
X86888Y375403D01*
X86113Y375489D01*
X85341Y375594D01*
X84572Y375717D01*
X83806Y375860D01*
X83044Y376021D01*
X82285Y376202D01*
X81532Y376400D01*
X80783Y376617D01*
X80041Y376852D01*
X79304Y377106D01*
X78573Y377377D01*
X77850Y377667D01*
X77134Y377974D01*
X76425Y378298D01*
X75725Y378640D01*
X75033Y378999D01*
X74350Y379375D01*
X73677Y379767D01*
X73014Y380176D01*
X72361Y380601D01*
X71718Y381042D01*
X71087Y381498D01*
X70466Y381970D01*
X69858Y382457D01*
X69262Y382959D01*
X68678Y383475D01*
X68107Y384005D01*
X67549Y384549D01*
X67005Y385107D01*
X66475Y385678D01*
X65959Y386262D01*
X65457Y386858D01*
X64970Y387466D01*
X64498Y388087D01*
X64042Y388718D01*
X63601Y389361D01*
X63176Y390014D01*
X62767Y390677D01*
X62375Y391350D01*
X61999Y392033D01*
X61640Y392725D01*
X61298Y393425D01*
X60974Y394134D01*
X60667Y394850D01*
X60377Y395573D01*
X60106Y396304D01*
X59852Y397041D01*
X59617Y397783D01*
X59400Y398532D01*
X59202Y399285D01*
X59021Y400044D01*
X58860Y400806D01*
X58717Y401572D01*
X58594Y402341D01*
X58489Y403113D01*
X58403Y403888D01*
X58336Y404664D01*
X58288Y405442D01*
X58260Y406221D01*
X58250Y407000D01*
D15*
X55075Y382235D02*
X43635Y382235D01*
X55075Y382235D02*
X55075Y389862D01*
X55075Y393929D02*
X55075Y401555D01*
X55075Y393929D02*
X47449Y401555D01*
X45542Y401555D01*
X43635Y399649D01*
X43635Y395836D01*
X45542Y393929D01*
D11*
X619725Y200453D02*
X619725Y194860D01*
X619725Y200453D02*
X622521Y200453D01*
X623453Y199521D01*
X623453Y197657D01*
X622521Y196725D01*
X619725Y196725D01*
X625338Y194860D02*
X627202Y194860D01*
X626270Y194860D02*
X626270Y200453D01*
X625338Y200453D02*
X627202Y200453D01*
X629080Y200453D02*
X629080Y194860D01*
X632809Y194860D02*
X629080Y200453D01*
X632809Y200453D02*
X632809Y194860D01*
X634693Y194860D02*
X634693Y200453D01*
X634693Y194860D02*
X637490Y194860D01*
X638422Y195792D01*
X638422Y199521D01*
X637490Y200453D01*
X634693Y200453D01*
D15*
X621000Y193000D02*
X653000Y193000D01*
X653000Y161000D01*
X621000Y161000D01*
X621000Y193000D01*
D11*
X619725Y194860D02*
X619725Y200453D01*
X622521Y200453D01*
X623453Y199521D01*
X623453Y197657D01*
X622521Y196725D01*
X619725Y196725D01*
X625338Y194860D02*
X627202Y194860D01*
X626270Y194860D02*
X626270Y200453D01*
X625338Y200453D02*
X627202Y200453D01*
X629080Y200453D02*
X629080Y194860D01*
X632809Y194860D02*
X629080Y200453D01*
X632809Y200453D02*
X632809Y194860D01*
X634693Y194860D02*
X634693Y200453D01*
X634693Y194860D02*
X637490Y194860D01*
X638422Y195792D01*
X638422Y199521D01*
X637490Y200453D01*
X634693Y200453D01*
D15*
X71901Y302237D02*
X71901Y369237D01*
X71901Y302237D02*
X33901Y302237D01*
X33901Y369237D01*
X71901Y369237D01*
D18*
X74519Y349930D02*
X86213Y349930D01*
X74519Y349930D02*
X74519Y357726D01*
X80366Y353828D02*
X80366Y349930D01*
X78417Y361624D02*
X74519Y365522D01*
X86213Y365522D01*
X86213Y361624D02*
X86213Y369420D01*
D11*
X570521Y226453D02*
X571453Y225521D01*
X570521Y226453D02*
X568657Y226453D01*
X567725Y225521D01*
X567725Y224589D01*
X568657Y223657D01*
X570521Y223657D01*
X571453Y222725D01*
X571453Y221792D01*
X570521Y220860D01*
X568657Y220860D01*
X567725Y221792D01*
X573338Y219928D02*
X577066Y219928D01*
X578951Y220860D02*
X578951Y226453D01*
X581747Y226453D01*
X582680Y225521D01*
X582680Y223657D01*
X581747Y222725D01*
X578951Y222725D01*
X580815Y222725D02*
X582680Y220860D01*
X584564Y226453D02*
X588293Y226453D01*
X584564Y226453D02*
X584564Y220860D01*
X588293Y220860D01*
X586428Y223657D02*
X584564Y223657D01*
D15*
X569000Y219000D02*
X601000Y219000D01*
X601000Y187000D01*
X569000Y187000D01*
X569000Y219000D01*
D11*
X571453Y225521D02*
X570521Y226453D01*
X568657Y226453D01*
X567725Y225521D01*
X567725Y224589D01*
X568657Y223657D01*
X570521Y223657D01*
X571453Y222725D01*
X571453Y221792D01*
X570521Y220860D01*
X568657Y220860D01*
X567725Y221792D01*
X573338Y219928D02*
X577066Y219928D01*
X578951Y220860D02*
X578951Y226453D01*
X581747Y226453D01*
X582680Y225521D01*
X582680Y223657D01*
X581747Y222725D01*
X578951Y222725D01*
X580815Y222725D02*
X582680Y220860D01*
X584564Y226453D02*
X588293Y226453D01*
X584564Y226453D02*
X584564Y220860D01*
X588293Y220860D01*
X586428Y223657D02*
X584564Y223657D01*
D12*
X351428Y73000D02*
X340760Y73000D01*
D21*
X351428Y73000D02*
X351428Y80620D01*
X351428Y73000D02*
X351428Y65380D01*
D12*
X360318Y73000D02*
X371240Y73000D01*
D15*
X329972Y119808D02*
X328065Y121715D01*
X324252Y121715D01*
X322345Y119808D01*
X322345Y112182D01*
X324252Y110275D01*
X328065Y110275D01*
X329972Y112182D01*
X334039Y117902D02*
X337852Y121715D01*
X337852Y110275D01*
X334039Y110275D02*
X341665Y110275D01*
X349546Y119808D02*
X353359Y121715D01*
X349546Y119808D02*
X345733Y115995D01*
X345733Y112182D01*
X347640Y110275D01*
X351453Y110275D01*
X353359Y112182D01*
X353359Y114088D01*
X351453Y115995D01*
X345733Y115995D01*
X317900Y73000D02*
X317911Y73935D01*
X317946Y74869D01*
X318003Y75803D01*
X318083Y76734D01*
X318187Y77664D01*
X318312Y78590D01*
X318461Y79514D01*
X318632Y80433D01*
X318826Y81348D01*
X319042Y82258D01*
X319280Y83162D01*
X319541Y84060D01*
X319823Y84951D01*
X320127Y85836D01*
X320453Y86712D01*
X320800Y87580D01*
X321169Y88440D01*
X321558Y89290D01*
X321968Y90130D01*
X322399Y90960D01*
X322850Y91779D01*
X323321Y92587D01*
X323811Y93383D01*
X324321Y94167D01*
X324850Y94938D01*
X325398Y95696D01*
X325964Y96440D01*
X326548Y97170D01*
X327150Y97886D01*
X327770Y98586D01*
X328406Y99271D01*
X329059Y99941D01*
X329729Y100594D01*
X330414Y101230D01*
X331114Y101850D01*
X331830Y102452D01*
X332560Y103036D01*
X333304Y103602D01*
X334062Y104150D01*
X334833Y104679D01*
X335617Y105189D01*
X336413Y105679D01*
X337221Y106150D01*
X338040Y106601D01*
X338870Y107032D01*
X339710Y107442D01*
X340560Y107831D01*
X341420Y108200D01*
X342288Y108547D01*
X343164Y108873D01*
X344049Y109177D01*
X344940Y109459D01*
X345838Y109720D01*
X346742Y109958D01*
X347652Y110174D01*
X348567Y110368D01*
X349486Y110539D01*
X350410Y110688D01*
X351336Y110813D01*
X352266Y110917D01*
X353197Y110997D01*
X354131Y111054D01*
X355065Y111089D01*
X356000Y111100D01*
X356935Y111089D01*
X357869Y111054D01*
X358803Y110997D01*
X359734Y110917D01*
X360664Y110813D01*
X361590Y110688D01*
X362514Y110539D01*
X363433Y110368D01*
X364348Y110174D01*
X365258Y109958D01*
X366162Y109720D01*
X367060Y109459D01*
X367951Y109177D01*
X368836Y108873D01*
X369712Y108547D01*
X370580Y108200D01*
X371440Y107831D01*
X372290Y107442D01*
X373130Y107032D01*
X373960Y106601D01*
X374779Y106150D01*
X375587Y105679D01*
X376383Y105189D01*
X377167Y104679D01*
X377938Y104150D01*
X378696Y103602D01*
X379440Y103036D01*
X380170Y102452D01*
X380886Y101850D01*
X381586Y101230D01*
X382271Y100594D01*
X382941Y99941D01*
X383594Y99271D01*
X384230Y98586D01*
X384850Y97886D01*
X385452Y97170D01*
X386036Y96440D01*
X386602Y95696D01*
X387150Y94938D01*
X387679Y94167D01*
X388189Y93383D01*
X388679Y92587D01*
X389150Y91779D01*
X389601Y90960D01*
X390032Y90130D01*
X390442Y89290D01*
X390831Y88440D01*
X391200Y87580D01*
X391547Y86712D01*
X391873Y85836D01*
X392177Y84951D01*
X392459Y84060D01*
X392720Y83162D01*
X392958Y82258D01*
X393174Y81348D01*
X393368Y80433D01*
X393539Y79514D01*
X393688Y78590D01*
X393813Y77664D01*
X393917Y76734D01*
X393997Y75803D01*
X394054Y74869D01*
X394089Y73935D01*
X394100Y73000D01*
X394089Y72065D01*
X394054Y71131D01*
X393997Y70197D01*
X393917Y69266D01*
X393813Y68336D01*
X393688Y67410D01*
X393539Y66486D01*
X393368Y65567D01*
X393174Y64652D01*
X392958Y63742D01*
X392720Y62838D01*
X392459Y61940D01*
X392177Y61049D01*
X391873Y60164D01*
X391547Y59288D01*
X391200Y58420D01*
X390831Y57560D01*
X390442Y56710D01*
X390032Y55870D01*
X389601Y55040D01*
X389150Y54221D01*
X388679Y53413D01*
X388189Y52617D01*
X387679Y51833D01*
X387150Y51062D01*
X386602Y50304D01*
X386036Y49560D01*
X385452Y48830D01*
X384850Y48114D01*
X384230Y47414D01*
X383594Y46729D01*
X382941Y46059D01*
X382271Y45406D01*
X381586Y44770D01*
X380886Y44150D01*
X380170Y43548D01*
X379440Y42964D01*
X378696Y42398D01*
X377938Y41850D01*
X377167Y41321D01*
X376383Y40811D01*
X375587Y40321D01*
X374779Y39850D01*
X373960Y39399D01*
X373130Y38968D01*
X372290Y38558D01*
X371440Y38169D01*
X370580Y37800D01*
X369712Y37453D01*
X368836Y37127D01*
X367951Y36823D01*
X367060Y36541D01*
X366162Y36280D01*
X365258Y36042D01*
X364348Y35826D01*
X363433Y35632D01*
X362514Y35461D01*
X361590Y35312D01*
X360664Y35187D01*
X359734Y35083D01*
X358803Y35003D01*
X357869Y34946D01*
X356935Y34911D01*
X356000Y34900D01*
X355065Y34911D01*
X354131Y34946D01*
X353197Y35003D01*
X352266Y35083D01*
X351336Y35187D01*
X350410Y35312D01*
X349486Y35461D01*
X348567Y35632D01*
X347652Y35826D01*
X346742Y36042D01*
X345838Y36280D01*
X344940Y36541D01*
X344049Y36823D01*
X343164Y37127D01*
X342288Y37453D01*
X341420Y37800D01*
X340560Y38169D01*
X339710Y38558D01*
X338870Y38968D01*
X338040Y39399D01*
X337221Y39850D01*
X336413Y40321D01*
X335617Y40811D01*
X334833Y41321D01*
X334062Y41850D01*
X333304Y42398D01*
X332560Y42964D01*
X331830Y43548D01*
X331114Y44150D01*
X330414Y44770D01*
X329729Y45406D01*
X329059Y46059D01*
X328406Y46729D01*
X327770Y47414D01*
X327150Y48114D01*
X326548Y48830D01*
X325964Y49560D01*
X325398Y50304D01*
X324850Y51062D01*
X324321Y51833D01*
X323811Y52617D01*
X323321Y53413D01*
X322850Y54221D01*
X322399Y55040D01*
X321968Y55870D01*
X321558Y56710D01*
X321169Y57560D01*
X320800Y58420D01*
X320453Y59288D01*
X320127Y60164D01*
X319823Y61049D01*
X319541Y61940D01*
X319280Y62838D01*
X319042Y63742D01*
X318826Y64652D01*
X318632Y65567D01*
X318461Y66486D01*
X318312Y67410D01*
X318187Y68336D01*
X318083Y69266D01*
X318003Y70197D01*
X317946Y71131D01*
X317911Y72065D01*
X317900Y73000D01*
D13*
X364999Y81000D02*
X364805Y80877D01*
X364613Y80748D01*
X364425Y80615D01*
X364240Y80478D01*
X364059Y80336D01*
X363881Y80189D01*
X363706Y80039D01*
X363535Y79884D01*
X363369Y79725D01*
X363206Y79561D01*
X363047Y79394D01*
X362892Y79223D01*
X362742Y79049D01*
X362596Y78870D01*
X362454Y78688D01*
X362317Y78503D01*
X362185Y78315D01*
X362057Y78123D01*
X361933Y77928D01*
X361815Y77730D01*
X361702Y77529D01*
X361593Y77326D01*
X361490Y77120D01*
X361391Y76912D01*
X361298Y76701D01*
X361210Y76488D01*
X361127Y76273D01*
X361049Y76056D01*
X360977Y75837D01*
X360910Y75616D01*
X360849Y75394D01*
X360793Y75170D01*
X360742Y74945D01*
X360697Y74719D01*
X360658Y74492D01*
X360624Y74264D01*
X360596Y74035D01*
X360574Y73806D01*
X360557Y73576D01*
X360545Y73346D01*
X360540Y73115D01*
X360540Y72885D01*
X360545Y72654D01*
X360557Y72424D01*
X360574Y72194D01*
X360596Y71965D01*
X360624Y71736D01*
X360658Y71508D01*
X360697Y71281D01*
X360742Y71055D01*
X360793Y70830D01*
X360849Y70606D01*
X360910Y70384D01*
X360977Y70163D01*
X361049Y69944D01*
X361127Y69727D01*
X361210Y69512D01*
X361298Y69299D01*
X361391Y69088D01*
X361490Y68880D01*
X361593Y68674D01*
X361702Y68471D01*
X361815Y68270D01*
X361933Y68072D01*
X362057Y67877D01*
X362185Y67685D01*
X362317Y67497D01*
X362454Y67312D01*
X362596Y67130D01*
X362742Y66951D01*
X362892Y66777D01*
X363047Y66606D01*
X363206Y66439D01*
X363369Y66275D01*
X363535Y66116D01*
X363706Y65961D01*
X363881Y65811D01*
X364059Y65664D01*
X364240Y65522D01*
X364425Y65385D01*
X364613Y65252D01*
X364805Y65123D01*
X364999Y65000D01*
D15*
X304763Y89175D02*
X300000Y82825D01*
X300000Y89175D02*
X304763Y89175D01*
X300000Y89175D02*
X295237Y89175D01*
X300000Y82825D01*
X304763Y82825D01*
X300000Y82825D02*
X295237Y82825D01*
X300000Y89175D02*
X300000Y97113D01*
X300000Y82825D02*
X300000Y74887D01*
D11*
X311989Y101165D02*
X317582Y101165D01*
X317582Y103961D01*
X316650Y104893D01*
X312921Y104893D01*
X311989Y103961D01*
X311989Y101165D01*
X313854Y106778D02*
X311989Y108642D01*
X317582Y108642D01*
X317582Y106778D02*
X317582Y110506D01*
X313854Y112391D02*
X311989Y114255D01*
X317582Y114255D01*
X317582Y112391D02*
X317582Y116119D01*
D15*
X310700Y118100D02*
X310700Y53900D01*
X289300Y53900D01*
X289300Y118100D01*
X310700Y118100D01*
D11*
X311989Y101165D02*
X317582Y101165D01*
X317582Y103961D01*
X316650Y104893D01*
X312921Y104893D01*
X311989Y103961D01*
X311989Y101165D01*
X313854Y106778D02*
X311989Y108642D01*
X317582Y108642D01*
X317582Y106778D02*
X317582Y110506D01*
X313854Y112391D02*
X311989Y114255D01*
X317582Y114255D01*
X317582Y112391D02*
X317582Y116119D01*
X365170Y124270D02*
X365170Y153730D01*
X376830Y153730D01*
X376830Y124270D01*
X365170Y124270D01*
X359549Y126940D02*
X358617Y126008D01*
X358617Y124144D01*
X359549Y123212D01*
X363278Y123212D01*
X364210Y124144D01*
X364210Y126008D01*
X363278Y126940D01*
X360481Y128825D02*
X358617Y130689D01*
X364210Y130689D01*
X364210Y128825D02*
X364210Y132553D01*
X358617Y134438D02*
X358617Y138167D01*
X359549Y138167D01*
X363278Y134438D01*
X364210Y134438D01*
X365170Y156270D02*
X365170Y185730D01*
X376830Y185730D01*
X376830Y156270D01*
X365170Y156270D01*
X359549Y158940D02*
X358617Y158008D01*
X358617Y156144D01*
X359549Y155212D01*
X363278Y155212D01*
X364210Y156144D01*
X364210Y158008D01*
X363278Y158940D01*
X360481Y160825D02*
X358617Y162689D01*
X364210Y162689D01*
X364210Y160825D02*
X364210Y164553D01*
X359549Y166438D02*
X358617Y167370D01*
X358617Y169234D01*
X359549Y170167D01*
X360481Y170167D01*
X361413Y169234D01*
X362345Y170167D01*
X363278Y170167D01*
X364210Y169234D01*
X364210Y167370D01*
X363278Y166438D01*
X362345Y166438D01*
X361413Y167370D01*
X360481Y166438D01*
X359549Y166438D01*
X361413Y167370D02*
X361413Y169234D01*
X365170Y189270D02*
X365170Y218730D01*
X376830Y218730D01*
X376830Y189270D01*
X365170Y189270D01*
X359549Y191940D02*
X358617Y191008D01*
X358617Y189144D01*
X359549Y188212D01*
X363278Y188212D01*
X364210Y189144D01*
X364210Y191008D01*
X363278Y191940D01*
X360481Y193825D02*
X358617Y195689D01*
X364210Y195689D01*
X364210Y193825D02*
X364210Y197553D01*
X359549Y199438D02*
X358617Y200370D01*
X358617Y202234D01*
X359549Y203167D01*
X360481Y203167D01*
X361413Y202234D01*
X361413Y201302D01*
X361413Y202234D02*
X362345Y203167D01*
X363278Y203167D01*
X364210Y202234D01*
X364210Y200370D01*
X363278Y199438D01*
D15*
X472920Y120370D02*
X483080Y120370D01*
D11*
X468711Y103270D02*
X469256Y103490D01*
X469806Y103696D01*
X470360Y103889D01*
X470920Y104068D01*
X471483Y104233D01*
X472051Y104385D01*
X472622Y104523D01*
X473196Y104647D01*
X473773Y104757D01*
X474352Y104853D01*
X474934Y104934D01*
X475518Y105002D01*
X476102Y105055D01*
X476689Y105094D01*
X477275Y105119D01*
X477863Y105130D01*
X478450Y105126D01*
X479037Y105108D01*
X479624Y105075D01*
X480209Y105029D01*
X480793Y104968D01*
X481376Y104893D01*
X481956Y104803D01*
X482535Y104700D01*
X483110Y104583D01*
X483683Y104451D01*
X484252Y104306D01*
X484817Y104147D01*
X485378Y103974D01*
X485935Y103788D01*
X486488Y103588D01*
X487035Y103375D01*
X487577Y103148D01*
X488113Y102909D01*
X488643Y102656D01*
X489167Y102390D01*
X489685Y102112D01*
X490195Y101822D01*
X490698Y101519D01*
X491194Y101204D01*
X491682Y100876D01*
X492162Y100538D01*
X492633Y100187D01*
X493096Y99825D01*
X493549Y99452D01*
X493994Y99068D01*
X494429Y98674D01*
X494854Y98269D01*
X495270Y97853D01*
X495675Y97428D01*
X496069Y96993D01*
X496453Y96548D01*
X496826Y96095D01*
X497188Y95632D01*
X497539Y95161D01*
X497877Y94681D01*
X498205Y94193D01*
X498520Y93697D01*
X498823Y93194D01*
X499113Y92684D01*
X499391Y92166D01*
X499657Y91642D01*
X499910Y91112D01*
X500149Y90576D01*
X500376Y90034D01*
X500589Y89487D01*
X500789Y88934D01*
X500975Y88377D01*
X501148Y87816D01*
X501307Y87251D01*
X501452Y86682D01*
X501584Y86109D01*
X501701Y85534D01*
X501804Y84955D01*
X501894Y84375D01*
X501969Y83792D01*
X502030Y83208D01*
X502076Y82623D01*
X502109Y82036D01*
X502127Y81449D01*
X502131Y80862D01*
X502120Y80274D01*
X502095Y79688D01*
X502056Y79101D01*
X502003Y78517D01*
X501935Y77933D01*
X501854Y77351D01*
X501758Y76772D01*
X501648Y76195D01*
X501524Y75621D01*
X501386Y75050D01*
X501234Y74482D01*
X501069Y73919D01*
X500890Y73359D01*
X500697Y72805D01*
X500491Y72255D01*
X500271Y71710D01*
D15*
X472920Y109765D02*
X472920Y120370D01*
D11*
X455730Y90289D02*
X455514Y89753D01*
X455310Y89212D01*
X455120Y88666D01*
X454943Y88116D01*
X454779Y87562D01*
X454629Y87004D01*
X454492Y86443D01*
X454368Y85878D01*
X454258Y85311D01*
X454162Y84741D01*
X454079Y84169D01*
X454010Y83596D01*
X453955Y83020D01*
X453913Y82444D01*
X453886Y81867D01*
X453872Y81289D01*
X453872Y80711D01*
X453886Y80133D01*
X453913Y79556D01*
X453955Y78980D01*
X454010Y78404D01*
X454079Y77831D01*
X454162Y77259D01*
X454258Y76689D01*
X454368Y76122D01*
X454492Y75557D01*
X454629Y74996D01*
X454779Y74438D01*
X454943Y73884D01*
X455120Y73334D01*
X455310Y72788D01*
X455514Y72247D01*
X455730Y71711D01*
D15*
X483080Y109765D02*
X483080Y120370D01*
D11*
X487289Y58730D02*
X486753Y58514D01*
X486212Y58310D01*
X485666Y58120D01*
X485116Y57943D01*
X484562Y57779D01*
X484004Y57629D01*
X483443Y57492D01*
X482878Y57368D01*
X482311Y57258D01*
X481741Y57162D01*
X481169Y57079D01*
X480596Y57010D01*
X480020Y56955D01*
X479444Y56913D01*
X478867Y56886D01*
X478289Y56872D01*
X477711Y56872D01*
X477133Y56886D01*
X476556Y56913D01*
X475980Y56955D01*
X475404Y57010D01*
X474831Y57079D01*
X474259Y57162D01*
X473689Y57258D01*
X473122Y57368D01*
X472557Y57492D01*
X471996Y57629D01*
X471438Y57779D01*
X470884Y57943D01*
X470334Y58120D01*
X469788Y58310D01*
X469247Y58514D01*
X468711Y58730D01*
D15*
X448790Y81000D02*
X448799Y81717D01*
X448825Y82433D01*
X448869Y83149D01*
X448931Y83863D01*
X449010Y84576D01*
X449106Y85286D01*
X449220Y85994D01*
X449351Y86699D01*
X449500Y87400D01*
X449665Y88097D01*
X449848Y88791D01*
X450048Y89479D01*
X450264Y90163D01*
X450497Y90841D01*
X450747Y91513D01*
X451013Y92178D01*
X451296Y92837D01*
X451594Y93489D01*
X451909Y94133D01*
X452239Y94769D01*
X452585Y95398D01*
X452946Y96017D01*
X453322Y96627D01*
X453713Y97228D01*
X454118Y97819D01*
X454538Y98400D01*
X454972Y98971D01*
X455420Y99531D01*
X455882Y100079D01*
X456357Y100616D01*
X456845Y101141D01*
X457345Y101655D01*
X457859Y102155D01*
X458384Y102643D01*
X458921Y103118D01*
X459469Y103580D01*
X460029Y104028D01*
X460600Y104462D01*
X461181Y104882D01*
X461772Y105287D01*
X462373Y105678D01*
X462983Y106054D01*
X463602Y106415D01*
X464231Y106761D01*
X464867Y107091D01*
X465511Y107406D01*
X466163Y107704D01*
X466822Y107987D01*
X467487Y108253D01*
X468159Y108503D01*
X468837Y108736D01*
X469521Y108952D01*
X470209Y109152D01*
X470903Y109335D01*
X471600Y109500D01*
X472301Y109649D01*
X473006Y109780D01*
X473714Y109894D01*
X474424Y109990D01*
X475137Y110069D01*
X475851Y110131D01*
X476567Y110175D01*
X477283Y110201D01*
X478000Y110210D01*
X478717Y110201D01*
X479433Y110175D01*
X480149Y110131D01*
X480863Y110069D01*
X481576Y109990D01*
X482286Y109894D01*
X482994Y109780D01*
X483699Y109649D01*
X484400Y109500D01*
X485097Y109335D01*
X485791Y109152D01*
X486479Y108952D01*
X487163Y108736D01*
X487841Y108503D01*
X488513Y108253D01*
X489178Y107987D01*
X489837Y107704D01*
X490489Y107406D01*
X491133Y107091D01*
X491769Y106761D01*
X492398Y106415D01*
X493017Y106054D01*
X493627Y105678D01*
X494228Y105287D01*
X494819Y104882D01*
X495400Y104462D01*
X495971Y104028D01*
X496531Y103580D01*
X497079Y103118D01*
X497616Y102643D01*
X498141Y102155D01*
X498655Y101655D01*
X499155Y101141D01*
X499643Y100616D01*
X500118Y100079D01*
X500580Y99531D01*
X501028Y98971D01*
X501462Y98400D01*
X501882Y97819D01*
X502287Y97228D01*
X502678Y96627D01*
X503054Y96017D01*
X503415Y95398D01*
X503761Y94769D01*
X504091Y94133D01*
X504406Y93489D01*
X504704Y92837D01*
X504987Y92178D01*
X505253Y91513D01*
X505503Y90841D01*
X505736Y90163D01*
X505952Y89479D01*
X506152Y88791D01*
X506335Y88097D01*
X506500Y87400D01*
X506649Y86699D01*
X506780Y85994D01*
X506894Y85286D01*
X506990Y84576D01*
X507069Y83863D01*
X507131Y83149D01*
X507175Y82433D01*
X507201Y81717D01*
X507210Y81000D01*
X507201Y80283D01*
X507175Y79567D01*
X507131Y78851D01*
X507069Y78137D01*
X506990Y77424D01*
X506894Y76714D01*
X506780Y76006D01*
X506649Y75301D01*
X506500Y74600D01*
X506335Y73903D01*
X506152Y73209D01*
X505952Y72521D01*
X505736Y71837D01*
X505503Y71159D01*
X505253Y70487D01*
X504987Y69822D01*
X504704Y69163D01*
X504406Y68511D01*
X504091Y67867D01*
X503761Y67231D01*
X503415Y66602D01*
X503054Y65983D01*
X502678Y65373D01*
X502287Y64772D01*
X501882Y64181D01*
X501462Y63600D01*
X501028Y63029D01*
X500580Y62469D01*
X500118Y61921D01*
X499643Y61384D01*
X499155Y60859D01*
X498655Y60345D01*
X498141Y59845D01*
X497616Y59357D01*
X497079Y58882D01*
X496531Y58420D01*
X495971Y57972D01*
X495400Y57538D01*
X494819Y57118D01*
X494228Y56713D01*
X493627Y56322D01*
X493017Y55946D01*
X492398Y55585D01*
X491769Y55239D01*
X491133Y54909D01*
X490489Y54594D01*
X489837Y54296D01*
X489178Y54013D01*
X488513Y53747D01*
X487841Y53497D01*
X487163Y53264D01*
X486479Y53048D01*
X485791Y52848D01*
X485097Y52665D01*
X484400Y52500D01*
X483699Y52351D01*
X482994Y52220D01*
X482286Y52106D01*
X481576Y52010D01*
X480863Y51931D01*
X480149Y51869D01*
X479433Y51825D01*
X478717Y51799D01*
X478000Y51790D01*
X477283Y51799D01*
X476567Y51825D01*
X475851Y51869D01*
X475137Y51931D01*
X474424Y52010D01*
X473714Y52106D01*
X473006Y52220D01*
X472301Y52351D01*
X471600Y52500D01*
X470903Y52665D01*
X470209Y52848D01*
X469521Y53048D01*
X468837Y53264D01*
X468159Y53497D01*
X467487Y53747D01*
X466822Y54013D01*
X466163Y54296D01*
X465511Y54594D01*
X464867Y54909D01*
X464231Y55239D01*
X463602Y55585D01*
X462983Y55946D01*
X462373Y56322D01*
X461772Y56713D01*
X461181Y57118D01*
X460600Y57538D01*
X460029Y57972D01*
X459469Y58420D01*
X458921Y58882D01*
X458384Y59357D01*
X457859Y59845D01*
X457345Y60345D01*
X456845Y60859D01*
X456357Y61384D01*
X455882Y61921D01*
X455420Y62469D01*
X454972Y63029D01*
X454538Y63600D01*
X454118Y64181D01*
X453713Y64772D01*
X453322Y65373D01*
X452946Y65983D01*
X452585Y66602D01*
X452239Y67231D01*
X451909Y67867D01*
X451594Y68511D01*
X451296Y69163D01*
X451013Y69822D01*
X450747Y70487D01*
X450497Y71159D01*
X450264Y71837D01*
X450048Y72521D01*
X449848Y73209D01*
X449665Y73903D01*
X449500Y74600D01*
X449351Y75301D01*
X449220Y76006D01*
X449106Y76714D01*
X449010Y77424D01*
X448931Y78137D01*
X448869Y78851D01*
X448825Y79567D01*
X448799Y80283D01*
X448790Y81000D01*
X510932Y84297D02*
X518558Y84297D01*
X510932Y84297D02*
X509025Y86204D01*
X509025Y90017D01*
X510932Y91924D01*
X518558Y91924D01*
X520465Y90017D01*
X520465Y86204D01*
X518558Y84297D01*
X516652Y88110D02*
X520465Y91924D01*
X520465Y101711D02*
X509025Y101711D01*
X514745Y95991D01*
X514745Y103618D01*
M02*
