M48
;GenerationSoftware,Autodesk,EAGLE,9.0.1*%
;CreationDate,2019-01-05T07:54:04Z*%
FMAT,2
ICI,OFF
METRIC,TZ,000.000
T8C0.600
T7C0.762
T6C0.813
T5C1.016
T4C1.500
T3C1.800
T2C1.900
T1C2.300
%
G90
M71
T1
X56980Y40153
X43320Y26063
X54330Y26063
T2
X40840Y38013
X40840Y41313
T3
X63782Y28286
X63641Y40631
X63966Y33872
X58826Y14938
X63907Y6751
X63707Y12223
X58885Y3953
X58500Y20300
X63700Y17700
X58854Y9504
T4
X47190Y38113
X51330Y38063
T5
X22839Y40060
X21061Y32440
T6
X11160Y31800
X16240Y31800
X19100Y20995
X19100Y24805
X7095Y40700
X33060Y7300
X38140Y7300
X46530Y9370
X46530Y6830
X49070Y6830
X10905Y40700
X3800Y10430
X3820Y13030
X3740Y2820
X3730Y7990
X3730Y5380
X15910Y42760
X15910Y37680
T7
X2941Y17493
X33126Y29104
X33113Y31439
X26141Y30313
X28476Y30326
X5276Y17506
T8
X48600Y24300
X44700Y29400
X20508Y18008
X20621Y15179
X20716Y12216
X8500Y26000
X42000Y17600
X42100Y15000
X39600Y25400
X14700Y15900
X23100Y4000
X41900Y21000
X56000Y15400
X55400Y22200
X26000Y10400
X25800Y6900
M30