G75*
%MOMM*%
%FSLAX34Y34*%
%LPD*%
%AMOC8*
5,1,8,0,0,1.08239X$1,22.5*%
G01*
%ADD10C,0.000000*%
%ADD11R,1.303200X1.203200*%
%ADD12P,1.594577X8X22.500000*%
%ADD13P,1.594577X8X202.500000*%
%ADD14R,2.003200X1.903200*%
%ADD15R,1.003200X1.103200*%
%ADD16R,1.203200X1.303200*%
%ADD17R,3.203200X3.203200*%
%ADD18R,3.703200X3.703200*%
%ADD19R,2.703200X2.703200*%
%ADD20R,3.053200X3.053200*%
%ADD21R,1.903200X2.003200*%
%ADD22R,1.803400X1.803400*%
%ADD23C,1.727200*%
%ADD24P,1.594577X8X292.500000*%
%ADD25P,1.594577X8X112.500000*%
%ADD26P,2.034460X8X292.500000*%
%ADD27P,2.034460X8X22.500000*%
%ADD28R,1.703200X0.803200*%
%ADD29R,2.003200X2.903200*%
%ADD30C,1.524000*%
%ADD31R,1.103200X1.003200*%
%ADD32P,1.649562X8X292.500000*%
%ADD33C,1.209600*%


D10*
X668173Y454655D02*
X3400Y456200D01*
X5600Y1600D01*
X665600Y1600D02*
X668173Y454655D01*
X666573Y955D02*
X5600Y1600D01*
D11*
X466664Y314547D03*
X483664Y314547D03*
X27935Y217856D03*
X44935Y217856D03*
D12*
X284759Y303261D03*
D13*
X261414Y303135D03*
D14*
X514210Y412049D03*
X473210Y412049D03*
D15*
X485264Y335847D03*
X466264Y335847D03*
X475764Y355847D03*
D16*
X528867Y57873D03*
X511867Y57873D03*
X458404Y32019D03*
X441404Y32019D03*
D11*
X468464Y287547D03*
X468464Y270547D03*
X485664Y288247D03*
X485664Y271247D03*
D17*
X588544Y95038D03*
X637823Y282856D03*
X636407Y406307D03*
X639655Y338724D03*
X588854Y39530D03*
X588261Y149381D03*
X639075Y67512D03*
X637072Y122226D03*
D18*
X569800Y401527D03*
D19*
X471900Y381127D03*
D18*
X433200Y260627D03*
D20*
X408400Y380127D03*
D18*
X543300Y260627D03*
D19*
X513300Y380627D03*
D20*
X408400Y413127D03*
D21*
X553200Y71800D03*
X553200Y112800D03*
D22*
X38000Y104300D03*
X38200Y130300D03*
X37400Y28200D03*
X37300Y79900D03*
X37300Y53800D03*
D23*
X202990Y324400D02*
X218230Y324400D01*
X220770Y400600D02*
X236010Y400600D01*
D24*
X331261Y291041D03*
D25*
X331135Y314386D03*
D26*
X159100Y427600D03*
X159100Y376800D03*
D27*
X111600Y318000D03*
X162400Y318000D03*
D21*
X415000Y36500D03*
X415000Y77500D03*
D14*
X394500Y229000D03*
X435500Y229000D03*
D28*
X121500Y230350D03*
X66500Y230350D03*
X121500Y243050D03*
X121500Y217650D03*
X121500Y204950D03*
X66500Y243050D03*
X66500Y217650D03*
X66500Y204950D03*
D16*
X150000Y204500D03*
X150000Y221500D03*
D21*
X149000Y289500D03*
X149000Y248500D03*
D29*
X94000Y285000D03*
X50000Y285000D03*
D11*
X80000Y168500D03*
X80000Y185500D03*
D16*
X45500Y196000D03*
X28500Y196000D03*
D12*
X52759Y175061D03*
D13*
X29414Y174935D03*
D30*
X184396Y209950D02*
X197604Y209950D01*
X197604Y248050D02*
X184396Y248050D01*
D16*
X104000Y185500D03*
X104000Y168500D03*
D30*
X70950Y400396D02*
X70950Y413604D01*
X109050Y413604D02*
X109050Y400396D01*
D31*
X508000Y115500D03*
X508000Y134500D03*
X528000Y125000D03*
D16*
X487000Y151500D03*
X487000Y134500D03*
D11*
X468000Y150500D03*
X468000Y133500D03*
D16*
X485500Y115000D03*
X468500Y115000D03*
D14*
X400500Y124000D03*
X441500Y124000D03*
D16*
X529500Y153000D03*
X512500Y153000D03*
D17*
X637000Y177000D03*
D21*
X604000Y275500D03*
X604000Y316500D03*
D31*
X508000Y177500D03*
X508000Y196500D03*
X528000Y187000D03*
D16*
X486000Y213500D03*
X486000Y196500D03*
D11*
X466000Y213500D03*
X466000Y196500D03*
D16*
X484500Y176000D03*
X467500Y176000D03*
D14*
X398500Y193000D03*
X439500Y193000D03*
D11*
X550000Y200500D03*
X550000Y183500D03*
D17*
X585000Y203000D03*
D21*
X572000Y297500D03*
X572000Y338500D03*
D27*
X330600Y73000D03*
X381400Y73000D03*
D14*
X528500Y33000D03*
X487500Y33000D03*
D11*
X437000Y68500D03*
X437000Y85500D03*
D32*
X465300Y93700D03*
X465300Y68300D03*
X490700Y68300D03*
D33*
X486000Y243000D03*
X447000Y294000D03*
X205076Y180076D03*
X206212Y151788D03*
X207162Y122162D03*
X85000Y260000D03*
X420000Y176000D03*
X419000Y210000D03*
X421000Y150000D03*
X396000Y254000D03*
X147000Y159000D03*
X554000Y222000D03*
X560000Y154000D03*
X231000Y40000D03*
X258000Y69000D03*
X260000Y104000D03*
M02*
