%
M48
M72
T01C0.0236
T02C0.0300
T03C0.0320
T04C0.0400
T05C0.0591
T06C0.0709
T07C0.0748
T08C0.0906
%
T01
X26913Y11539
X24236Y12366
X21598Y11067
X21637Y9728
X21677Y8704
X27149Y8862
X22700Y14374
X20693Y12799
X13176Y9888
X13221Y8775
X13258Y7608
X15338Y6893
X15260Y5515
X14197Y4374
X10889Y9059
X8448Y13035
T02
X7179Y9691
X6260Y9686
X15394Y14733
X16313Y14738
X18139Y15176
X18144Y14257
T03
X6574Y3909
X6571Y4917
X6571Y5944
X6598Y6905
X6606Y7929
X12622Y11065
X12622Y12565
X11496Y15319
X9496Y15319
X11366Y17633
X9395Y18822
X7895Y18822
X11366Y19633
X24421Y5488
X23421Y5488
X23421Y6488
X20118Y5673
X18118Y5673
T04
X13394Y15570
X14094Y18570
T05
X23681Y17804
X25311Y17784
T06
X28273Y6540
X30262Y5457
X28285Y4355
X30184Y7611
X28262Y8680
X30181Y9767
X28134Y10791
X30213Y13935
X30285Y16134
X30157Y18795
T07
X21181Y17764
X21181Y19064
T08
X27535Y18607
X26492Y13060
X22157Y13060
M30
