G75*
%MOIN*%
%OFA0B0*%
%FSLAX25Y25*%
%IPPOS*%
%LPD*%
%AMOC8*
5,1,8,0,0,1.08239X$1,22.5*
%
%ADD10C,0.00400*%
%ADD11C,0.00800*%
%ADD12C,0.00600*%
%ADD13C,0.01600*%
%ADD14C,0.00500*%
%ADD15C,0.01000*%
%ADD16C,0.00700*%
%ADD17R,0.03200X0.08425*%
%ADD18R,0.03200X0.08327*%
%ADD19R,0.02559X0.15000*%
%ADD20R,0.15000X0.02559*%
D10*
X0065297Y0006599D02*
X0066064Y0005831D01*
X0067599Y0005831D01*
X0068366Y0006599D01*
X0069901Y0005831D02*
X0069901Y0010435D01*
X0072970Y0005831D01*
X0072970Y0010435D01*
X0074505Y0009668D02*
X0075272Y0010435D01*
X0076807Y0010435D01*
X0077574Y0009668D01*
X0076807Y0008133D02*
X0077574Y0007366D01*
X0077574Y0006599D01*
X0076807Y0005831D01*
X0075272Y0005831D01*
X0074505Y0006599D01*
X0075272Y0008133D02*
X0074505Y0008901D01*
X0074505Y0009668D01*
X0075272Y0008133D02*
X0076807Y0008133D01*
X0079109Y0008133D02*
X0082178Y0008133D01*
X0081411Y0005831D02*
X0081411Y0010435D01*
X0079109Y0008133D01*
X0076039Y0005064D02*
X0076039Y0011203D01*
X0068366Y0009668D02*
X0067599Y0010435D01*
X0066064Y0010435D01*
X0065297Y0009668D01*
X0065297Y0006599D01*
X0127075Y0037012D02*
X0127842Y0036245D01*
X0130912Y0036245D01*
X0131679Y0037012D01*
X0131679Y0038547D01*
X0130912Y0039314D01*
X0131679Y0040849D02*
X0128610Y0043918D01*
X0127842Y0043918D01*
X0127075Y0043151D01*
X0127075Y0041616D01*
X0127842Y0040849D01*
X0127842Y0039314D02*
X0127075Y0038547D01*
X0127075Y0037012D01*
X0131679Y0040849D02*
X0131679Y0043918D01*
X0116410Y0075477D02*
X0113341Y0075477D01*
X0116410Y0078546D01*
X0116410Y0079314D01*
X0115643Y0080081D01*
X0114108Y0080081D01*
X0113341Y0079314D01*
X0111806Y0079314D02*
X0111039Y0080081D01*
X0109504Y0080081D01*
X0108737Y0079314D01*
X0108737Y0078546D01*
X0109504Y0077779D01*
X0111039Y0077779D01*
X0111806Y0077012D01*
X0111806Y0076244D01*
X0111039Y0075477D01*
X0109504Y0075477D01*
X0108737Y0076244D01*
X0107202Y0075477D02*
X0104133Y0075477D01*
X0104133Y0080081D01*
X0110272Y0080848D02*
X0110272Y0074710D01*
X0143748Y0088489D02*
X0143748Y0090791D01*
X0144515Y0091558D01*
X0146050Y0091558D01*
X0146817Y0090791D01*
X0146817Y0088489D01*
X0146817Y0090024D02*
X0148352Y0091558D01*
X0147585Y0093093D02*
X0148352Y0093860D01*
X0148352Y0095395D01*
X0147585Y0096162D01*
X0146817Y0096162D01*
X0146050Y0095395D01*
X0146050Y0093860D01*
X0145283Y0093093D01*
X0144515Y0093093D01*
X0143748Y0093860D01*
X0143748Y0095395D01*
X0144515Y0096162D01*
X0145283Y0097697D02*
X0143748Y0099231D01*
X0148352Y0099231D01*
X0148352Y0097697D02*
X0148352Y0100766D01*
X0149119Y0094628D02*
X0142981Y0094628D01*
X0143748Y0088489D02*
X0148352Y0088489D01*
X0143736Y0132446D02*
X0143736Y0138585D01*
X0142969Y0137817D02*
X0144504Y0137817D01*
X0145271Y0137050D01*
X0146806Y0137817D02*
X0149875Y0137817D01*
X0149875Y0137050D01*
X0146806Y0133981D01*
X0146806Y0133213D01*
X0145271Y0133981D02*
X0145271Y0134748D01*
X0144504Y0135515D01*
X0142969Y0135515D01*
X0142202Y0136283D01*
X0142202Y0137050D01*
X0142969Y0137817D01*
X0140667Y0137050D02*
X0139900Y0137817D01*
X0137598Y0137817D01*
X0137598Y0133213D01*
X0139900Y0133213D01*
X0140667Y0133981D01*
X0140667Y0137050D01*
X0142202Y0133981D02*
X0142969Y0133213D01*
X0144504Y0133213D01*
X0145271Y0133981D01*
X0159764Y0153568D02*
X0159764Y0155102D01*
X0159764Y0154335D02*
X0164368Y0154335D01*
X0164368Y0153568D02*
X0164368Y0155102D01*
X0163601Y0156637D02*
X0164368Y0157404D01*
X0164368Y0158939D01*
X0163601Y0159706D01*
X0164368Y0161241D02*
X0164368Y0164310D01*
X0164368Y0162776D02*
X0159764Y0162776D01*
X0161299Y0161241D01*
X0160531Y0159706D02*
X0159764Y0158939D01*
X0159764Y0157404D01*
X0160531Y0156637D01*
X0163601Y0156637D01*
X0152782Y0169080D02*
X0151247Y0169080D01*
X0150480Y0169847D01*
X0150480Y0171381D01*
X0152782Y0171381D01*
X0153549Y0170614D01*
X0153549Y0169847D01*
X0152782Y0169080D01*
X0150480Y0171381D02*
X0152014Y0172916D01*
X0153549Y0173683D01*
X0148945Y0172916D02*
X0148178Y0173683D01*
X0146643Y0173683D01*
X0145876Y0172916D01*
X0145876Y0172149D01*
X0146643Y0171381D01*
X0148178Y0171381D01*
X0148945Y0170614D01*
X0148945Y0169847D01*
X0148178Y0169080D01*
X0146643Y0169080D01*
X0145876Y0169847D01*
X0144341Y0169080D02*
X0142806Y0170614D01*
X0143574Y0170614D02*
X0141272Y0170614D01*
X0141272Y0169080D02*
X0141272Y0173683D01*
X0143574Y0173683D01*
X0144341Y0172916D01*
X0144341Y0171381D01*
X0143574Y0170614D01*
X0147410Y0168312D02*
X0147410Y0174451D01*
X0128746Y0173310D02*
X0128746Y0172543D01*
X0127978Y0171775D01*
X0126444Y0171775D01*
X0125676Y0172543D01*
X0125676Y0173310D01*
X0126444Y0174077D01*
X0127978Y0174077D01*
X0128746Y0173310D01*
X0127978Y0171775D02*
X0128746Y0171008D01*
X0128746Y0170241D01*
X0127978Y0169473D01*
X0126444Y0169473D01*
X0125676Y0170241D01*
X0125676Y0171008D01*
X0126444Y0171775D01*
X0124142Y0171008D02*
X0123374Y0171775D01*
X0121840Y0171775D01*
X0121073Y0172543D01*
X0121073Y0173310D01*
X0121840Y0174077D01*
X0123374Y0174077D01*
X0124142Y0173310D01*
X0122607Y0174844D02*
X0122607Y0168706D01*
X0121840Y0169473D02*
X0123374Y0169473D01*
X0124142Y0170241D01*
X0124142Y0171008D01*
X0121840Y0169473D02*
X0121073Y0170241D01*
X0119538Y0169473D02*
X0118003Y0171008D01*
X0118771Y0171008D02*
X0116469Y0171008D01*
X0116469Y0169473D02*
X0116469Y0174077D01*
X0118771Y0174077D01*
X0119538Y0173310D01*
X0119538Y0171775D01*
X0118771Y0171008D01*
X0099218Y0185121D02*
X0096149Y0182052D01*
X0096149Y0181284D01*
X0094614Y0182052D02*
X0094614Y0182819D01*
X0093847Y0183586D01*
X0092312Y0183586D01*
X0091545Y0184354D01*
X0091545Y0185121D01*
X0092312Y0185888D01*
X0093847Y0185888D01*
X0094614Y0185121D01*
X0096149Y0185888D02*
X0099218Y0185888D01*
X0099218Y0185121D01*
X0094614Y0182052D02*
X0093847Y0181284D01*
X0092312Y0181284D01*
X0091545Y0182052D01*
X0090010Y0181284D02*
X0088476Y0182819D01*
X0089243Y0182819D02*
X0086941Y0182819D01*
X0086941Y0181284D02*
X0086941Y0185888D01*
X0089243Y0185888D01*
X0090010Y0185121D01*
X0090010Y0183586D01*
X0089243Y0182819D01*
X0093080Y0180517D02*
X0093080Y0186655D01*
X0081088Y0188430D02*
X0081088Y0189964D01*
X0080321Y0190731D01*
X0081088Y0192266D02*
X0076484Y0192266D01*
X0081088Y0195335D01*
X0076484Y0195335D01*
X0077252Y0196870D02*
X0076484Y0197637D01*
X0076484Y0199172D01*
X0077252Y0199939D01*
X0077252Y0201474D02*
X0076484Y0202241D01*
X0076484Y0203776D01*
X0077252Y0204543D01*
X0078019Y0204543D01*
X0078786Y0203776D01*
X0079554Y0204543D01*
X0080321Y0204543D01*
X0081088Y0203776D01*
X0081088Y0202241D01*
X0080321Y0201474D01*
X0080321Y0199939D02*
X0079554Y0199939D01*
X0078786Y0199172D01*
X0078786Y0197637D01*
X0078019Y0196870D01*
X0077252Y0196870D01*
X0075717Y0198405D02*
X0081856Y0198405D01*
X0081088Y0199172D02*
X0080321Y0199939D01*
X0081088Y0199172D02*
X0081088Y0197637D01*
X0080321Y0196870D01*
X0078786Y0203009D02*
X0078786Y0203776D01*
X0077252Y0190731D02*
X0076484Y0189964D01*
X0076484Y0188430D01*
X0077252Y0187662D01*
X0080321Y0187662D01*
X0081088Y0188430D01*
X0091515Y0147148D02*
X0093817Y0147148D01*
X0094584Y0146381D01*
X0094584Y0144846D01*
X0093817Y0144079D01*
X0091515Y0144079D01*
X0093050Y0144079D02*
X0094584Y0142544D01*
X0096119Y0143311D02*
X0096886Y0142544D01*
X0098421Y0142544D01*
X0099188Y0143311D01*
X0099188Y0144079D01*
X0098421Y0144846D01*
X0096886Y0144846D01*
X0096119Y0145613D01*
X0096119Y0146381D01*
X0096886Y0147148D01*
X0098421Y0147148D01*
X0099188Y0146381D01*
X0100723Y0146381D02*
X0101490Y0147148D01*
X0103025Y0147148D01*
X0103792Y0146381D01*
X0103792Y0145613D01*
X0100723Y0142544D01*
X0103792Y0142544D01*
X0108444Y0142544D02*
X0108444Y0147148D01*
X0110746Y0147148D01*
X0111513Y0146381D01*
X0111513Y0144846D01*
X0110746Y0144079D01*
X0108444Y0144079D01*
X0109979Y0144079D02*
X0111513Y0142544D01*
X0113048Y0143311D02*
X0113815Y0142544D01*
X0115350Y0142544D01*
X0116117Y0143311D01*
X0116117Y0144079D01*
X0115350Y0144846D01*
X0113815Y0144846D01*
X0113048Y0145613D01*
X0113048Y0146381D01*
X0113815Y0147148D01*
X0115350Y0147148D01*
X0116117Y0146381D01*
X0117652Y0146381D02*
X0118419Y0147148D01*
X0119954Y0147148D01*
X0120721Y0146381D01*
X0120721Y0145613D01*
X0119954Y0144846D01*
X0120721Y0144079D01*
X0120721Y0143311D01*
X0119954Y0142544D01*
X0118419Y0142544D01*
X0117652Y0143311D01*
X0119187Y0144846D02*
X0119954Y0144846D01*
X0114583Y0147915D02*
X0114583Y0141777D01*
X0097654Y0141777D02*
X0097654Y0147915D01*
X0091515Y0147148D02*
X0091515Y0142544D01*
X0168437Y0200576D02*
X0168437Y0205180D01*
X0170739Y0205180D01*
X0171506Y0204412D01*
X0171506Y0202878D01*
X0170739Y0202110D01*
X0168437Y0202110D01*
X0169972Y0202110D02*
X0171506Y0200576D01*
X0173041Y0201343D02*
X0173808Y0200576D01*
X0175343Y0200576D01*
X0176110Y0201343D01*
X0176110Y0202110D01*
X0175343Y0202878D01*
X0173808Y0202878D01*
X0173041Y0203645D01*
X0173041Y0204412D01*
X0173808Y0205180D01*
X0175343Y0205180D01*
X0176110Y0204412D01*
X0174576Y0205947D02*
X0174576Y0199808D01*
X0177645Y0202878D02*
X0180714Y0202878D01*
X0179947Y0200576D02*
X0179947Y0205180D01*
X0177645Y0202878D01*
X0267217Y0215930D02*
X0267984Y0215162D01*
X0269519Y0215162D01*
X0270286Y0215930D01*
X0271821Y0215162D02*
X0271821Y0219766D01*
X0274890Y0215162D01*
X0274890Y0219766D01*
X0276424Y0218999D02*
X0277192Y0219766D01*
X0278726Y0219766D01*
X0279494Y0218999D01*
X0281028Y0218999D02*
X0281796Y0219766D01*
X0283330Y0219766D01*
X0284098Y0218999D01*
X0284098Y0218231D01*
X0281028Y0215162D01*
X0284098Y0215162D01*
X0279494Y0215930D02*
X0279494Y0216697D01*
X0278726Y0217464D01*
X0277192Y0217464D01*
X0276424Y0218231D01*
X0276424Y0218999D01*
X0277959Y0220533D02*
X0277959Y0214395D01*
X0277192Y0215162D02*
X0278726Y0215162D01*
X0279494Y0215930D01*
X0277192Y0215162D02*
X0276424Y0215930D01*
X0270286Y0218999D02*
X0269519Y0219766D01*
X0267984Y0219766D01*
X0267217Y0218999D01*
X0267217Y0215930D01*
X0214553Y0117958D02*
X0213786Y0117958D01*
X0213019Y0117191D01*
X0213019Y0114889D01*
X0214553Y0114889D01*
X0215321Y0115656D01*
X0215321Y0117191D01*
X0214553Y0117958D01*
X0211484Y0116424D02*
X0213019Y0114889D01*
X0213786Y0113354D02*
X0213019Y0112587D01*
X0213019Y0111052D01*
X0212251Y0110285D01*
X0211484Y0110285D01*
X0210717Y0111052D01*
X0210717Y0112587D01*
X0211484Y0113354D01*
X0209949Y0111820D02*
X0216088Y0111820D01*
X0215321Y0112587D02*
X0214553Y0113354D01*
X0213786Y0113354D01*
X0215321Y0112587D02*
X0215321Y0111052D01*
X0214553Y0110285D01*
X0214553Y0108750D02*
X0211484Y0108750D01*
X0210717Y0107983D01*
X0210717Y0105681D01*
X0215321Y0105681D01*
X0215321Y0107983D01*
X0214553Y0108750D01*
X0211484Y0116424D02*
X0210717Y0117958D01*
X0234988Y0100282D02*
X0239592Y0100282D01*
X0239592Y0098747D02*
X0239592Y0101817D01*
X0236523Y0098747D02*
X0234988Y0100282D01*
X0235756Y0097213D02*
X0234988Y0096445D01*
X0234988Y0094911D01*
X0235756Y0094143D01*
X0236523Y0094143D01*
X0237290Y0094911D01*
X0237290Y0096445D01*
X0238058Y0097213D01*
X0238825Y0097213D01*
X0239592Y0096445D01*
X0239592Y0094911D01*
X0238825Y0094143D01*
X0239592Y0092609D02*
X0239592Y0089539D01*
X0234988Y0089539D01*
X0234221Y0095678D02*
X0240360Y0095678D01*
X0275597Y0066281D02*
X0275597Y0060143D01*
X0274830Y0060910D02*
X0276364Y0060910D01*
X0277132Y0061678D01*
X0277132Y0062445D01*
X0276364Y0063212D01*
X0274830Y0063212D01*
X0274062Y0063980D01*
X0274062Y0064747D01*
X0274830Y0065514D01*
X0276364Y0065514D01*
X0277132Y0064747D01*
X0278666Y0063980D02*
X0280201Y0065514D01*
X0280201Y0060910D01*
X0281735Y0060910D02*
X0278666Y0060910D01*
X0274830Y0060910D02*
X0274062Y0061678D01*
X0272528Y0060910D02*
X0272528Y0065514D01*
X0269458Y0065514D02*
X0269458Y0060910D01*
X0267924Y0061678D02*
X0267156Y0060910D01*
X0265622Y0060910D01*
X0264854Y0061678D01*
X0264854Y0064747D01*
X0265622Y0065514D01*
X0267156Y0065514D01*
X0267924Y0064747D01*
X0269458Y0065514D02*
X0272528Y0060910D01*
X0294201Y0075993D02*
X0300340Y0075993D01*
X0299573Y0075226D02*
X0299573Y0076760D01*
X0298805Y0077528D01*
X0298038Y0077528D01*
X0297271Y0076760D01*
X0297271Y0075226D01*
X0296503Y0074458D01*
X0295736Y0074458D01*
X0294969Y0075226D01*
X0294969Y0076760D01*
X0295736Y0077528D01*
X0294969Y0079062D02*
X0297271Y0079062D01*
X0296503Y0080597D01*
X0296503Y0081364D01*
X0297271Y0082131D01*
X0298805Y0082131D01*
X0299573Y0081364D01*
X0299573Y0079830D01*
X0298805Y0079062D01*
X0294969Y0079062D02*
X0294969Y0082131D01*
X0299573Y0075226D02*
X0298805Y0074458D01*
X0298805Y0072924D02*
X0295736Y0072924D01*
X0294969Y0072156D01*
X0294969Y0069854D01*
X0299573Y0069854D01*
X0299573Y0072156D01*
X0298805Y0072924D01*
X0245636Y0043963D02*
X0245636Y0042428D01*
X0244868Y0041661D01*
X0244868Y0040126D02*
X0244101Y0040126D01*
X0243334Y0039359D01*
X0243334Y0037824D01*
X0242566Y0037057D01*
X0241799Y0037057D01*
X0241032Y0037824D01*
X0241032Y0039359D01*
X0241799Y0040126D01*
X0241799Y0041661D02*
X0241032Y0042428D01*
X0241032Y0043963D01*
X0241799Y0044730D01*
X0242566Y0044730D01*
X0243334Y0043963D01*
X0244101Y0044730D01*
X0244868Y0044730D01*
X0245636Y0043963D01*
X0243334Y0043963D02*
X0243334Y0043195D01*
X0244868Y0040126D02*
X0245636Y0039359D01*
X0245636Y0037824D01*
X0244868Y0037057D01*
X0244593Y0036260D02*
X0244593Y0039329D01*
X0246403Y0038591D02*
X0240264Y0038591D01*
X0242291Y0038562D02*
X0244593Y0036260D01*
X0244868Y0035522D02*
X0241799Y0035522D01*
X0241032Y0034755D01*
X0241032Y0032453D01*
X0245636Y0032453D01*
X0245636Y0034755D01*
X0244868Y0035522D01*
X0245361Y0034725D02*
X0244593Y0033958D01*
X0244593Y0032423D01*
X0243826Y0031656D01*
X0243059Y0031656D01*
X0242291Y0032423D01*
X0242291Y0033958D01*
X0243059Y0034725D01*
X0241524Y0033191D02*
X0247663Y0033191D01*
X0246895Y0033958D02*
X0246128Y0034725D01*
X0245361Y0034725D01*
X0246895Y0033958D02*
X0246895Y0032423D01*
X0246128Y0031656D01*
X0246128Y0030121D02*
X0243059Y0030121D01*
X0242291Y0029354D01*
X0242291Y0027052D01*
X0246895Y0027052D01*
X0246895Y0029354D01*
X0246128Y0030121D01*
X0246895Y0038562D02*
X0242291Y0038562D01*
X0226324Y0038198D02*
X0220186Y0038198D01*
X0220953Y0038965D02*
X0221720Y0039732D01*
X0220953Y0038965D02*
X0220953Y0037430D01*
X0221720Y0036663D01*
X0222488Y0036663D01*
X0223255Y0037430D01*
X0223255Y0038965D01*
X0224022Y0039732D01*
X0224789Y0039732D01*
X0225557Y0038965D01*
X0225557Y0037430D01*
X0224789Y0036663D01*
X0224789Y0035128D02*
X0221720Y0035128D01*
X0220953Y0034361D01*
X0220953Y0032059D01*
X0225557Y0032059D01*
X0225557Y0034361D01*
X0224789Y0035128D01*
X0225557Y0041267D02*
X0222488Y0044336D01*
X0221720Y0044336D01*
X0220953Y0043569D01*
X0220953Y0042034D01*
X0221720Y0041267D01*
X0225557Y0041267D02*
X0225557Y0044336D01*
X0195191Y0018526D02*
X0193656Y0016991D01*
X0192121Y0017759D02*
X0191354Y0018526D01*
X0189819Y0018526D01*
X0189052Y0017759D01*
X0189052Y0016991D01*
X0189819Y0016224D01*
X0191354Y0016224D01*
X0192121Y0015457D01*
X0192121Y0014689D01*
X0191354Y0013922D01*
X0189819Y0013922D01*
X0189052Y0014689D01*
X0187517Y0014689D02*
X0187517Y0017759D01*
X0186750Y0018526D01*
X0184448Y0018526D01*
X0184448Y0013922D01*
X0186750Y0013922D01*
X0187517Y0014689D01*
X0190587Y0013155D02*
X0190587Y0019293D01*
X0195191Y0018526D02*
X0195191Y0013922D01*
X0196725Y0013922D02*
X0193656Y0013922D01*
D11*
X0085009Y0013368D02*
X0046525Y0013368D01*
X0046525Y0020454D01*
X0056072Y0020454D01*
X0056072Y0051773D01*
X0046525Y0051773D01*
X0046525Y0020454D01*
X0046525Y0051773D02*
X0046525Y0058860D01*
X0085009Y0058860D01*
X0085009Y0013368D01*
X0105776Y0043545D02*
X0105785Y0044308D01*
X0105813Y0045071D01*
X0105860Y0045833D01*
X0105926Y0046594D01*
X0106010Y0047352D01*
X0106113Y0048109D01*
X0106234Y0048862D01*
X0106374Y0049613D01*
X0106532Y0050360D01*
X0106708Y0051102D01*
X0106903Y0051841D01*
X0107115Y0052574D01*
X0107346Y0053301D01*
X0107594Y0054023D01*
X0107860Y0054739D01*
X0108144Y0055448D01*
X0108444Y0056149D01*
X0108762Y0056843D01*
X0109097Y0057529D01*
X0109449Y0058207D01*
X0109817Y0058876D01*
X0110201Y0059535D01*
X0110602Y0060185D01*
X0111018Y0060825D01*
X0111450Y0061454D01*
X0111897Y0062073D01*
X0112359Y0062681D01*
X0112836Y0063277D01*
X0113328Y0063861D01*
X0113833Y0064432D01*
X0114353Y0064992D01*
X0114886Y0065538D01*
X0115432Y0066071D01*
X0115992Y0066591D01*
X0116563Y0067096D01*
X0117147Y0067588D01*
X0117743Y0068065D01*
X0118351Y0068527D01*
X0118970Y0068974D01*
X0119599Y0069406D01*
X0120239Y0069822D01*
X0120889Y0070223D01*
X0121548Y0070607D01*
X0122217Y0070975D01*
X0122895Y0071327D01*
X0123581Y0071662D01*
X0124275Y0071980D01*
X0124976Y0072280D01*
X0125685Y0072564D01*
X0126401Y0072830D01*
X0127123Y0073078D01*
X0127850Y0073309D01*
X0128583Y0073521D01*
X0129322Y0073716D01*
X0130064Y0073892D01*
X0130811Y0074050D01*
X0131562Y0074190D01*
X0132315Y0074311D01*
X0133072Y0074414D01*
X0133830Y0074498D01*
X0134591Y0074564D01*
X0135353Y0074611D01*
X0136116Y0074639D01*
X0136879Y0074648D01*
X0137642Y0074639D01*
X0138405Y0074611D01*
X0139167Y0074564D01*
X0139928Y0074498D01*
X0140686Y0074414D01*
X0141443Y0074311D01*
X0142196Y0074190D01*
X0142947Y0074050D01*
X0143694Y0073892D01*
X0144436Y0073716D01*
X0145175Y0073521D01*
X0145908Y0073309D01*
X0146635Y0073078D01*
X0147357Y0072830D01*
X0148073Y0072564D01*
X0148782Y0072280D01*
X0149483Y0071980D01*
X0150177Y0071662D01*
X0150863Y0071327D01*
X0151541Y0070975D01*
X0152210Y0070607D01*
X0152869Y0070223D01*
X0153519Y0069822D01*
X0154159Y0069406D01*
X0154788Y0068974D01*
X0155407Y0068527D01*
X0156015Y0068065D01*
X0156611Y0067588D01*
X0157195Y0067096D01*
X0157766Y0066591D01*
X0158326Y0066071D01*
X0158872Y0065538D01*
X0159405Y0064992D01*
X0159925Y0064432D01*
X0160430Y0063861D01*
X0160922Y0063277D01*
X0161399Y0062681D01*
X0161861Y0062073D01*
X0162308Y0061454D01*
X0162740Y0060825D01*
X0163156Y0060185D01*
X0163557Y0059535D01*
X0163941Y0058876D01*
X0164309Y0058207D01*
X0164661Y0057529D01*
X0164996Y0056843D01*
X0165314Y0056149D01*
X0165614Y0055448D01*
X0165898Y0054739D01*
X0166164Y0054023D01*
X0166412Y0053301D01*
X0166643Y0052574D01*
X0166855Y0051841D01*
X0167050Y0051102D01*
X0167226Y0050360D01*
X0167384Y0049613D01*
X0167524Y0048862D01*
X0167645Y0048109D01*
X0167748Y0047352D01*
X0167832Y0046594D01*
X0167898Y0045833D01*
X0167945Y0045071D01*
X0167973Y0044308D01*
X0167982Y0043545D01*
X0167973Y0042782D01*
X0167945Y0042019D01*
X0167898Y0041257D01*
X0167832Y0040496D01*
X0167748Y0039738D01*
X0167645Y0038981D01*
X0167524Y0038228D01*
X0167384Y0037477D01*
X0167226Y0036730D01*
X0167050Y0035988D01*
X0166855Y0035249D01*
X0166643Y0034516D01*
X0166412Y0033789D01*
X0166164Y0033067D01*
X0165898Y0032351D01*
X0165614Y0031642D01*
X0165314Y0030941D01*
X0164996Y0030247D01*
X0164661Y0029561D01*
X0164309Y0028883D01*
X0163941Y0028214D01*
X0163557Y0027555D01*
X0163156Y0026905D01*
X0162740Y0026265D01*
X0162308Y0025636D01*
X0161861Y0025017D01*
X0161399Y0024409D01*
X0160922Y0023813D01*
X0160430Y0023229D01*
X0159925Y0022658D01*
X0159405Y0022098D01*
X0158872Y0021552D01*
X0158326Y0021019D01*
X0157766Y0020499D01*
X0157195Y0019994D01*
X0156611Y0019502D01*
X0156015Y0019025D01*
X0155407Y0018563D01*
X0154788Y0018116D01*
X0154159Y0017684D01*
X0153519Y0017268D01*
X0152869Y0016867D01*
X0152210Y0016483D01*
X0151541Y0016115D01*
X0150863Y0015763D01*
X0150177Y0015428D01*
X0149483Y0015110D01*
X0148782Y0014810D01*
X0148073Y0014526D01*
X0147357Y0014260D01*
X0146635Y0014012D01*
X0145908Y0013781D01*
X0145175Y0013569D01*
X0144436Y0013374D01*
X0143694Y0013198D01*
X0142947Y0013040D01*
X0142196Y0012900D01*
X0141443Y0012779D01*
X0140686Y0012676D01*
X0139928Y0012592D01*
X0139167Y0012526D01*
X0138405Y0012479D01*
X0137642Y0012451D01*
X0136879Y0012442D01*
X0136116Y0012451D01*
X0135353Y0012479D01*
X0134591Y0012526D01*
X0133830Y0012592D01*
X0133072Y0012676D01*
X0132315Y0012779D01*
X0131562Y0012900D01*
X0130811Y0013040D01*
X0130064Y0013198D01*
X0129322Y0013374D01*
X0128583Y0013569D01*
X0127850Y0013781D01*
X0127123Y0014012D01*
X0126401Y0014260D01*
X0125685Y0014526D01*
X0124976Y0014810D01*
X0124275Y0015110D01*
X0123581Y0015428D01*
X0122895Y0015763D01*
X0122217Y0016115D01*
X0121548Y0016483D01*
X0120889Y0016867D01*
X0120239Y0017268D01*
X0119599Y0017684D01*
X0118970Y0018116D01*
X0118351Y0018563D01*
X0117743Y0019025D01*
X0117147Y0019502D01*
X0116563Y0019994D01*
X0115992Y0020499D01*
X0115432Y0021019D01*
X0114886Y0021552D01*
X0114353Y0022098D01*
X0113833Y0022658D01*
X0113328Y0023229D01*
X0112836Y0023813D01*
X0112359Y0024409D01*
X0111897Y0025017D01*
X0111450Y0025636D01*
X0111018Y0026265D01*
X0110602Y0026905D01*
X0110201Y0027555D01*
X0109817Y0028214D01*
X0109449Y0028883D01*
X0109097Y0029561D01*
X0108762Y0030247D01*
X0108444Y0030941D01*
X0108144Y0031642D01*
X0107860Y0032351D01*
X0107594Y0033067D01*
X0107346Y0033789D01*
X0107115Y0034516D01*
X0106903Y0035249D01*
X0106708Y0035988D01*
X0106532Y0036730D01*
X0106374Y0037477D01*
X0106234Y0038228D01*
X0106113Y0038981D01*
X0106010Y0039738D01*
X0105926Y0040496D01*
X0105860Y0041257D01*
X0105813Y0042019D01*
X0105785Y0042782D01*
X0105776Y0043545D01*
X0113688Y0085277D02*
X0113690Y0085405D01*
X0113696Y0085533D01*
X0113706Y0085660D01*
X0113720Y0085788D01*
X0113737Y0085915D01*
X0113759Y0086041D01*
X0113785Y0086166D01*
X0113814Y0086291D01*
X0113847Y0086414D01*
X0113885Y0086537D01*
X0113925Y0086658D01*
X0113970Y0086778D01*
X0114018Y0086897D01*
X0114070Y0087014D01*
X0114126Y0087129D01*
X0114185Y0087243D01*
X0114247Y0087354D01*
X0114313Y0087464D01*
X0114383Y0087572D01*
X0114455Y0087677D01*
X0114531Y0087780D01*
X0114610Y0087881D01*
X0114693Y0087979D01*
X0114778Y0088075D01*
X0114866Y0088167D01*
X0114957Y0088258D01*
X0115050Y0088345D01*
X0115146Y0088429D01*
X0115245Y0088511D01*
X0115347Y0088589D01*
X0115450Y0088664D01*
X0115556Y0088736D01*
X0115664Y0088804D01*
X0115775Y0088870D01*
X0115887Y0088931D01*
X0116001Y0088989D01*
X0116116Y0089044D01*
X0116234Y0089095D01*
X0116353Y0089142D01*
X0116473Y0089186D01*
X0116595Y0089226D01*
X0116718Y0089262D01*
X0116841Y0089295D01*
X0116966Y0089323D01*
X0117092Y0089348D01*
X0117218Y0089368D01*
X0117345Y0089385D01*
X0117472Y0089398D01*
X0117600Y0089407D01*
X0117728Y0089412D01*
X0117856Y0089413D01*
X0117984Y0089410D01*
X0118112Y0089403D01*
X0118239Y0089392D01*
X0118367Y0089377D01*
X0118493Y0089359D01*
X0118619Y0089336D01*
X0118744Y0089309D01*
X0118869Y0089279D01*
X0118992Y0089245D01*
X0119114Y0089207D01*
X0119235Y0089165D01*
X0119355Y0089119D01*
X0119473Y0089070D01*
X0119590Y0089017D01*
X0119705Y0088961D01*
X0119818Y0088901D01*
X0119929Y0088837D01*
X0120038Y0088771D01*
X0120145Y0088700D01*
X0120250Y0088627D01*
X0120352Y0088550D01*
X0120452Y0088470D01*
X0120550Y0088387D01*
X0120645Y0088302D01*
X0120737Y0088213D01*
X0120827Y0088121D01*
X0120913Y0088027D01*
X0120997Y0087930D01*
X0121078Y0087831D01*
X0121155Y0087729D01*
X0121229Y0087624D01*
X0121300Y0087518D01*
X0121368Y0087409D01*
X0121432Y0087299D01*
X0121493Y0087186D01*
X0121550Y0087072D01*
X0121604Y0086955D01*
X0121654Y0086838D01*
X0121701Y0086718D01*
X0121743Y0086598D01*
X0121782Y0086476D01*
X0121818Y0086353D01*
X0121849Y0086229D01*
X0121877Y0086104D01*
X0121900Y0085978D01*
X0121920Y0085851D01*
X0121936Y0085724D01*
X0121948Y0085597D01*
X0121956Y0085469D01*
X0121960Y0085341D01*
X0121960Y0085213D01*
X0121956Y0085085D01*
X0121948Y0084957D01*
X0121936Y0084830D01*
X0121920Y0084703D01*
X0121900Y0084576D01*
X0121877Y0084450D01*
X0121849Y0084325D01*
X0121818Y0084201D01*
X0121782Y0084078D01*
X0121743Y0083956D01*
X0121701Y0083836D01*
X0121654Y0083716D01*
X0121604Y0083599D01*
X0121550Y0083482D01*
X0121493Y0083368D01*
X0121432Y0083255D01*
X0121368Y0083145D01*
X0121300Y0083036D01*
X0121229Y0082930D01*
X0121155Y0082825D01*
X0121078Y0082723D01*
X0120997Y0082624D01*
X0120913Y0082527D01*
X0120827Y0082433D01*
X0120737Y0082341D01*
X0120645Y0082252D01*
X0120550Y0082167D01*
X0120452Y0082084D01*
X0120352Y0082004D01*
X0120250Y0081927D01*
X0120145Y0081854D01*
X0120038Y0081783D01*
X0119929Y0081717D01*
X0119818Y0081653D01*
X0119705Y0081593D01*
X0119590Y0081537D01*
X0119473Y0081484D01*
X0119355Y0081435D01*
X0119235Y0081389D01*
X0119114Y0081347D01*
X0118992Y0081309D01*
X0118869Y0081275D01*
X0118744Y0081245D01*
X0118619Y0081218D01*
X0118493Y0081195D01*
X0118367Y0081177D01*
X0118239Y0081162D01*
X0118112Y0081151D01*
X0117984Y0081144D01*
X0117856Y0081141D01*
X0117728Y0081142D01*
X0117600Y0081147D01*
X0117472Y0081156D01*
X0117345Y0081169D01*
X0117218Y0081186D01*
X0117092Y0081206D01*
X0116966Y0081231D01*
X0116841Y0081259D01*
X0116718Y0081292D01*
X0116595Y0081328D01*
X0116473Y0081368D01*
X0116353Y0081412D01*
X0116234Y0081459D01*
X0116116Y0081510D01*
X0116001Y0081565D01*
X0115887Y0081623D01*
X0115775Y0081684D01*
X0115664Y0081750D01*
X0115556Y0081818D01*
X0115450Y0081890D01*
X0115347Y0081965D01*
X0115245Y0082043D01*
X0115146Y0082125D01*
X0115050Y0082209D01*
X0114957Y0082296D01*
X0114866Y0082387D01*
X0114778Y0082479D01*
X0114693Y0082575D01*
X0114610Y0082673D01*
X0114531Y0082774D01*
X0114455Y0082877D01*
X0114383Y0082982D01*
X0114313Y0083090D01*
X0114247Y0083200D01*
X0114185Y0083311D01*
X0114126Y0083425D01*
X0114070Y0083540D01*
X0114018Y0083657D01*
X0113970Y0083776D01*
X0113925Y0083896D01*
X0113885Y0084017D01*
X0113847Y0084140D01*
X0113814Y0084263D01*
X0113785Y0084388D01*
X0113759Y0084513D01*
X0113737Y0084639D01*
X0113720Y0084766D01*
X0113706Y0084894D01*
X0113696Y0085021D01*
X0113690Y0085149D01*
X0113688Y0085277D01*
X0088688Y0085277D02*
X0088690Y0085405D01*
X0088696Y0085533D01*
X0088706Y0085660D01*
X0088720Y0085788D01*
X0088737Y0085915D01*
X0088759Y0086041D01*
X0088785Y0086166D01*
X0088814Y0086291D01*
X0088847Y0086414D01*
X0088885Y0086537D01*
X0088925Y0086658D01*
X0088970Y0086778D01*
X0089018Y0086897D01*
X0089070Y0087014D01*
X0089126Y0087129D01*
X0089185Y0087243D01*
X0089247Y0087354D01*
X0089313Y0087464D01*
X0089383Y0087572D01*
X0089455Y0087677D01*
X0089531Y0087780D01*
X0089610Y0087881D01*
X0089693Y0087979D01*
X0089778Y0088075D01*
X0089866Y0088167D01*
X0089957Y0088258D01*
X0090050Y0088345D01*
X0090146Y0088429D01*
X0090245Y0088511D01*
X0090347Y0088589D01*
X0090450Y0088664D01*
X0090556Y0088736D01*
X0090664Y0088804D01*
X0090775Y0088870D01*
X0090887Y0088931D01*
X0091001Y0088989D01*
X0091116Y0089044D01*
X0091234Y0089095D01*
X0091353Y0089142D01*
X0091473Y0089186D01*
X0091595Y0089226D01*
X0091718Y0089262D01*
X0091841Y0089295D01*
X0091966Y0089323D01*
X0092092Y0089348D01*
X0092218Y0089368D01*
X0092345Y0089385D01*
X0092472Y0089398D01*
X0092600Y0089407D01*
X0092728Y0089412D01*
X0092856Y0089413D01*
X0092984Y0089410D01*
X0093112Y0089403D01*
X0093239Y0089392D01*
X0093367Y0089377D01*
X0093493Y0089359D01*
X0093619Y0089336D01*
X0093744Y0089309D01*
X0093869Y0089279D01*
X0093992Y0089245D01*
X0094114Y0089207D01*
X0094235Y0089165D01*
X0094355Y0089119D01*
X0094473Y0089070D01*
X0094590Y0089017D01*
X0094705Y0088961D01*
X0094818Y0088901D01*
X0094929Y0088837D01*
X0095038Y0088771D01*
X0095145Y0088700D01*
X0095250Y0088627D01*
X0095352Y0088550D01*
X0095452Y0088470D01*
X0095550Y0088387D01*
X0095645Y0088302D01*
X0095737Y0088213D01*
X0095827Y0088121D01*
X0095913Y0088027D01*
X0095997Y0087930D01*
X0096078Y0087831D01*
X0096155Y0087729D01*
X0096229Y0087624D01*
X0096300Y0087518D01*
X0096368Y0087409D01*
X0096432Y0087299D01*
X0096493Y0087186D01*
X0096550Y0087072D01*
X0096604Y0086955D01*
X0096654Y0086838D01*
X0096701Y0086718D01*
X0096743Y0086598D01*
X0096782Y0086476D01*
X0096818Y0086353D01*
X0096849Y0086229D01*
X0096877Y0086104D01*
X0096900Y0085978D01*
X0096920Y0085851D01*
X0096936Y0085724D01*
X0096948Y0085597D01*
X0096956Y0085469D01*
X0096960Y0085341D01*
X0096960Y0085213D01*
X0096956Y0085085D01*
X0096948Y0084957D01*
X0096936Y0084830D01*
X0096920Y0084703D01*
X0096900Y0084576D01*
X0096877Y0084450D01*
X0096849Y0084325D01*
X0096818Y0084201D01*
X0096782Y0084078D01*
X0096743Y0083956D01*
X0096701Y0083836D01*
X0096654Y0083716D01*
X0096604Y0083599D01*
X0096550Y0083482D01*
X0096493Y0083368D01*
X0096432Y0083255D01*
X0096368Y0083145D01*
X0096300Y0083036D01*
X0096229Y0082930D01*
X0096155Y0082825D01*
X0096078Y0082723D01*
X0095997Y0082624D01*
X0095913Y0082527D01*
X0095827Y0082433D01*
X0095737Y0082341D01*
X0095645Y0082252D01*
X0095550Y0082167D01*
X0095452Y0082084D01*
X0095352Y0082004D01*
X0095250Y0081927D01*
X0095145Y0081854D01*
X0095038Y0081783D01*
X0094929Y0081717D01*
X0094818Y0081653D01*
X0094705Y0081593D01*
X0094590Y0081537D01*
X0094473Y0081484D01*
X0094355Y0081435D01*
X0094235Y0081389D01*
X0094114Y0081347D01*
X0093992Y0081309D01*
X0093869Y0081275D01*
X0093744Y0081245D01*
X0093619Y0081218D01*
X0093493Y0081195D01*
X0093367Y0081177D01*
X0093239Y0081162D01*
X0093112Y0081151D01*
X0092984Y0081144D01*
X0092856Y0081141D01*
X0092728Y0081142D01*
X0092600Y0081147D01*
X0092472Y0081156D01*
X0092345Y0081169D01*
X0092218Y0081186D01*
X0092092Y0081206D01*
X0091966Y0081231D01*
X0091841Y0081259D01*
X0091718Y0081292D01*
X0091595Y0081328D01*
X0091473Y0081368D01*
X0091353Y0081412D01*
X0091234Y0081459D01*
X0091116Y0081510D01*
X0091001Y0081565D01*
X0090887Y0081623D01*
X0090775Y0081684D01*
X0090664Y0081750D01*
X0090556Y0081818D01*
X0090450Y0081890D01*
X0090347Y0081965D01*
X0090245Y0082043D01*
X0090146Y0082125D01*
X0090050Y0082209D01*
X0089957Y0082296D01*
X0089866Y0082387D01*
X0089778Y0082479D01*
X0089693Y0082575D01*
X0089610Y0082673D01*
X0089531Y0082774D01*
X0089455Y0082877D01*
X0089383Y0082982D01*
X0089313Y0083090D01*
X0089247Y0083200D01*
X0089185Y0083311D01*
X0089126Y0083425D01*
X0089070Y0083540D01*
X0089018Y0083657D01*
X0088970Y0083776D01*
X0088925Y0083896D01*
X0088885Y0084017D01*
X0088847Y0084140D01*
X0088814Y0084263D01*
X0088785Y0084388D01*
X0088759Y0084513D01*
X0088737Y0084639D01*
X0088720Y0084766D01*
X0088706Y0084894D01*
X0088696Y0085021D01*
X0088690Y0085149D01*
X0088688Y0085277D01*
X0084025Y0185966D02*
X0160698Y0185966D01*
X0160698Y0224450D01*
X0153611Y0224450D01*
X0153611Y0214903D01*
X0091111Y0214903D01*
X0091111Y0224450D01*
X0084025Y0224450D01*
X0084025Y0185966D01*
X0091111Y0224450D02*
X0153611Y0224450D01*
X0265521Y0212226D02*
X0265521Y0151143D01*
X0304005Y0151143D01*
X0304005Y0158230D01*
X0294458Y0158230D01*
X0294458Y0205139D01*
X0304005Y0205139D01*
X0304005Y0212226D01*
X0265521Y0212226D01*
X0304005Y0205139D02*
X0304005Y0158230D01*
X0225656Y0103230D02*
X0225658Y0103358D01*
X0225664Y0103486D01*
X0225674Y0103613D01*
X0225688Y0103741D01*
X0225705Y0103868D01*
X0225727Y0103994D01*
X0225753Y0104119D01*
X0225782Y0104244D01*
X0225815Y0104367D01*
X0225853Y0104490D01*
X0225893Y0104611D01*
X0225938Y0104731D01*
X0225986Y0104850D01*
X0226038Y0104967D01*
X0226094Y0105082D01*
X0226153Y0105196D01*
X0226215Y0105307D01*
X0226281Y0105417D01*
X0226351Y0105525D01*
X0226423Y0105630D01*
X0226499Y0105733D01*
X0226578Y0105834D01*
X0226661Y0105932D01*
X0226746Y0106028D01*
X0226834Y0106120D01*
X0226925Y0106211D01*
X0227018Y0106298D01*
X0227114Y0106382D01*
X0227213Y0106464D01*
X0227315Y0106542D01*
X0227418Y0106617D01*
X0227524Y0106689D01*
X0227632Y0106757D01*
X0227743Y0106823D01*
X0227855Y0106884D01*
X0227969Y0106942D01*
X0228084Y0106997D01*
X0228202Y0107048D01*
X0228321Y0107095D01*
X0228441Y0107139D01*
X0228563Y0107179D01*
X0228686Y0107215D01*
X0228809Y0107248D01*
X0228934Y0107276D01*
X0229060Y0107301D01*
X0229186Y0107321D01*
X0229313Y0107338D01*
X0229440Y0107351D01*
X0229568Y0107360D01*
X0229696Y0107365D01*
X0229824Y0107366D01*
X0229952Y0107363D01*
X0230080Y0107356D01*
X0230207Y0107345D01*
X0230335Y0107330D01*
X0230461Y0107312D01*
X0230587Y0107289D01*
X0230712Y0107262D01*
X0230837Y0107232D01*
X0230960Y0107198D01*
X0231082Y0107160D01*
X0231203Y0107118D01*
X0231323Y0107072D01*
X0231441Y0107023D01*
X0231558Y0106970D01*
X0231673Y0106914D01*
X0231786Y0106854D01*
X0231897Y0106790D01*
X0232006Y0106724D01*
X0232113Y0106653D01*
X0232218Y0106580D01*
X0232320Y0106503D01*
X0232420Y0106423D01*
X0232518Y0106340D01*
X0232613Y0106255D01*
X0232705Y0106166D01*
X0232795Y0106074D01*
X0232881Y0105980D01*
X0232965Y0105883D01*
X0233046Y0105784D01*
X0233123Y0105682D01*
X0233197Y0105577D01*
X0233268Y0105471D01*
X0233336Y0105362D01*
X0233400Y0105252D01*
X0233461Y0105139D01*
X0233518Y0105025D01*
X0233572Y0104908D01*
X0233622Y0104791D01*
X0233669Y0104671D01*
X0233711Y0104551D01*
X0233750Y0104429D01*
X0233786Y0104306D01*
X0233817Y0104182D01*
X0233845Y0104057D01*
X0233868Y0103931D01*
X0233888Y0103804D01*
X0233904Y0103677D01*
X0233916Y0103550D01*
X0233924Y0103422D01*
X0233928Y0103294D01*
X0233928Y0103166D01*
X0233924Y0103038D01*
X0233916Y0102910D01*
X0233904Y0102783D01*
X0233888Y0102656D01*
X0233868Y0102529D01*
X0233845Y0102403D01*
X0233817Y0102278D01*
X0233786Y0102154D01*
X0233750Y0102031D01*
X0233711Y0101909D01*
X0233669Y0101789D01*
X0233622Y0101669D01*
X0233572Y0101552D01*
X0233518Y0101435D01*
X0233461Y0101321D01*
X0233400Y0101208D01*
X0233336Y0101098D01*
X0233268Y0100989D01*
X0233197Y0100883D01*
X0233123Y0100778D01*
X0233046Y0100676D01*
X0232965Y0100577D01*
X0232881Y0100480D01*
X0232795Y0100386D01*
X0232705Y0100294D01*
X0232613Y0100205D01*
X0232518Y0100120D01*
X0232420Y0100037D01*
X0232320Y0099957D01*
X0232218Y0099880D01*
X0232113Y0099807D01*
X0232006Y0099736D01*
X0231897Y0099670D01*
X0231786Y0099606D01*
X0231673Y0099546D01*
X0231558Y0099490D01*
X0231441Y0099437D01*
X0231323Y0099388D01*
X0231203Y0099342D01*
X0231082Y0099300D01*
X0230960Y0099262D01*
X0230837Y0099228D01*
X0230712Y0099198D01*
X0230587Y0099171D01*
X0230461Y0099148D01*
X0230335Y0099130D01*
X0230207Y0099115D01*
X0230080Y0099104D01*
X0229952Y0099097D01*
X0229824Y0099094D01*
X0229696Y0099095D01*
X0229568Y0099100D01*
X0229440Y0099109D01*
X0229313Y0099122D01*
X0229186Y0099139D01*
X0229060Y0099159D01*
X0228934Y0099184D01*
X0228809Y0099212D01*
X0228686Y0099245D01*
X0228563Y0099281D01*
X0228441Y0099321D01*
X0228321Y0099365D01*
X0228202Y0099412D01*
X0228084Y0099463D01*
X0227969Y0099518D01*
X0227855Y0099576D01*
X0227743Y0099637D01*
X0227632Y0099703D01*
X0227524Y0099771D01*
X0227418Y0099843D01*
X0227315Y0099918D01*
X0227213Y0099996D01*
X0227114Y0100078D01*
X0227018Y0100162D01*
X0226925Y0100249D01*
X0226834Y0100340D01*
X0226746Y0100432D01*
X0226661Y0100528D01*
X0226578Y0100626D01*
X0226499Y0100727D01*
X0226423Y0100830D01*
X0226351Y0100935D01*
X0226281Y0101043D01*
X0226215Y0101153D01*
X0226153Y0101264D01*
X0226094Y0101378D01*
X0226038Y0101493D01*
X0225986Y0101610D01*
X0225938Y0101729D01*
X0225893Y0101849D01*
X0225853Y0101970D01*
X0225815Y0102093D01*
X0225782Y0102216D01*
X0225753Y0102341D01*
X0225727Y0102466D01*
X0225705Y0102592D01*
X0225688Y0102719D01*
X0225674Y0102847D01*
X0225664Y0102974D01*
X0225658Y0103102D01*
X0225656Y0103230D01*
X0225656Y0078230D02*
X0225658Y0078358D01*
X0225664Y0078486D01*
X0225674Y0078613D01*
X0225688Y0078741D01*
X0225705Y0078868D01*
X0225727Y0078994D01*
X0225753Y0079119D01*
X0225782Y0079244D01*
X0225815Y0079367D01*
X0225853Y0079490D01*
X0225893Y0079611D01*
X0225938Y0079731D01*
X0225986Y0079850D01*
X0226038Y0079967D01*
X0226094Y0080082D01*
X0226153Y0080196D01*
X0226215Y0080307D01*
X0226281Y0080417D01*
X0226351Y0080525D01*
X0226423Y0080630D01*
X0226499Y0080733D01*
X0226578Y0080834D01*
X0226661Y0080932D01*
X0226746Y0081028D01*
X0226834Y0081120D01*
X0226925Y0081211D01*
X0227018Y0081298D01*
X0227114Y0081382D01*
X0227213Y0081464D01*
X0227315Y0081542D01*
X0227418Y0081617D01*
X0227524Y0081689D01*
X0227632Y0081757D01*
X0227743Y0081823D01*
X0227855Y0081884D01*
X0227969Y0081942D01*
X0228084Y0081997D01*
X0228202Y0082048D01*
X0228321Y0082095D01*
X0228441Y0082139D01*
X0228563Y0082179D01*
X0228686Y0082215D01*
X0228809Y0082248D01*
X0228934Y0082276D01*
X0229060Y0082301D01*
X0229186Y0082321D01*
X0229313Y0082338D01*
X0229440Y0082351D01*
X0229568Y0082360D01*
X0229696Y0082365D01*
X0229824Y0082366D01*
X0229952Y0082363D01*
X0230080Y0082356D01*
X0230207Y0082345D01*
X0230335Y0082330D01*
X0230461Y0082312D01*
X0230587Y0082289D01*
X0230712Y0082262D01*
X0230837Y0082232D01*
X0230960Y0082198D01*
X0231082Y0082160D01*
X0231203Y0082118D01*
X0231323Y0082072D01*
X0231441Y0082023D01*
X0231558Y0081970D01*
X0231673Y0081914D01*
X0231786Y0081854D01*
X0231897Y0081790D01*
X0232006Y0081724D01*
X0232113Y0081653D01*
X0232218Y0081580D01*
X0232320Y0081503D01*
X0232420Y0081423D01*
X0232518Y0081340D01*
X0232613Y0081255D01*
X0232705Y0081166D01*
X0232795Y0081074D01*
X0232881Y0080980D01*
X0232965Y0080883D01*
X0233046Y0080784D01*
X0233123Y0080682D01*
X0233197Y0080577D01*
X0233268Y0080471D01*
X0233336Y0080362D01*
X0233400Y0080252D01*
X0233461Y0080139D01*
X0233518Y0080025D01*
X0233572Y0079908D01*
X0233622Y0079791D01*
X0233669Y0079671D01*
X0233711Y0079551D01*
X0233750Y0079429D01*
X0233786Y0079306D01*
X0233817Y0079182D01*
X0233845Y0079057D01*
X0233868Y0078931D01*
X0233888Y0078804D01*
X0233904Y0078677D01*
X0233916Y0078550D01*
X0233924Y0078422D01*
X0233928Y0078294D01*
X0233928Y0078166D01*
X0233924Y0078038D01*
X0233916Y0077910D01*
X0233904Y0077783D01*
X0233888Y0077656D01*
X0233868Y0077529D01*
X0233845Y0077403D01*
X0233817Y0077278D01*
X0233786Y0077154D01*
X0233750Y0077031D01*
X0233711Y0076909D01*
X0233669Y0076789D01*
X0233622Y0076669D01*
X0233572Y0076552D01*
X0233518Y0076435D01*
X0233461Y0076321D01*
X0233400Y0076208D01*
X0233336Y0076098D01*
X0233268Y0075989D01*
X0233197Y0075883D01*
X0233123Y0075778D01*
X0233046Y0075676D01*
X0232965Y0075577D01*
X0232881Y0075480D01*
X0232795Y0075386D01*
X0232705Y0075294D01*
X0232613Y0075205D01*
X0232518Y0075120D01*
X0232420Y0075037D01*
X0232320Y0074957D01*
X0232218Y0074880D01*
X0232113Y0074807D01*
X0232006Y0074736D01*
X0231897Y0074670D01*
X0231786Y0074606D01*
X0231673Y0074546D01*
X0231558Y0074490D01*
X0231441Y0074437D01*
X0231323Y0074388D01*
X0231203Y0074342D01*
X0231082Y0074300D01*
X0230960Y0074262D01*
X0230837Y0074228D01*
X0230712Y0074198D01*
X0230587Y0074171D01*
X0230461Y0074148D01*
X0230335Y0074130D01*
X0230207Y0074115D01*
X0230080Y0074104D01*
X0229952Y0074097D01*
X0229824Y0074094D01*
X0229696Y0074095D01*
X0229568Y0074100D01*
X0229440Y0074109D01*
X0229313Y0074122D01*
X0229186Y0074139D01*
X0229060Y0074159D01*
X0228934Y0074184D01*
X0228809Y0074212D01*
X0228686Y0074245D01*
X0228563Y0074281D01*
X0228441Y0074321D01*
X0228321Y0074365D01*
X0228202Y0074412D01*
X0228084Y0074463D01*
X0227969Y0074518D01*
X0227855Y0074576D01*
X0227743Y0074637D01*
X0227632Y0074703D01*
X0227524Y0074771D01*
X0227418Y0074843D01*
X0227315Y0074918D01*
X0227213Y0074996D01*
X0227114Y0075078D01*
X0227018Y0075162D01*
X0226925Y0075249D01*
X0226834Y0075340D01*
X0226746Y0075432D01*
X0226661Y0075528D01*
X0226578Y0075626D01*
X0226499Y0075727D01*
X0226423Y0075830D01*
X0226351Y0075935D01*
X0226281Y0076043D01*
X0226215Y0076153D01*
X0226153Y0076264D01*
X0226094Y0076378D01*
X0226038Y0076493D01*
X0225986Y0076610D01*
X0225938Y0076729D01*
X0225893Y0076849D01*
X0225853Y0076970D01*
X0225815Y0077093D01*
X0225782Y0077216D01*
X0225753Y0077341D01*
X0225727Y0077466D01*
X0225705Y0077592D01*
X0225688Y0077719D01*
X0225674Y0077847D01*
X0225664Y0077974D01*
X0225658Y0078102D01*
X0225656Y0078230D01*
X0263158Y0057974D02*
X0263158Y0012482D01*
X0301643Y0012482D01*
X0301643Y0019569D01*
X0292095Y0019569D01*
X0292095Y0050887D01*
X0301643Y0050887D01*
X0301643Y0057974D01*
X0263158Y0057974D01*
X0301643Y0050887D02*
X0301643Y0019569D01*
D12*
X0263257Y0086757D02*
X0263257Y0090957D01*
X0263257Y0094457D02*
X0263257Y0098757D01*
X0253902Y0136458D02*
X0249702Y0136458D01*
X0246202Y0136458D02*
X0241902Y0136458D01*
X0213576Y0141183D02*
X0213076Y0141183D01*
X0211076Y0141183D02*
X0210576Y0141183D01*
X0175950Y0120025D02*
X0175950Y0082025D01*
X0175948Y0081965D01*
X0175943Y0081904D01*
X0175934Y0081845D01*
X0175921Y0081786D01*
X0175905Y0081727D01*
X0175885Y0081670D01*
X0175862Y0081615D01*
X0175835Y0081560D01*
X0175806Y0081508D01*
X0175773Y0081457D01*
X0175737Y0081408D01*
X0175699Y0081362D01*
X0175657Y0081318D01*
X0175613Y0081276D01*
X0175567Y0081238D01*
X0175518Y0081202D01*
X0175467Y0081169D01*
X0175415Y0081140D01*
X0175360Y0081113D01*
X0175305Y0081090D01*
X0175248Y0081070D01*
X0175189Y0081054D01*
X0175130Y0081041D01*
X0175071Y0081032D01*
X0175010Y0081027D01*
X0174950Y0081025D01*
X0164950Y0081025D01*
X0164890Y0081027D01*
X0164829Y0081032D01*
X0164770Y0081041D01*
X0164711Y0081054D01*
X0164652Y0081070D01*
X0164595Y0081090D01*
X0164540Y0081113D01*
X0164485Y0081140D01*
X0164433Y0081169D01*
X0164382Y0081202D01*
X0164333Y0081238D01*
X0164287Y0081276D01*
X0164243Y0081318D01*
X0164201Y0081362D01*
X0164163Y0081408D01*
X0164127Y0081457D01*
X0164094Y0081508D01*
X0164065Y0081560D01*
X0164038Y0081615D01*
X0164015Y0081670D01*
X0163995Y0081727D01*
X0163979Y0081786D01*
X0163966Y0081845D01*
X0163957Y0081904D01*
X0163952Y0081965D01*
X0163950Y0082025D01*
X0163950Y0120025D01*
X0163952Y0120085D01*
X0163957Y0120146D01*
X0163966Y0120205D01*
X0163979Y0120264D01*
X0163995Y0120323D01*
X0164015Y0120380D01*
X0164038Y0120435D01*
X0164065Y0120490D01*
X0164094Y0120542D01*
X0164127Y0120593D01*
X0164163Y0120642D01*
X0164201Y0120688D01*
X0164243Y0120732D01*
X0164287Y0120774D01*
X0164333Y0120812D01*
X0164382Y0120848D01*
X0164433Y0120881D01*
X0164485Y0120910D01*
X0164540Y0120937D01*
X0164595Y0120960D01*
X0164652Y0120980D01*
X0164711Y0120996D01*
X0164770Y0121009D01*
X0164829Y0121018D01*
X0164890Y0121023D01*
X0164950Y0121025D01*
X0174950Y0121025D01*
X0175010Y0121023D01*
X0175071Y0121018D01*
X0175130Y0121009D01*
X0175189Y0120996D01*
X0175248Y0120980D01*
X0175305Y0120960D01*
X0175360Y0120937D01*
X0175415Y0120910D01*
X0175467Y0120881D01*
X0175518Y0120848D01*
X0175567Y0120812D01*
X0175613Y0120774D01*
X0175657Y0120732D01*
X0175699Y0120688D01*
X0175737Y0120642D01*
X0175773Y0120593D01*
X0175806Y0120542D01*
X0175835Y0120490D01*
X0175862Y0120435D01*
X0175885Y0120380D01*
X0175905Y0120323D01*
X0175921Y0120264D01*
X0175934Y0120205D01*
X0175943Y0120146D01*
X0175948Y0120085D01*
X0175950Y0120025D01*
X0169950Y0111025D02*
X0169950Y0103025D01*
X0169950Y0099025D02*
X0169950Y0091025D01*
X0183635Y0081049D02*
X0183635Y0043049D01*
X0183637Y0042989D01*
X0183642Y0042928D01*
X0183651Y0042869D01*
X0183664Y0042810D01*
X0183680Y0042751D01*
X0183700Y0042694D01*
X0183723Y0042639D01*
X0183750Y0042584D01*
X0183779Y0042532D01*
X0183812Y0042481D01*
X0183848Y0042432D01*
X0183886Y0042386D01*
X0183928Y0042342D01*
X0183972Y0042300D01*
X0184018Y0042262D01*
X0184067Y0042226D01*
X0184118Y0042193D01*
X0184170Y0042164D01*
X0184225Y0042137D01*
X0184280Y0042114D01*
X0184337Y0042094D01*
X0184396Y0042078D01*
X0184455Y0042065D01*
X0184514Y0042056D01*
X0184575Y0042051D01*
X0184635Y0042049D01*
X0194635Y0042049D01*
X0194695Y0042051D01*
X0194756Y0042056D01*
X0194815Y0042065D01*
X0194874Y0042078D01*
X0194933Y0042094D01*
X0194990Y0042114D01*
X0195045Y0042137D01*
X0195100Y0042164D01*
X0195152Y0042193D01*
X0195203Y0042226D01*
X0195252Y0042262D01*
X0195298Y0042300D01*
X0195342Y0042342D01*
X0195384Y0042386D01*
X0195422Y0042432D01*
X0195458Y0042481D01*
X0195491Y0042532D01*
X0195520Y0042584D01*
X0195547Y0042639D01*
X0195570Y0042694D01*
X0195590Y0042751D01*
X0195606Y0042810D01*
X0195619Y0042869D01*
X0195628Y0042928D01*
X0195633Y0042989D01*
X0195635Y0043049D01*
X0195635Y0081049D01*
X0195633Y0081109D01*
X0195628Y0081170D01*
X0195619Y0081229D01*
X0195606Y0081288D01*
X0195590Y0081347D01*
X0195570Y0081404D01*
X0195547Y0081459D01*
X0195520Y0081514D01*
X0195491Y0081566D01*
X0195458Y0081617D01*
X0195422Y0081666D01*
X0195384Y0081712D01*
X0195342Y0081756D01*
X0195298Y0081798D01*
X0195252Y0081836D01*
X0195203Y0081872D01*
X0195152Y0081905D01*
X0195100Y0081934D01*
X0195045Y0081961D01*
X0194990Y0081984D01*
X0194933Y0082004D01*
X0194874Y0082020D01*
X0194815Y0082033D01*
X0194756Y0082042D01*
X0194695Y0082047D01*
X0194635Y0082049D01*
X0184635Y0082049D01*
X0184575Y0082047D01*
X0184514Y0082042D01*
X0184455Y0082033D01*
X0184396Y0082020D01*
X0184337Y0082004D01*
X0184280Y0081984D01*
X0184225Y0081961D01*
X0184170Y0081934D01*
X0184118Y0081905D01*
X0184067Y0081872D01*
X0184018Y0081836D01*
X0183972Y0081798D01*
X0183928Y0081756D01*
X0183886Y0081712D01*
X0183848Y0081666D01*
X0183812Y0081617D01*
X0183779Y0081566D01*
X0183750Y0081514D01*
X0183723Y0081459D01*
X0183700Y0081404D01*
X0183680Y0081347D01*
X0183664Y0081288D01*
X0183651Y0081229D01*
X0183642Y0081170D01*
X0183637Y0081109D01*
X0183635Y0081049D01*
X0189635Y0072049D02*
X0189635Y0064049D01*
X0189635Y0060049D02*
X0189635Y0052049D01*
X0076151Y0084076D02*
X0059812Y0084076D01*
X0059812Y0126734D01*
X0076151Y0126734D01*
X0076151Y0084076D01*
X0082387Y0155411D02*
X0065387Y0155411D01*
X0065327Y0155413D01*
X0065266Y0155418D01*
X0065207Y0155427D01*
X0065148Y0155440D01*
X0065089Y0155456D01*
X0065032Y0155476D01*
X0064977Y0155499D01*
X0064922Y0155526D01*
X0064870Y0155555D01*
X0064819Y0155588D01*
X0064770Y0155624D01*
X0064724Y0155662D01*
X0064680Y0155704D01*
X0064638Y0155748D01*
X0064600Y0155794D01*
X0064564Y0155843D01*
X0064531Y0155894D01*
X0064502Y0155946D01*
X0064475Y0156001D01*
X0064452Y0156056D01*
X0064432Y0156113D01*
X0064416Y0156172D01*
X0064403Y0156231D01*
X0064394Y0156290D01*
X0064389Y0156351D01*
X0064387Y0156411D01*
X0064387Y0172411D01*
X0064389Y0172471D01*
X0064394Y0172532D01*
X0064403Y0172591D01*
X0064416Y0172650D01*
X0064432Y0172709D01*
X0064452Y0172766D01*
X0064475Y0172821D01*
X0064502Y0172876D01*
X0064531Y0172928D01*
X0064564Y0172979D01*
X0064600Y0173028D01*
X0064638Y0173074D01*
X0064680Y0173118D01*
X0064724Y0173160D01*
X0064770Y0173198D01*
X0064819Y0173234D01*
X0064870Y0173267D01*
X0064922Y0173296D01*
X0064977Y0173323D01*
X0065032Y0173346D01*
X0065089Y0173366D01*
X0065148Y0173382D01*
X0065207Y0173395D01*
X0065266Y0173404D01*
X0065327Y0173409D01*
X0065387Y0173411D01*
X0082387Y0173411D01*
X0082447Y0173409D01*
X0082508Y0173404D01*
X0082567Y0173395D01*
X0082626Y0173382D01*
X0082685Y0173366D01*
X0082742Y0173346D01*
X0082797Y0173323D01*
X0082852Y0173296D01*
X0082904Y0173267D01*
X0082955Y0173234D01*
X0083004Y0173198D01*
X0083050Y0173160D01*
X0083094Y0173118D01*
X0083136Y0173074D01*
X0083174Y0173028D01*
X0083210Y0172979D01*
X0083243Y0172928D01*
X0083272Y0172876D01*
X0083299Y0172821D01*
X0083322Y0172766D01*
X0083342Y0172709D01*
X0083358Y0172650D01*
X0083371Y0172591D01*
X0083380Y0172532D01*
X0083385Y0172471D01*
X0083387Y0172411D01*
X0083387Y0156411D01*
X0083385Y0156351D01*
X0083380Y0156290D01*
X0083371Y0156231D01*
X0083358Y0156172D01*
X0083342Y0156113D01*
X0083322Y0156056D01*
X0083299Y0156001D01*
X0083272Y0155946D01*
X0083243Y0155894D01*
X0083210Y0155843D01*
X0083174Y0155794D01*
X0083136Y0155748D01*
X0083094Y0155704D01*
X0083050Y0155662D01*
X0083004Y0155624D01*
X0082955Y0155588D01*
X0082904Y0155555D01*
X0082852Y0155526D01*
X0082797Y0155499D01*
X0082742Y0155476D01*
X0082685Y0155456D01*
X0082626Y0155440D01*
X0082567Y0155427D01*
X0082508Y0155418D01*
X0082447Y0155413D01*
X0082387Y0155411D01*
X0075387Y0164411D02*
X0074887Y0164411D01*
X0072887Y0164411D02*
X0072387Y0164411D01*
X0201521Y0179372D02*
X0202021Y0179372D01*
X0204021Y0179372D02*
X0204521Y0179372D01*
X0241678Y0169923D02*
X0242178Y0169923D01*
X0244178Y0169923D02*
X0244678Y0169923D01*
D13*
X0246202Y0139458D02*
X0246202Y0136458D01*
X0246202Y0133458D01*
X0249702Y0133458D02*
X0249702Y0136458D01*
X0249702Y0139458D01*
X0260257Y0094457D02*
X0263257Y0094457D01*
X0266257Y0094457D01*
X0266257Y0090957D02*
X0263257Y0090957D01*
X0260257Y0090957D01*
X0193135Y0064049D02*
X0189635Y0064049D01*
X0186135Y0064049D01*
X0186135Y0060049D02*
X0189635Y0060049D01*
X0193135Y0060049D01*
X0173450Y0099025D02*
X0169950Y0099025D01*
X0166450Y0099025D01*
X0166450Y0103025D02*
X0169950Y0103025D01*
X0173450Y0103025D01*
X0136879Y0021104D02*
X0136879Y0015986D01*
D14*
X0177881Y0048049D02*
X0178632Y0047299D01*
X0181634Y0047299D01*
X0182385Y0048049D01*
X0182385Y0049551D01*
X0181634Y0050301D01*
X0181634Y0051903D02*
X0182385Y0052653D01*
X0182385Y0054155D01*
X0181634Y0054905D01*
X0180883Y0054905D01*
X0180133Y0054155D01*
X0180133Y0052653D01*
X0179382Y0051903D01*
X0178632Y0051903D01*
X0177881Y0052653D01*
X0177881Y0054155D01*
X0178632Y0054905D01*
X0177881Y0056507D02*
X0177881Y0059509D01*
X0178632Y0059509D01*
X0181634Y0056507D01*
X0182385Y0056507D01*
X0183135Y0053404D02*
X0177130Y0053404D01*
X0178632Y0050301D02*
X0177881Y0049551D01*
X0177881Y0048049D01*
X0161949Y0086275D02*
X0158947Y0086275D01*
X0158196Y0087026D01*
X0158196Y0088527D01*
X0158947Y0089278D01*
X0158947Y0090879D02*
X0158196Y0091630D01*
X0158196Y0093131D01*
X0158947Y0093882D01*
X0160448Y0093131D02*
X0160448Y0091630D01*
X0159697Y0090879D01*
X0158947Y0090879D01*
X0157445Y0092380D02*
X0163450Y0092380D01*
X0162700Y0091630D02*
X0162700Y0093131D01*
X0161949Y0093882D01*
X0161198Y0093882D01*
X0160448Y0093131D01*
X0160448Y0095483D02*
X0160448Y0097735D01*
X0161198Y0098486D01*
X0161949Y0098486D01*
X0162700Y0097735D01*
X0162700Y0096234D01*
X0161949Y0095483D01*
X0160448Y0095483D01*
X0158947Y0096984D01*
X0158196Y0098486D01*
X0162700Y0091630D02*
X0161949Y0090879D01*
X0161949Y0089278D02*
X0162700Y0088527D01*
X0162700Y0087026D01*
X0161949Y0086275D01*
X0202076Y0141183D02*
X0202079Y0141428D01*
X0202088Y0141674D01*
X0202103Y0141919D01*
X0202124Y0142163D01*
X0202151Y0142407D01*
X0202184Y0142650D01*
X0202223Y0142893D01*
X0202268Y0143134D01*
X0202319Y0143374D01*
X0202376Y0143613D01*
X0202438Y0143850D01*
X0202507Y0144086D01*
X0202581Y0144320D01*
X0202661Y0144552D01*
X0202746Y0144782D01*
X0202837Y0145010D01*
X0202934Y0145235D01*
X0203036Y0145459D01*
X0203144Y0145679D01*
X0203257Y0145897D01*
X0203375Y0146112D01*
X0203499Y0146324D01*
X0203627Y0146533D01*
X0203761Y0146739D01*
X0203900Y0146941D01*
X0204044Y0147140D01*
X0204193Y0147335D01*
X0204346Y0147527D01*
X0204504Y0147715D01*
X0204666Y0147899D01*
X0204834Y0148078D01*
X0205005Y0148254D01*
X0205181Y0148425D01*
X0205360Y0148593D01*
X0205544Y0148755D01*
X0205732Y0148913D01*
X0205924Y0149066D01*
X0206119Y0149215D01*
X0206318Y0149359D01*
X0206520Y0149498D01*
X0206726Y0149632D01*
X0206935Y0149760D01*
X0207147Y0149884D01*
X0207362Y0150002D01*
X0207580Y0150115D01*
X0207800Y0150223D01*
X0208024Y0150325D01*
X0208249Y0150422D01*
X0208477Y0150513D01*
X0208707Y0150598D01*
X0208939Y0150678D01*
X0209173Y0150752D01*
X0209409Y0150821D01*
X0209646Y0150883D01*
X0209885Y0150940D01*
X0210125Y0150991D01*
X0210366Y0151036D01*
X0210609Y0151075D01*
X0210852Y0151108D01*
X0211096Y0151135D01*
X0211340Y0151156D01*
X0211585Y0151171D01*
X0211831Y0151180D01*
X0212076Y0151183D01*
X0212321Y0151180D01*
X0212567Y0151171D01*
X0212812Y0151156D01*
X0213056Y0151135D01*
X0213300Y0151108D01*
X0213543Y0151075D01*
X0213786Y0151036D01*
X0214027Y0150991D01*
X0214267Y0150940D01*
X0214506Y0150883D01*
X0214743Y0150821D01*
X0214979Y0150752D01*
X0215213Y0150678D01*
X0215445Y0150598D01*
X0215675Y0150513D01*
X0215903Y0150422D01*
X0216128Y0150325D01*
X0216352Y0150223D01*
X0216572Y0150115D01*
X0216790Y0150002D01*
X0217005Y0149884D01*
X0217217Y0149760D01*
X0217426Y0149632D01*
X0217632Y0149498D01*
X0217834Y0149359D01*
X0218033Y0149215D01*
X0218228Y0149066D01*
X0218420Y0148913D01*
X0218608Y0148755D01*
X0218792Y0148593D01*
X0218971Y0148425D01*
X0219147Y0148254D01*
X0219318Y0148078D01*
X0219486Y0147899D01*
X0219648Y0147715D01*
X0219806Y0147527D01*
X0219959Y0147335D01*
X0220108Y0147140D01*
X0220252Y0146941D01*
X0220391Y0146739D01*
X0220525Y0146533D01*
X0220653Y0146324D01*
X0220777Y0146112D01*
X0220895Y0145897D01*
X0221008Y0145679D01*
X0221116Y0145459D01*
X0221218Y0145235D01*
X0221315Y0145010D01*
X0221406Y0144782D01*
X0221491Y0144552D01*
X0221571Y0144320D01*
X0221645Y0144086D01*
X0221714Y0143850D01*
X0221776Y0143613D01*
X0221833Y0143374D01*
X0221884Y0143134D01*
X0221929Y0142893D01*
X0221968Y0142650D01*
X0222001Y0142407D01*
X0222028Y0142163D01*
X0222049Y0141919D01*
X0222064Y0141674D01*
X0222073Y0141428D01*
X0222076Y0141183D01*
X0222073Y0140938D01*
X0222064Y0140692D01*
X0222049Y0140447D01*
X0222028Y0140203D01*
X0222001Y0139959D01*
X0221968Y0139716D01*
X0221929Y0139473D01*
X0221884Y0139232D01*
X0221833Y0138992D01*
X0221776Y0138753D01*
X0221714Y0138516D01*
X0221645Y0138280D01*
X0221571Y0138046D01*
X0221491Y0137814D01*
X0221406Y0137584D01*
X0221315Y0137356D01*
X0221218Y0137131D01*
X0221116Y0136907D01*
X0221008Y0136687D01*
X0220895Y0136469D01*
X0220777Y0136254D01*
X0220653Y0136042D01*
X0220525Y0135833D01*
X0220391Y0135627D01*
X0220252Y0135425D01*
X0220108Y0135226D01*
X0219959Y0135031D01*
X0219806Y0134839D01*
X0219648Y0134651D01*
X0219486Y0134467D01*
X0219318Y0134288D01*
X0219147Y0134112D01*
X0218971Y0133941D01*
X0218792Y0133773D01*
X0218608Y0133611D01*
X0218420Y0133453D01*
X0218228Y0133300D01*
X0218033Y0133151D01*
X0217834Y0133007D01*
X0217632Y0132868D01*
X0217426Y0132734D01*
X0217217Y0132606D01*
X0217005Y0132482D01*
X0216790Y0132364D01*
X0216572Y0132251D01*
X0216352Y0132143D01*
X0216128Y0132041D01*
X0215903Y0131944D01*
X0215675Y0131853D01*
X0215445Y0131768D01*
X0215213Y0131688D01*
X0214979Y0131614D01*
X0214743Y0131545D01*
X0214506Y0131483D01*
X0214267Y0131426D01*
X0214027Y0131375D01*
X0213786Y0131330D01*
X0213543Y0131291D01*
X0213300Y0131258D01*
X0213056Y0131231D01*
X0212812Y0131210D01*
X0212567Y0131195D01*
X0212321Y0131186D01*
X0212076Y0131183D01*
X0211831Y0131186D01*
X0211585Y0131195D01*
X0211340Y0131210D01*
X0211096Y0131231D01*
X0210852Y0131258D01*
X0210609Y0131291D01*
X0210366Y0131330D01*
X0210125Y0131375D01*
X0209885Y0131426D01*
X0209646Y0131483D01*
X0209409Y0131545D01*
X0209173Y0131614D01*
X0208939Y0131688D01*
X0208707Y0131768D01*
X0208477Y0131853D01*
X0208249Y0131944D01*
X0208024Y0132041D01*
X0207800Y0132143D01*
X0207580Y0132251D01*
X0207362Y0132364D01*
X0207147Y0132482D01*
X0206935Y0132606D01*
X0206726Y0132734D01*
X0206520Y0132868D01*
X0206318Y0133007D01*
X0206119Y0133151D01*
X0205924Y0133300D01*
X0205732Y0133453D01*
X0205544Y0133611D01*
X0205360Y0133773D01*
X0205181Y0133941D01*
X0205005Y0134112D01*
X0204834Y0134288D01*
X0204666Y0134467D01*
X0204504Y0134651D01*
X0204346Y0134839D01*
X0204193Y0135031D01*
X0204044Y0135226D01*
X0203900Y0135425D01*
X0203761Y0135627D01*
X0203627Y0135833D01*
X0203499Y0136042D01*
X0203375Y0136254D01*
X0203257Y0136469D01*
X0203144Y0136687D01*
X0203036Y0136907D01*
X0202934Y0137131D01*
X0202837Y0137356D01*
X0202746Y0137584D01*
X0202661Y0137814D01*
X0202581Y0138046D01*
X0202507Y0138280D01*
X0202438Y0138516D01*
X0202376Y0138753D01*
X0202319Y0138992D01*
X0202268Y0139232D01*
X0202223Y0139473D01*
X0202184Y0139716D01*
X0202151Y0139959D01*
X0202124Y0140203D01*
X0202103Y0140447D01*
X0202088Y0140692D01*
X0202079Y0140938D01*
X0202076Y0141183D01*
X0204076Y0151433D02*
X0205578Y0151433D01*
X0206328Y0152183D01*
X0207930Y0152183D02*
X0208680Y0151433D01*
X0210182Y0151433D01*
X0210932Y0152183D01*
X0210932Y0152934D01*
X0210182Y0153685D01*
X0208680Y0153685D01*
X0207930Y0154435D01*
X0207930Y0155186D01*
X0208680Y0155937D01*
X0210182Y0155937D01*
X0210932Y0155186D01*
X0209431Y0156687D02*
X0209431Y0150682D01*
X0212534Y0153685D02*
X0215536Y0153685D01*
X0214785Y0151433D02*
X0214785Y0155937D01*
X0212534Y0153685D01*
X0206328Y0155186D02*
X0205578Y0155937D01*
X0204076Y0155937D01*
X0203326Y0155186D01*
X0203326Y0152183D01*
X0204076Y0151433D01*
X0193021Y0179372D02*
X0193024Y0179617D01*
X0193033Y0179863D01*
X0193048Y0180108D01*
X0193069Y0180352D01*
X0193096Y0180596D01*
X0193129Y0180839D01*
X0193168Y0181082D01*
X0193213Y0181323D01*
X0193264Y0181563D01*
X0193321Y0181802D01*
X0193383Y0182039D01*
X0193452Y0182275D01*
X0193526Y0182509D01*
X0193606Y0182741D01*
X0193691Y0182971D01*
X0193782Y0183199D01*
X0193879Y0183424D01*
X0193981Y0183648D01*
X0194089Y0183868D01*
X0194202Y0184086D01*
X0194320Y0184301D01*
X0194444Y0184513D01*
X0194572Y0184722D01*
X0194706Y0184928D01*
X0194845Y0185130D01*
X0194989Y0185329D01*
X0195138Y0185524D01*
X0195291Y0185716D01*
X0195449Y0185904D01*
X0195611Y0186088D01*
X0195779Y0186267D01*
X0195950Y0186443D01*
X0196126Y0186614D01*
X0196305Y0186782D01*
X0196489Y0186944D01*
X0196677Y0187102D01*
X0196869Y0187255D01*
X0197064Y0187404D01*
X0197263Y0187548D01*
X0197465Y0187687D01*
X0197671Y0187821D01*
X0197880Y0187949D01*
X0198092Y0188073D01*
X0198307Y0188191D01*
X0198525Y0188304D01*
X0198745Y0188412D01*
X0198969Y0188514D01*
X0199194Y0188611D01*
X0199422Y0188702D01*
X0199652Y0188787D01*
X0199884Y0188867D01*
X0200118Y0188941D01*
X0200354Y0189010D01*
X0200591Y0189072D01*
X0200830Y0189129D01*
X0201070Y0189180D01*
X0201311Y0189225D01*
X0201554Y0189264D01*
X0201797Y0189297D01*
X0202041Y0189324D01*
X0202285Y0189345D01*
X0202530Y0189360D01*
X0202776Y0189369D01*
X0203021Y0189372D01*
X0203266Y0189369D01*
X0203512Y0189360D01*
X0203757Y0189345D01*
X0204001Y0189324D01*
X0204245Y0189297D01*
X0204488Y0189264D01*
X0204731Y0189225D01*
X0204972Y0189180D01*
X0205212Y0189129D01*
X0205451Y0189072D01*
X0205688Y0189010D01*
X0205924Y0188941D01*
X0206158Y0188867D01*
X0206390Y0188787D01*
X0206620Y0188702D01*
X0206848Y0188611D01*
X0207073Y0188514D01*
X0207297Y0188412D01*
X0207517Y0188304D01*
X0207735Y0188191D01*
X0207950Y0188073D01*
X0208162Y0187949D01*
X0208371Y0187821D01*
X0208577Y0187687D01*
X0208779Y0187548D01*
X0208978Y0187404D01*
X0209173Y0187255D01*
X0209365Y0187102D01*
X0209553Y0186944D01*
X0209737Y0186782D01*
X0209916Y0186614D01*
X0210092Y0186443D01*
X0210263Y0186267D01*
X0210431Y0186088D01*
X0210593Y0185904D01*
X0210751Y0185716D01*
X0210904Y0185524D01*
X0211053Y0185329D01*
X0211197Y0185130D01*
X0211336Y0184928D01*
X0211470Y0184722D01*
X0211598Y0184513D01*
X0211722Y0184301D01*
X0211840Y0184086D01*
X0211953Y0183868D01*
X0212061Y0183648D01*
X0212163Y0183424D01*
X0212260Y0183199D01*
X0212351Y0182971D01*
X0212436Y0182741D01*
X0212516Y0182509D01*
X0212590Y0182275D01*
X0212659Y0182039D01*
X0212721Y0181802D01*
X0212778Y0181563D01*
X0212829Y0181323D01*
X0212874Y0181082D01*
X0212913Y0180839D01*
X0212946Y0180596D01*
X0212973Y0180352D01*
X0212994Y0180108D01*
X0213009Y0179863D01*
X0213018Y0179617D01*
X0213021Y0179372D01*
X0213018Y0179127D01*
X0213009Y0178881D01*
X0212994Y0178636D01*
X0212973Y0178392D01*
X0212946Y0178148D01*
X0212913Y0177905D01*
X0212874Y0177662D01*
X0212829Y0177421D01*
X0212778Y0177181D01*
X0212721Y0176942D01*
X0212659Y0176705D01*
X0212590Y0176469D01*
X0212516Y0176235D01*
X0212436Y0176003D01*
X0212351Y0175773D01*
X0212260Y0175545D01*
X0212163Y0175320D01*
X0212061Y0175096D01*
X0211953Y0174876D01*
X0211840Y0174658D01*
X0211722Y0174443D01*
X0211598Y0174231D01*
X0211470Y0174022D01*
X0211336Y0173816D01*
X0211197Y0173614D01*
X0211053Y0173415D01*
X0210904Y0173220D01*
X0210751Y0173028D01*
X0210593Y0172840D01*
X0210431Y0172656D01*
X0210263Y0172477D01*
X0210092Y0172301D01*
X0209916Y0172130D01*
X0209737Y0171962D01*
X0209553Y0171800D01*
X0209365Y0171642D01*
X0209173Y0171489D01*
X0208978Y0171340D01*
X0208779Y0171196D01*
X0208577Y0171057D01*
X0208371Y0170923D01*
X0208162Y0170795D01*
X0207950Y0170671D01*
X0207735Y0170553D01*
X0207517Y0170440D01*
X0207297Y0170332D01*
X0207073Y0170230D01*
X0206848Y0170133D01*
X0206620Y0170042D01*
X0206390Y0169957D01*
X0206158Y0169877D01*
X0205924Y0169803D01*
X0205688Y0169734D01*
X0205451Y0169672D01*
X0205212Y0169615D01*
X0204972Y0169564D01*
X0204731Y0169519D01*
X0204488Y0169480D01*
X0204245Y0169447D01*
X0204001Y0169420D01*
X0203757Y0169399D01*
X0203512Y0169384D01*
X0203266Y0169375D01*
X0203021Y0169372D01*
X0202776Y0169375D01*
X0202530Y0169384D01*
X0202285Y0169399D01*
X0202041Y0169420D01*
X0201797Y0169447D01*
X0201554Y0169480D01*
X0201311Y0169519D01*
X0201070Y0169564D01*
X0200830Y0169615D01*
X0200591Y0169672D01*
X0200354Y0169734D01*
X0200118Y0169803D01*
X0199884Y0169877D01*
X0199652Y0169957D01*
X0199422Y0170042D01*
X0199194Y0170133D01*
X0198969Y0170230D01*
X0198745Y0170332D01*
X0198525Y0170440D01*
X0198307Y0170553D01*
X0198092Y0170671D01*
X0197880Y0170795D01*
X0197671Y0170923D01*
X0197465Y0171057D01*
X0197263Y0171196D01*
X0197064Y0171340D01*
X0196869Y0171489D01*
X0196677Y0171642D01*
X0196489Y0171800D01*
X0196305Y0171962D01*
X0196126Y0172130D01*
X0195950Y0172301D01*
X0195779Y0172477D01*
X0195611Y0172656D01*
X0195449Y0172840D01*
X0195291Y0173028D01*
X0195138Y0173220D01*
X0194989Y0173415D01*
X0194845Y0173614D01*
X0194706Y0173816D01*
X0194572Y0174022D01*
X0194444Y0174231D01*
X0194320Y0174443D01*
X0194202Y0174658D01*
X0194089Y0174876D01*
X0193981Y0175096D01*
X0193879Y0175320D01*
X0193782Y0175545D01*
X0193691Y0175773D01*
X0193606Y0176003D01*
X0193526Y0176235D01*
X0193452Y0176469D01*
X0193383Y0176705D01*
X0193321Y0176942D01*
X0193264Y0177181D01*
X0193213Y0177421D01*
X0193168Y0177662D01*
X0193129Y0177905D01*
X0193096Y0178148D01*
X0193069Y0178392D01*
X0193048Y0178636D01*
X0193033Y0178881D01*
X0193024Y0179127D01*
X0193021Y0179372D01*
X0195021Y0189622D02*
X0196523Y0189622D01*
X0197273Y0190372D01*
X0198875Y0190372D02*
X0199625Y0189622D01*
X0201126Y0189622D01*
X0201877Y0190372D01*
X0201877Y0191123D01*
X0201126Y0191874D01*
X0199625Y0191874D01*
X0198875Y0192624D01*
X0198875Y0193375D01*
X0199625Y0194125D01*
X0201126Y0194125D01*
X0201877Y0193375D01*
X0203478Y0194125D02*
X0203478Y0191874D01*
X0204980Y0192624D01*
X0205730Y0192624D01*
X0206481Y0191874D01*
X0206481Y0190372D01*
X0205730Y0189622D01*
X0204229Y0189622D01*
X0203478Y0190372D01*
X0200376Y0188871D02*
X0200376Y0194876D01*
X0203478Y0194125D02*
X0206481Y0194125D01*
X0197273Y0193375D02*
X0196523Y0194125D01*
X0195021Y0194125D01*
X0194271Y0193375D01*
X0194271Y0190372D01*
X0195021Y0189622D01*
X0234428Y0183926D02*
X0234428Y0180923D01*
X0235179Y0180173D01*
X0236680Y0180173D01*
X0237431Y0180923D01*
X0239032Y0180923D02*
X0239783Y0180173D01*
X0241284Y0180173D01*
X0242035Y0180923D01*
X0242035Y0181674D01*
X0241284Y0182425D01*
X0239783Y0182425D01*
X0239032Y0183175D01*
X0239032Y0183926D01*
X0239783Y0184677D01*
X0241284Y0184677D01*
X0242035Y0183926D01*
X0243636Y0183926D02*
X0244387Y0184677D01*
X0245888Y0184677D01*
X0246638Y0183926D01*
X0246638Y0183175D01*
X0245888Y0182425D01*
X0246638Y0181674D01*
X0246638Y0180923D01*
X0245888Y0180173D01*
X0244387Y0180173D01*
X0243636Y0180923D01*
X0245137Y0182425D02*
X0245888Y0182425D01*
X0240533Y0185427D02*
X0240533Y0179422D01*
X0237431Y0183926D02*
X0236680Y0184677D01*
X0235179Y0184677D01*
X0234428Y0183926D01*
X0233178Y0169923D02*
X0233181Y0170168D01*
X0233190Y0170414D01*
X0233205Y0170659D01*
X0233226Y0170903D01*
X0233253Y0171147D01*
X0233286Y0171390D01*
X0233325Y0171633D01*
X0233370Y0171874D01*
X0233421Y0172114D01*
X0233478Y0172353D01*
X0233540Y0172590D01*
X0233609Y0172826D01*
X0233683Y0173060D01*
X0233763Y0173292D01*
X0233848Y0173522D01*
X0233939Y0173750D01*
X0234036Y0173975D01*
X0234138Y0174199D01*
X0234246Y0174419D01*
X0234359Y0174637D01*
X0234477Y0174852D01*
X0234601Y0175064D01*
X0234729Y0175273D01*
X0234863Y0175479D01*
X0235002Y0175681D01*
X0235146Y0175880D01*
X0235295Y0176075D01*
X0235448Y0176267D01*
X0235606Y0176455D01*
X0235768Y0176639D01*
X0235936Y0176818D01*
X0236107Y0176994D01*
X0236283Y0177165D01*
X0236462Y0177333D01*
X0236646Y0177495D01*
X0236834Y0177653D01*
X0237026Y0177806D01*
X0237221Y0177955D01*
X0237420Y0178099D01*
X0237622Y0178238D01*
X0237828Y0178372D01*
X0238037Y0178500D01*
X0238249Y0178624D01*
X0238464Y0178742D01*
X0238682Y0178855D01*
X0238902Y0178963D01*
X0239126Y0179065D01*
X0239351Y0179162D01*
X0239579Y0179253D01*
X0239809Y0179338D01*
X0240041Y0179418D01*
X0240275Y0179492D01*
X0240511Y0179561D01*
X0240748Y0179623D01*
X0240987Y0179680D01*
X0241227Y0179731D01*
X0241468Y0179776D01*
X0241711Y0179815D01*
X0241954Y0179848D01*
X0242198Y0179875D01*
X0242442Y0179896D01*
X0242687Y0179911D01*
X0242933Y0179920D01*
X0243178Y0179923D01*
X0243423Y0179920D01*
X0243669Y0179911D01*
X0243914Y0179896D01*
X0244158Y0179875D01*
X0244402Y0179848D01*
X0244645Y0179815D01*
X0244888Y0179776D01*
X0245129Y0179731D01*
X0245369Y0179680D01*
X0245608Y0179623D01*
X0245845Y0179561D01*
X0246081Y0179492D01*
X0246315Y0179418D01*
X0246547Y0179338D01*
X0246777Y0179253D01*
X0247005Y0179162D01*
X0247230Y0179065D01*
X0247454Y0178963D01*
X0247674Y0178855D01*
X0247892Y0178742D01*
X0248107Y0178624D01*
X0248319Y0178500D01*
X0248528Y0178372D01*
X0248734Y0178238D01*
X0248936Y0178099D01*
X0249135Y0177955D01*
X0249330Y0177806D01*
X0249522Y0177653D01*
X0249710Y0177495D01*
X0249894Y0177333D01*
X0250073Y0177165D01*
X0250249Y0176994D01*
X0250420Y0176818D01*
X0250588Y0176639D01*
X0250750Y0176455D01*
X0250908Y0176267D01*
X0251061Y0176075D01*
X0251210Y0175880D01*
X0251354Y0175681D01*
X0251493Y0175479D01*
X0251627Y0175273D01*
X0251755Y0175064D01*
X0251879Y0174852D01*
X0251997Y0174637D01*
X0252110Y0174419D01*
X0252218Y0174199D01*
X0252320Y0173975D01*
X0252417Y0173750D01*
X0252508Y0173522D01*
X0252593Y0173292D01*
X0252673Y0173060D01*
X0252747Y0172826D01*
X0252816Y0172590D01*
X0252878Y0172353D01*
X0252935Y0172114D01*
X0252986Y0171874D01*
X0253031Y0171633D01*
X0253070Y0171390D01*
X0253103Y0171147D01*
X0253130Y0170903D01*
X0253151Y0170659D01*
X0253166Y0170414D01*
X0253175Y0170168D01*
X0253178Y0169923D01*
X0253175Y0169678D01*
X0253166Y0169432D01*
X0253151Y0169187D01*
X0253130Y0168943D01*
X0253103Y0168699D01*
X0253070Y0168456D01*
X0253031Y0168213D01*
X0252986Y0167972D01*
X0252935Y0167732D01*
X0252878Y0167493D01*
X0252816Y0167256D01*
X0252747Y0167020D01*
X0252673Y0166786D01*
X0252593Y0166554D01*
X0252508Y0166324D01*
X0252417Y0166096D01*
X0252320Y0165871D01*
X0252218Y0165647D01*
X0252110Y0165427D01*
X0251997Y0165209D01*
X0251879Y0164994D01*
X0251755Y0164782D01*
X0251627Y0164573D01*
X0251493Y0164367D01*
X0251354Y0164165D01*
X0251210Y0163966D01*
X0251061Y0163771D01*
X0250908Y0163579D01*
X0250750Y0163391D01*
X0250588Y0163207D01*
X0250420Y0163028D01*
X0250249Y0162852D01*
X0250073Y0162681D01*
X0249894Y0162513D01*
X0249710Y0162351D01*
X0249522Y0162193D01*
X0249330Y0162040D01*
X0249135Y0161891D01*
X0248936Y0161747D01*
X0248734Y0161608D01*
X0248528Y0161474D01*
X0248319Y0161346D01*
X0248107Y0161222D01*
X0247892Y0161104D01*
X0247674Y0160991D01*
X0247454Y0160883D01*
X0247230Y0160781D01*
X0247005Y0160684D01*
X0246777Y0160593D01*
X0246547Y0160508D01*
X0246315Y0160428D01*
X0246081Y0160354D01*
X0245845Y0160285D01*
X0245608Y0160223D01*
X0245369Y0160166D01*
X0245129Y0160115D01*
X0244888Y0160070D01*
X0244645Y0160031D01*
X0244402Y0159998D01*
X0244158Y0159971D01*
X0243914Y0159950D01*
X0243669Y0159935D01*
X0243423Y0159926D01*
X0243178Y0159923D01*
X0242933Y0159926D01*
X0242687Y0159935D01*
X0242442Y0159950D01*
X0242198Y0159971D01*
X0241954Y0159998D01*
X0241711Y0160031D01*
X0241468Y0160070D01*
X0241227Y0160115D01*
X0240987Y0160166D01*
X0240748Y0160223D01*
X0240511Y0160285D01*
X0240275Y0160354D01*
X0240041Y0160428D01*
X0239809Y0160508D01*
X0239579Y0160593D01*
X0239351Y0160684D01*
X0239126Y0160781D01*
X0238902Y0160883D01*
X0238682Y0160991D01*
X0238464Y0161104D01*
X0238249Y0161222D01*
X0238037Y0161346D01*
X0237828Y0161474D01*
X0237622Y0161608D01*
X0237420Y0161747D01*
X0237221Y0161891D01*
X0237026Y0162040D01*
X0236834Y0162193D01*
X0236646Y0162351D01*
X0236462Y0162513D01*
X0236283Y0162681D01*
X0236107Y0162852D01*
X0235936Y0163028D01*
X0235768Y0163207D01*
X0235606Y0163391D01*
X0235448Y0163579D01*
X0235295Y0163771D01*
X0235146Y0163966D01*
X0235002Y0164165D01*
X0234863Y0164367D01*
X0234729Y0164573D01*
X0234601Y0164782D01*
X0234477Y0164994D01*
X0234359Y0165209D01*
X0234246Y0165427D01*
X0234138Y0165647D01*
X0234036Y0165871D01*
X0233939Y0166096D01*
X0233848Y0166324D01*
X0233763Y0166554D01*
X0233683Y0166786D01*
X0233609Y0167020D01*
X0233540Y0167256D01*
X0233478Y0167493D01*
X0233421Y0167732D01*
X0233370Y0167972D01*
X0233325Y0168213D01*
X0233286Y0168456D01*
X0233253Y0168699D01*
X0233226Y0168943D01*
X0233205Y0169187D01*
X0233190Y0169432D01*
X0233181Y0169678D01*
X0233178Y0169923D01*
X0232902Y0136458D02*
X0232907Y0136826D01*
X0232920Y0137194D01*
X0232943Y0137561D01*
X0232974Y0137928D01*
X0233015Y0138294D01*
X0233064Y0138659D01*
X0233123Y0139022D01*
X0233190Y0139384D01*
X0233266Y0139745D01*
X0233352Y0140103D01*
X0233445Y0140459D01*
X0233548Y0140812D01*
X0233659Y0141163D01*
X0233779Y0141511D01*
X0233907Y0141856D01*
X0234044Y0142198D01*
X0234189Y0142537D01*
X0234342Y0142871D01*
X0234504Y0143202D01*
X0234673Y0143529D01*
X0234851Y0143851D01*
X0235036Y0144170D01*
X0235229Y0144483D01*
X0235430Y0144792D01*
X0235638Y0145095D01*
X0235854Y0145393D01*
X0236077Y0145686D01*
X0236307Y0145974D01*
X0236544Y0146256D01*
X0236788Y0146531D01*
X0237038Y0146801D01*
X0237295Y0147065D01*
X0237559Y0147322D01*
X0237829Y0147572D01*
X0238104Y0147816D01*
X0238386Y0148053D01*
X0238674Y0148283D01*
X0238967Y0148506D01*
X0239265Y0148722D01*
X0239568Y0148930D01*
X0239877Y0149131D01*
X0240190Y0149324D01*
X0240509Y0149509D01*
X0240831Y0149687D01*
X0241158Y0149856D01*
X0241489Y0150018D01*
X0241823Y0150171D01*
X0242162Y0150316D01*
X0242504Y0150453D01*
X0242849Y0150581D01*
X0243197Y0150701D01*
X0243548Y0150812D01*
X0243901Y0150915D01*
X0244257Y0151008D01*
X0244615Y0151094D01*
X0244976Y0151170D01*
X0245338Y0151237D01*
X0245701Y0151296D01*
X0246066Y0151345D01*
X0246432Y0151386D01*
X0246799Y0151417D01*
X0247166Y0151440D01*
X0247534Y0151453D01*
X0247902Y0151458D01*
X0248270Y0151453D01*
X0248638Y0151440D01*
X0249005Y0151417D01*
X0249372Y0151386D01*
X0249738Y0151345D01*
X0250103Y0151296D01*
X0250466Y0151237D01*
X0250828Y0151170D01*
X0251189Y0151094D01*
X0251547Y0151008D01*
X0251903Y0150915D01*
X0252256Y0150812D01*
X0252607Y0150701D01*
X0252955Y0150581D01*
X0253300Y0150453D01*
X0253642Y0150316D01*
X0253981Y0150171D01*
X0254315Y0150018D01*
X0254646Y0149856D01*
X0254973Y0149687D01*
X0255295Y0149509D01*
X0255614Y0149324D01*
X0255927Y0149131D01*
X0256236Y0148930D01*
X0256539Y0148722D01*
X0256837Y0148506D01*
X0257130Y0148283D01*
X0257418Y0148053D01*
X0257700Y0147816D01*
X0257975Y0147572D01*
X0258245Y0147322D01*
X0258509Y0147065D01*
X0258766Y0146801D01*
X0259016Y0146531D01*
X0259260Y0146256D01*
X0259497Y0145974D01*
X0259727Y0145686D01*
X0259950Y0145393D01*
X0260166Y0145095D01*
X0260374Y0144792D01*
X0260575Y0144483D01*
X0260768Y0144170D01*
X0260953Y0143851D01*
X0261131Y0143529D01*
X0261300Y0143202D01*
X0261462Y0142871D01*
X0261615Y0142537D01*
X0261760Y0142198D01*
X0261897Y0141856D01*
X0262025Y0141511D01*
X0262145Y0141163D01*
X0262256Y0140812D01*
X0262359Y0140459D01*
X0262452Y0140103D01*
X0262538Y0139745D01*
X0262614Y0139384D01*
X0262681Y0139022D01*
X0262740Y0138659D01*
X0262789Y0138294D01*
X0262830Y0137928D01*
X0262861Y0137561D01*
X0262884Y0137194D01*
X0262897Y0136826D01*
X0262902Y0136458D01*
X0262897Y0136090D01*
X0262884Y0135722D01*
X0262861Y0135355D01*
X0262830Y0134988D01*
X0262789Y0134622D01*
X0262740Y0134257D01*
X0262681Y0133894D01*
X0262614Y0133532D01*
X0262538Y0133171D01*
X0262452Y0132813D01*
X0262359Y0132457D01*
X0262256Y0132104D01*
X0262145Y0131753D01*
X0262025Y0131405D01*
X0261897Y0131060D01*
X0261760Y0130718D01*
X0261615Y0130379D01*
X0261462Y0130045D01*
X0261300Y0129714D01*
X0261131Y0129387D01*
X0260953Y0129065D01*
X0260768Y0128746D01*
X0260575Y0128433D01*
X0260374Y0128124D01*
X0260166Y0127821D01*
X0259950Y0127523D01*
X0259727Y0127230D01*
X0259497Y0126942D01*
X0259260Y0126660D01*
X0259016Y0126385D01*
X0258766Y0126115D01*
X0258509Y0125851D01*
X0258245Y0125594D01*
X0257975Y0125344D01*
X0257700Y0125100D01*
X0257418Y0124863D01*
X0257130Y0124633D01*
X0256837Y0124410D01*
X0256539Y0124194D01*
X0256236Y0123986D01*
X0255927Y0123785D01*
X0255614Y0123592D01*
X0255295Y0123407D01*
X0254973Y0123229D01*
X0254646Y0123060D01*
X0254315Y0122898D01*
X0253981Y0122745D01*
X0253642Y0122600D01*
X0253300Y0122463D01*
X0252955Y0122335D01*
X0252607Y0122215D01*
X0252256Y0122104D01*
X0251903Y0122001D01*
X0251547Y0121908D01*
X0251189Y0121822D01*
X0250828Y0121746D01*
X0250466Y0121679D01*
X0250103Y0121620D01*
X0249738Y0121571D01*
X0249372Y0121530D01*
X0249005Y0121499D01*
X0248638Y0121476D01*
X0248270Y0121463D01*
X0247902Y0121458D01*
X0247534Y0121463D01*
X0247166Y0121476D01*
X0246799Y0121499D01*
X0246432Y0121530D01*
X0246066Y0121571D01*
X0245701Y0121620D01*
X0245338Y0121679D01*
X0244976Y0121746D01*
X0244615Y0121822D01*
X0244257Y0121908D01*
X0243901Y0122001D01*
X0243548Y0122104D01*
X0243197Y0122215D01*
X0242849Y0122335D01*
X0242504Y0122463D01*
X0242162Y0122600D01*
X0241823Y0122745D01*
X0241489Y0122898D01*
X0241158Y0123060D01*
X0240831Y0123229D01*
X0240509Y0123407D01*
X0240190Y0123592D01*
X0239877Y0123785D01*
X0239568Y0123986D01*
X0239265Y0124194D01*
X0238967Y0124410D01*
X0238674Y0124633D01*
X0238386Y0124863D01*
X0238104Y0125100D01*
X0237829Y0125344D01*
X0237559Y0125594D01*
X0237295Y0125851D01*
X0237038Y0126115D01*
X0236788Y0126385D01*
X0236544Y0126660D01*
X0236307Y0126942D01*
X0236077Y0127230D01*
X0235854Y0127523D01*
X0235638Y0127821D01*
X0235430Y0128124D01*
X0235229Y0128433D01*
X0235036Y0128746D01*
X0234851Y0129065D01*
X0234673Y0129387D01*
X0234504Y0129714D01*
X0234342Y0130045D01*
X0234189Y0130379D01*
X0234044Y0130718D01*
X0233907Y0131060D01*
X0233779Y0131405D01*
X0233659Y0131753D01*
X0233548Y0132104D01*
X0233445Y0132457D01*
X0233352Y0132813D01*
X0233266Y0133171D01*
X0233190Y0133532D01*
X0233123Y0133894D01*
X0233064Y0134257D01*
X0233015Y0134622D01*
X0232974Y0134988D01*
X0232943Y0135355D01*
X0232920Y0135722D01*
X0232907Y0136090D01*
X0232902Y0136458D01*
X0248591Y0120212D02*
X0247841Y0119461D01*
X0247841Y0116459D01*
X0248591Y0115708D01*
X0250093Y0115708D01*
X0250843Y0116459D01*
X0252445Y0116459D02*
X0253195Y0115708D01*
X0254697Y0115708D01*
X0255447Y0116459D01*
X0255447Y0117210D01*
X0254697Y0117960D01*
X0253195Y0117960D01*
X0252445Y0118711D01*
X0252445Y0119461D01*
X0253195Y0120212D01*
X0254697Y0120212D01*
X0255447Y0119461D01*
X0257049Y0119461D02*
X0257799Y0120212D01*
X0259300Y0120212D01*
X0260051Y0119461D01*
X0260051Y0118711D01*
X0257049Y0115708D01*
X0260051Y0115708D01*
X0253946Y0114958D02*
X0253946Y0120963D01*
X0250843Y0119461D02*
X0250093Y0120212D01*
X0248591Y0120212D01*
X0248257Y0092757D02*
X0248262Y0093125D01*
X0248275Y0093493D01*
X0248298Y0093860D01*
X0248329Y0094227D01*
X0248370Y0094593D01*
X0248419Y0094958D01*
X0248478Y0095321D01*
X0248545Y0095683D01*
X0248621Y0096044D01*
X0248707Y0096402D01*
X0248800Y0096758D01*
X0248903Y0097111D01*
X0249014Y0097462D01*
X0249134Y0097810D01*
X0249262Y0098155D01*
X0249399Y0098497D01*
X0249544Y0098836D01*
X0249697Y0099170D01*
X0249859Y0099501D01*
X0250028Y0099828D01*
X0250206Y0100150D01*
X0250391Y0100469D01*
X0250584Y0100782D01*
X0250785Y0101091D01*
X0250993Y0101394D01*
X0251209Y0101692D01*
X0251432Y0101985D01*
X0251662Y0102273D01*
X0251899Y0102555D01*
X0252143Y0102830D01*
X0252393Y0103100D01*
X0252650Y0103364D01*
X0252914Y0103621D01*
X0253184Y0103871D01*
X0253459Y0104115D01*
X0253741Y0104352D01*
X0254029Y0104582D01*
X0254322Y0104805D01*
X0254620Y0105021D01*
X0254923Y0105229D01*
X0255232Y0105430D01*
X0255545Y0105623D01*
X0255864Y0105808D01*
X0256186Y0105986D01*
X0256513Y0106155D01*
X0256844Y0106317D01*
X0257178Y0106470D01*
X0257517Y0106615D01*
X0257859Y0106752D01*
X0258204Y0106880D01*
X0258552Y0107000D01*
X0258903Y0107111D01*
X0259256Y0107214D01*
X0259612Y0107307D01*
X0259970Y0107393D01*
X0260331Y0107469D01*
X0260693Y0107536D01*
X0261056Y0107595D01*
X0261421Y0107644D01*
X0261787Y0107685D01*
X0262154Y0107716D01*
X0262521Y0107739D01*
X0262889Y0107752D01*
X0263257Y0107757D01*
X0263625Y0107752D01*
X0263993Y0107739D01*
X0264360Y0107716D01*
X0264727Y0107685D01*
X0265093Y0107644D01*
X0265458Y0107595D01*
X0265821Y0107536D01*
X0266183Y0107469D01*
X0266544Y0107393D01*
X0266902Y0107307D01*
X0267258Y0107214D01*
X0267611Y0107111D01*
X0267962Y0107000D01*
X0268310Y0106880D01*
X0268655Y0106752D01*
X0268997Y0106615D01*
X0269336Y0106470D01*
X0269670Y0106317D01*
X0270001Y0106155D01*
X0270328Y0105986D01*
X0270650Y0105808D01*
X0270969Y0105623D01*
X0271282Y0105430D01*
X0271591Y0105229D01*
X0271894Y0105021D01*
X0272192Y0104805D01*
X0272485Y0104582D01*
X0272773Y0104352D01*
X0273055Y0104115D01*
X0273330Y0103871D01*
X0273600Y0103621D01*
X0273864Y0103364D01*
X0274121Y0103100D01*
X0274371Y0102830D01*
X0274615Y0102555D01*
X0274852Y0102273D01*
X0275082Y0101985D01*
X0275305Y0101692D01*
X0275521Y0101394D01*
X0275729Y0101091D01*
X0275930Y0100782D01*
X0276123Y0100469D01*
X0276308Y0100150D01*
X0276486Y0099828D01*
X0276655Y0099501D01*
X0276817Y0099170D01*
X0276970Y0098836D01*
X0277115Y0098497D01*
X0277252Y0098155D01*
X0277380Y0097810D01*
X0277500Y0097462D01*
X0277611Y0097111D01*
X0277714Y0096758D01*
X0277807Y0096402D01*
X0277893Y0096044D01*
X0277969Y0095683D01*
X0278036Y0095321D01*
X0278095Y0094958D01*
X0278144Y0094593D01*
X0278185Y0094227D01*
X0278216Y0093860D01*
X0278239Y0093493D01*
X0278252Y0093125D01*
X0278257Y0092757D01*
X0278252Y0092389D01*
X0278239Y0092021D01*
X0278216Y0091654D01*
X0278185Y0091287D01*
X0278144Y0090921D01*
X0278095Y0090556D01*
X0278036Y0090193D01*
X0277969Y0089831D01*
X0277893Y0089470D01*
X0277807Y0089112D01*
X0277714Y0088756D01*
X0277611Y0088403D01*
X0277500Y0088052D01*
X0277380Y0087704D01*
X0277252Y0087359D01*
X0277115Y0087017D01*
X0276970Y0086678D01*
X0276817Y0086344D01*
X0276655Y0086013D01*
X0276486Y0085686D01*
X0276308Y0085364D01*
X0276123Y0085045D01*
X0275930Y0084732D01*
X0275729Y0084423D01*
X0275521Y0084120D01*
X0275305Y0083822D01*
X0275082Y0083529D01*
X0274852Y0083241D01*
X0274615Y0082959D01*
X0274371Y0082684D01*
X0274121Y0082414D01*
X0273864Y0082150D01*
X0273600Y0081893D01*
X0273330Y0081643D01*
X0273055Y0081399D01*
X0272773Y0081162D01*
X0272485Y0080932D01*
X0272192Y0080709D01*
X0271894Y0080493D01*
X0271591Y0080285D01*
X0271282Y0080084D01*
X0270969Y0079891D01*
X0270650Y0079706D01*
X0270328Y0079528D01*
X0270001Y0079359D01*
X0269670Y0079197D01*
X0269336Y0079044D01*
X0268997Y0078899D01*
X0268655Y0078762D01*
X0268310Y0078634D01*
X0267962Y0078514D01*
X0267611Y0078403D01*
X0267258Y0078300D01*
X0266902Y0078207D01*
X0266544Y0078121D01*
X0266183Y0078045D01*
X0265821Y0077978D01*
X0265458Y0077919D01*
X0265093Y0077870D01*
X0264727Y0077829D01*
X0264360Y0077798D01*
X0263993Y0077775D01*
X0263625Y0077762D01*
X0263257Y0077757D01*
X0262889Y0077762D01*
X0262521Y0077775D01*
X0262154Y0077798D01*
X0261787Y0077829D01*
X0261421Y0077870D01*
X0261056Y0077919D01*
X0260693Y0077978D01*
X0260331Y0078045D01*
X0259970Y0078121D01*
X0259612Y0078207D01*
X0259256Y0078300D01*
X0258903Y0078403D01*
X0258552Y0078514D01*
X0258204Y0078634D01*
X0257859Y0078762D01*
X0257517Y0078899D01*
X0257178Y0079044D01*
X0256844Y0079197D01*
X0256513Y0079359D01*
X0256186Y0079528D01*
X0255864Y0079706D01*
X0255545Y0079891D01*
X0255232Y0080084D01*
X0254923Y0080285D01*
X0254620Y0080493D01*
X0254322Y0080709D01*
X0254029Y0080932D01*
X0253741Y0081162D01*
X0253459Y0081399D01*
X0253184Y0081643D01*
X0252914Y0081893D01*
X0252650Y0082150D01*
X0252393Y0082414D01*
X0252143Y0082684D01*
X0251899Y0082959D01*
X0251662Y0083241D01*
X0251432Y0083529D01*
X0251209Y0083822D01*
X0250993Y0084120D01*
X0250785Y0084423D01*
X0250584Y0084732D01*
X0250391Y0085045D01*
X0250206Y0085364D01*
X0250028Y0085686D01*
X0249859Y0086013D01*
X0249697Y0086344D01*
X0249544Y0086678D01*
X0249399Y0087017D01*
X0249262Y0087359D01*
X0249134Y0087704D01*
X0249014Y0088052D01*
X0248903Y0088403D01*
X0248800Y0088756D01*
X0248707Y0089112D01*
X0248621Y0089470D01*
X0248545Y0089831D01*
X0248478Y0090193D01*
X0248419Y0090556D01*
X0248370Y0090921D01*
X0248329Y0091287D01*
X0248298Y0091654D01*
X0248275Y0092021D01*
X0248262Y0092389D01*
X0248257Y0092757D01*
X0247007Y0091718D02*
X0247007Y0088715D01*
X0247007Y0090217D02*
X0242503Y0090217D01*
X0244004Y0088715D01*
X0243254Y0087114D02*
X0242503Y0086363D01*
X0242503Y0084862D01*
X0243254Y0084111D01*
X0244004Y0084111D01*
X0244755Y0084862D01*
X0244755Y0086363D01*
X0245506Y0087114D01*
X0246256Y0087114D01*
X0247007Y0086363D01*
X0247007Y0084862D01*
X0246256Y0084111D01*
X0246256Y0082510D02*
X0247007Y0081759D01*
X0247007Y0080258D01*
X0246256Y0079507D01*
X0243254Y0079507D01*
X0242503Y0080258D01*
X0242503Y0081759D01*
X0243254Y0082510D01*
X0241752Y0085613D02*
X0247757Y0085613D01*
X0079347Y0175412D02*
X0078596Y0174661D01*
X0077095Y0174661D01*
X0076345Y0175412D01*
X0076345Y0176162D01*
X0077095Y0176913D01*
X0078596Y0176913D01*
X0079347Y0176162D01*
X0079347Y0175412D01*
X0078596Y0176913D02*
X0079347Y0177664D01*
X0079347Y0178414D01*
X0078596Y0179165D01*
X0077095Y0179165D01*
X0076345Y0178414D01*
X0076345Y0177664D01*
X0077095Y0176913D01*
X0074743Y0176162D02*
X0073993Y0176913D01*
X0072491Y0176913D01*
X0071741Y0177664D01*
X0071741Y0178414D01*
X0072491Y0179165D01*
X0073993Y0179165D01*
X0074743Y0178414D01*
X0073242Y0179916D02*
X0073242Y0173910D01*
X0073993Y0174661D02*
X0074743Y0175412D01*
X0074743Y0176162D01*
X0073993Y0174661D02*
X0072491Y0174661D01*
X0071741Y0175412D01*
X0070139Y0175412D02*
X0069389Y0174661D01*
X0067887Y0174661D01*
X0067137Y0175412D01*
X0067137Y0178414D01*
X0067887Y0179165D01*
X0069389Y0179165D01*
X0070139Y0178414D01*
D15*
X0072887Y0167411D02*
X0072887Y0164411D01*
X0072887Y0161411D01*
X0074887Y0161411D02*
X0074887Y0164411D01*
X0074887Y0167411D01*
X0202021Y0176372D02*
X0202021Y0179372D01*
X0202021Y0182372D01*
X0204021Y0182372D02*
X0204021Y0179372D01*
X0204021Y0176372D01*
X0211076Y0144183D02*
X0211076Y0141183D01*
X0211076Y0138183D01*
X0213076Y0138183D02*
X0213076Y0141183D01*
X0213076Y0144183D01*
X0242178Y0166923D02*
X0242178Y0169923D01*
X0242178Y0172923D01*
X0244178Y0172923D02*
X0244178Y0169923D01*
X0244178Y0166923D01*
D16*
X0057631Y0093855D02*
X0057631Y0089651D01*
X0053428Y0093855D01*
X0052377Y0093855D01*
X0051326Y0092804D01*
X0051326Y0090702D01*
X0052377Y0089651D01*
X0052377Y0087409D02*
X0054479Y0087409D01*
X0055529Y0086359D01*
X0055529Y0083206D01*
X0055529Y0085308D02*
X0057631Y0087409D01*
X0057631Y0083206D02*
X0051326Y0083206D01*
X0051326Y0086359D01*
X0052377Y0087409D01*
D17*
X0067981Y0079569D03*
D18*
X0067981Y0131193D03*
D19*
X0229792Y0090651D03*
D20*
X0105245Y0085277D03*
M02*
