%
M48
M72
T01C0.0240
T02C0.0320
T03C0.0394
T04C0.0433
T05C0.0500
T06C0.0984
T07C0.1102
%
T01
X30126Y9393
X31126Y9393
X32126Y9393
T02
X23626Y16893
X22626Y16893
X21626Y16893
X20626Y16893
X19626Y16893
X18626Y16893
X17626Y16893
X16626Y16893
X16626Y19893
X17626Y19893
X18626Y19893
X19626Y19893
X20626Y19893
X21626Y19893
X22626Y19893
X23626Y19893
T03
X23724Y12291
X22724Y12291
X21724Y12291
X20724Y12291
X19724Y12291
X18724Y12291
X17724Y12291
X16724Y12291
X10126Y9393
X9126Y9393
X8126Y9393
X7126Y9393
X6126Y9393
X24724Y12291
X25724Y12291
X26724Y12291
X27724Y12291
X28724Y12291
X29724Y12291
X30724Y12291
X31724Y12291
T04
X30126Y14893
X25626Y14893
X13126Y14393
X13126Y12393
T05
X10126Y12893
X6126Y12893
T06
X4362Y12291
X4362Y24496
X33889Y24496
X33889Y12291
T07
X3626Y7393
M30
