G75*
%MOMM*%
%FSLAX34Y34*%
%LPD*%
%AMOC8*
5,1,8,0,0,1.08239X$1,22.5*%
G01*
%ADD10C,0.000000*%
%ADD11R,1.000000X1.100000*%
%ADD12P,1.374635X8X22.500000*%
%ADD13P,1.374635X8X202.500000*%
%ADD14R,0.600000X2.200000*%
%ADD15R,1.200000X0.560000*%
%ADD16R,3.000000X3.000000*%
%ADD17R,3.500000X3.500000*%
%ADD18R,2.500000X2.500000*%
%ADD19R,2.850000X2.850000*%
%ADD20R,1.100000X1.000000*%
%ADD21R,1.600200X1.600200*%
%ADD22R,3.000000X2.000000*%
%ADD23C,1.524000*%
%ADD24P,1.374635X8X292.500000*%
%ADD25P,1.374635X8X112.500000*%
%ADD26P,1.814519X8X292.500000*%
%ADD27R,1.900000X1.700000*%
%ADD28P,1.814519X8X22.500000*%
%ADD29C,1.320800*%
%ADD30R,3.400000X1.500000*%
%ADD31R,1.700000X1.800000*%
%ADD32P,1.429621X8X292.500000*%
%ADD33C,1.270000*%
%ADD34C,0.812800*%
%ADD35C,0.609600*%
%ADD36C,1.006400*%
%ADD37C,2.540000*%
%ADD38C,2.000000*%

G36*
X271029Y71213D02*
X271029Y71213D01*
X271063Y71213D01*
X271250Y71247D01*
X271439Y71277D01*
X271472Y71288D01*
X271506Y71294D01*
X271802Y71396D01*
X272287Y71597D01*
X281675Y71597D01*
X281839Y71611D01*
X282004Y71618D01*
X282063Y71631D01*
X282124Y71637D01*
X282283Y71680D01*
X282443Y71716D01*
X282500Y71739D01*
X282558Y71755D01*
X282706Y71826D01*
X282859Y71889D01*
X282910Y71922D01*
X282965Y71949D01*
X283098Y72044D01*
X283237Y72134D01*
X283295Y72185D01*
X283331Y72211D01*
X283374Y72254D01*
X283471Y72340D01*
X289744Y78614D01*
X293479Y80161D01*
X328233Y80161D01*
X328397Y80175D01*
X328561Y80182D01*
X328621Y80195D01*
X328681Y80201D01*
X328840Y80244D01*
X329001Y80280D01*
X329057Y80303D01*
X329116Y80319D01*
X329264Y80390D01*
X329416Y80453D01*
X329467Y80486D01*
X329522Y80513D01*
X329656Y80608D01*
X329794Y80698D01*
X329852Y80749D01*
X329889Y80775D01*
X329931Y80818D01*
X330028Y80904D01*
X333603Y84479D01*
X334300Y84479D01*
X334335Y84482D01*
X334369Y84480D01*
X334558Y84502D01*
X334749Y84519D01*
X334782Y84528D01*
X334816Y84532D01*
X334999Y84587D01*
X335183Y84637D01*
X335214Y84652D01*
X335247Y84662D01*
X335418Y84749D01*
X335590Y84831D01*
X335618Y84851D01*
X335649Y84866D01*
X335801Y84982D01*
X335956Y85093D01*
X335980Y85118D01*
X336007Y85138D01*
X336136Y85278D01*
X336270Y85415D01*
X336289Y85444D01*
X336313Y85470D01*
X336415Y85631D01*
X336522Y85788D01*
X336536Y85820D01*
X336554Y85849D01*
X336627Y86026D01*
X336704Y86200D01*
X336712Y86234D01*
X336725Y86266D01*
X336765Y86453D01*
X336811Y86638D01*
X336813Y86672D01*
X336820Y86706D01*
X336839Y87018D01*
X336839Y122875D01*
X336837Y122901D01*
X336838Y122923D01*
X336825Y123041D01*
X336818Y123203D01*
X336805Y123263D01*
X336799Y123324D01*
X336756Y123482D01*
X336720Y123643D01*
X336697Y123699D01*
X336681Y123758D01*
X336610Y123906D01*
X336547Y124058D01*
X336514Y124110D01*
X336487Y124165D01*
X336392Y124298D01*
X336302Y124436D01*
X336251Y124494D01*
X336225Y124531D01*
X336182Y124573D01*
X336096Y124671D01*
X335283Y125483D01*
X334355Y127724D01*
X334355Y135750D01*
X335283Y137990D01*
X336998Y139705D01*
X339239Y140634D01*
X340874Y140634D01*
X340990Y140644D01*
X341107Y140644D01*
X341214Y140664D01*
X341322Y140674D01*
X341435Y140704D01*
X341550Y140725D01*
X341696Y140776D01*
X341756Y140792D01*
X341789Y140808D01*
X341845Y140827D01*
X344430Y141898D01*
X348472Y141898D01*
X349819Y141340D01*
X349989Y141287D01*
X350155Y141227D01*
X350203Y141220D01*
X350248Y141205D01*
X350424Y141183D01*
X350600Y141154D01*
X350648Y141155D01*
X350695Y141148D01*
X350872Y141158D01*
X351050Y141160D01*
X351097Y141169D01*
X351145Y141172D01*
X351317Y141212D01*
X351492Y141246D01*
X351537Y141263D01*
X351583Y141274D01*
X351746Y141344D01*
X351912Y141408D01*
X351953Y141433D01*
X351997Y141452D01*
X352145Y141549D01*
X352297Y141642D01*
X352333Y141673D01*
X352372Y141700D01*
X352501Y141822D01*
X352634Y141940D01*
X352664Y141977D01*
X352698Y142010D01*
X352803Y142154D01*
X352914Y142293D01*
X352936Y142335D01*
X352964Y142374D01*
X353042Y142533D01*
X353126Y142690D01*
X353141Y142735D01*
X353162Y142778D01*
X353211Y142950D01*
X353265Y143118D01*
X353272Y143165D01*
X353285Y143212D01*
X353303Y143388D01*
X353327Y143564D01*
X353325Y143612D01*
X353330Y143660D01*
X353316Y143836D01*
X353308Y144014D01*
X353298Y144061D01*
X353294Y144108D01*
X353249Y144280D01*
X353211Y144454D01*
X353192Y144498D01*
X353180Y144544D01*
X353106Y144705D01*
X353037Y144869D01*
X353011Y144909D01*
X352991Y144953D01*
X352889Y145098D01*
X352793Y145247D01*
X352754Y145292D01*
X352733Y145321D01*
X352688Y145366D01*
X352586Y145481D01*
X350819Y147248D01*
X350693Y147354D01*
X350572Y147465D01*
X350520Y147498D01*
X350474Y147537D01*
X350331Y147619D01*
X350192Y147707D01*
X350136Y147731D01*
X350083Y147761D01*
X349928Y147816D01*
X349776Y147878D01*
X349716Y147891D01*
X349658Y147912D01*
X349496Y147938D01*
X349335Y147973D01*
X349258Y147978D01*
X349214Y147985D01*
X349153Y147984D01*
X349023Y147992D01*
X344632Y147992D01*
X344500Y148047D01*
X344389Y148082D01*
X344281Y148126D01*
X344174Y148149D01*
X344071Y148182D01*
X343955Y148196D01*
X343840Y148221D01*
X343687Y148230D01*
X343624Y148238D01*
X343588Y148237D01*
X343528Y148240D01*
X339239Y148240D01*
X336998Y149168D01*
X335283Y150883D01*
X334355Y153124D01*
X334355Y161150D01*
X335283Y163390D01*
X336998Y165105D01*
X339239Y166034D01*
X343528Y166034D01*
X343645Y166044D01*
X343762Y166044D01*
X343868Y166064D01*
X343977Y166074D01*
X344090Y166104D01*
X344205Y166125D01*
X344351Y166176D01*
X344411Y166192D01*
X344444Y166208D01*
X344500Y166227D01*
X344632Y166282D01*
X355682Y166282D01*
X359043Y164889D01*
X361972Y161960D01*
X361973Y161960D01*
X364092Y159840D01*
X364218Y159735D01*
X364339Y159623D01*
X364391Y159591D01*
X364437Y159552D01*
X364580Y159470D01*
X364719Y159382D01*
X364776Y159358D01*
X364828Y159328D01*
X364983Y159273D01*
X365136Y159211D01*
X365195Y159198D01*
X365253Y159177D01*
X365415Y159151D01*
X365576Y159116D01*
X365653Y159111D01*
X365697Y159104D01*
X365758Y159105D01*
X365888Y159097D01*
X377213Y159097D01*
X377351Y159039D01*
X377384Y159029D01*
X377415Y159014D01*
X377599Y158962D01*
X377781Y158905D01*
X377815Y158900D01*
X377848Y158891D01*
X378038Y158872D01*
X378227Y158848D01*
X378262Y158850D01*
X378296Y158846D01*
X378486Y158861D01*
X378677Y158871D01*
X378711Y158879D01*
X378745Y158882D01*
X378930Y158930D01*
X379115Y158973D01*
X379147Y158987D01*
X379181Y158996D01*
X379354Y159075D01*
X379529Y159151D01*
X379558Y159170D01*
X379590Y159185D01*
X379746Y159294D01*
X379905Y159399D01*
X379930Y159423D01*
X379958Y159443D01*
X380092Y159578D01*
X380231Y159710D01*
X380251Y159738D01*
X380276Y159762D01*
X380384Y159919D01*
X380497Y160073D01*
X380512Y160104D01*
X380532Y160133D01*
X380669Y160414D01*
X380801Y160734D01*
X381099Y161031D01*
X381151Y161094D01*
X381211Y161151D01*
X381296Y161267D01*
X381387Y161377D01*
X381428Y161448D01*
X381477Y161515D01*
X381540Y161643D01*
X381611Y161767D01*
X381638Y161845D01*
X381675Y161919D01*
X381714Y162057D01*
X381762Y162192D01*
X381775Y162273D01*
X381798Y162352D01*
X381812Y162495D01*
X381835Y162636D01*
X381834Y162718D01*
X381842Y162800D01*
X381831Y162943D01*
X381829Y163086D01*
X381813Y163167D01*
X381807Y163249D01*
X381771Y163388D01*
X381744Y163528D01*
X381714Y163605D01*
X381693Y163685D01*
X381633Y163815D01*
X381581Y163948D01*
X381538Y164019D01*
X381504Y164094D01*
X381422Y164211D01*
X381347Y164333D01*
X381293Y164395D01*
X381245Y164462D01*
X381144Y164563D01*
X381049Y164670D01*
X380984Y164722D01*
X380926Y164780D01*
X380808Y164861D01*
X380696Y164950D01*
X380623Y164989D01*
X380556Y165036D01*
X380334Y165144D01*
X380299Y165162D01*
X380289Y165166D01*
X380275Y165173D01*
X378917Y165735D01*
X377493Y167160D01*
X377366Y167265D01*
X377245Y167377D01*
X377194Y167409D01*
X377147Y167448D01*
X377004Y167530D01*
X376866Y167618D01*
X376809Y167642D01*
X376756Y167672D01*
X376601Y167727D01*
X376449Y167789D01*
X376390Y167802D01*
X376332Y167823D01*
X376170Y167849D01*
X376009Y167884D01*
X375932Y167889D01*
X375888Y167896D01*
X375827Y167895D01*
X375697Y167903D01*
X364787Y167903D01*
X362546Y168831D01*
X360831Y170546D01*
X360302Y171825D01*
X360204Y172013D01*
X360108Y172201D01*
X360100Y172212D01*
X360094Y172224D01*
X359964Y172391D01*
X359836Y172560D01*
X359826Y172569D01*
X359818Y172580D01*
X359661Y172721D01*
X359504Y172865D01*
X359493Y172873D01*
X359484Y172881D01*
X359305Y172993D01*
X359125Y173107D01*
X359112Y173112D01*
X359101Y173119D01*
X358905Y173197D01*
X358708Y173278D01*
X358695Y173281D01*
X358683Y173286D01*
X358476Y173328D01*
X358268Y173373D01*
X358252Y173374D01*
X358242Y173376D01*
X358202Y173377D01*
X357956Y173392D01*
X344632Y173392D01*
X344500Y173447D01*
X344389Y173482D01*
X344281Y173526D01*
X344174Y173549D01*
X344071Y173582D01*
X343955Y173596D01*
X343840Y173621D01*
X343687Y173630D01*
X343624Y173638D01*
X343588Y173637D01*
X343528Y173640D01*
X339239Y173640D01*
X336998Y174568D01*
X335283Y176283D01*
X334355Y178524D01*
X334355Y186550D01*
X335283Y188790D01*
X336998Y190505D01*
X339239Y191434D01*
X343528Y191434D01*
X343645Y191444D01*
X343762Y191444D01*
X343868Y191464D01*
X343977Y191474D01*
X344090Y191504D01*
X344205Y191525D01*
X344351Y191576D01*
X344411Y191592D01*
X344444Y191608D01*
X344500Y191627D01*
X344632Y191682D01*
X369782Y191682D01*
X370728Y191290D01*
X370839Y191255D01*
X370947Y191211D01*
X371053Y191188D01*
X371157Y191155D01*
X371273Y191141D01*
X371387Y191116D01*
X371541Y191106D01*
X371604Y191099D01*
X371640Y191100D01*
X371699Y191097D01*
X377213Y191097D01*
X377732Y190882D01*
X377934Y190818D01*
X378136Y190753D01*
X378149Y190751D01*
X378162Y190747D01*
X378372Y190720D01*
X378582Y190691D01*
X378595Y190692D01*
X378608Y190690D01*
X378820Y190701D01*
X379032Y190710D01*
X379045Y190712D01*
X379058Y190713D01*
X379265Y190761D01*
X379472Y190807D01*
X379484Y190812D01*
X379497Y190815D01*
X379691Y190899D01*
X379887Y190981D01*
X379898Y190988D01*
X379910Y190993D01*
X380087Y191110D01*
X380265Y191225D01*
X380277Y191235D01*
X380286Y191241D01*
X380314Y191268D01*
X380499Y191432D01*
X386332Y197265D01*
X386416Y197365D01*
X386507Y197458D01*
X386560Y197537D01*
X386621Y197610D01*
X386686Y197723D01*
X386759Y197831D01*
X386797Y197918D01*
X386845Y198001D01*
X386888Y198124D01*
X386941Y198243D01*
X386963Y198336D01*
X386995Y198426D01*
X387017Y198554D01*
X387047Y198680D01*
X387053Y198775D01*
X387069Y198870D01*
X387067Y199000D01*
X387075Y199130D01*
X387064Y199224D01*
X387063Y199320D01*
X387038Y199448D01*
X387023Y199577D01*
X386995Y199668D01*
X386977Y199762D01*
X386930Y199883D01*
X386893Y200008D01*
X386849Y200093D01*
X386815Y200182D01*
X386747Y200293D01*
X386688Y200409D01*
X386631Y200485D01*
X386581Y200567D01*
X386495Y200664D01*
X386416Y200768D01*
X386346Y200833D01*
X386283Y200904D01*
X386181Y200985D01*
X386085Y201073D01*
X386005Y201124D01*
X385930Y201184D01*
X385815Y201245D01*
X385706Y201315D01*
X385617Y201351D01*
X385533Y201396D01*
X385409Y201436D01*
X385289Y201486D01*
X385195Y201506D01*
X385105Y201535D01*
X384976Y201553D01*
X384849Y201581D01*
X384719Y201589D01*
X384659Y201597D01*
X384614Y201595D01*
X384537Y201600D01*
X381199Y201600D01*
X381019Y201675D01*
X380862Y201724D01*
X380707Y201781D01*
X380647Y201791D01*
X380589Y201809D01*
X380426Y201830D01*
X380264Y201859D01*
X380203Y201859D01*
X380142Y201866D01*
X379978Y201858D01*
X379813Y201857D01*
X379754Y201846D01*
X379693Y201843D01*
X379533Y201806D01*
X379371Y201776D01*
X379298Y201751D01*
X379254Y201741D01*
X379198Y201717D01*
X379075Y201675D01*
X377213Y200903D01*
X364787Y200903D01*
X363561Y201411D01*
X363446Y201447D01*
X363423Y201457D01*
X363400Y201462D01*
X363357Y201475D01*
X363157Y201540D01*
X363144Y201542D01*
X363131Y201546D01*
X362920Y201573D01*
X362711Y201602D01*
X362698Y201601D01*
X362684Y201603D01*
X362474Y201592D01*
X362261Y201583D01*
X362248Y201580D01*
X362235Y201580D01*
X362029Y201532D01*
X361821Y201486D01*
X361809Y201481D01*
X361796Y201478D01*
X361603Y201394D01*
X361406Y201312D01*
X361395Y201305D01*
X361383Y201300D01*
X361207Y201184D01*
X361028Y201068D01*
X361016Y201057D01*
X361007Y201052D01*
X360979Y201024D01*
X360913Y200966D01*
X360900Y200957D01*
X360884Y200941D01*
X360793Y200861D01*
X360117Y200184D01*
X356756Y198792D01*
X344632Y198792D01*
X344500Y198847D01*
X344389Y198882D01*
X344281Y198926D01*
X344174Y198949D01*
X344071Y198982D01*
X343955Y198996D01*
X343840Y199021D01*
X343687Y199030D01*
X343624Y199038D01*
X343588Y199037D01*
X343528Y199040D01*
X339239Y199040D01*
X336998Y199968D01*
X335283Y201683D01*
X334355Y203924D01*
X334355Y211950D01*
X335283Y214190D01*
X336998Y215905D01*
X339239Y216834D01*
X343528Y216834D01*
X343645Y216844D01*
X343762Y216844D01*
X343868Y216864D01*
X343977Y216874D01*
X344090Y216904D01*
X344205Y216925D01*
X344351Y216976D01*
X344411Y216992D01*
X344444Y217008D01*
X344500Y217027D01*
X344632Y217082D01*
X350097Y217082D01*
X350261Y217096D01*
X350425Y217103D01*
X350485Y217116D01*
X350546Y217122D01*
X350705Y217165D01*
X350865Y217201D01*
X350921Y217224D01*
X350980Y217240D01*
X351128Y217311D01*
X351280Y217374D01*
X351332Y217407D01*
X351387Y217433D01*
X351520Y217529D01*
X351659Y217618D01*
X351716Y217670D01*
X351753Y217696D01*
X351795Y217739D01*
X351893Y217825D01*
X355820Y221753D01*
X359181Y223145D01*
X361984Y223145D01*
X362100Y223155D01*
X362217Y223155D01*
X362324Y223175D01*
X362432Y223185D01*
X362545Y223215D01*
X362660Y223236D01*
X362806Y223287D01*
X362867Y223303D01*
X362899Y223319D01*
X362956Y223338D01*
X364787Y224097D01*
X377343Y224097D01*
X377555Y224116D01*
X377766Y224132D01*
X377779Y224135D01*
X377792Y224137D01*
X377997Y224193D01*
X378202Y224246D01*
X378214Y224252D01*
X378226Y224255D01*
X378417Y224346D01*
X378610Y224435D01*
X378621Y224443D01*
X378633Y224449D01*
X378805Y224572D01*
X378979Y224694D01*
X378988Y224703D01*
X378999Y224711D01*
X379147Y224863D01*
X379296Y225013D01*
X379304Y225024D01*
X379313Y225033D01*
X379432Y225209D01*
X379552Y225383D01*
X379559Y225398D01*
X379565Y225406D01*
X379581Y225443D01*
X379649Y225582D01*
X387820Y233753D01*
X391181Y235145D01*
X408630Y235145D01*
X408759Y235156D01*
X408889Y235158D01*
X408983Y235176D01*
X409078Y235185D01*
X409204Y235219D01*
X409331Y235244D01*
X409420Y235278D01*
X409512Y235303D01*
X409630Y235359D01*
X409751Y235406D01*
X409833Y235456D01*
X409919Y235497D01*
X410025Y235572D01*
X410136Y235640D01*
X410208Y235703D01*
X410285Y235759D01*
X410376Y235852D01*
X410473Y235938D01*
X410532Y236013D01*
X410599Y236081D01*
X410672Y236189D01*
X410753Y236291D01*
X410798Y236375D01*
X410851Y236454D01*
X410904Y236573D01*
X410965Y236688D01*
X410995Y236779D01*
X411034Y236866D01*
X411064Y236993D01*
X411105Y237116D01*
X411118Y237211D01*
X411140Y237304D01*
X411148Y237433D01*
X411166Y237562D01*
X411162Y237658D01*
X411168Y237753D01*
X411153Y237882D01*
X411148Y238012D01*
X411127Y238105D01*
X411116Y238200D01*
X411078Y238325D01*
X411050Y238452D01*
X411013Y238540D01*
X410986Y238631D01*
X410926Y238747D01*
X410876Y238867D01*
X410825Y238947D01*
X410781Y239033D01*
X410703Y239136D01*
X410632Y239245D01*
X410546Y239343D01*
X410509Y239391D01*
X410476Y239422D01*
X410425Y239480D01*
X410331Y239573D01*
X409403Y241814D01*
X409403Y245534D01*
X409392Y245664D01*
X409390Y245794D01*
X409372Y245888D01*
X409363Y245983D01*
X409329Y246109D01*
X409304Y246236D01*
X409270Y246325D01*
X409245Y246417D01*
X409189Y246535D01*
X409142Y246656D01*
X409092Y246738D01*
X409051Y246824D01*
X408976Y246930D01*
X408908Y247041D01*
X408845Y247112D01*
X408789Y247190D01*
X408696Y247281D01*
X408610Y247378D01*
X408535Y247437D01*
X408467Y247504D01*
X408359Y247577D01*
X408257Y247658D01*
X408173Y247703D01*
X408093Y247756D01*
X407974Y247809D01*
X407860Y247870D01*
X407769Y247900D01*
X407682Y247938D01*
X407555Y247969D01*
X407432Y248009D01*
X407337Y248022D01*
X407244Y248045D01*
X407115Y248053D01*
X406986Y248071D01*
X406890Y248067D01*
X406795Y248073D01*
X406666Y248058D01*
X406536Y248052D01*
X406442Y248032D01*
X406348Y248021D01*
X406223Y247983D01*
X406096Y247955D01*
X406008Y247918D01*
X405917Y247890D01*
X405801Y247831D01*
X405681Y247781D01*
X405601Y247729D01*
X405515Y247686D01*
X405412Y247607D01*
X405303Y247537D01*
X405205Y247451D01*
X405157Y247414D01*
X405126Y247381D01*
X405068Y247330D01*
X402304Y244566D01*
X398214Y242871D01*
X393786Y242871D01*
X391916Y243646D01*
X391804Y243681D01*
X391696Y243725D01*
X391590Y243748D01*
X391486Y243781D01*
X391370Y243795D01*
X391256Y243820D01*
X391102Y243830D01*
X391040Y243837D01*
X391003Y243836D01*
X390944Y243839D01*
X366281Y243839D01*
X362546Y245386D01*
X330082Y277850D01*
X329956Y277956D01*
X329835Y278067D01*
X329784Y278100D01*
X329737Y278139D01*
X329594Y278221D01*
X329455Y278309D01*
X329399Y278332D01*
X329346Y278362D01*
X329191Y278417D01*
X329039Y278480D01*
X328979Y278493D01*
X328921Y278513D01*
X328759Y278540D01*
X328598Y278575D01*
X328522Y278579D01*
X328477Y278587D01*
X328416Y278586D01*
X328287Y278594D01*
X326105Y278594D01*
X318814Y285885D01*
X318814Y296196D01*
X323473Y300854D01*
X323495Y300881D01*
X323521Y300904D01*
X323639Y301053D01*
X323762Y301200D01*
X323779Y301230D01*
X323800Y301257D01*
X323890Y301425D01*
X323985Y301591D01*
X323997Y301623D01*
X324013Y301654D01*
X324072Y301835D01*
X324136Y302015D01*
X324141Y302049D01*
X324152Y302082D01*
X324178Y302271D01*
X324209Y302459D01*
X324209Y302494D01*
X324214Y302528D01*
X324206Y302719D01*
X324203Y302910D01*
X324197Y302944D01*
X324195Y302978D01*
X324154Y303164D01*
X324118Y303352D01*
X324105Y303384D01*
X324098Y303418D01*
X324024Y303594D01*
X323955Y303772D01*
X323937Y303801D01*
X323924Y303833D01*
X323820Y303993D01*
X323721Y304156D01*
X323698Y304182D01*
X323680Y304211D01*
X323473Y304446D01*
X318688Y309230D01*
X318688Y319541D01*
X325979Y326833D01*
X336290Y326833D01*
X343581Y319541D01*
X343581Y309230D01*
X338923Y304572D01*
X338901Y304545D01*
X338875Y304522D01*
X338757Y304373D01*
X338634Y304227D01*
X338617Y304196D01*
X338596Y304169D01*
X338506Y304001D01*
X338411Y303836D01*
X338399Y303803D01*
X338383Y303772D01*
X338324Y303591D01*
X338260Y303411D01*
X338254Y303377D01*
X338244Y303344D01*
X338218Y303156D01*
X338187Y302967D01*
X338187Y302932D01*
X338182Y302898D01*
X338190Y302708D01*
X338193Y302517D01*
X338199Y302483D01*
X338201Y302448D01*
X338242Y302262D01*
X338278Y302075D01*
X338291Y302042D01*
X338298Y302009D01*
X338372Y301833D01*
X338440Y301655D01*
X338459Y301625D01*
X338472Y301593D01*
X338575Y301433D01*
X338674Y301270D01*
X338697Y301244D01*
X338716Y301215D01*
X338923Y300981D01*
X343708Y296196D01*
X343708Y294015D01*
X343722Y293851D01*
X343729Y293687D01*
X343742Y293627D01*
X343748Y293567D01*
X343791Y293408D01*
X343827Y293247D01*
X343850Y293191D01*
X343866Y293132D01*
X343937Y292984D01*
X344000Y292832D01*
X344034Y292780D01*
X344060Y292726D01*
X344155Y292592D01*
X344245Y292454D01*
X344296Y292396D01*
X344322Y292359D01*
X344365Y292317D01*
X344452Y292220D01*
X371767Y264904D01*
X371893Y264799D01*
X372014Y264687D01*
X372065Y264655D01*
X372112Y264616D01*
X372255Y264534D01*
X372393Y264446D01*
X372450Y264422D01*
X372503Y264392D01*
X372658Y264337D01*
X372810Y264275D01*
X372870Y264262D01*
X372927Y264241D01*
X373090Y264215D01*
X373250Y264180D01*
X373327Y264175D01*
X373371Y264168D01*
X373433Y264169D01*
X373562Y264161D01*
X390944Y264161D01*
X391061Y264171D01*
X391178Y264171D01*
X391284Y264191D01*
X391393Y264201D01*
X391506Y264231D01*
X391621Y264252D01*
X391767Y264303D01*
X391827Y264319D01*
X391860Y264335D01*
X391916Y264354D01*
X393786Y265129D01*
X398214Y265129D01*
X402304Y263434D01*
X405068Y260670D01*
X405168Y260587D01*
X405261Y260496D01*
X405341Y260442D01*
X405414Y260381D01*
X405526Y260317D01*
X405634Y260244D01*
X405722Y260205D01*
X405805Y260158D01*
X405927Y260114D01*
X406046Y260062D01*
X406139Y260039D01*
X406229Y260007D01*
X406357Y259986D01*
X406484Y259955D01*
X406579Y259949D01*
X406673Y259933D01*
X406803Y259935D01*
X406933Y259927D01*
X407028Y259938D01*
X407123Y259940D01*
X407251Y259964D01*
X407380Y259979D01*
X407472Y260007D01*
X407565Y260025D01*
X407687Y260072D01*
X407811Y260110D01*
X407896Y260153D01*
X407985Y260187D01*
X408097Y260255D01*
X408212Y260314D01*
X408289Y260372D01*
X408370Y260421D01*
X408468Y260507D01*
X408571Y260586D01*
X408636Y260656D01*
X408708Y260720D01*
X408788Y260821D01*
X408876Y260917D01*
X408928Y260998D01*
X408987Y261073D01*
X409048Y261187D01*
X409118Y261297D01*
X409155Y261385D01*
X409200Y261470D01*
X409240Y261593D01*
X409289Y261713D01*
X409309Y261807D01*
X409339Y261898D01*
X409357Y262026D01*
X409384Y262154D01*
X409392Y262283D01*
X409400Y262344D01*
X409398Y262389D01*
X409403Y262466D01*
X409403Y279239D01*
X410331Y281480D01*
X412046Y283195D01*
X414287Y284124D01*
X451713Y284124D01*
X453953Y283195D01*
X455668Y281480D01*
X456597Y279239D01*
X456597Y241814D01*
X455668Y239573D01*
X455575Y239480D01*
X455491Y239380D01*
X455401Y239287D01*
X455347Y239207D01*
X455286Y239134D01*
X455221Y239021D01*
X455148Y238914D01*
X455110Y238826D01*
X455062Y238743D01*
X455019Y238621D01*
X454966Y238502D01*
X454944Y238409D01*
X454912Y238319D01*
X454890Y238191D01*
X454860Y238064D01*
X454854Y237969D01*
X454838Y237875D01*
X454840Y237745D01*
X454832Y237615D01*
X454843Y237520D01*
X454844Y237425D01*
X454869Y237297D01*
X454884Y237168D01*
X454912Y237076D01*
X454930Y236982D01*
X454977Y236861D01*
X455014Y236737D01*
X455058Y236651D01*
X455092Y236562D01*
X455160Y236451D01*
X455219Y236335D01*
X455276Y236259D01*
X455326Y236178D01*
X455412Y236080D01*
X455491Y235977D01*
X455561Y235912D01*
X455624Y235840D01*
X455726Y235760D01*
X455822Y235671D01*
X455902Y235620D01*
X455977Y235561D01*
X456092Y235499D01*
X456202Y235430D01*
X456290Y235393D01*
X456374Y235348D01*
X456498Y235308D01*
X456618Y235259D01*
X456711Y235239D01*
X456802Y235209D01*
X456931Y235191D01*
X457058Y235164D01*
X457188Y235156D01*
X457248Y235148D01*
X457293Y235149D01*
X457370Y235145D01*
X517160Y235145D01*
X517324Y235159D01*
X517488Y235166D01*
X517548Y235179D01*
X517609Y235185D01*
X517768Y235228D01*
X517928Y235264D01*
X517984Y235287D01*
X518043Y235303D01*
X518191Y235374D01*
X518343Y235437D01*
X518395Y235470D01*
X518450Y235497D01*
X518583Y235592D01*
X518722Y235682D01*
X518779Y235733D01*
X518816Y235759D01*
X518858Y235802D01*
X518956Y235888D01*
X519879Y236811D01*
X520014Y236973D01*
X520152Y237135D01*
X520159Y237147D01*
X520168Y237157D01*
X520272Y237339D01*
X520380Y237524D01*
X520384Y237536D01*
X520391Y237548D01*
X520462Y237746D01*
X520535Y237946D01*
X520537Y237959D01*
X520542Y237972D01*
X520576Y238182D01*
X520613Y238390D01*
X520613Y238403D01*
X520615Y238416D01*
X520612Y238630D01*
X520612Y238840D01*
X520609Y238853D01*
X520609Y238866D01*
X520569Y239075D01*
X520531Y239283D01*
X520526Y239298D01*
X520524Y239308D01*
X520509Y239345D01*
X520429Y239579D01*
X519503Y241814D01*
X519503Y279239D01*
X520431Y281480D01*
X522146Y283195D01*
X524387Y284124D01*
X549982Y284124D01*
X550111Y284135D01*
X550242Y284137D01*
X550335Y284155D01*
X550430Y284163D01*
X550556Y284198D01*
X550684Y284222D01*
X550773Y284257D01*
X550865Y284282D01*
X550982Y284338D01*
X551104Y284385D01*
X551185Y284434D01*
X551271Y284475D01*
X551377Y284551D01*
X551488Y284619D01*
X551560Y284682D01*
X551638Y284737D01*
X551728Y284831D01*
X551826Y284917D01*
X551885Y284991D01*
X551952Y285060D01*
X552025Y285168D01*
X552105Y285270D01*
X552150Y285354D01*
X552204Y285433D01*
X552256Y285552D01*
X552318Y285667D01*
X552347Y285758D01*
X552386Y285845D01*
X552417Y285971D01*
X552457Y286095D01*
X552470Y286190D01*
X552493Y286282D01*
X552501Y286412D01*
X552518Y286541D01*
X552514Y286637D01*
X552520Y286732D01*
X552505Y286861D01*
X552500Y286991D01*
X552479Y287084D01*
X552468Y287179D01*
X552431Y287304D01*
X552402Y287430D01*
X552366Y287518D01*
X552338Y287610D01*
X552279Y287726D01*
X552229Y287846D01*
X552177Y287926D01*
X552134Y288011D01*
X552055Y288115D01*
X551984Y288224D01*
X551898Y288322D01*
X551862Y288370D01*
X551829Y288400D01*
X551778Y288458D01*
X543076Y297160D01*
X542950Y297265D01*
X542829Y297377D01*
X542778Y297409D01*
X542731Y297448D01*
X542588Y297530D01*
X542449Y297618D01*
X542393Y297642D01*
X542340Y297672D01*
X542185Y297727D01*
X542033Y297789D01*
X541973Y297802D01*
X541916Y297823D01*
X541753Y297849D01*
X541593Y297884D01*
X541516Y297889D01*
X541471Y297896D01*
X541410Y297895D01*
X541281Y297903D01*
X385798Y297903D01*
X379882Y300354D01*
X344076Y336160D01*
X343950Y336265D01*
X343829Y336377D01*
X343778Y336409D01*
X343731Y336448D01*
X343588Y336530D01*
X343449Y336618D01*
X343393Y336642D01*
X343340Y336672D01*
X343185Y336727D01*
X343033Y336789D01*
X342973Y336802D01*
X342916Y336823D01*
X342753Y336849D01*
X342593Y336884D01*
X342516Y336889D01*
X342471Y336896D01*
X342410Y336895D01*
X342288Y336903D01*
X340046Y337831D01*
X338331Y339546D01*
X337403Y341787D01*
X337403Y345086D01*
X337393Y345202D01*
X337393Y345319D01*
X337373Y345426D01*
X337363Y345534D01*
X337333Y345647D01*
X337312Y345762D01*
X337261Y345908D01*
X337245Y345969D01*
X337229Y346001D01*
X337210Y346058D01*
X336903Y346798D01*
X336903Y354702D01*
X337210Y355442D01*
X337245Y355554D01*
X337289Y355662D01*
X337312Y355768D01*
X337345Y355872D01*
X337359Y355988D01*
X337384Y356102D01*
X337394Y356256D01*
X337401Y356319D01*
X337400Y356355D01*
X337403Y356414D01*
X337403Y361213D01*
X338331Y363454D01*
X340046Y365169D01*
X342287Y366097D01*
X345672Y366097D01*
X345788Y366107D01*
X345905Y366107D01*
X346012Y366127D01*
X346120Y366137D01*
X346233Y366167D01*
X346348Y366188D01*
X346494Y366239D01*
X346555Y366255D01*
X346587Y366271D01*
X346643Y366290D01*
X349798Y367597D01*
X356202Y367597D01*
X359357Y366290D01*
X359468Y366255D01*
X359576Y366211D01*
X359682Y366188D01*
X359786Y366155D01*
X359902Y366141D01*
X360016Y366116D01*
X360170Y366106D01*
X360233Y366099D01*
X360269Y366100D01*
X360328Y366097D01*
X363713Y366097D01*
X365954Y365169D01*
X367669Y363454D01*
X368597Y361213D01*
X368597Y358219D01*
X368611Y358056D01*
X368618Y357891D01*
X368631Y357832D01*
X368637Y357771D01*
X368680Y357612D01*
X368716Y357452D01*
X368739Y357395D01*
X368755Y357336D01*
X368826Y357188D01*
X368889Y357036D01*
X368922Y356985D01*
X368949Y356930D01*
X369044Y356796D01*
X369134Y356658D01*
X369185Y356600D01*
X369211Y356564D01*
X369254Y356521D01*
X369340Y356424D01*
X394924Y330840D01*
X395050Y330735D01*
X395171Y330623D01*
X395222Y330591D01*
X395269Y330552D01*
X395412Y330470D01*
X395551Y330382D01*
X395607Y330358D01*
X395660Y330328D01*
X395815Y330273D01*
X395967Y330211D01*
X396027Y330198D01*
X396084Y330177D01*
X396247Y330151D01*
X396407Y330116D01*
X396484Y330111D01*
X396529Y330104D01*
X396590Y330105D01*
X396719Y330097D01*
X410190Y330097D01*
X410320Y330108D01*
X410450Y330110D01*
X410544Y330128D01*
X410639Y330137D01*
X410764Y330171D01*
X410892Y330196D01*
X410981Y330230D01*
X411073Y330255D01*
X411190Y330311D01*
X411312Y330358D01*
X411394Y330408D01*
X411480Y330449D01*
X411585Y330524D01*
X411697Y330592D01*
X411768Y330655D01*
X411846Y330711D01*
X411937Y330804D01*
X412034Y330890D01*
X412093Y330965D01*
X412160Y331033D01*
X412233Y331141D01*
X412314Y331243D01*
X412359Y331327D01*
X412412Y331406D01*
X412465Y331525D01*
X412526Y331640D01*
X412556Y331731D01*
X412594Y331818D01*
X412625Y331945D01*
X412665Y332068D01*
X412678Y332163D01*
X412701Y332256D01*
X412709Y332385D01*
X412727Y332514D01*
X412723Y332610D01*
X412729Y332705D01*
X412714Y332834D01*
X412708Y332964D01*
X412688Y333057D01*
X412677Y333152D01*
X412639Y333277D01*
X412611Y333404D01*
X412574Y333492D01*
X412546Y333583D01*
X412487Y333699D01*
X412437Y333819D01*
X412385Y333900D01*
X412342Y333985D01*
X412264Y334088D01*
X412193Y334197D01*
X412107Y334295D01*
X412070Y334343D01*
X412037Y334374D01*
X411986Y334432D01*
X390565Y355853D01*
X387703Y362761D01*
X387703Y376168D01*
X387684Y376380D01*
X387668Y376591D01*
X387664Y376603D01*
X387663Y376617D01*
X387607Y376821D01*
X387554Y377026D01*
X387548Y377038D01*
X387545Y377051D01*
X387455Y377239D01*
X387365Y377435D01*
X387357Y377446D01*
X387351Y377458D01*
X387228Y377630D01*
X387106Y377804D01*
X387097Y377813D01*
X387089Y377824D01*
X386937Y377972D01*
X386787Y378121D01*
X386776Y378129D01*
X386767Y378138D01*
X386591Y378257D01*
X386416Y378377D01*
X386402Y378384D01*
X386393Y378390D01*
X386358Y378406D01*
X386136Y378514D01*
X385546Y378758D01*
X383831Y380473D01*
X382903Y382714D01*
X382903Y414190D01*
X382892Y414320D01*
X382890Y414450D01*
X382872Y414543D01*
X382863Y414639D01*
X382829Y414764D01*
X382804Y414892D01*
X382770Y414981D01*
X382745Y415073D01*
X382689Y415190D01*
X382642Y415312D01*
X382592Y415394D01*
X382551Y415480D01*
X382476Y415585D01*
X382408Y415697D01*
X382345Y415768D01*
X382289Y415846D01*
X382196Y415937D01*
X382110Y416034D01*
X382035Y416093D01*
X381967Y416160D01*
X381859Y416233D01*
X381757Y416313D01*
X381673Y416358D01*
X381593Y416412D01*
X381474Y416465D01*
X381360Y416526D01*
X381269Y416556D01*
X381182Y416594D01*
X381055Y416625D01*
X380932Y416665D01*
X380837Y416678D01*
X380744Y416701D01*
X380615Y416709D01*
X380486Y416727D01*
X380390Y416723D01*
X380295Y416729D01*
X380166Y416714D01*
X380036Y416708D01*
X379943Y416688D01*
X379848Y416677D01*
X379723Y416639D01*
X379596Y416611D01*
X379508Y416574D01*
X379417Y416546D01*
X379301Y416487D01*
X379181Y416437D01*
X379101Y416385D01*
X379015Y416342D01*
X378912Y416263D01*
X378803Y416193D01*
X378705Y416107D01*
X378657Y416070D01*
X378626Y416037D01*
X378568Y415986D01*
X372540Y409958D01*
X372435Y409832D01*
X372323Y409711D01*
X372291Y409659D01*
X372252Y409613D01*
X372170Y409470D01*
X372082Y409331D01*
X372058Y409274D01*
X372028Y409222D01*
X371973Y409067D01*
X371911Y408914D01*
X371898Y408855D01*
X371877Y408797D01*
X371851Y408635D01*
X371816Y408474D01*
X371811Y408397D01*
X371804Y408353D01*
X371805Y408292D01*
X371797Y408162D01*
X371797Y398761D01*
X368935Y391853D01*
X368054Y390971D01*
X367978Y390881D01*
X367896Y390798D01*
X367842Y390720D01*
X365798Y388676D01*
X365763Y388653D01*
X365648Y388552D01*
X365598Y388513D01*
X365574Y388486D01*
X365529Y388446D01*
X363648Y386565D01*
X356739Y383703D01*
X349261Y383703D01*
X342352Y386565D01*
X340471Y388446D01*
X340381Y388522D01*
X340298Y388604D01*
X340220Y388658D01*
X338176Y390702D01*
X338153Y390737D01*
X338052Y390852D01*
X338013Y390902D01*
X337986Y390926D01*
X337946Y390971D01*
X337065Y391853D01*
X334203Y398761D01*
X334203Y420739D01*
X337065Y427647D01*
X350696Y441279D01*
X350780Y441378D01*
X350870Y441471D01*
X350924Y441551D01*
X350985Y441624D01*
X351049Y441737D01*
X351122Y441844D01*
X351161Y441932D01*
X351209Y442015D01*
X351252Y442137D01*
X351304Y442256D01*
X351327Y442349D01*
X351359Y442439D01*
X351381Y442567D01*
X351411Y442693D01*
X351417Y442789D01*
X351433Y442884D01*
X351431Y443013D01*
X351439Y443143D01*
X351428Y443238D01*
X351427Y443334D01*
X351402Y443461D01*
X351387Y443590D01*
X351359Y443682D01*
X351341Y443776D01*
X351295Y443897D01*
X351257Y444021D01*
X351214Y444107D01*
X351179Y444196D01*
X351112Y444307D01*
X351053Y444422D01*
X350995Y444499D01*
X350945Y444581D01*
X350859Y444678D01*
X350781Y444781D01*
X350710Y444846D01*
X350647Y444918D01*
X350545Y444998D01*
X350450Y445086D01*
X350369Y445138D01*
X350294Y445198D01*
X350180Y445259D01*
X350070Y445328D01*
X349982Y445365D01*
X349897Y445410D01*
X349774Y445450D01*
X349654Y445499D01*
X349560Y445520D01*
X349469Y445549D01*
X349340Y445567D01*
X349214Y445594D01*
X349083Y445602D01*
X349023Y445611D01*
X348978Y445609D01*
X348902Y445614D01*
X167627Y445680D01*
X167497Y445669D01*
X167367Y445667D01*
X167273Y445649D01*
X167179Y445640D01*
X167052Y445606D01*
X166924Y445581D01*
X166836Y445547D01*
X166744Y445522D01*
X166626Y445466D01*
X166504Y445419D01*
X166423Y445370D01*
X166337Y445329D01*
X166231Y445253D01*
X166120Y445185D01*
X166049Y445122D01*
X165971Y445067D01*
X165880Y444973D01*
X165782Y444887D01*
X165723Y444812D01*
X165657Y444744D01*
X165584Y444636D01*
X165503Y444534D01*
X165458Y444450D01*
X165405Y444371D01*
X165352Y444252D01*
X165290Y444137D01*
X165261Y444046D01*
X165222Y443960D01*
X165192Y443833D01*
X165151Y443709D01*
X165138Y443614D01*
X165116Y443522D01*
X165108Y443392D01*
X165090Y443263D01*
X165094Y443168D01*
X165088Y443073D01*
X165103Y442943D01*
X165108Y442813D01*
X165129Y442720D01*
X165140Y442625D01*
X165177Y442500D01*
X165206Y442373D01*
X165242Y442285D01*
X165270Y442194D01*
X165329Y442078D01*
X165379Y441958D01*
X165431Y441878D01*
X165474Y441793D01*
X165553Y441689D01*
X165624Y441579D01*
X165709Y441483D01*
X165746Y441434D01*
X165779Y441404D01*
X165831Y441345D01*
X166386Y440790D01*
X166512Y440685D01*
X166633Y440573D01*
X166684Y440541D01*
X166731Y440502D01*
X166874Y440420D01*
X167012Y440332D01*
X167069Y440308D01*
X167122Y440278D01*
X167277Y440223D01*
X167429Y440161D01*
X167489Y440148D01*
X167546Y440127D01*
X167708Y440101D01*
X167869Y440066D01*
X167946Y440061D01*
X167990Y440054D01*
X168051Y440055D01*
X168181Y440047D01*
X203866Y440047D01*
X208440Y438152D01*
X224552Y422040D01*
X224678Y421935D01*
X224799Y421823D01*
X224850Y421791D01*
X224897Y421752D01*
X225040Y421670D01*
X225179Y421582D01*
X225235Y421558D01*
X225288Y421528D01*
X225443Y421473D01*
X225595Y421411D01*
X225655Y421398D01*
X225712Y421377D01*
X225875Y421351D01*
X226035Y421316D01*
X226112Y421311D01*
X226157Y421304D01*
X226218Y421305D01*
X226347Y421297D01*
X266739Y421297D01*
X273648Y418435D01*
X275529Y416554D01*
X275619Y416479D01*
X275702Y416396D01*
X275780Y416342D01*
X277824Y414298D01*
X277847Y414263D01*
X277949Y414147D01*
X277987Y414098D01*
X278014Y414074D01*
X278054Y414029D01*
X278935Y413147D01*
X281797Y406239D01*
X281797Y398761D01*
X278935Y391853D01*
X278054Y390971D01*
X277979Y390881D01*
X277896Y390798D01*
X277842Y390720D01*
X275798Y388676D01*
X275763Y388653D01*
X275648Y388551D01*
X275598Y388513D01*
X275574Y388486D01*
X275529Y388446D01*
X273648Y386565D01*
X266739Y383703D01*
X237221Y383703D01*
X237104Y383693D01*
X236988Y383693D01*
X236881Y383673D01*
X236772Y383663D01*
X236660Y383633D01*
X236545Y383612D01*
X236399Y383561D01*
X236338Y383545D01*
X236306Y383529D01*
X236249Y383510D01*
X232129Y381803D01*
X224651Y381803D01*
X217742Y384665D01*
X214101Y388306D01*
X214012Y388381D01*
X213929Y388464D01*
X213839Y388525D01*
X213756Y388595D01*
X213654Y388653D01*
X213558Y388719D01*
X213420Y388787D01*
X213365Y388818D01*
X213331Y388831D01*
X213277Y388857D01*
X213000Y388971D01*
X209141Y392830D01*
X207053Y397872D01*
X207053Y403283D01*
X207039Y403446D01*
X207032Y403611D01*
X207019Y403670D01*
X207013Y403731D01*
X206970Y403890D01*
X206934Y404050D01*
X206911Y404107D01*
X206895Y404165D01*
X206824Y404314D01*
X206761Y404466D01*
X206728Y404517D01*
X206701Y404572D01*
X206606Y404706D01*
X206516Y404844D01*
X206465Y404902D01*
X206439Y404938D01*
X206396Y404981D01*
X206310Y405078D01*
X196978Y414410D01*
X196852Y414515D01*
X196731Y414627D01*
X196680Y414659D01*
X196633Y414698D01*
X196490Y414780D01*
X196351Y414868D01*
X196295Y414892D01*
X196242Y414922D01*
X196087Y414977D01*
X195935Y415039D01*
X195875Y415052D01*
X195818Y415073D01*
X195655Y415099D01*
X195494Y415134D01*
X195418Y415139D01*
X195373Y415146D01*
X195312Y415145D01*
X195183Y415153D01*
X168181Y415153D01*
X168017Y415139D01*
X167853Y415132D01*
X167793Y415119D01*
X167733Y415113D01*
X167574Y415070D01*
X167413Y415034D01*
X167357Y415011D01*
X167298Y414995D01*
X167150Y414924D01*
X166998Y414861D01*
X166946Y414828D01*
X166892Y414801D01*
X166758Y414706D01*
X166620Y414616D01*
X166562Y414565D01*
X166525Y414539D01*
X166483Y414496D01*
X166386Y414410D01*
X165097Y413121D01*
X153103Y413121D01*
X151814Y414410D01*
X151688Y414515D01*
X151567Y414627D01*
X151516Y414659D01*
X151469Y414698D01*
X151326Y414780D01*
X151188Y414868D01*
X151131Y414892D01*
X151078Y414922D01*
X150923Y414977D01*
X150771Y415039D01*
X150711Y415052D01*
X150654Y415073D01*
X150492Y415099D01*
X150331Y415134D01*
X150254Y415139D01*
X150210Y415146D01*
X150149Y415145D01*
X150019Y415153D01*
X135857Y415153D01*
X135694Y415139D01*
X135529Y415132D01*
X135470Y415119D01*
X135409Y415113D01*
X135250Y415070D01*
X135090Y415034D01*
X135033Y415011D01*
X134975Y414995D01*
X134826Y414924D01*
X134674Y414861D01*
X134623Y414828D01*
X134568Y414801D01*
X134434Y414706D01*
X134296Y414616D01*
X134238Y414565D01*
X134202Y414539D01*
X134159Y414496D01*
X134062Y414410D01*
X124790Y405138D01*
X124685Y405012D01*
X124573Y404891D01*
X124541Y404840D01*
X124502Y404793D01*
X124420Y404650D01*
X124332Y404511D01*
X124308Y404455D01*
X124278Y404402D01*
X124223Y404247D01*
X124161Y404095D01*
X124148Y404035D01*
X124127Y403978D01*
X124101Y403815D01*
X124066Y403654D01*
X124061Y403578D01*
X124054Y403533D01*
X124055Y403472D01*
X124047Y403343D01*
X124047Y327081D01*
X124061Y326917D01*
X124068Y326753D01*
X124081Y326693D01*
X124087Y326633D01*
X124130Y326474D01*
X124166Y326313D01*
X124189Y326257D01*
X124205Y326198D01*
X124276Y326050D01*
X124339Y325898D01*
X124372Y325847D01*
X124399Y325792D01*
X124494Y325658D01*
X124584Y325520D01*
X124635Y325462D01*
X124661Y325425D01*
X124704Y325383D01*
X124790Y325286D01*
X126079Y323997D01*
X126079Y312003D01*
X117597Y303521D01*
X105603Y303521D01*
X102882Y306242D01*
X102782Y306326D01*
X102689Y306417D01*
X102609Y306470D01*
X102536Y306531D01*
X102423Y306596D01*
X102316Y306669D01*
X102228Y306707D01*
X102145Y306755D01*
X102023Y306798D01*
X101904Y306851D01*
X101811Y306874D01*
X101721Y306906D01*
X101593Y306927D01*
X101466Y306958D01*
X101371Y306963D01*
X101277Y306979D01*
X101147Y306977D01*
X101017Y306985D01*
X100922Y306974D01*
X100826Y306973D01*
X100699Y306948D01*
X100570Y306933D01*
X100478Y306906D01*
X100384Y306887D01*
X100263Y306841D01*
X100139Y306803D01*
X100053Y306759D01*
X99964Y306725D01*
X99853Y306658D01*
X99737Y306599D01*
X99661Y306541D01*
X99580Y306491D01*
X99482Y306405D01*
X99379Y306327D01*
X99314Y306256D01*
X99242Y306193D01*
X99162Y306091D01*
X99073Y305995D01*
X99022Y305915D01*
X98963Y305840D01*
X98902Y305725D01*
X98832Y305616D01*
X98795Y305527D01*
X98750Y305443D01*
X98710Y305319D01*
X98661Y305199D01*
X98641Y305106D01*
X98611Y305015D01*
X98593Y304886D01*
X98566Y304759D01*
X98558Y304629D01*
X98550Y304569D01*
X98551Y304535D01*
X97890Y302939D01*
X97855Y302827D01*
X97811Y302719D01*
X97788Y302613D01*
X97755Y302509D01*
X97741Y302393D01*
X97716Y302279D01*
X97706Y302125D01*
X97699Y302062D01*
X97700Y302026D01*
X97697Y301967D01*
X97697Y300787D01*
X97152Y299472D01*
X97103Y299315D01*
X97046Y299160D01*
X97035Y299100D01*
X97017Y299042D01*
X96996Y298879D01*
X96968Y298717D01*
X96968Y298656D01*
X96960Y298595D01*
X96969Y298431D01*
X96969Y298267D01*
X96980Y298207D01*
X96983Y298146D01*
X97021Y297986D01*
X97050Y297824D01*
X97075Y297751D01*
X97085Y297707D01*
X97109Y297652D01*
X97152Y297528D01*
X97697Y296213D01*
X97697Y295033D01*
X97707Y294916D01*
X97707Y294800D01*
X97727Y294693D01*
X97737Y294584D01*
X97767Y294472D01*
X97788Y294357D01*
X97839Y294211D01*
X97855Y294150D01*
X97871Y294118D01*
X97890Y294061D01*
X98547Y292476D01*
X98547Y287524D01*
X97890Y285939D01*
X97855Y285827D01*
X97811Y285719D01*
X97788Y285613D01*
X97755Y285509D01*
X97741Y285393D01*
X97716Y285279D01*
X97706Y285125D01*
X97699Y285062D01*
X97700Y285026D01*
X97697Y284967D01*
X97697Y283787D01*
X96769Y281546D01*
X95054Y279831D01*
X92926Y278950D01*
X92822Y278896D01*
X92714Y278851D01*
X92623Y278792D01*
X92527Y278742D01*
X92434Y278670D01*
X92336Y278607D01*
X92220Y278504D01*
X92171Y278466D01*
X92147Y278439D01*
X92102Y278400D01*
X90459Y276757D01*
X90459Y276756D01*
X88216Y274514D01*
X88163Y274451D01*
X88104Y274394D01*
X88019Y274278D01*
X87927Y274168D01*
X87886Y274097D01*
X87838Y274030D01*
X87775Y273902D01*
X87704Y273777D01*
X87676Y273700D01*
X87640Y273626D01*
X87601Y273488D01*
X87553Y273353D01*
X87540Y273272D01*
X87517Y273193D01*
X87503Y273050D01*
X87480Y272909D01*
X87481Y272827D01*
X87472Y272745D01*
X87484Y272602D01*
X87486Y272459D01*
X87501Y272378D01*
X87508Y272296D01*
X87544Y272157D01*
X87571Y272017D01*
X87601Y271940D01*
X87622Y271860D01*
X87682Y271730D01*
X87733Y271597D01*
X87776Y271526D01*
X87811Y271451D01*
X87893Y271334D01*
X87967Y271212D01*
X88022Y271150D01*
X88069Y271083D01*
X88171Y270982D01*
X88266Y270875D01*
X88330Y270823D01*
X88389Y270765D01*
X88506Y270684D01*
X88619Y270595D01*
X88691Y270556D01*
X88759Y270509D01*
X88980Y270401D01*
X89016Y270382D01*
X89026Y270379D01*
X89040Y270372D01*
X91304Y269435D01*
X94435Y266304D01*
X95209Y264434D01*
X95263Y264330D01*
X95308Y264222D01*
X95367Y264131D01*
X95418Y264035D01*
X95489Y263942D01*
X95553Y263844D01*
X95655Y263728D01*
X95693Y263679D01*
X95720Y263654D01*
X95760Y263610D01*
X96124Y263245D01*
X96261Y263131D01*
X96360Y263040D01*
X96393Y263019D01*
X96448Y262972D01*
X96459Y262965D01*
X96469Y262956D01*
X96653Y262851D01*
X96680Y262836D01*
X96740Y262798D01*
X96757Y262791D01*
X96837Y262744D01*
X96849Y262740D01*
X96860Y262733D01*
X97060Y262662D01*
X97259Y262589D01*
X97272Y262587D01*
X97285Y262582D01*
X97495Y262547D01*
X97703Y262511D01*
X97716Y262511D01*
X97729Y262509D01*
X97943Y262512D01*
X98153Y262512D01*
X98166Y262515D01*
X98179Y262515D01*
X98358Y262549D01*
X98395Y262553D01*
X98438Y262565D01*
X98596Y262593D01*
X98611Y262598D01*
X98621Y262600D01*
X98658Y262615D01*
X98796Y262662D01*
X98830Y262671D01*
X98848Y262680D01*
X98891Y262695D01*
X99137Y262797D01*
X131563Y262797D01*
X133804Y261869D01*
X135782Y259890D01*
X135908Y259785D01*
X136029Y259673D01*
X136080Y259641D01*
X136127Y259602D01*
X136270Y259520D01*
X136408Y259432D01*
X136465Y259408D01*
X136518Y259378D01*
X136673Y259323D01*
X136825Y259261D01*
X136885Y259248D01*
X136942Y259227D01*
X137105Y259201D01*
X137265Y259166D01*
X137342Y259161D01*
X137386Y259154D01*
X137448Y259155D01*
X137577Y259147D01*
X142493Y259147D01*
X142656Y259161D01*
X142821Y259168D01*
X142880Y259181D01*
X142941Y259187D01*
X143100Y259230D01*
X143260Y259266D01*
X143317Y259289D01*
X143375Y259305D01*
X143524Y259376D01*
X143676Y259439D01*
X143727Y259472D01*
X143782Y259499D01*
X143916Y259594D01*
X144054Y259684D01*
X144112Y259735D01*
X144148Y259761D01*
X144191Y259804D01*
X144288Y259890D01*
X180950Y296552D01*
X185524Y298447D01*
X240476Y298447D01*
X245050Y296552D01*
X253412Y288190D01*
X253538Y288085D01*
X253659Y287973D01*
X253710Y287941D01*
X253757Y287902D01*
X253900Y287820D01*
X254039Y287732D01*
X254095Y287708D01*
X254148Y287678D01*
X254303Y287623D01*
X254455Y287561D01*
X254515Y287548D01*
X254572Y287527D01*
X254735Y287501D01*
X254896Y287466D01*
X254972Y287461D01*
X255017Y287454D01*
X255078Y287455D01*
X255207Y287447D01*
X267793Y287447D01*
X267956Y287461D01*
X268121Y287468D01*
X268180Y287481D01*
X268241Y287487D01*
X268400Y287530D01*
X268560Y287566D01*
X268617Y287589D01*
X268675Y287605D01*
X268824Y287676D01*
X268976Y287739D01*
X269027Y287772D01*
X269082Y287799D01*
X269216Y287894D01*
X269354Y287984D01*
X269412Y288035D01*
X269448Y288061D01*
X269491Y288104D01*
X269588Y288190D01*
X271569Y290171D01*
X271675Y290298D01*
X271786Y290418D01*
X271819Y290470D01*
X271858Y290517D01*
X271939Y290659D01*
X272028Y290798D01*
X272051Y290855D01*
X272081Y290908D01*
X272136Y291063D01*
X272199Y291215D01*
X272212Y291274D01*
X272232Y291332D01*
X272259Y291494D01*
X272293Y291655D01*
X272298Y291732D01*
X272306Y291776D01*
X272305Y291837D01*
X272313Y291967D01*
X272313Y308417D01*
X273850Y309954D01*
X273851Y309955D01*
X278066Y314170D01*
X279604Y315708D01*
X289915Y315708D01*
X291453Y314170D01*
X295668Y309955D01*
X295668Y309954D01*
X297206Y308417D01*
X297206Y289562D01*
X297217Y289445D01*
X297217Y289328D01*
X297236Y289222D01*
X297246Y289113D01*
X297277Y289000D01*
X297298Y288885D01*
X297348Y288739D01*
X297365Y288679D01*
X297380Y288646D01*
X297399Y288590D01*
X297447Y288476D01*
X297447Y283524D01*
X295552Y278950D01*
X281050Y264448D01*
X276476Y262553D01*
X246524Y262553D01*
X241950Y264448D01*
X233588Y272810D01*
X233462Y272915D01*
X233341Y273027D01*
X233290Y273059D01*
X233243Y273098D01*
X233100Y273180D01*
X232961Y273268D01*
X232905Y273292D01*
X232852Y273322D01*
X232697Y273377D01*
X232545Y273439D01*
X232485Y273452D01*
X232428Y273473D01*
X232265Y273499D01*
X232104Y273534D01*
X232028Y273539D01*
X231983Y273546D01*
X231922Y273545D01*
X231793Y273553D01*
X194207Y273553D01*
X194044Y273539D01*
X193879Y273532D01*
X193820Y273519D01*
X193759Y273513D01*
X193600Y273470D01*
X193440Y273434D01*
X193383Y273411D01*
X193325Y273395D01*
X193176Y273324D01*
X193024Y273261D01*
X192973Y273228D01*
X192918Y273201D01*
X192784Y273106D01*
X192646Y273016D01*
X192588Y272965D01*
X192552Y272939D01*
X192509Y272896D01*
X192412Y272810D01*
X184688Y265086D01*
X184604Y264986D01*
X184514Y264893D01*
X184460Y264813D01*
X184399Y264740D01*
X184334Y264627D01*
X184262Y264520D01*
X184223Y264432D01*
X184176Y264349D01*
X184132Y264227D01*
X184079Y264108D01*
X184057Y264015D01*
X184025Y263925D01*
X184004Y263797D01*
X183973Y263670D01*
X183967Y263575D01*
X183951Y263481D01*
X183953Y263351D01*
X183945Y263221D01*
X183956Y263126D01*
X183957Y263030D01*
X183982Y262903D01*
X183997Y262774D01*
X184025Y262682D01*
X184043Y262588D01*
X184090Y262467D01*
X184127Y262343D01*
X184171Y262258D01*
X184205Y262168D01*
X184273Y262057D01*
X184332Y261941D01*
X184389Y261865D01*
X184439Y261784D01*
X184525Y261686D01*
X184604Y261583D01*
X184674Y261518D01*
X184737Y261446D01*
X184839Y261366D01*
X184935Y261277D01*
X185016Y261226D01*
X185090Y261167D01*
X185205Y261106D01*
X185315Y261036D01*
X185403Y260999D01*
X185487Y260954D01*
X185611Y260914D01*
X185731Y260865D01*
X185825Y260845D01*
X185916Y260815D01*
X186044Y260797D01*
X186171Y260770D01*
X186301Y260762D01*
X186362Y260754D01*
X186406Y260755D01*
X186483Y260751D01*
X200130Y260751D01*
X204798Y258817D01*
X208371Y255244D01*
X210305Y250576D01*
X210305Y245524D01*
X208371Y240856D01*
X204798Y237283D01*
X200130Y235349D01*
X181870Y235349D01*
X177202Y237283D01*
X173629Y240856D01*
X171695Y245524D01*
X171695Y245963D01*
X171684Y246092D01*
X171682Y246222D01*
X171664Y246316D01*
X171655Y246411D01*
X171621Y246537D01*
X171596Y246664D01*
X171562Y246753D01*
X171537Y246846D01*
X171481Y246963D01*
X171434Y247084D01*
X171384Y247166D01*
X171343Y247252D01*
X171268Y247358D01*
X171200Y247469D01*
X171137Y247541D01*
X171081Y247618D01*
X170988Y247709D01*
X170902Y247806D01*
X170827Y247865D01*
X170759Y247932D01*
X170651Y248005D01*
X170549Y248086D01*
X170465Y248131D01*
X170386Y248184D01*
X170267Y248237D01*
X170152Y248298D01*
X170061Y248328D01*
X169974Y248367D01*
X169847Y248397D01*
X169724Y248438D01*
X169629Y248451D01*
X169536Y248473D01*
X169407Y248481D01*
X169278Y248499D01*
X169182Y248495D01*
X169087Y248501D01*
X168958Y248486D01*
X168828Y248481D01*
X168735Y248460D01*
X168640Y248449D01*
X168515Y248411D01*
X168388Y248383D01*
X168300Y248346D01*
X168209Y248319D01*
X168093Y248260D01*
X167973Y248209D01*
X167892Y248157D01*
X167807Y248114D01*
X167704Y248036D01*
X167595Y247965D01*
X167497Y247879D01*
X167449Y247842D01*
X167418Y247809D01*
X167360Y247758D01*
X155750Y236148D01*
X151176Y234253D01*
X137577Y234253D01*
X137413Y234239D01*
X137249Y234232D01*
X137189Y234219D01*
X137129Y234213D01*
X136970Y234170D01*
X136809Y234134D01*
X136753Y234111D01*
X136694Y234095D01*
X136546Y234024D01*
X136394Y233961D01*
X136343Y233928D01*
X136288Y233901D01*
X136154Y233806D01*
X136016Y233716D01*
X135958Y233665D01*
X135922Y233639D01*
X135879Y233596D01*
X135782Y233510D01*
X133804Y231531D01*
X131563Y230603D01*
X99137Y230603D01*
X96896Y231531D01*
X95181Y233246D01*
X94253Y235487D01*
X94253Y235682D01*
X94235Y235891D01*
X94218Y236104D01*
X94215Y236117D01*
X94213Y236130D01*
X94158Y236334D01*
X94104Y236540D01*
X94098Y236552D01*
X94095Y236565D01*
X94005Y236754D01*
X93915Y236948D01*
X93907Y236959D01*
X93901Y236971D01*
X93778Y237143D01*
X93656Y237317D01*
X93647Y237326D01*
X93639Y237337D01*
X93487Y237486D01*
X93337Y237635D01*
X93326Y237642D01*
X93317Y237651D01*
X93141Y237770D01*
X92967Y237890D01*
X92952Y237897D01*
X92944Y237903D01*
X92908Y237919D01*
X92686Y238028D01*
X92544Y238086D01*
X81390Y249240D01*
X81300Y249315D01*
X81218Y249398D01*
X81128Y249459D01*
X81045Y249529D01*
X80943Y249587D01*
X80847Y249654D01*
X80709Y249721D01*
X80654Y249753D01*
X80620Y249765D01*
X80566Y249791D01*
X78696Y250565D01*
X75565Y253696D01*
X74628Y255960D01*
X74590Y256033D01*
X74560Y256110D01*
X74486Y256232D01*
X74419Y256359D01*
X74369Y256424D01*
X74326Y256495D01*
X74231Y256602D01*
X74144Y256715D01*
X74082Y256770D01*
X74028Y256832D01*
X73916Y256921D01*
X73809Y257017D01*
X73739Y257060D01*
X73675Y257111D01*
X73549Y257179D01*
X73427Y257255D01*
X73350Y257285D01*
X73278Y257324D01*
X73142Y257368D01*
X73009Y257421D01*
X72928Y257438D01*
X72850Y257463D01*
X72708Y257483D01*
X72568Y257512D01*
X72485Y257513D01*
X72404Y257525D01*
X72260Y257519D01*
X72117Y257522D01*
X72036Y257510D01*
X71954Y257506D01*
X71814Y257475D01*
X71672Y257453D01*
X71594Y257427D01*
X71514Y257409D01*
X71382Y257354D01*
X71247Y257307D01*
X71175Y257267D01*
X71099Y257235D01*
X70978Y257157D01*
X70853Y257088D01*
X70790Y257036D01*
X70720Y256991D01*
X70535Y256827D01*
X70505Y256802D01*
X70498Y256794D01*
X70486Y256784D01*
X63690Y249988D01*
X63585Y249862D01*
X63473Y249741D01*
X63441Y249690D01*
X63402Y249643D01*
X63320Y249500D01*
X63232Y249361D01*
X63208Y249305D01*
X63178Y249252D01*
X63123Y249097D01*
X63061Y248945D01*
X63048Y248885D01*
X63027Y248828D01*
X63001Y248665D01*
X62966Y248505D01*
X62961Y248428D01*
X62954Y248383D01*
X62955Y248322D01*
X62947Y248193D01*
X62947Y235487D01*
X62019Y233246D01*
X60304Y231531D01*
X58063Y230603D01*
X25637Y230603D01*
X23396Y231531D01*
X21681Y233247D01*
X21055Y234759D01*
X20974Y234915D01*
X20899Y235073D01*
X20869Y235114D01*
X20846Y235158D01*
X20739Y235297D01*
X20637Y235440D01*
X20601Y235475D01*
X20571Y235514D01*
X20441Y235632D01*
X20315Y235754D01*
X20273Y235783D01*
X20236Y235816D01*
X20088Y235909D01*
X19942Y236007D01*
X19897Y236027D01*
X19854Y236054D01*
X19691Y236119D01*
X19531Y236190D01*
X19482Y236202D01*
X19436Y236221D01*
X19264Y236256D01*
X19094Y236297D01*
X19044Y236301D01*
X18995Y236311D01*
X18819Y236315D01*
X18644Y236326D01*
X18595Y236320D01*
X18544Y236321D01*
X18371Y236295D01*
X18197Y236275D01*
X18149Y236260D01*
X18099Y236253D01*
X17934Y236196D01*
X17766Y236145D01*
X17721Y236122D01*
X17674Y236106D01*
X17521Y236021D01*
X17364Y235941D01*
X17324Y235911D01*
X17280Y235887D01*
X17145Y235776D01*
X17005Y235670D01*
X16971Y235633D01*
X16932Y235602D01*
X16818Y235468D01*
X16699Y235340D01*
X16672Y235297D01*
X16640Y235259D01*
X16551Y235108D01*
X16457Y234960D01*
X16437Y234914D01*
X16412Y234871D01*
X16352Y234706D01*
X16285Y234544D01*
X16274Y234495D01*
X16257Y234448D01*
X16227Y234275D01*
X16189Y234104D01*
X16185Y234042D01*
X16179Y234005D01*
X16179Y233942D01*
X16170Y233792D01*
X16050Y166118D01*
X16062Y165986D01*
X16064Y165854D01*
X16081Y165762D01*
X16090Y165669D01*
X16124Y165542D01*
X16149Y165412D01*
X16183Y165325D01*
X16207Y165235D01*
X16264Y165115D01*
X16312Y164992D01*
X16360Y164912D01*
X16400Y164828D01*
X16477Y164720D01*
X16545Y164607D01*
X16607Y164537D01*
X16661Y164461D01*
X16756Y164368D01*
X16844Y164270D01*
X16917Y164212D01*
X16984Y164147D01*
X17093Y164072D01*
X17197Y163990D01*
X17279Y163946D01*
X17356Y163894D01*
X17477Y163840D01*
X17594Y163778D01*
X17682Y163749D01*
X17768Y163711D01*
X17896Y163679D01*
X18022Y163638D01*
X18114Y163626D01*
X18205Y163603D01*
X18337Y163595D01*
X18468Y163577D01*
X18561Y163581D01*
X18654Y163575D01*
X18786Y163590D01*
X18918Y163595D01*
X19009Y163616D01*
X19102Y163626D01*
X19228Y163664D01*
X19357Y163693D01*
X19443Y163729D01*
X19533Y163756D01*
X19651Y163816D01*
X19773Y163867D01*
X19851Y163917D01*
X19934Y163959D01*
X20040Y164039D01*
X20151Y164111D01*
X20246Y164194D01*
X20294Y164231D01*
X20325Y164265D01*
X20385Y164318D01*
X20428Y164360D01*
X20444Y164380D01*
X20473Y164407D01*
X21694Y165692D01*
X21697Y165694D01*
X21716Y165710D01*
X23362Y166391D01*
X23385Y166403D01*
X23422Y166417D01*
X25042Y167137D01*
X25045Y167137D01*
X25069Y167145D01*
X26850Y167145D01*
X26876Y167147D01*
X26915Y167146D01*
X28688Y167191D01*
X28690Y167190D01*
X28774Y167182D01*
X28857Y167164D01*
X29096Y167149D01*
X29138Y167145D01*
X29151Y167146D01*
X29169Y167145D01*
X30859Y167145D01*
X31022Y167159D01*
X31187Y167166D01*
X31246Y167179D01*
X31307Y167185D01*
X31466Y167228D01*
X31626Y167264D01*
X31683Y167287D01*
X31742Y167303D01*
X31890Y167374D01*
X32042Y167437D01*
X32093Y167470D01*
X32148Y167497D01*
X32282Y167592D01*
X32420Y167682D01*
X32478Y167733D01*
X32514Y167759D01*
X32557Y167802D01*
X32654Y167888D01*
X39569Y174803D01*
X39675Y174929D01*
X39786Y175050D01*
X39819Y175102D01*
X39858Y175149D01*
X39939Y175291D01*
X40028Y175430D01*
X40051Y175487D01*
X40081Y175540D01*
X40136Y175694D01*
X40199Y175847D01*
X40212Y175906D01*
X40232Y175964D01*
X40259Y176126D01*
X40293Y176287D01*
X40298Y176364D01*
X40306Y176408D01*
X40305Y176469D01*
X40313Y176599D01*
X40313Y180217D01*
X47604Y187508D01*
X57915Y187508D01*
X65206Y180217D01*
X65206Y176684D01*
X65209Y176649D01*
X65207Y176615D01*
X65229Y176426D01*
X65246Y176235D01*
X65255Y176202D01*
X65259Y176168D01*
X65315Y175985D01*
X65365Y175801D01*
X65379Y175770D01*
X65389Y175737D01*
X65476Y175566D01*
X65558Y175394D01*
X65578Y175366D01*
X65594Y175335D01*
X65709Y175183D01*
X65820Y175028D01*
X65845Y175004D01*
X65866Y174977D01*
X66006Y174848D01*
X66143Y174714D01*
X66172Y174695D01*
X66197Y174671D01*
X66358Y174569D01*
X66516Y174462D01*
X66548Y174448D01*
X66577Y174430D01*
X66753Y174357D01*
X66928Y174280D01*
X66961Y174272D01*
X66993Y174259D01*
X67180Y174219D01*
X67365Y174173D01*
X67400Y174171D01*
X67434Y174164D01*
X67745Y174145D01*
X128819Y174145D01*
X132180Y172753D01*
X136802Y168131D01*
X136828Y168109D01*
X136851Y168083D01*
X137001Y167965D01*
X137147Y167842D01*
X137177Y167825D01*
X137204Y167803D01*
X137372Y167713D01*
X137538Y167619D01*
X137571Y167607D01*
X137601Y167591D01*
X137782Y167532D01*
X137962Y167468D01*
X137996Y167462D01*
X138029Y167452D01*
X138218Y167426D01*
X138406Y167394D01*
X138441Y167395D01*
X138475Y167390D01*
X138666Y167398D01*
X138857Y167401D01*
X138891Y167407D01*
X138925Y167409D01*
X139111Y167450D01*
X139299Y167486D01*
X139331Y167499D01*
X139365Y167506D01*
X139541Y167580D01*
X139719Y167648D01*
X139748Y167666D01*
X139780Y167680D01*
X139941Y167783D01*
X140103Y167882D01*
X140129Y167905D01*
X140158Y167924D01*
X140393Y168131D01*
X140696Y168435D01*
X144786Y170129D01*
X148316Y170129D01*
X148351Y170132D01*
X148385Y170130D01*
X148574Y170152D01*
X148765Y170169D01*
X148798Y170178D01*
X148832Y170182D01*
X149015Y170237D01*
X149199Y170287D01*
X149230Y170302D01*
X149263Y170312D01*
X149434Y170399D01*
X149606Y170481D01*
X149634Y170501D01*
X149665Y170516D01*
X149817Y170632D01*
X149972Y170743D01*
X149996Y170768D01*
X150023Y170788D01*
X150152Y170928D01*
X150286Y171065D01*
X150305Y171094D01*
X150329Y171120D01*
X150431Y171281D01*
X150538Y171438D01*
X150552Y171470D01*
X150570Y171499D01*
X150643Y171676D01*
X150720Y171850D01*
X150728Y171884D01*
X150741Y171916D01*
X150781Y172103D01*
X150827Y172288D01*
X150829Y172322D01*
X150836Y172356D01*
X150855Y172668D01*
X150855Y173819D01*
X152247Y177180D01*
X155177Y180110D01*
X173930Y198863D01*
X173953Y198890D01*
X173979Y198913D01*
X174096Y199061D01*
X174219Y199208D01*
X174237Y199239D01*
X174258Y199266D01*
X174348Y199434D01*
X174443Y199599D01*
X174454Y199632D01*
X174471Y199662D01*
X174530Y199844D01*
X174593Y200024D01*
X174599Y200058D01*
X174610Y200091D01*
X174636Y200279D01*
X174667Y200468D01*
X174667Y200502D01*
X174671Y200537D01*
X174663Y200727D01*
X174661Y200918D01*
X174654Y200952D01*
X174653Y200987D01*
X174612Y201173D01*
X174575Y201360D01*
X174563Y201392D01*
X174555Y201426D01*
X174482Y201602D01*
X174413Y201780D01*
X174395Y201810D01*
X174382Y201842D01*
X174278Y202002D01*
X174179Y202165D01*
X174156Y202191D01*
X174137Y202220D01*
X173930Y202454D01*
X173629Y202756D01*
X171695Y207424D01*
X171695Y212476D01*
X173629Y217144D01*
X177202Y220717D01*
X181870Y222651D01*
X200130Y222651D01*
X204798Y220717D01*
X206103Y219412D01*
X206229Y219307D01*
X206350Y219195D01*
X206402Y219162D01*
X206449Y219123D01*
X206591Y219042D01*
X206730Y218953D01*
X206787Y218930D01*
X206840Y218900D01*
X206995Y218845D01*
X207147Y218782D01*
X207206Y218770D01*
X207264Y218749D01*
X207426Y218722D01*
X207587Y218688D01*
X207664Y218683D01*
X207708Y218676D01*
X207769Y218677D01*
X207899Y218669D01*
X229288Y218669D01*
X229452Y218683D01*
X229616Y218690D01*
X229676Y218703D01*
X229736Y218708D01*
X229895Y218752D01*
X230056Y218787D01*
X230112Y218811D01*
X230171Y218827D01*
X230319Y218897D01*
X230471Y218961D01*
X230523Y218994D01*
X230577Y219020D01*
X230711Y219116D01*
X230727Y219127D01*
X233088Y220105D01*
X245514Y220105D01*
X246829Y219560D01*
X246986Y219510D01*
X247141Y219454D01*
X247201Y219443D01*
X247259Y219425D01*
X247422Y219404D01*
X247584Y219376D01*
X247645Y219376D01*
X247706Y219368D01*
X247870Y219377D01*
X248034Y219377D01*
X248094Y219388D01*
X248155Y219391D01*
X248315Y219428D01*
X248477Y219458D01*
X248550Y219483D01*
X248594Y219493D01*
X248650Y219517D01*
X248773Y219560D01*
X250088Y220105D01*
X262514Y220105D01*
X264755Y219176D01*
X265090Y218841D01*
X265216Y218736D01*
X265337Y218624D01*
X265388Y218592D01*
X265435Y218552D01*
X265578Y218471D01*
X265716Y218383D01*
X265773Y218359D01*
X265826Y218329D01*
X265981Y218274D01*
X266133Y218212D01*
X266193Y218199D01*
X266250Y218178D01*
X266412Y218151D01*
X266573Y218117D01*
X266650Y218112D01*
X266694Y218105D01*
X266755Y218106D01*
X266885Y218098D01*
X283672Y218098D01*
X286257Y217027D01*
X286369Y216992D01*
X286477Y216948D01*
X286583Y216925D01*
X286687Y216892D01*
X286803Y216877D01*
X286917Y216853D01*
X287071Y216843D01*
X287134Y216835D01*
X287170Y216837D01*
X287229Y216834D01*
X288864Y216834D01*
X291105Y215905D01*
X292820Y214190D01*
X293748Y211950D01*
X293748Y203924D01*
X292820Y201683D01*
X291105Y199968D01*
X288864Y199040D01*
X287229Y199040D01*
X287112Y199030D01*
X286996Y199029D01*
X286889Y199010D01*
X286780Y199000D01*
X286668Y198970D01*
X286553Y198949D01*
X286407Y198898D01*
X286346Y198882D01*
X286332Y198875D01*
X286325Y198873D01*
X286304Y198863D01*
X286257Y198847D01*
X283672Y197776D01*
X267264Y197776D01*
X267230Y197773D01*
X267195Y197775D01*
X267006Y197753D01*
X266816Y197736D01*
X266782Y197727D01*
X266748Y197723D01*
X266565Y197668D01*
X266381Y197618D01*
X266350Y197603D01*
X266317Y197593D01*
X266146Y197506D01*
X265975Y197424D01*
X265947Y197404D01*
X265916Y197389D01*
X265764Y197273D01*
X265609Y197162D01*
X265585Y197137D01*
X265557Y197117D01*
X265428Y196976D01*
X265295Y196840D01*
X265275Y196811D01*
X265252Y196785D01*
X265149Y196624D01*
X265043Y196466D01*
X265029Y196435D01*
X265010Y196406D01*
X264938Y196229D01*
X264860Y196055D01*
X264852Y196021D01*
X264839Y195989D01*
X264799Y195802D01*
X264754Y195617D01*
X264752Y195583D01*
X264744Y195549D01*
X264725Y195237D01*
X264728Y195202D01*
X264726Y195168D01*
X264732Y195118D01*
X264748Y194978D01*
X264765Y194788D01*
X264774Y194755D01*
X264778Y194721D01*
X264833Y194538D01*
X264883Y194354D01*
X264898Y194323D01*
X264908Y194290D01*
X264995Y194119D01*
X265077Y193947D01*
X265097Y193919D01*
X265113Y193888D01*
X265228Y193736D01*
X265339Y193581D01*
X265364Y193557D01*
X265385Y193530D01*
X265525Y193401D01*
X265662Y193267D01*
X265690Y193248D01*
X265716Y193224D01*
X265877Y193122D01*
X266035Y193015D01*
X266066Y193001D01*
X266096Y192983D01*
X266272Y192910D01*
X266447Y192833D01*
X266480Y192825D01*
X266512Y192812D01*
X266699Y192771D01*
X266884Y192726D01*
X266918Y192724D01*
X266952Y192717D01*
X267264Y192698D01*
X283672Y192698D01*
X286257Y191627D01*
X286369Y191592D01*
X286477Y191548D01*
X286583Y191525D01*
X286687Y191492D01*
X286803Y191477D01*
X286917Y191453D01*
X287071Y191443D01*
X287134Y191435D01*
X287170Y191437D01*
X287229Y191434D01*
X288864Y191434D01*
X291105Y190505D01*
X292820Y188790D01*
X293748Y186550D01*
X293748Y178524D01*
X292820Y176283D01*
X291105Y174568D01*
X288864Y173640D01*
X287229Y173640D01*
X287112Y173630D01*
X286996Y173629D01*
X286889Y173610D01*
X286780Y173600D01*
X286668Y173570D01*
X286553Y173549D01*
X286407Y173498D01*
X286346Y173482D01*
X286344Y173481D01*
X286343Y173481D01*
X286312Y173466D01*
X286257Y173447D01*
X283672Y172376D01*
X268021Y172376D01*
X267857Y172362D01*
X267693Y172355D01*
X267633Y172342D01*
X267572Y172336D01*
X267413Y172293D01*
X267253Y172257D01*
X267197Y172234D01*
X267138Y172218D01*
X266990Y172147D01*
X266838Y172084D01*
X266786Y172050D01*
X266731Y172024D01*
X266598Y171929D01*
X266459Y171839D01*
X266402Y171788D01*
X266365Y171762D01*
X266326Y171722D01*
X266323Y171719D01*
X266225Y171632D01*
X266142Y171533D01*
X266051Y171440D01*
X265998Y171360D01*
X265936Y171287D01*
X265872Y171174D01*
X265799Y171066D01*
X265760Y170979D01*
X265713Y170896D01*
X265669Y170774D01*
X265617Y170655D01*
X265594Y170562D01*
X265562Y170472D01*
X265541Y170343D01*
X265510Y170217D01*
X265504Y170122D01*
X265489Y170028D01*
X265490Y169897D01*
X265482Y169768D01*
X265493Y169673D01*
X265495Y169577D01*
X265519Y169450D01*
X265534Y169321D01*
X265562Y169229D01*
X265580Y169135D01*
X265627Y169014D01*
X265665Y168890D01*
X265708Y168804D01*
X265743Y168715D01*
X265810Y168604D01*
X265869Y168488D01*
X265927Y168412D01*
X265976Y168331D01*
X266063Y168233D01*
X266141Y168130D01*
X266211Y168065D01*
X266275Y167993D01*
X266376Y167913D01*
X266472Y167824D01*
X266553Y167773D01*
X266628Y167714D01*
X266742Y167653D01*
X266852Y167583D01*
X266940Y167546D01*
X267025Y167501D01*
X267148Y167461D01*
X267269Y167412D01*
X267362Y167391D01*
X267453Y167362D01*
X267582Y167344D01*
X267709Y167317D01*
X267839Y167309D01*
X267899Y167301D01*
X267944Y167302D01*
X268021Y167298D01*
X283672Y167298D01*
X286257Y166227D01*
X286369Y166192D01*
X286477Y166148D01*
X286583Y166125D01*
X286687Y166092D01*
X286803Y166077D01*
X286917Y166053D01*
X287071Y166043D01*
X287134Y166035D01*
X287170Y166037D01*
X287229Y166034D01*
X288864Y166034D01*
X291105Y165105D01*
X292820Y163390D01*
X293748Y161150D01*
X293748Y153124D01*
X292820Y150883D01*
X291105Y149168D01*
X288864Y148240D01*
X287229Y148240D01*
X287112Y148230D01*
X286996Y148229D01*
X286889Y148210D01*
X286780Y148200D01*
X286668Y148170D01*
X286553Y148149D01*
X286407Y148098D01*
X286346Y148082D01*
X286314Y148066D01*
X286257Y148047D01*
X283672Y146976D01*
X269522Y146976D01*
X269311Y146957D01*
X269100Y146941D01*
X269087Y146937D01*
X269074Y146936D01*
X268869Y146880D01*
X268664Y146827D01*
X268652Y146821D01*
X268639Y146818D01*
X268450Y146727D01*
X268256Y146638D01*
X268245Y146630D01*
X268233Y146624D01*
X268060Y146500D01*
X267887Y146379D01*
X267878Y146370D01*
X267867Y146362D01*
X267717Y146209D01*
X267569Y146060D01*
X267562Y146049D01*
X267553Y146040D01*
X267434Y145864D01*
X267313Y145689D01*
X267307Y145675D01*
X267301Y145666D01*
X267285Y145631D01*
X267176Y145409D01*
X266110Y142835D01*
X265223Y141948D01*
X265148Y141858D01*
X265066Y141775D01*
X265004Y141686D01*
X264934Y141602D01*
X264876Y141501D01*
X264810Y141405D01*
X264742Y141266D01*
X264711Y141211D01*
X264699Y141177D01*
X264673Y141124D01*
X263694Y138762D01*
X262181Y137249D01*
X262128Y137186D01*
X262069Y137129D01*
X261984Y137013D01*
X261893Y136903D01*
X261852Y136832D01*
X261803Y136765D01*
X261740Y136637D01*
X261669Y136513D01*
X261642Y136435D01*
X261605Y136361D01*
X261566Y136223D01*
X261518Y136088D01*
X261505Y136007D01*
X261482Y135928D01*
X261468Y135786D01*
X261445Y135644D01*
X261446Y135562D01*
X261438Y135480D01*
X261449Y135337D01*
X261451Y135194D01*
X261467Y135113D01*
X261473Y135031D01*
X261509Y134892D01*
X261537Y134752D01*
X261566Y134675D01*
X261587Y134595D01*
X261647Y134465D01*
X261699Y134332D01*
X261742Y134261D01*
X261776Y134187D01*
X261858Y134069D01*
X261933Y133947D01*
X261987Y133885D01*
X262035Y133818D01*
X262136Y133717D01*
X262231Y133610D01*
X262295Y133559D01*
X262354Y133500D01*
X262472Y133419D01*
X262584Y133330D01*
X262657Y133291D01*
X262724Y133244D01*
X262946Y133136D01*
X262981Y133118D01*
X262991Y133114D01*
X263005Y133107D01*
X263764Y132793D01*
X263782Y132778D01*
X263925Y132696D01*
X264064Y132608D01*
X264120Y132585D01*
X264173Y132555D01*
X264328Y132500D01*
X264480Y132437D01*
X264540Y132424D01*
X264597Y132404D01*
X264760Y132377D01*
X264920Y132342D01*
X264997Y132338D01*
X265041Y132330D01*
X265103Y132331D01*
X265232Y132323D01*
X266816Y132323D01*
X266980Y132338D01*
X267144Y132344D01*
X267204Y132358D01*
X267265Y132363D01*
X267424Y132406D01*
X267584Y132442D01*
X267640Y132466D01*
X267699Y132482D01*
X267847Y132552D01*
X267999Y132616D01*
X268051Y132649D01*
X268106Y132675D01*
X268239Y132771D01*
X268378Y132860D01*
X268435Y132911D01*
X268472Y132937D01*
X268514Y132981D01*
X268612Y133067D01*
X268811Y133266D01*
X268916Y133392D01*
X269028Y133513D01*
X269061Y133564D01*
X269100Y133611D01*
X269181Y133754D01*
X269270Y133893D01*
X269293Y133949D01*
X269323Y134002D01*
X269378Y134157D01*
X269441Y134309D01*
X269453Y134369D01*
X269474Y134427D01*
X269501Y134589D01*
X269535Y134750D01*
X269540Y134826D01*
X269547Y134871D01*
X269547Y134932D01*
X269555Y135061D01*
X269555Y135750D01*
X270483Y137990D01*
X272198Y139705D01*
X274439Y140634D01*
X276074Y140634D01*
X276190Y140644D01*
X276307Y140644D01*
X276414Y140664D01*
X276522Y140674D01*
X276635Y140704D01*
X276750Y140725D01*
X276896Y140776D01*
X276956Y140792D01*
X276989Y140808D01*
X277045Y140827D01*
X279630Y141898D01*
X283672Y141898D01*
X286257Y140827D01*
X286369Y140792D01*
X286477Y140748D01*
X286583Y140725D01*
X286687Y140692D01*
X286803Y140677D01*
X286917Y140653D01*
X287071Y140643D01*
X287134Y140635D01*
X287170Y140637D01*
X287229Y140634D01*
X288864Y140634D01*
X291105Y139705D01*
X292820Y137990D01*
X293748Y135750D01*
X293748Y127724D01*
X292820Y125483D01*
X291105Y123768D01*
X288864Y122840D01*
X288176Y122840D01*
X288012Y122826D01*
X287848Y122819D01*
X287788Y122806D01*
X287727Y122800D01*
X287568Y122757D01*
X287408Y122721D01*
X287352Y122698D01*
X287293Y122682D01*
X287145Y122611D01*
X286993Y122548D01*
X286941Y122514D01*
X286886Y122488D01*
X286753Y122393D01*
X286614Y122303D01*
X286557Y122252D01*
X286520Y122226D01*
X286478Y122183D01*
X286380Y122096D01*
X277832Y113549D01*
X274098Y112002D01*
X272531Y112002D01*
X272449Y111994D01*
X272367Y111996D01*
X272226Y111974D01*
X272083Y111962D01*
X272003Y111940D01*
X271922Y111927D01*
X271787Y111881D01*
X271649Y111843D01*
X271574Y111808D01*
X271496Y111781D01*
X271371Y111711D01*
X271242Y111650D01*
X271175Y111602D01*
X271103Y111562D01*
X270992Y111471D01*
X270876Y111388D01*
X270818Y111329D01*
X270755Y111276D01*
X270662Y111168D01*
X270562Y111065D01*
X270516Y110997D01*
X270462Y110934D01*
X270390Y110811D01*
X270310Y110692D01*
X270276Y110617D01*
X270235Y110546D01*
X270185Y110411D01*
X270128Y110280D01*
X270108Y110200D01*
X270080Y110123D01*
X270055Y109982D01*
X270021Y109843D01*
X270016Y109761D01*
X270002Y109679D01*
X270002Y109536D01*
X269993Y109393D01*
X270003Y109311D01*
X270003Y109229D01*
X270029Y109088D01*
X270045Y108946D01*
X270069Y108867D01*
X270084Y108786D01*
X270164Y108553D01*
X270176Y108515D01*
X270180Y108505D01*
X270186Y108491D01*
X271129Y106214D01*
X271129Y101786D01*
X269338Y97463D01*
X269303Y97352D01*
X269259Y97244D01*
X269236Y97137D01*
X269203Y97034D01*
X269189Y96918D01*
X269164Y96803D01*
X269154Y96649D01*
X269147Y96587D01*
X269148Y96551D01*
X269145Y96491D01*
X269145Y91181D01*
X267753Y87820D01*
X262793Y82861D01*
X262740Y82797D01*
X262681Y82740D01*
X262596Y82625D01*
X262504Y82515D01*
X262463Y82444D01*
X262415Y82377D01*
X262352Y82248D01*
X262281Y82124D01*
X262253Y82047D01*
X262217Y81973D01*
X262178Y81835D01*
X262130Y81700D01*
X262117Y81619D01*
X262094Y81539D01*
X262080Y81397D01*
X262057Y81256D01*
X262058Y81173D01*
X262050Y81091D01*
X262061Y80949D01*
X262063Y80806D01*
X262078Y80725D01*
X262085Y80642D01*
X262121Y80504D01*
X262148Y80363D01*
X262178Y80287D01*
X262199Y80207D01*
X262259Y80077D01*
X262311Y79943D01*
X262353Y79873D01*
X262388Y79798D01*
X262470Y79681D01*
X262544Y79559D01*
X262599Y79497D01*
X262646Y79429D01*
X262748Y79329D01*
X262843Y79221D01*
X262907Y79170D01*
X262966Y79112D01*
X263083Y79031D01*
X263196Y78942D01*
X263268Y78903D01*
X263336Y78856D01*
X263557Y78748D01*
X263593Y78729D01*
X263603Y78726D01*
X263617Y78719D01*
X264304Y78435D01*
X267435Y75304D01*
X268484Y72770D01*
X268500Y72739D01*
X268511Y72706D01*
X268604Y72540D01*
X268693Y72371D01*
X268714Y72343D01*
X268731Y72313D01*
X268851Y72166D01*
X268968Y72015D01*
X268994Y71992D01*
X269016Y71965D01*
X269161Y71841D01*
X269303Y71713D01*
X269332Y71695D01*
X269358Y71672D01*
X269523Y71576D01*
X269685Y71475D01*
X269717Y71462D01*
X269747Y71445D01*
X269926Y71379D01*
X270103Y71309D01*
X270137Y71302D01*
X270170Y71290D01*
X270357Y71257D01*
X270544Y71218D01*
X270579Y71218D01*
X270613Y71212D01*
X270803Y71212D01*
X270994Y71208D01*
X271029Y71213D01*
G37*
G36*
X660945Y11130D02*
X660945Y11130D01*
X660979Y11128D01*
X661170Y11150D01*
X661360Y11167D01*
X661393Y11176D01*
X661427Y11180D01*
X661609Y11234D01*
X661794Y11285D01*
X661825Y11299D01*
X661858Y11309D01*
X662028Y11396D01*
X662201Y11478D01*
X662229Y11498D01*
X662259Y11513D01*
X662412Y11628D01*
X662567Y11739D01*
X662591Y11764D01*
X662618Y11785D01*
X662748Y11925D01*
X662882Y12062D01*
X662901Y12090D01*
X662924Y12115D01*
X663027Y12276D01*
X663134Y12435D01*
X663148Y12466D01*
X663166Y12495D01*
X663239Y12672D01*
X663317Y12846D01*
X663325Y12879D01*
X663338Y12911D01*
X663378Y13098D01*
X663424Y13284D01*
X663426Y13318D01*
X663433Y13351D01*
X663453Y13663D01*
X663495Y47176D01*
X663484Y47307D01*
X663482Y47439D01*
X663464Y47531D01*
X663456Y47625D01*
X663421Y47752D01*
X663396Y47881D01*
X663362Y47969D01*
X663338Y48059D01*
X663281Y48178D01*
X663234Y48301D01*
X663185Y48381D01*
X663145Y48466D01*
X663068Y48573D01*
X663000Y48686D01*
X662938Y48756D01*
X662883Y48833D01*
X662789Y48924D01*
X662702Y49023D01*
X662628Y49081D01*
X662561Y49147D01*
X662452Y49221D01*
X662349Y49303D01*
X662266Y49347D01*
X662188Y49400D01*
X662068Y49453D01*
X661952Y49515D01*
X661863Y49544D01*
X661777Y49582D01*
X661649Y49614D01*
X661524Y49654D01*
X661431Y49667D01*
X661339Y49690D01*
X661208Y49698D01*
X661078Y49716D01*
X660984Y49712D01*
X660890Y49718D01*
X660759Y49703D01*
X660628Y49697D01*
X660536Y49677D01*
X660443Y49666D01*
X660317Y49628D01*
X660188Y49600D01*
X660102Y49564D01*
X660012Y49537D01*
X659894Y49477D01*
X659773Y49426D01*
X659694Y49375D01*
X659610Y49333D01*
X659505Y49253D01*
X659394Y49182D01*
X659299Y49098D01*
X659251Y49061D01*
X659220Y49028D01*
X659160Y48975D01*
X657528Y47343D01*
X655288Y46415D01*
X622862Y46415D01*
X620621Y47343D01*
X618906Y49058D01*
X617978Y51299D01*
X617978Y55316D01*
X617975Y55351D01*
X617977Y55385D01*
X617955Y55574D01*
X617938Y55765D01*
X617929Y55798D01*
X617925Y55832D01*
X617870Y56015D01*
X617820Y56199D01*
X617805Y56230D01*
X617795Y56263D01*
X617708Y56434D01*
X617626Y56606D01*
X617606Y56634D01*
X617590Y56665D01*
X617475Y56817D01*
X617364Y56972D01*
X617339Y56996D01*
X617318Y57023D01*
X617178Y57152D01*
X617042Y57286D01*
X617013Y57305D01*
X616987Y57329D01*
X616826Y57431D01*
X616668Y57538D01*
X616637Y57552D01*
X616608Y57570D01*
X616431Y57643D01*
X616257Y57720D01*
X616223Y57728D01*
X616191Y57741D01*
X616004Y57781D01*
X615819Y57827D01*
X615785Y57829D01*
X615751Y57836D01*
X615439Y57855D01*
X560181Y57855D01*
X556820Y59247D01*
X506247Y109820D01*
X504855Y113181D01*
X504855Y132160D01*
X504841Y132324D01*
X504834Y132488D01*
X504821Y132548D01*
X504815Y132609D01*
X504772Y132768D01*
X504736Y132928D01*
X504713Y132984D01*
X504697Y133043D01*
X504626Y133191D01*
X504563Y133343D01*
X504530Y133395D01*
X504503Y133450D01*
X504408Y133583D01*
X504318Y133722D01*
X504267Y133779D01*
X504241Y133816D01*
X504198Y133858D01*
X504112Y133956D01*
X486956Y151112D01*
X486830Y151217D01*
X486709Y151329D01*
X486657Y151361D01*
X486610Y151400D01*
X486468Y151482D01*
X486329Y151570D01*
X486272Y151594D01*
X486220Y151624D01*
X486065Y151679D01*
X485912Y151741D01*
X485853Y151754D01*
X485795Y151775D01*
X485633Y151801D01*
X485472Y151836D01*
X485395Y151841D01*
X485351Y151848D01*
X485290Y151847D01*
X485160Y151855D01*
X434668Y151855D01*
X434633Y151852D01*
X434599Y151854D01*
X434410Y151832D01*
X434219Y151815D01*
X434186Y151806D01*
X434152Y151802D01*
X433969Y151747D01*
X433785Y151697D01*
X433754Y151682D01*
X433721Y151672D01*
X433550Y151585D01*
X433378Y151503D01*
X433350Y151483D01*
X433319Y151468D01*
X433167Y151352D01*
X433012Y151241D01*
X432988Y151216D01*
X432961Y151196D01*
X432832Y151056D01*
X432698Y150919D01*
X432679Y150890D01*
X432655Y150864D01*
X432553Y150703D01*
X432446Y150546D01*
X432432Y150514D01*
X432414Y150485D01*
X432341Y150308D01*
X432264Y150134D01*
X432256Y150100D01*
X432243Y150068D01*
X432203Y149881D01*
X432157Y149696D01*
X432155Y149662D01*
X432148Y149628D01*
X432129Y149316D01*
X432129Y147786D01*
X430435Y143696D01*
X427304Y140565D01*
X423214Y138871D01*
X418786Y138871D01*
X418748Y138887D01*
X418545Y138951D01*
X418344Y139016D01*
X418331Y139018D01*
X418319Y139022D01*
X418109Y139049D01*
X417898Y139078D01*
X417885Y139077D01*
X417872Y139079D01*
X417662Y139068D01*
X417448Y139059D01*
X417435Y139056D01*
X417422Y139056D01*
X417217Y139008D01*
X417009Y138962D01*
X416996Y138956D01*
X416984Y138954D01*
X416789Y138870D01*
X416593Y138788D01*
X416582Y138781D01*
X416570Y138776D01*
X416392Y138658D01*
X416215Y138544D01*
X416203Y138533D01*
X416194Y138527D01*
X416166Y138500D01*
X415981Y138337D01*
X414007Y136363D01*
X411767Y135435D01*
X399341Y135435D01*
X398026Y135980D01*
X397869Y136029D01*
X397714Y136086D01*
X397654Y136097D01*
X397596Y136115D01*
X397433Y136135D01*
X397271Y136164D01*
X397210Y136164D01*
X397149Y136172D01*
X396985Y136163D01*
X396821Y136163D01*
X396761Y136152D01*
X396700Y136148D01*
X396540Y136111D01*
X396378Y136082D01*
X396305Y136056D01*
X396261Y136046D01*
X396206Y136022D01*
X396082Y135980D01*
X394767Y135435D01*
X382341Y135435D01*
X380184Y136329D01*
X380027Y136378D01*
X379872Y136435D01*
X379812Y136445D01*
X379754Y136464D01*
X379591Y136484D01*
X379429Y136513D01*
X379368Y136513D01*
X379307Y136520D01*
X379143Y136512D01*
X378979Y136511D01*
X378919Y136500D01*
X378858Y136497D01*
X378698Y136460D01*
X378536Y136430D01*
X378462Y136405D01*
X378419Y136395D01*
X378363Y136371D01*
X378240Y136329D01*
X377213Y135903D01*
X364787Y135903D01*
X362213Y136970D01*
X362148Y137007D01*
X362025Y137051D01*
X361905Y137104D01*
X361813Y137126D01*
X361724Y137158D01*
X361595Y137179D01*
X361468Y137210D01*
X361373Y137216D01*
X361280Y137232D01*
X361149Y137230D01*
X361018Y137238D01*
X360924Y137227D01*
X360830Y137226D01*
X360701Y137201D01*
X360571Y137186D01*
X360480Y137159D01*
X360387Y137141D01*
X360265Y137094D01*
X360140Y137056D01*
X360056Y137013D01*
X359967Y136979D01*
X359855Y136911D01*
X359739Y136851D01*
X359663Y136794D01*
X359582Y136745D01*
X359484Y136658D01*
X359380Y136579D01*
X359316Y136510D01*
X359245Y136447D01*
X359163Y136344D01*
X359075Y136248D01*
X359024Y136168D01*
X358965Y136094D01*
X358903Y135979D01*
X358833Y135868D01*
X358797Y135781D01*
X358752Y135697D01*
X358712Y135573D01*
X358662Y135452D01*
X358642Y135359D01*
X358613Y135269D01*
X358595Y135140D01*
X358567Y135012D01*
X358559Y134884D01*
X358551Y134823D01*
X358553Y134778D01*
X358548Y134700D01*
X358548Y127724D01*
X357540Y125290D01*
X357534Y125280D01*
X357446Y125141D01*
X357423Y125085D01*
X357392Y125032D01*
X357337Y124877D01*
X357275Y124725D01*
X357262Y124665D01*
X357242Y124608D01*
X357215Y124446D01*
X357180Y124284D01*
X357175Y124208D01*
X357168Y124164D01*
X357169Y124103D01*
X357161Y123973D01*
X357161Y75379D01*
X355614Y71644D01*
X354822Y70853D01*
X354717Y70727D01*
X354605Y70606D01*
X354573Y70554D01*
X354534Y70508D01*
X354452Y70365D01*
X354364Y70226D01*
X354340Y70170D01*
X354310Y70117D01*
X354255Y69962D01*
X354193Y69810D01*
X354180Y69750D01*
X354159Y69692D01*
X354132Y69530D01*
X354098Y69369D01*
X354093Y69292D01*
X354086Y69248D01*
X354087Y69187D01*
X354079Y69057D01*
X354079Y64003D01*
X345597Y55521D01*
X333603Y55521D01*
X330028Y59096D01*
X329903Y59201D01*
X329781Y59313D01*
X329730Y59345D01*
X329683Y59384D01*
X329541Y59466D01*
X329402Y59554D01*
X329345Y59578D01*
X329292Y59608D01*
X329137Y59663D01*
X328985Y59725D01*
X328925Y59738D01*
X328868Y59759D01*
X328706Y59785D01*
X328545Y59820D01*
X328468Y59825D01*
X328424Y59832D01*
X328363Y59831D01*
X328233Y59839D01*
X300761Y59839D01*
X300597Y59825D01*
X300432Y59818D01*
X300373Y59805D01*
X300312Y59799D01*
X300153Y59756D01*
X299993Y59720D01*
X299936Y59697D01*
X299878Y59681D01*
X299730Y59610D01*
X299577Y59547D01*
X299526Y59514D01*
X299471Y59487D01*
X299338Y59392D01*
X299199Y59302D01*
X299141Y59251D01*
X299105Y59225D01*
X299062Y59182D01*
X298965Y59096D01*
X297340Y57471D01*
X297235Y57345D01*
X297123Y57224D01*
X297091Y57172D01*
X297052Y57126D01*
X296970Y56983D01*
X296882Y56844D01*
X296858Y56788D01*
X296828Y56735D01*
X296773Y56580D01*
X296711Y56428D01*
X296698Y56368D01*
X296677Y56310D01*
X296651Y56148D01*
X296616Y55987D01*
X296611Y55910D01*
X296604Y55866D01*
X296605Y55805D01*
X296597Y55675D01*
X296597Y46287D01*
X295669Y44046D01*
X293954Y42331D01*
X291713Y41403D01*
X272287Y41403D01*
X270046Y42331D01*
X268331Y44046D01*
X267403Y46287D01*
X267403Y57049D01*
X267396Y57131D01*
X267398Y57213D01*
X267376Y57355D01*
X267363Y57498D01*
X267342Y57577D01*
X267329Y57658D01*
X267283Y57794D01*
X267245Y57932D01*
X267209Y58006D01*
X267183Y58084D01*
X267113Y58209D01*
X267051Y58339D01*
X267004Y58405D01*
X266963Y58477D01*
X266873Y58588D01*
X266789Y58705D01*
X266730Y58762D01*
X266678Y58826D01*
X266569Y58919D01*
X266467Y59019D01*
X266398Y59065D01*
X266336Y59118D01*
X266212Y59191D01*
X266094Y59271D01*
X266018Y59304D01*
X265947Y59346D01*
X265813Y59395D01*
X265682Y59453D01*
X265602Y59473D01*
X265524Y59501D01*
X265383Y59526D01*
X265244Y59560D01*
X265162Y59565D01*
X265081Y59579D01*
X264938Y59579D01*
X264795Y59587D01*
X264713Y59578D01*
X264631Y59578D01*
X264490Y59552D01*
X264348Y59535D01*
X264269Y59511D01*
X264188Y59497D01*
X263955Y59416D01*
X263917Y59405D01*
X263907Y59400D01*
X263892Y59395D01*
X259981Y57775D01*
X259877Y57721D01*
X259769Y57676D01*
X259678Y57617D01*
X259582Y57566D01*
X259489Y57495D01*
X259391Y57431D01*
X259275Y57329D01*
X259226Y57291D01*
X259201Y57264D01*
X259157Y57224D01*
X253180Y51247D01*
X249819Y49855D01*
X242764Y49855D01*
X242682Y49848D01*
X242599Y49850D01*
X242458Y49828D01*
X242315Y49815D01*
X242236Y49794D01*
X242154Y49781D01*
X242019Y49735D01*
X241881Y49697D01*
X241807Y49661D01*
X241729Y49635D01*
X241603Y49565D01*
X241474Y49503D01*
X241407Y49456D01*
X241335Y49415D01*
X241225Y49325D01*
X241108Y49241D01*
X241051Y49182D01*
X240987Y49130D01*
X240894Y49021D01*
X240794Y48919D01*
X240748Y48850D01*
X240694Y48788D01*
X240622Y48664D01*
X240542Y48546D01*
X240509Y48470D01*
X240467Y48399D01*
X240418Y48265D01*
X240360Y48134D01*
X240340Y48054D01*
X240312Y47976D01*
X240287Y47835D01*
X240253Y47696D01*
X240248Y47614D01*
X240234Y47533D01*
X240234Y47390D01*
X240225Y47247D01*
X240235Y47165D01*
X240235Y47083D01*
X240261Y46942D01*
X240278Y46800D01*
X240301Y46721D01*
X240316Y46640D01*
X240396Y46407D01*
X240408Y46369D01*
X240413Y46359D01*
X240418Y46344D01*
X242129Y42214D01*
X242129Y37786D01*
X240435Y33696D01*
X237304Y30565D01*
X233214Y28871D01*
X228786Y28871D01*
X224463Y30662D01*
X224352Y30697D01*
X224244Y30741D01*
X224137Y30764D01*
X224034Y30797D01*
X223918Y30811D01*
X223803Y30836D01*
X223649Y30846D01*
X223587Y30853D01*
X223551Y30852D01*
X223491Y30855D01*
X181181Y30855D01*
X177820Y32247D01*
X162006Y48061D01*
X161906Y48145D01*
X161813Y48235D01*
X161734Y48289D01*
X161661Y48350D01*
X161548Y48415D01*
X161440Y48487D01*
X161353Y48526D01*
X161270Y48573D01*
X161148Y48617D01*
X161029Y48670D01*
X160936Y48692D01*
X160846Y48724D01*
X160717Y48745D01*
X160591Y48776D01*
X160496Y48782D01*
X160401Y48798D01*
X160271Y48796D01*
X160142Y48804D01*
X160047Y48793D01*
X159951Y48792D01*
X159824Y48767D01*
X159694Y48752D01*
X159603Y48724D01*
X159509Y48706D01*
X159388Y48659D01*
X159263Y48622D01*
X159178Y48578D01*
X159089Y48544D01*
X158978Y48476D01*
X158862Y48417D01*
X158786Y48360D01*
X158704Y48310D01*
X158607Y48224D01*
X158503Y48145D01*
X158439Y48075D01*
X158367Y48012D01*
X158286Y47910D01*
X158198Y47814D01*
X158147Y47733D01*
X158088Y47659D01*
X158026Y47544D01*
X157956Y47434D01*
X157920Y47346D01*
X157875Y47262D01*
X157835Y47138D01*
X157785Y47018D01*
X157765Y46924D01*
X157736Y46833D01*
X157718Y46705D01*
X157691Y46578D01*
X157683Y46448D01*
X157674Y46387D01*
X157676Y46343D01*
X157671Y46266D01*
X157671Y45479D01*
X157262Y44489D01*
X157213Y44333D01*
X157156Y44178D01*
X157145Y44118D01*
X157127Y44060D01*
X157106Y43897D01*
X157078Y43735D01*
X157078Y43674D01*
X157070Y43613D01*
X157079Y43449D01*
X157079Y43284D01*
X157090Y43224D01*
X157093Y43163D01*
X157130Y43004D01*
X157160Y42841D01*
X157185Y42768D01*
X157195Y42725D01*
X157219Y42669D01*
X157262Y42546D01*
X157897Y41013D01*
X157897Y28587D01*
X156969Y26347D01*
X156318Y25696D01*
X156243Y25606D01*
X156161Y25524D01*
X156099Y25434D01*
X156029Y25351D01*
X155971Y25249D01*
X155905Y25153D01*
X155837Y25015D01*
X155806Y24960D01*
X155794Y24926D01*
X155768Y24872D01*
X154327Y21395D01*
X150310Y17377D01*
X148888Y15955D01*
X148805Y15857D01*
X148715Y15764D01*
X148661Y15684D01*
X148599Y15610D01*
X148535Y15498D01*
X148463Y15391D01*
X148424Y15303D01*
X148376Y15219D01*
X148332Y15097D01*
X148280Y14980D01*
X148257Y14886D01*
X148225Y14795D01*
X148204Y14668D01*
X148173Y14542D01*
X148167Y14446D01*
X148151Y14350D01*
X148153Y14222D01*
X148145Y14093D01*
X148156Y13997D01*
X148157Y13900D01*
X148182Y13773D01*
X148197Y13646D01*
X148225Y13553D01*
X148243Y13458D01*
X148289Y13338D01*
X148326Y13215D01*
X148370Y13128D01*
X148405Y13038D01*
X148472Y12928D01*
X148530Y12813D01*
X148589Y12736D01*
X148639Y12653D01*
X148725Y12557D01*
X148802Y12454D01*
X148873Y12389D01*
X148937Y12316D01*
X149038Y12236D01*
X149133Y12149D01*
X149214Y12097D01*
X149290Y12037D01*
X149404Y11976D01*
X149513Y11906D01*
X149602Y11870D01*
X149687Y11824D01*
X149810Y11784D01*
X149929Y11735D01*
X150024Y11715D01*
X150115Y11685D01*
X150243Y11667D01*
X150369Y11640D01*
X150501Y11632D01*
X150562Y11623D01*
X150605Y11625D01*
X150681Y11620D01*
X660911Y11127D01*
X660945Y11130D01*
G37*
G36*
X132199Y31348D02*
X132199Y31348D01*
X132233Y31346D01*
X132422Y31368D01*
X132613Y31385D01*
X132646Y31394D01*
X132680Y31398D01*
X132863Y31453D01*
X133047Y31503D01*
X133078Y31518D01*
X133111Y31528D01*
X133282Y31615D01*
X133454Y31697D01*
X133482Y31717D01*
X133513Y31732D01*
X133665Y31848D01*
X133820Y31959D01*
X133844Y31984D01*
X133871Y32004D01*
X134000Y32144D01*
X134134Y32281D01*
X134153Y32310D01*
X134177Y32336D01*
X134279Y32497D01*
X134386Y32654D01*
X134400Y32686D01*
X134418Y32715D01*
X134491Y32892D01*
X134568Y33066D01*
X134576Y33100D01*
X134589Y33132D01*
X134629Y33319D01*
X134675Y33504D01*
X134677Y33538D01*
X134684Y33572D01*
X134703Y33884D01*
X134703Y38056D01*
X134700Y38090D01*
X134702Y38125D01*
X134680Y38314D01*
X134663Y38504D01*
X134654Y38538D01*
X134650Y38572D01*
X134595Y38755D01*
X134545Y38939D01*
X134530Y38970D01*
X134520Y39003D01*
X134433Y39173D01*
X134351Y39345D01*
X134331Y39373D01*
X134316Y39404D01*
X134200Y39556D01*
X134089Y39711D01*
X134064Y39735D01*
X134044Y39763D01*
X133904Y39892D01*
X133767Y40025D01*
X133738Y40045D01*
X133712Y40068D01*
X133551Y40171D01*
X133394Y40277D01*
X133362Y40291D01*
X133333Y40310D01*
X133156Y40382D01*
X132982Y40460D01*
X132948Y40468D01*
X132916Y40481D01*
X132729Y40521D01*
X132544Y40566D01*
X132510Y40568D01*
X132476Y40576D01*
X132164Y40595D01*
X123362Y40595D01*
X121121Y41523D01*
X120341Y42303D01*
X120215Y42409D01*
X120094Y42520D01*
X120043Y42553D01*
X119996Y42592D01*
X119853Y42674D01*
X119714Y42762D01*
X119658Y42785D01*
X119605Y42815D01*
X119450Y42870D01*
X119298Y42933D01*
X119238Y42946D01*
X119181Y42966D01*
X119019Y42993D01*
X118858Y43028D01*
X118780Y43032D01*
X118736Y43040D01*
X118676Y43039D01*
X118546Y43047D01*
X118171Y43047D01*
X118055Y43037D01*
X117938Y43036D01*
X117831Y43017D01*
X117723Y43007D01*
X117610Y42976D01*
X117495Y42955D01*
X117349Y42905D01*
X117288Y42888D01*
X117256Y42873D01*
X117199Y42854D01*
X116738Y42663D01*
X104313Y42663D01*
X102072Y43591D01*
X100357Y45306D01*
X99429Y47547D01*
X99429Y60972D01*
X99783Y61826D01*
X99818Y61937D01*
X99862Y62046D01*
X99885Y62152D01*
X99917Y62256D01*
X99932Y62372D01*
X99957Y62486D01*
X99966Y62640D01*
X99974Y62702D01*
X99972Y62739D01*
X99976Y62798D01*
X99976Y104940D01*
X101368Y108301D01*
X110820Y117753D01*
X111156Y117892D01*
X111344Y117990D01*
X111533Y118086D01*
X111544Y118094D01*
X111555Y118100D01*
X111723Y118231D01*
X111892Y118358D01*
X111901Y118368D01*
X111911Y118376D01*
X112053Y118534D01*
X112197Y118689D01*
X112204Y118701D01*
X112213Y118710D01*
X112325Y118890D01*
X112439Y119069D01*
X112444Y119081D01*
X112451Y119093D01*
X112529Y119289D01*
X112610Y119486D01*
X112613Y119499D01*
X112618Y119511D01*
X112660Y119718D01*
X112705Y119926D01*
X112706Y119942D01*
X112708Y119952D01*
X112709Y119991D01*
X112724Y120238D01*
X112724Y127217D01*
X112713Y127333D01*
X112713Y127450D01*
X112694Y127557D01*
X112684Y127665D01*
X112676Y127695D01*
X112676Y143316D01*
X112673Y143351D01*
X112675Y143385D01*
X112653Y143574D01*
X112636Y143765D01*
X112627Y143798D01*
X112623Y143832D01*
X112568Y144015D01*
X112517Y144199D01*
X112503Y144230D01*
X112493Y144263D01*
X112406Y144434D01*
X112324Y144606D01*
X112304Y144634D01*
X112288Y144665D01*
X112173Y144817D01*
X112062Y144972D01*
X112037Y144996D01*
X112016Y145023D01*
X111876Y145152D01*
X111739Y145286D01*
X111711Y145305D01*
X111685Y145329D01*
X111524Y145431D01*
X111366Y145538D01*
X111335Y145552D01*
X111305Y145570D01*
X111129Y145643D01*
X110954Y145720D01*
X110921Y145728D01*
X110889Y145741D01*
X110702Y145781D01*
X110517Y145827D01*
X110482Y145829D01*
X110449Y145836D01*
X110137Y145855D01*
X96840Y145855D01*
X96676Y145841D01*
X96512Y145834D01*
X96452Y145821D01*
X96391Y145815D01*
X96232Y145772D01*
X96072Y145736D01*
X96016Y145713D01*
X95957Y145697D01*
X95809Y145626D01*
X95657Y145563D01*
X95605Y145530D01*
X95550Y145503D01*
X95417Y145408D01*
X95278Y145318D01*
X95221Y145267D01*
X95184Y145241D01*
X95142Y145198D01*
X95044Y145112D01*
X84888Y134956D01*
X84783Y134830D01*
X84671Y134709D01*
X84639Y134657D01*
X84600Y134610D01*
X84518Y134468D01*
X84430Y134329D01*
X84406Y134272D01*
X84376Y134220D01*
X84321Y134065D01*
X84259Y133912D01*
X84246Y133853D01*
X84225Y133795D01*
X84199Y133633D01*
X84164Y133472D01*
X84159Y133395D01*
X84152Y133351D01*
X84153Y133290D01*
X84145Y133160D01*
X84145Y122481D01*
X82753Y119120D01*
X60180Y96547D01*
X56819Y95155D01*
X53823Y95155D01*
X53611Y95136D01*
X53400Y95120D01*
X53388Y95117D01*
X53374Y95115D01*
X53170Y95060D01*
X52965Y95006D01*
X52953Y95000D01*
X52940Y94997D01*
X52750Y94907D01*
X52556Y94817D01*
X52545Y94809D01*
X52533Y94803D01*
X52361Y94680D01*
X52187Y94558D01*
X52178Y94549D01*
X52167Y94541D01*
X52019Y94389D01*
X51870Y94239D01*
X51863Y94228D01*
X51853Y94219D01*
X51734Y94043D01*
X51614Y93869D01*
X51607Y93854D01*
X51601Y93846D01*
X51585Y93810D01*
X51477Y93588D01*
X51170Y92845D01*
X49455Y91130D01*
X47214Y90202D01*
X31084Y90202D01*
X31049Y90199D01*
X31015Y90201D01*
X30826Y90179D01*
X30635Y90162D01*
X30602Y90153D01*
X30568Y90149D01*
X30385Y90094D01*
X30201Y90044D01*
X30170Y90029D01*
X30137Y90019D01*
X29966Y89932D01*
X29794Y89850D01*
X29766Y89830D01*
X29735Y89815D01*
X29583Y89699D01*
X29428Y89588D01*
X29404Y89563D01*
X29377Y89543D01*
X29248Y89403D01*
X29114Y89266D01*
X29095Y89237D01*
X29071Y89211D01*
X28969Y89050D01*
X28862Y88893D01*
X28848Y88861D01*
X28830Y88832D01*
X28757Y88655D01*
X28680Y88481D01*
X28672Y88447D01*
X28659Y88415D01*
X28619Y88228D01*
X28573Y88043D01*
X28571Y88009D01*
X28564Y87975D01*
X28545Y87663D01*
X28545Y70437D01*
X28548Y70402D01*
X28546Y70368D01*
X28568Y70179D01*
X28585Y69988D01*
X28594Y69955D01*
X28598Y69921D01*
X28653Y69738D01*
X28703Y69554D01*
X28718Y69523D01*
X28728Y69490D01*
X28815Y69319D01*
X28897Y69147D01*
X28917Y69119D01*
X28932Y69088D01*
X29048Y68936D01*
X29159Y68781D01*
X29184Y68757D01*
X29204Y68730D01*
X29344Y68601D01*
X29481Y68467D01*
X29510Y68448D01*
X29536Y68424D01*
X29697Y68322D01*
X29854Y68215D01*
X29886Y68201D01*
X29915Y68183D01*
X30092Y68110D01*
X30266Y68033D01*
X30300Y68025D01*
X30332Y68012D01*
X30519Y67972D01*
X30704Y67926D01*
X30738Y67924D01*
X30772Y67917D01*
X31084Y67898D01*
X46514Y67898D01*
X48755Y66970D01*
X50470Y65255D01*
X51398Y63014D01*
X51398Y44586D01*
X50360Y42081D01*
X50296Y41875D01*
X50230Y41675D01*
X50229Y41663D01*
X50225Y41651D01*
X50198Y41438D01*
X50169Y41228D01*
X50170Y41217D01*
X50168Y41205D01*
X50179Y40992D01*
X50188Y40779D01*
X50191Y40767D01*
X50192Y40755D01*
X50239Y40549D01*
X50286Y40339D01*
X50291Y40328D01*
X50294Y40316D01*
X50371Y40137D01*
X50376Y40121D01*
X51498Y37414D01*
X51498Y33884D01*
X51501Y33849D01*
X51499Y33815D01*
X51521Y33626D01*
X51538Y33435D01*
X51547Y33402D01*
X51551Y33368D01*
X51606Y33185D01*
X51656Y33001D01*
X51671Y32970D01*
X51681Y32937D01*
X51768Y32766D01*
X51850Y32594D01*
X51870Y32566D01*
X51885Y32535D01*
X52001Y32383D01*
X52112Y32228D01*
X52137Y32204D01*
X52157Y32177D01*
X52297Y32048D01*
X52434Y31914D01*
X52463Y31895D01*
X52489Y31871D01*
X52650Y31769D01*
X52807Y31662D01*
X52839Y31648D01*
X52868Y31630D01*
X53045Y31557D01*
X53219Y31480D01*
X53253Y31472D01*
X53285Y31459D01*
X53472Y31419D01*
X53657Y31373D01*
X53691Y31371D01*
X53725Y31364D01*
X54037Y31345D01*
X132164Y31345D01*
X132199Y31348D01*
G37*
%LPC*%
G36*
X460039Y55599D02*
X460039Y55599D01*
X452599Y63039D01*
X452599Y73561D01*
X460039Y81001D01*
X470561Y81001D01*
X476204Y75357D01*
X476231Y75335D01*
X476254Y75309D01*
X476403Y75191D01*
X476550Y75068D01*
X476580Y75051D01*
X476607Y75029D01*
X476775Y74939D01*
X476941Y74845D01*
X476973Y74833D01*
X477004Y74817D01*
X477185Y74758D01*
X477365Y74694D01*
X477399Y74688D01*
X477432Y74678D01*
X477621Y74652D01*
X477809Y74621D01*
X477844Y74621D01*
X477878Y74616D01*
X478069Y74624D01*
X478259Y74627D01*
X478294Y74633D01*
X478328Y74635D01*
X478514Y74676D01*
X478702Y74712D01*
X478734Y74725D01*
X478768Y74732D01*
X478944Y74806D01*
X479122Y74874D01*
X479151Y74892D01*
X479183Y74906D01*
X479343Y75009D01*
X479506Y75108D01*
X479532Y75131D01*
X479561Y75150D01*
X479796Y75357D01*
X485439Y81001D01*
X495961Y81001D01*
X503401Y73561D01*
X503401Y63039D01*
X495961Y55599D01*
X485439Y55599D01*
X479796Y61243D01*
X479769Y61265D01*
X479746Y61291D01*
X479597Y61409D01*
X479450Y61532D01*
X479420Y61549D01*
X479393Y61571D01*
X479225Y61661D01*
X479059Y61755D01*
X479027Y61767D01*
X478996Y61783D01*
X478815Y61842D01*
X478635Y61906D01*
X478601Y61912D01*
X478568Y61922D01*
X478379Y61948D01*
X478191Y61980D01*
X478156Y61979D01*
X478122Y61984D01*
X477931Y61976D01*
X477740Y61973D01*
X477706Y61967D01*
X477672Y61965D01*
X477486Y61924D01*
X477298Y61888D01*
X477266Y61875D01*
X477232Y61868D01*
X477057Y61794D01*
X476878Y61726D01*
X476849Y61707D01*
X476817Y61694D01*
X476657Y61591D01*
X476494Y61492D01*
X476468Y61469D01*
X476439Y61450D01*
X476204Y61243D01*
X470561Y55599D01*
X460039Y55599D01*
G37*
%LPD*%
D10*
X674173Y455655D02*
X6400Y455900D01*
X5600Y1600D01*
X673600Y3000D02*
X674173Y455655D01*
X672573Y955D02*
X5600Y1600D01*
D11*
X110526Y37259D03*
X110526Y54259D03*
D12*
X284759Y303261D03*
D13*
X261414Y303135D03*
D14*
X121821Y77657D03*
X121821Y129657D03*
X109121Y77657D03*
X134521Y77657D03*
X147221Y77657D03*
X109121Y129657D03*
X134521Y129657D03*
X147221Y129657D03*
X172621Y77657D03*
X172621Y129657D03*
X159921Y77657D03*
X185321Y77657D03*
X159921Y129657D03*
X185321Y129657D03*
D15*
X346451Y131737D03*
X346451Y144437D03*
X346451Y157137D03*
X346451Y169837D03*
X346451Y182537D03*
X346451Y195237D03*
X346451Y207937D03*
X346451Y220637D03*
X281651Y220637D03*
X281651Y207937D03*
X281651Y195237D03*
X281651Y182537D03*
X281651Y169837D03*
X281651Y157137D03*
X281651Y144437D03*
X281651Y131737D03*
D11*
X404412Y213197D03*
X387412Y213197D03*
X238219Y122162D03*
X255219Y122162D03*
X238942Y151788D03*
X255942Y151788D03*
X238636Y180076D03*
X255636Y180076D03*
X256301Y208508D03*
X239301Y208508D03*
X404370Y176404D03*
X387370Y176404D03*
X405554Y147032D03*
X388554Y147032D03*
X129575Y52192D03*
X146575Y52192D03*
D16*
X588544Y95038D03*
X637823Y282856D03*
X637407Y426307D03*
X639655Y338724D03*
X636854Y383530D03*
X588261Y149381D03*
X639075Y67512D03*
X637072Y122226D03*
D17*
X406500Y401427D03*
D18*
X504400Y381027D03*
D17*
X543100Y260527D03*
D19*
X567900Y380027D03*
D17*
X433000Y260527D03*
D18*
X463000Y380527D03*
D19*
X567900Y413027D03*
D20*
X129300Y34800D03*
X146300Y34800D03*
D21*
X38000Y104300D03*
X38200Y130300D03*
X37400Y28200D03*
X37300Y79900D03*
X37300Y53800D03*
D22*
X41850Y246700D03*
X115350Y246700D03*
D20*
X86100Y307000D03*
X86100Y290000D03*
D23*
X202990Y324400D02*
X218230Y324400D01*
X220770Y400600D02*
X236010Y400600D01*
D24*
X331261Y291041D03*
D25*
X331135Y314386D03*
D26*
X159100Y427600D03*
X159100Y376800D03*
D27*
X263000Y402500D03*
X263000Y351500D03*
X353000Y351500D03*
X353000Y402500D03*
D28*
X111600Y318000D03*
X162400Y318000D03*
D12*
X52759Y175061D03*
D13*
X29414Y174935D03*
D29*
X184396Y209950D02*
X197604Y209950D01*
X197604Y248050D02*
X184396Y248050D01*
X70950Y400396D02*
X70950Y413604D01*
X109050Y413604D02*
X109050Y400396D01*
D16*
X637000Y177000D03*
D30*
X52901Y359237D03*
X52901Y312237D03*
D16*
X585000Y203000D03*
D28*
X339600Y70000D03*
X390400Y70000D03*
D31*
X282000Y97500D03*
X282000Y56500D03*
D11*
X371000Y130500D03*
X371000Y147500D03*
X371000Y162500D03*
X371000Y179500D03*
X371000Y195500D03*
X371000Y212500D03*
D32*
X465300Y93700D03*
X465300Y68300D03*
X490700Y68300D03*
D33*
X159100Y321300D02*
X159100Y376800D01*
X159100Y321300D02*
X162400Y318000D01*
X168800Y324400D02*
X210610Y324400D01*
X168800Y324400D02*
X162400Y318000D01*
X263000Y330000D02*
X263000Y351500D01*
X263000Y330000D02*
X263000Y304721D01*
X261414Y303135D01*
D34*
X322763Y195237D02*
X346451Y195237D01*
X322763Y195237D02*
X313000Y205000D01*
X313000Y221000D01*
X303237Y195237D02*
X281651Y195237D01*
X303237Y195237D02*
X309500Y201500D01*
X313000Y205000D01*
X312637Y220637D02*
X281651Y220637D01*
X312637Y220637D02*
X313000Y221000D01*
X313363Y220637D02*
X346451Y220637D01*
X313363Y220637D02*
X313000Y221000D01*
X305837Y169837D02*
X281651Y169837D01*
X305837Y169837D02*
X313000Y177000D01*
X313000Y198000D01*
X309500Y201500D01*
X320163Y169837D02*
X346451Y169837D01*
X320163Y169837D02*
X316000Y174000D01*
X313000Y177000D01*
X302000Y144437D02*
X281651Y144437D01*
X302000Y144437D02*
X306437Y144437D01*
X313000Y151000D01*
X313000Y171000D01*
X316000Y174000D01*
X319563Y144437D02*
X346451Y144437D01*
X319563Y144437D02*
X313000Y151000D01*
D35*
X346451Y195237D02*
X370737Y195237D01*
X371000Y195500D01*
X357163Y169837D02*
X346451Y169837D01*
X364500Y162500D02*
X371000Y162500D01*
X364500Y162500D02*
X357163Y169837D01*
X351563Y144437D02*
X346451Y144437D01*
X365500Y130500D02*
X371000Y130500D01*
X365500Y130500D02*
X351563Y144437D01*
X112985Y34800D02*
X110526Y37259D01*
X112985Y34800D02*
X129300Y34800D01*
X97000Y117536D02*
X109121Y129657D01*
X97000Y44000D02*
X105000Y36000D01*
X106259Y37259D01*
X110526Y37259D01*
X97000Y71000D02*
X97000Y117536D01*
X97000Y71000D02*
X97000Y44000D01*
X486000Y243000D02*
X487000Y243000D01*
D36*
X486000Y243000D03*
D37*
X263000Y351500D02*
X237710Y351500D01*
X210610Y324400D01*
D34*
X263000Y330000D02*
X297000Y330000D01*
X309000Y318000D01*
X309000Y246000D01*
X313363Y241637D02*
X313363Y220637D01*
X313363Y241637D02*
X309000Y246000D01*
D36*
X447000Y294000D03*
D34*
X302000Y144437D02*
X300000Y142437D01*
D35*
X88100Y79900D02*
X37300Y79900D01*
X88100Y79900D02*
X97000Y71000D01*
D34*
X447000Y294000D02*
X486000Y255000D01*
X486000Y243000D01*
D35*
X371000Y130500D02*
X371000Y89400D01*
X390400Y70000D01*
D34*
X300000Y115500D02*
X282000Y97500D01*
X300000Y115500D02*
X300000Y142437D01*
X239301Y208508D02*
X192442Y208508D01*
X191000Y209950D01*
X205076Y180076D02*
X238636Y180076D01*
X205076Y180076D02*
X205000Y180000D01*
D36*
X205076Y180076D03*
D34*
X206212Y151788D02*
X238942Y151788D01*
D36*
X206212Y151788D03*
D34*
X207162Y122162D02*
X238219Y122162D01*
X207162Y122162D02*
X207000Y122000D01*
D36*
X207162Y122162D03*
D35*
X109121Y103121D02*
X109121Y77657D01*
X109121Y103121D02*
X116000Y110000D01*
X195000Y110000D01*
X207162Y122162D01*
X112593Y52192D02*
X110526Y54259D01*
X112593Y52192D02*
X129575Y52192D01*
X109121Y55664D02*
X109121Y77657D01*
X109121Y55664D02*
X110526Y54259D01*
X35698Y158000D02*
X52759Y175061D01*
X35698Y158000D02*
X27000Y158000D01*
X19400Y150000D01*
X27200Y53800D02*
X37300Y53800D01*
X27200Y53800D02*
X19400Y62000D01*
X19400Y150000D01*
D33*
X115350Y246700D02*
X148700Y246700D01*
X188000Y286000D01*
X238000Y286000D01*
X249000Y275000D01*
X274000Y275000D01*
X285000Y286000D01*
X284759Y286241D01*
X284759Y303261D01*
D36*
X85000Y260000D03*
D34*
X98300Y246700D02*
X115350Y246700D01*
X98300Y246700D02*
X85000Y260000D01*
D35*
X404412Y213197D02*
X415804Y213197D01*
X419000Y210000D01*
X418596Y176404D02*
X404370Y176404D01*
X418596Y176404D02*
X420000Y176000D01*
X408522Y150000D02*
X405554Y147032D01*
X408522Y150000D02*
X421000Y150000D01*
D36*
X420000Y176000D03*
X419000Y210000D03*
X421000Y150000D03*
D34*
X396000Y254000D02*
X368302Y254000D01*
D36*
X396000Y254000D03*
D34*
X368302Y254000D02*
X331261Y291041D01*
X346451Y131737D02*
X347000Y131188D01*
X347000Y77400D02*
X339600Y70000D01*
X347000Y77400D02*
X347000Y131188D01*
X295500Y70000D02*
X282000Y56500D01*
X295500Y70000D02*
X339600Y70000D01*
D35*
X346451Y157137D02*
X353863Y157137D01*
X363500Y147500D02*
X371000Y147500D01*
X363500Y147500D02*
X353863Y157137D01*
X371000Y147500D02*
X388086Y147500D01*
X388554Y147032D01*
X388554Y155554D01*
X394000Y161000D01*
X490000Y161000D01*
X562000Y67000D02*
X638563Y67000D01*
X639075Y67512D01*
X562000Y67000D02*
X514000Y115000D01*
X514000Y137000D02*
X490000Y161000D01*
X514000Y137000D02*
X514000Y115000D01*
X354937Y207937D02*
X346451Y207937D01*
X354937Y207937D02*
X361000Y214000D01*
X369500Y214000D01*
X371000Y212500D01*
X386716Y212500D01*
X387412Y213197D01*
X613000Y167000D02*
X613000Y146298D01*
X637072Y122226D01*
X387412Y213197D02*
X387412Y220412D01*
X393000Y226000D01*
X613000Y223000D02*
X613000Y167000D01*
X532000Y236000D02*
X522000Y226000D01*
X532000Y236000D02*
X600000Y236000D01*
X522000Y226000D02*
X393000Y226000D01*
X600000Y236000D02*
X613000Y223000D01*
X255942Y143942D02*
X249000Y137000D01*
X255942Y143942D02*
X255942Y151788D01*
D34*
X261290Y157137D02*
X281651Y157137D01*
X261290Y157137D02*
X255942Y151788D01*
D35*
X185321Y129657D02*
X185000Y129977D01*
X185321Y129657D02*
X192664Y137000D01*
X249000Y137000D01*
D34*
X258097Y182537D02*
X281651Y182537D01*
X258097Y182537D02*
X255636Y180076D01*
D35*
X256000Y173000D02*
X248000Y165000D01*
X256000Y173000D02*
X255636Y173364D01*
X255636Y180076D01*
X173000Y130036D02*
X172621Y129657D01*
X173000Y150000D02*
X188000Y165000D01*
X173000Y150000D02*
X173000Y130036D01*
X188000Y165000D02*
X248000Y165000D01*
X147221Y52837D02*
X146575Y52192D01*
X147221Y52837D02*
X147221Y77657D01*
X146575Y35075D02*
X146300Y34800D01*
X146575Y35075D02*
X146575Y52192D01*
X146575Y35075D02*
X146575Y26575D01*
X142200Y22200D01*
X43400Y22200D02*
X37400Y28200D01*
X43400Y22200D02*
X142200Y22200D01*
X147221Y129657D02*
X147221Y158779D01*
X147000Y159000D01*
D36*
X147000Y159000D03*
D37*
X406500Y366500D02*
X406500Y401427D01*
X635379Y343000D02*
X639655Y338724D01*
X430000Y343000D02*
X406500Y366500D01*
X430000Y343000D02*
X574000Y343000D01*
X635379Y343000D01*
D36*
X554000Y222000D03*
X560000Y154000D03*
D34*
X560000Y216000D02*
X554000Y222000D01*
X560000Y216000D02*
X560000Y154000D01*
D33*
X353000Y402500D02*
X351000Y404500D01*
X625469Y438244D02*
X637407Y426307D01*
D37*
X353000Y417000D02*
X353000Y402500D01*
X353000Y417000D02*
X363000Y427000D01*
D36*
X363000Y427000D03*
D33*
X374244Y438244D01*
X625469Y438244D01*
D34*
X281651Y207937D02*
X256872Y207937D01*
X256301Y208508D01*
D35*
X256301Y199301D01*
X252000Y195000D01*
X183000Y195000D01*
X160000Y129736D02*
X159921Y129657D01*
X160000Y172000D02*
X183000Y195000D01*
X160000Y172000D02*
X160000Y129736D01*
X121821Y148179D02*
X115000Y155000D01*
X121821Y148179D02*
X121821Y129657D01*
X55000Y104300D02*
X38000Y104300D01*
X75000Y138000D02*
X92000Y155000D01*
X75000Y138000D02*
X75000Y124300D01*
X55000Y104300D01*
X92000Y155000D02*
X115000Y155000D01*
X127000Y165000D02*
X67900Y165000D01*
X127000Y165000D02*
X134521Y157479D01*
X134521Y129657D01*
X38200Y130300D02*
X38200Y135300D01*
X67900Y165000D01*
D33*
X79550Y283450D02*
X86100Y290000D01*
X79550Y283450D02*
X42800Y246700D01*
X41850Y246700D01*
D34*
X272077Y122162D02*
X281651Y131737D01*
X272077Y122162D02*
X255219Y122162D01*
D35*
X121821Y91821D02*
X121821Y77657D01*
X121821Y91821D02*
X130000Y100000D01*
X255219Y116219D02*
X255219Y122162D01*
X255219Y116219D02*
X239000Y100000D01*
X130000Y100000D01*
D33*
X80863Y312237D02*
X52901Y312237D01*
X80863Y312237D02*
X86100Y307000D01*
X52901Y388951D02*
X70950Y407000D01*
X52901Y388951D02*
X52901Y359237D01*
D35*
X159921Y77657D02*
X159921Y63079D01*
D36*
X231000Y40000D03*
D35*
X183000Y40000D01*
X159921Y63079D01*
D36*
X258000Y69000D03*
D35*
X172621Y65379D02*
X172621Y77657D01*
X172621Y65379D02*
X179000Y59000D01*
X248000Y59000D01*
X258000Y69000D01*
D33*
X261100Y400600D02*
X263000Y402500D01*
X201390Y427600D02*
X159100Y427600D01*
X201390Y427600D02*
X228390Y400600D01*
X129650Y427600D02*
X109050Y407000D01*
X129650Y427600D02*
X159100Y427600D01*
X111600Y404450D02*
X111600Y318000D01*
X111600Y404450D02*
X109050Y407000D01*
D37*
X230290Y402500D02*
X263000Y402500D01*
X230290Y402500D02*
X228390Y400600D01*
D36*
X260000Y104000D03*
D35*
X244657Y77657D02*
X185321Y77657D01*
X260000Y93000D02*
X260000Y104000D01*
X260000Y93000D02*
X244657Y77657D01*
D37*
X567900Y413027D02*
X589973Y413027D01*
X619470Y383530D02*
X636854Y383530D01*
X619470Y383530D02*
X589973Y413027D01*
D35*
X367963Y182537D02*
X346451Y182537D01*
X367963Y182537D02*
X371000Y179500D01*
X384274Y179500D01*
X387370Y176404D01*
X387370Y185370D01*
X396000Y194000D01*
X485000Y194000D01*
X575881Y137000D02*
X588261Y149381D01*
X575881Y137000D02*
X542000Y137000D01*
X485000Y194000D01*
D38*
X580144Y282856D02*
X637823Y282856D01*
X549000Y314000D02*
X389000Y314000D01*
X353000Y350000D01*
X353000Y351500D01*
X549000Y314000D02*
X580144Y282856D01*
M02*
