G75*
%MOMM*%
%FSLAX34Y34*%
%LPD*%
%AMOC8*
5,1,8,0,0,1.08239X$1,22.5*%
G01*
%ADD10C,0.000000*%
%ADD11R,1.203200X1.303200*%
%ADD12P,1.594577X8X22.500000*%
%ADD13P,1.594577X8X202.500000*%
%ADD14R,0.803200X2.403200*%
%ADD15R,1.403200X0.763200*%
%ADD16R,3.203200X3.203200*%
%ADD17R,3.703200X3.703200*%
%ADD18R,2.703200X2.703200*%
%ADD19R,3.053200X3.053200*%
%ADD20R,1.303200X1.203200*%
%ADD21R,1.803400X1.803400*%
%ADD22R,3.203200X2.203200*%
%ADD23C,1.727200*%
%ADD24P,1.594577X8X292.500000*%
%ADD25P,1.594577X8X112.500000*%
%ADD26P,2.034460X8X292.500000*%
%ADD27R,2.103200X1.903200*%
%ADD28P,2.034460X8X22.500000*%
%ADD29C,1.524000*%
%ADD30R,3.603200X1.703200*%
%ADD31R,1.903200X2.003200*%
%ADD32P,1.649562X8X292.500000*%
%ADD33C,1.209600*%


D10*
X674173Y455655D02*
X6400Y455900D01*
X5600Y1600D01*
X673600Y3000D02*
X674173Y455655D01*
X672573Y955D02*
X5600Y1600D01*
D11*
X110526Y37259D03*
X110526Y54259D03*
D12*
X284759Y303261D03*
D13*
X261414Y303135D03*
D14*
X121821Y77657D03*
X121821Y129657D03*
X109121Y77657D03*
X134521Y77657D03*
X147221Y77657D03*
X109121Y129657D03*
X134521Y129657D03*
X147221Y129657D03*
X172621Y77657D03*
X172621Y129657D03*
X159921Y77657D03*
X185321Y77657D03*
X159921Y129657D03*
X185321Y129657D03*
D15*
X346451Y131737D03*
X346451Y144437D03*
X346451Y157137D03*
X346451Y169837D03*
X346451Y182537D03*
X346451Y195237D03*
X346451Y207937D03*
X346451Y220637D03*
X281651Y220637D03*
X281651Y207937D03*
X281651Y195237D03*
X281651Y182537D03*
X281651Y169837D03*
X281651Y157137D03*
X281651Y144437D03*
X281651Y131737D03*
D11*
X404412Y213197D03*
X387412Y213197D03*
X238219Y122162D03*
X255219Y122162D03*
X238942Y151788D03*
X255942Y151788D03*
X238636Y180076D03*
X255636Y180076D03*
X256301Y208508D03*
X239301Y208508D03*
X404370Y176404D03*
X387370Y176404D03*
X405554Y147032D03*
X388554Y147032D03*
X129575Y52192D03*
X146575Y52192D03*
D16*
X588544Y95038D03*
X637823Y282856D03*
X637407Y426307D03*
X639655Y338724D03*
X636854Y383530D03*
X588261Y149381D03*
X639075Y67512D03*
X637072Y122226D03*
D17*
X406500Y401427D03*
D18*
X504400Y381027D03*
D17*
X543100Y260527D03*
D19*
X567900Y380027D03*
D17*
X433000Y260527D03*
D18*
X463000Y380527D03*
D19*
X567900Y413027D03*
D20*
X129300Y34800D03*
X146300Y34800D03*
D21*
X38000Y104300D03*
X38200Y130300D03*
X37400Y28200D03*
X37300Y79900D03*
X37300Y53800D03*
D22*
X41850Y246700D03*
X115350Y246700D03*
D20*
X86100Y307000D03*
X86100Y290000D03*
D23*
X202990Y324400D02*
X218230Y324400D01*
X220770Y400600D02*
X236010Y400600D01*
D24*
X331261Y291041D03*
D25*
X331135Y314386D03*
D26*
X159100Y427600D03*
X159100Y376800D03*
D27*
X263000Y402500D03*
X263000Y351500D03*
X353000Y351500D03*
X353000Y402500D03*
D28*
X111600Y318000D03*
X162400Y318000D03*
D12*
X52759Y175061D03*
D13*
X29414Y174935D03*
D29*
X184396Y209950D02*
X197604Y209950D01*
X197604Y248050D02*
X184396Y248050D01*
X70950Y400396D02*
X70950Y413604D01*
X109050Y413604D02*
X109050Y400396D01*
D16*
X637000Y177000D03*
D30*
X52901Y359237D03*
X52901Y312237D03*
D16*
X585000Y203000D03*
D28*
X339600Y70000D03*
X390400Y70000D03*
D31*
X282000Y97500D03*
X282000Y56500D03*
D11*
X371000Y130500D03*
X371000Y147500D03*
X371000Y162500D03*
X371000Y179500D03*
X371000Y195500D03*
X371000Y212500D03*
D32*
X465300Y93700D03*
X465300Y68300D03*
X490700Y68300D03*
D33*
X486000Y243000D03*
X447000Y294000D03*
X205076Y180076D03*
X206212Y151788D03*
X207162Y122162D03*
X85000Y260000D03*
X420000Y176000D03*
X419000Y210000D03*
X421000Y150000D03*
X396000Y254000D03*
X147000Y159000D03*
X554000Y222000D03*
X560000Y154000D03*
X363000Y427000D03*
X231000Y40000D03*
X258000Y69000D03*
X260000Y104000D03*
M02*
