G75*
%MOIN*%
%OFA0B0*%
%FSLAX25Y25*%
%IPPOS*%
%LPD*%
%AMOC8*
5,1,8,0,0,1.08239X$1,22.5*
%
%ADD10C,0.00000*%
%ADD11R,0.03937X0.04331*%
%ADD12OC8,0.05000*%
%ADD13R,0.07087X0.06693*%
%ADD14R,0.02362X0.08661*%
%ADD15R,0.04724X0.02205*%
%ADD16R,0.04331X0.03937*%
%ADD17R,0.11811X0.11811*%
%ADD18OC8,0.05200*%
%ADD19OC8,0.13780*%
%ADD20OC8,0.09843*%
%ADD21R,0.06300X0.06300*%
%ADD22R,0.07874X0.07874*%
%ADD23C,0.02400*%
%ADD24C,0.03962*%
%ADD25C,0.03200*%
%ADD26OC8,0.03962*%
%ADD27C,0.01600*%
%ADD28C,0.04000*%
D10*
X0046060Y0028618D02*
X0306285Y0028364D01*
X0305902Y0028618D02*
X0306285Y0138640D01*
X0046060Y0138894D01*
X0046060Y0028618D01*
D11*
X0135380Y0057414D03*
X0135380Y0064107D03*
X0152349Y0048536D03*
X0159042Y0048536D03*
X0186067Y0049312D03*
X0192760Y0049312D03*
X0228342Y0077981D03*
X0235034Y0077981D03*
X0235018Y0088237D03*
X0228325Y0088237D03*
X0228253Y0098226D03*
X0234946Y0098226D03*
X0234962Y0108381D03*
X0228269Y0108381D03*
X0234052Y0132161D03*
X0240745Y0132161D03*
X0169696Y0105971D03*
X0163003Y0105971D03*
X0164446Y0095905D03*
X0157753Y0095905D03*
D12*
X0250446Y0089696D03*
X0259637Y0089746D03*
X0259440Y0114549D03*
X0250249Y0114500D03*
X0250406Y0063004D03*
X0259597Y0063053D03*
D13*
X0265430Y0130573D03*
X0281572Y0130573D03*
D14*
X0175084Y0078640D03*
X0170084Y0078640D03*
X0165084Y0078640D03*
X0160084Y0078640D03*
X0155084Y0078640D03*
X0150084Y0078640D03*
X0145084Y0078640D03*
X0145084Y0058168D03*
X0150084Y0058168D03*
X0155084Y0058168D03*
X0160084Y0058168D03*
X0165084Y0058168D03*
X0170084Y0058168D03*
X0175084Y0058168D03*
D15*
X0192930Y0078278D03*
X0192930Y0083278D03*
X0192930Y0088278D03*
X0192930Y0093278D03*
X0192930Y0098278D03*
X0192930Y0103278D03*
X0192930Y0108278D03*
X0192930Y0113278D03*
X0218442Y0113278D03*
X0218442Y0108278D03*
X0218442Y0103278D03*
X0218442Y0098278D03*
X0218442Y0093278D03*
X0218442Y0088278D03*
X0218442Y0083278D03*
X0218442Y0078278D03*
D16*
X0183895Y0071746D03*
X0183895Y0065053D03*
X0176055Y0087460D03*
X0176055Y0094153D03*
X0171690Y0043421D03*
X0164997Y0043421D03*
D17*
X0276908Y0040599D03*
X0295064Y0052880D03*
X0276790Y0061738D03*
X0295196Y0083227D03*
X0276746Y0092176D03*
X0295459Y0101418D03*
X0276635Y0110815D03*
X0295360Y0123207D03*
D18*
X0216926Y0067516D03*
X0209426Y0062516D03*
X0216926Y0057516D03*
D19*
X0103393Y0057043D03*
X0057527Y0065626D03*
X0057527Y0110547D03*
X0112606Y0120980D03*
D20*
X0103984Y0099917D03*
X0103787Y0083224D03*
D21*
X0102831Y0035626D03*
X0092753Y0035587D03*
X0082871Y0035587D03*
X0072871Y0035469D03*
X0062635Y0035547D03*
D22*
X0201394Y0124287D03*
X0225607Y0124287D03*
D23*
X0218070Y0123929D02*
X0208931Y0123929D01*
X0208931Y0126327D02*
X0218070Y0126327D01*
X0218070Y0126561D02*
X0218070Y0119634D01*
X0218618Y0118311D01*
X0218851Y0118078D01*
X0208150Y0118078D01*
X0208383Y0118311D01*
X0208931Y0119634D01*
X0208931Y0126561D01*
X0218070Y0126561D01*
X0218070Y0121530D02*
X0208931Y0121530D01*
X0208723Y0119132D02*
X0218278Y0119132D01*
X0223526Y0116750D02*
X0223856Y0116420D01*
X0224404Y0115097D01*
X0224404Y0113657D01*
X0225585Y0114146D01*
X0230954Y0114146D01*
X0231616Y0113872D01*
X0232278Y0114146D01*
X0235567Y0114146D01*
X0233951Y0114816D01*
X0232375Y0116391D01*
X0231501Y0117265D01*
X0230260Y0116750D01*
X0223526Y0116750D01*
X0223543Y0116733D02*
X0232033Y0116733D01*
X0235112Y0114335D02*
X0224404Y0114335D01*
X0218442Y0113278D02*
X0205272Y0113278D01*
X0205418Y0113133D01*
X0205418Y0111925D01*
X0205418Y0106566D01*
X0205272Y0106420D01*
X0205272Y0096471D01*
X0202079Y0093278D01*
X0192930Y0093278D01*
X0186968Y0093078D02*
X0186968Y0093956D01*
X0186358Y0094209D01*
X0181956Y0098611D01*
X0181956Y0098020D01*
X0181643Y0097265D01*
X0181820Y0096837D01*
X0181820Y0093078D01*
X0186968Y0093078D01*
X0185420Y0095147D02*
X0181820Y0095147D01*
X0181759Y0097545D02*
X0183022Y0097545D01*
X0183894Y0103461D02*
X0189077Y0098278D01*
X0192930Y0098278D01*
X0198892Y0098078D02*
X0198892Y0098478D01*
X0200472Y0098478D01*
X0200472Y0098460D01*
X0200091Y0098078D01*
X0198892Y0098078D01*
X0205272Y0096471D02*
X0205424Y0096320D01*
X0205179Y0096075D01*
X0205179Y0085969D01*
X0202487Y0083278D01*
X0192930Y0083278D01*
X0186968Y0083154D02*
X0180974Y0083154D01*
X0181272Y0083452D02*
X0181283Y0083478D01*
X0186968Y0083478D01*
X0186968Y0081460D01*
X0187250Y0080778D01*
X0186968Y0080097D01*
X0186968Y0077235D01*
X0186776Y0077315D01*
X0181013Y0077315D01*
X0179865Y0076839D01*
X0179865Y0077196D01*
X0180068Y0077686D01*
X0180068Y0082360D01*
X0180260Y0082440D01*
X0181272Y0083452D01*
X0180068Y0080755D02*
X0187241Y0080755D01*
X0186968Y0078357D02*
X0180068Y0078357D01*
X0175268Y0078640D02*
X0175268Y0086673D01*
X0176055Y0087460D01*
X0176873Y0088278D01*
X0192930Y0088278D01*
X0198892Y0088078D02*
X0198892Y0088478D01*
X0200379Y0088478D01*
X0200379Y0088078D01*
X0198892Y0088078D01*
X0205179Y0085969D02*
X0207870Y0083278D01*
X0207870Y0071572D01*
X0207871Y0071571D01*
X0201611Y0065311D01*
X0201611Y0048697D01*
X0195666Y0043382D01*
X0171690Y0043421D01*
X0164997Y0043421D02*
X0161752Y0043246D01*
X0154132Y0035626D01*
X0102831Y0035626D01*
X0109131Y0042004D02*
X0111020Y0040114D01*
X0141493Y0040114D01*
X0144660Y0043281D01*
X0145211Y0043281D01*
X0145194Y0043264D01*
X0145211Y0043281D02*
X0151302Y0043281D01*
X0152310Y0044289D01*
X0152310Y0048490D01*
X0152349Y0048490D01*
X0152349Y0048536D01*
X0152195Y0048382D01*
X0148698Y0048382D01*
X0145016Y0052063D01*
X0145016Y0058100D01*
X0145084Y0058168D01*
X0145084Y0065460D01*
X0141335Y0069209D01*
X0146754Y0070710D02*
X0146848Y0070484D01*
X0149153Y0068179D01*
X0149884Y0066415D01*
X0149884Y0066099D01*
X0151981Y0066099D01*
X0152584Y0065849D01*
X0153186Y0066099D01*
X0156981Y0066099D01*
X0157584Y0065849D01*
X0158186Y0066099D01*
X0161981Y0066099D01*
X0162584Y0065849D01*
X0163186Y0066099D01*
X0164494Y0066099D01*
X0164494Y0066946D01*
X0161859Y0066946D01*
X0160095Y0067677D01*
X0157514Y0070258D01*
X0157038Y0070733D01*
X0156981Y0070710D01*
X0153186Y0070710D01*
X0152584Y0070959D01*
X0151981Y0070710D01*
X0148186Y0070710D01*
X0147584Y0070959D01*
X0146981Y0070710D01*
X0146754Y0070710D01*
X0148569Y0068763D02*
X0159009Y0068763D01*
X0162814Y0071746D02*
X0160233Y0074327D01*
X0160233Y0078491D01*
X0160084Y0078640D01*
X0155084Y0078640D02*
X0155084Y0083453D01*
X0150430Y0088106D01*
X0150430Y0088224D01*
X0148501Y0090154D01*
X0148501Y0090232D01*
X0146099Y0092634D01*
X0146099Y0102713D01*
X0141453Y0107358D01*
X0097713Y0107358D01*
X0094012Y0103657D01*
X0094012Y0082122D01*
X0091257Y0079366D01*
X0082595Y0079366D01*
X0069288Y0066059D01*
X0069288Y0054799D01*
X0062044Y0047555D01*
X0062044Y0036138D01*
X0062635Y0035547D01*
X0055885Y0035184D02*
X0051260Y0035184D01*
X0051260Y0033813D02*
X0051260Y0057059D01*
X0053182Y0055136D01*
X0061872Y0055136D01*
X0064488Y0057752D01*
X0064488Y0056787D01*
X0059325Y0051624D01*
X0057975Y0050274D01*
X0057244Y0048510D01*
X0057244Y0041548D01*
X0056433Y0040736D01*
X0055885Y0039413D01*
X0055885Y0033809D01*
X0051260Y0033813D01*
X0051260Y0037582D02*
X0055885Y0037582D01*
X0056120Y0039981D02*
X0051260Y0039981D01*
X0051260Y0042379D02*
X0057244Y0042379D01*
X0057244Y0044778D02*
X0051260Y0044778D01*
X0051260Y0047176D02*
X0057244Y0047176D01*
X0057685Y0049575D02*
X0051260Y0049575D01*
X0051260Y0051973D02*
X0059674Y0051973D01*
X0059325Y0051624D02*
X0059325Y0051624D01*
X0062072Y0054372D02*
X0051260Y0054372D01*
X0051260Y0056770D02*
X0051548Y0056770D01*
X0063506Y0056770D02*
X0064471Y0056770D01*
X0075430Y0064091D02*
X0075430Y0048579D01*
X0072635Y0045783D01*
X0072635Y0035705D01*
X0072871Y0035469D01*
X0082359Y0036098D02*
X0082871Y0035587D01*
X0082359Y0036098D02*
X0082359Y0060311D01*
X0090194Y0068146D01*
X0116572Y0068146D01*
X0121138Y0063579D01*
X0121138Y0063421D01*
X0125981Y0058579D01*
X0125587Y0047161D01*
X0120477Y0044914D02*
X0113009Y0044914D01*
X0111850Y0046073D01*
X0110085Y0046804D01*
X0107988Y0046804D01*
X0113883Y0052698D01*
X0113883Y0061388D01*
X0111926Y0063346D01*
X0114583Y0063346D01*
X0116958Y0060971D01*
X0117069Y0060702D01*
X0121112Y0056660D01*
X0120895Y0050362D01*
X0120856Y0050323D01*
X0120006Y0048272D01*
X0120006Y0046051D01*
X0120477Y0044914D01*
X0120006Y0047176D02*
X0108361Y0047176D01*
X0110759Y0049575D02*
X0120546Y0049575D01*
X0120950Y0051973D02*
X0113158Y0051973D01*
X0113883Y0054372D02*
X0121033Y0054372D01*
X0121001Y0056770D02*
X0113883Y0056770D01*
X0113883Y0059169D02*
X0118603Y0059169D01*
X0116362Y0061567D02*
X0113704Y0061567D01*
X0120641Y0070865D02*
X0125208Y0066298D01*
X0125319Y0066029D01*
X0125981Y0065367D01*
X0128790Y0068176D01*
X0130554Y0068907D01*
X0130630Y0068907D01*
X0130630Y0072919D01*
X0131361Y0074684D01*
X0132711Y0076034D01*
X0134585Y0077908D01*
X0134463Y0078031D01*
X0130144Y0078031D01*
X0128380Y0078761D01*
X0124666Y0082476D01*
X0122780Y0083257D01*
X0121883Y0084154D01*
X0121883Y0082211D01*
X0121883Y0080301D01*
X0121153Y0078537D01*
X0115561Y0072946D01*
X0117526Y0072946D01*
X0119290Y0072215D01*
X0120641Y0070865D01*
X0120344Y0071161D02*
X0130630Y0071161D01*
X0135430Y0071965D02*
X0135430Y0064156D01*
X0135380Y0064107D01*
X0131509Y0064107D01*
X0125981Y0058579D01*
X0135380Y0057414D02*
X0144329Y0057414D01*
X0145016Y0058100D01*
X0140216Y0052614D02*
X0140216Y0051109D01*
X0140947Y0049344D01*
X0142219Y0048072D01*
X0142032Y0047995D01*
X0140462Y0046425D01*
X0140071Y0045480D01*
X0139505Y0044914D01*
X0130697Y0044914D01*
X0131168Y0046051D01*
X0131168Y0048272D01*
X0130485Y0049921D01*
X0130591Y0052978D01*
X0131373Y0052196D01*
X0132696Y0051648D01*
X0138065Y0051648D01*
X0139388Y0052196D01*
X0139805Y0052614D01*
X0140216Y0052614D01*
X0140216Y0051973D02*
X0138850Y0051973D01*
X0140851Y0049575D02*
X0130629Y0049575D01*
X0130556Y0051973D02*
X0131911Y0051973D01*
X0131168Y0047176D02*
X0141213Y0047176D01*
X0152226Y0048413D02*
X0152349Y0048536D01*
X0152359Y0048526D01*
X0158855Y0048349D02*
X0158855Y0045232D01*
X0160627Y0043185D01*
X0161752Y0043246D01*
X0158855Y0048349D02*
X0159042Y0048536D01*
X0160084Y0049578D01*
X0160084Y0058168D01*
X0170084Y0058168D02*
X0170084Y0066051D01*
X0170075Y0066059D01*
X0175657Y0066099D02*
X0175657Y0066946D01*
X0178129Y0066946D01*
X0178129Y0065623D01*
X0176981Y0066099D01*
X0175657Y0066099D01*
X0175657Y0066364D02*
X0178129Y0066364D01*
X0183461Y0065014D02*
X0183461Y0058972D01*
X0178737Y0054642D02*
X0190942Y0054642D01*
X0192930Y0056630D01*
X0192930Y0078278D01*
X0198892Y0078357D02*
X0203070Y0078357D01*
X0203070Y0078478D02*
X0203070Y0074564D01*
X0202358Y0072847D01*
X0197730Y0068219D01*
X0197730Y0074523D01*
X0198344Y0075137D01*
X0198892Y0076460D01*
X0198892Y0078478D01*
X0203070Y0078478D01*
X0203070Y0075958D02*
X0198685Y0075958D01*
X0197730Y0073560D02*
X0202654Y0073560D01*
X0200673Y0071161D02*
X0197730Y0071161D01*
X0197730Y0068763D02*
X0198275Y0068763D01*
X0183895Y0071746D02*
X0162814Y0071746D01*
X0164494Y0066364D02*
X0149884Y0066364D01*
X0138973Y0075508D02*
X0135430Y0071965D01*
X0130895Y0073560D02*
X0116176Y0073560D01*
X0118574Y0075958D02*
X0132635Y0075958D01*
X0129357Y0078357D02*
X0120973Y0078357D01*
X0121883Y0080755D02*
X0126386Y0080755D01*
X0131099Y0082831D02*
X0125942Y0087988D01*
X0121883Y0091823D02*
X0121883Y0092063D01*
X0124983Y0095162D01*
X0125117Y0095218D01*
X0126468Y0096568D01*
X0126495Y0096636D01*
X0127274Y0097414D01*
X0127274Y0096676D01*
X0128031Y0095919D01*
X0128031Y0094646D01*
X0127994Y0094544D01*
X0128031Y0093695D01*
X0128031Y0093164D01*
X0127052Y0093569D01*
X0124831Y0093569D01*
X0122780Y0092720D01*
X0121883Y0091823D01*
X0122568Y0092748D02*
X0122849Y0092748D01*
X0117083Y0094051D02*
X0117083Y0081256D01*
X0110272Y0074445D01*
X0085784Y0074445D01*
X0075430Y0064091D01*
X0087159Y0058323D02*
X0092182Y0063346D01*
X0094861Y0063346D01*
X0092903Y0061388D01*
X0092903Y0052698D01*
X0098798Y0046804D01*
X0094751Y0046804D01*
X0092986Y0046073D01*
X0090073Y0043160D01*
X0089250Y0042337D01*
X0088887Y0042337D01*
X0087812Y0041891D01*
X0087159Y0042162D01*
X0087159Y0058323D01*
X0088005Y0059169D02*
X0092903Y0059169D01*
X0093082Y0061567D02*
X0090403Y0061567D01*
X0092903Y0056770D02*
X0087159Y0056770D01*
X0087159Y0054372D02*
X0092903Y0054372D01*
X0093628Y0051973D02*
X0087159Y0051973D01*
X0087159Y0049575D02*
X0096027Y0049575D01*
X0098425Y0047176D02*
X0087159Y0047176D01*
X0087159Y0044778D02*
X0091691Y0044778D01*
X0089292Y0042379D02*
X0087159Y0042379D01*
X0092792Y0039091D02*
X0092792Y0035626D01*
X0092753Y0035587D01*
X0092792Y0039091D02*
X0095705Y0042004D01*
X0109131Y0042004D01*
X0077559Y0041878D02*
X0077559Y0043920D01*
X0077434Y0043795D01*
X0077434Y0041929D01*
X0077559Y0041878D01*
X0077559Y0042379D02*
X0077434Y0042379D01*
X0067835Y0042379D02*
X0066844Y0042379D01*
X0066844Y0042155D02*
X0066844Y0045567D01*
X0067835Y0046557D01*
X0067835Y0041738D01*
X0067824Y0041749D01*
X0066844Y0042155D01*
X0066844Y0044778D02*
X0067835Y0044778D01*
X0122743Y0068763D02*
X0130207Y0068763D01*
X0126978Y0066364D02*
X0125141Y0066364D01*
X0138973Y0075508D02*
X0141951Y0075508D01*
X0145084Y0078640D01*
X0144823Y0078901D01*
X0144823Y0082807D01*
X0132831Y0093799D01*
X0132831Y0098965D01*
X0132855Y0098988D01*
X0128031Y0095147D02*
X0124967Y0095147D01*
X0122398Y0099287D02*
X0122398Y0099327D01*
X0122359Y0099327D01*
X0117083Y0094051D01*
X0113789Y0097545D02*
X0112505Y0097545D01*
X0113014Y0096770D02*
X0112283Y0095006D01*
X0112283Y0086779D01*
X0107590Y0091472D01*
X0112505Y0096388D01*
X0112505Y0102558D01*
X0118802Y0102558D01*
X0114364Y0098120D01*
X0113014Y0096770D01*
X0112342Y0095147D02*
X0111264Y0095147D01*
X0112283Y0092748D02*
X0108865Y0092748D01*
X0108713Y0090349D02*
X0112283Y0090349D01*
X0112283Y0087951D02*
X0111111Y0087951D01*
X0100181Y0091669D02*
X0098812Y0090301D01*
X0098812Y0093038D01*
X0100181Y0091669D01*
X0099102Y0092748D02*
X0098812Y0092748D01*
X0098812Y0090349D02*
X0098861Y0090349D01*
X0089212Y0090349D02*
X0051260Y0090349D01*
X0051260Y0087951D02*
X0089212Y0087951D01*
X0089212Y0085552D02*
X0051260Y0085552D01*
X0051260Y0083154D02*
X0079595Y0083154D01*
X0079876Y0083435D02*
X0067214Y0070773D01*
X0061872Y0076116D01*
X0053182Y0076116D01*
X0051260Y0074194D01*
X0051260Y0101980D01*
X0053182Y0100058D01*
X0061872Y0100058D01*
X0068017Y0106202D01*
X0068017Y0114892D01*
X0061872Y0121037D01*
X0053182Y0121037D01*
X0051260Y0119115D01*
X0051260Y0133689D01*
X0198343Y0133545D01*
X0196824Y0132026D01*
X0196740Y0131824D01*
X0195418Y0131276D01*
X0194405Y0130264D01*
X0193857Y0128940D01*
X0193857Y0123396D01*
X0193397Y0123857D01*
X0192046Y0125207D01*
X0190282Y0125938D01*
X0140695Y0125938D01*
X0138931Y0125207D01*
X0131664Y0117939D01*
X0130559Y0117939D01*
X0127290Y0114670D01*
X0127290Y0112158D01*
X0118618Y0112158D01*
X0123095Y0116635D01*
X0123095Y0125325D01*
X0116951Y0131470D01*
X0108261Y0131470D01*
X0102116Y0125325D01*
X0102116Y0116635D01*
X0106593Y0112158D01*
X0096758Y0112158D01*
X0094994Y0111427D01*
X0091293Y0107727D01*
X0089943Y0106376D01*
X0089212Y0104612D01*
X0089212Y0084166D01*
X0081640Y0084166D01*
X0079876Y0083435D01*
X0077196Y0080755D02*
X0051260Y0080755D01*
X0051260Y0078357D02*
X0074798Y0078357D01*
X0072399Y0075958D02*
X0062029Y0075958D01*
X0064428Y0073560D02*
X0070001Y0073560D01*
X0067602Y0071161D02*
X0066826Y0071161D01*
X0053025Y0075958D02*
X0051260Y0075958D01*
X0051260Y0092748D02*
X0089212Y0092748D01*
X0089212Y0095147D02*
X0051260Y0095147D01*
X0051260Y0097545D02*
X0089212Y0097545D01*
X0089212Y0099944D02*
X0051260Y0099944D01*
X0064156Y0102342D02*
X0089212Y0102342D01*
X0089266Y0104741D02*
X0066555Y0104741D01*
X0068017Y0107139D02*
X0090706Y0107139D01*
X0093104Y0109538D02*
X0068017Y0109538D01*
X0068017Y0111936D02*
X0096222Y0111936D01*
X0104417Y0114335D02*
X0068017Y0114335D01*
X0066176Y0116733D02*
X0102116Y0116733D01*
X0102116Y0119132D02*
X0063777Y0119132D01*
X0051277Y0119132D02*
X0051260Y0119132D01*
X0051260Y0121530D02*
X0102116Y0121530D01*
X0102116Y0123929D02*
X0051260Y0123929D01*
X0051260Y0126327D02*
X0103118Y0126327D01*
X0105516Y0128726D02*
X0051260Y0128726D01*
X0051260Y0131124D02*
X0107915Y0131124D01*
X0117297Y0131124D02*
X0195266Y0131124D01*
X0198320Y0133523D02*
X0051260Y0133523D01*
X0112505Y0102342D02*
X0118586Y0102342D01*
X0116187Y0099944D02*
X0112505Y0099944D01*
X0122398Y0099327D02*
X0126886Y0103815D01*
X0138383Y0103815D01*
X0141650Y0100547D01*
X0141650Y0092083D01*
X0150233Y0083500D01*
X0150233Y0078790D01*
X0150084Y0078640D01*
X0138186Y0082201D02*
X0137556Y0082831D01*
X0131099Y0082831D01*
X0138028Y0082358D02*
X0138186Y0082201D01*
X0123028Y0083154D02*
X0121883Y0083154D01*
X0151965Y0091728D02*
X0155075Y0088618D01*
X0164879Y0088618D01*
X0164957Y0088697D01*
X0164957Y0095393D01*
X0164446Y0095905D01*
X0157753Y0095905D02*
X0157753Y0102004D01*
X0157477Y0102280D01*
X0161168Y0105971D01*
X0163003Y0105971D01*
X0157723Y0102034D02*
X0157477Y0102280D01*
X0151965Y0105823D02*
X0151965Y0091728D01*
X0164957Y0088697D02*
X0164957Y0078767D01*
X0165084Y0078640D01*
X0169830Y0078640D02*
X0170084Y0078640D01*
X0170084Y0102028D01*
X0169696Y0105971D01*
X0171517Y0103461D01*
X0183894Y0103461D01*
X0176375Y0099130D02*
X0176375Y0094472D01*
X0176055Y0094153D01*
X0176024Y0088278D02*
X0176055Y0087460D01*
X0175268Y0078640D02*
X0175084Y0078640D01*
X0183461Y0065014D02*
X0183895Y0065053D01*
X0175084Y0061225D02*
X0175084Y0058295D01*
X0178737Y0054642D01*
X0175084Y0058168D02*
X0175084Y0058295D01*
X0168186Y0050237D02*
X0167584Y0050487D01*
X0166981Y0050237D01*
X0164884Y0050237D01*
X0164884Y0048990D01*
X0167878Y0048990D01*
X0168343Y0048797D01*
X0168808Y0048990D01*
X0170188Y0048990D01*
X0170188Y0050237D01*
X0168186Y0050237D01*
X0170188Y0049575D02*
X0164884Y0049575D01*
X0175769Y0049312D02*
X0186067Y0049312D01*
X0192760Y0049312D02*
X0192910Y0049462D01*
X0192910Y0052673D01*
X0190942Y0054642D01*
X0175799Y0049312D02*
X0175769Y0049312D01*
X0197375Y0038895D02*
X0198153Y0039167D01*
X0198254Y0039257D01*
X0198378Y0039308D01*
X0198962Y0039890D01*
X0204202Y0044575D01*
X0204330Y0044628D01*
X0204910Y0045208D01*
X0205522Y0045755D01*
X0205582Y0045880D01*
X0205680Y0045978D01*
X0205994Y0046736D01*
X0206350Y0047475D01*
X0206358Y0047614D01*
X0206411Y0047742D01*
X0206411Y0048563D01*
X0206457Y0049382D01*
X0206411Y0049513D01*
X0206411Y0056763D01*
X0206858Y0056316D01*
X0210726Y0056316D01*
X0210726Y0054948D01*
X0214358Y0051316D01*
X0219494Y0051316D01*
X0223126Y0054948D01*
X0223126Y0060084D01*
X0220694Y0062516D01*
X0223126Y0064948D01*
X0223126Y0070084D01*
X0219731Y0073478D01*
X0223619Y0073478D01*
X0224334Y0072763D01*
X0225657Y0072215D01*
X0231026Y0072215D01*
X0231688Y0072489D01*
X0232350Y0072215D01*
X0236542Y0072215D01*
X0236542Y0070854D01*
X0237323Y0068969D01*
X0237323Y0045144D01*
X0238053Y0043379D01*
X0243644Y0037789D01*
X0244994Y0036439D01*
X0246758Y0035708D01*
X0267402Y0035708D01*
X0267402Y0033977D01*
X0267558Y0033602D01*
X0159003Y0033708D01*
X0163147Y0037853D01*
X0167878Y0037853D01*
X0168343Y0038045D01*
X0168808Y0037853D01*
X0174571Y0037853D01*
X0175894Y0038401D01*
X0176107Y0038614D01*
X0195528Y0038582D01*
X0196351Y0038536D01*
X0196478Y0038581D01*
X0196613Y0038580D01*
X0197375Y0038895D01*
X0199063Y0039981D02*
X0241452Y0039981D01*
X0243851Y0037582D02*
X0162877Y0037582D01*
X0160478Y0035184D02*
X0267402Y0035184D01*
X0268174Y0040508D02*
X0268264Y0040599D01*
X0266008Y0040599D01*
X0268174Y0040508D02*
X0247713Y0040508D01*
X0242123Y0046098D01*
X0242123Y0071965D01*
X0247704Y0071368D02*
X0248727Y0070944D01*
X0269446Y0070944D01*
X0268845Y0070695D01*
X0267833Y0069683D01*
X0267285Y0068359D01*
X0267285Y0055116D01*
X0267833Y0053793D01*
X0268845Y0052780D01*
X0270169Y0052232D01*
X0283412Y0052232D01*
X0284735Y0052780D01*
X0285559Y0053604D01*
X0285559Y0048850D01*
X0284853Y0049556D01*
X0283530Y0050104D01*
X0270286Y0050104D01*
X0268963Y0049556D01*
X0267950Y0048543D01*
X0267402Y0047220D01*
X0267402Y0045399D01*
X0265054Y0045399D01*
X0264835Y0045308D01*
X0249701Y0045308D01*
X0246923Y0048087D01*
X0246923Y0057861D01*
X0247880Y0056904D01*
X0252933Y0056904D01*
X0255027Y0058997D01*
X0257071Y0056953D01*
X0262124Y0056953D01*
X0265697Y0060527D01*
X0265697Y0065580D01*
X0262124Y0069153D01*
X0257071Y0069153D01*
X0254977Y0067060D01*
X0252933Y0069104D01*
X0247880Y0069104D01*
X0246923Y0068146D01*
X0246923Y0068969D01*
X0247704Y0070854D01*
X0247704Y0071368D01*
X0247704Y0071161D02*
X0248202Y0071161D01*
X0247539Y0068763D02*
X0246923Y0068763D01*
X0253274Y0068763D02*
X0256680Y0068763D01*
X0262514Y0068763D02*
X0267452Y0068763D01*
X0267285Y0066364D02*
X0264913Y0066364D01*
X0265697Y0063966D02*
X0267285Y0063966D01*
X0267285Y0061567D02*
X0265697Y0061567D01*
X0264340Y0059169D02*
X0267285Y0059169D01*
X0267285Y0056770D02*
X0246923Y0056770D01*
X0246923Y0054372D02*
X0267593Y0054372D01*
X0269009Y0049575D02*
X0246923Y0049575D01*
X0246923Y0051973D02*
X0285559Y0051973D01*
X0285559Y0049575D02*
X0284807Y0049575D01*
X0295064Y0052880D02*
X0295233Y0053049D01*
X0295233Y0061965D01*
X0281453Y0075744D01*
X0249682Y0075744D01*
X0247949Y0077476D01*
X0235539Y0077476D01*
X0235034Y0077981D01*
X0228342Y0077981D02*
X0228044Y0078278D01*
X0218442Y0078278D01*
X0214041Y0074124D02*
X0213028Y0075137D01*
X0212670Y0076002D01*
X0212670Y0074570D01*
X0213414Y0072772D01*
X0214358Y0073716D01*
X0215026Y0073716D01*
X0214041Y0074124D01*
X0214202Y0073560D02*
X0213088Y0073560D01*
X0212688Y0075958D02*
X0212670Y0075958D01*
X0222048Y0071161D02*
X0236542Y0071161D01*
X0237323Y0068763D02*
X0223126Y0068763D01*
X0223126Y0066364D02*
X0237323Y0066364D01*
X0237323Y0063966D02*
X0222144Y0063966D01*
X0221642Y0061567D02*
X0237323Y0061567D01*
X0237323Y0059169D02*
X0223126Y0059169D01*
X0223126Y0056770D02*
X0237323Y0056770D01*
X0237323Y0054372D02*
X0222550Y0054372D01*
X0220152Y0051973D02*
X0237323Y0051973D01*
X0237323Y0049575D02*
X0206411Y0049575D01*
X0206411Y0051973D02*
X0213700Y0051973D01*
X0211302Y0054372D02*
X0206411Y0054372D01*
X0206206Y0047176D02*
X0237323Y0047176D01*
X0237474Y0044778D02*
X0204480Y0044778D01*
X0201746Y0042379D02*
X0239054Y0042379D01*
X0247833Y0047176D02*
X0267402Y0047176D01*
X0268264Y0040599D02*
X0276908Y0040599D01*
X0286413Y0039981D02*
X0300742Y0039981D01*
X0300733Y0037582D02*
X0286413Y0037582D01*
X0286413Y0035184D02*
X0300725Y0035184D01*
X0300719Y0033570D02*
X0300754Y0043375D01*
X0288443Y0043375D01*
X0287120Y0043923D01*
X0286413Y0044629D01*
X0286413Y0033977D01*
X0286251Y0033584D01*
X0300719Y0033570D01*
X0300750Y0042379D02*
X0286413Y0042379D01*
X0286296Y0061014D02*
X0286296Y0064114D01*
X0288146Y0062263D01*
X0287120Y0061838D01*
X0286296Y0061014D01*
X0286296Y0061567D02*
X0286849Y0061567D01*
X0286443Y0063966D02*
X0286296Y0063966D01*
X0295223Y0068763D02*
X0300842Y0068763D01*
X0300834Y0066364D02*
X0297621Y0066364D01*
X0297952Y0066034D02*
X0290264Y0073721D01*
X0300859Y0073721D01*
X0300820Y0062386D01*
X0300033Y0062386D01*
X0300033Y0062919D01*
X0299302Y0064684D01*
X0297952Y0066034D01*
X0299599Y0063966D02*
X0300825Y0063966D01*
X0300850Y0071161D02*
X0292824Y0071161D01*
X0290426Y0073560D02*
X0300859Y0073560D01*
X0267241Y0088334D02*
X0265737Y0089838D01*
X0265737Y0092273D01*
X0265002Y0093007D01*
X0266062Y0093447D01*
X0267241Y0094625D01*
X0267241Y0088334D01*
X0267241Y0090349D02*
X0265737Y0090349D01*
X0265262Y0092748D02*
X0267241Y0092748D01*
X0263343Y0097516D02*
X0244376Y0097516D01*
X0244336Y0097555D01*
X0235018Y0088237D01*
X0240586Y0087017D02*
X0240586Y0085355D01*
X0240038Y0084032D01*
X0239123Y0083117D01*
X0239964Y0082276D01*
X0248904Y0082276D01*
X0250668Y0081546D01*
X0251670Y0080544D01*
X0260323Y0080544D01*
X0257221Y0083646D01*
X0257110Y0083646D01*
X0256635Y0084121D01*
X0256602Y0084140D01*
X0256553Y0084203D01*
X0255066Y0085690D01*
X0252972Y0083596D01*
X0247919Y0083596D01*
X0244346Y0087170D01*
X0244346Y0090777D01*
X0240586Y0087017D01*
X0241520Y0087951D02*
X0244346Y0087951D01*
X0244346Y0090349D02*
X0243919Y0090349D01*
X0245963Y0085552D02*
X0240586Y0085552D01*
X0239160Y0083154D02*
X0257713Y0083154D01*
X0260112Y0080755D02*
X0251459Y0080755D01*
X0254928Y0085552D02*
X0255204Y0085552D01*
X0263343Y0097516D02*
X0267245Y0101418D01*
X0295459Y0101418D01*
X0286141Y0108490D02*
X0286141Y0115895D01*
X0286403Y0115262D01*
X0287415Y0114250D01*
X0288739Y0113702D01*
X0300998Y0113702D01*
X0300989Y0110923D01*
X0288838Y0110923D01*
X0287515Y0110375D01*
X0286502Y0109363D01*
X0286141Y0108490D01*
X0286141Y0109538D02*
X0286677Y0109538D01*
X0286141Y0111936D02*
X0300992Y0111936D01*
X0287330Y0114335D02*
X0286141Y0114335D01*
X0285855Y0118127D02*
X0285592Y0118760D01*
X0284580Y0119773D01*
X0283257Y0120321D01*
X0270013Y0120321D01*
X0268690Y0119773D01*
X0267678Y0118760D01*
X0267129Y0117437D01*
X0267129Y0113996D01*
X0265540Y0112406D01*
X0265540Y0117076D01*
X0261967Y0120649D01*
X0256913Y0120649D01*
X0254820Y0118556D01*
X0252776Y0120600D01*
X0252068Y0120600D01*
X0248358Y0124310D01*
X0246299Y0125163D01*
X0239442Y0125163D01*
X0238209Y0126396D01*
X0243429Y0126396D01*
X0243829Y0126561D01*
X0258286Y0126561D01*
X0258286Y0126511D01*
X0258835Y0125187D01*
X0259847Y0124175D01*
X0261170Y0123627D01*
X0269689Y0123627D01*
X0271012Y0124175D01*
X0272025Y0125187D01*
X0272573Y0126511D01*
X0272573Y0133473D01*
X0274428Y0133471D01*
X0274428Y0126511D01*
X0274976Y0125187D01*
X0275989Y0124175D01*
X0277312Y0123627D01*
X0285831Y0123627D01*
X0285855Y0123636D01*
X0285855Y0118127D01*
X0285855Y0119132D02*
X0285221Y0119132D01*
X0285855Y0121530D02*
X0251138Y0121530D01*
X0248739Y0123929D02*
X0260441Y0123929D01*
X0258362Y0126327D02*
X0238278Y0126327D01*
X0254244Y0119132D02*
X0255396Y0119132D01*
X0263484Y0119132D02*
X0268049Y0119132D01*
X0267129Y0116733D02*
X0265540Y0116733D01*
X0265540Y0114335D02*
X0267129Y0114335D01*
X0270863Y0110941D02*
X0263776Y0103854D01*
X0242910Y0103854D01*
X0237282Y0098226D01*
X0234946Y0098226D01*
X0235062Y0098343D01*
X0228253Y0098226D02*
X0228200Y0098278D01*
X0218442Y0098278D01*
X0212480Y0098078D02*
X0210236Y0098078D01*
X0210077Y0098237D01*
X0210072Y0098248D01*
X0210072Y0098478D01*
X0212480Y0098478D01*
X0212480Y0098078D01*
X0208247Y0093278D02*
X0205853Y0095673D01*
X0205853Y0095891D01*
X0205424Y0096320D01*
X0208247Y0093278D02*
X0209839Y0093278D01*
X0209839Y0089287D01*
X0218442Y0088278D02*
X0228284Y0088278D01*
X0228325Y0088237D01*
X0218442Y0083278D02*
X0207870Y0083278D01*
X0209839Y0093278D02*
X0218442Y0093278D01*
X0218442Y0103278D02*
X0208705Y0103278D01*
X0205418Y0106566D01*
X0205272Y0106420D02*
X0202130Y0103278D01*
X0192930Y0103278D01*
X0192930Y0108278D02*
X0178644Y0108278D01*
X0173225Y0113697D01*
X0159839Y0113697D01*
X0151965Y0105823D01*
X0147651Y0107949D02*
X0147896Y0108542D01*
X0149246Y0109892D01*
X0155692Y0116338D01*
X0143638Y0116338D01*
X0139459Y0112158D01*
X0142408Y0112158D01*
X0144172Y0111427D01*
X0147651Y0107949D01*
X0148892Y0109538D02*
X0146062Y0109538D01*
X0142945Y0111936D02*
X0151290Y0111936D01*
X0153689Y0114335D02*
X0141635Y0114335D01*
X0141650Y0121138D02*
X0132871Y0112358D01*
X0127290Y0114335D02*
X0120795Y0114335D01*
X0123095Y0116733D02*
X0129353Y0116733D01*
X0132856Y0119132D02*
X0123095Y0119132D01*
X0123095Y0121530D02*
X0135254Y0121530D01*
X0137653Y0123929D02*
X0123095Y0123929D01*
X0122094Y0126327D02*
X0193857Y0126327D01*
X0193857Y0123929D02*
X0193325Y0123929D01*
X0189327Y0121138D02*
X0141650Y0121138D01*
X0119695Y0128726D02*
X0193857Y0128726D01*
X0189327Y0121138D02*
X0192930Y0117535D01*
X0192930Y0113278D01*
X0205418Y0113278D01*
X0210293Y0108478D02*
X0212480Y0108478D01*
X0212480Y0108078D01*
X0210693Y0108078D01*
X0210293Y0108478D01*
X0218442Y0108278D02*
X0228167Y0108278D01*
X0228269Y0108381D01*
X0234962Y0108381D02*
X0241137Y0108381D01*
X0241335Y0108579D01*
X0246916Y0108654D02*
X0246916Y0109205D01*
X0247467Y0108654D01*
X0246916Y0108654D01*
X0253030Y0108654D02*
X0254869Y0110493D01*
X0256708Y0108654D01*
X0253030Y0108654D01*
X0253914Y0109538D02*
X0255825Y0109538D01*
X0270863Y0110941D02*
X0276509Y0110941D01*
X0276635Y0110815D01*
X0276583Y0123929D02*
X0270418Y0123929D01*
X0272497Y0126327D02*
X0274504Y0126327D01*
X0274428Y0128726D02*
X0272573Y0128726D01*
X0272573Y0131124D02*
X0274428Y0131124D01*
X0293034Y0133453D02*
X0301067Y0133445D01*
X0301064Y0132713D01*
X0293774Y0132713D01*
X0293034Y0133453D01*
X0239750Y0113963D02*
X0238919Y0113619D01*
X0238088Y0113963D01*
X0239750Y0113963D01*
X0200542Y0108478D02*
X0200142Y0108078D01*
X0198892Y0108078D01*
X0198892Y0108478D01*
X0200542Y0108478D01*
X0186968Y0113078D02*
X0180632Y0113078D01*
X0177372Y0116338D01*
X0187339Y0116338D01*
X0187440Y0116237D01*
X0186968Y0115097D01*
X0186968Y0113078D01*
X0186968Y0114335D02*
X0179376Y0114335D01*
X0286252Y0094077D02*
X0286252Y0091185D01*
X0287252Y0092184D01*
X0287716Y0092377D01*
X0287515Y0092460D01*
X0286502Y0093473D01*
X0286252Y0094077D01*
X0286252Y0092748D02*
X0287227Y0092748D01*
D24*
X0241335Y0108579D03*
X0209839Y0089287D03*
X0176375Y0099130D03*
X0157477Y0102280D03*
X0125942Y0087988D03*
X0138186Y0082201D03*
X0141335Y0069209D03*
X0170075Y0066059D03*
X0183461Y0058972D03*
X0175769Y0049312D03*
X0145194Y0043264D03*
X0125587Y0047161D03*
X0207871Y0071571D03*
X0242123Y0071965D03*
D25*
X0260075Y0088146D02*
X0266808Y0081413D01*
X0293383Y0081413D01*
X0295196Y0083227D01*
X0260075Y0088146D02*
X0259637Y0089746D01*
D26*
X0132855Y0098988D03*
X0132871Y0112358D03*
D27*
X0205418Y0111925D02*
X0205418Y0113278D01*
D28*
X0201394Y0124287D02*
X0201572Y0124465D01*
X0201572Y0128854D01*
X0204879Y0132161D01*
X0234052Y0132161D01*
X0240745Y0132161D02*
X0263841Y0132161D01*
X0265430Y0130573D01*
X0281572Y0130573D02*
X0287994Y0130573D01*
X0295360Y0123207D01*
X0250249Y0114500D02*
X0245185Y0119563D01*
X0237123Y0119563D01*
X0232398Y0124287D01*
X0225607Y0124287D01*
M02*
